<?xml version="1.0" encoding="UTF-8" standalone="no"?>
<!-- Created with Inkscape (http://www.inkscape.org/) -->

<svg
   version="1.1"
   id="svg2"
   width="149.33333"
   height="113.33333"
   viewBox="0 0 149.33333 113.33333"
   xmlns="http://www.w3.org/2000/svg"
   xmlns:svg="http://www.w3.org/2000/svg">
  <defs
     id="defs6" />
  <g
     id="g8">
    <path
       style="fill:#000000;stroke-width:1.33333"
       d="M 32.666666,103.55206 C 17.815381,101.33309 14.71499,100.14318 11.944175,95.598897 8.0906408,89.278903 8.5722253,82.253364 13.333333,75.333331 c 2.2,-3.19759 4,-6.338445 4,-6.979677 0,-0.641232 2.072452,-3.428468 4.605449,-6.193856 3.254528,-3.553116 5.503401,-4.900648 7.666667,-4.59389 4.437009,0.629182 4.718113,5.478574 0.478596,8.256411 -3.769411,2.469814 -8.750712,11.269145 -8.750712,15.457895 0,5.549377 4.546902,8.053117 14.62482,8.053117 10.190115,0 11.250475,-1.47799 4.020971,-5.604653 -8.15227,-4.653387 -3.105755,-14.072913 9.109534,-17.003317 5.036475,-1.208231 8.000286,-1.102918 14.930915,0.530544 8.598293,2.026509 32.079,2.867741 33.738023,1.208716 1.354098,-1.354096 -5.110161,-4.204139 -11.816538,-5.209823 -8.948338,-1.341885 -11.853188,-5.1906 -8.560814,-11.342454 1.19662,-2.235905 2.871877,-2.579012 12.592314,-2.579012 9.71556,0 11.679062,-0.401691 14.710852,-3.009523 l 3.49878,-3.009522 -1.55024,-14.398471 c -0.85263,-7.919158 -1.18448,-15.855734 -0.73745,-17.636836 0.96187,-3.8324142 6.22262,-5.5944974 10.66269,-3.5714633 4.27109,1.9460363 7.11635,12.3228083 4.99069,18.2012133 -0.85133,2.354328 -1.59353,7.237998 -1.64932,10.8526 -0.1504,9.74443 -2.64389,15.518798 -7.844,18.164975 -7.37825,3.754565 -7.56144,4.727515 -1.21857,6.471865 3.20687,0.88192 7.73277,2.433536 10.05756,3.448036 2.32479,1.014501 6.04412,2.207993 8.26518,2.652205 6.62945,1.32589 10.92788,8.716675 7.66488,13.179095 -1.38153,1.889366 -5.65107,2.072424 -37.139779,1.592373 l -35.578795,-0.542404 0.76168,5.55706 c 0.632475,4.614406 0.227759,6.139617 -2.385852,8.991304 -1.731143,1.888834 -5.547532,4.047551 -8.480865,4.797151 -2.933333,0.7496 -7.133333,1.88299 -9.333333,2.51864 -2.281559,0.65921 -7.436883,0.64221 -12,-0.0396 z"
       id="path12" />
  </g>
</svg>
