<?xml version="1.0" encoding="UTF-8" standalone="no"?>
<!-- Created with Inkscape (http://www.inkscape.org/) -->

<svg
   version="1.1"
   id="svg2"
   width="637.33331"
   height="132"
   viewBox="0 0 637.33331 132"
   xmlns="http://www.w3.org/2000/svg"
   xmlns:svg="http://www.w3.org/2000/svg">
  <defs
     id="defs6" />
  <g
     id="g8">
    <path
       style="fill:#000000;stroke-width:1.33333"
       d="m 64.693834,125.37729 c -1.564722,-2.53177 0.474442,-7.86238 3.655239,-9.55522 9.741176,-5.1843 18.83293,-14.51384 20.917806,-21.464874 C 91.269337,87.680943 88.678378,83.812016 79.203042,79.329465 70.873796,75.3891 69.86636,72.02496 75.269665,66.194697 c 3.879089,-4.185606 4.97724,-4.265229 12.393952,-0.898634 7.036348,3.19394 19.207923,4.652113 28.813793,3.451938 8.45615,-1.056526 9.9023,-3.058114 5.89253,-8.155718 -3.21936,-4.092748 -3.71558,-10.910499 -0.9255,-12.715635 1.03889,-0.672143 7.28889,-1.069357 13.88889,-0.882697 l 12,0.339382 0.44278,3.883143 c 0.24354,2.135728 -0.15206,5.135728 -0.87909,6.666667 -2.46349,5.187441 -2.74288,7.251786 -1.15111,8.505369 3.50063,2.756871 31.85928,4.539616 34.24606,2.152849 0.99798,-0.997986 0.23414,-2.901257 -2.59115,-6.456425 -2.95059,-3.712835 -3.69021,-5.631872 -2.8068,-7.282545 1.63635,-3.057548 7.43828,-5.997788 9.94056,-5.037574 2.44221,0.937168 6.13208,9.242308 6.13208,13.802087 0,4.358543 -5.33721,11.950349 -11.20407,15.936973 -4.43886,3.01629 -5.68709,3.206894 -17.12522,2.615023 -6.78555,-0.351123 -14.73738,-1.313261 -17.67071,-2.138087 -10.12894,-2.848161 -11.00837,-2.884002 -15.37377,-0.626569 -3.1238,1.615381 -8.13269,2.333751 -17.43824,2.500972 -7.18058,0.12904 -13.433994,0.613012 -13.896483,1.075503 -0.462491,0.46249 -0.251497,1.942278 0.468875,3.28842 0.72037,1.34614 1.736048,5.290481 2.257068,8.765201 0.84962,5.66623 0.51075,6.99799 -3.286402,12.91533 -3.790553,5.90707 -8.445281,9.6432 -19.5669,15.70545 -4.56088,2.48608 -12.069726,3.49902 -13.136974,1.77217 z M 320.09476,104.33126 c -6.47598,-3.30219 -10.07404,-8.733609 -9.91074,-14.960764 0.26448,-10.086697 12.3353,-30.703829 17.97634,-30.703829 2.9906,0 4.83032,3.605964 3.05183,5.981774 -10.09351,13.483408 -11.51295,18.687176 -6.47231,23.727822 C 328.06821,91.704595 329.21835,92 338.84847,92 c 8.43098,0 10.48485,-0.391779 10.48485,-2 0,-1.1 -0.75,-2.00298 -1.66667,-2.006623 -0.91666,-0.0036 -3.41085,-1.402266 -5.54264,-3.108054 -5.62301,-4.499344 -5.15688,-10.365754 1.35338,-17.032866 2.73802,-2.803982 7.1257,-6.083305 9.75041,-7.287381 2.62471,-1.204077 6.51437,-3.023797 8.64371,-4.04382 2.12933,-1.020024 5.60065,-1.854589 7.71405,-1.854589 3.2842,0 4.21623,0.871817 6.41443,6 1.80885,4.219868 3.35378,6 5.20726,6 1.44944,0 3.00618,-0.6 3.4594,-1.333334 1.39652,-2.259612 5.88832,-1.475985 7.64276,1.333334 1.79026,2.866644 6.36327,3.470842 10.30466,1.361478 5.47553,-2.930418 5.57449,-8.715176 0.63708,-37.243657 -1.7763,-10.263523 -1.75276,-11.423569 0.27721,-13.666667 2.84071,-3.138942 9.3079,-3.204593 10.96338,-0.111293 0.68875,1.286925 1.91614,5.931057 2.72752,10.320295 1.35334,7.320808 1.24311,8.294446 -1.33354,11.779552 -2.5093,3.394006 -2.71214,4.891172 -1.90226,14.040277 1.09771,12.400623 -1.16345,19.353092 -8.34493,25.658513 -4.66578,4.096622 -4.9546,4.16182 -15.89272,3.587716 -12.73166,-0.668242 -16.88194,-2.819886 -20.85564,-10.812261 -2.71658,-5.463941 -5.67257,-6.210056 -10.93709,-2.760608 -4.84209,3.172659 -4.04483,5.436249 3.04691,8.650693 7.40076,3.354522 8.28553,4.42656 8.31292,10.072402 0.0276,5.693862 -10.26375,15.096263 -19.10736,17.456893 -9.28788,2.47921 -24.60438,2.13905 -30.11079,-0.66874 z m 220.23285,-7.203637 c -3.69072,-3.69072 -0.77874,-11.79429 4.23824,-11.79429 1.72629,0 4.54309,1.137199 6.25956,2.52711 2.6826,2.172241 2.93397,3.061593 1.79009,6.333333 -1.07293,3.068792 -2.23129,3.882615 -5.97885,4.200513 -2.55646,0.216859 -5.39552,-0.353141 -6.30904,-1.266666 z M 426.58301,83.232552 c -1.13524,-1.367881 -1.08589,-3.499884 0.19689,-8.505007 1.39458,-5.441344 1.39336,-8.846608 -0.007,-18.370198 -3.19204,-21.715523 -3.22142,-27.207295 -0.17147,-32.068788 3.70269,-5.901944 6.55228,-6.800762 9.60577,-3.029859 2.79314,3.449384 3.15776,9.286217 0.9598,15.364556 -1.15026,3.181011 -1.03524,7.347792 0.49422,17.903419 2.06638,14.261338 1.57018,20.37719 -2.10887,25.992124 -2.51164,3.833252 -6.93104,5.170312 -8.9698,2.713753 z M 11.356745,76.895223 C 4.4733408,70.299761 3.7762867,66.378051 7.5295347,55.362873 10.165293,47.627348 21.14303,35.513436 24.872738,36.22468 c 3.939424,0.751237 3.823006,5.924641 -0.19253,8.555723 -7.423293,4.863928 -9.607051,15.298101 -4.254189,20.326854 5.98754,5.625003 35.573979,6.297436 35.573979,0.808518 0,-0.894426 -2.4,-2.586519 -5.333333,-3.760206 -6.211697,-2.485429 -6.87562,-5.609636 -2.661069,-12.522137 3.04357,-4.991916 7.196854,-7.004317 12.402174,-6.009257 2.718586,0.51969 4.265118,2.179102 6.283616,6.742252 6.392955,14.452337 4.217013,21.128485 -9.15454,28.087624 -7.773266,4.045546 -8.730064,4.212616 -24.125483,4.212616 H 17.380158 Z m 229.309915,4.955089 c -1.46667,-0.341443 -3.99935,-0.904528 -5.62819,-1.251301 -1.62883,-0.346774 -3.63023,-1.880023 -4.44756,-3.407219 -1.22593,-2.290671 -0.95859,-3.338185 1.52727,-5.984257 C 234.45036,68.725024 236.51214,68 241.23948,68 c 5.88302,0 6.16523,-0.182825 7.66151,-4.963371 2.10476,-6.724566 -0.15355,-11.760977 -7.82132,-17.442912 -4.81365,-3.566992 -6.26568,-5.652526 -7.62315,-10.949073 -1.86534,-7.278227 -1.26497,-9.311311 2.74967,-9.311311 4.41667,0 9.90527,4.824008 14.66668,12.890763 2.45325,4.156288 5.44973,9.169285 6.65884,11.139993 1.20911,1.97071 2.51224,4.719988 2.89584,6.10951 0.62563,2.26625 0.28985,-11.476978 -0.72009,-29.473599 -0.36036,-6.421315 -0.23623,-6.68248 3.37316,-7.096344 5.61192,-0.64348 7.6771,1.842705 7.43478,8.950451 -0.1152,3.380241 -0.0955,12.91768 0.0441,21.194308 0.22762,13.508512 -0.0627,15.621614 -2.83639,20.649902 -4.67075,8.467155 -17.71632,14.326384 -27.05643,12.151995 z m 247.63,-1.259251 c -5.3429,-3.742316 -2.69053,-14.284053 5.88471,-23.38852 2.35991,-2.505554 3.17729,-4.733245 2.95388,-8.050532 -0.54741,-8.128354 3.45933,-10.214488 9.89522,-5.152009 1.89162,1.487939 5.40904,2.666667 7.95759,2.666667 5.90557,0 6.82677,1.066505 4.27937,4.954342 -2.79225,4.261516 -1.51492,7.4514 5.18086,12.938083 4.94653,4.053308 6.26976,4.513596 11.10949,3.864452 4.88913,-0.655771 5.71804,-1.306943 7.52757,-5.913564 2.46612,-6.278152 5.8317,-6.768676 7.79522,-1.136133 2.43325,6.980064 7.30232,8.452113 29.78608,9.005145 18.40994,0.452828 19.77185,0.326061 17.13035,-1.594495 -1.58857,-1.155005 -5.75517,-2.138537 -9.33333,-2.203148 -9.87308,-0.178277 -13.6836,-1.211392 -15.24772,-4.133974 -1.82672,-3.413247 1.74711,-7.780708 6.36684,-7.780708 5.26064,0 12.31585,-3.652128 13.93959,-7.215816 1.19342,-2.61929 1.04774,-5.775532 -0.66472,-14.402615 -1.2062,-6.076531 -2.19261,-12.737681 -2.19205,-14.802557 0.003,-7.845716 5.00334,-11.5734181 8.82655,-6.579012 8.03402,10.495124 8.75315,12.050928 7.03676,15.223885 -0.9251,1.710196 -1.8684,6.061373 -2.09618,9.669281 -0.2278,3.607908 -1.70984,9.236322 -3.29343,12.507586 l -2.87925,5.947752 3.17568,2.39542 c 1.74662,1.317481 4.48374,2.645473 6.08248,2.951092 2.34233,0.447765 3.09228,-0.245434 3.86188,-3.569672 1.354,-5.848584 1.38025,-19.636843 0.0615,-32.281732 -1.05096,-10.076723 -0.9327,-11.019146 1.71482,-13.666668 C 614.72035,9.2796251 616.49892,8 617.10876,8 c 1.79156,0 9.55788,12.791104 9.55788,15.741816 0,1.486445 -0.69862,2.935505 -1.55252,3.220133 -0.90778,0.302596 -1.65882,3.809394 -1.80852,8.444444 -0.3382,10.471368 -2.86037,18.298623 -7.3889,22.930516 l -3.69336,3.777662 4.22165,1.66421 c 11.48269,4.526572 13.54285,6.094862 13.97929,10.641651 0.23338,2.431237 -0.18161,5.150531 -0.9222,6.042873 -0.99802,1.202558 -10.59709,1.611347 -37.09097,1.579568 -36.13524,-0.04335 -40.31724,-0.547821 -43.35474,-5.22993 -0.64506,-0.994303 -2.28962,-0.659407 -5.19771,1.058444 -2.52229,1.489956 -7.83744,2.768842 -13.05639,3.141525 -8.6063,0.614572 -8.9188,0.521799 -14.03514,-4.166803 l -5.23287,-4.79537 -5.20311,5.307964 c -4.20993,4.294773 -6.14491,5.307964 -10.13713,5.307964 -2.7137,0 -6.26753,-0.934023 -7.89736,-2.075606 z M 499.33332,68 c 0.45322,-0.733333 0.18864,-1.333333 -0.58798,-1.333333 -0.77661,0 -1.41202,0.6 -1.41202,1.333333 0,0.733333 0.26458,1.333333 0.58797,1.333333 0.32339,0 0.9588,-0.6 1.41203,-1.333333 z M 164.99999,49.215639 c -2.71616,-1.569332 -3.195,-9.153972 -0.73333,-11.615639 3.78695,-3.786947 13.06667,-0.775587 13.06667,4.240261 0,5.383238 -7.7549,10.020692 -12.33334,7.375378 z m 192.14881,0.09417 c -2.9078,-1.69816 -4.22376,-7.388915 -2.46751,-10.670509 1.93926,-3.623535 10.00966,-3.664295 11.93846,-0.06029 2.04825,3.82721 1.691,6.44357 -1.28643,9.420991 -2.93064,2.930635 -4.87604,3.241969 -8.18452,1.309817 z m 17.52752,-0.388571 c -4.77593,-2.381061 -6.36169,-7.83459 -3.53331,-12.15125 2.89947,-4.425162 6.59754,-4.367955 10.15696,0.157121 5.37448,6.832547 0.5492,15.570184 -6.62365,11.994129 z m -195.12077,-1.81013 c -3.24524,-3.245234 1.5233,-13.777778 6.23779,-13.777778 4.8358,0 8.18197,9.491352 4.60665,13.066667 -1.70097,1.700977 -9.35281,2.202737 -10.84444,0.711111 z m 352.54878,-2.31872 c -2.37124,-2.857171 -3.00696,-8.704091 -1.457,-13.400527 1.80109,-5.457357 4.01932,-5.078304 4.01932,0.686825 0,4.781482 2.27278,5.130884 3.99032,0.613444 1.32184,-3.476697 4.51705,-3.434406 5.86474,0.07763 1.05191,2.741239 4.49434,2.330333 5.44006,-0.649352 0.44448,-1.400443 1.64306,-3.239183 2.66353,-4.086089 4.14036,-3.436202 5.77157,9.930041 1.96376,16.091216 -1.41993,2.297508 -20.65789,2.868072 -22.48473,0.666857 z m -16.99404,-6.89421 c -2.7256,-2.72559 -3.24332,-4.233108 -2.58471,-7.526154 1.53461,-7.673078 5.44711,-9.643638 11.17772,-5.629755 2.18304,1.529055 2.96335,3.417085 2.96335,7.170073 0,5.096975 -1.22707,6.921075 -5.74071,8.533908 -1.60279,0.572714 -3.54648,-0.278898 -5.81565,-2.548072 z M 44.333332,37.347947 c -3.707188,-2.260316 -4.333333,-3.400248 -4.333333,-7.889075 0,-4.789656 0.362249,-5.326555 4.156075,-6.159819 3.129992,-0.687461 4.76791,-0.300994 6.634259,1.565356 3.655782,3.655782 4.620576,10.200871 1.904109,12.917338 -2.790069,2.790068 -3.099952,2.77399 -8.36111,-0.4338 z M 498.1519,35.465161 c -2.78886,-5.877116 -2.73453,-6.452981 0.93402,-9.899409 3.40275,-3.196731 9.17355,-3.828275 11.26133,-1.232419 2.20016,2.735586 0.29074,10.16233 -3.34878,13.025171 -4.68574,3.685809 -6.37015,3.325311 -8.84657,-1.893343 z"
       id="path12" />
  </g>
</svg>
