<?xml version="1.0" encoding="UTF-8" standalone="no"?>
<!-- Created with Inkscape (http://www.inkscape.org/) -->

<svg
   version="1.1"
   id="svg2"
   width="177.33333"
   height="110.66667"
   viewBox="0 0 177.33333 110.66667"
   xmlns="http://www.w3.org/2000/svg"
   xmlns:svg="http://www.w3.org/2000/svg">
  <defs
     id="defs6" />
  <g
     id="g8">
    <path
       style="fill:#000000;stroke-width:1.33333"
       d="M 11.859321,102.51451 C 4.1338203,99.679254 3.4445561,90.445987 10.147707,79.586024 15.090792,71.577591 15.227348,70.831234 13.884605,59.161566 12.288739,45.29202 20.813364,38.91004 28.590149,48.152225 l 3.493865,4.152223 5.181877,-3.591043 c 4.285634,-2.969946 5.662027,-3.334076 7.957993,-2.105312 3.790504,2.028616 3.497562,3.853945 -1.435301,8.943367 l -4.211416,4.345079 3.878083,5.567078 c 7.007058,10.058796 7.459778,11.343996 5.932428,16.84118 -2.313212,8.325622 -8.858837,17.539611 -13.038509,18.353733 -2.025376,0.39451 -6.241114,1.30773 -9.368304,2.02938 -6.81258,1.57212 -10.479971,1.53006 -15.121544,-0.1734 z M 31.333333,81.325913 c 0,-2.416372 -3.903111,-4.570885 -6.485436,-3.579953 -2.559787,0.982282 -2.932136,5.76906 -0.514564,6.615031 2.485325,0.869678 7,-1.087804 7,-3.035078 z M 136.30806,99.774739 c -0.8129,-0.812909 -5.60858,-1.363949 -10.92018,-1.254768 -8.66907,0.178196 -9.7494,-0.105999 -12.76265,-3.357344 -1.81054,-1.95361 -3.2919,-4.134222 -3.2919,-4.845804 0,-0.711583 -2.36647,0.844178 -5.25882,3.457246 L 98.815681,98.525103 87.074506,98.172482 C 79.259559,97.937775 73.912547,97.072888 71.084548,95.58608 66.084817,92.957493 65.475227,92.109517 62.276323,83.333336 60.213884,77.675045 59.779172,71.471211 59.402312,42.317988 59.017346,12.537703 59.230086,7.8172013 61.001856,6.8256691 c 1.12396,-0.6290001 3.085205,-0.8712413 4.358323,-0.5383138 4.73275,1.2376423 5.540762,6.6252747 5.38825,35.9276197 -0.09372,18.006828 0.348359,28.560146 1.218924,29.098184 0.751288,0.464322 1.365979,1.985686 1.365979,3.380807 0,1.811592 1.429072,2.907456 5,3.83418 15.672312,4.067266 21.366918,1.548946 24.545938,-10.854921 2.12557,-8.293541 5.8008,-10.585267 10.95339,-6.830089 1.87928,1.36961 3.43573,3.240199 3.45877,4.156866 0.023,0.916667 0.56039,1.666667 1.19409,1.666667 0.6337,0 2.16528,2.652738 3.4035,5.894975 3.01233,7.88768 5.24871,9.683774 9.33476,7.496986 2.52612,-1.351934 4.06024,-1.34133 7.92104,0.05476 5.92106,2.141084 7.2474,1.034626 4.2477,-3.543506 C 140.08508,71.522091 141.6586,55.3 145.66357,53.156604 155.59918,47.839216 172,61.07895 172,74.416966 c 0,2.109771 -1.95,7.66345 -4.33334,12.341507 -4.00694,7.864913 -4.83548,8.670773 -11,10.699002 -9.19893,3.026595 -18.58133,4.094525 -20.3586,2.317264 z M 103.73751,46.820544 c -4.621225,-4.129064 -4.428481,-6.913556 0.87465,-12.635731 3.04575,-3.286416 3.42931,-3.362931 8.29067,-1.653853 4.70149,1.652876 5.08515,2.169992 4.94233,6.661627 -0.30182,9.491722 -7.60329,13.439604 -14.10765,7.627957 z m 31.69106,-3.582448 c -2.85362,-2.853619 -2.63161,-6.70172 0.57143,-9.904762 4.95636,-4.956364 13.33333,-1.878872 13.33333,4.898338 0,6.039069 -9.46444,9.446749 -13.90476,5.006424 z m 21.41791,-0.668201 c -1.93223,-1.519892 -3.51315,-3.877035 -3.51315,-5.238097 0,-7.370446 11.22208,-8.987668 14.51207,-2.091342 1.75509,3.678973 1.65397,4.087721 -1.73175,7 -4.39251,3.778276 -4.86149,3.794948 -9.26717,0.329439 z M 16.508269,33.945382 c -3.383148,-5.163337 -0.778857,-9.945381 5.416233,-9.945381 5.583965,0 8.080392,3.393393 6.177827,8.397521 -2.197831,5.780731 -8.287848,6.593778 -11.59406,1.54786 z m 22.225313,1.468582 c -0.876115,-1.055655 -1.399581,-3.605655 -1.16326,-5.666667 0.863099,-7.527247 10.429677,-4.746562 10.429677,3.031559 0,4.440657 -6.284705,6.227851 -9.266417,2.635108 z"
       id="path12" />
  </g>
</svg>
