<?xml version="1.0" encoding="UTF-8" standalone="no"?>
<!-- Created with Inkscape (http://www.inkscape.org/) -->

<svg
   version="1.1"
   id="svg2"
   width="201.33333"
   height="145.33333"
   viewBox="0 0 201.33333 145.33333"
   xmlns="http://www.w3.org/2000/svg"
   xmlns:svg="http://www.w3.org/2000/svg">
  <defs
     id="defs6" />
  <g
     id="g8">
    <path
       style="fill:#000000;stroke-width:1.33333"
       d="m 148.76454,137.9074 c -3.27352,-3.27352 -1.00265,-5.82572 15.84944,-17.81289 C 173.07629,114.07513 180,108.36486 180,107.40502 c 0,-0.95984 0.83724,-2.44001 1.86052,-3.28927 2.67178,-2.21738 3.86529,-10.194281 2.05933,-13.763733 -0.84001,-1.660278 -4.43633,-5.797566 -7.99184,-9.193974 -8.21459,-7.847027 -9.37512,-11.832155 -4.78299,-16.42428 7.37831,-7.378307 14.6619,-3.003666 20.3207,12.204939 3.11862,8.381633 3.85489,12.460307 3.80192,21.061296 -0.0361,5.866662 -0.82046,12.879692 -1.74295,15.584492 -3.30608,9.69362 -17.42309,20.69005 -31.52469,24.55613 -8.58999,2.35502 -10.68411,2.31812 -13.23546,-0.23322 z M 13.612058,98.730887 C 6.5182523,96.979891 3.6231939,93.524853 4.3995789,87.73647 5.1371647,82.237357 9.8896452,74.666665 12.604112,74.666665 c 0.965724,0 2.783186,1.567896 4.038805,3.484213 2.122693,3.23964 2.838241,3.444048 10.193729,2.912 4.820136,-0.348657 8.744035,-1.405465 10.043561,-2.704993 1.954816,-1.954816 1.854243,-2.411315 -1.20531,-5.470868 -1.83595,-1.835949 -6.563871,-4.954999 -10.506493,-6.931221 -9.62181,-4.822889 -11.835071,-6.989093 -11.835071,-11.583436 0,-7.900462 5.582901,-13.09311 10.974668,-10.207524 1.636068,0.875598 4.097028,3.018843 5.4688,4.762768 1.371772,1.743926 5.922025,4.901169 10.111676,7.016097 16.658566,8.409219 19.993274,25.7344 7.230557,37.565729 -3.081543,2.85666 -5.521745,3.654712 -13.119035,4.290496 -5.133333,0.429585 -10.833333,1.058488 -12.666666,1.397561 -1.833333,0.339072 -5.307907,0.129107 -7.721275,-0.4666 z M 74.826209,94.326573 C 69.512815,91.557639 68.701676,90.442977 65.837847,81.974819 62.941703,73.411113 62.700583,70.640556 62.823015,47.333332 62.896206,33.399999 63.340968,18.4 63.811378,14 c 0.800688,-7.4892943 1.08932,-8.0269293 4.521308,-8.4218341 6.067199,-0.6981281 6.883039,3.4622099 7.011563,35.7551661 0.119347,29.98508 0.747327,33.669664 6.023966,35.344404 1.566105,0.497064 5.0742,-0.239106 8.334748,-1.749036 3.096702,-1.434055 6.661409,-2.953566 7.921569,-3.37669 1.26016,-0.423124 3.159368,-2.847128 4.220458,-5.386676 2.35057,-5.625723 6.75786,-8.431433 9.57357,-6.094601 1.05312,0.874015 1.91477,2.672164 1.91477,3.995888 0,2.605624 7.86183,9.509484 9.60334,8.433169 C 123.5215,72.138346 124,70.511533 124,68.88465 c 0,-4.042759 3.61509,-8.884651 6.63352,-8.884651 1.37429,0 3.70656,1.980864 5.22498,4.437726 2.25756,3.652799 7.53284,7.562273 10.20423,7.562273 0.33216,0 0.62301,-1.35 0.64633,-3 0.0941,-6.65731 6.52076,-10.050411 10.10154,-5.333333 2.63389,3.469708 2.2214,16.066305 -0.73967,22.588444 -1.81515,3.998089 -4.10503,6.388304 -8.04655,8.399117 -5.89185,3.005793 -8.90065,2.724817 -14.72767,-1.375337 -3.27509,-2.304502 -3.51906,-2.281002 -8.66667,0.834762 -6.29632,3.811067 -9.87065,4.047564 -13.39594,0.886347 -6.89088,-6.17924 -7.10429,-6.248707 -10.27319,-3.344069 -1.628501,1.492697 -5.060912,3.052287 -7.627578,3.465758 -2.566667,0.413469 -6.466667,1.088525 -8.666667,1.500123 -2.725372,0.50989 -5.861102,-0.221503 -9.840456,-2.295237 z M 115.01031,48.637858 c -4.29422,-3.027748 -5.98193,-6.8808 -4.9907,-11.393818 1.19268,-5.430257 4.90006,-7.204514 9.78054,-4.680719 5.43132,2.808646 7.96291,9.358659 5.39284,13.952987 -2.34481,4.191651 -6.12857,4.979995 -10.18268,2.12155 z M 140,45.333332 c -3.01843,-3.018432 -3.66876,-11.797903 -1.06667,-14.399999 2.35625,-2.356252 7.00592,-1.947095 9.52668,0.838321 3.30179,3.648431 2.87621,11.608157 -0.75669,14.15274 -3.81354,2.671109 -4.49331,2.618952 -7.70332,-0.591062 z M 124.46551,32.831851 c -3.38632,-2.912789 -3.58038,-3.584473 -2.40769,-8.333333 1.12951,-4.573934 1.78582,-5.214076 5.73356,-5.592298 8.19098,-0.784755 12.37158,7.127237 7.46635,14.130438 -2.67783,3.823125 -6.18689,3.756532 -10.79222,-0.204807 z"
       id="path12" />
  </g>
</svg>
