<?xml version="1.0" encoding="UTF-8" standalone="no"?>
<!-- Created with Inkscape (http://www.inkscape.org/) -->

<svg
   version="1.1"
   id="svg2"
   width="406.66666"
   height="149.33333"
   viewBox="0 0 406.66666 149.33333"
   xmlns="http://www.w3.org/2000/svg"
   xmlns:svg="http://www.w3.org/2000/svg">
  <defs
     id="defs6" />
  <g
     id="g8">
    <path
       style="fill:#000000;stroke-width:1.33333"
       d="m 5.5999999,142.4 c -2.8087323,-2.80874 -1.7357397,-6.26132 2.6508562,-8.52972 8.6923939,-4.49502 24.4939509,-17.69684 27.4260549,-22.91381 4.53691,-8.07234 3.91872,-10.77241 -4.86023,-21.228079 -8.903256,-10.603707 -10.101864,-13.261305 -8.216971,-18.21895 1.671494,-4.396361 6.250052,-4.60345 14.733623,-0.666404 3.685106,1.710181 8.402768,2.719717 12.227762,2.616631 5.496033,-0.148123 6.564155,0.304573 9.090792,3.85291 2.166141,3.042063 3.895705,4.015784 7.105571,4.000336 2.333397,-0.0112 4.908821,-0.461229 5.723165,-1 2.072982,-1.371489 5.352574,-8.14886 6.483489,-13.398317 0.621297,-2.883926 2.120844,-4.951318 4.317215,-5.952052 2.92816,-1.334158 3.691286,-1.130697 5.875302,1.566447 1.38052,1.704871 2.510036,4.272739 2.510036,5.706373 0,4.825843 3.670908,10.067528 9.076709,12.960625 2.585726,1.383839 4.260746,1.031725 11.609856,-2.440561 6.23608,-2.946408 8.80992,-4.941239 9.39785,-7.283721 0.44532,-1.774303 -0.4415,-9.518367 -1.9707,-17.209029 C 117.03154,45.467479 116,35.110326 116,26.346478 c 0,-12.262309 0.32134,-14.223987 2.67962,-16.3582016 2.37038,-2.1451624 3.07675,-2.2124832 6.12084,-0.5833409 3.96635,2.1227295 7.71368,8.8275605 9.9931,17.8799815 1.51713,6.025084 1.43766,6.439509 -1.76033,9.179192 l -3.34921,2.869223 1.34094,21.513657 c 0.73751,11.832512 0.95165,23.064681 0.47586,24.960374 -1.17255,4.67181 -6.91853,9.743555 -13.6295,12.030211 -8.85908,3.018596 -23.313299,0.92625 -29.841195,-4.319711 -4.498705,-3.615257 -5.306778,-3.859397 -6.803794,-2.055602 -5.063418,6.101043 -19.882881,8.206019 -22.559665,3.204404 -0.834564,-1.559398 -2.791764,-2.666667 -4.713579,-2.666667 -3.10394,0 -3.290268,0.425699 -3.3557,7.666666 C 50.451347,115.82789 39.222795,136.11994 27.473534,141.4557 21.244821,144.28438 8.0538495,144.85385 5.5999999,142.4 Z M 354.09643,137.90596 c -1.15304,-1.15304 -2.09644,-2.39303 -2.09644,-2.75552 0,-2.63896 3.86786,-6.22681 11.78038,-10.92755 5.06802,-3.01087 13.19073,-9.31577 18.05045,-14.0109 8.7762,-8.47898 8.83584,-8.58585 8.83584,-15.834311 0,-8.081133 -0.70247,-9.067114 -11.58201,-16.256354 -7.4683,-4.935079 -9.70048,-9.9654 -6.55343,-14.768406 1.25747,-1.919143 3.97376,-3.576958 6.69821,-4.088067 11.59203,-2.174676 19.0716,10.450312 20.4011,34.43559 0.48381,8.728448 0.10386,11.362848 -2.40364,16.666668 -6.17591,13.063 -15.39314,21.45833 -28.60392,26.0533 -9.92335,3.45155 -12.31587,3.69621 -14.52654,1.48555 z M 80.666665,115.72917 c -3.45605,-1.94568 -4.6211,-3.74837 -4.646249,-7.18919 -0.02498,-3.41704 3.918795,-7.20665 7.499821,-7.20665 6.08878,0 11.103781,9.57415 6.813095,13.00689 -2.947427,2.35807 -6.929049,2.93017 -9.666667,1.38895 z M 149.31262,97.975052 c -1.13918,-1.372646 -1.43245,-4.42881 -0.91037,-9.487314 0.89453,-8.667092 -2.03771,-36.029815 -4.89043,-45.635938 -2.69346,-9.069926 -0.84446,-25.111867 3.28707,-28.518467 3.99199,-3.291547 4.87873,-3.023024 10.56705,3.199919 7.5713,8.282866 8.66832,21.133414 1.80414,21.133414 -2.35876,0 -2.33711,0.343148 0.80945,12.83116 2.94533,11.689423 3.49737,28.350944 1.16967,35.303208 -1.66504,4.973029 -7.3076,13.198964 -9.0538,13.198964 -0.60622,0 -1.85847,-0.911226 -2.78278,-2.024946 z m 68.38062,-1.579217 c -1.6354,-0.315889 -4.23959,-2.183992 -5.78711,-4.15134 -3.82155,-4.858316 -2.71183,-11.667227 2.69617,-16.542909 3.66808,-3.307016 8.06436,-3.845356 8.06436,-0.987508 0,2.237822 4.29576,5.28592 7.44958,5.28592 5.02141,0 13.88376,-3.12872 13.88376,-4.901454 0,-0.872031 -1.13311,-1.945146 -2.51802,-2.384698 -1.3849,-0.43955 -4.13778,-2.300348 -6.11752,-4.135104 -1.97973,-1.834755 -5.75525,-3.783815 -8.39005,-4.331245 -3.52837,-0.733086 -5.45359,-2.18219 -7.30715,-5.500064 -3.09208,-5.534817 -2.25094,-9.702215 3.02266,-14.97581 3.68765,-3.687659 4.07916,-3.787148 7.64553,-1.942904 2.06736,1.069077 4.53468,3.393447 5.48293,5.165265 0.94826,1.771819 4.82703,4.793202 8.61952,6.714183 3.79248,1.920982 9.24087,5.895536 12.10751,8.832341 4.51873,4.629319 5.20025,6.122942 5.12308,11.227789 -0.0955,6.315973 -2.55083,12.237025 -6.53199,15.75188 -4.99593,4.410762 -28.17181,8.666519 -37.44326,6.875658 z m 62.4663,-2.069262 c -5.3134,-2.768934 -6.12453,-3.883596 -8.98836,-12.351753 -2.89614,-8.563707 -3.13726,-11.334264 -3.01484,-34.641488 C 268.22954,33.399999 268.6743,18.4 269.1447,14 c 0.8007,-7.4892943 1.08932,-8.0269293 4.52131,-8.4218341 6.0672,-0.6981281 6.88304,3.4622099 7.01157,35.7551661 0.11934,29.98508 0.74732,33.669664 6.02396,35.344404 1.56611,0.497064 5.0742,-0.239106 8.33475,-1.749036 3.09671,-1.434055 6.66141,-2.953566 7.92157,-3.37669 1.26016,-0.423124 3.15936,-2.847128 4.22045,-5.386675 2.35059,-5.625724 6.75787,-8.431434 9.57358,-6.094602 1.05313,0.874015 1.91477,2.672164 1.91477,3.995888 0,2.605624 7.86183,9.509484 9.60335,8.433169 0.58482,-0.361444 1.06332,-1.988257 1.06332,-3.61514 0,-4.042759 3.61509,-8.884651 6.63352,-8.884651 1.37429,0 3.70656,1.980864 5.22498,4.437726 2.25756,3.652799 7.53284,7.562273 10.20423,7.562273 0.33216,0 0.62301,-1.35 0.64633,-3 0.0941,-6.65731 6.52076,-10.050411 10.10154,-5.333333 2.63389,3.469708 2.2214,16.066305 -0.73967,22.588444 -1.81515,3.998089 -4.10503,6.388304 -8.04655,8.399117 -5.89185,3.005793 -8.90065,2.724817 -14.72768,-1.375337 -3.27508,-2.304502 -3.51905,-2.281002 -8.66666,0.834762 -6.29632,3.811067 -9.87066,4.047564 -13.39594,0.886347 -6.89088,-6.17924 -7.10429,-6.248707 -10.2732,-3.344069 -1.62849,1.492697 -5.0609,3.052288 -7.62757,3.465758 C 296.1,95.535157 292.2,96.210213 290,96.62181 c -2.72538,0.50989 -5.86111,-0.221503 -9.84046,-2.295237 z m 36.44652,-45.599301 c -4.00768,-4.007668 -4.42505,-11.271133 -0.83441,-14.520622 3.24266,-2.934571 5.21344,-2.78524 10.47006,0.793349 3.6086,2.456657 4.40838,3.868144 4.41584,7.793349 0.0167,8.778007 -7.87484,12.110583 -14.05149,5.933924 z m 26.0606,-3.39394 c -3.02551,-3.025501 -3.30527,-5.77017 -1.20289,-11.801035 2.79822,-8.027035 13.20289,-3.618331 13.20289,5.594385 0,7.849489 -6.8264,11.380248 -12,6.20665 z M 69.736479,37.317609 C 65.426952,35.582102 62.634862,29.064238 62.297632,19.952344 62.077776,14.01187 62.522639,11.578957 63.999999,10.64225 67.48014,8.4356959 69.345638,9.2017626 72.176667,14 c 3.43244,5.817552 5.570164,5.917148 7.214269,0.33611 1.809483,-6.1424203 5.499493,-6.3884551 7.947356,-0.529897 2.694161,6.448037 4.199428,6.955308 6.639162,2.237381 3.748775,-7.2493301 8.689206,-3.812517 8.689206,6.044647 0,6.613749 -7.858032,14.54015 -13.329819,13.445793 -1.951532,-0.390305 -5.900676,0.128533 -8.775874,1.152968 -6.075504,2.164713 -6.896326,2.212533 -10.824488,0.630607 z M 328.32787,34.32643 c -3.37657,-2.360319 -4.28666,-3.948613 -4.30484,-7.512773 -0.0273,-5.350359 2.88778,-8.044139 8.77031,-8.104587 5.93932,-0.06103 9.11251,3.913031 8.10108,10.145689 -1.30772,8.058532 -5.96496,10.086365 -12.56655,5.471671 z"
       id="path12" />
  </g>
</svg>
