<?xml version="1.0" encoding="UTF-8" standalone="no"?>
<!-- Created with Inkscape (http://www.inkscape.org/) -->

<svg
   version="1.1"
   id="svg2"
   width="272"
   height="157.33333"
   viewBox="0 0 272 157.33333"
   xmlns="http://www.w3.org/2000/svg"
   xmlns:svg="http://www.w3.org/2000/svg">
  <defs
     id="defs6" />
  <g
     id="g8">
    <path
       style="fill:#000000;stroke-width:1.33333"
       d="m 87.433336,149.64841 c -1.361093,-4.28843 0.403555,-6.5832 7.365464,-9.57813 7.13933,-3.07126 29.8721,-22.54933 31.19994,-26.73298 1.54312,-4.86192 -1.91596,-12.61779 -9.31433,-20.884402 -7.38532,-8.252025 -9.03691,-12.900396 -5.75108,-16.186233 2.09965,-2.099645 5.82346,-1.99442 12.56567,0.355076 3.55619,1.239247 9.91563,1.821227 18,1.647263 L 154,77.999998 153.56549,67.999999 c -0.23897,-5.5 -1.66541,-16.9 -3.16988,-25.333333 -4.11749,-23.080785 -4.31092,-26.246544 -1.83453,-30.025979 5.21145,-7.9536824 18.10559,-0.824166 18.10559,10.01107 0,3.037954 -0.63802,6.715693 -1.41782,8.172753 -1.53992,2.877376 -0.35578,28.972405 1.44708,31.889501 0.72814,1.178145 3.87274,-0.330139 11.08903,-5.318759 15.3212,-10.591536 24.21024,-10.892008 31.54407,-1.066271 3.9048,5.231587 4.17496,6.254559 3.48652,13.201835 -0.85939,8.672376 -1.44955,8.271326 14.51778,9.86557 l 9.33334,0.931879 -3.14208,-3.401303 c -2.86983,-3.106588 -3.05848,-4.121585 -2.17727,-11.714134 1.01433,-8.739608 4.79753,-14.546162 9.47739,-14.546162 9.79038,0 21.60978,13.490755 22.02196,25.13604 0.21764,6.1494 -0.24746,7.336692 -4.96995,12.687075 -6.01132,6.81058 -14.56667,11.510217 -20.95352,11.510217 -2.44156,0 -7.62439,-0.945899 -11.51739,-2.101997 -3.893,-1.156098 -8.49748,-1.745778 -10.23217,-1.310399 -5.39324,1.35362 -51.45112,0.926171 -59.09348,-0.548429 -4.88391,-0.942356 -7.69311,-0.959562 -8.6,-0.05268 -0.74075,0.740764 -3.02683,1.346838 -5.08016,1.346838 -3.60141,0 -3.73333,0.240552 -3.73333,6.807539 0,14.6903 -6.82795,31.28658 -15.75885,38.30407 -7.94232,6.24072 -12.27967,7.85704 -23.777584,8.86071 -10.060937,0.87824 -10.931311,0.75492 -11.6969,-1.65724 z M 195.64644,76.463948 c 2.21213,-3.025276 2.13111,-5.1021 -0.27705,-7.100689 -4.86606,-4.038476 -16.9407,-0.03721 -24.03606,7.965015 l -2.66666,3.007496 12.64644,-0.78243 c 9.83073,-0.608223 13.02202,-1.296072 14.33333,-3.089392 z M 24.666667,133.06438 c -5.329686,-1.85441 -12.276316,-8.5197 -15.5965769,-14.96491 -2.2003937,-4.27135 -2.6615745,-7.55083 -2.507772,-17.8329 0.1036532,-6.929477 0.8158748,-13.771381 1.5827144,-15.204234 0.7668398,-1.432854 2.2498085,-5.486151 3.2954855,-9.007328 2.177115,-7.331141 4.497522,-9.778241 8.683255,-9.157361 5.446348,0.80787 6.052898,4.110403 2.567951,13.981938 -5.195089,14.715721 -4.015009,23.547235 4.209193,31.500885 4.758355,4.60182 9.040207,6.28619 15.98016,6.28619 6.555908,0 11.579903,-2.80213 15.635296,-8.72059 2.57955,-3.76461 2.961707,-5.68503 2.429104,-12.206757 -0.34762,-4.256623 -1.571221,-11.287317 -2.719114,-15.623764 -2.900216,-10.956273 -0.566074,-15.387694 8.126568,-15.428466 3.43856,-0.01613 4.874826,0.837769 6.837448,4.065041 5.001945,8.22504 4.670014,30.781246 -0.616923,41.922646 -3.789208,7.98516 -14.397403,18.65064 -20.313433,20.42313 -6.34408,1.90072 -22.089174,1.8816 -27.593356,-0.0335 z m 11.630008,-32.47332 c -1.629838,-1.141583 -2.963342,-2.828447 -2.963342,-3.748586 0,-2.851491 5.279662,-7.509143 8.511958,-7.509143 3.463714,0 7.488042,3.777828 7.488042,7.029383 0,2.449012 -4.892092,6.303946 -8,6.303946 -1.140324,0 -3.40682,-0.93402 -5.036658,-2.0756 z m 49.37132,-1.049569 C 85.117264,98.69367 84.655365,90.499998 84.641551,81.333332 84.624143,69.780856 83.81026,60.984448 81.989187,52.666666 79.426404,40.961122 78.741676,26.52841 80.429979,19.801676 c 0.46168,-1.839478 2.461946,-4.083778 4.445037,-4.987335 3.082607,-1.404529 4.102629,-1.278884 7.031969,0.866193 5.478843,4.012014 8.354785,10.725967 7.49868,17.505836 -0.40649,3.219171 -1.69883,6.554829 -2.871866,7.412573 -1.790726,1.309411 -1.898835,2.402212 -0.674066,6.813629 0.8023,2.889752 1.462075,6.906268 1.466164,8.925592 0.0041,2.019325 1.207436,5.91044 2.674103,8.646921 2.88798,5.388351 3.36069,9.721503 1.45815,13.366339 -0.66468,1.273382 -1.855422,4.715241 -2.646087,7.648574 -2.821132,10.466287 -10.20213,18.070462 -13.144068,13.541493 z M 225.26513,42.598463 c -3.02084,-3.020843 -2.54314,-7.382165 1.12434,-10.26513 C 231.18485,28.563749 240,32.233887 240,37.999999 c 0,6.548568 -9.74389,9.589444 -14.73487,4.598464 z m 20.52766,0.773279 c -3.22912,-2.261768 -4.48039,-7.005425 -2.94364,-11.15964 0.84232,-2.27702 2.1546,-2.878769 6.27796,-2.878769 3.01196,0 5.9153,0.846185 6.8763,2.004105 2.6383,3.178956 1.98666,8.906214 -1.31778,11.58199 -3.61372,2.926212 -5.24258,3.00906 -8.89284,0.452314 z"
       id="path243" />
  </g>
</svg>
