<?xml version="1.0" encoding="UTF-8" standalone="no"?>
<!-- Created with Inkscape (http://www.inkscape.org/) -->

<svg
   version="1.1"
   id="svg12"
   width="196"
   height="122.66667"
   viewBox="0 0 196 122.66667"
   xmlns="http://www.w3.org/2000/svg"
   xmlns:svg="http://www.w3.org/2000/svg">
  <defs
     id="defs16" />
  <g
     id="g18">
    <path
       style="fill:#000000;stroke-width:1.33333"
       d="M 141.66667,114.51382 C 140.75,113.57122 140,112.04749 140,111.12775 140,109.37394 151.47875,100 153.62635,100 c 0.68357,0 4.7006,-2.660664 8.92673,-5.912589 21.70988,-16.705374 22.60335,-26.135802 3.78025,-39.9002 -5.88206,-4.301268 -6.38584,-7.905403 -1.84324,-13.18721 3.52747,-4.101483 9.29607,-4.775548 16.08327,-1.879343 3.30448,1.410072 4.18831,2.89091 5.7336,9.606529 1.00479,4.366714 2.16448,13.737672 2.57709,20.82435 0.68396,11.747372 0.46144,13.513001 -2.52048,20 -4.87536,10.606023 -9.31237,15.017853 -20.67409,20.556723 -11.05427,5.389 -21.24836,7.2585 -24.02281,4.40556 z M 30.827683,74.496966 C 21.283025,72.911635 12.007945,68.683238 8.3812839,64.263926 3.1649167,57.907455 4.7722912,41.373849 11.368768,33.534382 c 3.927664,-4.667764 7.665256,-5.868033 10.902248,-3.501088 2.141672,1.56603 2.205944,2.220899 0.607739,6.192303 -4.608786,11.452443 -4.829682,13.027827 -2.10817,15.035015 2.906576,2.143676 9.315678,3.88066 21.899316,5.935115 9.631436,1.572465 26.856991,0.221665 31.953148,-2.505715 4.238954,-2.26862 9.037475,-8.000261 10.065923,-12.023344 1.203463,-4.707699 4.539451,-8 8.106156,-8 2.369095,0 4.015385,1.814072 7.386962,8.139806 5.53001,10.375358 7.75768,11.761814 17.49095,10.886011 l 7.67305,-0.690422 -2.67217,-4.32366 c -2.34227,-3.789867 -2.50575,-5.2012 -1.32417,-11.431641 1.43971,-7.591557 5.53911,-13.246761 9.60245,-13.246761 4.72548,0 12.577,5.161461 18.61153,12.234903 8.42039,9.870073 8.57828,10.996088 3.01183,21.479012 -6.79247,12.791793 -12.75827,15.568717 -33.51282,15.599345 -14.90706,0.022 -18.84772,-1.092902 -25.436672,-7.196598 C 89.954135,62.715156 88.884163,62.324906 86.959401,63.685134 80.999344,67.897105 74.556971,70.444965 66,71.974261 c -5.133333,0.917426 -11.072867,2.198528 -13.198964,2.846894 -4.622189,1.409564 -12.20902,1.29763 -21.973353,-0.324189 z M 58.652136,42.923012 c -5.798255,-4.69514 -0.03697,-15.990679 7.226241,-14.167729 8.904707,2.234939 7.604919,16.578052 -1.50232,16.578052 -1.511014,0 -4.08678,-1.084646 -5.723921,-2.410323 z M 41.250705,42.29093 c -3.478997,-2.713304 -4.048588,-6.278068 -1.770282,-11.07924 1.700612,-3.583775 2.95046,-4.545023 5.909594,-4.545023 5.010791,0 7.943316,3.206822 7.943316,8.686301 0,6.86217 -7.015002,10.890253 -12.082628,6.937962 z M 156.50103,26.101025 c -3.68343,-3.683419 -4.50142,-5.358546 -3.77698,-7.734685 2.45448,-8.050681 9.6554,-10.076354 15.74792,-4.430005 1.94042,1.798317 3.52803,3.859257 3.52803,4.579867 0,3.686741 -3.00352,8.25618 -6.67471,10.15462 -4.0769,2.108254 -4.17469,2.079774 -8.82426,-2.569797 z M 126.96334,20.591062 C 124.89738,19.144006 124,17.153999 124,14.019634 c 0,-5.745874 2.9757,-8.6863005 8.79049,-8.6863005 5.30316,0 8.13346,4.1371825 6.71006,9.8084415 -1.76416,7.028999 -7.02022,9.313538 -12.53721,5.449287 z"
       id="path22" />
  </g>
</svg>
