<?xml version="1.0" encoding="UTF-8" standalone="no"?>
<!-- Created with Inkscape (http://www.inkscape.org/) -->

<svg
   version="1.1"
   id="svg2"
   width="218.66667"
   height="122.66667"
   viewBox="0 0 218.66667 122.66667"
   sodipodi:docname="008.svg"
   inkscape:version="1.1.2 (0a00cf5339, 2022-02-04)"
   xmlns:inkscape="http://www.inkscape.org/namespaces/inkscape"
   xmlns:sodipodi="http://sodipodi.sourceforge.net/DTD/sodipodi-0.dtd"
   xmlns="http://www.w3.org/2000/svg"
   xmlns:svg="http://www.w3.org/2000/svg">
  <defs
     id="defs6" />
  <sodipodi:namedview
     id="namedview4"
     pagecolor="#ffffff"
     bordercolor="#666666"
     borderopacity="1.0"
     inkscape:pageshadow="2"
     inkscape:pageopacity="0.0"
     inkscape:pagecheckerboard="0"
     showgrid="false"
     inkscape:zoom="5.8628047"
     inkscape:cx="109.33334"
     inkscape:cy="61.404058"
     inkscape:window-width="2560"
     inkscape:window-height="1299"
     inkscape:window-x="0"
     inkscape:window-y="32"
     inkscape:window-maximized="1"
     inkscape:current-layer="g8" />
  <g
     inkscape:groupmode="layer"
     inkscape:label="Image"
     id="g8">
    <path
       style="fill:#000000;stroke-width:1.33333"
       d="m 96.838587,115.31478 c -3.885384,-3.88539 -3.294918,-4.55552 14.494753,-16.450309 14.80203,-9.897157 19.71842,-14.445338 23.38612,-21.634602 2.76412,-5.418128 2.78172,-5.755799 0.557,-10.68935 -1.26352,-2.801965 -5.51761,-8.167952 -9.45355,-11.924416 -7.80816,-7.452124 -9.21372,-12.340811 -4.71792,-16.409451 3.04139,-2.752423 5.34471,-2.775655 10.69246,-0.107854 3.69051,1.841068 24.76871,5.811338 31.20255,5.877282 2.86023,0.02932 3.03935,-3.079595 0.33334,-5.785608 -1.24378,-1.243771 -2,-4.517584 -2,-8.658253 0,-5.454865 0.78798,-7.701158 4.35989,-12.428572 2.39795,-3.173675 6.70624,-6.921467 9.57397,-8.3284254 4.61435,-2.2638717 6.06408,-2.3798138 12.60419,-1.0080122 10.28677,2.1576725 19.33885,7.9344206 19.89163,12.6941856 0.80456,6.927939 -1.32467,7.790975 -16.68318,6.762172 -11.95733,-0.800973 -13.70145,-0.657601 -13.03784,1.071754 1.25418,3.268324 5.9586,4.911591 18.27459,6.383348 6.40745,0.765689 12.60765,1.759684 13.77824,2.208879 3.40793,1.307748 4.51829,6.009401 2.31467,9.801164 -3.22362,5.546857 -23.84699,11.104059 -42.67702,11.49981 -8.2138,0.172628 -16.0911,0.933041 -17.50514,1.689806 -2.14336,1.147092 -2.7286,3.478575 -3.51879,14.018166 -0.62011,8.271206 -1.59795,13.181791 -2.82819,14.202792 -1.0342,0.858315 -1.88036,2.057023 -1.88036,2.6638 0,1.980213 -7.68077,12.472644 -12.22617,16.701744 -3.57559,3.32677 -6.38826,4.45133 -14.44049,5.77357 -12.57582,2.06504 -13.52283,2.26156 -16.16142,3.35368 -1.257849,0.52063 -3.069371,-0.0133 -4.333333,-1.2773 z M 6.8381409,114.20662 c -2.614352,-3.1501 -0.5782953,-7.22231 4.9109331,-9.82209 2.704676,-1.28098 7.33736,-4.741534 10.294853,-7.690123 2.957492,-2.94859 7.009547,-6.42625 9.004565,-7.728134 4.695531,-3.064151 10.284842,-11.95543 10.284842,-16.360764 0,-5.138008 -2.180545,-8.493715 -10.835371,-16.674874 -8.998387,-8.505918 -10.177811,-12.998331 -4.405497,-16.780495 3.24774,-2.128002 3.854124,-2.094247 11.666667,0.649425 4.532477,1.591752 10.230313,2.888021 12.661856,2.880599 2.431544,-0.0075 5.431544,0.502839 6.666667,1.133913 1.235124,0.631076 4.464561,0.869066 7.17653,0.528866 l 4.930851,-0.618546 -3.493739,-6.468868 -3.493738,-6.468868 2.427374,-5.382955 C 67.85544,18.261902 76.346666,9.7619228 81.360759,8.6606434 94.572457,5.7588678 113.4371,17.321624 108.35511,25.20637 c -1.13127,1.755176 -3.58907,2.052637 -14.060862,1.701752 -8.634056,-0.289308 -12.996768,0.0712 -13.649872,1.127948 -1.996772,3.230846 3.20246,5.538908 16.739195,7.430927 7.558129,1.056393 14.569119,2.607123 15.579989,3.446065 1.01086,0.838943 1.6576,3.076707 1.43719,4.972811 -0.95063,8.177882 -29.937401,17.30641 -49.187892,15.490273 -6.417545,-0.605447 -9.160945,-0.36344 -10.173309,0.897428 -0.762391,0.949536 -1.80219,6.526428 -2.310663,12.393095 -0.916793,10.577773 -1.733608,12.780792 -11.445901,30.870621 -2.654338,4.94389 -3.9183,5.83519 -11.794623,8.31715 -13.063842,4.11663 -20.5413955,4.89316 -22.6502211,2.35218 z"
       id="path12" />
  </g>
</svg>
