<?xml version="1.0" encoding="UTF-8" standalone="no"?>
<!-- Created with Inkscape (http://www.inkscape.org/) -->

<svg
   version="1.1"
   id="svg2"
   width="402.66666"
   height="190.66667"
   viewBox="0 0 402.66666 190.66667"
   sodipodi:docname="009.svg"
   inkscape:version="1.1.2 (0a00cf5339, 2022-02-04)"
   xmlns:inkscape="http://www.inkscape.org/namespaces/inkscape"
   xmlns:sodipodi="http://sodipodi.sourceforge.net/DTD/sodipodi-0.dtd"
   xmlns="http://www.w3.org/2000/svg"
   xmlns:svg="http://www.w3.org/2000/svg">
  <defs
     id="defs6" />
  <sodipodi:namedview
     id="namedview4"
     pagecolor="#ffffff"
     bordercolor="#666666"
     borderopacity="1.0"
     inkscape:pageshadow="2"
     inkscape:pageopacity="0.0"
     inkscape:pagecheckerboard="0"
     showgrid="false"
     inkscape:zoom="3.1837749"
     inkscape:cx="115.90015"
     inkscape:cy="95.484137"
     inkscape:window-width="2560"
     inkscape:window-height="1299"
     inkscape:window-x="0"
     inkscape:window-y="32"
     inkscape:window-maximized="1"
     inkscape:current-layer="g8" />
  <g
     inkscape:groupmode="layer"
     inkscape:label="Image"
     id="g8">
    <path
       style="fill:#000000;stroke-width:1.33333"
       d="m 238.03572,185.84524 c -3.02487,-3.02486 -2.07494,-4.68926 4.85805,-8.5119 7.64272,-4.21396 24.35712,-17.86966 27.81344,-22.72362 4.85467,-6.81774 2.58544,-16.34521 -5.88091,-24.69138 -7.54541,-7.4383 -9.32505,-11.0996 -7.60025,-15.63615 1.19981,-3.15576 2.09939,-3.61448 7.07428,-3.60731 3.13481,0.005 7.2526,0.81858 9.15063,1.80902 7.43382,3.87918 37.25689,3.83372 57.2157,-0.0872 4.41789,-0.86791 4.24021,-0.97164 -3.33333,-1.94599 -4.4,-0.56608 -12.2,-1.42629 -17.33334,-1.9116 C 298.38296,107.44083 296,106.25684 296,101.5831 c 0,-6.909744 7.92526,-13.583098 16.13126,-13.583098 1.58597,0 5.80664,-2.1 9.37924,-4.666667 3.57261,-2.566667 7.04528,-4.666667 7.71704,-4.666667 0.67176,0 4.38451,-2.7 8.25056,-6 3.86604,-3.3 8.0868,-6 9.37947,-6 3.92202,0 8.87737,2.842419 9.5695,5.489136 0.83436,3.190625 5.18984,4.993456 6.02327,2.493168 2.16251,-6.487511 12.7782,-10.658003 14.37907,-5.648971 2.7369,8.563651 5.30461,9.644616 8.54176,3.595951 2.53968,-4.745425 8.87673,-4.537645 10.73577,0.352005 1.95507,5.142216 0.43307,9.561208 -5.08581,14.766175 -4.36187,4.113775 -5.29019,4.440654 -10.24222,3.606459 -2.99506,-0.504536 -14.44558,-1.181649 -25.44558,-1.504695 -17.62586,-0.517632 -19.68066,-0.360501 -17.30976,1.323683 1.47962,1.051071 5.97962,2.23854 10,2.638819 4.02037,0.400278 10.90976,1.355928 15.30976,2.123666 4.4,0.767738 12.12513,1.942618 17.16696,2.610844 11.83697,1.568832 16.31745,5.376722 14.94354,12.700302 -1.21282,6.4649 -4.96461,8.61536 -17.6017,10.08897 -14.11911,1.64643 -26.86022,3.53253 -40.5088,5.99663 -6.23334,1.12536 -15.53334,2.71625 -20.66667,3.53531 -5.13333,0.81906 -10.656,2.10322 -12.2726,2.85368 -1.6166,0.75047 -6.1166,1.05616 -10,0.67932 -3.8834,-0.37684 -7.6761,-0.45848 -8.42821,-0.18142 -0.75212,0.27705 -1.13419,2.9501 -0.84904,5.94012 1.06884,11.20786 -4.17899,27.5456 -11.67575,36.3494 -4.24893,4.98973 -20.61244,11.48174 -29.01249,11.51036 -2.33096,0.008 -5.20775,-0.95522 -6.39285,-2.14034 z m 83.9679,-33.84122 c -2.72688,-3.01318 -3.0042,-9.85851 -0.52061,-12.85103 0.91085,-1.09752 3.26034,-2.82507 5.22108,-3.83901 3.09384,-1.59988 3.96229,-1.56524 6.57129,0.26217 3.75951,2.63327 7.11605,10.4234 6.00264,13.93144 -1.68083,5.29583 -13.23045,6.96493 -17.2744,2.49643 z m -114.39033,-16.5812 c -1.05079,-1.05079 -2.32131,-4.47944 -2.82337,-7.61923 -0.78354,-4.89992 -0.243,-7.06408 3.81528,-15.27544 2.60046,-5.26171 4.72813,-10.10619 4.72813,-10.76552 0,-0.65933 -1.17529,-3.504052 -2.61176,-6.321603 -2.39988,-4.707229 -2.45175,-5.514311 -0.63937,-9.94859 3.34565,-8.185661 9.89921,-11.798056 14.1974,-7.825769 7.14425,6.602564 7.04252,6.567376 10.44817,3.613665 2.04333,-1.772172 4.59441,-2.600837 7.21644,-2.344109 3.42712,0.335556 4.11689,1.019708 4.44997,4.413708 0.25714,2.620083 -0.55413,5.034503 -2.33333,6.94425 -3.43671,3.688873 -3.43953,6.294234 -0.012,11.107688 5.15267,7.23626 5.66463,10.82367 2.57368,18.03454 -5.24083,12.22635 -7.93768,14.61627 -18.45311,16.35285 -12.41913,2.05098 -18.24246,1.94717 -20.55608,-0.36644 z m 20.19219,-21.31729 c -1.64475,-3.60981 -4.52304,-3.27092 -5.54927,0.65337 -0.55029,2.10435 0.0291,2.57444 3.17336,2.57444 3.58561,0 3.74681,-0.219 2.37591,-3.22781 z M 22,132.80294 C 12.766604,128.72525 6.3773131,116.91441 6.6616384,104.44943 6.7258222,101.63558 6.5274131,87.033335 6.2207295,72.000001 5.8994115,56.249305 6.1964836,43.643618 6.9217762,42.252422 c 2.0460477,-3.924563 6.5274298,-2.175935 9.5895758,3.741833 3.096116,5.983422 3.386325,12.157366 1.869577,39.773762 -0.890887,16.220943 -0.787584,17.335713 2.006583,21.653773 3.194873,4.9373 9.686418,7.90243 16.278027,7.43529 5.167936,-0.36625 6.805336,-2.12361 9.738139,-10.4516 1.324155,-3.76006 3.222523,-7.818461 4.218597,-9.018657 2.504997,-3.018337 7.108263,-2.040901 8.711057,1.849667 4.9926,12.11887 6.581939,14.06817 13.333333,16.35315 4.07139,1.37794 8.656535,1.9738 11.778178,1.53063 2.811332,-0.39912 11.036726,0.0294 18.278657,0.95233 10.73792,1.36843 13.55158,1.35896 15.25092,-0.0514 1.87774,-1.55838 1.85019,-1.89007 -0.27865,-3.35449 -1.29934,-0.89381 -5.47924,-2.4144 -9.28866,-3.37908 -5.5277,-1.39981 -8.01799,-1.42686 -12.333329,-0.13396 -2.973913,0.89101 -5.407116,2.11272 -5.407116,2.71493 0,0.6022 -1.440497,0.81955 -3.201104,0.48298 -2.348878,-0.44901 -3.357637,-1.67845 -3.789066,-4.61797 -1.363116,-9.287505 1.832962,-13.066972 11.049987,-13.066972 6.548298,0 13.726418,-3.724676 17.054688,-8.849562 l 3.1145,-4.79573 -2.1034,-16.84402 c -1.15687,-9.264212 -2.45033,-18.644022 -2.87436,-20.844022 -0.57103,-2.962747 -0.0418,-4.77794 2.04084,-7 4.55842,-4.863539 8.60084,-3.907504 12.93677,3.059557 6.61303,10.625963 8.18657,12.234579 9.72364,9.940443 0.737,-1.1 1.3492,-4.507143 1.36042,-7.571428 0.0222,-6.049743 2.60128,-9.761905 6.78232,-9.761905 2.75456,0 7.90476,4.404197 7.90476,6.759766 0,0.784538 1.83967,4.100295 4.08815,7.36835 4.64784,6.755395 4.706,11.238235 0.17133,13.205217 -2.82297,1.22451 -2.99801,1.877451 -2.14462,8.000001 2.21901,15.919953 -0.0763,25.22814 -8.41278,34.116295 l -4.48608,4.78297 7.91198,4.21703 c 4.35158,2.31937 9.14396,4.21704 10.64972,4.21704 6.25504,0 9.13041,11.09189 4.16306,16.05924 -2.58905,2.58905 -3.81064,2.68795 -24.33333,1.96983 -11.88408,-0.41584 -33.48786,-0.99343 -48.008381,-1.28353 -27.541271,-0.55025 -26.394482,-0.33106 -35.059477,-6.70092 -1.222154,-0.89844 -2.679725,-0.45387 -4.812976,1.46798 -3.622601,3.26362 -6.337846,4.34985 -14.393257,5.758 -3.3,0.57687 -6.899999,1.40509 -7.999999,1.84051 -1.1,0.43541 -3.8,-0.003 -6,-0.97484 z m 112.66666,-32.65053 c 0,-1.38284 0.89631,-4.23284 1.99179,-6.333332 2.39656,-4.595195 2.62755,-18.137193 0.45876,-26.895317 -1.77431,-7.165117 -2.69984,-8.094529 -7.20341,-7.233617 -3.09959,0.592525 -3.24847,1.083196 -3.27642,10.798627 -0.029,10.08893 -3.44306,21.511231 -6.42954,21.511231 -0.69073,0 -1.58924,0.868745 -1.99669,1.930545 -0.5115,1.332937 1.40485,2.968821 6.19068,5.284641 8.37747,4.053792 10.26483,4.226112 10.26483,0.937222 z M 51.666666,80.570701 c -6.869436,-3.72673 -3.164273,-15.237367 4.904761,-15.237367 7.276069,0 10.015367,9.104997 4.342637,14.434249 -3.606613,3.388237 -4.361444,3.453793 -9.247398,0.803118 z M 216.84648,70.569895 c -4.09722,-3.222872 -4.5514,-7.883658 -1.07483,-11.02991 3.19885,-2.894925 7.27749,-2.80064 10.02169,0.231671 2.96472,3.275981 2.78032,7.109755 -0.51196,10.643597 -3.35325,3.599308 -4.03972,3.611894 -8.4349,0.154642 z m 18.47585,1.412318 c -1.84,-2.977184 -1.02201,-9.750112 1.39061,-11.514267 7.41435,-5.421498 15.65234,4.501567 8.84874,10.658738 -2.69939,2.442911 -8.93623,2.964017 -10.23935,0.855529 z M 378.73438,65.65628 c -3.30715,-2.677962 -4.09313,-9.745851 -1.43939,-12.943423 2.6044,-3.138119 7.52064,-2.458279 10.60823,1.466956 3.55135,4.514813 3.47868,5.992373 -0.50623,10.292157 -3.85654,4.161278 -4.82304,4.293413 -8.66261,1.18431 z m -24.44365,-0.11572 c -2.83646,-1.120618 -7.60291,-8.005956 -7.61528,-11.000578 -0.0227,-5.481086 9.86952,-8.57184 14.99121,-4.683922 3.57085,2.710664 3.17056,12.072978 -0.63001,14.735 -3.26204,2.284828 -3.3387,2.295617 -6.74592,0.9495 z m 13.5617,-13.067128 c -2.77176,-0.771051 -5.20204,-6.123211 -4.31706,-9.507365 1.65386,-6.32442 12.20832,-7.448749 14.2837,-1.521594 2.42432,6.923667 -3.02946,12.958751 -9.96664,11.028959 z M 53.781386,30.585906 c -2.701118,-1.730375 -4.527995,-2.201914 -5.078689,-1.310872 -1.076083,1.74114 -7.446875,1.803093 -11.88537,0.115587 C 30.073,26.826426 27.175102,14.707798 31.367573,6.6004536 c 1.118832,-2.1635829 2.884809,-3.9337869 3.924394,-3.9337869 2.34868,0 6.041366,5.0998813 6.041366,8.3435873 0,1.975496 0.47053,2.165083 2.576366,1.038073 1.417003,-0.758357 2.957435,-2.5794668 3.423184,-4.0469118 1.248759,-3.9344897 5.509823,-3.2434263 8.212544,1.3319183 2.742488,4.6426615 3.884437,4.9908665 4.806327,1.4655545 0.364525,-1.3939445 1.920753,-3.2076955 3.458285,-4.0305575 2.304793,-1.2334884 3.294765,-0.9968584 5.639653,1.3480298 2.304903,2.3049027 2.687459,3.8239907 2.017735,8.0122117 -1.219167,7.624248 -4.525731,13.677911 -8.493856,15.550567 -4.427323,2.089362 -4.177829,2.119035 -9.192185,-1.093233 z"
       id="path143" />
  </g>
</svg>
