<?xml version="1.0" encoding="UTF-8" standalone="no"?>
<!-- Created with Inkscape (http://www.inkscape.org/) -->

<svg
   version="1.1"
   id="svg12"
   width="200"
   height="169.33333"
   viewBox="0 0 200 169.33333"
   sodipodi:docname="010.svg"
   inkscape:version="1.1.2 (0a00cf5339, 2022-02-04)"
   xmlns:inkscape="http://www.inkscape.org/namespaces/inkscape"
   xmlns:sodipodi="http://sodipodi.sourceforge.net/DTD/sodipodi-0.dtd"
   xmlns="http://www.w3.org/2000/svg"
   xmlns:svg="http://www.w3.org/2000/svg">
  <defs
     id="defs16" />
  <sodipodi:namedview
     id="namedview14"
     pagecolor="#ffffff"
     bordercolor="#666666"
     borderopacity="1.0"
     inkscape:pageshadow="2"
     inkscape:pageopacity="0.0"
     inkscape:pagecheckerboard="0"
     showgrid="false"
     inkscape:zoom="5.155512"
     inkscape:cx="100.08705"
     inkscape:cy="84.569681"
     inkscape:window-width="2560"
     inkscape:window-height="1299"
     inkscape:window-x="0"
     inkscape:window-y="32"
     inkscape:window-maximized="1"
     inkscape:current-layer="g18" />
  <g
     inkscape:groupmode="layer"
     inkscape:label="Image"
     id="g18">
    <path
       style="fill:#000000;stroke-width:1.33333"
       d="m 40.133205,162.91556 c -2.066913,-3.86206 1.046602,-8.24452 11.238328,-15.81863 5.112323,-3.79929 11.909104,-9.77907 15.103958,-13.28839 5.469949,-6.00834 5.773342,-6.74982 5.200628,-12.71017 -0.533451,-5.55173 -1.61601,-7.40696 -8.808824,-15.09611 -8.42008,-9.001087 -9.786308,-12.65737 -6.43977,-17.234034 1.469183,-2.009226 2.849551,-2.25344 8.333334,-1.474325 3.614861,0.513587 15.122474,1.213388 25.572474,1.555116 l 18.999997,0.621324 v -3.239007 c 0,-1.781453 -0.9,-5.393008 -2,-8.025678 -3.193,-7.641943 -2.59659,-14.519853 1.66667,-19.220324 6.67152,-7.3557 12.41836,-8.665304 19.66667,-4.481693 2.2,1.269807 5.04906,4.375953 6.33126,6.902549 2.39966,4.728583 2.9569,14.549341 1.09287,19.260477 -1.37009,3.462767 -0.36944,5.992368 2.38519,6.029648 1.20486,0.01631 3.69068,1.202964 5.52401,2.637019 2.79755,2.18827 5.48911,2.612136 16.74516,2.637018 9.55088,0.02112 14.15691,-0.517593 16,-1.87131 2.51525,-1.847404 2.47548,-2.018995 -1.41183,-6.090798 C 170.37511,78.814697 159.93821,72.79906 152,70.559321 c -3.3,-0.931082 -6.79585,-2.299349 -7.76856,-3.040592 -2.86161,-2.180665 -0.54423,-10.174782 4.8852,-16.852063 7.21225,-8.86986 14.13572,-17.667087 21.8314,-27.739824 12.77624,-16.7225785 18.68036,-21.221613 23.06928,-17.5791389 4.39799,3.6500097 2.35512,8.7051669 -8.71344,21.5616979 -5.88285,6.833162 -13.90673,15.723931 -17.83083,19.757265 -6.80746,6.996968 -8.18036,10.666666 -3.99058,10.666666 3.34562,0 16.98661,7.585713 22.01486,12.242407 3.46231,3.206461 5.09928,6.063657 5.77896,10.086678 1.51134,8.945485 -0.23377,13.534964 -8.04717,21.163283 -6.95216,6.78747 -7.31543,6.95487 -17.07837,7.86973 -17.00776,1.59376 -34.44441,-2.09569 -44.31887,-9.377487 -2.63212,-1.941018 -3.10876,-1.862537 -6.66667,1.097697 -5.60511,4.66353 -9.55772,6.47799 -15.32091,7.0331 -2.819021,0.27153 -7.161057,1.3442 -9.648969,2.38372 -4.520216,1.88866 -4.524166,1.89831 -5.481751,13.39399 -1.618853,19.43412 -8.385613,29.57728 -25.689039,38.50705 -8.34383,4.306 -16.931862,4.84336 -18.891336,1.18206 z M 8.4119504,108.74358 C 6.5195096,107.37156 5.1804101,104.55731 4.6099656,100.75331 3.8552081,95.720229 4.3468785,93.722461 8.0504489,86.773852 10.427046,82.314898 12.90677,78.666665 13.560947,78.666665 c 2.597336,0 2.542277,-4.114826 -0.1,-7.473944 -3.4991703,-4.448468 -3.545393,-9.277793 -0.142228,-14.859389 3.151658,-5.169094 8.80914,-5.848 14.566978,-1.748057 3.58908,2.555651 3.675472,2.555751 7.53916,0.0088 C 45.494925,47.955812 53.865161,54.972684 46,63.459333 c -1.833333,1.978199 -3.333333,4.100099 -3.333333,4.715332 0,0.615234 1.863197,4.146688 4.140438,7.847676 4.818622,7.831259 4.617994,11.413527 -1.22451,21.863988 -5.363055,9.592871 -8.240343,11.162691 -22.249262,12.138971 -9.79615,0.68269 -12.536524,0.4473 -14.9213826,-1.28172 z M 28.666667,87.847261 c 0,-3.211101 -5.288808,-2.160693 -5.758208,1.143635 -0.371907,2.618021 -0.03945,2.848321 2.666666,1.847262 1.700348,-0.629 3.091542,-1.974904 3.091542,-2.990897 z M 118.08515,45.162095 c -4.08635,-3.214324 -4.55229,-9.056045 -0.98016,-12.288778 3.19951,-2.895516 7.20621,-2.795106 10.9984,0.275628 2.91807,2.362908 2.97326,2.724293 1.14772,7.514826 -2.47455,6.493609 -6.54478,8.133345 -11.16596,4.498324 z m -78.751817,-0.09959 c -3.45605,-1.94568 -4.6211,-3.748373 -4.646249,-7.189191 -0.02498,-3.417044 3.918795,-7.206651 7.499821,-7.206651 6.08878,0 11.103782,9.574147 6.813095,13.006888 -2.947427,2.358073 -6.929049,2.930173 -9.666667,1.388954 z M 17.578445,43.221611 c -5.682638,-3.980274 -2.049302,-12.554945 5.319892,-12.554945 3.62033,0 7.76833,3.657725 7.76833,6.850148 0,5.571257 -8.18524,9.138978 -13.088222,5.704797 z"
       id="path22" />
  </g>
</svg>
