<?xml version="1.0" encoding="UTF-8" standalone="no"?>
<!-- Created with Inkscape (http://www.inkscape.org/) -->

<svg
   version="1.1"
   id="svg2"
   width="165.33333"
   height="117.33333"
   viewBox="0 0 165.33333 117.33333"
   sodipodi:docname="011.svg"
   inkscape:version="1.1.2 (0a00cf5339, 2022-02-04)"
   xmlns:inkscape="http://www.inkscape.org/namespaces/inkscape"
   xmlns:sodipodi="http://sodipodi.sourceforge.net/DTD/sodipodi-0.dtd"
   xmlns="http://www.w3.org/2000/svg"
   xmlns:svg="http://www.w3.org/2000/svg">
  <defs
     id="defs6" />
  <sodipodi:namedview
     id="namedview4"
     pagecolor="#ffffff"
     bordercolor="#666666"
     borderopacity="1.0"
     inkscape:pageshadow="2"
     inkscape:pageopacity="0.0"
     inkscape:pagecheckerboard="0"
     showgrid="false"
     inkscape:zoom="7.4403412"
     inkscape:cx="46.234439"
     inkscape:cy="58.599463"
     inkscape:window-width="2560"
     inkscape:window-height="1299"
     inkscape:window-x="0"
     inkscape:window-y="32"
     inkscape:window-maximized="1"
     inkscape:current-layer="g8" />
  <g
     inkscape:groupmode="layer"
     inkscape:label="Image"
     id="g8">
    <path
       style="fill:#000000;stroke-width:1.33333"
       d="m 6.3333332,107.8932 c -1.344202,-0.78293 -2.3333333,-2.94367 -2.3333333,-5.09713 0,-3.65211 0.2816336,-3.792503 12.2462901,-6.104683 18.52242,-3.579475 30.420376,-9.650351 30.420376,-15.521853 0,-2.481987 -0.567626,-2.623834 -7.18914,-1.79653 -13.132361,1.64078 -15.170748,-0.961358 -12.826144,-16.373454 2.609789,-17.155285 3.791772,-18.999551 12.176735,-18.999551 6.996275,0 12.256899,2.871436 15.81857,8.634341 2.497565,4.041144 3.61271,4.698992 7.965465,4.698992 2.964801,0 5.778345,0.863954 6.792316,2.085714 2.175576,2.621408 7.226401,1.519458 11.471562,-2.50278 3.790276,-3.591237 3.876952,-5.154859 0.457302,-8.249601 -1.96433,-1.777693 -2.666667,-4.106622 -2.666667,-8.842579 0,-8.654619 3.113047,-10.702707 17.026416,-11.201755 8.887449,-0.318777 11.270959,0.110747 17.306919,3.118851 8.3552,4.163924 9.0849,7.694496 3.04887,14.751669 -2.11351,2.471069 -3.57342,5.194717 -3.24424,6.052553 1.23906,3.228933 21.86203,6.493686 21.86203,3.460904 0,-0.6852 -1.23413,-1.906307 -2.74251,-2.713571 -2.46478,-1.319109 -2.68506,-2.428993 -2.17515,-10.959473 0.47662,-7.973577 1.06974,-9.898517 3.70828,-12.035077 2.44613,-1.980754 4.32824,-2.353862 8.50848,-1.686716 6.6663,1.063911 10.1403,3.290755 14.92969,9.569972 7.00308,9.181509 4.21068,23.595297 -6.48683,33.483626 -2.89412,2.675202 -4.81561,3.034505 -17.82619,3.333333 -12.78284,0.293596 -15.36222,-0.0353 -20.90123,-2.665071 -3.47534,-1.65 -7.48994,-3 -8.92132,-3 -1.43137,0 -2.973323,-0.6 -3.426549,-1.333333 -1.482738,-2.399123 -5.257162,-1.392396 -9.423959,2.513589 -4.622147,4.332832 -11.239223,6.289587 -14.831171,4.385767 -3.964806,-2.101443 -14.007261,2.30639 -15.171328,6.658998 -0.522582,1.954007 -3.14665,6.861909 -5.831263,10.906449 -4.344731,6.545614 -7.44066,9.258329 -17.326937,15.182209 -3.355602,2.01068 -27.0565163,2.20252 -30.4153398,0.24619 z M 135.41848,22.495429 c -4.08635,-3.214324 -4.55229,-9.056045 -0.98016,-12.288779 3.1995,-2.8955158 7.20621,-2.7951045 10.99841,0.275629 2.91807,2.362907 2.97325,2.724293 1.14771,7.514826 -2.47455,6.493609 -6.54478,8.133345 -11.16596,4.498324 z M 98.999998,19.95845 c -2.164101,-0.869863 -3,-2.305819 -3,-5.15358 0,-5.0287028 3.105693,-8.1382035 8.128242,-8.1382035 3.00008,0 4.2474,0.8144162 5.23809,3.4201325 1.80096,4.736887 1.67298,5.540555 -1.36633,8.579867 -2.90531,2.905305 -4.43835,3.125345 -9.000002,1.291784 z"
       id="path143" />
  </g>
</svg>
