<?xml version="1.0" encoding="UTF-8" standalone="no"?>
<!-- Created with Inkscape (http://www.inkscape.org/) -->

<svg
   version="1.1"
   id="svg12"
   width="241.33333"
   height="124"
   viewBox="0 0 241.33333 124"
   sodipodi:docname="012.svg"
   inkscape:version="1.1.2 (0a00cf5339, 2022-02-04)"
   xmlns:inkscape="http://www.inkscape.org/namespaces/inkscape"
   xmlns:sodipodi="http://sodipodi.sourceforge.net/DTD/sodipodi-0.dtd"
   xmlns="http://www.w3.org/2000/svg"
   xmlns:svg="http://www.w3.org/2000/svg">
  <defs
     id="defs16" />
  <sodipodi:namedview
     id="namedview14"
     pagecolor="#ffffff"
     bordercolor="#666666"
     borderopacity="1.0"
     inkscape:pageshadow="2"
     inkscape:pageopacity="0.0"
     inkscape:pagecheckerboard="0"
     showgrid="false"
     inkscape:zoom="5.3121548"
     inkscape:cx="120.66666"
     inkscape:cy="61.933436"
     inkscape:window-width="2560"
     inkscape:window-height="1299"
     inkscape:window-x="0"
     inkscape:window-y="32"
     inkscape:window-maximized="1"
     inkscape:current-layer="g18" />
  <g
     inkscape:groupmode="layer"
     inkscape:label="Image"
     id="g18">
    <path
       style="fill:#000000;stroke-width:1.33333"
       d="m 67.666666,117.22653 c -2.390587,-1.39238 -3.219274,-8.53973 -1.312916,-11.32379 1.648905,-2.40807 5.701801,-3.30017 8.409505,-1.85105 3.390477,1.81453 3.546927,10.24613 0.236744,12.75892 -2.803836,2.12841 -4.252141,2.21055 -7.333333,0.41592 z m 16.6,-2.82653 c -3.884539,-3.88454 -0.130834,-13.06667 5.341727,-13.06667 2.951378,0 5.391606,3.42472 5.391606,7.56679 0,5.6878 -6.972584,9.26063 -10.733333,5.49988 z M 192,98.566875 c -1.83334,-0.632194 -6.03334,-1.96462 -9.33334,-2.96095 C 169.81525,91.725855 166.49218,80.064989 166.82032,40 c 0.14102,-17.219255 0.2012,-15.634508 -0.94231,-24.817835 -0.75441,-6.0586415 -0.51792,-7.0496999 2.12385,-8.9000662 6.8149,-4.7733401 12.9065,4.2633172 13.39298,19.8679542 0.24626,7.89961 -0.88275,26.322039 -1.99278,32.516614 -0.35621,1.987868 0.85483,6.219184 3.00031,10.482908 2.98117,5.924504 4.51149,7.463202 8.93096,8.979925 2.93333,1.006692 6.99875,1.839384 9.03424,1.850425 3.60584,0.01956 3.65257,-0.07411 1.81903,-3.646592 -2.08956,-4.071326 -1.51648,-17.080249 0.88493,-20.087916 0.77051,-0.96502 3.15623,-2.66229 5.30161,-3.771712 3.25522,-1.683337 4.59512,-1.738774 8.09711,-0.335013 5.58771,2.239811 11.48276,7.192448 15.38656,12.926781 2.58265,3.793683 2.90004,5.150592 1.66667,7.125527 C 232.68557,73.532716 232,76.346441 232,78.443724 c 0,5.106495 -3.27206,11.373369 -8.02748,15.374791 C 217.7424,99.060823 200.75053,101.58435 192,98.566875 Z M 10.179811,94.569893 C 4.3563018,89.98912 6.2842684,81.690027 16.233138,68.512843 l 5.379291,-7.124819 -1.590687,-6.630721 c -1.9117,-7.96886 -1.215428,-9.42397 4.509376,-9.42397 3.317812,0 5.420338,1.150134 8.708832,4.763944 3.865465,4.24786 4.574775,4.555304 6.547571,2.837999 4.548946,-3.959823 8.251446,-5.229455 10.297708,-3.531208 2.894424,2.402159 2.304342,6.095948 -1.444962,9.045151 -3.046678,2.396517 -3.204862,2.982664 -1.697652,6.290629 2.510426,5.509785 14.565465,16.531339 18.117991,16.564723 3.874224,0.03641 9.243673,-5.258638 10.332922,-10.189742 2.152212,-9.743212 4.193046,-13.1048 8.204659,-13.514426 3.119484,-0.318532 4.233422,0.302802 5.490933,3.062737 0.867649,1.904284 1.577545,4.806768 1.577545,6.449963 0,1.643196 1.678703,4.998444 3.730451,7.456106 3.54182,4.24253 4.259524,4.498118 14.193644,5.054627 l 10.4632,0.586148 -2.86031,-4.847872 c -5.20084,-8.814763 -3.27197,-16.39948 6.39054,-25.12898 4.81524,-4.350283 6.21886,-4.899799 12.51546,-4.899799 8.87137,0 18.28517,3.130346 22.31561,7.420542 2.57532,2.741306 2.87047,3.888285 1.7838,6.932132 l -1.30212,3.647326 -13.61514,-0.191128 c -10.35672,-0.145386 -13.61514,0.22227 -13.61514,1.536234 0,2.323598 5.78847,4.192186 19.00258,6.134261 12.7186,1.869249 15.96794,3.93464 15.39545,9.785835 -0.49431,5.052204 -4.77848,7.34456 -23.25072,12.440897 -11.25101,3.104061 -15.40923,3.593329 -28.82954,3.392164 -17.634355,-0.264332 -23.724783,-1.742935 -27.630249,-6.707929 -1.478133,-1.879143 -2.687515,-2.794974 -2.687515,-2.03518 0,2.511253 -9.386958,6.97818 -14.664191,6.97818 -2.848137,0 -5.549251,0.6 -6.002476,1.333333 -2.396504,3.877625 -13.611406,-0.48178 -20.312104,-7.895628 L 37.37579,83.333333 32.354562,88.854816 C 24.775172,97.189324 16.29003,99.376192 10.179811,94.569893 Z M 206.09524,47.238095 c -2.53224,-2.532238 -2.73016,-8.52677 -0.38732,-11.730795 2.02892,-2.774717 9.3302,-3.298777 12.24589,-0.878967 3.15791,2.620831 2.61052,10.158519 -0.91716,12.629395 -3.7932,2.656863 -8.27296,2.648824 -10.94141,-0.01963 z M 44.846478,39.903227 c -4.097217,-3.222872 -4.551395,-7.883658 -1.074824,-11.02991 3.198856,-2.894925 7.277492,-2.80064 10.021695,0.231671 2.964722,3.275981 2.780318,7.109755 -0.511956,10.643597 -3.353267,3.599308 -4.039732,3.611894 -8.434915,0.154642 z m -20,-1.333334 c -4.097217,-3.222872 -4.551394,-7.883657 -1.074824,-11.029909 3.198856,-2.894925 7.277492,-2.80064 10.021695,0.231671 2.964722,3.275981 2.780318,7.109754 -0.511956,10.643597 -3.353267,3.599308 -4.039732,3.611893 -8.434915,0.154641 z m 111.570262,-0.95078 c -2.36642,-1.504701 -4.66302,-8.456353 -3.85599,-11.671817 0.38975,-1.552901 2.20309,-3.504369 4.02962,-4.336595 2.85968,-1.30296 3.88273,-1.040445 7.36529,1.889939 2.70214,2.273687 4.04434,4.622652 4.04434,7.077901 0,6.021627 -6.74147,10.119248 -11.58326,7.040572 z"
       id="path22" />
  </g>
</svg>
