<?xml version="1.0" encoding="UTF-8" standalone="no"?>
<!-- Created with Inkscape (http://www.inkscape.org/) -->

<svg
   version="1.1"
   id="svg2"
   width="182.66667"
   height="137.33333"
   viewBox="0 0 182.66667 137.33333"
   sodipodi:docname="013.svg"
   inkscape:version="1.1.2 (0a00cf5339, 2022-02-04)"
   xmlns:inkscape="http://www.inkscape.org/namespaces/inkscape"
   xmlns:sodipodi="http://sodipodi.sourceforge.net/DTD/sodipodi-0.dtd"
   xmlns="http://www.w3.org/2000/svg"
   xmlns:svg="http://www.w3.org/2000/svg">
  <defs
     id="defs6" />
  <sodipodi:namedview
     id="namedview4"
     pagecolor="#ffffff"
     bordercolor="#666666"
     borderopacity="1.0"
     inkscape:pageshadow="2"
     inkscape:pageopacity="0.0"
     inkscape:pagecheckerboard="0"
     showgrid="false"
     inkscape:zoom="6.3567964"
     inkscape:cx="91.39824"
     inkscape:cy="68.588008"
     inkscape:window-width="2560"
     inkscape:window-height="1299"
     inkscape:window-x="0"
     inkscape:window-y="32"
     inkscape:window-maximized="1"
     inkscape:current-layer="g8" />
  <g
     inkscape:groupmode="layer"
     inkscape:label="Image"
     id="g8">
    <path
       style="fill:#000000;stroke-width:1.33333"
       d="M 5.278144,130.16703 C 4.936011,129.8249 4.7426729,113.74735 4.8485034,94.439151 5.0583945,56.145713 5.7923046,51.380891 13.130904,40.666666 c 4.963738,-7.246968 9.849786,-9.489648 16.694459,-7.6627 6.564556,1.75218 8.070055,1.190104 11.250512,-4.200371 3.394899,-5.753925 12.799002,-9.425061 20.995091,-8.195982 8.245771,1.23653 13.375561,5.883702 14.327287,12.979358 1.664388,12.408937 11.153067,10.789551 13.205029,-2.253638 0.27447,-1.74466 1.62704,-2.807106 3.911958,-3.072851 2.864244,-0.333123 3.660336,0.266453 4.425867,3.333333 0.513387,2.056735 2.156083,5.722672 3.650443,8.146527 2.12105,3.440353 3.47703,4.317733 6.18197,4 2.73773,-0.321586 3.65579,-1.347451 4.37416,-4.88782 1.0844,-5.344359 4.21493,-8.843661 6.96692,-7.787624 1.33304,0.511535 2.29678,3.645817 2.92511,9.513057 1.09529,10.227736 -0.35261,13.385378 -8.65793,18.881582 -5.8375,3.863072 -11.44032,3.570796 -17.135804,-0.893905 -2.989537,-2.343504 -3.221889,-2.338156 -7.333333,0.168773 -2.507705,1.529059 -6.659433,2.590999 -10.141198,2.593943 -5.241096,0.0044 -6.527258,-0.654645 -11.591358,-5.939832 -4.845881,-5.057441 -5.757133,-6.898421 -6.104777,-12.333333 -0.343072,-5.363415 -0.836536,-6.388517 -3.075309,-6.388517 -2.165977,0 -2.589016,0.751034 -2.253104,4 0.993628,9.61041 0.587733,12.914666 -2.011097,16.371686 -2.49431,3.317984 -3.493548,3.628313 -11.68289,3.628313 -7.802828,0 -9.283295,-0.40508 -11.504099,-3.147712 -1.401845,-1.731241 -2.54881,-4.84583 -2.54881,-6.92131 0,-4.963092 -1.985573,-6.020825 -4.517233,-2.406376 -1.573669,2.246728 -1.864293,5.189072 -1.286253,13.022306 C 23.167974,74.378154 20.60873,104.33672 17.858028,112 c -1.184521,3.3 -2.837153,8.7 -3.672517,12 -1.250949,4.94171 -2.115582,6.06959 -4.9020758,6.39454 -1.8607773,0.217 -3.6631584,0.11462 -4.0052912,-0.22751 z M 134.94539,62.730888 c -7.0938,-1.750996 -9.98886,-5.206035 -9.21248,-10.994417 0.73759,-5.499113 5.49007,-13.069805 8.20453,-13.069805 0.96574,0 2.78319,1.567896 4.03882,3.484213 2.12269,3.23964 2.83824,3.444048 10.19372,2.912 4.82014,-0.348657 8.74404,-1.405465 10.04357,-2.704993 1.95481,-1.954816 1.85424,-2.411315 -1.20532,-5.470868 -1.83595,-1.83595 -6.56387,-4.954999 -10.50649,-6.931221 -9.6218,-4.82289 -11.83507,-6.989094 -11.83507,-11.583436 0,-7.900462 5.58291,-13.0931101 10.97467,-10.2075236 1.63606,0.8755968 4.09702,3.0188426 5.4688,4.7627676 1.37177,1.743925 5.92202,4.901169 10.11168,7.016097 16.65856,8.409219 19.99326,25.7344 7.23056,37.565729 -3.08155,2.85666 -5.52175,3.654712 -13.11904,4.290496 -5.13334,0.429585 -10.83334,1.058487 -12.66667,1.397561 -1.83333,0.339072 -5.30791,0.129106 -7.72128,-0.4666 z"
       id="path12" />
  </g>
</svg>
