<?xml version="1.0" encoding="UTF-8" standalone="no"?>
<!-- Created with Inkscape (http://www.inkscape.org/) -->

<svg
   version="1.1"
   id="svg2"
   width="157.33333"
   height="89.333336"
   viewBox="0 0 157.33333 89.333336"
   sodipodi:docname="014.svg"
   inkscape:version="1.1.2 (0a00cf5339, 2022-02-04)"
   xmlns:inkscape="http://www.inkscape.org/namespaces/inkscape"
   xmlns:sodipodi="http://sodipodi.sourceforge.net/DTD/sodipodi-0.dtd"
   xmlns="http://www.w3.org/2000/svg"
   xmlns:svg="http://www.w3.org/2000/svg">
  <defs
     id="defs6" />
  <sodipodi:namedview
     id="namedview4"
     pagecolor="#ffffff"
     bordercolor="#666666"
     borderopacity="1.0"
     inkscape:pageshadow="2"
     inkscape:pageopacity="0.0"
     inkscape:pagecheckerboard="0"
     showgrid="false"
     inkscape:zoom="8.1483053"
     inkscape:cx="45.28549"
     inkscape:cy="44.671865"
     inkscape:window-width="2560"
     inkscape:window-height="1299"
     inkscape:window-x="0"
     inkscape:window-y="32"
     inkscape:window-maximized="1"
     inkscape:current-layer="g8" />
  <g
     inkscape:groupmode="layer"
     inkscape:label="Image"
     id="g8">
    <path
       style="fill:#000000;stroke-width:1.33333"
       d="m 34.666666,83.616356 c -4.597999,-2.314175 -5.477623,-10.731731 -1.352173,-12.939605 4.644652,-2.485742 12.387335,-1.154521 14.167253,2.435815 2.106018,4.248126 1.039097,7.338146 -3.449144,9.989415 C 39.53683,85.7577 38.98183,85.78818 34.666666,83.616356 Z M 9.2835845,61.666669 C 3.1335821,56.15567 2.019781,49.187919 6.0253021,41.283403 c 1.8014908,-3.555071 4.3715249,-6.583829 5.9332049,-6.992217 3.670146,-0.959765 6.963261,2.526154 6.505861,6.886762 -0.655475,6.248945 0.659853,6.822053 15.657146,6.822053 15.962702,0 21.350446,-1.640956 25.771069,-7.849148 3.741866,-5.254968 7.43196,-5.324613 10.086976,-0.190377 2.865447,5.541165 5.465222,6.564663 18.90111,7.441117 9.225408,0.601796 11.255451,0.433032 9.343965,-0.776798 -1.343117,-0.850095 -3.657509,-1.227772 -5.143095,-0.839283 -4.228889,1.105879 -9.081541,-1.32672 -9.081541,-4.552509 0,-1.558151 2.115922,-4.948923 4.702048,-7.53505 4.164589,-4.164589 5.26952,-4.613368 9.666667,-3.926211 2.730537,0.426711 10.364617,3.482903 16.964617,6.791536 6.6,3.308635 15,6.972031 18.66667,8.140881 12.51364,3.989064 18.63025,7.649257 19.06741,11.409971 0.2204,1.896104 -0.3796,4.082812 -1.33333,4.859353 -1.40495,1.143912 -66.997508,2.7361 -77.214686,1.874303 -1.180998,-0.09961 -4.45799,-1.749214 -7.282202,-3.665776 l -5.134932,-3.48466 -5.384464,2.794081 c -11.364293,5.897106 -15.441574,6.841904 -29.526259,6.841904 -13.1913,0 -14.001185,-0.165824 -17.9079525,-3.666666 z M 29.363423,22.036258 C 28.690629,21.22559 27.369181,17.679709 26.426871,14.156523 24.839866,8.2228848 24.908407,7.607819 27.356791,5.81184 c 2.399839,-1.7603693 2.89335,-1.6261291 5.359962,1.4579688 3.033832,3.7933142 4.61658,4.3211202 4.61658,1.5395099 0,-1.7228872 2.699526,-3.4759852 5.352533,-3.4759852 0.623937,0 1.515298,1.2 1.9808,2.6666667 1.084301,3.4163328 2.826274,3.4163328 3.719665,0 0.835065,-3.1932966 5.641787,-3.5872075 6.804349,-0.5576166 1.439797,3.7520524 0.859872,10.5587584 -1.143254,13.4186224 -1.714412,2.447667 -3.264278,2.779243 -12.706656,2.718441 -6.141155,-0.03955 -11.278797,-0.701489 -11.977347,-1.543189 z"
       id="path143" />
  </g>
</svg>
