<?xml version="1.0" encoding="UTF-8" standalone="no"?>
<!-- Created with Inkscape (http://www.inkscape.org/) -->

<svg
   version="1.1"
   id="svg12"
   width="220"
   height="120"
   viewBox="0 0 220 120"
   sodipodi:docname="015.svg"
   inkscape:version="1.1.2 (0a00cf5339, 2022-02-04)"
   xmlns:inkscape="http://www.inkscape.org/namespaces/inkscape"
   xmlns:sodipodi="http://sodipodi.sourceforge.net/DTD/sodipodi-0.dtd"
   xmlns="http://www.w3.org/2000/svg"
   xmlns:svg="http://www.w3.org/2000/svg">
  <defs
     id="defs16" />
  <sodipodi:namedview
     id="namedview14"
     pagecolor="#ffffff"
     bordercolor="#666666"
     borderopacity="1.0"
     inkscape:pageshadow="2"
     inkscape:pageopacity="0.0"
     inkscape:pagecheckerboard="0"
     showgrid="false"
     inkscape:zoom="5.8272727"
     inkscape:cx="110"
     inkscape:cy="60.062402"
     inkscape:window-width="2560"
     inkscape:window-height="1299"
     inkscape:window-x="0"
     inkscape:window-y="32"
     inkscape:window-maximized="1"
     inkscape:current-layer="g18" />
  <g
     inkscape:groupmode="layer"
     inkscape:label="Image"
     id="g18">
    <path
       style="fill:#000000;stroke-width:1.33333"
       d="m 79,113.78363 c -3.200645,-1.29149 -1.620819,-5.27309 4.433121,-11.17269 C 90.83492,95.397849 97.217304,86.246815 98.170579,81.48044 99.108431,76.791181 94.78274,71.393596 87.386653,68.024291 80.612064,64.938108 78.901207,60.348913 82.917944,56.037452 c 2.082276,-2.235061 3.526367,-2.565237 8.140037,-1.861136 3.084778,0.470773 6.655512,1.393104 7.934967,2.049623 3.867602,1.984556 27.143572,1.873894 29.570882,-0.14059 1.91581,-1.589985 1.86363,-2.15764 -0.55864,-6.076958 -5.78985,-9.36817 -2.4498,-13.434018 12.12053,-14.754347 12.85292,-1.164701 16.48752,0.378657 15.37867,6.530255 -2.63431,14.61448 -2.66071,14.048904 0.6901,14.780769 4.18851,0.914829 7.24644,1.104968 14.82511,0.921804 5.58372,-0.134948 6.65389,-0.648436 8.83863,-4.240945 1.9228,-3.161782 2.24521,-5.1999 1.42376,-9 -2.6209,-12.124406 -4.25043,-34.5240305 -2.71964,-37.3843395 2.17896,-4.0714218 6.29953,-3.542351 10.80172,1.386914 5.36957,5.8789415 6.43717,13.6761065 2.7323,19.9553855 -2.25957,3.82969 -2.73634,6.619909 -2.49452,14.598693 0.36794,12.139967 -1.65557,19.382363 -6.91972,24.766668 -4.58709,4.691785 -9.22012,5.997239 -15.19877,4.282581 -2.27283,-0.65184 -6.61311,-1.185162 -9.64505,-1.185162 -3.03196,0 -7.75351,-0.936292 -10.49234,-2.08065 -4.41578,-1.845032 -5.45341,-1.858458 -9.16284,-0.11856 -4.08862,1.917752 -15.48572,3.780582 -24.83734,4.059606 l -4.67912,0.139604 -0.12282,11.038321 c -0.1117,10.040529 -0.48305,11.535619 -4.10806,16.539802 -2.32076,3.20372 -7.281403,7.34764 -11.877186,9.92172 C 84.841257,114.48897 82.377152,115.14634 79,113.78363 Z M 4.8071925,109.88541 C 3.6963075,106.99049 4.7371664,105.55084 14.316389,96.732921 28.538971,83.640669 28.40762,74.981841 13.889032,68.561033 5.6896205,64.934864 4.5779057,61.681719 9.4301068,55.513145 12.632401,51.442087 16.556596,51.059896 23.709492,54.122428 c 9.86356,4.223108 36.305103,6.396311 39.458372,3.243041 0.724223,-0.724222 0.299585,-3.128041 -1.057927,-5.988784 -2.786672,-5.872474 -1.823217,-9.417633 3.018048,-11.105308 5.77117,-2.01184 10.21481,1.042519 12.035356,8.272566 0.82683,3.283634 1.503326,6.995834 1.503326,8.249336 0,3.10793 -7.957812,13.363825 -11.729404,15.116658 -3.539286,1.644871 -14.523127,1.775706 -22.30501,0.265688 C 36.675397,70.631656 36,71.239797 36,79.948279 c 0,7.897802 -2.333451,15.276348 -6.835173,21.613331 -5.574107,7.84655 -22.3419215,13.57666 -24.3576345,8.3238 z M 49.6,86.4 c -3.898765,-3.898765 0.08418,-11.733333 5.965004,-11.733333 3.346968,0 7.101663,3.995769 7.101663,7.557634 C 62.666667,86.728253 53.0132,89.8132 49.6,86.4 Z m 18.066667,0.159868 c -5.308127,-3.0917 -1.176959,-13.226535 5.391409,-13.226535 5.319368,0 7.494041,8.547058 3.170269,12.460016 -2.773829,2.510283 -5.195569,2.727098 -8.561678,0.766519 z M 202.31099,71.199876 c -0.44007,-0.440068 -0.4793,-4.790068 -0.0872,-9.666667 0.41996,-5.22276 -0.18096,-14.801374 -1.46224,-23.307974 -1.19635,-7.942788 -1.794,-16.473275 -1.32812,-18.956639 0.9048,-4.823027 5.97869,-11.2818963 8.83621,-11.2481789 5.25621,0.06202 8.04919,7.5879359 6.10912,16.4615159 -0.6694,3.061728 -0.56897,8.160032 0.24777,12.578214 2.835,15.335926 1.00822,30.947668 -3.93057,33.59083 -2.79832,1.497615 -7.15133,1.782571 -8.385,0.548899 z M 11.41848,46.495429 C 7.3321291,43.281105 6.8661904,37.439384 10.438321,34.206651 c 3.199508,-2.895516 7.206211,-2.795106 10.998407,0.275628 2.918067,2.362908 2.97326,2.724293 1.147712,7.514826 -2.474547,6.49361 -6.54478,8.133346 -11.16596,4.498324 z m 74.842745,1.792978 c -9.561182,-1.226098 -6.531034,-13.845991 3.530024,-14.701758 4.119251,-0.350373 5.096626,0.106707 6.414898,3 2.970874,6.52036 -2.269154,12.686075 -9.944922,11.701758 z"
       id="path22" />
  </g>
</svg>
