<?xml version="1.0" encoding="UTF-8" standalone="no"?>
<!-- Created with Inkscape (http://www.inkscape.org/) -->

<svg
   version="1.1"
   id="svg2"
   width="156"
   height="60"
   viewBox="0 0 156 60"
   sodipodi:docname="016.svg"
   inkscape:version="1.1.2 (0a00cf5339, 2022-02-04)"
   xmlns:inkscape="http://www.inkscape.org/namespaces/inkscape"
   xmlns:sodipodi="http://sodipodi.sourceforge.net/DTD/sodipodi-0.dtd"
   xmlns="http://www.w3.org/2000/svg"
   xmlns:svg="http://www.w3.org/2000/svg">
  <defs
     id="defs6" />
  <sodipodi:namedview
     id="namedview4"
     pagecolor="#ffffff"
     bordercolor="#666666"
     borderopacity="1.0"
     inkscape:pageshadow="2"
     inkscape:pageopacity="0.0"
     inkscape:pagecheckerboard="0"
     showgrid="false"
     inkscape:zoom="8.2179487"
     inkscape:cx="78"
     inkscape:cy="30.056162"
     inkscape:window-width="2560"
     inkscape:window-height="1299"
     inkscape:window-x="0"
     inkscape:window-y="32"
     inkscape:window-maximized="1"
     inkscape:current-layer="g8" />
  <g
     inkscape:groupmode="layer"
     inkscape:label="Image"
     id="g8">
    <path
       style="fill:#000000;stroke-width:1.33333"
       d="m 29.893576,54.024701 c -2.022551,-3.086802 -1.997892,-3.600818 0.3678,-7.666666 4.703757,-8.084216 16.405291,-6.04147 16.405291,2.863886 0,4.943747 -3.80402,8.111412 -9.740918,8.111412 -3.707564,0 -5.379794,-0.786782 -7.032173,-3.308632 z M 13.78206,36.092139 C 6.3390255,34.875492 4.2966356,32.888516 3.2389008,25.835035 2.0406904,17.844796 5.5551241,8.3297848 10.128553,7.1819273 c 4.681319,-1.1749362 7.619854,1.7427046 6.648208,6.6009357 -1.306325,6.531624 0.747928,7.55047 15.223667,7.55047 15.148679,0 20.112827,-1.634757 26.321008,-8.667845 2.376789,-2.6926029 5.076789,-4.6472119 6,-4.3435752 0.923211,0.3036367 2.975764,2.8520222 4.561231,5.6630782 3.81261,6.759813 6.091369,7.893746 11.96665,5.954729 3.381752,-1.116079 5.596127,-1.168936 7.624911,-0.182008 3.525063,1.714813 16.717072,2.884125 17.538762,1.554599 C 106.82826,19.993188 96.092791,16 91.73114,16 83.064432,16 81.481485,11.689573 88.1023,6.1185248 94.577624,0.6698992 99.469013,1.4532991 120,11.227228 c 9.9,4.712968 20.82761,9.771235 24.28359,11.240592 7.03037,2.989059 9.70438,8.115633 6.10865,11.711368 -2.40687,2.406861 0.43275,2.323364 -44.31869,1.303155 -38.968166,-0.888366 -37.18029,-0.622846 -45.515859,-6.759626 -1.18068,-0.869236 -2.520474,-0.566373 -4.193871,0.948031 -6.565781,5.941951 -26.824804,8.99704 -42.58176,6.421391 z"
       id="path12" />
  </g>
</svg>
