<?xml version="1.0" encoding="UTF-8" standalone="no"?>
<!-- Created with Inkscape (http://www.inkscape.org/) -->

<svg
   version="1.1"
   id="svg2"
   width="154.66667"
   height="52"
   viewBox="0 0 154.66667 52"
   sodipodi:docname="0001.svg"
   inkscape:version="1.1.2 (0a00cf5339, 2022-02-04)"
   xmlns:inkscape="http://www.inkscape.org/namespaces/inkscape"
   xmlns:sodipodi="http://sodipodi.sourceforge.net/DTD/sodipodi-0.dtd"
   xmlns="http://www.w3.org/2000/svg"
   xmlns:svg="http://www.w3.org/2000/svg">
  <defs
     id="defs6" />
  <sodipodi:namedview
     id="namedview4"
     pagecolor="#ffffff"
     bordercolor="#666666"
     borderopacity="1.0"
     inkscape:pageshadow="2"
     inkscape:pageopacity="0.0"
     inkscape:pagecheckerboard="0"
     showgrid="false"
     inkscape:zoom="8.2887928"
     inkscape:cx="44.517942"
     inkscape:cy="26.059283"
     inkscape:window-width="2560"
     inkscape:window-height="1299"
     inkscape:window-x="0"
     inkscape:window-y="32"
     inkscape:window-maximized="1"
     inkscape:current-layer="g8" />
  <g
     inkscape:groupmode="layer"
     inkscape:label="Image"
     id="g8">
    <path
       style="fill:#000000;stroke-width:1.33333"
       d="M 59.333335,43.828609 C 49.617437,42.903447 46.09319,42.201791 36.000001,39.183084 24.541937,35.756167 2.20406,17.895844 2.9400415,12.749884 3.3304493,10.020166 3.8151969,9.9974632 69.041871,9.6540781 142.83923,9.2655727 140.01523,8.9215456 145.82011,19.007425 154.72418,34.478108 149.69995,49.12242 137.2565,43.968169 132.84163,42.139475 126.66667,32.910373 126.66667,28.140617 V 25.182188 L 121,28.704103 C 109.57223,35.806627 96.572731,41.052083 86.666669,42.55802 71.36271,44.884555 70.731054,44.913917 59.333335,43.828609 Z M 138.1151,24.210332 C 136.18386,22.279096 136,22.386649 136,25.447619 c 0,1.843809 0.75,4.109994 1.66667,5.035968 1.33899,1.352582 1.75483,1.109324 2.11509,-1.237288 0.24664,-1.606482 -0.50336,-3.872666 -1.66666,-5.035967 z"
       id="path557" />
  </g>
</svg>
