<?xml version="1.0" encoding="UTF-8" standalone="no"?>
<!-- Created with Inkscape (http://www.inkscape.org/) -->

<svg
   version="1.1"
   id="svg2"
   width="160"
   height="162.66667"
   viewBox="0 0 160 162.66667"
   sodipodi:docname="0002.svg"
   inkscape:version="1.1.2 (0a00cf5339, 2022-02-04)"
   xmlns:inkscape="http://www.inkscape.org/namespaces/inkscape"
   xmlns:sodipodi="http://sodipodi.sourceforge.net/DTD/sodipodi-0.dtd"
   xmlns="http://www.w3.org/2000/svg"
   xmlns:svg="http://www.w3.org/2000/svg">
  <defs
     id="defs6" />
  <sodipodi:namedview
     id="namedview4"
     pagecolor="#ffffff"
     bordercolor="#666666"
     borderopacity="1.0"
     inkscape:pageshadow="2"
     inkscape:pageopacity="0.0"
     inkscape:pagecheckerboard="0"
     showgrid="false"
     inkscape:zoom="5.3668031"
     inkscape:cx="79.935856"
     inkscape:cy="81.240171"
     inkscape:window-width="2560"
     inkscape:window-height="1299"
     inkscape:window-x="0"
     inkscape:window-y="32"
     inkscape:window-maximized="1"
     inkscape:current-layer="g8" />
  <g
     inkscape:groupmode="layer"
     inkscape:label="Image"
     id="g8">
    <path
       style="fill:#000000;stroke-width:1.33333"
       d="m 47.615787,153.41427 c -23.798402,-0.61243 -29.279059,-1.1092 -30.312916,-2.7476 -1.812424,-2.87223 -1.595935,-4.84979 0.792368,-7.23809 2.66852,-2.66852 5.716201,-2.65008 11.16386,0.0676 4.089918,2.04032 4.533194,2.01518 7.826596,-0.44368 1.92012,-1.43359 5.143562,-5.29536 7.163205,-8.58175 3.215603,-5.23245 3.806332,-7.93637 4.75208,-21.7515 C 50.248557,94.49507 49.861137,93.222899 40.253,83.993462 31.908019,75.977395 25.860052,64.220143 24.680719,53.720938 c -0.831466,-7.402256 -0.538126,-9.07993 2.769797,-15.84108 3.604251,-7.366823 3.63394,-7.610137 1.150216,-9.426281 C 23.999535,25.089099 16.022024,23.309046 13.542565,25.093589 6.8320677,29.923339 4,28.683255 4,20.915163 4,12.897643 6.7021203,10.682693 16.178887,10.93203 21.179024,11.063586 24.586616,10.406996 26.743228,8.8964455 30.697495,6.1267697 36.466472,6.0155947 38.666667,8.6666668 40.902107,11.360207 43.985813,11.139943 48,8.0000002 c 4.068752,-3.1826241 7.101552,-3.3557989 9.439296,-0.53899 1.302741,1.5697081 1.669141,6.4225398 1.397173,18.5050828 l -0.368642,16.377404 3.766086,2.591487 c 2.071348,1.425317 5.866087,3.556344 8.432754,4.735614 2.566666,1.17927 6.466666,4.040764 8.666666,6.358876 2.2,2.318111 6.25,5.371993 9,6.786403 2.75,1.41441 5,3.425164 5,4.468343 0,4.203531 12.453317,22.343079 26.023417,37.90579 6.8993,7.91238 22.33845,22.7831 23.66974,22.79829 0.56458,0.006 3.41458,1.51923 6.33334,3.36176 10.19276,6.43441 5.22926,16.13233 -5.51374,10.77301 -5.57744,-2.78239 -6.51049,-1.66244 -2.05508,2.46669 3.87255,3.58896 4.12476,4.42446 2.23696,7.41024 -2.84952,4.50688 -27.91325,0.32171 -33.86719,-5.65518 -3.2646,-3.27719 -5.8731,-8.41128 -6.71365,-13.21392 -0.92156,-5.2655 -5.054358,-9.17548 -15.113797,-14.29895 l -5.666666,-2.88614 v 12.02709 c 0,11.03608 -0.214274,12.0271 -2.600414,12.0271 -1.430226,0 -3.211981,-1.05 -3.959454,-2.33333 -1.299806,-2.23163 -1.615756,-1.80469 -1.973466,2.66667 -0.08829,1.10362 1.871136,1.66666 5.800126,1.66666 5.076889,0 6.231788,0.52767 8,3.65516 1.569069,2.77527 1.712882,4.21963 0.597414,6 -1.732028,2.76446 -1.775602,2.76632 -40.915086,1.75911 z m 16.908228,-11.52332 c 1.667314,-4.34495 0.843501,-5.22549 -4.697614,-5.02113 -5.29539,0.1953 -7.762601,1.92214 -7.805984,5.46352 -0.03197,2.61024 11.488607,2.20264 12.503598,-0.44239 z"
       id="path12" />
  </g>
</svg>
