<?xml version="1.0" encoding="UTF-8" standalone="no"?>
<!-- Created with Inkscape (http://www.inkscape.org/) -->

<svg
   version="1.1"
   id="svg12"
   width="160"
   height="158.66667"
   viewBox="0 0 160 158.66667"
   sodipodi:docname="0002.svg"
   inkscape:version="1.1.2 (0a00cf5339, 2022-02-04)"
   xmlns:inkscape="http://www.inkscape.org/namespaces/inkscape"
   xmlns:sodipodi="http://sodipodi.sourceforge.net/DTD/sodipodi-0.dtd"
   xmlns="http://www.w3.org/2000/svg"
   xmlns:svg="http://www.w3.org/2000/svg">
  <defs
     id="defs16" />
  <sodipodi:namedview
     id="namedview14"
     pagecolor="#ffffff"
     bordercolor="#666666"
     borderopacity="1.0"
     inkscape:pageshadow="2"
     inkscape:pageopacity="0.0"
     inkscape:pagecheckerboard="0"
     showgrid="false"
     inkscape:zoom="5.5021007"
     inkscape:cx="30.715541"
     inkscape:cy="79.242461"
     inkscape:window-width="2560"
     inkscape:window-height="1299"
     inkscape:window-x="0"
     inkscape:window-y="32"
     inkscape:window-maximized="1"
     inkscape:current-layer="g18" />
  <g
     inkscape:groupmode="layer"
     inkscape:label="Image"
     id="g18">
    <path
       style="fill:#000000;stroke-width:1.33333"
       d="m 47.615787,152.08094 c -23.798402,-0.61243 -29.279059,-1.1092 -30.312916,-2.7476 -1.812424,-2.87223 -1.595935,-4.84979 0.792368,-7.2381 2.66852,-2.66852 5.716201,-2.65008 11.16386,0.0676 4.089918,2.04032 4.533194,2.01519 7.826596,-0.44368 1.92012,-1.43358 5.143562,-5.29536 7.163205,-8.58174 3.215603,-5.23245 3.806332,-7.93638 4.75208,-21.75151 C 50.248557,93.161737 49.861137,91.889566 40.253,82.660128 31.908019,74.644062 25.860052,62.886809 24.680719,52.387605 c -0.831466,-7.402256 -0.538126,-9.079931 2.769797,-15.84108 3.604251,-7.366823 3.63394,-7.610138 1.150216,-9.426282 C 23.999535,23.755766 16.022024,21.975712 13.542565,23.760255 6.8320677,28.590006 4,27.349922 4,19.58183 4,11.564309 6.7021203,9.3493594 16.178887,9.5986969 21.179024,9.7302525 24.586616,9.0736625 26.743228,7.5631122 30.697495,4.7934364 36.466472,4.6822613 38.666667,7.3333335 40.902107,10.026874 43.985813,9.8066093 48,6.6666668 c 4.068752,-3.1826241 7.101552,-3.3557989 9.439296,-0.53899 1.302741,1.5697082 1.669141,6.4225392 1.397173,18.5050822 l -0.368642,16.377405 3.766086,2.591486 c 2.071348,1.425318 5.866087,3.556344 8.432754,4.735615 2.566666,1.179269 6.466666,4.040764 8.666666,6.358876 2.2,2.318111 6.25,5.371992 9,6.786403 2.75,1.414409 5,3.425164 5,4.468343 0,4.20353 12.453317,22.343079 26.023417,37.905793 6.8993,7.91238 22.33845,22.7831 23.66974,22.79828 0.56458,0.006 3.41458,1.51924 6.33334,3.36177 10.19276,6.43441 5.22926,16.13233 -5.51374,10.77301 -5.57744,-2.78239 -6.51049,-1.66244 -2.05508,2.46669 3.87255,3.58896 4.12476,4.42445 2.23696,7.41024 -2.84952,4.50688 -27.91325,0.32171 -33.86719,-5.65519 -3.2646,-3.27718 -5.8731,-8.41128 -6.71365,-13.21391 -0.92156,-5.2655 -5.054358,-9.17548 -15.113797,-14.29895 l -5.666666,-2.88615 v 11.36043 c 0,10.0508 -0.276675,11.36044 -2.4,11.36044 -1.32,0 -3.12,-0.72 -4,-1.6 -1.640055,-1.64006 -1.754859,-1.46426 -2.133334,3.26666 -0.08829,1.10363 1.871136,1.66667 5.800126,1.66667 5.076889,0 6.231788,0.52767 8,3.65516 1.569069,2.77527 1.712882,4.21963 0.597414,6 -1.732028,2.76445 -1.775602,2.76632 -40.915086,1.75911 z m 16.908228,-11.52332 c 1.667314,-4.34495 0.843501,-5.2255 -4.697614,-5.02114 -5.29539,0.19531 -7.762601,1.92215 -7.805984,5.46352 -0.03197,2.61024 11.488607,2.20264 12.503598,-0.44238 z"
       id="path436" />
  </g>
</svg>
