<?xml version="1.0" encoding="UTF-8" standalone="no"?>
<!-- Created with Inkscape (http://www.inkscape.org/) -->

<svg
   version="1.1"
   id="svg32"
   width="161.33333"
   height="156"
   viewBox="0 0 161.33333 156"
   sodipodi:docname="0004.svg"
   inkscape:version="1.1.2 (0a00cf5339, 2022-02-04)"
   xmlns:inkscape="http://www.inkscape.org/namespaces/inkscape"
   xmlns:sodipodi="http://sodipodi.sourceforge.net/DTD/sodipodi-0.dtd"
   xmlns="http://www.w3.org/2000/svg"
   xmlns:svg="http://www.w3.org/2000/svg">
  <defs
     id="defs36" />
  <sodipodi:namedview
     id="namedview34"
     pagecolor="#ffffff"
     bordercolor="#666666"
     borderopacity="1.0"
     inkscape:pageshadow="2"
     inkscape:pageopacity="0.0"
     inkscape:pagecheckerboard="0"
     showgrid="false"
     inkscape:zoom="5.5961538"
     inkscape:cx="32.164948"
     inkscape:cy="77.910653"
     inkscape:window-width="2560"
     inkscape:window-height="1299"
     inkscape:window-x="0"
     inkscape:window-y="32"
     inkscape:window-maximized="1"
     inkscape:current-layer="g38" />
  <g
     inkscape:groupmode="layer"
     inkscape:label="Image"
     id="g38">
    <path
       style="fill:#000000;stroke-width:1.33333"
       d="m 55.348743,146.03631 c -1.254073,-2.04591 -1.457327,-9.56452 -0.836123,-30.92925 0.451392,-15.524456 1.304018,-28.707763 1.894724,-29.296239 0.590707,-0.588476 10.967556,-1.305345 23.059664,-1.593044 19.611965,-0.466612 22.267122,-0.268364 24.592652,1.836219 2.43577,2.204341 2.607,4.275144 2.607,31.527834 0,22.15505 -0.40074,29.29968 -1.66666,29.71394 -0.91667,0.29999 -12.090414,0.7475 -24.830547,0.99447 -22.086088,0.42816 -23.240969,0.32328 -24.82071,-2.25393 z M 7.4288721,66.772236 C 4.9659152,64.050699 4.3530163,55.558988 6.0516051,47.690209 9.3535966,32.393604 24.045137,19.50916 40.471291,17.504228 c 6.41148,-0.782567 6.891675,-1.100201 7.313355,-4.837561 0.248222,-2.2 1.019358,-4.6869446 1.713634,-5.526543 1.234538,-1.4929452 54.88407,-2.3642644 60.02852,-0.9749201 1.24688,0.3367392 2.56674,2.5820401 3.05841,5.2028451 0.68214,3.636143 1.62745,4.763752 4.47319,5.335834 18.21854,3.66249 28.45653,10.57255 35.1267,23.708538 3.39123,6.678548 3.87906,8.974875 3.54068,16.666667 L 155.33333,66 l -5.64956,0.409161 c -8.58553,0.621796 -10.01592,-0.815856 -11.89135,-11.951832 -1.84916,-10.979928 -3.3459,-12.767577 -16.08774,-19.214358 -5.06757,-2.563954 -7.59786,-3.216462 -8.59727,-2.21705 -0.81994,0.819938 -1.36254,6.73733 -1.28873,14.054224 0.0862,8.544306 -0.40365,13.057404 -1.51226,13.932778 -0.90186,0.712126 -13.703058,1.691924 -28.447094,2.177325 C 48.243554,64.296941 49.529702,64.944085 49.019942,46.666667 48.668375,34.061281 48.649584,33.998023 45.135932,33.59122 c -4.803001,-0.556079 -12.357417,3.729133 -17.104354,9.702376 -4.154949,5.228325 -4.621652,6.357065 -6.002742,14.517911 -0.928711,5.487728 -6.174655,11.521826 -10.016883,11.521826 -1.245926,0 -3.3083122,-1.152493 -4.5830809,-2.561097 z M 63.930915,34 c -0.09676,-11.366667 -0.570799,-20.66666 -1.053422,-20.666651 -0.482621,8e-6 -0.896261,9.300008 -0.9192,20.666667 -0.02294,11.366657 0.451102,20.666651 1.053422,20.666651 0.602318,0 1.015958,-9.3 0.9192,-20.666667 z m 11.363074,0.06808 C 75.183282,23.387183 74.677614,14.233172 74.170278,13.725835 c -0.507337,-0.507337 -0.83529,8.490245 -0.728785,19.994626 0.106507,11.504382 0.612176,20.658392 1.123712,20.342244 0.511536,-0.316146 0.839489,-9.313728 0.728784,-19.994625 z m 12.071596,14.033543 c -0.438368,-1.381178 -0.834488,-9.76907 -0.880267,-18.63976 -0.04577,-8.870691 -0.473702,-16.128231 -0.950942,-16.127866 -0.885848,6.78e-4 -0.945668,10.623608 -0.171296,30.419532 0.287314,7.3449 0.832944,10.373438 1.616616,8.973094 0.650608,-1.162572 0.824258,-3.243822 0.385889,-4.625 z m 11.942597,-3.76829 C 98.900557,38.65 98.439461,29.352043 98.283522,23.671205 98.127583,17.990368 97.537281,13.340368 96.971738,13.337872 96.406195,13.335339 96.283606,20.383333 96.699317,29 c 0.670648,13.900845 0.919792,17.300877 1.758649,24 0.114787,0.916667 0.519796,1.666667 0.900025,1.666667 0.38023,0 0.357816,-4.65 -0.04981,-10.333334 z"
       id="path173" />
  </g>
</svg>
