<?xml version="1.0" encoding="UTF-8" standalone="no"?>
<!-- Created with Inkscape (http://www.inkscape.org/) -->

<svg
   version="1.1"
   id="svg42"
   width="157.33333"
   height="149.33333"
   viewBox="0 0 157.33333 149.33333"
   sodipodi:docname="0005.svg"
   inkscape:version="1.1.2 (0a00cf5339, 2022-02-04)"
   xmlns:inkscape="http://www.inkscape.org/namespaces/inkscape"
   xmlns:sodipodi="http://sodipodi.sourceforge.net/DTD/sodipodi-0.dtd"
   xmlns="http://www.w3.org/2000/svg"
   xmlns:svg="http://www.w3.org/2000/svg">
  <defs
     id="defs46" />
  <sodipodi:namedview
     id="namedview44"
     pagecolor="#ffffff"
     bordercolor="#666666"
     borderopacity="1.0"
     inkscape:pageshadow="2"
     inkscape:pageopacity="0.0"
     inkscape:pagecheckerboard="0"
     showgrid="false"
     inkscape:zoom="5.8459823"
     inkscape:cx="78.686519"
     inkscape:cy="74.752193"
     inkscape:window-width="2560"
     inkscape:window-height="1299"
     inkscape:window-x="0"
     inkscape:window-y="32"
     inkscape:window-maximized="1"
     inkscape:current-layer="g48" />
  <g
     inkscape:groupmode="layer"
     inkscape:label="Image"
     id="g48">
    <path
       style="fill:#000000;stroke-width:1.33333"
       d="m 54.627468,141.95277 c -1.321814,-1.59269 -1.463689,-6.84735 -0.638998,-23.66667 0.583029,-11.89069 0.951612,-24.146913 0.819074,-27.236053 -0.426658,-9.94439 1.014712,-10.496486 27.24482,-10.435747 l 22.614296,0.05236 0.35945,29.03886 c 0.22911,18.50925 -0.15051,29.99172 -1.04691,31.66667 C 102.66277,143.83196 101.09424,144 79.44968,144 60.285265,144 56.035636,143.6495 54.627468,141.95277 Z M 44.628675,46.979582 c -0.754228,-0.538771 -4.037692,-6.492284 -7.296588,-13.230029 -4.57471,-9.458186 -6.313525,-11.928219 -7.628676,-10.83674 -0.936877,0.777538 -1.703412,3.182133 -1.703412,5.343545 0,4.313183 -6.596521,14.898698 -10.62931,17.056982 -3.415423,1.827879 -8.4825583,1.708123 -10.4373558,-0.246674 -2.5493393,-2.549339 -1.972271,-15.783379 0.8895389,-20.4 C 12.277409,17.480685 19.481321,11.244167 25.362967,9.4819825 32.420382,7.3675298 129.32723,7.0064958 134.69684,9.0746507 c 4.10797,1.5822303 11.4877,8.8990943 14.1963,14.0753723 1.09844,2.099182 2.32294,6.973092 2.7211,10.830915 0.61446,5.953558 0.29512,7.443034 -2.11183,9.849976 -4.74489,4.744892 -10.14816,3.761842 -14.82739,-2.697632 -2.20459,-3.043363 -4.0117,-6.193363 -4.01579,-7 -0.004,-0.806639 -0.64354,-3.757344 -1.421,-6.557123 -1.86726,-6.724397 -3.47991,-5.310445 -10.45735,9.1689 l -5.42364,11.25494 -33.67862,-0.02042 c -18.523241,-0.0112 -34.295717,-0.46123 -35.049945,-1 z M 17.333333,29.120339 c 0,-0.570156 -0.9,-0.691285 -2,-0.269174 -1.1,0.422109 -1.980917,2.053278 -1.957596,3.62482 0.04155,2.799256 0.0822,2.804729 2,0.269174 1.076679,-1.423494 1.957596,-3.054664 1.957596,-3.62482 z m 125.333327,3.1345 c 0,-0.593172 -0.94898,-2.243172 -2.10885,-3.666666 -1.92975,-2.368371 -2.04297,-2.380752 -1.33333,-0.145791 0.42653,1.343312 0.77552,2.993312 0.77552,3.666667 0,0.673356 0.6,1.224284 1.33333,1.224284 0.73333,0 1.33333,-0.485323 1.33333,-1.078494 z"
       id="path52" />
  </g>
</svg>
