<?xml version="1.0" encoding="UTF-8" standalone="no"?>
<!-- Created with Inkscape (http://www.inkscape.org/) -->

<svg
   version="1.1"
   id="svg2"
   width="65.333336"
   height="161.33333"
   viewBox="0 0 65.333336 161.33333"
   sodipodi:docname="0006.svg"
   inkscape:version="1.1.2 (0a00cf5339, 2022-02-04)"
   xmlns:inkscape="http://www.inkscape.org/namespaces/inkscape"
   xmlns:sodipodi="http://sodipodi.sourceforge.net/DTD/sodipodi-0.dtd"
   xmlns="http://www.w3.org/2000/svg"
   xmlns:svg="http://www.w3.org/2000/svg">
  <defs
     id="defs6" />
  <sodipodi:namedview
     id="namedview4"
     pagecolor="#ffffff"
     bordercolor="#666666"
     borderopacity="1.0"
     inkscape:pageshadow="2"
     inkscape:pageopacity="0.0"
     inkscape:pagecheckerboard="0"
     showgrid="false"
     inkscape:zoom="5.4111572"
     inkscape:cx="-17.556319"
     inkscape:cy="80.574262"
     inkscape:window-width="2560"
     inkscape:window-height="1299"
     inkscape:window-x="0"
     inkscape:window-y="32"
     inkscape:window-maximized="1"
     inkscape:current-layer="g8" />
  <g
     inkscape:groupmode="layer"
     inkscape:label="Image"
     id="g8">
    <path
       style="fill:#000000;stroke-width:1.33333"
       d="M 6.9421016,151.62652 C 4.0779247,148.57774 4.0648895,148.37453 6.1063478,138.59805 8.7727822,125.82857 10.80319,114.54045 10.890572,112 c 0.08133,-2.36463 5.975066,-38.019138 7.714055,-46.666668 4.020686,-19.993797 8.062041,-45.227998 8.062041,-50.33935 0,-5.4929846 3.983429,-10.2687922 7.606037,-9.1190209 3.847237,1.2210653 5.115489,5.4916369 7.560495,25.4583719 1.167395,9.533333 2.759758,20.633333 3.538583,24.666666 0.778827,4.033333 1.981574,10.633333 2.672772,14.666666 0.691199,4.033333 1.876327,10.033333 2.633619,13.333333 0.757291,3.3 1.962017,9.6 2.67717,14 C 54.070496,102.4 55.288737,109 56.062548,112.66666 c 0.773809,3.66667 1.551728,9.66667 1.728706,13.33334 0.17698,3.66666 1.173026,10.44877 2.213438,15.07134 2.960093,13.15179 3.515723,12.86283 -25.556116,13.29046 -24.234553,0.35646 -24.6397813,0.31617 -27.5064744,-2.73528 z M 29.815575,127.92039 c 1.407422,-6.89973 2.244884,-8.58706 4.261972,-8.58706 3.166267,0 5.877239,5.2411 5.902799,11.41183 0.0108,2.60984 0.801224,5.81401 1.756473,7.1204 1.508875,2.0635 1.949279,2.11924 3.355674,0.42464 1.179637,-1.42138 1.279385,-3.715 0.367646,-8.45374 -0.688167,-3.57672 -1.87984,-11.00313 -2.648164,-16.50313 -0.768324,-5.5 -2.113047,-15.099999 -2.988275,-21.333332 -0.875226,-6.233333 -2.093606,-11.903333 -2.707509,-12.6 -0.613904,-0.696666 -1.135272,-3.096666 -1.158594,-5.333333 -0.02332,-2.236666 -0.860608,-5.145576 -1.860633,-6.464242 -1.642551,-2.165923 -1.885617,-1.843858 -2.515699,3.333333 -0.383609,3.152 -1.384602,10.830909 -2.22443,17.064242 C 28.517006,94.233331 27.32317,103.23333 26.703866,108 c -0.619305,4.76666 -2.16323,13.38045 -3.430948,19.14174 -1.949188,8.85832 -2.019506,10.65155 -0.455594,11.61844 2.9492,1.82338 5.092322,-1.49617 6.998251,-10.83979 z"
       id="path1060" />
  </g>
</svg>
