<?xml version="1.0" encoding="UTF-8" standalone="no"?>
<!-- Created with Inkscape (http://www.inkscape.org/) -->

<svg
   version="1.1"
   id="svg12"
   width="161.33333"
   height="154.66667"
   viewBox="0 0 161.33333 154.66667"
   sodipodi:docname="0007.svg"
   inkscape:version="1.1.2 (0a00cf5339, 2022-02-04)"
   xmlns:inkscape="http://www.inkscape.org/namespaces/inkscape"
   xmlns:sodipodi="http://sodipodi.sourceforge.net/DTD/sodipodi-0.dtd"
   xmlns="http://www.w3.org/2000/svg"
   xmlns:svg="http://www.w3.org/2000/svg">
  <defs
     id="defs16" />
  <sodipodi:namedview
     id="namedview14"
     pagecolor="#ffffff"
     bordercolor="#666666"
     borderopacity="1.0"
     inkscape:pageshadow="2"
     inkscape:pageopacity="0.0"
     inkscape:pagecheckerboard="0"
     showgrid="false"
     inkscape:zoom="5.6443964"
     inkscape:cx="32.598703"
     inkscape:cy="77.244752"
     inkscape:window-width="2560"
     inkscape:window-height="1299"
     inkscape:window-x="0"
     inkscape:window-y="32"
     inkscape:window-maximized="1"
     inkscape:current-layer="g18" />
  <g
     inkscape:groupmode="layer"
     inkscape:label="Image"
     id="g18">
    <path
       style="fill:#000000;stroke-width:1.33333"
       d="m 141.09904,145.8879 c -4.65362,-2.43828 -7.0412,-9.08859 -4.26108,-11.86871 1.11054,-1.11055 3.09312,-2.01919 4.40572,-2.01919 1.82666,0 2.23704,-0.78197 1.74932,-3.33333 -0.57267,-2.99575 -1.27571,-3.33333 -6.94179,-3.33333 -4.52993,0 -6.95858,0.72266 -8.62797,2.56731 -2.46788,2.72698 -10.59134,6.93386 -24.75658,12.82063 -7.850189,3.26238 -10.425218,3.62724 -27.333328,3.87299 -17.881719,0.25989 -19.262578,0.0823 -32.837925,-4.22421 -12.620556,-4.00359 -15.319729,-5.44667 -24.666666,-13.18771 -12.1606647,-10.07133 -14.2574704,-13.263 -10.5123602,-16.0015 2.2070627,-1.61384 14.9533452,-2.83484 18.6836182,-1.78975 1.367179,0.38303 56.662443,1.09018 94.539781,1.20903 l 21.20644,0.0665 5.13022,5.39297 c 8.04669,8.45884 10.83816,14.90616 9.15698,21.14955 -1.50424,5.58632 -3.00318,7.29152 -8.11949,9.23673 -2.36152,0.89786 -4.34645,0.73531 -6.81489,-0.55802 z m 3.74744,-44.65134 c -1.93223,-1.51989 -3.51315,-3.339162 -3.51315,-4.042823 0,-0.703662 -0.89192,-3.414044 -1.98204,-6.023072 l -1.98204,-4.743688 -4.83249,2.986644 c -4.52377,2.795841 -5.05945,2.852578 -8.38502,0.888114 -3.29193,-1.944592 -3.79457,-1.912544 -6.85213,0.436888 -4.29138,3.297491 -6.44808,3.23322 -10.21368,-0.304373 L 104,87.535165 100.91406,90.43425 c -3.822006,3.590591 -4.09069,3.587664 -9.077017,-0.09889 -3.816189,-2.821432 -4.155358,-2.86069 -5.759666,-0.666667 -2.275901,3.112481 -8.118104,2.957247 -11.377669,-0.302319 -2.622611,-2.62261 -2.647899,-2.620396 -6.046801,0.529602 -3.576602,3.314682 -7.333994,3.299786 -10.105823,-0.04007 -2.001165,-2.411248 -4.471457,-2.356883 -6.547085,0.144096 -0.912919,1.1 -3.322192,2 -5.353941,2 -2.053647,0 -4.034902,-0.888144 -4.46156,-2 -0.422111,-1.1 -1.612836,-2 -2.646059,-2 -1.033224,0 -2.625521,0.9 -3.53844,2 -1.873665,2.257629 -7.416896,2.688837 -8.662236,0.673836 -0.450786,-0.729389 -1.921498,-1.915875 -3.268249,-2.636632 -2.102446,-1.125196 -2.971052,-0.277931 -6.143766,5.992829 -3.152792,6.231385 -4.243335,7.303305 -7.430196,7.303305 -6.269582,0 -7.1380922,-3.880518 -3.0517574,-13.635291 1.9272165,-4.600593 4.2731434,-9.864714 5.2131704,-11.698047 0.940027,-1.833334 2.363903,-4.983334 3.164168,-7.000001 2.132376,-5.373576 8.767972,-5.192521 11.907546,0.324903 2.525332,4.437967 4.457459,4.997284 6.937987,2.008431 2.446737,-2.948138 6.129165,-2.437268 9.031945,1.253019 l 2.558824,3.25302 4.792908,-3.410204 4.792907,-3.410203 4.618971,2.854681 c 3.845639,2.376735 4.919123,2.557987 6.411708,1.082579 3.669068,-3.626839 6.505815,-3.697692 9.954865,-0.248641 l 3.347382,3.347381 3.425056,-2.694149 c 4.431101,-3.485506 5.515634,-3.400446 9.873177,0.774344 l 3.620326,3.468494 2.272646,-3.468494 c 2.715559,-4.144468 6.477779,-4.458419 9.608659,-0.801827 2.84448,3.322113 3.76749,3.324152 7.97107,0.01761 3.22578,-2.537397 3.53135,-2.552408 7.24935,-0.35613 3.85644,2.278058 3.90773,2.264978 7.91015,-2.017611 4.37112,-4.67708 6.27993,-5.212654 9.42293,-2.64387 2.77747,2.270031 7.95128,11.447814 9.20764,16.333334 0.56575,2.2 1.77292,5.844187 2.68262,8.098192 2.10809,5.223358 0.71754,11.23514 -2.59872,11.23514 -1.3538,0 -4.04238,-1.24355 -5.9746,-2.76344 z M 44.052566,51.590558 C 37.747882,50.384786 35.744223,49.15769 29.106947,42.437453 21.555354,34.791467 21.335162,34.679259 14.2052,34.84363 4.7771646,35.060981 3.5378059,34.201234 4.5933364,28.175851 5.4877687,23.070082 5.5355151,21.249218 4.9992036,12.697641 4.5766174,5.9594319 7.941253,4.8340594 13.263793,9.933377 l 3.6668,3.513018 3.602559,-4.7231976 c 4.250818,-5.5731111 10.39957,-6.5421127 12.819582,-2.0202793 1.21426,2.2688652 0.786577,3.3628989 -2.663248,6.8127249 -5.157203,5.157201 -4.63876,6.920663 4.604705,15.662748 8.223783,7.777711 10.166236,8.139626 25.372973,4.727459 5.133059,-1.151781 12.032834,-2.688431 15.332834,-3.414775 6.526408,-1.436489 21.892617,-0.518682 29.333332,1.75205 4.17784,1.274977 8.23724,2.78819 20.32664,7.577124 2.65226,1.050632 6.6175,1.031561 14.40167,-0.06927 9.4948,-1.34274 10.99666,-1.264113 12.93812,0.677348 1.71837,1.718374 1.9144,2.99903 0.90065,5.884044 -1.07267,3.052736 -2.32343,3.842775 -7.26476,4.588792 -10.15241,1.532767 -25.42826,1.177528 -37.96899,-0.882961 -16.433481,-2.700085 -29.133464,-2.507067 -42.666661,0.648463 -12.564853,2.929741 -11.658771,2.891598 -21.947433,0.92389 z"
       id="path939" />
  </g>
</svg>
