<?xml version="1.0" encoding="UTF-8" standalone="no"?>
<!-- Created with Inkscape (http://www.inkscape.org/) -->

<svg
   version="1.1"
   id="svg22"
   width="53.333332"
   height="161.33333"
   viewBox="0 0 53.333332 161.33333"
   sodipodi:docname="0008.svg"
   inkscape:version="1.1.2 (0a00cf5339, 2022-02-04)"
   xmlns:inkscape="http://www.inkscape.org/namespaces/inkscape"
   xmlns:sodipodi="http://sodipodi.sourceforge.net/DTD/sodipodi-0.dtd"
   xmlns="http://www.w3.org/2000/svg"
   xmlns:svg="http://www.w3.org/2000/svg">
  <defs
     id="defs26" />
  <sodipodi:namedview
     id="namedview24"
     pagecolor="#ffffff"
     bordercolor="#666666"
     borderopacity="1.0"
     inkscape:pageshadow="2"
     inkscape:pageopacity="0.0"
     inkscape:pagecheckerboard="0"
     showgrid="false"
     inkscape:zoom="5.4111572"
     inkscape:cx="-23.470026"
     inkscape:cy="80.574262"
     inkscape:window-width="2560"
     inkscape:window-height="1299"
     inkscape:window-x="0"
     inkscape:window-y="32"
     inkscape:window-maximized="1"
     inkscape:current-layer="g28" />
  <g
     inkscape:groupmode="layer"
     inkscape:label="Image"
     id="g28">
    <path
       style="fill:#000000;stroke-width:1.33333"
       d="M 8.2666665,154.4 C 7.0670678,153.2004 6.6668348,136.93409 6.6673388,89.399998 6.6679837,28.587413 6.7804001,25.700719 9.4219051,18.666666 13.255317,8.4586898 15.876493,6.7325209 27.598811,6.6963143 36.882836,6.6676388 37.304863,6.8087752 40.467711,11 c 7.287692,9.657232 7.550878,11.559613 7.365846,53.242147 -0.14066,31.686628 -0.515088,38.915573 -2.097629,40.498113 -2.374884,2.37488 -4.524474,2.43956 -7.550117,0.22715 -2.113072,-1.54511 -2.328875,-5.143229 -2.379067,-39.666665 -0.0625,-42.990627 -0.664714,-46.634079 -7.707971,-46.634079 -7.653331,0 -8.677587,3.685324 -9.432107,33.937209 C 18.3,67.305076 18.44525,86.533332 18.989448,95.333331 c 0.544196,8.799999 1.266126,25.443909 1.60429,36.986469 0.572879,19.55413 0.44308,21.0784 -1.901793,22.33333 -3.404639,1.82211 -8.473101,1.69904 -10.4252785,-0.25313 z"
       id="path818" />
  </g>
</svg>
