<?xml version="1.0" encoding="UTF-8" standalone="no"?>
<!-- Created with Inkscape (http://www.inkscape.org/) -->

<svg
   version="1.1"
   id="svg32"
   width="81.333336"
   height="162.66667"
   viewBox="0 0 81.333336 162.66667"
   sodipodi:docname="0009.svg"
   inkscape:version="1.1.2 (0a00cf5339, 2022-02-04)"
   xmlns:inkscape="http://www.inkscape.org/namespaces/inkscape"
   xmlns:sodipodi="http://sodipodi.sourceforge.net/DTD/sodipodi-0.dtd"
   xmlns="http://www.w3.org/2000/svg"
   xmlns:svg="http://www.w3.org/2000/svg">
  <defs
     id="defs36" />
  <sodipodi:namedview
     id="namedview34"
     pagecolor="#ffffff"
     bordercolor="#666666"
     borderopacity="1.0"
     inkscape:pageshadow="2"
     inkscape:pageopacity="0.0"
     inkscape:pagecheckerboard="0"
     showgrid="false"
     inkscape:zoom="5.3668031"
     inkscape:cx="-9.8755253"
     inkscape:cy="81.240171"
     inkscape:window-width="2560"
     inkscape:window-height="1299"
     inkscape:window-x="0"
     inkscape:window-y="32"
     inkscape:window-maximized="1"
     inkscape:current-layer="g38" />
  <g
     inkscape:groupmode="layer"
     inkscape:label="Image"
     id="g38">
    <path
       style="fill:#000000;stroke-width:1.33333"
       d="m 59.254842,155.4402 c -2.480751,-1.81456 -2.596793,-4.09733 -2.795849,-55 C 56.344771,71.231425 55.722435,45.244389 55.076023,42.691233 54.158122,39.065766 53.181588,38.002207 50.617032,37.834869 48.810999,37.717023 38.333335,37.272323 27.333334,36.846646 16.333334,36.420969 7.211536,36.056331 7.0626722,36.036343 6.9138084,36.016355 6.1671546,33.750001 5.4034414,31.000001 3.5347792,24.271268 3.6353601,16.382739 5.6053393,15.165224 6.4882758,14.61954 14.321324,14.043232 23.012114,13.884543 c 8.69079,-0.158691 17.418387,-0.883412 19.394662,-1.61049 1.976273,-0.727079 7.193226,-2.085219 11.593226,-3.0180896 4.4,-0.9328703 8.967116,-2.1738427 10.149147,-2.7577166 1.293364,-0.6388681 3.143016,-0.3348532 4.645076,0.7634804 2.341829,1.7123866 2.511849,4.5287248 2.753755,45.6150058 0.141802,24.084465 0.612737,56.258417 1.04652,71.497677 0.522445,18.35407 0.314332,28.5941 -0.616479,30.33333 -1.692353,3.1622 -8.838934,3.57361 -12.723179,0.73246 z"
       id="path697" />
  </g>
</svg>
