<?xml version="1.0" encoding="UTF-8" standalone="no"?>
<!-- Created with Inkscape (http://www.inkscape.org/) -->

<svg
   version="1.1"
   id="svg42"
   width="154.66667"
   height="150.66667"
   viewBox="0 0 154.66667 150.66667"
   sodipodi:docname="0010.svg"
   inkscape:version="1.1.2 (0a00cf5339, 2022-02-04)"
   xmlns:inkscape="http://www.inkscape.org/namespaces/inkscape"
   xmlns:sodipodi="http://sodipodi.sourceforge.net/DTD/sodipodi-0.dtd"
   xmlns="http://www.w3.org/2000/svg"
   xmlns:svg="http://www.w3.org/2000/svg">
  <defs
     id="defs46" />
  <sodipodi:namedview
     id="namedview44"
     pagecolor="#ffffff"
     bordercolor="#666666"
     borderopacity="1.0"
     inkscape:pageshadow="2"
     inkscape:pageopacity="0.0"
     inkscape:pagecheckerboard="0"
     showgrid="false"
     inkscape:zoom="5.7942476"
     inkscape:cx="30.547538"
     inkscape:cy="75.247043"
     inkscape:window-width="2560"
     inkscape:window-height="1299"
     inkscape:window-x="0"
     inkscape:window-y="32"
     inkscape:window-maximized="1"
     inkscape:current-layer="g48" />
  <g
     inkscape:groupmode="layer"
     inkscape:label="Image"
     id="g48">
    <path
       style="fill:#000000;stroke-width:1.33333"
       d="m 61.445037,143.49896 c -4.700994,-1.56692 -9.449568,-8.34676 -9.440052,-13.47815 0.0084,-4.55239 5.146202,-11.4141 10.09445,-13.48162 5.534608,-2.3125 12.437672,-1.40702 17.073547,2.23956 3.671385,2.88791 6.461211,12.27819 4.870257,16.39281 -2.900251,7.50082 -13.433313,11.38223 -22.598202,8.3274 z M 49.333334,91.999899 C 32.861606,90.311986 23.092728,88.088394 13.654854,83.878763 4.2763845,79.695631 2.5203187,77.178339 6.1684779,73.14717 9.6128323,69.3412 14.282231,67.117713 22.051158,65.584109 25.689687,64.865856 33.766667,63.251155 40.000001,61.995885 49.321352,60.118749 55.475651,59.863447 74.666668,60.557788 105.24571,61.664153 113.0461,62.669304 138,68.71886 c 10.76732,2.610315 12.66667,3.802074 12.66667,7.947808 0,3.878547 -1.84199,5.213999 -10,7.250078 -3.66667,0.915127 -7.86667,2.160391 -9.33333,2.767253 -1.46667,0.606864 -5.06667,1.503584 -8,1.992714 C 120.4,89.165842 115.3,90.106377 112,90.766791 c -8.85029,1.77117 -49.592475,2.572864 -62.666666,1.233108 z M 104.26771,79.830286 c 3.88609,-0.826678 7.48069,-2.15556 7.98799,-2.953072 1.00509,-1.580068 -6.48989,-5.328423 -8.84645,-4.424247 -0.77509,0.297389 -7.109248,0.08163 -14.075915,-0.479464 -12.47934,-1.005084 -38.997553,0.176212 -53.333334,2.375819 l -7.333334,1.125188 5.333334,1.441125 c 15.577525,4.209221 56.251222,5.896335 70.267709,2.914651 z M 13.016943,45.912912 C 11.009595,44.823734 8.9934535,42.443386 8.5366281,40.623249 7.5262986,36.597775 11.037404,30.666667 14.430738,30.666667 c 1.303094,0 3.033308,-0.664045 3.844917,-1.475654 1.078652,-1.078652 3.438161,-0.741388 8.770251,1.253601 6.949413,2.600109 9.463259,2.702987 53.124345,2.174077 25.206359,-0.305349 47.452559,-0.91117 49.435979,-1.346268 6.02837,-1.322428 6.45837,-9.223768 0.58004,-10.658355 -4.8106,-1.174008 -27.99696,-1.32386 -60.852935,-0.393288 -26.620913,0.753978 -32.536506,1.300502 -39.333334,3.633883 -10.46817,3.59377 -13.949545,3.502224 -18.243906,-0.479732 C 6.9490547,18.917591 5.9815581,15.244202 8.5729627,11.289219 11.600482,6.66864 15.74936,6.077362 31.504538,8.0211222 47.369062,9.9783725 100.21989,9.0846899 108,6.72762 111.59013,5.6399511 114.97354,5.8174807 122.66667,7.4971902 139.93514,11.267567 144,14.546239 144,24.704389 c 0,8.253104 -3.47057,12.874266 -11.50305,15.316645 -3.20755,0.975298 -22.58914,1.948292 -51.163615,2.568516 -37.805278,0.820584 -47.03936,1.391444 -51.834304,3.204452 -7.11786,2.691323 -11.680477,2.72424 -16.482088,0.118907 z"
       id="path576" />
  </g>
</svg>
