<?xml version="1.0" encoding="UTF-8" standalone="no"?>
<!-- Created with Inkscape (http://www.inkscape.org/) -->

<svg
   version="1.1"
   id="svg52"
   width="157.33333"
   height="153.33333"
   viewBox="0 0 157.33333 153.33333"
   sodipodi:docname="0011.svg"
   inkscape:version="1.1.2 (0a00cf5339, 2022-02-04)"
   xmlns:inkscape="http://www.inkscape.org/namespaces/inkscape"
   xmlns:sodipodi="http://sodipodi.sourceforge.net/DTD/sodipodi-0.dtd"
   xmlns="http://www.w3.org/2000/svg"
   xmlns:svg="http://www.w3.org/2000/svg">
  <defs
     id="defs56" />
  <sodipodi:namedview
     id="namedview54"
     pagecolor="#ffffff"
     bordercolor="#666666"
     borderopacity="1.0"
     inkscape:pageshadow="2"
     inkscape:pageopacity="0.0"
     inkscape:pagecheckerboard="0"
     showgrid="false"
     inkscape:zoom="5.6934784"
     inkscape:cx="30.912561"
     inkscape:cy="76.578844"
     inkscape:window-width="2560"
     inkscape:window-height="1299"
     inkscape:window-x="0"
     inkscape:window-y="32"
     inkscape:window-maximized="1"
     inkscape:current-layer="g58" />
  <g
     inkscape:groupmode="layer"
     inkscape:label="Image"
     id="g58">
    <path
       style="fill:#000000;stroke-width:1.33333"
       d="m 54.627468,145.95277 c -1.321814,-1.59269 -1.463689,-6.84735 -0.638998,-23.66667 0.583029,-11.89069 0.951612,-24.146913 0.819074,-27.236053 -0.426658,-9.94439 1.014712,-10.496486 27.24482,-10.435748 l 22.614296,0.05237 0.35945,29.038861 c 0.22911,18.50925 -0.15051,29.99172 -1.04691,31.66667 C 102.66277,147.83196 101.09424,148 79.44968,148 60.285265,148 56.035636,147.6495 54.627468,145.95277 Z M 32.666666,40.898562 C 22.856278,37.059685 22.306598,36.360005 22.95533,28.537141 c 0.328568,-3.962095 0.368238,-7.203808 0.08815,-7.203808 -2.657943,0 -8.515372,4.754469 -9.195394,7.46389 C 12.9761,32.271495 8.6881409,34.831729 5.6666625,33.682146 2.3088284,32.404589 3.8207287,23.563939 8.614376,16.445782 15.032017,6.9161332 21.093069,4.6785282 37.700081,5.7079889 c 7.294845,0.452204 15.012713,1.8173711 18.966584,3.3548846 3.666667,1.4258305 9.525278,3.2699775 13.019135,4.0981055 8.236697,1.952294 36.91655,1.927858 59.29055,-0.05052 23.85242,-2.109102 24.35698,-1.868491 24.35698,11.615275 0,16.236791 3.94297,14.900486 -44.28412,15.008218 -25.418769,0.05679 -43.535562,0.647845 -46.373742,1.512949 -6.105433,1.860995 -24.920918,1.642584 -30.008802,-0.348342 z"
       id="path455" />
  </g>
</svg>
