<?xml version="1.0" encoding="UTF-8" standalone="no"?>
<!-- Created with Inkscape (http://www.inkscape.org/) -->

<svg
   version="1.1"
   id="svg62"
   width="109.33333"
   height="161.33333"
   viewBox="0 0 109.33333 161.33333"
   sodipodi:docname="0012.svg"
   inkscape:version="1.1.2 (0a00cf5339, 2022-02-04)"
   xmlns:inkscape="http://www.inkscape.org/namespaces/inkscape"
   xmlns:sodipodi="http://sodipodi.sourceforge.net/DTD/sodipodi-0.dtd"
   xmlns="http://www.w3.org/2000/svg"
   xmlns:svg="http://www.w3.org/2000/svg">
  <defs
     id="defs66" />
  <sodipodi:namedview
     id="namedview64"
     pagecolor="#ffffff"
     bordercolor="#666666"
     borderopacity="1.0"
     inkscape:pageshadow="2"
     inkscape:pageopacity="0.0"
     inkscape:pagecheckerboard="0"
     showgrid="false"
     inkscape:zoom="5.4111572"
     inkscape:cx="4.4352805"
     inkscape:cy="80.574262"
     inkscape:window-width="2560"
     inkscape:window-height="1299"
     inkscape:window-x="0"
     inkscape:window-y="32"
     inkscape:window-maximized="1"
     inkscape:current-layer="g68" />
  <g
     inkscape:groupmode="layer"
     inkscape:label="Image"
     id="g68">
    <path
       style="fill:#000000;stroke-width:1.33333"
       d="m 5.4654886,154.26549 c -2.4919164,-2.49192 -1.7147904,-7.34 1.3315548,-8.30688 1.5383739,-0.48825 8.0797046,-0.46963 14.5362896,0.0414 14.609087,1.15626 16.745375,0.50433 18.777503,-5.73038 0.884911,-2.71496 2.051368,-5.23629 2.592127,-5.60296 1.123889,-0.76206 5.295085,-12.60207 5.300868,-15.04659 C 48.005939,118.72903 46.577115,114.4 44.828667,110 43.080219,105.6 40.376467,96.678517 38.820331,90.174483 37.264194,83.67045 34.943018,77.006168 33.662162,75.364965 32.381306,73.723764 28.831899,69.302808 25.774591,65.540619 20.932329,59.581943 20.093823,57.56082 19.269126,49.859908 18.520453,42.868899 18.792814,40.033081 20.571074,36.304029 24.474318,28.118842 20.402342,22.575229 9.1287347,20.726356 4.7409296,20.006754 2.6666666,18.02766 2.6666666,14.56077 c 0,-2.411522 14.1252524,-8.0318872 22.1039834,-8.7950612 11.203278,-1.0716052 16.507223,1.5464873 20.347523,10.0437852 1.585004,3.507086 2.881826,8.042043 2.881826,10.077684 0,4.753424 3.766543,10.28962 13.23017,19.446154 6.950842,6.725292 19.422982,21.167652 28.388883,32.873466 1.99048,2.598758 6.04048,7.35195 9,10.562649 4.536018,4.921004 5.380728,6.7321 5.379588,11.534093 -10e-4,5.41294 -0.31886,5.87478 -6.380644,9.27926 -3.508611,1.97054 -9.508,3.99784 -13.331979,4.50511 -7.306395,0.96922 -8.275117,2.28308 -5.502755,7.46328 1.187104,2.21813 0.544248,4.49356 -3.54643,12.55283 l -4.996359,9.84362 3.546429,2.78961 c 1.950536,1.53429 3.546429,3.97691 3.546429,5.42804 0,2.28124 -0.947621,2.65196 -7,2.73856 -55.111587,0.78853 -63.5237291,0.70575 -64.8678424,-0.63836 z M 57.194017,144.7387 c 2.533907,-1.31033 4.86194,-4.542 7.267121,-10.08788 4.277541,-9.86318 4.26702,-9.56407 0.53886,-15.31968 -3.755839,-5.79835 -6.333333,-6.00879 -6.333333,-0.51711 0,2.28106 -2.176017,8.55025 -4.835593,13.93153 -6.243988,12.63385 -5.184271,16.41308 3.362945,11.99314 z"
       id="path334" />
  </g>
</svg>
