<?xml version="1.0" encoding="UTF-8" standalone="no"?>
<!-- Created with Inkscape (http://www.inkscape.org/) -->

<svg
   version="1.1"
   id="svg72"
   width="44"
   height="156"
   viewBox="0 0 44 156"
   sodipodi:docname="0013.svg"
   inkscape:version="1.1.2 (0a00cf5339, 2022-02-04)"
   xmlns:inkscape="http://www.inkscape.org/namespaces/inkscape"
   xmlns:sodipodi="http://sodipodi.sourceforge.net/DTD/sodipodi-0.dtd"
   xmlns="http://www.w3.org/2000/svg"
   xmlns:svg="http://www.w3.org/2000/svg">
  <defs
     id="defs76" />
  <sodipodi:namedview
     id="namedview74"
     pagecolor="#ffffff"
     bordercolor="#666666"
     borderopacity="1.0"
     inkscape:pageshadow="2"
     inkscape:pageopacity="0.0"
     inkscape:pagecheckerboard="0"
     showgrid="false"
     inkscape:zoom="5.5961538"
     inkscape:cx="-26.446735"
     inkscape:cy="77.910653"
     inkscape:window-width="2560"
     inkscape:window-height="1299"
     inkscape:window-x="0"
     inkscape:window-y="32"
     inkscape:window-maximized="1"
     inkscape:current-layer="g78" />
  <g
     inkscape:groupmode="layer"
     inkscape:label="Image"
     id="g78">
    <path
       style="fill:#000000;stroke-width:1.33333"
       d="m 28.766145,150.80681 c -3.735364,-1.46344 -4.369128,-4.60064 -2.98903,-14.79602 1.861557,-13.75216 0.208852,-23.66458 -4.712039,-28.26138 C 18.857509,105.68723 15.681243,104 14.006705,104 9.4668751,104 5.2789595,99.925592 5.0985953,95.333333 5.0121888,93.133333 5.3222193,87.133333 5.7875521,82 6.6632285,72.339947 9.1532587,28.557733 9.6928381,13.333333 L 10,4.6666667 14.683837,4.2716948 c 3.75813,-0.3169101 5.536879,0.439034 9,3.8248767 C 26.057727,10.417488 28,13.052233 28,13.95156 c 0,0.899327 1.13874,2.665685 2.530535,3.925243 3.637324,3.291732 4.063938,7.521988 5.391004,53.45653 0.656774,22.733334 1.639962,49.370557 2.184864,59.193837 0.915313,16.50095 0.802704,17.99799 -1.479344,19.66667 -2.731599,1.99739 -4.062343,2.10116 -7.860914,0.61297 z"
       id="path213" />
  </g>
</svg>
