<?xml version="1.0" encoding="UTF-8" standalone="no"?>
<!-- Created with Inkscape (http://www.inkscape.org/) -->

<svg
   version="1.1"
   id="svg82"
   width="118.66667"
   height="153.33333"
   viewBox="0 0 118.66667 153.33333"
   sodipodi:docname="0014.svg"
   inkscape:version="1.1.2 (0a00cf5339, 2022-02-04)"
   xmlns:inkscape="http://www.inkscape.org/namespaces/inkscape"
   xmlns:sodipodi="http://sodipodi.sourceforge.net/DTD/sodipodi-0.dtd"
   xmlns="http://www.w3.org/2000/svg"
   xmlns:svg="http://www.w3.org/2000/svg">
  <defs
     id="defs86" />
  <sodipodi:namedview
     id="namedview84"
     pagecolor="#ffffff"
     bordercolor="#666666"
     borderopacity="1.0"
     inkscape:pageshadow="2"
     inkscape:pageopacity="0.0"
     inkscape:pagecheckerboard="0"
     showgrid="false"
     inkscape:zoom="5.6934784"
     inkscape:cx="59.366168"
     inkscape:cy="76.578844"
     inkscape:window-width="2560"
     inkscape:window-height="1299"
     inkscape:window-x="0"
     inkscape:window-y="32"
     inkscape:window-maximized="1"
     inkscape:current-layer="g88" />
  <g
     inkscape:groupmode="layer"
     inkscape:label="Image"
     id="g88">
    <path
       style="fill:#000000;stroke-width:1.33333"
       d="m 90.281812,144.58326 c -6.728751,-4.93624 -7.672963,-6.53644 -10.1785,-17.24993 -0.857514,-3.66667 -2.273767,-8.30704 -3.147229,-10.31195 -2.095577,-4.81009 -4.956081,-5.8795 -4.956081,-1.85285 0,3.02139 -3.655595,7.49813 -6.122787,7.49813 -2.207979,0 -4.657733,13.18722 -2.955964,15.91218 0.824783,1.32069 1.111703,3.4121 0.6376,4.6476 -0.749511,1.9532 -2.908524,2.2096 -16.54376,1.96476 -8.624967,-0.15487 -19.439205,0.20001 -24.031641,0.78861 -7.130842,0.91396 -8.736788,0.72005 -11,-1.32812 -1.457564,-1.31908 -2.6501164,-3.38533 -2.6501164,-4.59168 0,-4.18801 3.0028954,-5.39335 13.4367404,-5.39335 13.155534,0 13.928946,-0.85234 13.798547,-15.20685 -0.07269,-8.00218 -1.007896,-13.4339 -3.616597,-21.005397 -3.15764,-9.164742 -8.085793,-26.131251 -9.910931,-34.121081 -0.376914,-1.65 -1.227455,-3 -1.890091,-3 -2.003291,0 -13.3996446,-18.625669 -15.3388161,-25.069046 C 4.8154837,32.952497 4.0000001,25.904679 4.0000001,20.60247 c 0,-13.4743791 1.5667842,-15.1252551 14.7905069,-15.584338 6.869099,-0.2384718 10.805783,0.2132774 12.245014,1.4051615 1.166645,0.9661449 3.017517,5.6862175 4.113048,10.4890485 1.578476,6.920069 2.911245,9.519031 6.421654,12.52252 2.436378,2.084552 4.858941,3.81448 5.383474,3.844283 0.524532,0.0298 3.603806,1.734838 6.842829,3.788965 9.807617,6.219806 23.656744,23.677265 32.753072,41.286746 9.446279,18.286949 14.627282,29.487694 16.253492,35.138224 0.92444,3.21214 2.70989,7.34575 3.96767,9.18581 1.25777,1.84005 2.97696,6.04005 3.82042,9.33333 0.84346,3.29328 2.19462,7.67722 3.00259,9.7421 1.19285,3.04849 1.06505,4.15829 -0.67978,5.90312 -1.70532,1.70532 -2.80349,1.85052 -5.32085,0.70353 -1.92155,-0.87551 -3.91208,-0.97677 -5.04925,-0.25687 -3.205655,2.02938 -5.655105,1.32607 -12.262078,-3.52084 z M 51.828824,134.20625 c 4.698958,-5.66189 1.890039,-15.73464 -3.018893,-10.82571 -3.023562,3.02357 -4.077403,8.28896 -2.128894,10.63678 2.035227,2.45229 3.232887,2.49625 5.147787,0.18893 z"
       id="path92" />
  </g>
</svg>
