<?xml version="1.0" encoding="UTF-8" standalone="no"?>
<!-- Created with Inkscape (http://www.inkscape.org/) -->

<svg
   version="1.1"
   id="svg2"
   width="161.33333"
   height="158.66667"
   viewBox="0 0 161.33333 158.66667"
   sodipodi:docname="0015.svg"
   inkscape:version="1.1.2 (0a00cf5339, 2022-02-04)"
   xmlns:inkscape="http://www.inkscape.org/namespaces/inkscape"
   xmlns:sodipodi="http://sodipodi.sourceforge.net/DTD/sodipodi-0.dtd"
   xmlns="http://www.w3.org/2000/svg"
   xmlns:svg="http://www.w3.org/2000/svg">
  <defs
     id="defs6" />
  <sodipodi:namedview
     id="namedview4"
     pagecolor="#ffffff"
     bordercolor="#666666"
     borderopacity="1.0"
     inkscape:pageshadow="2"
     inkscape:pageopacity="0.0"
     inkscape:pagecheckerboard="0"
     showgrid="false"
     inkscape:zoom="5.5021007"
     inkscape:cx="31.260788"
     inkscape:cy="79.242461"
     inkscape:window-width="2560"
     inkscape:window-height="1299"
     inkscape:window-x="0"
     inkscape:window-y="32"
     inkscape:window-maximized="1"
     inkscape:current-layer="g8" />
  <g
     inkscape:groupmode="layer"
     inkscape:label="Image"
     id="g8">
    <path
       style="fill:#000000;stroke-width:1.33333"
       d="m 33.999999,148.89856 c -9.810387,-3.83888 -10.360067,-4.53856 -9.711336,-12.36141 0.328568,-3.9621 0.368238,-7.20381 0.08815,-7.20381 -2.657943,0 -8.515372,4.75446 -9.195393,7.46389 -0.871987,3.47427 -5.159946,6.03451 -8.1814241,4.88492 -3.3578382,-1.27756 -1.8459379,-10.11821 2.9477094,-17.23636 6.4176407,-9.52965 12.4786927,-11.76726 29.0857047,-10.7378 7.294845,0.45221 15.012713,1.81737 18.966585,3.35489 3.666666,1.42583 9.525277,3.26997 13.019134,4.0981 8.236697,1.9523 36.916551,1.92786 59.290561,-0.0505 23.85241,-2.1091 24.35697,-1.86849 24.35697,11.61528 0,16.2368 3.94298,14.90049 -44.28411,15.00822 -25.41878,0.0568 -43.535573,0.64784 -46.373753,1.51295 -6.105433,1.86099 -24.920918,1.64259 -30.008802,-0.34835 z M 55.960802,68.619437 C 54.638987,67.026749 54.497112,61.772092 55.321803,44.95277 55.904832,33.062081 56.273415,20.805856 56.140878,17.716716 55.714219,7.7723258 57.155589,7.2202291 83.385697,7.2809678 L 106,7.3333335 106.35944,36.372199 c 0.22911,18.509253 -0.1505,29.991718 -1.04691,31.666668 -1.31643,2.459766 -2.88496,2.627801 -24.529517,2.627801 -19.164414,0 -23.414044,-0.350492 -24.822211,-2.047231 z"
       id="path2501" />
  </g>
</svg>
