<?xml version="1.0" encoding="UTF-8" standalone="no"?>
<!-- Created with Inkscape (http://www.inkscape.org/) -->

<svg
   version="1.1"
   id="svg12"
   width="158.66667"
   height="158.66667"
   viewBox="0 0 158.66667 158.66667"
   sodipodi:docname="0016.svg"
   inkscape:version="1.1.2 (0a00cf5339, 2022-02-04)"
   xmlns:inkscape="http://www.inkscape.org/namespaces/inkscape"
   xmlns:sodipodi="http://sodipodi.sourceforge.net/DTD/sodipodi-0.dtd"
   xmlns="http://www.w3.org/2000/svg"
   xmlns:svg="http://www.w3.org/2000/svg">
  <defs
     id="defs16" />
  <sodipodi:namedview
     id="namedview14"
     pagecolor="#ffffff"
     bordercolor="#666666"
     borderopacity="1.0"
     inkscape:pageshadow="2"
     inkscape:pageopacity="0.0"
     inkscape:pagecheckerboard="0"
     showgrid="false"
     inkscape:zoom="5.5021007"
     inkscape:cx="29.988546"
     inkscape:cy="79.242461"
     inkscape:window-width="2560"
     inkscape:window-height="1299"
     inkscape:window-x="0"
     inkscape:window-y="32"
     inkscape:window-maximized="1"
     inkscape:current-layer="g18" />
  <g
     inkscape:groupmode="layer"
     inkscape:label="Image"
     id="g18">
    <path
       style="fill:#000000;stroke-width:1.33333"
       d="m 52.666668,150.02262 c -0.733334,-0.28622 -4.805575,-1.20554 -9.049426,-2.04296 -6.883223,-1.35823 -8.081645,-2.10164 -11.10274,-6.88736 -3.096191,-4.9047 -3.749483,-5.28947 -7.61724,-4.48638 -11.489652,2.3857 -13.547859,2.31491 -17.2447696,-0.59308 -5.1094093,-4.01906 -4.9908497,-9.73815 0.2662542,-12.8436 3.3548654,-1.98177 3.7104124,-2.70414 2.4709054,-5.02018 -0.7963122,-1.48792 -2.5964614,-3.63541 -4.0003313,-4.77219 -5.3622457,-4.34209 2.1626997,-9.27078 8.2644433,-5.41306 1.343191,0.84921 2.98727,0.60097 5.073636,-0.76607 4.457042,-2.92036 11.496395,-1.96538 12.009326,1.62922 0.291983,2.04621 -0.904812,3.59883 -4.333333,5.62171 -5.639415,3.32733 -6.089307,6.2561 -1.151386,7.49544 4.879123,1.22458 10.142682,5.14399 12.285754,9.14836 3.177069,5.93641 16.307936,6.90515 32.128907,2.37032 9.093087,-2.60638 11.293654,-2.74647 24.264353,-1.54461 7.845389,0.72695 16.468669,2.24274 19.162829,3.36844 2.69417,1.12569 6.58235,2.04672 8.64041,2.04672 2.05806,0 4.56878,0.82684 5.57937,1.83744 2.7082,2.7082 10.11052,4.02368 12.32056,2.18952 1.02205,-0.84823 3.84748,-1.35131 6.27872,-1.11794 3.44448,0.33063 4.51661,1.10286 4.85611,3.4977 0.92785,6.54518 -0.73348,6.91522 -26.89881,5.99133 -33.571328,-1.18539 -42.218188,-1.20441 -57.536875,-0.12656 -7.333334,0.51599 -13.933334,0.70399 -14.666667,0.41779 z M 37.238635,76.259592 C 36.366246,73.550151 35.057199,70.583335 34.329643,69.666668 32.306174,67.117245 25.397845,67.582101 24.422155,70.333335 22.285319,76.35875 17.25898,78.756054 11.442384,76.524016 9.0062579,75.589187 8.6312574,70.568744 10.833091,68.366911 13.034455,66.165547 11.065844,55.441218 7.9413299,52.613572 4.6289266,49.615888 4.641998,45.742172 7.981613,40.675541 c 1.4468896,-2.19512 3.276367,-7.101246 4.065505,-10.902503 1.64427,-7.920412 7.532165,-16.819911 12.926595,-19.538433 2.031125,-1.0235852 7.135961,-2.9250451 11.344081,-4.2254666 6.664314,-2.0594513 8.46998,-2.1427557 14,-0.6458899 8.587683,2.3245139 12.041825,4.2593432 18.528867,10.3789025 6.900829,6.509904 10.342571,18.05581 10.428705,34.984839 0.07759,15.247915 -1.801436,18.306199 -11.593433,18.869469 -6.69865,0.385329 -7.035634,0.584072 -7.466578,4.403543 -0.692032,6.133489 -2.185867,7.005142 -12.166314,7.099053 l -9.224243,0.0868 -1.586163,-4.926259 z m 94.827575,-0.84648 c -2.11708,-2.550929 -1.98465,-60.43486 0.14414,-62.999893 1.73381,-2.08912 12.22953,-2.318539 15.91188,-0.347806 2.48048,1.327515 2.60545,2.872227 2.45411,30.333333 -0.18842,34.18695 -0.41192,34.934589 -10.44382,34.934589 -4.00736,0 -7.07965,-0.731372 -8.06631,-1.920223 z"
       id="path2380" />
  </g>
</svg>
