<?xml version="1.0" encoding="UTF-8" standalone="no"?>
<!-- Created with Inkscape (http://www.inkscape.org/) -->

<svg
   version="1.1"
   id="svg22"
   width="164"
   height="161.33333"
   viewBox="0 0 164 161.33333"
   sodipodi:docname="0017.svg"
   inkscape:version="1.1.2 (0a00cf5339, 2022-02-04)"
   xmlns:inkscape="http://www.inkscape.org/namespaces/inkscape"
   xmlns:sodipodi="http://sodipodi.sourceforge.net/DTD/sodipodi-0.dtd"
   xmlns="http://www.w3.org/2000/svg"
   xmlns:svg="http://www.w3.org/2000/svg">
  <defs
     id="defs26" />
  <sodipodi:namedview
     id="namedview24"
     pagecolor="#ffffff"
     bordercolor="#666666"
     borderopacity="1.0"
     inkscape:pageshadow="2"
     inkscape:pageopacity="0.0"
     inkscape:pagecheckerboard="0"
     showgrid="false"
     inkscape:zoom="5.4111572"
     inkscape:cx="31.786177"
     inkscape:cy="80.574262"
     inkscape:window-width="2560"
     inkscape:window-height="1299"
     inkscape:window-x="0"
     inkscape:window-y="32"
     inkscape:window-maximized="1"
     inkscape:current-layer="g28" />
  <g
     inkscape:groupmode="layer"
     inkscape:label="Image"
     id="g28">
    <path
       style="fill:#000000;stroke-width:1.33333"
       d="m 68.666667,151.34797 c -25.979762,-1.92476 -39.082022,-3.77008 -47.26292,-6.65647 -3.15646,-1.11366 -6.820724,-2.02484 -8.142811,-2.02484 -4.8918452,0 -8.1659489,-6.12805 -5.5089724,-10.31099 C 8.7538091,130.77845 28.631861,124.75785 44,121.37699 c 5.057031,-1.1125 15.610799,-1.39401 34,-0.90693 46.22177,1.22431 74.08641,6.76425 76.19059,15.14794 0.50644,2.0178 0.11586,3.92006 -1.01772,4.95694 -3.01198,2.755 -19.42379,6.95439 -36.5062,9.34106 -23.343299,3.2614 -23.317409,3.26062 -48.000003,1.43197 z m 45.239613,-11.82245 c 6.53848,-0.86651 12.11147,-2.24543 12.38441,-3.06427 0.69536,-2.08608 -6.1449,-3.0582 -32.29069,-4.58907 -21.633704,-1.26668 -37.604013,-0.55989 -55.333333,2.44887 l -6,1.01823 L 38,137.05386 c 11.908085,3.82826 55.065611,5.23355 75.90628,2.47166 z M 16.333333,103.33026 c -9.2219835,-6.603367 3.727863,-20.147898 14.123515,-14.772096 3.510903,1.815558 11.224512,2.108501 55.519904,2.108501 h 51.442518 l 1.11693,-3 c 0.61431,-1.65 0.67841,-4.2 0.14245,-5.666667 -1.42929,-3.91126 -15.92218,-4.832204 -60.577534,-3.84937 -31.564977,0.694724 -38.344873,1.202265 -44.542067,3.334413 -9.72186,3.344811 -13.021462,3.173757 -17.080692,-0.885473 -2.626792,-2.626792 -3.206767,-4.219378 -2.549206,-7 1.873154,-7.920995 9.611336,-10.211323 20.903213,-6.186884 4.906317,1.748617 11.242237,1.975944 39.834303,1.429215 18.7,-0.357576 36.808203,-1.069111 40.240443,-1.581187 3.61356,-0.539127 9.96204,-0.228835 15.08144,0.737127 15.96898,3.01313 22.66028,13.793986 15.01145,24.186107 -5.55327,7.544984 -6.1344,7.633503 -55.822309,8.502954 -25.329476,0.44322 -48.23097,1.43732 -51.177691,2.22151 -9.731272,2.58972 -18.403311,2.75856 -21.666667,0.42185 z m 9,-7.330262 c 0,-0.733333 -0.6,-1.333333 -1.333333,-1.333333 -0.733333,0 -1.333333,0.6 -1.333333,1.333333 0,0.733333 0.6,1.333333 1.333333,1.333333 0.733333,0 1.333333,-0.6 1.333333,-1.333333 z m 1.333334,-21.333333 c 0,-0.733333 -0.9,-1.333333 -2,-1.333333 -1.1,0 -2,0.6 -2,1.333333 0,0.733333 0.9,1.333333 2,1.333333 1.1,0 2,-0.6 2,-1.333333 z M 145.63001,44.59106 c -1.62984,-1.141582 -2.96334,-2.660854 -2.96334,-3.376158 0,-0.715304 -0.89192,-3.435212 -1.98204,-6.04424 l -1.98204,-4.743688 -4.8325,2.986644 c -4.52376,2.795841 -5.05944,2.852579 -8.38501,0.888115 -3.29193,-1.944592 -3.79457,-1.912544 -6.85214,0.436888 -4.29137,3.29749 -6.44808,3.23322 -10.21367,-0.304374 l -3.08594,-2.899085 -3.08593,2.899085 c -3.822011,3.590591 -4.090695,3.587664 -9.077021,-0.09889 -3.81619,-2.821432 -4.155359,-2.860689 -5.759667,-0.666667 -2.275901,3.112482 -8.118104,2.957247 -11.377669,-0.302318 -2.622611,-2.622611 -2.647899,-2.620396 -6.046802,0.529601 -3.576601,3.314683 -7.333993,3.299787 -10.105822,-0.04007 -2.001166,-2.411248 -4.471458,-2.356882 -6.547086,0.144096 -0.912918,1.1 -3.322192,2 -5.353941,2 -2.053647,0 -4.034901,-0.888144 -4.46156,-2 -0.984708,-2.566105 -4.05482,-2.566105 -6.184499,0 -1.873665,2.25763 -7.416896,2.688838 -8.662236,0.673836 -0.450786,-0.729389 -1.921498,-1.915874 -3.268249,-2.636632 -2.102447,-1.125196 -2.971052,-0.27793 -6.143767,5.99283 -3.152792,6.231382 -4.243334,7.303299 -7.430195,7.303299 -6.2695825,0 -7.1380928,-3.880513 -3.0517579,-13.635286 C 10.704345,27.097454 13.050271,21.833333 13.990299,20 c 0.940026,-1.833334 2.363902,-4.983334 3.164168,-7 2.132376,-5.3735766 8.767972,-5.1925211 11.907546,0.324903 2.525332,4.437966 4.457459,4.997283 6.937987,2.00843 2.446737,-2.948138 6.129165,-2.437268 9.031945,1.253019 l 2.558824,3.25302 4.792908,-3.410204 4.792907,-3.410204 4.618972,2.854682 c 3.845639,2.376735 4.919123,2.557987 6.411708,1.082579 3.669068,-3.626839 6.505815,-3.697692 9.954865,-0.248641 l 3.347382,3.347381 3.425056,-2.694149 c 4.431101,-3.485506 5.515634,-3.400446 9.873177,0.774344 l 3.620327,3.468494 2.272649,-3.468494 c 2.71555,-4.144468 6.47778,-4.458419 9.60865,-0.801827 2.84448,3.322113 3.76749,3.324152 7.97108,0.01761 3.22578,-2.537397 3.53134,-2.552408 7.24934,-0.35613 3.85645,2.278058 3.90773,2.264978 7.91016,-2.017611 4.37414,-4.680329 6.26302,-5.2079491 9.46502,-2.643869 2.29526,1.837974 7.87708,12.383919 10.40931,19.666666 3.10089,8.91828 3.20175,10.991785 0.62616,12.875096 -3.15816,2.309301 -4.68229,2.257208 -8.31043,-0.284035 z"
       id="path2259" />
  </g>
</svg>
