<?xml version="1.0" encoding="UTF-8" standalone="no"?>
<!-- Created with Inkscape (http://www.inkscape.org/) -->

<svg
   version="1.1"
   id="svg32"
   width="38.666668"
   height="161.33333"
   viewBox="0 0 38.666668 161.33333"
   sodipodi:docname="0018.svg"
   inkscape:version="1.1.2 (0a00cf5339, 2022-02-04)"
   xmlns:inkscape="http://www.inkscape.org/namespaces/inkscape"
   xmlns:sodipodi="http://sodipodi.sourceforge.net/DTD/sodipodi-0.dtd"
   xmlns="http://www.w3.org/2000/svg"
   xmlns:svg="http://www.w3.org/2000/svg">
  <defs
     id="defs36" />
  <sodipodi:namedview
     id="namedview34"
     pagecolor="#ffffff"
     bordercolor="#666666"
     borderopacity="1.0"
     inkscape:pageshadow="2"
     inkscape:pageopacity="0.0"
     inkscape:pagecheckerboard="0"
     showgrid="false"
     inkscape:zoom="5.4111572"
     inkscape:cx="-30.86216"
     inkscape:cy="80.574262"
     inkscape:window-width="2560"
     inkscape:window-height="1299"
     inkscape:window-x="0"
     inkscape:window-y="32"
     inkscape:window-maximized="1"
     inkscape:current-layer="g38" />
  <g
     inkscape:groupmode="layer"
     inkscape:label="Image"
     id="g38">
    <path
       style="fill:#000000;stroke-width:1.33333"
       d="m 15.224887,154.56657 c -5.9730229,-1.73433 -8.8618884,-5.65304 -9.5654791,-12.97545 -0.5198999,-5.4107 -0.1043466,-7.03352 2.6087348,-10.18767 2.7659403,-3.2156 4.1683283,-3.73468 9.8128343,-3.63211 5.577478,0.10135 7.147025,0.7436 10.252357,4.1952 6.358086,7.06706 4.439074,19.90706 -3.382745,22.63375 -4.527754,1.57839 -4.169303,1.57963 -9.725702,-0.0337 z m 0,-62.666672 C 9.2518641,90.165569 6.3629986,86.246861 5.6594079,78.924453 5.139508,73.513753 5.5550613,71.890928 8.2681427,68.736783 c 2.7659403,-3.215596 4.1683283,-3.734674 9.8128343,-3.632106 5.577478,0.101347 7.147025,0.7436 10.252357,4.195199 6.358086,7.067058 4.439074,19.907054 -3.382745,22.633755 -4.527754,1.578383 -4.169303,1.579627 -9.725702,-0.03373 z M 10.249455,26.927041 C 5.6997097,22.17813 5.3316786,14.056785 9.4301071,8.8464781 11.845294,5.7760657 13.163483,5.3333332 19.890125,5.3333332 c 10.00336,0 12.109876,2.1468146 12.109876,12.3415478 0,6.476363 -0.465229,7.830854 -3.513145,10.228345 -5.352017,4.209897 -13.69675,3.763232 -18.237401,-0.976185 z"
       id="path2138" />
  </g>
</svg>
