<?xml version="1.0" encoding="UTF-8" standalone="no"?>
<!-- Created with Inkscape (http://www.inkscape.org/) -->

<svg
   version="1.1"
   id="svg42"
   width="161.33333"
   height="162.66667"
   viewBox="0 0 161.33333 162.66667"
   sodipodi:docname="0019.svg"
   inkscape:version="1.1.2 (0a00cf5339, 2022-02-04)"
   xmlns:inkscape="http://www.inkscape.org/namespaces/inkscape"
   xmlns:sodipodi="http://sodipodi.sourceforge.net/DTD/sodipodi-0.dtd"
   xmlns="http://www.w3.org/2000/svg"
   xmlns:svg="http://www.w3.org/2000/svg">
  <defs
     id="defs46" />
  <sodipodi:namedview
     id="namedview44"
     pagecolor="#ffffff"
     bordercolor="#666666"
     borderopacity="1.0"
     inkscape:pageshadow="2"
     inkscape:pageopacity="0.0"
     inkscape:pagecheckerboard="0"
     showgrid="false"
     inkscape:zoom="5.3668031"
     inkscape:cx="29.999237"
     inkscape:cy="81.240171"
     inkscape:window-width="2560"
     inkscape:window-height="1299"
     inkscape:window-x="0"
     inkscape:window-y="32"
     inkscape:window-maximized="1"
     inkscape:current-layer="g48" />
  <g
     inkscape:groupmode="layer"
     inkscape:label="Image"
     id="g48">
    <path
       style="fill:#000000;stroke-width:1.33333"
       d="m 84.283512,156.43708 c -5.260607,-4.3684 -1.940835,-6.35277 11.88429,-7.10374 l 12.273068,-0.66667 3.05507,-5.33333 c 3.91542,-6.8353 3.90693,-9.90691 -0.0489,-17.67644 -1.77079,-3.47796 -4.51026,-9.69913 -6.08773,-13.82482 -1.57746,-4.12569 -4.61477,-9.17466 -6.749567,-11.21993 -5.963018,-5.712931 -9.251948,-19.836632 -5.494306,-23.594274 3.85162,-3.85162 0.523208,-10.915777 -5.86448,-12.446664 -9.499843,-2.276752 -8.470067,-6.183561 2.235042,-8.479396 7.801386,-1.673098 17.149321,-1.827472 19.519941,-0.322358 3.53364,2.243519 8.32737,10.251273 8.32737,13.910571 0,2.105739 0.6983,5.139171 1.55177,6.740961 1.58828,2.980844 15.11204,17.5591 30.29588,32.65815 l 8.51431,8.46677 -2.63809,3.56038 c -1.45095,1.95821 -5.88239,4.88243 -9.84764,6.49828 -6.35503,2.58967 -7.1632,3.34585 -6.81848,6.37974 0.21508,1.89303 -0.83492,5.16359 -2.33334,7.26793 -3.42509,4.8101 -3.43085,7.02848 -0.0263,10.1096 4.13936,3.74608 1.47546,4.9192 -12.26143,5.39964 -6.84021,0.23924 -17.86262,0.81246 -24.494239,1.27383 -10.493292,0.73004 -12.438223,0.52271 -14.992326,-1.59823 z m 41.134658,-12.60337 c 2.61412,-5.12411 2.48111,-11.41955 -0.20619,-9.75871 -0.69448,0.42922 -2.8032,3.82043 -4.68604,7.53604 -2.66362,5.2564 -3.04199,6.99134 -1.70497,7.81766 2.37547,1.46813 3.46546,0.54372 6.5972,-5.59499 z m -94.014059,10.49963 c -0.281706,-0.91667 -0.836025,-4.82864 -1.231817,-8.69327 -0.395792,-3.86463 -1.781539,-8.82428 -3.079436,-11.02144 C 24.598922,130.39673 16.014697,124 12.842965,124 9.4146319,124 4.8180267,119.26605 5.7891299,116.73539 6.7061961,114.34556 11.498859,114.29951 20,116.59887 l 3.333333,0.90159 L 20,115.46414 c -1.833334,-1.11997 -5.571903,-2.05757 -8.307931,-2.08356 -4.2310546,-0.0402 -5.1050126,-0.56686 -5.8471293,-3.52369 -1.5962393,-6.35992 4.8070823,-7.58173 16.7866893,-3.20303 3.993357,1.45962 7.682748,2.20962 8.198646,1.66667 0.766707,-0.80692 1.877834,-34.255958 1.326755,-39.940283 -0.08637,-0.890866 -1.313557,-2.23871 -2.727091,-2.99521 -2.035372,-1.089298 -3.363112,-0.708145 -6.381987,1.832072 -4.51512,3.799223 -8.381286,2.58314 -8.381286,-2.636293 0,-7.854146 18.980941,-12.009292 25.100915,-5.49488 1.594497,1.697264 2.899085,4.061855 2.899085,5.254644 0,1.192791 0.663957,2.579057 1.47546,3.080593 0.991268,0.612638 1.369613,7.092337 1.152918,19.745357 -0.177398,10.358409 -0.241354,19.809 -0.142126,21.00132 0.160334,1.92657 1.10789,1.83869 8.513748,-0.78962 9.093566,-3.22728 14.687933,-2.80902 15.451371,1.15519 0.647715,3.36332 -1.025749,4.65155 -8.465653,6.51686 -3.545884,0.88901 -6.684845,2.34115 -6.97547,3.22697 -0.3852,1.17407 0.490381,1.11286 3.23067,-0.22587 2.067495,-1.01004 5.559081,-2.0348 7.759081,-2.27724 3.495326,-0.38519 4,-0.0202 4,2.89253 0,2.60618 -0.976273,3.64888 -4.47533,4.77986 -10.541692,3.4073 -16.099647,11.36083 -16.226304,23.22014 -0.07495,7.01745 -2.51172,9.33333 -9.820534,9.33333 -3.820492,0 -6.426195,-0.6443 -6.740386,-1.66666 z M 8.9999998,42.559869 c -1.5069593,-0.877723 -2.3333333,-2.98417 -2.3333333,-5.94772 0,-5.556099 7.3528105,-23.012631 11.0967855,-26.345213 3.822156,-3.4021735 9.155881,-2.4267638 11.299451,2.066398 2.084879,4.370136 3.077271,4.528401 6.27043,1 3.283713,-3.6284635 6.613978,-3.3488517 9.643239,0.809654 l 2.532323,3.476322 4.263877,-4.263878 4.263878,-4.2638767 4.324254,2.5513727 c 4.11328,2.426895 4.507956,2.440259 8.089485,0.273909 4.393705,-2.6576104 8.188993,-2.0250387 10.877216,1.812937 1.639291,2.340414 2.028336,2.429406 2.721685,0.622568 0.444944,-1.159504 2.589364,-2.845646 4.765379,-3.746981 3.5523,-1.47141 4.303084,-1.3136509 7.350793,1.544591 l 3.394401,3.183382 2.433791,-3 C 103.00528,8.6210692 106.8269,8.4937627 110,12 c 3.03301,3.351436 4.43795,3.346374 8.0308,-0.02894 l 2.86934,-2.6956023 3.72575,2.9306773 3.72575,2.930679 3.49085,-4.247096 c 3.66875,-4.4635432 7.51535,-5.3447375 11.15916,-2.5563885 1.76477,1.3504512 7.85913,16.4760855 11.28451,28.0071015 0.98917,3.329928 -1.98815,6.326233 -6.28616,6.326233 -4.4081,0 -5.68504,-1.387559 -8.96771,-9.744566 l -2.50987,-6.389625 -1.782,3.329712 c -2.43444,4.548793 -4.95301,5.223472 -9.49141,2.542574 -3.73384,-2.205633 -3.9425,-2.177741 -7.29922,0.975742 l -3.45551,3.24628 -5.07407,-2.920267 c -4.4761,-2.576117 -5.36945,-2.696612 -7.58048,-1.022463 -3.574056,2.706215 -7.542088,2.41669 -10.251792,-0.748014 l -2.338036,-2.730628 -3.47143,2.730628 c -4.473176,3.5186 -6.281359,3.439862 -10.163804,-0.442583 -3.050993,-3.050993 -3.2335,-3.076669 -4.738571,-0.666667 -2.037105,3.261923 -8.240956,3.250904 -11.752797,-0.02088 -2.677569,-2.494534 -2.742533,-2.477188 -4.993464,1.333334 -2.868294,4.855636 -5.233633,4.869494 -9.936802,0.05823 l -3.717091,-3.802528 -3.645657,3.135862 c -4.574943,3.935201 -5.50458,3.916114 -9.618165,-0.197471 -1.833334,-1.833333 -3.881976,-3.333333 -4.552539,-3.333333 -0.670562,0 -1.931912,2.55 -2.802998,5.666666 -1.417311,5.071002 -5.389855,10.401306 -7.670963,10.292789 -0.468758,-0.0223 -1.902288,-0.652114 -3.1856212,-1.399587 z"
       id="path2017" />
  </g>
</svg>
