<?xml version="1.0" encoding="UTF-8" standalone="no"?>
<!-- Created with Inkscape (http://www.inkscape.org/) -->

<svg
   version="1.1"
   id="svg52"
   width="41.333332"
   height="158.66667"
   viewBox="0 0 41.333332 158.66667"
   sodipodi:docname="0020.svg"
   inkscape:version="1.1.2 (0a00cf5339, 2022-02-04)"
   xmlns:inkscape="http://www.inkscape.org/namespaces/inkscape"
   xmlns:sodipodi="http://sodipodi.sourceforge.net/DTD/sodipodi-0.dtd"
   xmlns="http://www.w3.org/2000/svg"
   xmlns:svg="http://www.w3.org/2000/svg">
  <defs
     id="defs56" />
  <sodipodi:namedview
     id="namedview54"
     pagecolor="#ffffff"
     bordercolor="#666666"
     borderopacity="1.0"
     inkscape:pageshadow="2"
     inkscape:pageopacity="0.0"
     inkscape:pagecheckerboard="0"
     showgrid="false"
     inkscape:zoom="5.5021007"
     inkscape:cx="-28.716305"
     inkscape:cy="79.242461"
     inkscape:window-width="2560"
     inkscape:window-height="1299"
     inkscape:window-x="0"
     inkscape:window-y="32"
     inkscape:window-maximized="1"
     inkscape:current-layer="g58" />
  <g
     inkscape:groupmode="layer"
     inkscape:label="Image"
     id="g58">
    <path
       style="fill:#000000;stroke-width:1.33333"
       d="M 9.3616426,152.0529 C 7.9334664,149.38432 7.9848399,149.05682 12.716326,130.66667 L 14.946118,122 10.806392,112.96661 C 7.2850635,105.28264 6.6666665,102.35657 6.6666665,93.378635 c 0,-5.805024 0.5999999,-10.925408 1.3333332,-11.378633 C 9.9471014,80.796627 9.594123,72.193312 7.331141,65.697579 5.294133,59.850488 5.8778434,44.6449 8.194266,43.213272 10.001874,42.096108 9.5275017,38.120681 6.9999998,33.204851 5.5134145,30.313538 4.6666665,25.653565 4.6666665,20.363636 c 0,-7.296572 0.4481309,-8.751161 3.6969696,-11.9999994 C 11.39234,5.3349329 13.234895,4.6666668 18.556986,4.6666668 c 4.603072,0 7.34643,0.769285 9.413101,2.639597 6.939767,6.2804022 8.152699,18.8488502 2.555088,26.4758982 -2.845255,3.876815 -2.819705,4.399829 0.661999,13.551172 2.736601,7.192907 2.598909,14.874181 -0.384378,21.44281 -2.466944,5.431742 -2.465212,5.458839 0.851928,13.324942 3.751996,8.8973 3.606022,17.569452 -0.495069,29.411264 -2.251667,6.50164 -2.580864,14.47069 -0.705972,17.08985 2.690053,3.75791 7.021904,17.01104 6.642228,20.32164 -0.354608,3.09203 -1.144508,3.81263 -4.542812,4.14426 -4.744464,0.46298 -6.79763,-1.46044 -7.43512,-6.96527 -0.724704,-6.25795 -3.784646,-5.92984 -3.784646,0.40581 0,3.97178 -0.681246,5.76214 -2.579012,6.77779 -4.00336,2.14253 -7.856698,1.63648 -9.3926784,-1.23353 z M 22.867733,99.666669 c 0.331754,-7.149888 -0.361358,-12.22762 -1.92865,-14.129267 -1.212317,-1.470943 -1.65553,-1.350304 -2.449245,0.666666 -1.211092,3.077599 -1.427837,12.870755 -0.347187,15.686882 1.46144,3.80845 4.51179,2.37253 4.725082,-2.224281 z M 22.666666,56.758248 c 0,-2.336712 -0.855177,-5.413246 -1.900395,-6.83674 -1.832933,-2.496299 -1.95126,-2.454934 -3.333333,1.165293 -1.87212,4.903866 -1.819057,9.327082 0.135336,11.281475 2.391223,2.391223 5.098392,-0.587619 5.098392,-5.610028 z m 0,-34.347576 c 0,-6.028474 -0.251399,-6.559473 -2.921191,-6.170073 -4.182288,0.610004 -6.006467,8.145022 -3.060384,12.641314 3.209107,4.897717 5.981575,1.898289 5.981575,-6.471241 z"
       id="path1896" />
  </g>
</svg>
