<?xml version="1.0" encoding="UTF-8" standalone="no"?>
<!-- Created with Inkscape (http://www.inkscape.org/) -->

<svg
   version="1.1"
   id="svg62"
   width="157.33333"
   height="164"
   viewBox="0 0 157.33333 164"
   sodipodi:docname="0021.svg"
   inkscape:version="1.1.2 (0a00cf5339, 2022-02-04)"
   xmlns:inkscape="http://www.inkscape.org/namespaces/inkscape"
   xmlns:sodipodi="http://sodipodi.sourceforge.net/DTD/sodipodi-0.dtd"
   xmlns="http://www.w3.org/2000/svg"
   xmlns:svg="http://www.w3.org/2000/svg">
  <defs
     id="defs66" />
  <sodipodi:namedview
     id="namedview64"
     pagecolor="#ffffff"
     bordercolor="#666666"
     borderopacity="1.0"
     inkscape:pageshadow="2"
     inkscape:pageopacity="0.0"
     inkscape:pagecheckerboard="0"
     showgrid="false"
     inkscape:zoom="5.3231707"
     inkscape:cx="27.61512"
     inkscape:cy="81.906071"
     inkscape:window-width="2560"
     inkscape:window-height="1299"
     inkscape:window-x="0"
     inkscape:window-y="32"
     inkscape:window-maximized="1"
     inkscape:current-layer="g68" />
  <g
     inkscape:groupmode="layer"
     inkscape:label="Image"
     id="g68">
    <path
       style="fill:#000000;stroke-width:1.33333"
       d="m 53.333332,153.95539 c -9.9,-0.91596 -21.599999,-2.65979 -25.999999,-3.87519 -21.6073802,-5.96853 -21.958626,-6.11777 -22.8612186,-9.714 -1.5839283,-6.31087 0.5945935,-7.84675 18.1945516,-12.82733 4.033333,-1.14139 11.833333,-2.75115 17.333333,-3.57726 5.5,-0.8261 12.4,-1.99704 15.333333,-2.60208 2.933333,-0.60504 12.233333,-0.81299 20.666666,-0.46212 8.433334,0.35088 16.233333,0.63356 17.333333,0.62819 5.0841,-0.0248 23.499839,2.90682 38.431109,6.11795 15.30956,3.2925 16.56981,3.80192 18.46314,7.46322 5.127,9.91452 -3.77709,13.34908 -50.615379,19.5238 -12.581168,1.65858 -22.640987,1.51182 -46.278869,-0.67518 z m 58.479038,-12.39375 c 7.5968,-0.77473 14.03836,-1.6346 14.31457,-1.9108 0.2762,-0.27621 -5.33937,-1.64661 -12.47904,-3.04533 -10.06211,-1.97127 -18.678017,-2.53335 -38.314568,-2.49954 -27.753744,0.0477 -51.386733,2.66635 -43.999999,4.87527 7.293492,2.18103 38.451219,4.77027 52.666665,4.37665 7.7,-0.2132 20.215572,-1.02152 27.812372,-1.79625 z M 62.834952,94.828865 C 61.475988,93.945807 61.152449,91.295297 61.581371,84.559209 l 0.578133,-9.079401 -8.92658,-8.739904 C 48.323304,61.932956 43.326842,57.4 42.129674,56.666667 c -2.908608,-1.781686 -8.796341,-18.423059 -8.796341,-24.8624 0,-5.504712 3.575532,-10.470934 7.538762,-10.470934 1.212987,0 4.275041,-2.417876 6.804568,-5.373058 5.956143,-6.9584142 11.511772,-9.1647162 24.181795,-9.6032966 9.366691,-0.3242336 10.829471,-0.015676 15.947024,3.3638556 3.098909,2.046459 6.271832,5.119889 7.05094,6.829843 0.869023,1.907298 3.416863,3.708316 6.591648,4.659504 5.39289,1.615751 7.88526,4.611763 7.88526,9.478679 0,4.349848 -7.86021,21.539185 -11.574095,25.31114 -1.805106,1.833333 -5.969193,6.926592 -9.253526,11.318353 l -5.971516,7.985022 0.399569,10.014978 0.39957,10.01498 -9.333334,0.342894 c -5.133333,0.18859 -10.157603,-0.192722 -11.165046,-0.847362 z"
       id="path1775" />
  </g>
</svg>
