<?xml version="1.0" encoding="UTF-8" standalone="no"?>
<!-- Created with Inkscape (http://www.inkscape.org/) -->

<svg
   version="1.1"
   id="svg72"
   width="162.66667"
   height="82.666664"
   viewBox="0 0 162.66667 82.666664"
   sodipodi:docname="0022.svg"
   inkscape:version="1.1.2 (0a00cf5339, 2022-02-04)"
   xmlns:inkscape="http://www.inkscape.org/namespaces/inkscape"
   xmlns:sodipodi="http://sodipodi.sourceforge.net/DTD/sodipodi-0.dtd"
   xmlns="http://www.w3.org/2000/svg"
   xmlns:svg="http://www.w3.org/2000/svg">
  <defs
     id="defs76" />
  <sodipodi:namedview
     id="namedview74"
     pagecolor="#ffffff"
     bordercolor="#666666"
     borderopacity="1.0"
     inkscape:pageshadow="2"
     inkscape:pageopacity="0.0"
     inkscape:pagecheckerboard="0"
     showgrid="false"
     inkscape:zoom="7.8811473"
     inkscape:cx="46.820594"
     inkscape:cy="41.364536"
     inkscape:window-width="2560"
     inkscape:window-height="1299"
     inkscape:window-x="0"
     inkscape:window-y="32"
     inkscape:window-maximized="1"
     inkscape:current-layer="g78" />
  <g
     inkscape:groupmode="layer"
     inkscape:label="Image"
     id="g78">
    <path
       style="fill:#000000;stroke-width:1.33333"
       d="m 8.3333335,75.706004 c -2.501441,-1.206398 -3.0000001,-2.524301 -3.0000001,-7.930272 0,-10.528433 9.4343986,-22.995859 20.9191766,-27.644399 8.349985,-3.379713 38.80571,-1.623344 40.118022,2.313591 0.261661,0.784985 1.930597,3.406008 3.708744,5.824494 4.473142,6.083988 7.173644,12.202349 8.485727,19.225582 1.852063,9.913611 2.073772,9.851848 -34.993574,9.748091 C 23.312526,77.186382 10.218579,76.615224 8.3333335,75.706004 Z M 105.29414,67.2861 c -1.32182,-1.592687 -1.46369,-6.847345 -0.639,-23.666665 0.58303,-11.890689 0.95161,-24.146913 0.81907,-27.236053 -0.42665,-9.9443899 1.01472,-10.4964866 27.24482,-10.4357479 l 22.61431,0.052366 0.35944,29.0388639 c 0.2291,18.509252 -0.15051,29.991717 -1.04691,31.666666 -1.31643,2.459766 -2.88496,2.627801 -24.52952,2.627801 -19.16441,0 -23.41404,-0.350492 -24.82221,-2.047231 z"
       id="path1654" />
  </g>
</svg>
