<?xml version="1.0" encoding="UTF-8" standalone="no"?>
<!-- Created with Inkscape (http://www.inkscape.org/) -->

<svg
   version="1.1"
   id="svg82"
   width="161.33333"
   height="158.66667"
   viewBox="0 0 161.33333 158.66667"
   sodipodi:docname="0023.svg"
   inkscape:version="1.1.2 (0a00cf5339, 2022-02-04)"
   xmlns:inkscape="http://www.inkscape.org/namespaces/inkscape"
   xmlns:sodipodi="http://sodipodi.sourceforge.net/DTD/sodipodi-0.dtd"
   xmlns="http://www.w3.org/2000/svg"
   xmlns:svg="http://www.w3.org/2000/svg">
  <defs
     id="defs86" />
  <sodipodi:namedview
     id="namedview84"
     pagecolor="#ffffff"
     bordercolor="#666666"
     borderopacity="1.0"
     inkscape:pageshadow="2"
     inkscape:pageopacity="0.0"
     inkscape:pagecheckerboard="0"
     showgrid="false"
     inkscape:zoom="5.5021007"
     inkscape:cx="31.260788"
     inkscape:cy="79.242461"
     inkscape:window-width="2560"
     inkscape:window-height="1299"
     inkscape:window-x="0"
     inkscape:window-y="32"
     inkscape:window-maximized="1"
     inkscape:current-layer="g88" />
  <g
     inkscape:groupmode="layer"
     inkscape:label="Image"
     id="g88">
    <path
       style="fill:#000000;stroke-width:1.33333"
       d="m 144.84648,151.90323 c -1.93223,-1.51989 -3.51315,-3.33916 -3.51315,-4.04283 0,-0.70365 -0.89192,-3.41404 -1.98204,-6.02306 l -1.98204,-4.7437 -4.83249,2.98664 c -4.52377,2.79584 -5.05945,2.85259 -8.38502,0.88812 -3.29193,-1.94458 -3.79457,-1.91254 -6.85213,0.4369 -4.29138,3.29748 -6.44808,3.23321 -10.21368,-0.30438 L 104,138.20183 l -3.08594,2.89909 c -3.822006,3.59059 -4.09069,3.58766 -9.077017,-0.0989 -3.816189,-2.82143 -4.155358,-2.86069 -5.759666,-0.66667 -2.275901,3.11248 -8.118104,2.95726 -11.377669,-0.30232 -2.622611,-2.62261 -2.647899,-2.62038 -6.046801,0.5296 -3.576602,3.31468 -7.333994,3.29979 -10.105823,-0.04 -2.001165,-2.41128 -4.471457,-2.3569 -6.547085,0.14407 -0.912919,1.1 -3.322192,2 -5.353941,2 -2.053647,0 -4.034902,-0.88815 -4.46156,-2 -0.422111,-1.1 -1.612836,-2 -2.646059,-2 -1.033224,0 -2.625521,0.9 -3.53844,2 -1.873665,2.25763 -7.416896,2.68884 -8.662236,0.67384 -0.450786,-0.72939 -1.921498,-1.91588 -3.268249,-2.63664 -2.102446,-1.12519 -2.971052,-0.27792 -6.143766,5.99284 C 14.772956,150.92808 13.682413,152 10.495552,152 4.22597,152 3.3574598,148.1195 7.4437946,138.36471 9.3710111,133.76412 11.716938,128.5 12.656965,126.66667 c 0.940027,-1.83333 2.363903,-4.98333 3.164168,-7 2.132376,-5.37358 8.767972,-5.19252 11.907546,0.3249 2.525332,4.43797 4.457459,4.99729 6.937987,2.00843 2.446737,-2.94813 6.129165,-2.43727 9.031945,1.25302 l 2.558824,3.25302 4.792908,-3.4102 4.792907,-3.41021 4.618971,2.85469 c 3.845639,2.37673 4.919123,2.55798 6.411708,1.08257 3.669068,-3.62683 6.505815,-3.69769 9.954865,-0.24864 l 3.347382,3.34738 3.425056,-2.69414 c 4.431101,-3.48551 5.515634,-3.40045 9.873177,0.77434 l 3.620326,3.46849 2.272646,-3.46849 c 2.715559,-4.14447 6.477779,-4.45842 9.608659,-0.80183 2.84448,3.32212 3.76749,3.32415 7.97107,0.0176 3.22578,-2.5374 3.53135,-2.55241 7.24935,-0.35613 3.85644,2.27805 3.90773,2.26497 7.91015,-2.01762 4.37112,-4.67708 6.27993,-5.21265 9.42293,-2.64386 2.77747,2.27003 7.95128,11.44781 9.20764,16.33333 0.56575,2.2 1.77292,5.84419 2.68262,8.09819 2.10809,5.22336 0.71754,11.23514 -2.59872,11.23514 -1.3538,0 -4.04238,-1.24354 -5.9746,-2.76344 z M 54.627468,69.952771 C 53.305654,68.360083 53.163779,63.105425 53.98847,46.286104 54.571499,34.395414 54.940082,22.13919 54.807544,19.05005 54.380886,9.1056591 55.822256,8.5535624 82.052364,8.6143011 l 22.614296,0.052366 0.35945,29.0388659 c 0.22911,18.509252 -0.15051,29.991718 -1.04691,31.666667 -1.31643,2.459767 -2.88496,2.627802 -24.52952,2.627802 -19.164415,0 -23.414044,-0.350492 -24.822212,-2.047231 z"
       id="path1533" />
  </g>
</svg>
