<?xml version="1.0" encoding="UTF-8" standalone="no"?>
<!-- Created with Inkscape (http://www.inkscape.org/) -->

<svg
   version="1.1"
   id="svg92"
   width="156"
   height="158.66667"
   viewBox="0 0 156 158.66667"
   sodipodi:docname="0024.svg"
   inkscape:version="1.1.2 (0a00cf5339, 2022-02-04)"
   xmlns:inkscape="http://www.inkscape.org/namespaces/inkscape"
   xmlns:sodipodi="http://sodipodi.sourceforge.net/DTD/sodipodi-0.dtd"
   xmlns="http://www.w3.org/2000/svg"
   xmlns:svg="http://www.w3.org/2000/svg">
  <defs
     id="defs96" />
  <sodipodi:namedview
     id="namedview94"
     pagecolor="#ffffff"
     bordercolor="#666666"
     borderopacity="1.0"
     inkscape:pageshadow="2"
     inkscape:pageopacity="0.0"
     inkscape:pagecheckerboard="0"
     showgrid="false"
     inkscape:zoom="5.5021007"
     inkscape:cx="28.716305"
     inkscape:cy="79.242461"
     inkscape:window-width="2560"
     inkscape:window-height="1299"
     inkscape:window-x="0"
     inkscape:window-y="32"
     inkscape:window-maximized="1"
     inkscape:current-layer="g98" />
  <g
     inkscape:groupmode="layer"
     inkscape:label="Image"
     id="g98">
    <path
       style="fill:#000000;stroke-width:1.33333"
       d="m 45.616847,152.43708 c -5.260607,-4.3684 -1.940835,-6.35277 11.88429,-7.10374 l 12.273067,-0.66667 3.055068,-5.33333 c 3.915427,-6.83529 3.906932,-9.90691 -0.04888,-17.67644 -1.770785,-3.47796 -4.51026,-9.69913 -6.087723,-13.82482 C 65.115207,103.70639 62.0779,98.657423 59.943099,96.612154 53.98008,90.899219 50.691151,76.775518 54.448792,73.017876 58.300412,69.166256 54.972,62.102099 48.584312,60.571212 39.084469,58.29446 40.114245,54.38765 50.819355,52.091816 c 7.801385,-1.673098 17.149318,-1.827472 19.51994,-0.322358 3.533641,2.243519 8.327372,10.251273 8.327372,13.910571 0,2.105739 0.698298,5.139171 1.551773,6.740961 1.588272,2.980844 15.112033,17.5591 30.29587,32.65815 l 8.51432,8.46677 -2.63809,3.56038 c -1.45095,1.95821 -5.8824,4.88243 -9.84765,6.49828 -6.35502,2.58967 -7.163203,3.34585 -6.818482,6.37974 0.215092,1.89302 -0.834908,5.16359 -2.333333,7.26793 -3.425088,4.8101 -3.430846,7.02848 -0.02624,10.1096 4.139365,3.74608 1.475462,4.9192 -12.261428,5.39964 -6.84021,0.23924 -17.862616,0.81246 -24.494238,1.27383 -10.493292,0.73004 -12.438224,0.52271 -14.992326,-1.59823 z m 41.134656,-12.60337 c 2.614128,-5.12411 2.481114,-11.41955 -0.206186,-9.75871 -0.694481,0.42921 -2.803198,3.82043 -4.68604,7.53604 -2.66362,5.2564 -3.041996,6.99134 -1.704973,7.81766 2.375473,1.46813 3.465463,0.54372 6.597199,-5.59499 z M 9.922714,48.312917 C 4.3181997,44.420948 2.3187549,35.190571 6.3333333,31.74265 12.032428,26.847981 17.427632,26.677765 26.666667,31.101141 c 5.79879,2.776289 7.743817,2.880137 58,3.096712 43.108393,0.18577 52.512973,-0.102227 55.000003,-1.684286 9.57556,-6.091253 -4.2919,-14.362773 -19.09536,-11.389812 -4.14659,0.832753 -8.05254,1.196863 -8.6799,0.809133 -0.62736,-0.38773 -18.37149,-0.676922 -39.431401,-0.64265 -31.632489,0.05148 -38.818965,0.408417 -41.328466,2.052705 -1.948014,1.276387 -6.319279,1.990391 -12.185547,1.990391 -7.838156,0 -9.5628793,-0.441805 -12.0469107,-3.085935 C 3.5307176,18.661935 3.0197729,11.183553 5.8762689,7.2770619 8.6729488,3.4523742 21.66022,3.689427 28.438803,7.6888891 33.4376,10.638252 34.000955,10.666667 87.47576,10.666667 c 45.54774,0 54.59893,0.314892 57.88427,2.0138 5.29653,2.738948 6.63997,5.773727 6.63997,14.99946 0,8.610378 -2.26813,12.061746 -9.8028,14.916679 C 137.79621,44.26417 83.487435,44.438936 68,42.835373 54.557037,41.443493 34.012644,43.443706 27.81846,46.747469 23.014844,49.309552 12.662006,50.215177 9.922714,48.312917 Z M 24.418491,37.834061 c -0.939703,-2.448827 -7.66926,-2.343396 -9.740758,0.152605 -1.364657,1.644312 -1.105581,2.187622 1.503407,3.152803 3.884653,1.437107 9.233585,-0.709264 8.237351,-3.305408 z M 22.299523,16.454786 c 0.526174,-1.599244 -7.236086,-3.962668 -8.584866,-2.613888 -0.418729,0.418729 0.02167,1.70478 0.978668,2.85789 1.929198,2.324542 6.812654,2.167883 7.606198,-0.244002 z"
       id="path1412" />
  </g>
</svg>
