<?xml version="1.0" encoding="UTF-8" standalone="no"?>
<!-- Created with Inkscape (http://www.inkscape.org/) -->

<svg
   version="1.1"
   id="svg102"
   width="89.333336"
   height="108"
   viewBox="0 0 89.333336 108"
   sodipodi:docname="0025.svg"
   inkscape:version="1.1.2 (0a00cf5339, 2022-02-04)"
   xmlns:inkscape="http://www.inkscape.org/namespaces/inkscape"
   xmlns:sodipodi="http://sodipodi.sourceforge.net/DTD/sodipodi-0.dtd"
   xmlns="http://www.w3.org/2000/svg"
   xmlns:svg="http://www.w3.org/2000/svg">
  <defs
     id="defs106" />
  <sodipodi:namedview
     id="namedview104"
     pagecolor="#ffffff"
     bordercolor="#666666"
     borderopacity="1.0"
     inkscape:pageshadow="2"
     inkscape:pageopacity="0.0"
     inkscape:pagecheckerboard="0"
     showgrid="false"
     inkscape:zoom="8.0833333"
     inkscape:cx="11.134021"
     inkscape:cy="54.061856"
     inkscape:window-width="2560"
     inkscape:window-height="1299"
     inkscape:window-x="0"
     inkscape:window-y="32"
     inkscape:window-maximized="1"
     inkscape:current-layer="g108" />
  <g
     inkscape:groupmode="layer"
     inkscape:label="Image"
     id="g108">
    <path
       style="fill:#000000;stroke-width:1.33333"
       d="M 34.834954,98.828865 C 33.47599,97.945807 33.152452,95.295297 33.581373,88.559209 l 0.578133,-9.079401 -8.92658,-8.739904 C 20.323306,65.932956 15.326843,61.4 14.129675,60.666667 11.221068,58.884981 5.3333335,42.243608 5.3333335,35.804267 c 0,-5.504712 3.5755328,-10.470934 7.5387635,-10.470934 1.212986,0 4.275041,-2.417876 6.804568,-5.373058 5.956142,-6.958414 11.511772,-9.164716 24.181796,-9.603297 9.366691,-0.324233 10.829471,-0.01568 15.947025,3.363855 3.098909,2.04646 6.271832,5.11989 7.05094,6.829844 0.869023,1.907298 3.416863,3.708316 6.591646,4.659504 5.392897,1.615751 7.885264,4.611763 7.885264,9.478679 0,4.349848 -7.860216,21.539185 -11.574097,25.31114 -1.805106,1.833333 -5.969193,6.926592 -9.253527,11.318353 l -5.971516,7.985022 0.39957,10.014978 0.399569,10.01498 -9.333334,0.342894 c -5.133333,0.18859 -10.157604,-0.192722 -11.165047,-0.847362 z"
       id="path1291" />
  </g>
</svg>
