<?xml version="1.0" encoding="UTF-8" standalone="no"?>
<!-- Created with Inkscape (http://www.inkscape.org/) -->

<svg
   version="1.1"
   id="svg112"
   width="161.33333"
   height="154.66667"
   viewBox="0 0 161.33333 154.66667"
   sodipodi:docname="0026.svg"
   inkscape:version="1.1.2 (0a00cf5339, 2022-02-04)"
   xmlns:inkscape="http://www.inkscape.org/namespaces/inkscape"
   xmlns:sodipodi="http://sodipodi.sourceforge.net/DTD/sodipodi-0.dtd"
   xmlns="http://www.w3.org/2000/svg"
   xmlns:svg="http://www.w3.org/2000/svg">
  <defs
     id="defs116" />
  <sodipodi:namedview
     id="namedview114"
     pagecolor="#ffffff"
     bordercolor="#666666"
     borderopacity="1.0"
     inkscape:pageshadow="2"
     inkscape:pageopacity="0.0"
     inkscape:pagecheckerboard="0"
     showgrid="false"
     inkscape:zoom="5.6443964"
     inkscape:cx="32.598703"
     inkscape:cy="77.244752"
     inkscape:window-width="2560"
     inkscape:window-height="1299"
     inkscape:window-x="0"
     inkscape:window-y="32"
     inkscape:window-maximized="1"
     inkscape:current-layer="g118" />
  <g
     inkscape:groupmode="layer"
     inkscape:label="Image"
     id="g118">
    <path
       style="fill:#000000;stroke-width:1.33333"
       d="m 8.3333332,146.37268 c -2.5014409,-1.2064 -3,-2.5243 -3,-7.93028 0,-10.52843 9.4343988,-22.99586 20.9191758,-27.6444 8.349985,-3.37971 38.805708,-1.62334 40.11802,2.31359 0.261662,0.78499 1.930598,3.40601 3.708744,5.8245 4.473141,6.08399 7.173644,12.20235 8.485727,19.22558 1.852062,9.91361 2.073772,9.85185 -34.993573,9.74809 -20.258902,-0.0567 -33.352849,-0.62786 -35.2380938,-1.53708 z M 135.954,141.5642 c -2.96682,-2.40238 -2.99171,-2.68076 -1.81438,-20.29049 1.16651,-17.44787 1.27519,-17.90023 4.76962,-19.8535 2.68533,-1.501024 4.51168,-1.670164 7.33333,-0.67915 l 3.75743,1.31967 0.36914,18.83859 c 0.30996,15.81871 0.0275,19.1802 -1.7619,20.96963 -2.84636,2.84636 -8.94312,2.69952 -12.65324,-0.30475 z M 61.999999,41.128353 C 53.933332,39.76085 46.133332,38.10809 44.666666,37.455553 34.059674,32.736378 30.99373,32.563959 19.333333,36.030886 11.335002,38.408989 6.6666665,36.209781 6.6666665,30.063739 c 0,-5.454625 2.6548036,-7.595017 12.2841665,-9.903912 3.456292,-0.828737 8.556292,-3.053279 11.333333,-4.943425 C 41.325468,7.7013235 46.463647,6.1646216 62.490283,5.5843493 80.021228,4.949611 89.118445,6.4598949 105.33333,12.696983 c 14.28165,5.493465 36.25887,13.133088 43.65372,15.174716 4.24323,1.1715 5.85915,2.379403 6.47713,4.841631 2.30323,9.176814 -3.32974,9.341938 -24.13085,0.707365 -3.57882,-1.485576 -4.6801,-1.281268 -10.45903,1.940358 -8.25923,4.604328 -20.20032,7.381245 -30.756043,7.152355 -4.565604,-0.099 -9.459959,0.108293 -10.876345,0.460656 -1.416386,0.352361 -9.175247,-0.478208 -17.241913,-1.845711 z M 100.3641,32.688069 C 106.41769,32.018513 112,29.689114 112,27.832618 c 0,-1.306127 -5.97631,-4.941876 -9.63107,-5.859164 -2.463331,-0.618255 -4.575871,0.300549 -8.794168,3.824837 -3.053601,2.551212 -6.263354,4.875684 -7.132785,5.165495 -3.133613,1.044537 0.466963,3.861347 4.018288,3.143595 1.946853,-0.393476 6.403578,-1.032166 9.903835,-1.419312 z M 51.999999,29.930825 c 0,-1.447166 -6.018031,-11.243822 -6.9132,-11.253889 -3.232663,-0.03635 -7.890081,2.952314 -7.51715,4.823758 0.513826,2.578489 14.43035,8.77966 14.43035,6.430131 z"
       id="path1170" />
  </g>
</svg>
