<?xml version="1.0" encoding="UTF-8" standalone="no"?>
<!-- Created with Inkscape (http://www.inkscape.org/) -->

<svg
   version="1.1"
   id="svg122"
   width="109.33333"
   height="158.66667"
   viewBox="0 0 109.33333 158.66667"
   sodipodi:docname="0027.svg"
   inkscape:version="1.1.2 (0a00cf5339, 2022-02-04)"
   xmlns:inkscape="http://www.inkscape.org/namespaces/inkscape"
   xmlns:sodipodi="http://sodipodi.sourceforge.net/DTD/sodipodi-0.dtd"
   xmlns="http://www.w3.org/2000/svg"
   xmlns:svg="http://www.w3.org/2000/svg">
  <defs
     id="defs126" />
  <sodipodi:namedview
     id="namedview124"
     pagecolor="#ffffff"
     bordercolor="#666666"
     borderopacity="1.0"
     inkscape:pageshadow="2"
     inkscape:pageopacity="0.0"
     inkscape:pagecheckerboard="0"
     showgrid="false"
     inkscape:zoom="5.5021007"
     inkscape:cx="5.2707142"
     inkscape:cy="79.242461"
     inkscape:window-width="2560"
     inkscape:window-height="1299"
     inkscape:window-x="0"
     inkscape:window-y="32"
     inkscape:window-maximized="1"
     inkscape:current-layer="g128" />
  <g
     inkscape:groupmode="layer"
     inkscape:label="Image"
     id="g128">
    <path
       style="fill:#000000;stroke-width:1.33333"
       d="m 4.0469116,150.75432 c -2.1370566,-3.99312 -1.7017663,-5.18624 2.7278227,-7.47686 2.4300462,-1.25663 3.8283417,-2.85332 3.4232517,-3.90898 -0.3766483,-0.98153 0.394998,-2.76181 1.714769,-3.95618 3.445742,-3.11836 20.174255,-2.28684 24.020516,1.19398 2.537834,2.29671 4.493181,2.41068 26.915635,1.56891 13.298445,-0.49925 24.697713,-1.22832 25.331707,-1.62015 0.633995,-0.39182 1.152718,-3.33346 1.152718,-6.53695 0,-4.6321 0.685665,-6.36388 3.349184,-8.45901 4.159839,-3.27213 8.411895,-2.36107 10.135215,2.1716 0.7039,1.85139 1.10787,8.51937 0.89771,14.81774 L 103.33333,150 70.56117,149.48664 c -29.612223,-0.46385 -33.118739,-0.28626 -36.366584,1.8418 -3.22667,2.1142 -4.416656,2.18067 -11.63086,0.64972 -6.047248,-1.28332 -8.415218,-1.32666 -9.566747,-0.17513 -2.389052,2.38904 -7.4261056,1.79884 -8.9500674,-1.04871 z M 22.950179,107.10375 C 17.689573,102.73535 21.009345,100.75098 34.83447,100 l 12.273066,-0.666665 3.055068,-5.333333 c 3.915426,-6.835288 3.906932,-9.906908 -0.04888,-17.676436 -1.770785,-3.47796 -4.51026,-9.699129 -6.087723,-13.824819 -1.577462,-4.125691 -4.614769,-9.174658 -6.74957,-11.219927 -5.963019,-5.712935 -9.251948,-19.836637 -5.494307,-23.594278 3.85162,-3.85162 0.523208,-10.915778 -5.864479,-12.446664 -9.499843,-2.276752 -8.470067,-6.1835618 2.235042,-8.4793969 7.801385,-1.6730974 17.149318,-1.8274715 19.51994,-0.3223572 3.533641,2.2435195 8.327371,10.2512721 8.327371,13.9105711 0,2.105739 0.698299,5.139171 1.551774,6.74096 1.588272,2.980844 15.112032,17.559101 30.295873,32.658148 l 8.514316,8.466768 -2.638093,3.560381 c -1.450951,1.958211 -5.882393,4.882436 -9.847648,6.498279 -6.35502,2.589671 -7.163202,3.345852 -6.818481,6.379748 0.215092,1.893019 -0.834908,5.163588 -2.333333,7.267932 -3.425088,4.810094 -3.430846,7.028474 -0.02624,10.109599 4.139368,3.74608 1.475462,4.9192 -12.261428,5.39964 -6.840209,0.23923 -17.862615,0.81246 -24.494236,1.27383 -10.493292,0.73004 -12.438224,0.5227 -14.992327,-1.59823 z M 64.084834,94.500375 c 2.614128,-5.124112 2.481115,-11.419552 -0.206185,-9.758708 -0.694482,0.429212 -2.803199,3.82043 -4.68604,7.536036 -2.66362,5.256403 -3.041996,6.991339 -1.704973,7.817667 2.375473,1.46812 3.465462,0.54372 6.597198,-5.594995 z"
       id="path1049" />
  </g>
</svg>
