<?xml version="1.0" encoding="UTF-8" standalone="no"?>
<!-- Created with Inkscape (http://www.inkscape.org/) -->

<svg
   version="1.1"
   id="svg132"
   width="62.666668"
   height="161.33333"
   viewBox="0 0 62.666668 161.33333"
   sodipodi:docname="0028.svg"
   inkscape:version="1.1.2 (0a00cf5339, 2022-02-04)"
   xmlns:inkscape="http://www.inkscape.org/namespaces/inkscape"
   xmlns:sodipodi="http://sodipodi.sourceforge.net/DTD/sodipodi-0.dtd"
   xmlns="http://www.w3.org/2000/svg"
   xmlns:svg="http://www.w3.org/2000/svg">
  <defs
     id="defs136" />
  <sodipodi:namedview
     id="namedview134"
     pagecolor="#ffffff"
     bordercolor="#666666"
     borderopacity="1.0"
     inkscape:pageshadow="2"
     inkscape:pageopacity="0.0"
     inkscape:pagecheckerboard="0"
     showgrid="false"
     inkscape:zoom="5.4111572"
     inkscape:cx="-18.849942"
     inkscape:cy="80.574262"
     inkscape:window-width="2560"
     inkscape:window-height="1299"
     inkscape:window-x="0"
     inkscape:window-y="32"
     inkscape:window-maximized="1"
     inkscape:current-layer="g138" />
  <g
     inkscape:groupmode="layer"
     inkscape:label="Image"
     id="g138">
    <path
       style="fill:#000000;stroke-width:1.33333"
       d="m 6.3624829,154.92858 c -1.1488488,-0.22261 -2.4027045,-1.60505 -2.7863459,-3.0721 -0.8199785,-3.1356 2.3995593,-4.82676 17.757197,-9.3275 12.836781,-3.76196 14.694353,-5.56638 15.810211,-15.35785 0.929829,-8.15912 -0.0075,-42.738912 -2.446392,-90.249569 C 33.913819,21.661753 33.621915,8.6117537 34.048478,7.9215614 c 1.064037,-1.7216487 13.508118,-1.5860219 16.81404,0.1832547 2.59381,1.3881645 2.66117,2.3411569 1.938028,27.4190979 -0.412048,14.289522 -1.026946,26.430387 -1.366441,26.979701 -0.339495,0.549313 -0.746632,17.160718 -0.904751,36.914234 -0.249958,31.226751 0.0013,36.472551 1.924912,40.182601 2.456285,4.73751 2.956354,13.11572 0.860162,14.41123 -1.370251,0.84686 -43.107064,1.66192 -46.9519451,0.9169 z"
       id="path928" />
  </g>
</svg>
