<?xml version="1.0" encoding="UTF-8" standalone="no"?>
<!-- Created with Inkscape (http://www.inkscape.org/) -->

<svg
   version="1.1"
   id="svg142"
   width="165.33333"
   height="166.66667"
   viewBox="0 0 165.33333 166.66667"
   sodipodi:docname="0029.svg"
   inkscape:version="1.1.2 (0a00cf5339, 2022-02-04)"
   xmlns:inkscape="http://www.inkscape.org/namespaces/inkscape"
   xmlns:sodipodi="http://sodipodi.sourceforge.net/DTD/sodipodi-0.dtd"
   xmlns="http://www.w3.org/2000/svg"
   xmlns:svg="http://www.w3.org/2000/svg">
  <defs
     id="defs146" />
  <sodipodi:namedview
     id="namedview144"
     pagecolor="#ffffff"
     bordercolor="#666666"
     borderopacity="1.0"
     inkscape:pageshadow="2"
     inkscape:pageopacity="0.0"
     inkscape:pagecheckerboard="0"
     showgrid="false"
     inkscape:zoom="5.2379998"
     inkscape:cx="30.927836"
     inkscape:cy="83.23788"
     inkscape:window-width="2560"
     inkscape:window-height="1299"
     inkscape:window-x="0"
     inkscape:window-y="32"
     inkscape:window-maximized="1"
     inkscape:current-layer="g148" />
  <g
     inkscape:groupmode="layer"
     inkscape:label="Image"
     id="g148">
    <path
       style="fill:#000000;stroke-width:1.33333"
       d="m 9.6597778,158.33334 c -3.0927297,-3.8657 -2.8938134,-7.2704 0.8736372,-14.9534 C 14.152924,135.99864 14.618122,132 11.857348,132 c -2.4320291,0 -1.213098,-7.9634 1.475985,-9.64276 3.445627,-2.15183 3.362103,-3.14581 -0.666667,-7.93373 -4.4413816,-5.27828 -4.2102375,-7.16429 1.316828,-10.74458 4.293915,-2.78149 6.26626,-6.345595 3.511599,-6.345595 -1.728269,0 -4.570396,-7.593457 -3.494,-9.335101 0.508536,-0.82283 2.373703,-2.046998 4.144813,-2.720372 4.759615,-1.809603 6.892519,-7.253772 4.065646,-10.377431 -2.61337,-2.887742 -2.898475,-6.78936 -0.544886,-7.456668 0.916667,-0.2599 4.277375,-1.183343 7.468241,-2.052095 6.36276,-1.732339 6.176523,-0.954028 3.4437,-14.391667 l -0.881273,-4.333333 6.484667,-0.02041 c 9.261591,-0.02916 10.525091,-1.130364 8.463673,-7.376523 -1.46366,-4.434932 -1.387278,-5.250708 0.629726,-6.725577 1.850283,-1.35296 3.441214,-1.333627 8.203778,0.09969 5.080906,1.529128 6.184646,1.501854 7.881251,-0.19475 1.085096,-1.0851 1.972903,-3.169494 1.972903,-4.63199 0,-3.606361 2.387147,-7.817107 4.431656,-7.817107 0.919141,0 3.94934,1.16148 6.733776,2.581066 6.341966,3.233319 8.078025,2.576189 9.613542,-3.638902 1.036587,-4.195638 1.825235,-4.99744 5.221025,-5.3081 2.94971,-0.26985 5.140891,0.713535 8.345046,3.745195 4.513283,4.270305 5.120943,3.992004 5.922903,-2.712592 0.49821,-4.165094 5.51208,-5.2156927 9.15552,-1.91843 2.37313,2.147654 2.90684,2.15457 8.26795,0.107142 7.19347,-2.747209 13.88827,-2.773003 23.12066,-0.08908 5.49927,1.598682 7.69555,3.014428 9.2052,5.933787 4.66124,9.013835 0.50292,23.695694 -7.5016,26.486086 -6.74032,2.349689 -21.12779,1.752699 -26.48392,-1.098919 l -4.63491,-2.467636 -2.39745,3.942298 c -1.86843,3.07238 -3.19941,3.849889 -6.03176,3.523522 -3.39952,-0.391718 -3.66089,-0.886728 -4.04576,-7.662241 -0.40569,-7.141911 -1.34176,-8.715827 -7.220575,-12.140755 -1.888494,-1.100215 -2.902692,-0.3824 -5.683392,4.022515 -3.823077,6.056146 -5.541629,6.502272 -10.381739,2.695042 -5.176702,-4.071995 -7.636172,-3.480415 -7.636172,1.83674 0,6.196003 -2.477831,7.888251 -9.916763,6.772715 -6.738399,-1.010486 -7.510194,0.13324 -4.519405,6.697309 2.215964,4.863509 -0.04508,6.572432 -8.203352,6.200177 -3.681597,-0.167989 -6.693813,0.04813 -6.693813,0.480263 0,0.432134 1.193597,3.12534 2.652437,5.984904 2.403614,4.711471 2.457219,5.394427 0.57143,7.280216 -1.144556,1.144555 -4.288152,2.090198 -6.985772,2.101427 -2.697619,0.01123 -5.804761,0.626423 -6.904761,1.367096 -1.661108,1.118491 -1.118088,2.104314 3.204685,5.817926 6.284878,5.399216 5.83872,8.436061 -1.328548,9.04297 -7.540499,0.638514 -8.807707,3.975677 -3.564028,9.385782 4.927572,5.083966 4.279253,7.505956 -2.373403,8.866566 -5.679759,1.16163 -6.296486,3.2928 -2.027129,7.00496 4.435753,3.85684 4.372115,8.24625 -0.167499,11.55312 l -3.589253,2.61459 3.584463,4.2599 c 3.873514,4.60341 3.591156,6.57602 -1.61579,11.28825 -1.748882,1.58271 -2.790165,4.15399 -2.790165,6.88984 0,2.40063 -0.942857,5.30764 -2.095238,6.46001 -2.506742,2.50675 -9.043613,2.7635 -10.9116502,0.42858 z"
       id="path807" />
  </g>
</svg>
