<?xml version="1.0" encoding="UTF-8" standalone="no"?>
<!-- Created with Inkscape (http://www.inkscape.org/) -->

<svg
   version="1.1"
   id="svg152"
   width="162.66667"
   height="156"
   viewBox="0 0 162.66667 156"
   sodipodi:docname="0030.svg"
   inkscape:version="1.1.2 (0a00cf5339, 2022-02-04)"
   xmlns:inkscape="http://www.inkscape.org/namespaces/inkscape"
   xmlns:sodipodi="http://sodipodi.sourceforge.net/DTD/sodipodi-0.dtd"
   xmlns="http://www.w3.org/2000/svg"
   xmlns:svg="http://www.w3.org/2000/svg">
  <defs
     id="defs156" />
  <sodipodi:namedview
     id="namedview154"
     pagecolor="#ffffff"
     bordercolor="#666666"
     borderopacity="1.0"
     inkscape:pageshadow="2"
     inkscape:pageopacity="0.0"
     inkscape:pagecheckerboard="0"
     showgrid="false"
     inkscape:zoom="5.5961538"
     inkscape:cx="32.879725"
     inkscape:cy="77.910653"
     inkscape:window-width="2560"
     inkscape:window-height="1299"
     inkscape:window-x="0"
     inkscape:window-y="32"
     inkscape:window-maximized="1"
     inkscape:current-layer="g158" />
  <g
     inkscape:groupmode="layer"
     inkscape:label="Image"
     id="g158">
    <path
       style="fill:#000000;stroke-width:1.33333"
       d="m 72.518801,147.98216 c -1.547993,-0.60079 -3.182617,-2.05156 -3.632498,-3.22393 -1.590734,-4.14539 -6.76858,-4.64476 -32.74397,-3.15799 -26.8730399,1.53815 -29.4756662,1.15539 -29.4756662,-4.33493 0,-5.6533 2.3424898,-6.12176 32.1525712,-6.43011 l 28.424643,-0.29401 3.435174,-4.11478 c 2.674769,-3.20394 4.086604,-3.90803 6.378059,-3.18075 1.618589,0.51372 2.942888,1.49361 2.942888,2.17752 0,1.89257 2.615424,1.48521 4.857142,-0.75651 3.182379,-3.18238 7.047082,-2.38419 9.538205,1.96996 l 2.27132,3.96996 27.409611,-0.20752 c 15.0753,-0.11413 28.1253,0.23479 29,0.7754 2.09107,1.29234 2.04148,6.80841 -0.0763,8.48569 -0.91667,0.726 -14.52771,1.71051 -30.24676,2.18779 -15.71905,0.47728 -28.619049,1.00674 -28.666666,1.17658 -1.550372,5.52975 -7.857818,8.04306 -10.639156,4.23935 -1.519775,-2.07841 -1.95868,-2.09963 -4.891831,-0.23632 -2.138724,1.35863 -4.168689,1.67963 -6.036792,0.9546 z m 2.166554,-47.94239 c -1.580788,-0.999498 -2.004074,-4.836243 -2.093908,-18.979589 -0.06193,-9.749766 0.45313,-18.476848 1.144573,-19.393514 1.738255,-2.30446 7.736623,-2.087396 11.30064,0.408938 2.801986,1.962588 2.963342,3.012743 2.963342,19.286422 0,15.651222 -0.233703,17.33589 -2.579012,18.591061 -3.192811,1.708742 -8.107436,1.748422 -10.735635,0.08668 z M 8.8271831,42.253685 C 5.262366,39.599249 2.6938699,20.342599 4.837704,12.343572 6.2660949,7.0139908 14.072146,6.3456371 74.666668,6.3648195 c 9.9,0.00313 31.800002,-0.1495132 48.666672,-0.3392159 18.81916,-0.2116629 31.31054,0.1661697 32.33333,0.9780007 1.15137,0.913901 1.66667,5.8382177 1.66667,15.9272117 0,22.47776 7.87289,20.350345 -76.442116,20.656203 C 28.55815,43.77686 10.422117,43.441305 8.8271831,42.253685 Z M 145.16176,30.023427 c 1.37755,-1.337688 1.52962,-3.039082 0.61666,-6.899479 L 144.56663,18 80.283318,17.726391 16,17.452783 v 7.162497 c 0,4.475744 0.625191,7.419473 1.666667,7.847557 0.916667,0.376783 29.566667,0.381548 63.666668,0.01053 49.109565,-0.53424 62.380145,-1.04362 63.828425,-2.45 z"
       id="path686" />
  </g>
</svg>
