<?xml version="1.0" encoding="UTF-8" standalone="no"?>
<!-- Created with Inkscape (http://www.inkscape.org/) -->

<svg
   version="1.1"
   id="svg162"
   width="142.66667"
   height="134.66667"
   viewBox="0 0 142.66667 134.66667"
   sodipodi:docname="0031.svg"
   inkscape:version="1.1.2 (0a00cf5339, 2022-02-04)"
   xmlns:inkscape="http://www.inkscape.org/namespaces/inkscape"
   xmlns:sodipodi="http://sodipodi.sourceforge.net/DTD/sodipodi-0.dtd"
   xmlns="http://www.w3.org/2000/svg"
   xmlns:svg="http://www.w3.org/2000/svg">
  <defs
     id="defs166" />
  <sodipodi:namedview
     id="namedview164"
     pagecolor="#ffffff"
     bordercolor="#666666"
     borderopacity="1.0"
     inkscape:pageshadow="2"
     inkscape:pageopacity="0.0"
     inkscape:pagecheckerboard="0"
     showgrid="false"
     inkscape:zoom="6.482673"
     inkscape:cx="29.463155"
     inkscape:cy="67.256207"
     inkscape:window-width="2560"
     inkscape:window-height="1299"
     inkscape:window-x="0"
     inkscape:window-y="32"
     inkscape:window-maximized="1"
     inkscape:current-layer="g168" />
  <g
     inkscape:groupmode="layer"
     inkscape:label="Image"
     id="g168">
    <path
       style="fill:#000000;stroke-width:1.33333"
       d="m 38.481405,126.12586 c -1.409449,-3.09341 -2.167951,-3.44953 -5.719834,-2.68551 -2.252197,0.48445 -5.715108,1.70856 -7.695357,2.72024 -4.43351,2.26501 -10.657531,2.38143 -12.799547,0.23941 -3.8452687,-3.84526 -0.227757,-9.06666 6.281608,-9.06666 3.512308,0 6.071747,-4.17538 8.173123,-13.33334 C 27.646882,99.966669 29.258149,93.966669 30.30199,90.666669 33.529777,80.462346 33.970125,72.503794 31.514321,68.755764 28.503066,64.160007 25.747347,55.365136 24.630061,46.784661 23.490087,38.029948 19.966619,34.01262 12.290707,32.715782 5.9701911,31.647938 3.6154898,29.415163 4.2309816,25.07339 c 0.3255109,-2.296203 2.5882715,-4.101127 8.9481074,-7.137584 7.086899,-3.38359 8.761537,-4.834942 10,-8.6666672 2.905629,-8.98982862 10.605968,-5.5012262 11.913881,5.3975282 0.308016,2.566667 2.130876,7.366667 4.050803,10.666667 1.919925,3.3 3.498001,7.276533 3.506835,8.83674 0.0088,1.560208 0.923045,3.589472 2.031584,4.509478 1.108538,0.920005 3.152101,4.242157 4.54125,7.382561 3.75735,8.494108 5.737599,9.094186 27.206158,8.244308 22.430794,-0.887969 25.81615,0.181639 37.64169,11.892953 15.02971,14.884528 23.2837,30.949108 23.62601,45.982846 0.25954,11.39906 -7.38244,17.40064 -11.97266,9.40264 l -2.15133,-3.74848 -7.83472,3.94513 c -7.12108,3.58577 -8.30042,3.8056 -12.9473,2.41336 -4.11377,-1.23252 -6.220997,-1.14069 -10.786235,0.47002 -8.331404,2.93949 -11.793924,2.59063 -13.598544,-1.37008 -2.135412,-4.68672 2.17027,-10.57101 7.874434,-10.76147 5.169241,-0.17261 6.44459,-1.03982 8.967959,-6.09803 3.035236,-6.08427 2.661698,-8.100517 -3.221798,-17.39032 -7.949071,-12.551259 -6.950652,-12.073641 -15.751076,-7.534911 -4.276142,2.205379 -10.271538,4.344662 -13.323102,4.753962 -3.74388,0.50216 -5.796375,1.525803 -6.311095,3.14754 -0.923072,2.908344 2.80861,18.096909 5.456332,22.208179 2.850602,4.42629 2.398745,5.90856 -3.490354,11.44977 -4.251394,4.00025 -6.770796,5.23333 -11.944643,5.8461 -6.14786,0.72812 -6.658187,0.55411 -8.181763,-2.78977 z m 4.073933,-7.40239 c 2.813674,-1.43543 5.510014,-3.63726 5.991867,-4.89295 1.09578,-2.85555 -1.730519,-16.550836 -3.908631,-18.93989 -2.938618,-3.223213 -7.835345,6.90193 -8.43033,17.43171 -0.280042,4.95605 -0.117556,9.011 0.361078,9.011 0.478636,0 3.172343,-1.17445 5.986016,-2.60987 z M 109.06667,110.4 c 1.69703,-1.69703 2.21508,-6.4 0.70499,-6.4 -1.67438,0 -5.77166,4.40608 -5.77166,6.20665 0,2.22542 2.92306,2.33696 5.06667,0.19335 z m 5.75219,-27.460379 c -0.81704,-0.272346 -1.48552,-1.445175 -1.48552,-2.606286 0,-1.16111 -0.38077,-1.730349 -0.84614,-1.264974 -0.46537,0.465374 -0.0268,2.815374 0.97458,5.222221 1.48143,3.560603 1.91594,3.888607 2.33166,1.760149 0.28102,-1.438764 -0.15754,-2.838764 -0.97458,-3.11111 z"
       id="path565" />
  </g>
</svg>
