<?xml version="1.0" encoding="UTF-8" standalone="no"?>
<!-- Created with Inkscape (http://www.inkscape.org/) -->

<svg
   version="1.1"
   id="svg172"
   width="158.66667"
   height="148"
   viewBox="0 0 158.66667 148"
   sodipodi:docname="0032.svg"
   inkscape:version="1.1.2 (0a00cf5339, 2022-02-04)"
   xmlns:inkscape="http://www.inkscape.org/namespaces/inkscape"
   xmlns:sodipodi="http://sodipodi.sourceforge.net/DTD/sodipodi-0.dtd"
   xmlns="http://www.w3.org/2000/svg"
   xmlns:svg="http://www.w3.org/2000/svg">
  <defs
     id="defs176" />
  <sodipodi:namedview
     id="namedview174"
     pagecolor="#ffffff"
     bordercolor="#666666"
     borderopacity="1.0"
     inkscape:pageshadow="2"
     inkscape:pageopacity="0.0"
     inkscape:pagecheckerboard="0"
     showgrid="false"
     inkscape:zoom="5.8986486"
     inkscape:cx="33.22795"
     inkscape:cy="73.915235"
     inkscape:window-width="2560"
     inkscape:window-height="1299"
     inkscape:window-x="0"
     inkscape:window-y="32"
     inkscape:window-maximized="1"
     inkscape:current-layer="g178" />
  <g
     inkscape:groupmode="layer"
     inkscape:label="Image"
     id="g178">
    <path
       style="fill:#000000;stroke-width:1.33333"
       d="m 66.000001,141.71619 c -7.545538,-0.41003 -20.310163,-2.78282 -26.596619,-4.944 -11.593032,-3.9855 -34.1172139,-20.81392 -34.0489068,-25.43886 0.063914,-4.32753 2.654659,-5.31471 13.5915878,-5.17896 6.079666,0.0755 23.353938,0.15161 38.387272,0.16922 90.559135,0.10609 85.104145,-0.49338 91.153445,10.01717 8.90406,15.47068 3.87984,30.11499 -8.56362,24.96075 -4.41486,-1.8287 -10.58982,-11.0578 -10.58982,-15.82756 v -2.95843 l -5.66667,3.52192 c -11.42777,7.10252 -24.427272,12.34797 -34.333335,13.85392 -13.714085,2.08483 -15.696021,2.23984 -23.333334,1.82483 z M 140.7597,121.90255 c -1.90182,-1.90181 -2.09303,-1.89996 -2.09303,0.0203 0,1.16234 0.75,3.32869 1.66667,4.81413 l 1.66666,2.70079 0.42636,-2.7211 c 0.2345,-1.4966 -0.5155,-3.66296 -1.66666,-4.81412 z M 68.420077,92.755169 C 58.656564,88.209324 54.608129,79.453972 57.427768,68.982637 60.277044,58.401229 71.621934,51.313661 82.520104,53.306532 94.524302,55.501655 101.30601,65.310041 99.437002,77.773457 98.214661,85.924612 94.680091,89.971183 85.919634,93.248891 76.785763,96.666309 76.82261,96.667349 68.420077,92.755169 Z M 15.68361,45.912911 c -2.007348,-1.089178 -4.02349,-3.469526 -4.480315,-5.289663 -1.01033,-4.025473 2.500776,-9.956581 5.894109,-9.956581 1.303095,0 3.033308,-0.664046 3.844918,-1.475655 1.078652,-1.078652 3.438161,-0.741388 8.770251,1.253601 6.949413,2.60011 9.463258,2.702987 53.124345,2.174078 25.206362,-0.30535 47.452552,-0.911171 49.435982,-1.346268 6.02837,-1.322428 6.45837,-9.223768 0.58003,-10.658355 C 128.04234,19.44006 104.85597,19.290208 72.000002,20.22078 45.379089,20.974757 39.463495,21.521281 32.666667,23.854663 22.198498,27.448432 18.717123,27.356887 14.422762,23.374931 9.6157214,18.917591 8.6482248,15.244201 11.239629,11.289219 14.267148,6.6686399 18.416027,6.0773619 34.171205,8.021122 50.035729,9.9783723 102.88656,9.0846897 110.66667,6.7276199 c 3.59013,-1.087669 6.97353,-0.9101394 14.66667,0.7695701 17.26846,3.770376 21.33333,7.049049 21.33333,17.207198 0,8.253104 -3.47057,12.874267 -11.50305,15.316645 -3.20756,0.975298 -22.58915,1.948292 -51.163618,2.568516 -37.805278,0.820584 -47.03936,1.391444 -51.834304,3.204452 -7.11786,2.691323 -11.680478,2.72424 -16.482088,0.118907 z"
       id="path444" />
  </g>
</svg>
