<?xml version="1.0" encoding="UTF-8" standalone="no"?>
<!-- Created with Inkscape (http://www.inkscape.org/) -->

<svg
   version="1.1"
   id="svg182"
   width="160"
   height="53.333332"
   viewBox="0 0 160 53.333332"
   sodipodi:docname="0033.svg"
   inkscape:version="1.1.2 (0a00cf5339, 2022-02-04)"
   xmlns:inkscape="http://www.inkscape.org/namespaces/inkscape"
   xmlns:sodipodi="http://sodipodi.sourceforge.net/DTD/sodipodi-0.dtd"
   xmlns="http://www.w3.org/2000/svg"
   xmlns:svg="http://www.w3.org/2000/svg">
  <defs
     id="defs186" />
  <sodipodi:namedview
     id="namedview184"
     pagecolor="#ffffff"
     bordercolor="#666666"
     borderopacity="1.0"
     inkscape:pageshadow="2"
     inkscape:pageopacity="0.0"
     inkscape:pagecheckerboard="0"
     showgrid="false"
     inkscape:zoom="8.0125"
     inkscape:cx="46.053042"
     inkscape:cy="26.708268"
     inkscape:window-width="2560"
     inkscape:window-height="1299"
     inkscape:window-x="0"
     inkscape:window-y="32"
     inkscape:window-maximized="1"
     inkscape:current-layer="g188" />
  <g
     inkscape:groupmode="layer"
     inkscape:label="Image"
     id="g188">
    <path
       style="fill:#000000;stroke-width:1.33333"
       d="M 68,43.802419 C 24.711908,42.357072 10.259363,41.459362 8.9335412,40.13354 6.681944,37.881943 6.3164568,27.52133 8.3909881,24.753571 10.538956,21.887837 20.638021,20.30721 39.333333,19.910714 55.771924,19.562081 57.87612,18.845117 58.666667,13.323248 c 0.600922,-4.197367 1.061132,-4.6363281 4.666666,-4.4512056 2.2,0.1129574 8.2687,1.1174454 13.486,2.2321966 7.058988,1.508254 10.973014,1.692711 15.298007,0.720949 3.196604,-0.718229 9.84844,-1.380717 14.78186,-1.472196 7.91602,-0.146784 9.77121,0.33182 15.79059,4.073674 6.15563,3.826554 7.84292,4.24 17.30357,4.24 7.75207,0 11.02864,0.545807 12.57807,2.095239 2.40434,2.404341 2.80997,11.851274 0.74237,17.289478 -1.49595,3.934647 -3.37355,3.988519 -18.39532,0.527796 -6.49138,-1.495488 -7.93583,-1.34898 -17.33333,1.758093 C 104.50593,44.661628 101.02301,44.905024 68,43.802419 Z"
       id="path323" />
  </g>
</svg>
