<?xml version="1.0" encoding="UTF-8" standalone="no"?>
<!-- Created with Inkscape (http://www.inkscape.org/) -->

<svg
   version="1.1"
   id="svg192"
   width="109.33333"
   height="158.66667"
   viewBox="0 0 109.33333 158.66667"
   sodipodi:docname="0034.svg"
   inkscape:version="1.1.2 (0a00cf5339, 2022-02-04)"
   xmlns:inkscape="http://www.inkscape.org/namespaces/inkscape"
   xmlns:sodipodi="http://sodipodi.sourceforge.net/DTD/sodipodi-0.dtd"
   xmlns="http://www.w3.org/2000/svg"
   xmlns:svg="http://www.w3.org/2000/svg">
  <defs
     id="defs196" />
  <sodipodi:namedview
     id="namedview194"
     pagecolor="#ffffff"
     bordercolor="#666666"
     borderopacity="1.0"
     inkscape:pageshadow="2"
     inkscape:pageopacity="0.0"
     inkscape:pagecheckerboard="0"
     showgrid="false"
     inkscape:zoom="5.5021007"
     inkscape:cx="54.706378"
     inkscape:cy="79.242461"
     inkscape:window-width="2560"
     inkscape:window-height="1299"
     inkscape:window-x="0"
     inkscape:window-y="32"
     inkscape:window-maximized="1"
     inkscape:current-layer="g198" />
  <g
     inkscape:groupmode="layer"
     inkscape:label="Image"
     id="g198">
    <path
       style="fill:#000000;stroke-width:1.33333"
       d="M 34.046798,150.44744 C 24.873001,146.82622 13.911937,137.11783 10.446727,129.54449 2.6708115,112.54995 1.8873143,97.47465 8.1030991,84.450643 12.493869,75.250612 25.240071,61.333335 29.275191,61.333335 c 1.273309,0 4.115399,-0.898104 6.315757,-1.995787 16.321618,-8.142296 43.472976,-2.605611 54.914913,11.198211 7.923819,9.55948 9.704099,12.903676 11.618149,21.824295 3.35253,15.624776 1.45812,29.330196 -5.544862,40.115246 -6.878841,10.59386 -8.654473,11.91946 -25.075316,18.71992 -7.552191,3.12764 -28.709321,2.70526 -37.457034,-0.74778 z M 45.650747,128.6986 c 1.162722,-9.30824 4.350914,-13.48924 9.332693,-12.23889 3.760049,0.94371 6.349891,5.84405 6.349891,12.01486 0,5.69602 2.742806,9.43749 6.130294,8.36234 5.630803,-1.78715 19.203039,-17.44374 19.203039,-22.15215 0,-0.77026 -3.618868,-1.35142 -8.415252,-1.35142 -6.625844,0 -9.035747,-0.57808 -11.333333,-2.71861 -3.294165,-3.06898 -3.429241,-3.76334 -1.645018,-8.4562 1.332892,-3.505775 4.804077,-4.683076 15.393603,-5.22096 7.472647,-0.379565 7.535972,-3.731984 0.245019,-12.971159 -5.359447,-6.791548 -17.045952,-14.943255 -18.844542,-13.144664 -0.40795,0.40795 -1.004926,4.204004 -1.326611,8.435676 -0.644592,8.47939 -3.360321,12.742579 -8.117256,12.742579 -4.629002,0 -6.658719,-3.593871 -6.328531,-11.205466 0.162108,-3.736994 -0.223492,-7.625742 -0.85689,-8.641664 -2.596246,-4.164184 -16.088941,3.530087 -21.571044,12.300987 -7.541653,12.066006 -6.751016,14.129994 5.326891,13.906036 10.590547,-0.196377 12.139632,0.526746 12.139632,5.666855 0,6.03625 -4.500376,9.30659 -12.80697,9.30659 -9.968164,0 -10.222557,2.68098 -1.309947,13.80514 4.334867,5.41051 12.077846,10.32404 15.446832,9.80223 1.378989,-0.21359 2.303096,-2.76307 2.9875,-8.24211 z M 18.999999,42.372674 C 16.498558,41.166276 16,39.848373 16,34.442402 16,23.913969 25.434398,11.446542 36.919175,6.7980013 45.26916,3.4182881 75.724883,5.1746578 77.037195,9.1115919 c 0.261661,0.7849862 1.930597,3.4060091 3.708744,5.8244951 4.473141,6.083988 7.173644,12.20235 8.485726,19.225583 1.852063,9.913611 2.073772,9.851848 -34.993572,9.748091 -20.258902,-0.05671 -33.352848,-0.627867 -35.238094,-1.537087 z"
       id="path202" />
  </g>
</svg>
