<?xml version="1.0" encoding="UTF-8" standalone="no"?>
<!-- Created with Inkscape (http://www.inkscape.org/) -->

<svg
   version="1.1"
   id="svg2"
   width="158.66667"
   height="150.66667"
   viewBox="0 0 158.66667 150.66667"
   sodipodi:docname="0035.svg"
   inkscape:version="1.1.2 (0a00cf5339, 2022-02-04)"
   xmlns:inkscape="http://www.inkscape.org/namespaces/inkscape"
   xmlns:sodipodi="http://sodipodi.sourceforge.net/DTD/sodipodi-0.dtd"
   xmlns="http://www.w3.org/2000/svg"
   xmlns:svg="http://www.w3.org/2000/svg">
  <defs
     id="defs6" />
  <sodipodi:namedview
     id="namedview4"
     pagecolor="#ffffff"
     bordercolor="#666666"
     borderopacity="1.0"
     inkscape:pageshadow="2"
     inkscape:pageopacity="0.0"
     inkscape:pagecheckerboard="0"
     showgrid="false"
     inkscape:zoom="5.7942476"
     inkscape:cx="79.389082"
     inkscape:cy="75.247043"
     inkscape:window-width="2560"
     inkscape:window-height="1299"
     inkscape:window-x="0"
     inkscape:window-y="32"
     inkscape:window-maximized="1"
     inkscape:current-layer="g8" />
  <g
     inkscape:groupmode="layer"
     inkscape:label="Image"
     id="g8">
    <path
       style="fill:#000000;stroke-width:1.33333"
       d="m 138.37702,145.93258 c -0.40375,-0.40376 -5.75375,-0.98938 -11.88889,-1.30139 -6.13514,-0.312 -13.58345,-1.22565 -16.55181,-2.03035 -3.50465,-0.95008 -12.85483,-1.1783 -26.666669,-0.65092 -41.780797,1.59535 -42.689769,1.43768 -49.661621,-8.61453 -1.984416,-2.86119 -4.208029,-5.45502 -4.941363,-5.76407 -0.733333,-0.30905 -4.150974,0.33805 -7.594757,1.43801 -5.575712,1.78089 -6.81687,1.77876 -11.3333341,-0.0195 -2.78955,-1.11064 -5.275043,-3.03518 -5.5233178,-4.27674 -0.8172255,-4.08675 0.9917925,-8.19494 4.4154305,-10.02722 4.4407794,-2.37663 4.2516964,-4.54269 -0.704626,-8.0719 -5.7353902,-4.08396 -5.0024047,-8.467783 1.5071477,-9.013921 3.7945317,-0.318352 5.0241177,0.177343 6.0296327,2.430781 l 1.263088,2.83069 3.514007,-2.76412 c 4.519745,-3.555228 9.886311,-3.641349 10.793251,-0.173204 0.679384,2.597964 -2.596178,6.742424 -5.328858,6.742424 -1.296901,0 -3.037664,2.93229 -3.037664,5.1169 0,0.49434 1.81998,1.7044 4.044399,2.68903 3.739975,1.65547 8.243096,5.74504 15.523876,14.09822 4.5586,5.23004 9.206946,5.71817 17.020894,1.78741 16.963355,-8.53334 31.692725,-8.13041 66.077504,1.80757 C 127.9,132.90758 135.4,133.92374 142,134.4239 c 11.77552,0.89237 12.00776,0.97655 12.41455,4.49981 0.32919,2.85118 -0.41215,4.01794 -3.60045,5.66667 -3.93399,2.03435 -10.98407,2.79515 -12.43708,1.34215 z M 4.9098757,95.132099 c -0.5004316,-0.50043 -0.9098756,-4.019852 -0.9098756,-7.820934 0,-8.694059 4.7880337,-15.844369 14.9602759,-22.341238 12.673394,-8.09432 25.650678,-9.0354 40.283828,-2.92128 11.057713,4.620208 20.034722,17.910856 19.164432,28.373342 l -0.408534,4.911346 -36.090125,0.35432 C 22.060307,95.882531 5.4103074,95.632531 4.9098757,95.132099 Z M 133.66667,92.450294 c -2.09986,-0.847309 -2.3507,-34.014146 -0.28643,-37.871281 1.61035,-3.00894 10.77942,-3.655504 12.93819,-0.912345 1.55549,1.976572 1.49779,35.58165 -0.0653,38.000001 -1.04876,1.622648 -9.24287,2.132808 -12.5865,0.783625 z M 59.333335,39.654326 C 51.266668,38.364205 43.466668,36.774757 42.000001,36.122219 31.393009,31.403045 28.327065,31.230626 16.666667,34.697553 8.6683358,37.075655 4.0000001,34.876447 4.0000001,28.730406 c 0,-5.454625 2.6548036,-7.595018 12.2841669,-9.903912 3.456292,-0.828738 8.556292,-3.053279 11.333334,-4.943426 11.041302,-7.5150779 16.179481,-9.0517798 32.206118,-9.632052 17.530945,-0.6347383 26.628163,0.8755456 42.843051,7.112634 14.28165,5.493465 36.25887,13.133088 43.65372,15.174716 4.24323,1.1715 5.85915,2.379403 6.47713,4.841631 2.3046,9.182265 -3.1997,9.346291 -24.13085,0.719089 -3.59226,-1.480623 -4.74753,-1.248441 -11.33333,2.277725 -13.45024,7.201517 -34.177426,9.087517 -58.000005,5.277515 z m 39.058234,-8.276408 c 5.564861,-0.740103 10.941771,-3.137519 10.941771,-4.878633 0,-1.306127 -5.97631,-4.941877 -9.631077,-5.859165 -2.463326,-0.618254 -4.575866,0.30055 -8.794164,3.824838 -3.053601,2.551212 -6.263355,4.875684 -7.132785,5.165495 -3.365775,1.121924 0.552405,3.76664 4.661996,3.146778 2.326147,-0.350858 6.805564,-0.98055 9.954259,-1.399313 z M 49.333334,28.597491 c 0,-1.447165 -6.01803,-11.243821 -6.9132,-11.253888 -3.232663,-0.03635 -7.890081,2.952313 -7.517151,4.823757 0.513827,2.57849 14.430351,8.779661 14.430351,6.430131 z"
       id="path12" />
  </g>
</svg>
