<?xml version="1.0" encoding="UTF-8" standalone="no"?>
<!-- Created with Inkscape (http://www.inkscape.org/) -->

<svg
   version="1.1"
   id="svg2"
   width="47.040001"
   height="48.959999"
   viewBox="0 0 47.040001 48.959999"
   sodipodi:docname="0036.svg"
   inkscape:version="1.1.2 (0a00cf5339, 2022-02-04)"
   xmlns:inkscape="http://www.inkscape.org/namespaces/inkscape"
   xmlns:sodipodi="http://sodipodi.sourceforge.net/DTD/sodipodi-0.dtd"
   xmlns="http://www.w3.org/2000/svg"
   xmlns:svg="http://www.w3.org/2000/svg">
  <defs
     id="defs6" />
  <sodipodi:namedview
     id="namedview4"
     pagecolor="#ffffff"
     bordercolor="#666666"
     borderopacity="1.0"
     inkscape:pageshadow="2"
     inkscape:pageopacity="0.0"
     inkscape:pagecheckerboard="0"
     showgrid="false"
     inkscape:zoom="17.830883"
     inkscape:cx="23.498556"
     inkscape:cy="24.451958"
     inkscape:window-width="2560"
     inkscape:window-height="1299"
     inkscape:window-x="0"
     inkscape:window-y="32"
     inkscape:window-maximized="1"
     inkscape:current-layer="g8" />
  <g
     inkscape:groupmode="layer"
     inkscape:label="Image"
     id="g8">
    <path
       style="fill:#000000;stroke-width:0.32"
       d="m 3.0933334,46.506665 c -0.3237622,-0.32376 -0.2549397,-3.878458 0.087338,-4.511008 0.1653691,-0.305613 0.3839163,-0.915658 0.4856606,-1.355658 0.1017443,-0.44 0.7631351,-1.232 1.4697571,-1.76 0.7066225,-0.528 1.6760753,-1.26496 2.1543396,-1.637693 0.9825508,-0.765737 2.342986,-1.065081 5.8706423,-1.291747 2.360113,-0.151648 2.527629,-0.113328 5.05101,1.155402 1.924687,0.967715 2.697498,1.540909 2.943426,2.183145 0.183418,0.478992 0.754463,1.740586 1.26899,2.803543 0.514527,1.06296 0.935503,2.16616 0.935503,2.451555 0,0.285398 -0.443048,0.891702 -0.984552,1.34735 l -0.984552,0.828445 h -9.042115 c -4.9731622,0 -9.138114,-0.096 -9.2554476,-0.213334 z M 40.699335,44.391493 c -0.603913,-0.72767 -4.323984,-0.999292 -5.482323,-0.400291 -1.170531,0.605306 -3.851546,0.637338 -4.647225,0.05552 -0.844457,-0.617482 -1.192556,-3.027626 -1.346958,-9.325984 -0.07334,-2.991591 -0.270476,-5.576391 -0.438085,-5.744 -0.583591,-0.58359 -0.298491,-1.443541 0.639365,-1.928525 0.760067,-0.393045 2.280323,-0.488218 7.798666,-0.488218 h 6.85456 l 0.217687,1.924097 c 0.119728,1.058253 0.125929,2.072561 0.01379,2.254018 -0.112144,0.181456 -0.03834,0.529414 0.164022,0.77324 0.252909,0.304737 0.342739,2.150284 0.28736,5.903778 -0.07989,5.414694 -0.08753,5.467133 -0.911949,6.256976 -1.045024,1.001197 -2.616976,1.360317 -3.148902,0.719385 z M 2.6893366,18.718111 c -0.4171554,-0.636659 -0.4547099,-0.982822 -0.1822594,-1.68 0.1887368,-0.482961 0.385855,-1.23371 0.4380404,-1.66833 0.085553,-0.712523 0.2207347,-0.780445 1.3748825,-0.690814 1.4073242,0.109293 4.3794007,0.0815 8.3199999,-0.07781 1.408,-0.05692 3.604,-0.125468 4.88,-0.152323 2.018608,-0.04249 2.32,-0.125043 2.32,-0.635496 0,-0.322667 -0.105557,-0.692224 -0.234571,-0.821238 -0.437759,-0.437759 -0.984028,-2.752272 -0.692163,-2.932655 0.157704,-0.097466 0.290098,-0.4927125 0.294209,-0.8783256 0.0041,-0.3856131 0.400112,-1.4165494 0.88,-2.2909699 0.726859,-1.3244317 1.076788,-1.6378515 2.096033,-1.8773478 1.103381,-0.2592662 1.315916,-0.1989594 2.164711,0.6142387 1.147727,1.0995917 2.851782,4.5020726 2.851782,5.6941436 0,0.478832 -0.210257,1.277195 -0.467238,1.774141 -0.256981,0.496946 -0.376981,0.993795 -0.266667,1.104109 0.305248,0.305248 3.232185,0.239321 3.427811,-0.07721 0.09442,-0.152779 2.370922,-0.301596 5.058884,-0.330703 2.687965,-0.02911 5.39121,-0.106082 6.00721,-0.171054 1.656467,-0.174714 2.173264,0.06218 2.739702,1.255857 0.788592,1.661836 0.515104,2.451422 -1.132604,3.269941 -1.204692,0.598445 -1.535959,0.647929 -2.080001,0.310703 -0.460764,-0.28561 -1.844963,-0.366292 -4.807097,-0.280196 -2.288,0.0665 -4.484,0.113935 -4.88,0.105406 -3.38674,-0.07295 -4.371026,-0.0118 -4.740052,0.294467 -0.242871,0.201565 -0.769532,0.141349 -1.525182,-0.174381 -1.370921,-0.572808 -4.135465,-0.632849 -5.110562,-0.110992 -0.381546,0.204197 -2.563126,0.431746 -4.847954,0.505664 -2.284829,0.07392 -4.401722,0.266848 -4.7042054,0.428732 C 9.5695615,19.387549 7.9479275,19.52 6.2684142,19.52 3.3623738,19.52 3.1893543,19.48124 2.6893366,18.718111 Z"
       id="path12" />
  </g>
</svg>
