<?xml version="1.0" encoding="UTF-8" standalone="no"?>
<!-- Created with Inkscape (http://www.inkscape.org/) -->

<svg
   version="1.1"
   id="svg2"
   width="161.33333"
   height="154.66667"
   viewBox="0 0 161.33333 154.66667"
   sodipodi:docname="0037.svg"
   inkscape:version="1.1.2 (0a00cf5339, 2022-02-04)"
   xmlns:inkscape="http://www.inkscape.org/namespaces/inkscape"
   xmlns:sodipodi="http://sodipodi.sourceforge.net/DTD/sodipodi-0.dtd"
   xmlns="http://www.w3.org/2000/svg"
   xmlns:svg="http://www.w3.org/2000/svg">
  <defs
     id="defs6" />
  <sodipodi:namedview
     id="namedview4"
     pagecolor="#ffffff"
     bordercolor="#666666"
     borderopacity="1.0"
     inkscape:pageshadow="2"
     inkscape:pageopacity="0.0"
     inkscape:pagecheckerboard="0"
     showgrid="false"
     inkscape:zoom="5.6443964"
     inkscape:cx="32.598703"
     inkscape:cy="77.244752"
     inkscape:window-width="2560"
     inkscape:window-height="1299"
     inkscape:window-x="0"
     inkscape:window-y="32"
     inkscape:window-maximized="1"
     inkscape:current-layer="g8" />
  <g
     inkscape:groupmode="layer"
     inkscape:label="Image"
     id="g8">
    <path
       style="fill:#000000;stroke-width:1.33333"
       d="m 49.666666,146.37268 c -2.501442,-1.2064 -3,-2.5243 -3,-7.93028 0,-10.52843 9.434398,-22.99586 20.919175,-27.6444 8.349985,-3.37971 38.805709,-1.62334 40.118019,2.31359 0.26166,0.78499 1.9306,3.40601 3.70875,5.8245 4.47314,6.08399 7.17364,12.20235 8.48572,19.22558 1.85206,9.91361 2.07377,9.85185 -34.99357,9.74809 -20.258903,-0.0567 -33.352849,-0.62786 -35.238094,-1.53708 z M 68.666665,43.049518 C 61.121127,42.639497 48.356503,40.266705 42.070047,38.105523 30.477015,34.120029 7.9528345,17.291604 8.0211416,12.666667 8.0850561,8.3391334 10.6758,7.3519506 21.612729,7.4876988 c 6.079665,0.07546 23.353937,0.1516102 38.38727,0.1692218 90.559131,0.1060906 85.104141,-0.4933772 91.153441,10.0171714 8.90406,15.470683 3.87984,30.114996 -8.56362,24.960745 C 138.17496,40.806142 132,31.577041 132,26.807285 v -2.95843 l -5.66667,3.521915 c -11.42777,7.102524 -24.42727,12.34798 -34.333332,13.853918 -13.714085,2.08484 -15.696021,2.239841 -23.333333,1.82483 z M 143.42636,23.235882 c -1.90182,-1.901811 -2.09303,-1.899955 -2.09303,0.02031 0,1.162332 0.75,3.328688 1.66667,4.814126 l 1.66666,2.700796 0.42636,-2.721102 c 0.2345,-1.496605 -0.5155,-3.662961 -1.66666,-4.814125 z"
       id="path1471" />
  </g>
</svg>
