<?xml version="1.0" encoding="UTF-8" standalone="no"?>
<!-- Created with Inkscape (http://www.inkscape.org/) -->

<svg
   version="1.1"
   id="svg12"
   width="158.66667"
   height="158.66667"
   viewBox="0 0 158.66667 158.66667"
   sodipodi:docname="0038.svg"
   inkscape:version="1.1.2 (0a00cf5339, 2022-02-04)"
   xmlns:inkscape="http://www.inkscape.org/namespaces/inkscape"
   xmlns:sodipodi="http://sodipodi.sourceforge.net/DTD/sodipodi-0.dtd"
   xmlns="http://www.w3.org/2000/svg"
   xmlns:svg="http://www.w3.org/2000/svg">
  <defs
     id="defs16" />
  <sodipodi:namedview
     id="namedview14"
     pagecolor="#ffffff"
     bordercolor="#666666"
     borderopacity="1.0"
     inkscape:pageshadow="2"
     inkscape:pageopacity="0.0"
     inkscape:pagecheckerboard="0"
     showgrid="false"
     inkscape:zoom="5.5021007"
     inkscape:cx="29.988546"
     inkscape:cy="79.242461"
     inkscape:window-width="2560"
     inkscape:window-height="1299"
     inkscape:window-x="0"
     inkscape:window-y="32"
     inkscape:window-maximized="1"
     inkscape:current-layer="g18" />
  <g
     inkscape:groupmode="layer"
     inkscape:label="Image"
     id="g18">
    <path
       style="fill:#000000;stroke-width:1.33333"
       d="m 47.000001,153.03935 c -2.501441,-1.2064 -3,-2.52431 -3,-7.93028 0,-10.52843 9.434399,-22.99586 20.919176,-27.6444 8.349986,-3.37971 38.805713,-1.62334 40.118023,2.31359 0.26166,0.78499 1.9306,3.40601 3.70874,5.8245 4.47315,6.08398 7.17365,12.20235 8.48573,19.22558 1.85206,9.91361 2.07377,9.85185 -34.993574,9.74809 -20.258903,-0.0567 -33.35285,-0.62787 -35.238095,-1.53708 z M 6.9333335,39.733334 C 4.7184848,37.518486 5.0033029,29.215394 7.40301,26.041198 c 1.0916771,-1.444008 2.621251,-4.988819 3.399054,-7.877356 0.777802,-2.888538 3.12133,-6.95903 5.207839,-9.0455399 3.360293,-3.3602934 4.223451,-3.6302459 7.556103,-2.3631736 2.069347,0.7867642 4.705463,2.2838966 5.858036,3.3269605 1.813005,1.640748 2.442616,1.633952 4.669107,-0.0504 3.969228,-3.002741 6.788292,-2.4113022 9.999055,2.097798 l 2.940454,4.129488 2.614607,-4.129488 c 3.062804,-4.8373672 7.439659,-5.4183927 11.019403,-1.46282 3.005531,3.321073 4.065997,3.330155 7.570911,0.06483 2.772332,-2.5828201 2.830886,-2.5803842 8.012643,0.333334 L 81.470124,14 83.948786,11 c 3.060949,-3.704759 5.579631,-3.8010622 8.717883,-0.333333 3.016117,3.332772 4.063188,3.332772 7.640501,0 3.67929,-3.4277815 4.51042,-3.3605604 8.24273,0.666667 3.56331,3.844874 5.13262,4.125732 7.4501,1.333333 2.10767,-2.539581 7.1896,-2.583041 9.26756,-0.07925 2.1154,2.548899 4.36696,1.519891 7.21171,-3.2958938 1.76561,-2.9889379 3.31725,-3.9581848 6.33655,-3.9581848 3.53194,0 4.36824,0.8165837 7.16889,7.0000006 4.17804,9.224441 8.01271,24.01292 6.94683,26.790555 -1.00968,2.631192 -7.96642,3.011364 -9.93226,0.542779 -0.72997,-0.916667 -2.13769,-3.954626 -3.12828,-6.751019 -2.33364,-6.587866 -4.69125,-8.632716 -5.82706,-5.054051 -0.46586,1.467764 -1.99366,3.032593 -3.39511,3.477399 -2.84838,0.90404 -7.98216,-1.343571 -7.98216,-3.494654 0,-0.767342 -2.02082,-0.146232 -4.49071,1.380246 -5.57303,3.44432 -6.89078,3.45548 -11.16351,0.09455 -3.32816,-2.617929 -3.44951,-2.621829 -5.16952,-0.166174 -3.004587,4.289652 -6.738197,4.30479 -10.903704,0.04421 l -3.785052,-3.871443 -2.901602,3.337135 c -3.660582,4.21004 -5.219845,4.186752 -9.74174,-0.1455 l -3.635087,-3.482633 -1.758601,2.815966 C 66.66888,31.771 59.712911,31.666823 56.829297,27.666673 l -2.162629,-3 -2.16263,3 c -2.678282,3.715315 -7.310358,3.862308 -10.504037,0.333334 -1.327315,-1.466667 -3.15033,-2.666667 -4.051142,-2.666667 -0.900813,0 -1.951649,1.2 -2.33519,2.666667 -1.098851,4.20201 -6.871987,3.453249 -10.280335,-1.333334 -1.566539,-2.2 -3.293966,-4 -3.838727,-4 -0.54476,0 -1.778459,3.074555 -2.741552,6.832344 C 16.237104,39.315735 11.027,43.827001 6.9333335,39.733334 Z"
       id="path1350" />
  </g>
</svg>
