<?xml version="1.0" encoding="UTF-8" standalone="no"?>
<!-- Created with Inkscape (http://www.inkscape.org/) -->

<svg
   version="1.1"
   id="svg22"
   width="160"
   height="154.66667"
   viewBox="0 0 160 154.66667"
   sodipodi:docname="0039.svg"
   inkscape:version="1.1.2 (0a00cf5339, 2022-02-04)"
   xmlns:inkscape="http://www.inkscape.org/namespaces/inkscape"
   xmlns:sodipodi="http://sodipodi.sourceforge.net/DTD/sodipodi-0.dtd"
   xmlns="http://www.w3.org/2000/svg"
   xmlns:svg="http://www.w3.org/2000/svg">
  <defs
     id="defs26" />
  <sodipodi:namedview
     id="namedview24"
     pagecolor="#ffffff"
     bordercolor="#666666"
     borderopacity="1.0"
     inkscape:pageshadow="2"
     inkscape:pageopacity="0.0"
     inkscape:pagecheckerboard="0"
     showgrid="false"
     inkscape:zoom="5.6443964"
     inkscape:cx="31.890035"
     inkscape:cy="77.244752"
     inkscape:window-width="2560"
     inkscape:window-height="1299"
     inkscape:window-x="0"
     inkscape:window-y="32"
     inkscape:window-maximized="1"
     inkscape:current-layer="g28" />
  <g
     inkscape:groupmode="layer"
     inkscape:label="Image"
     id="g28">
    <path
       style="fill:#000000;stroke-width:1.33333"
       d="m 34.302839,148 c -1.864564,-1.46666 -5.34833,-2.66666 -7.7417,-2.66666 -3.452722,0 -5.602199,-1.30822 -10.406075,-6.33334 -3.329969,-3.48333 -7.2771187,-6.94723 -8.7714433,-7.69756 -3.7622656,-1.8891 -4.302574,-8.03928 -0.8933182,-10.16839 2.2550855,-1.40833 2.5406115,-2.62667 1.8943579,-8.08327 -0.9024088,-7.61944 1.3495333,-10.9956 8.1901746,-12.27891 5.41929,-1.016668 8.380976,0.0314 10.318294,3.65128 1.276162,2.38453 0.896007,3.2684 -2.695258,6.26652 -5.47929,4.57431 -4.179766,6.19974 9.99735,12.50459 l 10.86189,4.83049 23.13811,-0.7307 C 80.921183,126.89217 97.933333,125.99173 106,125.29308 c 8.06667,-0.69865 18.96393,-1.2754 24.21614,-1.28167 L 139.7656,124 l 0.8928,-5.2844 c 0.49104,-2.90642 0.54645,-5.8448 0.1232,-6.52973 -1.56388,-2.53039 0.93391,-9.74652 3.74105,-10.80796 7.08436,-2.678767 10.14402,4.14219 10.14402,22.61441 0,10.65698 -0.41306,13.30152 -2.35156,15.05586 -2.10947,1.90902 -7.33076,2.017 -50.71353,1.04869 -26.599069,-0.59371 -48.691872,-1.40939 -49.095112,-1.81263 -0.403241,-0.40324 -2.482159,-0.12346 -4.619817,0.62174 C 44.653784,140.03296 44,140.99992 44,144.65446 c 0,2.77637 -0.776303,4.69146 -2.109049,5.20289 -3.175007,1.21836 -3.905192,1.03964 -7.588112,-1.85735 z M 68.666667,87.117478 C 46.865993,85.342433 31.685845,83.695172 26,82.487547 8.9712057,78.870774 6.0000664,77.791258 4.4196268,74.646667 1.3746167,68.588031 5.1260617,65.819756 20.666667,62.657619 c 4.4,-0.895294 10.7,-2.423738 14,-3.396542 13.34422,-3.93373 56.778217,-5.119149 72.666663,-1.983248 C 111,58.001519 115.8,58.86706 118,59.201253 c 7.91191,1.201868 22.77104,4.656634 28,6.510034 4.74536,1.681986 5.33333,2.369721 5.33333,6.238171 0,4.016602 -0.5078,4.525922 -6.66666,6.686568 -12.5429,4.400289 -17.35574,5.339188 -37.67884,7.350473 -19.360594,1.916031 -26.200186,2.11789 -38.321163,1.130979 z M 110.99622,75.225659 c 5.68126,-0.518827 10.93993,-1.678776 11.68594,-2.577664 C 123.98838,71.074107 121.99261,70.403134 110,68.384276 108.53333,68.137375 94.433145,67.57926 78.666251,67.144021 54.048413,66.464456 49.269972,66.657356 44.836752,68.509673 c -2.839329,1.186347 -7.639141,2.253018 -10.666251,2.370378 -5.402446,0.209452 -5.417966,0.22374 -0.842521,0.775607 2.563723,0.309222 5.327217,1.114874 6.1411,1.790336 0.813881,0.675462 6.816291,1.587089 13.338687,2.025837 6.522394,0.438749 12.150777,1.078952 12.507514,1.422673 0.78581,0.757139 31.338063,-0.359017 45.680939,-1.668845 z M 65.333333,41.135754 C 22.045241,39.690408 7.5926959,38.792697 6.2668745,37.466875 4.0152773,35.215278 3.6497901,24.854665 5.7243215,22.086906 7.8722896,19.221171 17.971355,17.640544 36.666667,17.244048 53.105257,16.895415 55.209453,16.178451 56,10.656582 c 0.600923,-4.1973673 1.061132,-4.6363284 4.666667,-4.4512059 2.2,0.1129574 8.2687,1.1174454 13.486,2.2321967 7.058988,1.5082545 10.973013,1.6927112 15.298006,0.7209494 3.196604,-0.7182292 9.848443,-1.3807176 14.781867,-1.4721964 7.91601,-0.146784 9.7712,0.33182 15.79058,4.0736752 C 126.17876,15.586554 127.86605,16 137.32669,16 c 7.75207,0 11.02864,0.545807 12.57807,2.095239 2.40435,2.404341 2.80997,11.851275 0.74237,17.289479 -1.49594,3.934647 -3.37354,3.988519 -18.39531,0.527796 -6.49138,-1.495488 -7.93584,-1.34898 -17.33333,1.758093 -13.07923,4.324357 -16.562149,4.567753 -49.585157,3.465147 z"
       id="path1229" />
  </g>
</svg>
