<?xml version="1.0" encoding="UTF-8" standalone="no"?>
<!-- Created with Inkscape (http://www.inkscape.org/) -->

<svg
   version="1.1"
   id="svg32"
   width="157.33333"
   height="145.33333"
   viewBox="0 0 157.33333 145.33333"
   sodipodi:docname="0040.svg"
   inkscape:version="1.1.2 (0a00cf5339, 2022-02-04)"
   xmlns:inkscape="http://www.inkscape.org/namespaces/inkscape"
   xmlns:sodipodi="http://sodipodi.sourceforge.net/DTD/sodipodi-0.dtd"
   xmlns="http://www.w3.org/2000/svg"
   xmlns:svg="http://www.w3.org/2000/svg">
  <defs
     id="defs36" />
  <sodipodi:namedview
     id="namedview34"
     pagecolor="#ffffff"
     bordercolor="#666666"
     borderopacity="1.0"
     inkscape:pageshadow="2"
     inkscape:pageopacity="0.0"
     inkscape:pagecheckerboard="0"
     showgrid="false"
     inkscape:zoom="6.0068809"
     inkscape:cx="33.461625"
     inkscape:cy="72.583426"
     inkscape:window-width="2560"
     inkscape:window-height="1299"
     inkscape:window-x="0"
     inkscape:window-y="32"
     inkscape:window-maximized="1"
     inkscape:current-layer="g38" />
  <g
     inkscape:groupmode="layer"
     inkscape:label="Image"
     id="g38">
    <path
       style="fill:#000000;stroke-width:1.33333"
       d="M 66.933771,137.73801 64.207843,134 36.273287,134.40746 c -24.376892,0.35556 -28.2108402,0.13118 -30.1039217,-1.76191 -1.1931509,-1.19315 -2.1693654,-3.0054 -2.1693654,-4.02721 0,-4.25902 5.6572195,-5.28143 30.6666661,-5.54229 13.566666,-0.1415 26.616666,-0.2915 28.999999,-0.33333 3.660483,-0.0642 4.333334,-0.57148 4.333334,-3.26674 0,-1.75487 0.943465,-3.55272 2.096589,-3.99522 2.426185,-0.93101 6.729652,1.05197 7.604304,3.50396 0.417692,1.17095 1.633776,0.73228 4.002769,-1.44391 3.965431,-3.64269 8.963004,-2.94151 8.963004,1.25755 0,1.44027 1.030284,3.01402 2.289518,3.49723 1.259235,0.48322 14.909237,0.91439 30.333337,0.95816 27.3903,0.0777 28.05308,0.14444 28.44149,2.86292 0.21872,1.53084 -0.38128,3.41421 -1.33333,4.18527 -0.99876,0.80888 -12.72952,1.72393 -27.73102,2.16312 -28.363082,0.83037 -31.535761,1.30511 -32.673259,4.88906 -0.41887,1.31974 -1.723284,2.76857 -2.898699,3.21961 -2.473877,0.94932 -8.418709,-2.52552 -8.447693,-4.9378 -0.0108,-0.89976 -0.775829,-0.13593 -1.700043,1.6974 -2.405032,4.77079 -6.702575,4.94448 -10.013195,0.40468 z M 50.627468,65.952768 C 49.305654,64.36008 49.163779,59.105423 49.98847,42.286102 50.571499,30.395413 50.940082,18.139189 50.807544,15.050049 50.380886,5.1056588 51.822256,4.5535622 78.052364,4.6143008 l 22.614296,0.052366 0.35945,29.0388642 c 0.22911,18.509252 -0.15051,29.991717 -1.046912,31.666666 -1.316428,2.459767 -2.884963,2.627801 -24.529518,2.627801 -19.164415,0 -23.414044,-0.350492 -24.822212,-2.04723 z"
       id="path1108" />
  </g>
</svg>
