<?xml version="1.0" encoding="UTF-8" standalone="no"?>
<!-- Created with Inkscape (http://www.inkscape.org/) -->

<svg
   version="1.1"
   id="svg52"
   width="158.66667"
   height="160"
   viewBox="0 0 158.66667 160"
   sodipodi:docname="0042.svg"
   inkscape:version="1.1.2 (0a00cf5339, 2022-02-04)"
   xmlns:inkscape="http://www.inkscape.org/namespaces/inkscape"
   xmlns:sodipodi="http://sodipodi.sourceforge.net/DTD/sodipodi-0.dtd"
   xmlns="http://www.w3.org/2000/svg"
   xmlns:svg="http://www.w3.org/2000/svg">
  <defs
     id="defs56" />
  <sodipodi:namedview
     id="namedview54"
     pagecolor="#ffffff"
     bordercolor="#666666"
     borderopacity="1.0"
     inkscape:pageshadow="2"
     inkscape:pageopacity="0.0"
     inkscape:pagecheckerboard="0"
     showgrid="false"
     inkscape:zoom="5.45625"
     inkscape:cx="29.507446"
     inkscape:cy="79.908362"
     inkscape:window-width="2560"
     inkscape:window-height="1299"
     inkscape:window-x="0"
     inkscape:window-y="32"
     inkscape:window-maximized="1"
     inkscape:current-layer="g58" />
  <g
     inkscape:groupmode="layer"
     inkscape:label="Image"
     id="g58">
    <path
       style="fill:#000000;stroke-width:1.33333"
       d="m 18.190067,151.92009 c -5.481792,-1.58188 -8.6799444,-4.95516 -9.6622608,-10.19136 -1.2411138,-6.6157 3.7990388,-11.42496 15.7907118,-15.06732 5.114531,-1.55349 10.731925,-4.25731 12.483099,-6.00848 3.709297,-3.7093 3.404931,-5.02091 -4.00091,-17.24116 -6.236892,-10.291385 -6.720126,-19.041741 -1.287561,-23.314997 5.166964,-4.064334 12.720756,-3.649125 19.579955,1.076252 3.065461,2.111831 11.560076,9.562874 18.876922,16.557872 7.316845,6.995003 13.835535,12.389273 14.485979,11.987283 2.794073,-1.72684 -3.39445,-27.767741 -7.597812,-31.971103 -0.472004,-0.472004 -0.858188,-1.866005 -0.858188,-3.097782 0,-2.777803 -3.471408,-9.884083 -5.753606,-11.778139 C 68.079568,61.072848 48.026724,56.676273 33.333334,54.777989 27.100001,53.972685 18.1,52.262367 13.333334,50.977281 5.6336164,48.901452 4.6205484,48.242992 4.253313,45.075577 3.6312923,39.710636 7.3834956,33.741876 13.002506,31.157935 15.751128,29.893961 19.5,27.868941 21.333334,26.657891 c 1.833333,-1.211052 6.933333,-3.283858 11.333333,-4.606235 4.4,-1.322379 10.683534,-3.6008 13.963407,-5.063161 4.818162,-2.148222 7.704876,-2.51284 15.031421,-1.898608 4.987408,0.418125 11.05008,1.476953 13.472604,2.352949 4.821317,1.743411 4.530161,1.891513 15.942571,-8.1095027 4.992447,-4.3750226 5.902852,-4.6661526 14.56761,-4.6584422 8.96318,0.00798 9.38002,0.158424 13.79905,4.9804198 C 123.40713,13.980573 124,15.528701 124,21.553904 c 0,6.492403 -0.37595,7.276496 -6,12.513859 -3.3,3.073104 -6,5.937849 -6,6.366098 0,0.428251 2.25,1.141831 5,1.585735 6.65197,1.073756 12.22832,4.172435 16.54198,9.192075 1.94808,2.266914 5.57141,6.308789 8.05185,8.981944 2.48043,2.673156 5.89165,7.546897 7.58049,10.830538 2.85524,5.5515 3.01262,7.034254 2.24379,21.139719 -1.10547,20.281708 -1.11588,26.142768 -0.0581,32.688418 0.51026,3.15746 0.28918,6.64514 -0.51668,8.15091 -1.07651,2.01147 -0.82282,3.78087 1.07614,7.50555 2.76828,5.42984 2.29394,9.59308 -1.31296,11.52344 -2.94272,1.57489 -126.934161,1.46993 -132.416466,-0.11214 z m 117.091773,-12.7515 c 1.98266,-0.76082 1.97359,-1.0447 -0.10666,-3.34343 -2.13192,-2.35573 -2.1355,-3.00789 -0.0576,-10.4818 1.52138,-5.47223 2.21576,-13.18449 2.21576,-24.61026 0,-15.939137 -0.15627,-16.881277 -3.70754,-22.353463 -2.03913,-3.142133 -5.70176,-7.793466 -8.13917,-10.336296 -4.25022,-4.434064 -4.50782,-4.51915 -6.29247,-2.078494 -1.02345,1.399657 -1.86082,3.580154 -1.86082,4.845548 0,1.265394 -0.75,2.551401 -1.66667,2.857793 -1.26663,0.423367 -1.6226,6.871723 -1.48309,26.865772 0.17309,24.80568 0.34448,26.47996 3,29.30663 1.54903,1.64887 2.81642,3.67386 2.81642,4.49998 0,1.91744 2.04783,3.16663 7.21695,4.40239 5.68824,1.35985 5.63736,1.35716 8.06489,0.42563 z M 88.436062,40.065153 c 0.6065,-0.588833 -0.7435,-2.385236 -3,-3.992005 -2.2565,-1.606769 -4.102727,-3.74652 -4.102727,-4.755001 0,-1.008482 -1.336087,-2.769435 -2.969083,-3.91323 -2.756534,-1.930752 -3.039806,-1.88844 -3.957034,0.591062 -0.843182,2.279337 -2.201506,2.670688 -9.269587,2.670688 -4.554899,0 -10.173731,-0.684191 -12.486294,-1.520424 -3.700784,-1.338222 -4.926969,-1.097122 -10.23212,2.011904 -3.315104,1.942781 -7.082956,4.698636 -8.373006,6.124124 -2.25644,2.493338 -2.225893,2.618504 0.804123,3.294838 1.732317,0.386674 5.249667,0.957291 7.816334,1.268039 7.221901,0.874363 44.529858,-0.576563 45.769394,-1.779995 z"
       id="path866" />
  </g>
</svg>
