<?xml version="1.0" encoding="UTF-8" standalone="no"?>
<!-- Created with Inkscape (http://www.inkscape.org/) -->

<svg
   version="1.1"
   id="svg62"
   width="58.666668"
   height="153.33333"
   viewBox="0 0 58.666668 153.33333"
   sodipodi:docname="0043.svg"
   inkscape:version="1.1.2 (0a00cf5339, 2022-02-04)"
   xmlns:inkscape="http://www.inkscape.org/namespaces/inkscape"
   xmlns:sodipodi="http://sodipodi.sourceforge.net/DTD/sodipodi-0.dtd"
   xmlns="http://www.w3.org/2000/svg"
   xmlns:svg="http://www.w3.org/2000/svg">
  <defs
     id="defs66" />
  <sodipodi:namedview
     id="namedview64"
     pagecolor="#ffffff"
     bordercolor="#666666"
     borderopacity="1.0"
     inkscape:pageshadow="2"
     inkscape:pageopacity="0.0"
     inkscape:pagecheckerboard="0"
     showgrid="false"
     inkscape:zoom="5.6934784"
     inkscape:cx="-18.266513"
     inkscape:cy="76.578844"
     inkscape:window-width="2560"
     inkscape:window-height="1299"
     inkscape:window-x="0"
     inkscape:window-y="32"
     inkscape:window-maximized="1"
     inkscape:current-layer="g68" />
  <g
     inkscape:groupmode="layer"
     inkscape:label="Image"
     id="g68">
    <path
       style="fill:#000000;stroke-width:1.33333"
       d="M 5.0000001,148.57738 C 3.6213183,147.1686 3.7746966,126.41995 5.1801869,124.20214 6.9271778,121.44545 11.111325,122.9451 13.068959,127.02956 15.453112,132.00393 23.730514,136 31.650209,136 c 6.706556,0 12.349792,-2.75481 12.349792,-6.0287 0,-2.5217 4.363852,-4.72785 6.608188,-3.34078 2.768235,1.71087 4.562852,17.43653 2.253415,19.74597 -1.359628,1.35963 -7.727902,2.02176 -24.351355,2.53192 -12.380637,0.37995 -22.9602489,0.23099 -23.5102489,-0.33103 z M 22.379729,126.81979 C 13.512271,119.03117 12.24288,101.29872 17.882726,63.999999 19.823222,51.166666 22.348191,33.466666 23.493769,24.666666 25.623943,8.3032862 27.150919,4.5795551 31.108121,6.0980757 c 2.62422,1.0070073 2.917324,2.2058625 4.865754,19.9019233 1.410341,12.809013 2.732537,21.659183 5.378319,36 3.77437,20.458046 4.477276,26.728752 4.558476,40.666661 0.08155,13.99813 -0.181058,15.71243 -3.015786,19.68679 -3.367211,4.72091 -9.178762,8.31321 -13.448942,8.31321 -1.477567,0 -4.657363,-1.73109 -7.066213,-3.84687 z"
       id="path745" />
  </g>
</svg>
