<?xml version="1.0" encoding="UTF-8" standalone="no"?>
<!-- Created with Inkscape (http://www.inkscape.org/) -->

<svg
   version="1.1"
   id="svg72"
   width="160"
   height="157.33333"
   viewBox="0 0 160 157.33333"
   sodipodi:docname="0044.svg"
   inkscape:version="1.1.2 (0a00cf5339, 2022-02-04)"
   xmlns:inkscape="http://www.inkscape.org/namespaces/inkscape"
   xmlns:sodipodi="http://sodipodi.sourceforge.net/DTD/sodipodi-0.dtd"
   xmlns="http://www.w3.org/2000/svg"
   xmlns:svg="http://www.w3.org/2000/svg">
  <defs
     id="defs76" />
  <sodipodi:namedview
     id="namedview74"
     pagecolor="#ffffff"
     bordercolor="#666666"
     borderopacity="1.0"
     inkscape:pageshadow="2"
     inkscape:pageopacity="0.0"
     inkscape:pagecheckerboard="0"
     showgrid="false"
     inkscape:zoom="5.548729"
     inkscape:cx="30.99809"
     inkscape:cy="78.576553"
     inkscape:window-width="2560"
     inkscape:window-height="1299"
     inkscape:window-x="0"
     inkscape:window-y="32"
     inkscape:window-maximized="1"
     inkscape:current-layer="g78" />
  <g
     inkscape:groupmode="layer"
     inkscape:label="Image"
     id="g78">
    <path
       style="fill:#000000;stroke-width:1.33333"
       d="m 67.333333,150.01464 c -25.979761,-1.92476 -39.082021,-3.77008 -47.26292,-6.65647 -3.15646,-1.11367 -6.820724,-2.02484 -8.14281,-2.02484 -4.8918455,0 -8.1659493,-6.12805 -5.5089727,-10.31099 1.0018454,-1.57723 20.8798977,-7.59782 36.2480367,-10.97868 5.05703,-1.1125 15.610798,-1.39402 34,-0.90693 46.221773,1.22431 74.086413,6.76425 76.190583,15.14793 0.50644,2.0178 0.11587,3.92007 -1.01772,4.95695 -3.01197,2.755 -19.42378,6.95439 -36.5062,9.34105 -23.343293,3.2614 -23.317402,3.26063 -47.999997,1.43198 z m 46.379177,-12.08955 c 7.90855,-1.0588 14.80855,-1.96737 15.33333,-2.01904 0.52479,-0.0517 -1.44584,-1.00839 -4.37917,-2.12601 -7.76196,-2.9574 -51.182458,-5.00626 -68.134097,-3.21501 -31.208441,3.29774 -33.373706,4.96566 -9.547722,7.35467 21.959696,2.20188 50.304312,2.20418 66.727659,0.005 z M 10.690771,100.04311 C 9.1172709,99.048165 8.6958153,95.229235 8.6212823,81.290873 8.5660905,70.96955 9.1032753,63.018265 9.9305109,61.911971 12.100273,59.010263 18.923495,58.197496 21.997516,60.474576 c 2.431092,1.800831 2.659019,3.488115 2.60516,19.285309 -0.04209,12.347002 -0.566184,17.922908 -1.827443,19.442632 -1.935961,2.332693 -8.952809,2.820783 -12.084462,0.840593 z m 62.975896,0.40718 c -2.099856,-0.847309 -2.350698,-34.014145 -0.286422,-37.871279 1.610335,-3.00894 10.779406,-3.655504 12.93818,-0.912346 1.555496,1.976572 1.497784,35.581649 -0.06527,38 -1.04876,1.622645 -9.242875,2.132805 -12.586499,0.783625 z m 62.666663,0 c -2.09985,-0.847309 -2.35069,-34.014145 -0.28642,-37.871279 1.61034,-3.00894 10.77941,-3.655504 12.93818,-0.912346 1.5555,1.976572 1.49779,35.581649 -0.0653,38 -1.04876,1.622645 -9.24287,2.132805 -12.58649,0.783625 z M 8.3333333,43.132303 C 4.9963376,41.755072 6.6309916,32.511495 12.526064,19.423414 15.748732,12.268533 19.008401,5.7915981 19.769773,5.030226 c 2.170763,-2.1707627 5.162652,-0.2780877 7.56578,4.7861274 2.558008,5.3906026 5.140271,6.8234506 7.39689,4.1043916 2.302718,-2.774607 7.63789,-2.359067 9.576988,0.745921 1.94499,3.114426 5.023902,3.543978 5.023902,0.700907 0,-1.081168 1.809715,-2.901599 4.021587,-4.045403 3.858939,-1.9955346 4.148229,-1.9429943 7.152895,1.299093 3.898117,4.206138 4.426844,4.198309 8.433449,-0.12489 l 3.247052,-3.5036279 4.567544,4.4270379 4.567544,4.427038 2.723572,-2.92341 c 3.382408,-3.630589 5.312429,-3.668823 9.731497,-0.192784 l 3.471431,2.730628 2.338036,-2.730628 c 2.96747,-3.465759 7.30934,-3.492431 10.41206,-0.06396 2.562,2.830974 6,3.578595 6,1.304748 0,-0.749054 1.50593,-2.048068 3.34652,-2.886695 2.83494,-1.291686 3.80311,-1.098184 6.33333,1.265801 l 2.98682,2.790577 3.96298,-5.291119 c 4.09084,-5.4618248 8.18207,-6.4886741 10.02695,-2.5166449 0.51091,1.0999999 1.62219,3.3418589 2.46949,4.9819079 0.84732,1.640049 1.54058,3.901093 1.54058,5.024541 0,1.123448 1.56434,5.034383 3.47632,8.690967 4.39873,8.412422 3.66568,13.302583 -1.99411,13.302583 -3.38656,0 -4.19457,-0.907282 -7.4216,-8.333333 l -3.62129,-8.333333 -1.84126,3.499372 c -2.47851,4.710493 -6.44029,5.532917 -10.6608,2.213067 l -3.42777,-2.696286 -3.00735,2.825256 c -3.73692,3.510652 -6.20859,3.559887 -10.46914,0.208542 -2.93741,-2.310572 -3.62143,-2.393531 -5.84647,-0.709072 -3.578216,2.708862 -7.212517,2.432881 -10.664209,-0.809815 l -2.982878,-2.802268 -2.399378,2.802268 c -3.05054,3.562772 -6.82171,3.566189 -10.607511,0.0096 l -2.972647,-2.792656 -2.266634,3.459323 C 67.217411,34.059642 62.036531,34.471959 60,30.666666 c -1.813445,-3.388453 -4.266825,-3.388453 -7.333333,0 -1.327315,1.466667 -3.799198,2.666667 -5.493072,2.666667 -1.715164,0 -3.712127,-1.181567 -4.506928,-2.666667 -1.894663,-3.540209 -3.73556,-3.362471 -6.90488,0.666667 -3.311408,4.209772 -5.545499,4.209772 -8.856907,0 -1.4421,-1.833334 -3.263463,-3.333334 -4.047473,-3.333334 -0.78401,0 -3.097658,3.45 -5.14144,7.666667 -3.541859,7.307453 -5.667611,8.998885 -9.3826337,7.465637 z"
       id="path624" />
  </g>
</svg>
