<?xml version="1.0" encoding="UTF-8" standalone="no"?>
<!-- Created with Inkscape (http://www.inkscape.org/) -->

<svg
   version="1.1"
   id="svg82"
   width="65.333336"
   height="166.66667"
   viewBox="0 0 65.333336 166.66667"
   sodipodi:docname="0045.svg"
   inkscape:version="1.1.2 (0a00cf5339, 2022-02-04)"
   xmlns:inkscape="http://www.inkscape.org/namespaces/inkscape"
   xmlns:sodipodi="http://sodipodi.sourceforge.net/DTD/sodipodi-0.dtd"
   xmlns="http://www.w3.org/2000/svg"
   xmlns:svg="http://www.w3.org/2000/svg">
  <defs
     id="defs86" />
  <sodipodi:namedview
     id="namedview84"
     pagecolor="#ffffff"
     bordercolor="#666666"
     borderopacity="1.0"
     inkscape:pageshadow="2"
     inkscape:pageopacity="0.0"
     inkscape:pagecheckerboard="0"
     showgrid="false"
     inkscape:zoom="5.2379998"
     inkscape:cx="-19.091257"
     inkscape:cy="83.23788"
     inkscape:window-width="2560"
     inkscape:window-height="1299"
     inkscape:window-x="0"
     inkscape:window-y="32"
     inkscape:window-maximized="1"
     inkscape:current-layer="g88" />
  <g
     inkscape:groupmode="layer"
     inkscape:label="Image"
     id="g88">
    <path
       style="fill:#000000;stroke-width:1.33333"
       d="m 27.65679,156.33334 c -4.830978,-5.39384 -6.302218,-27.73 -3.095802,-47 1.03719,-6.23334 2.275094,-17.778734 2.750898,-25.656441 0.81599,-13.510036 0.72762,-14.263023 -1.556726,-13.264708 -1.332004,0.582117 -5.321568,2.377513 -8.865699,3.989769 C 9.3128712,77.848616 8.8004102,77.904338 6.8038248,75.4986 5.6528882,74.111807 5.785195,71.751737 7.3457436,65.831933 10.012549,55.715641 10.533725,26.116954 8.1465281,20.35375 5.9205816,14.979839 7.8397413,11.298719 13.452646,10.176138 c 6.612325,-1.3224654 35.789601,-0.9853765 38.461061,0.444346 2.160978,1.156519 2.340503,2.814156 1.768937,16.333333 -0.470895,11.137986 -0.03459,17.989981 1.679733,26.379517 3.720521,18.207454 3.842703,19.877086 1.519817,20.768461 -1.140186,0.43753 -5.347464,-0.156383 -9.349505,-1.319808 -4.002042,-1.163426 -7.575294,-2.115319 -7.940561,-2.115319 -1.323812,0 0.06967,35.543172 1.708927,43.589012 1.903004,9.34039 1.218487,31.52599 -1.215991,39.41099 -1.375476,4.45501 -2.02304,5 -5.941084,5 -2.502928,0 -5.297671,-1.00523 -6.48719,-2.33333 z"
       id="path503" />
  </g>
</svg>
