<?xml version="1.0" encoding="UTF-8" standalone="no"?>
<!-- Created with Inkscape (http://www.inkscape.org/) -->

<svg
   version="1.1"
   id="svg92"
   width="29.333332"
   height="156"
   viewBox="0 0 29.333332 156"
   sodipodi:docname="0046.svg"
   inkscape:version="1.1.2 (0a00cf5339, 2022-02-04)"
   xmlns:inkscape="http://www.inkscape.org/namespaces/inkscape"
   xmlns:sodipodi="http://sodipodi.sourceforge.net/DTD/sodipodi-0.dtd"
   xmlns="http://www.w3.org/2000/svg"
   xmlns:svg="http://www.w3.org/2000/svg">
  <defs
     id="defs96" />
  <sodipodi:namedview
     id="namedview94"
     pagecolor="#ffffff"
     bordercolor="#666666"
     borderopacity="1.0"
     inkscape:pageshadow="2"
     inkscape:pageopacity="0.0"
     inkscape:pagecheckerboard="0"
     showgrid="false"
     inkscape:zoom="5.5961538"
     inkscape:cx="-33.773196"
     inkscape:cy="77.910653"
     inkscape:window-width="2560"
     inkscape:window-height="1299"
     inkscape:window-x="0"
     inkscape:window-y="32"
     inkscape:window-maximized="1"
     inkscape:current-layer="g98" />
  <g
     inkscape:groupmode="layer"
     inkscape:label="Image"
     id="g98">
    <path
       style="fill:#000000;stroke-width:1.33333"
       d="m 8.333333,148.45029 c -2.0998561,-0.8473 -2.3506979,-34.01414 -0.2864216,-37.87128 1.6103354,-3.00894 10.7794046,-3.6555 12.9381796,-0.91234 1.555496,1.97657 1.497784,35.58165 -0.06525,38 -1.04876,1.62265 -9.242874,2.13281 -12.5864984,0.78362 z M 7.655905,97.603447 C 6.0934344,95.808687 5.7257947,91.564203 5.9001911,77.333333 l 0.2205864,-18 6.9396105,-0.403013 c 4.950525,-0.287497 6.991882,0.09467 7.121974,1.333333 1.699712,16.183583 1.425802,34.723652 -0.539884,36.543116 -3.042504,2.816179 -9.8353979,3.267661 -11.986573,0.796678 z m 4.717318,-49.63024 C 8.7221708,46.504088 8.2687647,44.467184 7.4173983,25.709424 L 6.7385276,10.752181 12.093381,9.1478273 c 8.193126,-2.4547205 8.954497,-0.9602709 10.03787,19.7027677 0.883392,16.84881 0.812717,17.57384 -1.852084,19 -3.21213,1.71908 -3.911453,1.729925 -7.905944,0.122612 z"
       id="path382" />
  </g>
</svg>
