<?xml version="1.0" encoding="UTF-8" standalone="no"?>
<!-- Created with Inkscape (http://www.inkscape.org/) -->

<svg
   version="1.1"
   id="svg102"
   width="158.66667"
   height="154.66667"
   viewBox="0 0 158.66667 154.66667"
   sodipodi:docname="0047.svg"
   inkscape:version="1.1.2 (0a00cf5339, 2022-02-04)"
   xmlns:inkscape="http://www.inkscape.org/namespaces/inkscape"
   xmlns:sodipodi="http://sodipodi.sourceforge.net/DTD/sodipodi-0.dtd"
   xmlns="http://www.w3.org/2000/svg"
   xmlns:svg="http://www.w3.org/2000/svg">
  <defs
     id="defs106" />
  <sodipodi:namedview
     id="namedview104"
     pagecolor="#ffffff"
     bordercolor="#666666"
     borderopacity="1.0"
     inkscape:pageshadow="2"
     inkscape:pageopacity="0.0"
     inkscape:pagecheckerboard="0"
     showgrid="false"
     inkscape:zoom="5.6443964"
     inkscape:cx="31.181368"
     inkscape:cy="77.244752"
     inkscape:window-width="2560"
     inkscape:window-height="1299"
     inkscape:window-x="0"
     inkscape:window-y="32"
     inkscape:window-maximized="1"
     inkscape:current-layer="g108" />
  <g
     inkscape:groupmode="layer"
     inkscape:label="Image"
     id="g108">
    <path
       style="fill:#000000;stroke-width:1.33333"
       d="m 139.74422,148.42918 c -2.15046,-0.56707 -18.25691,-9.12627 -27.3592,-14.5391 l -4.28165,-2.54615 -8.558475,4.34754 c -5.41477,2.7506 -9.474281,4.02247 -11.051684,3.46255 -2.301855,-0.81708 -36.540407,-25.79643 -40.034349,-29.20778 -0.847626,-0.82759 -6.216701,-4.75405 -11.931275,-8.72547 C 24.722102,93.016386 16.981924,85.730333 17.71239,83.509478 c 1.282857,-3.900306 7.958185,-1.619554 36.259987,12.388912 16.410284,8.12255 30.646295,14.76828 31.635578,14.76828 0.989283,0 3.016102,0.8527 4.50404,1.8949 1.48794,1.04219 14.371445,7.41856 28.630015,14.1697 14.25856,6.75115 26.78107,13.07628 27.82779,14.05585 1.51954,1.42207 1.59248,2.46283 0.36191,5.16363 -1.50716,3.30788 -2.60556,3.68663 -7.18749,2.47843 z M 22.15907,32.034313 C 17.226304,30.454369 12.971883,26.414675 7.8738676,18.470107 2.7807531,10.533176 3.011419,6.0000001 8.508396,6.0000001 c 2.965948,0 4.369706,0.9844703 6.157771,4.3185099 5.368599,10.01033 12.59459,14.133432 23.068607,13.162791 3.812542,-0.353314 7.381894,-0.681143 7.931894,-0.728511 0.55,-0.04737 1,-1.044668 1,-2.216223 0,-1.753896 -1.325824,-2.048252 -7.506925,-1.666667 -5.999466,0.370372 -7.802209,-9.7e-5 -8.9774,-1.844881 -1.146396,-1.799585 -0.949162,-2.828073 0.894931,-4.666667 3.333936,-3.3239957 22.919179,-3.3111533 28.000659,0.01836 3.882526,2.543928 7.920322,2.919897 11.393871,1.060909 C 71.851596,12.699179 81.243447,12.65755 94.000002,13.333334 116.80617,14.541499 120,13.980008 120,8.7624069 c 0,-4.5856615 3.79444,-5.4217662 7.88377,-1.7371871 6.72095,6.0557452 8.38007,6.7831722 17.20082,7.5415742 8.84679,0.760638 8.91541,0.797332 8.91541,4.76654 v 4 l -18.03997,0.666667 c -17.7792,0.657029 -18.14272,0.732685 -25.14737,5.233558 -7.89605,5.07365 -11.673831,4.535418 -11.249097,-1.602694 L 99.79379,24.303693 82.99027,24.134109 c -9.241936,-0.09327 -17.066835,-0.432898 -17.388663,-0.754726 -0.321828,-0.321828 -4.277396,1.443783 -8.790151,3.923579 -6.929987,3.808087 -9.961478,4.621605 -19.508231,5.235153 -6.216774,0.399538 -13.031643,0.172826 -15.144155,-0.503802 z"
       id="path261" />
  </g>
</svg>
