<?xml version="1.0" encoding="UTF-8" standalone="no"?>
<!-- Created with Inkscape (http://www.inkscape.org/) -->

<svg
   version="1.1"
   id="svg112"
   width="46.666668"
   height="160"
   viewBox="0 0 46.666668 160"
   sodipodi:docname="0048.svg"
   inkscape:version="1.1.2 (0a00cf5339, 2022-02-04)"
   xmlns:inkscape="http://www.inkscape.org/namespaces/inkscape"
   xmlns:sodipodi="http://sodipodi.sourceforge.net/DTD/sodipodi-0.dtd"
   xmlns="http://www.w3.org/2000/svg"
   xmlns:svg="http://www.w3.org/2000/svg">
  <defs
     id="defs116" />
  <sodipodi:namedview
     id="namedview114"
     pagecolor="#ffffff"
     bordercolor="#666666"
     borderopacity="1.0"
     inkscape:pageshadow="2"
     inkscape:pageopacity="0.0"
     inkscape:pagecheckerboard="0"
     showgrid="false"
     inkscape:zoom="5.45625"
     inkscape:cx="23.27606"
     inkscape:cy="79.908362"
     inkscape:window-width="2560"
     inkscape:window-height="1299"
     inkscape:window-x="0"
     inkscape:window-y="32"
     inkscape:window-maximized="1"
     inkscape:current-layer="g118" />
  <g
     inkscape:groupmode="layer"
     inkscape:label="Image"
     id="g118">
    <path
       style="fill:#000000;stroke-width:1.33333"
       d="m 22.000001,154.74804 c -11.986233,-0.74719 -12.0004978,-0.75239 -12.4332361,-4.53221 -0.2739045,-2.39247 0.7832611,-5.57982 2.8745291,-8.66667 3.542981,-5.22969 4.91614,-10.15467 5.581191,-20.01753 0.229872,-3.40906 0.808161,-8.2983 1.285086,-10.86496 0.781676,-4.20674 0.471311,-4.8865 -3.149121,-6.89719 -2.576494,-1.43091 -5.547558,-5.25474 -8.2878516,-10.666663 L 3.5990056,84.666667 5.1350193,69.83026 C 5.979827,61.670236 8.2488664,47.570236 10.177329,38.496927 12.105792,29.423617 14.090254,19.57806 14.587244,16.617912 15.725778,9.8366335 16.863424,8 19.925343,8 c 3.218526,0 6.160408,4.738606 7.036107,11.333333 0.389512,2.933334 3.25996,11.933334 6.378776,20 8.886705,22.985036 11.105115,45.063112 5.626895,56 -1.101967,2.2 -3.720373,5.970877 -5.818681,8.379727 -4.409627,5.06224 -4.725607,9.04241 -1.663474,20.95361 1.131154,4.4 2.400799,9.5 2.821434,11.33333 0.420636,1.83333 2.173774,5.42261 3.895864,7.97617 4.05322,6.01024 3.969817,9.10427 -0.289063,10.7235 -1.881072,0.71518 -3.531072,1.18694 -3.666667,1.04837 -0.135593,-0.13857 -5.646533,-0.58857 -12.246533,-1 z"
       id="path140" />
  </g>
</svg>
