<?xml version="1.0" encoding="UTF-8" standalone="no"?>
<!-- Created with Inkscape (http://www.inkscape.org/) -->

<svg
   version="1.1"
   id="svg2"
   width="160"
   height="158.66667"
   viewBox="0 0 160 158.66667"
   sodipodi:docname="0049.svg"
   inkscape:version="1.1.2 (0a00cf5339, 2022-02-04)"
   xmlns:inkscape="http://www.inkscape.org/namespaces/inkscape"
   xmlns:sodipodi="http://sodipodi.sourceforge.net/DTD/sodipodi-0.dtd"
   xmlns="http://www.w3.org/2000/svg"
   xmlns:svg="http://www.w3.org/2000/svg">
  <defs
     id="defs6" />
  <sodipodi:namedview
     id="namedview4"
     pagecolor="#ffffff"
     bordercolor="#666666"
     borderopacity="1.0"
     inkscape:pageshadow="2"
     inkscape:pageopacity="0.0"
     inkscape:pagecheckerboard="0"
     showgrid="false"
     inkscape:zoom="5.5021007"
     inkscape:cx="30.715541"
     inkscape:cy="79.242461"
     inkscape:window-width="2560"
     inkscape:window-height="1299"
     inkscape:window-x="0"
     inkscape:window-y="32"
     inkscape:window-maximized="1"
     inkscape:current-layer="g8" />
  <g
     inkscape:groupmode="layer"
     inkscape:label="Image"
     id="g8">
    <path
       style="fill:#000000;stroke-width:1.33333"
       d="m 8.3333333,152.46564 c -3.3369957,-1.37722 -1.7023417,-10.62081 4.1927307,-23.70889 3.222668,-7.15488 6.482337,-13.63182 7.243709,-14.39319 2.170763,-2.17076 5.162652,-0.27809 7.56578,4.78613 2.558008,5.3906 5.140271,6.82345 7.39689,4.10439 2.302718,-2.77461 7.63789,-2.35907 9.576988,0.74592 1.94499,3.11443 5.023902,3.54398 5.023902,0.70091 0,-1.08117 1.809715,-2.9016 4.021587,-4.0454 3.858939,-1.99554 4.148229,-1.943 7.152895,1.29909 3.898117,4.20614 4.426844,4.19831 8.433449,-0.12489 l 3.247052,-3.50363 4.567544,4.42704 4.567544,4.42704 2.723572,-2.92341 c 3.382408,-3.63059 5.312429,-3.66883 9.731497,-0.19279 l 3.471431,2.73063 2.338036,-2.73063 C 102.55541,120.5982 106.89728,120.57153 110,124 c 2.562,2.83098 6,3.5786 6,1.30475 0,-0.74905 1.50593,-2.04807 3.34652,-2.8867 2.83494,-1.29168 3.80311,-1.09818 6.33333,1.26581 l 2.98682,2.79057 3.96298,-5.29112 c 4.09084,-5.46182 8.18207,-6.48867 10.02695,-2.51664 0.51091,1.1 1.62219,3.34186 2.46949,4.98191 0.84732,1.64005 1.54058,3.90109 1.54058,5.02454 0,1.12345 1.56434,5.03438 3.47632,8.69096 4.39873,8.41243 3.66568,13.30259 -1.99411,13.30259 -3.38656,0 -4.19457,-0.90728 -7.4216,-8.33333 L 137.10599,134 l -1.84126,3.49938 c -2.47851,4.71049 -6.44029,5.53292 -10.6608,2.21306 l -3.42777,-2.69629 -3.00735,2.82527 c -3.73692,3.51065 -6.20859,3.55988 -10.46914,0.20853 -2.93741,-2.31057 -3.62143,-2.39353 -5.84647,-0.70907 -3.578216,2.70887 -7.212517,2.43288 -10.664209,-0.80981 l -2.982878,-2.80227 -2.399378,2.80227 c -3.05054,3.56277 -6.82171,3.56619 -10.607511,0.009 l -2.972647,-2.79265 -2.266634,3.45932 C 67.217411,143.39298 62.036531,143.8053 60,140 c -0.784936,-1.46666 -2.213053,-2.66666 -3.173595,-2.66666 -0.960541,0 -2.832424,1.2 -4.159738,2.66666 -1.327315,1.46667 -3.799198,2.66667 -5.493072,2.66667 -1.715164,0 -3.712127,-1.18156 -4.506928,-2.66667 -1.894663,-3.54021 -3.73556,-3.36246 -6.90488,0.66667 C 34.319687,142.5 32.326883,144 31.333333,144 c -0.993549,0 -2.986353,-1.5 -4.428453,-3.33333 -1.4421,-1.83333 -3.263463,-3.33333 -4.047473,-3.33333 -0.78401,0 -3.097658,3.45 -5.14144,7.66666 -3.541859,7.30746 -5.667611,8.99888 -9.3826337,7.46564 z M 74.757615,65.653963 C 15.761157,65.344216 8.5943024,65.077821 6.4242815,63.113979 2.7463312,59.78548 2.8793081,32.75717 6.6096087,25.445177 8.4035323,21.928796 8.9834179,18.87686 8.4648279,15.681164 7.3681505,8.9231338 9.7460671,5.3333334 15.319325,5.3333334 h 4.558835 l 0.394253,9.0000006 c 0.303834,6.935888 0.852946,9 2.394254,9 1.576666,0 1.918268,-1.509842 1.613868,-7.133098 -0.446004,-8.2391073 1.131604,-10.8669026 6.523989,-10.8669026 4.105572,0 4.824127,1.4304779 5.506752,10.9626826 0.523563,7.311047 3.88382,4.414115 4.697057,-4.049408 C 41.548129,6.6288491 42.149716,5.4175225 44.720315,4.7723432 50.578917,3.3019277 52,4.985623 52,13.397296 c 0,8.038203 0.953309,9.843155 4.48334,8.488555 1.446156,-0.554941 2.175059,-3.031795 2.453656,-8.337659 0.353208,-6.7267904 0.730787,-7.5956036 3.469727,-7.9838771 5.270934,-0.7472101 7.326353,2.1967391 6.486241,9.2901631 -0.548104,4.62788 -0.222832,6.708496 1.238348,7.921168 3.024869,2.510419 4.344681,0.09519 4.795479,-8.775646 0.392364,-7.7209952 0.541,-8.0153487 4.261866,-8.4401009 4.678094,-0.5340237 6.277924,1.559432 5.940502,7.7734349 -0.13937,2.566666 0.215148,6.095944 0.787818,7.842837 1.587736,4.843286 3.371503,0.876827 3.395939,-7.551351 0.02241,-7.7312589 1.468959,-9.22095 7.487148,-7.7104805 3.328326,0.8353573 3.443026,1.1852809 2.997019,9.1437955 -0.433211,7.730255 -0.266192,8.303256 2.536247,8.701267 3.20416,0.455063 3.63672,-0.755007 3.09964,-8.671059 -0.42928,-6.3270341 2.01468,-9.9993614 6.32337,-9.5015858 3.42252,0.3953972 3.59443,0.7875105 3.98073,9.0799098 0.45205,9.703675 2.10405,12.694338 4.91189,8.892135 1.2417,-1.681443 1.57294,-4.66802 1.0643,-9.596271 -0.7102,-6.8811833 -0.60335,-7.1889834 2.79145,-8.0410237 C 130.16424,4.5010552 132,7.1455483 132,16.718815 c 0,5.496452 0.57099,8.582627 1.65476,8.943884 3.32696,1.108986 5.01452,-2.703081 4.67772,-10.566609 -0.30372,-7.091381 -0.0801,-7.7986765 2.58553,-8.1780801 5.03796,-0.7170595 8.58455,4.2624011 8.25047,11.5838101 -0.23173,5.078696 0.32015,6.986809 2.71281,9.379469 2.83622,2.836222 2.97904,3.886344 2.56122,18.831581 -0.24338,8.705322 -1.04251,16.379479 -1.77584,17.053682 -2.2459,2.064805 -9.7047,2.2455 -77.909055,1.887411 z"
       id="path1715" />
  </g>
</svg>
