<?xml version="1.0" encoding="UTF-8" standalone="no"?>
<!-- Created with Inkscape (http://www.inkscape.org/) -->

<svg
   version="1.1"
   id="svg2"
   width="156"
   height="157.33333"
   viewBox="0 0 156 157.33333"
   sodipodi:docname="0050.svg"
   inkscape:version="1.1.2 (0a00cf5339, 2022-02-04)"
   xmlns:inkscape="http://www.inkscape.org/namespaces/inkscape"
   xmlns:sodipodi="http://sodipodi.sourceforge.net/DTD/sodipodi-0.dtd"
   xmlns="http://www.w3.org/2000/svg"
   xmlns:svg="http://www.w3.org/2000/svg">
  <defs
     id="defs6" />
  <sodipodi:namedview
     id="namedview4"
     pagecolor="#ffffff"
     bordercolor="#666666"
     borderopacity="1.0"
     inkscape:pageshadow="2"
     inkscape:pageopacity="0.0"
     inkscape:pagecheckerboard="0"
     showgrid="false"
     inkscape:zoom="5.548729"
     inkscape:cx="78.035889"
     inkscape:cy="78.576553"
     inkscape:window-width="2560"
     inkscape:window-height="1299"
     inkscape:window-x="0"
     inkscape:window-y="32"
     inkscape:window-maximized="1"
     inkscape:current-layer="g8" />
  <g
     inkscape:groupmode="layer"
     inkscape:label="Image"
     id="g8">
    <path
       style="fill:#000000;stroke-width:1.33333"
       d="m 7.3966721,150.33333 c -0.2857992,-0.91667 -0.9020234,-6.96295 -1.3693872,-13.43619 -0.9842598,-13.63251 -0.090492,-15.56381 7.2026411,-15.56381 7.281947,0 8.103407,1.58475 8.103407,15.633 0,12.11917 -0.08633,12.46583 -3.420133,13.73333 -4.746002,1.80443 -9.8956541,1.62504 -10.5165279,-0.36633 z m 126.6666579,0 c -0.2858,-0.91667 -0.90202,-6.96295 -1.36938,-13.43619 -0.98426,-13.63251 -0.0905,-15.56381 7.20264,-15.56381 7.28194,0 8.10341,1.58475 8.10341,15.633 0,12.11917 -0.0864,12.46583 -3.42013,13.73333 -4.746,1.80443 -9.89566,1.62504 -10.51654,-0.36633 z M 70.095239,148.57142 C 67.469323,145.9455 67.068777,124.13122 69.6,121.6 c 2.156793,-2.1568 9.714215,-2.03289 11.558637,0.1895 2.201242,2.65233 3.419722,22.63847 1.58876,26.05966 -1.843188,3.44402 -9.493664,3.88076 -12.652158,0.72226 z M 67.086743,99.421834 C 57.323229,94.875989 53.274795,86.120637 56.094433,75.649302 58.943709,65.067895 70.288599,57.980327 81.186769,59.973197 93.190967,62.16832 99.972672,71.976706 98.103667,84.440122 96.881325,92.591277 93.346756,96.637847 84.586299,99.915555 75.452428,103.33297 75.489275,103.33401 67.086743,99.421834 Z M 43,43.706006 c -2.508191,-1.209655 -3,-2.521614 -3,-8.002859 0,-9.930648 9.07856,-22.463586 19.544088,-26.9805836 7.203004,-3.108869 20.212196,-3.784967 29.789245,-1.5481706 7.3357,1.7133113 9.452935,2.9047652 13.786497,7.7582212 5.82559,6.524479 8.50851,11.980176 10.11184,20.562388 1.85206,9.91361 2.07377,9.851848 -34.993575,9.74809 C 57.979192,45.186383 44.885245,44.615226 43,43.706006 Z"
       id="path30" />
  </g>
</svg>
