<?xml version="1.0" encoding="UTF-8" standalone="no"?>
<!-- Created with Inkscape (http://www.inkscape.org/) -->

<svg
   version="1.1"
   id="svg12"
   width="157.33333"
   height="162.66667"
   viewBox="0 0 157.33333 162.66667"
   sodipodi:docname="0050.svg"
   inkscape:version="1.1.2 (0a00cf5339, 2022-02-04)"
   xmlns:inkscape="http://www.inkscape.org/namespaces/inkscape"
   xmlns:sodipodi="http://sodipodi.sourceforge.net/DTD/sodipodi-0.dtd"
   xmlns="http://www.w3.org/2000/svg"
   xmlns:svg="http://www.w3.org/2000/svg">
  <defs
     id="defs16" />
  <sodipodi:namedview
     id="namedview14"
     pagecolor="#ffffff"
     bordercolor="#666666"
     borderopacity="1.0"
     inkscape:pageshadow="2"
     inkscape:pageopacity="0.0"
     inkscape:pagecheckerboard="0"
     showgrid="false"
     inkscape:zoom="5.3668031"
     inkscape:cx="28.135931"
     inkscape:cy="81.240171"
     inkscape:window-width="2560"
     inkscape:window-height="1299"
     inkscape:window-x="0"
     inkscape:window-y="32"
     inkscape:window-maximized="1"
     inkscape:current-layer="g18" />
  <g
     inkscape:groupmode="layer"
     inkscape:label="Image"
     id="g18">
    <path
       style="fill:#000000;stroke-width:1.33333"
       d="m 133.28733,153.5642 c -2.96681,-2.40238 -2.9917,-2.68076 -1.81437,-20.29049 1.16651,-17.44787 1.27518,-17.90022 4.76961,-19.8535 2.68533,-1.50102 4.51168,-1.67016 7.33333,-0.67915 l 3.75743,1.31967 0.36915,18.83859 c 0.30996,15.81871 0.0275,19.1802 -1.76191,20.96963 -2.84636,2.84636 -8.94312,2.69952 -12.65324,-0.30475 z m -63.905525,-0.83913 c -0.94241,-1.13553 -1.148572,-2.65776 -0.496593,-3.66667 0.613133,-0.94878 1.414787,-9.52506 1.781453,-19.0584 l 0.666667,-17.33333 5.448624,-0.39934 c 3.718722,-0.27256 6.002497,0.26803 7.193145,1.70267 2.336057,2.81478 2.31158,35.94139 -0.02864,38.76118 -2.123648,2.55884 -12.439529,2.55452 -14.564654,-0.007 z M 8.7619046,151.2381 c -1.5721077,-1.57211 -2.1624303,-5.31724 -2.3643562,-15 -0.3900692,-18.70462 -0.031247,-22.02302 2.5951403,-23.99989 2.5099553,-1.88924 10.4951403,-1.28371 12.7453473,0.96649 3.894442,3.89445 3.522042,36.3395 -0.445904,38.84898 -3.08488,1.951 -10.228628,1.48602 -12.5302274,-0.81558 z M 72.742337,100.77226 C 66.781443,99.09215 59.276813,90.050741 57.827244,82.802894 c -0.745168,-3.725842 -0.175641,-4.851886 4.89236,-9.672961 10.248872,-9.749516 19.417265,-11.647417 26.692726,-5.52552 2.35598,1.982426 5.132816,5.636871 6.170745,8.120987 1.704731,4.079994 1.611815,5.343948 -0.961234,13.075964 -1.56661,4.707663 -3.84741,9.088361 -5.068446,9.734883 -5.391485,2.854723 -11.65851,3.688293 -16.811058,2.236013 z M 44.333332,45.039341 c -2.501441,-1.206399 -3,-2.524301 -3,-7.930272 0,-10.528434 9.434399,-22.995861 20.919176,-27.6444009 8.349985,-3.3797133 38.805712,-1.6233435 40.118022,2.3135909 0.26166,0.784986 1.9306,3.406008 3.70874,5.824495 4.47314,6.083988 7.17365,12.202349 8.48573,19.225583 1.85206,9.913611 2.07377,9.851848 -34.993574,9.748091 -20.258902,-0.05671 -33.352848,-0.627867 -35.238094,-1.537087 z"
       id="path1594" />
  </g>
</svg>
