<?xml version="1.0" encoding="UTF-8" standalone="no"?>
<!-- Created with Inkscape (http://www.inkscape.org/) -->

<svg
   version="1.1"
   id="svg22"
   width="166.66667"
   height="165.33333"
   viewBox="0 0 166.66667 165.33333"
   sodipodi:docname="0051.svg"
   inkscape:version="1.1.2 (0a00cf5339, 2022-02-04)"
   xmlns:inkscape="http://www.inkscape.org/namespaces/inkscape"
   xmlns:sodipodi="http://sodipodi.sourceforge.net/DTD/sodipodi-0.dtd"
   xmlns="http://www.w3.org/2000/svg"
   xmlns:svg="http://www.w3.org/2000/svg">
  <defs
     id="defs26" />
  <sodipodi:namedview
     id="namedview24"
     pagecolor="#ffffff"
     bordercolor="#666666"
     borderopacity="1.0"
     inkscape:pageshadow="2"
     inkscape:pageopacity="0.0"
     inkscape:pagecheckerboard="0"
     showgrid="false"
     inkscape:zoom="5.2802421"
     inkscape:cx="32.006108"
     inkscape:cy="82.571971"
     inkscape:window-width="2560"
     inkscape:window-height="1299"
     inkscape:window-x="0"
     inkscape:window-y="32"
     inkscape:window-maximized="1"
     inkscape:current-layer="g28" />
  <g
     inkscape:groupmode="layer"
     inkscape:label="Image"
     id="g28">
    <path
       style="fill:#000000;stroke-width:1.33333"
       d="m 68.666668,159.34797 c -25.979762,-1.92476 -39.082022,-3.77008 -47.262921,-6.65647 -3.15646,-1.11366 -6.820724,-2.02484 -8.142811,-2.02484 -4.891845,0 -8.1659488,-6.12805 -5.5089722,-10.31098 1.0018454,-1.57723 20.8798982,-7.59783 36.2480372,-10.97869 5.057031,-1.1125 15.610799,-1.39401 34.000001,-0.90693 46.221768,1.22431 74.086418,6.76426 76.190588,15.14794 0.50644,2.0178 0.11587,3.92006 -1.01772,4.95694 -3.01197,2.755 -19.42379,6.95439 -36.5062,9.34106 -23.343297,3.2614 -23.317407,3.26062 -48.000002,1.43197 z m 42.666672,-11.48696 c 14.33098,-1.80147 16.90176,-2.40192 16.06689,-3.75279 -1.11655,-1.8066 -9.01385,-2.80818 -33.400228,-4.23604 -21.633705,-1.26668 -37.604014,-0.55989 -55.333335,2.44887 l -6,1.01823 5.333334,1.71458 c 11.448168,3.6804 53.561887,5.29248 73.333339,2.80715 z M 89.776392,109.19323 c -6.664064,-2.07236 -9.38227,-3.84605 -14.333333,-9.352824 -7.555934,-8.404017 -8.221228,-13.040616 -3.241908,-22.593649 3.223623,-6.184656 4.585664,-7.308352 10.132184,-8.359141 10.81916,-2.049692 19.000005,3.641845 19.000005,13.218596 0,4.422724 -0.68109,6.219625 -2.963346,7.818181 -4.230304,2.96302 -11.924995,2.64282 -15.451911,-0.643001 -2.764375,-2.575407 -2.918081,-2.58765 -2.918081,-0.232419 0,5.28415 11.492326,12.215877 20.333338,12.264287 3.1222,0.0171 3.66666,0.57443 3.66666,3.7534 0,3.85255 -2.14492,7.02733 -4.599998,6.80862 -0.77,-0.0686 -5.100624,-1.27552 -9.62361,-2.68205 z m 2.22361,-27.955137 c 0,-2.308465 -3.610622,-5.250763 -6.238095,-5.083427 -2.045843,0.130294 -2.082416,0.246612 -0.232072,0.738082 1.208075,0.320876 2.501903,1.751276 2.875173,3.178664 0.70908,2.711525 3.594994,3.648089 3.594994,1.166681 z M 15.379451,56.38239 C 6.1592683,55.764988 3.7092675,54.236168 4.2659226,49.44746 4.5459854,47.038179 5.9620543,45.429742 8.968233,44.106359 12.382268,42.60343 13.722824,40.815258 15.46546,35.439693 16.673075,31.714529 18.18737,28.096666 18.830562,27.399999 19.473752,26.703333 20,24.732224 20,23.019756 c 0,-5.05346 3.821615,-9.686423 7.990087,-9.686423 4.413326,0 6.04998,1.786272 7.32992,8 0.528698,2.566667 1.866346,6.616666 2.972552,9 1.67591,3.610762 2.747047,4.333333 6.42373,4.333333 2.868112,0 5.937852,1.283315 8.770816,3.666667 4.306471,3.623002 4.565705,3.663833 21.768967,3.42869 32.845908,-0.44895 63.491028,-2.146797 64.368278,-3.566225 0.474,-0.766959 0.97948,-2.624769 1.12329,-4.128468 C 141.87502,22.2787 147.67828,12 153.20666,12 c 3.23648,0 7.23236,13.338385 5.4222,18.099471 -0.72802,1.914804 -1.16732,7.602138 -0.97626,12.638519 0.45103,11.888442 -1.13824,13.694424 -11.89113,13.512632 -4.26881,-0.07217 -25.56204,-0.749195 -47.318304,-1.5045 -28.874737,-1.002436 -41.296778,-0.96985 -46.000001,0.120666 -7.0534,1.635448 -24.57433,2.351908 -37.063714,1.515596 z"
       id="path1473" />
  </g>
</svg>
