<?xml version="1.0" encoding="UTF-8" standalone="no"?>
<!-- Created with Inkscape (http://www.inkscape.org/) -->

<svg
   version="1.1"
   id="svg32"
   width="56"
   height="153.33333"
   viewBox="0 0 56 153.33333"
   sodipodi:docname="0052.svg"
   inkscape:version="1.1.2 (0a00cf5339, 2022-02-04)"
   xmlns:inkscape="http://www.inkscape.org/namespaces/inkscape"
   xmlns:sodipodi="http://sodipodi.sourceforge.net/DTD/sodipodi-0.dtd"
   xmlns="http://www.w3.org/2000/svg"
   xmlns:svg="http://www.w3.org/2000/svg">
  <defs
     id="defs36" />
  <sodipodi:namedview
     id="namedview34"
     pagecolor="#ffffff"
     bordercolor="#666666"
     borderopacity="1.0"
     inkscape:pageshadow="2"
     inkscape:pageopacity="0.0"
     inkscape:pagecheckerboard="0"
     showgrid="false"
     inkscape:zoom="5.6934784"
     inkscape:cx="-19.67163"
     inkscape:cy="76.578844"
     inkscape:window-width="2560"
     inkscape:window-height="1299"
     inkscape:window-x="0"
     inkscape:window-y="32"
     inkscape:window-maximized="1"
     inkscape:current-layer="g38" />
  <g
     inkscape:groupmode="layer"
     inkscape:label="Image"
     id="g38">
    <path
       style="fill:#000000;stroke-width:1.33333"
       d="M 26.083023,147.00214 C 17.220599,146.76582 9.3905676,145.93412 8.4163567,145.1256 5.61186,142.79806 6.3824656,137.493 10.333333,131.92859 18.922676,119.83134 38.005337,120.88349 47.901792,134 c 2.213212,2.93333 4.040713,6.66222 4.061115,8.28642 0.04028,3.20667 -3.680699,5.88414 -7.541919,5.42687 -1.331543,-0.15769 -9.583628,-0.47771 -18.337965,-0.71115 z M 9.5252397,50.78527 C 8.8026411,50.33868 7.8249501,48.433454 7.3525933,46.551434 6.6220751,43.640818 7.4031009,42.384446 12.580215,38.14219 c 3.347548,-2.743064 6.086452,-5.729969 6.086452,-6.637567 0,-0.907598 -2.1,-3.942844 -4.666667,-6.74499 -4.9346765,-5.387412 -5.9359013,-10.046409 -2.73065,-12.706532 2.788077,-2.3138984 6.639925,-0.631136 10.680129,4.665844 1.93576,2.537913 4.617585,4.614388 5.959612,4.614388 1.342025,0 4.784274,-2.619191 7.64944,-5.820423 8.523829,-9.5236204 15.91566,-9.6718621 13.796705,-0.27669 -1.234127,5.471954 -3.342661,8.588407 -9.061963,13.393739 l -4.373393,3.674506 6.04006,6.457313 c 6.661864,7.12207 7.002771,8.085034 3.944821,11.142982 -3.652533,3.652535 -8.001065,2.532458 -12.571428,-3.238094 -2.323242,-2.933334 -4.83366,-5.333334 -5.578705,-5.333334 -0.745045,0 -3.382331,2.027703 -5.860635,4.506007 -4.418405,4.418405 -9.763796,6.555884 -12.3687533,4.945931 z"
       id="path1352" />
  </g>
</svg>
