<?xml version="1.0" encoding="UTF-8" standalone="no"?>
<!-- Created with Inkscape (http://www.inkscape.org/) -->

<svg
   version="1.1"
   id="svg42"
   width="62.666668"
   height="157.33333"
   viewBox="0 0 62.666668 157.33333"
   sodipodi:docname="0053.svg"
   inkscape:version="1.1.2 (0a00cf5339, 2022-02-04)"
   xmlns:inkscape="http://www.inkscape.org/namespaces/inkscape"
   xmlns:sodipodi="http://sodipodi.sourceforge.net/DTD/sodipodi-0.dtd"
   xmlns="http://www.w3.org/2000/svg"
   xmlns:svg="http://www.w3.org/2000/svg">
  <defs
     id="defs46" />
  <sodipodi:namedview
     id="namedview44"
     pagecolor="#ffffff"
     bordercolor="#666666"
     borderopacity="1.0"
     inkscape:pageshadow="2"
     inkscape:pageopacity="0.0"
     inkscape:pagecheckerboard="0"
     showgrid="false"
     inkscape:zoom="5.548729"
     inkscape:cx="-17.661702"
     inkscape:cy="78.576553"
     inkscape:window-width="2560"
     inkscape:window-height="1299"
     inkscape:window-x="0"
     inkscape:window-y="32"
     inkscape:window-maximized="1"
     inkscape:current-layer="g48" />
  <g
     inkscape:groupmode="layer"
     inkscape:label="Image"
     id="g48">
    <path
       style="fill:#000000;stroke-width:1.33333"
       d="m 21.504798,151.13402 c -1.831651,-1.33752 -1.86275,-1.97382 -0.244267,-4.99798 2.320238,-4.33542 1.095116,-5.69655 -3.317633,-3.68596 -8.6426319,3.93784 -11.2762312,0.88509 -11.2762312,-13.07094 0,-10.73639 0.97317,-11.8129 8.0704882,-8.92747 2.527899,1.02773 5.346179,1.59653 6.262845,1.26401 2.532426,-0.91862 1.996134,-5.37803 -1.160176,-9.64717 -2.22708,-3.01229 -2.643846,-4.91033 -1.96433,-8.94601 0.474382,-2.81738 1.356641,-8.122502 1.960574,-11.789169 0.603934,-3.666666 1.492851,-7.566666 1.975371,-8.666666 0.989404,-2.255543 1.82045,-14.265342 2.975839,-43.005119 0.709205,-17.641156 0.571755,-19.587716 -1.331552,-18.857348 -1.759174,0.675058 -2.166219,3.585259 -2.378487,17.00512 -0.140852,8.904874 -0.188001,17.690681 -0.104776,19.524014 0.170283,3.751107 -1.947696,15.277912 -3.552381,19.333333 -3.947062,9.975165 -6.33141,13.333333 -9.4668621,13.333333 -4.0957412,0 -4.8789085,-3.356227 -2.1333018,-9.142162 C 9.5377107,73.02317 10.900605,63.612099 11.83342,39.333332 12.90699,11.391077 13.843476,8.321304 22.175084,5.4336847 c 4.581597,-1.5879176 6.174003,-1.612609 9.703929,-0.1504663 5.891772,2.4404518 6.906117,5.0734406 8.174293,21.2184356 0.611958,7.790756 1.763012,21.065012 2.5579,29.498345 1.339912,14.215734 2.007559,19.30847 5.574275,42.519959 1.304261,8.487872 1.293324,8.536332 -2.903684,12.866542 -3.113187,3.212 -3.980892,5.07751 -3.324153,7.14671 1.068382,3.36617 2.225909,3.46318 7.67859,0.64348 3.905358,-2.01953 4.282566,-2.00333 5.933787,0.25484 2.76984,3.78799 2.764544,21.76467 -0.0069,23.49552 -0.816426,0.50988 -3.496035,-0.3162 -5.954688,-1.83573 -5.577983,-3.44739 -7.568819,-1.95475 -5.460263,4.09386 1.139601,3.26907 1.133796,4.73287 -0.02336,5.89003 -2.010032,2.01004 -19.884262,2.05651 -22.619989,0.0588 z"
       id="path1231" />
  </g>
</svg>
