<?xml version="1.0" encoding="UTF-8" standalone="no"?>
<!-- Created with Inkscape (http://www.inkscape.org/) -->

<svg
   version="1.1"
   id="svg2"
   width="162.66667"
   height="160"
   viewBox="0 0 162.66667 160"
   sodipodi:docname="0054.svg"
   inkscape:version="1.1.2 (0a00cf5339, 2022-02-04)"
   xmlns:inkscape="http://www.inkscape.org/namespaces/inkscape"
   xmlns:sodipodi="http://sodipodi.sourceforge.net/DTD/sodipodi-0.dtd"
   xmlns="http://www.w3.org/2000/svg"
   xmlns:svg="http://www.w3.org/2000/svg">
  <defs
     id="defs6" />
  <sodipodi:namedview
     id="namedview4"
     pagecolor="#ffffff"
     bordercolor="#666666"
     borderopacity="1.0"
     inkscape:pageshadow="2"
     inkscape:pageopacity="0.0"
     inkscape:pagecheckerboard="0"
     showgrid="false"
     inkscape:zoom="5.45625"
     inkscape:cx="81.37457"
     inkscape:cy="79.908362"
     inkscape:window-width="2560"
     inkscape:window-height="1299"
     inkscape:window-x="0"
     inkscape:window-y="32"
     inkscape:window-maximized="1"
     inkscape:current-layer="g8" />
  <g
     inkscape:groupmode="layer"
     inkscape:label="Image"
     id="g8">
    <path
       style="fill:#000000;stroke-width:1.33333"
       d="m 141.33334,152.83003 c -9.75299,-3.59382 -15.23258,-6.99879 -19.19292,-11.92634 -3.52753,-4.38902 -4.09597,-6.18157 -4.09597,-12.91623 0,-8.98423 3.04445,-13.48657 10.86473,-16.06749 4.38175,-1.44611 15.69057,-0.73675 18.62165,1.16807 2.12739,1.38252 4.46917,6.39036 4.46917,9.55718 0,4.31217 -3.78317,10.67598 -7.06386,11.88235 C 140.87342,136.02152 132,134.75699 132,132.68405 c 0,-0.92997 -0.9,-2.4378 -2,-3.35072 -2.33245,-1.93576 -2.86222,0.37797 -0.69978,3.05628 5.7091,7.07107 8.14681,8.83659 15.05657,10.90484 8.32513,2.4919 11.70655,6.08276 8.90581,9.45744 -1.93648,2.33332 -5.74144,2.35824 -11.92926,0.0781 z m -0.77572,-26.97268 c 2.96058,-1.13608 2.62733,-4.07746 -0.55628,-4.91 -3.10294,-0.81144 -4.34998,0.59269 -3.19635,3.59899 0.92515,2.41087 0.90488,2.40379 3.75263,1.31101 z M 15.87028,150.62057 c -1.642442,-0.91916 -1.995245,-4.47421 -1.939016,-19.53875 L 14,112.66667 l 14.666667,-0.8099 c 8.066667,-0.44544 15.230711,-0.3014 15.920099,0.3201 3.359838,3.02896 3.302775,33.80026 -0.06893,37.17197 -1.671655,1.67165 -26.002867,2.75177 -28.647554,1.27173 z M 5.4190332,66.826799 C 3.1088537,62.510188 3.8893133,53.171339 7.2017301,45.495347 13.063144,31.912465 25.587611,22.28038 39.666667,20.527813 c 6.570138,-0.817852 7.000001,-1.100601 7.000001,-4.604349 0,-7.73715 1.227848,-8.0086259 34.440943,-7.6148563 l 30.201019,0.358059 0.67902,3.9155193 c 0.54468,3.140869 1.60228,4.148841 5.34569,5.094857 20.32876,5.137384 33.0385,18.006637 37.52146,37.992342 2.30132,10.25966 0.45824,13.663948 -7.39764,13.663948 -7.24664,0 -10.12382,-2.526364 -10.12382,-8.88941 0,-2.584415 -1.07163,-6.291558 -2.38139,-8.238096 -1.30976,-1.946538 -3.15508,-5.03916 -4.10071,-6.872494 -1.9628,-3.805353 -13.25093,-9.844049 -17.0092,-9.099238 -2.24884,0.445673 -2.5087,1.832853 -2.5087,13.391624 0,7.821452 -0.59416,13.491194 -1.51022,14.411242 -1.6919,1.699276 -56.389275,3.006582 -58.973399,1.409506 C 49.995278,64.918392 49.012992,59.052633 48.585166,51.923596 47.524532,34.249825 47.186801,32.961143 44.054882,34.637296 42.654452,35.386783 40.255794,36 38.724531,36 c -1.531261,0 -5.461442,2.467877 -8.733736,5.484171 -5.866328,5.407393 -6.300765,6.338932 -11.122423,23.849162 -0.764677,2.776986 -1.84523,3.401066 -6.47409,3.739143 C 7.9609468,69.396273 6.5512876,68.942435 5.4190332,66.826799 Z M 64.000001,38 c 0,-7.555556 -0.538012,-12.666667 -1.333333,-12.666667 -0.795321,0 -1.333333,5.111111 -1.333333,12.666667 0,7.555556 0.538012,12.666667 1.333333,12.666667 0.795321,0 1.333333,-5.111111 1.333333,-12.666667 z m 10.666667,0 c 0,-7.555556 -0.538012,-12.666667 -1.333333,-12.666667 -0.795322,0 -1.333334,5.111111 -1.333334,12.666667 0,7.555556 0.538012,12.666667 1.333334,12.666667 0.795321,0 1.333333,-5.111111 1.333333,-12.666667 z m 10.666667,0 c 0,-7.555556 -0.538012,-12.666667 -1.333333,-12.666667 -0.795322,0 -1.333334,5.111111 -1.333334,12.666667 0,7.555556 0.538012,12.666667 1.333334,12.666667 0.795321,0 1.333333,-5.111111 1.333333,-12.666667 z m 12,0 c 0,-7.555556 -0.538012,-12.666667 -1.333333,-12.666667 -0.795321,0 -1.333333,5.111111 -1.333333,12.666667 0,7.555556 0.538012,12.666667 1.333333,12.666667 0.795321,0 1.333333,-5.111111 1.333333,-12.666667 z"
       id="path12" />
  </g>
</svg>
