<?xml version="1.0" encoding="UTF-8" standalone="no"?>
<!-- Created with Inkscape (http://www.inkscape.org/) -->

<svg
   version="1.1"
   id="svg72"
   width="157.33333"
   height="162.66667"
   viewBox="0 0 157.33333 162.66667"
   sodipodi:docname="0056.svg"
   inkscape:version="1.1.2 (0a00cf5339, 2022-02-04)"
   xmlns:inkscape="http://www.inkscape.org/namespaces/inkscape"
   xmlns:sodipodi="http://sodipodi.sourceforge.net/DTD/sodipodi-0.dtd"
   xmlns="http://www.w3.org/2000/svg"
   xmlns:svg="http://www.w3.org/2000/svg">
  <defs
     id="defs76" />
  <sodipodi:namedview
     id="namedview74"
     pagecolor="#ffffff"
     bordercolor="#666666"
     borderopacity="1.0"
     inkscape:pageshadow="2"
     inkscape:pageopacity="0.0"
     inkscape:pagecheckerboard="0"
     showgrid="false"
     inkscape:zoom="5.3668031"
     inkscape:cx="28.135931"
     inkscape:cy="81.240171"
     inkscape:window-width="2560"
     inkscape:window-height="1299"
     inkscape:window-x="0"
     inkscape:window-y="32"
     inkscape:window-maximized="1"
     inkscape:current-layer="g78" />
  <g
     inkscape:groupmode="layer"
     inkscape:label="Image"
     id="g78">
    <path
       style="fill:#000000;stroke-width:1.33333"
       d="M 66.666665,154.4691 C 23.378574,153.02375 8.926029,152.12603 7.6002077,150.80022 5.3486106,148.54862 4.9831234,138.188 7.0576547,135.42024 c 2.147968,-2.86573 12.2470333,-4.44636 30.9423443,-4.84286 16.438591,-0.34863 18.542786,-1.06559 19.333333,-6.58746 0.600923,-4.19737 1.061132,-4.63633 4.666667,-4.45121 2.2,0.11296 8.2687,1.11745 13.485999,2.2322 7.058988,1.50825 10.973014,1.69271 15.298007,0.72095 3.196604,-0.71823 9.848445,-1.38072 14.781865,-1.4722 7.91601,-0.14678 9.7712,0.33182 15.79058,4.07368 6.15564,3.82655 7.84293,4.24 17.30357,4.24 7.75207,0 11.02864,0.5458 12.57807,2.09523 2.40435,2.40434 2.80997,11.85129 0.74237,17.28949 -1.49594,3.93464 -3.37354,3.98852 -18.39532,0.52778 -6.49137,-1.49548 -7.93583,-1.34897 -17.33332,1.7581 -13.07923,4.32436 -16.562147,4.56776 -49.585155,3.46516 z M 65.670671,79.347195 C 53.767239,74.173316 41.333332,58.618324 41.333332,48.900844 c 0,-2.850426 0.941958,-8.869198 2.093238,-13.37505 1.745993,-6.833425 3.324104,-9.445521 9.513082,-15.746102 8.261984,-8.410965 13.456752,-10.4463585 26.661382,-10.4463585 8.650716,0 17.93334,4.0008695 25.153796,10.8414455 5.16479,4.893062 9.30375,17.773282 8.94261,27.828909 -0.29744,8.281917 -5.62061,19.624268 -11.9581,25.479755 -7.133714,6.591155 -26.974274,9.816672 -36.068669,5.863752 z m 4.976158,-7.680527 C 70.611553,68.7026 62.107897,60.117172 58.333332,59.234764 c -6.840964,-1.599263 -2.617679,7.135623 5.532891,11.443501 5.734788,3.03105 6.806777,3.187313 6.780606,0.988403 z m 15.758373,-5.30936 c 0.238223,-1.227779 -2.096964,-3.885305 -5.666666,-6.448872 -3.33953,-2.398268 -6.071871,-4.722334 -6.071871,-5.16459 0,-0.442256 -2.1,-1.935026 -4.666666,-3.317268 -2.566667,-1.382241 -4.666667,-2.997052 -4.666667,-3.588469 0,-1.177799 -9.326836,-7.838108 -10.97618,-7.838108 -0.563101,0 -0.991472,1.35 -0.951934,3 0.04921,2.054045 2.466655,4.785573 7.666666,8.662769 4.177129,3.114523 10.894781,8.338618 14.928114,11.609099 7.517379,6.095567 9.69582,6.741536 10.405204,3.085439 z m 13.574379,-7.357307 c -0.0112,-1.283333 -0.46123,-2.933333 -1,-3.666667 -1.204231,-1.639108 -7.723987,-6.063977 -12.61118,-8.559036 -1.997377,-1.019721 -5.795233,-3.835853 -8.439679,-6.258071 -2.644445,-2.422217 -5.963464,-4.770736 -7.375597,-5.218929 -1.412133,-0.448193 -4.376321,-2.336908 -6.587086,-4.197144 -3.274016,-2.754904 -4.385568,-3.078495 -5.992806,-1.744607 -1.085278,0.900702 -1.973234,2.091476 -1.973234,2.646164 0,2.089315 30.531806,24.149485 37.999999,27.456169 5.307061,2.349803 6.003682,2.29646 5.979583,-0.457879 z m 4.670049,-10.972444 c 1.11187,-1.799036 -1.68389,-6.694223 -3.82323,-6.694223 -0.960538,0 -2.865835,-1.236923 -4.23399,-2.748717 -1.368155,-1.511794 -3.522273,-2.478132 -4.786929,-2.147416 -1.423706,0.372306 -4.0779,-1.246707 -6.969512,-4.251284 C 78.764512,25.87727 71.360097,20 69.483671,20 c -3.4747,0 -0.964268,4.605338 6.182994,11.342582 5.284631,4.981465 8.782411,7.241956 11.257728,7.275468 2.106841,0.02852 4.409525,1.217139 5.57133,2.875848 1.868319,2.667399 8.415547,7.52933 10.425587,7.741971 0.50672,0.0536 1.28447,-0.490135 1.72832,-1.208312 z M 100.93297,28.45347 c 0.91949,-2.396141 -5.391688,-8.434838 -8.827984,-8.446847 -1.042257,-0.0036 -2.842257,-0.835655 -4,-1.848915 -3.290093,-2.879501 -8.104988,-3.994898 -8.104988,-1.877566 0,3.353417 4.163096,7.751433 10.422933,11.011091 7.459282,3.884237 9.383846,4.097062 10.510039,1.162237 z"
       id="path868" />
  </g>
</svg>
