<?xml version="1.0" encoding="UTF-8" standalone="no"?>
<!-- Created with Inkscape (http://www.inkscape.org/) -->

<svg
   version="1.1"
   id="svg82"
   width="102.66667"
   height="157.33333"
   viewBox="0 0 102.66667 157.33333"
   sodipodi:docname="0057.svg"
   inkscape:version="1.1.2 (0a00cf5339, 2022-02-04)"
   xmlns:inkscape="http://www.inkscape.org/namespaces/inkscape"
   xmlns:sodipodi="http://sodipodi.sourceforge.net/DTD/sodipodi-0.dtd"
   xmlns="http://www.w3.org/2000/svg"
   xmlns:svg="http://www.w3.org/2000/svg">
  <defs
     id="defs86" />
  <sodipodi:namedview
     id="namedview84"
     pagecolor="#ffffff"
     bordercolor="#666666"
     borderopacity="1.0"
     inkscape:pageshadow="2"
     inkscape:pageopacity="0.0"
     inkscape:pagecheckerboard="0"
     showgrid="false"
     inkscape:zoom="5.548729"
     inkscape:cx="2.3428789"
     inkscape:cy="78.576553"
     inkscape:window-width="2560"
     inkscape:window-height="1299"
     inkscape:window-x="0"
     inkscape:window-y="32"
     inkscape:window-maximized="1"
     inkscape:current-layer="g88" />
  <g
     inkscape:groupmode="layer"
     inkscape:label="Image"
     id="g88">
    <path
       style="fill:#000000;stroke-width:1.33333"
       d="m 45.28332,151.27306 c -1.175455,-1.41633 -1.747391,-7.30765 -1.829925,-18.84943 -0.119974,-16.77751 -0.117534,-16.79107 3.508083,-19.50465 3.046784,-2.28035 4.168436,-2.46929 7,-1.17914 l 3.371857,1.53632 v 19.20641 c 0,18.79065 -0.06493,19.22381 -3,20.01037 -4.838987,1.2968 -7.228688,0.9747 -9.050015,-1.21988 z M 6.6853538,150.70642 C 5.1045656,149.70693 4.6812795,145.87018 4.5914459,131.72685 4.5295188,121.97708 5.0445764,113.25 5.7360186,112.33333 c 1.7382552,-2.30446 7.7366234,-2.0874 11.3006404,0.40894 2.801986,1.96259 2.963342,3.01274 2.963342,19.28642 0,15.65123 -0.233703,17.33589 -2.579012,18.59107 -3.192811,1.70873 -8.1074371,1.74841 -10.7356352,0.0867 z m 74.9813152,0.41054 c -2.099856,-0.84731 -2.350697,-34.01415 -0.286421,-37.87128 1.610335,-3.00894 10.779406,-3.65551 12.93818,-0.91235 1.555496,1.97657 1.497784,35.58165 -0.06527,38 -1.04876,1.62265 -9.242875,2.13281 -12.586499,0.78363 z M 48.324874,80.032117 C 45.203552,78.615326 40.646917,75.928502 38.199019,74.0614 33.618624,70.567763 28.785228,69.650787 27.333334,71.999998 c -1.23489,1.998096 -6.349489,1.606847 -9.703325,-0.742272 -4.182477,-2.929519 -3.999398,-9.819566 0.369992,-13.924394 3.98751,-3.746072 4.05472,-4.628497 0.86952,-11.416228 C 14.090202,35.732279 12.780878,28.436053 14.625666,22.268169 17.500955,12.654894 20.313605,9.9141169 29.249802,8.0177265 39.071589,5.9334015 43.636465,6.7159815 54.254967,12.30449 l 8.254967,4.344582 3.817992,-3.65787 c 4.326855,-4.1453893 7.742032,-4.5941255 12.042069,-1.582264 3.750345,2.626844 3.882469,8.39629 0.296674,12.954889 -1.466666,1.864564 -2.666667,3.778402 -2.666667,4.252971 0,0.474569 2.400001,4.397009 5.333334,8.716535 5.110377,7.525363 5.333333,8.294409 5.333333,18.396328 0,12.821011 -2.690569,17.740859 -12.709064,23.239192 -8.08937,4.439595 -17.348234,4.823659 -25.632731,1.063264 z"
       id="path747" />
  </g>
</svg>
