<?xml version="1.0" encoding="UTF-8" standalone="no"?>
<!-- Created with Inkscape (http://www.inkscape.org/) -->

<svg
   version="1.1"
   id="svg102"
   width="154.66667"
   height="156"
   viewBox="0 0 154.66667 156"
   sodipodi:docname="0059.svg"
   inkscape:version="1.1.2 (0a00cf5339, 2022-02-04)"
   xmlns:inkscape="http://www.inkscape.org/namespaces/inkscape"
   xmlns:sodipodi="http://sodipodi.sourceforge.net/DTD/sodipodi-0.dtd"
   xmlns="http://www.w3.org/2000/svg"
   xmlns:svg="http://www.w3.org/2000/svg">
  <defs
     id="defs106" />
  <sodipodi:namedview
     id="namedview104"
     pagecolor="#ffffff"
     bordercolor="#666666"
     borderopacity="1.0"
     inkscape:pageshadow="2"
     inkscape:pageopacity="0.0"
     inkscape:pagecheckerboard="0"
     showgrid="false"
     inkscape:zoom="5.5961538"
     inkscape:cx="28.769759"
     inkscape:cy="77.910653"
     inkscape:window-width="2560"
     inkscape:window-height="1299"
     inkscape:window-x="0"
     inkscape:window-y="32"
     inkscape:window-maximized="1"
     inkscape:current-layer="g108" />
  <g
     inkscape:groupmode="layer"
     inkscape:label="Image"
     id="g108">
    <path
       style="fill:#000000;stroke-width:1.33333"
       d="m 58.666668,150.5324 c -8.433334,-0.54417 -18.933334,-1.68437 -23.333334,-2.53376 -4.4,-0.84939 -10.7,-1.97235 -14,-2.49545 -3.3,-0.52312 -8.4,-2.12534 -11.333334,-3.5605 -4.4343255,-2.16952 -5.3333332,-3.275 -5.3333332,-6.55824 0,-2.91029 0.8766857,-4.35614 3.3333334,-5.49741 1.8333333,-0.8517 6.0333338,-2.7948 9.3333338,-4.318 8.043272,-3.71257 22.64388,-4.90307 57.333334,-4.67482 29.054482,0.19117 40.097052,1.18851 53.333332,4.81693 4.03334,1.10564 10.03334,2.44078 13.33334,2.96698 7.46726,1.19067 9.33333,2.65458 9.33333,7.32187 0,5.45643 -1.41917,6.21297 -20,10.6618 -17.08831,4.09148 -45.176341,5.60144 -72.000002,3.8706 z m 46.947712,-10.69103 c 15.15516,-1.64813 21.9009,-4.31533 14.12807,-5.58609 -2.42501,-0.39647 -7.40911,-1.42535 -11.07578,-2.28642 -14.633879,-3.43658 -77.116713,-1.38548 -81.166612,2.66442 C 26.566649,135.56668 27.043446,136 29.00393,136 c 1.578828,0 4.248828,0.61811 5.933333,1.37357 7.207033,3.23223 49.930847,4.72399 70.677117,2.4678 z M 14.171287,103.31414 C 9.9873253,99.130183 16.956028,87.714344 26.441846,83.213029 30.245663,81.408 33.399643,81.131368 42.584658,81.79716 c 6.278439,0.455104 13.511382,1.436923 16.073207,2.181817 2.561826,0.744896 7.54065,1.354356 11.064055,1.354356 h 6.40619 L 72.313631,79.666667 C 66.491695,71.017789 63.695908,59.845189 64.22032,47.323963 L 64.666668,36.666667 49.75772,29.333333 C 35.603907,22.371432 33.027934,20.197812 34.333213,16.318055 c 1.472597,-4.377084 5.57564,-4.498605 14.021059,-0.415264 4.571817,2.210464 10.074967,5.202454 12.229219,6.648868 2.154252,1.446414 4.404252,2.328596 5,1.960402 0.595748,-0.368192 1.083177,-4.414029 1.083177,-8.99075 C 66.666668,6.6412809 68.065885,4 72.770075,4 c 5.054712,0 6.11098,2.8613201 5.114732,13.855288 -0.727929,8.032985 -0.537619,10.200321 0.933801,10.634476 21.639042,6.384784 25.999692,8.367625 33.238302,15.113873 4.10096,3.822011 9.11341,10.237963 11.16266,14.288234 3.35917,6.639281 3.62576,8.158036 2.7526,15.681265 -0.79477,6.847804 -1.67445,8.991048 -4.94382,12.0451 -2.18737,2.043304 -4.47184,3.715097 -5.07662,3.715097 -0.60478,0 -1.29132,1.329383 -1.52566,2.954184 -0.23434,1.624802 -2.52607,4.38005 -5.09273,6.122774 -4.00098,2.716599 -5.68521,3.051969 -11.806881,2.351019 -3.927116,-0.44966 -8.23767,-1.404906 -9.579012,-2.12277 -1.341341,-0.717864 -4.617691,-1.305207 -7.280779,-1.305207 -2.663088,0 -5.942165,-0.588802 -7.28684,-1.30845 C 72.035154,95.305235 67.401843,94.448601 63.083583,94.121255 58.765321,93.793908 53.561413,93.106737 51.51934,92.594209 48.24601,91.772656 47.046376,92.48482 41.385609,98.610103 33.538687,107.10093 29.120675,107.55742 27.933743,100 l -0.732924,-4.666667 -3.065444,4.999997 c -3.262763,5.32185 -6.619013,6.32589 -9.964088,2.98081 z"
       id="path505" />
  </g>
</svg>
