<?xml version="1.0" encoding="UTF-8" standalone="no"?>
<!-- Created with Inkscape (http://www.inkscape.org/) -->

<svg
   version="1.1"
   id="svg112"
   width="162.66667"
   height="162.66667"
   viewBox="0 0 162.66667 162.66667"
   sodipodi:docname="0060.svg"
   inkscape:version="1.1.2 (0a00cf5339, 2022-02-04)"
   xmlns:inkscape="http://www.inkscape.org/namespaces/inkscape"
   xmlns:sodipodi="http://sodipodi.sourceforge.net/DTD/sodipodi-0.dtd"
   xmlns="http://www.w3.org/2000/svg"
   xmlns:svg="http://www.w3.org/2000/svg">
  <defs
     id="defs116" />
  <sodipodi:namedview
     id="namedview114"
     pagecolor="#ffffff"
     bordercolor="#666666"
     borderopacity="1.0"
     inkscape:pageshadow="2"
     inkscape:pageopacity="0.0"
     inkscape:pagecheckerboard="0"
     showgrid="false"
     inkscape:zoom="5.3668031"
     inkscape:cx="30.74456"
     inkscape:cy="81.240171"
     inkscape:window-width="2560"
     inkscape:window-height="1299"
     inkscape:window-x="0"
     inkscape:window-y="32"
     inkscape:window-maximized="1"
     inkscape:current-layer="g118" />
  <g
     inkscape:groupmode="layer"
     inkscape:label="Image"
     id="g118">
    <path
       style="fill:#000000;stroke-width:1.33333"
       d="m 78.666668,158.72595 -18,-0.72595 0.241381,-3.59628 c 0.8829,-13.1541 22.860745,-21.22745 35.363356,-12.99038 10.530135,6.93753 12.582355,19.1977 3.06193,18.2922 -1.466666,-0.1395 -10.766667,-0.58031 -20.666667,-0.97959 z M 62.000001,119.48577 C 50.94311,117.67796 32.921443,110.56177 23.385786,104.23823 20.423603,102.27387 16.406031,99.845267 14.457844,98.841333 12.509659,97.837397 9.8259722,94.992513 8.4940952,92.519367 4.0418278,84.252007 4.3796938,84.19783 52.666668,85.436179 c 23.466667,0.601817 55.866672,1.201268 72.000002,1.332111 16.13333,0.13084 30.08333,0.525698 31,0.877456 2.87769,1.104273 1.81884,6.379195 -2,9.963412 C 135.74991,114.42518 93.182299,124.58411 62.000001,119.48577 Z M 25.44291,76.000002 c -2.028608,-1.393151 -2.529626,-5.160923 -0.969911,-7.293961 1.201855,-1.643633 4.721755,-2.45597 13.560731,-3.129598 11.380443,-0.867316 12.020951,-1.08412 13.724468,-4.645571 C 53.923652,56.40368 52.836016,54.733308 45.095804,50.698884 37.462381,46.720121 29.538586,40.082594 28.500357,36.797371 26.661967,30.980235 21.024575,25.460318 13.910774,22.511811 8.2550324,20.167638 6.6666668,18.868014 6.6666668,16.584575 c 0,-3.724502 1.9544568,-5.288537 8.9437042,-7.1571101 3.085704,-0.8249621 5.971115,-2.0836261 6.412023,-2.7970313 1.011645,-1.636877 12.070811,-1.700632 15.065261,-0.086849 1.235124,0.6656377 4.673797,3.5256604 7.641497,6.3556064 2.9677,2.829947 9.8677,7.309664 15.333333,9.954928 5.465634,2.645263 11.477307,6.235241 13.359274,7.977726 6.752664,6.252195 14.28182,9.481461 20.3212,8.715795 21.167091,-2.683544 30.393571,-5.860383 32.881981,-11.321842 l 1.58615,-3.481229 2.45205,3.250748 c 1.72877,2.291885 2.27272,4.738453 1.84411,8.294383 -0.53124,4.407305 -0.25974,5.043634 2.1519,5.043634 1.51791,0 4.91384,-0.9 7.54651,-2 7.48496,-3.127416 12.28584,-2.634344 13.82734,1.420134 1.94579,5.117813 1.65616,6.367698 -2.57338,11.105086 l -3.87371,4.338842 -25.12629,0.0108 c -13.81946,0.006 -29.026285,-0.392594 -33.792951,-0.88567 -9.426297,-0.975077 -12.927998,0.422496 -13.390058,5.344142 -0.470795,5.014689 0.05911,6 3.226797,6 3.985918,0 6.498339,2.933537 5.932279,6.926611 l -0.435685,3.073389 h -29.79317 c -16.386243,0 -30.230009,-0.3 -30.763922,-0.666666 z M 66.666668,60.565863 c 0,-1.06599 -0.825681,-1.498659 -2,-1.04803 -1.1,0.42211 -2,1.584447 -2,2.582974 0,1.065989 0.825681,1.498658 2,1.048029 1.1,-0.422109 2,-1.584447 2,-2.582973 z"
       id="path384" />
  </g>
</svg>
