<?xml version="1.0" encoding="UTF-8" standalone="no"?>
<!-- Created with Inkscape (http://www.inkscape.org/) -->

<svg
   version="1.1"
   id="svg122"
   width="161.33333"
   height="157.33333"
   viewBox="0 0 161.33333 157.33333"
   sodipodi:docname="0061.svg"
   inkscape:version="1.1.2 (0a00cf5339, 2022-02-04)"
   xmlns:inkscape="http://www.inkscape.org/namespaces/inkscape"
   xmlns:sodipodi="http://sodipodi.sourceforge.net/DTD/sodipodi-0.dtd"
   xmlns="http://www.w3.org/2000/svg"
   xmlns:svg="http://www.w3.org/2000/svg">
  <defs
     id="defs126" />
  <sodipodi:namedview
     id="namedview124"
     pagecolor="#ffffff"
     bordercolor="#666666"
     borderopacity="1.0"
     inkscape:pageshadow="2"
     inkscape:pageopacity="0.0"
     inkscape:pagecheckerboard="0"
     showgrid="false"
     inkscape:zoom="5.548729"
     inkscape:cx="31.718976"
     inkscape:cy="78.576553"
     inkscape:window-width="2560"
     inkscape:window-height="1299"
     inkscape:window-x="0"
     inkscape:window-y="32"
     inkscape:window-maximized="1"
     inkscape:current-layer="g128" />
  <g
     inkscape:groupmode="layer"
     inkscape:label="Image"
     id="g128">
    <path
       style="fill:#000000;stroke-width:1.33333"
       d="m 142.41088,151.09584 c -2.15046,-0.56707 -18.25691,-9.12627 -27.3592,-14.5391 l -4.28165,-2.54614 -8.55847,4.34753 c -5.414773,2.7506 -9.474283,4.02247 -11.051686,3.46255 C 88.858019,141.0036 54.619468,116.02426 51.125527,112.61291 50.2779,111.78531 44.908826,107.85885 39.194253,103.88743 27.388767,95.683049 19.64859,88.396995 20.379056,86.176141 c 1.282857,-3.900305 7.958185,-1.619553 36.259985,12.388912 16.410284,8.122557 30.646295,14.768277 31.635577,14.768277 0.989283,0 3.016101,0.8527 4.50404,1.8949 1.48794,1.04219 14.371442,7.41856 28.630012,14.1697 14.25857,6.75115 26.78107,13.07628 27.82779,14.05585 1.51954,1.42207 1.59248,2.46283 0.36191,5.16363 -1.50716,3.30788 -2.60556,3.68663 -7.18749,2.47843 z M 21.92039,32.886775 C 14.513168,29.378031 7.0847615,21.140474 5.9104648,15.132945 4.0843746,5.7909351 14.327454,3.5587642 17.326254,12.645218 c 2.049834,6.211056 6.247623,9.249059 16.683109,12.073813 7.193171,1.947102 9.328477,2.069867 12.317111,0.708155 3.324681,-1.514827 3.418472,-1.757497 1.166374,-3.017834 -1.346966,-0.7538 -4.666957,-1.015884 -7.377758,-0.582411 -6.40656,1.024451 -11.305716,-2.052397 -9.989259,-6.273617 1.203682,-3.859605 2.649955,-4.625113 10.619432,-5.6208337 4.2785,-0.5345632 9.923173,-0.1014506 15.344816,1.1774007 5.012577,1.182361 18.669971,2.351889 32.865744,2.814403 13.359037,0.435254 26.145267,1.162591 28.413847,1.616307 4.09328,0.818655 4.12153,0.785471 3.71084,-4.357832 -0.36476,-4.5679955 -0.0425,-5.2353371 2.71664,-5.6259363 3.35552,-0.4750243 9.53618,4.2836912 9.53618,7.3422523 0,1.316811 2.65221,1.767581 10.4,1.767581 6.31111,0 11.02905,0.62906 12,1.6 2.09239,2.09239 2.05337,7.295754 -0.0645,8.604684 -0.91548,0.5658 -8.61074,0.849389 -17.10055,0.630199 -16.06047,-0.414651 -22.53303,0.9646 -26.39819,5.625245 -2.83258,3.415547 -9.3211,2.859637 -10.75879,-0.921768 -1.06095,-2.7905 -2.302923,-3.222435 -11.501503,-4 -19.530362,-1.650921 -24.295934,-1.221352 -29.3679,2.647225 -5.155721,3.93246 -12.003656,5.846458 -23.875201,6.673115 -6.450727,0.449187 -9.306477,-0.0618 -14.746276,-2.638591 z"
       id="path263" />
  </g>
</svg>
