<?xml version="1.0" encoding="UTF-8" standalone="no"?>
<!-- Created with Inkscape (http://www.inkscape.org/) -->

<svg
   version="1.1"
   id="svg132"
   width="165.33333"
   height="154.66667"
   viewBox="0 0 165.33333 154.66667"
   sodipodi:docname="0062.svg"
   inkscape:version="1.1.2 (0a00cf5339, 2022-02-04)"
   xmlns:inkscape="http://www.inkscape.org/namespaces/inkscape"
   xmlns:sodipodi="http://sodipodi.sourceforge.net/DTD/sodipodi-0.dtd"
   xmlns="http://www.w3.org/2000/svg"
   xmlns:svg="http://www.w3.org/2000/svg">
  <defs
     id="defs136" />
  <sodipodi:namedview
     id="namedview134"
     pagecolor="#ffffff"
     bordercolor="#666666"
     borderopacity="1.0"
     inkscape:pageshadow="2"
     inkscape:pageopacity="0.0"
     inkscape:pagecheckerboard="0"
     showgrid="false"
     inkscape:zoom="5.6443964"
     inkscape:cx="82.736925"
     inkscape:cy="77.244752"
     inkscape:window-width="2560"
     inkscape:window-height="1299"
     inkscape:window-x="0"
     inkscape:window-y="32"
     inkscape:window-maximized="1"
     inkscape:current-layer="g138" />
  <g
     inkscape:groupmode="layer"
     inkscape:label="Image"
     id="g138">
    <path
       style="fill:#000000;stroke-width:1.33333"
       d="m 9.2405778,145.88824 c -2.5963706,-3.12844 0.077567,-6.39672 6.0253902,-7.36466 3.23805,-0.52696 6.660874,-2.49487 9.800905,-5.63489 4.604144,-4.60415 4.751277,-5.02941 3.212466,-9.28491 -2.126848,-5.8817 -2.034648,-9.58686 0.353482,-14.20499 1.899513,-3.67326 1.77763,-4.04385 -3.595984,-10.933792 -3.059175,-3.922415 -8.212944,-10.029724 -11.45282,-13.5718 -5.5367628,-6.053206 -5.8377029,-6.77418 -5.0088914,-12 1.9216884,-12.116622 6.4076994,-11.208505 12.9412274,2.619733 3.570836,7.557689 11.411186,16.487071 14.4763,16.487071 0.678258,0 3.502357,-2.452523 6.275773,-5.450051 2.773417,-2.997527 6.995858,-6.266184 9.383204,-7.26368 l 4.340628,-1.813631 -2.767286,-4.690197 c -2.876585,-4.875451 -2.744505,-6.85063 1.000227,-14.957659 1.550421,-3.356532 2.975559,-4.342636 7.268056,-5.029035 2.93671,-0.469599 7.752022,-0.204184 10.700694,0.589811 4.587828,1.235375 5.757749,2.340047 8.109997,7.657693 l 2.748778,6.214068 -2.821795,4.902975 -2.821795,4.902976 3.03096,0.760723 c 2.830539,0.71042 10.422488,8.051746 20.568056,19.889068 4.88548,5.700117 5.78793,12.085867 1.99185,14.094307 -2.11837,1.12079 -11.743174,-0.32616 -21.248898,-3.19447 -2.866714,-0.86501 -2.916526,-0.6455 -2.973068,13.10217 l -0.05751,13.98192 5.896828,1.48484 c 3.243256,0.81667 7.657669,1.48484 9.809807,1.48484 4.715599,0 7.442521,2.87628 6.259811,6.60268 C 99.836379,147.94934 98.996181,148 55.406742,148 16.509937,148 10.775489,147.7377 9.2405778,145.88824 Z m 49.1945592,-31.9913 c 0.697806,-8.38747 -3.372371,-19.230271 -7.218669,-19.230271 -2.435428,0 -11.216469,7.850371 -11.216469,10.027671 0,2.18726 14.848704,15.41666 16.666667,14.84912 0.733333,-0.22894 1.529145,-2.76988 1.768471,-5.64652 z M 86.666665,99.10499 c 0,-1.674376 -4.406081,-5.771655 -6.206651,-5.771655 -2.261477,0 -2.368348,4.879095 -0.12668,5.783626 2.505483,1.010979 6.333334,1.003749 6.333334,-0.012 z M 141,145.74379 c -2.74758,-0.71356 -2.59828,0.58892 -2.3378,-20.39568 0.1156,-9.3112 0.82186,-17.39312 1.60217,-18.33333 0.76752,-0.92479 4.00091,-1.68144 7.18531,-1.68144 4.41677,0 6.1268,0.62964 7.21077,2.65505 1.53724,2.87235 0.60644,34.68556 -1.0586,36.18136 -1.35716,1.21923 -9.87257,2.28284 -12.60185,1.57404 z M 69.958152,31.333334 c -2.075028,-6.642001 -0.0078,-6.246032 -30.291362,-5.802208 -15.583401,0.228384 -29.083457,-0.0581 -30.0001235,-0.636631 -2.5038037,-1.58021 -2.0038892,-7.286861 0.7683145,-8.7705 1.791329,-0.958691 39.574873,-2.790661 57.556082,-2.790661 0.579249,0 1.429657,-1.5 1.889794,-3.333334 1.075147,-4.2837228 7.323897,-4.7796864 8.399476,-0.6666665 0.911572,3.4858575 3.876951,3.4252115 4.798327,-0.098132 1.030718,-3.941475 7.767402,-3.0569682 9.588005,1.2588765 L 93.999998,13.654823 120,12.887931 c 14.3,-0.42179 27.26056,-1.140714 28.80122,-1.597607 5.5476,-1.6451599 9.8535,7.513274 5.30659,11.286866 -1.06357,0.882687 -5.29673,1.46362 -9.66667,1.326593 -4.27596,-0.134078 -17.82448,0.212932 -30.10781,0.771136 -19.547599,0.888322 -22.333332,1.292046 -22.333332,3.236666 0,5.50105 -7.796468,7.400049 -11.088004,2.700722 l -1.905881,-2.721026 -0.711564,2.721026 c -0.853409,3.26344 -7.366142,3.826735 -8.336397,0.721027 z"
       id="path142" />
  </g>
</svg>
