<?xml version="1.0" encoding="UTF-8" standalone="no"?>
<!-- Created with Inkscape (http://www.inkscape.org/) -->

<svg
   version="1.1"
   id="svg2"
   width="160"
   height="102.66667"
   viewBox="0 0 160 102.66667"
   sodipodi:docname="0063.svg"
   inkscape:version="1.1.2 (0a00cf5339, 2022-02-04)"
   xmlns:inkscape="http://www.inkscape.org/namespaces/inkscape"
   xmlns:sodipodi="http://sodipodi.sourceforge.net/DTD/sodipodi-0.dtd"
   xmlns="http://www.w3.org/2000/svg"
   xmlns:svg="http://www.w3.org/2000/svg">
  <defs
     id="defs6" />
  <sodipodi:namedview
     id="namedview4"
     pagecolor="#ffffff"
     bordercolor="#666666"
     borderopacity="1.0"
     inkscape:pageshadow="2"
     inkscape:pageopacity="0.0"
     inkscape:pagecheckerboard="0"
     showgrid="false"
     inkscape:zoom="8.0125"
     inkscape:cx="46.053042"
     inkscape:cy="51.294852"
     inkscape:window-width="2560"
     inkscape:window-height="1299"
     inkscape:window-x="0"
     inkscape:window-y="32"
     inkscape:window-maximized="1"
     inkscape:current-layer="g8" />
  <g
     inkscape:groupmode="layer"
     inkscape:label="Image"
     id="g8">
    <path
       style="fill:#000000;stroke-width:1.33333"
       d="M 6.7373373,92.132052 C 3.3208533,85.748293 6.5001716,78.233301 13.182828,76.89677 c 3.657933,-0.731586 4.013237,-1.3339 4.880215,-8.27295 1.234594,-9.881357 0.110809,-28.316633 -1.845383,-30.272825 -0.853047,-0.853047 -1.550993,-2.615586 -1.550993,-3.916754 0,-1.301168 -1.8,-3.296576 -4,-4.43424 C 6.7287389,27.96362 5.6819673,24.948643 7.7706632,21.658755 10.11817,17.961214 32.143283,14.329102 34,17.333334 c 0.453225,0.733333 2.168635,1.333333 3.812023,1.333333 6.801,0 8.451436,6.950087 2.170394,9.13967 -2.20967,0.770296 -4.356734,2.478991 -4.771252,3.797101 -0.414518,1.31811 -1.646549,4.056756 -2.737846,6.085881 -2.270818,4.22229 -3.51065,30.430174 -1.670464,35.310683 0.911188,2.416638 2.159346,3 6.418788,3 2.908205,0 5.688294,-0.648264 6.177977,-1.440586 0.489683,-0.792324 1.398167,-7.785399 2.018855,-15.540167 0.620688,-7.754769 1.711518,-14.682574 2.424069,-15.395125 2.063784,-2.063784 8.143991,0.166861 9.390352,3.445039 0.626217,1.647077 0.67232,7.756693 0.102453,13.576928 -0.569868,5.820234 -0.768725,11.279074 -0.441904,12.130755 0.682778,1.77929 11.374412,3.548326 14.408516,2.384031 1.542152,-0.59178 2.057312,-3.073207 2.139076,-10.303527 0.05924,-5.238208 0.400098,-14.324015 0.757471,-20.190682 0.56852,-9.332887 0.266771,-11.375238 -2.413189,-16.333334 -1.684626,-3.116667 -4.010811,-5.666667 -5.169299,-5.666667 -4.127791,0 -7.066416,-3.357297 -6.146564,-7.022277 1.225352,-4.882193 8.074931,-6.8375685 20.877724,-5.9600456 10.358944,0.7100176 18.66983,3.6910356 18.632403,6.6832296 -0.03272,2.616133 -1.757403,4.537008 -4.975223,5.541184 -1.647601,0.514163 -4.497601,3.497747 -6.333333,6.630186 -3.158886,5.39023 -3.337694,6.764089 -3.337694,25.644868 0,11.848143 0.555075,20.504598 1.366863,21.316386 0.92212,0.92212 3.721483,0.940072 8.603504,0.05517 l 7.23664,-1.31169 0.0244,-15.186392 c 0.0134,-8.352516 0.37724,-15.757345 0.80852,-16.455174 1.14625,-1.854664 5.06655,-1.549712 8.0386,0.625304 C 113.71009,44.909337 114,46.813615 114,60.227421 v 15.105915 l 5.20624,0.426116 c 2.86343,0.234362 6.62323,0.07048 8.3551,-0.3642 3.12765,-0.784991 3.1477,-0.912528 2.97557,-18.932516 -0.18658,-19.532529 -2.16641,-27.3507 -7.80148,-30.807367 -3.6569,-2.243219 -3.44821,-4.901148 0.63716,-8.114695 5.92408,-4.659882 13.0586,-4.961657 21.35375,-0.903219 9.00005,4.403318 9.27112,6.712776 1.92518,16.40203 -5.30873,7.002184 -5.33649,7.101092 -5.23832,18.666667 0.0543,6.394951 0.41568,14.10399 0.80308,17.1312 0.66674,5.209833 1.00048,5.566166 6.24406,6.666832 L 154,76.667002 l 0.39556,6.784931 c 0.29758,5.104101 -0.1658,7.251051 -1.87045,8.666501 -1.87535,1.55717 -14.51719,1.946693 -73.324893,2.259297 C 9.6967523,94.74719 8.1106091,94.698034 6.7373373,92.132052 Z"
       id="path1448" />
  </g>
</svg>
