<?xml version="1.0" encoding="UTF-8" standalone="no"?>
<!-- Created with Inkscape (http://www.inkscape.org/) -->

<svg
   version="1.1"
   id="svg12"
   width="158.66667"
   height="169.33333"
   viewBox="0 0 158.66667 169.33333"
   sodipodi:docname="0064.svg"
   inkscape:version="1.1.2 (0a00cf5339, 2022-02-04)"
   xmlns:inkscape="http://www.inkscape.org/namespaces/inkscape"
   xmlns:sodipodi="http://sodipodi.sourceforge.net/DTD/sodipodi-0.dtd"
   xmlns="http://www.w3.org/2000/svg"
   xmlns:svg="http://www.w3.org/2000/svg">
  <defs
     id="defs16" />
  <sodipodi:namedview
     id="namedview14"
     pagecolor="#ffffff"
     bordercolor="#666666"
     borderopacity="1.0"
     inkscape:pageshadow="2"
     inkscape:pageopacity="0.0"
     inkscape:pagecheckerboard="0"
     showgrid="false"
     inkscape:zoom="5.155512"
     inkscape:cx="26.767468"
     inkscape:cy="84.569681"
     inkscape:window-width="2560"
     inkscape:window-height="1299"
     inkscape:window-x="0"
     inkscape:window-y="32"
     inkscape:window-maximized="1"
     inkscape:current-layer="g18" />
  <g
     inkscape:groupmode="layer"
     inkscape:label="Image"
     id="g18">
    <path
       style="fill:#000000;stroke-width:1.33333"
       d="m 132,162.79709 c -1.1,-0.617 -4.37209,-1.54885 -7.27131,-2.07077 -9.6869,-1.74386 -14.73918,-5.2977 -17.8666,-12.56756 C 105.28794,144.49954 104,140.67146 104,139.6519 104,136.21629 91.558487,127.04503 85.162459,125.76582 l -4.195288,-0.83906 0.632471,10.92554 c 0.665782,11.501 -0.249371,13.78298 -4.121979,10.27831 -3.233771,-2.92652 -4.144328,-2.67956 -4.144328,1.12403 0,3.82438 2.273224,5.67213 4.382843,3.56252 0.816104,-0.81611 2.528413,-1.48383 3.805134,-1.48383 6.759937,0 3.370903,9.57777 -4.190665,11.84328 -5.049059,1.51273 -15.282319,0.82719 -17.997312,-1.20567 -0.733334,-0.54909 -8.65557,-0.61717 -17.60497,-0.1513 -18.598417,0.96814 -21.365411,0.57452 -24.015277,-3.41639 -1.750328,-2.63615 -1.625714,-3.06569 1.479614,-5.10039 3.167314,-2.0753 3.780677,-2.07294 9.301885,0.0356 7.038635,2.68808 10.425714,1.89566 12.939434,-3.02724 1.023541,-2.00452 2.925967,-5.15056 4.227612,-6.9912 1.722207,-2.43536 2.501781,-6.61054 2.862977,-15.33333 0.272994,-6.59269 0.947259,-14.56134 1.498368,-17.70811 0.904807,-5.16635 0.596579,-6.22592 -3.177146,-10.921815 -2.29854,-2.860214 -4.179164,-5.537143 -4.179164,-5.948719 0,-0.411577 -2.328271,-2.851774 -5.173935,-5.422661 C 31.377533,80.46067 27.326797,71.607216 26.057222,60.991467 25.244955,54.199571 25.568615,52.468435 28.869565,45.949283 32.865389,38.057799 32.373034,34.433421 27.190423,33.588601 25.802358,33.36233 23.766667,32.820118 22.666667,32.383683 19.841818,31.262901 16.008462,31.932981 12.647724,34.135021 10.083899,35.814903 9.509353,35.737807 7.4245692,33.434147 5.7417992,31.574707 5.3293733,29.72001 5.9600964,26.848346 7.1602688,21.383997 9.2021451,20.029185 17.525499,19.174545 c 3.927643,-0.403289 9.044647,-1.693932 11.371122,-2.868097 3.663705,-1.84906 4.948453,-1.897718 9.597264,-0.363472 4.297415,1.418276 6.154375,1.445361 9.315744,0.135878 2.953945,-1.223564 4.650551,-1.259732 6.736068,-0.143596 2.605115,1.394215 2.793042,2.645566 2.870168,19.111653 l 0.08253,17.619755 5.942142,4.333333 c 3.268179,2.383333 6.624406,4.333333 7.458283,4.333333 2.537475,0 10.197988,6.487624 11.130768,9.426553 0.482087,1.51892 3.880939,5.869321 7.553005,9.66756 5.762968,5.960983 16.169277,18.275482 31.011367,36.697895 2.16,2.68106 6.17562,6.67466 8.92359,8.87466 C 149.5238,142.01684 152,144.36416 152,147.31238 c 0,4.00875 -2.75609,4.94982 -7.41601,2.53222 -2.06129,-1.06942 -4.68595,-1.75652 -5.83256,-1.52691 -1.68723,0.33787 -1.51269,0.91239 0.91524,3.01288 3.82335,3.30771 3.83935,7.93032 0.0367,10.59383 -3.32736,2.33057 -4.80562,2.49804 -7.70332,0.87269 z M 63.745899,147.07034 c 0.406028,-4.19542 0.345882,-4.24385 -3.795891,-3.05601 -9.539164,2.7358 -11.204979,8.37449 -2.28334,7.729 5.297767,-0.38331 5.693524,-0.68752 6.079231,-4.67299 z M 115.1288,49.845426 c -4.96952,-2.033928 -10.6211,-5.740388 -14.33334,-9.400183 -5.877209,-5.794193 -6.128791,-6.358166 -6.128791,-13.738921 0,-7.004816 0.449468,-8.202481 5,-13.323157 6.434521,-7.2407146 13.930221,-9.0707048 20.621801,-5.0345829 7.19225,4.3381069 9.67474,10.2796859 6.97638,16.6972029 -1.93526,4.602614 -7.88904,8.266801 -13.53197,8.328093 -3.50106,0.03803 -3.56823,0.141528 -1.08153,1.666667 1.45825,0.894366 5.91124,2.835097 9.89554,4.312734 5.69964,2.113794 7.51879,3.510421 8.53212,6.5504 1.05314,3.159423 0.84342,4.188815 -1.15038,5.64672 -3.31335,2.422777 -5.26333,2.198136 -14.79983,-1.704973 z m 2.20454,-32.470246 c 0,-1.785384 -0.63962,-2.379378 -2,-1.857348 -1.1,0.422109 -2,1.603278 -2,2.62482 0,1.021541 0.9,1.857348 2,1.857348 1.10048,0 2,-1.180536 2,-2.62482 z"
       id="path1309" />
  </g>
</svg>
