<?xml version="1.0" encoding="UTF-8" standalone="no"?>
<!-- Created with Inkscape (http://www.inkscape.org/) -->

<svg
   version="1.1"
   id="svg22"
   width="50.666668"
   height="161.33333"
   viewBox="0 0 50.666668 161.33333"
   sodipodi:docname="0065.svg"
   inkscape:version="1.1.2 (0a00cf5339, 2022-02-04)"
   xmlns:inkscape="http://www.inkscape.org/namespaces/inkscape"
   xmlns:sodipodi="http://sodipodi.sourceforge.net/DTD/sodipodi-0.dtd"
   xmlns="http://www.w3.org/2000/svg"
   xmlns:svg="http://www.w3.org/2000/svg">
  <defs
     id="defs26" />
  <sodipodi:namedview
     id="namedview24"
     pagecolor="#ffffff"
     bordercolor="#666666"
     borderopacity="1.0"
     inkscape:pageshadow="2"
     inkscape:pageopacity="0.0"
     inkscape:pagecheckerboard="0"
     showgrid="false"
     inkscape:zoom="5.4111572"
     inkscape:cx="-24.763649"
     inkscape:cy="80.574262"
     inkscape:window-width="2560"
     inkscape:window-height="1299"
     inkscape:window-x="0"
     inkscape:window-y="32"
     inkscape:window-maximized="1"
     inkscape:current-layer="g28" />
  <g
     inkscape:groupmode="layer"
     inkscape:label="Image"
     id="g28">
    <path
       style="fill:#000000;stroke-width:1.33333"
       d="M 13.16326,153.79293 C 11.718017,152.04984 11.309918,143.99148 11.221945,115.4596 11.160682,95.590154 11.029472,65.372969 10.930368,48.310304 10.831265,31.247639 11.262531,15.94764 11.888739,14.310305 13.937642,8.953077 18.063708,6.4223925 25.104522,6.2045292 33.567673,5.9426547 37.333334,8.9590082 37.333334,16 c 0,4.766056 -3.070708,9.333333 -6.275061,9.333333 -3.060272,0 -4.757111,3.887909 -3.345512,7.665461 2.981804,7.979553 3.322213,9.141108 3.810162,13.001205 0.511286,4.044689 5.01259,19.090818 7.180009,24 0.647537,1.466666 2.338946,6.566666 3.758688,11.333333 2.92642,9.825217 2.170431,12.865654 -3.500106,14.076727 -1.995498,0.426186 -6.143677,1.669718 -9.218175,2.763406 -8.089833,2.877795 -8.947724,6.486505 -8.081825,33.996125 0.593463,18.85433 0.398213,22.44467 -1.255076,23.0791 -3.289772,1.2624 -5.329366,0.85248 -7.243178,-1.45576 z"
       id="path1170" />
  </g>
</svg>
