<?xml version="1.0" encoding="UTF-8" standalone="no"?>
<!-- Created with Inkscape (http://www.inkscape.org/) -->

<svg
   version="1.1"
   id="svg32"
   width="72"
   height="150.66667"
   viewBox="0 0 72 150.66667"
   sodipodi:docname="0066.svg"
   inkscape:version="1.1.2 (0a00cf5339, 2022-02-04)"
   xmlns:inkscape="http://www.inkscape.org/namespaces/inkscape"
   xmlns:sodipodi="http://sodipodi.sourceforge.net/DTD/sodipodi-0.dtd"
   xmlns="http://www.w3.org/2000/svg"
   xmlns:svg="http://www.w3.org/2000/svg">
  <defs
     id="defs36" />
  <sodipodi:namedview
     id="namedview34"
     pagecolor="#ffffff"
     bordercolor="#666666"
     borderopacity="1.0"
     inkscape:pageshadow="2"
     inkscape:pageopacity="0.0"
     inkscape:pagecheckerboard="0"
     showgrid="false"
     inkscape:zoom="5.7942476"
     inkscape:cx="-10.872853"
     inkscape:cy="75.247043"
     inkscape:window-width="2560"
     inkscape:window-height="1299"
     inkscape:window-x="0"
     inkscape:window-y="32"
     inkscape:window-maximized="1"
     inkscape:current-layer="g38" />
  <g
     inkscape:groupmode="layer"
     inkscape:label="Image"
     id="g38">
    <path
       style="fill:#000000;stroke-width:1.33333"
       d="M 20.873585,144.79934 C 10.637848,140.99499 4,130.96158 4,119.29413 4,106.7259 8.7449903,99.48037 20.666667,93.84439 c 9.09188,-4.298192 22.909182,-4.436559 29.842621,-0.298844 7.320388,4.368637 11.590293,8.761674 14.250912,14.661874 2.100668,4.65845 2.220659,6.45372 0.933567,13.96771 -1.596954,9.32295 -5.37586,15.51809 -12.606139,20.6665 -3.466028,2.46803 -6.361984,3.10476 -15.669721,3.44531 -7.565448,0.2768 -13.147584,-0.22514 -16.544322,-1.4876 z m 29.256211,-14.85313 c 2.439429,-2.90374 4.626703,-6.47954 4.860607,-7.94621 1.436116,-9.00501 -5.298112,-18.39475 -14.41982,-20.10599 -6.594542,-1.23715 -18.241139,1.54034 -21.642075,5.16121 -1.521253,1.61963 -3.346937,5.53136 -4.057076,8.69272 -1.121632,4.99324 -0.882571,6.46728 1.820736,11.22653 4.05444,7.13797 8.425263,9.03448 19.821733,8.60072 8.893575,-0.33851 9.319222,-0.51448 13.615895,-5.62898 z M 29.703572,125 c -4.938015,-6.38177 -1.822097,-13 6.120515,-13 6.442706,0 10.021781,3.49366 8.753964,8.54505 -0.486636,1.93891 -1.976331,4.10947 -3.310434,4.82346 -3.411693,1.82588 -10.029269,1.615 -11.564045,-0.36851 z M 50,72.58536 C 38.893224,69.626892 32.158928,67.124664 29.914065,65.122131 c -1.51393,-1.350504 -3.349496,-2.455463 -4.079033,-2.455463 -2.492897,0 -13.272281,-13.989731 -15.063451,-19.549691 C 8.0685276,34.726446 9.4107728,24.286446 14.099781,17.230188 19.379549,9.2849278 27.325079,5.3333335 38.020964,5.3333335 c 7.431515,0 8.472468,0.3686834 12.234876,4.3333334 8.44934,8.9035191 10.453728,17.5852261 6.075421,26.3147861 -2.811562,5.605753 -7.120508,7.972605 -14.562294,7.998892 -11.774622,0.04159 -17.907211,-11.125711 -10.499299,-19.11898 7.555255,-8.152255 16.308265,-0.898531 9.016365,7.471969 -1.853968,2.128203 -1.782766,2.333333 0.809912,2.333333 6.563144,0 9.021139,-13.391847 2.819283,-15.360239 -1.41136,-0.447948 -3.473609,-1.721952 -4.582776,-2.83112 -2.864075,-2.864073 -9.35088,-1.129356 -14.010797,3.7468 -7.432763,7.777675 -6.414612,21.23259 2.278076,30.104896 3.23325,3.300061 14.222029,7.662623 22.185909,8.80784 6.272568,0.902004 8.881027,2.91838 8.881027,6.865157 0,3.914605 -4.852063,7.601439 -8.666667,6.585359 z"
       id="path1031" />
  </g>
</svg>
