<?xml version="1.0" encoding="UTF-8" standalone="no"?>
<!-- Created with Inkscape (http://www.inkscape.org/) -->

<svg
   version="1.1"
   id="svg42"
   width="164"
   height="161.33333"
   viewBox="0 0 164 161.33333"
   sodipodi:docname="0067.svg"
   inkscape:version="1.1.2 (0a00cf5339, 2022-02-04)"
   xmlns:inkscape="http://www.inkscape.org/namespaces/inkscape"
   xmlns:sodipodi="http://sodipodi.sourceforge.net/DTD/sodipodi-0.dtd"
   xmlns="http://www.w3.org/2000/svg"
   xmlns:svg="http://www.w3.org/2000/svg">
  <defs
     id="defs46" />
  <sodipodi:namedview
     id="namedview44"
     pagecolor="#ffffff"
     bordercolor="#666666"
     borderopacity="1.0"
     inkscape:pageshadow="2"
     inkscape:pageopacity="0.0"
     inkscape:pagecheckerboard="0"
     showgrid="false"
     inkscape:zoom="5.4111572"
     inkscape:cx="31.786177"
     inkscape:cy="80.574262"
     inkscape:window-width="2560"
     inkscape:window-height="1299"
     inkscape:window-x="0"
     inkscape:window-y="32"
     inkscape:window-maximized="1"
     inkscape:current-layer="g48" />
  <g
     inkscape:groupmode="layer"
     inkscape:label="Image"
     id="g48">
    <path
       style="fill:#000000;stroke-width:1.33333"
       d="m 11.364745,152.81929 c -3.7814131,-3.78141 -4.6213013,-11.92451 -1.649143,-15.98917 2.910371,-3.98017 15.837581,-4.01381 23.272627,-0.0606 L 39.063839,140 H 91.36866 c 56.39843,0 56.05526,0.0432 55.06702,-6.92552 -0.7872,-5.55109 -8.04323,-6.90895 -37.76901,-7.06795 -42.591675,-0.2278 -71.731965,1.31955 -75.866369,4.02852 -4.412786,2.89136 -16.994997,1.62398 -22.451685,-2.26152 -4.7796877,-3.40344 -5.0571171,-10.01679 -0.5960144,-14.20778 4.4141654,-4.14689 15.4070814,-4.02245 22.7969214,0.25807 L 38,116.98097 l 50.446731,0.0781 c 27.745699,0.043 52.730269,0.46394 55.521269,0.93548 7.43177,1.25559 11.21149,5.90741 11.21149,13.79835 0,7.93541 -3.96532,14.04619 -10.51794,16.20875 -3.10091,1.02338 -21.6921,1.60473 -56.369711,1.76265 -44.997084,0.20493 -52.169704,0.5148 -55.017322,2.37687 -1.800984,1.17766 -6.710382,2.56908 -10.909773,3.09201 -7.0291,0.87532 -7.902379,0.68368 -10.999999,-2.41393 z m 14.321164,-6.94965 c 1.660198,-1.66019 -0.76719,-4.53631 -3.828561,-4.53631 -2.301792,0 -3.190681,0.74291 -3.190681,2.66667 0,1.90476 0.888889,2.66666 3.11111,2.66666 1.711112,0 3.469771,-0.35865 3.908132,-0.79702 z M 25.333333,122 c 0,-1.26935 -1.277398,-2 -3.496593,-2 -2.956905,0 -3.2404,0.30869 -1.83674,2 0.912919,1.1 2.486385,2 3.496593,2 1.010207,0 1.83674,-0.9 1.83674,-2 z M 68.666667,91.34797 c -25.979762,-1.924764 -39.082022,-3.770073 -47.26292,-6.656461 -3.15646,-1.113664 -6.820724,-2.024844 -8.142811,-2.024844 -4.8918452,0 -8.1659489,-6.128048 -5.5089724,-10.310989 C 8.7538091,70.778447 28.631861,64.757852 44,61.376996 c 5.057031,-1.112503 15.610799,-1.394019 34,-0.906932 46.22177,1.224307 74.08641,6.764252 76.19059,15.14793 0.50644,2.017808 0.11586,3.92007 -1.01772,4.956954 -3.01198,2.754996 -19.42379,6.95438 -36.5062,9.341047 C 93.323371,93.177402 93.349261,93.17663 68.666667,91.34797 Z M 111.33333,79.808386 c 18.80189,-1.820008 20.16541,-2.365825 12,-4.803609 C 108.2874,70.512811 63.250136,70.149111 38.666667,74.32105 l -6,1.018231 L 38,77.053864 c 11.845348,3.80809 48.302531,5.177484 73.33333,2.754522 z m 34.84648,-35.90516 c -1.93222,-1.519892 -3.51314,-3.339164 -3.51314,-4.042825 0,-0.703662 -0.89192,-3.414044 -1.98204,-6.023072 l -1.98204,-4.743688 -4.8325,2.986644 c -4.52376,2.795841 -5.05944,2.852578 -8.38501,0.888114 -3.29193,-1.944592 -3.79457,-1.912544 -6.85214,0.436888 -4.29137,3.297491 -6.44808,3.23322 -10.21367,-0.304373 l -3.08594,-2.899085 -3.08593,2.899085 c -3.822011,3.590591 -4.090695,3.587664 -9.077021,-0.09889 -3.81619,-2.821432 -4.155359,-2.86069 -5.759667,-0.666667 -2.275901,3.112481 -8.118104,2.957247 -11.377669,-0.302319 -2.622611,-2.62261 -2.647899,-2.620396 -6.046802,0.529602 -3.576601,3.314682 -7.333993,3.299786 -10.105822,-0.04007 -2.001166,-2.411248 -4.471458,-2.356883 -6.547086,0.144096 -2.150876,2.591648 -8.820993,2.591648 -9.815501,0 -0.984708,-2.566105 -4.05482,-2.566105 -6.184499,0 -1.873665,2.257629 -7.416896,2.688837 -8.662236,0.673836 -0.450786,-0.729389 -1.921498,-1.915875 -3.268249,-2.636632 -2.102447,-1.125196 -2.971052,-0.277931 -6.143767,5.992829 -3.152792,6.231383 -4.243334,7.3033 -7.430195,7.3033 -6.2695825,0 -7.1380928,-3.880513 -3.0517579,-13.635286 C 10.704345,25.764121 13.050271,20.5 13.990299,18.666666 c 0.940026,-1.833333 2.363902,-4.983333 3.164168,-7 C 19.286843,6.2930901 25.922439,6.4741456 29.062013,11.99157 31.587345,16.429536 33.519472,16.988853 36,14 c 2.446737,-2.948138 6.129165,-2.437268 9.031945,1.253018 l 2.558824,3.25302 4.792908,-3.410204 4.792907,-3.410203 4.618972,2.854682 c 3.845639,2.376735 4.919123,2.557987 6.411708,1.082579 3.669068,-3.626839 6.505815,-3.697693 9.954865,-0.248642 l 3.347382,3.347382 3.425056,-2.69415 c 4.431101,-3.485504 5.515634,-3.400445 9.873177,0.774344 l 3.620327,3.468495 2.272649,-3.468495 c 2.71555,-4.144467 6.47778,-4.458419 9.60865,-0.801826 2.84448,3.322113 3.76749,3.324152 7.97108,0.01761 3.22578,-2.537397 3.53134,-2.552408 7.24934,-0.356131 3.85645,2.278059 3.90773,2.264979 7.91016,-2.01761 4.37112,-4.6770799 6.27993,-5.2126535 9.42293,-2.64387 2.77747,2.270031 7.95128,11.447814 9.20764,16.333333 0.56575,2.2 1.77292,5.844187 2.68261,8.098192 2.1081,5.223355 0.71755,11.235139 -2.59872,11.235139 -1.3538,0 -4.04237,-1.243548 -5.9746,-2.76344 z"
       id="path892" />
  </g>
</svg>
