<?xml version="1.0" encoding="UTF-8" standalone="no"?>
<!-- Created with Inkscape (http://www.inkscape.org/) -->

<svg
   version="1.1"
   id="svg52"
   width="173.33333"
   height="160"
   viewBox="0 0 173.33333 160"
   sodipodi:docname="0068.svg"
   inkscape:version="1.1.2 (0a00cf5339, 2022-02-04)"
   xmlns:inkscape="http://www.inkscape.org/namespaces/inkscape"
   xmlns:sodipodi="http://sodipodi.sourceforge.net/DTD/sodipodi-0.dtd"
   xmlns="http://www.w3.org/2000/svg"
   xmlns:svg="http://www.w3.org/2000/svg">
  <defs
     id="defs56" />
  <sodipodi:namedview
     id="namedview54"
     pagecolor="#ffffff"
     bordercolor="#666666"
     borderopacity="1.0"
     inkscape:pageshadow="2"
     inkscape:pageopacity="0.0"
     inkscape:pagecheckerboard="0"
     showgrid="false"
     inkscape:zoom="5.45625"
     inkscape:cx="36.838488"
     inkscape:cy="79.908362"
     inkscape:window-width="2560"
     inkscape:window-height="1299"
     inkscape:window-x="0"
     inkscape:window-y="32"
     inkscape:window-maximized="1"
     inkscape:current-layer="g58" />
  <g
     inkscape:groupmode="layer"
     inkscape:label="Image"
     id="g58">
    <path
       style="fill:#000000;stroke-width:1.33333"
       d="m 9.6666665,151.11696 c -2.0998561,-0.84731 -2.350698,-34.01415 -0.2864216,-37.87128 1.6103351,-3.00894 10.7794051,-3.65551 12.9381801,-0.91235 1.555496,1.97658 1.497784,35.58166 -0.06525,38 -1.04876,1.62266 -9.242875,2.13282 -12.5864989,0.78363 z m 63.9999985,0 c -2.099856,-0.84731 -2.350697,-34.01415 -0.286421,-37.87128 1.610335,-3.00894 10.779405,-3.65551 12.93818,-0.91235 1.555496,1.97658 1.497784,35.58166 -0.06527,38 -1.04876,1.62266 -9.242874,2.13282 -12.586498,0.78363 z m 71.999995,0 c -2.09985,-0.84731 -2.35069,-34.01415 -0.28642,-37.87128 1.61034,-3.00894 10.77941,-3.65551 12.93818,-0.91235 1.5555,1.97658 1.49779,35.58166 -0.0653,38 -1.04876,1.62266 -9.24287,2.13282 -12.58649,0.78363 z m -40.27004,-46.37404 c -2.51641,-3.03209 -0.77573,-5.821763 4.21707,-6.758419 2.43128,-0.45611 5.86985,-1.922533 7.64127,-3.258716 l 3.22076,-2.429424 -5.40891,-11.148181 c -8.6311,-17.789396 -8.93156,-29.199036 -0.76648,-29.106045 4.8019,0.05469 9.7862,4.545458 16.0628,14.472294 3.54725,5.610199 5.57663,7.680176 6.79272,6.928596 1.40505,-0.868374 1.43885,-3.545304 0.17805,-14.1049 -0.85586,-7.168213 -1.55613,-15.578214 -1.55613,-18.688892 0,-4.515976 -0.58524,-5.922433 -2.90402,-6.978941 -7.27934,-3.316689 -7.82511,-13.569107 -1.14808,-21.567108 3.08131,-3.6909249 4.84223,-4.5491995 10.43641,-5.0867281 11.31748,-1.0874666 17.292,3.3869001 20.8974,15.6502111 3.77737,12.84832 4.25089,19.745396 1.55978,22.719046 C 163.31802,46.823571 161.3591,48 160.26613,48 c -2.08847,0 -2.09939,-0.737905 0.56264,38 1.23708,18.00181 1.40252,17.88052 -25.49544,18.69204 -11.73333,0.35399 -22.88773,0.96978 -24.78754,1.3684 -2.20849,0.4634 -4.06548,-0.0117 -5.14917,-1.31752 z M 6.5739112,103.22157 c -2.5963706,-3.12844 0.077567,-6.396711 6.0253888,-7.364658 3.238052,-0.52696 6.660876,-2.494865 9.800906,-5.634896 4.604144,-4.604144 4.751277,-5.029401 3.212467,-9.284909 -2.126848,-5.881695 -2.034648,-9.586858 0.353481,-14.204991 1.899513,-3.673253 1.777631,-4.043845 -3.595984,-10.933787 -3.059174,-3.922414 -8.212944,-10.029724 -11.452819,-13.5718 -5.5367634,-6.053205 -5.8377035,-6.77418 -5.008892,-12 1.921688,-12.116621 6.407699,-11.208504 12.941227,2.619734 3.570836,7.557689 11.411187,16.48707 14.4763,16.48707 0.678259,0 3.502357,-2.452522 6.275773,-5.45005 2.773418,-2.997527 6.995859,-6.266184 9.383204,-7.26368 l 4.340628,-1.813631 -2.767285,-4.690197 c -2.876586,-4.875451 -2.744506,-6.85063 1.000226,-14.957659 1.550422,-3.356531 2.975559,-4.342637 7.268056,-5.029035 2.936711,-0.4695985 7.752023,-0.2041837 10.700695,0.589811 4.587828,1.235374 5.757749,2.340047 8.109997,7.657693 l 2.748777,6.214068 -2.821794,4.902975 -2.821795,4.902976 3.03096,0.760723 c 2.830538,0.71042 10.422488,8.051745 20.568057,19.889068 4.885475,5.70012 5.787925,12.085869 1.991845,14.094305 C 98.214959,70.261492 88.59016,68.814543 79.084436,65.946235 76.217721,65.081217 76.167909,65.300736 76.111368,79.0484 l -0.05751,13.981923 5.896828,1.484838 C 85.193946,95.331823 89.60836,96 91.760498,96 c 4.715599,0 7.44252,2.876285 6.259808,6.60268 -0.850593,2.67999 -1.690792,2.73065 -45.280231,2.73065 -38.896805,0 -44.631253,-0.26231 -46.1661638,-2.11176 z M 55.768471,71.230267 C 56.466276,62.842801 52.396099,52 48.549802,52 c -2.435428,0 -11.216469,7.850367 -11.216469,10.027671 0,2.187256 14.848703,15.416664 16.666666,14.849116 0.733333,-0.228939 1.529145,-2.769872 1.768472,-5.64652 z M 83.999998,56.438321 c 0,-1.674376 -4.406081,-5.771654 -6.20665,-5.771654 -2.261477,0 -2.368348,4.879094 -0.12668,5.783625 2.505482,1.010984 6.333333,1.003749 6.333333,-0.012 z"
       id="path771" />
  </g>
</svg>
