<?xml version="1.0" encoding="UTF-8" standalone="no"?>
<!-- Created with Inkscape (http://www.inkscape.org/) -->

<svg
   version="1.1"
   id="svg62"
   width="162.66667"
   height="158.66667"
   viewBox="0 0 162.66667 158.66667"
   sodipodi:docname="0069.svg"
   inkscape:version="1.1.2 (0a00cf5339, 2022-02-04)"
   xmlns:inkscape="http://www.inkscape.org/namespaces/inkscape"
   xmlns:sodipodi="http://sodipodi.sourceforge.net/DTD/sodipodi-0.dtd"
   xmlns="http://www.w3.org/2000/svg"
   xmlns:svg="http://www.w3.org/2000/svg">
  <defs
     id="defs66" />
  <sodipodi:namedview
     id="namedview64"
     pagecolor="#ffffff"
     bordercolor="#666666"
     borderopacity="1.0"
     inkscape:pageshadow="2"
     inkscape:pageopacity="0.0"
     inkscape:pagecheckerboard="0"
     showgrid="false"
     inkscape:zoom="5.5021007"
     inkscape:cx="31.987783"
     inkscape:cy="79.242461"
     inkscape:window-width="2560"
     inkscape:window-height="1299"
     inkscape:window-x="0"
     inkscape:window-y="32"
     inkscape:window-maximized="1"
     inkscape:current-layer="g68" />
  <g
     inkscape:groupmode="layer"
     inkscape:label="Image"
     id="g68">
    <path
       style="fill:#000000;stroke-width:1.33333"
       d="m 6.6000729,148.73334 c -0.6967066,-0.69667 -1.2667395,-2.67728 -1.2667395,-4.40138 0,-6.57101 12.6121266,-8.36453 33.2998846,-4.73544 4.134235,0.72524 4.416158,0.59571 2.617738,-1.2027 -1.108515,-1.10852 -5.393439,-2.43754 -9.522054,-2.95338 -8.127671,-1.01548 -10.362619,-3.28291 -6.773543,-6.87199 1.568014,-1.56801 3.506615,-1.95515 6.943348,-1.38659 2.622378,0.43384 7.897083,0.7954 11.721566,0.80347 5.773769,0.0121 7.707356,0.67648 11.395997,3.91514 l 4.442393,3.90048 24.604003,-1.29915 C 97.594867,133.78728 115.56667,132.78207 124,132.268 l 15.33334,-0.93466 0.82953,-6.79614 c 1.5766,-12.91656 5.87953,-17.7227 11.57315,-12.92653 2.55064,2.1486 2.87474,3.97198 3.21686,18.09786 0.29846,12.32291 -0.0212,15.95827 -1.48338,16.86722 -1.02512,0.63728 -13.62512,0.93456 -28.00001,0.66061 -61.235207,-1.16697 -68.689009,-1.08352 -72.136156,0.80772 -3.93878,2.16098 -44.6608333,2.76156 -46.7332611,0.68926 z M 50.666668,39.999898 C 34.194939,38.311985 24.426062,36.088393 14.988187,31.878762 5.6097178,27.69563 3.8536521,25.178338 7.5018112,21.147168 10.946166,17.341199 15.615564,15.117712 23.384491,13.584108 27.023021,12.865855 35.100001,11.251154 41.333334,9.9958837 50.654685,8.1187482 56.808984,7.8634459 76.000002,8.557787 106.57904,9.6641526 114.37943,10.669303 139.33334,16.718859 150.10066,19.329174 152,20.520932 152,24.666667 c 0,3.878547 -1.84198,5.213999 -10,7.250078 -3.66666,0.915126 -7.86666,2.16039 -9.33333,2.767253 -1.46667,0.606864 -5.06667,1.503584 -8,1.992713 -2.93333,0.48913 -8.03333,1.429664 -11.33333,2.090079 -8.8503,1.77117 -49.592481,2.572864 -62.666672,1.233108 z m 58.000002,-12.64628 c 5.86667,-1.059987 11.51667,-1.948183 12.55556,-1.973767 3.45962,-0.0852 0.54947,-1.445758 -4.46584,-2.087876 -2.72068,-0.348335 -6.15076,-1.277731 -7.6224,-2.065325 -1.47163,-0.787596 -3.37881,-1.162214 -4.23818,-0.832484 -0.85936,0.329729 -7.262475,0.14043 -14.229141,-0.420664 -12.479341,-1.005084 -38.997553,0.176212 -53.333335,2.375818 l -7.333333,1.125188 5.333333,1.441126 c 16.78918,4.536624 54.735863,5.798169 73.333336,2.437984 z"
       id="path632" />
  </g>
</svg>
