<?xml version="1.0" encoding="UTF-8" standalone="no"?>
<!-- Created with Inkscape (http://www.inkscape.org/) -->

<svg
   version="1.1"
   id="svg72"
   width="88"
   height="166.66667"
   viewBox="0 0 88 166.66667"
   sodipodi:docname="0070.svg"
   inkscape:version="1.1.2 (0a00cf5339, 2022-02-04)"
   xmlns:inkscape="http://www.inkscape.org/namespaces/inkscape"
   xmlns:sodipodi="http://sodipodi.sourceforge.net/DTD/sodipodi-0.dtd"
   xmlns="http://www.w3.org/2000/svg"
   xmlns:svg="http://www.w3.org/2000/svg">
  <defs
     id="defs76" />
  <sodipodi:namedview
     id="namedview74"
     pagecolor="#ffffff"
     bordercolor="#666666"
     borderopacity="1.0"
     inkscape:pageshadow="2"
     inkscape:pageopacity="0.0"
     inkscape:pagecheckerboard="0"
     showgrid="false"
     inkscape:zoom="5.2379998"
     inkscape:cx="-7.8274153"
     inkscape:cy="83.23788"
     inkscape:window-width="2560"
     inkscape:window-height="1299"
     inkscape:window-x="0"
     inkscape:window-y="32"
     inkscape:window-maximized="1"
     inkscape:current-layer="g78" />
  <g
     inkscape:groupmode="layer"
     inkscape:label="Image"
     id="g78">
    <path
       style="fill:#000000;stroke-width:1.33333"
       d="m 33.666667,155.11696 c -2.099856,-0.8473 -2.350698,-34.01414 -0.286422,-37.87128 1.610335,-3.00894 10.779406,-3.6555 12.93818,-0.91234 1.555496,1.97657 1.497784,35.58165 -0.06525,38 -1.04876,1.62265 -9.242875,2.13281 -12.586499,0.78362 z m 2.50162,-56.288093 C 34.809323,97.945809 34.485784,95.295299 34.914705,88.559211 l 0.578134,-9.079401 -8.92658,-8.739905 C 21.656639,65.932957 16.660176,61.400001 15.463008,60.666668 12.554401,58.884983 6.6666667,42.243609 6.6666667,35.804267 c 0,-5.504712 3.5755323,-10.470933 7.5387623,-10.470933 1.212987,0 4.275042,-2.417876 6.804568,-5.373059 5.956143,-6.958414 11.511772,-9.164716 24.181796,-9.603296 9.366691,-0.324234 10.829471,-0.01568 15.947024,3.363855 3.09891,2.04646 6.271832,5.119889 7.05094,6.829844 0.869023,1.907297 3.416863,3.708316 6.591646,4.659504 5.392897,1.615751 7.885264,4.611763 7.885264,9.478679 0,4.349848 -7.860216,21.539185 -11.574096,25.31114 -1.805107,1.833334 -5.969194,6.926592 -9.253527,11.318354 l -5.971516,7.985021 0.399569,10.014979 0.39957,10.01498 -9.333334,0.342894 C 42.2,99.864819 37.175729,99.483507 36.168287,98.828867 Z"
       id="path493" />
  </g>
</svg>
