<?xml version="1.0" encoding="UTF-8" standalone="no"?>
<!-- Created with Inkscape (http://www.inkscape.org/) -->

<svg
   version="1.1"
   id="svg82"
   width="54.666668"
   height="165.33333"
   viewBox="0 0 54.666668 165.33333"
   sodipodi:docname="0071.svg"
   inkscape:version="1.1.2 (0a00cf5339, 2022-02-04)"
   xmlns:inkscape="http://www.inkscape.org/namespaces/inkscape"
   xmlns:sodipodi="http://sodipodi.sourceforge.net/DTD/sodipodi-0.dtd"
   xmlns="http://www.w3.org/2000/svg"
   xmlns:svg="http://www.w3.org/2000/svg">
  <defs
     id="defs86" />
  <sodipodi:namedview
     id="namedview84"
     pagecolor="#ffffff"
     bordercolor="#666666"
     borderopacity="1.0"
     inkscape:pageshadow="2"
     inkscape:pageopacity="0.0"
     inkscape:pagecheckerboard="0"
     showgrid="false"
     inkscape:zoom="5.2802421"
     inkscape:cx="-24.051927"
     inkscape:cy="82.571971"
     inkscape:window-width="2560"
     inkscape:window-height="1299"
     inkscape:window-x="0"
     inkscape:window-y="32"
     inkscape:window-maximized="1"
     inkscape:current-layer="g88" />
  <g
     inkscape:groupmode="layer"
     inkscape:label="Image"
     id="g88">
    <path
       style="fill:#000000;stroke-width:1.33333"
       d="m 36.666668,158.47649 c -2.2,-0.71187 -9.027158,-0.95087 -15.171462,-0.53111 -16.1475391,1.10315 -17.5906287,-0.97685 -8.479345,-12.22172 4.948522,-6.10732 4.959781,-6.02606 -2.031321,-14.66156 -4.7955786,-5.92356 -5.1596081,-9.16151 -1.3025499,-11.58586 1.9430249,-1.22128 3.0944119,-0.6762 6.6666659,3.15609 l 4.318011,4.63232 0.461123,-3.96566 C 21.774385,117.73825 20.415967,82.908149 18.685051,60.666665 15.545376,20.323289 15.279735,13.148679 16.876667,11.82455 17.7255,11.120722 22.825501,10.722268 28.210001,10.939098 l 9.79,0.394235 -0.504591,20 c -0.546812,21.673533 -0.704164,24.011542 -2.692068,39.999999 -0.729424,5.866666 -1.358577,20.850383 -1.398117,33.297148 l -0.07189,22.63048 4.008519,-4.38877 c 2.710888,-2.96804 4.976917,-4.2512 7,-3.96381 5.617111,0.79793 4.124315,8.1216 -3.331225,16.34303 -3.434136,3.78692 -2.93991,5.61684 2.989373,11.06849 5.8571,5.38528 6.907727,10.07702 2.754321,12.29986 -3.034089,1.62378 -4.699717,1.60013 -10.087655,-0.14327 z"
       id="path372" />
  </g>
</svg>
