<?xml version="1.0" encoding="UTF-8" standalone="no"?>
<!-- Created with Inkscape (http://www.inkscape.org/) -->

<svg
   version="1.1"
   id="svg92"
   width="156"
   height="158.66667"
   viewBox="0 0 156 158.66667"
   sodipodi:docname="0072.svg"
   inkscape:version="1.1.2 (0a00cf5339, 2022-02-04)"
   xmlns:inkscape="http://www.inkscape.org/namespaces/inkscape"
   xmlns:sodipodi="http://sodipodi.sourceforge.net/DTD/sodipodi-0.dtd"
   xmlns="http://www.w3.org/2000/svg"
   xmlns:svg="http://www.w3.org/2000/svg">
  <defs
     id="defs96" />
  <sodipodi:namedview
     id="namedview94"
     pagecolor="#ffffff"
     bordercolor="#666666"
     borderopacity="1.0"
     inkscape:pageshadow="2"
     inkscape:pageopacity="0.0"
     inkscape:pagecheckerboard="0"
     showgrid="false"
     inkscape:zoom="5.5021007"
     inkscape:cx="28.716305"
     inkscape:cy="79.242461"
     inkscape:window-width="2560"
     inkscape:window-height="1299"
     inkscape:window-x="0"
     inkscape:window-y="32"
     inkscape:window-maximized="1"
     inkscape:current-layer="g98" />
  <g
     inkscape:groupmode="layer"
     inkscape:label="Image"
     id="g98">
    <path
       style="fill:#000000;stroke-width:1.33333"
       d="M 17.753409,150.08851 C 7.9898961,145.54266 3.9414616,136.78731 6.7610993,126.31597 9.6103765,115.73457 20.955265,108.647 31.853436,110.63987 c 12.004197,2.19512 18.785903,12.00351 16.916897,24.46692 -1.222341,8.15116 -4.75691,12.19773 -13.517368,15.47544 -9.13387,3.41741 -9.097024,3.41845 -17.499556,-0.49372 z m 67.598611,0.61792 c -1.580788,-0.99949 -2.004073,-4.83624 -2.093908,-18.97958 -0.06193,-9.74977 0.453131,-18.47685 1.144573,-19.39351 1.738255,-2.30446 7.736623,-2.0874 11.30064,0.40893 2.801986,1.96259 2.963342,3.01275 2.963342,19.28643 0,15.65122 -0.233703,17.33589 -2.579012,18.59106 -3.192811,1.70874 -8.107436,1.74842 -10.735635,0.0867 z m 26.59797,-2.10003 c -1.17546,-1.41633 -1.7474,-7.30765 -1.82993,-18.84944 -0.11997,-16.77751 -0.11753,-16.79106 3.50808,-19.50464 3.04679,-2.28035 4.16844,-2.46929 7,-1.17914 L 124,110.6095 v 19.20641 c 0,18.79065 -0.0649,19.22381 -3,20.01037 -4.83899,1.2968 -7.22869,0.9747 -9.05001,-1.21988 z m 24.0687,0.7667 c -1.5808,-0.9995 -2.00408,-4.83624 -2.09392,-18.97958 -0.0619,-9.74977 0.45314,-18.47685 1.14458,-19.39352 1.73826,-2.30446 7.73662,-2.08739 11.30064,0.40894 2.80198,1.96259 2.96334,3.01274 2.96334,19.28642 0,15.65123 -0.2337,17.3359 -2.57901,18.59107 -3.19281,1.70873 -8.10744,1.74841 -10.73563,0.0867 z M 52,88.765477 C 31.120915,86.869458 29.38206,86.543756 15.333333,81.89752 6.3625411,78.930674 6,78.644864 6,74.539562 6,70.769959 6.6263451,70.039631 11.333333,68.320812 39.107884,58.178565 96.826459,56.520031 129.83894,64.915571 c 12.3441,3.139278 19.49439,6.622681 19.49439,9.497064 0,3.815452 -4.29014,6.895073 -11.49757,8.253377 -3.57633,0.673992 -13.10243,2.463339 -21.16909,3.976326 C 97.530195,90.231579 75.947876,90.940171 52,88.765477 Z m 51.75784,-9.527895 c 6.10014,-0.49835 13.58053,-1.641111 16.62309,-2.539471 l 5.53192,-1.63338 -4.62309,-1.488009 C 107.96319,69.287372 71.832736,67.909913 46,70.706331 c -24.922053,2.697836 -23.172227,5.507095 5.333333,8.562404 15.919055,1.706251 31.269092,1.697128 52.424507,-0.03115 z M 45.333333,43.669026 c -2.71729,-1.412398 -3.407914,-2.884356 -3.73688,-7.964584 -0.494796,-7.641116 1.546631,-11.829983 9.77569,-20.05904 7.465326,-7.4653277 12.06295,-8.9715035 27.294524,-8.9416515 9.199769,0.01803 11.960852,0.5130643 14.666666,2.629583 1.833334,1.4340545 4.039651,2.6207125 4.902928,2.6370195 2.657369,0.05019 9.678559,9.657538 12.431679,17.010708 4.07557,10.885247 2.60775,13.076001 -9.564,14.274447 -9.947685,0.979461 -11.692084,1.035845 -25.770607,0.832966 -4.4,-0.06341 -12.2,0.206116 -17.333333,0.598938 -6.324517,0.483976 -10.407911,0.155674 -12.666667,-1.018386 z"
       id="path251" />
  </g>
</svg>
