<?xml version="1.0" encoding="UTF-8" standalone="no"?>
<!-- Created with Inkscape (http://www.inkscape.org/) -->

<svg
   version="1.1"
   id="svg102"
   width="157.33333"
   height="160"
   viewBox="0 0 157.33333 160"
   sodipodi:docname="0073.svg"
   inkscape:version="1.1.2 (0a00cf5339, 2022-02-04)"
   xmlns:inkscape="http://www.inkscape.org/namespaces/inkscape"
   xmlns:sodipodi="http://sodipodi.sourceforge.net/DTD/sodipodi-0.dtd"
   xmlns="http://www.w3.org/2000/svg"
   xmlns:svg="http://www.w3.org/2000/svg">
  <defs
     id="defs106" />
  <sodipodi:namedview
     id="namedview104"
     pagecolor="#ffffff"
     bordercolor="#666666"
     borderopacity="1.0"
     inkscape:pageshadow="2"
     inkscape:pageopacity="0.0"
     inkscape:pagecheckerboard="0"
     showgrid="false"
     inkscape:zoom="5.45625"
     inkscape:cx="78.62543"
     inkscape:cy="79.908362"
     inkscape:window-width="2560"
     inkscape:window-height="1299"
     inkscape:window-x="0"
     inkscape:window-y="32"
     inkscape:window-maximized="1"
     inkscape:current-layer="g108" />
  <g
     inkscape:groupmode="layer"
     inkscape:label="Image"
     id="g108">
    <path
       style="fill:#000000;stroke-width:1.33333"
       d="m 45.666666,150.37268 c -9.075243,-4.37683 2.339833,-29.10656 16.08669,-34.85036 10.264429,-4.28876 32.63683,-3.62988 39.899754,1.17506 5.70332,3.77315 12.44393,15.82245 14.24522,25.46429 1.85206,9.91361 2.07377,9.85185 -34.99357,9.74809 -20.258903,-0.0567 -33.352849,-0.62787 -35.238094,-1.53708 z M 69.290211,92.553249 67.979759,89.106497 36.989879,89.553249 5.9999999,90 5.5861596,86.416821 C 4.921764,80.664243 9.8983925,78.298352 21.648986,78.780548 c 5.326391,0.218573 17.918938,0.282367 27.98344,0.141763 l 18.299093,-0.255644 2.06848,-4 c 2.466982,-4.770619 6.338693,-5.204163 9.257727,-1.036659 l 2.075606,2.963341 2.075605,-2.963341 c 2.847975,-4.066053 5.977536,-3.732133 9.924394,1.058921 l 3.333334,4.046303 25.999995,-1.111396 c 14.3,-0.611267 27.35,-0.641545 29,-0.06728 3.34555,1.164376 4.148,6.497509 1.3296,8.836576 -1.00244,0.831947 -13.12556,1.563708 -30.31649,1.829925 l -28.646087,0.44361 -1.756264,3.666666 C 91.311474,94.35 89.702967,96 88.702959,96 c -3.283417,0 -6.036294,-1.585237 -6.036294,-3.475985 0,-2.671507 -1.757443,-2.286111 -3.690569,0.809318 -2.464644,3.946523 -8.060171,3.49587 -9.685885,-0.780084 z M 39.677964,61.299175 C 38.755083,59.81372 35.899999,58.022257 33.333333,57.318145 30.354667,56.501011 27.542318,54.376591 25.558282,51.444955 23.84867,48.918812 20.690758,46.238728 18.5407,45.489213 12.624365,43.426768 12.087128,40.122017 17.04645,36.297512 l 4.181714,-3.224833 -3.631472,-3.055683 C 15.470178,28.227653 13.29134,24.441756 12.339147,20.881612 10.928786,15.608431 11.019531,14.263235 13.023204,10.741271 15.40532,6.5540957 20.46472,4.6515337 26.825343,5.5510445 c 4.145266,0.5862178 4.816188,5.1534145 1.23335,8.3958385 -1.498948,1.356529 -2.714854,3.423425 -2.702014,4.593101 0.03461,3.152645 12.633376,16.126683 15.660221,16.126683 1.436036,0 4.944702,1.584157 7.797036,3.52035 l 5.186063,3.520351 29.999999,-1.655848 C 100.5,39.140803 116.72133,38.246613 120.04741,38.064433 c 3.32608,-0.18218 7.32731,-1.016216 8.89162,-1.853412 2.52393,-1.350766 4.90759,-7.089364 4.30027,-10.35277 -0.74643,-4.010834 0.45651,-8.887392 2.7607,-11.191584 2.99882,-2.998831 9.61113,-3.545072 11.74785,-0.970487 0.78756,0.948961 1.53945,9.205472 1.70679,18.742187 0.23597,13.44891 -0.1108,17.45588 -1.64324,18.988322 -1.61764,1.617647 -9.2862,1.96056 -45.87686,2.051467 -44.818589,0.111347 -52.601208,0.854857 -52.601208,5.025247 0,5.44139 -6.790182,7.407529 -9.655368,2.795772 z"
       id="path130" />
  </g>
</svg>
