<?xml version="1.0" encoding="UTF-8" standalone="no"?>
<!-- Created with Inkscape (http://www.inkscape.org/) -->

<svg
   version="1.1"
   id="svg2"
   width="85.333336"
   height="160"
   viewBox="0 0 85.333336 160"
   sodipodi:docname="0074.svg"
   inkscape:version="1.1.2 (0a00cf5339, 2022-02-04)"
   xmlns:inkscape="http://www.inkscape.org/namespaces/inkscape"
   xmlns:sodipodi="http://sodipodi.sourceforge.net/DTD/sodipodi-0.dtd"
   xmlns="http://www.w3.org/2000/svg"
   xmlns:svg="http://www.w3.org/2000/svg">
  <defs
     id="defs6" />
  <sodipodi:namedview
     id="namedview4"
     pagecolor="#ffffff"
     bordercolor="#666666"
     borderopacity="1.0"
     inkscape:pageshadow="2"
     inkscape:pageopacity="0.0"
     inkscape:pagecheckerboard="0"
     showgrid="false"
     inkscape:zoom="5.45625"
     inkscape:cx="-7.1477663"
     inkscape:cy="79.908362"
     inkscape:window-width="2560"
     inkscape:window-height="1299"
     inkscape:window-x="0"
     inkscape:window-y="32"
     inkscape:window-maximized="1"
     inkscape:current-layer="g8" />
  <g
     inkscape:groupmode="layer"
     inkscape:label="Image"
     id="g8">
    <path
       style="fill:#000000;stroke-width:1.33333"
       d="m 43.641016,155.19657 c -0.270869,-0.27086 -8.008954,-0.6509 -17.195743,-0.84453 C 8.9773935,153.98388 5.3333335,152.86317 5.3333335,147.8592 5.3333335,146.22139 7.5989581,144.23017 12,142 c 3.666667,-1.85804 6.666667,-3.93992 6.666667,-4.62639 0,-1.75428 -2.174709,-7.0327 -7.981918,-19.37361 C 3.9715323,103.73373 2.6666668,99.460241 2.6666668,91.740429 c 0,-7.980952 4.6479097,-13.885044 9.6888652,-12.307457 5.768077,1.805143 10.928202,6.908625 18.920644,18.712951 5.708325,8.430837 8.303923,10.937637 10.146161,9.799067 1.419602,-0.87736 1.74511,-5.15407 1.486775,-19.534138 -0.181911,-10.125969 -0.659731,-20.265316 -1.061821,-22.531881 -1.004404,-5.661768 1.491178,-14.109106 5.420921,-18.349367 1.799119,-1.941283 2.549775,-3.578277 1.668124,-3.637768 -0.88165,-0.05949 -3.975531,-0.209491 -6.875288,-0.333333 -4.385339,-0.18729 -5.787243,-0.98733 -8.333334,-4.75568 -3.900969,-5.773642 -3.84771,-8.809714 0.337944,-19.265294 3.372898,-8.425345 4.862419,-9.8816179 13.210042,-12.9151674 5.846126,-2.1244987 21.428718,0.87541 23.834076,4.5884564 1.752561,2.705353 6.617414,20.654297 8.164358,30.122515 1.117866,6.842003 0.755126,18.78731 -0.650252,21.41328 -0.671113,1.253988 -2.675313,2.645187 -4.453778,3.091552 -2.742507,0.688326 -3.318458,1.774671 -3.792526,7.153372 -0.307425,3.487988 -0.01574,14.141796 0.648184,23.67513 0.663927,9.533333 0.923516,25.010083 0.576867,34.392783 -0.749156,20.27728 -1.766808,22.25528 -11.475944,22.3057 -3.369675,0.0175 -8.346645,0.54753 -11.059931,1.17785 -2.713286,0.63033 -5.154869,0.92444 -5.425738,0.65357 z"
       id="path2265" />
  </g>
</svg>
