<?xml version="1.0" encoding="UTF-8" standalone="no"?>
<!-- Created with Inkscape (http://www.inkscape.org/) -->

<svg
   version="1.1"
   id="svg12"
   width="148"
   height="117.33333"
   viewBox="0 0 148 117.33333"
   sodipodi:docname="0075.svg"
   inkscape:version="1.1.2 (0a00cf5339, 2022-02-04)"
   xmlns:inkscape="http://www.inkscape.org/namespaces/inkscape"
   xmlns:sodipodi="http://sodipodi.sourceforge.net/DTD/sodipodi-0.dtd"
   xmlns="http://www.w3.org/2000/svg"
   xmlns:svg="http://www.w3.org/2000/svg">
  <defs
     id="defs16" />
  <sodipodi:namedview
     id="namedview14"
     pagecolor="#ffffff"
     bordercolor="#666666"
     borderopacity="1.0"
     inkscape:pageshadow="2"
     inkscape:pageopacity="0.0"
     inkscape:pagecheckerboard="0"
     showgrid="false"
     inkscape:zoom="7.4403412"
     inkscape:cx="37.49828"
     inkscape:cy="58.599463"
     inkscape:window-width="2560"
     inkscape:window-height="1299"
     inkscape:window-x="0"
     inkscape:window-y="32"
     inkscape:window-maximized="1"
     inkscape:current-layer="g18" />
  <g
     inkscape:groupmode="layer"
     inkscape:label="Image"
     id="g18">
    <path
       style="fill:#000000;stroke-width:1.33333"
       d="m 73.360963,107.06562 -2.832584,-3.60105 -5.709594,3.11899 c -5.245793,2.86564 -6.837728,3.06324 -19.597522,2.43255 -17.23821,-0.85205 -18.554596,-1.35776 -18.554596,-7.12803 0,-6.490516 4.854513,-9.519784 11.881792,-7.41436 2.801844,0.839452 8.024648,1.521656 11.606234,1.516008 6.219323,-0.0099 6.651771,-0.255027 9.622698,-5.456545 C 64.642747,82.014888 64.628147,81.993719 37.514077,58.25348 22.291107,44.924717 21.578555,44.151797 20.660541,39.97211 c -1.112833,-5.066698 1.638515,-9.662352 7.279614,-12.159345 7.669628,-3.394908 5.000044,-5.146099 -7.844916,-5.146099 -9.044734,0 -12.4081279,-0.503365 -14.0000009,-2.095239 C 3.8718536,18.348043 3.3993636,14.87312 5.0204171,12.666666 8.3438965,8.1430007 10.222954,7.8316702 24.503631,9.4386013 37.341621,10.883194 38.99984,10.809041 43.614044,8.5840056 51.457664,4.8017001 64.049771,4.4363163 71.172401,7.7843474 c 8.472716,3.9826466 11.712115,8.6415626 11.2234,16.1415456 -0.350021,5.371554 -0.891849,6.305433 -4.684521,8.074106 -4.795147,2.236167 -6.798537,5.333333 -3.449848,5.333333 2.822173,0 19.376255,9.071147 33.625818,18.425956 7.68393,5.04448 13.77768,7.946189 19.33334,9.206113 8.37412,1.899096 11.82198,4.50356 10.50509,7.935352 -0.45369,1.182301 0.92083,3.508121 3.42491,5.795239 11.76368,10.744468 -3.52258,21.30223 -19.202,13.262245 -4.24912,-2.178836 -6.67474,-2.536857 -12.40505,-1.830985 -6.88177,0.847711 -7.09314,0.995953 -6.23821,4.375093 3.72546,14.724845 2.42198,16.164315 -14.637127,16.164315 -11.965519,0 -12.590264,-0.14697 -15.30724,-3.60104 z m 12.529988,-9.208275 c 3.371269,-1.293677 2.674265,-7.838445 -1.013735,-9.51881 -3.345232,-1.524189 -5.209396,-0.868825 -6.622299,2.328129 -0.486148,1.1 -1.865566,3.35 -3.065374,5 -2.16405,2.976047 -2.138456,3 3.205444,3 2.962802,0 6.335985,-0.364193 7.495964,-0.809319 z"
       id="path2126" />
  </g>
</svg>
