<?xml version="1.0" encoding="UTF-8" standalone="no"?>
<!-- Created with Inkscape (http://www.inkscape.org/) -->

<svg
   version="1.1"
   id="svg22"
   width="88"
   height="149.33333"
   viewBox="0 0 88 149.33333"
   sodipodi:docname="0076.svg"
   inkscape:version="1.1.2 (0a00cf5339, 2022-02-04)"
   xmlns:inkscape="http://www.inkscape.org/namespaces/inkscape"
   xmlns:sodipodi="http://sodipodi.sourceforge.net/DTD/sodipodi-0.dtd"
   xmlns="http://www.w3.org/2000/svg"
   xmlns:svg="http://www.w3.org/2000/svg">
  <defs
     id="defs26" />
  <sodipodi:namedview
     id="namedview24"
     pagecolor="#ffffff"
     bordercolor="#666666"
     borderopacity="1.0"
     inkscape:pageshadow="2"
     inkscape:pageopacity="0.0"
     inkscape:pagecheckerboard="0"
     showgrid="false"
     inkscape:zoom="5.8459823"
     inkscape:cx="-2.3948071"
     inkscape:cy="74.752193"
     inkscape:window-width="2560"
     inkscape:window-height="1299"
     inkscape:window-x="0"
     inkscape:window-y="32"
     inkscape:window-maximized="1"
     inkscape:current-layer="g28" />
  <g
     inkscape:groupmode="layer"
     inkscape:label="Image"
     id="g28">
    <path
       style="fill:#000000;stroke-width:1.33333"
       d="m 6.6490107,139.31205 c -2.4519226,-2.95439 -0.9521988,-6.48127 3.3639433,-7.91096 10.878886,-3.60354 12.804387,-5.93552 19.405198,-23.50177 L 35.6431,91.333331 43.791769,90.937147 c 4.481767,-0.2179 9.353776,0.248771 10.826686,1.037048 2.56303,1.371692 11.3958,13.651555 15.427978,21.448925 1.053435,2.03712 4.323938,6.48677 7.267784,9.88812 6.013876,6.94849 6.369476,8.47069 2.961903,12.67886 -2.017916,2.49203 -3.836472,2.98268 -11.666667,3.14772 -10.897377,0.22968 -15.995457,-0.94793 -17.152056,-3.96198 -1.238034,-3.22627 1.557374,-5.76006 7.382432,-6.69152 C 61.677924,128.03049 64,127.0722 64,126.35479 c 0,-1.74864 -7.692896,-11.41028 -12.666667,-15.90828 -3.34229,-3.02258 -4.39769,-3.35668 -6.418646,-2.03194 -4.027804,2.64024 -11.581354,18.27755 -11.581354,23.97566 0,4.97689 -4.231833,7.15998 -15.574221,8.03437 -7.247879,0.55874 -9.94741,0.28841 -11.1101013,-1.11255 z M 21.338873,47.340007 c -2.118802,-2.553 0.839854,-7.446725 6.536692,-10.81193 2.979698,-1.760151 4.806651,-4.711294 7.516888,-12.142296 2.65411,-7.277109 4.752659,-10.711069 8.111191,-13.272747 5.259503,-4.0116182 14.492213,-4.9935028 16.537527,-1.7587402 1.11627,1.7654392 1.624354,11.4832782 1.627574,31.1297062 6.64e-4,4.053338 -0.68679,6.919695 -1.833841,7.64625 -1.009197,0.639237 -9.711437,1.171436 -19.338311,1.182665 -13.924152,0.01624 -17.841696,-0.387196 -19.15772,-1.972908 z"
       id="path1987" />
  </g>
</svg>
