<?xml version="1.0" encoding="UTF-8" standalone="no"?>
<!-- Created with Inkscape (http://www.inkscape.org/) -->

<svg
   version="1.1"
   id="svg32"
   width="96"
   height="156"
   viewBox="0 0 96 156"
   sodipodi:docname="0077.svg"
   inkscape:version="1.1.2 (0a00cf5339, 2022-02-04)"
   xmlns:inkscape="http://www.inkscape.org/namespaces/inkscape"
   xmlns:sodipodi="http://sodipodi.sourceforge.net/DTD/sodipodi-0.dtd"
   xmlns="http://www.w3.org/2000/svg"
   xmlns:svg="http://www.w3.org/2000/svg">
  <defs
     id="defs36" />
  <sodipodi:namedview
     id="namedview34"
     pagecolor="#ffffff"
     bordercolor="#666666"
     borderopacity="1.0"
     inkscape:pageshadow="2"
     inkscape:pageopacity="0.0"
     inkscape:pagecheckerboard="0"
     showgrid="false"
     inkscape:zoom="5.5961538"
     inkscape:cx="-0.53608247"
     inkscape:cy="77.910653"
     inkscape:window-width="2560"
     inkscape:window-height="1299"
     inkscape:window-x="0"
     inkscape:window-y="32"
     inkscape:window-maximized="1"
     inkscape:current-layer="g38" />
  <g
     inkscape:groupmode="layer"
     inkscape:label="Image"
     id="g38">
    <path
       style="fill:#000000;stroke-width:1.33333"
       d="M 43.680387,149.59417 C 37.690588,149.20952 37.17554,148.8616 33.811476,142.92751 31.859361,139.48404 25.032477,128.26667 18.640624,118 3.4697899,93.63244 3.7426845,94.194912 5.7555557,91.442147 c 1.299168,-1.776718 3.3416339,-2.172224 9.5581363,-1.850854 7.547648,0.390186 8.072385,0.650388 11.579712,5.74204 2.020592,2.933334 5.894541,9.533337 8.608776,14.666667 2.714233,5.13333 6.520769,12.33333 8.458968,16 1.938199,3.66667 5.15102,9.43845 7.139604,12.8262 3.507439,5.97527 3.674069,9.84105 0.462823,10.73737 -0.859966,0.24004 -4.4074,0.2538 -7.883188,0.0305 z m 27.309866,-0.96485 c -1.655361,-1.17013 -7.412976,-10.94043 -12.7947,-21.71175 -5.381725,-10.77133 -11.377338,-21.91796 -13.323586,-24.7703 -3.90768,-5.726919 -4.644298,-12.10435 -1.535874,-13.297165 2.883719,-1.106586 13.965906,1.20175 16.021608,3.33718 C 60.317472,93.184279 62.566741,96.7 64.35608,100 c 27.717877,51.11891 27.276609,49.75596 16.310587,50.37841 -4.470076,0.25374 -7.658344,-0.32257 -9.676414,-1.74909 z M 17.666667,45.03934 c -2.501442,-1.206399 -3,-2.524301 -3,-7.930272 0,-10.528433 9.434398,-22.99586 20.919176,-27.6444001 8.349985,-3.3797132 38.805709,-1.6233435 40.118021,2.3135901 0.261661,0.784987 1.930597,3.406009 3.708744,5.824495 4.473141,6.083988 7.173644,12.20235 8.485727,19.225583 1.852062,9.913611 2.073772,9.851848 -34.993574,9.748091 C 32.645859,46.519717 19.551912,45.94856 17.666667,45.03934 Z"
       id="path1848" />
  </g>
</svg>
