<?xml version="1.0" encoding="UTF-8" standalone="no"?>
<!-- Created with Inkscape (http://www.inkscape.org/) -->

<svg
   version="1.1"
   id="svg2"
   width="161.33333"
   height="156"
   viewBox="0 0 161.33333 156"
   sodipodi:docname="0078.svg"
   inkscape:version="1.1.2 (0a00cf5339, 2022-02-04)"
   xmlns:inkscape="http://www.inkscape.org/namespaces/inkscape"
   xmlns:sodipodi="http://sodipodi.sourceforge.net/DTD/sodipodi-0.dtd"
   xmlns="http://www.w3.org/2000/svg"
   xmlns:svg="http://www.w3.org/2000/svg">
  <defs
     id="defs6" />
  <sodipodi:namedview
     id="namedview4"
     pagecolor="#ffffff"
     bordercolor="#666666"
     borderopacity="1.0"
     inkscape:pageshadow="2"
     inkscape:pageopacity="0.0"
     inkscape:pagecheckerboard="0"
     showgrid="false"
     inkscape:zoom="5.5961538"
     inkscape:cx="80.591065"
     inkscape:cy="77.910653"
     inkscape:window-width="2560"
     inkscape:window-height="1299"
     inkscape:window-x="0"
     inkscape:window-y="32"
     inkscape:window-maximized="1"
     inkscape:current-layer="g8" />
  <g
     inkscape:groupmode="layer"
     inkscape:label="Image"
     id="g8">
    <path
       style="fill:#000000;stroke-width:1.33333"
       d="m 68.666665,150.01464 c -25.979761,-1.92476 -39.08202,-3.77008 -47.262919,-6.65647 -3.15646,-1.11366 -6.820724,-2.02484 -8.14281,-2.02484 -4.8918454,0 -8.165949,-6.12805 -5.5089726,-10.31099 1.0018455,-1.57723 20.8798976,-7.59782 36.2480356,-10.97868 5.057031,-1.1125 15.610798,-1.39401 33.999999,-0.90693 46.221772,1.22431 74.086412,6.76425 76.190582,15.14794 0.50644,2.0178 0.11587,3.92006 -1.01772,4.95694 -3.01197,2.755 -19.42378,6.95439 -36.5062,9.34106 -23.343291,3.2614 -23.317401,3.26062 -47.999995,1.43197 z m 46.480025,-12.04492 c 7.23069,-1.00027 13.45149,-2.12345 13.824,-2.49597 0.37252,-0.37251 -1.0435,-1.03616 -3.14669,-1.47476 -2.1032,-0.43862 -5.924,-1.34287 -8.49067,-2.00947 -12.51442,-3.25019 -56.811873,-2.68498 -78.666664,1.00373 l -6,1.0127 5.333333,1.71458 c 12.382161,3.98067 55.535516,5.23879 77.146691,2.24919 z M 78.347052,109.59417 C 72.357253,109.20952 71.842205,108.8616 68.478141,102.92751 66.526027,99.484044 59.699143,88.266667 53.30729,78 38.136455,53.63244 38.40935,54.194912 40.422222,51.442147 c 1.299168,-1.776718 3.341633,-2.172224 9.558136,-1.850854 7.547647,0.390186 8.072385,0.650388 11.579711,5.74204 2.020592,2.933334 5.894542,9.533334 8.608776,14.666667 2.714233,5.133333 6.520769,12.333333 8.458968,16 1.938199,3.666667 5.15102,9.438459 7.139604,12.826205 3.507438,5.975265 3.674069,9.841045 0.462823,10.737365 -0.859966,0.24004 -4.4074,0.25381 -7.883188,0.0306 z m 34.666668,0 c -5.9898,-0.38465 -6.50485,-0.73257 -9.86891,-6.66666 C 101.19269,99.484044 94.365809,88.266667 87.973956,78 72.803121,53.63244 73.076016,54.194912 75.088888,51.442147 c 1.299168,-1.776718 3.341633,-2.172224 9.558136,-1.850854 7.547647,0.390186 8.072385,0.650388 11.579711,5.74204 2.020592,2.933334 5.894545,9.533334 8.608775,14.666667 2.71423,5.133333 6.52077,12.333333 8.45897,16 1.9382,3.666667 5.15102,9.438459 7.1396,12.826205 3.50744,5.975265 3.67407,9.841045 0.46283,10.737365 -0.85997,0.24004 -4.4074,0.25381 -7.88319,0.0306 z M 68.666665,38.014639 c -25.979761,-1.924764 -39.08202,-3.770074 -47.262919,-6.656462 -3.15646,-1.113664 -6.820724,-2.024844 -8.14281,-2.024844 -4.8918454,0 -8.165949,-6.128048 -5.5089726,-10.310989 C 8.7538089,17.445115 28.631861,11.42452 43.999999,8.0436641 49.05703,6.931162 59.610797,6.6496459 77.999998,7.1367324 124.22177,8.361038 152.08641,13.900984 154.19058,22.284663 c 0.50644,2.017808 0.11587,3.920069 -1.01772,4.956953 -3.01197,2.754996 -19.42378,6.95438 -36.5062,9.341048 -23.343291,3.261407 -23.317401,3.260635 -47.999995,1.431975 z m 41.999995,-11.43426 c 16.2629,-2.1212 18.77715,-2.656258 18.04541,-3.840236 -1.0298,-1.666266 -9.45951,-2.681838 -34.712072,-4.181952 -21.662166,-1.28683 -37.543272,-0.589535 -55.333332,2.429528 l -6,1.01823 5.333333,1.714583 c 11.33944,3.645449 53.824424,5.317476 72.666661,2.859847 z"
       id="path30" />
  </g>
</svg>
