<?xml version="1.0" encoding="UTF-8" standalone="no"?>
<!-- Created with Inkscape (http://www.inkscape.org/) -->

<svg
   version="1.1"
   id="svg52"
   width="158.66667"
   height="161.33333"
   viewBox="0 0 158.66667 161.33333"
   sodipodi:docname="0079.svg"
   inkscape:version="1.1.2 (0a00cf5339, 2022-02-04)"
   xmlns:inkscape="http://www.inkscape.org/namespaces/inkscape"
   xmlns:sodipodi="http://sodipodi.sourceforge.net/DTD/sodipodi-0.dtd"
   xmlns="http://www.w3.org/2000/svg"
   xmlns:svg="http://www.w3.org/2000/svg">
  <defs
     id="defs56" />
  <sodipodi:namedview
     id="namedview54"
     pagecolor="#ffffff"
     bordercolor="#666666"
     borderopacity="1.0"
     inkscape:pageshadow="2"
     inkscape:pageopacity="0.0"
     inkscape:pagecheckerboard="0"
     showgrid="false"
     inkscape:zoom="5.4111572"
     inkscape:cx="29.19893"
     inkscape:cy="80.574262"
     inkscape:window-width="2560"
     inkscape:window-height="1299"
     inkscape:window-x="0"
     inkscape:window-y="32"
     inkscape:window-maximized="1"
     inkscape:current-layer="g58" />
  <g
     inkscape:groupmode="layer"
     inkscape:label="Image"
     id="g58">
    <path
       style="fill:#000000;stroke-width:1.33333"
       d="m 144.84648,153.23656 c -1.93222,-1.5199 -3.51314,-3.33916 -3.51314,-4.04283 0,-0.70365 -0.89192,-3.41404 -1.98204,-6.02307 l -1.98204,-4.74369 -4.83249,2.98664 c -4.52377,2.79584 -5.05945,2.85259 -8.38502,0.88812 -3.29193,-1.94459 -3.79457,-1.91255 -6.85214,0.43689 -4.29138,3.29748 -6.44808,3.23322 -10.21367,-0.30437 L 104,139.53516 l -3.08593,2.89909 c -3.822012,3.59059 -4.090696,3.58765 -9.077023,-0.0989 -3.816189,-2.82143 -4.155358,-2.8607 -5.759667,-0.66667 -2.275901,3.11248 -8.118104,2.95725 -11.377669,-0.30232 -2.622611,-2.62261 -2.647899,-2.62039 -6.046802,0.5296 -3.576601,3.31468 -7.333993,3.29979 -10.105822,-0.04 -2.001166,-2.41128 -4.471458,-2.35691 -6.547086,0.14407 -0.912919,1.1 -3.322192,2 -5.353941,2 -2.053647,0 -4.034902,-0.88815 -4.46156,-2 -0.422111,-1.1 -1.612836,-2 -2.646059,-2 -1.033224,0 -2.625522,0.9 -3.53844,2 -1.873666,2.25762 -7.416896,2.68884 -8.662236,0.67384 -0.450787,-0.72939 -1.921499,-1.91588 -3.26825,-2.63664 -2.102447,-1.12519 -2.971052,-0.27792 -6.143767,5.99284 -3.152792,6.23137 -4.243334,7.30329 -7.430195,7.30329 -6.2695828,0 -7.1380931,-3.88051 -3.051758,-13.63529 1.9272165,-4.60059 4.273143,-9.86471 5.21317,-11.69804 0.940027,-1.83334 2.363903,-4.98334 3.164169,-7 2.132376,-5.37358 8.767972,-5.19252 11.907547,0.3249 2.525332,4.43797 4.457458,4.99728 6.937986,2.00843 2.446738,-2.94814 6.129166,-2.43727 9.031946,1.25302 l 2.558824,3.25302 4.792908,-3.4102 4.792907,-3.41021 4.618972,2.85468 c 3.845639,2.37674 4.919123,2.55799 6.411708,1.08258 3.669068,-3.62684 6.505815,-3.69769 9.954866,-0.24864 l 3.347381,3.34738 3.425056,-2.69415 c 4.431102,-3.4855 5.515635,-3.40044 9.873178,0.77435 l 3.620326,3.46849 2.272646,-3.46849 c 2.715555,-4.14447 6.477785,-4.45842 9.608655,-0.80183 2.84448,3.32211 3.76749,3.32415 7.97108,0.0176 3.22578,-2.53739 3.53134,-2.5524 7.24934,-0.35613 3.85645,2.27806 3.90773,2.26498 7.91016,-2.01761 4.37112,-4.67708 6.27993,-5.21265 9.42293,-2.64387 2.77747,2.27003 7.95128,11.44782 9.20764,16.33334 0.56575,2.2 1.77292,5.84418 2.68261,8.09818 2.1081,5.22336 0.71755,11.23515 -2.59872,11.23515 -1.3538,0 -4.04237,-1.24355 -5.9746,-2.76344 z M 22.470167,101.77392 c -3.726312,-0.98975 -3.960288,-5.738346 -0.455439,-9.243195 4.59867,-4.598669 10.184869,-13.233247 15.226338,-23.53532 4.176271,-8.534069 4.32513,-9.335292 2.848751,-15.333333 -2.899491,-11.77968 -6.893635,-20.824014 -11.398164,-25.809991 -2.467422,-2.73114 -5.51607,-6.537456 -6.774773,-8.45848 -2.213245,-3.377839 -2.183718,-3.604995 0.897284,-6.903205 4.090177,-4.3785287 9.142033,-6.8444214 12.492993,-6.0980324 1.452269,0.3234768 6.252269,3.7083784 10.666667,7.5220024 10.470483,9.045514 16.425125,12.355731 24.276044,13.495179 3.52924,0.512217 7.470052,1.477464 8.757359,2.144992 1.422737,0.737754 5.34412,0.697074 10,-0.103734 22.910953,-3.940685 25.330053,-4.027217 32.140963,-1.14969 l 6.46499,2.731378 4.09716,-3.029162 c 2.49461,-1.844346 4.98656,-2.687871 6.37104,-2.156596 3.54545,1.360514 1.63788,12.274856 -2.74838,15.725081 -7.91966,6.229605 -9.26589,10.029662 -5.3754,15.173349 2.81162,3.717296 2.4831,7.183806 -1.25615,13.25484 -1.80669,2.933333 -3.30361,7.393898 -3.3265,9.912367 -0.0469,5.15742 -3.96017,14.066213 -8.15801,18.572069 -3.33823,3.583171 -10.15726,3.469431 -12.41581,-0.207093 -1.18346,-1.926475 -0.90209,-2.830476 1.45253,-4.666667 3.62554,-2.82728 9.20436,-13.88783 10.48221,-20.781962 1.56407,-8.438348 -2.02141,-5.371756 -8.22943,7.03848 -7.87413,15.740904 -16.134114,23.851293 -22.630626,22.220773 -5.424828,-1.36155 -4.109262,-6.336095 3.790855,-14.334349 8.342953,-8.446592 12.947891,-16.339061 10.791411,-18.495544 -0.800846,-0.800846 -3.044718,-1.630473 -4.986381,-1.843613 -1.941662,-0.213141 -4.681917,-1.429733 -6.089456,-2.703537 -2.050998,-1.85613 -3.877981,-2.134624 -9.200905,-1.402535 -10.550873,1.451116 -10.969215,2.108816 -10.969215,17.245308 0,13.162053 -0.0019,13.169363 -4.472728,17.640238 -4.914782,4.914782 -6.950778,5.407912 -10.776863,2.610202 -2.490695,-1.821237 -2.476643,-2.013049 0.634049,-8.654505 3.100824,-6.620387 4.218178,-16.673953 2.21362,-19.917395 C 53.540066,66.941051 46.555734,73.428872 38.816574,88.946711 32.455135,101.70207 29.86169,103.73718 22.470167,101.77392 Z"
       id="path1570" />
  </g>
</svg>
