<?xml version="1.0" encoding="UTF-8" standalone="no"?>
<!-- Created with Inkscape (http://www.inkscape.org/) -->

<svg
   version="1.1"
   id="svg2"
   width="138.66667"
   height="164"
   viewBox="0 0 138.66667 164"
   sodipodi:docname="0080.svg"
   inkscape:version="1.1.2 (0a00cf5339, 2022-02-04)"
   xmlns:inkscape="http://www.inkscape.org/namespaces/inkscape"
   xmlns:sodipodi="http://sodipodi.sourceforge.net/DTD/sodipodi-0.dtd"
   xmlns="http://www.w3.org/2000/svg"
   xmlns:svg="http://www.w3.org/2000/svg">
  <defs
     id="defs6" />
  <sodipodi:namedview
     id="namedview4"
     pagecolor="#ffffff"
     bordercolor="#666666"
     borderopacity="1.0"
     inkscape:pageshadow="2"
     inkscape:pageopacity="0.0"
     inkscape:pagecheckerboard="0"
     showgrid="false"
     inkscape:zoom="5.3231707"
     inkscape:cx="69.319588"
     inkscape:cy="81.906071"
     inkscape:window-width="2560"
     inkscape:window-height="1299"
     inkscape:window-x="0"
     inkscape:window-y="32"
     inkscape:window-maximized="1"
     inkscape:current-layer="g8" />
  <g
     inkscape:groupmode="layer"
     inkscape:label="Image"
     id="g8">
    <path
       style="fill:#000000;stroke-width:1.33333"
       d="M 8.4483883,155.33333 C 5.6144628,153.24951 5.1945035,95.104147 8.0000002,93.251864 9.1000002,92.525607 16,92.057163 23.333334,92.210876 c 7.333333,0.153713 33.241913,-0.226997 57.57462,-0.846024 41.328226,-1.051395 44.480496,-0.968765 47.874226,1.254892 l 3.63294,2.380395 -0.85506,29.409401 c -0.47029,16.17517 -1.40896,29.75014 -2.08594,30.16659 -0.67698,0.41647 -11.01985,0.7572 -22.98415,0.7572 H 84.736681 L 83.584514,152 c -0.704812,-2.03909 -0.601795,-4.757 0.265327,-7 l 1.417492,-3.66667 h 16.032997 c 14.3743,0 16.03473,-0.2414 16.04965,-2.33333 0.009,-1.28333 0.15916,-9.23333 0.33333,-17.66667 L 118,106 108,105.20783 c -5.5,-0.4357 -27.301609,-0.48901 -48.448024,-0.11847 l -38.448026,0.6737 -1.218642,3.20527 c -0.670252,1.7629 -1.218641,9.75478 -1.218641,17.75973 v 14.55447 l 3.474363,0.872 c 1.910899,0.47962 8.222329,0.47606 14.025403,-0.008 12.769324,-1.06492 15.842146,0.1464 15.813151,6.23362 -0.0112,2.35753 -0.493832,5.03188 -1.072449,5.943 -1.333056,2.09908 -39.735315,3.01266 -42.4587467,1.01009 z M 14.665992,65 C 8.8216862,61.010739 5.3333335,54.112972 5.3333335,46.545872 c 0,-4.976357 0.888064,-7.325461 4.6141775,-12.205404 2.537798,-3.323653 6.481617,-6.693999 8.764043,-7.489656 3.244709,-1.131112 4.055919,-2.108725 3.719156,-4.482064 -0.395979,-2.790647 -1.106408,-3.035415 -8.810195,-3.035415 -5.9965366,0 -8.7397269,-0.568757 -9.64625,-2 -1.7952139,-2.83433 -1.6044623,-5.751002 0.570662,-8.7256613 1.7237733,-2.3574002 3.7562859,-2.5748512 24.71136,-2.6437754 19.905704,-0.065473 23.097524,0.2170832 24.89555,2.2038806 1.134348,1.2534403 1.864236,3.6784611 1.621975,5.3889361 -0.398084,2.810638 -1.274596,3.174116 -9.107144,3.77662 -8.042282,0.618638 -8.694739,0.906815 -9.056315,4 -0.308988,2.643316 0.60066,3.866608 4.394319,5.909471 7.120687,3.834447 10.798189,8.100331 12.633243,14.6545 2.087406,7.455485 0.328622,13.368432 -5.66303,19.038824 C 42.534945,67.030773 39.787557,68 28.951501,68 20.885829,68 18.250134,67.446496 14.665992,65 Z M 111.4814,62.630979 C 99.775752,56.557716 94.444446,49.200589 94.444446,39.120221 c 0,-7.541784 2.984347,-12.05593 10.031024,-15.17301 9.71622,-4.297948 19.95053,-0.1396 21.6251,8.786588 1.136,6.0554 -0.2948,9.620084 -4.79551,11.94749 -7.9197,4.095435 -15.28013,1.655575 -16.32398,-5.411124 l -0.58153,-3.936832 -0.19977,4.038878 c -0.14813,2.994678 1.04604,5.321509 4.61895,9 2.6503,2.728617 5.73069,4.961122 6.84531,4.961122 9.22619,0 17.44972,6.778196 13.70207,11.293848 -2.63277,3.172288 -9.37292,2.419986 -17.88471,-1.996202 z m 4.84621,-26.964312 c 0.79528,-2.162604 -0.21032,-5 -1.77205,-5 -0.67222,0 -1.22222,1.5 -1.22222,3.333333 0,3.476747 1.93295,4.552667 2.99427,1.666667 z"
       id="path30" />
  </g>
</svg>
