<?xml version="1.0" encoding="UTF-8" standalone="no"?>
<!-- Created with Inkscape (http://www.inkscape.org/) -->

<svg
   version="1.1"
   id="svg72"
   width="156"
   height="150.66667"
   viewBox="0 0 156 150.66667"
   sodipodi:docname="0081.svg"
   inkscape:version="1.1.2 (0a00cf5339, 2022-02-04)"
   xmlns:inkscape="http://www.inkscape.org/namespaces/inkscape"
   xmlns:sodipodi="http://sodipodi.sourceforge.net/DTD/sodipodi-0.dtd"
   xmlns="http://www.w3.org/2000/svg"
   xmlns:svg="http://www.w3.org/2000/svg">
  <defs
     id="defs76" />
  <sodipodi:namedview
     id="namedview74"
     pagecolor="#ffffff"
     bordercolor="#666666"
     borderopacity="1.0"
     inkscape:pageshadow="2"
     inkscape:pageopacity="0.0"
     inkscape:pagecheckerboard="0"
     showgrid="false"
     inkscape:zoom="5.7942476"
     inkscape:cx="31.065293"
     inkscape:cy="75.247043"
     inkscape:window-width="2560"
     inkscape:window-height="1299"
     inkscape:window-x="0"
     inkscape:window-y="32"
     inkscape:window-maximized="1"
     inkscape:current-layer="g78" />
  <g
     inkscape:groupmode="layer"
     inkscape:label="Image"
     id="g78">
    <path
       style="fill:#000000;stroke-width:1.33333"
       d="m 66.937987,142.51267 -2.27132,-4.154 -28.861834,0.79043 C 5.0081788,139.99252 3.1687153,139.66792 5.4005461,133.78392 6.0019379,132.19841 7.5828388,130.55978 8.9136595,130.14251 10.24448,129.72524 23.203931,129.12885 37.71244,128.81719 64.066691,128.25108 68,127.52938 68,123.25993 c 0,-0.96079 1.312756,-2.16355 2.917235,-2.67279 2.161646,-0.68608 3.576125,-0.1122 5.461136,2.21569 2.301381,2.84209 2.69614,2.93339 4.140788,0.95772 1.536142,-2.1008 3.760056,-2.92012 7.017074,-2.58519 0.844928,0.0869 2.174323,1.9884 2.95421,4.22558 l 1.417976,4.06761 17.432741,-0.68872 c 9.588,-0.3788 18.07648,-1.08657 18.86327,-1.57284 1.66208,-1.02722 15.27493,-0.88527 18.67784,0.19478 1.27306,0.40405 2.70701,1.97085 3.18657,3.48178 1.78276,5.617 -1.06556,6.28181 -31.14269,7.26889 l -28.407185,0.93228 -1.960389,3.79098 c -2.313608,4.47402 -4.574952,4.7895 -7.910633,1.10361 l -2.432026,-2.68736 -2.86056,2.68736 c -3.93683,3.69847 -5.767622,3.37947 -8.41737,-1.46664 z M 78,67.048704 c -2.2,-0.339899 -4.6,-1.082173 -5.333333,-1.6495 -0.733334,-0.567327 -2.943343,-1.415629 -4.911134,-1.885117 -1.989834,-0.474748 -3.974432,-2.103294 -4.47144,-3.669228 C 62.524817,57.452591 61.669251,57.14628 57.593848,57.807627 51.226824,58.840852 41.971947,54.235301 37.822788,47.968853 30.715059,37.234095 31.238163,19.997642 38.937819,11.228217 l 4.005093,-4.5615502 h 14.594757 c 20.278274,0 23.887888,2.1121691 28.930718,16.9288342 2.674028,7.856737 2.708678,8.609154 0.706136,15.333333 -1.158235,3.889142 -2.598844,8.34519 -3.201355,9.90233 -1.905987,4.925856 2.764324,6.180963 16.706942,4.489851 C 121.42711,50.804592 122,50.84075 122,54.666668 c 0,2.743376 -1.53235,4.143484 -8.65794,7.91078 -7.69868,4.070289 -9.91458,4.605799 -19.999999,4.833349 C 87.103928,67.551544 80.2,67.388603 78,67.048704 Z"
       id="path1292" />
  </g>
</svg>
