<?xml version="1.0" encoding="UTF-8" standalone="no"?>
<!-- Created with Inkscape (http://www.inkscape.org/) -->

<svg
   version="1.1"
   id="svg82"
   width="162.66667"
   height="50.666668"
   viewBox="0 0 162.66667 50.666668"
   sodipodi:docname="0082.svg"
   inkscape:version="1.1.2 (0a00cf5339, 2022-02-04)"
   xmlns:inkscape="http://www.inkscape.org/namespaces/inkscape"
   xmlns:sodipodi="http://sodipodi.sourceforge.net/DTD/sodipodi-0.dtd"
   xmlns="http://www.w3.org/2000/svg"
   xmlns:svg="http://www.w3.org/2000/svg">
  <defs
     id="defs86" />
  <sodipodi:namedview
     id="namedview84"
     pagecolor="#ffffff"
     bordercolor="#666666"
     borderopacity="1.0"
     inkscape:pageshadow="2"
     inkscape:pageopacity="0.0"
     inkscape:pagecheckerboard="0"
     showgrid="false"
     inkscape:zoom="7.8811473"
     inkscape:cx="46.820594"
     inkscape:cy="25.377016"
     inkscape:window-width="2560"
     inkscape:window-height="1299"
     inkscape:window-x="0"
     inkscape:window-y="32"
     inkscape:window-maximized="1"
     inkscape:current-layer="g88" />
  <g
     inkscape:groupmode="layer"
     inkscape:label="Image"
     id="g88">
    <path
       style="fill:#000000;stroke-width:1.33333"
       d="M 62.000001,42.461686 C 53.933334,41.094184 46.133334,39.441424 44.666668,38.788886 34.059675,34.069712 30.993731,33.897293 19.333334,37.36422 11.335002,39.742322 6.6666668,37.543114 6.6666668,31.397073 c 0,-5.454626 2.6548037,-7.595018 12.2841672,-9.903912 3.456292,-0.828738 8.556292,-3.053279 11.333333,-4.943426 11.041303,-7.5150781 16.179482,-9.05178 32.206118,-9.6320523 17.530946,-0.6347383 26.628163,0.8755456 42.843055,7.1126333 14.28165,5.493466 36.25886,13.133089 43.65372,15.174717 4.24322,1.1715 5.85914,2.379402 6.47713,4.841631 2.30323,9.176813 -3.32975,9.341937 -24.13085,0.707365 -3.57883,-1.485576 -4.6801,-1.281268 -10.45904,1.940357 -8.25922,4.604328 -20.20032,7.381246 -30.756039,7.152355 -4.565605,-0.099 -9.459959,0.108293 -10.876346,0.460656 -1.416385,0.352362 -9.175247,-0.478208 -17.241914,-1.845711 z M 100.3641,34.021402 C 106.41769,33.351846 112,31.022447 112,29.165951 c 0,-1.306126 -5.97631,-4.941876 -9.63107,-5.859164 -2.463327,-0.618254 -4.575867,0.30055 -8.794164,3.824838 -3.053601,2.551212 -6.263355,4.875684 -7.132786,5.165495 -3.133613,1.044537 0.466963,3.861346 4.018289,3.143594 1.946853,-0.393476 6.403578,-1.032165 9.903831,-1.419312 z M 52.000001,31.264158 c 0,-1.447165 -6.018031,-11.243821 -6.9132,-11.253888 -3.232663,-0.03635 -7.890082,2.952313 -7.517151,4.823757 0.513827,2.57849 14.430351,8.779661 14.430351,6.430131 z"
       id="path1153" />
  </g>
</svg>
