<?xml version="1.0" encoding="UTF-8" standalone="no"?>
<!-- Created with Inkscape (http://www.inkscape.org/) -->

<svg
   version="1.1"
   id="svg92"
   width="50.666668"
   height="156"
   viewBox="0 0 50.666668 156"
   sodipodi:docname="0083.svg"
   inkscape:version="1.1.2 (0a00cf5339, 2022-02-04)"
   xmlns:inkscape="http://www.inkscape.org/namespaces/inkscape"
   xmlns:sodipodi="http://sodipodi.sourceforge.net/DTD/sodipodi-0.dtd"
   xmlns="http://www.w3.org/2000/svg"
   xmlns:svg="http://www.w3.org/2000/svg">
  <defs
     id="defs96" />
  <sodipodi:namedview
     id="namedview94"
     pagecolor="#ffffff"
     bordercolor="#666666"
     borderopacity="1.0"
     inkscape:pageshadow="2"
     inkscape:pageopacity="0.0"
     inkscape:pagecheckerboard="0"
     showgrid="false"
     inkscape:zoom="5.5961538"
     inkscape:cx="-23.230241"
     inkscape:cy="77.910653"
     inkscape:window-width="2560"
     inkscape:window-height="1299"
     inkscape:window-x="0"
     inkscape:window-y="32"
     inkscape:window-maximized="1"
     inkscape:current-layer="g98" />
  <g
     inkscape:groupmode="layer"
     inkscape:label="Image"
     id="g98">
    <path
       style="fill:#000000;stroke-width:1.33333"
       d="M 10.536947,146.62057 C 8.8945036,145.70141 8.5417021,142.14636 8.5979313,127.08182 l 0.068736,-18.41515 14.6666667,-0.8099 c 8.066667,-0.44544 15.230711,-0.3014 15.920099,0.3201 3.359837,3.02896 3.302775,33.80026 -0.06893,37.17197 -1.671655,1.67165 -26.002868,2.75177 -28.647554,1.27173 z m 0,-97.33333 C 8.8945036,48.368083 8.5417021,44.813031 8.5979313,29.748489 L 8.6666669,11.333333 23.333334,10.523438 c 8.066667,-0.445443 15.230711,-0.301399 15.920099,0.320098 3.359837,3.028963 3.302775,33.800257 -0.06893,37.171964 -1.671655,1.671655 -26.002867,2.751781 -28.647554,1.27174 z"
       id="path1014" />
  </g>
</svg>
