<?xml version="1.0" encoding="UTF-8" standalone="no"?>
<!-- Created with Inkscape (http://www.inkscape.org/) -->

<svg
   version="1.1"
   id="svg102"
   width="160"
   height="144"
   viewBox="0 0 160 144"
   sodipodi:docname="0084.svg"
   inkscape:version="1.1.2 (0a00cf5339, 2022-02-04)"
   xmlns:inkscape="http://www.inkscape.org/namespaces/inkscape"
   xmlns:sodipodi="http://sodipodi.sourceforge.net/DTD/sodipodi-0.dtd"
   xmlns="http://www.w3.org/2000/svg"
   xmlns:svg="http://www.w3.org/2000/svg">
  <defs
     id="defs106" />
  <sodipodi:namedview
     id="namedview104"
     pagecolor="#ffffff"
     bordercolor="#666666"
     borderopacity="1.0"
     inkscape:pageshadow="2"
     inkscape:pageopacity="0.0"
     inkscape:pagecheckerboard="0"
     showgrid="false"
     inkscape:zoom="6.0625"
     inkscape:cx="35.134021"
     inkscape:cy="71.917526"
     inkscape:window-width="2560"
     inkscape:window-height="1299"
     inkscape:window-x="0"
     inkscape:window-y="32"
     inkscape:window-maximized="1"
     inkscape:current-layer="g108" />
  <g
     inkscape:groupmode="layer"
     inkscape:label="Image"
     id="g108">
    <path
       style="fill:#000000;stroke-width:1.33333"
       d="M 68.666667,136.68131 C 42.686905,134.75655 29.584645,132.91123 21.403747,130.02484 18.247287,128.91118 14.583023,128 13.260936,128 8.3690908,128 5.0949871,121.87195 7.7519636,117.68901 8.7538091,116.11178 28.631861,110.09119 44,106.71033 c 5.057031,-1.1125 15.610799,-1.39402 34,-0.90693 46.22177,1.22431 74.08641,6.76425 76.19059,15.14793 0.50644,2.01781 0.11586,3.92007 -1.01772,4.95695 -3.01198,2.755 -19.42379,6.95438 -36.5062,9.34105 -23.343299,3.2614 -23.317409,3.26063 -48.000003,1.43198 z m 42.666663,-11.59678 c 15.27312,-1.69586 19.42037,-3.07321 13.31449,-4.42191 -2.18963,-0.48366 -5.48115,-1.38604 -7.31449,-2.00529 -1.83333,-0.61925 -13.83333,-1.4705 -26.666663,-1.89166 -21.220802,-0.69643 -35.402723,0.0929 -52,2.89425 l -6,1.0127 L 38,122.3872 c 11.852224,3.8103 50.505441,5.23204 73.33333,2.69733 z M 62.666667,72.807631 C 54.044489,68.167577 49.94096,63.184736 46.657612,53.368128 44.102941,45.730132 43.943304,43.858016 45.271152,37.108696 47.8291,24.106895 54.805301,14.030308 63.333333,11.019265 80.097953,5.1000816 81.938381,4.9168245 92.174653,8.1474448 103.50373,11.722961 106.35166,14.011891 112.63053,24.588229 c 5.32315,8.966495 6.01406,15.661642 2.73237,26.47749 -4.93714,16.27186 -15.375329,23.629622 -34.696233,24.456973 -10.717675,0.458947 -12.641163,0.168815 -18,-2.715061 z m 18.00478,-6.148699 C 81.364855,65.536973 70.988768,52.938051 59.060607,40.418468 54.076311,35.187043 50.178549,36.771899 53.368737,42.73282 55.0327,45.841963 77.33398,68 78.799259,68 c 0.573849,0 1.416334,-0.60348 1.872188,-1.341068 z M 96,63.687904 C 96,62.939835 90.43656,56.854027 83.636799,50.163888 76.837037,43.473749 68.752616,35.005851 65.671417,31.346333 60.37252,25.052875 59.945044,24.816861 57.775152,26.986752 c -2.155479,2.155479 -2.158873,2.577628 -0.05619,6.987 1.230839,2.581103 3.083406,4.692915 4.116812,4.692915 1.033406,0 2.226274,0.90519 2.650818,2.011536 0.424544,1.106344 2.288737,2.702653 4.142652,3.547353 C 70.483161,45.070255 72,46.324339 72,47.012407 c 0,1.296086 4.559924,5.915274 14.356019,14.5426 C 91.630029,66.199777 96,67.166255 96,63.687904 Z m 6.44003,-8.898855 c 0.59999,-4.093445 -30.76335,-36.122382 -35.371721,-36.122382 -4.420766,0 -3.857174,1.635394 3.304598,9.589078 3.505098,3.892674 8.455098,9.460066 11,12.371983 9.094456,10.406023 17.484445,18.197708 19.042793,17.684823 0.87137,-0.286784 1.78231,-1.87236 2.02433,-3.523502 z m 6.8933,-9.335985 C 109.33333,43.383589 99.457107,31.731855 90.301699,23 81.773337,14.866183 76,12.346615 76,16.758532 c 0,3.402433 26.85094,29.855376 30.33333,29.883719 1.65,0.01343 3,-0.521706 3,-1.189187 z m -4,-19.033796 c 0,-2.487379 -5.549398,-7.752601 -8.171029,-7.752601 -2.165844,0 -2.116485,0.402213 0.565752,4.610232 2.827947,4.436616 7.605277,6.410526 7.605277,3.142369 z"
       id="path875" />
  </g>
</svg>
