<?xml version="1.0" encoding="UTF-8" standalone="no"?>
<!-- Created with Inkscape (http://www.inkscape.org/) -->

<svg
   version="1.1"
   id="svg112"
   width="164"
   height="154.66667"
   viewBox="0 0 164 154.66667"
   sodipodi:docname="0085.svg"
   inkscape:version="1.1.2 (0a00cf5339, 2022-02-04)"
   xmlns:inkscape="http://www.inkscape.org/namespaces/inkscape"
   xmlns:sodipodi="http://sodipodi.sourceforge.net/DTD/sodipodi-0.dtd"
   xmlns="http://www.w3.org/2000/svg"
   xmlns:svg="http://www.w3.org/2000/svg">
  <defs
     id="defs116" />
  <sodipodi:namedview
     id="namedview114"
     pagecolor="#ffffff"
     bordercolor="#666666"
     borderopacity="1.0"
     inkscape:pageshadow="2"
     inkscape:pageopacity="0.0"
     inkscape:pagecheckerboard="0"
     showgrid="false"
     inkscape:zoom="5.6443964"
     inkscape:cx="33.838871"
     inkscape:cy="77.244752"
     inkscape:window-width="2560"
     inkscape:window-height="1299"
     inkscape:window-x="0"
     inkscape:window-y="32"
     inkscape:window-maximized="1"
     inkscape:current-layer="g118" />
  <g
     inkscape:groupmode="layer"
     inkscape:label="Image"
     id="g118">
    <path
       style="fill:#000000;stroke-width:1.33333"
       d="m 76.208271,144.20827 c -2.107228,-2.10723 -2.400347,-4.24989 -2.052016,-15 0.22351,-6.89788 0.429788,-14.14874 0.458397,-16.11303 0.06749,-4.634 3.284896,-7.7619 7.983993,-7.7619 6.20523,0 7.010575,2.38455 7.214423,21.36125 0.152128,14.16185 -0.185444,17.63735 -1.813068,18.66656 -3.259335,2.06101 -9.154171,1.48468 -11.791729,-1.15288 z M 11,144.4503 c -2.0998561,-0.84731 -2.350698,-34.01415 -0.286422,-37.87129 1.610336,-3.00894 10.779406,-3.6555 12.938181,-0.91234 1.555496,1.97657 1.497784,35.58165 -0.06525,38 -1.04876,1.62265 -9.242874,2.13281 -12.586498,0.78363 z m 126.35744,-0.40719 c -1.57351,-0.99493 -1.99496,-4.81387 -2.06949,-18.75223 -0.0552,-10.32133 0.482,-18.27261 1.30922,-19.37891 2.16976,-2.9017 8.99299,-3.71447 12.06702,-1.43739 2.43109,1.80083 2.65901,3.48811 2.60516,19.28531 -0.0421,12.34701 -0.56619,17.92291 -1.82744,19.44263 -1.93598,2.3327 -8.95282,2.82079 -12.08447,0.84059 z m 6.24092,-59.043108 c -1.7622,-2.383334 -3.57391,-5.383334 -4.026,-6.666667 -1.11587,-3.167508 -3.32404,-2.932128 -6.25421,0.666667 l -2.44262,3 -3.84406,-3.666667 c -4.61257,-4.399719 -4.79259,-4.415999 -9.5922,-0.867496 -4.00909,2.964052 -7.02134,2.387491 -10.70298,-2.048611 -1.52016,-1.831688 -2.1509,-1.691593 -5.65361,1.255748 -4.164805,3.504451 -7.901568,2.994798 -9.550635,-1.302601 -0.995801,-2.595016 -6.044097,-2.658059 -7.0304,-0.0878 -1.50425,3.920015 -5.995534,3.893185 -9.143405,-0.05463 l -2.970693,-3.725605 -2.34712,3.582159 C 67.220591,79.388124 62.064859,79.858227 60,76.000002 c -0.784936,-1.466667 -2.461719,-2.666667 -3.726183,-2.666667 -1.264464,0 -3.048438,1.2 -3.964386,2.666667 -2.167959,3.471453 -7.784899,3.471453 -9.642764,0 -1.825318,-3.410636 -3.74732,-3.368886 -7.506915,0.16307 -3.313923,3.11327 -9.826419,2.641066 -9.826419,-0.712488 0,-1.00757 -0.913588,-2.182522 -2.030196,-2.611005 -1.477624,-0.567017 -2.888714,1.162208 -5.184473,6.353327 -3.839252,8.681228 -5.254774,9.679832 -9.6442824,6.803715 C 5.3528505,83.951315 5.1443812,83.240382 5.9970723,77.54836 6.509144,74.130096 7.508366,70.973772 8.2175655,70.534307 8.9267648,70.094842 11.45112,65.929136 13.827244,61.277183 c 3.279683,-6.420932 5.212364,-8.696691 8.024292,-9.448717 3.192375,-0.853773 4.011049,-0.451034 5.926265,2.915361 2.396256,4.211924 4.203226,4.740397 8.445494,2.470004 2.245538,-1.201776 3.337448,-0.85616 6.318637,2 4.334351,4.152572 5.639247,4.269262 8.791401,0.78617 2.681624,-2.963161 8.599751,-3.533582 11.066667,-1.066666 1.244444,1.244444 1.955556,1.244444 3.2,0 2.332433,-2.332434 6.513828,-1.946848 11.007081,1.015013 3.906159,2.57486 3.977075,2.574784 8.157379,-0.0088 5.2707,-3.257472 5.118819,-3.268403 9.037664,0.650443 3.197497,3.197498 3.298697,3.210229 5.569784,0.700705 3.778842,-4.175579 7.160472,-4.548368 10.741522,-1.184143 l 3.2199,3.024952 3.08594,-2.899085 c 3.78658,-3.557307 4.30584,-3.571063 8.55751,-0.226697 l 3.39739,2.672388 4.2962,-4.969966 c 3.8263,-4.426373 4.64438,-4.810771 7.47958,-3.514484 3.55685,1.626235 10.42698,14.619027 13.21525,24.992702 1.60704,5.978959 1.54667,6.670115 -0.72792,8.333334 -3.73872,2.733825 -5.52211,2.236689 -9.03892,-2.519695 z M 67.119159,29.666667 64.384315,26.000001 42.079605,25.57547 c -13.00044,-0.24744 -23.942006,0.146233 -26.229726,0.943737 -4.986194,1.738196 -7.6588218,0.706268 -8.6769445,-3.350256 -1.6403294,-6.535593 0.5613482,-7.163989 25.3236585,-7.227795 24.020582,-0.06189 34.824692,-1.726513 37.053355,-5.708913 1.663245,-2.9720562 8.597892,-2.922557 10.27448,0.07334 1.222911,2.18522 1.423267,2.18522 3.837908,0 3.816823,-3.4541768 7.908075,-2.8950432 9.959233,1.361085 l 1.76708,3.666667 17.305671,-0.666667 c 31.22815,-1.203003 39.51824,-0.907864 41.01801,1.460297 0.74086,1.169831 0.94723,3.719831 0.4586,5.666667 l -0.8884,3.539703 h -29.9746 c -25.089095,0 -29.974597,0.310453 -29.974597,1.904761 0,2.68804 -3.729634,6.095239 -6.672054,6.095239 -1.385152,0 -2.892584,-1.294965 -3.411822,-2.930939 l -0.930244,-2.930938 -2.37333,2.930938 c -3.41878,4.222015 -9.38412,3.87985 -12.826724,-0.735728 z"
       id="path736" />
  </g>
</svg>
