<?xml version="1.0" encoding="UTF-8" standalone="no"?>
<!-- Created with Inkscape (http://www.inkscape.org/) -->

<svg
   version="1.1"
   id="svg122"
   width="166.66667"
   height="157.33333"
   viewBox="0 0 166.66667 157.33333"
   sodipodi:docname="0086.svg"
   inkscape:version="1.1.2 (0a00cf5339, 2022-02-04)"
   xmlns:inkscape="http://www.inkscape.org/namespaces/inkscape"
   xmlns:sodipodi="http://sodipodi.sourceforge.net/DTD/sodipodi-0.dtd"
   xmlns="http://www.w3.org/2000/svg"
   xmlns:svg="http://www.w3.org/2000/svg">
  <defs
     id="defs126" />
  <sodipodi:namedview
     id="namedview124"
     pagecolor="#ffffff"
     bordercolor="#666666"
     borderopacity="1.0"
     inkscape:pageshadow="2"
     inkscape:pageopacity="0.0"
     inkscape:pagecheckerboard="0"
     showgrid="false"
     inkscape:zoom="5.548729"
     inkscape:cx="34.422297"
     inkscape:cy="78.576553"
     inkscape:window-width="2560"
     inkscape:window-height="1299"
     inkscape:window-x="0"
     inkscape:window-y="32"
     inkscape:window-maximized="1"
     inkscape:current-layer="g128" />
  <g
     inkscape:groupmode="layer"
     inkscape:label="Image"
     id="g128">
    <path
       style="fill:#000000;stroke-width:1.33333"
       d="M 9.262461,147.92913 C 6.8690524,145.53572 6.6730923,143.36772 6.7308609,119.92082 6.7967103,93.194135 7.4956605,88.762953 11.864235,87.376422 c 6.203524,-1.968922 44.266086,-1.031968 47.155577,1.160789 2.115701,1.60555 2.358063,4.639903 2.401904,30.071689 0.03064,17.7775 -0.468747,28.90951 -1.344232,29.9644 -1.0145,1.2224 -7.754795,1.71535 -24.806899,1.81424 -21.520934,0.1248 -23.623647,-0.074 -26.008124,-2.45841 z m 79.070874,-5.55645 c -2.508191,-1.20967 -3,-2.52163 -3,-8.00287 0,-9.89223 9.076555,-22.46093 19.458295,-26.94473 10.33884,-4.46529 28.25645,-3.76975 38.54171,1.49613 6.6377,3.39839 13.17492,14.23124 15.23166,25.24045 1.85207,9.91362 2.07378,9.85186 -34.99357,9.7481 -20.2589,-0.0567 -33.35285,-0.62787 -35.238095,-1.53708 z M 10.666667,73.333332 C 9.2000002,71.866665 8.0045327,69.016665 8.0100724,66.999999 8.030099,59.709575 10.832209,46.235942 13.358035,41.284912 18.812147,30.593971 31.912587,21.703776 44.471293,20.170894 c 6.41148,-0.782566 6.891675,-1.100201 7.313355,-4.837561 0.248222,-2.2 1.019358,-4.686944 1.713634,-5.5265425 1.234538,-1.4929452 54.884078,-2.3642644 60.028528,-0.9749202 1.24687,0.3367392 2.56673,2.5820397 3.0584,5.2028457 0.68215,3.636142 1.62746,4.763752 4.47319,5.335833 18.21855,3.662491 28.45654,10.57255 35.12671,23.708538 3.39123,6.678548 3.87905,8.974875 3.54068,16.666666 l -0.39245,8.920912 -5.64956,0.409162 c -8.58554,0.621796 -10.01592,-0.815856 -11.89135,-11.951832 -1.84916,-10.979928 -3.34591,-12.767577 -16.08775,-19.214358 -5.06756,-2.563954 -7.59785,-3.216462 -8.59727,-2.21705 -0.81993,0.819938 -1.36254,6.737329 -1.28872,14.054224 0.0862,8.544305 -0.40366,13.057404 -1.51226,13.932777 -0.90187,0.712127 -13.70306,1.691924 -28.4471,2.177325 -33.615774,1.106694 -32.329626,1.753838 -32.839386,-16.523581 -0.351567,-12.605385 -0.370358,-12.668643 -3.88401,-13.075446 -4.803001,-0.556079 -12.357417,3.729133 -17.104355,9.702376 -4.14869,5.220449 -4.62416,6.367298 -5.989358,14.446565 -0.592446,3.506102 -2.53171,6.698457 -6.277202,10.333333 -2.980947,2.892912 -5.647555,5.259838 -5.925795,5.259838 -0.27824,0 -1.70589,-1.2 -3.172557,-2.666666 z m 56.98299,-44.333333 c -0.269337,-3.85 -0.489702,-0.7 -0.489702,7 0,7.7 0.220365,10.85 0.489702,7 0.269336,-3.85 0.269336,-10.15 0,-14 z m 11.557447,8.266536 c -0.09347,-8.016465 -0.7212,-12.603808 -1.870137,-13.666666 -1.381933,-1.278397 -1.556052,-1.109105 -0.866537,0.842513 0.474598,1.343312 0.862905,7.493312 0.862905,13.666667 0,6.173355 0.453255,11.224283 1.007233,11.224283 0.553978,0 0.943919,-5.430058 0.866536,-12.066797 z m 11.34496,-1.599869 c -0.08868,-10.575119 -0.397038,-12.761824 -1.363152,-9.666667 -1.116945,3.578379 -0.297617,23.333333 0.96774,23.333333 0.280508,0 0.458444,-6.15 0.395412,-13.666666 z M 102.66667,35.11111 c 0,-7.822221 -0.35703,-13.865197 -0.79339,-13.428834 -1.18536,1.185366 -1.06408,27.651056 0.12672,27.651056 0.36667,0 0.66667,-6.4 0.66667,-14.222222 z"
       id="path597" />
  </g>
</svg>
