<?xml version="1.0" encoding="UTF-8" standalone="no"?>
<!-- Created with Inkscape (http://www.inkscape.org/) -->

<svg
   version="1.1"
   id="svg132"
   width="160"
   height="152"
   viewBox="0 0 160 152"
   sodipodi:docname="0087.svg"
   inkscape:version="1.1.2 (0a00cf5339, 2022-02-04)"
   xmlns:inkscape="http://www.inkscape.org/namespaces/inkscape"
   xmlns:sodipodi="http://sodipodi.sourceforge.net/DTD/sodipodi-0.dtd"
   xmlns="http://www.w3.org/2000/svg"
   xmlns:svg="http://www.w3.org/2000/svg">
  <defs
     id="defs136" />
  <sodipodi:namedview
     id="namedview134"
     pagecolor="#ffffff"
     bordercolor="#666666"
     borderopacity="1.0"
     inkscape:pageshadow="2"
     inkscape:pageopacity="0.0"
     inkscape:pagecheckerboard="0"
     showgrid="false"
     inkscape:zoom="5.7434211"
     inkscape:cx="32.733104"
     inkscape:cy="75.912944"
     inkscape:window-width="2560"
     inkscape:window-height="1299"
     inkscape:window-x="0"
     inkscape:window-y="32"
     inkscape:window-maximized="1"
     inkscape:current-layer="g138" />
  <g
     inkscape:groupmode="layer"
     inkscape:label="Image"
     id="g138">
    <path
       style="fill:#000000;stroke-width:1.33333"
       d="m 42.933333,145.06667 c -0.88,-0.88 -1.6,-4.82712 -1.6,-8.77138 0,-6.5224 0.463812,-7.64452 5.125343,-12.39999 2.818939,-2.87575 5.558972,-5.22863 6.088963,-5.22863 0.52999,0 2.930221,-1.5 5.333845,-3.33334 2.403624,-1.83333 5.213591,-3.35241 6.244371,-3.37573 1.03078,-0.0233 3.038822,-0.92333 4.462318,-2 5.574142,-4.21607 21.910939,-1.46361 33.050367,5.5684 6.44053,4.06573 12.64185,13.65435 13.79227,21.32595 1.4994,9.99872 2.18668,9.81472 -36.660737,9.81472 -24.850797,0 -34.675377,-0.43864 -35.83674,-1.6 z M 69.838109,94.721181 C 69.444659,94.324532 62.120128,93.657057 53.561373,93.237907 45.002617,92.818755 36.2,91.801191 34,90.976651 31.8,90.152112 26.7,88.783253 22.666667,87.934743 2.4041365,83.672024 -1.8369464,74.80906 14.415448,70.691447 c 23.966829,-6.072098 30.573971,-6.911466 58.944241,-7.488236 28.694871,-0.583371 33.022971,-0.236236 57.973641,4.649756 17.4044,3.408237 20.40418,4.636941 21.44499,8.783854 1.20072,4.784038 -0.94067,6.677344 -9.76149,8.630658 -4.22592,0.935801 -11.2835,2.780864 -15.6835,4.100138 -4.49867,1.348862 -15.00265,2.77853 -24,3.266575 -8.799997,0.477341 -19.775465,1.304455 -24.389926,1.838032 -4.614461,0.533576 -8.711844,0.645607 -9.105295,0.248957 z m 42.166651,-13.7729 c 3.30262,-1.002574 8.40262,-1.595242 11.33334,-1.317038 4.9116,0.466244 5.13431,0.350009 2.84612,-1.485398 -1.36534,-1.095172 -5.56534,-2.297989 -9.33333,-2.672928 C 83.116537,72.116141 75.694468,71.695031 63.459688,72.443623 55.847745,72.909364 48.016279,73.900079 46.056429,74.645212 44.09658,75.390345 39.098624,76 34.949859,76 c -6.745224,0 -7.264984,0.190637 -4.9132,1.80206 2.619482,1.794847 8.286102,2.810692 27.296674,4.893428 13.96688,1.530165 47.394407,0.461879 54.671427,-1.747207 z M 57.333333,39.496369 c -5.5,-0.908334 -14.380038,-3.025846 -19.733418,-4.705582 C 28.276943,31.865509 27.591675,31.826611 21.349384,33.868361 9.5128965,37.73988 4,36.279771 4,29.273317 4,24.629749 7.3727923,21.835807 14.361836,20.689812 17.88078,20.112811 22.720939,17.747213 27.028503,14.499057 30.862827,11.607752 35.5,8.9211329 37.333333,8.5287927 c 1.833334,-0.3923404 4.711566,-1.2718216 6.396071,-1.9544028 4.906337,-1.9881043 32.04764,-1.4615728 39.937263,0.7747686 3.85,1.0912962 10.15,2.8612275 14,3.9331805 3.850003,1.071953 9.850003,3.171953 13.333333,4.666666 15.27539,6.554736 19.57438,8.066512 29,10.198091 11.51925,2.605047 13.33333,3.683472 13.33333,7.926313 0,5.779732 -4.88741,5.576974 -22.10262,-0.916944 l -6.7693,-2.55351 -7.57294,3.467009 c -12.29388,5.628323 -41.963519,8.331692 -59.555137,5.426405 z m 47.885877,-9.639284 c 2.26277,-1.128818 4.11412,-2.574429 4.11412,-3.212469 0,-1.87606 -5.57288,-5.235388 -10.091355,-6.083059 -3.505616,-0.657657 -5.021523,-0.01681 -9.358254,3.956152 -2.846256,2.607514 -6.984469,5.14266 -9.196032,5.63366 -3.618908,0.803451 -3.754348,1.005879 -1.354356,2.024219 3.847486,1.632524 21.055347,0.09128 25.885877,-2.318503 z M 47.401188,24.874145 C 45.530535,22.421592 44,19.721592 44,18.874145 44,16.309847 38.37198,17.14534 35.130131,20.190899 l -3.041739,2.857565 5.622471,3.083317 c 3.092358,1.695824 7.303005,3.10992 9.356992,3.142435 l 3.734522,0.05912 z"
       id="path458" />
  </g>
</svg>
