<?xml version="1.0" encoding="UTF-8" standalone="no"?>
<!-- Created with Inkscape (http://www.inkscape.org/) -->

<svg
   version="1.1"
   id="svg142"
   width="157.33333"
   height="152"
   viewBox="0 0 157.33333 152"
   sodipodi:docname="0088.svg"
   inkscape:version="1.1.2 (0a00cf5339, 2022-02-04)"
   xmlns:inkscape="http://www.inkscape.org/namespaces/inkscape"
   xmlns:sodipodi="http://sodipodi.sourceforge.net/DTD/sodipodi-0.dtd"
   xmlns="http://www.w3.org/2000/svg"
   xmlns:svg="http://www.w3.org/2000/svg">
  <defs
     id="defs146" />
  <sodipodi:namedview
     id="namedview144"
     pagecolor="#ffffff"
     bordercolor="#666666"
     borderopacity="1.0"
     inkscape:pageshadow="2"
     inkscape:pageopacity="0.0"
     inkscape:pagecheckerboard="0"
     showgrid="false"
     inkscape:zoom="5.7434211"
     inkscape:cx="31.340206"
     inkscape:cy="75.912944"
     inkscape:window-width="2560"
     inkscape:window-height="1299"
     inkscape:window-x="0"
     inkscape:window-y="32"
     inkscape:window-maximized="1"
     inkscape:current-layer="g148" />
  <g
     inkscape:groupmode="layer"
     inkscape:label="Image"
     id="g148">
    <path
       style="fill:#000000;stroke-width:1.33333"
       d="M 64.666665,145.29129 C 44.165215,144.46531 36.010366,143.30996 18.819278,138.79579 7.4525114,135.81101 4.6259876,133.66647 5.8149795,128.92915 7.9752044,120.32213 41.871799,113.95203 79.25683,115.12742 c 33.81185,1.06305 38.78701,1.59634 53.96134,5.78422 11.26112,3.10789 14.41049,4.53844 16.66667,7.57053 l 2.78182,3.73853 -3.1477,2.55631 c -1.73126,1.40598 -4.84584,2.55632 -6.92132,2.55632 -2.07548,0 -4.10524,0.53663 -4.5106,1.1925 -0.40535,0.65586 -2.99075,1.51234 -5.74535,1.90329 -2.7546,0.39095 -9.20836,1.58281 -14.34169,2.6486 -12.16705,2.52612 -28.62313,3.20912 -53.333335,2.21357 z m 48.061105,-11.09128 c 20.73929,-2.93373 19.03429,-4.23803 -11.56413,-8.84637 -14.537215,-2.1894 -45.611223,-1.12867 -60.949441,2.08055 -12.550113,2.62587 -12.157476,3.57856 2.396479,5.81481 5.469206,0.84035 10.219206,1.80311 10.555554,2.13945 1.344906,1.34491 48.271928,0.40856 59.561538,-1.18844 z M 70.799297,46.159812 C 69.534532,44.635863 69.104736,39.198567 69.234419,26.362744 69.434216,6.5871881 70.344265,4.4663819 77.999998,5.9351707 c 5.448718,1.0453622 7.754559,4.3842673 6.490354,9.3981623 -1.288523,5.110344 -1.414872,15.929876 -0.259467,22.218598 1.134737,6.17622 -0.8028,8.942458 -6.963777,9.942248 -3.389706,0.550073 -5.216682,0.173152 -6.467811,-1.334367 z M 6.9999999,45.783625 C 4.9001438,44.936316 4.6493019,11.76948 6.7135783,7.9123447 8.3239137,4.9034053 17.492984,4.256842 19.651758,7 c 1.555496,1.976572 1.497784,35.581649 -0.06525,38 -1.04876,1.622648 -9.242874,2.132808 -12.5864985,0.783625 z m 126.6666601,0 C 131.56681,44.936316 131.31597,11.76948 133.38024,7.9123447 134.99058,4.9034053 144.15965,4.256842 146.31842,7 c 1.5555,1.976572 1.49779,35.581649 -0.0653,38 -1.04876,1.622648 -9.24287,2.132808 -12.58649,0.783625 z"
       id="path319" />
  </g>
</svg>
