<?xml version="1.0" encoding="UTF-8" standalone="no"?>
<!-- Created with Inkscape (http://www.inkscape.org/) -->

<svg
   version="1.1"
   id="svg152"
   width="46.666668"
   height="157.33333"
   viewBox="0 0 46.666668 157.33333"
   sodipodi:docname="0089.svg"
   inkscape:version="1.1.2 (0a00cf5339, 2022-02-04)"
   xmlns:inkscape="http://www.inkscape.org/namespaces/inkscape"
   xmlns:sodipodi="http://sodipodi.sourceforge.net/DTD/sodipodi-0.dtd"
   xmlns="http://www.w3.org/2000/svg"
   xmlns:svg="http://www.w3.org/2000/svg">
  <defs
     id="defs156" />
  <sodipodi:namedview
     id="namedview154"
     pagecolor="#ffffff"
     bordercolor="#666666"
     borderopacity="1.0"
     inkscape:pageshadow="2"
     inkscape:pageopacity="0.0"
     inkscape:pagecheckerboard="0"
     showgrid="false"
     inkscape:zoom="5.548729"
     inkscape:cx="23.248567"
     inkscape:cy="78.576553"
     inkscape:window-width="2560"
     inkscape:window-height="1299"
     inkscape:window-x="0"
     inkscape:window-y="32"
     inkscape:window-maximized="1"
     inkscape:current-layer="g158" />
  <g
     inkscape:groupmode="layer"
     inkscape:label="Image"
     id="g158">
    <path
       style="fill:#000000;stroke-width:1.33333"
       d="M 30.458984,153.29685 C 25.716566,150.52849 13.414524,129.81238 11.374918,121.16011 8.6678233,109.67628 8.7940823,107.64141 12.729945,99.321682 L 16.126558,92.141835 13.390302,86.77833 C 9.1619471,78.490072 9.041074,62.614121 13.142901,54.283839 l 3.142901,-6.382825 -2.809567,-6.531016 C 9.7578484,32.726377 9.6898707,20.657901 13.333334,16 c 1.434054,-1.833334 2.620712,-4.998184 2.637018,-7.0330013 0.02168,-2.7047738 0.92603,-4.0404713 3.362982,-4.9669988 4.112821,-1.5636918 9.765043,0.3415748 10.81828,3.6466559 0.41247,1.2943392 1.897095,4.5350362 3.299166,7.2015502 4.118541,7.832798 3.470621,18.280935 -1.649702,26.602518 l -4.198923,6.824119 3.062149,6.195912 c 5.887824,11.913349 5.796302,22.740694 -0.261482,30.934287 l -2.876361,3.890485 3.151736,6.729086 c 3.847244,8.214027 4.267389,21.889457 0.823559,26.806217 -3.721317,5.31292 -2.782678,12.18165 2.534344,18.5457 4.708001,5.63512 5.200434,9.79956 1.45086,12.26972 -1.894174,1.24784 -2.345499,1.21648 -5.027976,-0.3494 z m -6.694551,-40.85303 c -0.648735,-3.34503 -3.764432,-3.80433 -3.764432,-0.55493 0,1.63778 0.860918,2.77777 2.097765,2.77777 1.241652,0 1.921831,-0.90716 1.666667,-2.22284 z m 0.235568,-41.855844 c 0,-1.423388 -0.9,-2.587977 -2,-2.587977 -1.977663,0 -2.795639,4.09325 -1.14736,5.741529 1.390118,1.390117 3.14736,-0.370582 3.14736,-3.153552 z m 2.666666,-44.608585 c 0,-0.931748 -0.922712,-2.048166 -2.050472,-2.480927 -2.378568,-0.912743 -3.958613,2.150709 -2.743069,5.318367 0.668208,1.74132 1.202388,1.837042 2.809319,0.503407 1.091322,-0.905716 1.984222,-2.409097 1.984222,-3.340847 z"
       id="path180" />
  </g>
</svg>
