<?xml version="1.0" encoding="UTF-8" standalone="no"?>
<!-- Created with Inkscape (http://www.inkscape.org/) -->

<svg
   version="1.1"
   id="svg2"
   width="54.666668"
   height="162.66667"
   viewBox="0 0 54.666668 162.66667"
   sodipodi:docname="0090.svg"
   inkscape:version="1.1.2 (0a00cf5339, 2022-02-04)"
   xmlns:inkscape="http://www.inkscape.org/namespaces/inkscape"
   xmlns:sodipodi="http://sodipodi.sourceforge.net/DTD/sodipodi-0.dtd"
   xmlns="http://www.w3.org/2000/svg"
   xmlns:svg="http://www.w3.org/2000/svg">
  <defs
     id="defs6" />
  <sodipodi:namedview
     id="namedview4"
     pagecolor="#ffffff"
     bordercolor="#666666"
     borderopacity="1.0"
     inkscape:pageshadow="2"
     inkscape:pageopacity="0.0"
     inkscape:pagecheckerboard="0"
     showgrid="false"
     inkscape:zoom="5.3668031"
     inkscape:cx="-23.291333"
     inkscape:cy="81.240171"
     inkscape:window-width="2560"
     inkscape:window-height="1299"
     inkscape:window-x="0"
     inkscape:window-y="32"
     inkscape:window-maximized="1"
     inkscape:current-layer="g8" />
  <g
     inkscape:groupmode="layer"
     inkscape:label="Image"
     id="g8">
    <path
       style="fill:#000000;stroke-width:1.33333"
       d="m 30.017302,155.00495 c -2.923817,-0.29532 -5.789421,-1.24224 -6.368008,-2.10428 -0.578587,-0.86203 -0.659813,-10.0338 -0.180503,-20.38171 0.493303,-10.64997 0.345294,-19.75462 -0.341077,-20.98109 -1.076735,-1.92402 -1.764235,-1.77418 -6.137898,1.33772 -4.077036,2.90086 -5.275363,3.21395 -6.95758,1.81783 -3.2230909,-2.67493 -2.3958539,-5.73656 2.63447,-9.75026 4.387368,-3.50069 6.221861,-7.609825 3.397349,-7.609825 -2.333956,0 -9.3973882,-11.764639 -9.3973882,-15.652005 0,-2.111012 2.0660619,-7.26924 4.5912482,-11.462727 l 4.591249,-7.624524 -4.653659,-4.234735 c -8.2772219,-7.532104 -4.0000095,-15.56324 4.485841,-8.422868 2.220316,1.868272 4.700324,3.396858 5.511129,3.396858 1.73741,0 1.879736,-24.556344 0.208652,-36 -0.664542,-4.550811 -0.565662,-7.9657253 0.260598,-9.0000005 1.771668,-2.2176974 18.461892,-2.2176974 21.279291,0 1.843573,1.4511579 2.260348,9.0801695 3.223178,59.0000015 1.444984,74.917975 1.427027,84.298825 -0.164193,85.773885 -1.781441,1.65141 -9.430004,2.55957 -15.982699,1.89773 z"
       id="path1520" />
  </g>
</svg>
