<?xml version="1.0" encoding="UTF-8" standalone="no"?>
<!-- Created with Inkscape (http://www.inkscape.org/) -->

<svg
   version="1.1"
   id="svg12"
   width="88"
   height="90.666664"
   viewBox="0 0 88 90.666664"
   sodipodi:docname="0091.svg"
   inkscape:version="1.1.2 (0a00cf5339, 2022-02-04)"
   xmlns:inkscape="http://www.inkscape.org/namespaces/inkscape"
   xmlns:sodipodi="http://sodipodi.sourceforge.net/DTD/sodipodi-0.dtd"
   xmlns="http://www.w3.org/2000/svg"
   xmlns:svg="http://www.w3.org/2000/svg">
  <defs
     id="defs16" />
  <sodipodi:namedview
     id="namedview14"
     pagecolor="#ffffff"
     bordercolor="#666666"
     borderopacity="1.0"
     inkscape:pageshadow="2"
     inkscape:pageopacity="0.0"
     inkscape:pagecheckerboard="0"
     showgrid="false"
     inkscape:zoom="9.6286767"
     inkscape:cx="15.786177"
     inkscape:cy="45.281404"
     inkscape:window-width="2560"
     inkscape:window-height="1299"
     inkscape:window-x="0"
     inkscape:window-y="32"
     inkscape:window-maximized="1"
     inkscape:current-layer="g18" />
  <g
     inkscape:groupmode="layer"
     inkscape:label="Image"
     id="g18">
    <path
       style="fill:#000000;stroke-width:1.33333"
       d="M 42.991539,81.36545 C 39.870217,79.948659 35.313583,77.261835 32.865684,75.394732 28.285289,71.901095 23.451893,70.984119 22,73.333331 c -1.234891,1.998096 -6.349489,1.606847 -9.703325,-0.742272 -4.1824765,-2.92952 -3.9993978,-9.819566 0.369992,-13.924394 3.98751,-3.746072 4.05472,-4.628497 0.86952,-11.416228 C 8.7568687,37.065612 7.4475447,29.769386 9.2923321,23.601502 12.167621,13.988226 14.980271,11.24745 23.916468,9.3510597 33.738255,7.2667347 38.303131,8.0493147 48.921632,13.637824 l 8.254967,4.344581 3.817992,-3.657869 c 4.326854,-4.14539 7.742032,-4.5941263 12.042068,-1.582264 3.750345,2.626844 3.882469,8.396289 0.296674,12.954889 -1.466666,1.864564 -2.666666,3.778401 -2.666666,4.25297 0,0.474569 2.4,4.397009 5.333333,8.716535 5.110377,7.525363 5.333333,8.294409 5.333333,18.396328 0,12.821011 -2.690569,17.740858 -12.709064,23.239192 -8.089369,4.439594 -17.348233,4.823658 -25.63273,1.063264 z"
       id="path1381" />
  </g>
</svg>
