<?xml version="1.0" encoding="UTF-8" standalone="no"?>
<!-- Created with Inkscape (http://www.inkscape.org/) -->

<svg
   version="1.1"
   id="svg22"
   width="137.33333"
   height="157.33333"
   viewBox="0 0 137.33333 157.33333"
   sodipodi:docname="0092.svg"
   inkscape:version="1.1.2 (0a00cf5339, 2022-02-04)"
   xmlns:inkscape="http://www.inkscape.org/namespaces/inkscape"
   xmlns:sodipodi="http://sodipodi.sourceforge.net/DTD/sodipodi-0.dtd"
   xmlns="http://www.w3.org/2000/svg"
   xmlns:svg="http://www.w3.org/2000/svg">
  <defs
     id="defs26" />
  <sodipodi:namedview
     id="namedview24"
     pagecolor="#ffffff"
     bordercolor="#666666"
     borderopacity="1.0"
     inkscape:pageshadow="2"
     inkscape:pageopacity="0.0"
     inkscape:pagecheckerboard="0"
     showgrid="false"
     inkscape:zoom="5.548729"
     inkscape:cx="19.82436"
     inkscape:cy="78.576553"
     inkscape:window-width="2560"
     inkscape:window-height="1299"
     inkscape:window-x="0"
     inkscape:window-y="32"
     inkscape:window-maximized="1"
     inkscape:current-layer="g28" />
  <g
     inkscape:groupmode="layer"
     inkscape:label="Image"
     id="g28">
    <path
       style="fill:#000000;stroke-width:1.33333"
       d="m 62.333332,152.41045 c -2.747579,-0.71356 -2.598284,0.58892 -2.3378,-20.39567 0.115573,-9.31121 0.821871,-17.39313 1.602176,-18.33334 C 62.36522,112.75665 65.598608,112 68.783013,112 c 4.416777,0 6.126803,0.62964 7.210769,2.65505 1.537237,2.87235 0.606449,34.68556 -1.058592,36.18136 -1.357169,1.21923 -9.872582,2.28284 -12.601858,1.57404 z M 87.999998,73.403774 c -3.853581,-0.608681 -4.739067,-1.364473 -5.0822,-4.337838 -0.228544,-1.9804 0.242029,-4.829396 1.045717,-6.331101 1.348219,-2.519172 2.653326,-2.7229 16.872265,-2.633783 8.47606,0.05312 15.60431,-0.09788 15.84055,-0.335565 0.43234,-0.43497 1.00461,-23.460277 0.77847,-31.321338 l -0.12147,-4.222518 -44.999998,-0.205277 c -24.75,-0.112903 -46.499818,-0.312769 -48.33293,-0.444149 -3.218149,-0.230645 -3.369173,0.128472 -4.385312,10.427794 -1.133406,11.487923 -0.677008,24.04541 0.932794,25.665124 0.547477,0.550849 7.69817,1.301542 15.89043,1.668209 l 14.895018,0.666667 0.411204,4.244746 c 0.582083,6.008676 -2.778021,7.445228 -15.507602,6.629992 C 16.471761,71.608922 9.4926778,68.866907 6.8672769,61.335677 5.249292,56.694323 6.2252866,16.649416 8.0389897,13.26048 9.3265392,10.854672 11.139166,10.65032 33.046911,10.441148 89.566966,9.9014998 125.70465,10.848489 128.9172,12.953433 131.93783,14.932625 132,15.428705 132,37.552893 c 0,24.90336 -0.96738,28.917514 -7.60379,31.552067 -7.21112,2.862704 -29.111707,5.449417 -36.396212,4.298814 z"
       id="path1242" />
  </g>
</svg>
