<?xml version="1.0" encoding="UTF-8" standalone="no"?>
<!-- Created with Inkscape (http://www.inkscape.org/) -->

<svg
   version="1.1"
   id="svg32"
   width="164"
   height="161.33333"
   viewBox="0 0 164 161.33333"
   sodipodi:docname="0093.svg"
   inkscape:version="1.1.2 (0a00cf5339, 2022-02-04)"
   xmlns:inkscape="http://www.inkscape.org/namespaces/inkscape"
   xmlns:sodipodi="http://sodipodi.sourceforge.net/DTD/sodipodi-0.dtd"
   xmlns="http://www.w3.org/2000/svg"
   xmlns:svg="http://www.w3.org/2000/svg">
  <defs
     id="defs36" />
  <sodipodi:namedview
     id="namedview34"
     pagecolor="#ffffff"
     bordercolor="#666666"
     borderopacity="1.0"
     inkscape:pageshadow="2"
     inkscape:pageopacity="0.0"
     inkscape:pagecheckerboard="0"
     showgrid="false"
     inkscape:zoom="5.4111572"
     inkscape:cx="31.786177"
     inkscape:cy="80.574262"
     inkscape:window-width="2560"
     inkscape:window-height="1299"
     inkscape:window-x="0"
     inkscape:window-y="32"
     inkscape:window-maximized="1"
     inkscape:current-layer="g38" />
  <g
     inkscape:groupmode="layer"
     inkscape:label="Image"
     id="g38">
    <path
       style="fill:#000000;stroke-width:1.33333"
       d="m 46.718607,154.41525 c -3.221348,-3.45772 -3.5787,-10.68311 -0.853267,-17.25243 1.414161,-3.40865 1.978537,-14.06361 2.333333,-44.051407 C 48.456069,71.356024 48.16586,53.056024 47.553767,52.444747 46.941671,51.833468 37.782907,51.549526 27.200956,51.81376 13.299037,52.160898 7.4115624,51.838159 5.9805229,50.650502 4.476394,49.402186 4,45.87816 4,35.999999 4,22.173844 4.635652,20.628677 10.666667,19.794424 c 2.765074,-0.382486 3.341042,-1.199419 3.378556,-4.792027 0.05845,-5.5978235 3.334334,-8.9478625 7.682608,-7.8565154 3.290101,0.825763 4.885546,4.0343904 4.920629,9.8959644 0.01,1.673015 0.925848,3.39014 2.035187,3.815834 3.131498,1.201669 5.793746,-1.908664 6.241916,-7.292496 C 35.311127,8.9334377 35.587479,8.6666665 40,8.6666665 c 3.989349,0 4.720843,0.483798 5.03994,3.3333335 0.769024,6.867401 1.733943,9.333333 3.652129,9.333333 1.086028,0 2.038378,-0.75 2.11633,-1.666667 C 50.886345,18.75 51.083721,17.1 51.246999,16 51.410276,14.9 51.646496,12.97111 51.771933,11.713578 52.1136,8.2882969 56.507997,6.4188765 60.579367,7.9668085 63.349365,9.0199602 64,10.152326 64,13.920086 c 0,5.849628 4.362864,9.051274 6.610684,4.851186 C 71.374808,17.343493 72,14.647297 72,12.779724 72,10.299336 72.869995,9.1657838 75.227873,8.573994 81.480168,7.0047679 83.285529,8.2611342 84,14.678592 c 0.53894,4.84082 1.169383,5.988074 3.290579,5.988074 1.912778,0 3.187648,-1.626122 4.70396,-6 1.539536,-4.440868 2.868992,-6.1132146 5.116142,-6.4356847 4.058419,-0.58239 6.884759,1.9804827 6.909739,6.2656117 0.0537,9.212428 6.78517,8.67866 7.97958,-0.632737 0.6495,-5.0633878 0.80397,-5.1971895 6,-5.1971895 h 5.33333 L 124,14.666666 c 0.5402,4.861806 1.16644,6 3.30122,6 1.77441,0 3.02243,-1.305958 3.82254,-4 1.96858,-6.628308 2.99935,-7.9842502 6.34405,-8.3453994 4.8649,-0.5252926 6.89579,1.5496544 7.05463,7.2076294 0.12413,4.420546 0.60956,5.202138 3.47756,5.598861 1.83333,0.2536 4.00104,1.008772 4.81713,1.67816 1.96166,1.609028 3.4808,19.441137 2.08952,24.527415 l -1.09413,4 -22.57293,0.666667 -22.57292,0.666667 -0.0151,36.574177 -0.0151,36.574177 -3.92691,1.60512 c -3.70448,1.51421 -9.80875,0.33263 -10.164458,-1.9675 -0.882495,-5.70647 -0.542061,-40.614856 0.518447,-53.162129 1.00633,-11.906291 0.979522,-16.780759 -0.09821,-17.858499 -2.323974,-2.323974 -30.998977,-3.201642 -32.365462,-0.990624 -0.604051,0.977376 -1.119716,23.921634 -1.145922,50.987242 -0.03395,35.05811 -0.488537,49.74143 -1.58073,51.05745 -2.410794,2.90482 -10.02845,2.28473 -13.154624,-1.07083 z"
       id="path1103" />
  </g>
</svg>
