<?xml version="1.0" encoding="UTF-8" standalone="no"?>
<!-- Created with Inkscape (http://www.inkscape.org/) -->

<svg
   version="1.1"
   id="svg42"
   width="156"
   height="154.66667"
   viewBox="0 0 156 154.66667"
   sodipodi:docname="0094.svg"
   inkscape:version="1.1.2 (0a00cf5339, 2022-02-04)"
   xmlns:inkscape="http://www.inkscape.org/namespaces/inkscape"
   xmlns:sodipodi="http://sodipodi.sourceforge.net/DTD/sodipodi-0.dtd"
   xmlns="http://www.w3.org/2000/svg"
   xmlns:svg="http://www.w3.org/2000/svg">
  <defs
     id="defs46" />
  <sodipodi:namedview
     id="namedview44"
     pagecolor="#ffffff"
     bordercolor="#666666"
     borderopacity="1.0"
     inkscape:pageshadow="2"
     inkscape:pageopacity="0.0"
     inkscape:pagecheckerboard="0"
     showgrid="false"
     inkscape:zoom="5.6443964"
     inkscape:cx="29.9412"
     inkscape:cy="77.244752"
     inkscape:window-width="2560"
     inkscape:window-height="1299"
     inkscape:window-x="0"
     inkscape:window-y="32"
     inkscape:window-maximized="1"
     inkscape:current-layer="g48" />
  <g
     inkscape:groupmode="layer"
     inkscape:label="Image"
     id="g48">
    <path
       style="fill:#000000;stroke-width:1.33333"
       d="m 73.666667,147.11696 c -2.099856,-0.8473 -2.350698,-34.01414 -0.286422,-37.87128 1.610335,-3.00894 10.779406,-3.6555 12.93818,-0.91234 1.555496,1.97657 1.497784,35.58165 -0.06527,38 -1.04876,1.62265 -9.242875,2.13281 -12.586499,0.78362 z M 60,35.865731 c -8.433333,-0.544176 -18.933333,-1.684365 -23.333333,-2.533754 -4.4,-0.849388 -10.7,-1.972346 -14,-2.49546 -3.3,-0.523115 -8.4,-2.125332 -11.333334,-3.560483 C 6.8990077,25.106513 6,24.00103 6,20.717794 c 0,-3.076492 0.8836764,-4.368654 4,-5.849027 2.2,-1.045084 5.8,-2.777012 8,-3.848728 6.718484,-3.2728666 27.902868,-5.0304223 58,-4.8119521 29.06804,0.2110003 40.11429,1.2127014 53.33333,4.8363951 4.03334,1.105645 10.03334,2.440785 13.33334,2.966977 7.46726,1.190672 9.33333,2.654581 9.33333,7.321875 0,5.456429 -1.41917,6.212973 -20,10.661805 -17.08831,4.091475 -45.17634,5.601438 -72,3.870592 z m 46,-10.55506 c 27.8284,-3.093861 28.64804,-3.794705 8.65183,-7.397895 -21.501542,-3.874441 -81.196271,-2.568334 -85.638353,1.873747 -1.879898,1.879899 10.308347,4.351435 24.944127,5.058178 7.319111,0.353429 13.572831,0.907957 13.897157,1.232282 C 68.939092,27.161315 93.856512,26.660741 106,25.310671 Z"
       id="path964" />
  </g>
</svg>
