<?xml version="1.0" encoding="UTF-8" standalone="no"?>
<!-- Created with Inkscape (http://www.inkscape.org/) -->

<svg
   version="1.1"
   id="svg52"
   width="81.333336"
   height="156"
   viewBox="0 0 81.333336 156"
   sodipodi:docname="0095.svg"
   inkscape:version="1.1.2 (0a00cf5339, 2022-02-04)"
   xmlns:inkscape="http://www.inkscape.org/namespaces/inkscape"
   xmlns:sodipodi="http://sodipodi.sourceforge.net/DTD/sodipodi-0.dtd"
   xmlns="http://www.w3.org/2000/svg"
   xmlns:svg="http://www.w3.org/2000/svg">
  <defs
     id="defs56" />
  <sodipodi:namedview
     id="namedview54"
     pagecolor="#ffffff"
     bordercolor="#666666"
     borderopacity="1.0"
     inkscape:pageshadow="2"
     inkscape:pageopacity="0.0"
     inkscape:pagecheckerboard="0"
     showgrid="false"
     inkscape:zoom="5.5961538"
     inkscape:cx="-7.862543"
     inkscape:cy="77.910653"
     inkscape:window-width="2560"
     inkscape:window-height="1299"
     inkscape:window-x="0"
     inkscape:window-y="32"
     inkscape:window-maximized="1"
     inkscape:current-layer="g58" />
  <g
     inkscape:groupmode="layer"
     inkscape:label="Image"
     id="g58">
    <path
       style="fill:#000000;stroke-width:1.33333"
       d="M 7.6666669,150.57699 C 4.9879031,148.99709 4.5761872,143.95715 6.9333336,141.6 7.8330925,140.70024 12.144953,140 16.785622,140 c 11.566128,0 13.904698,-2.1476 15.338607,-14.08606 0.610872,-5.086 2.358435,-17.34727 3.883474,-27.247273 5.817396,-37.764443 5.714666,-36.524995 3.149557,-38 C 25.602766,52.872477 24.615078,28.576865 37.580157,21.872363 L 41.781841,19.699588 38.168123,17.51646 C 35.064314,15.641381 34.60936,14.580779 34.943869,10 l 0.389465,-5.3333333 16.652673,-0.376935 c 14.497837,-0.32816 16.870149,-0.079519 18.333334,1.9215062 2.657747,3.6346853 1.976264,7.4528851 -1.878861,10.5268541 l -3.559525,2.838265 4.410199,3.878488 c 5.639052,4.959187 9.415102,13.176964 8.496225,18.490247 -1.429771,8.267449 -3.341197,12.559351 -6.521403,14.643101 -3.550046,2.326079 -4.273972,7.253639 -1.959862,13.340208 0.718362,1.889435 1.614086,7.478495 1.990499,12.420134 0.376413,4.941638 1.284109,14.084798 2.017103,20.318135 0.732993,6.23333 1.337269,19.30266 1.342834,29.04296 0.0097,17.1451 -0.08551,17.74578 -2.989881,18.84345 -1.65,0.6236 -3.507373,0.8334 -4.127497,0.46621 -1.566406,-0.92748 -49.152038,-0.78317 -53.774209,0.16308 -2.07073,0.42392 -4.8149627,0.1515 -6.0982961,-0.60538 z M 59.666669,139.20843 C 62.056562,138.55159 61.660547,117.63196 58.899202,98.666667 55.997367,78.73648 54.365787,78.605077 50.621411,98 c -3.531387,18.29169 -4.216531,21.52373 -5.390348,25.428 -0.677084,2.25206 -1.231062,7.39812 -1.231062,11.43568 v 7.34101 l 7.000001,-1.2691 c 3.85,-0.698 7.75,-1.47523 8.666667,-1.72716 z"
       id="path825" />
  </g>
</svg>
