<?xml version="1.0" encoding="UTF-8" standalone="no"?>
<!-- Created with Inkscape (http://www.inkscape.org/) -->

<svg
   version="1.1"
   id="svg62"
   width="158.66667"
   height="152"
   viewBox="0 0 158.66667 152"
   sodipodi:docname="0096.svg"
   inkscape:version="1.1.2 (0a00cf5339, 2022-02-04)"
   xmlns:inkscape="http://www.inkscape.org/namespaces/inkscape"
   xmlns:sodipodi="http://sodipodi.sourceforge.net/DTD/sodipodi-0.dtd"
   xmlns="http://www.w3.org/2000/svg"
   xmlns:svg="http://www.w3.org/2000/svg">
  <defs
     id="defs66" />
  <sodipodi:namedview
     id="namedview64"
     pagecolor="#ffffff"
     bordercolor="#666666"
     borderopacity="1.0"
     inkscape:pageshadow="2"
     inkscape:pageopacity="0.0"
     inkscape:pagecheckerboard="0"
     showgrid="false"
     inkscape:zoom="5.7434211"
     inkscape:cx="32.036655"
     inkscape:cy="75.912944"
     inkscape:window-width="2560"
     inkscape:window-height="1299"
     inkscape:window-x="0"
     inkscape:window-y="32"
     inkscape:window-maximized="1"
     inkscape:current-layer="g68" />
  <g
     inkscape:groupmode="layer"
     inkscape:label="Image"
     id="g68">
    <path
       style="fill:#000000;stroke-width:1.33333"
       d="m 67.333335,140.38285 c -7.545539,-0.41002 -20.310163,-2.78281 -26.596619,-4.944 C 29.143683,131.45336 6.6195015,114.62494 6.6878085,110 c 0.063915,-4.32753 2.654659,-5.31472 13.5915875,-5.17897 6.079666,0.0755 23.353938,0.15161 38.387272,0.16922 90.559132,0.1061 85.104152,-0.49337 91.153442,10.01718 8.90407,15.47068 3.87984,30.11498 -8.56361,24.96074 -4.41487,-1.82869 -10.58983,-11.0578 -10.58983,-15.82755 v -2.95843 L 125,124.7041 c -11.42777,7.10253 -24.42727,12.34798 -34.333331,13.85393 -13.714086,2.08482 -15.696022,2.23984 -23.333334,1.82482 z M 142.09303,120.56921 C 140.19122,118.6674 140,118.66926 140,120.58952 c 0,1.16233 0.75,3.32869 1.66667,4.81413 l 1.66667,2.70079 0.42636,-2.7211 c 0.23449,-1.49661 -0.51551,-3.66296 -1.66667,-4.81413 z M 142.26503,81 c -1.7622,-2.383333 -3.57391,-5.383333 -4.026,-6.666667 C 137.12316,71.165825 134.91499,71.401205 131.98482,75 l -2.44263,3 -3.84405,-3.666667 c -4.61257,-4.399718 -4.79259,-4.415998 -9.5922,-0.867496 -4.00909,2.964052 -7.02134,2.387491 -10.70298,-2.04861 -1.52016,-1.831688 -2.1509,-1.691594 -5.653614,1.255748 -4.164803,3.50445 -7.901565,2.994797 -9.550632,-1.302602 -0.995801,-2.595016 -6.044098,-2.658058 -7.0304,-0.0878 -1.504251,3.920015 -5.995535,3.893186 -9.143406,-0.05463 L 71.054215,67.502341 68.707095,71.0845 C 65.887259,75.388123 60.731527,75.858225 58.666668,72 c -0.784936,-1.466667 -2.461719,-2.666667 -3.726183,-2.666667 -1.264464,0 -3.048439,1.2 -3.964387,2.666667 -2.167958,3.471453 -7.784898,3.471453 -9.642764,0 -1.825317,-3.410636 -3.74732,-3.368885 -7.506915,0.163071 -3.313922,3.113269 -9.826418,2.641065 -9.826418,-0.712488 0,-1.007571 -0.913589,-2.182523 -2.030197,-2.611006 -1.477624,-0.567017 -2.888714,1.162208 -5.184473,6.353327 -3.839252,8.681228 -5.254774,9.679832 -9.6442826,6.803715 -3.1215311,-2.045306 -3.3300005,-2.756239 -2.4773094,-8.44826 0.5120718,-3.418264 1.5112938,-6.574588 2.2204933,-7.014054 0.7091993,-0.439465 3.2335547,-4.60517 5.6096787,-9.257124 3.279683,-6.420932 5.212364,-8.69669 8.024292,-9.448716 3.192375,-0.853773 4.01105,-0.451034 5.926266,2.91536 2.396256,4.211924 4.203225,4.740398 8.445493,2.470004 2.245539,-1.201776 3.337448,-0.85616 6.318638,2 4.33435,4.152572 5.639246,4.269263 8.791401,0.786171 2.681624,-2.963161 8.599751,-3.533583 11.066667,-1.066667 1.244444,1.244444 1.955556,1.244444 3.2,0 2.332433,-2.332433 6.513828,-1.946848 11.007082,1.015014 3.906158,2.57486 3.977074,2.574784 8.157378,-0.0088 5.270701,-3.257472 5.118819,-3.268403 9.037665,0.650442 3.197497,3.197499 3.298697,3.21023 5.569784,0.700706 3.778843,-4.175579 7.160473,-4.548368 10.741523,-1.184143 l 3.2199,3.024952 3.08594,-2.899085 c 3.78658,-3.557307 4.30584,-3.571063 8.55751,-0.226698 l 3.39739,2.672388 4.29619,-4.969965 c 3.82631,-4.426373 4.64439,-4.810771 7.47959,-3.514484 3.55685,1.626235 10.42698,14.619027 13.21525,24.992701 1.60704,5.978959 1.54667,6.670115 -0.72792,8.333334 C 147.56523,86.25352 145.78184,85.756384 142.26503,81 Z M 73.541606,42.874937 c -2.107228,-2.107228 -2.400347,-4.249894 -2.052016,-15 C 71.7131,20.977055 71.919378,13.726191 71.947987,11.761905 72.015478,7.127908 75.232883,4 79.93198,4 86.13721,4 86.942555,6.3845547 87.146403,25.361249 87.298531,39.5231 86.960959,42.998593 85.333335,44.027812 82.074,46.088832 76.179164,45.512496 73.541606,42.874937 Z"
       id="path686" />
  </g>
</svg>
