<?xml version="1.0" encoding="UTF-8" standalone="no"?>
<!-- Created with Inkscape (http://www.inkscape.org/) -->

<svg
   version="1.1"
   id="svg72"
   width="52"
   height="161.33333"
   viewBox="0 0 52 161.33333"
   sodipodi:docname="0097.svg"
   inkscape:version="1.1.2 (0a00cf5339, 2022-02-04)"
   xmlns:inkscape="http://www.inkscape.org/namespaces/inkscape"
   xmlns:sodipodi="http://sodipodi.sourceforge.net/DTD/sodipodi-0.dtd"
   xmlns="http://www.w3.org/2000/svg"
   xmlns:svg="http://www.w3.org/2000/svg">
  <defs
     id="defs76" />
  <sodipodi:namedview
     id="namedview74"
     pagecolor="#ffffff"
     bordercolor="#666666"
     borderopacity="1.0"
     inkscape:pageshadow="2"
     inkscape:pageopacity="0.0"
     inkscape:pagecheckerboard="0"
     showgrid="false"
     inkscape:zoom="5.4111572"
     inkscape:cx="-24.209239"
     inkscape:cy="80.574262"
     inkscape:window-width="2560"
     inkscape:window-height="1299"
     inkscape:window-x="0"
     inkscape:window-y="32"
     inkscape:window-maximized="1"
     inkscape:current-layer="g78" />
  <g
     inkscape:groupmode="layer"
     inkscape:label="Image"
     id="g78">
    <path
       style="fill:#000000;stroke-width:1.33333"
       d="m 12.225907,153.90558 c -4.0405531,-1.69892 -6.1723837,-5.16814 -4.6698018,-7.59937 0.4939496,-0.79923 2.9188238,-3.22737 5.3886108,-5.39587 7.590065,-6.66417 7.890529,-8.34176 2.465656,-13.76664 -2.609038,-2.60903 -4.743705,-5.81372 -4.743705,-7.12153 0,-3.40548 4.666598,-4.17487 7.772341,-1.28143 2.545959,2.37192 2.642365,2.36676 3.307595,-0.17708 1.148244,-4.3909 -0.612822,-65.790486 -1.93375,-67.420212 -0.67903,-0.837769 -3.046332,-2.273661 -5.26067,-3.190869 C 6.3756328,44.56574 1.7318172,27.657181 5.9469309,16.620064 9.0667021,8.4510593 12.962633,6.6891733 30.045519,5.7217797 43.762545,4.9449927 48,5.8721464 48,9.6502145 c 0,0.7280325 -3.6,4.7386695 -8,8.9125265 -4.4,4.173857 -8,8.216953 -8,8.984658 0,0.767706 3.9,4.993907 8.666667,9.391558 4.766666,4.39765 8.666666,8.671591 8.666666,9.497647 0,2.893914 -6.530842,5.93435 -11.140248,5.186346 -7.539022,-1.223415 -8.078126,-0.109614 -6.734417,13.913386 1.396047,14.569217 1.335939,35.502404 -0.137248,47.796994 L 30.282945,122 l 2.748574,-2.44048 c 3.541425,-3.14445 8.838181,-2.4706 9.36186,1.19103 0.22718,1.58846 -1.312952,4.68673 -3.64537,7.33333 -2.22131,2.52053 -4.048332,5.20786 -4.060045,5.97184 -0.01173,0.76398 2.678703,4.0389 5.978703,7.27761 10.594756,10.39797 7.686469,13.95783 -11.511608,14.09065 -7.443796,0.0515 -14.755036,-0.60425 -16.929152,-1.5184 z m 19.731689,-8.38157 C 31.88618,144.08012 28.439611,140 27.291331,140 c -1.437984,0 -5.957998,4.13569 -5.957998,5.45142 0,1.18291 6.485779,2.22515 9,1.44627 0.916667,-0.28399 1.647584,-0.90213 1.624263,-1.37368 z"
       id="path547" />
  </g>
</svg>
