<?xml version="1.0" encoding="UTF-8" standalone="no"?>
<!-- Created with Inkscape (http://www.inkscape.org/) -->

<svg
   version="1.1"
   id="svg82"
   width="93.333336"
   height="152"
   viewBox="0 0 93.333336 152"
   sodipodi:docname="0098.svg"
   inkscape:version="1.1.2 (0a00cf5339, 2022-02-04)"
   xmlns:inkscape="http://www.inkscape.org/namespaces/inkscape"
   xmlns:sodipodi="http://sodipodi.sourceforge.net/DTD/sodipodi-0.dtd"
   xmlns="http://www.w3.org/2000/svg"
   xmlns:svg="http://www.w3.org/2000/svg">
  <defs
     id="defs86" />
  <sodipodi:namedview
     id="namedview84"
     pagecolor="#ffffff"
     bordercolor="#666666"
     borderopacity="1.0"
     inkscape:pageshadow="2"
     inkscape:pageopacity="0.0"
     inkscape:pagecheckerboard="0"
     showgrid="false"
     inkscape:zoom="5.7434211"
     inkscape:cx="-0.52233677"
     inkscape:cy="75.912944"
     inkscape:window-width="2560"
     inkscape:window-height="1299"
     inkscape:window-x="0"
     inkscape:window-y="32"
     inkscape:window-maximized="1"
     inkscape:current-layer="g88" />
  <g
     inkscape:groupmode="layer"
     inkscape:label="Image"
     id="g88">
    <path
       style="fill:#000000;stroke-width:1.33333"
       d="M 45.013721,146.92751 C 39.023922,146.54285 38.508874,146.19493 35.14481,140.26084 33.192696,136.81737 26.365811,125.6 19.973958,115.33333 4.8031233,90.965773 5.076018,91.528245 7.0888893,88.77548 c 1.299168,-1.776717 3.3416337,-2.172224 9.5581367,-1.850853 7.547648,0.390185 8.072385,0.650388 11.579712,5.74204 C 30.24733,95.6 34.12128,102.2 36.835514,107.33333 c 2.714234,5.13334 6.52077,12.33334 8.458969,16 1.938198,3.66667 5.15102,9.43846 7.139604,12.8262 3.507439,5.97527 3.674069,9.84106 0.462823,10.73738 -0.859966,0.24004 -4.407401,0.2538 -7.883189,0.0305 z m 26.650621,-1.67018 C 70.37973,144.49148 64.922114,135.04529 59.536308,124.26578 54.150503,113.48627 48.151549,102.33294 46.205301,99.480604 c -3.90768,-5.72692 -4.644297,-12.104351 -1.535873,-13.297165 2.883719,-1.106587 13.965906,1.201749 16.021608,3.33718 0.959771,0.996993 3.20904,4.512714 4.998379,7.812714 19.505651,35.973437 23.760914,44.411717 23.387005,46.376907 -0.339249,1.78301 -2.055739,2.36165 -7.756042,2.61464 -4.026206,0.17869 -8.371423,-0.30171 -9.656036,-1.06755 z M 59.333335,70.088689 C 58.600002,69.832165 54.665839,68.637861 50.590751,67.43468 36.71409,63.337553 25.34911,47.980164 24.926046,32.754207 24.602313,21.103129 29.594178,12.913667 40.286697,7.5541153 47.376593,4.0003539 48.25636,3.8641589 55.03379,5.2711479 65.776727,7.5013731 73.333335,16.346368 73.333335,26.690729 c 0,8.823174 -6.067481,14.720244 -16.141592,15.688239 -5.798122,0.557125 -6.799486,0.218416 -10.60503,-3.587128 -3.725434,-3.725435 -4.097126,-4.765397 -3.275213,-9.163759 1.134436,-6.07078 2.461263,-7.781304 6.899984,-8.895352 2.330902,-0.585018 4.246012,-0.12868 5.956575,1.41936 2.29606,2.077906 2.34158,2.555642 0.509873,5.351178 -2.819433,4.303 -2.512937,5.830066 1.170148,5.830066 2.307588,0 3.77247,-1.245562 5.333334,-4.534838 2.894869,-6.100486 2.786445,-6.694195 -1.950379,-10.67997 -3.171552,-2.668685 -5.560316,-3.451858 -10.528544,-3.451858 -5.681315,0 -6.9037,0.543793 -10.545102,4.69112 -7.221689,8.225049 -7.161167,16.221877 0.195719,25.860061 4.640225,6.079115 12.080291,10.196381 21.658935,11.985867 3.278187,0.61243 6.866555,1.865602 7.97415,2.784824 2.496448,2.071868 2.602852,5.862746 0.220065,7.840284 -1.939432,1.609586 -8.709396,3.01668 -10.872923,2.259866 z"
       id="path408" />
  </g>
</svg>
