<?xml version="1.0" encoding="UTF-8" standalone="no"?>
<!-- Created with Inkscape (http://www.inkscape.org/) -->

<svg
   version="1.1"
   id="svg92"
   width="161.33333"
   height="162.66667"
   viewBox="0 0 161.33333 162.66667"
   sodipodi:docname="0099.svg"
   inkscape:version="1.1.2 (0a00cf5339, 2022-02-04)"
   xmlns:inkscape="http://www.inkscape.org/namespaces/inkscape"
   xmlns:sodipodi="http://sodipodi.sourceforge.net/DTD/sodipodi-0.dtd"
   xmlns="http://www.w3.org/2000/svg"
   xmlns:svg="http://www.w3.org/2000/svg">
  <defs
     id="defs96" />
  <sodipodi:namedview
     id="namedview94"
     pagecolor="#ffffff"
     bordercolor="#666666"
     borderopacity="1.0"
     inkscape:pageshadow="2"
     inkscape:pageopacity="0.0"
     inkscape:pagecheckerboard="0"
     showgrid="false"
     inkscape:zoom="5.3668031"
     inkscape:cx="29.999237"
     inkscape:cy="81.240171"
     inkscape:window-width="2560"
     inkscape:window-height="1299"
     inkscape:window-x="0"
     inkscape:window-y="32"
     inkscape:window-maximized="1"
     inkscape:current-layer="g98" />
  <g
     inkscape:groupmode="layer"
     inkscape:label="Image"
     id="g98">
    <path
       style="fill:#000000;stroke-width:1.33333"
       d="m 33.084718,149.98682 c -1.287857,-2.82655 -1.098437,-3.81062 1.219076,-6.33334 1.509119,-1.64274 5.202609,-6.5284 8.207756,-10.857 5.164656,-7.43916 5.418896,-8.25314 4.642114,-14.86234 -1.677964,-14.27685 6.733398,-29.82265 18.827168,-34.796205 3.305044,-1.359196 6.01142,-3.216075 6.014169,-4.126396 0.0028,-0.910321 -2.175445,-4.510321 -4.840429,-8 C 64.489587,67.52186 61.352831,62.566668 60.184003,60.000001 59.015175,57.433335 56.824273,53.790198 55.315334,51.904144 53.806394,50.018089 50.19315,43.274129 47.285903,36.917565 44.378655,30.561002 41.399999,25.552974 40.666666,25.788617 39.14913,26.276246 38.144458,31.578659 35.447645,53.333334 34.402209,61.766668 32.903342,72.566668 32.116831,77.333335 31.330319,82.100002 30.682278,89.95701 30.676738,94.793351 30.665271,104.81318 29.420501,106.56555 20.511973,109.1033 5.5765348,113.35794 3.0739069,109.69201 7.9257666,90.666669 9.6002249,84.100703 22.63502,42.471562 26.755654,30.529773 c 1.417724,-4.108626 2.577679,-8.446483 2.577679,-9.639685 0,-1.193201 0.941489,-4.52247 2.092197,-7.398374 3.616432,-9.0383515 10.666414,-8.1425838 15.89268,2.019317 1.458349,2.8356 5.058349,8.858027 8,13.38317 9.40763,14.471767 13.293655,20.960229 15.583531,26.019695 1.229291,2.716111 3.677997,7.061835 5.441568,9.657163 4.474613,6.584985 6.386097,5.092125 14.745856,-11.516445 1.738181,-3.453296 3.980769,-7.267288 4.983526,-8.475536 1.962607,-2.364797 4.146089,-5.942847 6.862649,-11.245744 0.93918,-1.833333 3.69686,-5.973736 6.12819,-9.200896 2.43132,-3.22716 5.58862,-8.157099 7.01621,-10.95542 3.17578,-6.2250329 6.8561,-8.5070263 10.5401,-6.5354108 2.63443,1.4099038 6.29265,11.3579228 9.07998,24.6917268 0.76648,3.666667 2.14772,10.266667 3.0694,14.666667 0.9217,4.4 2.58742,9.8 3.70163,12 1.1142,2.2 2.49136,6.7 3.06033,10 0.56899,3.3 1.39812,8.100001 1.84252,10.666667 0.4444,2.566667 1.31936,5.866667 1.94435,7.333334 5.03528,11.816313 6.57143,21.992058 3.68195,24.389898 -2.84495,2.36089 -19.88504,3.29491 -23.66667,1.29725 L 126,109.9263 125.13792,72.206647 c -0.47415,-20.745807 -1.26171,-40.384522 -1.75013,-43.641589 -0.76608,-5.108566 -1.14744,-5.662555 -2.77656,-4.033432 -1.03868,1.03868 -3.31299,4.493979 -5.05403,7.678443 -8.80377,16.102647 -16.641154,29.3946 -22.386229,37.966319 -6.385035,9.526548 -6.736009,11.156947 -2.401741,11.156947 4.491187,0 13.13418,7.013863 16.29189,13.221016 5.42283,10.659699 6.80299,16.632469 5.25374,22.736039 -1.27574,5.026 -1.00966,6.18654 3.30637,14.42107 2.58157,4.92537 6.17831,10.54589 7.99275,12.49005 4.34758,4.65839 3.63745,8.46516 -1.57913,8.46516 -3.02933,0 -4.61563,-1.06825 -6.92979,-4.66667 -1.65064,-2.56666 -4.74575,-6.62308 -6.87803,-9.01425 -3.37655,-3.78652 -4.09363,-4.08639 -5.55655,-2.32368 -1.42105,1.71227 -1.03307,2.24932 2.51972,3.48783 5.42002,1.88942 7.12548,5.03902 5.01843,9.26788 l -1.61878,3.24889 -28.62826,0.32747 c -15.745542,0.1801 -29.466406,-0.20979 -30.490808,-0.86643 -1.583839,-1.01523 -1.551474,-1.96207 0.216288,-6.32745 1.8169,-4.48675 2.5976,-5.10882 6.195885,-4.93699 4.729416,0.22584 5.428017,-2.06976 1.396141,-4.58771 -3.576474,-2.23354 -4.982934,-1.18756 -8.062065,5.99576 -4.509909,10.52119 -13.003172,14.58322 -16.132313,7.7155 z m 56.787436,-18.34208 c 2.863019,-1.63794 5.863019,-4.0347 6.666667,-5.32614 1.600377,-2.57176 1.448169,-2.90062 -10.434727,-22.54497 L 79.541525,92.924638 76.544464,96.68331 c -1.648383,2.067269 -3.795227,5.30365 -4.770763,7.19196 -0.975536,1.8883 -4.023702,6.8597 -6.773702,11.04754 -2.75,4.18785 -5,7.98216 -5,8.43181 0,1.32989 8.045202,7.84696 11.832812,9.58524 5.398923,2.47778 12.312065,1.98146 18.039343,-1.29512 z M 104,104.27119 c 0,-2.41895 -11.905701,-16.292463 -11.960918,-13.937855 -0.02149,0.916667 0.431552,1.666667 1.006772,1.666667 0.575221,0 2.171548,1.905641 3.547391,4.23476 2.428757,4.111558 6.285475,9.098578 7.036405,9.098578 0.20369,0 0.37035,-0.47797 0.37035,-1.06215 z m -45.333335,-3.08886 c 0,-0.72982 1.797224,-3.244411 3.993831,-5.587973 2.196605,-2.343562 3.991401,-4.861022 3.988435,-5.594355 -0.0088,-2.16756 -8.870519,7.830529 -9.947139,11.222658 -0.677646,2.13508 -0.52431,2.82503 0.488695,2.19896 0.811898,-0.50178 1.476178,-1.50946 1.476178,-2.23929 z"
       id="path269" />
  </g>
</svg>
