<?xml version="1.0" encoding="UTF-8" standalone="no"?>
<!-- Created with Inkscape (http://www.inkscape.org/) -->

<svg
   version="1.1"
   id="svg102"
   width="142.66667"
   height="150.66667"
   viewBox="0 0 142.66667 150.66667"
   sodipodi:docname="0100.svg"
   inkscape:version="1.1.2 (0a00cf5339, 2022-02-04)"
   xmlns:inkscape="http://www.inkscape.org/namespaces/inkscape"
   xmlns:sodipodi="http://sodipodi.sourceforge.net/DTD/sodipodi-0.dtd"
   xmlns="http://www.w3.org/2000/svg"
   xmlns:svg="http://www.w3.org/2000/svg">
  <defs
     id="defs106" />
  <sodipodi:namedview
     id="namedview104"
     pagecolor="#ffffff"
     bordercolor="#666666"
     borderopacity="1.0"
     inkscape:pageshadow="2"
     inkscape:pageopacity="0.0"
     inkscape:pagecheckerboard="0"
     showgrid="false"
     inkscape:zoom="5.7942476"
     inkscape:cx="71.277589"
     inkscape:cy="75.247043"
     inkscape:window-width="2560"
     inkscape:window-height="1299"
     inkscape:window-x="0"
     inkscape:window-y="32"
     inkscape:window-maximized="1"
     inkscape:current-layer="g108" />
  <g
     inkscape:groupmode="layer"
     inkscape:label="Image"
     id="g108">
    <path
       style="fill:#000000;stroke-width:1.33333"
       d="m 37.628582,142.42859 c -0.89572,-0.89572 -1.628581,-4.42485 -1.628581,-7.84252 0,-6.99017 3.165689,-12.62301 11.526,-20.5087 6.304638,-5.94672 11.397574,-7.40186 25.807334,-7.37362 9.19977,0.018 11.960852,0.51307 14.666667,2.62959 1.833333,1.43405 4.039651,2.62071 4.902928,2.63701 5.291458,0.1 16.08469,21.25842 13.8468,27.14452 -1.09838,2.88895 -2.18398,3.22183 -12.974201,3.97828 -21.470434,1.5052 -54.366551,1.11583 -56.146947,-0.66456 z M 124.87332,60.228347 c -1.21366,-1.341076 -2.20665,-3.028822 -2.20665,-3.750544 0,-2.528338 -7.42546,-8.393385 -13.21066,-10.434521 C 106.24426,44.910113 99.352766,43.624609 94.14157,43.186609 74.149695,41.50629 65.009875,37.295618 56.656196,25.917271 50.619889,17.69536 50.115044,17.333334 44.685942,17.333334 c -5.652905,0 -5.670185,0.01512 -6.421941,5.619885 -0.932717,6.95392 -3.64157,9.046782 -11.709522,9.046782 -7.285001,0 -7.887812,0.867182 -7.887812,11.347145 0,7.565696 -2.188269,11.319522 -6.598645,11.319522 -4.4364826,0 -5.6567788,-3.515835 -6.0299997,-17.373227 C 5.5979219,20.952875 6.4441552,19.575467 16.53845,20.201971 c 8.653204,0.537061 10.128217,-0.479512 10.128217,-6.980328 0,-4.4490963 0.542387,-5.4938602 3.420134,-6.5879773 4.165634,-1.5837717 27.224482,-1.6962027 29.671372,-0.1446726 0.966995,0.6131541 3.17345,4.1695569 4.903234,7.9031179 2.345464,5.062444 4.440859,7.435671 8.241828,9.334631 4.945449,2.470741 15.03127,5.290259 19.096767,5.338551 11.154448,0.1325 27.522478,5.196521 33.880258,10.482041 5.31654,4.41988 11.45308,13.442538 11.45308,16.839651 0,5.651402 -8.46124,8.25996 -12.46002,3.841362 z"
       id="path130" />
  </g>
</svg>
