<?xml version="1.0" encoding="UTF-8" standalone="no"?>
<!-- Created with Inkscape (http://www.inkscape.org/) -->

<svg
   version="1.1"
   id="svg2"
   width="160"
   height="148"
   viewBox="0 0 160 148"
   sodipodi:docname="0101.svg"
   inkscape:version="1.1.2 (0a00cf5339, 2022-02-04)"
   xmlns:inkscape="http://www.inkscape.org/namespaces/inkscape"
   xmlns:sodipodi="http://sodipodi.sourceforge.net/DTD/sodipodi-0.dtd"
   xmlns="http://www.w3.org/2000/svg"
   xmlns:svg="http://www.w3.org/2000/svg">
  <defs
     id="defs6" />
  <sodipodi:namedview
     id="namedview4"
     pagecolor="#ffffff"
     bordercolor="#666666"
     borderopacity="1.0"
     inkscape:pageshadow="2"
     inkscape:pageopacity="0.0"
     inkscape:pagecheckerboard="0"
     showgrid="false"
     inkscape:zoom="5.8986486"
     inkscape:cx="33.906071"
     inkscape:cy="73.915235"
     inkscape:window-width="2560"
     inkscape:window-height="1299"
     inkscape:window-x="0"
     inkscape:window-y="32"
     inkscape:window-maximized="1"
     inkscape:current-layer="g8" />
  <g
     inkscape:groupmode="layer"
     inkscape:label="Image"
     id="g8">
    <path
       style="fill:#000000;stroke-width:1.33333"
       d="m 72,141.46641 -6,-0.79974 -0.374851,-17.22515 c -0.23145,-10.63563 0.154626,-17.75463 1.009211,-18.60921 1.5363,-1.5363 26.880011,-2.36851 29.162879,-0.95762 2.280092,1.40917 2.278045,36.16842 -0.0023,37.61354 C 93.826728,142.73564 81.437093,142.72428 72,141.46641 Z M 47.295343,94.979583 c -0.754228,-0.538771 -4.037692,-6.492284 -7.296588,-13.23003 -4.574711,-9.458185 -6.313526,-11.928218 -7.628676,-10.83674 -0.936878,0.777539 -1.703412,3.182134 -1.703412,5.343546 0,4.313182 -6.596522,14.898698 -10.629311,17.056982 C 16.621933,95.14122 11.554798,95.021464 9.6,93.066667 c -2.5493393,-2.549339 -1.9722711,-15.783379 0.889539,-20.4 4.454537,-7.185982 11.658449,-13.4225 17.540096,-15.184684 7.057414,-2.114452 103.964265,-2.475487 109.333875,-0.407332 4.10797,1.58223 11.4877,8.899094 14.1963,14.075373 1.09844,2.099181 2.32294,6.973092 2.7211,10.830915 0.61446,5.953558 0.29512,7.443034 -2.11183,9.849976 -4.74489,4.744892 -10.14816,3.761842 -14.82739,-2.697632 -2.2046,-3.043363 -4.0117,-6.193363 -4.01579,-7 -0.004,-0.806639 -0.64354,-3.757344 -1.421,-6.557123 -1.86727,-6.724397 -3.47991,-5.310445 -10.45735,9.1689 L 116.02391,96 82.345288,95.979583 c -18.523241,-0.0112 -34.295717,-0.46123 -35.049945,-1 z m 95.207787,-19.08065 c -2.58726,-1.599025 -2.94426,-0.535718 -1.00282,2.986872 1.55628,2.82371 1.76514,2.880358 2.23922,0.607298 0.28756,-1.378794 -0.26881,-2.99617 -1.2364,-3.59417 z M 19.979583,75.587977 C 19.990812,74.994699 19.4,74.880108 18.666667,75.333333 c -0.733334,0.453226 -1.324146,1.838635 -1.312916,3.07869 0.01759,1.943033 0.19905,1.978226 1.312916,0.254644 0.710874,-1.1 1.301686,-2.485411 1.312916,-3.07869 z M 17.682488,44.27524 C 9.4859563,43.942799 7.8070408,43.464141 6.5411855,41.098869 5.2070129,38.605945 6.1359217,37.300175 15.400041,28.645945 21.092163,23.328556 28.805749,17.133328 32.541344,14.878773 45.253927,7.2063056 50.22404,6.6343683 103.28571,6.7378409 c 31.71686,0.061849 48.5503,0.5727734 49.67692,1.5077804 2.5285,2.0984737 2.11577,8.7825717 -0.6293,10.1914237 -1.28333,0.658646 -14.33333,0.911482 -29,0.56186 C 108.66667,18.649283 86.728281,18.281501 74.581365,18.181613 L 52.496064,18 42.581365,23.136761 c -5.453084,2.825219 -10.79327,5.975219 -11.86708,7 -2.399836,2.290264 -6.119784,2.009686 34.619048,2.61115 C 83.3,33.013168 98.9,33.317452 100,33.424097 c 6.25717,0.60663 38.65515,-1.729465 42.30909,-3.050746 2.9577,-1.069516 5.49394,-1.157487 8.00958,-0.277814 3.12869,1.094048 3.74297,2.136099 4.09192,6.941414 0.30541,4.205552 -0.13307,5.86276 -1.7117,6.468514 -2.15818,0.828175 -117.379822,1.485094 -135.016402,0.769775 z"
       id="path1387" />
  </g>
</svg>
