<?xml version="1.0" encoding="UTF-8" standalone="no"?>
<!-- Created with Inkscape (http://www.inkscape.org/) -->

<svg
   version="1.1"
   id="svg12"
   width="156"
   height="152"
   viewBox="0 0 156 152"
   sodipodi:docname="0102.svg"
   inkscape:version="1.1.2 (0a00cf5339, 2022-02-04)"
   xmlns:inkscape="http://www.inkscape.org/namespaces/inkscape"
   xmlns:sodipodi="http://sodipodi.sourceforge.net/DTD/sodipodi-0.dtd"
   xmlns="http://www.w3.org/2000/svg"
   xmlns:svg="http://www.w3.org/2000/svg">
  <defs
     id="defs16" />
  <sodipodi:namedview
     id="namedview14"
     pagecolor="#ffffff"
     bordercolor="#666666"
     borderopacity="1.0"
     inkscape:pageshadow="2"
     inkscape:pageopacity="0.0"
     inkscape:pagecheckerboard="0"
     showgrid="false"
     inkscape:zoom="5.7434211"
     inkscape:cx="30.643757"
     inkscape:cy="75.912944"
     inkscape:window-width="2560"
     inkscape:window-height="1299"
     inkscape:window-x="0"
     inkscape:window-y="32"
     inkscape:window-maximized="1"
     inkscape:current-layer="g18" />
  <g
     inkscape:groupmode="layer"
     inkscape:label="Image"
     id="g18">
    <path
       style="fill:#000000;stroke-width:1.33333"
       d="m 60.666667,144.60297 c -6.6,-1.0305 -16.96976,-3.46504 -23.043911,-5.41006 l -11.043912,-3.53642 -7.620589,3.44783 c -6.574056,2.97435 -7.987101,3.20604 -10.2894226,1.68719 -3.1393472,-2.07106 -4.21042,-8.13073 -1.9240768,-10.8856 0.88226,-1.06306 4.9756144,-2.89474 9.0963434,-4.07039 4.120729,-1.17566 8.694002,-3.23493 10.162829,-4.57617 5.393253,-4.92474 18.185433,-9.6077 29.853439,-10.92874 15.857617,-1.79537 20.682829,-1.44541 30.406262,2.20533 2.788338,1.0469 6.869704,2.27689 9.069704,2.73332 4.21838,0.87518 21.414697,7.2863 31.028347,11.56797 3.13225,1.39502 8.83225,3.19742 12.66667,4.00533 8.01797,1.68937 10.30498,3.15571 10.30498,6.60712 0,4.85304 -4.12562,5.11853 -14.54066,0.93572 l -9.87401,-3.96553 -8.12599,4.00194 c -6.10499,3.00662 -11.44213,4.37488 -21.459337,5.50146 -7.333333,0.82473 -15.433333,1.73664 -18,2.02644 -2.566666,0.28981 -10.066666,-0.31622 -16.666666,-1.34674 z m 41.009583,-9.22318 c 10.90563,-3.30917 11.5216,-4.02285 6.24726,-7.23821 -2.5246,-1.53905 -5.2911,-2.80052 -6.14779,-2.80326 -0.85669,-0.003 -2.420145,-0.33597 -3.474344,-0.7405 -1.054199,-0.40454 -4.708463,1.39546 -8.120588,4 -3.412124,2.60453 -6.841528,4.73551 -7.620897,4.73551 -0.779368,0 -2.317034,0.9 -3.417034,2 -1.777777,1.77778 -0.989418,1.9984 7.095238,1.98558 5.002381,-0.008 11.94955,-0.88055 15.438155,-1.93912 z m -49.095931,-0.57342 c 0.405734,-0.65648 -0.170651,-1.54218 -1.280855,-1.9682 -1.110205,-0.42603 -3.266024,-2.8889 -4.790711,-5.47305 -1.836805,-3.11315 -3.762438,-4.69845 -5.707121,-4.69845 -3.260632,0 -6.134965,2.2953 -6.134965,4.89909 0,1.74707 6.074769,5.3887 11.991368,7.18845 4.622365,1.40606 5.083025,1.41012 5.922284,0.0521 z M 50.666667,37.333231 C 34.194939,35.645317 24.426061,33.421725 14.988187,29.212095 5.6097177,25.028963 3.853652,22.511671 7.5018111,18.480501 10.946165,14.674532 15.615564,12.451045 23.384491,10.917442 27.02302,10.199188 35.1,8.5844867 41.333333,7.3292168 50.654684,5.4520813 56.808983,5.1967791 76,5.8911201 106.57904,6.9974857 114.37943,8.002636 139.33333,14.052192 150.10065,16.662507 152,17.854265 152,22 c 0,3.878547 -1.84199,5.213999 -10,7.250077 -3.66667,0.915127 -7.86667,2.160391 -9.33333,2.767254 -1.46667,0.606864 -5.06667,1.503584 -8,1.992713 -2.93334,0.489129 -8.03334,1.429664 -11.33334,2.090079 -8.85029,1.771169 -49.592473,2.572864 -62.666663,1.233108 z M 109,24.399215 c 6.05,-1.253899 11,-2.660854 11,-3.126563 0,-1.175121 -14.0872,-4.448284 -15.51017,-3.603789 -0.63607,0.37749 -6.812042,0.20856 -13.724375,-0.375402 C 77.534616,16.175703 40.809221,17.785725 34,19.782029 l -4,1.172707 5.333333,1.367679 C 53.834445,27.066836 91.064657,28.116424 109,24.399215 Z"
       id="path1248" />
  </g>
</svg>
