<?xml version="1.0" encoding="UTF-8" standalone="no"?>
<!-- Created with Inkscape (http://www.inkscape.org/) -->

<svg
   version="1.1"
   id="svg22"
   width="156"
   height="158.66667"
   viewBox="0 0 156 158.66667"
   sodipodi:docname="0103.svg"
   inkscape:version="1.1.2 (0a00cf5339, 2022-02-04)"
   xmlns:inkscape="http://www.inkscape.org/namespaces/inkscape"
   xmlns:sodipodi="http://sodipodi.sourceforge.net/DTD/sodipodi-0.dtd"
   xmlns="http://www.w3.org/2000/svg"
   xmlns:svg="http://www.w3.org/2000/svg">
  <defs
     id="defs26" />
  <sodipodi:namedview
     id="namedview24"
     pagecolor="#ffffff"
     bordercolor="#666666"
     borderopacity="1.0"
     inkscape:pageshadow="2"
     inkscape:pageopacity="0.0"
     inkscape:pagecheckerboard="0"
     showgrid="false"
     inkscape:zoom="5.5021007"
     inkscape:cx="28.716305"
     inkscape:cy="79.242461"
     inkscape:window-width="2560"
     inkscape:window-height="1299"
     inkscape:window-x="0"
     inkscape:window-y="32"
     inkscape:window-maximized="1"
     inkscape:current-layer="g28" />
  <g
     inkscape:groupmode="layer"
     inkscape:label="Image"
     id="g28">
    <path
       style="fill:#000000;stroke-width:1.33333"
       d="m 6.2222223,152.44444 c -1.8196318,-1.81962 -0.7753651,-7.11554 3.111111,-15.77777 2.1999997,-4.90339 3.9999997,-9.6784 3.9999997,-10.61115 0,-0.93274 1.269236,-3.30947 2.820526,-5.28161 3.809353,-4.84281 7.720982,-4.05993 11.253744,2.25234 l 2.81302,5.02626 3.447913,-3.19542 c 3.720509,-3.44806 9.929583,-3.45581 11.250309,-0.014 0.911312,2.37484 2.78304,2.31221 5.271631,-0.17638 2.984985,-2.98498 7.109819,-2.42504 10.703907,1.45304 l 3.200172,3.45305 2.716162,-3.45305 c 3.51155,-4.46421 5.698251,-4.35516 10.024126,0.4999 l 3.52208,3.95293 2.584978,-3.28627 c 3.15164,-4.00666 5.560144,-4.1337 10.135615,-0.53464 l 3.498127,2.75163 2.490054,-3.41829 c 3.105803,-4.26359 5.179303,-4.2996 9.638033,-0.16739 3.60031,3.33665 6.53265,3.3289 7.818,-0.0207 0.96596,-2.51727 7.35425,-2.4382 8.32944,0.1031 1.20102,3.12983 3.69394,2.36103 6.22214,-1.91887 2.42598,-4.10687 6.53464,-6.22617 9.05305,-4.66971 0.81595,0.50429 3.85412,6.00037 6.75148,12.21351 6.66497,14.29244 6.7602,20.8172 0.31301,21.44531 -3.61836,0.35252 -4.3495,-0.15358 -5.77878,-4 -0.89998,-2.42196 -2.37562,-6.15102 -3.2792,-8.28679 l -1.64291,-3.8832 -3.00244,4.21653 c -3.53884,4.96986 -8.38462,5.57528 -11.30076,1.4119 l -1.96445,-2.80464 -3.01827,3.4713 c -3.79957,4.3699 -7.18979,4.41671 -9.99332,0.13799 -2.63909,-4.02777 -4.67917,-4.22484 -6.90129,-0.66667 -0.915947,1.46667 -2.767283,2.66667 -4.114078,2.66667 -1.346796,0 -3.534704,-1.2 -4.862019,-2.66667 -3.050221,-3.37045 -3.862029,-3.33985 -8.841666,0.33334 l -4.06702,3 -2.929076,-3.66667 c -3.620942,-4.53276 -5.24397,-4.60005 -8.039628,-0.33333 -2.786552,4.25281 -4.409311,4.19369 -9.148692,-0.33334 -3.777754,-3.60848 -3.868111,-3.62434 -5.694151,-1 -3.739691,5.37462 -4.822004,6.1134 -7.643959,5.21775 -1.551158,-0.49232 -3.767782,-2.06524 -4.925833,-3.49537 -2.082661,-2.57198 -2.132816,-2.57011 -4.614411,0.17202 -3.502793,3.87055 -6.758765,3.45838 -10.134909,-1.28298 -2.305281,-3.23747 -3.264673,-3.74231 -4.757459,-2.50342 -1.028424,0.85352 -1.869862,2.39949 -1.869862,3.43551 0,2.08301 -3.831406,8.56758 -5.969203,10.10274 -1.714072,1.23087 -5.3029941,1.30378 -6.4752417,0.13147 z M 22.666667,74.140966 C 14.044489,69.500912 9.9409593,64.518071 6.6576115,54.701462 4.1029413,47.063466 3.9433039,45.19135 5.2711513,38.44203 7.8290995,25.440229 14.805301,15.363642 23.333333,12.352599 40.097953,6.4334151 41.938381,6.250158 52.174653,9.4807783 63.503735,13.056294 66.351656,15.345224 72.630527,25.921563 c 5.323153,8.966495 6.014065,15.661642 2.73237,26.47749 -4.937133,16.27186 -15.375326,23.629623 -34.69623,24.456974 -10.717675,0.458947 -12.641163,0.168815 -18,-2.715061 z m 18.00478,-6.148699 c 0.693408,-1.121959 -9.682679,-13.720882 -21.61084,-26.240465 -4.984296,-5.231425 -8.882058,-3.646569 -5.69187,2.314352 1.663963,3.109143 23.965243,25.267181 25.430522,25.267181 0.573849,0 1.416334,-0.60348 1.872188,-1.341068 z M 56,65.021239 C 56,64.273169 50.43656,58.187361 43.636799,51.497222 36.837037,44.807084 28.752616,36.339185 25.671417,32.679667 20.37252,26.386209 19.945044,26.150195 17.775152,28.320086 c -2.155479,2.155479 -2.158873,2.577628 -0.05619,6.987 1.230839,2.581103 3.083406,4.692915 4.116812,4.692915 1.033406,0 2.226274,0.905191 2.650818,2.011536 0.424544,1.106344 2.288737,2.702653 4.142652,3.547353 C 30.483161,46.403589 32,47.657673 32,48.345741 c 0,1.296087 4.559924,5.915275 14.356019,14.5426 C 51.630029,67.533112 56,68.499589 56,65.021239 Z m 6.440025,-8.898855 C 63.040017,52.028938 31.67668,20 27.068309,20 c -4.420766,0 -3.857174,1.635395 3.304598,9.589079 3.505098,3.892674 8.455098,9.460066 11,12.371983 9.094456,10.406023 17.484445,18.197709 19.042794,17.684823 0.871364,-0.286784 1.782311,-1.87236 2.024324,-3.523501 z m 6.893308,-9.335986 c 0,-2.069474 -9.876226,-13.721209 -19.031634,-22.453064 C 41.773337,16.199516 36,13.679948 36,18.091866 c 0,3.402433 26.85094,29.855376 30.333333,29.883719 1.65,0.01343 3,-0.521705 3,-1.189187 z m -4,-19.033796 C 65.333333,25.265223 59.783932,20 57.162301,20 c -2.165844,0 -2.116485,0.402214 0.565752,4.610233 2.82795,4.436616 7.60528,6.410526 7.60528,3.142369 z M 124,72.059286 l -18,-0.725951 0.24138,-3.596286 c 0.8829,-13.154104 22.86075,-21.227451 35.36335,-12.990385 10.53014,6.937543 12.58236,19.197712 3.06194,18.292204 C 143.2,72.899371 133.9,72.458559 124,72.059286 Z"
       id="path1109" />
  </g>
</svg>
