<?xml version="1.0" encoding="UTF-8" standalone="no"?>
<!-- Created with Inkscape (http://www.inkscape.org/) -->

<svg
   version="1.1"
   id="svg32"
   width="108"
   height="158.66667"
   viewBox="0 0 108 158.66667"
   sodipodi:docname="0104.svg"
   inkscape:version="1.1.2 (0a00cf5339, 2022-02-04)"
   xmlns:inkscape="http://www.inkscape.org/namespaces/inkscape"
   xmlns:sodipodi="http://sodipodi.sourceforge.net/DTD/sodipodi-0.dtd"
   xmlns="http://www.w3.org/2000/svg"
   xmlns:svg="http://www.w3.org/2000/svg">
  <defs
     id="defs36" />
  <sodipodi:namedview
     id="namedview34"
     pagecolor="#ffffff"
     bordercolor="#666666"
     borderopacity="1.0"
     inkscape:pageshadow="2"
     inkscape:pageopacity="0.0"
     inkscape:pagecheckerboard="0"
     showgrid="false"
     inkscape:zoom="5.5021007"
     inkscape:cx="4.7254679"
     inkscape:cy="79.242461"
     inkscape:window-width="2560"
     inkscape:window-height="1299"
     inkscape:window-x="0"
     inkscape:window-y="32"
     inkscape:window-maximized="1"
     inkscape:current-layer="g38" />
  <g
     inkscape:groupmode="layer"
     inkscape:label="Image"
     id="g38">
    <path
       style="fill:#000000;stroke-width:1.33333"
       d="M 28.666667,153.65335 C 8.2943217,153.21196 8.2615732,153.18274 9.5275351,136.56883 10.026348,130.02264 10.486712,111.16271 10.550567,94.657866 10.614422,78.153024 11.19996,62.789577 11.851763,60.516875 12.83589,57.085421 12.418615,55.391114 9.3911197,50.525676 1.864834,38.430305 1.6632177,36.396933 6.5373412,21.744318 8.9299617,14.55161 11.830852,7.6166668 12.983764,6.3333335 15.555449,3.4707286 21.138675,3.2746285 22.188351,6.01004 c 1.122092,2.9241238 -0.643112,10.920912 -2.911364,13.189163 -4.575807,4.575808 -6.565274,22.431975 -2.665998,23.928267 1.283332,0.492462 1.406182,-0.761204 0.532738,-5.436527 -1.287672,-6.892572 0.825913,-16.173828 3.956802,-17.375263 1.06073,-0.40704 2.897044,-0.129213 4.080702,0.61738 3.052889,1.925631 3.194142,20.83122 0.24706,33.066941 -1.23641,5.133334 -2.123022,13.233334 -1.97025,18.000001 0.673468,21.012943 0.628414,62.781428 -0.06893,63.909758 -1.340445,2.1689 2.329248,3.3017 10.994364,3.39386 9.972137,0.10613 10.651813,-0.45746 15.643272,-12.97028 1.974588,-4.95 4.330051,-9 5.234356,-9 2.143191,0 4.7389,5.77848 4.7389,10.54959 0,8.31445 8.484719,13.24089 18.189476,10.56127 4.090337,-1.1294 4.307651,-1.5331 5.102171,-9.47858 1.230161,-12.30206 0.172178,-69.31468 -1.329282,-71.632285 -1.113673,-1.719032 -1.937752,-9.00201 -3.62084,-32.000001 -0.32008,-4.373643 -0.06937,-4.692906 3.992667,-5.084542 3.637289,-0.350685 4.548443,0.145647 5.666667,3.086799 0.732861,1.927572 1.332474,5.492148 1.332474,7.921283 0,2.429135 0.9,5.163541 2,6.07646 1.670936,1.386755 2,1.19424 2,-1.170073 0,-1.55646 -0.518445,-2.829927 -1.152101,-2.829927 -0.633656,0 -1.512581,-2.629984 -1.953167,-5.844411 C 89.787479,24.274498 88.161007,19.498816 86.613684,16.876298 81.849121,8.800967 84.493563,3.7929046 92.438793,5.8446621 95.801397,6.7130128 100,13.474456 100,18.021254 c 0,1.726164 0.68215,4.827541 1.5159,6.891947 0.83374,2.064406 1.96383,6.453466 2.51129,9.753466 0.90151,5.434041 0.49106,6.920115 -4.351314,15.754558 l -5.346716,9.754559 1.459111,9.578775 c 1.72623,11.332365 2.622405,81.614221 1.060522,83.170701 -1.052198,1.04854 -36.111228,1.42293 -68.182126,0.72809 z"
       id="path970" />
  </g>
</svg>
