<?xml version="1.0" encoding="UTF-8" standalone="no"?>
<!-- Created with Inkscape (http://www.inkscape.org/) -->

<svg
   version="1.1"
   id="svg42"
   width="100"
   height="158.66667"
   viewBox="0 0 100 158.66667"
   sodipodi:docname="0105.svg"
   inkscape:version="1.1.2 (0a00cf5339, 2022-02-04)"
   xmlns:inkscape="http://www.inkscape.org/namespaces/inkscape"
   xmlns:sodipodi="http://sodipodi.sourceforge.net/DTD/sodipodi-0.dtd"
   xmlns="http://www.w3.org/2000/svg"
   xmlns:svg="http://www.w3.org/2000/svg">
  <defs
     id="defs46" />
  <sodipodi:namedview
     id="namedview44"
     pagecolor="#ffffff"
     bordercolor="#666666"
     borderopacity="1.0"
     inkscape:pageshadow="2"
     inkscape:pageopacity="0.0"
     inkscape:pagecheckerboard="0"
     showgrid="false"
     inkscape:zoom="5.5021007"
     inkscape:cx="0.72699506"
     inkscape:cy="79.242461"
     inkscape:window-width="2560"
     inkscape:window-height="1299"
     inkscape:window-x="0"
     inkscape:window-y="32"
     inkscape:window-maximized="1"
     inkscape:current-layer="g48" />
  <g
     inkscape:groupmode="layer"
     inkscape:label="Image"
     id="g48">
    <path
       style="fill:#000000;stroke-width:1.33333"
       d="M 34.666667,153.8117 C 31.407443,152.49866 23.936695,144.97178 21.619664,140.66667 19.455183,136.645 17.279923,99.898926 16.837492,59.882744 16.670605,44.788417 16.758813,44.296508 20.662917,38.54941 25.439324,31.518223 26.253177,30.829147 31,29.797158 c 3.906105,-0.849213 4.679176,-2.917981 2.066667,-5.530491 -1.98305,-1.983049 -6.719343,-2.080657 -8.622307,-0.177693 -1.00752,1.00752 -3.855496,0.91974 -9.765729,-0.301 C 8.1990005,22.449628 6.0226529,21.378686 4.9360312,18.993811 3.277988,15.354802 6.3242824,10.428771 13.076075,5.8308956 16.991833,3.1643201 17.700496,3.1010242 24.953479,4.7700364 c 6.8561,1.577684 8.566325,2.7076731 15.390825,10.1691056 9.801456,10.716228 19.426799,24.916371 20.488937,30.227063 0.454303,2.271519 0.09795,6.98838 -0.791901,10.481915 -0.889849,3.493535 -1.838605,8.032941 -2.108348,10.087571 -0.269743,2.054629 -2.754813,7.454629 -5.522379,12 -16.12243,26.479009 -22.05727,49.754519 -14.980506,58.751169 3.015524,3.83361 5.366649,4.25868 11.578348,2.09328 5.154025,-1.79671 7.541148,-7.26342 6.493586,-14.87086 -3.275746,-23.788597 -3.384848,-28.25631 -0.831009,-34.029686 1.376996,-3.11293 4.189331,-7.222518 6.249632,-9.132419 4.411923,-4.089855 13.176833,-8.547173 16.80724,-8.547173 4.187256,0 15.260969,12.14131 16.34526,17.921076 1.421845,7.579085 -0.107587,18.043732 -4.093129,28.006042 -3.82285,9.55561 -3.828544,15.16504 -0.02633,25.94164 3.098863,8.78312 -3.144718,13.28355 -8.047608,5.80079 -3.491033,-5.32799 -4.412116,-29.61635 -1.396793,-36.83238 1.186552,-2.83956 2.157367,-8.09838 2.157367,-11.68626 0,-5.879503 -0.412098,-6.774048 -4.174792,-9.06228 -5.185494,-3.153487 -9.533332,-1.621707 -11.948758,4.209647 -1.947688,4.702133 -1.814206,13.414323 0.265048,17.299453 0.818472,1.52933 1.488131,7.07927 1.488131,12.33321 0,11.26085 -3.940035,21.98864 -9.386537,25.55733 -3.55396,2.32864 -20.256703,3.92941 -24.243092,2.32343 z"
       id="path815" />
  </g>
</svg>
