<?xml version="1.0" encoding="UTF-8" standalone="no"?>
<!-- Created with Inkscape (http://www.inkscape.org/) -->

<svg
   version="1.1"
   id="svg2"
   width="160"
   height="144"
   viewBox="0 0 160 144"
   xmlns="http://www.w3.org/2000/svg"
   xmlns:svg="http://www.w3.org/2000/svg">
  <defs
     id="defs6" />
  <g
     id="g8">
    <path
       style="fill:#000000;stroke-width:1.33333"
       d="m 53.333333,135.53867 c -8.972724,-2.30101 -14.070721,-5.57286 -17.409121,-11.17301 -4.814649,-8.07656 -6.115832,-8.66221 -12.269977,-5.5226 -3.947594,2.01391 -6.590451,2.48729 -10.161395,1.82007 -6.3224929,-1.18134 -8.1595067,-2.84911 -8.1595067,-7.40774 0,-2.99052 1.0858088,-4.36169 5.3532527,-6.76013 l 5.353254,-3.00869 -4.865334,-4.982557 C 8.0815725,95.336561 6.6019053,92.758609 7.1127399,91.427396 c 1.0621808,-2.767999 6.0422611,-2.668751 9.1936531,0.18322 2.033274,1.840087 2.949342,1.967463 4.771655,0.663483 6.591113,-4.716358 13.604971,-4.983836 13.572113,-0.517582 -0.0091,1.233915 -2.109077,3.598999 -4.666666,5.25574 -5.859028,3.795333 -5.876475,6.101973 -0.067,8.858753 2.520737,1.19616 7.401084,5.47326 10.845214,9.50466 3.444131,4.0314 7.579528,7.66048 9.189771,8.06463 1.612164,0.40462 8.571656,-1.15229 15.488119,-3.46487 8.532998,-2.85308 15.217642,-4.21717 20.847618,-4.25422 9.215094,-0.0607 25.192313,3.15813 36.379453,7.32902 4.2852,1.59764 12.31563,3.05601 19.31996,3.50859 10.27029,0.66361 12.05416,1.12889 12.45837,3.24947 0.88382,4.63682 -1.87325,5.28083 -23.98316,5.6021 -17.62952,0.25616 -22.22345,-0.0664 -24.77689,-1.73943 -4.27421,-2.80057 -34.043997,-1.68413 -40.461633,1.51741 -2.364825,1.17972 -4.657498,2.08736 -5.09483,2.01696 -0.437336,-0.0704 -3.495154,-0.82038 -6.795154,-1.66666 z M 27.614367,49.333333 c -18.3759883,-0.666317 -20.9068663,-1.392646 -20.9068663,-6 0,-4.010458 2.4717178,-5.063614 10.1635743,-4.330522 4.287576,0.408637 10.441532,0.350176 13.675457,-0.12992 5.662945,-0.840692 5.761324,-0.933271 2.666667,-2.509462 C 31.44594,35.463321 25.501059,33.929904 20.002353,32.955839 11.711182,31.487103 9.7318024,30.637416 8.4058483,27.977817 7.2635157,25.686525 7.214282,24.280065 8.2334207,23.052079 9.8789161,21.069377 16.804437,20.732205 17.945955,22.57922 c 1.012465,1.638201 13.46183,4.993501 19.387378,5.225203 2.566667,0.10036 6.826134,0.522866 9.46548,0.9389 3.798959,0.59882 5.6047,0.09301 8.666667,-2.427594 2.12732,-1.751209 6.662307,-5.07926 10.077751,-7.395668 3.415442,-2.316408 8.019289,-6.021043 10.230769,-8.232522 7.699163,-7.6991626 14.032871,-2.9524179 12.110419,9.07605 -1.96355,12.285606 0.669814,14.591787 13.759191,12.049679 8.99119,-1.746192 10.11672,-2.825107 11.07299,-10.614451 0.67415,-5.491254 0.4463,-6.035622 -3.5711,-8.53215 -5.41655,-3.3660063 -6.19852,-5.696393 -2.38483,-7.1071698 4.88025,-1.8053209 15.906,3.0444903 15.906,6.9964478 0,0.859518 3.09133,3.920238 6.86962,6.8016 3.77829,2.881362 7.52828,5.856711 8.33334,6.611886 0.80504,0.755173 4.59497,2.814773 8.42206,4.576886 4.77368,2.197951 7.32602,4.28961 8.12936,6.662096 C 155.82013,41.340251 153.87285,48 151.26564,48 c -3.60259,0 -8.34561,-3.038197 -10.11709,-6.480609 -2.14116,-4.160798 -9.13812,-10.801106 -11.41319,-10.831427 -0.87888,-0.01171 -3.21649,1.478703 -5.19469,3.312036 -2.63643,2.443359 -5.0755,3.333333 -9.13537,3.333333 -3.04625,0 -6.10863,0.562122 -6.8053,1.249158 -0.69667,0.687037 -3.66667,1.5142 -6.6,1.838141 -2.933333,0.32394 0.41609,0.423992 7.44315,0.222335 20.29061,-0.58228 29.60117,2.218228 24.45917,7.357033 -1.69602,1.694969 -8.55185,2 -44.95178,2 C 65.327743,50 37.726465,49.7 27.614367,49.333333 Z M 123.33189,26.669005 c 0.45243,-0.732046 -0.0597,-2.59064 -1.13805,-4.130208 l -1.96065,-2.799214 -1.44993,2.70922 c -0.79746,1.49007 -1.44993,3.348665 -1.44993,4.130209 0,1.797483 4.89786,1.870963 5.99856,0.08999 z"
       id="path30" />
  </g>
</svg>
