<?xml version="1.0" encoding="UTF-8" standalone="no"?>
<!-- Created with Inkscape (http://www.inkscape.org/) -->

<svg
   version="1.1"
   id="svg52"
   width="161.33333"
   height="157.33333"
   viewBox="0 0 161.33333 157.33333"
   sodipodi:docname="0106.svg"
   inkscape:version="1.1.2 (0a00cf5339, 2022-02-04)"
   xmlns:inkscape="http://www.inkscape.org/namespaces/inkscape"
   xmlns:sodipodi="http://sodipodi.sourceforge.net/DTD/sodipodi-0.dtd"
   xmlns="http://www.w3.org/2000/svg"
   xmlns:svg="http://www.w3.org/2000/svg">
  <defs
     id="defs56" />
  <sodipodi:namedview
     id="namedview54"
     pagecolor="#ffffff"
     bordercolor="#666666"
     borderopacity="1.0"
     inkscape:pageshadow="2"
     inkscape:pageopacity="0.0"
     inkscape:pagecheckerboard="0"
     showgrid="false"
     inkscape:zoom="5.548729"
     inkscape:cx="31.718976"
     inkscape:cy="78.576553"
     inkscape:window-width="2560"
     inkscape:window-height="1299"
     inkscape:window-x="0"
     inkscape:window-y="32"
     inkscape:window-maximized="1"
     inkscape:current-layer="g58" />
  <g
     inkscape:groupmode="layer"
     inkscape:label="Image"
     id="g58">
    <path
       style="fill:#000000;stroke-width:1.33333"
       d="m 114.11448,148.70202 c -9.63882,-1.74152 -14.716849,-1.74738 -45.511905,-0.0527 -21.704973,1.19453 -23.542055,0.66074 -32.413926,-9.41823 l -5.450024,-6.19156 -6.507998,2.34024 c -11.051225,3.97404 -17.5639605,0.50109 -17.5639605,-9.366 0,-7.55277 1.0182721,-10.01613 3.7770115,-9.13718 1.379655,0.43956 1.66643,0.28117 0.755927,-0.41752 -2.6836142,-2.05932 -4.6915235,-7.19231 -3.850287,-9.84281 1.1343062,-3.57388 7.858055,-3.53205 10.377219,0.0646 l 1.877748,2.68086 3.408164,-2.68086 c 4.28479,-3.37042 8.491298,-3.43281 10.247142,-0.15198 1.123483,2.09924 0.565151,3.13012 -3.286421,6.06785 -2.551911,1.94644 -4.639837,4.1923 -4.639837,4.9908 0,1.92835 4.124808,4.98355 6.800044,5.03673 1.173356,0.0233 5.263348,3.64101 9.088869,8.03931 8.428633,9.6906 11.575238,10.74263 19.818191,6.62589 3.371015,-1.68357 8.865967,-3.68397 12.211005,-4.44533 12.647274,-2.87866 36.047578,-0.7714 50.081888,4.51 4.93481,1.85708 12.59267,3.32385 19.98663,3.82823 10.09994,0.68894 12.05852,1.19498 12.44342,3.21502 1.00024,5.24932 -1.95517,6.27736 -17.5933,6.11978 -8.16022,-0.0823 -18.98523,-0.89903 -24.0556,-1.81514 z M 104.88889,65.777776 C 104.4,65.288888 104,61.753081 104,57.920428 c 0,-4.929993 -0.57867,-7.190513 -1.97816,-7.727548 -1.08798,-0.417498 -8.61763,-0.176449 -16.732551,0.535664 -9.839648,0.863464 -15.591534,0.846734 -17.267525,-0.05023 -1.382216,-0.73974 -5.102567,-1.353175 -8.267444,-1.363188 -7.631917,-0.02415 -11.754321,-1.224894 -11.754321,-3.423724 0,-2.318618 -4.215004,-4.55807 -8.579012,-4.55807 -2.125505,0 -3.420988,0.744407 -3.420988,1.96576 0,3.542588 -15.684238,9.802323 -24.999999,9.977747 -2.6692411,0.05026 -3.0000002,-0.596349 -3.0000002,-5.864817 0,-6.960159 1.2702564,-8.034424 8.9423682,-7.562628 4.597893,0.282746 5.568777,-0.03657 4.957162,-1.63042 -0.418317,-1.090117 -3.378128,-2.754901 -6.577357,-3.699521 -5.5214829,-1.6303 -7.2479288,-3.722842 -7.3039669,-8.852787 -0.020656,-1.890913 8.7319039,-2.355696 9.8640749,-0.523807 0.691252,1.11847 7.472618,2.599754 24.69649,5.394567 l 8.578772,1.392025 5.351022,-5.298058 c 2.943063,-2.913934 5.924642,-5.29806 6.625731,-5.29806 0.701089,0 4.446765,-3 8.323724,-6.666667 C 75.33498,11 79.649961,7.9999998 81.046868,7.9999998 c 4.931213,0 6.95313,4.1985522 6.95313,14.4383212 0,6.702214 0.498424,9.594336 1.666667,9.670878 7.218416,0.47295 17.935725,-0.569602 19.158205,-1.863662 2.10121,-2.224247 4.10215,-9.123828 3.4766,-11.98792 -0.28939,-1.324976 -2.01721,-2.975944 -3.83961,-3.668816 -2.40782,-0.915455 -3.19706,-2.079123 -2.88765,-4.257617 0.38744,-2.7278414 1.14633,-2.9978508 8.42579,-2.9978508 7.75152,0 8.01319,0.1147893 8.42471,3.6957998 0.25834,2.248099 1.8252,4.592515 4,5.985 1.96641,1.25906 6.73875,4.837897 10.60521,7.952972 3.86645,3.115074 8.66645,6.05241 10.66666,6.527412 5.45544,1.295536 8.30342,4.420886 8.30342,9.112133 0,5.301509 -2.08455,7.393349 -7.36759,7.393349 -4.40135,0 -9.00231,-3.822507 -10.47453,-8.702317 -0.44842,-1.486273 -2.12874,-3.586273 -3.73407,-4.666667 -1.60532,-1.080392 -5.44968,-4.237549 -8.543,-7.015904 -3.7513,-3.369333 -5.82895,-4.479367 -6.23901,-3.333333 -0.33814,0.945021 -0.10644,2.709019 0.51487,3.919995 1.5188,2.960218 -1.11159,10.184492 -3.92663,10.784334 -1.22652,0.261355 1.54761,0.890089 6.16475,1.397188 11.00627,1.208817 13.88055,2.796039 13.35178,7.373048 l -0.41324,3.576989 h -13.00184 -13.00184 l 0.002,7.666667 c 0.001,5.50092 -0.50036,7.666666 -1.77594,7.666666 -0.97778,0 -2.17778,-0.4 -2.66667,-0.888889 z"
       id="path676" />
  </g>
</svg>
