<?xml version="1.0" encoding="UTF-8" standalone="no"?>
<!-- Created with Inkscape (http://www.inkscape.org/) -->

<svg
   version="1.1"
   id="svg62"
   width="57.333332"
   height="148"
   viewBox="0 0 57.333332 148"
   sodipodi:docname="0107.svg"
   inkscape:version="1.1.2 (0a00cf5339, 2022-02-04)"
   xmlns:inkscape="http://www.inkscape.org/namespaces/inkscape"
   xmlns:sodipodi="http://sodipodi.sourceforge.net/DTD/sodipodi-0.dtd"
   xmlns="http://www.w3.org/2000/svg"
   xmlns:svg="http://www.w3.org/2000/svg">
  <defs
     id="defs66" />
  <sodipodi:namedview
     id="namedview64"
     pagecolor="#ffffff"
     bordercolor="#666666"
     borderopacity="1.0"
     inkscape:pageshadow="2"
     inkscape:pageopacity="0.0"
     inkscape:pagecheckerboard="0"
     showgrid="false"
     inkscape:zoom="5.8986486"
     inkscape:cx="-17.292096"
     inkscape:cy="73.915235"
     inkscape:window-width="2560"
     inkscape:window-height="1299"
     inkscape:window-x="0"
     inkscape:window-y="32"
     inkscape:window-maximized="1"
     inkscape:current-layer="g68" />
  <g
     inkscape:groupmode="layer"
     inkscape:label="Image"
     id="g68">
    <path
       style="fill:#000000;stroke-width:1.33333"
       d="m 10.333333,139.91171 c -2.8431396,-1.67852 -2.949727,-4.1855 -0.3885291,-9.13831 1.9259321,-3.72434 4.5276251,-18.56423 7.4486141,-42.486421 0.831384,-6.80883 1.591623,-21.80883 1.689419,-33.333334 C 19.284888,31.143764 17.849356,25.809611 8.9909323,17.45412 4.3464419,13.073319 3.7914199,10.006517 7.2291952,7.7195531 9.4565203,6.2378357 49.290908,6.5501389 52.133797,8.0716069 c 3.722475,1.9922081 3.208175,3.3800701 -3.878758,10.4670041 -5.242605,5.242605 -6.726196,7.817269 -8.136912,14.121012 -3.452301,15.426506 -0.660009,58.349421 5.879009,90.371697 1.92783,9.4408 2.592224,15.46108 1.799079,16.30201 -1.715787,1.81918 -34.503773,2.32538 -37.462882,0.57838 z"
       id="path537" />
  </g>
</svg>
