<?xml version="1.0" encoding="UTF-8" standalone="no"?>
<!-- Created with Inkscape (http://www.inkscape.org/) -->

<svg
   version="1.1"
   id="svg72"
   width="64"
   height="160"
   viewBox="0 0 64 160"
   sodipodi:docname="0108.svg"
   inkscape:version="1.1.2 (0a00cf5339, 2022-02-04)"
   xmlns:inkscape="http://www.inkscape.org/namespaces/inkscape"
   xmlns:sodipodi="http://sodipodi.sourceforge.net/DTD/sodipodi-0.dtd"
   xmlns="http://www.w3.org/2000/svg"
   xmlns:svg="http://www.w3.org/2000/svg">
  <defs
     id="defs76" />
  <sodipodi:namedview
     id="namedview74"
     pagecolor="#ffffff"
     bordercolor="#666666"
     borderopacity="1.0"
     inkscape:pageshadow="2"
     inkscape:pageopacity="0.0"
     inkscape:pagecheckerboard="0"
     showgrid="false"
     inkscape:zoom="5.45625"
     inkscape:cx="-17.777778"
     inkscape:cy="79.908362"
     inkscape:window-width="2560"
     inkscape:window-height="1299"
     inkscape:window-x="0"
     inkscape:window-y="32"
     inkscape:window-maximized="1"
     inkscape:current-layer="g78" />
  <g
     inkscape:groupmode="layer"
     inkscape:label="Image"
     id="g78">
    <path
       style="fill:#000000;stroke-width:1.33333"
       d="m 25.357437,152.04311 c -1.5735,-0.99494 -1.994954,-4.81387 -2.069488,-18.75224 -0.05519,-10.32132 0.481992,-18.2726 1.309228,-19.3789 2.169763,-2.90171 8.992984,-3.71447 12.067006,-1.43739 2.431092,1.80083 2.659018,3.48811 2.60516,19.28531 -0.04209,12.347 -0.566184,17.92291 -1.827443,19.44263 -1.935961,2.33269 -8.952809,2.82079 -12.084463,0.84059 z M 17.332659,66.333333 C 11.488353,62.344072 8,55.446305 8,47.879205 c 0,-4.976357 0.888064,-7.325461 4.614177,-12.205404 2.537798,-3.323653 6.481618,-6.693998 8.764043,-7.489656 3.244709,-1.131112 4.055919,-2.108725 3.719156,-4.482064 -0.395979,-2.790646 -1.106408,-3.035414 -8.810195,-3.035414 -5.996536,0 -8.7397263,-0.568758 -9.6462494,-2 C 4.8457177,15.832336 5.0364693,12.915665 7.2115936,9.9410051 8.9353668,7.5836048 10.967879,7.3661539 31.922953,7.2972296 c 19.905703,-0.065473 23.097523,0.2170832 24.89555,2.2038807 1.134348,1.2534407 1.864236,3.6784617 1.621974,5.3889367 -0.398084,2.810637 -1.274596,3.174116 -9.107144,3.77662 -8.042281,0.618637 -8.694738,0.906814 -9.056314,4 -0.308988,2.643316 0.60066,3.866608 4.394318,5.90947 7.120687,3.834447 10.79819,8.100331 12.633243,14.6545 2.087407,7.455486 0.328623,13.368432 -5.663029,19.038824 -6.43994,6.094646 -9.187328,7.063872 -20.023384,7.063872 -8.065672,0 -10.701367,-0.553504 -14.285508,-3 z"
       id="path398" />
  </g>
</svg>
