<?xml version="1.0" encoding="UTF-8" standalone="no"?>
<!-- Created with Inkscape (http://www.inkscape.org/) -->

<svg
   version="1.1"
   id="svg82"
   width="157.33333"
   height="156"
   viewBox="0 0 157.33333 156"
   sodipodi:docname="0109.svg"
   inkscape:version="1.1.2 (0a00cf5339, 2022-02-04)"
   xmlns:inkscape="http://www.inkscape.org/namespaces/inkscape"
   xmlns:sodipodi="http://sodipodi.sourceforge.net/DTD/sodipodi-0.dtd"
   xmlns="http://www.w3.org/2000/svg"
   xmlns:svg="http://www.w3.org/2000/svg">
  <defs
     id="defs86" />
  <sodipodi:namedview
     id="namedview84"
     pagecolor="#ffffff"
     bordercolor="#666666"
     borderopacity="1.0"
     inkscape:pageshadow="2"
     inkscape:pageopacity="0.0"
     inkscape:pagecheckerboard="0"
     showgrid="false"
     inkscape:zoom="5.5961538"
     inkscape:cx="30.199313"
     inkscape:cy="77.910653"
     inkscape:window-width="2560"
     inkscape:window-height="1299"
     inkscape:window-x="0"
     inkscape:window-y="32"
     inkscape:window-maximized="1"
     inkscape:current-layer="g88" />
  <g
     inkscape:groupmode="layer"
     inkscape:label="Image"
     id="g88">
    <path
       style="fill:#000000;stroke-width:1.33333"
       d="m 45.666666,147.70601 c -2.501442,-1.2064 -3,-2.5243 -3,-7.93028 0,-10.46426 9.644704,-23.26793 20.666666,-27.43569 7.263116,-2.74643 17.796626,-3.33589 27.05827,-1.51422 10.454798,2.05636 11.161178,2.49537 18.217468,11.32209 3.84524,4.81003 5.82385,9.55688 7.32925,17.58356 1.80782,9.63909 1.89653,9.615 -35.03356,9.51162 -20.258903,-0.0567 -33.352849,-0.62786 -35.238094,-1.53708 z M 45.962008,45.646249 C 45.20778,45.107479 41.924316,39.153965 38.665421,32.41622 34.09071,22.958035 32.351895,20.488001 31.036745,21.57948 c -0.936878,0.777539 -1.703412,3.182133 -1.703412,5.343545 0,4.313183 -6.596521,14.898699 -10.629311,17.056983 C 15.2886,45.807887 10.221464,45.688131 8.2666665,43.733333 5.7173272,41.183995 6.2943955,27.949955 9.1562054,23.333333 13.610742,16.147352 20.814654,9.9108335 26.696301,8.1486493 33.753715,6.0341967 130.66057,5.6731627 136.03017,7.7413176 c 4.10797,1.5822307 11.48771,8.8990944 14.19631,14.0753734 1.09844,2.099181 2.32293,6.973092 2.72109,10.830914 0.61447,5.953559 0.29512,7.443035 -2.11183,9.849976 -4.74489,4.744892 -10.14816,3.761843 -14.82738,-2.697632 -2.2046,-3.043362 -4.01171,-6.193362 -4.0158,-7 -0.004,-0.806638 -0.64354,-3.757344 -1.42099,-6.557122 -1.86727,-6.724398 -3.47992,-5.310446 -10.45736,9.1689 l -5.42364,11.25494 -33.678617,-0.02042 c -18.523241,-0.0112 -34.295717,-0.461229 -35.049945,-1 z M 141.25342,25.903727 c -2.38621,-2.875223 -2.89406,-1.507316 -1.08088,2.911356 1.26015,3.07091 1.6954,3.365661 2.14742,1.454198 0.3118,-1.318562 -0.16814,-3.283062 -1.06654,-4.365554 z M 19.060157,27 c 0.976617,-5.083923 0.24672,-5.225156 -2.152183,-0.41644 -1.601774,3.210833 -1.6647,4.083107 -0.29455,4.083107 0.958304,0 2.059333,-1.65 2.446733,-3.666667 z"
       id="path259" />
  </g>
</svg>
