<?xml version="1.0" encoding="UTF-8" standalone="no"?>
<!-- Created with Inkscape (http://www.inkscape.org/) -->

<svg
   version="1.1"
   id="svg92"
   width="93.333336"
   height="152"
   viewBox="0 0 93.333336 152"
   sodipodi:docname="0110.svg"
   inkscape:version="1.1.2 (0a00cf5339, 2022-02-04)"
   xmlns:inkscape="http://www.inkscape.org/namespaces/inkscape"
   xmlns:sodipodi="http://sodipodi.sourceforge.net/DTD/sodipodi-0.dtd"
   xmlns="http://www.w3.org/2000/svg"
   xmlns:svg="http://www.w3.org/2000/svg">
  <defs
     id="defs96" />
  <sodipodi:namedview
     id="namedview94"
     pagecolor="#ffffff"
     bordercolor="#666666"
     borderopacity="1.0"
     inkscape:pageshadow="2"
     inkscape:pageopacity="0.0"
     inkscape:pagecheckerboard="0"
     showgrid="false"
     inkscape:zoom="5.7434211"
     inkscape:cx="46.662085"
     inkscape:cy="75.912944"
     inkscape:window-width="2560"
     inkscape:window-height="1299"
     inkscape:window-x="0"
     inkscape:window-y="32"
     inkscape:window-maximized="1"
     inkscape:current-layer="g98" />
  <g
     inkscape:groupmode="layer"
     inkscape:label="Image"
     id="g98">
    <path
       style="fill:#000000;stroke-width:1.33333"
       d="m 25.384465,145.67215 c -4.738546,-0.26439 -9.388546,-1.12226 -10.333334,-1.90636 -2.992341,-2.48342 -1.871384,-5.17102 3.006884,-7.2093 2.598575,-1.08574 5.057251,-2.84076 5.463726,-3.90001 0.430052,-1.1207 -1.888378,-5.00135 -5.545202,-9.2817 C 7.6945154,111.33954 6.1845964,101.51601 13.975844,97.346261 c 2.782084,-1.488926 3.90419,-1.277726 8.936207,1.681952 3.165039,1.861577 7.209205,4.941787 8.987035,6.844907 7.147962,7.65169 12.135689,1.25177 9.432207,-12.102788 -1.739736,-8.59388 -6.504411,-20.436999 -8.222131,-20.436999 -0.605918,0 -4.769363,2.7 -9.252095,6 C 15.884815,85.202171 12.827642,86.290276 9.8662723,84.312916 4.7959264,80.927356 3.8875068,68.293857 7.8513586,56.291273 9.2362725,52.09774 11.665151,44.166667 13.248866,38.666667 17.251344,24.766672 25.199579,9.3181845 29.114431,7.8297603 c 1.721327,-0.654447 7.01651,-1.1056218 11.767073,-1.0026104 4.898767,0.1062249 9.289776,-0.465095 10.144609,-1.3199283 3.971751,-3.9717513 8.973889,0.4925499 8.973889,8.0090054 0,2.929162 -0.546339,6.346593 -1.214086,7.594289 -0.852061,1.592091 -0.239204,4.319711 2.055284,9.147364 l 3.269368,6.878825 -2.627437,4.902228 c -3.069973,5.727906 -2.434548,8.627734 1.890556,8.627734 4.355272,0 10.86998,5.920562 14.587854,13.257433 1.740075,3.433872 4.145243,7.057952 5.344817,8.053511 5.506721,4.570172 7.761862,17.813745 4.894906,28.745889 -0.761068,2.90208 -2.025296,11.17099 -2.809395,18.37536 -2.145409,19.71223 -6.740069,25.72135 -13.295094,17.38799 -3.645168,-4.63408 -3.504561,-6.48432 1.23656,-16.27181 2.320595,-4.79059 4.000001,-10.4114 4.000001,-13.38763 0,-2.82156 0.602205,-8.305521 1.338234,-12.186585 1.213092,-6.396609 1.037983,-7.56695 -1.872569,-12.51532 -4.03058,-6.852581 -8.010963,-11.458838 -9.901871,-11.458838 -1.485701,0 -2.908656,4.454617 -5.462864,17.10172 -1.936003,9.586069 -1.807487,14.683593 0.600873,23.833223 3.347014,12.71569 3.849659,21.83794 1.453639,26.38132 -1.75909,3.33563 -3.567622,4.35314 -11.127951,6.26071 -8.978404,2.26539 -10.517086,2.34687 -26.976362,1.42851 z m 3.701198,-87.056401 c 4.950861,-5.641188 5.187383,-6.273181 3.492975,-9.333333 C 30.236524,45.052488 30.26872,40.194772 32.666668,36 c 1.048028,-1.833333 1.926766,-4.524509 1.952753,-5.980392 0.03875,-2.170531 -0.925651,-1.674163 -5.357087,2.757273 -4.551604,4.551606 -5.912719,7.283468 -8.626335,17.313726 -1.7721,6.550166 -3.240151,13.278556 -3.262333,14.951976 -0.03715,2.802232 0.214109,2.90756 3.180608,1.333333 1.771517,-0.940087 5.610643,-4.432163 8.531389,-7.760167 z"
       id="path120" />
  </g>
</svg>
