<?xml version="1.0" encoding="UTF-8" standalone="no"?>
<!-- Created with Inkscape (http://www.inkscape.org/) -->

<svg
   version="1.1"
   id="svg2"
   width="58.666668"
   height="157.33333"
   viewBox="0 0 58.666668 157.33333"
   sodipodi:docname="111.svg"
   inkscape:version="1.1.2 (0a00cf5339, 2022-02-04)"
   xmlns:inkscape="http://www.inkscape.org/namespaces/inkscape"
   xmlns:sodipodi="http://sodipodi.sourceforge.net/DTD/sodipodi-0.dtd"
   xmlns="http://www.w3.org/2000/svg"
   xmlns:svg="http://www.w3.org/2000/svg">
  <defs
     id="defs6" />
  <sodipodi:namedview
     id="namedview4"
     pagecolor="#ffffff"
     bordercolor="#666666"
     borderopacity="1.0"
     inkscape:pageshadow="2"
     inkscape:pageopacity="0.0"
     inkscape:pagecheckerboard="0"
     showgrid="false"
     inkscape:zoom="5.548729"
     inkscape:cx="-19.644138"
     inkscape:cy="78.576553"
     inkscape:window-width="2560"
     inkscape:window-height="1299"
     inkscape:window-x="0"
     inkscape:window-y="32"
     inkscape:window-maximized="1"
     inkscape:current-layer="g8" />
  <g
     inkscape:groupmode="layer"
     inkscape:label="Image"
     id="g8">
    <path
       style="fill:#000000;stroke-width:1.33333"
       d="M 19.333334,150.44765 C 10.526435,145.58873 6.7017694,138.23922 4.0207789,121.02299 2.7888207,113.11185 2.9556599,111.0538 5.4259393,103.68966 8.7095735,93.900813 10.873566,91.125951 16.122967,89.97299 18.238516,89.508338 20.264562,88.650618 20.62529,88.066949 20.986018,87.483278 21.435012,79.102682 21.623055,69.443401 21.993854,50.39652 21.239382,48.218295 15.221107,50.960404 10.626465,53.053863 5.5232952,51.221108 4.4906336,47.106658 3.0605621,41.408799 5.3679808,39.381594 13.793195,38.933803 c 5.674541,-0.301596 7.839947,-1.002644 8.83397,-2.859993 1.910422,-3.569657 -0.734125,-5.173409 -9.33425,-5.66064 -6.8866981,-0.390157 -7.3168479,-0.621896 -7.7225917,-4.160467 -0.6534331,-5.698717 1.7806191,-7.586037 9.7836187,-7.586037 7.194757,0 9.446955,-1.694798 7.834875,-5.895812 -0.40012,-1.042697 -0.04205,-3.1765765 0.795717,-4.7419547 1.203925,-2.2495542 2.539547,-2.7604901 6.371845,-2.4375209 4.649883,0.3918715 4.907683,0.6818991 6.289087,7.0752876 l 1.440451,6.666667 5.09034,-0.308905 c 6.937615,-0.421008 10.157078,1.541832 10.157078,6.192557 0,4.946048 -2.079421,6.506737 -9.359493,7.024674 -5.369873,0.382038 -5.973841,0.762014 -5.973841,3.75834 0,3.035498 0.57152,3.369875 6.396377,3.742296 5.178755,0.331112 6.664304,0.996999 7.803842,3.498009 2.525992,5.543948 -0.492264,8.759695 -8.221728,8.759695 -8.042254,0 -8.061093,0.05169 -7.624198,20.921811 l 0.312373,14.921812 4.863973,1.917495 c 5.787493,2.281568 8.7034,6.350553 11.122457,15.520773 3.977074,15.07638 -3.675896,39.38632 -14.095356,44.77444 -4.404823,2.27781 -15.399458,2.50163 -19.224407,0.39132 z"
       id="path1502" />
  </g>
</svg>
