<?xml version="1.0" encoding="UTF-8" standalone="no"?>
<!-- Created with Inkscape (http://www.inkscape.org/) -->

<svg
   version="1.1"
   id="svg22"
   width="85.333336"
   height="158.66667"
   viewBox="0 0 85.333336 158.66667"
   sodipodi:docname="113.svg"
   inkscape:version="1.1.2 (0a00cf5339, 2022-02-04)"
   xmlns:inkscape="http://www.inkscape.org/namespaces/inkscape"
   xmlns:sodipodi="http://sodipodi.sourceforge.net/DTD/sodipodi-0.dtd"
   xmlns="http://www.w3.org/2000/svg"
   xmlns:svg="http://www.w3.org/2000/svg">
  <defs
     id="defs26" />
  <sodipodi:namedview
     id="namedview24"
     pagecolor="#ffffff"
     bordercolor="#666666"
     borderopacity="1.0"
     inkscape:pageshadow="2"
     inkscape:pageopacity="0.0"
     inkscape:pagecheckerboard="0"
     showgrid="false"
     inkscape:zoom="5.5021007"
     inkscape:cx="-6.7247043"
     inkscape:cy="79.242461"
     inkscape:window-width="2560"
     inkscape:window-height="1299"
     inkscape:window-x="0"
     inkscape:window-y="32"
     inkscape:window-maximized="1"
     inkscape:current-layer="g28" />
  <g
     inkscape:groupmode="layer"
     inkscape:label="Image"
     id="g28">
    <path
       style="fill:#000000;stroke-width:1.33333"
       d="m 6.6512419,151.31475 c -2.4827515,-2.99153 -0.6111482,-13.57489 3.3097047,-18.7154 3.7412964,-4.90509 15.4817564,-13.91139 18.2176904,-13.97508 1.001751,-0.0233 2.986041,-0.92333 4.409537,-2 5.574142,-4.21607 21.91094,-1.46361 33.050367,5.5684 9.532488,6.0176 17.468728,23.79007 13.018076,29.15277 -2.481733,2.99031 -69.521885,2.96174 -72.0053751,-0.0307 z M 29.670673,75.347195 C 17.767241,70.173316 5.3333335,54.618324 5.3333335,44.900844 c 0,-2.850426 0.9419568,-8.869198 2.0932374,-13.37505 C 9.1725644,24.692369 10.750675,22.080272 16.939654,15.779692 25.201638,7.3687272 30.396406,5.3333334 43.601037,5.3333334 c 8.650717,0 17.933341,4.0008697 25.153796,10.8414456 5.164791,4.893061 9.303752,17.773282 8.942611,27.828909 -0.297442,8.281917 -5.620606,19.624268 -11.958097,25.479755 -7.133717,6.591155 -26.974278,9.816672 -36.068674,5.863752 z m 4.976159,-7.680527 C 34.611556,64.7026 26.107899,56.117172 22.333334,55.234764 c -6.840964,-1.599263 -2.617679,7.135623 5.532891,11.443501 5.734788,3.03105 6.806777,3.187312 6.780607,0.988403 z m 15.758374,-5.30936 c 0.238222,-1.227779 -2.096964,-3.885305 -5.666667,-6.448872 -3.33953,-2.398268 -6.071871,-4.722334 -6.071871,-5.16459 0,-0.442256 -2.1,-1.935026 -4.666667,-3.317268 -2.566667,-1.382241 -4.666667,-2.997052 -4.666667,-3.588469 0,-1.177799 -9.326836,-7.838108 -10.97618,-7.838108 -0.563101,0 -0.991472,1.35 -0.951935,3 0.04921,2.054045 2.466656,4.785573 7.666667,8.662769 4.17713,3.114523 10.894782,8.338618 14.928115,11.609099 7.517379,6.095567 9.695821,6.741536 10.405205,3.085439 z m 13.574379,-7.357307 c -0.0112,-1.283333 -0.46123,-2.933333 -1,-3.666667 C 61.775354,49.694226 55.255598,45.269357 50.368404,42.774298 48.371027,41.754577 44.573171,38.938445 41.928725,36.516227 39.28428,34.09401 35.965261,31.745491 34.553128,31.297298 33.140994,30.849105 30.176806,28.96039 27.966041,27.100154 24.692025,24.34525 23.580473,24.021659 21.973235,25.355547 c -1.085278,0.900702 -1.973234,2.091476 -1.973234,2.646164 0,2.089315 30.531807,24.149485 38.000001,27.456169 5.307061,2.349803 6.003684,2.29646 5.979583,-0.457879 z m 4.670053,-10.972444 c 1.111866,-1.799036 -1.683893,-6.694223 -3.823231,-6.694223 -0.960541,0 -2.865838,-1.236923 -4.233993,-2.748717 -1.368155,-1.511794 -3.522274,-2.478132 -4.78693,-2.147416 -1.423705,0.372306 -4.0779,-1.246707 -6.969512,-4.251284 C 42.764515,21.87727 35.3601,16 33.483673,16 c -3.4747,0 -0.964268,4.605338 6.182995,11.342582 5.284631,4.981465 8.782411,7.241956 11.257728,7.275468 2.106842,0.02852 4.409526,1.217139 5.571331,2.875848 1.868319,2.667399 8.415551,7.52933 10.425586,7.741971 0.506721,0.0536 1.284468,-0.490135 1.728325,-1.208312 z M 64.932978,24.45347 c 0.919485,-2.396142 -5.391692,-8.434838 -8.827988,-8.446847 -1.042258,-0.0036 -2.842258,-0.835655 -4,-1.848915 -3.290094,-2.879501 -8.104989,-3.994898 -8.104989,-1.877566 0,3.353417 4.163097,7.751433 10.422934,11.01109 7.459282,3.884238 9.383846,4.097063 10.510043,1.162238 z"
       id="path1085" />
  </g>
</svg>
