<?xml version="1.0" encoding="UTF-8" standalone="no"?>
<!-- Created with Inkscape (http://www.inkscape.org/) -->

<svg
   version="1.1"
   id="svg32"
   width="144"
   height="150.66667"
   viewBox="0 0 144 150.66667"
   sodipodi:docname="114.svg"
   inkscape:version="1.1.2 (0a00cf5339, 2022-02-04)"
   xmlns:inkscape="http://www.inkscape.org/namespaces/inkscape"
   xmlns:sodipodi="http://sodipodi.sourceforge.net/DTD/sodipodi-0.dtd"
   xmlns="http://www.w3.org/2000/svg"
   xmlns:svg="http://www.w3.org/2000/svg">
  <defs
     id="defs36" />
  <sodipodi:namedview
     id="namedview34"
     pagecolor="#ffffff"
     bordercolor="#666666"
     borderopacity="1.0"
     inkscape:pageshadow="2"
     inkscape:pageopacity="0.0"
     inkscape:pagecheckerboard="0"
     showgrid="false"
     inkscape:zoom="5.7942476"
     inkscape:cx="25.197404"
     inkscape:cy="75.247043"
     inkscape:window-width="2560"
     inkscape:window-height="1299"
     inkscape:window-x="0"
     inkscape:window-y="32"
     inkscape:window-maximized="1"
     inkscape:current-layer="g38" />
  <g
     inkscape:groupmode="layer"
     inkscape:label="Image"
     id="g38">
    <path
       style="fill:#000000;stroke-width:1.33333"
       d="m 93.732296,145.46335 c -4.547237,-0.43817 -8.989155,-1.5186 -9.870928,-2.40095 -1.1976,-1.19837 -2.303176,-1.22965 -4.369776,-0.1236 -3.597092,1.92511 -24.541293,1.62315 -26.9655,-0.38876 -1.022684,-0.84878 -1.859425,-2.27676 -1.859425,-3.17332 0,-2.14218 4.363698,-6.04137 6.771654,-6.05082 1.042256,-0.004 4.145012,-0.63229 6.895012,-1.39601 5.861884,-1.62792 6.218936,-3.50196 2.338552,-12.27422 -2.490792,-5.63085 -2.529874,-6.3898 -0.609509,-11.83616 1.128568,-3.20073 4.227484,-8.048509 6.88648,-10.772844 4.757597,-4.874504 4.808352,-5.040741 3.189101,-10.445321 C 74.963352,82.680866 73.287589,80.473732 70.281621,78.888014 62.692125,74.884379 57.743976,69.043211 56.69816,62.853072 l -0.971432,-5.749852 -7.973639,0.925439 -7.973638,0.925438 -8.223059,-9.042764 C 27.033709,44.937812 21.233333,38.884105 18.666667,36.458651 4.4774119,23.050058 5.4546041,24.574765 5.7387337,16.287278 5.9865084,9.0601883 6.1873787,8.6450701 9.6286204,8.2484416 12.259113,7.945258 14.355628,8.9538509 17.250349,11.915108 19.446559,14.161799 21.443199,16 21.687328,16 c 0.244128,0 0.205604,-2.040921 -0.08561,-4.535382 -0.434113,-3.7185012 -0.01391,-4.6990187 2.333019,-5.443904 6.669372,-2.1167763 12.697887,6.082787 15.587151,21.200551 1.728546,9.04443 5.56865,15.445403 9.266088,15.445403 2.373765,0 3.086538,-3.093018 1.075414,-4.666667 -0.9372,-0.733334 -2.874816,-4.463851 -4.305812,-8.290039 -2.811025,-7.516096 -2.388893,-8.651488 3.775756,-10.155515 1.833334,-0.447291 4.355427,-2.630023 5.604654,-4.850517 C 57.196461,10.689499 60.425873,9.4530097 62,12 c 0.453225,0.733334 2.848203,1.333334 5.322172,1.333334 3.325372,0 4.718537,-0.694448 5.343511,-2.663569 1.311186,-4.1311823 6.52672,-4.7197125 11.976656,-1.3514668 2.5986,1.6060228 5.317137,4.0269698 6.041194,5.3798838 2.075306,3.877745 1.622522,15.387963 -0.680513,17.299312 -1.734492,1.4395 -1.459867,2.269085 2.089317,6.311382 5.73879,6.53612 6.867712,10.242582 6.659548,21.864519 -0.167009,9.324196 0.127894,10.539973 3.532945,14.565012 2.04334,2.415391 4.3815,5.937364 5.1959,7.826607 1.4774,3.427264 1.48413,3.422733 2.99289,-2.014419 2.23376,-8.049859 9.44555,-10.729351 17.57002,-6.528024 6.37325,3.295735 8.30947,8.637201 7.24573,19.988874 -0.76393,8.152295 -0.51434,10.427215 1.52224,13.874885 2.2314,3.77745 2.27162,4.59935 0.47887,9.78541 -1.66487,4.81608 -2.56479,5.72105 -6.02592,6.05968 -2.86838,0.28063 -5.13024,-0.58566 -7.66667,-2.93634 -3.89814,-3.61268 -4.58611,-8.93333 -2.38204,-18.42239 0.86335,-3.716925 0.68823,-5.345724 -0.69848,-6.496589 -1.43918,-1.194414 -1.8507,-1.090112 -1.8507,0.469056 0,1.102754 -2.25,3.695363 -5,5.761353 -6.02052,4.52304 -9.66239,8.44793 -9.67869,10.43084 -0.007,0.80446 1.86557,3.00611 4.1604,4.89255 l 4.17243,3.42991 -1.62372,9.90343 c -1.69164,10.31772 -4.26849,16.04719 -7.06116,15.70011 -0.89976,-0.11187 -5.356397,-0.56183 -9.903634,-1 z M 96,130.06061 c 0,-2.22119 -5.369268,-7.9391 -9.562181,-10.18308 -2.718639,-1.45497 -2.801188,-1.3038 -1.985212,3.63552 0.468258,2.83449 0.857981,5.90362 0.866052,6.82029 C 85.327931,131.38645 87.296715,132 90.666667,132 94.444444,132 96,131.43435 96,130.06061 Z"
       id="path1224" />
  </g>
</svg>
