<?xml version="1.0" encoding="UTF-8" standalone="no"?>
<!-- Created with Inkscape (http://www.inkscape.org/) -->

<svg
   version="1.1"
   id="svg42"
   width="158.66667"
   height="154.66667"
   viewBox="0 0 158.66667 154.66667"
   sodipodi:docname="115.svg"
   inkscape:version="1.1.2 (0a00cf5339, 2022-02-04)"
   xmlns:inkscape="http://www.inkscape.org/namespaces/inkscape"
   xmlns:sodipodi="http://sodipodi.sourceforge.net/DTD/sodipodi-0.dtd"
   xmlns="http://www.w3.org/2000/svg"
   xmlns:svg="http://www.w3.org/2000/svg">
  <defs
     id="defs46" />
  <sodipodi:namedview
     id="namedview44"
     pagecolor="#ffffff"
     bordercolor="#666666"
     borderopacity="1.0"
     inkscape:pageshadow="2"
     inkscape:pageopacity="0.0"
     inkscape:pagecheckerboard="0"
     showgrid="false"
     inkscape:zoom="5.6443964"
     inkscape:cx="31.181368"
     inkscape:cy="77.244752"
     inkscape:window-width="2560"
     inkscape:window-height="1299"
     inkscape:window-x="0"
     inkscape:window-y="32"
     inkscape:window-maximized="1"
     inkscape:current-layer="g48" />
  <g
     inkscape:groupmode="layer"
     inkscape:label="Image"
     id="g48">
    <path
       style="fill:#000000;stroke-width:1.33333"
       d="m 142.65804,146.75422 c -4.87385,-1.48256 -12.03167,-5.26679 -17.00672,-8.99119 -11.20421,-8.38763 -10.62139,-26.99605 1.02386,-32.69048 14.42641,-7.054385 29.46741,3.79458 23.29481,16.80238 -3.35871,7.07795 -5.81721,7.92542 -12.78892,4.40841 -5.23233,-2.63955 -5.84773,-3.44111 -5.84773,-7.61667 0,-3.87284 0.52872,-4.74156 3.10817,-5.10691 1.83561,-0.26 3.90455,0.55884 5.05331,2 1.87368,2.35061 1.93093,2.34581 1.55849,-0.13053 -0.48659,-3.2353 -7.64945,-5.45996 -9.86919,-3.0652 -0.83402,0.89979 -1.86756,3.97005 -2.29675,6.82282 -0.68918,4.58086 -0.27662,5.69057 3.53134,9.49853 2.97411,2.97411 6.16316,4.61571 10.27983,5.29165 6.92672,1.13736 10.6348,3.91383 10.6348,7.96296 0,5.40808 -3.51375,6.99267 -10.6753,4.81423 z M 12.873317,141.56168 c -1.794638,-1.98305 -2.20665,-5.41858 -2.20665,-18.4 0,-10.63686 0.53376,-16.49544 1.6,-17.56168 2.200623,-2.20062 30.599378,-2.20062 32.800001,0 1.068789,1.06879 1.6,6.9763 1.6,17.79335 0,20.75548 0.131677,20.60665 -18.231671,20.60665 -11.244814,0 -13.703701,-0.38528 -15.56168,-2.43832 z M 44.628677,45.64625 C 43.874449,45.10748 40.590985,39.153966 37.332089,32.416221 32.757378,22.958035 31.018563,20.488002 29.703413,21.57948 c -0.936878,0.777539 -1.703412,3.182134 -1.703412,5.343546 0,4.313183 -6.596522,14.898699 -10.629311,17.056983 C 13.955267,45.807888 8.8881311,45.688132 6.9333335,43.733334 4.3839941,41.183996 4.9610624,27.949955 7.8228724,23.333334 12.27741,16.147352 19.481322,9.9108337 25.362969,8.1486495 32.420383,6.0341968 129.32724,5.6731628 134.69684,7.7413178 c 4.10798,1.5822307 11.48771,8.8990942 14.19631,14.0753732 1.09844,2.099182 2.32293,6.973092 2.72109,10.830915 0.61447,5.953559 0.29512,7.443035 -2.11182,9.849976 -4.7449,4.744892 -10.14816,3.761843 -14.82739,-2.697632 -2.2046,-3.043363 -4.01171,-6.193363 -4.0158,-7 -0.004,-0.806639 -0.64353,-3.757344 -1.42099,-6.557123 -1.86727,-6.724397 -3.47992,-5.310445 -10.45736,9.1689 l -5.42364,11.254941 -33.678617,-0.02042 c -18.523242,-0.0112 -34.295718,-0.461229 -35.049946,-1 z M 140.11288,24.912887 c -1.72677,-1.726783 -2.00426,1.489426 -0.45825,5.311398 0.86987,2.150456 1.04273,2.065425 1.44621,-0.711398 0.25206,-1.734578 -0.19253,-3.804578 -0.98796,-4.6 z M 17.734143,26.611306 c 0.460583,-1.761271 0.156268,-2.577196 -0.839057,-2.249675 -0.858964,0.282651 -1.76221,1.883508 -2.007214,3.557462 -0.53989,3.68873 1.823643,2.60275 2.846271,-1.307787 z"
       id="path946" />
  </g>
</svg>
