<?xml version="1.0" encoding="UTF-8" standalone="no"?>
<!-- Created with Inkscape (http://www.inkscape.org/) -->

<svg
   version="1.1"
   id="svg2"
   width="156"
   height="156"
   viewBox="0 0 156 156"
   sodipodi:docname="116.svg"
   inkscape:version="1.1.2 (0a00cf5339, 2022-02-04)"
   xmlns:inkscape="http://www.inkscape.org/namespaces/inkscape"
   xmlns:sodipodi="http://sodipodi.sourceforge.net/DTD/sodipodi-0.dtd"
   xmlns="http://www.w3.org/2000/svg"
   xmlns:svg="http://www.w3.org/2000/svg">
  <defs
     id="defs6" />
  <sodipodi:namedview
     id="namedview4"
     pagecolor="#ffffff"
     bordercolor="#666666"
     borderopacity="1.0"
     inkscape:pageshadow="2"
     inkscape:pageopacity="0.0"
     inkscape:pagecheckerboard="0"
     showgrid="false"
     inkscape:zoom="5.5961538"
     inkscape:cx="29.484536"
     inkscape:cy="77.910653"
     inkscape:window-width="2560"
     inkscape:window-height="1299"
     inkscape:window-x="0"
     inkscape:window-y="32"
     inkscape:window-maximized="1"
     inkscape:current-layer="g8" />
  <g
     inkscape:groupmode="layer"
     inkscape:label="Image"
     id="g8">
    <path
       style="fill:#000000;stroke-width:1.33333"
       d="m 18.666667,150.95292 c -7.544355,-0.7998 -8.7460478,-2.81401 -9.0951838,-15.24481 -0.1705625,-6.0728 -0.6628653,-13.59689 -1.0940064,-16.72022 -0.5010917,-3.63008 -0.1887025,-6.39594 0.8659083,-7.66667 2.2381589,-2.69681 12.4604539,-2.6341 14.7215219,0.0903 0.970458,1.16933 2.233408,8.31251 2.887814,16.33333 0.639679,7.84033 1.287004,15.66846 1.4385,17.39588 0.355742,4.0563 -3.658101,6.45529 -9.724554,5.81217 z m 50.943961,-2.67563 c -2.459621,-2.45961 -2.672844,-4.1889 -2.404949,-19.50458 0.166662,-9.52818 0.899129,-17.41085 1.691458,-18.20318 0.768626,-0.76863 4.331207,-1.21121 7.916848,-0.98352 5.82668,0.37 6.561683,0.76815 6.917799,3.74732 0.219147,1.83334 1.388064,6.18442 2.597592,9.66908 1.708601,4.92249 1.842783,6.6921 0.601549,7.93333 C 85.000381,132.86629 84.792405,140 86.666667,140 c 1.638974,0 1.721506,5.32257 0.121706,7.84873 -0.643937,1.0168 -4.165104,2.13646 -7.824814,2.48811 -5.442818,0.52299 -7.14529,0.14809 -9.352927,-2.05955 z M 133,149.74379 c -2.74758,-0.71356 -2.59828,0.58892 -2.3378,-20.39568 0.11559,-9.3112 0.82187,-17.39312 1.60218,-18.33333 0.76751,-0.9248 4.0009,-1.68145 7.1853,-1.68145 4.41677,0 6.1268,0.62965 7.21077,2.65506 1.53724,2.87235 0.60644,34.68556 -1.0586,36.18136 -1.35716,1.21922 -9.87257,2.28284 -12.60185,1.57404 z M 19.689805,53.60884 C 16.219199,52.357312 11.448784,49.40138 9.0888836,47.040104 5.3399535,43.288988 4.7346456,41.689544 4.2951931,34.373437 3.4734181,20.692333 8.2804383,13.818893 22.666667,8.1045217 c 1.1,-0.4369324 28.217461,-0.7884332 60.261024,-0.7811128 l 58.261029,0.013307 4.40564,4.2750601 c 5.97464,5.79756 9.95001,18.864344 6.40564,21.054891 -0.73333,0.453225 -1.33333,2.838217 -1.33333,5.299984 0,3.585789 -0.99438,5.256226 -5,8.399466 -2.75,2.157942 -7.1,4.591098 -9.66667,5.407012 -2.91598,0.926958 -23.17397,1.709875 -54,2.086958 -27.133333,0.33191 -50.833333,0.92315 -52.666667,1.313866 C 27.5,55.564671 23.160412,54.860369 19.689805,53.60884 Z m 65.643528,-9.974308 c 18.699997,0.11952 35.049997,-0.08979 36.333337,-0.465131 2.78084,-0.813318 2.92117,-2.948754 0.41134,-6.259569 -1.68183,-2.218559 -5.089,-2.473352 -40.290933,-3.013012 C 60.637519,33.572589 41.775589,33.640575 39.87168,34.0479 37.379535,34.581073 36.019556,36.060764 35.015835,39.331185 33.286163,44.966972 34.202663,45.473603 44,44.297525 48.033333,43.813363 66.633333,43.515016 85.333333,43.634532 Z M 24.774211,37.948267 c 1.800528,-4.309268 1.749922,-5.219252 -0.583615,-10.4946 -3.266745,-7.38502 -4.896711,-8.317102 -7.526295,-4.303848 -3.360689,5.129058 -4.011461,12.27969 -1.470497,16.157692 3.214989,4.906693 7.198473,4.341526 9.580407,-1.359244 z m 114.285039,1.48568 c 3.46279,-2.626244 3.80239,-17.15745 0.47756,-20.434691 -2.25422,-2.221956 -2.45745,-2.209835 -4.28497,0.255584 -1.05517,1.423495 -1.91851,3.553495 -1.91851,4.733333 0,1.179838 -0.60787,2.753035 -1.35083,3.495994 -0.91222,0.912222 -0.87409,2.838756 0.11743,5.933333 0.80754,2.520375 1.69659,5.3325 1.97565,6.249167 0.64387,2.114985 1.96978,2.05307 4.98367,-0.23272 z M 123.66879,17.891013 c -0.78103,-0.781034 -94.336326,-1.538225 -94.335781,-0.763506 1.79e-4,0.253461 1.148724,2.073618 2.552326,4.044793 l 2.552001,3.583955 13.781332,-1.035938 C 55.7984,23.150552 65,23.200776 68.666667,23.831925 c 3.666666,0.631151 16.688353,0.93865 28.937082,0.68333 16.603341,-0.346088 22.528301,-0.04696 23.283831,1.175528 0.65728,1.06349 1.45233,0.109373 2.26234,-2.71499 0.68691,-2.395101 0.9204,-4.683253 0.51887,-5.08478 z"
       id="path184" />
  </g>
</svg>
