<?xml version="1.0" encoding="UTF-8" standalone="no"?>
<!-- Created with Inkscape (http://www.inkscape.org/) -->

<svg
   version="1.1"
   id="svg52"
   width="156"
   height="156"
   viewBox="0 0 156 156"
   sodipodi:docname="116.svg"
   inkscape:version="1.1.2 (0a00cf5339, 2022-02-04)"
   xmlns:inkscape="http://www.inkscape.org/namespaces/inkscape"
   xmlns:sodipodi="http://sodipodi.sourceforge.net/DTD/sodipodi-0.dtd"
   xmlns="http://www.w3.org/2000/svg"
   xmlns:svg="http://www.w3.org/2000/svg">
  <defs
     id="defs56" />
  <sodipodi:namedview
     id="namedview54"
     pagecolor="#ffffff"
     bordercolor="#666666"
     borderopacity="1.0"
     inkscape:pageshadow="2"
     inkscape:pageopacity="0.0"
     inkscape:pagecheckerboard="0"
     showgrid="false"
     inkscape:zoom="5.5961538"
     inkscape:cx="29.484536"
     inkscape:cy="77.910653"
     inkscape:window-width="2560"
     inkscape:window-height="1299"
     inkscape:window-x="0"
     inkscape:window-y="32"
     inkscape:window-maximized="1"
     inkscape:current-layer="g58" />
  <g
     inkscape:groupmode="layer"
     inkscape:label="Image"
     id="g58">
    <path
       style="fill:#000000;stroke-width:1.33333"
       d="m 18.666667,150.95292 c -7.544355,-0.7998 -8.7460478,-2.81401 -9.0951838,-15.24481 -0.1705625,-6.0728 -0.6628653,-13.59689 -1.0940064,-16.72022 -0.5010917,-3.63008 -0.1887025,-6.39594 0.8659083,-7.66667 2.2381589,-2.69681 12.4604539,-2.6341 14.7215219,0.0903 0.970458,1.16933 2.233408,8.31251 2.887814,16.33333 0.639679,7.84033 1.287004,15.66846 1.4385,17.39588 0.355742,4.0563 -3.658101,6.45529 -9.724554,5.81217 z m 50.943961,-2.67563 c -2.459621,-2.45961 -2.672844,-4.1889 -2.404949,-19.50458 0.166662,-9.52818 0.899129,-17.41085 1.691458,-18.20318 0.768626,-0.76863 4.331207,-1.21121 7.916848,-0.98352 5.82668,0.37 6.561683,0.76815 6.917799,3.74732 0.219147,1.83334 1.388064,6.18442 2.597592,9.66908 1.708601,4.92249 1.842783,6.6921 0.601549,7.93333 C 85.000381,132.86629 84.792405,140 86.666667,140 c 1.638974,0 1.721506,5.32257 0.121706,7.84873 -0.643937,1.0168 -4.165104,2.13646 -7.824814,2.48811 -5.442818,0.52299 -7.14529,0.14809 -9.352927,-2.05955 z M 133,149.74379 c -2.74758,-0.71356 -2.59828,0.58892 -2.3378,-20.39568 0.11559,-9.3112 0.82187,-17.39312 1.60218,-18.33333 0.76751,-0.9248 4.0009,-1.68145 7.1853,-1.68145 4.41677,0 6.1268,0.62965 7.21077,2.65506 1.53724,2.87235 0.60644,34.68556 -1.0586,36.18136 -1.35716,1.21922 -9.87257,2.28284 -12.60185,1.57404 z M 28.666667,51.080565 C 14.684981,50.000703 8,42.916264 8,29.178972 8,21.775135 11.773392,14.975591 17.617968,11.847668 19.56878,10.803625 38.69338,10.132838 78.563771,9.7100205 l 58.102899,-0.61617 4.98137,4.4530745 c 9.63676,8.614726 10.13017,22.222558 1.12464,31.016227 l -5.20369,5.081265 -46.451163,0.338727 C 65.569689,50.169444 42.566667,50.608429 40,50.958665 c -2.566667,0.350238 -7.666667,0.405092 -11.333333,0.121907 z m 98.477243,-7.030521 c 1.29083,-1.284005 -1.29393,-10.240024 -3.31599,-11.489729 -0.72098,-0.445588 -21.56258,-0.373207 -46.314665,0.160845 l -45.003799,0.971005 -2.254728,3.928638 c -2.679613,4.668956 -2.863117,7.229369 -0.588061,8.205144 2.72142,1.167221 96.231163,-0.536399 97.477243,-1.775903 z M 25.458305,41.849419 c 2.23287,-2.690444 2.171942,-14.970847 -0.101508,-20.459438 -1.199709,-2.896354 -2.578669,-4.056648 -4.821153,-4.056648 -4.340885,0 -7.546619,5.425055 -8.255262,13.970358 -0.487988,5.884484 -0.116563,7.526796 2.233821,9.877178 3.35162,3.35162 8.458444,3.663584 10.944102,0.66855 z m 114.008765,-0.20317 c 4.38509,-2.928008 6.24996,-17.299417 2.82386,-21.761792 -1.63465,-2.12907 -7.62564,-5.81439 -8.11596,-4.992484 -4.54226,7.614024 -5.29259,18.852942 -1.63165,24.440232 2.22049,3.38891 4.28208,4.07793 6.92375,2.314044 z m -14.6598,-18.443766 c 4.07329,-9.748766 6.78182,-9.242731 -47.403161,-8.856346 -26.697456,0.190376 -48.798613,0.603922 -49.113682,0.918992 -0.315071,0.315071 0.472205,3.309308 1.749502,6.653863 L 32.362288,28 h 45.220225 45.220227 z"
       id="path807" />
  </g>
</svg>
