<?xml version="1.0" encoding="UTF-8" standalone="no"?>
<!-- Created with Inkscape (http://www.inkscape.org/) -->

<svg
   version="1.1"
   id="svg62"
   width="112"
   height="160"
   viewBox="0 0 112 160"
   sodipodi:docname="117.svg"
   inkscape:version="1.1.2 (0a00cf5339, 2022-02-04)"
   xmlns:inkscape="http://www.inkscape.org/namespaces/inkscape"
   xmlns:sodipodi="http://sodipodi.sourceforge.net/DTD/sodipodi-0.dtd"
   xmlns="http://www.w3.org/2000/svg"
   xmlns:svg="http://www.w3.org/2000/svg">
  <defs
     id="defs66" />
  <sodipodi:namedview
     id="namedview64"
     pagecolor="#ffffff"
     bordercolor="#666666"
     borderopacity="1.0"
     inkscape:pageshadow="2"
     inkscape:pageopacity="0.0"
     inkscape:pagecheckerboard="0"
     showgrid="false"
     inkscape:zoom="5.45625"
     inkscape:cx="6.231386"
     inkscape:cy="79.908362"
     inkscape:window-width="2560"
     inkscape:window-height="1299"
     inkscape:window-x="0"
     inkscape:window-y="32"
     inkscape:window-maximized="1"
     inkscape:current-layer="g68" />
  <g
     inkscape:groupmode="layer"
     inkscape:label="Image"
     id="g68">
    <path
       style="fill:#000000;stroke-width:1.33333"
       d="m 53.486211,151.49607 c -2.050668,-2.18284 -3.219654,-5.50592 -3.75229,-10.66667 -0.860885,-8.34117 -2.129561,-9.43761 -4.164782,-3.59937 -2.861672,8.209 -11.903347,8.68337 -15.634628,0.82029 -3.123292,-6.58185 -4.457523,-7.30855 -15.427016,-8.40237 L 4.6666667,128.66667 4.2204791,123.33333 C 3.975076,120.4 4.1815609,113.59351 4.6793345,108.20781 5.8681131,95.345723 7.9477331,93.107569 18.400791,93.440337 c 10.734056,0.341714 25.079245,-1.432816 27.827386,-3.442306 2.113964,-1.545768 1.60154,-2.38851 -5.583874,-9.183326 -4.35129,-4.114754 -8.376331,-7.481372 -8.944536,-7.481372 -2.18073,0 -17.632956,-16.731001 -20.591909,-22.296028 C 7.7495579,44.721211 7.0271423,34.467395 9.2618472,24.835416 11.600853,14.753884 23.859671,6.6666667 36.802517,6.6666667 c 9.354878,0 16.337012,2.9928516 20.86415,8.9432973 5.964636,7.839885 4.302277,20.666232 -3.681335,28.404252 -3.806432,3.68934 -5.274037,4.202633 -12.619489,4.413657 -7.967116,0.228882 -8.471959,0.04765 -12.16286,-4.366178 -7.37909,-8.824423 -6.220714,-17.398444 2.99439,-22.16376 3.22848,-1.669512 4.884464,-1.833058 7.320776,-0.722999 4.232848,1.928615 4.154174,6.521855 -0.13012,7.597145 -1.803253,0.452588 -4.033754,1.732742 -4.956669,2.844786 -1.395787,1.681821 -1.069343,2.545466 1.940837,5.134716 3.122331,2.685714 4.173867,2.919341 7.66385,1.702726 2.224741,-0.775548 4.942161,-3.145038 6.038712,-5.265532 1.775173,-3.432808 1.769146,-4.289734 -0.05497,-7.817206 -2.29979,-4.447275 -10.707129,-10.704904 -14.38242,-10.704904 -3.9011,0 -12.385582,4.9084 -14.767029,8.542948 -1.466944,2.238838 -2.203673,6.203777 -2.203673,11.859752 0,7.746854 0.459049,9.137577 5.202732,15.762052 2.861502,3.996041 9.761502,10.757266 15.333333,15.024945 5.571831,4.267677 10.130601,8.18538 10.130601,8.706004 0,0.520624 2.295522,2.236744 5.101158,3.8136 4.678796,2.629631 5.34413,2.696827 8.035708,0.811572 C 69.336173,74.378424 88,28.274421 88,16.122979 88,13.448349 88.954657,9.8970527 90.12146,8.2312079 91.930869,5.6479136 93.234501,5.2610596 98.984135,5.6011995 107.24134,6.0896837 109.31658,8.4740853 106.40775,14.130741 105.31341,16.258833 102.5726,21.6 100.31705,26 96.040077,34.343267 90.008659,53.213972 87.958481,64.666667 c -2.396766,13.388817 -4.789482,21.436076 -7.730658,26 -2.053396,3.186324 -2.853031,6.126093 -2.52079,9.267398 0.376136,3.556315 -0.231202,5.221055 -2.675385,7.333335 -4.573795,3.95269 -9.820437,22.85158 -9.542001,34.37116 0.134518,5.56536 -0.42223,9.74195 -1.466322,11 -2.472558,2.97925 -7.140405,2.47313 -10.537114,-1.14249 z"
       id="path668" />
  </g>
</svg>
