<?xml version="1.0" encoding="UTF-8" standalone="no"?>
<!-- Created with Inkscape (http://www.inkscape.org/) -->

<svg
   version="1.1"
   id="svg72"
   width="157.33333"
   height="157.33333"
   viewBox="0 0 157.33333 157.33333"
   sodipodi:docname="118.svg"
   inkscape:version="1.1.2 (0a00cf5339, 2022-02-04)"
   xmlns:inkscape="http://www.inkscape.org/namespaces/inkscape"
   xmlns:sodipodi="http://sodipodi.sourceforge.net/DTD/sodipodi-0.dtd"
   xmlns="http://www.w3.org/2000/svg"
   xmlns:svg="http://www.w3.org/2000/svg">
  <defs
     id="defs76" />
  <sodipodi:namedview
     id="namedview74"
     pagecolor="#ffffff"
     bordercolor="#666666"
     borderopacity="1.0"
     inkscape:pageshadow="2"
     inkscape:pageopacity="0.0"
     inkscape:pagecheckerboard="0"
     showgrid="false"
     inkscape:zoom="5.548729"
     inkscape:cx="29.73654"
     inkscape:cy="78.576553"
     inkscape:window-width="2560"
     inkscape:window-height="1299"
     inkscape:window-x="0"
     inkscape:window-y="32"
     inkscape:window-maximized="1"
     inkscape:current-layer="g78" />
  <g
     inkscape:groupmode="layer"
     inkscape:label="Image"
     id="g78">
    <path
       style="fill:#000000;stroke-width:1.33333"
       d="M 16.722252,148.26608 C 5.9320227,147.8002 3.9999999,146.62846 3.9999999,140.55032 c 0,-7.05394 2.6578449,-7.72798 26.9149511,-6.8258 11.564648,0.4301 21.320557,0.30644 21.679797,-0.27483 0.359239,-0.58126 -0.208536,-2.19523 -1.261722,-3.5866 -2.673271,-3.53167 -2.496728,-8.22155 0.33364,-8.86322 3.005321,-0.68133 9.114371,2.30436 10.129911,4.95081 0.802314,2.0908 6.203422,2.93308 6.203422,0.9674 0,-2.22908 5.539066,-6.91808 8.172246,-6.91808 1.504268,0 4.314505,1.8 6.244972,4 4.308886,4.91049 6.82803,5.02959 11.017029,0.52085 4.06338,-4.37353 7.894544,-5.8908 10.899084,-4.31639 3.07179,1.60965 2.95278,4.15498 -0.33333,7.12887 -3.28768,2.97531 -3.4211,5.58999 -0.33334,6.53261 1.28334,0.39179 11.51156,0.46592 22.72939,0.16476 l 20.39604,-0.54756 1.43984,3.16011 c 2.01868,4.43052 0.36752,9.83891 -3.25224,10.65271 -3.3548,0.75424 -113.89298,1.59033 -128.257438,0.97012 z M 28.337338,78.013858 C 16.433906,72.83998 3.9999999,57.284988 3.9999999,47.567508 c 0,-2.850425 0.9419568,-8.869197 2.0932373,-13.375049 C 7.8392306,27.359034 9.4173407,24.746938 15.60632,18.446358 23.868303,10.035394 29.063071,7.9999998 42.267702,7.9999998 c 8.650716,0 17.933339,4.0008692 25.153794,10.8414452 5.16479,4.893061 9.303752,17.773281 8.94261,27.828907 -0.297441,8.281918 -5.620605,19.624268 -11.958095,25.479754 -7.133718,6.591155 -26.974277,9.816672 -36.068673,5.863752 z m 4.976159,-7.680526 C 33.278221,67.369264 24.774565,58.783836 21,57.901428 c -6.840964,-1.599263 -2.617679,7.135623 5.53289,11.443501 5.734788,3.031049 6.806777,3.187312 6.780607,0.988403 z m 15.758373,-5.30936 c 0.238222,-1.227779 -2.096964,-3.885305 -5.666667,-6.448872 -3.339529,-2.398268 -6.07187,-4.722333 -6.07187,-5.164589 0,-0.442256 -2.1,-1.935027 -4.666667,-3.317268 -2.566667,-1.382241 -4.666667,-2.997052 -4.666667,-3.588469 0,-1.177799 -9.326835,-7.838108 -10.976179,-7.838108 -0.563102,0 -0.991472,1.35 -0.951935,3 0.04921,2.054045 2.466656,4.785573 7.666666,8.662769 4.17713,3.114523 10.894782,8.338617 14.928115,11.609098 7.517378,6.095567 9.69582,6.741536 10.405204,3.085439 z m 13.574378,-7.357307 c -0.0112,-1.283333 -0.461229,-2.933333 -1,-3.666666 -1.204231,-1.639108 -7.723986,-6.063977 -12.61118,-8.559036 -1.997377,-1.019721 -5.795233,-3.835853 -8.439678,-6.25807 -2.644445,-2.422218 -5.963464,-4.770736 -7.375597,-5.21893 -1.412134,-0.448193 -4.376322,-2.336908 -6.587087,-4.197144 -3.274016,-2.754904 -4.385568,-3.078494 -5.992805,-1.744606 -1.085279,0.900701 -1.973235,2.091476 -1.973235,2.646164 0,2.089314 30.531806,24.149483 37.999999,27.456167 5.307062,2.349803 6.003684,2.29646 5.979583,-0.457879 z m 4.670053,-10.972443 c 1.111866,-1.799036 -1.683893,-6.694223 -3.82323,-6.694223 -0.960542,0 -2.865839,-1.236922 -4.233994,-2.748717 -1.368154,-1.511793 -3.522273,-2.478132 -4.786929,-2.147416 -1.423705,0.372307 -4.0779,-1.246707 -6.969512,-4.251284 -6.071457,-6.308647 -13.475871,-12.185916 -15.352298,-12.185916 -3.4747,0 -0.964268,4.605338 6.182995,11.342581 5.28463,4.981466 8.78241,7.241956 11.257727,7.275468 2.106842,0.02852 4.409526,1.217139 5.571331,2.875848 1.868318,2.667399 8.41555,7.529329 10.425585,7.741971 0.506721,0.0536 1.284468,-0.490135 1.728325,-1.208312 z m -3.71666,-19.574087 c 0.919486,-2.396141 -5.391692,-8.434837 -8.827987,-8.446846 -1.042258,-0.0036 -2.842258,-0.835655 -4,-1.848915 -3.290094,-2.879501 -8.104988,-3.994898 -8.104988,-1.877566 0,3.353417 4.163096,7.751433 10.422933,11.01109 7.459281,3.884237 9.383845,4.097063 10.510042,1.162237 z M 103.32596,69.3214 c -2.40047,-3.884044 4.31853,-13.489336 11.78949,-16.853912 11.97533,-5.39314 25.6972,-1.502405 31.26811,8.865844 4.84548,9.018115 4.15641,9.333333 -20.40264,9.333333 -13.23981,0 -22.15056,-0.529125 -22.65496,-1.345265 z"
       id="path529" />
  </g>
</svg>
