<?xml version="1.0" encoding="UTF-8" standalone="no"?>
<!-- Created with Inkscape (http://www.inkscape.org/) -->

<svg
   version="1.1"
   id="svg82"
   width="166.66667"
   height="157.33333"
   viewBox="0 0 166.66667 157.33333"
   sodipodi:docname="119.svg"
   inkscape:version="1.1.2 (0a00cf5339, 2022-02-04)"
   xmlns:inkscape="http://www.inkscape.org/namespaces/inkscape"
   xmlns:sodipodi="http://sodipodi.sourceforge.net/DTD/sodipodi-0.dtd"
   xmlns="http://www.w3.org/2000/svg"
   xmlns:svg="http://www.w3.org/2000/svg">
  <defs
     id="defs86" />
  <sodipodi:namedview
     id="namedview84"
     pagecolor="#ffffff"
     bordercolor="#666666"
     borderopacity="1.0"
     inkscape:pageshadow="2"
     inkscape:pageopacity="0.0"
     inkscape:pagecheckerboard="0"
     showgrid="false"
     inkscape:zoom="5.548729"
     inkscape:cx="34.422297"
     inkscape:cy="78.576553"
     inkscape:window-width="2560"
     inkscape:window-height="1299"
     inkscape:window-x="0"
     inkscape:window-y="32"
     inkscape:window-maximized="1"
     inkscape:current-layer="g88" />
  <g
     inkscape:groupmode="layer"
     inkscape:label="Image"
     id="g88">
    <path
       style="fill:#000000;stroke-width:1.33333"
       d="m 14.690771,148.0431 c -1.5735,-0.99493 -1.994955,-4.81386 -2.069488,-18.75223 -0.05519,-10.32132 0.481993,-18.27261 1.309228,-19.3789 2.169763,-2.90171 8.992984,-3.71447 12.067006,-1.43739 2.431092,1.80083 2.659018,3.48811 2.60516,19.2853 -0.04209,12.34701 -0.566184,17.92292 -1.827443,19.44264 -1.935962,2.33269 -8.95281,2.82078 -12.084463,0.84058 z m 62.596568,-1.14557 c -2.966818,-2.40239 -2.99171,-2.68076 -1.814379,-20.29049 1.166511,-17.44787 1.275183,-17.90023 4.769611,-19.8535 2.685333,-1.50102 4.511681,-1.67016 7.333333,-0.67915 l 3.757431,1.31967 0.369143,18.83859 c 0.309968,15.81871 0.02753,19.1802 -1.761906,20.96963 -2.846354,2.84636 -8.94312,2.69952 -12.653233,-0.30475 z m 64.000001,0 c -2.96682,-2.40239 -2.99171,-2.68076 -1.81438,-20.29049 1.16651,-17.44787 1.27519,-17.90023 4.76962,-19.8535 2.68533,-1.50102 4.51168,-1.67016 7.33333,-0.67915 l 3.75743,1.31967 0.36914,18.83859 c 0.30996,15.81871 0.0275,19.1802 -1.7619,20.96963 -2.84636,2.84636 -8.94312,2.69952 -12.65324,-0.30475 z m 7.28393,-49.862807 c -2.25248,-2.402432 -6.31793,-5.868058 -9.03435,-7.701392 -2.71641,-1.833333 -6.21529,-4.383333 -7.77527,-5.666666 -1.55999,-1.283333 -3.26203,-2.333333 -3.78232,-2.333333 -0.52029,0 -3.12322,-1.730252 -5.78429,-3.845004 -2.66107,-2.114752 -8.89357,-5.478707 -13.85001,-7.475455 C 103.3886,68.016127 95.733335,64.670917 91.333335,62.579077 80.046142,57.212939 71.964176,54.80336 58.07768,52.664144 51.434957,51.640831 42.56499,49.572771 38.366645,48.068454 c -4.198347,-1.504316 -8.645632,-2.735122 -9.882858,-2.735122 -4.14632,0 -13.70624,-6.681427 -18.45092,-12.895346 C 1.2193207,20.895234 4.5575541,7.7413068 16.770246,5.8901137 c 4.567529,-0.6923434 6.055622,-0.2919324 9.306173,2.5040741 3.223474,2.7727152 3.985063,4.6309472 4.563088,11.1336722 l 0.693827,7.805473 17.333334,-0.05391 c 9.533333,-0.02965 21.876117,-0.558627 27.428408,-1.175508 5.552292,-0.616881 16.564254,-0.680663 24.471024,-0.141736 18.52553,1.262703 20.03108,2.443432 18.72049,14.68155 -1.36572,12.7529 0.47614,16.708959 11.82729,25.403287 28.58638,21.895528 32.17916,25.533552 31.30216,31.696212 -0.32514,2.284722 -1.43561,3.003852 -5.0827,3.291492 -3.804,0.30002 -5.42374,-0.43941 -8.76207,-4.000001 z"
       id="path390" />
  </g>
</svg>
