<?xml version="1.0" encoding="UTF-8" standalone="no"?>
<!-- Created with Inkscape (http://www.inkscape.org/) -->

<svg
   version="1.1"
   id="svg92"
   width="161.33333"
   height="61.333332"
   viewBox="0 0 161.33333 61.333332"
   sodipodi:docname="120.svg"
   inkscape:version="1.1.2 (0a00cf5339, 2022-02-04)"
   xmlns:inkscape="http://www.inkscape.org/namespaces/inkscape"
   xmlns:sodipodi="http://sodipodi.sourceforge.net/DTD/sodipodi-0.dtd"
   xmlns="http://www.w3.org/2000/svg"
   xmlns:svg="http://www.w3.org/2000/svg">
  <defs
     id="defs96" />
  <sodipodi:namedview
     id="namedview94"
     pagecolor="#ffffff"
     bordercolor="#666666"
     borderopacity="1.0"
     inkscape:pageshadow="2"
     inkscape:pageopacity="0.0"
     inkscape:pagecheckerboard="0"
     showgrid="false"
     inkscape:zoom="7.9462812"
     inkscape:cx="46.436816"
     inkscape:cy="30.706187"
     inkscape:window-width="2560"
     inkscape:window-height="1299"
     inkscape:window-x="0"
     inkscape:window-y="32"
     inkscape:window-maximized="1"
     inkscape:current-layer="g98" />
  <g
     inkscape:groupmode="layer"
     inkscape:label="Image"
     id="g98">
    <path
       style="fill:#000000;stroke-width:1.33333"
       d="M 32.812902,53.282871 C 29.232891,50.13958 27.428587,49.425942 24.756794,50.09652 20.188214,51.24316 15.2501,47.917166 14.273842,43.035882 13.739752,40.365427 12.187714,38.64209 9.0891162,37.278914 3.5073358,34.823305 2.056557,27.800589 6.6258645,25.355169 9.0620001,24.051389 9.3018423,23.070231 8.5569874,17.45524 7.8122972,11.841489 8.0955913,10.68149 10.834418,8.1298842 13.348806,5.787376 15.273666,5.2926983 20.647833,5.6078941 c 6.415944,0.3762963 6.701856,0.5602634 7.091176,4.5627379 0.344325,3.53989 -0.122467,4.303188 -3.086559,5.047128 -2.636929,0.661826 -3.389396,1.590832 -3.072342,3.79315 0.308124,2.140294 2.194438,3.562019 7.086558,5.341172 3.666667,1.333484 8.766667,3.416573 11.333333,4.629087 5.668749,2.677962 18.320178,2.800392 53.333332,0.516113 C 106.9,28.612185 122.56818,28.247309 128.15151,28.686445 l 10.15151,0.79843 0.84848,-4.242438 c 0.46668,-2.33334 0.8485,-7.1803 0.8485,-10.771023 0,-5.6170163 0.45169,-6.7343906 3.23501,-8.0025539 5.09744,-2.3225482 9.99975,-0.3637862 12.18619,4.8691029 2.20945,5.287961 2.49121,10.813433 0.61068,11.975663 -0.71579,0.442385 -1.11143,4.455517 -0.87918,8.918069 0.35406,6.80308 -0.0505,8.663387 -2.50462,11.516441 l -2.9269,3.402711 -28.52725,-1.32166 c -18.96747,-0.878757 -30.010236,-0.875457 -32.952581,0.0098 -3.101751,0.933268 -6.198063,0.857369 -10.352468,-0.253764 -3.259933,-0.8719 -11.918541,-1.585272 -19.24135,-1.585272 -13.954512,0 -13.88592,-0.03289 -13.357115,6.403928 0.311336,3.789701 -2.138696,6.929405 -5.407281,6.929405 -1.351357,0 -4.532961,-1.822708 -7.070233,-4.050461 z"
       id="path251" />
  </g>
</svg>
