<?xml version="1.0" encoding="UTF-8" standalone="no"?>
<!-- Created with Inkscape (http://www.inkscape.org/) -->

<svg
   version="1.1"
   id="svg102"
   width="150.66667"
   height="161.33333"
   viewBox="0 0 150.66667 161.33333"
   sodipodi:docname="121.svg"
   inkscape:version="1.1.2 (0a00cf5339, 2022-02-04)"
   xmlns:inkscape="http://www.inkscape.org/namespaces/inkscape"
   xmlns:sodipodi="http://sodipodi.sourceforge.net/DTD/sodipodi-0.dtd"
   xmlns="http://www.w3.org/2000/svg"
   xmlns:svg="http://www.w3.org/2000/svg">
  <defs
     id="defs106" />
  <sodipodi:namedview
     id="namedview104"
     pagecolor="#ffffff"
     bordercolor="#666666"
     borderopacity="1.0"
     inkscape:pageshadow="2"
     inkscape:pageopacity="0.0"
     inkscape:pagecheckerboard="0"
     showgrid="false"
     inkscape:zoom="5.4111572"
     inkscape:cx="75.399769"
     inkscape:cy="80.574262"
     inkscape:window-width="2560"
     inkscape:window-height="1299"
     inkscape:window-x="0"
     inkscape:window-y="32"
     inkscape:window-maximized="1"
     inkscape:current-layer="g108" />
  <g
     inkscape:groupmode="layer"
     inkscape:label="Image"
     id="g108">
    <path
       style="fill:#000000;stroke-width:1.33333"
       d="M 26.000001,151.08056 C 12.018315,150.0007 5.3333335,142.91626 5.3333335,129.17897 c 0,-7.40384 3.773392,-14.20338 9.6179685,-17.3313 1.950812,-1.04405 21.075412,-1.71483 60.945804,-2.13765 L 134,109.09385 l 4.98138,4.45307 c 9.63676,8.61473 10.13017,22.22256 1.12464,31.01622 l -5.2037,5.08127 -46.451158,0.33873 c -25.548138,0.1863 -48.551161,0.62528 -51.117828,0.97552 -2.566667,0.35024 -7.666667,0.4051 -11.333333,0.12187 z m 98.477249,-7.03052 c 1.29082,-1.284 -1.29393,-10.24003 -3.31599,-11.48973 -0.72098,-0.44559 -21.56258,-0.3732 -46.31467,0.16085 l -45.0038,0.971 -2.254728,3.92864 c -2.679613,4.66896 -2.863117,7.22937 -0.588061,8.20514 2.72142,1.16723 96.231169,-0.5364 97.477249,-1.7759 z M 22.791639,141.84941 c 2.23287,-2.69044 2.171942,-14.97084 -0.101508,-20.45943 -1.199709,-2.89636 -2.578669,-4.05665 -4.821153,-4.05665 -4.340886,0 -7.54662,5.42506 -8.2552629,13.97036 -0.4879872,5.88448 -0.1165626,7.52679 2.2338219,9.87717 3.351619,3.35163 8.458443,3.66359 10.944102,0.66855 z M 136.8004,141.64625 c 4.3851,-2.92801 6.24996,-17.29942 2.82387,-21.7618 -1.63465,-2.12907 -7.62564,-5.81439 -8.11596,-4.99248 -4.54227,7.61402 -5.29259,18.85295 -1.63166,24.44023 2.2205,3.38892 4.28209,4.07793 6.92375,2.31405 z m -14.6598,-18.44377 c 4.0733,-9.74877 6.78182,-9.24273 -47.403156,-8.85635 -26.697456,0.19038 -48.798614,0.60393 -49.113683,0.919 -0.315071,0.31507 0.472205,3.3093 1.749502,6.65386 L 29.695622,128 H 74.915848 120.13607 Z M 81.458835,69.121104 C 75.6717,67.457972 58.666668,56.381379 58.666668,54.274936 c 0,-0.420429 -1.867907,-3.769249 -4.150904,-7.441822 -3.411511,-5.487971 -4.182168,-8.17568 -4.326416,-15.088595 -0.152262,-7.297012 0.356414,-9.205967 3.840125,-14.411186 4.828983,-7.215269 14.868733,-13.067475 22.688009,-13.2249203 6.389031,-0.1286466 16.078035,4.4494726 19.563377,9.2438253 1.340334,1.843732 2.807373,6.479704 3.260086,10.30216 0.727405,6.141759 0.416048,7.483613 -2.677528,11.5395 -6.024204,7.89814 -16.462382,9.318408 -24.134135,3.283807 -7.030922,-5.530524 -2.377258,-18.790221 6.349724,-18.092289 3.347324,0.267698 4.351111,1.018909 4.708287,3.523569 0.271101,1.901066 -0.400243,3.661368 -1.666667,4.370094 -2.999782,1.678762 -2.635106,5.054254 0.546042,5.054254 3.608622,0 8.000001,-4.629747 8.000001,-8.434248 0,-3.229288 -3.746632,-7.4018 -9.155023,-10.195679 -2.485744,-1.28409 -4.389552,-1.284181 -8.974664,-4.29e-4 -6.661147,1.865005 -8.175775,3.332296 -10.540631,10.211205 -1.413327,4.111092 -1.36664,6.055611 0.278389,11.595023 1.087071,3.660562 2.969965,8.011509 4.184209,9.66877 3.10517,4.238084 13.273831,9.546716 20.283553,10.589192 7.356413,1.094034 11.924167,3.839985 11.924167,7.16833 0,6.054412 -6.924083,8.140995 -17.207834,5.185607 z"
       id="path112" />
  </g>
</svg>
