<?xml version="1.0" encoding="UTF-8" standalone="no"?>
<!-- Created with Inkscape (http://www.inkscape.org/) -->

<svg
   version="1.1"
   id="svg12"
   width="150.66667"
   height="161.33333"
   viewBox="0 0 150.66667 161.33333"
   sodipodi:docname="121.svg"
   inkscape:version="1.1.2 (0a00cf5339, 2022-02-04)"
   xmlns:inkscape="http://www.inkscape.org/namespaces/inkscape"
   xmlns:sodipodi="http://sodipodi.sourceforge.net/DTD/sodipodi-0.dtd"
   xmlns="http://www.w3.org/2000/svg"
   xmlns:svg="http://www.w3.org/2000/svg">
  <defs
     id="defs16" />
  <sodipodi:namedview
     id="namedview14"
     pagecolor="#ffffff"
     bordercolor="#666666"
     borderopacity="1.0"
     inkscape:pageshadow="2"
     inkscape:pageopacity="0.0"
     inkscape:pagecheckerboard="0"
     showgrid="false"
     inkscape:zoom="5.4111572"
     inkscape:cx="75.399769"
     inkscape:cy="80.574262"
     inkscape:window-width="2560"
     inkscape:window-height="1299"
     inkscape:window-x="0"
     inkscape:window-y="32"
     inkscape:window-maximized="1"
     inkscape:current-layer="g18" />
  <g
     inkscape:groupmode="layer"
     inkscape:label="Image"
     id="g18">
    <path
       style="fill:#000000;stroke-width:1.33333"
       d="m 40.666668,153.18078 c -8.800001,-0.45057 -18.642902,-0.90057 -21.873116,-1 -5.041961,-0.1552 -6.617867,-0.96368 -11.1356949,-5.7129 l -5.2625801,-5.53212 0.4841795,-9.58815 c 0.3820809,-7.5663 1.2129227,-10.68742 3.940081,-14.80121 5.8843575,-8.87628 8.3913685,-9.2056 70.5137975,-9.26271 47.870155,-0.044 54.625605,0.20792 59.511205,2.21931 6.07912,2.50276 9.82213,6.84007 9.82213,11.38165 0,1.62688 0.58084,3.31695 1.29076,3.7557 2.06027,1.27332 1.21563,10.2513 -1.46912,15.61574 -1.35503,2.70752 -4.46175,6.44675 -6.9038,8.3094 -4.10331,3.12973 -5.34321,3.35744 -16.34564,3.00172 -6.54805,-0.21169 -15.76402,0.112 -20.47995,0.71933 -11.390674,1.46691 -42.232367,1.91108 -62.092252,0.89424 z m 73.573672,-10.9712 c 8.632,-0.18897 9.38609,-0.41662 7.66666,-2.31457 -1.04885,-1.15775 -1.90727,-2.95775 -1.90759,-4 -5e-4,-1.58217 -4.23775,-1.84724 -25.666672,-1.60564 -14.116339,0.15916 -33.627342,0.29975 -43.357786,0.31243 l -17.691715,0.0231 -1.308286,3.44104 c -0.719556,1.89256 -1.308284,4.059 -1.308284,4.81431 0,0.93119 11.911062,1.07803 37.000001,0.45612 20.350001,-0.50443 41.308152,-1.01147 46.573672,-1.12675 z m -92.322437,-5.46021 c 0.690659,-4.60564 0.274884,-7.11782 -1.875707,-11.33333 C 18.522514,122.43722 16.960715,120 16.571532,120 15.304186,120 12,129.15809 12,132.67075 c 0,4.47991 3.679918,9.99591 6.668622,9.99591 1.772245,0 2.583466,-1.47732 3.249281,-5.91729 z M 137.3612,136.3249 c 1.91243,-3.44999 1.73732,-6.90613 -0.81018,-15.99157 -0.73819,-2.63268 -5.07082,-1.9422 -6.97827,1.11212 -1.81513,2.90648 -1.26448,8.25909 1.53159,14.88788 1.95353,4.63135 3.6862,4.62901 6.25686,-0.008 z m -18.69453,-15.29976 v -3.69181 l -28.333335,-0.0482 c -15.583333,-0.0265 -34.333334,-0.27514 -41.666667,-0.55252 -7.333334,-0.27738 -15.278362,-0.18985 -17.655618,0.19451 -4.303313,0.69576 -4.312917,0.71469 -2.188064,4.31178 l 2.13422,3.61294 43.854732,-0.0674 43.854732,-0.0675 z M 81.458835,69.121104 C 75.6717,67.457972 58.666668,56.381379 58.666668,54.274936 c 0,-0.420429 -1.867907,-3.769249 -4.150904,-7.441822 -3.411511,-5.487971 -4.182168,-8.17568 -4.326416,-15.088595 -0.152262,-7.297012 0.356414,-9.205967 3.840125,-14.411186 4.828983,-7.215269 14.868733,-13.067475 22.688009,-13.2249203 6.389031,-0.1286466 16.078035,4.4494726 19.563377,9.2438253 1.340334,1.843732 2.807373,6.479704 3.260086,10.30216 0.727405,6.141759 0.416048,7.483613 -2.677528,11.5395 -6.024204,7.89814 -16.462382,9.318408 -24.134135,3.283807 -7.030922,-5.530524 -2.377258,-18.790221 6.349724,-18.092289 3.347324,0.267698 4.351111,1.018909 4.708287,3.523569 0.271101,1.901066 -0.400243,3.661368 -1.666667,4.370094 -2.999782,1.678762 -2.635106,5.054254 0.546042,5.054254 3.608622,0 8.000001,-4.629747 8.000001,-8.434248 0,-3.229288 -3.746632,-7.4018 -9.155023,-10.195679 -2.485744,-1.28409 -4.389552,-1.284181 -8.974664,-4.29e-4 -6.661147,1.865005 -8.175775,3.332296 -10.540631,10.211205 -1.413327,4.111092 -1.36664,6.055611 0.278389,11.595023 1.087071,3.660562 2.969965,8.011509 4.184209,9.66877 3.10517,4.238084 13.273831,9.546716 20.283553,10.589192 7.356413,1.094034 11.924167,3.839985 11.924167,7.16833 0,6.054412 -6.924083,8.140995 -17.207834,5.185607 z"
       id="path40" />
  </g>
</svg>
