<?xml version="1.0" encoding="UTF-8" standalone="no"?>
<!-- Created with Inkscape (http://www.inkscape.org/) -->

<svg
   version="1.1"
   id="svg2"
   width="157.33333"
   height="170.66667"
   viewBox="0 0 157.33333 170.66667"
   sodipodi:docname="0122.svg"
   inkscape:version="1.1.2 (0a00cf5339, 2022-02-04)"
   xmlns:inkscape="http://www.inkscape.org/namespaces/inkscape"
   xmlns:sodipodi="http://sodipodi.sourceforge.net/DTD/sodipodi-0.dtd"
   xmlns="http://www.w3.org/2000/svg"
   xmlns:svg="http://www.w3.org/2000/svg">
  <defs
     id="defs6" />
  <sodipodi:namedview
     id="namedview4"
     pagecolor="#ffffff"
     bordercolor="#666666"
     borderopacity="1.0"
     inkscape:pageshadow="2"
     inkscape:pageopacity="0.0"
     inkscape:pagecheckerboard="0"
     showgrid="false"
     inkscape:zoom="5.1152342"
     inkscape:cx="25.609775"
     inkscape:cy="85.235589"
     inkscape:window-width="2560"
     inkscape:window-height="1299"
     inkscape:window-x="0"
     inkscape:window-y="32"
     inkscape:window-maximized="1"
     inkscape:current-layer="g8" />
  <g
     inkscape:groupmode="layer"
     inkscape:label="Image"
     id="g8">
    <path
       style="fill:#000000;stroke-width:1.33333"
       d="m 43.513144,155.90323 c -7.673054,-6.03563 -2.499088,-19.13643 7.445975,-18.85367 8.708841,0.24762 12.334449,11.77808 5.768153,18.34438 -3.999589,3.9996 -8.553786,4.17512 -13.214128,0.50929 z m 30.666666,0 c -7.673054,-6.03563 -2.499088,-19.13643 7.445975,-18.85367 8.708841,0.24762 12.334449,11.77808 5.768153,18.34438 -3.999589,3.9996 -8.553786,4.17512 -13.214128,0.50929 z m 31.4588,1.93217 c -2.37275,-1.04025 -5.638612,-7.74416 -5.638612,-11.57449 0,-1.76267 1.534472,-4.86056 3.409932,-6.88423 2.81989,-3.0427 4.13816,-3.53373 7.61843,-2.83768 5.64458,1.12892 11.6383,7.04011 11.6383,11.47804 0,1.97163 -1.38122,4.81572 -3.14213,6.47002 -3.13196,2.94232 -10.66746,4.75937 -13.88592,3.34834 z M 19.133349,126.57837 c -4.384009,-1.62175 -7.490935,-7.58756 -6.5536,-12.58398 1.824544,-9.72565 4.135231,-10.05703 69.834909,-10.01492 61.245942,0.0393 61.608672,0.0801 66.460502,7.48494 2.81246,4.29237 1.3498,9.1029 -3.9728,13.06606 -3.68824,2.74622 -4.97026,2.80516 -63.439551,2.91631 -32.821383,0.0624 -60.86964,-0.32839 -62.32946,-0.86841 z M 38.075605,82.369994 c -1.141583,-1.629839 -2.075606,-3.909839 -2.075606,-5.066667 0,-3.190406 -2.775485,-5.303326 -6.966334,-5.303326 -2.875078,0 -4.093782,0.861251 -5.150082,3.639531 -1.689958,4.444928 -3.439605,5.646854 -8.258763,5.673386 -4.275552,0.02354 -5.549145,-2.149687 -3.889317,-6.636629 1.454382,-3.93157 -0.398,-14.391713 -3.0718459,-17.34628 -2.7071779,-2.991397 -2.4969244,-6.548601 0.669676,-11.330008 1.4570029,-2.2 2.6530489,-5.243118 2.6578809,-6.762482 0.0193,-6.06722 4.420158,-15.329909 9.733964,-20.487507 6.439535,-6.250232 15.796452,-8.8668481 26.793965,-7.4928 10.202618,1.274734 16.558565,5.481314 22.402167,14.82651 4.456634,7.127132 5.193259,9.537169 6.314396,20.658992 1.175736,11.663458 0.368186,22.764505 -1.814817,24.947509 -0.504815,0.504813 -4.031029,1.231028 -7.836033,1.61381 -6.722105,0.676242 -6.937087,0.828238 -7.584857,5.362635 -0.62428,4.36996 -1.048147,4.723963 -6.666667,5.567836 -10.538806,1.582875 -13.058777,1.274932 -15.257727,-1.86451 z m 82.666665,-4 c -1.71108,-2.44291 -2.07561,-7.659509 -2.07561,-29.703326 C 118.66666,17.450892 119.10285,16 128.48743,16 c 10.15085,0 10.02451,-0.398516 10.37286,32.720618 0.17,16.163007 -0.13943,30.113008 -0.68763,31.000001 -0.5799,0.938307 -3.99885,1.612716 -8.17575,1.612716 -5.90712,0 -7.54677,-0.525017 -9.25464,-2.963341 z"
       id="path1328" />
  </g>
</svg>
