<?xml version="1.0" encoding="UTF-8" standalone="no"?>
<!-- Created with Inkscape (http://www.inkscape.org/) -->

<svg
   version="1.1"
   id="svg12"
   width="48"
   height="137.33333"
   viewBox="0 0 48 137.33333"
   sodipodi:docname="0123.svg"
   inkscape:version="1.1.2 (0a00cf5339, 2022-02-04)"
   xmlns:inkscape="http://www.inkscape.org/namespaces/inkscape"
   xmlns:sodipodi="http://sodipodi.sourceforge.net/DTD/sodipodi-0.dtd"
   xmlns="http://www.w3.org/2000/svg"
   xmlns:svg="http://www.w3.org/2000/svg">
  <defs
     id="defs16" />
  <sodipodi:namedview
     id="namedview14"
     pagecolor="#ffffff"
     bordercolor="#666666"
     borderopacity="1.0"
     inkscape:pageshadow="2"
     inkscape:pageopacity="0.0"
     inkscape:pagecheckerboard="0"
     showgrid="false"
     inkscape:zoom="6.3567964"
     inkscape:cx="-18.720121"
     inkscape:cy="68.588008"
     inkscape:window-width="2560"
     inkscape:window-height="1299"
     inkscape:window-x="0"
     inkscape:window-y="32"
     inkscape:window-maximized="1"
     inkscape:current-layer="g18" />
  <g
     inkscape:groupmode="layer"
     inkscape:label="Image"
     id="g18">
    <path
       style="fill:#000000;stroke-width:1.33333"
       d="m 8.534834,131.47057 c -1.1252801,-2.93243 1.4069988,-5.69122 6.882721,-7.49837 4.89642,-1.61596 9.915778,-7.48663 9.915778,-11.59754 0,-1.40087 -2.7,-10.83646 -6,-20.967993 -3.3,-10.131532 -6.002256,-19.39275 -6.005015,-20.580485 -0.0028,-1.187734 -1.800501,-5.759517 -3.9949847,-10.159517 -2.1944834,-4.4 -3.9922268,-9.036302 -3.9949849,-10.302894 -0.00276,-1.266592 1.53896,-6.366592 3.4260405,-11.333333 C 10.651469,34.063697 13.112366,27.299999 14.233049,23.999999 17.860196,13.319375 23.525252,5.3333332 27.474615,5.3333332 c 0.897381,0 3.782704,2.9303862 6.411826,6.5119688 C 40.65338,21.063717 40.348899,25.070006 32,36.666666 c -7.352227,10.212277 -7.8333,12.146589 -4.183264,16.820187 7.081511,9.067348 8.582488,14.453477 9.629056,34.553041 0.755931,14.517806 1.703497,21.201146 3.780807,26.666666 1.52463,4.01139 2.772358,8.26997 2.772729,9.46351 0.0015,4.76895 -6.257579,6.8382 -26.315327,8.69986 -6.917963,0.64209 -8.4560653,0.40684 -9.149167,-1.39936 z"
       id="path1089" />
  </g>
</svg>
