<?xml version="1.0" encoding="UTF-8" standalone="no"?>
<!-- Created with Inkscape (http://www.inkscape.org/) -->

<svg
   version="1.1"
   id="svg22"
   width="158.66667"
   height="154.66667"
   viewBox="0 0 158.66667 154.66667"
   sodipodi:docname="0124.svg"
   inkscape:version="1.1.2 (0a00cf5339, 2022-02-04)"
   xmlns:inkscape="http://www.inkscape.org/namespaces/inkscape"
   xmlns:sodipodi="http://sodipodi.sourceforge.net/DTD/sodipodi-0.dtd"
   xmlns="http://www.w3.org/2000/svg"
   xmlns:svg="http://www.w3.org/2000/svg">
  <defs
     id="defs26" />
  <sodipodi:namedview
     id="namedview24"
     pagecolor="#ffffff"
     bordercolor="#666666"
     borderopacity="1.0"
     inkscape:pageshadow="2"
     inkscape:pageopacity="0.0"
     inkscape:pagecheckerboard="0"
     showgrid="false"
     inkscape:zoom="5.6443964"
     inkscape:cx="31.181368"
     inkscape:cy="77.244752"
     inkscape:window-width="2560"
     inkscape:window-height="1299"
     inkscape:window-x="0"
     inkscape:window-y="32"
     inkscape:window-maximized="1"
     inkscape:current-layer="g28" />
  <g
     inkscape:groupmode="layer"
     inkscape:label="Image"
     id="g28">
    <path
       style="fill:#000000;stroke-width:1.33333"
       d="m 55.291309,145.93802 c -5.156448,-0.9404 -12.935653,-2.96118 -17.287123,-4.49059 -9.389289,-3.30007 -12.078135,-3.42115 -17.156595,-0.77255 -4.959737,2.58668 -12.0601515,2.54716 -14.2398869,-0.0792 -2.5001755,-3.01253 -2.1360136,-10.00135 0.6263841,-12.02127 1.2898596,-0.94316 4.7139948,-2.11505 7.6091898,-2.60419 2.895194,-0.48914 8.36651,-2.97719 12.158481,-5.529 3.79197,-2.55181 10.475496,-5.87893 14.852279,-7.39361 7.057499,-2.44239 9.778354,-2.65106 24.050022,-1.84451 18.690358,1.05628 30.87151,3.88738 49.42928,11.48817 12.19847,4.99618 22.67952,8.43732 31.33333,10.28736 4.66764,0.99787 6.66667,2.87236 6.66667,6.25135 0,5.40525 -5.84951,7.87677 -11.68476,4.93701 -9.42268,-4.74713 -14.09681,-6.83365 -15.30835,-6.83365 -0.77427,0 -4.46757,1.48852 -8.20733,3.30781 -14.06456,6.84204 -41.629324,9.16545 -62.841591,5.29687 z m 47.747981,-10.00307 c 3.48666,-0.87795 6.63623,-2.07659 6.99905,-2.66365 1.11425,-1.80289 -6.88925,-6.60788 -10.910831,-6.55044 -2.215634,0.0316 -5.714754,1.69581 -8.410475,4 -2.538965,2.17019 -5.324772,3.94581 -6.190682,3.94581 -0.865909,0 -1.921796,0.90535 -2.346413,2.01189 -0.647723,1.68794 0.459105,1.91856 6.873974,1.43227 4.205304,-0.31877 10.498724,-1.29792 13.985377,-2.17588 z m -56.207913,-7.22486 c -2.361893,-5.04438 -5.85658,-6.02515 -10.186734,-2.85886 -2.406381,1.75959 -2.303494,1.99035 2.078494,4.66168 2.535608,1.54575 5.884317,2.8127 7.441573,2.81544 2.758224,0.005 2.775448,-0.11446 0.666667,-4.61826 z M 7.0000001,43.11696 C 4.5420037,42.125137 4.9672102,36.735855 8.1206055,28.913842 9.6536051,25.11123 12.006534,19.3 13.349336,16 c 1.342803,-3.3 2.784406,-7.0883226 3.203562,-8.4184948 1.06017,-3.3643984 8.877947,-2.5752604 10.750401,1.0851617 3.122355,6.1038251 3.409495,6.2764691 6.773256,4.0724491 4.31728,-2.8287906 8.237333,-2.601155 10.232877,0.594218 2.105504,3.371448 3.972784,3.371448 7.023902,0 3.151956,-3.4828733 8.00343,-3.3976878 10.512553,0.184586 l 1.997094,2.851254 4.180811,-3.517921 c 5.152076,-4.335186 5.796158,-4.348292 9.07133,-0.184586 3.167149,4.026377 5.697728,4.239153 7.928782,0.666667 2.108391,-3.3760698 4.378479,-3.3760698 8.002265,0 3.577312,3.332772 4.624382,3.332772 7.640501,0 3.08028,-3.4036739 4.43047,-3.3533974 8.33018,0.310188 3.07795,2.891585 3.28402,2.910681 7.19399,0.666666 4.93675,-2.833303 6.99066,-2.902989 9.1425,-0.310188 2.5039,3.017022 3.65475,2.493907 7.33333,-3.333333 5.37111,-8.5083912 8.80641,-6.7974258 14.94953,7.445683 1.8711,4.338208 4.2229,9.778328 5.22623,12.089156 2.34779,5.407299 2.31395,9.06555 -0.1024,11.07092 -3.86425,3.207052 -7.80685,1.056118 -11.35381,-6.19422 -3.70912,-7.581801 -5.22447,-8.445109 -7.74348,-4.411539 -1.97329,3.159743 -6.54478,3.470307 -9.65467,0.655891 -1.99167,-1.802437 -2.54174,-1.733363 -5.309,0.666667 -3.65516,3.170126 -8.36249,3.468742 -10.67907,0.677442 -2.11355,-2.546669 -4.55312,-2.546669 -6.66666,0 -2.493319,3.00426 -8.971981,2.57235 -10.000005,-0.666666 -1.002816,-3.159595 -3.683826,-3.457486 -6,-0.666667 -2.16038,2.603099 -9.185595,2.603099 -10.184499,0 -1.081626,-2.818676 -4.157372,-2.483897 -6.124932,0.666667 -2.157764,3.45513 -5.097509,3.374688 -9.726075,-0.266143 l -3.728462,-2.932808 -1.947313,2.932808 c -2.282266,3.437277 -9.273228,4.059935 -10.473218,0.932809 -0.949271,-2.47376 -5.306478,-2.624042 -6.749249,-0.232785 -2.074754,3.438711 -5.577046,3.525117 -9.488214,0.234087 l -3.827503,-3.220631 -2.875268,3.889008 c -1.581398,2.138955 -2.875268,4.420311 -2.875268,5.069681 0,1.831355 -4.657145,5.606166 -6.771655,5.488711 C 9.5194225,43.836844 7.9166668,43.486844 7.0000001,43.11696 Z"
       id="path950" />
  </g>
</svg>
