<?xml version="1.0" encoding="UTF-8" standalone="no"?>
<!-- Created with Inkscape (http://www.inkscape.org/) -->

<svg
   version="1.1"
   id="svg32"
   width="165.33333"
   height="162.66667"
   viewBox="0 0 165.33333 162.66667"
   sodipodi:docname="0125.svg"
   inkscape:version="1.1.2 (0a00cf5339, 2022-02-04)"
   xmlns:inkscape="http://www.inkscape.org/namespaces/inkscape"
   xmlns:sodipodi="http://sodipodi.sourceforge.net/DTD/sodipodi-0.dtd"
   xmlns="http://www.w3.org/2000/svg"
   xmlns:svg="http://www.w3.org/2000/svg">
  <defs
     id="defs36" />
  <sodipodi:namedview
     id="namedview34"
     pagecolor="#ffffff"
     bordercolor="#666666"
     borderopacity="1.0"
     inkscape:pageshadow="2"
     inkscape:pageopacity="0.0"
     inkscape:pagecheckerboard="0"
     showgrid="false"
     inkscape:zoom="5.3668031"
     inkscape:cx="32.048875"
     inkscape:cy="81.240171"
     inkscape:window-width="2560"
     inkscape:window-height="1299"
     inkscape:window-x="0"
     inkscape:window-y="32"
     inkscape:window-maximized="1"
     inkscape:current-layer="g38" />
  <g
     inkscape:groupmode="layer"
     inkscape:label="Image"
     id="g38">
    <path
       style="fill:#000000;stroke-width:1.33333"
       d="m 73.999999,153.25764 c -2.2,-0.51817 -8.019368,-1.01312 -12.93193,-1.09989 -12.079039,-0.21333 -39.937645,-6.01845 -46.451571,-9.67948 -4.159697,-2.33788 -5.2831649,-3.75097 -5.2831649,-6.64509 0,-5.34845 0.6913769,-5.64089 29.9999999,-12.68953 13.244303,-3.18522 17.317433,-3.54102 41.999999,-3.6688 29.673688,-0.15363 50.776298,2.17668 66.353518,7.32726 9.19823,3.04138 12.31315,5.39561 12.31315,9.30619 0,4.46008 -4.4634,6.7216 -22.16055,11.22828 -22.03155,5.61048 -52.973588,8.48033 -63.839451,5.92106 z m 37.588531,-14.78629 c 19.4127,-1.96809 19.81516,-4.0282 1.24777,-6.38718 -13.371214,-1.69881 -39.629261,-1.3928 -62.56107,0.72908 -11.905657,1.10162 -11.126091,3.63765 1.389465,4.52009 C 56.865076,137.7 61.567948,138.45 62.115521,139 c 1.516762,1.52348 32.496688,1.19244 49.473009,-0.52865 z M 36.666666,75.576854 C 25.844499,71.431573 20.698261,67.213971 16.440612,59.000584 14.116282,54.516741 11.807134,47.587238 11.309172,43.601688 10.026486,33.335413 15.601276,20.605531 24.08206,14.435147 30.192955,9.9890285 40.157646,6.6666668 47.381902,6.6666668 c 12.879049,0 26.010998,8.2771202 32.055007,20.2044022 8.46198,16.698913 -1.62752,39.47029 -20.460198,46.177404 -10.050956,3.579571 -17.393296,4.411673 -22.310045,2.528381 z m 57.999999,-0.56114 c -5.023263,-0.600126 -9.333333,-3.641259 -9.333333,-6.585487 0,-2.462908 9.939535,-13.096675 15.390718,-16.465693 5.9329,-3.666732 22.3437,-6.636133 29.99735,-5.427776 6.91834,1.092267 21.49876,9.565738 24.59742,14.294895 3.79226,5.78772 3.98271,10.57246 0.51743,12.999639 -2.63624,1.846492 -7.06373,2.137006 -29.79959,1.955327 -14.68683,-0.11736 -28.803329,-0.464268 -31.369995,-0.770905 z"
       id="path811" />
  </g>
</svg>
