<?xml version="1.0" encoding="UTF-8" standalone="no"?>
<!-- Created with Inkscape (http://www.inkscape.org/) -->

<svg
   version="1.1"
   id="svg42"
   width="77.333336"
   height="160"
   viewBox="0 0 77.333336 160"
   sodipodi:docname="0126.svg"
   inkscape:version="1.1.2 (0a00cf5339, 2022-02-04)"
   xmlns:inkscape="http://www.inkscape.org/namespaces/inkscape"
   xmlns:sodipodi="http://sodipodi.sourceforge.net/DTD/sodipodi-0.dtd"
   xmlns="http://www.w3.org/2000/svg"
   xmlns:svg="http://www.w3.org/2000/svg">
  <defs
     id="defs46" />
  <sodipodi:namedview
     id="namedview44"
     pagecolor="#ffffff"
     bordercolor="#666666"
     borderopacity="1.0"
     inkscape:pageshadow="2"
     inkscape:pageopacity="0.0"
     inkscape:pagecheckerboard="0"
     showgrid="false"
     inkscape:zoom="5.45625"
     inkscape:cx="-11.17984"
     inkscape:cy="79.908362"
     inkscape:window-width="2560"
     inkscape:window-height="1299"
     inkscape:window-x="0"
     inkscape:window-y="32"
     inkscape:window-maximized="1"
     inkscape:current-layer="g48" />
  <g
     inkscape:groupmode="layer"
     inkscape:label="Image"
     id="g48">
    <path
       style="fill:#000000;stroke-width:1.33333"
       d="m 19.333334,156 c -1.466667,-0.63025 -4.2432,-1.18808 -6.170074,-1.23961 -6.880503,-0.18406 -6.9066155,-0.49824 -3.9628875,-47.68148 1.5010905,-24.06007 3.1323785,-53.214114 3.6250855,-64.786773 0.492707,-11.572657 1.41391,-21.361385 2.047119,-21.752729 2.385504,-1.474323 6.483376,1.104945 7.228054,4.549459 0.425422,1.96779 1.458583,4.984564 2.295914,6.703942 l 1.522421,3.126143 0.98458,-3.681485 c 1.154998,-4.318694 -0.02965,-15.173122 -1.91767,-17.5708 C 24.26406,12.75 22.268058,12 20.550319,12 16.579247,12 13.772096,7.3511261 16.070735,4.5814369 18.083623,2.1560544 26.741182,2.104912 32.436954,4.4847575 c 6.720538,2.8080196 8.896381,7.2626545 8.896381,18.2136875 0,10.338276 1.206993,11.023643 5.047953,2.86638 1.749126,-3.714716 3.109196,-4.898158 5.629207,-4.898158 h 3.32284 l -0.492642,15.863836 -0.492642,15.863834 3.159308,-1.002858 c 8.107846,-2.573671 11.545517,-2.40688 13.175766,0.63927 2.105515,3.934191 0.74238,10.05599 -3.46844,15.576659 -3.380707,4.432336 -3.399655,4.585411 -1.322269,10.682201 2.76048,8.101564 2.663902,12.793632 -0.318895,15.493026 -3.158186,2.85812 -6.471334,0.562456 -7.383468,-5.115968 -0.92199,-5.739774 0.169265,22.172303 1.685549,43.112893 0.708068,9.77876 0.970295,18.60592 0.582724,19.61591 -1.124411,2.93017 -5.540563,3.78252 -20.013497,3.86273 -7.455344,0.0413 -14.005344,0.52513 -14.555555,1.07513 -1.242378,1.24191 -3.111307,1.14688 -6.55594,-0.33333 z"
       id="path654" />
  </g>
</svg>
