<?xml version="1.0" encoding="UTF-8" standalone="no"?>
<!-- Created with Inkscape (http://www.inkscape.org/) -->

<svg
   version="1.1"
   id="svg52"
   width="232"
   height="160"
   viewBox="0 0 232 160"
   sodipodi:docname="0127.svg"
   inkscape:version="1.1.2 (0a00cf5339, 2022-02-04)"
   xmlns:inkscape="http://www.inkscape.org/namespaces/inkscape"
   xmlns:sodipodi="http://sodipodi.sourceforge.net/DTD/sodipodi-0.dtd"
   xmlns="http://www.w3.org/2000/svg"
   xmlns:svg="http://www.w3.org/2000/svg">
  <defs
     id="defs56" />
  <sodipodi:namedview
     id="namedview54"
     pagecolor="#ffffff"
     bordercolor="#666666"
     borderopacity="1.0"
     inkscape:pageshadow="2"
     inkscape:pageopacity="0.0"
     inkscape:pagecheckerboard="0"
     showgrid="false"
     inkscape:zoom="5.45625"
     inkscape:cx="66.162658"
     inkscape:cy="79.908362"
     inkscape:window-width="2560"
     inkscape:window-height="1299"
     inkscape:window-x="0"
     inkscape:window-y="32"
     inkscape:window-maximized="1"
     inkscape:current-layer="g58" />
  <g
     inkscape:groupmode="layer"
     inkscape:label="Image"
     id="g58">
    <path
       style="fill:#000000;stroke-width:1.33333"
       d="m 146.73135,153.23225 c -4.01403,-0.55578 -7.94443,-1.93058 -8.77787,-3.07038 -1.76069,-2.4079 -1.52011,-41.79849 0.26615,-43.57612 1.80336,-1.79466 84.02826,-2.19786 85.80896,-0.42077 0.93502,0.93312 1.46177,6.71712 1.3964,15.33333 -0.12187,16.06757 -1.72516,27.70578 -4.01132,29.1187 -2.82744,1.74747 -29.78504,2.73463 -31.68214,1.16019 -2.59974,-2.1576 -2.08365,-8.75841 0.91959,-11.76165 2.10005,-2.10006 4.1646,-2.58506 9.93233,-2.33334 4.00467,0.17479 7.85058,-0.28221 8.54646,-1.01554 2.2742,-2.39659 3.17761,-14.44417 1.27397,-16.989 -2.02323,-2.70468 -4.24072,-2.78842 -35.73721,-1.34945 l -22,1.00511 -0.39719,8.34206 c -0.3774,7.92673 -0.22372,8.40801 3.0868,9.66666 1.9162,0.72854 5.50207,1.32462 7.96861,1.32462 5.00111,0 8.67511,2.86373 8.67511,6.7619 0,2.848 -4.39703,7.8616 -7,7.98159 -0.91667,0.0423 -3.76667,0.24595 -6.33333,0.45267 -2.56667,0.2067 -7.93756,-0.0771 -11.93532,-0.63058 z m -72.656669,-0.91073 c -7.292258,-0.23337 -14.071962,-1.09931 -15.066009,-1.92429 -1.124683,-0.93342 -1.656519,-3.55803 -1.408015,-6.9486 L 58,138 68,137.33333 c 5.5,-0.36666 10.697995,-1.11993 11.551097,-1.67393 1.445484,-0.93868 1.57372,-16.31236 0.14796,-17.73812 -0.49774,-0.49774 -43.243537,-1.04449 -55.365724,-0.70817 L 20,117.33333 v 9.25465 c 0,5.09005 0.622121,9.63914 1.382493,10.10907 0.760371,0.46994 4.210371,0.96528 7.666667,1.10078 7.923084,0.3106 9.617507,1.40385 9.617507,6.20525 0,6.08501 -4.076552,7.99692 -17.050998,7.99692 -16.9466978,0 -16.2823357,0.94555 -16.2823357,-23.17359 0,-18.14952 0.2728383,-20.66002 2.4604564,-22.63979 2.1721178,-1.96574 6.1956113,-2.19595 34.3333333,-1.96441 17.530082,0.14425 35.883985,0.14763 40.786449,0.007 5.615285,-0.1605 9.26974,0.32153 9.876111,1.30265 1.797101,2.90777 0.974305,39.21087 -0.979606,43.22175 -2.117597,4.34689 -0.918098,4.10562 -17.735396,3.5674 z M 78,50.619156 C 74.333333,50.066196 66.233333,48.99702 60,48.243211 44.752617,46.399312 20.782624,40.399524 13,36.478917 7.561324,33.739107 6.6666667,32.723489 6.6666667,29.289301 6.6666667,24.674821 8.7207621,23.496407 26,18.197949 37.761215,14.591524 43.390668,13.386412 68,9.2069033 82.124403,6.8080953 90.099792,6.3764336 120.28535,6.3769995 c 19.59026,3.673e-4 38.49026,0.6152741 42,1.3664596 3.50972,0.7511854 10.88132,2.0565725 16.38132,2.9008599 23.03229,3.535614 46.04978,10.454822 48.6215,14.615936 0.52958,0.856885 0.61404,2.947857 0.18768,4.646604 -0.80485,3.20681 -9.11314,7.017789 -22.14252,10.156681 -3.3,0.795 -8.4,2.054571 -11.33333,2.799045 -11.41973,2.898308 -32.58048,6.58679 -44.66667,7.785744 C 134.6174,52.108157 87.746424,52.088988 78,50.619156 Z M 144.66667,34.020453 C 158.03083,33.241883 172.91249,31.109215 180,28.956889 L 184.66667,27.539721 178,25.578363 c -5.19427,-1.528172 -15.94279,-1.992684 -48.66667,-2.103194 -41.907442,-0.141524 -68.224111,1.579235 -78.527853,5.134671 -4.22697,1.458568 -3.340941,1.712723 13.333334,3.824619 C 73.962465,33.678683 83.8,34.933563 86,35.22308 c 4.51572,0.594264 40.47665,-0.142911 58.66667,-1.202627 z"
       id="path496" />
  </g>
</svg>
