<?xml version="1.0" encoding="UTF-8" standalone="no"?>
<!-- Created with Inkscape (http://www.inkscape.org/) -->

<svg
   version="1.1"
   id="svg62"
   width="156"
   height="161.33333"
   viewBox="0 0 156 161.33333"
   sodipodi:docname="0128.svg"
   inkscape:version="1.1.2 (0a00cf5339, 2022-02-04)"
   xmlns:inkscape="http://www.inkscape.org/namespaces/inkscape"
   xmlns:sodipodi="http://sodipodi.sourceforge.net/DTD/sodipodi-0.dtd"
   xmlns="http://www.w3.org/2000/svg"
   xmlns:svg="http://www.w3.org/2000/svg">
  <defs
     id="defs66" />
  <sodipodi:namedview
     id="namedview64"
     pagecolor="#ffffff"
     bordercolor="#666666"
     borderopacity="1.0"
     inkscape:pageshadow="2"
     inkscape:pageopacity="0.0"
     inkscape:pagecheckerboard="0"
     showgrid="false"
     inkscape:zoom="5.4111572"
     inkscape:cx="27.905306"
     inkscape:cy="80.574262"
     inkscape:window-width="2560"
     inkscape:window-height="1299"
     inkscape:window-x="0"
     inkscape:window-y="32"
     inkscape:window-maximized="1"
     inkscape:current-layer="g68" />
  <g
     inkscape:groupmode="layer"
     inkscape:label="Image"
     id="g68">
    <path
       style="fill:#000000;stroke-width:1.33333"
       d="m 81.025176,153.34613 c -10.540109,-4.01016 -19.126579,-12.60829 -25.176327,-25.21052 -5.303477,-11.04767 -0.862784,-27.47253 9.384924,-34.712164 4.902936,-3.463747 11.034746,-4.475531 20.479904,-3.379304 7.118491,0.826188 8.811555,1.588593 12.520968,5.638328 4.469615,4.87968 7.776915,15.48932 6.215125,19.93777 -0.45953,1.30887 -2.66642,4.32976 -4.904194,6.71309 -3.643905,3.88092 -4.841803,4.33316 -11.473799,4.33171 -7.85917,-0.002 -12.54498,-2.64959 -15.902756,-8.98633 -3.328625,-6.28173 4.919552,-15.03317 12.399323,-13.15586 3.663691,0.91952 4.770252,5.60522 1.982147,8.39332 -1.043791,1.04379 -0.983351,1.73762 0.215936,2.47882 1.953797,1.20751 6.566906,-3.88267 6.566906,-7.24603 0,-3.9251 -3.672378,-7.6287 -9.209301,-9.287606 C 79.412096,97.449623 78.094069,97.571251 73.675229,99.825575 61.67004,105.95017 61.803527,118.89251 74,131.31421 c 6.057111,6.16897 7.520044,6.95345 16,8.57989 5.133333,0.98456 10.38333,2.33228 11.66667,2.99492 2.94067,1.51839 3.08442,8.1694 0.23809,11.01574 -2.794147,2.79414 -12.768736,2.52728 -20.879584,-0.55863 z M 40.666667,49.166414 c -13.2,-0.458472 -25.37865,-0.908472 -27.063666,-1 C 6.2757808,47.768408 1.5197472,36.459083 5.5290944,28.96755 10.788175,19.140868 18.275703,18.038348 71.774284,19.213113 c 62.573356,1.374035 55.485376,0.567773 55.967666,6.366348 0.55614,6.686382 -1.4732,7.434306 -18.40862,6.784589 -21.448902,-0.822875 -74.369474,-0.559203 -83.221126,0.414641 -6.685127,0.735487 -7.498311,1.09758 -5.333333,2.374814 3.674078,2.167532 105.115849,2.823098 110.211909,0.712244 C 138.65651,32.690497 137.30448,22.32795 128.65977,18 123.64739,15.490565 121.09277,15.355706 85.333333,15.712774 50.908899,16.056513 33.214237,16.005329 14,15.506433 7.8752265,15.347404 7.3007592,15.053109 6.9325892,11.885872 6.0901673,4.638811 5.8395979,4.6666666 71.87148,4.6666666 h 60.79519 l 6.66473,3.3333332 C 148.15319,12.412163 152,18.281856 152,27.330459 c 0,5.53661 -0.77965,8.012391 -3.86411,12.27034 -6.88181,9.500072 -10.43705,10.242185 -49.469223,10.326103 -18.7,0.0402 -44.8,-0.302016 -58,-0.760488 z"
       id="path239" />
  </g>
</svg>
