<?xml version="1.0" encoding="UTF-8" standalone="no"?>
<!-- Created with Inkscape (http://www.inkscape.org/) -->

<svg
   version="1.1"
   id="svg72"
   width="162.66667"
   height="164"
   viewBox="0 0 162.66667 164"
   sodipodi:docname="0129.svg"
   inkscape:version="1.1.2 (0a00cf5339, 2022-02-04)"
   xmlns:inkscape="http://www.inkscape.org/namespaces/inkscape"
   xmlns:sodipodi="http://sodipodi.sourceforge.net/DTD/sodipodi-0.dtd"
   xmlns="http://www.w3.org/2000/svg"
   xmlns:svg="http://www.w3.org/2000/svg">
  <defs
     id="defs76" />
  <sodipodi:namedview
     id="namedview74"
     pagecolor="#ffffff"
     bordercolor="#666666"
     borderopacity="1.0"
     inkscape:pageshadow="2"
     inkscape:pageopacity="0.0"
     inkscape:pagecheckerboard="0"
     showgrid="false"
     inkscape:zoom="5.3231707"
     inkscape:cx="81.342497"
     inkscape:cy="81.906071"
     inkscape:window-width="2560"
     inkscape:window-height="1299"
     inkscape:window-x="0"
     inkscape:window-y="32"
     inkscape:window-maximized="1"
     inkscape:current-layer="g78" />
  <g
     inkscape:groupmode="layer"
     inkscape:label="Image"
     id="g78">
    <path
       style="fill:#000000;stroke-width:1.33333"
       d="m 120.7933,156.34911 c -0.55882,-0.55868 -24.936103,-1.02636 -54.171749,-1.03931 -51.743604,-0.0229 -53.254889,-0.0972 -56.8886367,-2.79849 -6.8220685,-5.07136 -5.493667,-14.48852 2.6399447,-18.7148 3.777007,-1.96256 11.695717,-2.30685 65.79206,-2.86045 33.824041,-0.34615 63.606791,-0.23379 66.183901,0.24967 6.69112,1.25526 11.6562,6.6609 11.63077,12.66275 -0.0348,8.21468 -2.83379,10.13183 -16.64625,11.40177 -5.13334,0.47198 -11.17624,1.14084 -13.42868,1.48638 -2.25244,0.34553 -4.55255,0.17114 -5.11136,-0.38752 z M 78.075607,78.369992 C 76.934024,76.740153 76.000002,74.460153 76.000002,73.303325 76.000002,70.11292 73.224516,68 69.033667,68 c -2.875078,0 -4.093782,0.861251 -5.150082,3.639531 -1.689958,4.444928 -3.439605,5.646853 -8.258764,5.673385 -4.275552,0.02353 -5.549144,-2.149687 -3.889317,-6.636628 1.454382,-3.931571 -0.398,-14.391713 -3.071846,-17.34628 C 45.95648,50.338611 46.166734,46.781407 49.333334,42 c 1.457003,-2.2 2.65305,-5.243117 2.657882,-6.762481 0.01929,-6.06722 4.420157,-15.32991 9.733964,-20.487507 6.439535,-6.2502324 15.796452,-8.8668483 26.793966,-7.4927997 10.202619,1.274733 16.558564,5.4813127 22.402164,14.8265087 4.45664,7.127132 5.19326,9.53717 6.3144,20.658992 1.17574,11.663458 0.36819,22.764504 -1.81482,24.947508 -0.50481,0.504814 -4.03103,1.231028 -7.83603,1.613811 -6.72211,0.676241 -6.93709,0.828237 -7.58486,5.362635 -0.624278,4.36996 -1.048145,4.723962 -6.666665,5.567836 -10.538807,1.582874 -13.058777,1.274932 -15.257728,-1.864511 z"
       id="path100" />
  </g>
</svg>
