<?xml version="1.0" encoding="UTF-8" standalone="no"?>
<!-- Created with Inkscape (http://www.inkscape.org/) -->

<svg
   version="1.1"
   id="svg2"
   width="85.333336"
   height="161.33333"
   viewBox="0 0 85.333336 161.33333"
   sodipodi:docname="0130.svg"
   inkscape:version="1.1.2 (0a00cf5339, 2022-02-04)"
   xmlns:inkscape="http://www.inkscape.org/namespaces/inkscape"
   xmlns:sodipodi="http://sodipodi.sourceforge.net/DTD/sodipodi-0.dtd"
   xmlns="http://www.w3.org/2000/svg"
   xmlns:svg="http://www.w3.org/2000/svg">
  <defs
     id="defs6" />
  <sodipodi:namedview
     id="namedview4"
     pagecolor="#ffffff"
     bordercolor="#666666"
     borderopacity="1.0"
     inkscape:pageshadow="2"
     inkscape:pageopacity="0.0"
     inkscape:pagecheckerboard="0"
     showgrid="false"
     inkscape:zoom="5.4111572"
     inkscape:cx="-7.5769375"
     inkscape:cy="80.574262"
     inkscape:window-width="2560"
     inkscape:window-height="1299"
     inkscape:window-x="0"
     inkscape:window-y="32"
     inkscape:window-maximized="1"
     inkscape:current-layer="g8" />
  <g
     inkscape:groupmode="layer"
     inkscape:label="Image"
     id="g8">
    <path
       style="fill:#000000;stroke-width:1.33333"
       d="m 24.887859,156.44341 c -0.437852,-0.43785 -4.866741,-0.86675 -9.841976,-0.95309 l -9.0458828,-0.15699 -0.3981099,-7.60761 c -0.4818948,-9.2087 1.6220869,-13.92062 10.1388847,-22.70627 16.554746,-17.07735 46.127099,-13.65299 59.127651,6.84676 2.952524,4.65564 3.798243,7.57324 3.798243,13.10335 0,4.48082 -0.616917,7.33732 -1.666667,7.7171 -0.916666,0.33164 -11.566667,0.80416 -23.666667,1.05007 -13.132838,0.26688 -23.138499,1.06289 -24.82469,1.97493 -1.553579,0.84031 -3.182932,1.1696 -3.620786,0.73175 z M 31.333334,74.243517 C 20.511167,70.098237 15.364928,65.880635 11.107279,57.667248 8.7829491,53.183406 6.4738011,46.253903 5.9758394,42.268352 4.6931529,32.002078 10.267943,19.272197 18.748727,13.101813 24.859623,8.6556948 34.824314,5.3333332 42.048571,5.3333332 c 12.879049,0 26.010999,8.2771198 32.055009,20.2044008 8.46198,16.698913 -1.62752,39.470289 -20.4602,46.177403 -10.050956,3.579571 -17.393296,4.411672 -22.310046,2.52838 z"
       id="path1371" />
  </g>
</svg>
