<?xml version="1.0" encoding="UTF-8" standalone="no"?>
<!-- Created with Inkscape (http://www.inkscape.org/) -->

<svg
   version="1.1"
   id="svg12"
   width="157.33333"
   height="154.66667"
   viewBox="0 0 157.33333 154.66667"
   sodipodi:docname="0131.svg"
   inkscape:version="1.1.2 (0a00cf5339, 2022-02-04)"
   xmlns:inkscape="http://www.inkscape.org/namespaces/inkscape"
   xmlns:sodipodi="http://sodipodi.sourceforge.net/DTD/sodipodi-0.dtd"
   xmlns="http://www.w3.org/2000/svg"
   xmlns:svg="http://www.w3.org/2000/svg">
  <defs
     id="defs16" />
  <sodipodi:namedview
     id="namedview14"
     pagecolor="#ffffff"
     bordercolor="#666666"
     borderopacity="1.0"
     inkscape:pageshadow="2"
     inkscape:pageopacity="0.0"
     inkscape:pagecheckerboard="0"
     showgrid="false"
     inkscape:zoom="5.6443964"
     inkscape:cx="30.649867"
     inkscape:cy="77.244752"
     inkscape:window-width="2560"
     inkscape:window-height="1299"
     inkscape:window-x="0"
     inkscape:window-y="32"
     inkscape:window-maximized="1"
     inkscape:current-layer="g18" />
  <g
     inkscape:groupmode="layer"
     inkscape:label="Image"
     id="g18">
    <path
       style="fill:#000000;stroke-width:1.33333"
       d="m 43.870374,146.53704 c -4.067571,-4.06757 -2.6308,-10.47064 4.784786,-21.32373 5.138039,-7.51978 7.251616,-9.40567 13.870025,-12.37583 14.943636,-6.70631 36.507176,-3.31109 45.179315,7.11357 8.72099,10.48339 12.52847,25.06995 7.27746,27.88021 -1.29325,0.69213 -17.184037,1.32245 -35.312856,1.40072 -31.940678,0.1379 -33.04936,0.0544 -35.79873,-2.69494 z M 82.282404,90.531369 C 80.97106,89.768221 78.115722,89.535311 75.93721,90.013793 72.817545,90.698986 71.087764,90.136126 67.792888,87.363667 L 63.609496,83.843576 36.735275,84.776582 C 9.603529,85.718527 3.9686498,85.05996 4.020417,80.95309 4.0868887,75.679646 5.7116983,75.353506 35.421415,74.650115 l 28.857758,-0.68322 3.141302,-3.939567 c 2.990548,-3.750504 3.399394,-3.870679 8.519282,-2.504103 4.310572,1.150558 5.687168,1.062919 6.935771,-0.441554 2.33141,-2.809179 6.877371,-1.54662 8.781363,2.438865 l 1.681872,3.520536 27.354127,0.0024 C 149.16814,73.04593 152,73.565096 152,78.783016 c 0,4.560466 -4.61744,5.358643 -32.14924,5.557358 l -26.715513,0.192822 -2.658417,3.733403 c -2.853047,4.006736 -4.445074,4.44674 -8.194426,2.26477 z M 71.385052,50.723817 C 70.086183,49.288584 65.222292,46.849349 60.576404,45.303297 52.058934,42.468865 43.034967,36.325302 31.999999,25.848333 25.17349,19.367015 20.717249,17.333334 13.341772,17.333334 c -8.1303605,0 -11.867233,-5.30119 -6.9034512,-9.7933504 3.7457852,-3.3898892 3.9894022,-3.3390747 25.5616782,5.3317514 6.793524,2.730609 16.914428,9.066821 29.011132,18.162476 6.641089,4.993515 21.428547,6.011016 31.670075,2.17917 4.217217,-1.577863 9.839174,-4.78734 12.493234,-7.132172 12.09293,-10.683973 32.6909,-20.0628307 42.05444,-19.1486166 3.42065,0.3339778 4.17777,1.0430371 4.54456,4.2560656 0.53794,4.712556 -1.4008,6.09747 -8.57339,6.124258 -5.91777,0.0221 -10.94356,3.05777 -24.53339,14.818626 -7.13779,6.177163 -21.938275,14.535126 -25.73915,14.535126 -1.038796,0 -4.099093,1.5 -6.800661,3.333333 -5.896043,4.001163 -11.525689,4.277576 -14.741797,0.723816 z"
       id="path1214" />
  </g>
</svg>
