<?xml version="1.0" encoding="UTF-8" standalone="no"?>
<!-- Created with Inkscape (http://www.inkscape.org/) -->

<svg
   version="1.1"
   id="svg22"
   width="161.33333"
   height="148"
   viewBox="0 0 161.33333 148"
   sodipodi:docname="0132.svg"
   inkscape:version="1.1.2 (0a00cf5339, 2022-02-04)"
   xmlns:inkscape="http://www.inkscape.org/namespaces/inkscape"
   xmlns:sodipodi="http://sodipodi.sourceforge.net/DTD/sodipodi-0.dtd"
   xmlns="http://www.w3.org/2000/svg"
   xmlns:svg="http://www.w3.org/2000/svg">
  <defs
     id="defs26" />
  <sodipodi:namedview
     id="namedview24"
     pagecolor="#ffffff"
     bordercolor="#666666"
     borderopacity="1.0"
     inkscape:pageshadow="2"
     inkscape:pageopacity="0.0"
     inkscape:pagecheckerboard="0"
     showgrid="false"
     inkscape:zoom="5.8986486"
     inkscape:cx="34.584192"
     inkscape:cy="73.915235"
     inkscape:window-width="2560"
     inkscape:window-height="1299"
     inkscape:window-x="0"
     inkscape:window-y="32"
     inkscape:window-maximized="1"
     inkscape:current-layer="g28" />
  <g
     inkscape:groupmode="layer"
     inkscape:label="Image"
     id="g28">
    <path
       style="fill:#000000;stroke-width:1.33333"
       d="M 17.219233,142.33333 C 17.156473,142.15 16.406477,136.30281 15.552566,129.33959 L 14,116.67918 8.8115822,114.24038 3.6231646,111.80158 4.4496004,98.900788 C 4.90414,91.805355 5.6255715,80 6.0527813,72.666667 7.1400792,54.002493 7.3377492,53.333333 11.763847,53.333333 c 2.456638,0 5.104539,1.466295 7.825326,4.333334 8.221618,8.663556 8.296986,9.122328 7.706964,46.912823 -0.364315,23.33409 -1.032012,34.96564 -2.079628,36.22794 -1.261315,1.5198 -7.586272,2.72661 -7.997276,1.5259 z m 126.666657,0 c -0.0628,-0.18333 -0.81275,-6.03052 -1.66667,-12.99374 l -1.55256,-12.66041 -5.18841,-2.4388 -5.18842,-2.4388 0.82643,-12.900792 C 131.5708,91.805355 132.29224,80 132.71945,72.666667 c 1.08729,-18.664174 1.28496,-19.333334 5.71107,-19.333334 2.45662,0 5.10453,1.466295 7.82532,4.333334 8.22161,8.663556 8.29698,9.122328 7.70696,46.912823 -0.36431,23.33409 -1.03202,34.96564 -2.07963,36.22794 -1.26131,1.5198 -7.58627,2.72661 -7.99728,1.5259 z M 47.333332,38.761471 C 33.805921,35.342712 23.565166,30.047717 13.159538,21.091868 4.2483872,13.422275 2.0724065,9.3632276 5.6666665,7.1147583 6.5833332,6.5413171 31.033333,6.0039299 59.999999,5.9205645 88.966665,5.8371992 113.56666,5.6503837 114.66666,5.5054191 c 1.1,-0.1449648 7.99223,0.2070122 15.31605,0.782171 l 13.31606,1.0457432 5.23767,7.6275137 c 4.05466,5.904718 5.3705,9.229248 5.82576,14.719049 0.70228,8.468549 -1.34251,10.926164 -9.09079,10.926164 -6.32208,0 -10.12344,-3.273028 -12.18304,-10.489796 -2.44115,-8.553728 -3.38968,-9.192841 -8.22283,-5.540501 -8.72687,6.59476 -26.604715,14.046106 -36.90848,15.383165 -14.755034,1.914675 -30.099247,1.462376 -40.623728,-1.197457 z M 145.33333,27.588173 c 0,-2.629942 -3.47128,-6.855682 -4.39883,-5.354882 -1.28116,2.072962 0.5274,7.100042 2.55434,7.100042 1.01446,0 1.84449,-0.785322 1.84449,-1.74516 z"
       id="path1075" />
  </g>
</svg>
