<?xml version="1.0" encoding="UTF-8" standalone="no"?>
<!-- Created with Inkscape (http://www.inkscape.org/) -->

<svg
   version="1.1"
   id="svg32"
   width="161.33333"
   height="168"
   viewBox="0 0 161.33333 168"
   sodipodi:docname="0133.svg"
   inkscape:version="1.1.2 (0a00cf5339, 2022-02-04)"
   xmlns:inkscape="http://www.inkscape.org/namespaces/inkscape"
   xmlns:sodipodi="http://sodipodi.sourceforge.net/DTD/sodipodi-0.dtd"
   xmlns="http://www.w3.org/2000/svg"
   xmlns:svg="http://www.w3.org/2000/svg">
  <defs
     id="defs36" />
  <sodipodi:namedview
     id="namedview34"
     pagecolor="#ffffff"
     bordercolor="#666666"
     borderopacity="1.0"
     inkscape:pageshadow="2"
     inkscape:pageopacity="0.0"
     inkscape:pagecheckerboard="0"
     showgrid="false"
     inkscape:zoom="5.1964286"
     inkscape:cx="28.4811"
     inkscape:cy="83.90378"
     inkscape:window-width="2560"
     inkscape:window-height="1299"
     inkscape:window-x="0"
     inkscape:window-y="32"
     inkscape:window-maximized="1"
     inkscape:current-layer="g38" />
  <g
     inkscape:groupmode="layer"
     inkscape:label="Image"
     id="g38">
    <path
       style="fill:#000000;stroke-width:1.33333"
       d="m 46.097239,156.57343 c -6.348992,-6.34899 -2.011821,-15.2401 7.434272,-15.2401 4.262136,0 5.389692,0.62466 7.100914,3.93379 2.719296,5.25853 2.592428,6.29591 -1.238486,10.12681 -3.780397,3.7804 -10.132341,4.34386 -13.2967,1.1795 z m 27.203091,-1.3269 c -1.844291,-4.85085 -1.639959,-6.53168 1.223992,-10.06852 1.921534,-2.37298 3.862838,-3.11741 8.12964,-3.11741 6.517271,0 9.346036,2.803 9.346036,9.26091 0,5.81718 -2.142573,7.34516 -10.299668,7.34516 -6.394184,0 -7.22888,-0.33986 -8.4,-3.42014 z m 30.96633,1.82014 c -2.18489,-2.1849 -2.0188,-10.6509 0.27036,-13.78152 2.52573,-3.45414 11.56163,-3.4825 15.35648,-0.0481 3.12197,2.82535 3.83008,11.17282 1.17316,13.82972 -2.07603,2.07603 -14.72396,2.07603 -16.8,0 z m 16.52663,-26.0509 c -0.55881,-0.55867 -24.936097,-1.02636 -54.171742,-1.03931 -51.743602,-0.0229 -53.254887,-0.0973 -56.8886341,-2.79849 -6.8220682,-5.07136 -5.4936668,-14.48851 2.6399451,-18.7148 3.777006,-1.96256 11.695717,-2.30684 65.792057,-2.86045 33.824034,-0.34614 63.606784,-0.23379 66.183894,0.24968 6.69112,1.25526 11.6562,6.66089 11.63077,12.66275 -0.0348,8.21468 -2.83378,10.13182 -16.64625,11.40177 -5.13333,0.47197 -11.17624,1.14084 -13.42867,1.48637 -2.25244,0.34554 -4.55256,0.17115 -5.11137,-0.38752 z M 78.075604,78.369992 C 76.934021,76.740153 75.999998,74.460153 75.999998,73.303325 75.999998,70.11292 73.224513,68 69.033664,68 c -2.875077,0 -4.093781,0.861251 -5.150081,3.639531 -1.689959,4.444928 -3.439606,5.646853 -8.258764,5.673385 -4.275552,0.02353 -5.549144,-2.149687 -3.889317,-6.636628 1.454382,-3.931571 -0.398,-14.391713 -3.071846,-17.34628 C 45.956478,50.338611 46.166732,46.781407 49.333332,42 c 1.457003,-2.2 2.65305,-5.243117 2.657882,-6.762481 0.01929,-6.06722 4.420157,-15.32991 9.733963,-20.487507 6.439535,-6.2502324 15.796452,-8.8668483 26.793965,-7.4927997 10.202619,1.274733 16.558568,5.4813127 22.402168,14.8265087 4.45663,7.127132 5.19326,9.53717 6.3144,20.658992 1.17573,11.663458 0.36818,22.764504 -1.81482,24.947508 -0.50482,0.504814 -4.03103,1.231028 -7.83603,1.613811 -6.72211,0.676241 -6.93709,0.828237 -7.584862,5.362635 -0.62428,4.36996 -1.048147,4.723962 -6.666667,5.567836 -10.538806,1.582874 -13.058777,1.274932 -15.257727,-1.864511 z"
       id="path936" />
  </g>
</svg>
