<?xml version="1.0" encoding="UTF-8" standalone="no"?>
<!-- Created with Inkscape (http://www.inkscape.org/) -->

<svg
   version="1.1"
   id="svg42"
   width="162.66667"
   height="162.66667"
   viewBox="0 0 162.66667 162.66667"
   sodipodi:docname="0134.svg"
   inkscape:version="1.1.2 (0a00cf5339, 2022-02-04)"
   xmlns:inkscape="http://www.inkscape.org/namespaces/inkscape"
   xmlns:sodipodi="http://sodipodi.sourceforge.net/DTD/sodipodi-0.dtd"
   xmlns="http://www.w3.org/2000/svg"
   xmlns:svg="http://www.w3.org/2000/svg">
  <defs
     id="defs46" />
  <sodipodi:namedview
     id="namedview44"
     pagecolor="#ffffff"
     bordercolor="#666666"
     borderopacity="1.0"
     inkscape:pageshadow="2"
     inkscape:pageopacity="0.0"
     inkscape:pagecheckerboard="0"
     showgrid="false"
     inkscape:zoom="5.3668031"
     inkscape:cx="30.74456"
     inkscape:cy="81.240171"
     inkscape:window-width="2560"
     inkscape:window-height="1299"
     inkscape:window-x="0"
     inkscape:window-y="32"
     inkscape:window-maximized="1"
     inkscape:current-layer="g48" />
  <g
     inkscape:groupmode="layer"
     inkscape:label="Image"
     id="g48">
    <path
       style="fill:#000000;stroke-width:1.33333"
       d="M 21.333334,153.5907 C 15.354462,150.66803 9.4081127,140.19834 9.3644791,132.51722 c -0.024846,-4.37374 0.9802359,-6.73344 4.9688549,-11.66573 2.823097,-3.49101 6.886648,-6.80888 9.333333,-7.62062 2.751483,-0.91286 4.333334,-2.31378 4.333334,-3.83768 0,-4.19434 -3.493242,-5.82465 -10.661367,-4.97569 -7.7857625,0.92211 -11.6356751,-1.45877 -9.3288204,-5.769167 0.735823,-1.374899 2.0107374,-2.915676 2.8331434,-3.423951 0.822406,-0.508275 11.19255,-1.205748 23.044764,-1.549941 23.395364,-0.679411 25.497884,-0.115367 24.547966,6.585509 -0.386378,2.72555 -1.33505,3.14883 -8.382363,3.74005 -7.114222,0.59683 -8.027714,1.01296 -8.720254,3.97236 -0.661333,2.82604 -0.02451,3.6763 4.38898,5.85991 6.020912,2.97892 11.385551,10.41023 12.507899,17.32646 1.028811,6.33981 -2.474957,15.54235 -7.250176,19.04238 -8.259659,6.05396 -21.175134,7.53064 -29.646439,3.38959 z M 139.2076,150.09028 c -7.67652,-3.49158 -11.6227,-7.19229 -15.32371,-14.37049 -3.23322,-6.27094 -3.20736,-9.20524 0.13895,-15.76455 7.06898,-13.85634 30.64383,-10.28542 30.64383,4.64167 0,8.31759 -12.45672,13.51585 -17.70368,7.38785 -1.26297,-1.47505 -2.29632,-3.39505 -2.29632,-4.26667 0,-1.14608 -0.40327,-1.18148 -1.45686,-0.1279 -1.05358,1.05358 -0.99329,2.3269 0.21779,4.6 2.30199,4.3206 4.63182,5.86137 13.90574,9.19621 9.26997,3.33343 11.85846,5.80768 9.90142,9.46445 -1.84424,3.44599 -9.48768,3.12351 -18.02716,-0.76057 z m 6.12574,-27.28096 c 0,-3.00673 -2.82876,-4.38661 -5.45424,-2.66062 -1.55783,1.02411 -1.4366,1.57292 0.70908,3.20997 3.45673,2.63734 4.74516,2.48817 4.74516,-0.54935 z M 17.398707,88.277687 c -4.762084,-10.451636 5.875452,-17.502314 17.408327,-11.538432 3.379884,1.747805 11.658014,2.115596 52.826957,2.347059 45.555749,0.256125 49.026689,0.11112 51.925849,-2.16936 3.8079,-2.995292 3.92803,-5.429081 0.44016,-8.916953 -2.55032,-2.550314 -4.44444,-2.666666 -43.411261,-2.666666 -38.46439,0 -58.264824,1.334736 -61.188738,4.124696 -0.696667,0.66475 -4.059054,1.208637 -7.47197,1.208637 -4.738755,0 -7.039111,-0.772747 -9.733333,-3.269668 -4.251255,-3.939929 -4.395779,-5.934213 -0.764591,-10.55052 2.252843,-2.864026 3.870369,-3.513146 8.754323,-3.513146 3.294984,0 7.171008,0.631586 8.613387,1.403522 1.691205,0.905106 18.486659,1.387384 47.295415,1.358076 53.900248,-0.05484 62.390428,1.149343 66.687188,9.458373 3.99586,7.727143 0.94506,17.119521 -6.39142,19.677034 -7.08628,2.470289 -34.25988,4.101717 -67.055665,4.025833 -16.866667,-0.03903 -36.487249,0.415562 -43.601294,1.010194 -12.69341,1.060987 -12.960711,1.0239 -14.333334,-1.988679 z m 12.05787,-4.944352 c -0.0097,-0.733333 -1.24138,-1.525064 -2.737095,-1.759401 -2.681568,-0.420128 -3.607644,1.09346 -1.7845,2.916605 1.296477,1.296477 4.543032,0.465592 4.521595,-1.157204 z m 1.21009,-21.333334 c 0,-1.11111 -1.185185,-2 -2.666666,-2 -1.481482,0 -2.666667,0.88889 -2.666667,2 0,1.111111 1.185185,2 2.666667,2 1.481481,0 2.666666,-0.888889 2.666666,-2 z M 8.6856896,43.512122 C 5.8938591,41.470686 6.1410316,40.49395 13.454718,24.666667 c 2.033212,-4.4 4.607053,-10.25 5.719646,-13 1.589079,-3.9277259 2.746527,-5.0000002 5.397169,-5.0000002 2.594282,0 4.003218,1.2328398 6.095134,5.3333332 3.074506,6.026528 3.974711,6.377903 7.202439,2.811304 2.667013,-2.947017 6.919026,-2.314795 9.22086,1.371027 1.998536,3.200167 4.452622,3.163709 6.195042,-0.09203 2.167896,-4.050751 6.254347,-4.646191 10.260375,-1.495049 3.174917,2.497391 3.759024,2.574237 5.765382,0.758507 2.819343,-2.551469 9.206042,-2.629056 10.167509,-0.12352 1.257082,3.275905 4.784202,3.657522 7.441597,0.805144 3.173948,-3.406834 5.165452,-3.400859 9.525271,0.02857 l 3.471431,2.730628 2.338037,-2.730628 c 2.68708,-3.138281 8.14984,-3.632055 9.22366,-0.833719 1.3083,3.409356 4.81731,3.623583 8.14512,0.497263 3.13177,-2.942141 3.30679,-2.958336 7.28653,-0.674276 4.60067,2.640424 6.58568,1.753191 9.45051,-4.224059 0.95916,-2.0012384 2.78521,-3.4958345 4.27109,-3.4958345 3.22296,0 8.23931,7.2234855 10.09363,14.5347185 0.76239,3.005905 1.8864,6.665282 2.49781,8.131949 3.63327,8.715428 4.11383,10.555309 3.36951,12.900467 -0.67324,2.121166 -1.59221,2.435094 -5.04123,1.722104 -5.03578,-1.041014 -7.22805,-3.543922 -8.35209,-9.53561 -1.02156,-5.445341 -2.66051,-6.629577 -5.61649,-4.058227 -3.52778,3.068732 -5.91953,3.425307 -10.50336,1.565898 -3.56963,-1.448003 -4.50757,-1.420138 -5.82993,0.173202 -2.12674,2.562571 -7.81837,2.400515 -10.81105,-0.307818 -2.17674,-1.969927 -2.68863,-1.991668 -4.77165,-0.202666 -4.10596,3.5264 -6.485816,3.602707 -10.294417,0.330074 -2.882432,-2.4768 -4.246107,-2.88024 -6.200351,-1.83436 -1.377879,0.737417 -2.505234,1.855456 -2.505234,2.484529 0,2.753313 -4.25047,2.402948 -7.511381,-0.619161 -1.949573,-1.806804 -3.669452,-3.285099 -3.821952,-3.285099 -0.1525,0 -1.898923,1.502895 -3.88094,3.339765 -3.954019,3.664462 -7.293615,3.013303 -10.447642,-2.037096 -1.539517,-2.46516 -1.793084,-2.395032 -5.966687,1.650183 l -4.358841,4.224755 -3.9973,-3.829656 -3.997301,-3.829658 -3.094914,2.90752 c -4.041149,3.796463 -6.794363,3.672584 -10.038504,-0.451673 -2.396852,-3.047104 -2.836091,-3.165445 -4.727763,-1.273772 -1.146983,1.146981 -2.778047,4.397197 -3.624588,7.222701 -0.964961,3.220755 -2.742635,5.685618 -4.765081,6.607106 -4.12218,1.878191 -4.737093,1.850304 -7.7480844,-0.351387 z"
       id="path797" />
  </g>
</svg>
