<?xml version="1.0" encoding="UTF-8" standalone="no"?>
<!-- Created with Inkscape (http://www.inkscape.org/) -->

<svg
   version="1.1"
   id="svg52"
   width="157.33333"
   height="157.33333"
   viewBox="0 0 157.33333 157.33333"
   sodipodi:docname="0135.svg"
   inkscape:version="1.1.2 (0a00cf5339, 2022-02-04)"
   xmlns:inkscape="http://www.inkscape.org/namespaces/inkscape"
   xmlns:sodipodi="http://sodipodi.sourceforge.net/DTD/sodipodi-0.dtd"
   xmlns="http://www.w3.org/2000/svg"
   xmlns:svg="http://www.w3.org/2000/svg">
  <defs
     id="defs56" />
  <sodipodi:namedview
     id="namedview54"
     pagecolor="#ffffff"
     bordercolor="#666666"
     borderopacity="1.0"
     inkscape:pageshadow="2"
     inkscape:pageopacity="0.0"
     inkscape:pagecheckerboard="0"
     showgrid="false"
     inkscape:zoom="5.548729"
     inkscape:cx="29.73654"
     inkscape:cy="78.576553"
     inkscape:window-width="2560"
     inkscape:window-height="1299"
     inkscape:window-x="0"
     inkscape:window-y="32"
     inkscape:window-maximized="1"
     inkscape:current-layer="g58" />
  <g
     inkscape:groupmode="layer"
     inkscape:label="Image"
     id="g58">
    <path
       style="fill:#000000;stroke-width:1.33333"
       d="M 92.666665,149.09893 C 89.385123,147.2695 73.062249,130.761 66.508297,122.64309 c -2.653769,-3.28704 -5.922508,-8.37643 -7.263862,-11.30976 -1.341355,-2.93333 -2.8372,-5.63333 -3.324102,-6 -2.150989,-1.61983 -5.490937,-25.241602 -4.522085,-31.982432 2.12023,-14.751579 13.154796,-24.017566 28.60175,-24.017566 16.063435,0 26.666662,9.475904 26.666662,23.831486 0,5.207759 -0.74936,7.521146 -3.49215,10.78077 -7.898817,9.38721 -18.693822,10.843677 -26.412909,3.563641 -4.7081,-4.440311 -5.456235,-6.784172 -3.953457,-12.385959 1.336972,-4.983729 11.191854,-4.90121 11.191854,0.09371 0,0.984405 0.96877,2.593836 2.152822,3.57651 1.841007,1.527903 2.491947,1.367878 4.494238,-1.104846 3.159736,-3.90211 2.005721,-8.90232 -3.03314,-13.142243 -3.318077,-2.791978 -4.919654,-3.264892 -8.67258,-2.560838 -6.738272,1.264106 -9.293519,3.303484 -12.388235,9.887209 -3.217246,6.844393 -2.813066,10.878245 2.417473,24.127222 5.191941,13.151216 21.688037,34.758826 32.696084,42.827376 3.86795,2.83508 4.80891,7.49705 2.06667,10.23929 -1.9888,1.9888 -7.528164,2.00495 -11.066665,0.0323 z M 5.3051855,31.947405 c -1.5489658,-2.89427 -1.6718336,-7.97304 -0.2471097,-10.214349 0.7096697,-1.11642 6.8514592,-1.62997 20.3129152,-1.698478 10.612622,-0.05401 21.373048,-0.111253 23.91206,-0.127213 2.539012,-0.01596 4.872131,-0.284764 5.184707,-0.597341 0.312577,-0.312582 -0.370663,-2.507118 -1.518311,-4.876751 -1.458728,-3.011944 -1.700804,-5.0293505 -0.804461,-6.7041822 1.776996,-3.3203474 4.357003,-2.9948425 8.048399,1.0154207 5.463282,5.9352055 8.487472,6.3695015 12.991324,1.8656485 3.515768,-3.5157667 4.367911,-3.7946609 7.717068,-2.5256862 2.070688,0.7845708 5.09602,2.6733882 6.72296,4.1973722 l 2.958072,2.770879 5.468258,-4.940244 c 8.461473,-7.6444335 16.030173,-4.3882174 9.398003,4.043221 -1.51034,1.920086 -2.49369,3.899424 -2.18523,4.398531 0.30847,0.499108 10.17936,0.696271 21.93531,0.438141 C 149.62925,18.455953 152,19.073021 152,25.968222 c 0,2.497585 -0.7303,4.992408 -1.62286,5.544048 -0.89257,0.55164 -22.64257,1.177143 -48.33334,1.390007 C 76.353045,33.115141 44.370666,33.536095 30.971851,33.837734 8.4143812,34.345554 6.5137197,34.205571 5.3051855,31.947405 Z"
       id="path658" />
  </g>
</svg>
