<?xml version="1.0" encoding="UTF-8" standalone="no"?>
<!-- Created with Inkscape (http://www.inkscape.org/) -->

<svg
   version="1.1"
   id="svg62"
   width="156"
   height="162.66667"
   viewBox="0 0 156 162.66667"
   sodipodi:docname="0136.svg"
   inkscape:version="1.1.2 (0a00cf5339, 2022-02-04)"
   xmlns:inkscape="http://www.inkscape.org/namespaces/inkscape"
   xmlns:sodipodi="http://sodipodi.sourceforge.net/DTD/sodipodi-0.dtd"
   xmlns="http://www.w3.org/2000/svg"
   xmlns:svg="http://www.w3.org/2000/svg">
  <defs
     id="defs66" />
  <sodipodi:namedview
     id="namedview64"
     pagecolor="#ffffff"
     bordercolor="#666666"
     borderopacity="1.0"
     inkscape:pageshadow="2"
     inkscape:pageopacity="0.0"
     inkscape:pagecheckerboard="0"
     showgrid="false"
     inkscape:zoom="5.3668031"
     inkscape:cx="27.390608"
     inkscape:cy="81.240171"
     inkscape:window-width="2560"
     inkscape:window-height="1299"
     inkscape:window-x="0"
     inkscape:window-y="32"
     inkscape:window-maximized="1"
     inkscape:current-layer="g68" />
  <g
     inkscape:groupmode="layer"
     inkscape:label="Image"
     id="g68">
    <path
       style="fill:#000000;stroke-width:1.33333"
       d="m 40.006475,157.55556 c -0.736895,-0.24445 -1.339808,-2.19445 -1.339808,-4.33333 0,-4.07012 0.77924,-4.432 8.438157,-3.91869 7.044751,0.47214 11.941269,-9.563 11.608452,-23.79089 -0.271567,-11.60943 -1.559637,-15.53767 -6.765284,-20.63214 -6.064399,-5.934876 -11.086513,-17.280592 -10.063336,-22.734595 0.468917,-2.499544 1.7367,-5.278383 2.817293,-6.175196 2.568767,-2.131887 2.502383,-4.812426 -0.144332,-5.828066 C 41.007039,68.780168 37.741904,69.234469 36,71.333335 c -2.105133,2.536531 -3.292139,2.517385 -5.904761,-0.09524 -2.593164,-2.593164 -2.719568,-7.726762 -0.240907,-9.783868 1.019883,-0.846427 4.062703,-1.8217 6.76182,-2.167272 2.699119,-0.345574 5.914669,-1.16724 7.145668,-1.825926 3.455372,-1.848911 22.49286,-1.564011 24.090073,0.360514 0.747748,0.900981 1.53697,6.373096 1.753824,12.160254 L 70,80.503907 81.044885,89.918621 c 6.074688,5.178093 13.117826,12.530859 15.651418,16.339469 2.533592,3.80862 7.929727,10.32858 11.991407,14.48881 4.06169,4.16023 8.01807,8.74718 8.79196,10.19321 0.7739,1.44604 3.50285,4.94892 6.06435,7.78419 6.11362,6.76705 5.85313,11.43877 -0.60937,10.92854 -3.82325,-0.30185 -4.57966,0.17664 -5.79629,3.66667 -0.76957,2.2076 -2.16553,4.01383 -3.10213,4.01383 -0.93659,0 -3.48591,0.3566 -5.66514,0.79245 -5.19411,1.03881 -10.222394,-3.49783 -12.61597,-11.38245 -0.965316,-3.17983 -3.502495,-7.64792 -5.638175,-9.92908 l -3.883054,-4.14759 -1.082248,3.96809 c -0.595236,2.18246 -2.391516,4.95568 -3.991734,6.16272 -3.687545,2.78152 -2.530202,6.19928 2.293528,6.77303 1.986012,0.23623 4.257963,1.46297 5.048779,2.72613 2.903028,4.63692 -0.588347,5.43315 -24.430543,5.5715 -12.498965,0.0725 -23.328305,-0.0681 -24.065198,-0.31258 z m 30.660192,-11.79094 c 0,-2.63852 -0.586559,-3.19974 -2.986379,-2.85735 -3.332917,0.47551 -4.869335,4.86715 -2.265724,6.47627 2.707411,1.67328 5.252103,-0.0801 5.252103,-3.61892 z M 144.34879,44.627566 c -1.50159,-1.051753 -3.81288,-4.923219 -5.1362,-8.603255 -1.32332,-3.680037 -2.99884,-6.690977 -3.72338,-6.690977 -0.72454,0 -2.72756,1.324836 -4.45117,2.94408 -3.08539,2.898577 -3.2031,2.906771 -7.61613,0.530199 -4.39459,-2.366642 -4.53716,-2.359024 -7.28544,0.389253 -3.5046,3.504601 -5.72388,3.539005 -8.80314,0.136468 -3.04452,-3.364156 -4.95548,-3.364156 -7.999997,0 -1.327314,1.466667 -3.37598,2.666667 -4.552588,2.666667 -1.176608,0 -2.8887,-1.2 -3.804648,-2.666667 -1.637378,-2.62186 -5.642764,-3.728224 -5.642764,-1.55864 0,0.609415 -1.465094,1.892123 -3.255765,2.85046 -2.928177,1.567113 -3.69504,1.372809 -7.621513,-1.9311 l -4.365746,-3.673533 -1.87445,2.823073 c -2.544122,3.831651 -7.101488,3.551635 -10.764683,-0.661409 l -3.029719,-3.484482 -2.524464,4.151148 c -3.064738,5.039559 -5.943717,5.244003 -10.629412,0.754822 l -3.545002,-3.396328 -2.22536,3.396328 c -2.901696,4.428548 -7.828531,4.457532 -10.707943,0.06299 -2.559077,-3.905645 -4.58384,-4.267525 -5.595125,-1 C 15.884264,42.361128 10.938374,46.539369 7.2137527,41.787596 4.6130061,38.469633 5.4962435,33.469725 11.057345,20.029452 15.543093,9.1881333 19.661964,4.1429916 22.563228,5.9360716 c 0.748465,0.4625769 2.586779,3.6124722 4.08514,6.9997674 l 2.724293,6.158719 3.066271,-2.880612 c 3.986795,-3.745399 5.96388,-3.632311 10.374592,0.59342 l 3.626108,3.47403 3.020631,-3.47403 C 53.078928,12.645535 56.0758,12.400467 59.333333,16 c 3.051119,3.371448 4.918399,3.371448 7.023903,0 2.158569,-3.456417 7.793625,-3.456417 9.952195,0 0.915948,1.466667 2.32804,2.666667 3.137981,2.666667 0.809941,0 2.558607,-1.2 3.885921,-2.666667 1.327315,-1.466666 3.515223,-2.666666 4.862019,-2.666666 1.346795,0 3.198131,1.2 4.114079,2.666666 0.915948,1.466667 2.32804,2.666667 3.137981,2.666667 0.809941,0 2.558607,-1.2 3.885921,-2.666667 3.044517,-3.364156 4.955477,-3.364156 7.999997,0 3.07194,3.394454 4.43191,3.35205 8.27464,-0.258004 2.8378,-2.665981 3.52924,-2.774216 7.81718,-1.223674 5.01407,1.813109 8.57485,0.442201 8.57485,-3.301336 0,-0.984406 1.15767,-2.409394 2.5726,-3.16664 4.04219,-2.1633175 6.47453,1.5718942 14.62631,22.460792 C 150.73951,34.45893 152,39.087819 152,40.79756 c 0,4.267206 -4.09817,6.318649 -7.65121,3.830006 z"
       id="path519" />
  </g>
</svg>
