<?xml version="1.0" encoding="UTF-8" standalone="no"?>
<!-- Created with Inkscape (http://www.inkscape.org/) -->

<svg
   version="1.1"
   id="svg72"
   width="160"
   height="152"
   viewBox="0 0 160 152"
   sodipodi:docname="0137.svg"
   inkscape:version="1.1.2 (0a00cf5339, 2022-02-04)"
   xmlns:inkscape="http://www.inkscape.org/namespaces/inkscape"
   xmlns:sodipodi="http://sodipodi.sourceforge.net/DTD/sodipodi-0.dtd"
   xmlns="http://www.w3.org/2000/svg"
   xmlns:svg="http://www.w3.org/2000/svg">
  <defs
     id="defs76" />
  <sodipodi:namedview
     id="namedview74"
     pagecolor="#ffffff"
     bordercolor="#666666"
     borderopacity="1.0"
     inkscape:pageshadow="2"
     inkscape:pageopacity="0.0"
     inkscape:pagecheckerboard="0"
     showgrid="false"
     inkscape:zoom="5.7434211"
     inkscape:cx="32.733104"
     inkscape:cy="75.912944"
     inkscape:window-width="2560"
     inkscape:window-height="1299"
     inkscape:window-x="0"
     inkscape:window-y="32"
     inkscape:window-maximized="1"
     inkscape:current-layer="g78" />
  <g
     inkscape:groupmode="layer"
     inkscape:label="Image"
     id="g78">
    <path
       style="fill:#000000;stroke-width:1.33333"
       d="m 46.996368,145.72521 c -1.651999,-0.31806 -5.851999,-3.8776 -9.333333,-7.91009 C 32.299044,131.60194 30.824773,130.6077 28,131.29843 c -11.836496,2.89434 -15.06146,3.25077 -17.517909,1.93612 -5.8210335,-3.11532 -5.7482195,-13.35155 0.108197,-15.21031 3.897475,-1.23701 3.397457,-4.12725 -1.3170357,-7.61282 -2.9766642,-2.20074 -3.9550999,-3.90142 -3.6666667,-6.37325 0.5209175,-4.464186 5.0583884,-5.080754 10.8858154,-1.4792 4.440906,2.74462 4.454375,2.74481 6.851943,0.0955 2.445249,-2.701971 5.425241,-3.298787 9.213273,-1.84518 3.212622,1.2328 2.534956,4.12396 -1.89095,8.06746 -3.873918,3.45167 -5.29606,7.12322 -2.75912,7.12322 2.341954,0 10.661694,6.00027 11.440814,8.25122 1.337418,3.86391 9.872543,10.41545 13.56891,10.41545 1.920132,0 7.250209,-1.77608 11.844618,-3.94683 7.342186,-3.46901 9.94047,-3.9707 21.462459,-4.14404 14.186752,-0.21342 19.858092,0.7837 38.791592,6.82024 7.43236,2.36964 15.24406,3.93729 19.61975,3.93729 5.8187,0 7.54556,0.514 8.64808,2.57407 1.03988,1.94303 0.86459,3.08709 -0.71498,4.66667 -2.67468,2.67468 -25.22396,2.8922 -37.90262,0.36562 -10.20125,-2.03286 -34.390569,-1.90536 -41.999503,0.22139 -5.14855,1.43907 -19.489156,1.75421 -25.670299,0.56413 z M 11.219938,46.483188 C 10.704345,45.648943 10.121386,37.398943 9.9244725,28.149855 9.4844525,7.4819639 10.63166,4.6198452 18.910776,5.7303077 c 2.920201,0.3916812 5.664787,1.067477 6.099077,1.5017682 0.434292,0.4342913 0.933814,8.8928081 1.11005,18.7967031 0.257478,14.469577 -0.06895,18.396461 -1.661643,19.989152 -2.327568,2.327568 -11.879869,2.663281 -13.238322,0.465257 z M 76,47.028145 C 74.9,46.609413 73.604721,45.659913 73.121603,44.918144 71.471892,42.385209 72.769335,9.6194783 74.607025,7.4051973 77.035196,4.4794308 84.763847,4.7372757 86.924395,7.8161321 89.279732,11.17257 88.061728,42.712485 85.4555,45.852799 83.679835,47.992344 79.7999,48.474632 76,47.028145 Z m 62.02483,-1.654641 c -0.43958,-0.71124 -1.13414,-9.128496 -1.54346,-18.705013 -0.83076,-19.4358982 -0.22894,-21.3351577 6.76039,-21.3351577 8.21293,0 8.93451,1.5843586 9.19261,20.1842497 0.2672,19.254354 -0.496,21.149084 -8.51894,21.149084 -2.80026,0 -5.45103,-0.581924 -5.8906,-1.293163 z"
       id="path398" />
  </g>
</svg>
