<?xml version="1.0" encoding="UTF-8" standalone="no"?>
<!-- Created with Inkscape (http://www.inkscape.org/) -->

<svg
   version="1.1"
   id="svg82"
   width="158.66667"
   height="161.33333"
   viewBox="0 0 158.66667 161.33333"
   sodipodi:docname="0138.svg"
   inkscape:version="1.1.2 (0a00cf5339, 2022-02-04)"
   xmlns:inkscape="http://www.inkscape.org/namespaces/inkscape"
   xmlns:sodipodi="http://sodipodi.sourceforge.net/DTD/sodipodi-0.dtd"
   xmlns="http://www.w3.org/2000/svg"
   xmlns:svg="http://www.w3.org/2000/svg">
  <defs
     id="defs86" />
  <sodipodi:namedview
     id="namedview84"
     pagecolor="#ffffff"
     bordercolor="#666666"
     borderopacity="1.0"
     inkscape:pageshadow="2"
     inkscape:pageopacity="0.0"
     inkscape:pagecheckerboard="0"
     showgrid="false"
     inkscape:zoom="5.4111572"
     inkscape:cx="29.19893"
     inkscape:cy="80.574262"
     inkscape:window-width="2560"
     inkscape:window-height="1299"
     inkscape:window-x="0"
     inkscape:window-y="32"
     inkscape:window-maximized="1"
     inkscape:current-layer="g88" />
  <g
     inkscape:groupmode="layer"
     inkscape:label="Image"
     id="g88">
    <path
       style="fill:#000000;stroke-width:1.33333"
       d="m 7.8703752,153.2037 c -4.0675717,-4.06757 -2.6308,-10.47064 4.7847858,-21.32373 5.138039,-7.51978 7.251617,-9.40566 13.870026,-12.37583 14.943637,-6.7063 36.507177,-3.31108 45.179313,7.11357 8.720996,10.48339 12.528474,25.06995 7.277467,27.88021 -1.293253,0.69213 -17.18404,1.32245 -35.312861,1.40072 -31.940679,0.1379 -33.04936,0.0544 -35.7987308,-2.69494 z M 109.5065,138.96316 c -2.95058,-5.0521 -6.26503,-9.93283 -7.36543,-10.84609 -1.1004,-0.91325 -3.011287,-4.30656 -4.246408,-7.54067 -3.550779,-9.29758 -0.630891,-11.21251 11.772008,-7.72034 1.28333,0.36133 2.33903,1.36654 2.346,2.23379 0.007,0.86725 2.40697,5.35093 5.33333,9.96374 2.92637,4.61281 5.32067,9.14281 5.32067,10.06666 0,0.92387 0.64691,2.32665 1.43757,3.11732 0.79066,0.79067 1.24066,3.16067 1,5.26667 -0.383,3.35153 -1.04841,3.87994 -5.33531,4.23681 -4.77322,0.39736 -5.03413,0.1742 -10.26243,-8.77789 z m 26.66666,0 c -2.95058,-5.0521 -6.26502,-9.93283 -7.36542,-10.84609 -1.10041,-0.91325 -3.01129,-4.30656 -4.24641,-7.54067 -3.55078,-9.29758 -0.63089,-11.21251 11.77201,-7.72034 1.28333,0.36133 2.33904,1.36654 2.346,2.23379 0.007,0.86725 2.40697,5.35093 5.33333,9.96374 2.92637,4.61281 5.32067,9.14281 5.32067,10.06666 0,0.92387 0.6469,2.32665 1.43757,3.11732 0.79067,0.79067 1.24067,3.16067 1,5.26667 -0.383,3.35153 -1.04841,3.87994 -5.33532,4.23681 -4.77321,0.39736 -5.03412,0.1742 -10.26243,-8.77789 z M 47.333334,96.094802 C 33.805922,92.676043 23.565167,87.381049 13.159539,78.4252 4.2483874,70.755607 2.0724066,66.69656 5.6666668,64.448091 6.5833335,63.874649 31.033334,63.337261 60.000001,63.253896 c 28.966668,-0.08336 53.566669,-0.27018 54.666669,-0.415145 1.1,-0.144964 7.99222,0.207012 15.31605,0.782172 l 13.31606,1.045742 5.23766,7.627514 c 4.05467,5.904718 5.37051,9.229247 5.82576,14.719049 0.70228,8.468549 -1.3425,10.926163 -9.09078,10.926163 -6.32208,0 -10.12344,-3.273028 -12.18304,-10.489795 -2.44115,-8.553728 -3.38968,-9.192842 -8.22284,-5.540502 -8.72687,6.59476 -26.604711,14.046107 -36.908477,15.383165 C 73.20203,99.206934 57.857816,98.754635 47.333334,96.094802 Z M 145.33334,84.921505 c 0,-2.629943 -3.47128,-6.855683 -4.39883,-5.354883 -1.28116,2.072963 0.5274,7.100043 2.55433,7.100043 1.01447,0 1.8445,-0.785323 1.8445,-1.74516 z M 5.6666668,44.450291 C 3.2086703,43.458468 3.6338769,38.069187 6.7872721,30.247174 8.3202718,26.444562 10.673201,20.633333 12.016003,17.333333 c 1.342803,-3.3 2.784405,-7.088323 3.203561,-8.4184948 1.060171,-3.3643983 8.877947,-2.5752603 10.750402,1.0851616 3.122355,6.1038252 3.409495,6.2764692 6.773256,4.0724492 4.31728,-2.828791 8.237332,-2.601155 10.232876,0.594217 2.105504,3.371448 3.972784,3.371448 7.023903,0 3.151956,-3.482872 8.00343,-3.397687 10.512552,0.184587 l 1.997095,2.851253 4.180811,-3.51792 C 71.842535,9.8493999 72.486616,9.8362939 75.761788,14 c 3.16715,4.026377 5.697728,4.239153 7.928783,0.666666 2.108391,-3.376069 4.378479,-3.376069 8.002264,0 3.577312,3.332772 4.624383,3.332772 7.6405,0 3.080285,-3.403673 4.430475,-3.353397 8.330185,0.310188 3.07795,2.891586 3.28401,2.910682 7.19398,0.666667 4.93675,-2.833304 6.99067,-2.902989 9.1425,-0.310188 2.50391,3.017021 3.65476,2.493907 7.33334,-3.333333 5.3711,-8.508391 8.80641,-6.7974257 14.94953,7.445682 1.87109,4.338208 4.22289,9.778328 5.22623,12.089156 2.34778,5.407299 2.31394,9.065549 -0.1024,11.07092 -3.86426,3.207052 -7.80686,1.056117 -11.35382,-6.19422 -3.70909,-7.581801 -5.22444,-8.445109 -7.74345,-4.411539 -1.97329,3.159743 -6.54477,3.470307 -9.65467,0.655891 -1.99167,-1.802437 -2.54174,-1.733363 -5.309,0.666667 -3.65519,3.170126 -8.36252,3.468742 -10.67909,0.677442 -2.11355,-2.546669 -4.55312,-2.546669 -6.66667,0 -2.493313,3.00426 -8.971974,2.57235 -9.999998,-0.666666 -1.002816,-3.159595 -3.683827,-3.457486 -6,-0.666667 -2.16038,2.603099 -9.185595,2.603099 -10.184499,0 -1.081627,-2.818676 -4.157372,-2.483897 -6.124932,0.666667 -2.157764,3.45513 -5.09751,3.374688 -9.726075,-0.266143 l -3.728463,-2.932808 -1.947312,2.932808 c -2.282267,3.437277 -9.273228,4.059935 -10.473219,0.932809 -0.94927,-2.47376 -5.306477,-2.624042 -6.749248,-0.232785 -2.074755,3.438711 -5.577047,3.525117 -9.488215,0.234087 L 21.750536,30.78067 18.875268,34.669678 C 17.293871,36.808633 16,39.089989 16,39.739359 16,41.570714 11.342856,45.345524 9.2283459,45.22807 8.1860891,45.170175 6.5833335,44.820175 5.6666668,44.450291 Z"
       id="path259" />
  </g>
</svg>
