<?xml version="1.0" encoding="UTF-8" standalone="no"?>
<!-- Created with Inkscape (http://www.inkscape.org/) -->

<svg
   version="1.1"
   id="svg92"
   width="158.66667"
   height="153.33333"
   viewBox="0 0 158.66667 153.33333"
   sodipodi:docname="0139.svg"
   inkscape:version="1.1.2 (0a00cf5339, 2022-02-04)"
   xmlns:inkscape="http://www.inkscape.org/namespaces/inkscape"
   xmlns:sodipodi="http://sodipodi.sourceforge.net/DTD/sodipodi-0.dtd"
   xmlns="http://www.w3.org/2000/svg"
   xmlns:svg="http://www.w3.org/2000/svg">
  <defs
     id="defs96" />
  <sodipodi:namedview
     id="namedview94"
     pagecolor="#ffffff"
     bordercolor="#666666"
     borderopacity="1.0"
     inkscape:pageshadow="2"
     inkscape:pageopacity="0.0"
     inkscape:pagecheckerboard="0"
     showgrid="false"
     inkscape:zoom="5.6934784"
     inkscape:cx="79.389077"
     inkscape:cy="76.578844"
     inkscape:window-width="2560"
     inkscape:window-height="1299"
     inkscape:window-x="0"
     inkscape:window-y="32"
     inkscape:window-maximized="1"
     inkscape:current-layer="g98" />
  <g
     inkscape:groupmode="layer"
     inkscape:label="Image"
     id="g98">
    <path
       style="fill:#000000;stroke-width:1.33333"
       d="m 69.872033,145.96482 c -1.119037,-4.4586 -4.967157,-6.3437 -10.97185,-5.37485 -2.6951,0.43484 -9.700182,1.03948 -15.566849,1.34364 -5.866667,0.30416 -15.218155,0.96736 -20.781086,1.47377 -11.540427,1.05058 -15.8855812,-0.38481 -15.8855812,-5.24765 0,-5.78155 3.4706102,-7.12642 18.6666672,-7.23339 15.168396,-0.10677 38.001158,-1.43055 41.522706,-2.40737 1.204156,-0.33401 2.497192,-1.78439 2.873415,-3.22307 1.04512,-3.99654 4.67162,-4.66042 8.796988,-1.6104 3.58594,2.6512 3.702348,2.65518 5.248384,0.17958 2.249819,-3.60253 6.224511,-3.13222 9.591375,1.13492 l 2.893081,3.66666 h 26.870357 c 14.7787,0 27.62036,0.48541 28.53703,1.07869 2.08447,1.3491 2.19232,8.43906 0.1476,9.70277 -0.83549,0.51636 -13.96675,0.81261 -29.18058,0.65834 l -27.66152,-0.28049 -2.910209,4.08701 c -3.223264,4.52666 -5.533746,5.09142 -8.53815,2.08702 -2.661764,-2.66176 -3.889308,-2.52262 -5.881045,0.66666 -2.385988,3.82058 -6.734249,3.42786 -7.770733,-0.70184 z m 1.957895,-42.82921 c -1.00646,-1.20875 -2.429927,-4.588128 -3.16326,-7.509727 -1.156877,-4.608996 -2.1162,-5.615966 -7.248809,-7.608845 -12.137703,-4.712801 -23.69108,-18.348026 -29.38814,-34.683706 -1.662372,-4.766666 -3.778994,-9.566666 -4.703606,-10.666666 -0.924612,-1.1 -3.249808,-5.354872 -5.167102,-9.455272 C 19.889023,28.356709 16.32055,23.772489 11.929036,20.06951 7.2125683,16.092526 5.307554,13.564569 5.5925252,11.660952 6.1432388,7.9821681 9.524305,6.0908639 13.68382,7.1348357 17.79551,8.1668038 31.056102,20.011646 35.490606,26.613447 c 1.74372,2.595938 4.574084,6.819886 6.289698,9.386552 1.715614,2.566667 4.235868,7.614768 5.600564,11.218001 5.480842,14.471179 21.952467,30.136024 21.952467,20.877237 0,-5.907672 8.254621,-8.626825 16.579867,-5.461573 2.63088,1.000259 3.420133,2.231015 3.420133,5.333333 0,4.573127 2.013512,5.135472 7.73288,2.159687 5.629645,-2.9291 8.940275,-7.192653 15.628305,-20.126685 3.41278,-6.6 6.95383,-12.9 7.86901,-14 0.91517,-1.1 2.38078,-3.817742 3.2569,-6.039428 3.11316,-7.894407 9.12502,-15.331875 16.65913,-20.6095369 8.15128,-5.7099899 10.0595,-6.2786486 12.58711,-3.7510342 3.20577,3.2057766 1.65628,7.6415721 -5.01037,14.3434161 -8.67334,8.719097 -9.84576,10.654171 -14.57548,24.056583 -7.35083,20.829734 -11.56271,28.75485 -17.09742,32.170689 -2.77754,1.7142 -7.3148,5.160188 -10.08281,7.65775 -2.76801,2.497561 -6.968005,5.507893 -9.333331,6.689624 -2.545438,1.271717 -5.265809,4.207587 -6.665632,7.193659 -3.397408,7.247279 -14.290252,10.445769 -18.471699,5.423889 z"
       id="path120" />
  </g>
</svg>
