<?xml version="1.0" encoding="UTF-8" standalone="no"?>
<!-- Created with Inkscape (http://www.inkscape.org/) -->

<svg
   version="1.1"
   id="svg2"
   width="76"
   height="74.666664"
   viewBox="0 0 76 74.666664"
   sodipodi:docname="0140.svg"
   inkscape:version="1.1.2 (0a00cf5339, 2022-02-04)"
   xmlns:inkscape="http://www.inkscape.org/namespaces/inkscape"
   xmlns:sodipodi="http://sodipodi.sourceforge.net/DTD/sodipodi-0.dtd"
   xmlns="http://www.w3.org/2000/svg"
   xmlns:svg="http://www.w3.org/2000/svg">
  <defs
     id="defs6" />
  <sodipodi:namedview
     id="namedview4"
     pagecolor="#ffffff"
     bordercolor="#666666"
     borderopacity="1.0"
     inkscape:pageshadow="2"
     inkscape:pageopacity="0.0"
     inkscape:pagecheckerboard="0"
     showgrid="false"
     inkscape:zoom="11.691965"
     inkscape:cx="14.796487"
     inkscape:cy="37.376096"
     inkscape:window-width="2560"
     inkscape:window-height="1299"
     inkscape:window-x="0"
     inkscape:window-y="32"
     inkscape:window-maximized="1"
     inkscape:current-layer="g8" />
  <g
     inkscape:groupmode="layer"
     inkscape:label="Image"
     id="g8">
    <path
       style="fill:#000000;stroke-width:1.33333"
       d="M 18.666667,66.447971 C 13.9,64.979278 9.1,63.317138 8,62.754327 4.2973001,60.859851 4.9927348,55.54749 9.7618332,49.295844 14.433045,43.172512 17.333333,34.333536 17.333333,26.220783 c 0,-3.805285 -0.580748,-4.744121 -3.367248,-5.443488 C 5.5970233,18.676794 3.1010187,8.9457258 10.457704,7.0993153 12.368789,6.6196638 26.247612,6.1760966 41.299535,6.1136106 L 68.666667,5.9999998 V 11.94998 c 0,5.776426 -0.145844,5.984471 -5,7.132453 -4.670559,1.10456 -5,1.509498 -5,6.145834 0,6.085772 3.380954,16.417572 7.552178,23.078569 5.959666,9.516947 4.11519,12.675199 -10.602196,18.153886 -9.991097,3.719281 -24.854257,3.714151 -36.949982,-0.01275 z"
       id="path1073" />
  </g>
</svg>
