<?xml version="1.0" encoding="UTF-8" standalone="no"?>
<!-- Created with Inkscape (http://www.inkscape.org/) -->

<svg
   version="1.1"
   id="svg12"
   width="161.33333"
   height="161.33333"
   viewBox="0 0 161.33333 161.33333"
   sodipodi:docname="0141.svg"
   inkscape:version="1.1.2 (0a00cf5339, 2022-02-04)"
   xmlns:inkscape="http://www.inkscape.org/namespaces/inkscape"
   xmlns:sodipodi="http://sodipodi.sourceforge.net/DTD/sodipodi-0.dtd"
   xmlns="http://www.w3.org/2000/svg"
   xmlns:svg="http://www.w3.org/2000/svg">
  <defs
     id="defs16" />
  <sodipodi:namedview
     id="namedview14"
     pagecolor="#ffffff"
     bordercolor="#666666"
     borderopacity="1.0"
     inkscape:pageshadow="2"
     inkscape:pageopacity="0.0"
     inkscape:pagecheckerboard="0"
     showgrid="false"
     inkscape:zoom="5.4111572"
     inkscape:cx="30.492553"
     inkscape:cy="80.574262"
     inkscape:window-width="2560"
     inkscape:window-height="1299"
     inkscape:window-x="0"
     inkscape:window-y="32"
     inkscape:window-maximized="1"
     inkscape:current-layer="g18" />
  <g
     inkscape:groupmode="layer"
     inkscape:label="Image"
     id="g18">
    <path
       style="fill:#000000;stroke-width:1.33333"
       d="m 29.333333,153.33333 c -10.108197,-0.77756 -12,-1.71012 -12,-5.91543 0,-5.21949 3.085411,-6.6872 9.992433,-4.75336 14.112354,3.95122 19.9743,-5.1133 21.315742,-32.96124 l 0.82066,-17.036635 -8.84047,-9.333333 C 30.716539,72.875952 23.700658,59.781281 23.475501,51.331107 c -0.08947,-3.357635 1.201593,-8.051087 3.482701,-12.660844 4.14574,-8.377881 3.574307,-9.818368 -5.074384,-12.791646 -4.162048,-1.430844 -5.404532,-1.380499 -8.006576,0.324425 -4.7200579,3.092701 -8.5439088,1.237513 -8.5439088,-4.145181 0,-6.974389 3.7627849,-10.556991 10.7957528,-10.278792 3.867435,0.152982 7.780519,-0.779855 11.466744,-2.7335505 5.006097,-2.6532249 6.090479,-2.7869166 10.289408,-1.2685643 3.382338,1.2230697 5.426342,1.3050548 7.316513,0.2934658 4.183564,-2.2389752 10.554773,-1.647228 13.451338,1.2493377 2.268438,2.2684373 2.515322,3.6699423 1.702844,9.6666663 -0.522636,3.857466 -0.966526,10.850371 -0.986424,15.539789 l -0.03618,8.526213 8,4.428745 c 10.851732,6.007444 13.274477,8.514857 34.000001,35.188183 22.67784,29.185916 30.40282,37.488536 41.66667,44.782326 7.60592,4.92514 9,6.4103 9,9.58809 0,7.18696 -5.37226,9.01293 -12.20427,4.14811 -5.59152,-3.98151 -6.69577,-1.7312 -1.3082,2.66592 2.93883,2.39854 4.29592,4.5333 3.96097,6.23074 -0.45946,2.32854 -1.70037,2.5808 -12.63559,2.56868 -7.86966,-0.009 -13.36091,-0.67429 -15.64395,-1.89613 -4.08082,-2.18399 -10.53406,-12.3044 -11.5023,-18.0387 -0.49912,-2.95605 -2.677113,-5.37383 -8.666665,-9.62086 -4.4,-3.11992 -8.681873,-5.6932 -9.515274,-5.71839 -2.184016,-0.066 -3.502446,10.85725 -1.838652,15.23336 1.021016,2.68547 0.989492,4.22004 -0.114,5.54968 -1.969344,2.37291 -3.1953,2.31744 -5.773994,-0.26125 -1.909869,-1.90987 -2.17167,-1.90987 -2.904557,0 -1.620782,4.22369 0.398907,5.91136 6.781912,5.667 7.972692,-0.30521 11.398342,4.20781 6.734276,8.87188 -1.598251,1.59825 -6.374116,1.92609 -25.666666,1.76191 C 48.666366,154.09077 34.099999,153.7 29.333333,153.33333 Z m 34.427136,-9.71139 c 2.207819,-2.66025 -0.326458,-5.32713 -5.573822,-5.86544 -3.693068,-0.37886 -5.044425,0.1092 -6.180723,2.23243 -1.105496,2.06563 -1.040765,2.84709 0.26991,3.25855 0.94829,0.29768 2.624165,0.84141 3.724165,1.20828 3.597758,1.19993 6.314902,0.90798 7.76047,-0.83382 z M 120.141,46.798386 C 116.68963,43.574324 116,41.926242 116,36.902283 c 0,-5.382714 0.57078,-6.51639 5.33333,-10.592957 2.93333,-2.510824 5.33333,-5.221358 5.33333,-6.02341 0,-0.802051 -2.18923,-1.644495 -4.86496,-1.872096 -5.74128,-0.48836 -8.58186,-3.82337 -6.3147,-7.41382 1.26244,-1.9992854 3.83841,-2.3602524 17.99318,-2.5213627 9.0859,-0.1034161 17.56982,0.3676941 18.85315,1.0469116 5.27292,2.7907501 0.80697,9.1411171 -6.42857,9.1411171 -5.76015,0 -6.04058,2.772294 -0.66743,6.598309 4.50268,3.206195 7.27168,10.242706 6.00956,15.271373 -0.4792,1.909332 -2.65184,4.969744 -4.82805,6.800915 -3.37256,2.83782 -5.29891,3.329403 -13.0468,3.329403 -8.1908,0 -9.49968,-0.382668 -13.23104,-3.86828 z"
       id="path934" />
  </g>
</svg>
