<?xml version="1.0" encoding="UTF-8" standalone="no"?>
<!-- Created with Inkscape (http://www.inkscape.org/) -->

<svg
   version="1.1"
   id="svg22"
   width="158.66667"
   height="158.66667"
   viewBox="0 0 158.66667 158.66667"
   sodipodi:docname="0142.svg"
   inkscape:version="1.1.2 (0a00cf5339, 2022-02-04)"
   xmlns:inkscape="http://www.inkscape.org/namespaces/inkscape"
   xmlns:sodipodi="http://sodipodi.sourceforge.net/DTD/sodipodi-0.dtd"
   xmlns="http://www.w3.org/2000/svg"
   xmlns:svg="http://www.w3.org/2000/svg">
  <defs
     id="defs26" />
  <sodipodi:namedview
     id="namedview24"
     pagecolor="#ffffff"
     bordercolor="#666666"
     borderopacity="1.0"
     inkscape:pageshadow="2"
     inkscape:pageopacity="0.0"
     inkscape:pagecheckerboard="0"
     showgrid="false"
     inkscape:zoom="5.5021007"
     inkscape:cx="29.988546"
     inkscape:cy="79.242461"
     inkscape:window-width="2560"
     inkscape:window-height="1299"
     inkscape:window-x="0"
     inkscape:window-y="32"
     inkscape:window-maximized="1"
     inkscape:current-layer="g28" />
  <g
     inkscape:groupmode="layer"
     inkscape:label="Image"
     id="g28">
    <path
       style="fill:#000000;stroke-width:1.33333"
       d="m 89.525669,149.38819 c -10.300854,-2.94383 -14.163866,-4.83379 -20.038196,-9.80365 -3.919986,-3.31643 -5.320626,-3.7316 -10.666666,-3.16183 -3.384777,0.36076 -7.793191,1.08108 -9.796478,1.60072 -3.167049,0.82152 -3.832899,0.44667 -5.102671,-2.87264 -3.159232,-8.25855 6.715071,-24.48412 14.900159,-24.48412 2.861343,0 3.844851,0.63523 3.844851,2.48333 0,1.36583 1.8,4.74833 4,7.51667 2.2,2.76834 4,5.46323 4,5.98864 0,1.79481 6.81204,8.31043 7.729406,7.39307 0.503276,-0.50328 -0.05963,-1.46051 -1.250899,-2.12718 -1.3921,-0.77905 -2.508503,-3.95385 -3.124741,-8.88606 -1.201064,-9.613 -5.028571,-17.26026 -10.082611,-20.14482 -6.88296,-3.928394 -6.47145,-8.462581 1.05339,-11.606659 5.633042,-2.353636 19.183741,-2.575374 21.408789,-0.350326 1.863013,1.863014 2.164449,7.733334 0.3971,7.733334 -2.001774,0 -4.130434,7.965451 -4.130434,15.456081 0,7.42998 3.59048,15.58982 7.523987,17.09925 2.28475,0.87674 2.132302,-2.96382 -0.83359,-21.00029 -1.852392,-11.264935 -0.854831,-12.906283 7.806197,-12.844016 7.030238,0.05054 12.170078,3.391546 12.170078,7.910816 0,1.57358 -1.8,6.48898 -4,10.92311 -6.154097,12.40365 -5.31744,17.0164 4.94844,27.28228 2.57195,2.57196 2.89033,3.64933 1.723,5.83052 -1.84603,3.44932 -10.54622,3.47401 -22.479111,0.0637 z M 5.6666668,44.450293 C 3.2086703,43.45847 3.6338769,38.069189 6.7872721,30.247175 8.3202718,26.444563 10.673201,20.633334 12.016003,17.333334 c 1.342803,-3.3 2.784405,-7.088323 3.203561,-8.4184954 C 16.279735,5.5504401 24.097511,6.3395781 25.969966,10 c 3.122355,6.103826 3.409495,6.27647 6.773256,4.07245 4.31728,-2.828791 8.237332,-2.601156 10.232876,0.594217 2.105504,3.371448 3.972784,3.371448 7.023903,0 3.151956,-3.482873 8.00343,-3.397687 10.512552,0.184587 l 1.997095,2.851253 4.180811,-3.51792 C 71.842535,9.8494003 72.486616,9.8362943 75.761788,14 c 3.16715,4.026378 5.697728,4.239154 7.928783,0.666667 2.108391,-3.376069 4.378479,-3.376069 8.002264,0 3.577312,3.332772 4.624383,3.332772 7.6405,0 3.080285,-3.403674 4.430475,-3.353397 8.330185,0.310188 3.07795,2.891585 3.28401,2.910681 7.19398,0.666667 4.93675,-2.833304 6.99067,-2.90299 9.1425,-0.310188 2.50391,3.017021 3.65476,2.493906 7.33334,-3.333334 5.3711,-8.5083909 8.80641,-6.7974255 14.94953,7.445683 1.87109,4.338208 4.22289,9.778328 5.22623,12.089156 2.34778,5.407299 2.31394,9.06555 -0.1024,11.070921 -3.86426,3.207052 -7.80686,1.056117 -11.35382,-6.194221 -3.70909,-7.581801 -5.22444,-8.445109 -7.74345,-4.411538 -1.97329,3.159742 -6.54477,3.470306 -9.65467,0.65589 -1.99167,-1.802437 -2.54174,-1.733362 -5.309,0.666667 -3.65519,3.170127 -8.36252,3.468743 -10.67909,0.677443 -2.11355,-2.54667 -4.55312,-2.54667 -6.66667,0 -2.493313,3.00426 -8.971974,2.572349 -9.999998,-0.666667 -1.002816,-3.159595 -3.683827,-3.457485 -6,-0.666667 -2.16038,2.603099 -9.185595,2.603099 -10.184499,0 -1.081627,-2.818676 -4.157372,-2.483897 -6.124932,0.666667 -2.157764,3.455131 -5.09751,3.374688 -9.726075,-0.266143 l -3.728463,-2.932808 -1.947312,2.932808 c -2.282267,3.437278 -9.273228,4.059935 -10.473219,0.93281 -0.94927,-2.47376 -5.306477,-2.624043 -6.749248,-0.232786 -2.074755,3.438711 -5.577047,3.525118 -9.488215,0.234087 l -3.827503,-3.220631 -2.875268,3.889008 C 17.293871,36.808634 16,39.08999 16,39.739361 16,41.570716 11.342856,45.345526 9.2283459,45.228072 8.1860891,45.170177 6.5833335,44.820177 5.6666668,44.450293 Z"
       id="path795" />
  </g>
</svg>
