<?xml version="1.0" encoding="UTF-8" standalone="no"?>
<!-- Created with Inkscape (http://www.inkscape.org/) -->

<svg
   version="1.1"
   id="svg32"
   width="161.33333"
   height="157.33333"
   viewBox="0 0 161.33333 157.33333"
   sodipodi:docname="0143.svg"
   inkscape:version="1.1.2 (0a00cf5339, 2022-02-04)"
   xmlns:inkscape="http://www.inkscape.org/namespaces/inkscape"
   xmlns:sodipodi="http://sodipodi.sourceforge.net/DTD/sodipodi-0.dtd"
   xmlns="http://www.w3.org/2000/svg"
   xmlns:svg="http://www.w3.org/2000/svg">
  <defs
     id="defs36" />
  <sodipodi:namedview
     id="namedview34"
     pagecolor="#ffffff"
     bordercolor="#666666"
     borderopacity="1.0"
     inkscape:pageshadow="2"
     inkscape:pageopacity="0.0"
     inkscape:pagecheckerboard="0"
     showgrid="false"
     inkscape:zoom="5.548729"
     inkscape:cx="31.718976"
     inkscape:cy="78.576553"
     inkscape:window-width="2560"
     inkscape:window-height="1299"
     inkscape:window-x="0"
     inkscape:window-y="32"
     inkscape:window-maximized="1"
     inkscape:current-layer="g38" />
  <g
     inkscape:groupmode="layer"
     inkscape:label="Image"
     id="g38">
    <path
       style="fill:#000000;stroke-width:1.33333"
       d="m 10.113274,148.12516 c -2.0235912,-2.23604 -2.2021516,-4.59974 -1.4856778,-19.66666 0.7304003,-15.35979 1.1113483,-17.37581 3.6954188,-19.55648 2.171671,-1.83266 4.043542,-2.21323 7.602206,-1.54562 2.596625,0.48713 5.17304,1.16498 5.725368,1.50634 1.614473,0.9978 0.295861,35.50028 -1.483837,38.82568 -2.09648,3.91731 -10.662688,4.18352 -14.053478,0.43674 z m 65.553391,1.10137 c -2.033103,-1.18417 -2.333333,-3.59208 -2.333333,-18.71378 0,-9.5451 0.57869,-18.43602 1.285978,-19.7576 1.821888,-3.40423 9.076512,-4.59448 12.866752,-2.11102 3.257103,2.13413 3.174287,0.72638 2.017431,34.2932 -0.155766,4.5196 -0.593182,5.0548 -5.170161,6.32589 -5.989143,1.66327 -5.74625,1.6643 -8.666667,-0.0367 z m 62.666665,0 C 136.30022,148.04236 136,145.63445 136,130.51275 c 0,-9.5451 0.57869,-18.43602 1.28597,-19.7576 1.82189,-3.40423 9.07652,-4.59448 12.86676,-2.11102 3.25709,2.13413 3.17428,0.72638 2.01743,34.2932 -0.15576,4.5196 -0.59319,5.0548 -5.17016,6.32589 -5.98915,1.66327 -5.74626,1.6643 -8.66667,-0.0367 z M 21.506388,52.051224 C 12.960496,51.069992 7.9999998,46.483354 7.9999998,39.562772 c 0,-6.163483 6.6411542,-13.760757 13.6875782,-15.658161 7.472824,-2.012222 107.174642,-1.207726 110.042252,0.887934 2.82527,2.06472 0.99349,8.331785 -2.86395,9.79838 -1.68281,0.639801 -15.91605,0.858701 -31.629429,0.486445 -38.661388,-0.915904 -74.569785,0.560477 -74.569785,3.065951 0,2.176675 3.426305,2.27813 68.576975,2.030579 43.151679,-0.163961 43.963689,-0.216992 46.999999,-3.069457 3.9574,-3.717785 4.13842,-10.722372 0.3744,-14.48641 -1.49343,-1.493413 -3.249,-2.385453 -3.90131,-1.982309 -0.65231,0.403144 -3.90763,-0.19103 -7.23406,-1.320383 -5.01291,-1.701927 -9.651,-1.874985 -27.0987,-1.011119 -11.577853,0.573239 -36.350638,1.039296 -55.050638,1.035682 l -33.999999,-0.0066 -0.40142,-4.113567 c -0.221102,-2.265718 0.398437,-4.77736 1.379202,-5.5913224 2.004269,-1.6633953 110.718545,-2.918989 124.137865,-1.4337282 12.10607,1.3399067 19.55563,9.7523576 19.54603,22.0724326 -0.007,8.657464 -3.58745,14.105983 -12.28028,18.686059 l -7.04807,3.713488 -53.999995,0.103348 C 52.966666,52.826854 25.444541,52.5034 21.506388,52.051224 Z"
       id="path656" />
  </g>
</svg>
