<?xml version="1.0" encoding="UTF-8" standalone="no"?>
<!-- Created with Inkscape (http://www.inkscape.org/) -->

<svg
   version="1.1"
   id="svg42"
   width="136"
   height="161.33333"
   viewBox="0 0 136 161.33333"
   sodipodi:docname="0144.svg"
   inkscape:version="1.1.2 (0a00cf5339, 2022-02-04)"
   xmlns:inkscape="http://www.inkscape.org/namespaces/inkscape"
   xmlns:sodipodi="http://sodipodi.sourceforge.net/DTD/sodipodi-0.dtd"
   xmlns="http://www.w3.org/2000/svg"
   xmlns:svg="http://www.w3.org/2000/svg">
  <defs
     id="defs46" />
  <sodipodi:namedview
     id="namedview44"
     pagecolor="#ffffff"
     bordercolor="#666666"
     borderopacity="1.0"
     inkscape:pageshadow="2"
     inkscape:pageopacity="0.0"
     inkscape:pagecheckerboard="0"
     showgrid="false"
     inkscape:zoom="5.4111572"
     inkscape:cx="17.741122"
     inkscape:cy="80.574262"
     inkscape:window-width="2560"
     inkscape:window-height="1299"
     inkscape:window-x="0"
     inkscape:window-y="32"
     inkscape:window-maximized="1"
     inkscape:current-layer="g48" />
  <g
     inkscape:groupmode="layer"
     inkscape:label="Image"
     id="g48">
    <path
       style="fill:#000000;stroke-width:1.33333"
       d="M 56.230375,153.66666 C 55.572144,152.38333 55.401033,144.54468 55.850129,136.24744 56.903751,116.78132 56.600869,116 48.001119,116 c -9.730062,0 -10.055555,-1.96714 -2.102132,-12.70436 0.844292,-1.13981 -0.415212,-3.789218 -4,-8.414141 C 39.021211,91.16873 33.666667,84.086498 30,79.143205 26.333333,74.199912 19.579865,65.411072 14.992293,59.612449 10.404722,53.813828 6.3058967,47.693486 5.8837925,46.011688 3.8127695,37.760075 14.892139,29.465359 21.874255,34.040217 c 4.110133,2.693062 5.308557,6.123777 4.201172,12.026645 -0.775902,4.135913 -0.430087,4.763313 4.256017,7.72152 C 33.13674,55.559288 39.159787,58.89 43.715991,61.189965 48.791717,63.752183 52,66.21636 52,67.552641 c 0,1.199508 -1.588512,5.318128 -3.530028,9.152491 l -3.530028,6.971566 3.907832,5.818621 c 5.456183,8.12406 7.891437,8.186767 11.383176,0.293115 2.54994,-5.764564 2.682779,-7.1754 1.304096,-13.850324 C 60.690772,71.850529 60,65.841995 60,62.585813 60,57.573513 59.208808,55.799931 54.841457,51.022119 50.402455,46.165919 49.551495,44.213214 48.740723,37.022711 47.817271,28.832866 45.272371,24 41.8832,24 c -0.936925,0 -2.095195,1.234122 -2.573933,2.742493 -1.163934,3.667228 -4.710518,2.811798 -7.263435,-1.751927 -1.835943,-3.282025 -1.836833,-4.033409 -0.0087,-7.3239 1.120432,-2.016666 5.21429,-5.378216 9.097462,-7.470109 5.902557,-3.1797513 8.012829,-3.6606046 12.86901,-2.9323752 7.624663,1.1433887 11.804638,4.6128862 13.87241,11.5144912 1.174153,3.918976 3.875928,7.62822 8.902622,12.222336 6.866399,6.275501 12.924187,13.474353 30.193724,35.881104 4.20147,5.451296 10.95147,13.414361 15,17.6957 7.58471,8.020865 8.80972,11.226632 5.37827,14.074482 -3.34496,2.776075 -8.32853,0.520016 -10.18361,-4.610121 -0.91809,-2.538944 -2.45626,-4.918261 -3.41815,-5.287372 -2.29215,-0.879584 -2.20613,-0.02548 0.39772,3.94848 3.26269,4.979525 1.58759,7.296716 -5.27485,7.296716 -6.74595,0 -7.69464,-0.853712 -11.193212,-10.072592 -1.406653,-3.706592 -3.409777,-8.677498 -4.451389,-11.046457 L 91.3333,74.57375 89.983182,81.620208 c -1.00841,5.26303 -2.105156,7.379574 -4.333334,8.362627 -4.453894,1.965026 -3.718405,4.00661 4.350119,12.075135 4.033333,4.03333 7.333333,8.44682 7.333333,9.80775 0,3.25483 -2.417569,5.12833 -7.333333,5.68296 -3.910408,0.44121 -4.017169,0.65101 -4.76654,9.36673 C 84.386055,136.77134 82.572468,140 77.883652,140 74.096548,140 72,136.46789 72,130.08765 c 0,-4.5361 -1.603743,-6.21952 -3.304111,-3.46827 -0.437152,0.70733 -0.965664,6.66705 -1.17447,13.24382 -0.232731,7.33033 -1.05073,12.76637 -2.113792,14.04728 -2.321994,2.79782 -7.690324,2.65521 -9.177252,-0.24382 z M 73.333333,91.714694 c 0,-0.733333 -0.949072,-0.96914 -2.109049,-0.524015 -1.159979,0.445126 -2.809979,0.818507 -3.666667,0.829736 -0.955674,0.01253 -0.831441,0.480123 0.321471,1.209974 2.160408,1.367645 5.454245,0.452312 5.454245,-1.515695 z"
       id="path517" />
  </g>
</svg>
