<?xml version="1.0" encoding="UTF-8" standalone="no"?>
<!-- Created with Inkscape (http://www.inkscape.org/) -->

<svg
   version="1.1"
   id="svg52"
   width="76"
   height="72"
   viewBox="0 0 76 72"
   sodipodi:docname="0145.svg"
   inkscape:version="1.1.2 (0a00cf5339, 2022-02-04)"
   xmlns:inkscape="http://www.inkscape.org/namespaces/inkscape"
   xmlns:sodipodi="http://sodipodi.sourceforge.net/DTD/sodipodi-0.dtd"
   xmlns="http://www.w3.org/2000/svg"
   xmlns:svg="http://www.w3.org/2000/svg">
  <defs
     id="defs56" />
  <sodipodi:namedview
     id="namedview54"
     pagecolor="#ffffff"
     bordercolor="#666666"
     borderopacity="1.0"
     inkscape:pageshadow="2"
     inkscape:pageopacity="0.0"
     inkscape:pagecheckerboard="0"
     showgrid="false"
     inkscape:zoom="12.125"
     inkscape:cx="15.587629"
     inkscape:cy="35.958763"
     inkscape:window-width="2560"
     inkscape:window-height="1299"
     inkscape:window-x="0"
     inkscape:window-y="32"
     inkscape:window-maximized="1"
     inkscape:current-layer="g58" />
  <g
     inkscape:groupmode="layer"
     inkscape:label="Image"
     id="g58">
    <path
       style="fill:#000000;stroke-width:1.33333"
       d="M 49.525667,64.054855 C 39.224813,61.111033 35.361801,59.221061 29.487472,54.251203 25.567485,50.934775 24.166845,50.519596 18.820805,51.089379 15.436029,51.450129 11.027614,52.170452 9.0243275,52.690097 5.8572784,53.511616 5.1914292,53.136764 3.9216571,49.817452 0.76242569,41.558905 10.636728,25.333333 18.821816,25.333333 c 2.861343,0 3.844851,0.635232 3.844851,2.483327 0,1.365831 1.8,4.748333 4,7.516673 2.2,2.76834 4,5.46323 4,5.988643 0,1.794811 6.81204,8.310428 7.729405,7.393064 0.503276,-0.503276 -0.05963,-1.460504 -1.250899,-2.127172 -1.3921,-0.779059 -2.508502,-3.953855 -3.124741,-8.886065 -1.201064,-9.612995 -5.028571,-17.260262 -10.082611,-20.144816 -2.14284,-1.22301 -4.203314,-3.017119 -4.578832,-3.98691 -2.112876,-5.4565942 7.28665,-10.0305035 19.170352,-9.3284991 9.467832,0.559292 10.870534,2.6914012 7.013064,10.6598701 -5.247605,10.840107 -2.645264,28.188431 4.648248,30.987215 1.744646,0.669482 1.958554,-0.1974 1.368898,-5.547595 -1.028192,-9.329227 -3.191454,-21.333452 -4.113247,-22.824943 -1.651389,-2.672005 3.364523,-5.516454 9.648935,-5.471766 7.099832,0.05049 12.238094,3.371905 12.238094,7.910814 0,1.573583 -1.8,6.488982 -4,10.923108 -6.154092,12.403648 -5.317433,17.016406 4.94844,27.28228 2.571954,2.571954 2.890335,3.649335 1.723002,5.830519 -1.846024,3.449327 -10.546212,3.474009 -22.479108,0.06377 z"
       id="path378" />
  </g>
</svg>
