<?xml version="1.0" encoding="UTF-8" standalone="no"?>
<!-- Created with Inkscape (http://www.inkscape.org/) -->

<svg
   version="1.1"
   id="svg62"
   width="161.33333"
   height="162.66667"
   viewBox="0 0 161.33333 162.66667"
   sodipodi:docname="0146.svg"
   inkscape:version="1.1.2 (0a00cf5339, 2022-02-04)"
   xmlns:inkscape="http://www.inkscape.org/namespaces/inkscape"
   xmlns:sodipodi="http://sodipodi.sourceforge.net/DTD/sodipodi-0.dtd"
   xmlns="http://www.w3.org/2000/svg"
   xmlns:svg="http://www.w3.org/2000/svg">
  <defs
     id="defs66" />
  <sodipodi:namedview
     id="namedview64"
     pagecolor="#ffffff"
     bordercolor="#666666"
     borderopacity="1.0"
     inkscape:pageshadow="2"
     inkscape:pageopacity="0.0"
     inkscape:pagecheckerboard="0"
     showgrid="false"
     inkscape:zoom="5.3668031"
     inkscape:cx="29.999237"
     inkscape:cy="81.240171"
     inkscape:window-width="2560"
     inkscape:window-height="1299"
     inkscape:window-x="0"
     inkscape:window-y="32"
     inkscape:window-maximized="1"
     inkscape:current-layer="g68" />
  <g
     inkscape:groupmode="layer"
     inkscape:label="Image"
     id="g68">
    <path
       style="fill:#000000;stroke-width:1.33333"
       d="M 66.930455,156.33334 C 66.290603,155.05 64.682928,149.8 63.357843,144.66667 c -2.91109,-11.27747 -4.695468,-14.99509 -9.231159,-19.23242 -6.953298,-6.49591 -3.335649,-10.76758 9.118993,-10.76758 6.833495,0 7.420988,-0.2404 7.420988,-3.03666 0,-1.67016 0.951883,-4.39566 2.115296,-6.05667 1.279875,-1.82727 1.999041,-5.23564 1.820939,-8.630005 -0.472471,-9.00456 -0.11896,-10.250581 3.357613,-11.834615 4.077448,-1.857809 7.372819,0.370674 7.372819,4.985846 0,1.705757 1.5,4.719904 3.333333,6.698104 2.692638,2.905404 3.333333,4.96883 3.333333,10.73536 v 7.13864 h 7.224284 c 12.031388,0 13.950758,2.06565 8.730898,9.39628 -4.48832,6.30326 -8.891891,17.48865 -9.94869,25.27039 -0.547748,4.03333 -1.673287,7.77414 -2.501199,8.31292 -0.82791,0.53877 -7.334182,0.98877 -14.458381,1 -11.01689,0.0173 -13.126986,-0.32838 -14.116455,-2.31292 z M 132.66666,47.996786 C 124.6,47.495785 93.551478,47.250174 63.669953,47.450988 16.781002,47.766096 9.0655382,47.54173 7.3366218,45.812813 5.7813273,44.257518 5.3333332,40.298966 5.3333332,28.111413 c 0,-13.838367 0.3061806,-15.975202 2.5844689,-18.037025 C 10.334681,7.8871427 15.188333,7.7798055 82.76785,8.4191011 c 54.88003,0.5191596 72.50787,1.0756511 73.27267,2.3131369 0.5539,0.896232 1.00709,9.069548 1.00709,18.162923 0,17.743095 -0.97953,20.652489 -6.80952,20.225356 -1.59761,-0.117049 -9.50476,-0.622728 -17.57143,-1.123731 z M 52.212856,35.666667 c 3.494408,-2.83287 9.120476,-11.135322 9.120476,-13.459188 0,-1.480828 -1.20698,-2.259676 -3.666667,-2.366049 C 50.899794,19.548787 36.749053,19.509202 26.999999,19.75564 L 17.333333,20 v 7.307931 c 0,8.277702 0.05779,8.317142 13.333333,9.099787 16.360828,0.964536 19.578836,0.853857 21.54619,-0.741051 z M 146.4296,32.175226 c 0.23628,-2.470292 -0.28651,-6.220292 -1.16176,-8.333334 L 143.67648,20 h -16.92016 c -14.99353,0 -17.24132,0.299207 -19.74067,2.627703 -4.17261,3.887384 -9.682319,11.395914 -9.682319,13.194898 0,1.161522 6.341169,1.476186 24.333329,1.207478 L 146,36.666667 Z m -60.538651,3.015456 c 1.159977,-0.445125 2.109049,-1.438491 2.109049,-2.207479 0,-0.768988 1.392513,-3.254794 3.094473,-5.524014 C 95.910505,21.037983 96.348337,20 94.240834,20 92.49183,20 81.333332,33.073931 81.333332,35.123162 c 0,1.095676 1.808466,1.122468 4.557617,0.06752 z M 72.911784,30.333334 C 78.290929,24.650226 80.744264,20 78.363374,20 c -0.951745,0 -2.922856,1.570463 -4.380244,3.489916 -8.219799,10.825887 -8.889433,15.103286 -1.071346,6.843418 z"
       id="path239" />
  </g>
</svg>
