<?xml version="1.0" encoding="UTF-8" standalone="no"?>
<!-- Created with Inkscape (http://www.inkscape.org/) -->

<svg
   version="1.1"
   id="svg72"
   width="161.33333"
   height="157.33333"
   viewBox="0 0 161.33333 157.33333"
   sodipodi:docname="0147.svg"
   inkscape:version="1.1.2 (0a00cf5339, 2022-02-04)"
   xmlns:inkscape="http://www.inkscape.org/namespaces/inkscape"
   xmlns:sodipodi="http://sodipodi.sourceforge.net/DTD/sodipodi-0.dtd"
   xmlns="http://www.w3.org/2000/svg"
   xmlns:svg="http://www.w3.org/2000/svg">
  <defs
     id="defs76" />
  <sodipodi:namedview
     id="namedview74"
     pagecolor="#ffffff"
     bordercolor="#666666"
     borderopacity="1.0"
     inkscape:pageshadow="2"
     inkscape:pageopacity="0.0"
     inkscape:pagecheckerboard="0"
     showgrid="false"
     inkscape:zoom="5.548729"
     inkscape:cx="80.739211"
     inkscape:cy="78.576553"
     inkscape:window-width="2560"
     inkscape:window-height="1299"
     inkscape:window-x="0"
     inkscape:window-y="32"
     inkscape:window-maximized="1"
     inkscape:current-layer="g78" />
  <g
     inkscape:groupmode="layer"
     inkscape:label="Image"
     id="g78">
    <path
       style="fill:#000000;stroke-width:1.33333"
       d="m 44.006474,149.55556 c -0.736895,-0.24446 -1.339808,-2.19446 -1.339808,-4.33334 0,-4.07012 0.77924,-4.432 8.438157,-3.91869 7.04475,0.47215 11.941269,-9.563 11.608452,-23.79088 C 62.441708,105.90322 61.153637,101.97498 55.947991,96.880509 49.883592,90.94563 44.861478,79.599914 45.884655,74.145912 c 0.468917,-2.499544 1.7367,-5.278383 2.817293,-6.175196 2.568767,-2.131887 2.502383,-4.812425 -0.144332,-5.828065 -3.550578,-1.362486 -6.815713,-0.908184 -8.557617,1.190681 -2.105133,2.536531 -3.292138,2.517385 -5.904761,-0.09524 -2.593164,-2.593164 -2.719568,-7.726761 -0.240907,-9.783868 1.019883,-0.846426 4.062703,-1.8217 6.76182,-2.167272 2.699119,-0.345573 5.914669,-1.16724 7.145668,-1.825925 3.455372,-1.848911 22.49286,-1.564011 24.090073,0.360513 0.747748,0.900982 1.536969,6.373096 1.753824,12.160255 l 0.394282,10.522109 11.044886,9.414713 c 6.074687,5.178093 13.117825,12.530854 15.651416,16.33947 2.53359,3.808613 7.92973,10.328583 11.99141,14.488813 4.06168,4.16023 8.01807,8.74717 8.79196,10.19321 0.7739,1.44603 3.50285,4.94892 6.06435,7.78418 6.11362,6.76705 5.85312,11.43877 -0.60937,10.92855 -3.82325,-0.30186 -4.57966,0.17664 -5.79629,3.66666 -0.76958,2.2076 -2.16553,4.01383 -3.10213,4.01383 -0.93659,0 -3.48591,0.3566 -5.66515,0.79245 -5.19411,1.03882 -10.22239,-3.49782 -12.615962,-11.38245 -0.965316,-3.17983 -3.502495,-7.64792 -5.638175,-9.92909 l -3.883054,-4.14758 -1.082248,3.9681 c -0.595236,2.18245 -2.391516,4.95568 -3.991733,6.16272 -3.687546,2.78152 -2.530203,6.19928 2.293528,6.77302 1.986011,0.23623 4.257962,1.46298 5.048778,2.72614 2.903028,4.63692 -0.588347,5.43314 -24.430542,5.57149 -12.498965,0.0725 -23.328305,-0.0681 -24.065198,-0.31257 z m 30.660191,-11.79095 c 0,-2.63852 -0.586559,-3.19973 -2.986378,-2.85735 -3.332918,0.47551 -4.869335,4.86715 -2.265724,6.47627 2.70741,1.67328 5.252102,-0.0801 5.252102,-3.61892 z M 48.666666,38.76147 C 35.139254,35.342711 24.898499,30.047717 14.492872,21.091868 5.5817206,13.422274 3.4057398,9.3632274 6.9999999,7.1147581 7.9166665,6.5413169 32.366666,6.0039297 61.333332,5.9205644 90.299998,5.8371991 114.9,5.6503836 116,5.505419 c 1.1,-0.1449648 7.99222,0.2070122 15.31605,0.782171 l 13.31605,1.0457432 5.23767,7.6275128 c 4.05467,5.904719 5.37051,9.229248 5.82576,14.719049 0.70228,8.46855 -1.34251,10.926164 -9.09079,10.926164 -6.32208,0 -10.12344,-3.273028 -12.18304,-10.489796 -2.44115,-8.553727 -3.38967,-9.192841 -8.22283,-5.540501 C 117.472,31.170522 99.594158,38.621869 89.290393,39.958927 74.53536,41.873602 59.191147,41.421303 48.666666,38.76147 Z M 146.66666,27.588173 c 0,-2.629943 -3.47128,-6.855683 -4.39882,-5.354883 -1.28116,2.072963 0.5274,7.100043 2.55433,7.100043 1.01447,0 1.84449,-0.785323 1.84449,-1.74516 z"
       id="path100" />
  </g>
</svg>
