<?xml version="1.0" encoding="UTF-8" standalone="no"?>
<!-- Created with Inkscape (http://www.inkscape.org/) -->

<svg
   version="1.1"
   id="svg2"
   width="64"
   height="157.33333"
   viewBox="0 0 64 157.33333"
   sodipodi:docname="0148.svg"
   inkscape:version="1.1.2 (0a00cf5339, 2022-02-04)"
   xmlns:inkscape="http://www.inkscape.org/namespaces/inkscape"
   xmlns:sodipodi="http://sodipodi.sourceforge.net/DTD/sodipodi-0.dtd"
   xmlns="http://www.w3.org/2000/svg"
   xmlns:svg="http://www.w3.org/2000/svg">
  <defs
     id="defs6" />
  <sodipodi:namedview
     id="namedview4"
     pagecolor="#ffffff"
     bordercolor="#666666"
     borderopacity="1.0"
     inkscape:pageshadow="2"
     inkscape:pageopacity="0.0"
     inkscape:pagecheckerboard="0"
     showgrid="false"
     inkscape:zoom="5.548729"
     inkscape:cx="-16.940817"
     inkscape:cy="78.576553"
     inkscape:window-width="2560"
     inkscape:window-height="1299"
     inkscape:window-x="0"
     inkscape:window-y="32"
     inkscape:window-maximized="1"
     inkscape:current-layer="g8" />
  <g
     inkscape:groupmode="layer"
     inkscape:label="Image"
     id="g8">
    <path
       style="fill:#000000;stroke-width:1.33333"
       d="m 21.730857,151.9121 c -6.153252,-2.41066 -7.338044,-3.53938 -10.50081,-10.00384 -2.9179967,-5.96417 -3.4441863,-8.54394 -2.8993122,-14.21455 0.5578032,-5.80517 1.3952741,-7.55287 5.1674772,-10.78388 2.475983,-2.12076 6.451788,-4.7011 8.835121,-5.7341 4.251886,-1.84288 5.260526,-3.83251 3.312916,-6.53499 C 25.107479,103.89314 20.766667,103.08205 16,102.83831 11.233333,102.59457 6.8833333,102.12083 6.3333333,101.78555 4.9709128,100.95502 5.0611559,92.325591 6.4411809,91.472689 7.0504971,91.096111 15.900497,90.764561 26.107848,90.73591 36.315199,90.707259 46.927535,90.664665 49.690817,90.641254 56.369985,90.58467 60,92.689289 60,96.618338 60,101.46064 56.576219,104 50.047413,104 c -8.682166,0 -8.91154,2.99643 -0.804948,10.51546 7.465092,6.92402 9.424202,10.99872 9.424202,19.60112 0,5.08087 -0.774152,6.78286 -5.336492,11.7324 -4.193266,4.54916 -6.549775,5.95974 -11,6.58443 -3.11493,0.43725 -7.463508,1.11021 -9.663508,1.49548 -2.405084,0.42117 -6.765508,-0.38297 -10.93581,-2.01679 z M 20,65.79724 C 14.186313,63.881927 11.552779,61.545997 9.0210367,56.058969 5.8480007,49.18207 5.1255399,34.796845 7.7918515,31.584137 c 0.8938516,-1.077026 4.8961115,-3.374058 8.8939115,-5.104516 5.696958,-2.465944 7.273646,-3.794999 7.291482,-6.146288 0.02133,-2.81218 -0.531502,-3 -8.830254,-3 -9.2202827,0 -12.3404919,-1.737072 -12.4379198,-6.924395 -0.099319,-5.2880024 4.7411373,-6.4089381 27.6752598,-6.4089381 23.013244,0 26.962294,0.8378908 26.928585,5.7135783 -0.03649,5.2774198 -2.176388,6.8800398 -10.146407,7.5988698 -8.449588,0.762081 -10.186901,2.674648 -5.713958,6.290358 14.564428,11.773177 17.087758,16.296536 14.484352,25.96485 C 52.573936,62.056761 45.752692,66.729937 31.131828,66.561403 26.109323,66.503508 21.1,66.159635 20,65.79724 Z"
       id="path1453" />
  </g>
</svg>
