<?xml version="1.0" encoding="UTF-8" standalone="no"?>
<!-- Created with Inkscape (http://www.inkscape.org/) -->

<svg
   version="1.1"
   id="svg12"
   width="44"
   height="158.66667"
   viewBox="0 0 44 158.66667"
   sodipodi:docname="0149.svg"
   inkscape:version="1.1.2 (0a00cf5339, 2022-02-04)"
   xmlns:inkscape="http://www.inkscape.org/namespaces/inkscape"
   xmlns:sodipodi="http://sodipodi.sourceforge.net/DTD/sodipodi-0.dtd"
   xmlns="http://www.w3.org/2000/svg"
   xmlns:svg="http://www.w3.org/2000/svg">
  <defs
     id="defs16" />
  <sodipodi:namedview
     id="namedview14"
     pagecolor="#ffffff"
     bordercolor="#666666"
     borderopacity="1.0"
     inkscape:pageshadow="2"
     inkscape:pageopacity="0.0"
     inkscape:pagecheckerboard="0"
     showgrid="false"
     inkscape:zoom="5.5021007"
     inkscape:cx="-27.262315"
     inkscape:cy="79.242461"
     inkscape:window-width="2560"
     inkscape:window-height="1299"
     inkscape:window-x="0"
     inkscape:window-y="32"
     inkscape:window-maximized="1"
     inkscape:current-layer="g18" />
  <g
     inkscape:groupmode="layer"
     inkscape:label="Image"
     id="g18">
    <path
       style="fill:#000000;stroke-width:1.33333"
       d="m 28.742272,153.03666 c -1.141583,-1.62983 -2.075605,-3.50562 -2.075605,-4.16839 0,-0.66279 -1.8,-4.74723 -4,-9.07653 -2.2,-4.32932 -4,-8.47864 -4,-9.2207 0,-0.74206 -1.2,-2.63725 -2.666667,-4.21154 -1.466667,-1.57428 -2.666667,-3.67349 -2.666667,-4.6649 0,-2.0868 -5.213905,-9.85836 -7.6666663,-11.42752 -5.1787717,-3.31313 1.8825226,-8.30609 9.6785003,-6.84355 6.250757,1.17265 7.108014,-1.47452 2.138058,-6.602212 -2.282441,-2.354881 -4.149892,-4.820207 -4.149892,-5.4785 0,-0.658295 -1.599535,-2.866455 -3.5545229,-4.907022 -4.9825197,-5.20063 -5.9891628,-16.5229 -1.97076,-22.166225 3.3692339,-4.731654 9.4077009,-7.451851 14.7888709,-6.662063 4.720715,0.692855 4.736412,0.649967 4.736412,-12.94084 V 34.000001 l -9.549929,-0.38939 C 7.219822,33.17989 4.5088772,31.46641 5.8619069,26.07551 6.6330387,23.003076 7.3335184,22.756892 16.344131,22.391528 24.980601,22.041335 26,21.718472 26,19.333334 26,17.122462 24.746565,16.479739 18.666667,15.57303 5.5493143,13.616807 5.3333333,13.52688 5.3333333,10.021509 c 0,-5.2115508 4.170026,-6.5033967 17.8567107,-5.5318882 6.610672,0.4692388 12.602557,1.4363136 13.315299,2.1490549 1.217148,1.2171479 2.405089,67.4450583 1.830093,102.0279943 -0.13412,8.06667 -0.10204,21.19022 0.07129,29.16345 0.203474,9.35974 -0.224964,15.14759 -1.209049,16.33334 -2.270077,2.73528 -6.108596,2.22374 -8.455405,-1.1268 z M 28.289587,85.860146 c -0.694494,-7.109495 -3.087668,-11.364636 -6.14612,-10.927998 -2.673916,0.38174 -3.053215,1.779466 -2.302051,8.483106 0.266572,2.378972 5.631589,7.428891 7.277203,6.849797 0.851426,-0.299618 1.378362,-2.281825 1.170968,-4.404905 z"
       id="path1314" />
  </g>
</svg>
