<?xml version="1.0" encoding="UTF-8" standalone="no"?>
<!-- Created with Inkscape (http://www.inkscape.org/) -->

<svg
   version="1.1"
   id="svg22"
   width="157.33333"
   height="164"
   viewBox="0 0 157.33333 164"
   sodipodi:docname="0150.svg"
   inkscape:version="1.1.2 (0a00cf5339, 2022-02-04)"
   xmlns:inkscape="http://www.inkscape.org/namespaces/inkscape"
   xmlns:sodipodi="http://sodipodi.sourceforge.net/DTD/sodipodi-0.dtd"
   xmlns="http://www.w3.org/2000/svg"
   xmlns:svg="http://www.w3.org/2000/svg">
  <defs
     id="defs26" />
  <sodipodi:namedview
     id="namedview24"
     pagecolor="#ffffff"
     bordercolor="#666666"
     borderopacity="1.0"
     inkscape:pageshadow="2"
     inkscape:pageopacity="0.0"
     inkscape:pagecheckerboard="0"
     showgrid="false"
     inkscape:zoom="5.3231707"
     inkscape:cx="27.61512"
     inkscape:cy="81.906071"
     inkscape:window-width="2560"
     inkscape:window-height="1299"
     inkscape:window-x="0"
     inkscape:window-y="32"
     inkscape:window-maximized="1"
     inkscape:current-layer="g28" />
  <g
     inkscape:groupmode="layer"
     inkscape:label="Image"
     id="g28">
    <path
       style="fill:#000000;stroke-width:1.33333"
       d="M 24.765222,155.09729 C 15.559896,153.55641 7.9770317,142.4506 7.993405,130.53338 c 0.00769,-5.59952 5.292087,-13.66055 12.618395,-19.24859 2.636762,-2.01116 4.436215,-4.02298 3.998783,-4.47072 -0.43743,-0.44774 -4.503761,-1.41407 -9.036289,-2.1474 -7.9605539,-1.28797 -8.2549524,-1.47777 -8.6521651,-5.578083 -0.3053026,-3.151555 0.2778956,-4.613542 2.264497,-5.676738 1.4951701,-0.80019 12.4907021,-1.617964 24.9216201,-1.853502 21.860874,-0.414214 22.312087,-0.365832 26.068835,2.795264 2.102604,1.769224 3.819124,4.213436 3.814487,5.431581 -0.01306,3.432058 -7.41484,6.881478 -14.766289,6.881478 -5.094408,0 -6.558613,0.4713 -6.558613,2.11111 0,1.16111 0.75,1.8444 1.666666,1.51841 3.213208,-1.14267 11.602003,4.30136 13.452487,8.7302 2.371017,5.67464 0.777398,20.02369 -2.748313,24.746 -5.478624,7.33802 -11.6174,11.02328 -19.177076,11.51246 -3.956571,0.25603 -8.949413,0.17163 -11.095208,-0.18756 z m 59.220291,-1.11474 C 83.001197,152.79652 82.183961,146.57521 81.930696,138.34 81.699414,130.81967 81.153762,120.76667 80.718134,116 c -0.450833,-4.93304 -0.223497,-9.52827 0.527702,-10.66667 1.544232,-2.34018 21.909694,-4.00148 27.800374,-2.26779 1.99125,0.58604 10.58034,0.68878 19.08686,0.22831 C 149.11933,102.15782 148,100.65043 148,130.04833 c 0,20.73876 -0.24675,23.31864 -2.33334,24.39656 -1.28333,0.66296 -15.31887,1.27322 -31.19009,1.35612 -23.954383,0.1252 -29.134396,-0.18378 -30.491057,-1.81846 z M 30.420611,53.333333 C 12.444231,52.67652 12.114148,52.608787 8.0872786,48.750545 4.6335432,45.441437 3.9999999,43.838365 3.9999999,38.408393 c 0,-5.234069 0.6350316,-6.980861 3.4235502,-9.41721 6.7259999,-5.876559 9.2538339,-6.116618 65.5295359,-6.223079 52.477014,-0.09928 53.650464,-0.04407 55.060544,2.590704 1.06629,1.992381 0.98697,3.638584 -0.30516,6.333333 l -1.74595,3.641192 H 74.647926 c -36.828659,0 -52.062064,0.441042 -53.962414,1.562332 -2.500846,1.475611 -2.426835,1.623634 1.333333,2.666667 4.942718,1.371063 94.982065,1.33328 103.611305,-0.04348 4.86273,-0.775828 6.95062,-1.922823 9.16758,-5.036257 2.48712,-3.492828 2.64399,-4.455384 1.17381,-7.202427 -0.93332,-1.743939 -4.45874,-4.500429 -7.83425,-6.125536 -6.71925,-3.234915 -0.20765,-3.094572 -90.410319,-1.948577 -15.550163,0.19756 -28.7939288,0.007 -29.4305874,-0.423428 -2.1193168,-1.43287 -2.8256897,-5.237 -1.2171292,-6.554778 C 11.165139,8.8805761 21.988137,8.0979307 69.333332,7.726058 130.17235,7.2481984 137.86784,7.8742861 144.79896,13.865773 l 5.00208,4.323954 0.092,11.014417 0.092,11.014416 -4.90435,4.494499 C 136.47804,52.59686 130.09994,53.592917 86.835162,53.809197 65.842489,53.914139 40.455942,53.7 30.420611,53.333333 Z"
       id="path1175" />
  </g>
</svg>
