<?xml version="1.0" encoding="UTF-8" standalone="no"?>
<!-- Created with Inkscape (http://www.inkscape.org/) -->

<svg
   version="1.1"
   id="svg32"
   width="149.33333"
   height="152"
   viewBox="0 0 149.33333 152"
   sodipodi:docname="0151.svg"
   inkscape:version="1.1.2 (0a00cf5339, 2022-02-04)"
   xmlns:inkscape="http://www.inkscape.org/namespaces/inkscape"
   xmlns:sodipodi="http://sodipodi.sourceforge.net/DTD/sodipodi-0.dtd"
   xmlns="http://www.w3.org/2000/svg"
   xmlns:svg="http://www.w3.org/2000/svg">
  <defs
     id="defs36" />
  <sodipodi:namedview
     id="namedview34"
     pagecolor="#ffffff"
     bordercolor="#666666"
     borderopacity="1.0"
     inkscape:pageshadow="2"
     inkscape:pageopacity="0.0"
     inkscape:pagecheckerboard="0"
     showgrid="false"
     inkscape:zoom="5.7434211"
     inkscape:cx="27.335624"
     inkscape:cy="75.912944"
     inkscape:window-width="2560"
     inkscape:window-height="1299"
     inkscape:window-x="0"
     inkscape:window-y="32"
     inkscape:window-maximized="1"
     inkscape:current-layer="g38" />
  <g
     inkscape:groupmode="layer"
     inkscape:label="Image"
     id="g38">
    <path
       style="fill:#000000;stroke-width:1.33333"
       d="M 25.999999,142.44173 C 19.4,140.30663 12.504245,137.81316 10.6761,136.90069 c -4.6441633,-2.31798 -5.0117248,-5.91896 -0.7688249,-7.5321 8.4587369,-3.21601 16.3969029,-7.30792 19.9455839,-10.28141 2.654808,-2.2245 5.140606,-3.10276 7.994168,-2.82444 3.434247,0.33496 4.259176,1.08686 4.831677,4.40393 l 0.69037,4 H 72.890805 102.41254 L 105.80927,121 c 1.8682,-2.01667 4.36482,-3.66667 5.54805,-3.66667 3.21232,0 7.30934,2.52209 7.30934,4.49956 0,2.8143 5.40552,4.475 14.45712,4.44155 5.85,-0.0216 8.8237,0.54781 9.64624,1.84715 1.92103,3.03453 1.41016,6.35482 -1.19202,7.74746 -1.36072,0.72824 -23.12385,1.60559 -49.66667,2.00223 -25.984565,0.38831 -47.590748,0.72612 -48.01374,0.75069 -0.422992,0.0245 -0.504892,1.8447 -0.182002,4.0447 0.515983,3.51561 0.205463,3.97924 -2.564257,3.82853 -1.733232,-0.0943 -8.551332,-1.91836 -15.151332,-4.05347 z m 0,-110.666666 C 11.271185,27.010277 7.4656893,25.164303 6.9601386,22.539189 6.5560109,20.440723 7.9542965,19.539443 19.333333,14.563911 22.999999,12.960645 27.733786,10.196117 29.852859,8.4205165 32.507667,6.1960156 34.993465,5.3177519 37.847027,5.5960755 41.281238,5.9310329 42.106231,6.6829696 42.678834,10 l 0.690498,4 h 29.52097 29.520968 l 3.39737,-3.666667 c 1.86855,-2.0166663 4.36545,-3.6666663 5.54868,-3.6666663 3.21232,0 7.30934,2.5220852 7.30934,4.4995583 0,2.814302 5.40552,4.474994 14.45712,4.441546 5.85,-0.02161 8.8237,0.547812 9.64624,1.847154 1.92103,3.034531 1.41016,6.354815 -1.19202,7.747467 -1.36072,0.728235 -23.12385,1.605576 -49.66667,2.00222 C 65.926765,27.592915 44.320582,27.930728 43.89759,27.955308 43.474598,27.979889 43.392698,29.8 43.715588,32 c 0.515983,3.515617 0.205463,3.979237 -2.564257,3.828539 -1.733232,-0.0943 -8.551332,-1.918368 -15.151332,-4.053475 z"
       id="path1036" />
  </g>
</svg>
