<?xml version="1.0" encoding="UTF-8" standalone="no"?>
<!-- Created with Inkscape (http://www.inkscape.org/) -->

<svg
   version="1.1"
   id="svg42"
   width="53.333332"
   height="160"
   viewBox="0 0 53.333332 160"
   sodipodi:docname="0152.svg"
   inkscape:version="1.1.2 (0a00cf5339, 2022-02-04)"
   xmlns:inkscape="http://www.inkscape.org/namespaces/inkscape"
   xmlns:sodipodi="http://sodipodi.sourceforge.net/DTD/sodipodi-0.dtd"
   xmlns="http://www.w3.org/2000/svg"
   xmlns:svg="http://www.w3.org/2000/svg">
  <defs
     id="defs46" />
  <sodipodi:namedview
     id="namedview44"
     pagecolor="#ffffff"
     bordercolor="#666666"
     borderopacity="1.0"
     inkscape:pageshadow="2"
     inkscape:pageopacity="0.0"
     inkscape:pagecheckerboard="0"
     showgrid="false"
     inkscape:zoom="5.45625"
     inkscape:cx="-23.092784"
     inkscape:cy="79.908362"
     inkscape:window-width="2560"
     inkscape:window-height="1299"
     inkscape:window-x="0"
     inkscape:window-y="32"
     inkscape:window-maximized="1"
     inkscape:current-layer="g48" />
  <g
     inkscape:groupmode="layer"
     inkscape:label="Image"
     id="g48">
    <path
       style="fill:#000000;stroke-width:1.33333"
       d="m 12.28513,153.01023 c -1.025821,-1.23604 -1.389548,-12.2444 -1.173457,-35.51522 L 11.424831,83.771049 7.7124155,81.851284 C 5.6705869,80.795413 3.9999999,79.283541 3.9999999,78.491568 c 0,-2.193665 6.2482621,-9.144977 11.9002501,-13.239256 4.897591,-3.547796 5.019289,-3.832989 4.034768,-9.455224 C 19.376692,52.608689 16.762905,43.841332 14.126605,36.314071 6.0537234,13.264078 8.1785222,2.5335712 20.186265,5.7120131 c 4.481026,1.1861248 5.610626,4.176684 3.730009,9.8750099 -1.333387,4.040202 -1.127836,4.987586 1.960703,9.036869 1.897636,2.487929 5.251621,5.806199 7.453301,7.373933 5.520126,3.930676 5.275124,8.229543 -0.730067,12.809926 -4.221669,3.220024 -4.68992,4.18845 -4.333333,8.96209 0.341791,4.575559 1.076777,5.712932 5.066455,7.840219 4.967995,2.648923 15.999999,13.994197 15.999999,16.454345 0,0.808916 -1.546813,2.923912 -3.437362,4.699992 l -3.437362,3.229234 0.38403,21.816329 c 0.354681,20.14901 0.190304,21.95799 -2.150811,23.66985 -7.242475,5.29583 -8.555352,1.73019 -8.539652,-23.19281 0.0075,-11.883701 -0.387014,-22.254955 -0.876669,-23.047233 -0.580975,-0.940035 -1.692473,-0.579454 -3.199232,1.037862 -2.650448,2.844922 -4.578557,9.254564 -3.065247,10.189842 2.010098,1.242309 0.882016,25.305129 -1.415758,30.199199 -1.357271,2.89087 -2.331347,8.9793 -2.559807,16 -0.360761,11.08641 -0.443908,11.34206 -3.816257,11.73408 -1.896104,0.2204 -4.116437,-0.40532 -4.934075,-1.39052 z"
       id="path897" />
  </g>
</svg>
