<?xml version="1.0" encoding="UTF-8" standalone="no"?>
<!-- Created with Inkscape (http://www.inkscape.org/) -->

<svg
   version="1.1"
   id="svg52"
   width="80"
   height="150.66667"
   viewBox="0 0 80 150.66667"
   sodipodi:docname="0153.svg"
   inkscape:version="1.1.2 (0a00cf5339, 2022-02-04)"
   xmlns:inkscape="http://www.inkscape.org/namespaces/inkscape"
   xmlns:sodipodi="http://sodipodi.sourceforge.net/DTD/sodipodi-0.dtd"
   xmlns="http://www.w3.org/2000/svg"
   xmlns:svg="http://www.w3.org/2000/svg">
  <defs
     id="defs56" />
  <sodipodi:namedview
     id="namedview54"
     pagecolor="#ffffff"
     bordercolor="#666666"
     borderopacity="1.0"
     inkscape:pageshadow="2"
     inkscape:pageopacity="0.0"
     inkscape:pagecheckerboard="0"
     showgrid="false"
     inkscape:zoom="5.7942476"
     inkscape:cx="-6.9033985"
     inkscape:cy="75.247043"
     inkscape:window-width="2560"
     inkscape:window-height="1299"
     inkscape:window-x="0"
     inkscape:window-y="32"
     inkscape:window-maximized="1"
     inkscape:current-layer="g58" />
  <g
     inkscape:groupmode="layer"
     inkscape:label="Image"
     id="g58">
    <path
       style="fill:#000000;stroke-width:1.33333"
       d="m 13.921507,143.44292 c -2.265901,-1.65502 -2.693224,-4.18688 -3.43183,-20.33333 -0.9324661,-20.38435 -0.473138,-21.77625 7.186151,-21.77625 8.679285,0 8.990839,0.76512 8.990839,22.07991 v 19.31942 l -3.420134,1.30033 c -4.597758,1.74807 -6.268618,1.64234 -9.325026,-0.59008 z M 40,144.01344 c -3.126691,-0.74878 -3.349024,-1.37321 -3.586439,-10.07252 -0.139208,-5.10084 -0.784704,-12.63707 -1.434434,-16.74717 -1.541976,-9.75432 -0.34054,-12.6925 5.893917,-14.41392 4.036711,-1.11459 5.651209,-0.97287 8.239868,0.72329 l 3.219475,2.10948 -0.893638,18.08603 c -0.4915,9.94732 -1.15742,18.51284 -1.479822,19.03449 -0.910879,1.47384 -6.272598,2.16314 -9.958927,1.28032 z m 20.093591,-1.90066 c -0.86382,-1.04084 -1.436812,-5.07719 -1.277623,-9.00001 0.158752,-3.91202 -0.186904,-10.51511 -0.768124,-14.67352 C 56.335969,106.19143 59.236543,100 66.6863,100 c 6.650355,0 7.980367,3.73058 7.980367,22.38433 0,9.05171 -0.621111,17.61821 -1.380246,19.03666 -1.67467,3.12915 -10.774006,3.60629 -13.19283,0.69179 z M 50.859,65.388189 C 40.558147,62.444368 36.695135,60.554396 30.820805,55.584537 26.900819,52.268109 25.500179,51.85293 20.154139,52.422713 16.769363,52.783464 12.360947,53.503787 10.357661,54.023432 7.1906117,54.844951 6.5247625,54.470099 5.2549904,51.150786 2.0957591,42.89224 11.970062,26.666667 20.155149,26.666667 23.016492,26.666667 24,27.301899 24,29.149994 c 0,1.365831 1.8,4.748333 4,7.516673 2.2,2.768341 4,5.46323 4,5.988643 0,1.794811 6.81204,8.310428 7.729405,7.393064 0.503276,-0.503276 -0.05963,-1.460504 -1.250898,-2.127172 -1.3921,-0.779058 -2.508503,-3.953854 -3.124742,-8.886065 -1.201064,-9.612995 -5.02857,-17.260262 -10.08261,-20.144817 -6.88296,-3.928396 -6.47145,-8.462583 1.05339,-11.6066614 5.633042,-2.3536352 19.18374,-2.5753734 21.408788,-0.3503251 1.863014,1.8630134 2.16445,7.7333335 0.3971,7.7333335 C 46.12866,14.666667 44,22.632114 44,30.122751 c 0,7.42998 3.59048,15.589818 7.523987,17.099246 2.249873,0.863357 2.095088,-3.734199 -0.647144,-19.221996 C 49.954891,22.792929 50.023853,19.603536 51.114692,17 c 1.358285,-3.24186 2.23232,-3.661528 7.544123,-3.622308 6.864422,0.05068 12.007852,3.439194 12.007852,7.910815 0,1.573583 -1.8,6.488982 -4,10.923108 -6.154092,12.403649 -5.317434,17.016406 4.94844,27.282281 2.571953,2.571953 2.890334,3.649335 1.723001,5.830519 -1.846024,3.449327 -10.546212,3.474009 -22.479108,0.06377 z"
       id="path776" />
  </g>
</svg>
