<?xml version="1.0" encoding="UTF-8" standalone="no"?>
<!-- Created with Inkscape (http://www.inkscape.org/) -->

<svg
   version="1.1"
   id="svg62"
   width="168"
   height="168"
   viewBox="0 0 168 168"
   sodipodi:docname="0154.svg"
   inkscape:version="1.1.2 (0a00cf5339, 2022-02-04)"
   xmlns:inkscape="http://www.inkscape.org/namespaces/inkscape"
   xmlns:sodipodi="http://sodipodi.sourceforge.net/DTD/sodipodi-0.dtd"
   xmlns="http://www.w3.org/2000/svg"
   xmlns:svg="http://www.w3.org/2000/svg">
  <defs
     id="defs66" />
  <sodipodi:namedview
     id="namedview64"
     pagecolor="#ffffff"
     bordercolor="#666666"
     borderopacity="1.0"
     inkscape:pageshadow="2"
     inkscape:pageopacity="0.0"
     inkscape:pagecheckerboard="0"
     showgrid="false"
     inkscape:zoom="5.1964286"
     inkscape:cx="31.752577"
     inkscape:cy="83.90378"
     inkscape:window-width="2560"
     inkscape:window-height="1299"
     inkscape:window-x="0"
     inkscape:window-y="32"
     inkscape:window-maximized="1"
     inkscape:current-layer="g68" />
  <g
     inkscape:groupmode="layer"
     inkscape:label="Image"
     id="g68">
    <path
       style="fill:#000000;stroke-width:1.33333"
       d="m 115.9012,161.04296 c -2.57746,-0.9606 -3.0123,-2.09987 -2.6882,-7.04296 0.32272,-4.92205 -4.95833,-20.51069 -8.53881,-25.20496 -2.08557,-2.73432 -3.36614,-5.91395 -3.10986,-7.72174 0.39345,-2.77545 1.22769,-3.11137 8.6081,-3.46608 l 8.17243,-0.39278 0.84333,-5.27389 c 0.46383,-2.90063 1.43623,-5.27388 2.1609,-5.27388 0.72871,0 1.31758,-3.76107 1.31758,-8.415255 C 122.66667,89.580621 125.52133,84 129.9567,84 132.98962,84 136,87.930901 136,91.891225 c 0,2.035412 1.2,5.08436 2.66667,6.775442 2.79833,3.226513 3.00788,4.053643 3.20888,12.666663 l 0.1244,5.33334 7.86401,0.66666 c 9.90459,0.83966 12.08647,3.37347 7.84497,9.11039 -5.67449,7.67517 -9.9602,18.1484 -10.34928,25.29116 -0.21176,3.88752 -0.80193,7.48752 -1.31149,8 -1.32644,1.33405 -27.07915,2.45147 -30.14701,1.30808 z M 26.930456,157.66667 C 26.290604,156.38333 24.682929,151.13333 23.357844,146 20.446755,134.72253 18.662376,131.00491 14.126685,126.76758 7.1733865,120.27167 10.791036,116 23.245679,116 c 6.833494,0 7.420988,-0.2404 7.420988,-3.03666 0,-1.67016 0.951882,-4.39566 2.115296,-6.05667 1.279874,-1.82727 1.999041,-5.23563 1.820938,-8.630003 -0.47247,-9.00456 -0.11896,-10.250582 3.357614,-11.834615 4.077448,-1.857809 7.372818,0.370673 7.372818,4.985845 0,1.705758 1.5,4.719904 3.333334,6.698104 C 51.359305,101.03141 52,103.09483 52,108.86136 V 116 h 7.224284 c 12.031387,0 13.950763,2.06565 8.730897,9.39628 -4.488317,6.30326 -8.89189,17.48865 -9.948689,25.27039 -0.547748,4.03333 -1.673287,7.77414 -2.501199,8.31292 -0.82791,0.53877 -7.334182,0.98877 -14.458381,1 -11.016891,0.0173 -13.126987,-0.32838 -14.116456,-2.31292 z M 99.934028,49.290619 C 99.301007,48.900459 80.606888,48.763553 58.391541,48.986385 36.176193,49.209217 16.691956,49.077539 15.093236,48.693765 8.8911793,47.204961 8,44.760591 8,29.238095 8,11.473238 8.8406131,10.182799 21.258419,8.8848817 c 4.59212,-0.4799716 8.843297,-0.5673738 9.447061,-0.1942273 0.820081,0.5068384 93.7609,2.0017946 123.02923,1.9789296 6.12597,-0.0048 8.09637,6.701191 6.94262,23.628237 -0.91389,13.40795 -1.01434,13.736194 -4.47277,14.614356 -4.19867,1.066124 -54.60477,1.405126 -56.270532,0.378442 z M 59.668992,31.723612 c 2.015388,-2.949459 4.714341,-6.493869 5.997675,-7.876465 2.270941,-2.446595 2.057025,-2.51802 -8,-2.671131 C 51.983333,21.089492 42.159991,20.807543 35.837015,20.549463 21.9067,19.980879 19.579199,21.521037 20.250011,30.863724 l 0.416656,5.802943 10.666666,0.666666 C 37.2,37.7 45.151047,37.794409 49.002325,37.543132 c 6.476246,-0.422544 7.277627,-0.859761 10.666667,-5.81952 z m 90.714288,4.830129 c 1.33071,-2.377845 -0.85495,-12.631449 -3.02688,-14.19999 -0.74601,-0.538771 -8.83827,-0.988771 -17.98276,-1 l -16.62637,-0.02042 -3.59553,4.212767 c -5.31918,6.232307 -7.33989,10.435161 -5.54866,11.540615 0.81392,0.502306 11.40584,1.06424 23.53761,1.248738 18.99259,0.288839 22.2224,0.04125 23.24259,-1.781712 z M 74.872969,33 c 1.680006,-2.383333 4.147067,-5.524599 5.48236,-6.980589 1.36681,-1.490356 1.822195,-2.849126 1.042028,-3.10918 -1.258792,-0.419598 -4.443028,2.815656 -11.160797,11.339618 -2.015201,2.557023 -2.087615,3.083484 -0.424125,3.083484 1.103289,0 3.38053,-1.95 5.060534,-4.333333 z m 18.944954,-2.615452 c 4.337896,-6.472081 4.972893,-9.051215 2.228461,-9.051215 -0.621263,0 -3.166967,2.85 -5.657117,6.333334 -6.80921,9.525021 -6.866176,9.666666 -3.887698,9.666666 1.720468,0 4.30279,-2.452586 7.316354,-6.948785 z"
       id="path537" />
  </g>
</svg>
