<?xml version="1.0" encoding="UTF-8" standalone="no"?>
<!-- Created with Inkscape (http://www.inkscape.org/) -->

<svg
   version="1.1"
   id="svg72"
   width="161.33333"
   height="56"
   viewBox="0 0 161.33333 56"
   sodipodi:docname="0155.svg"
   inkscape:version="1.1.2 (0a00cf5339, 2022-02-04)"
   xmlns:inkscape="http://www.inkscape.org/namespaces/inkscape"
   xmlns:sodipodi="http://sodipodi.sourceforge.net/DTD/sodipodi-0.dtd"
   xmlns="http://www.w3.org/2000/svg"
   xmlns:svg="http://www.w3.org/2000/svg">
  <defs
     id="defs76" />
  <sodipodi:namedview
     id="namedview74"
     pagecolor="#ffffff"
     bordercolor="#666666"
     borderopacity="1.0"
     inkscape:pageshadow="2"
     inkscape:pageopacity="0.0"
     inkscape:pagecheckerboard="0"
     showgrid="false"
     inkscape:zoom="7.9462812"
     inkscape:cx="46.436816"
     inkscape:cy="27.937597"
     inkscape:window-width="2560"
     inkscape:window-height="1299"
     inkscape:window-x="0"
     inkscape:window-y="32"
     inkscape:window-maximized="1"
     inkscape:current-layer="g78" />
  <g
     inkscape:groupmode="layer"
     inkscape:label="Image"
     id="g78">
    <path
       style="fill:#000000;stroke-width:1.33333"
       d="M 95.733987,48.622877 C 95.347217,48.236108 77.815533,47.935917 56.774691,47.955789 13.493242,47.996665 13.072633,47.913659 7.3851865,38.208764 0.08930018,25.759275 4.628053,12.248756 17.492366,8.1226913 23.824974,6.0915881 126.64333,5.8866145 137.95068,7.8825515 151.26006,10.23188 156.96489,18.907512 155.12469,34 153.58216,46.651284 149.74478,48.239597 119.2186,48.861772 106.68883,49.117151 96.120757,49.009648 95.733987,48.622877 Z M 141.7064,35.334543 c 1.57681,-0.653615 2.10589,-1.825463 1.57681,-3.492443 -0.44007,-1.386535 -0.15963,-2.508767 0.62693,-2.508767 2.67096,0 1.47119,-6.328657 -1.57681,-8.317445 -4.96331,-3.238511 -15.44017,-3.850321 -66.010598,-3.85478 -47.385699,-0.0042 -48.462301,0.05485 -54.315699,2.978181 -9.591428,4.790191 -9.712735,10.879756 -0.312499,15.687306 5.425895,2.774958 6.972881,2.86902 40.972131,2.491229 19.433333,-0.215937 41.033335,-0.07579 47.999995,0.311448 11.59815,0.644669 24.95692,-0.773307 31.03974,-3.294729 z"
       id="path398" />
  </g>
</svg>
