<?xml version="1.0" encoding="UTF-8" standalone="no"?>
<!-- Created with Inkscape (http://www.inkscape.org/) -->

<svg
   version="1.1"
   id="svg82"
   width="19.52"
   height="36.16"
   viewBox="0 0 19.52 36.16"
   sodipodi:docname="0156.svg"
   inkscape:version="1.1.2 (0a00cf5339, 2022-02-04)"
   xmlns:inkscape="http://www.inkscape.org/namespaces/inkscape"
   xmlns:sodipodi="http://sodipodi.sourceforge.net/DTD/sodipodi-0.dtd"
   xmlns="http://www.w3.org/2000/svg"
   xmlns:svg="http://www.w3.org/2000/svg">
  <defs
     id="defs86" />
  <sodipodi:namedview
     id="namedview84"
     pagecolor="#ffffff"
     bordercolor="#666666"
     borderopacity="1.0"
     inkscape:pageshadow="2"
     inkscape:pageopacity="0.0"
     inkscape:pagecheckerboard="0"
     showgrid="false"
     inkscape:zoom="24.142699"
     inkscape:cx="-1.491134"
     inkscape:cy="18.05929"
     inkscape:window-width="2560"
     inkscape:window-height="1299"
     inkscape:window-x="0"
     inkscape:window-y="32"
     inkscape:window-maximized="1"
     inkscape:current-layer="g88" />
  <g
     inkscape:groupmode="layer"
     inkscape:label="Image"
     id="g88">
    <path
       style="fill:#000000;stroke-width:0.32"
       d="M 2.632907,33.587405 C 1.6252536,33.182691 1.4434378,32.495568 1.9313892,30.936207 c 0.5366901,-1.715117 1.9466831,-3.21847 3.9591974,-4.221348 2.1497081,-1.071245 5.5788354,-1.11487 7.7929004,-0.09914 1.770208,0.812105 2.221658,1.239986 3.196513,3.029637 0.779262,1.430577 0.911923,2.678107 0.388741,3.655682 -0.312073,0.583113 -0.724438,0.617789 -7.12,0.598678 C 6.4149334,33.888546 3.0328081,33.74802 2.632907,33.587406 Z M 10.422375,17.636204 C 10.301295,17.440292 9.8557382,17.28 9.4322493,17.28 9.0087606,17.28 8.1892589,16.869486 7.6111347,16.367746 6.6442067,15.528573 6.4022352,15.467388 4.5906557,15.60399 2.8221073,15.737346 2.583751,15.682305 2.2529281,15.064156 1.8040577,14.225434 2.0341117,13.413788 3.0694731,12.183332 L 3.8547222,11.250116 3.0464055,10.058995 C 1.6208111,7.958264 1.4294634,6.7550672 2.2263711,4.9026054 2.8116117,3.5421766 3.1621014,3.1772707 4.4735056,2.5630418 5.5566112,2.0557422 6.3017965,1.9009372 6.933625,2.0519758 7.4321312,2.1711437 8.3915824,2.3889822 9.0657389,2.5360613 9.7398954,2.6831405 10.452695,2.9646954 10.649739,3.161739 c 0.497825,0.4978245 1.498229,0.4440223 2.619978,-0.1409031 0.522344,-0.2723717 1.276151,-0.4132915 1.675127,-0.3131551 0.860522,0.2159775 1.255621,1.4398206 0.762366,2.361477 -0.475235,0.8879846 -0.436177,2.1386416 0.08017,2.5671744 0.235061,0.1950828 0.75756,0.9966652 1.161109,1.7812934 0.589636,1.1464394 0.704373,1.7805634 0.584254,3.2290394 -0.137573,1.658943 -0.279012,1.931982 -1.776556,3.429525 -1.483293,1.483294 -1.781141,1.639859 -3.370375,1.771651 -1.085231,0.09 -1.826395,0.0101 -1.96344,-0.211637 z"
       id="path259" />
  </g>
</svg>
