<?xml version="1.0" encoding="UTF-8" standalone="no"?>
<!-- Created with Inkscape (http://www.inkscape.org/) -->

<svg
   version="1.1"
   id="svg92"
   width="62.666668"
   height="160"
   viewBox="0 0 62.666668 160"
   sodipodi:docname="0157.svg"
   inkscape:version="1.1.2 (0a00cf5339, 2022-02-04)"
   xmlns:inkscape="http://www.inkscape.org/namespaces/inkscape"
   xmlns:sodipodi="http://sodipodi.sourceforge.net/DTD/sodipodi-0.dtd"
   xmlns="http://www.w3.org/2000/svg"
   xmlns:svg="http://www.w3.org/2000/svg">
  <defs
     id="defs96" />
  <sodipodi:namedview
     id="namedview94"
     pagecolor="#ffffff"
     bordercolor="#666666"
     borderopacity="1.0"
     inkscape:pageshadow="2"
     inkscape:pageopacity="0.0"
     inkscape:pagecheckerboard="0"
     showgrid="false"
     inkscape:zoom="5.45625"
     inkscape:cx="31.340206"
     inkscape:cy="79.908362"
     inkscape:window-width="2560"
     inkscape:window-height="1299"
     inkscape:window-x="0"
     inkscape:window-y="32"
     inkscape:window-maximized="1"
     inkscape:current-layer="g98" />
  <g
     inkscape:groupmode="layer"
     inkscape:label="Image"
     id="g98">
    <path
       style="fill:#000000;stroke-width:1.33333"
       d="M 24.759845,153.48409 C 22.942302,150.54325 22.338444,121.16294 23.940393,113.61422 25.968913,104.0554 25.266743,102.3563 13.464598,88.265067 2.0778779,74.669833 2.7685443,71.020039 17.017732,69.488691 l 7.648935,-0.822024 v -26 c 0,-29.513388 0.624408,-31.700143 9.8401,-34.4612315 7.009195,-2.1000059 11.593757,-1.9325343 16.972843,0.6200092 5.067434,2.4046543 6.878646,6.7681163 4.586854,11.0503673 -1.8076,3.377533 -3.173444,3.469136 -8.123871,0.544848 -4.853505,-2.867036 -10.572174,-0.78682 -10.677647,3.884088 -0.03761,1.665723 -0.187613,30.686471 -0.333333,64.490552 -0.214842,49.83878 -0.611007,61.8789 -2.094872,63.66667 -1.932207,2.32792 -8.837014,3.0283 -10.076896,1.02212 z"
       id="path120" />
  </g>
</svg>
