<?xml version="1.0" encoding="UTF-8" standalone="no"?>
<!-- Created with Inkscape (http://www.inkscape.org/) -->

<svg
   version="1.1"
   id="svg2"
   width="54.666668"
   height="160"
   viewBox="0 0 54.666668 160"
   xmlns="http://www.w3.org/2000/svg"
   xmlns:svg="http://www.w3.org/2000/svg">
  <defs
     id="defs6" />
  <g
     id="g8">
    <path
       style="fill:#000000;stroke-width:1.33333"
       d="m 24.311231,154.52087 c -2.905214,-1.07472 -2.918213,-1.23356 -2.179228,-26.62985 l 0.743422,-25.54869 -3.881606,-4.171162 C 13.855031,92.649033 4.0000001,77.823528 4.0000001,75.615079 c 0,-3.27544 3.1903983,-4.948412 9.4367399,-4.948412 3.430208,0 6.866638,-0.758979 7.636511,-1.686619 0.87915,-1.059311 1.166527,-7.134205 0.77266,-16.333333 -1.205978,-28.166732 -1.033114,-31.75205 1.844566,-38.257523 2.949174,-6.6670988 5.08929,-8.3309045 12.505428,-9.7221801 4.830808,-0.906265 12.543006,1.7989565 14.783679,5.185698 1.529408,2.3116751 1.189179,8.1118621 -0.579583,9.8806231 -2.284089,2.28409 -4.777192,1.987708 -9.085515,-1.080086 -3.43183,-2.44368 -3.949837,-2.494086 -5.872493,-0.57143 -1.159763,1.159763 -2.153715,3.415802 -2.208783,5.013422 -0.05507,1.597618 -0.267372,31.104761 -0.471785,65.571428 -0.204414,34.466663 -0.459358,63.346693 -0.566543,64.177823 -0.270473,2.09731 -4.382221,2.97163 -7.883651,1.67638 z M 22.666667,82.666667 c 0,-0.733334 -0.63541,-1.333334 -1.412022,-1.333334 -0.776613,0 -1.041203,0.6 -0.587978,1.333334 C 21.119893,83.4 21.755302,84 22.07869,84 c 0.323388,0 0.587977,-0.6 0.587977,-1.333333 z"
       id="path30" />
  </g>
</svg>
