<?xml version="1.0" encoding="UTF-8" standalone="no"?>
<!-- Created with Inkscape (http://www.inkscape.org/) -->

<svg
   version="1.1"
   id="svg2"
   width="49.333332"
   height="156"
   viewBox="0 0 49.333332 156"
   sodipodi:docname="0158.svg"
   inkscape:version="1.1.2 (0a00cf5339, 2022-02-04)"
   xmlns:inkscape="http://www.inkscape.org/namespaces/inkscape"
   xmlns:sodipodi="http://sodipodi.sourceforge.net/DTD/sodipodi-0.dtd"
   xmlns="http://www.w3.org/2000/svg"
   xmlns:svg="http://www.w3.org/2000/svg">
  <defs
     id="defs6" />
  <sodipodi:namedview
     id="namedview4"
     pagecolor="#ffffff"
     bordercolor="#666666"
     borderopacity="1.0"
     inkscape:pageshadow="2"
     inkscape:pageopacity="0.0"
     inkscape:pagecheckerboard="0"
     showgrid="false"
     inkscape:zoom="5.5961538"
     inkscape:cx="-23.766323"
     inkscape:cy="77.910653"
     inkscape:window-width="2560"
     inkscape:window-height="1299"
     inkscape:window-x="0"
     inkscape:window-y="32"
     inkscape:window-maximized="1"
     inkscape:current-layer="g8" />
  <g
     inkscape:groupmode="layer"
     inkscape:label="Image"
     id="g8">
    <path
       style="fill:#000000;stroke-width:1.33333"
       d="m 27.003302,149.95239 c -6.298931,-4.41195 -7.650592,-10.30322 -7.483933,-32.61906 0.098,-13.12183 0.971006,-24.985955 2.39133,-32.497983 1.230344,-6.507226 2.087938,-13.107226 1.905764,-14.666667 -0.182173,-1.55944 0.332099,-4.935347 1.14283,-7.502013 C 28.817003,50.453639 28.176333,27.896815 23.719047,19 22.013981,15.596659 16.328874,14.939337 11.996948,17.644669 9.7644733,19.038873 8.9169363,18.842863 6.4316524,16.357579 3.8421219,13.768048 3.7018231,13.048505 5.2297653,10.193518 7.4534898,6.0384511 12.018353,4 19.099395,4 c 7.513442,0 11.198571,2.8636621 15.250124,11.850657 2.800589,6.212158 3.552171,10.538982 4.426408,25.482676 0.579171,9.9 1.984111,27.9 3.122088,40 2.57303,27.358757 2.64662,53.478027 0.170235,60.421597 -3.458299,9.69676 -8.785695,12.59562 -15.064948,8.19746 z"
       id="path1520" />
  </g>
</svg>
