<?xml version="1.0" encoding="UTF-8" standalone="no"?>
<!-- Created with Inkscape (http://www.inkscape.org/) -->

<svg
   version="1.1"
   id="svg12"
   width="122.66667"
   height="164"
   viewBox="0 0 122.66667 164"
   sodipodi:docname="0159.svg"
   inkscape:version="1.1.2 (0a00cf5339, 2022-02-04)"
   xmlns:inkscape="http://www.inkscape.org/namespaces/inkscape"
   xmlns:sodipodi="http://sodipodi.sourceforge.net/DTD/sodipodi-0.dtd"
   xmlns="http://www.w3.org/2000/svg"
   xmlns:svg="http://www.w3.org/2000/svg">
  <defs
     id="defs16" />
  <sodipodi:namedview
     id="namedview14"
     pagecolor="#ffffff"
     bordercolor="#666666"
     borderopacity="1.0"
     inkscape:pageshadow="2"
     inkscape:pageopacity="0.0"
     inkscape:pagecheckerboard="0"
     showgrid="false"
     inkscape:zoom="5.3231707"
     inkscape:cx="10.332188"
     inkscape:cy="81.906071"
     inkscape:window-width="2560"
     inkscape:window-height="1299"
     inkscape:window-x="0"
     inkscape:window-y="32"
     inkscape:window-maximized="1"
     inkscape:current-layer="g18" />
  <g
     inkscape:groupmode="layer"
     inkscape:label="Image"
     id="g18">
    <path
       style="fill:#000000;stroke-width:1.33333"
       d="m 10.142588,157.50489 c -3.7607768,-0.81722 -7.4667558,-4.62517 -5.9639214,-6.128 0.4130579,-0.41306 4.2918363,-1.66814 8.6195074,-2.78906 10.838976,-2.80746 12.636951,-4.96947 13.962071,-16.78904 C 27.364457,126.40946 28.489166,118.4 29.259601,114 c 0.770433,-4.4 1.78678,-10.29159 2.258548,-13.09241 0.982479,-5.832858 4.641789,-8.880293 10.533019,-8.771787 10.342185,0.190481 29.590517,-1.090306 31.183737,-2.07497 3.28758,-2.031836 -8.859177,-5.056116 -16.428729,-4.090398 -16.611427,2.119273 -24.806175,0.603873 -24.806175,-4.58724 0,-4.44128 6.256889,-8.049862 13.95759,-8.049862 3.812214,0 7.342502,0.411203 7.845084,0.913784 3.940027,3.940028 23.53066,6.083912 23.53066,2.575058 0,-2.615222 -3.896617,-3.406251 -21.333333,-4.330758 -15.1576,-0.803666 -15.385056,-0.864136 -19.846137,-5.276114 -4.195632,-4.149451 -4.399327,-4.737084 -2.89824,-8.361031 1.094304,-2.641883 1.195451,-4.696444 0.313895,-6.376085 -0.715368,-1.363003 -2.705642,-5.319727 -4.422831,-8.79272 l -3.122163,-6.314535 -1.416517,4.314535 c -0.899727,2.740454 -1.114804,11.124722 -0.589524,22.9812 0.454848,10.266666 0.315652,19.716666 -0.309323,21 -1.382776,2.839414 -10.00503,3.206738 -13.598249,0.579312 C 7.8166473,84.568371 7.8105231,83.943944 9.9703376,71.912645 12.61319,57.190571 14.431162,43.287612 15.53807,29.333333 c 1.187,-14.963952 4.386465,-17.236011 10.796036,-7.666666 2.087551,3.116666 4.941235,8.366666 6.341522,11.666666 4.571701,10.773958 12.86334,22.763026 17.974283,25.989422 4.034356,2.546777 7.157023,3.209418 16.818799,3.569006 l 11.864625,0.441572 0.666667,-9.531772 c 0.452788,-6.473816 1.41524,-10.357305 3,-12.104988 2.755076,-3.038314 2.95776,-4.364133 0.666667,-4.360856 -0.916667,0.0013 -3.390588,2.73107 -5.497603,6.066131 -4.674629,7.399175 -8.365565,7.666432 -7.800205,0.564805 1.054865,-13.250412 -0.409647,-21.09055 -4.547666,-24.345516 -4.239835,-3.335054 -4.209999,-8.638758 0.05461,-9.7091093 1.765031,-0.4429942 4.362133,-0.1883848 5.771338,0.5657993 1.959128,1.048493 3.61572,0.730553 7.038248,-1.3508099 4.952235,-3.011631 12.822047,-2.6234192 18.202933,0.8979369 3.416626,2.235907 8.814086,15.61005 8.599506,21.308379 -0.0828,2.2 0.5279,10.465022 1.35721,18.366714 1.38341,13.181068 1.31117,14.584032 -0.87525,17 -1.3107,1.448308 -3.17866,2.633286 -4.15104,2.633286 -2.283297,0 -3.00586,3.445286 -3.635233,17.333334 -0.466841,10.301544 -0.370663,10.863576 1.056439,6.173449 C 101.14203,86.589032 104.37765,84 110.28784,84 c 6.12429,0 7.47438,3.98522 6.69148,19.752 -0.62983,12.68411 -1.85942,15.88554 -5.55636,14.46689 -1.6732,-0.64207 -2.0977,-3.13514 -2.13017,-12.51038 -0.0314,-9.084873 -0.36528,-11.149559 -1.48974,-9.214082 -0.91602,1.576707 -1.12107,5.824382 -0.55733,11.545462 0.57514,5.83671 0.39393,9.35878 -0.51026,9.91759 -0.85968,0.53132 -1.40212,7.31792 -1.40212,17.5422 0,9.1716 -0.62111,17.83619 -1.38025,19.25464 -1.28321,2.39769 -3.007,2.57901 -24.518955,2.57901 -29.881539,0 -29.70326,0.1036 -27.675642,-16.07484 0.776058,-6.19217 1.803195,-16.12797 2.282528,-22.07955 l 0.871518,-10.82107 -3.705095,-0.70827 c -6.741825,-1.28878 -8.228112,0.90564 -7.340241,10.83748 0.155062,1.73456 -0.951622,5.77802 -2.459301,8.98547 -1.50768,3.20744 -2.741234,7.00285 -2.741234,8.43422 0,1.43139 -0.6671,3.0148 -1.482444,3.51872 -0.954744,0.59006 -1.181592,3.18414 -0.637276,7.28739 1.148109,8.65487 -0.924699,10.62045 -11.199802,10.62045 -4.287641,0 -8.594784,0.2272 -9.57143,0.5049 -0.976644,0.27769 -3.511551,0.12773 -5.633128,-0.33334 z"
       id="path1381" />
  </g>
</svg>
