<?xml version="1.0" encoding="UTF-8" standalone="no"?>
<!-- Created with Inkscape (http://www.inkscape.org/) -->

<svg
   version="1.1"
   id="svg22"
   width="42.666668"
   height="158.66667"
   viewBox="0 0 42.666668 158.66667"
   sodipodi:docname="0160.svg"
   inkscape:version="1.1.2 (0a00cf5339, 2022-02-04)"
   xmlns:inkscape="http://www.inkscape.org/namespaces/inkscape"
   xmlns:sodipodi="http://sodipodi.sourceforge.net/DTD/sodipodi-0.dtd"
   xmlns="http://www.w3.org/2000/svg"
   xmlns:svg="http://www.w3.org/2000/svg">
  <defs
     id="defs26" />
  <sodipodi:namedview
     id="namedview24"
     pagecolor="#ffffff"
     bordercolor="#666666"
     borderopacity="1.0"
     inkscape:pageshadow="2"
     inkscape:pageopacity="0.0"
     inkscape:pagecheckerboard="0"
     showgrid="false"
     inkscape:zoom="5.5021007"
     inkscape:cx="-27.98931"
     inkscape:cy="79.242461"
     inkscape:window-width="2560"
     inkscape:window-height="1299"
     inkscape:window-x="0"
     inkscape:window-y="32"
     inkscape:window-maximized="1"
     inkscape:current-layer="g28" />
  <g
     inkscape:groupmode="layer"
     inkscape:label="Image"
     id="g28">
    <path
       style="fill:#000000;stroke-width:1.33333"
       d="m 16.084463,152.76844 c -1.134699,-1.36722 -1.208088,-3.32537 -0.262356,-7 0.722168,-2.80597 1.075756,-10.43152 0.785754,-16.94566 -0.496887,-11.16119 -0.798598,-12.19215 -5.234237,-17.88548 -2.5888265,-3.32288 -4.7069571,-6.72312 -4.7069571,-7.55611 0,-2.42864 2.9615773,-4.714521 6.1081081,-4.714521 2.710525,0 2.986823,-0.883244 4.066667,-13.000001 C 18.331741,68.944271 17.869051,63.290817 14.650624,58.897731 8.8035617,50.916609 6.2637951,33.58353 9.5174712,23.865631 12.851643,13.907312 19.572823,7.9440568 29.482016,6.1524215 39.136389,4.4068586 39.562645,12.965955 30.031312,17.182118 21.814058,20.816999 17.333334,27.294111 17.333334,35.537682 c 0,3.755996 0.846796,7.738871 1.957596,9.207479 1.789497,2.365928 1.961236,1.872595 2,-5.74516 0.04053,-7.965511 0.188021,-8.333334 3.341497,-8.333334 6.657171,0 9.521957,13.411818 5.472489,25.620072 -1.325558,3.996262 -2.026791,14.122553 -2.333334,33.694912 -0.424493,27.103469 -0.354557,27.997189 2.228419,28.476809 3.065339,0.56919 6,2.68463 6,4.32507 0,0.61803 -1.817865,3.19412 -4.0397,5.72465 -3.371647,3.84009 -4.173577,6.10784 -4.84926,13.71306 -0.445258,5.01166 -1.40086,9.8621 -2.12356,10.77876 -1.771447,2.2469 -6.958042,2.11199 -8.903018,-0.23156 z"
       id="path1242" />
  </g>
</svg>
