<?xml version="1.0" encoding="UTF-8" standalone="no"?>
<!-- Created with Inkscape (http://www.inkscape.org/) -->

<svg
   version="1.1"
   id="svg32"
   width="77.333336"
   height="164"
   viewBox="0 0 77.333336 164"
   sodipodi:docname="0161.svg"
   inkscape:version="1.1.2 (0a00cf5339, 2022-02-04)"
   xmlns:inkscape="http://www.inkscape.org/namespaces/inkscape"
   xmlns:sodipodi="http://sodipodi.sourceforge.net/DTD/sodipodi-0.dtd"
   xmlns="http://www.w3.org/2000/svg"
   xmlns:svg="http://www.w3.org/2000/svg">
  <defs
     id="defs36" />
  <sodipodi:namedview
     id="namedview34"
     pagecolor="#ffffff"
     bordercolor="#666666"
     borderopacity="1.0"
     inkscape:pageshadow="2"
     inkscape:pageopacity="0.0"
     inkscape:pagecheckerboard="0"
     showgrid="false"
     inkscape:zoom="5.3231707"
     inkscape:cx="-12.398625"
     inkscape:cy="81.906071"
     inkscape:window-width="2560"
     inkscape:window-height="1299"
     inkscape:window-x="0"
     inkscape:window-y="32"
     inkscape:window-maximized="1"
     inkscape:current-layer="g38" />
  <g
     inkscape:groupmode="layer"
     inkscape:label="Image"
     id="g38">
    <path
       style="fill:#000000;stroke-width:1.33333"
       d="M 18.666667,154.44797 C 13.9,152.97928 9.1000003,151.31715 8.0000003,150.75433 c -3.7027,-1.89448 -3.0072653,-7.20684 1.7618332,-13.45849 4.6712125,-6.12333 7.5715005,-14.9623 7.5715005,-23.07506 0,-3.80528 -0.580748,-4.74412 -3.367248,-5.44348 C 5.5970235,106.67679 3.1010188,96.945727 10.457704,95.099316 12.368789,94.619664 26.247613,94.176097 41.299536,94.113611 L 68.666669,94 v 5.94998 c 0,5.77643 -0.145844,5.98447 -5,7.13245 -4.670559,1.10456 -5,1.5095 -5,6.14584 0,6.08577 3.380954,16.41757 7.552179,23.07857 5.959665,9.51695 4.115189,12.6752 -10.602197,18.15388 -9.991097,3.71928 -24.854258,3.71416 -36.949984,-0.0128 z M 23.388149,51.666667 C 23.097661,50.75 22.483113,46.628401 22.022487,42.50756 21.561862,38.386717 20.040503,32.986717 18.64169,30.50756 10.229574,15.598523 10.0134,14.931827 12.647535,12.021141 14.895006,9.5377135 16.716851,9.3333333 36.606652,9.3333333 c 22.192641,0 24.726683,0.5678316 24.726683,5.5407877 0,1.287434 -1.515208,4.573571 -3.367128,7.302528 -1.851921,2.728959 -3.693445,6.505604 -4.092277,8.392547 -0.398831,1.886941 -1.283624,4.809036 -1.966206,6.493541 -0.68258,1.684506 -1.241056,5.413395 -1.241056,8.286422 0,3.799896 -0.702945,5.599889 -2.579012,6.603929 -3.796794,2.031983 -24.039202,1.797247 -24.699507,-0.286421 z"
       id="path1103" />
  </g>
</svg>
