<?xml version="1.0" encoding="UTF-8" standalone="no"?>
<!-- Created with Inkscape (http://www.inkscape.org/) -->

<svg
   version="1.1"
   id="svg42"
   width="165.33333"
   height="165.33333"
   viewBox="0 0 165.33333 165.33333"
   sodipodi:docname="0162.svg"
   inkscape:version="1.1.2 (0a00cf5339, 2022-02-04)"
   xmlns:inkscape="http://www.inkscape.org/namespaces/inkscape"
   xmlns:sodipodi="http://sodipodi.sourceforge.net/DTD/sodipodi-0.dtd"
   xmlns="http://www.w3.org/2000/svg"
   xmlns:svg="http://www.w3.org/2000/svg">
  <defs
     id="defs46" />
  <sodipodi:namedview
     id="namedview44"
     pagecolor="#ffffff"
     bordercolor="#666666"
     borderopacity="1.0"
     inkscape:pageshadow="2"
     inkscape:pageopacity="0.0"
     inkscape:pagecheckerboard="0"
     showgrid="false"
     inkscape:zoom="5.2802421"
     inkscape:cx="31.248567"
     inkscape:cy="82.571971"
     inkscape:window-width="2560"
     inkscape:window-height="1299"
     inkscape:window-x="0"
     inkscape:window-y="32"
     inkscape:window-maximized="1"
     inkscape:current-layer="g48" />
  <g
     inkscape:groupmode="layer"
     inkscape:label="Image"
     id="g48">
    <path
       style="fill:#000000;stroke-width:1.33333"
       d="m 148.2411,155.2188 c -4.73341,-3.31542 -14.90777,-20.15942 -14.90777,-24.68035 0,-1.49257 -0.59475,-3.82506 -1.32166,-5.18331 -0.72692,-1.35825 -1.37838,-13.08914 -1.44771,-26.068627 -0.14844,-27.792429 -1.30051,-31.887544 -11.26881,-40.055816 L 112.99294,54.066506 95.496467,53.682392 C 85.873409,53.47113 68.214947,53.156166 56.255439,52.982472 34.832543,52.671338 34.471475,52.617356 31.847107,49.333332 29.534909,46.439944 29.275713,44.636168 29.883265,35.666666 30.528502,26.140782 30.38423,25.333333 28.036953,25.333333 c -1.400432,0 -2.917062,0.6 -3.370287,1.333333 -1.286197,2.081111 -11.742657,1.564936 -15.0366579,-0.742272 -4.4157597,-3.092918 -3.9134275,-8.8879 1.1389589,-13.139203 4.275565,-3.5976508 11.632458,-4.5049061 21.128876,-2.605622 5.867,1.1734 10.027873,9.222571 8.844995,17.110565 -0.460243,3.069124 -0.451469,6.584393 0.01949,7.811712 1.056048,2.752016 5.927557,2.848675 32.801188,0.650836 30.806494,-2.519484 49.019994,1.406239 59.556224,12.836702 9.41251,10.211364 10.85123,19.196767 9.72616,60.743946 -0.46512,17.17637 -0.32663,18.34371 3.02675,25.5116 1.9328,4.13137 4.89992,8.93137 6.5936,10.66667 4.051,4.15052 5.26766,7.73249 3.39349,9.99073 -1.97835,2.38375 -3.91337,2.31173 -7.61864,-0.28353 z M 41.203707,130.53704 c -4.06757,-4.06757 -2.6308,-10.47065 4.784787,-21.32373 5.138038,-7.51979 7.251616,-9.405671 13.870025,-12.375836 14.943635,-6.706305 36.507175,-3.311084 45.179311,7.113566 8.721,10.48339 12.52847,25.06996 7.27747,27.88021 -1.29326,0.69213 -17.184043,1.32246 -35.312863,1.40072 -31.940678,0.13791 -33.049359,0.0544 -35.79873,-2.69493 z"
       id="path964" />
  </g>
</svg>
