<?xml version="1.0" encoding="UTF-8" standalone="no"?>
<!-- Created with Inkscape (http://www.inkscape.org/) -->

<svg
   version="1.1"
   id="svg52"
   width="93.333336"
   height="165.33333"
   viewBox="0 0 93.333336 165.33333"
   sodipodi:docname="0163.svg"
   inkscape:version="1.1.2 (0a00cf5339, 2022-02-04)"
   xmlns:inkscape="http://www.inkscape.org/namespaces/inkscape"
   xmlns:sodipodi="http://sodipodi.sourceforge.net/DTD/sodipodi-0.dtd"
   xmlns="http://www.w3.org/2000/svg"
   xmlns:svg="http://www.w3.org/2000/svg">
  <defs
     id="defs56" />
  <sodipodi:namedview
     id="namedview54"
     pagecolor="#ffffff"
     bordercolor="#666666"
     borderopacity="1.0"
     inkscape:pageshadow="2"
     inkscape:pageopacity="0.0"
     inkscape:pagecheckerboard="0"
     showgrid="false"
     inkscape:zoom="5.2802421"
     inkscape:cx="-4.7346314"
     inkscape:cy="82.571971"
     inkscape:window-width="2560"
     inkscape:window-height="1299"
     inkscape:window-x="0"
     inkscape:window-y="32"
     inkscape:window-maximized="1"
     inkscape:current-layer="g58" />
  <g
     inkscape:groupmode="layer"
     inkscape:label="Image"
     id="g58">
    <path
       style="fill:#000000;stroke-width:1.33333"
       d="m 38.666668,157.79724 c -5.813687,-1.91531 -8.447222,-4.25124 -10.978963,-9.73827 -3.173038,-6.87691 -3.895498,-21.26213 -1.229186,-24.47484 0.893851,-1.07702 4.896111,-3.37405 8.893911,-5.10451 5.696959,-2.46595 7.273647,-3.795 7.291483,-6.14629 0.02133,-2.81218 -0.531502,-3 -8.830255,-3 -9.220283,0 -12.340492,-1.73707 -12.43792,-6.92439 -0.09932,-5.288006 4.741137,-6.408942 27.675261,-6.408942 23.013244,0 26.962295,0.837891 26.928586,5.713582 -0.03649,5.27742 -2.176388,6.88004 -10.146407,7.59887 -8.449588,0.76208 -10.186902,2.67464 -5.713959,6.29035 14.564428,11.77318 17.087759,16.29654 14.484352,25.96485 -3.362966,12.48911 -10.18421,17.16228 -24.805075,16.99375 -5.022505,-0.0579 -10.031828,-0.40176 -11.131828,-0.76416 z M 53.333335,85.84388 C 47.483108,83.634069 36.425358,77.701532 34.363866,75.666665 31.484329,72.82432 30.676084,72.792013 25.819077,75.325117 21.19711,77.73564 17.08967,77.889668 14.933334,75.733332 12.311795,73.111793 13.108928,66.036137 16.606431,60.882279 L 19.879529,56.0591 16.281843,48.362883 c -2.922112,-6.25102 -3.599328,-9.616441 -3.606431,-17.922132 -0.0075,-8.822542 0.409316,-10.670919 3.037531,-13.468526 1.675451,-1.783436 5.305655,-3.988274 8.06712,-4.89964 6.116619,-2.018666 19.943364,-1.244097 28.291693,1.584891 5.641756,1.911813 6.593718,1.87694 13.442093,-0.492439 6.844429,-2.368014 7.7277,-2.40065 12.378601,-0.45738 3.542026,1.479953 4.778828,2.690487 4.224575,4.134848 -0.431029,1.123244 -0.783689,3.147153 -0.783689,4.497577 0,1.350424 -1.480443,4.214723 -3.289872,6.365108 l -3.289873,3.909791 4.100826,6.466329 c 3.895999,6.143353 7.812252,17.788605 7.812252,23.230275 0,6.026244 -6.118555,15.687552 -13.009222,20.541795 -5.390585,3.797485 -15.552809,5.792768 -20.324112,3.9905 z"
       id="path825" />
  </g>
</svg>
