<?xml version="1.0" encoding="UTF-8" standalone="no"?>
<!-- Created with Inkscape (http://www.inkscape.org/) -->

<svg
   version="1.1"
   id="svg62"
   width="86.666664"
   height="157.33333"
   viewBox="0 0 86.666664 157.33333"
   sodipodi:docname="0164.svg"
   inkscape:version="1.1.2 (0a00cf5339, 2022-02-04)"
   xmlns:inkscape="http://www.inkscape.org/namespaces/inkscape"
   xmlns:sodipodi="http://sodipodi.sourceforge.net/DTD/sodipodi-0.dtd"
   xmlns="http://www.w3.org/2000/svg"
   xmlns:svg="http://www.w3.org/2000/svg">
  <defs
     id="defs66" />
  <sodipodi:namedview
     id="namedview64"
     pagecolor="#ffffff"
     bordercolor="#666666"
     borderopacity="1.0"
     inkscape:pageshadow="2"
     inkscape:pageopacity="0.0"
     inkscape:pagecheckerboard="0"
     showgrid="false"
     inkscape:zoom="5.548729"
     inkscape:cx="-5.586865"
     inkscape:cy="78.576553"
     inkscape:window-width="2560"
     inkscape:window-height="1299"
     inkscape:window-x="0"
     inkscape:window-y="32"
     inkscape:window-maximized="1"
     inkscape:current-layer="g68" />
  <g
     inkscape:groupmode="layer"
     inkscape:label="Image"
     id="g68">
    <path
       style="fill:#000000;stroke-width:1.33333"
       d="m 36.55327,149.14985 c -0.515592,-0.83424 -1.098552,-9.08424 -1.295466,-18.33333 -0.44002,-20.66789 0.707188,-23.53001 8.986304,-22.41955 2.920201,0.39168 5.664786,1.06748 6.099077,1.50177 0.434292,0.43429 0.933813,8.89281 1.110049,18.7967 0.257479,14.46958 -0.06895,18.39646 -1.661642,19.98916 -2.327568,2.32756 -11.879869,2.66328 -13.238322,0.46525 z M 7.8703748,42.53704 C 3.8028033,38.46947 5.2395749,32.066395 12.65516,21.213309 17.793199,13.693526 19.906777,11.807641 26.525186,8.8374755 41.468821,2.1311709 63.032361,5.5263921 71.704496,15.951046 c 8.720996,10.483388 12.528473,25.069957 7.277467,27.88021 -1.293253,0.692128 -17.18404,1.322452 -35.312859,1.400719 -31.940678,0.137899 -33.049359,0.05444 -35.7987292,-2.694935 z"
       id="path686" />
  </g>
</svg>
