<?xml version="1.0" encoding="UTF-8" standalone="no"?>
<!-- Created with Inkscape (http://www.inkscape.org/) -->

<svg
   version="1.1"
   id="svg72"
   width="57.333332"
   height="162.66667"
   viewBox="0 0 57.333332 162.66667"
   sodipodi:docname="0165.svg"
   inkscape:version="1.1.2 (0a00cf5339, 2022-02-04)"
   xmlns:inkscape="http://www.inkscape.org/namespaces/inkscape"
   xmlns:sodipodi="http://sodipodi.sourceforge.net/DTD/sodipodi-0.dtd"
   xmlns="http://www.w3.org/2000/svg"
   xmlns:svg="http://www.w3.org/2000/svg">
  <defs
     id="defs76" />
  <sodipodi:namedview
     id="namedview74"
     pagecolor="#ffffff"
     bordercolor="#666666"
     borderopacity="1.0"
     inkscape:pageshadow="2"
     inkscape:pageopacity="0.0"
     inkscape:pagecheckerboard="0"
     showgrid="false"
     inkscape:zoom="5.3668031"
     inkscape:cx="-21.987019"
     inkscape:cy="81.240171"
     inkscape:window-width="2560"
     inkscape:window-height="1299"
     inkscape:window-x="0"
     inkscape:window-y="32"
     inkscape:window-maximized="1"
     inkscape:current-layer="g78" />
  <g
     inkscape:groupmode="layer"
     inkscape:label="Image"
     id="g78">
    <path
       style="fill:#000000;stroke-width:1.33333"
       d="m 10.333333,153.22654 c -2.0331031,-1.18418 -2.3333332,-3.59208 -2.3333332,-18.71378 0,-9.5451 0.5786905,-18.43603 1.2859791,-19.75761 1.8218881,-3.40423 9.0765111,-4.59448 12.8667511,-2.11102 3.257103,2.13414 3.174287,0.72639 2.017431,34.29321 -0.155766,4.5196 -0.593182,5.0548 -5.170161,6.32589 -5.989143,1.66327 -5.74625,1.66429 -8.666667,-0.0367 z m 24.60348,-2.90103 c -0.78567,-0.94668 -1.225348,-6.30735 -1.01157,-12.33333 0.207974,-5.86237 0.459875,-14.34074 0.559779,-18.84085 0.181225,-8.16311 0.191647,-8.18349 4.514977,-8.8285 2.383333,-0.35557 5.626873,-0.15999 7.207867,0.43463 2.746812,1.0331 2.877849,1.89596 2.949133,19.41985 0.04608,11.32652 -0.478204,19.0048 -1.371127,20.08071 -1.84477,2.2228 -11.020305,2.27101 -12.849059,0.0675 z M 9.1106221,51.586814 C 6.1683959,48.644588 7.2744625,13.441647 10.385848,11 c 3.10781,-2.43884 8.868141,-2.0343071 11.435975,0.803119 1.965527,2.171881 2.12651,4.745092 1.334644,21.333334 -0.643074,13.471289 -1.365853,18.863548 -2.528474,18.863548 -0.895396,0 -3.404779,0.355357 -5.576407,0.789683 -2.608795,0.521758 -4.624445,0.113649 -5.9409639,-1.20287 z M 33.873317,49.175777 c -2.211871,-2.459393 -2.512407,-4.767013 -2.326504,-17.863708 0.257856,-18.165742 1.273144,-20.645402 8.453186,-20.645402 7.152567,0 8,2.148492 8,20.282336 0,11.53073 -0.493171,15.828414 -2.075605,18.087657 -2.680983,3.827638 -8.671588,3.896794 -12.051077,0.139117 z"
       id="path547" />
  </g>
</svg>
