<?xml version="1.0" encoding="UTF-8" standalone="no"?>
<!-- Created with Inkscape (http://www.inkscape.org/) -->

<svg
   version="1.1"
   id="svg82"
   width="160"
   height="150.66667"
   viewBox="0 0 160 150.66667"
   sodipodi:docname="0166.svg"
   inkscape:version="1.1.2 (0a00cf5339, 2022-02-04)"
   xmlns:inkscape="http://www.inkscape.org/namespaces/inkscape"
   xmlns:sodipodi="http://sodipodi.sourceforge.net/DTD/sodipodi-0.dtd"
   xmlns="http://www.w3.org/2000/svg"
   xmlns:svg="http://www.w3.org/2000/svg">
  <defs
     id="defs86" />
  <sodipodi:namedview
     id="namedview84"
     pagecolor="#ffffff"
     bordercolor="#666666"
     borderopacity="1.0"
     inkscape:pageshadow="2"
     inkscape:pageopacity="0.0"
     inkscape:pagecheckerboard="0"
     showgrid="false"
     inkscape:zoom="5.7942476"
     inkscape:cx="33.136313"
     inkscape:cy="75.247043"
     inkscape:window-width="2560"
     inkscape:window-height="1299"
     inkscape:window-x="0"
     inkscape:window-y="32"
     inkscape:window-maximized="1"
     inkscape:current-layer="g88" />
  <g
     inkscape:groupmode="layer"
     inkscape:label="Image"
     id="g88">
    <path
       style="fill:#000000;stroke-width:1.33333"
       d="M 47.333333,142.76147 C 33.805921,139.34271 23.565167,134.04772 13.159539,125.09187 4.2483873,117.42228 2.0724065,113.36323 5.6666667,111.11476 6.5833333,110.54132 31.033333,110.00393 60,109.92057 c 28.966667,-0.0834 53.56667,-0.27018 54.66667,-0.41515 1.1,-0.14496 7.99222,0.20701 15.31605,0.78217 l 13.31605,1.04575 5.23767,7.62751 c 4.05467,5.90472 5.37051,9.22925 5.82576,14.71905 0.70228,8.46854 -1.34251,10.92617 -9.09079,10.92617 -6.32208,0 -10.12344,-3.27304 -12.18303,-10.4898 -2.44116,-8.55373 -3.38969,-9.19284 -8.22284,-5.5405 -8.72687,6.59475 -26.604713,14.0461 -36.908479,15.38317 -14.755033,1.91466 -30.099246,1.46237 -40.623728,-1.19747 z m 97.999997,-11.17329 c 0,-2.62995 -3.47128,-6.85569 -4.39882,-5.35489 -1.28116,2.07297 0.5274,7.10005 2.55433,7.10005 1.01447,0 1.84449,-0.78533 1.84449,-1.74516 z M 5.267836,47.400001 C 2.9736952,45.107976 3.9404975,41.573873 7.6666667,38.63118 11.527235,35.582347 12.962345,35.560611 37.333333,38.181853 c 5.935616,0.638409 7.023972,0.463124 5.710223,-0.919666 -0.892711,-0.939624 -5.692711,-2.058008 -10.666667,-2.485297 -8.986864,-0.772019 -9.043556,-0.801964 -9.043556,-4.776889 v -4 l 10,-0.231146 c 13.861983,-0.320413 17.963075,0.477939 22.630684,4.405472 3.951852,3.325266 4.363898,3.382148 18.372582,2.536327 7.881537,-0.475873 26.030071,-1.280447 40.330071,-1.787939 l 26,-0.922714 0.0261,-8.888838 c 0.0203,-6.882375 0.60644,-9.530118 2.59711,-11.7297777 3.37446,-3.728754 8.78333,-3.1200684 10.94148,1.2312967 1.89846,3.827809 1.24128,31.781367 -0.79506,33.8177 -1.14649,1.146448 -63.718915,1.351426 -84.769663,0.277692 -4.901503,-0.25001 -10.323874,0.411431 -14,1.707771 C 47.83176,48.82609 7.4995091,49.629616 5.267836,47.400001 Z"
       id="path408" />
  </g>
</svg>
