<?xml version="1.0" encoding="UTF-8" standalone="no"?>
<!-- Created with Inkscape (http://www.inkscape.org/) -->

<svg
   version="1.1"
   id="svg92"
   width="166.66667"
   height="165.33333"
   viewBox="0 0 166.66667 165.33333"
   sodipodi:docname="0167.svg"
   inkscape:version="1.1.2 (0a00cf5339, 2022-02-04)"
   xmlns:inkscape="http://www.inkscape.org/namespaces/inkscape"
   xmlns:sodipodi="http://sodipodi.sourceforge.net/DTD/sodipodi-0.dtd"
   xmlns="http://www.w3.org/2000/svg"
   xmlns:svg="http://www.w3.org/2000/svg">
  <defs
     id="defs96" />
  <sodipodi:namedview
     id="namedview94"
     pagecolor="#ffffff"
     bordercolor="#666666"
     borderopacity="1.0"
     inkscape:pageshadow="2"
     inkscape:pageopacity="0.0"
     inkscape:pagecheckerboard="0"
     showgrid="false"
     inkscape:zoom="5.2802421"
     inkscape:cx="32.006108"
     inkscape:cy="82.571971"
     inkscape:window-width="2560"
     inkscape:window-height="1299"
     inkscape:window-x="0"
     inkscape:window-y="32"
     inkscape:window-maximized="1"
     inkscape:current-layer="g98" />
  <g
     inkscape:groupmode="layer"
     inkscape:label="Image"
     id="g98">
    <path
       style="fill:#000000;stroke-width:1.33333"
       d="M 21.597123,153.66666 C 20.957271,152.38333 19.349596,147.13333 18.024511,142 15.113422,130.72253 13.329043,127.00491 8.7933522,122.76758 1.8400532,116.27167 5.4577024,112 17.912346,112 c 6.833494,0 7.420988,-0.2404 7.420988,-3.03666 0,-1.67016 0.951883,-4.39566 2.115296,-6.05667 1.279875,-1.82727 1.999041,-5.235636 1.820939,-8.630005 -0.472471,-9.00456 -0.11896,-10.250581 3.357613,-11.834615 4.077448,-1.857809 7.372819,0.370674 7.372819,4.985846 0,1.705757 1.5,4.719903 3.333333,6.698103 2.692639,2.905404 3.333334,4.968834 3.333334,10.735361 V 112 h 7.224284 c 12.031387,0 13.950763,2.06565 8.730897,9.39627 -4.488317,6.30326 -8.891891,17.48866 -9.948689,25.27039 -0.547748,4.03334 -1.673287,7.77415 -2.501199,8.31292 -0.827911,0.53878 -7.334183,0.98878 -14.458382,1 -11.016891,0.0173 -13.126987,-0.32837 -14.116456,-2.31292 z M 152.24111,151.2188 c -4.73341,-3.31542 -14.90777,-20.15942 -14.90777,-24.68035 0,-1.49257 -0.59475,-3.82506 -1.32167,-5.18331 -0.72691,-1.35825 -1.37837,-13.08914 -1.44771,-26.068627 -0.14844,-27.792429 -1.3005,-31.887544 -11.2688,-40.055815 L 116.99294,50.066506 99.496471,49.682392 C 89.873412,49.47113 72.214949,49.156166 60.255441,48.982472 38.832545,48.671338 38.471477,48.617356 35.847109,45.333332 33.53491,42.439944 33.275714,40.636169 33.883266,31.666666 c 0.645237,-9.525884 0.500965,-10.333333 -1.846312,-10.333333 -1.400432,0 -2.917061,0.6 -3.370287,1.333333 C 27.38047,24.747777 16.92401,24.231602 13.630008,21.924394 9.2142487,18.831476 9.7165809,13.036494 14.768967,8.7851913 19.044532,5.1875403 26.401426,4.280285 35.897845,6.1795687 c 5.867,1.1734001 10.027873,9.2225713 8.844995,17.1105653 -0.460243,3.069124 -0.45147,6.584393 0.01949,7.811712 1.056048,2.752016 5.927557,2.848675 32.801189,0.650836 30.806491,-2.519484 49.019991,1.406239 59.556231,12.836702 9.4125,10.211364 10.85122,19.196767 9.72616,60.743946 -0.46512,17.17637 -0.32663,18.34371 3.02674,25.5116 1.9328,4.13137 4.89992,8.93137 6.5936,10.66667 4.051,4.15052 5.26767,7.73249 3.3935,9.99073 -1.97835,2.38375 -3.91338,2.31173 -7.61864,-0.28353 z m -67.574442,-1.73163 -6.666666,-0.82051 -0.94568,-12.2945 c -0.934519,-12.1494 -2.902189,-18.25953 -6.966405,-21.63253 -2.66768,-2.21398 -2.707722,-7.91882 -0.06271,-8.9338 1.113864,-0.42743 11.763864,0.0414 23.666667,1.04184 l 21.641466,1.81899 0.39653,3.40381 c 0.25336,2.17487 -0.97713,5.13232 -3.40814,8.19135 -2.50934,3.1576 -4.62423,8.35395 -6.21191,15.26287 C 104.78584,141.2861 103.2584,146.9 102.7155,148 c -1.1039,2.23668 -7.606051,2.77244 -18.048832,1.48717 z"
       id="path269" />
  </g>
</svg>
