<?xml version="1.0" encoding="UTF-8" standalone="no"?>
<!-- Created with Inkscape (http://www.inkscape.org/) -->

<svg
   version="1.1"
   id="svg102"
   width="161.33333"
   height="153.33333"
   viewBox="0 0 161.33333 153.33333"
   sodipodi:docname="0168.svg"
   inkscape:version="1.1.2 (0a00cf5339, 2022-02-04)"
   xmlns:inkscape="http://www.inkscape.org/namespaces/inkscape"
   xmlns:sodipodi="http://sodipodi.sourceforge.net/DTD/sodipodi-0.dtd"
   xmlns="http://www.w3.org/2000/svg"
   xmlns:svg="http://www.w3.org/2000/svg">
  <defs
     id="defs106" />
  <sodipodi:namedview
     id="namedview104"
     pagecolor="#ffffff"
     bordercolor="#666666"
     borderopacity="1.0"
     inkscape:pageshadow="2"
     inkscape:pageopacity="0.0"
     inkscape:pagecheckerboard="0"
     showgrid="false"
     inkscape:zoom="5.6934784"
     inkscape:cx="80.618554"
     inkscape:cy="76.578844"
     inkscape:window-width="2560"
     inkscape:window-height="1299"
     inkscape:window-x="0"
     inkscape:window-y="32"
     inkscape:window-maximized="1"
     inkscape:current-layer="g108" />
  <g
     inkscape:groupmode="layer"
     inkscape:label="Image"
     id="g108">
    <path
       style="fill:#000000;stroke-width:1.33333"
       d="m 25.333333,147.14333 c -1.1,-0.35537 -4.549117,-1.84965 -7.664704,-3.32063 C 7.8238166,139.17465 1.9368676,124.8124 8.2552854,120.8572 10.970963,119.15724 16,123.00097 16,126.77654 c 0,2.88325 5.848537,7.68755 10.549975,8.6663 1.897514,0.39502 4.491883,1.28198 5.765266,1.97102 3.241038,1.75376 7.767786,1.48334 11.684758,-0.69802 4.428217,-2.46608 1.73744,-3.49164 -8,-3.04911 -6.648573,0.30215 -7.372086,0.0609 -7.748358,-2.58247 -0.95476,-6.7076 13.364989,-10.31131 25.25715,-6.35622 5.845605,1.94413 12.498518,2.43879 36.288826,2.69818 l 29.130953,0.31762 -0.62711,-3.28052 c -0.61324,-3.20796 1.87773,-7.12999 4.52842,-7.12999 0.71834,0 3.33779,2.21774 5.82099,4.9283 4.29782,4.69133 5.01582,4.96381 14.93202,5.66667 L 154,128.66666 v 4 4 l -17.33334,0.73368 c -17.32354,0.73327 -19.08687,1.17012 -29.44211,7.29408 -5.56822,3.29298 -9.04932,1.91171 -7.937671,-3.1496 l 0.832581,-3.7907 -17.161004,-0.26695 c -16.116099,-0.25071 -17.564673,-0.0575 -23.790683,3.17264 -11.293581,5.85932 -26.655054,8.80296 -33.83444,6.48352 z M 106.47348,40.695704 C 106.12279,40.34501 92.740343,39.994542 76.73472,39.916888 60.729096,39.839235 46.816028,39.461974 45.816792,39.078531 40.677128,37.106258 46.764628,18.991169 54.990646,11.779119 62.517484,5.1800638 70.184467,2.6666666 82.787686,2.6666666 c 9.038777,0 11.351571,0.5378148 18.723214,4.3538779 9.42595,4.8795075 13.11874,9.4117935 16.54575,20.3071415 2.13304,6.7815 2.13889,7.508613 0.0857,10.642231 -1.62133,2.474469 -3.37032,3.363415 -6.61749,3.363415 -2.42754,0 -4.70064,-0.286932 -5.05134,-0.637628 z"
       id="path130" />
  </g>
</svg>
