<?xml version="1.0" encoding="UTF-8" standalone="no"?>
<!-- Created with Inkscape (http://www.inkscape.org/) -->

<svg
   version="1.1"
   id="svg2"
   width="73.333336"
   height="168"
   viewBox="0 0 73.333336 168"
   sodipodi:docname="0169.svg"
   inkscape:version="1.1.2 (0a00cf5339, 2022-02-04)"
   xmlns:inkscape="http://www.inkscape.org/namespaces/inkscape"
   xmlns:sodipodi="http://sodipodi.sourceforge.net/DTD/sodipodi-0.dtd"
   xmlns="http://www.w3.org/2000/svg"
   xmlns:svg="http://www.w3.org/2000/svg">
  <defs
     id="defs6" />
  <sodipodi:namedview
     id="namedview4"
     pagecolor="#ffffff"
     bordercolor="#666666"
     borderopacity="1.0"
     inkscape:pageshadow="2"
     inkscape:pageopacity="0.0"
     inkscape:pagecheckerboard="0"
     showgrid="false"
     inkscape:zoom="5.1964286"
     inkscape:cx="-15.587629"
     inkscape:cy="83.90378"
     inkscape:window-width="2560"
     inkscape:window-height="1299"
     inkscape:window-x="0"
     inkscape:window-y="32"
     inkscape:window-maximized="1"
     inkscape:current-layer="g8" />
  <g
     inkscape:groupmode="layer"
     inkscape:label="Image"
     id="g8">
    <path
       style="fill:#000000;stroke-width:1.33333"
       d="m 42.333335,154.55987 c -2.033103,-1.18418 -2.333334,-3.59208 -2.333334,-18.71378 0,-9.5451 0.578691,-18.43603 1.285979,-19.75761 1.821888,-3.40423 9.076512,-4.59448 12.866753,-2.11102 3.257102,2.13414 3.174286,0.72639 2.01743,34.29321 -0.155765,4.5196 -0.593181,5.0548 -5.170161,6.32589 -5.989143,1.66327 -5.74625,1.66429 -8.666667,-0.0367 z m -25.960825,-0.9681 c -1.184123,-0.75236 -1.523817,-6.06016 -1.246933,-19.48357 0.33931,-16.44987 0.66022,-18.65424 2.960824,-20.33831 2.630444,-1.92553 8.074913,-1.39499 10.550587,1.02811 1.652186,1.61711 2.052709,34.40753 0.45848,37.53533 -1.25051,2.45344 -9.550126,3.27436 -12.722958,1.25844 z m 7.294158,-99.899483 c -3.421179,-0.812996 -2.881262,-6.046031 1,-9.692287 4.188769,-3.935145 4.186034,-5.068513 -0.01477,-6.122849 -3.540273,-0.888551 -8.651895,-6.946154 -8.651895,-10.253052 0,-4.049323 3.249904,-5.055628 9.881645,-3.059767 6.922539,2.083377 7.077377,1.967992 7.733639,-5.7632 0.222728,-2.623884 1.400064,-5.150229 2.796142,-6 3.654284,-2.224308 6.168659,1.952535 5.258821,8.735879 -0.893795,6.66374 1.216846,8.440309 6.674488,5.618053 5.457833,-2.822355 9.574429,-1.926075 10.004751,2.178269 0.273268,2.606378 -0.59908,3.795751 -4,5.45367 -5.627024,2.743125 -6.131253,5.903165 -1.682818,10.54633 4.37401,4.565483 3.98923,8.510472 -0.885279,9.076394 -2.729062,0.316837 -4.349302,-0.665559 -7.146851,-4.333334 -3.990014,-5.231178 -7.56051,-6.035381 -10.225599,-2.303169 -2.515352,3.522517 -8.033135,6.562853 -10.742272,5.919063 z"
       id="path2244" />
  </g>
</svg>
