<?xml version="1.0" encoding="UTF-8" standalone="no"?>
<!-- Created with Inkscape (http://www.inkscape.org/) -->

<svg
   version="1.1"
   id="svg12"
   width="162.66667"
   height="158.66667"
   viewBox="0 0 162.66667 158.66667"
   sodipodi:docname="0170.svg"
   inkscape:version="1.1.2 (0a00cf5339, 2022-02-04)"
   xmlns:inkscape="http://www.inkscape.org/namespaces/inkscape"
   xmlns:sodipodi="http://sodipodi.sourceforge.net/DTD/sodipodi-0.dtd"
   xmlns="http://www.w3.org/2000/svg"
   xmlns:svg="http://www.w3.org/2000/svg">
  <defs
     id="defs16" />
  <sodipodi:namedview
     id="namedview14"
     pagecolor="#ffffff"
     bordercolor="#666666"
     borderopacity="1.0"
     inkscape:pageshadow="2"
     inkscape:pageopacity="0.0"
     inkscape:pagecheckerboard="0"
     showgrid="false"
     inkscape:zoom="5.5021007"
     inkscape:cx="31.987783"
     inkscape:cy="79.242461"
     inkscape:window-width="2560"
     inkscape:window-height="1299"
     inkscape:window-x="0"
     inkscape:window-y="32"
     inkscape:window-maximized="1"
     inkscape:current-layer="g18" />
  <g
     inkscape:groupmode="layer"
     inkscape:label="Image"
     id="g18">
    <path
       style="fill:#000000;stroke-width:1.33333"
       d="m 143.79626,147.73604 c -1.06408,-1.68814 -2.74958,-5.61937 -3.74555,-8.73604 -2.08992,-6.5399 -3.32167,-6.95311 -6.95559,-2.33333 -3.23429,4.11173 -6.95507,4.2692 -9.65903,0.40875 l -2.04846,-2.92459 -3.11308,2.92459 c -4.04932,3.80413 -9.348,3.77105 -12.08035,-0.0755 l -2.13106,-3 -3.08165,3.66667 c -3.898069,4.63806 -6.716264,4.64061 -10.090051,0.009 l -2.664315,-3.65751 -2.877001,3.65751 c -3.599193,4.57564 -7.594123,4.71064 -9.592727,0.32419 -1.792132,-3.93331 -4.261773,-4.27275 -6.681789,-0.91839 -3.286435,4.55528 -5.127755,4.70023 -9.282668,0.73071 L 55.80257,134 l -2.67916,3.66667 c -3.345054,4.578 -5.974933,4.62717 -10.59782,0.19817 l -3.620327,-3.46849 -2.272645,3.46849 c -2.863112,4.36967 -6.547551,4.41702 -10.515844,0.13516 -4.178815,-4.50901 -5.657646,-4.19874 -6.709422,1.40771 -1.189194,6.33895 -5.27628,10.44639 -8.616077,8.65899 -4.2902801,-2.2961 -4.6214697,-9.53383 -0.8286889,-18.10999 1.8539109,-4.19202 3.3707479,-8.36628 3.3707479,-9.27614 0,-3.22423 5.508425,-8.68057 8.76344,-8.68057 1.780108,0 3.238803,0.45 3.241544,1 0.0028,0.55 1.237607,3.02184 2.744147,5.49297 l 2.739161,4.49296 3.14242,-2.95215 c 3.715923,-3.49093 7.37122,-2.81366 11.219651,2.07883 l 2.586591,3.28832 2.872316,-4.0338 c 3.544597,-4.97793 6.998637,-5.13615 10.393253,-0.47609 l 2.591606,3.5577 3.093384,-3.5577 c 3.912201,-4.49943 7.004841,-4.50791 10.528047,-0.0289 2.600769,3.30634 2.928722,3.3904 5.201761,1.33333 3.115461,-2.81945 7.998718,-2.80544 11.134002,0.0319 2.319026,2.09869 2.687737,2.0105 6.378748,-1.52571 3.787655,-3.62881 4.029865,-3.6795 7.310355,-1.53004 1.8661,1.22272 3.39291,2.80929 3.39291,3.52572 0,2.12475 2.47839,1.49087 5.33333,-1.36407 3.40901,-3.40901 5.90546,-3.37223 9.17306,0.13512 l 2.61026,2.80179 3.55263,-5.36838 c 4.05739,-6.13112 6.25512,-7.38826 8.99208,-5.14362 2.89388,2.37333 13.32444,29.25841 12.79804,32.98737 -0.64785,4.58936 -6.65911,5.2275 -9.32981,0.99042 z M 62.439308,43.328196 C 62.069815,42.958704 58.219815,42.003158 53.883752,41.204762 49.547689,40.406368 42.517208,38.550649 38.260461,37.080945 l -7.73954,-2.67219 -5.231874,3.46229 c -9.140019,6.048577 -17.0572439,3.595927 -15.028016,-4.65548 1.166482,-4.743238 3.068057,-6.641844 9.348596,-9.333998 3.106068,-1.331416 7.314567,-4.168763 9.352219,-6.305213 6.419733,-6.731009 16.905518,-9.5763538 35.29117,-9.5763538 13.844592,0 17.850195,0.5377789 29.548022,3.9670188 13.617492,3.991995 22.350532,7.080637 32.198962,11.387905 2.93334,1.282911 9.74659,3.417131 15.14056,4.742711 5.39398,1.32558 10.94398,3.438888 12.33334,4.696239 3.05108,2.761188 3.2968,6.994075 0.46901,8.079202 -2.1598,0.828789 -14.14292,-2.434025 -21.73998,-5.919446 -4.26001,-1.954433 -4.80769,-1.877483 -12,1.686053 -4.14494,2.053675 -11.73626,4.549179 -16.86959,5.545566 -8.854285,1.718625 -39.462873,2.574105 -40.894032,1.142947 z M 105.4677,33.139878 c 6.90125,-2.324815 8.40719,-3.869643 5.56141,-5.705008 -1.29934,-0.838 -4.60338,-2.289223 -7.3423,-3.224939 -4.728107,-1.615297 -5.233633,-1.498761 -9.999996,2.305248 -2.76108,2.203604 -6.820146,4.935467 -9.020146,6.070806 -3.940684,2.033642 -3.849716,2.064376 6.13437,2.072468 5.573903,0.0045 12.173902,-0.678842 14.666662,-1.518575 z M 52.38505,30.932857 c -0.888222,-0.564471 -2.546274,-3.255283 -3.68456,-5.979583 -2.519337,-6.029624 -6.687705,-6.593218 -12.292804,-1.662075 -3.34966,2.946896 -3.462051,3.29634 -1.074352,3.340352 1.466667,0.02704 4.466667,1.202138 6.666667,2.611338 2.2,1.4092 5.8,2.596853 8,2.639229 2.355213,0.04537 3.335939,-0.344967 2.385049,-0.949261 z"
       id="path2105" />
  </g>
</svg>
