<?xml version="1.0" encoding="UTF-8" standalone="no"?>
<!-- Created with Inkscape (http://www.inkscape.org/) -->

<svg
   version="1.1"
   id="svg22"
   width="165.33333"
   height="162.66667"
   viewBox="0 0 165.33333 162.66667"
   sodipodi:docname="0171.svg"
   inkscape:version="1.1.2 (0a00cf5339, 2022-02-04)"
   xmlns:inkscape="http://www.inkscape.org/namespaces/inkscape"
   xmlns:sodipodi="http://sodipodi.sourceforge.net/DTD/sodipodi-0.dtd"
   xmlns="http://www.w3.org/2000/svg"
   xmlns:svg="http://www.w3.org/2000/svg">
  <defs
     id="defs26" />
  <sodipodi:namedview
     id="namedview24"
     pagecolor="#ffffff"
     bordercolor="#666666"
     borderopacity="1.0"
     inkscape:pageshadow="2"
     inkscape:pageopacity="0.0"
     inkscape:pagecheckerboard="0"
     showgrid="false"
     inkscape:zoom="5.3668031"
     inkscape:cx="32.048875"
     inkscape:cy="81.240171"
     inkscape:window-width="2560"
     inkscape:window-height="1299"
     inkscape:window-x="0"
     inkscape:window-y="32"
     inkscape:window-maximized="1"
     inkscape:current-layer="g28" />
  <g
     inkscape:groupmode="layer"
     inkscape:label="Image"
     id="g28">
    <path
       style="fill:#000000;stroke-width:1.33333"
       d="M 10.496593,155.13279 C 9.2639502,153.6505 8.5388197,148.31932 8.2749761,138.79946 7.7952981,121.49195 9.5967314,116.88141 18.615853,112.33334 c 7.183336,-3.62235 10.999256,-3.72182 18.151961,-0.4732 8.067014,3.66389 9.898852,8.58257 9.898852,26.57946 0,15.91292 -1.146231,18.89374 -7.265312,18.89374 -5.01102,0 -5.852003,-2.5128 -5.620013,-16.79222 0.157813,-9.71373 -0.290547,-14.07322 -1.611268,-15.66666 -2.451834,-2.95812 -4.865518,-2.78098 -8.003607,0.58736 -2.32576,2.49641 -2.524364,4.13129 -1.858229,15.29665 0.832392,13.95208 -0.165816,16.57487 -6.308237,16.57487 -2.020415,0 -4.496948,-0.99026 -5.503407,-2.20055 z m 63.133414,0.12493 c -2.779144,-1.94658 -2.963342,-3.05908 -2.963342,-17.89769 0,-15.12351 0.154187,-16.00533 3.492155,-19.97228 1.920685,-2.28261 5.190889,-5.02864 7.26712,-6.1023 4.887917,-2.52764 13.657714,-2.49445 18.6177,0.0705 6.27244,3.2436 7.90403,8.07939 8.32959,24.68762 0.4435,17.30861 -0.71725,20.35669 -7.50132,19.69806 L 96.666665,155.33334 96.650011,142 c -0.01783,-14.26848 -1.762002,-20.67951 -5.617012,-20.64625 -6.404461,0.0553 -8.804294,6.92174 -7.561959,21.63655 1.155112,13.68168 -2.074364,17.70742 -9.841033,12.26744 z m 65.589923,-2.10788 c -0.51559,-0.83424 -1.09855,-9.08424 -1.29547,-18.33333 -0.44001,-20.66789 0.70719,-23.53001 8.98631,-22.41955 2.9202,0.39168 5.66479,1.06748 6.09908,1.50177 0.43429,0.43429 0.93381,8.89281 1.11005,18.7967 0.25748,14.46959 -0.0689,18.39647 -1.66164,19.98916 -2.32757,2.32756 -11.87988,2.66328 -13.23833,0.46525 z M 31.743773,55.799574 c -1.69241,-0.476901 -5.846192,-0.926901 -9.230628,-1 C 14.891121,54.63495 9.9296235,51.038962 8.0795028,44.338377 6.4122647,38.300138 9.2103763,32.722677 15.853234,28.843038 c 5.313667,-3.103348 34.715604,-5.391399 42.315461,-3.292976 2.535188,0.699999 10.134354,1.095771 16.887035,0.879493 6.75268,-0.216277 22.346432,-0.251405 34.65278,-0.07805 24.45322,0.344443 25.41539,0.68794 22.79508,8.137855 l -1.23478,3.510644 H 78.252828 c -45.682654,0 -53.188334,0.276646 -54.26198,2 -1.917622,3.078053 4.994775,3.606421 52.675817,4.026416 46.507805,0.409661 58.610465,-0.29226 62.278735,-3.611998 3.71777,-3.364534 3.0013,-9.13838 -1.6903,-13.621934 -6.0293,-5.761925 -14.67374,-7.38507 -32.47953,-6.098602 -17.608748,1.272232 -31.376267,1.681765 -66.052283,1.964813 -28.255452,0.230638 -29.7538878,-0.153792 -28.390901,-7.283798 0.866698,-4.533837 3.835131,-5.24881 23.000947,-5.5399711 9.166666,-0.1392574 19.066666,-0.3066596 21.999999,-0.372005 2.933333,-0.065345 22.433333,0.045491 43.333333,0.2463028 37.385175,0.3592053 38.107375,0.4184433 44.636225,3.6612773 8.61715,4.280066 11.89171,9.804049 11.63333,19.624672 -0.3566,13.553194 -6.64645,19.307562 -23.9087,21.873234 -10.07743,1.497797 -94.464241,2.289249 -99.283747,0.931166 z"
       id="path1966" />
  </g>
</svg>
