<?xml version="1.0" encoding="UTF-8" standalone="no"?>
<!-- Created with Inkscape (http://www.inkscape.org/) -->

<svg
   version="1.1"
   id="svg32"
   width="78.666664"
   height="161.33333"
   viewBox="0 0 78.666664 161.33333"
   sodipodi:docname="0172.svg"
   inkscape:version="1.1.2 (0a00cf5339, 2022-02-04)"
   xmlns:inkscape="http://www.inkscape.org/namespaces/inkscape"
   xmlns:sodipodi="http://sodipodi.sourceforge.net/DTD/sodipodi-0.dtd"
   xmlns="http://www.w3.org/2000/svg"
   xmlns:svg="http://www.w3.org/2000/svg">
  <defs
     id="defs36" />
  <sodipodi:namedview
     id="namedview34"
     pagecolor="#ffffff"
     bordercolor="#666666"
     borderopacity="1.0"
     inkscape:pageshadow="2"
     inkscape:pageopacity="0.0"
     inkscape:pagecheckerboard="0"
     showgrid="false"
     inkscape:zoom="5.4111572"
     inkscape:cx="-10.903398"
     inkscape:cy="80.574262"
     inkscape:window-width="2560"
     inkscape:window-height="1299"
     inkscape:window-x="0"
     inkscape:window-y="32"
     inkscape:window-maximized="1"
     inkscape:current-layer="g38" />
  <g
     inkscape:groupmode="layer"
     inkscape:label="Image"
     id="g38">
    <path
       style="fill:#000000;stroke-width:1.33333"
       d="M 35.578285,153.01065 C 33.362787,151.39064 33.1893,148.56061 33.347898,116.627 33.442484,97.58215 33.558691,74.177154 33.606136,64.6159 33.723523,40.96131 33.890526,41.337248 22.405349,39.40285 18.317863,38.714414 17.229671,39.035669 16.025103,41.286426 14.575637,43.994778 7.5577845,45.187215 6.1807502,42.959126 4.5323861,40.292017 3.8996959,19.727426 5.4100151,17.907604 7.8578932,14.95809 12.862392,15.64735 15.761786,19.333333 c 3.023097,3.843245 8.747328,4.428943 13.149622,1.345456 2.365036,-1.656536 2.715568,-2.901359 2.103015,-7.468289 -0.814292,-6.0709988 0.608884,-7.8220606 6.385576,-7.8567497 4.597393,-0.027607 6.6,2.2988255 6.6,7.6672377 0,7.864864 1.838302,9.645678 9.957061,9.645678 5.962595,0 7.337983,-0.44555 8.021291,-2.598464 1.054184,-3.321441 5.147093,-4.630073 8.637949,-2.761822 2.440683,1.306213 2.717031,2.740566 2.717031,14.10245 0,12.349082 -0.08257,12.685962 -3.490005,14.238492 -3.110039,1.417029 -3.809712,1.21847 -6.42654,-1.823774 -3.922549,-4.560234 -8.719504,-5.590706 -14.595793,-3.135436 l -4.791756,2.002123 -0.347952,55.654882 c -0.341186,54.572483 -0.400004,55.662343 -3.024296,56.038533 -1.471988,0.21101 -3.757404,-0.40684 -5.078704,-1.373 z"
       id="path1827" />
  </g>
</svg>
