<?xml version="1.0" encoding="UTF-8" standalone="no"?>
<!-- Created with Inkscape (http://www.inkscape.org/) -->

<svg
   version="1.1"
   id="svg42"
   width="164"
   height="162.66667"
   viewBox="0 0 164 162.66667"
   sodipodi:docname="0173.svg"
   inkscape:version="1.1.2 (0a00cf5339, 2022-02-04)"
   xmlns:inkscape="http://www.inkscape.org/namespaces/inkscape"
   xmlns:sodipodi="http://sodipodi.sourceforge.net/DTD/sodipodi-0.dtd"
   xmlns="http://www.w3.org/2000/svg"
   xmlns:svg="http://www.w3.org/2000/svg">
  <defs
     id="defs46" />
  <sodipodi:namedview
     id="namedview44"
     pagecolor="#ffffff"
     bordercolor="#666666"
     borderopacity="1.0"
     inkscape:pageshadow="2"
     inkscape:pageopacity="0.0"
     inkscape:pagecheckerboard="0"
     showgrid="false"
     inkscape:zoom="5.3668031"
     inkscape:cx="31.489883"
     inkscape:cy="81.240171"
     inkscape:window-width="2560"
     inkscape:window-height="1299"
     inkscape:window-x="0"
     inkscape:window-y="32"
     inkscape:window-maximized="1"
     inkscape:current-layer="g48" />
  <g
     inkscape:groupmode="layer"
     inkscape:label="Image"
     id="g48">
    <path
       style="fill:#000000;stroke-width:1.33333"
       d="m 15.668044,151.66804 c -2.806289,-2.80628 -2.781651,-1.71814 -0.42176,-18.62767 1.052121,-7.53887 2.245115,-23.00703 2.651096,-34.373701 C 18.30336,87.300002 19.035792,70.037941 19.525005,60.306535 20.373061,43.437037 20.281899,42.471938 17.567421,39.582509 16.001537,37.915702 14.025164,34.477761 13.175482,31.942642 12.3258,29.407522 10.467836,26.045823 9.0466729,24.472198 7.4290169,22.680999 6.6255224,20.187962 6.8980371,17.805531 7.3048916,14.24865 7.7253669,14 13.333333,14 c 6.945216,0 9.333334,-1.177692 9.333334,-4.6027041 0,-6.0486008 8.150548,-4.0419121 10.457062,2.5745591 1.48387,4.256632 3.917524,4.991864 8.465918,2.557637 3.300357,-1.766297 9.07702,0.348731 9.07702,3.323399 0,1.050532 -1.744008,3.377545 -3.875575,5.17114 -2.131565,1.793595 -5.201472,5.896931 -6.822015,9.118526 -1.620544,3.221594 -3.700538,6.757444 -4.62221,7.857444 -2.609295,3.114147 -3.743126,11.593352 -1.721112,12.871111 2.389848,1.510201 42.194473,1.831789 43.111317,0.348304 0.412529,-0.667486 0.997472,-4.364916 1.299875,-8.216512 1.555662,-19.813933 3.777441,-25.409332 12.3954,-31.216973 8.42898,-5.6802891 25.763753,-5.7333648 37.689983,-0.1154 4.78979,2.256283 7.20624,4.522309 9.78571,9.176573 1.88391,3.399242 3.42529,7.713831 3.42529,9.587978 0,3.999055 2.04427,5.583087 6.66587,5.165163 7.59436,-0.686744 7.36597,-2.586178 6.97237,57.984702 -0.19897,30.619553 -0.8716,56.181753 -1.49474,56.804893 -0.62315,0.62315 -8.30808,1.44978 -17.07764,1.83694 -20.5176,0.90584 -21.14021,0.46065 -19.78776,-14.14939 1.09634,-11.84348 0.9798,-89.853884 -0.13859,-92.768361 -1.07092,-2.790776 3.06978,-8.642362 6.11551,-8.642362 3.77468,0 6.74498,-1.415548 6.74498,-3.214429 0,-0.877685 -2.04661,-3.579448 -4.54803,-6.003916 -4.491,-4.352856 -4.68154,-4.40206 -15.19745,-3.924507 -18.390195,0.835143 -19.304661,3.14607 -19.120361,48.31864 l 0.12992,31.842455 5.251475,4.49507 c 6.025996,5.15802 8.012246,12.16075 5.558286,19.59631 -2.404438,7.28553 -6.957249,10.57839 -15.619126,11.2967 -13.017651,1.07952 -20.454711,-5.57688 -20.454711,-18.3076 0,-3.8024 0.991102,-5.86956 4.39681,-9.1705 2.418245,-2.34385 5.054052,-4.26155 5.857348,-4.26155 2.06453,0 3.079176,-3.29519 3.079176,-10.000005 0,-10.390603 0.886598,-10 -22.698207,-10 -12.625005,0 -21.257828,0.525872 -21.524016,1.311143 -0.444448,1.311153 1.112876,50.470722 1.838083,58.022192 l 0.38414,4 -9.331956,0.66804 c -7.705363,0.5516 -9.738903,0.26111 -11.666667,-1.66667 z M 78.118393,74.002983 c 1.704508,-6.791304 0.539883,-7.335104 -15.743213,-7.35099 -8.273016,-0.0081 -17.224303,-0.375614 -19.891748,-0.816765 -3.844952,-0.635889 -5.433564,-0.218428 -7.666667,2.014675 -3.367573,3.367573 -3.489869,4.619852 -0.721526,7.388193 1.723468,1.723468 5.740836,2.095239 22.641264,2.095239 h 20.546025 z"
       id="path1688" />
  </g>
</svg>
