<?xml version="1.0" encoding="UTF-8" standalone="no"?>
<!-- Created with Inkscape (http://www.inkscape.org/) -->

<svg
   version="1.1"
   id="svg52"
   width="158.66667"
   height="161.33333"
   viewBox="0 0 158.66667 161.33333"
   sodipodi:docname="0174.svg"
   inkscape:version="1.1.2 (0a00cf5339, 2022-02-04)"
   xmlns:inkscape="http://www.inkscape.org/namespaces/inkscape"
   xmlns:sodipodi="http://sodipodi.sourceforge.net/DTD/sodipodi-0.dtd"
   xmlns="http://www.w3.org/2000/svg"
   xmlns:svg="http://www.w3.org/2000/svg">
  <defs
     id="defs56" />
  <sodipodi:namedview
     id="namedview54"
     pagecolor="#ffffff"
     bordercolor="#666666"
     borderopacity="1.0"
     inkscape:pageshadow="2"
     inkscape:pageopacity="0.0"
     inkscape:pagecheckerboard="0"
     showgrid="false"
     inkscape:zoom="5.4111572"
     inkscape:cx="29.19893"
     inkscape:cy="80.574262"
     inkscape:window-width="2560"
     inkscape:window-height="1299"
     inkscape:window-x="0"
     inkscape:window-y="32"
     inkscape:window-maximized="1"
     inkscape:current-layer="g58" />
  <g
     inkscape:groupmode="layer"
     inkscape:label="Image"
     id="g58">
    <path
       style="fill:#000000;stroke-width:1.33333"
       d="m 50.666668,153.27016 c -15.466855,-1.58983 -39.593542,-7.49975 -43.3524049,-10.61932 -4.79003,-3.97538 -0.2109663,-9.80917 10.4018889,-13.25217 21.894655,-7.10301 75.502169,-9.95443 98.950518,-5.26325 16.65265,3.33161 33.21757,8.22204 36.18135,10.68175 2.01958,1.67611 2.33608,4.97033 0.72177,7.51256 -1.06549,1.67795 -13.35765,5.37791 -29.87031,8.99103 -10.40617,2.27696 -57.592744,3.53646 -73.032812,1.9494 z m 65.650422,-12.40498 c 10.29806,-1.7184 14.91905,-3.53185 8.9998,-3.53185 -1.72016,0 -4.97016,-0.5648 -7.22222,-1.25511 -7.33577,-2.24857 -39.561099,-3.84826 -54.554421,-2.70812 -19.90582,1.51371 -33.721828,4.04919 -30.843035,5.66024 8.262164,4.62374 60.091187,5.761 83.619876,1.83484 z M 86.936128,75.207453 c -3.860161,-2.822016 -0.89695,-7.92085 6.788443,-11.680964 9.442249,-4.619661 11.779989,-7.374369 18.268129,-21.52649 6.17124,-13.46089 10.8647,-19.036266 20.8374,-24.752814 6.81118,-3.9043 13.15336,-4.295751 17.29685,-1.067593 1.72149,1.3412 0.93973,57.105948 -0.82689,58.9844 -1.66502,1.770401 -59.946138,1.811017 -62.363932,0.04347 z M 20,68.463907 C 14.186314,66.548593 11.552779,64.212664 9.0210369,58.725636 5.8480008,51.848736 5.12554,37.463511 7.7918516,34.250803 8.6857032,33.173778 12.687963,30.876746 16.685763,29.146287 22.378224,26.68229 23.959425,25.35037 23.977246,23.004324 23.998753,20.17242 23.529554,20.026634 15.394688,20.337657 8.1200287,20.615792 6.4771824,20.254316 4.7704258,18 1.9114074,14.223756 2.1971063,11.14677 5.6300084,8.7422718 8.018605,7.0692337 12.819748,6.6666665 30.384331,6.6666665 c 23.013245,0 26.962296,0.8378908 26.928586,5.7135785 -0.03649,5.27742 -2.176388,6.88004 -10.146407,7.598869 -8.449588,0.762082 -10.186901,2.674648 -5.713958,6.290359 C 56.01698,38.04265 58.540311,42.566008 55.936904,52.234323 52.573937,64.723428 45.752693,69.396604 31.131829,69.228069 26.109323,69.170175 21.1,68.826301 20,68.463907 Z"
       id="path1549" />
  </g>
</svg>
