<?xml version="1.0" encoding="UTF-8" standalone="no"?>
<!-- Created with Inkscape (http://www.inkscape.org/) -->

<svg
   version="1.1"
   id="svg62"
   width="120"
   height="117.33333"
   viewBox="0 0 120 117.33333"
   sodipodi:docname="0175.svg"
   inkscape:version="1.1.2 (0a00cf5339, 2022-02-04)"
   xmlns:inkscape="http://www.inkscape.org/namespaces/inkscape"
   xmlns:sodipodi="http://sodipodi.sourceforge.net/DTD/sodipodi-0.dtd"
   xmlns="http://www.w3.org/2000/svg"
   xmlns:svg="http://www.w3.org/2000/svg">
  <defs
     id="defs66" />
  <sodipodi:namedview
     id="namedview64"
     pagecolor="#ffffff"
     bordercolor="#666666"
     borderopacity="1.0"
     inkscape:pageshadow="2"
     inkscape:pageopacity="0.0"
     inkscape:pagecheckerboard="0"
     showgrid="false"
     inkscape:zoom="7.4403412"
     inkscape:cx="23.520427"
     inkscape:cy="58.599463"
     inkscape:window-width="2560"
     inkscape:window-height="1299"
     inkscape:window-x="0"
     inkscape:window-y="32"
     inkscape:window-maximized="1"
     inkscape:current-layer="g68" />
  <g
     inkscape:groupmode="layer"
     inkscape:label="Image"
     id="g68">
    <path
       style="fill:#000000;stroke-width:1.33333"
       d="m 50,106.83079 c -4.4,-0.50325 -10.7,-2.15551 -14,-3.6717 -6.120957,-2.81227 -22.666667,-15.988111 -22.666667,-18.050138 0,-0.625909 -1.336539,-3.981382 -2.970087,-7.456606 C 7.8682144,72.344395 7.4264689,69.273378 7.6014205,58.452116 7.7890349,46.847625 8.2597248,44.596417 12.348908,35.745918 17.514536,24.565593 25.274723,16.900494 37.333333,11.067635 43.711659,7.9823815 46.403045,7.5082523 58,7.4268842 c 12.379777,-0.08686 13.988584,0.2167729 22.495535,4.2456328 9.033734,4.278343 19.172182,13.048262 24.008555,20.767786 3.09604,4.941705 6.16666,16.910022 6.14675,23.958082 -0.0371,13.147246 -6.39436,27.869877 -15.960039,36.96173 C 82.230867,105.20286 69.449683,109.05536 50,106.83079 Z M 70.963647,93.80076 c 13.45721,-1.480961 6.788785,-3.134096 -12.642336,-3.134096 -12.836844,0 -18.419848,0.434796 -17.492366,1.362279 2.005598,2.005597 12.468543,3.884676 17.837722,3.203542 2.566666,-0.325606 8.100308,-0.969884 12.29698,-1.431725 z M 89.646249,76.76392 c 2.579959,-3.767786 0.11428,-4.106147 -32.238914,-4.424102 -33.518626,-0.329409 -36.90462,0.11288 -33.379716,4.360124 1.277909,1.539788 7.393456,1.98692 31.114786,2.274928 30.433627,0.369502 32.842602,0.215138 34.503844,-2.21095 z M 96,58.078688 C 96,57.021966 95.309663,55.730725 94.465916,55.209261 93.622169,54.687797 77.201779,54.044985 57.97616,53.780789 28.451073,53.37506 22.768029,53.604628 21.395457,55.258476 17.815176,59.572452 21.183048,59.999998 58.745356,59.999998 90.293571,59.999998 96,59.705704 96,58.078688 Z M 90.666667,38.666666 c -1.256254,-2.347332 -2.791764,-2.666667 -12.822576,-2.666667 -6.267482,0 -19.767807,-0.321421 -30.000724,-0.714269 -15.250595,-0.585482 -18.957334,-0.362242 -20.557668,1.238094 -4.490911,4.490911 -2.409023,4.809508 31.42788,4.809508 32.967074,0 33.36258,-0.03301 31.953088,-2.666666 z m -18,-16.127853 c 1.486489,-0.577752 -5.299531,-1.064818 -15.333334,-1.100548 -12.175172,-0.04336 -17.352797,0.357553 -16,1.238896 2.31708,1.50957 27.37813,1.398917 31.333334,-0.138348 z"
       id="path1410" />
  </g>
</svg>
