<?xml version="1.0" encoding="UTF-8" standalone="no"?>
<!-- Created with Inkscape (http://www.inkscape.org/) -->

<svg
   version="1.1"
   id="svg72"
   width="158.66667"
   height="164"
   viewBox="0 0 158.66667 164"
   sodipodi:docname="0176.svg"
   inkscape:version="1.1.2 (0a00cf5339, 2022-02-04)"
   xmlns:inkscape="http://www.inkscape.org/namespaces/inkscape"
   xmlns:sodipodi="http://sodipodi.sourceforge.net/DTD/sodipodi-0.dtd"
   xmlns="http://www.w3.org/2000/svg"
   xmlns:svg="http://www.w3.org/2000/svg">
  <defs
     id="defs76" />
  <sodipodi:namedview
     id="namedview74"
     pagecolor="#ffffff"
     bordercolor="#666666"
     borderopacity="1.0"
     inkscape:pageshadow="2"
     inkscape:pageopacity="0.0"
     inkscape:pagecheckerboard="0"
     showgrid="false"
     inkscape:zoom="5.3231707"
     inkscape:cx="28.366552"
     inkscape:cy="81.906071"
     inkscape:window-width="2560"
     inkscape:window-height="1299"
     inkscape:window-x="0"
     inkscape:window-y="32"
     inkscape:window-maximized="1"
     inkscape:current-layer="g78" />
  <g
     inkscape:groupmode="layer"
     inkscape:label="Image"
     id="g78">
    <path
       style="fill:#000000;stroke-width:1.33333"
       d="m 34.573094,154.49183 c -1.541607,-2.88052 -0.346803,-6.18468 2.550081,-7.05211 1.215587,-0.36399 8.510159,-1.91604 16.210159,-3.449 18.52275,-3.68763 22.557417,-5.24521 24.794921,-9.57207 2.326753,-4.49944 2.49308,-27.96181 0.391624,-55.243193 -1.159191,-15.048749 -1.123791,-19.644502 0.163259,-21.195302 2.333322,-2.811482 19.003547,-2.767532 21.347102,0.05628 1.90793,2.298914 0.89551,28.753276 -1.407749,36.784269 -2.089992,7.287376 -1.561358,34.086186 0.870054,44.106976 2.513665,10.3598 1.743875,15.38961 -2.51285,16.41881 -1.63883,0.39626 -16.073953,0.88324 -32.078048,1.08222 -26.403193,0.32825 -29.2123,0.14885 -30.328553,-1.93688 z M 143.31399,148.36667 C 131.57653,135.55455 127.908,122.42139 127.38263,91.333333 126.9297,64.531316 126.36663,61.503773 120.85815,56.251948 112.83211,48.599875 107.01314,47.575429 69.955211,47.290345 41.601257,47.072221 35.922862,46.695257 32.230738,44.785985 25.906913,41.515809 24.529825,37.574029 26.639257,28.780929 28.639749,20.441943 27.806163,16.572365 24.322095,18.024463 18.434448,20.478328 10.735414,21.463949 8.171891,20.091993 4.0724328,17.898029 3.3154109,13.554901 6.3267933,9.5064364 11.143034,3.0315436 28.917861,4.3277495 34.614022,11.569245 c 2.278389,2.896502 2.608435,4.625631 1.900931,9.959064 -1.41029,10.631276 -2.473983,10.338036 36.579867,10.084364 40.28065,-0.261642 44.77776,0.61644 55.92248,10.91914 9.38065,8.671919 11.50926,16.341698 10.95365,39.468187 -0.80215,33.38816 -0.39123,39.64856 3.11653,47.4799 1.77048,3.95273 4.80008,8.64135 6.73246,10.41918 5.36582,4.93671 4.52438,13.43425 -1.3303,13.43425 -0.34408,0 -2.67312,-2.235 -5.17565,-4.96666 z"
       id="path1271" />
  </g>
</svg>
