<?xml version="1.0" encoding="UTF-8" standalone="no"?>
<!-- Created with Inkscape (http://www.inkscape.org/) -->

<svg
   version="1.1"
   id="svg82"
   width="164"
   height="154.66667"
   viewBox="0 0 164 154.66667"
   sodipodi:docname="0177.svg"
   inkscape:version="1.1.2 (0a00cf5339, 2022-02-04)"
   xmlns:inkscape="http://www.inkscape.org/namespaces/inkscape"
   xmlns:sodipodi="http://sodipodi.sourceforge.net/DTD/sodipodi-0.dtd"
   xmlns="http://www.w3.org/2000/svg"
   xmlns:svg="http://www.w3.org/2000/svg">
  <defs
     id="defs86" />
  <sodipodi:namedview
     id="namedview84"
     pagecolor="#ffffff"
     bordercolor="#666666"
     borderopacity="1.0"
     inkscape:pageshadow="2"
     inkscape:pageopacity="0.0"
     inkscape:pagecheckerboard="0"
     showgrid="false"
     inkscape:zoom="5.6443964"
     inkscape:cx="33.838871"
     inkscape:cy="77.244752"
     inkscape:window-width="2560"
     inkscape:window-height="1299"
     inkscape:window-x="0"
     inkscape:window-y="32"
     inkscape:window-maximized="1"
     inkscape:current-layer="g88" />
  <g
     inkscape:groupmode="layer"
     inkscape:label="Image"
     id="g88">
    <path
       style="fill:#000000;stroke-width:1.33333"
       d="m 138.66667,146.6741 c -2.9698,-0.71659 -3.3499,-1.52427 -3.48519,-7.40587 -0.2686,-11.67623 -2.08226,-25.92221 -3.40419,-26.7392 -2.0971,-1.29608 2.88811,-5.73667 8.03598,-7.15806 3.73068,-1.03009 5.43604,-0.85909 7.9663,0.79881 l 3.21948,2.10949 -0.89364,18.08602 c -0.49149,9.94733 -1.15741,18.51285 -1.47982,19.0345 -0.91248,1.47643 -6.27663,2.1628 -9.95892,1.27431 z m -26.37895,-1.13472 c -2.53797,-1.61038 -2.10033,-33.12494 0.51668,-37.20604 2.18222,-3.40308 8.61336,-4.11142 11.01835,-1.21358 0.94666,1.14065 1.4117,8.15319 1.28644,19.3989 -0.17138,15.38793 -0.49536,17.77258 -2.56502,18.88024 -2.88611,1.5446 -7.93456,1.61374 -10.25645,0.14048 z m -26.68424,-1.88054 c -0.785669,-0.94668 -1.225348,-6.30734 -1.011569,-12.33333 0.207973,-5.86236 0.459874,-14.34074 0.559778,-18.84084 0.181226,-8.16312 0.191647,-8.18349 4.514978,-8.8285 2.383333,-0.35558 5.626873,-0.15999 7.207866,0.43463 2.746812,1.03309 2.87785,1.89596 2.949134,19.41984 0.04608,11.32652 -0.478204,19.0048 -1.371127,20.08071 -1.844771,2.2228 -11.020305,2.27101 -12.84906,0.0675 z m -32.936813,-2.63586 c -10.207743,-3.47067 -14.950419,-5.76912 -18.408144,-8.92118 -2.863174,-2.61006 -5.329599,-3.46812 -10.506712,-3.65523 -9.863179,-0.35648 -13.031645,-1.46559 -14.3894926,-5.037 -1.8396753,-4.83871 0.7215006,-11.87266 6.2937376,-17.28496 5.981444,-5.80977 9.324321,-6.170212 10.429905,-1.12461 1.139331,5.19962 1.281062,5.46199 7.742707,14.33334 6.211175,8.52746 11.592767,11.91185 8.641473,5.43446 -0.860666,-1.88895 -2.068538,-3.43446 -2.684161,-3.43446 -0.615623,0 -1.119313,-1.4775 -1.119313,-3.28332 0,-6.27798 -5.543892,-18.257321 -10.817951,-23.375621 -2.850127,-2.765954 -5.182049,-5.630214 -5.182049,-6.365022 0,-3.974238 13.065776,-7.500917 22.261249,-6.008697 5.051557,0.819755 6.923319,3.490249 4.819381,6.875943 -0.737122,1.186192 -2.136736,5.27351 -3.11025,9.08293 -1.451434,5.679547 -1.461546,7.959457 -0.05617,12.666667 0.942616,3.15725 2.097536,6.04045 2.56649,6.40712 C 49.616317,117.7 51.0403,120.25 52.311768,123 c 2.318039,5.01358 5.779092,7.04554 4.542156,2.66667 -0.83268,-2.94777 -2.339652,-12.56186 -2.954636,-18.84982 -0.259107,-2.64927 -0.861351,-6.77234 -1.338317,-9.162393 -1.162191,-5.823623 1.135764,-8.321122 7.656278,-8.321122 5.477235,0 13.116084,4.39026 13.116084,7.538182 0,0.936846 -2.1,5.523843 -4.666666,10.193313 C 66.1,111.73431 64,117.17424 64,119.15356 c 0,5.06421 3.043933,11.61504 7.161495,15.41219 1.927845,1.77784 3.505172,4.32784 3.505172,5.66667 0,2.13037 -1.123531,2.41654 -9,2.29241 -4.95,-0.078 -10.8,-0.75385 -13,-1.50185 z M 8.1544237,45.129521 C 6.1444399,44.38598 5.3333333,42.940889 5.3333333,40.103384 c 0,-3.524101 0.5579883,-4.087227 4.8472597,-4.891899 2.665993,-0.500144 10.915992,-0.624298 18.333334,-0.275896 7.41734,0.348401 14.986073,0.232129 16.819406,-0.25838 3.328202,-0.890464 3.327176,-0.893128 -0.666666,-1.730746 -2.2,-0.4614 -7.497644,-1.238194 -11.772543,-1.726212 -8.234828,-0.940077 -10.037772,-2.591968 -7.665976,-7.023709 1.225263,-2.289424 2.062035,-2.498238 5.760535,-1.437522 2.379876,0.682539 7.760129,1.240981 11.95612,1.240981 6.630345,0 8.24542,0.541158 12.337212,4.1338 l 4.708138,4.133801 39.671591,-2.364201 C 121.48112,28.60309 140.08333,26.969413 141,26.273007 c 1.02505,-0.778748 1.66667,-4.521683 1.66667,-9.722688 0,-9.6803847 2.27741,-12.3128401 8.57937,-9.9168435 3.41848,1.2997087 3.42063,1.3108824 3.42063,17.8575385 0,13.792609 -0.34838,16.690702 -2.08655,17.357703 -1.14761,0.440376 -22.0895,0.437049 -46.53755,-0.0073 C 68.136415,41.152225 60.640071,41.335506 55.129125,43.086126 47.971284,45.359902 12.901152,46.88545 8.1544237,45.129521 Z"
       id="path1132" />
  </g>
</svg>
