<?xml version="1.0" encoding="UTF-8" standalone="no"?>
<!-- Created with Inkscape (http://www.inkscape.org/) -->

<svg
   version="1.1"
   id="svg92"
   width="138.66667"
   height="49.333332"
   viewBox="0 0 138.66667 49.333332"
   sodipodi:docname="0178.svg"
   inkscape:version="1.1.2 (0a00cf5339, 2022-02-04)"
   xmlns:inkscape="http://www.inkscape.org/namespaces/inkscape"
   xmlns:sodipodi="http://sodipodi.sourceforge.net/DTD/sodipodi-0.dtd"
   xmlns="http://www.w3.org/2000/svg"
   xmlns:svg="http://www.w3.org/2000/svg">
  <defs
     id="defs96" />
  <sodipodi:namedview
     id="namedview94"
     pagecolor="#ffffff"
     bordercolor="#666666"
     borderopacity="1.0"
     inkscape:pageshadow="2"
     inkscape:pageopacity="0.0"
     inkscape:pagecheckerboard="0"
     showgrid="false"
     inkscape:zoom="9.245192"
     inkscape:cx="39.912638"
     inkscape:cy="24.661467"
     inkscape:window-width="2560"
     inkscape:window-height="1299"
     inkscape:window-x="0"
     inkscape:window-y="32"
     inkscape:window-maximized="1"
     inkscape:current-layer="g98" />
  <g
     inkscape:groupmode="layer"
     inkscape:label="Image"
     id="g98">
    <path
       style="fill:#000000;stroke-width:1.33333"
       d="M 44.729812,41.683756 C 43.845588,39.379504 53.240684,29.955383 57.856437,28.516578 61.578001,27.356505 62.750123,25.313959 61.275471,22.558546 59.366505,18.99161 53.757896,18.35213 45.538904,20.764299 35.22642,23.790882 17.633255,22.677897 11.962829,18.640198 7.7981358,15.674674 5.4727503,9.9939163 7.5664712,7.9001954 8.3281095,7.1385571 11.32873,8.2632036 15.365732,10.823395 c 5.923258,3.756418 7.279341,4.086051 13.943951,3.389462 4.060422,-0.424399 10.002262,-1.695909 13.204087,-2.825579 6.725006,-2.3727197 19.573142,-2.7373664 20.898358,-0.593122 0.561866,0.909118 2.731698,1.12139 5.745356,0.56206 11.693683,-2.170325 23.851196,-2.1800181 32.165196,-0.02564 8.63853,2.238468 20.25558,1.787866 23.60393,-0.915552 2.3306,-1.8816908 7.64745,-0.7583153 8.11844,1.715311 0.22594,1.186604 -1.67034,3.713753 -4.28059,5.704682 -4.27441,3.260254 -5.83203,3.595775 -17.72533,3.818154 -7.81223,0.146072 -15.878808,-0.513318 -20.123052,-1.644924 -5.122275,-1.36571 -7.706821,-1.49648 -9.333333,-0.47224 -4.025478,2.534902 -3.037682,5.052601 3.705713,9.445131 7.3134,4.763823 11.872786,11.452816 9.039988,13.262408 -0.913977,0.583849 -12.271152,1.156484 -25.238164,1.272521 -20.079543,0.179686 -23.692684,-0.09208 -24.36047,-1.832306 z"
       id="path993" />
  </g>
</svg>
