<?xml version="1.0" encoding="UTF-8" standalone="no"?>
<!-- Created with Inkscape (http://www.inkscape.org/) -->

<svg
   version="1.1"
   id="svg2"
   width="92"
   height="158.66667"
   viewBox="0 0 92 158.66667"
   sodipodi:docname="0180.svg"
   inkscape:version="1.1.2 (0a00cf5339, 2022-02-04)"
   xmlns:inkscape="http://www.inkscape.org/namespaces/inkscape"
   xmlns:sodipodi="http://sodipodi.sourceforge.net/DTD/sodipodi-0.dtd"
   xmlns="http://www.w3.org/2000/svg"
   xmlns:svg="http://www.w3.org/2000/svg">
  <defs
     id="defs6" />
  <sodipodi:namedview
     id="namedview4"
     pagecolor="#ffffff"
     bordercolor="#666666"
     borderopacity="1.0"
     inkscape:pageshadow="2"
     inkscape:pageopacity="0.0"
     inkscape:pagecheckerboard="0"
     showgrid="false"
     inkscape:zoom="5.5021007"
     inkscape:cx="45.982438"
     inkscape:cy="79.242461"
     inkscape:window-width="2560"
     inkscape:window-height="1299"
     inkscape:window-x="0"
     inkscape:window-y="32"
     inkscape:window-maximized="1"
     inkscape:current-layer="g8" />
  <g
     inkscape:groupmode="layer"
     inkscape:label="Image"
     id="g8">
    <path
       style="fill:#000000;stroke-width:1.33333"
       d="M 39.777289,151.58682 C 36.835063,148.64459 37.941129,113.44165 41.052515,111 c 3.10781,-2.43884 8.868141,-2.0343 11.435976,0.80312 1.965526,2.17188 2.126509,4.74509 1.334644,21.33333 C 53.18006,146.60775 52.457281,152 51.29466,152 c -0.895396,0 -3.404779,0.35536 -5.576407,0.78968 -2.608794,0.52176 -4.624445,0.1136 -5.940964,-1.20286 z m 9.852719,-96.329091 c -2.779144,-1.946588 -2.963341,-3.059087 -2.963341,-17.8977 0,-15.123515 0.154186,-16.005334 3.492154,-19.972285 1.920686,-2.282604 5.19089,-5.028639 7.26712,-6.1023 4.887918,-2.5276399 13.657715,-2.4944506 18.617703,0.07046 6.272435,3.243601 7.904027,8.079393 8.329585,24.687615 0.443506,17.308616 -0.717246,20.356693 -7.501314,19.698075 l -4.205248,-0.408259 -0.01665,-13.333333 c -0.01783,-14.268486 -1.762002,-20.679511 -5.617012,-20.64625 -6.404461,0.05525 -8.804294,6.921742 -7.56196,21.636538 1.155112,13.68169 -2.074364,17.707427 -9.841033,12.26744 z M 10.963342,53.924396 C 8.1841975,51.977808 8,50.865309 8,36.026695 8,20.90318 8.154186,20.021362 11.492155,16.054411 c 1.920685,-2.282604 5.190889,-5.028639 7.26712,-6.1023003 4.887917,-2.52764 13.657714,-2.4944507 18.617702,0.070458 6.545947,3.385042 7.956356,7.949335 7.956356,25.747958 0,17.477767 -0.796797,19.437626 -7.586037,18.659151 L 34,54.000001 33.983347,40.666668 c -0.01783,-14.268486 -1.762003,-20.679512 -5.617012,-20.64625 -6.404462,0.05525 -8.804295,6.921741 -7.56196,21.636538 1.155112,13.681689 -2.074364,17.707427 -9.841033,12.26744 z"
       id="path30" />
  </g>
</svg>
