<?xml version="1.0" encoding="UTF-8" standalone="no"?>
<!-- Created with Inkscape (http://www.inkscape.org/) -->

<svg
   version="1.1"
   id="svg122"
   width="90.666664"
   height="150.66667"
   viewBox="0 0 90.666664 150.66667"
   sodipodi:docname="0181.svg"
   inkscape:version="1.1.2 (0a00cf5339, 2022-02-04)"
   xmlns:inkscape="http://www.inkscape.org/namespaces/inkscape"
   xmlns:sodipodi="http://sodipodi.sourceforge.net/DTD/sodipodi-0.dtd"
   xmlns="http://www.w3.org/2000/svg"
   xmlns:svg="http://www.w3.org/2000/svg">
  <defs
     id="defs126" />
  <sodipodi:namedview
     id="namedview124"
     pagecolor="#ffffff"
     bordercolor="#666666"
     borderopacity="1.0"
     inkscape:pageshadow="2"
     inkscape:pageopacity="0.0"
     inkscape:pagecheckerboard="0"
     showgrid="false"
     inkscape:zoom="5.7942476"
     inkscape:cx="-1.5532647"
     inkscape:cy="75.247043"
     inkscape:window-width="2560"
     inkscape:window-height="1299"
     inkscape:window-x="0"
     inkscape:window-y="32"
     inkscape:window-maximized="1"
     inkscape:current-layer="g128" />
  <g
     inkscape:groupmode="layer"
     inkscape:label="Image"
     id="g128">
    <path
       style="fill:#000000;stroke-width:1.33333"
       d="M 14.898814,141.50503 C 13.528056,140.63598 13.214728,135.76912 13.503885,119.8378 13.875448,99.366204 13.260252,95.231094 10.027606,96.471577 7.2799855,97.525938 5.3333332,94.501338 5.3333332,89.177878 c 0,-3.692228 0.8275686,-5.578613 3.2464245,-7.4 3.1449553,-2.368138 3.2714483,-3.132166 4.0470553,-24.444543 0.651858,-17.91199 1.280943,-22.991034 3.385475,-27.333334 4.079898,-8.41809 10.044483,-14.752807 16.948591,-18.000335 5.432671,-2.5553982 7.816516,-2.8884835 16.164313,-2.2585757 5.385524,0.4063807 10.785524,1.5648657 12,2.5744097 1.214477,1.009545 3.874978,2.546362 5.912226,3.41515 2.037248,0.868786 4.031047,2.634804 4.430664,3.924481 0.399617,1.289679 1.216525,3.280642 1.815352,4.424363 2.424408,4.630467 4.040654,17.609172 4.473204,35.920507 0.442148,18.717647 0.556014,19.383291 3.575541,20.90205 1.715367,0.862795 3.563013,2.362795 4.105882,3.333334 1.688652,3.018968 -0.21194,8.718758 -3.390126,10.166837 -2.957187,1.347384 -3.039492,1.917573 -3.230624,22.380978 -0.12224,13.08756 -0.75138,21.6674 -1.669981,22.77426 -1.945316,2.34396 -11.067987,2.28133 -13.035595,-0.0895 -1.050425,-1.26571 -1.471458,-8.38302 -1.309664,-22.13913 0.18882,-16.05376 -0.147373,-20.518082 -1.615142,-21.447555 -1.019479,-0.645591 -5.828597,-1.18299 -10.68693,-1.194219 -4.858334,-0.0112 -10.558334,-0.357673 -12.666667,-0.769875 -2.355608,-0.460546 -4.856696,0.0087 -6.488017,1.21709 -2.494117,1.847602 -2.628491,3.275124 -2.221628,23.601729 0.339236,16.94801 0.04777,21.87941 -1.345316,22.76249 -2.292848,1.45344 -10.590698,1.45763 -12.879557,0.007 z M 61.999998,79.907026 c 2.340044,-1.776708 1.32988,-37.414604 -1.252166,-44.175599 -2.655834,-6.954198 -5.035878,-8.662281 -13.631493,-9.782886 -8.733099,-1.13853 -14.682588,2.786634 -18.317267,12.084779 -3.259503,8.338382 -3.973823,37.46249 -1.006706,41.045243 1.394957,1.684392 4.794718,2.248201 15.333333,2.542849 13.665378,0.382068 16.445747,0.12952 18.874299,-1.714386 z"
       id="path597" />
  </g>
</svg>
