<?xml version="1.0" encoding="UTF-8" standalone="no"?>
<!-- Created with Inkscape (http://www.inkscape.org/) -->

<svg
   version="1.1"
   id="svg132"
   width="162.66667"
   height="161.33333"
   viewBox="0 0 162.66667 161.33333"
   sodipodi:docname="0182.svg"
   inkscape:version="1.1.2 (0a00cf5339, 2022-02-04)"
   xmlns:inkscape="http://www.inkscape.org/namespaces/inkscape"
   xmlns:sodipodi="http://sodipodi.sourceforge.net/DTD/sodipodi-0.dtd"
   xmlns="http://www.w3.org/2000/svg"
   xmlns:svg="http://www.w3.org/2000/svg">
  <defs
     id="defs136" />
  <sodipodi:namedview
     id="namedview134"
     pagecolor="#ffffff"
     bordercolor="#666666"
     borderopacity="1.0"
     inkscape:pageshadow="2"
     inkscape:pageopacity="0.0"
     inkscape:pagecheckerboard="0"
     showgrid="false"
     inkscape:zoom="5.4111572"
     inkscape:cx="31.231767"
     inkscape:cy="80.574262"
     inkscape:window-width="2560"
     inkscape:window-height="1299"
     inkscape:window-x="0"
     inkscape:window-y="32"
     inkscape:window-maximized="1"
     inkscape:current-layer="g138" />
  <g
     inkscape:groupmode="layer"
     inkscape:label="Image"
     id="g138">
    <path
       style="fill:#000000;stroke-width:1.33333"
       d="m 63.721933,153.53274 c -13.305463,-1.55385 -13.37846,-4.60718 -0.439893,-18.3998 9.812663,-10.46036 9.865347,-9.82487 -1.770675,-21.35843 C 48.564782,100.94193 49.171176,98.071473 65.487149,94.954522 84.988892,91.228973 96.488961,93.399618 107.2,102.82785 c 7.28171,6.40962 9.39998,12.69642 8.4228,24.99795 -1.35873,17.10474 -12.25044,25.82174 -32.886704,26.32033 -6.271518,0.15152 -14.827892,-0.12453 -19.014163,-0.61339 z M 90.936129,75.207453 c -3.860162,-2.822016 -0.896951,-7.92085 6.788442,-11.680964 9.442249,-4.619661 11.779989,-7.374369 18.268129,-21.52649 6.17124,-13.46089 10.8647,-19.036266 20.8374,-24.752814 6.81118,-3.9043 13.15336,-4.295751 17.29685,-1.067593 1.72149,1.3412 0.93973,57.105948 -0.82689,58.9844 -1.66502,1.770401 -59.946138,1.811017 -62.363931,0.04347 z M 24,68.463907 C 18.186314,66.548593 15.552779,64.212664 13.021037,58.725636 9.8480009,51.848736 9.1255401,37.463511 11.791852,34.250803 c 0.893851,-1.077025 4.896111,-3.374057 8.893911,-5.104516 5.644748,-2.443344 7.273811,-3.805502 7.291483,-6.096851 0.02125,-2.755122 -0.558012,-2.946108 -8.744903,-2.883274 C 10.073938,20.236453 6.8088444,18.387788 6.7090713,13.075605 6.6097524,7.7876022 11.450209,6.6666665 34.384331,6.6666665 c 23.013245,0 26.962296,0.8378908 26.928586,5.7135785 -0.03649,5.27742 -2.176388,6.88004 -10.146407,7.598869 -8.449588,0.762082 -10.186901,2.674648 -5.713958,6.290359 C 60.01698,38.04265 62.540311,42.566008 59.936904,52.234323 56.573937,64.723428 49.752693,69.396604 35.131829,69.228069 30.109323,69.170175 25.100001,68.826301 24,68.463907 Z"
       id="path476" />
  </g>
</svg>
