<?xml version="1.0" encoding="UTF-8" standalone="no"?>
<!-- Created with Inkscape (http://www.inkscape.org/) -->

<svg
   version="1.1"
   id="svg142"
   width="160"
   height="158.66667"
   viewBox="0 0 160 158.66667"
   sodipodi:docname="0183.svg"
   inkscape:version="1.1.2 (0a00cf5339, 2022-02-04)"
   xmlns:inkscape="http://www.inkscape.org/namespaces/inkscape"
   xmlns:sodipodi="http://sodipodi.sourceforge.net/DTD/sodipodi-0.dtd"
   xmlns="http://www.w3.org/2000/svg"
   xmlns:svg="http://www.w3.org/2000/svg">
  <defs
     id="defs146" />
  <sodipodi:namedview
     id="namedview144"
     pagecolor="#ffffff"
     bordercolor="#666666"
     borderopacity="1.0"
     inkscape:pageshadow="2"
     inkscape:pageopacity="0.0"
     inkscape:pagecheckerboard="0"
     showgrid="false"
     inkscape:zoom="5.5021007"
     inkscape:cx="30.715541"
     inkscape:cy="79.242461"
     inkscape:window-width="2560"
     inkscape:window-height="1299"
     inkscape:window-x="0"
     inkscape:window-y="32"
     inkscape:window-maximized="1"
     inkscape:current-layer="g148" />
  <g
     inkscape:groupmode="layer"
     inkscape:label="Image"
     id="g148">
    <path
       style="fill:#000000;stroke-width:1.33333"
       d="m 137.61536,146.04215 c -1.98844,-3.27683 -4.4578,-5.97683 -5.48746,-6 -1.02965,-0.0232 -3.95435,2.39049 -6.49932,5.36373 -5.69893,6.65792 -10.82621,6.95342 -12.48085,0.71932 -0.89665,-3.37826 -0.40467,-4.44616 3.83914,-8.33333 2.67717,-2.4522 5.35033,-4.45853 5.94035,-4.45853 2.61155,0 0.59838,-3.72338 -5.1914,-9.60155 -5.67846,-5.76515 -6.14373,-6.70447 -4.97593,-10.0458 0.99382,-2.84355 2.27334,-3.78149 5.59838,-4.10386 3.45801,-0.33527 4.56453,0.19193 5.59701,2.66666 1.74434,4.18099 4.16535,7.02488 7.48515,8.79259 2.99253,1.59345 5.48264,-0.17755 11.4086,-8.11395 3.84972,-5.15576 8.33361,-4.4843 8.89662,1.33227 0.44496,4.59688 -2.47613,10.18632 -7.40558,14.17041 -4.14904,3.35334 -3.77803,5.51256 1.65993,9.66029 5.94761,4.53647 6.54648,10.59423 1.24653,12.60927 -5.22901,1.98807 -5.75192,1.7352 -9.63117,-4.65752 z M 11.021361,145.03212 c -2.6468946,-3.30998 3.165386,-11.85707 11.308326,-16.62915 6.667473,-3.9074 14.293218,-4.43176 21.252932,-1.4614 5.805526,2.47776 12.654104,11.30379 12.147245,15.65463 L 55.333333,146 33.856581,146.36546 c -16.159245,0.27496 -21.813099,-0.0552 -22.83522,-1.33334 z M 48.666667,96.094806 C 35.139255,92.676047 24.8985,87.381053 14.492872,78.425203 5.5817207,70.755609 3.4057399,66.696563 7,64.448093 7.9166667,63.874652 32.366667,63.337264 61.333333,63.253899 90.3,63.170539 114.9,62.983719 116,62.838753 c 1.1,-0.144964 7.99222,0.207012 15.31605,0.782172 l 13.31606,1.045743 5.23766,7.627514 c 4.05467,5.904718 5.37051,9.229248 5.82576,14.719049 0.70228,8.46855 -1.3425,10.926164 -9.09078,10.926164 -6.32208,0 -10.12344,-3.273028 -12.18304,-10.489796 -2.44115,-8.553728 -3.38968,-9.192841 -8.22284,-5.540501 -8.72686,6.59476 -26.60471,14.046107 -36.908475,15.383165 -14.755034,1.914675 -30.099247,1.462376 -40.623728,-1.197457 z M 146.66667,84.921508 c 0,-2.629942 -3.47128,-6.855682 -4.39883,-5.354882 -1.28116,2.072962 0.5274,7.100042 2.55433,7.100042 1.01447,0 1.8445,-0.785322 1.8445,-1.74516 z M 13.117476,42.572369 C 9.1445829,40.349026 8.9435277,32.957457 12.629253,24.623378 14.483164,20.431355 16,16.257092 16,15.347238 c 0,-3.224235 5.508425,-8.6805712 8.76344,-8.6805712 1.780108,0 3.238803,0.45 3.241544,1 0.0028,0.55 1.237607,3.0218342 2.744147,5.4929642 l 2.739161,4.492964 3.14242,-2.952151 c 3.715923,-3.490928 7.37122,-2.813657 11.219651,2.07883 l 2.58659,3.288317 2.872316,-4.033796 c 3.544598,-4.977927 6.998638,-5.136149 10.393254,-0.476092 l 2.591605,3.557704 3.093384,-3.557704 c 3.912201,-4.499427 7.004841,-4.50791 10.528047,-0.02888 2.600769,3.306343 2.928722,3.390405 5.201761,1.333333 3.115461,-2.819453 7.998717,-2.80544 11.134001,0.03195 2.319027,2.098691 2.687738,2.0105 6.378749,-1.525713 3.78766,-3.628802 4.02986,-3.679495 7.31036,-1.530032 1.8661,1.222714 3.3929,2.809285 3.3929,3.525713 0,2.124755 2.47839,1.490873 5.33334,-1.364071 3.409,-3.409005 5.90545,-3.372231 9.17305,0.135126 l 2.61027,2.801793 3.55262,-5.368385 c 6.719,-10.1530857 8.80636,-8.7978815 16.72312,10.857385 6.10144,15.148274 6.16911,18.430614 0.39787,19.299442 -3.32927,0.501203 -6.17967,-2.898511 -8.43343,-10.058694 -2.05828,-6.53912 -3.29301,-6.954953 -6.92838,-2.333333 -3.2343,4.11174 -6.95508,4.269193 -9.65904,0.408747 l -2.04846,-2.924587 -3.11308,2.924587 c -4.04932,3.804134 -9.34799,3.771057 -12.08034,-0.07541 l -2.13106,-3 -3.08166,3.666667 c -3.898065,4.638061 -6.716259,4.640617 -10.090046,0.0092 l -2.664315,-3.657515 -2.877001,3.657515 c -3.599193,4.575632 -7.594123,4.710639 -9.592727,0.324181 -1.792132,-3.933302 -4.261773,-4.272746 -6.681789,-0.91839 -3.286435,4.555286 -5.127755,4.70023 -9.282668,0.730709 l -3.990368,-3.812367 -2.67916,3.666667 c -3.345055,4.578003 -5.974933,4.62718 -10.59782,0.198173 l -3.620327,-3.468494 -2.272645,3.468494 c -2.863112,4.369663 -6.547551,4.417019 -10.515844,0.13516 -1.699076,-1.833333 -3.645983,-3.333333 -4.326461,-3.333333 -0.680478,0 -1.952399,2.673925 -2.82649,5.942055 -1.717036,6.419804 -5.02057,9.251449 -8.513013,7.29698 z"
       id="path337" />
  </g>
</svg>
