<?xml version="1.0" encoding="UTF-8" standalone="no"?>
<!-- Created with Inkscape (http://www.inkscape.org/) -->

<svg
   version="1.1"
   id="svg152"
   width="161.33333"
   height="160"
   viewBox="0 0 161.33333 160"
   sodipodi:docname="0184.svg"
   inkscape:version="1.1.2 (0a00cf5339, 2022-02-04)"
   xmlns:inkscape="http://www.inkscape.org/namespaces/inkscape"
   xmlns:sodipodi="http://sodipodi.sourceforge.net/DTD/sodipodi-0.dtd"
   xmlns="http://www.w3.org/2000/svg"
   xmlns:svg="http://www.w3.org/2000/svg">
  <defs
     id="defs156" />
  <sodipodi:namedview
     id="namedview154"
     pagecolor="#ffffff"
     bordercolor="#666666"
     borderopacity="1.0"
     inkscape:pageshadow="2"
     inkscape:pageopacity="0.0"
     inkscape:pagecheckerboard="0"
     showgrid="false"
     inkscape:zoom="5.45625"
     inkscape:cx="80.641466"
     inkscape:cy="79.908362"
     inkscape:window-width="2560"
     inkscape:window-height="1299"
     inkscape:window-x="0"
     inkscape:window-y="32"
     inkscape:window-maximized="1"
     inkscape:current-layer="g158" />
  <g
     inkscape:groupmode="layer"
     inkscape:label="Image"
     id="g158">
    <path
       style="fill:#000000;stroke-width:1.33333"
       d="m 136.58817,151.44292 c -2.26591,-1.65503 -2.69323,-4.18688 -3.43183,-20.33334 -0.93247,-20.38434 -0.47314,-21.77625 7.18615,-21.77625 8.67929,0 8.99084,0.76512 8.99084,22.07992 v 19.31942 l -3.42013,1.30033 c -4.59776,1.74807 -6.26862,1.64233 -9.32503,-0.59008 z M 9.7058425,148.25844 C 8.5217204,147.50608 8.182025,142.19828 8.4589094,128.77486 8.7982204,112.325 9.1191289,110.12063 11.419733,108.43655 c 2.630444,-1.92553 8.074913,-1.39498 10.550587,1.02812 1.652186,1.6171 2.052709,34.40753 0.45848,37.53533 -1.25051,2.45344 -9.550125,3.27436 -12.7229575,1.25844 z m 63.9152065,-0.0524 C 71.083084,146.59567 71.520725,115.08111 74.137728,111 c 2.18222,-3.40308 8.613361,-4.11141 11.018356,-1.21357 0.946654,1.14065 1.411693,8.15318 1.286441,19.39889 -0.171385,15.38793 -0.49536,17.77259 -2.565023,18.88024 -2.886114,1.5446 -7.934558,1.61375 -10.256453,0.14048 z M 6.6385188,35.947405 C 5.089553,33.053136 4.9666852,27.974365 6.3914091,25.733056 c 0.7096697,-1.11642 6.8514589,-1.629969 20.3129159,-1.698477 10.612621,-0.05401 21.373047,-0.111254 23.912059,-0.127214 2.539012,-0.01596 4.872131,-0.284764 5.184707,-0.597341 0.312577,-0.312576 -0.370663,-2.507112 -1.518311,-4.876745 -1.458728,-3.011944 -1.700804,-5.029351 -0.804461,-6.704183 1.776996,-3.3203472 4.357004,-2.9948423 8.0484,1.015421 5.463281,5.935206 8.487472,6.369502 12.991323,1.865648 3.515768,-3.515766 4.367911,-3.79466 7.717068,-2.525686 2.070688,0.784571 5.09602,2.673389 6.72296,4.197372 l 2.958072,2.77088 5.468259,-4.940244 c 8.461479,-7.6444341 16.030169,-4.3882179 9.397999,4.043221 -1.51034,1.920085 -2.49369,3.899424 -2.18522,4.398531 0.30846,0.499108 10.17935,0.69627 21.93531,0.438141 24.43009,-0.536427 26.80084,0.08064 26.80084,6.975843 0,2.497585 -0.73029,4.992408 -1.62285,5.544048 -0.89258,0.55164 -22.64258,1.177142 -48.33334,1.390006 -25.690762,0.212864 -57.673141,0.633819 -71.071955,0.935458 -22.5574705,0.50782 -24.458132,0.367837 -25.6666662,-1.89033 z"
       id="path198" />
  </g>
</svg>
