<?xml version="1.0" encoding="UTF-8" standalone="no"?>
<!-- Created with Inkscape (http://www.inkscape.org/) -->

<svg
   version="1.1"
   id="svg2"
   width="212"
   height="164"
   viewBox="0 0 212 164"
   sodipodi:docname="0185.svg"
   inkscape:version="1.1.2 (0a00cf5339, 2022-02-04)"
   xmlns:inkscape="http://www.inkscape.org/namespaces/inkscape"
   xmlns:sodipodi="http://sodipodi.sourceforge.net/DTD/sodipodi-0.dtd"
   xmlns="http://www.w3.org/2000/svg"
   xmlns:svg="http://www.w3.org/2000/svg">
  <defs
     id="defs6" />
  <sodipodi:namedview
     id="namedview4"
     pagecolor="#ffffff"
     bordercolor="#666666"
     borderopacity="1.0"
     inkscape:pageshadow="2"
     inkscape:pageopacity="0.0"
     inkscape:pagecheckerboard="0"
     showgrid="false"
     inkscape:zoom="5.3231707"
     inkscape:cx="55.042383"
     inkscape:cy="81.906071"
     inkscape:window-width="2560"
     inkscape:window-height="1299"
     inkscape:window-x="0"
     inkscape:window-y="32"
     inkscape:window-maximized="1"
     inkscape:current-layer="g8" />
  <g
     inkscape:groupmode="layer"
     inkscape:label="Image"
     id="g8">
    <path
       style="fill:#000000;stroke-width:1.33333"
       d="M 191.89685,149.38729 C 180.8918,138.49168 177.37011,125.37378 177.34916,95.198964 177.33983,81.77078 176.71067,70.534831 175.81859,67.865631 173.68508,61.481989 168.77565,56.66206 160.99973,53.316953 154.96392,50.720415 151.37735,50.387341 124.15649,49.895448 90.621577,49.289455 83.336463,48.649887 79.115864,45.941279 c -4.036936,-2.590739 -5.186515,-8.94832 -2.45436,-13.57349 1.748443,-2.959878 1.8978,-4.476577 0.740563,-7.520338 -1.203188,-3.164628 -1.955486,-3.643431 -4.425828,-2.816842 -6.472128,2.165607 -16.414723,2.252546 -18.15244,0.158724 C 49.464764,15.732091 58.104853,6.6666667 69.618167,6.6666667 76.594073,6.6666667 80.169163,7.999 85,12.399036 c 2.546336,2.319261 3,4.09682 3,11.754693 0,4.962224 0.485341,9.322183 1.078537,9.688799 0.593196,0.366615 13.249203,0.02305 28.124463,-0.763481 31.89645,-1.686526 48.06173,-0.185666 55.24429,5.129136 2.32066,1.717189 5.76919,4.126301 7.66342,5.353582 1.89421,1.22728 5.19421,5.877954 7.33333,10.334827 3.53863,7.37278 3.93055,9.606124 4.3468,24.770075 0.27215,9.914346 -0.18403,19.367594 -1.12597,23.333333 -2.958,12.45361 2.86022,32.69508 11.42785,39.75724 5.01508,4.13385 6.33532,10.61488 2.46489,12.10011 -4.45153,1.70821 -7.51172,0.62777 -12.66076,-4.47006 z M 45.073065,131.41076 C 21.141607,130.27243 10.187809,129.26244 8.7397323,128.06064 5.8131372,125.63178 5.9856872,115.67478 9,113.04189 c 4.222376,-3.68809 11.728477,-5.11841 27.137051,-5.17108 19.296098,-0.066 20.854246,-0.47118 23.175726,-6.02727 2.191544,-5.245103 5.591604,-5.781401 15.275682,-2.409467 5.066869,1.764257 8.017045,1.840507 20.434965,0.528226 16.542806,-1.74819 17.665896,-1.570599 31.178096,4.930111 8.74485,4.20714 10.69239,4.66589 16.524,3.8923 10.17291,-1.34948 11.94115,0.20969 11.94115,10.52928 0,10.93462 -1.41226,11.89575 -12.51666,8.51846 -10.44332,-3.17623 -13.80927,-3.12858 -22.43398,0.3176 -4.92321,1.96716 -10.66868,2.93055 -19.04936,3.19415 -6.600003,0.20759 -14.100003,0.67416 -16.66667,1.03682 -2.566667,0.36265 -20.083787,-0.074 -38.926935,-0.97026 z"
       id="path1212" />
  </g>
</svg>
