<?xml version="1.0" encoding="UTF-8" standalone="no"?>
<!-- Created with Inkscape (http://www.inkscape.org/) -->

<svg
   version="1.1"
   id="svg12"
   width="157.33333"
   height="162.66667"
   viewBox="0 0 157.33333 162.66667"
   sodipodi:docname="0186.svg"
   inkscape:version="1.1.2 (0a00cf5339, 2022-02-04)"
   xmlns:inkscape="http://www.inkscape.org/namespaces/inkscape"
   xmlns:sodipodi="http://sodipodi.sourceforge.net/DTD/sodipodi-0.dtd"
   xmlns="http://www.w3.org/2000/svg"
   xmlns:svg="http://www.w3.org/2000/svg">
  <defs
     id="defs16" />
  <sodipodi:namedview
     id="namedview14"
     pagecolor="#ffffff"
     bordercolor="#666666"
     borderopacity="1.0"
     inkscape:pageshadow="2"
     inkscape:pageopacity="0.0"
     inkscape:pagecheckerboard="0"
     showgrid="false"
     inkscape:zoom="5.3668031"
     inkscape:cx="28.135931"
     inkscape:cy="81.240171"
     inkscape:window-width="2560"
     inkscape:window-height="1299"
     inkscape:window-x="0"
     inkscape:window-y="32"
     inkscape:window-maximized="1"
     inkscape:current-layer="g18" />
  <g
     inkscape:groupmode="layer"
     inkscape:label="Image"
     id="g18">
    <path
       style="fill:#000000;stroke-width:1.33333"
       d="M 5.6666665,155.11696 C 3.2086702,154.12514 3.6338767,148.73586 6.7872719,140.91384 8.3202714,137.11123 10.6732,131.3 12.016002,128 c 1.342803,-3.3 2.784406,-7.08832 3.203562,-8.41849 1.06017,-3.3644 8.877946,-2.57526 10.750401,1.08516 3.122354,6.10382 3.409494,6.27647 6.773256,4.07245 4.31728,-2.82879 8.237331,-2.60116 10.232875,0.59422 C 43.892044,126.8 45.304136,128 46.114078,128 c 0.809941,0 2.558606,-1.2 3.885921,-2.66666 3.151956,-3.48288 8.003429,-3.39769 10.512552,0.18458 l 1.997094,2.85126 4.180811,-3.51792 c 5.152076,-4.33519 5.796157,-4.3483 9.071329,-0.18459 3.167149,4.02638 5.697728,4.23915 7.928783,0.66667 2.10839,-3.37607 4.378478,-3.37607 8.002263,0 C 93.267114,126.8 95.087258,128 95.737597,128 c 0.650338,0 2.26842,-1.2 3.595734,-2.66666 3.080279,-3.40368 4.430469,-3.3534 8.330179,0.31018 3.07795,2.89159 3.28402,2.91069 7.19399,0.66667 4.93675,-2.8333 6.99066,-2.90299 9.1425,-0.31019 2.5039,3.01702 3.65476,2.49391 7.33333,-3.33333 5.37111,-8.50839 8.80641,-6.79743 14.94953,7.44568 1.8711,4.33821 4.2229,9.77833 5.22623,12.08916 2.34779,5.40729 2.31395,9.06555 -0.1024,11.07092 -3.86425,3.20705 -7.80685,1.05612 -11.35381,-6.19423 -3.70912,-7.5818 -5.22447,-8.4451 -7.74348,-4.41153 -1.97329,3.15975 -6.54478,3.47031 -9.65467,0.65589 -1.99167,-1.80244 -2.54174,-1.73336 -5.309,0.66667 -3.65516,3.17012 -8.36249,3.46875 -10.67907,0.67744 -0.91291,-1.1 -2.41291,-2 -3.33333,-2 -0.92041,0 -2.42041,0.9 -3.333332,2 -2.493315,3.00425 -8.971976,2.57235 -10,-0.66667 -1.002816,-3.1596 -3.683826,-3.45748 -6,-0.66666 -0.912918,1.1 -3.405216,2 -5.53844,2 -2.217644,0 -4.207244,-0.85647 -4.646058,-2 -1.081627,-2.81868 -4.157372,-2.4839 -6.124932,0.66666 -2.157764,3.45514 -5.097509,3.3747 -9.726075,-0.26614 l -3.728462,-2.9328 -1.947312,2.9328 c -2.282267,3.43728 -9.273228,4.05993 -10.473219,0.93281 -0.94927,-2.47376 -5.306477,-2.62404 -6.749247,-0.23279 -2.074755,3.43871 -5.577047,3.52512 -9.488215,0.2341 l -3.827502,-3.22064 -2.875268,3.88901 C 17.29387,147.4753 16,149.75666 16,150.40603 c 0,1.83136 -4.657145,5.60616 -6.7716545,5.48871 -1.0422567,-0.0579 -2.6450123,-0.4079 -3.561679,-0.77778 z M 82.666665,81.843883 C 76.816438,79.634072 65.758689,73.701535 63.697197,71.666668 60.81766,68.824323 60.009415,68.792016 55.152408,71.32512 50.530442,73.735643 46.423002,73.889671 44.266666,71.733335 41.645127,69.111796 42.44226,62.03614 45.939763,56.882281 l 3.273097,-4.823179 -3.597685,-7.696217 c -2.922112,-6.25102 -3.599328,-9.616442 -3.606431,-17.922132 -0.0076,-8.822543 0.409316,-10.670921 3.037531,-13.468527 1.675451,-1.783436 5.305655,-3.9882745 8.06712,-4.8996401 6.116618,-2.0186663 19.943362,-1.2440974 28.291691,1.5848898 5.641756,1.9118143 6.593717,1.8769403 13.442092,-0.4924386 6.844432,-2.3680139 7.727702,-2.40065 12.378602,-0.4573796 3.54202,1.4799525 4.77883,2.6904865 4.22457,4.1348475 -0.43103,1.123245 -0.78369,3.147154 -0.78369,4.497578 0,1.350424 -1.48044,4.214723 -3.28987,6.365108 l -3.28987,3.909791 4.10083,6.466329 C 112.08374,40.224665 116,51.869917 116,57.311588 c 0,6.026244 -6.11856,15.687552 -13.00922,20.541795 -5.390589,3.797485 -15.552813,5.792768 -20.324115,3.9905 z"
       id="path1052" />
  </g>
</svg>
