<?xml version="1.0" encoding="UTF-8" standalone="no"?>
<!-- Created with Inkscape (http://www.inkscape.org/) -->

<svg
   version="1.1"
   id="svg22"
   width="52"
   height="160"
   viewBox="0 0 52 160"
   sodipodi:docname="0187.svg"
   inkscape:version="1.1.2 (0a00cf5339, 2022-02-04)"
   xmlns:inkscape="http://www.inkscape.org/namespaces/inkscape"
   xmlns:sodipodi="http://sodipodi.sourceforge.net/DTD/sodipodi-0.dtd"
   xmlns="http://www.w3.org/2000/svg"
   xmlns:svg="http://www.w3.org/2000/svg">
  <defs
     id="defs26" />
  <sodipodi:namedview
     id="namedview24"
     pagecolor="#ffffff"
     bordercolor="#666666"
     borderopacity="1.0"
     inkscape:pageshadow="2"
     inkscape:pageopacity="0.0"
     inkscape:pagecheckerboard="0"
     showgrid="false"
     inkscape:zoom="5.45625"
     inkscape:cx="-23.825888"
     inkscape:cy="79.908362"
     inkscape:window-width="2560"
     inkscape:window-height="1299"
     inkscape:window-x="0"
     inkscape:window-y="32"
     inkscape:window-maximized="1"
     inkscape:current-layer="g28" />
  <g
     inkscape:groupmode="layer"
     inkscape:label="Image"
     id="g28">
    <path
       style="fill:#000000;stroke-width:1.33333"
       d="M 34.109317,149 C 31.445152,142.75131 22.2011,111.4159 17.884129,94 16.793477,89.6 14.123373,81.156507 11.950563,75.236683 9.7777535,69.316859 8,63.535443 8,62.389092 8,61.242741 7.1036964,58.586235 6.0082143,56.485743 3.8746988,52.394912 3.4254044,46.942893 5.0204171,44.499192 5.5591876,43.673747 10.026969,42.746777 14.948821,42.43926 c 4.921851,-0.307519 9.421851,-1.029577 10,-1.604576 C 25.526969,40.259685 26.3,32.186655 26.666667,22.894616 L 27.333333,6 33.181152,5.5811513 C 36.397451,5.3507847 39.570235,5.7035687 40.231781,6.3651147 41.951396,8.0847292 42.707603,149.54552 41.00852,151.66667 38.709629,154.53661 36.027956,153.50009 34.109317,149 Z"
       id="path913" />
  </g>
</svg>
