<?xml version="1.0" encoding="UTF-8" standalone="no"?>
<!-- Created with Inkscape (http://www.inkscape.org/) -->

<svg
   version="1.1"
   id="svg32"
   width="162.66667"
   height="158.66667"
   viewBox="0 0 162.66667 158.66667"
   sodipodi:docname="0188.svg"
   inkscape:version="1.1.2 (0a00cf5339, 2022-02-04)"
   xmlns:inkscape="http://www.inkscape.org/namespaces/inkscape"
   xmlns:sodipodi="http://sodipodi.sourceforge.net/DTD/sodipodi-0.dtd"
   xmlns="http://www.w3.org/2000/svg"
   xmlns:svg="http://www.w3.org/2000/svg">
  <defs
     id="defs36" />
  <sodipodi:namedview
     id="namedview34"
     pagecolor="#ffffff"
     bordercolor="#666666"
     borderopacity="1.0"
     inkscape:pageshadow="2"
     inkscape:pageopacity="0.0"
     inkscape:pagecheckerboard="0"
     showgrid="false"
     inkscape:zoom="5.5021007"
     inkscape:cx="31.987783"
     inkscape:cy="79.242461"
     inkscape:window-width="2560"
     inkscape:window-height="1299"
     inkscape:window-x="0"
     inkscape:window-y="32"
     inkscape:window-maximized="1"
     inkscape:current-layer="g38" />
  <g
     inkscape:groupmode="layer"
     inkscape:label="Image"
     id="g38">
    <path
       style="fill:#000000;stroke-width:1.33333"
       d="m 21.333334,152.46391 c -5.813687,-1.91531 -8.447222,-4.25124 -10.978964,-9.73827 -3.1730359,-6.8769 -3.8954967,-21.26213 -1.229185,-24.47483 0.893852,-1.07703 4.896111,-3.37406 8.893911,-5.10452 5.696959,-2.46594 7.273647,-3.795 7.291483,-6.14629 0.01922,-2.53429 -0.689466,-3 -4.565223,-3 -2.523388,0 -4.958797,0.6 -5.412022,1.33334 -1.747426,2.82739 -6.673781,1.30397 -9.0000005,-2.78315 -3.0668361,-5.388377 -2.9437373,-7.304767 0.6300082,-9.807916 2.3885966,-1.673039 7.1897403,-2.075605 24.7543233,-2.075605 23.013244,0 26.962295,0.83789 26.928586,5.713578 -0.03649,5.277423 -2.176389,6.880043 -10.146407,7.598873 -8.449589,0.76208 -10.186902,2.67464 -5.713959,6.29036 14.564428,11.77317 17.087759,16.29653 14.484352,25.96484 -3.362967,12.48911 -10.184211,17.16228 -24.805075,16.99375 -5.022505,-0.0579 -10.031828,-0.40176 -11.131828,-0.76416 z m 119.537306,-3.68017 c -15.84267,-7.84292 -21.77267,-19.91698 -16.26083,-33.10867 4.39646,-10.5222 19.86871,-12.00394 28.06758,-2.68797 5.66693,6.43905 4.22405,13.07321 -4.01783,18.4735 -3.09093,2.02526 -8.76734,0.9344 -10.60429,-2.03785 -0.47875,-0.77462 -2.07343,-2.05222 -3.54375,-2.83911 -2.57854,-1.38 -2.60195,-1.29276 -0.66056,2.4615 2.41331,4.66681 6.90031,7.76706 16.77974,11.5938 6.61852,2.56364 7.3693,3.25381 7.3693,6.77442 0,3.63027 -0.39416,3.94399 -5.33333,4.24486 -3.48173,0.21208 -7.57701,-0.78587 -11.79603,-2.87448 z m 6.39626,-27.34291 C 148.10515,120.08452 144.54876,116 142.52959,116 c -0.70397,0 -1.64855,0.96056 -2.09905,2.13457 -1.25588,3.27276 4.99014,6.29351 6.83636,3.30626 z M 40.445429,39.7144 C 30.057079,39.143827 18.357079,38.219185 14.445428,37.659637 L 7.3333335,36.642277 6.937688,30.584181 c -0.2983795,-4.568768 0.2160915,-6.611711 2.0926973,-8.310017 3.5161957,-3.182113 14.3986857,-4.94083 30.5725897,-4.94083 15.179918,0 19.063693,-1.177588 19.063693,-5.780245 0,-6.2713169 1.820969,-6.4652637 19.115416,-2.0359348 5.20823,1.3338938 8.157844,1.3095538 15.333334,-0.1265293 14.087532,-2.8194392 17.716322,-2.4356118 28.462422,3.0105481 8.53475,4.325439 10.93927,4.943368 19.21551,4.938139 12.1036,-0.0076 14.15128,1.816987 13.40104,11.941332 -0.55176,7.445724 -2.4472,9.862166 -6.86105,8.746904 -15.32162,-3.871362 -17.45865,-3.928122 -22.14177,-0.588082 -4.46705,3.18594 -4.91699,3.227746 -35.191568,3.269768 C 73.133335,40.732646 50.833777,40.28497 40.445429,39.7144 Z"
       id="path774" />
  </g>
</svg>
