<?xml version="1.0" encoding="UTF-8" standalone="no"?>
<!-- Created with Inkscape (http://www.inkscape.org/) -->

<svg
   version="1.1"
   id="svg42"
   width="205.33333"
   height="157.33333"
   viewBox="0 0 205.33333 157.33333"
   sodipodi:docname="0189.svg"
   inkscape:version="1.1.2 (0a00cf5339, 2022-02-04)"
   xmlns:inkscape="http://www.inkscape.org/namespaces/inkscape"
   xmlns:sodipodi="http://sodipodi.sourceforge.net/DTD/sodipodi-0.dtd"
   xmlns="http://www.w3.org/2000/svg"
   xmlns:svg="http://www.w3.org/2000/svg">
  <defs
     id="defs46" />
  <sodipodi:namedview
     id="namedview44"
     pagecolor="#ffffff"
     bordercolor="#666666"
     borderopacity="1.0"
     inkscape:pageshadow="2"
     inkscape:pageopacity="0.0"
     inkscape:pagecheckerboard="0"
     showgrid="false"
     inkscape:zoom="5.548729"
     inkscape:cx="53.705993"
     inkscape:cy="78.576553"
     inkscape:window-width="2560"
     inkscape:window-height="1299"
     inkscape:window-x="0"
     inkscape:window-y="32"
     inkscape:window-maximized="1"
     inkscape:current-layer="g48" />
  <g
     inkscape:groupmode="layer"
     inkscape:label="Image"
     id="g48">
    <path
       style="fill:#000000;stroke-width:1.33333"
       d="m 61.999999,150.62849 c -17.382612,-1.07015 -28.617014,-2.70536 -36.666666,-5.337 -1.833333,-0.59937 -5.433333,-1.43689 -8,-1.86117 -6.40842,-1.05932 -13.3333331,-5.51592 -13.3333331,-8.5808 0,-3.50412 2.3001559,-5.07448 10.0177301,-6.8393 3.656915,-0.83625 7.686966,-2.07826 8.95567,-2.76002 3.279014,-1.76205 27.580293,-5.24836 41.003296,-5.88242 6.24615,-0.29504 17.656636,0.0694 25.356636,0.80987 7.7,0.74047 17.299998,1.61702 21.333328,1.94789 4.03334,0.33087 9.59548,1.48798 12.36032,2.57135 2.76484,1.08338 6.70594,1.96977 8.758,1.96977 6.36062,0 17.41379,3.92388 18.90568,6.71152 3.10182,5.79578 -3.86934,10.05742 -20.69066,12.64868 -2.93334,0.45187 -9.23334,1.64819 -14,2.65848 -12.13554,2.57212 -32.108825,3.29086 -54.000001,1.94315 z m 47.739291,-11.97973 c 9.38994,-0.72348 18.38994,-1.33946 20,-1.36882 2.82141,-0.0515 2.80672,-0.11773 -0.40596,-1.82946 -2.97503,-1.58519 -6.87322,-2.38973 -20.66667,-4.2654 -23.800816,-3.2365 -44.328112,-2.97359 -66.080254,0.84634 -4.077477,0.71605 -9.177477,1.35348 -11.333333,1.41651 l -3.91974,0.11467 4,1.36692 c 8.240956,2.81618 40.7347,6.14676 53.333332,5.4666 4.4,-0.23754 15.682685,-1.02383 25.072625,-1.74731 z m 77.67185,7.74744 C 176.69565,133.87754 173.3542,119.94383 173.30405,87.570186 173.26832,64.536837 171.53896,59.263781 162.43354,54.425424 153.70998,49.78998 149.8307,49.288306 117.01641,48.55202 97.270946,48.108972 84.950279,47.266658 81.68308,46.13642 75.43982,43.976664 71.111444,37.484967 73.250163,33.488735 75.176953,29.888495 75.062408,19.020802 73.090744,18.363581 72.223988,18.074662 69.05538,18.722685 66.049395,19.803632 59.377667,22.20277 53.629034,21.03165 52.125428,16.967018 50.329115,12.111121 52.87141,7.3754454 58.375738,5.3242156 64.074623,3.2004825 66.45424,3.3440441 74.407391,6.2914003 c 7.669421,2.8422087 10.064865,7.4645637 8.861141,17.0988487 -0.853564,6.831693 -0.724433,7.277742 2.537108,8.7638 2.608728,1.188616 5.267332,1.198054 11.037777,0.03919 10.618983,-2.132597 49.932243,-1.883672 59.383863,0.376008 14.56038,3.481087 21.40004,9.303796 27.68726,23.570668 2.27842,5.170142 2.67027,8.644921 2.48095,21.999999 -0.64688,45.632456 -0.62289,46.081816 2.8188,52.815936 1.76785,3.45904 4.91785,7.9213 7,9.91612 4.0536,3.8836 4.75828,6.95546 2.18571,9.52803 -2.87478,2.87477 -6.11004,1.69599 -10.98886,-4.0038 z M 57.333332,107.82612 c -4.033333,-0.58157 -13.082755,-1.23692 -20.109827,-1.45635 -9.986649,-0.31184 -13.282811,-0.90527 -15.095239,-2.71769 -1.428753,-1.42876 -4.362893,-2.31875 -7.644493,-2.31875 -9.7006688,0 -12.4073482,-4.020107 -9.6453581,-14.325812 1.2556659,-4.685217 14.4485271,-7.42679 36.4949181,-7.583913 l 12.666666,-0.09027 0.412481,-3.569094 c 0.717074,-6.204654 3.231559,-7.103506 12.701046,-4.540236 6.391109,1.729992 12.642921,2.178271 26.301863,1.88594 17.293701,-0.370121 18.219881,-0.2488 26.584611,3.482368 6.42309,2.865083 11.32341,4.004839 18.92937,4.402748 10.19181,0.533188 10.27187,0.566148 11.58893,4.770919 0.72943,2.328712 1.33916,7.733034 1.35496,12.009606 l 0.0288,7.775584 -5.32981,-0.90047 c -2.9314,-0.49525 -6.95935,-1.68295 -8.951,-2.63933 -1.99165,-0.95637 -7.52204,-2.131956 -12.28976,-2.612412 -7.68944,-0.774885 -9.38968,-0.49014 -15.05275,2.520942 -3.61373,1.92144 -9.39896,3.63647 -13.331422,3.95209 -3.821056,0.30668 -10.247319,0.9313 -14.280653,1.38805 -13.513514,1.53033 -17.957331,1.62962 -25.333333,0.56608 z"
       id="path635" />
  </g>
</svg>
