<?xml version="1.0" encoding="UTF-8" standalone="no"?>
<!-- Created with Inkscape (http://www.inkscape.org/) -->

<svg
   version="1.1"
   id="svg52"
   width="169.33333"
   height="158.66667"
   viewBox="0 0 169.33333 158.66667"
   sodipodi:docname="0190.svg"
   inkscape:version="1.1.2 (0a00cf5339, 2022-02-04)"
   xmlns:inkscape="http://www.inkscape.org/namespaces/inkscape"
   xmlns:sodipodi="http://sodipodi.sourceforge.net/DTD/sodipodi-0.dtd"
   xmlns="http://www.w3.org/2000/svg"
   xmlns:svg="http://www.w3.org/2000/svg">
  <defs
     id="defs56" />
  <sodipodi:namedview
     id="namedview54"
     pagecolor="#ffffff"
     bordercolor="#666666"
     borderopacity="1.0"
     inkscape:pageshadow="2"
     inkscape:pageopacity="0.0"
     inkscape:pagecheckerboard="0"
     showgrid="false"
     inkscape:zoom="5.5021007"
     inkscape:cx="35.25926"
     inkscape:cy="79.242461"
     inkscape:window-width="2560"
     inkscape:window-height="1299"
     inkscape:window-x="0"
     inkscape:window-y="32"
     inkscape:window-maximized="1"
     inkscape:current-layer="g58" />
  <g
     inkscape:groupmode="layer"
     inkscape:label="Image"
     id="g58">
    <path
       style="fill:#000000;stroke-width:1.33333"
       d="m 8.6856893,151.51212 c -2.7918305,-2.04144 -2.544658,-3.01817 4.7690277,-18.84545 2.033212,-4.4 4.607053,-10.25 5.719647,-13 1.589078,-3.92773 2.746526,-5 5.397168,-5 2.594282,0 4.003218,1.23284 6.095134,5.33333 3.074505,6.02653 3.974711,6.37791 7.202439,2.81131 2.667013,-2.94702 6.919025,-2.3148 9.220859,1.37102 1.998536,3.20017 4.452622,3.16371 6.195042,-0.092 2.167896,-4.05075 6.254346,-4.6462 10.260374,-1.49505 3.174917,2.49739 3.759024,2.57423 5.765383,0.7585 2.819342,-2.55147 9.206041,-2.62905 10.167507,-0.12352 1.257083,3.27591 4.784203,3.65753 7.441598,0.80515 3.173948,-3.40684 5.165452,-3.40086 9.52527,0.0286 l 3.471431,2.73063 2.338031,-2.73063 c 2.68708,-3.13828 8.14985,-3.63205 9.22367,-0.83372 1.30829,3.40936 4.8173,3.62359 8.14512,0.49727 3.13176,-2.94214 3.30678,-2.95834 7.28652,-0.67428 4.60068,2.64042 6.58569,1.75319 9.45051,-4.22406 0.95916,-2.00124 2.78522,-3.49584 4.2711,-3.49584 3.22296,0 8.2393,7.22349 10.09362,14.53472 0.76239,3.00591 1.8864,6.66528 2.49782,8.13195 4.08644,9.8025 4.1913,10.29591 2.59668,12.21732 -0.92496,1.11451 -3.31683,1.75059 -5.70608,1.51744 -3.60491,-0.35178 -4.37294,-1.18289 -6.21119,-6.72128 -2.62861,-7.9196 -3.32439,-8.59757 -6.22753,-6.06817 -3.62068,3.15456 -5.97962,3.52174 -10.59555,1.64932 -3.56962,-1.448 -4.50757,-1.42014 -5.82992,0.17321 -2.12675,2.56256 -7.81838,2.40051 -10.81105,-0.30783 -2.17675,-1.96992 -2.68864,-1.99166 -4.77166,-0.20266 -4.10595,3.5264 -6.48581,3.60271 -10.294411,0.33008 -2.882432,-2.4768 -4.246107,-2.88024 -6.200351,-1.83436 -1.377878,0.73741 -2.505233,1.85545 -2.505233,2.48452 0,2.75332 -4.250471,2.40296 -7.511381,-0.61916 -1.949574,-1.8068 -3.669452,-3.28509 -3.821952,-3.28509 -0.1525,0 -1.898923,1.50289 -3.88094,3.33976 -3.954019,3.66446 -7.293615,3.0133 -10.447641,-2.0371 -1.539518,-2.46516 -1.793084,-2.39502 -5.966687,1.65019 l -4.358841,4.22476 -3.9973,-3.82967 -3.997301,-3.82965 -3.094913,2.90752 c -4.04115,3.79647 -6.794363,3.67259 -10.038504,-0.45168 -2.396852,-3.04709 -2.836091,-3.16544 -4.727763,-1.27376 -1.146982,1.14697 -2.778046,4.39719 -3.624588,7.22269 -0.964961,3.22076 -2.742634,5.68562 -4.765081,6.60711 -4.12218,1.87819 -4.737092,1.85031 -7.7480837,-0.35139 z M 11.870375,99.870377 C 7.8028033,95.802806 9.2395749,89.399731 16.655161,78.546644 21.7932,71.026861 23.906777,69.140976 30.525186,66.170811 c 14.943636,-6.706306 36.507175,-3.311084 45.179311,7.113571 8.720996,10.483388 12.528473,25.069957 7.277467,27.880208 -1.293254,0.69213 -17.18404,1.32245 -35.31286,1.40072 -31.940678,0.1379 -33.049359,0.0544 -35.798729,-2.694933 z m 129.333585,-3.70702 c -3.0064,-2.43444 -3.0448,-2.738048 -1.39558,-11.035255 0.99432,-5.002416 1.32394,-11.3358 0.79678,-15.309723 -1.19468,-9.005947 0.66673,-12.485044 6.67985,-12.485044 8.03484,0 8.88199,2.124488 8.28611,20.780015 -0.33908,10.61584 -1.12727,17.215223 -2.2122,18.522488 -2.31304,2.787036 -8.42292,2.549536 -12.15496,-0.472481 z M 23.392542,32.547611 c -2.900768,-1.062137 -6.650768,-3.224448 -8.333333,-4.805136 -3.935572,-3.697278 -4.067737,-9.775571 -0.256903,-11.815067 2.348128,-1.25668 3.374591,-0.956785 6.333334,1.850366 1.942064,1.842562 6.007838,4.332204 9.035053,5.532534 6.507805,2.580433 17.981579,2.284586 18.895157,-0.487204 0.48594,-1.474338 -0.617924,-1.659778 -5.51167,-0.925916 -7.111318,1.066408 -11.554181,-0.732705 -11.554181,-4.678801 0,-5.779845 13.886859,-8.2639555 25.932269,-4.63882 4.526936,1.362408 14.276479,1.965589 33.878574,2.095987 15.137368,0.100693 28.232638,0.139892 29.100588,0.08709 0.86796,-0.0528 1.76796,-1.745987 2,-3.762653 0.62786,-5.4566318 5.99717,-5.6475983 11.03201,-0.392361 3.67057,3.831251 4.4618,4.059034 14.09936,4.059034 8.39076,0 10.62526,0.458245 12.5374,2.571115 2.48433,2.745158 1.83728,8.023611 -1.00339,8.185308 -0.86724,0.04937 -9.67681,0.210499 -19.57681,0.358075 -18.44242,0.274916 -21.48648,0.992953 -27.53618,6.495288 -4.0979,3.727117 -9.01504,2.726885 -9.55238,-1.943119 -0.3813,-3.313828 -0.95868,-3.684045 -6.000005,-3.847267 -3.067957,-0.09933 -10.378103,-0.343921 -16.24477,-0.543537 -8.847249,-0.301031 -11.864526,0.173817 -17.689342,2.783883 -13.038651,5.842544 -29.677702,7.448745 -39.584781,3.821198 z"
       id="path496" />
  </g>
</svg>
