<?xml version="1.0" encoding="UTF-8" standalone="no"?>
<!-- Created with Inkscape (http://www.inkscape.org/) -->

<svg
   version="1.1"
   id="svg62"
   width="88"
   height="157.33333"
   viewBox="0 0 88 157.33333"
   sodipodi:docname="0191.svg"
   inkscape:version="1.1.2 (0a00cf5339, 2022-02-04)"
   xmlns:inkscape="http://www.inkscape.org/namespaces/inkscape"
   xmlns:sodipodi="http://sodipodi.sourceforge.net/DTD/sodipodi-0.dtd"
   xmlns="http://www.w3.org/2000/svg"
   xmlns:svg="http://www.w3.org/2000/svg">
  <defs
     id="defs66" />
  <sodipodi:namedview
     id="namedview64"
     pagecolor="#ffffff"
     bordercolor="#666666"
     borderopacity="1.0"
     inkscape:pageshadow="2"
     inkscape:pageopacity="0.0"
     inkscape:pagecheckerboard="0"
     showgrid="false"
     inkscape:zoom="5.548729"
     inkscape:cx="-4.8659792"
     inkscape:cy="78.576553"
     inkscape:window-width="2560"
     inkscape:window-height="1299"
     inkscape:window-x="0"
     inkscape:window-y="32"
     inkscape:window-maximized="1"
     inkscape:current-layer="g68" />
  <g
     inkscape:groupmode="layer"
     inkscape:label="Image"
     id="g68">
    <path
       style="fill:#000000;stroke-width:1.33333"
       d="m 9.2037084,149.2037 c -4.0675716,-4.06757 -2.6308,-10.47064 4.7847866,-21.32373 5.138038,-7.51978 7.251616,-9.40566 13.870025,-12.37583 14.943636,-6.7063 36.507176,-3.31108 45.179312,7.11357 8.720996,10.48339 12.528473,25.06995 7.277467,27.88021 -1.293254,0.69213 -17.18404,1.32245 -35.31286,1.40072 -31.940679,0.1379 -33.04936,0.0544 -35.7987306,-2.69494 z M 40.714353,47.533079 c -2.067886,-1.512075 -2.33909,-2.991053 -1.694224,-9.239217 0.422274,-4.091432 0.06164,-10.931317 -0.801408,-15.199748 -0.863048,-4.268429 -1.265325,-9.860781 -0.893949,-12.427448 0.572073,-3.9537391 1.259997,-4.7334943 4.503,-5.1041085 2.105275,-0.2405933 5.228995,-0.085759 6.941599,0.3440781 3.65661,0.9177509 4.093677,2.9369905 5.148586,23.7863664 l 0.726551,14.359669 -4.322255,2.635347 c -5.11962,3.121513 -6.347028,3.229469 -9.6079,0.845061 z m 25.952314,0.05368 c -3.13312,-1.60472 -3.333334,-2.34433 -3.333334,-12.313678 0,-5.833527 -0.5031,-12.783522 -1.118001,-15.444436 C 60.335876,11.695503 64.880257,5.3333332 72.569067,5.3333332 78.820123,5.3333332 80,8.7902183 80,27.104987 80,42.222222 79.7194,44.280599 77.333333,46.666666 74.255461,49.744538 71.3662,49.99376 66.666667,47.586756 Z M 12.553271,46.483187 C 12.037679,45.648942 11.454719,37.398942 11.257806,28.149854 10.817786,7.4819637 11.964993,4.6198451 20.244109,5.7303076 c 2.920202,0.3916812 5.664787,1.0674769 6.099078,1.5017681 0.434292,0.4342913 0.933813,8.8928083 1.110049,18.7967023 0.257479,14.469577 -0.06895,18.396461 -1.661643,19.989152 -2.327568,2.327568 -11.879869,2.663281 -13.238322,0.465257 z"
       id="path239" />
  </g>
</svg>
