<?xml version="1.0" encoding="UTF-8" standalone="no"?>
<!-- Created with Inkscape (http://www.inkscape.org/) -->

<svg
   version="1.1"
   id="svg72"
   width="161.33333"
   height="164"
   viewBox="0 0 161.33333 164"
   sodipodi:docname="0192.svg"
   inkscape:version="1.1.2 (0a00cf5339, 2022-02-04)"
   xmlns:inkscape="http://www.inkscape.org/namespaces/inkscape"
   xmlns:sodipodi="http://sodipodi.sourceforge.net/DTD/sodipodi-0.dtd"
   xmlns="http://www.w3.org/2000/svg"
   xmlns:svg="http://www.w3.org/2000/svg">
  <defs
     id="defs76" />
  <sodipodi:namedview
     id="namedview74"
     pagecolor="#ffffff"
     bordercolor="#666666"
     borderopacity="1.0"
     inkscape:pageshadow="2"
     inkscape:pageopacity="0.0"
     inkscape:pagecheckerboard="0"
     showgrid="false"
     inkscape:zoom="5.3231707"
     inkscape:cx="80.591065"
     inkscape:cy="81.906071"
     inkscape:window-width="2560"
     inkscape:window-height="1299"
     inkscape:window-x="0"
     inkscape:window-y="32"
     inkscape:window-maximized="1"
     inkscape:current-layer="g78" />
  <g
     inkscape:groupmode="layer"
     inkscape:label="Image"
     id="g78">
    <path
       style="fill:#000000;stroke-width:1.33333"
       d="m 13.705842,156.25844 c -1.184122,-0.75236 -1.523817,-6.06016 -1.246933,-19.48357 0.339311,-16.44987 0.66022,-18.65424 2.960824,-20.33832 2.630444,-1.92553 8.074913,-1.39498 10.550586,1.02812 1.652187,1.6171 2.05271,34.40753 0.45848,37.53533 -1.250509,2.45344 -9.550125,3.27436 -12.722957,1.25844 z m 62.564303,-0.5996 c -0.785669,-0.94668 -1.225348,-6.30735 -1.011569,-12.33333 0.207973,-5.86236 0.459874,-14.34074 0.559778,-18.84084 0.181226,-8.16312 0.191647,-8.1835 4.514978,-8.8285 2.383333,-0.35558 5.626873,-0.16 7.207866,0.43463 2.746812,1.03309 2.877849,1.89595 2.949133,19.41984 0.04608,11.32652 -0.478204,19.0048 -1.371126,20.08071 -1.844771,2.2228 -11.020305,2.27101 -12.84906,0.0675 z m 62.063185,0.23436 C 136.30022,154.70903 136,152.30112 136,137.17943 c 0,-9.54511 0.57869,-18.43603 1.28597,-19.75761 1.82189,-3.40423 9.07652,-4.59448 12.86676,-2.11102 3.25709,2.13413 3.17428,0.72638 2.01743,34.2932 -0.15576,4.5196 -0.59319,5.0548 -5.17016,6.32589 -5.98915,1.66327 -5.74626,1.6643 -8.66667,-0.0367 z M 87.579313,47.134871 C 87.414709,46.970267 77.392025,45.890523 65.306683,44.735441 53.22134,43.58036 40.033333,42.036448 35.999999,41.304527 31.966666,40.572604 26.266666,39.633656 23.333333,39.217973 20.4,38.802291 16.8,37.939124 15.333333,37.299824 13.866666,36.660525 11.509816,35.956533 10.095888,35.735397 6.2512129,35.134099 4.8643076,28.469025 7.94319,25.390143 12.839885,20.493448 37.417993,14.50172 70.666665,10.099218 c 5.158788,-0.6830828 29.421035,1.98438 53.999995,5.936918 7.75779,1.247528 22.90254,5.643084 28.27554,8.206593 5.42681,2.589175 5.8834,8.537992 0.81194,10.578682 -2.06478,0.830841 -4.95414,2.017577 -6.42081,2.63719 -1.46667,0.619614 -7.16667,2.009278 -12.66667,3.088142 -5.5,1.078865 -12.60978,2.613657 -15.79951,3.410648 -5.27612,1.318298 -30.577501,3.887814 -31.287837,3.17748 z M 100.26084,32.595984 c 33.83069,-0.981776 35.75642,-1.429955 21.37819,-4.975369 -13.28659,-3.276238 -63.481451,-4.383952 -74.039514,-1.633927 -4.251293,1.107321 -9.65035,2.082913 -11.997903,2.16798 -2.624219,0.09509 -3.241131,0.378355 -1.601614,0.735399 1.466667,0.3194 3.866667,1.149641 5.333334,1.844978 2.576411,1.221463 35.045709,3.821127 36.927512,2.956614 0.510132,-0.234359 11.310132,-0.727412 23.999995,-1.095675 z"
       id="path100" />
  </g>
</svg>
