<?xml version="1.0" encoding="UTF-8" standalone="no"?>
<!-- Created with Inkscape (http://www.inkscape.org/) -->

<svg
   version="1.1"
   id="svg2"
   width="164"
   height="164"
   viewBox="0 0 164 164"
   sodipodi:docname="0193.svg"
   inkscape:version="1.1.2 (0a00cf5339, 2022-02-04)"
   xmlns:inkscape="http://www.inkscape.org/namespaces/inkscape"
   xmlns:sodipodi="http://sodipodi.sourceforge.net/DTD/sodipodi-0.dtd"
   xmlns="http://www.w3.org/2000/svg"
   xmlns:svg="http://www.w3.org/2000/svg">
  <defs
     id="defs6" />
  <sodipodi:namedview
     id="namedview4"
     pagecolor="#ffffff"
     bordercolor="#666666"
     borderopacity="1.0"
     inkscape:pageshadow="2"
     inkscape:pageopacity="0.0"
     inkscape:pagecheckerboard="0"
     showgrid="false"
     inkscape:zoom="5.3231707"
     inkscape:cx="30.996564"
     inkscape:cy="81.906071"
     inkscape:window-width="2560"
     inkscape:window-height="1299"
     inkscape:window-x="0"
     inkscape:window-y="32"
     inkscape:window-maximized="1"
     inkscape:current-layer="g8" />
  <g
     inkscape:groupmode="layer"
     inkscape:label="Image"
     id="g8">
    <path
       style="fill:#000000;stroke-width:1.33333"
       d="m 11.870375,153.20371 c -4.0675715,-4.06758 -2.6307999,-10.47064 4.784786,-21.32373 5.138039,-7.51979 7.251616,-9.40567 13.870026,-12.37584 14.943636,-6.7063 36.507176,-3.31108 45.179312,7.11357 8.720996,10.4834 12.528473,25.06996 7.277466,27.88021 -1.293253,0.69213 -17.18404,1.32245 -35.31286,1.40072 -31.940678,0.13791 -33.04936,0.0544 -35.79873,-2.69493 z M 141,149.22653 c -2.03311,-1.18417 -2.33333,-3.59208 -2.33333,-18.71377 0,-9.54511 0.57869,-18.43603 1.28597,-19.75761 1.82189,-3.40423 9.07652,-4.59448 12.86676,-2.11102 3.25709,2.13414 3.17428,0.72638 2.01743,34.2932 -0.15576,4.5196 -0.59319,5.0548 -5.17016,6.3259 -5.98915,1.66326 -5.74626,1.66429 -8.66667,-0.0367 z M 28.635864,36.850375 C 16.279535,34.051547 7.5714807,26.634847 6.0469579,17.611275 4.9035748,10.843649 6.6520395,8 11.95661,8 c 3.451623,0 8.030147,3.470141 8.054955,6.104988 0.0064,0.675589 2.144148,3.478345 4.750638,6.228345 4.318336,4.556098 5.368181,5 11.825176,5 4.672156,0 7.651546,-0.681318 8.745954,-2 1.989835,-2.397604 2.437824,-2.231002 -6.896597,-2.564756 -8.064721,-0.288354 -11.770069,-2.24385 -11.770069,-6.211648 0,-1.703157 1.626261,-2.937125 5.335478,-4.048433 5.594287,-1.6760893 13.703948,-0.5446484 26.226503,3.65906 3.76164,1.262748 14.119623,2.032977 32,2.379548 14.540912,0.281843 27.318822,0.724044 28.395362,0.982668 1.34858,0.323981 2.17794,-0.981167 2.66666,-4.196439 0.59409,-3.9084847 1.31471,-4.7361431 4.43546,-5.0943011 2.80401,-0.3218055 4.93918,0.7505892 8.62779,4.3333331 4.52943,4.399424 5.51719,4.760968 13.0072,4.760968 8.3642,0 11.30555,1.444738 11.30555,5.553088 0,3.819916 -4.40811,5.113579 -17.42432,5.113579 -13.16668,0 -21.34146,1.728172 -26.42216,5.585713 -4.39412,3.336255 -7.98175,3.039692 -9.43393,-0.779833 -1.16267,-3.058059 -1.92691,-3.235215 -17.941173,-4.158883 l -16.726774,-0.964765 -9.025824,4.377431 c -4.964202,2.407588 -10.067681,4.879085 -11.341064,5.492217 -3.107606,1.496309 -13.493866,1.160789 -21.715561,-0.701505 z"
       id="path1371" />
  </g>
</svg>
