<?xml version="1.0" encoding="UTF-8" standalone="no"?>
<!-- Created with Inkscape (http://www.inkscape.org/) -->

<svg
   version="1.1"
   id="svg12"
   width="158.66667"
   height="152"
   viewBox="0 0 158.66667 152"
   sodipodi:docname="0194.svg"
   inkscape:version="1.1.2 (0a00cf5339, 2022-02-04)"
   xmlns:inkscape="http://www.inkscape.org/namespaces/inkscape"
   xmlns:sodipodi="http://sodipodi.sourceforge.net/DTD/sodipodi-0.dtd"
   xmlns="http://www.w3.org/2000/svg"
   xmlns:svg="http://www.w3.org/2000/svg">
  <defs
     id="defs16" />
  <sodipodi:namedview
     id="namedview14"
     pagecolor="#ffffff"
     bordercolor="#666666"
     borderopacity="1.0"
     inkscape:pageshadow="2"
     inkscape:pageopacity="0.0"
     inkscape:pagecheckerboard="0"
     showgrid="false"
     inkscape:zoom="5.7434211"
     inkscape:cx="32.036655"
     inkscape:cy="75.912944"
     inkscape:window-width="2560"
     inkscape:window-height="1299"
     inkscape:window-x="0"
     inkscape:window-y="32"
     inkscape:window-maximized="1"
     inkscape:current-layer="g18" />
  <g
     inkscape:groupmode="layer"
     inkscape:label="Image"
     id="g18">
    <path
       style="fill:#000000;stroke-width:1.33333"
       d="m 8.8560445,145.09273 c -4.1921391,-2.34604 -2.952258,-8.16064 5.8069475,-27.23251 4.616831,-10.05246 6.780535,-11.09865 11.29413,-5.46087 6.683893,8.34861 6.099431,7.96277 8.614293,5.68685 2.931458,-2.65293 9.274393,-2.70612 10.279751,-0.0862 1.060527,2.76369 3.615547,2.50092 6.482168,-0.66666 3.162503,-3.49453 7.063117,-3.37696 11.059255,0.33333 l 3.231126,3 2.017438,-3 c 2.666978,-3.96588 6.183386,-3.79182 10.165981,0.50323 l 3.248382,3.50324 3.046023,-3.50324 c 3.792656,-4.36193 4.852808,-4.36523 9.378654,-0.0292 l 3.626108,3.47403 3.020629,-3.47403 c 3.8154,-4.38809 6.96995,-4.40848 10.13361,-0.0655 l 2.48296,3.40855 3.89876,-3.35011 3.89877,-3.35011 4.2634,2.63493 4.26339,2.63492 4.50988,-5.42929 c 2.97658,-3.58342 5.21281,-5.15956 6.57741,-4.63591 2.84748,1.09268 14.51156,26.177 14.51156,31.208 0,3.22141 -0.68949,4.25937 -3.25755,4.90392 -4.46137,1.11973 -5.5472,0.18543 -9.50336,-8.17721 -1.88801,-3.99094 -3.89618,-7.25624 -4.4626,-7.25624 -0.56642,0 -2.11584,1.2 -3.44316,2.66666 -2.8378,3.13574 -8.42031,3.52676 -9.51783,0.66667 -1.06053,-2.76369 -3.61555,-2.50091 -6.48217,0.66667 -1.32731,1.46666 -3.79919,2.66666 -5.49307,2.66666 -1.71516,0 -3.71213,-1.18156 -4.50693,-2.66666 -1.79623,-3.35629 -4.83172,-3.42863 -6.58271,-0.15687 -2.367535,4.42377 -5.325613,4.42181 -9.369976,-0.007 l -3.784777,-4.1438 -2.284614,3.48676 c -2.942839,4.49134 -6.392245,4.42803 -9.802373,-0.1799 l -2.713536,-3.66667 -3.451631,3.66667 c -4.308132,4.57652 -7.959746,4.66758 -10.840934,0.27033 l -2.22536,-3.39632 -3.545003,3.39632 c -4.254756,4.07632 -8.76567,4.37441 -11.041849,0.72967 -2.179411,-3.4898 -3.425016,-3.36389 -6.59545,0.66666 -3.297938,4.19266 -4.378913,4.17075 -8.726441,-0.17677 -3.835619,-3.83562 -7.343667,-3.12007 -8.104076,1.65301 -1.135736,7.12902 -5.591603,10.79232 -10.0752255,8.28316 z M 7.5555558,95.111111 C 6.2858076,93.841363 6.4537153,84.288989 7.7599732,83.481679 8.3612916,83.110043 10.573012,78.424633 12.674908,73.069656 c 4.291578,-10.933605 6.698387,-14.402989 9.991759,-14.402989 2.445635,0 5.77082,3.283521 7.088822,7 1.014544,2.860798 2.752378,2.968324 5.387369,0.333333 2.771007,-2.771007 6.659063,-2.498843 9.52381,0.666667 3.042309,3.361713 4.81224,3.361713 7.690629,0 2.874845,-3.357576 5.064722,-3.362828 9.311474,-0.02233 3.352261,2.63689 3.371189,2.63689 6.72345,0 4.249003,-3.342266 6.567737,-3.336877 9.607781,0.02233 2.877852,3.17999 5.08122,3.380296 7.333333,0.666666 0.912919,-1.1 3.012919,-2 4.666667,-2 1.653748,0 3.753748,0.9 4.666667,2 2.23012,2.687131 3.941606,2.519695 7.393641,-0.723325 2.50073,-2.349309 3.38233,-2.503033 6.41927,-1.119313 1.93623,0.882206 3.52042,2.107702 3.52042,2.723325 0,1.84928 3.55484,1.262275 5.33334,-0.880687 0.91291,-1.1 3.10521,-2 4.87177,-2 1.76656,0 3.55728,0.9 3.97939,2 1.19854,3.123344 3.26175,2.397836 8.05134,-2.831172 4.16684,-4.549129 4.60019,-4.71497 7.42294,-2.84074 4.63069,3.074667 11.7293,20.405636 11.33417,27.671912 -0.30927,5.68716 -0.53219,6 -4.2754,6 -3.58693,0 -4.18444,-0.672569 -6.51483,-7.333333 -2.95982,-8.459864 -4.72317,-10.135431 -7.09809,-6.744756 -2.56796,3.666279 -6.91497,4.267748 -9.8235,1.359219 -2.4724,-2.472406 -2.59621,-2.457656 -6.42686,0.765616 -4.9268,4.145633 -6.50563,4.119513 -10.99535,-0.181906 l -3.62032,-3.468494 -2.21993,3.388033 c -2.400417,3.663505 -4.379761,3.530377 -9.845013,-0.662165 -3.092054,-2.371996 -3.243942,-2.352974 -7.096607,0.888832 -3.127714,2.631796 -4.465191,3.029989 -6.506988,1.937252 -1.413534,-0.7565 -2.57006,-1.890151 -2.57006,-2.519224 0,-2.739235 -4.081182,-2.326292 -7.399109,0.748658 l -3.610617,3.346207 -4.372079,-4.237585 c -4.287801,-4.155902 -4.400741,-4.184028 -5.859028,-1.459194 -0.817823,1.528115 -2.745168,3.45177 -4.282989,4.274786 -2.285904,1.223378 -3.517943,0.962668 -6.752784,-1.428954 l -3.956747,-2.925349 -2.601931,2.792845 c -3.403961,3.653724 -5.887208,3.524902 -9.927096,-0.514988 l -3.307832,-3.307832 -2.626578,4.307832 c -1.444617,2.369308 -2.62882,4.964842 -2.631561,5.76785 -0.01307,3.808341 -8.490772,7.60975 -11.1160952,4.984428 z M 141.48823,40.383347 C 137.02708,38.185692 132.09408,30.163 132.02929,25 c -0.0161,-1.283333 -0.3504,-2.333333 -0.74286,-2.333333 -1.28099,0 -7.87345,4.413344 -11.4577,7.670382 -3.19073,2.899447 -5.67434,3.942448 -10.06682,4.227603 -0.86429,0.05611 -2.36429,0.873659 -3.33334,1.81678 -3.0581,2.976283 -11.936624,4.537724 -27.542102,4.843755 C 63.575815,41.525435 56.58408,40.519888 41.824973,35.895029 37.328707,34.486097 32.46873,33.333333 31.025023,33.333333 28.472949,33.333333 17.10948,26.010081 16.22662,23.796419 15.984595,23.189569 12.984595,20.002252 9.5599538,16.713492 4.3312425,11.692243 3.570333,10.354587 4.8121321,8.3669643 6.1907072,6.1604176 10.257121,5.9943725 64.812133,5.9169659 c 70.120177,-0.099492 76.547827,0.3402812 82.084707,5.6161361 5.31366,5.063162 7.76983,11.308491 7.76983,19.756413 0,5.053144 -0.66901,7.569301 -2.43832,9.170501 -3.03871,2.749993 -5.031,2.735771 -10.74012,-0.07667 z m 2.54859,-17.6479 c -1.52446,-2.848448 -5.37015,-3.789767 -5.37015,-1.314459 0,2.010452 2.78955,7.063767 4.53293,8.211485 2.04695,1.34756 2.63906,-3.530254 0.83722,-6.897026 z"
       id="path1232" />
  </g>
</svg>
