<?xml version="1.0" encoding="UTF-8" standalone="no"?>
<!-- Created with Inkscape (http://www.inkscape.org/) -->

<svg
   version="1.1"
   id="svg22"
   width="160"
   height="156"
   viewBox="0 0 160 156"
   sodipodi:docname="0195.svg"
   inkscape:version="1.1.2 (0a00cf5339, 2022-02-04)"
   xmlns:inkscape="http://www.inkscape.org/namespaces/inkscape"
   xmlns:sodipodi="http://sodipodi.sourceforge.net/DTD/sodipodi-0.dtd"
   xmlns="http://www.w3.org/2000/svg"
   xmlns:svg="http://www.w3.org/2000/svg">
  <defs
     id="defs26" />
  <sodipodi:namedview
     id="namedview24"
     pagecolor="#ffffff"
     bordercolor="#666666"
     borderopacity="1.0"
     inkscape:pageshadow="2"
     inkscape:pageopacity="0.0"
     inkscape:pagecheckerboard="0"
     showgrid="false"
     inkscape:zoom="5.5961538"
     inkscape:cx="31.450172"
     inkscape:cy="77.910653"
     inkscape:window-width="2560"
     inkscape:window-height="1299"
     inkscape:window-x="0"
     inkscape:window-y="32"
     inkscape:window-maximized="1"
     inkscape:current-layer="g28" />
  <g
     inkscape:groupmode="layer"
     inkscape:label="Image"
     id="g28">
    <path
       style="fill:#000000;stroke-width:1.33333"
       d="m 109.70584,148.25844 c -1.18412,-0.75236 -1.52381,-6.06016 -1.24693,-19.48358 0.33931,-16.44986 0.66022,-18.65423 2.96082,-20.33831 2.63045,-1.92553 8.07492,-1.39498 10.55059,1.02812 1.65219,1.6171 2.05271,34.40753 0.45848,37.53533 -1.25051,2.45344 -9.55013,3.27436 -12.72296,1.25844 z M 34.16128,145 c -1.510436,-2.38465 -1.721856,-6.32784 -1.030737,-19.22425 0.478201,-8.92333 1.169457,-16.51982 1.536124,-16.88108 0.366666,-0.36127 2.766666,-1.04383 5.333333,-1.51681 8.361947,-1.54094 9.214192,0.23164 9.594463,19.95547 0.183801,9.53334 -0.135172,18.08334 -0.70883,19 C 48.307111,147.25777 45.219344,148 41.952048,148 c -4.656833,0 -6.288556,-0.62833 -7.790768,-3 z M 27.333333,52.688381 C 26.6,52.402667 22.461899,51.470069 18.137553,50.615943 7.5518411,48.525097 4,44.931887 4,36.313724 4,30.863544 4.6576777,29.16688 8.15821,25.586451 l 4.15821,-4.253118 39.508456,-0.18566 c 56.476024,-0.265394 75.211334,0.165836 77.151214,1.77579 2.16677,1.798262 2.09196,5.102484 -0.18342,8.101069 -1.65322,2.17868 -5.80036,2.373732 -54.571142,2.56664 -39.71348,0.157081 -52.93424,0.605641 -53.39704,1.811679 -0.852081,2.22049 16.051247,3.324374 49.175512,3.211442 66.44417,-0.226532 67.33333,-0.332722 67.33333,-8.041449 0,-9.201688 -10.09628,-15.579129 -22.23172,-14.042948 -3.53922,0.448017 -9.73494,0.726401 -13.76828,0.618631 C 97.3,17.040757 93.1,16.960815 92,16.970876 60.598564,17.258107 9.5764733,17.557412 8.3333333,17.46168 5.7965045,17.266324 6.3454987,10.037287 9.0854748,7.5576421 11.250433,5.5983824 17.824133,5.3605752 71.722813,5.2917027 c 39.630167,-0.05064 62.069837,0.4215596 65.633417,1.381128 2.97818,0.8019418 7.34138,3.1782656 9.69598,5.2807193 4.23376,3.780355 4.28612,3.977557 4.73271,17.826326 0.43621,13.52694 0.34316,14.074731 -2.73355,16.090668 -1.75184,1.147843 -5.85505,2.405484 -9.11826,2.794759 C 136.66991,49.054577 129.5,49.932425 124,50.616076 c -5.5,0.683651 -27.201987,1.238513 -48.226636,1.233028 -21.024649,-0.0055 -40.224649,0.297992 -42.666667,0.674393 -2.442017,0.3764 -5.04003,0.450599 -5.773364,0.164884 z"
       id="path1093" />
  </g>
</svg>
