<?xml version="1.0" encoding="UTF-8" standalone="no"?>
<!-- Created with Inkscape (http://www.inkscape.org/) -->

<svg
   version="1.1"
   id="svg32"
   width="70.666664"
   height="73.333336"
   viewBox="0 0 70.666664 73.333336"
   sodipodi:docname="0196.svg"
   inkscape:version="1.1.2 (0a00cf5339, 2022-02-04)"
   xmlns:inkscape="http://www.inkscape.org/namespaces/inkscape"
   xmlns:sodipodi="http://sodipodi.sourceforge.net/DTD/sodipodi-0.dtd"
   xmlns="http://www.w3.org/2000/svg"
   xmlns:svg="http://www.w3.org/2000/svg">
  <defs
     id="defs36" />
  <sodipodi:namedview
     id="namedview34"
     pagecolor="#ffffff"
     bordercolor="#666666"
     borderopacity="1.0"
     inkscape:pageshadow="2"
     inkscape:pageopacity="0.0"
     inkscape:pagecheckerboard="0"
     showgrid="false"
     inkscape:zoom="11.904545"
     inkscape:cx="12.516228"
     inkscape:cy="36.624667"
     inkscape:window-width="2560"
     inkscape:window-height="1299"
     inkscape:window-x="0"
     inkscape:window-y="32"
     inkscape:window-maximized="1"
     inkscape:current-layer="g38" />
  <g
     inkscape:groupmode="layer"
     inkscape:label="Image"
     id="g38">
    <path
       style="fill:#000000;stroke-width:1.33333"
       d="m 12.873316,65.561681 c -3.5902468,-3.967177 -2.615663,-6.589747 5.126683,-13.795706 7.510836,-6.990488 9.128121,-10.385023 5,-10.494547 -1.283333,-0.03405 -5.933333,-1.998189 -10.333333,-4.36476 -7.4184881,-3.990084 -7.9999995,-4.639785 -7.9999995,-8.938094 0,-3.952478 0.4909932,-4.692072 3.3333332,-5.02107 1.9949614,-0.230917 6.4694893,1.504777 11.1442073,4.322896 4.295981,2.589801 8.345981,4.378014 9,3.973809 0.654019,-0.404207 1.189125,-5.366007 1.189125,-11.026223 0,-7.156476 0.632248,-11.1939637 2.075605,-13.2546441 4.277026,-6.10630911 10.680539,-2.2317639 10.205003,6.1746951 -0.151268,2.67408 -0.456384,8.014341 -0.678038,11.867247 -0.374784,6.514728 -0.211584,6.949897 2.330546,6.214376 1.503453,-0.434999 5.231637,-2.537376 8.284854,-4.67195 8.844152,-6.183148 15.838754,-4.504583 14.878373,3.570512 -0.464429,3.905014 -0.557595,3.972733 -12.407586,9.018727 -4.38785,1.868446 -8.165964,3.961341 -8.395809,4.650875 -0.229846,0.689536 3.210213,4.40934 7.644575,8.26623 8.494109,7.387952 9.615433,10.127242 5.624155,13.739298 -4.3028,3.893981 -7.478675,2.632145 -14.362473,-5.706484 -9.508044,-11.517489 -8.341256,-11.648138 -20.062526,2.246468 -5.20271,6.167385 -8.185445,6.997735 -11.596695,3.228345 z"
       id="path954" />
  </g>
</svg>
