<?xml version="1.0" encoding="UTF-8" standalone="no"?>
<!-- Created with Inkscape (http://www.inkscape.org/) -->

<svg
   version="1.1"
   id="svg42"
   width="164"
   height="158.66667"
   viewBox="0 0 164 158.66667"
   sodipodi:docname="0197.svg"
   inkscape:version="1.1.2 (0a00cf5339, 2022-02-04)"
   xmlns:inkscape="http://www.inkscape.org/namespaces/inkscape"
   xmlns:sodipodi="http://sodipodi.sourceforge.net/DTD/sodipodi-0.dtd"
   xmlns="http://www.w3.org/2000/svg"
   xmlns:svg="http://www.w3.org/2000/svg">
  <defs
     id="defs46" />
  <sodipodi:namedview
     id="namedview44"
     pagecolor="#ffffff"
     bordercolor="#666666"
     borderopacity="1.0"
     inkscape:pageshadow="2"
     inkscape:pageopacity="0.0"
     inkscape:pagecheckerboard="0"
     showgrid="false"
     inkscape:zoom="5.5021007"
     inkscape:cx="32.714778"
     inkscape:cy="79.242461"
     inkscape:window-width="2560"
     inkscape:window-height="1299"
     inkscape:window-x="0"
     inkscape:window-y="32"
     inkscape:window-maximized="1"
     inkscape:current-layer="g48" />
  <g
     inkscape:groupmode="layer"
     inkscape:label="Image"
     id="g48">
    <path
       style="fill:#000000;stroke-width:1.33333"
       d="m 7.5399835,150.89502 c -3.3161202,-3.66427 -2.7142032,-5.37016 2.7933495,-7.91659 5.851164,-2.70529 14.599926,-10.38973 27.64132,-24.27861 5.147275,-5.48176 19.25868,-19.644559 31.35868,-31.472881 12.1,-11.828321 29.2,-28.569083 37.999997,-37.201693 8.8,-8.632609 17.65,-17.207759 19.66667,-19.055887 2.01667,-1.848128 3.66667,-4.172286 3.66667,-5.164796 0,-0.992509 1.35,-1.81375 3,-1.82498 2.42592,-0.01651 2.61728,-0.267751 1,-1.312916 -1.17738,-0.760879 -1.35251,-1.300897 -0.42579,-1.312916 2.58081,-0.03347 10.77363,-5.812521 12.40468,-8.75002 2.09603,-3.7748891 6.67912,-6.4790501 8.27543,-4.8827442 0.70029,0.7002927 1.07956,3.2876972 0.8428,5.7497882 -0.3638,3.783377 -1.61398,5.258108 -8.07388,9.524147 -4.20388,2.776189 -8.5601,6.82026 -9.68047,8.986823 -1.12037,2.166562 -3.36845,4.651752 -4.99573,5.522645 -3.43514,1.838431 -3.43125,1.834551 -13.0326,13.006706 -4.02295,4.681102 -11.81444,11.840088 -17.31444,15.908856 C 93.733549,73.028458 52.285571,113.41633 42,125.53495 c -22.778755,26.83831 -23.747368,27.79839 -28.045472,27.79839 -2.383217,0 -5.1647681,-1.05734 -6.4145445,-2.43832 z m 21.8673765,1.15073 c -3.057699,-1.88976 -0.416988,-7.79579 5.020385,-11.22825 2.774211,-1.75128 6.812872,-5.40808 8.974804,-8.12622 2.161931,-2.71813 15.630784,-16.78215 29.930784,-31.25336 14.3,-14.47122 28.548467,-28.964793 31.663257,-32.207945 3.11478,-3.243152 6.26435,-6.49664 6.99904,-7.229974 C 123.89896,50.118552 140,32.961034 140,32.158099 c 0,-1.967621 15.10437,-12.253723 16.27488,-11.083217 1.91699,1.916988 -0.3246,12.258452 -2.65711,12.258452 -1.7563,0 -8.6013,6.396419 -16.52508,15.442111 -1.23234,1.406839 -6.62003,6.457889 -11.97262,11.224556 -5.3526,4.766667 -13.10538,11.966667 -17.22841,16.000001 -4.12303,4.033333 -10.572477,10.195334 -14.332099,13.693336 -3.759621,3.498001 -7.59855,7.797489 -8.530952,9.554417 -0.932401,1.756925 -4.845276,5.695965 -8.695276,8.753425 -3.85,3.05745 -7.000834,5.95796 -7.001856,6.44558 -0.001,0.48762 -4.651021,5.74277 -10.333333,11.67811 -5.682312,5.93535 -12.611391,13.58541 -15.397953,17.00015 -5.654291,6.92892 -11.485423,10.59401 -14.192831,8.92073 z m 48.395683,-0.74488 c -0.520234,-1.35571 3.360746,-6.24739 11.655418,-14.69077 6.839443,-6.96206 13.550949,-14.42025 14.914449,-16.57376 1.3635,-2.1535 3.48739,-4.26195 4.71976,-4.68545 1.23236,-0.42349 4.34066,-3.47916 6.90733,-6.79038 2.56667,-3.31122 8.63543,-9.565112 13.48614,-13.897531 4.85071,-4.332418 11.96162,-11.749892 15.80202,-16.483273 8.37561,-10.323122 12.04517,-12.03005 12.04517,-5.602916 0,5.229932 -5.31309,12.567141 -12.21164,16.863875 -2.68308,1.671141 -5.68308,4.21858 -6.66666,5.660977 -0.9836,1.442396 -10.63836,11.593618 -21.45503,22.558268 -10.81667,10.96464 -19.666667,20.50241 -19.666667,21.19503 0,0.69262 -2.782105,4.2336 -6.182456,7.86885 -6.356106,6.7952 -11.782612,8.65599 -13.347834,4.57708 z M 95,152.4503 c -2.816919,-1.13666 -1.861661,-4.09768 2.37082,-7.34888 2.220617,-1.70578 6.87062,-5.99138 10.33333,-9.52354 C 137.11988,105.57216 148,94.113391 148,93.138909 c 0,-0.626399 1.21375,-2.352658 2.69723,-3.836131 2.14229,-2.142295 3.23957,-2.406966 5.33333,-1.286423 5.58956,2.991442 3.25357,7.03626 -12.78291,22.133945 -8.48045,7.984 -16.69693,16.61637 -18.25883,19.18304 -2.92945,4.81396 -4.03673,6.15869 -12.77365,15.51288 -7.30109,7.8169 -11.7823,9.79629 -17.21517,7.60408 z m 17.47488,0.0472 c -2.64082,-1.0828 -0.44923,-5.35012 5.64326,-10.98823 3.23503,-2.99377 5.88186,-6.04265 5.88186,-6.77533 0,-0.73267 1.82459,-2.27565 4.05464,-3.42886 4.63135,-2.39497 18.29236,-15.50046 21.86068,-20.97174 4.13204,-6.33562 10.19788,-3.64479 7.54031,3.34491 -1.22522,3.22241 -18.4485,20.07541 -24.45563,23.92986 -2.01667,1.29399 -3.66667,3.27751 -3.66667,4.40783 0,1.13032 -1.8964,4.13914 -4.21423,6.68626 -3.9978,4.39328 -8.14775,5.63892 -12.64422,3.79528 z m 18.45845,-0.76416 c -2.59982,-2.59983 -1.86708,-4.7027 2.73334,-7.84432 2.38333,-1.62758 8.03353,-6.55174 12.55598,-10.94258 5.52091,-5.36023 8.91618,-7.71722 10.33334,-7.17341 3.78589,1.45279 2.30334,7.07934 -3.85846,14.64359 -8.94462,10.98046 -17.59994,15.48097 -21.7642,11.31672 z M 148,152.01883 c -1.67436,-1.06631 -1.31388,-1.96203 2.21407,-5.50135 2.67093,-2.67954 4.9901,-3.92985 6.33333,-3.41441 2.8956,1.11115 2.66081,4.35539 -0.5474,7.5636 -2.936,2.936 -4.97247,3.2802 -8,1.35216 z m -84.333333,-2.27127 c -3.373832,-0.88166 -2.885778,-2.50593 1.743433,-5.80222 2.242223,-1.5966 3.777817,-3.20187 3.412433,-3.56724 -0.365384,-0.36539 2.872596,-3.74994 7.195512,-7.52122 4.322915,-3.77128 11.33732,-10.72468 15.587567,-15.45199 4.250247,-4.72731 13.946148,-14.92731 21.546438,-22.666667 7.6003,-7.739356 16.76262,-17.671555 20.36071,-22.071555 8.084,-9.885688 7.16319,-8.952113 15.13649,-15.346092 3.65708,-2.932702 7.25708,-5.114286 8,-4.847964 2.94838,1.056941 0.59784,9.262624 -4.01316,14.009879 -2.54985,2.6252 -4.63609,5.200152 -4.63609,5.722117 0,0.521964 -1.19488,1.328267 -2.65529,1.791784 -3.30267,1.048227 -32.39362,29.729068 -50.042411,49.336948 -17.772767,19.74561 -25.501239,27.3638 -27.57214,27.17866 -0.951587,-0.0851 -2.780159,-0.42906 -4.063492,-0.76444 z m -11.135662,-2.74461 c -4.753334,-0.79712 -2.346588,-5.96468 7.486619,-16.07466 5.001204,-5.14196 10.112192,-10.90436 11.357751,-12.80532 1.245558,-1.90097 2.704676,-3.4563 3.242482,-3.4563 1.439631,0 52.048813,-50.397434 52.048813,-51.831041 0,-1.691829 6.5749,-8.399389 11.00456,-11.226605 2.01918,-1.288731 5.19044,-4.749714 7.04724,-7.691072 4.00912,-6.350863 11.29057,-11.36953 12.87589,-8.874585 3.52087,5.54105 -3.72301,16.239318 -19.22343,28.39046 -10.07714,7.899712 -16.96199,14.310035 -29.96478,27.899508 -4.21004,4.4 -14.573717,14.932935 -23.030386,23.406515 -16.875321,16.90908 -22.709097,23.33115 -22.709097,24.99915 0,2.37536 -7.449723,7.71436 -10.135662,7.26395 z M 5.3864351,139.39732 c -3.1013922,-3.73694 0.7917445,-8.92473 14.3914889,-19.17731 6.105992,-4.60318 37.550755,-35.546143 37.583877,-36.984102 0.01565,-0.679749 2.271223,-2.820997 5.012367,-4.758329 2.741143,-1.937333 7.370231,-7.037333 10.286863,-11.333334 2.91663,-4.296001 5.911066,-8.21283 6.654301,-8.704066 2.509275,-1.65849 14.257333,-12.388541 22.497078,-20.54763 4.50317,-4.459099 10.1611,-8.959099 12.57317,-10 2.5075,-1.082082 4.71037,-3.176336 5.144,-4.890362 0.41712,-1.648797 3.97741,-5.939797 7.91174,-9.535553 6.32473,-5.7804533 7.96833,-6.6009229 14.18933,-7.0831956 3.86982,-0.2999999 7.24808,-0.3969371 7.50727,-0.2154159 1.11597,0.7815603 -12.55071,12.7746075 -16.38107,14.3750335 -2.31648,0.967886 -5.34446,3.491653 -6.72885,5.608369 -1.38439,2.116717 -3.15704,4.504512 -3.93921,5.30621 -0.78217,0.801699 -3.9686,4.234467 -7.08095,7.628374 -3.11236,3.393907 -7.44371,7.093733 -9.62522,8.221836 -2.18151,1.128103 -6.835032,5.152043 -10.341165,8.94209 -3.506134,3.790046 -7.563894,7.834285 -9.017246,8.987197 -1.453352,1.152911 -7.0079,6.446203 -12.34344,11.76287 -5.33554,5.316666 -10.224157,9.666666 -10.863593,9.666666 -0.639436,0 -3.439817,2.850001 -6.223071,6.333334 -2.783252,3.483333 -13.355529,14.657168 -23.493949,24.830748 -10.138419,10.17357 -18.433489,19.2536 -18.433489,20.17783 0,0.92422 -1.35,2.0422 -3,2.48437 -4.2000155,1.12556 -4.4768914,1.07727 -6.2802319,-1.09563 z m 0.8357872,-14.95287 c -2.3291675,-2.32917 -0.6455188,-8.06924 3.4444444,-11.74315 3.9333983,-3.53328 4.0872203,-3.9431 1.6666663,-4.44039 -3.2395355,-0.66556 -5.9999997,-2.77824 -5.9999997,-4.59201 0,-1.55041 21.3878157,-22.751966 27.8819097,-27.639097 2.414381,-1.816943 5.537516,-5.74523 6.940301,-8.729526 1.402785,-2.984297 5.091655,-7.497384 8.197487,-10.029084 6.173462,-5.032256 22.044541,-20.811511 31.885628,-31.701148 3.431261,-3.796858 6.766165,-6.903378 7.410896,-6.903378 0.644732,0 2.937334,-2.376619 5.094676,-5.281375 4.486574,-6.04096 9.702289,-8.7309455 14.563219,-7.5109291 4.66968,1.1720139 4.22544,2.8916434 -2.21046,8.5565311 C 97.387576,21.216743 84,34.514366 84,35.386134 c 0,0.672123 -6.089989,6.797688 -13.464357,13.543015 -1.761271,1.611031 -6.736615,6.561031 -11.05632,11 -4.319706,4.438968 -8.259912,8.070852 -8.756015,8.070852 -0.496101,0 -7.161797,6.404471 -14.812656,14.232159 C 28.259793,90.059847 20.35,97.993458 18.333333,99.862406 13.040117,104.7679 13.530809,107.65222 19,103.78111 22.933779,100.99677 48.192132,75.942006 58.002524,65.092953 60.203912,62.658496 65.003912,57.956836 68.669191,54.644818 72.334469,51.332802 76.533333,47.322405 78,45.732826 79.466667,44.143246 89.275883,34.283201 99.798256,23.821614 118.88896,4.8411982 118.9374,4.804786 122.46492,6.7847327 124.40922,7.8760358 126,9.4262185 126,10.229583 c 0,1.682045 -14.56151,17.770418 -16.08392,17.770418 -0.55635,0 -2.56507,1.687477 -4.46381,3.74995 -1.89875,2.062474 -5.36678,5.078063 -7.706749,6.70131 -2.339962,1.623247 -4.630394,4.135769 -5.089849,5.583383 -0.459455,1.447613 -1.625933,2.632024 -2.592176,2.632024 -0.966241,0 -2.712113,1.457988 -3.879716,3.239974 -1.167601,1.781986 -3.937377,4.311806 -6.155059,5.621822 -2.21768,1.310016 -4.330605,3.322208 -4.695388,4.471537 -0.364782,1.14933 -2.614012,3.23588 -4.998288,4.636778 -4.364081,2.564146 -41.460109,39.565601 -53.444641,53.308381 -6.098328,6.99302 -8.6313063,8.53616 -10.6681817,6.49929 z m 0,-33.333337 C 4.8041276,89.693018 5.27222,84.850056 7.0424045,82.625371 c 0.8933442,-1.122713 5.2242625,-4.93718 9.6242625,-8.476592 4.4,-3.539411 9.775525,-8.620827 11.945612,-11.292035 2.170086,-2.671209 5.09511,-5.756743 6.500052,-6.856743 1.404941,-1.1 4.729416,-4.316036 7.387721,-7.146747 2.658304,-2.83071 7.49734,-7.63071 10.753411,-10.666667 C 63.695531,28.450417 78.52302,12.64264 80.666667,8.9610162 81.4,7.7015471 83.894673,6.3061465 86.210384,5.860126 c 3.341493,-0.6435926 4.502627,-0.2648863 5.626504,1.8350963 1.449744,2.7088707 1.365755,2.8058447 -21.678159,25.0296187 -1.553968,1.498661 -5.879194,5.998661 -9.611613,10 -3.73242,4.001337 -9.333387,9.624055 -12.446593,12.494927 -3.113206,2.870871 -6.578414,6.620871 -7.700462,8.333333 -1.122048,1.712462 -2.798732,3.113567 -3.725965,3.113567 -1.920477,0 -8.946008,6.672528 -18.674096,17.735804 -6.166526,7.012887 -9.5476424,8.938777 -11.7777777,6.708641 z M 5.6,73.066668 c -2.5581592,-2.558159 -2.0305241,-9.066667 0.7350212,-9.066667 2.460376,0 20.4491828,-15.816207 29.1647878,-25.64241 0.824896,-0.930008 3.824896,-3.829102 6.666667,-6.44243 2.841772,-2.61333 6.704016,-6.51333 8.582764,-8.666667 1.878749,-2.153339 5.051729,-5.11516 7.051067,-6.581827 1.999336,-1.466667 4.743377,-4.534354 6.097868,-6.8170829 2.821538,-4.755152 8.880449,-6.9757214 11.603521,-4.2526496 2.301237,2.3012375 0.897563,7.4299785 -2.312324,8.4487575 -1.387488,0.440371 -2.522705,1.563934 -2.522705,2.496806 0,0.93287 -1.397726,2.332976 -3.106056,3.111342 -1.708332,0.778368 -5.758332,4.509258 -9,8.290865 -8.650948,10.091866 -27.140054,28.055296 -28.876296,28.055296 -0.599042,0 -5.256983,4.2 -10.350982,9.333334 C 9.7745251,74.965955 8.318938,75.785607 5.6,73.066668 Z M 4,61.154695 c 0,-5.656463 3.6465413,-12.295102 9.215944,-16.777906 3.364564,-2.708133 7.017389,-6.068484 8.117389,-7.467446 1.1,-1.398961 3.468751,-3.825865 5.263892,-5.393121 1.79514,-1.567255 5.91222,-5.399555 9.149067,-8.516222 3.236847,-3.116666 6.418096,-5.666666 7.069443,-5.666666 C 43.46708,17.333334 44,16.543818 44,15.578855 44,14.613892 46.2986,12.532491 49.107999,10.95352 53.005636,8.7629258 54.585331,8.4519974 55.774665,9.6413323 58.602127,12.468793 57.433661,14.514992 47.78184,23.638246 42.528519,28.603878 31.441316,39.416667 23.143612,47.666668 9.3232703,61.407556 4,65.158175 4,61.154695 Z M 14.582229,34.213665 C 9.7480776,31.812509 9.5637639,27.003817 14.24088,25.307969 19.996293,23.221148 23.824268,21.084048 25.952133,18.769754 37.092149,6.6537361 40.722819,4.5048272 45.994863,6.9069312 48.569256,8.0799031 48.979551,8.8197145 47.82632,10.209272 47.008925,11.194173 45.513615,12 44.503407,12 c -1.010207,0 -1.83674,0.804643 -1.83674,1.788095 0,0.983452 -2.914116,3.374156 -6.475814,5.312675 -3.702905,2.015373 -7.97681,5.79274 -9.981222,8.821611 -4.517591,6.82654 -7.404748,8.388705 -11.627402,6.291284 z M 6.6600744,26.000001 C 6.5406592,25.266667 6.3432908,21.966667 6.2214779,18.666667 6.0059173,12.826973 6.1589489,12.586514 11.949186,9.6666669 16.074661,7.5863108 20.264151,6.6666668 25.615853,6.6666668 c 4.244614,0 7.71748,0.2727273 7.71748,0.6060607 0,1.0627579 -6.30321,6.9548925 -10.895164,10.1846145 -2.440993,1.716857 -5.231026,3.891306 -6.200074,4.832108 -0.969047,0.940802 -3.169047,1.710551 -4.888889,1.710551 -1.7198409,0 -3.4296153,0.75 -3.7994984,1.666666 -0.3698831,0.916667 -0.770218,1.066667 -0.8896332,0.333334 z"
       id="path815" />
  </g>
</svg>
