<?xml version="1.0" encoding="UTF-8" standalone="no"?>
<!-- Created with Inkscape (http://www.inkscape.org/) -->

<svg
   version="1.1"
   id="svg52"
   width="161.33333"
   height="148"
   viewBox="0 0 161.33333 148"
   sodipodi:docname="0198.svg"
   inkscape:version="1.1.2 (0a00cf5339, 2022-02-04)"
   xmlns:inkscape="http://www.inkscape.org/namespaces/inkscape"
   xmlns:sodipodi="http://sodipodi.sourceforge.net/DTD/sodipodi-0.dtd"
   xmlns="http://www.w3.org/2000/svg"
   xmlns:svg="http://www.w3.org/2000/svg">
  <defs
     id="defs56" />
  <sodipodi:namedview
     id="namedview54"
     pagecolor="#ffffff"
     bordercolor="#666666"
     borderopacity="1.0"
     inkscape:pageshadow="2"
     inkscape:pageopacity="0.0"
     inkscape:pagecheckerboard="0"
     showgrid="false"
     inkscape:zoom="5.8986486"
     inkscape:cx="34.584192"
     inkscape:cy="73.915235"
     inkscape:window-width="2560"
     inkscape:window-height="1299"
     inkscape:window-x="0"
     inkscape:window-y="32"
     inkscape:window-maximized="1"
     inkscape:current-layer="g58" />
  <g
     inkscape:groupmode="layer"
     inkscape:label="Image"
     id="g58">
    <path
       style="fill:#000000;stroke-width:1.33333"
       d="m 38.666666,138.63204 c -16.654728,-3.55407 -19.63787,-4.27209 -23.333333,-5.61628 -8.1517862,-2.96511 -11.0038175,-8.08291 -6.5597765,-11.77114 1.7300945,-1.43585 2.8627445,-1.43969 6.3333325,-0.0215 21.572052,8.8151 36.816131,10.36625 68.226443,6.94232 C 100.82037,126.25925 128,116.79475 128,112.61161 c 0,-1.82032 -5.65869,-7.27828 -7.54595,-7.27828 -2.31124,0 -6.15638,-5.11523 -5.37527,-7.15077 0.40454,-1.054219 3.92731,-4.035493 7.82837,-6.625053 3.90107,-2.589562 9.95338,-7.449367 13.44959,-10.799567 3.49622,-3.3502 7.39622,-6.088407 8.66667,-6.084903 1.27045,0.0035 4.60076,2.110324 7.40067,4.681826 7.04813,6.47316 6.37128,9.694821 -2.65294,12.627388 C 140.89401,94.867016 136,98.112496 136,101.11462 c 0,2.73115 5.29881,8.01149 11.72786,11.68696 3.822,2.18503 4.34312,3.11687 4,7.15262 -0.3894,4.57983 -0.55954,4.69901 -13.0612,9.14852 -6.96666,2.47953 -14.61666,5.04577 -17,5.70276 -2.38333,0.65699 -6.58333,1.81087 -9.33333,2.56419 -6.76767,1.85389 -66.127947,2.8711 -73.666664,1.26237 z M 49.602792,67.207455 C 45.742631,64.385439 48.705842,59.286604 56.391235,55.526491 65.833483,50.906829 68.171224,48.152121 74.659361,34 80.8306,20.539109 85.52406,14.963733 95.496763,9.2471855 102.30794,5.3428851 108.65012,4.9514345 112.79361,8.1795923 c 1.7215,1.3411994 0.93973,57.1059487 -0.8269,58.9844007 -1.66501,1.770402 -59.946124,1.811018 -62.363918,0.04347 z"
       id="path676" />
  </g>
</svg>
