<?xml version="1.0" encoding="UTF-8" standalone="no"?>
<!-- Created with Inkscape (http://www.inkscape.org/) -->

<svg
   version="1.1"
   id="svg62"
   width="161.33333"
   height="152"
   viewBox="0 0 161.33333 152"
   sodipodi:docname="0199.svg"
   inkscape:version="1.1.2 (0a00cf5339, 2022-02-04)"
   xmlns:inkscape="http://www.inkscape.org/namespaces/inkscape"
   xmlns:sodipodi="http://sodipodi.sourceforge.net/DTD/sodipodi-0.dtd"
   xmlns="http://www.w3.org/2000/svg"
   xmlns:svg="http://www.w3.org/2000/svg">
  <defs
     id="defs66" />
  <sodipodi:namedview
     id="namedview64"
     pagecolor="#ffffff"
     bordercolor="#666666"
     borderopacity="1.0"
     inkscape:pageshadow="2"
     inkscape:pageopacity="0.0"
     inkscape:pagecheckerboard="0"
     showgrid="false"
     inkscape:zoom="5.7434211"
     inkscape:cx="33.429553"
     inkscape:cy="75.912944"
     inkscape:window-width="2560"
     inkscape:window-height="1299"
     inkscape:window-x="0"
     inkscape:window-y="32"
     inkscape:window-maximized="1"
     inkscape:current-layer="g68" />
  <g
     inkscape:groupmode="layer"
     inkscape:label="Image"
     id="g68">
    <path
       style="fill:#000000;stroke-width:1.33333"
       d="m 5.3167662,144.78343 c -0.7242215,-0.72422 -1.3167663,-8.28208 -1.3167663,-16.79526 0,-17.86724 1.0654101,-20.52123 8.1470261,-20.29459 2.485802,0.0795 35.107164,0.51815 72.491915,0.97466 50.257519,0.6137 68.234789,1.24289 68.979579,2.41422 0.55402,0.87131 1.0165,4.64619 1.02773,8.38862 0.0107,3.74243 0.35148,10.34243 0.75611,14.66667 0.40493,4.32746 0.14305,8.73558 -0.58251,9.80477 -1.12611,1.65944 -12.01957,1.9582 -74.752262,2.05011 -46.709945,0.0684 -73.9132529,-0.37163 -74.7508218,-1.2092 z m 46.4267078,-11.1878 c 1.692244,-1.10164 4.233669,-4.27061 5.647613,-7.04217 1.413942,-2.77156 3.289553,-5.48341 4.168024,-6.02633 3.384453,-2.09171 -4.095088,-3.00868 -25.286698,-3.10008 l -21.727587,-0.0937 0.394254,9 0.394253,9 L 24,136.11591 c 11.636843,1.05077 23.98037,-0.0705 27.743474,-2.52028 z m 91.923186,1.99234 c 2.04887,-1.32605 2.26346,-15.06176 0.2547,-16.30324 -1.91195,-1.18165 -32.88759,-2.24761 -36.05942,-1.24091 -1.39074,0.4414 -2.52861,1.55753 -2.52861,2.48028 0,0.92275 -1.55701,3.13232 -3.46002,4.91015 -1.903008,1.77783 -4.304804,4.8561 -5.337323,6.84059 l -1.877306,3.60817 9.670659,0.39183 c 18.13775,0.73489 37.66748,0.39388 39.33732,-0.68687 z M 73.547004,127 c 2.798484,-4.58333 4.823473,-8.33333 4.499977,-8.33333 -2.033049,0 -7.380316,3.35547 -7.380316,4.63123 0,0.84509 -1.8,3.26103 -4,5.36877 -4.753277,4.55393 -5.243193,7.70169 -1.103906,7.09273 1.899204,-0.2794 4.647528,-3.29455 7.984245,-8.7594 z m 9.677278,6.85735 c 1.159978,-0.44512 2.10905,-1.27454 2.10905,-1.84314 0,-0.5686 2.448846,-3.48266 5.441882,-6.4757 5.173532,-5.17353 5.887103,-8.20518 1.931287,-8.20518 -1.962528,0 -8.706503,7.38253 -8.706503,9.53088 0,0.72944 -0.9,2.22627 -2,3.32627 -1.865674,1.86567 -2.706873,4.47619 -1.442382,4.47619 0.306688,0 1.506688,-0.36419 2.666666,-0.80932 z M 138.22021,39.464657 c -3.15512,-3.155116 -5.09605,-6.81863 -6.37778,-12.038085 L 130,19.923831 119.38789,26.628583 c -5.83666,3.687613 -11.06888,6.70475 -11.62716,6.70475 -0.55827,0 -4.42762,1.560948 -8.598549,3.468772 -6.558674,3.000003 -9.762334,3.530974 -23.70618,3.929035 C 62.672619,41.096073 57.814471,40.698624 51.999999,38.812181 47.966666,37.503611 40.166666,34.985545 34.666666,33.21648 29.166666,31.447416 24.366666,29.6651 24,29.255779 23.633333,28.846457 19.133333,24.998681 14,20.705168 8.8666665,16.411653 4.2157099,12.148118 3.6645407,11.230645 0.77387454,6.4188601 7.7672476,3.0504869 17.303169,4.6615705 c 2.884877,0.487397 31.821842,0.9926575 64.304364,1.1228011 56.695197,0.2271536 59.202527,0.3429419 62.641637,2.8927932 1.97037,1.4608922 4.58093,5.0561682 5.80125,7.9895022 1.22032,2.933333 3.05907,7.305522 4.08611,9.715976 1.68469,3.953953 1.60589,4.895141 -0.80561,9.622085 C 150.8209,40.924753 147.28273,44 144.13209,44 c -0.75709,0 -3.41744,-2.040904 -5.91188,-4.535343 z m 8.14565,-11.554116 C 146.8781,25.250705 142.32762,20 139.51026,20 c -2.77888,0 -2.74446,1.446975 0.1564,6.576644 2.40434,4.251644 5.99944,4.967475 6.6992,1.333897 z"
       id="path537" />
  </g>
</svg>
