<?xml version="1.0" encoding="UTF-8" standalone="no"?>
<!-- Created with Inkscape (http://www.inkscape.org/) -->

<svg
   version="1.1"
   id="svg72"
   width="53.333332"
   height="154.66667"
   viewBox="0 0 53.333332 154.66667"
   sodipodi:docname="0200.svg"
   inkscape:version="1.1.2 (0a00cf5339, 2022-02-04)"
   xmlns:inkscape="http://www.inkscape.org/namespaces/inkscape"
   xmlns:sodipodi="http://sodipodi.sourceforge.net/DTD/sodipodi-0.dtd"
   xmlns="http://www.w3.org/2000/svg"
   xmlns:svg="http://www.w3.org/2000/svg">
  <defs
     id="defs76" />
  <sodipodi:namedview
     id="namedview74"
     pagecolor="#ffffff"
     bordercolor="#666666"
     borderopacity="1.0"
     inkscape:pageshadow="2"
     inkscape:pageopacity="0.0"
     inkscape:pagecheckerboard="0"
     showgrid="false"
     inkscape:zoom="5.6443964"
     inkscape:cx="-21.43719"
     inkscape:cy="77.244752"
     inkscape:window-width="2560"
     inkscape:window-height="1299"
     inkscape:window-x="0"
     inkscape:window-y="32"
     inkscape:window-maximized="1"
     inkscape:current-layer="g78" />
  <g
     inkscape:groupmode="layer"
     inkscape:label="Image"
     id="g78">
    <path
       style="fill:#000000;stroke-width:1.33333"
       d="M 29.529446,145.06991 C 28.911041,143.38146 28.313135,127.3 28.200767,109.33334 28.088399,91.366669 27.612226,68.63996 27.142605,58.82954 26.308459,41.404204 26.208461,40.945898 22.811041,38.977674 18.459512,36.456707 9.0367735,24.962035 5.8789084,18.322394 3.5550064,13.43622 3.5633731,13.22043 6.2149348,9.6557269 9.9999168,4.5672768 14.016256,4.2910265 17.683044,8.8669321 c 1.640992,2.0478479 7.529259,8.3365829 13.085037,13.9749659 5.555778,5.638381 10.997771,11.655567 12.093318,13.37152 1.686997,2.64234 1.97762,11.385876 1.898585,57.119917 l -0.09332,54.000005 -7.006424,0.40324 c -6.280039,0.36142 -7.122993,0.0849 -8.130796,-2.66667 z"
       id="path398" />
  </g>
</svg>
