<?xml version="1.0" encoding="UTF-8" standalone="no"?>
<!-- Created with Inkscape (http://www.inkscape.org/) -->

<svg
   version="1.1"
   id="svg82"
   width="160"
   height="154.66667"
   viewBox="0 0 160 154.66667"
   sodipodi:docname="0201.svg"
   inkscape:version="1.1.2 (0a00cf5339, 2022-02-04)"
   xmlns:inkscape="http://www.inkscape.org/namespaces/inkscape"
   xmlns:sodipodi="http://sodipodi.sourceforge.net/DTD/sodipodi-0.dtd"
   xmlns="http://www.w3.org/2000/svg"
   xmlns:svg="http://www.w3.org/2000/svg">
  <defs
     id="defs86" />
  <sodipodi:namedview
     id="namedview84"
     pagecolor="#ffffff"
     bordercolor="#666666"
     borderopacity="1.0"
     inkscape:pageshadow="2"
     inkscape:pageopacity="0.0"
     inkscape:pagecheckerboard="0"
     showgrid="false"
     inkscape:zoom="5.6443964"
     inkscape:cx="31.890035"
     inkscape:cy="77.244752"
     inkscape:window-width="2560"
     inkscape:window-height="1299"
     inkscape:window-x="0"
     inkscape:window-y="32"
     inkscape:window-maximized="1"
     inkscape:current-layer="g88" />
  <g
     inkscape:groupmode="layer"
     inkscape:label="Image"
     id="g88">
    <path
       style="fill:#000000;stroke-width:1.33333"
       d="m 59.209537,146.82922 c -9.28081,-3.1669 -19.400512,-12.03211 -24.265162,-21.25713 -4.484146,-8.50346 -7.683724,-24.5463 -6.332258,-31.750241 2.758828,-14.705813 19.872831,-39.136344 27.438983,-39.169613 1.805228,-0.008 6.266071,-0.919519 9.912981,-2.025735 5.608811,-1.701317 8.762987,-1.771371 20.465575,-0.454539 9.461971,1.064707 14.530534,2.254195 16.035914,3.763299 1.2106,1.213596 5.54324,5.005374 9.62808,8.426172 4.84299,4.0557 8.78608,8.901909 11.33334,13.929101 3.50443,6.916253 3.90634,9.012721 3.90634,20.376135 0,15.926001 -2.98428,25.713271 -10.41402,34.153901 -6.65702,7.56278 -14.13297,12.36575 -22.868871,14.69225 -9.342424,2.48802 -26.534771,2.1507 -34.840902,-0.6836 z m 11.45713,-18.89543 c 0,-8.66224 2.965748,-14.60045 7.291968,-14.60045 4.2583,0 7.374698,4.66992 7.374698,11.05099 0,2.81838 0.592316,6.23107 1.316259,7.58377 2.903663,5.42554 17.013118,-3.03405 23.488068,-14.08271 1.90759,-3.25506 3.15379,-6.73801 2.76934,-7.73989 -0.45982,-1.19827 -3.70594,-2.01307 -9.48631,-2.38113 -10.248065,-0.65255 -13.584815,-2.93938 -12.220491,-8.37528 1.035036,-4.123915 1.388812,-4.26824 13.275531,-5.415848 l 9.14239,-0.882655 -0.84131,-4.206558 c -0.46273,-2.313608 -2.52002,-6.30899 -4.57176,-8.878627 -4.81156,-6.026058 -15.605666,-13.338734 -19.689069,-13.338734 -2.996684,0 -3.182648,0.461791 -3.182648,7.903227 0,6.928421 -0.428718,8.240456 -3.47583,10.637316 -6.261807,4.925538 -11.190836,-0.636204 -11.190836,-12.627343 0,-5.158833 -0.365115,-5.9132 -2.861994,-5.9132 -3.740869,0 -16.283068,8.364836 -19.523441,13.020874 -1.395509,2.005186 -3.16588,6.195793 -3.934155,9.31246 l -1.396864,5.666667 h 9.59156 c 10.560122,0 12.79156,1.201309 12.79156,6.886421 0,4.5493 -3.029384,6.33823 -11.26039,6.64956 -8.309324,0.3143 -11.127911,2.4214 -9.123543,6.8205 2.591439,5.68759 9.875891,13.00305 16.2595,16.32871 8.821429,4.5957 9.457767,4.36573 9.457767,-3.41807 z M 5.4834219,31.616755 C 4.6347843,30.768118 4,25.438453 4,19.161906 4,3.6550426 7.0569539,1.1617162 16.511373,8.957323 c 7.511728,6.193768 14.06619,8.620556 23.683331,8.768751 8.400121,0.12944 10.139484,-0.368976 21.472912,-6.153096 6.782811,-3.4616702 13.975163,-6.2817282 15.983004,-6.2667952 2.007841,0.014933 8.888481,3.0304864 15.290309,6.7012302 10.814641,6.201009 12.115281,6.621595 18.349381,5.933637 13.00045,-1.434654 14.99826,-2.02035 22.68984,-6.651978 9.63862,-5.804082 12.64825,-6.5906663 15.95516,-4.1699822 1.8546,1.3575869 2.5604,3.3713542 2.45722,7.0109502 -0.0796,2.808455 0.69951,6.311614 1.73136,7.784796 2.3244,3.318542 2.4312,8.241461 0.20944,9.654319 -2.74498,1.745587 -147.1057561,1.791752 -148.8499081,0.0476 z"
       id="path259" />
  </g>
</svg>
