<?xml version="1.0" encoding="UTF-8" standalone="no"?>
<!-- Created with Inkscape (http://www.inkscape.org/) -->

<svg
   version="1.1"
   id="svg92"
   width="154.66667"
   height="54.666668"
   viewBox="0 0 154.66667 54.666668"
   sodipodi:docname="0202.svg"
   inkscape:version="1.1.2 (0a00cf5339, 2022-02-04)"
   xmlns:inkscape="http://www.inkscape.org/namespaces/inkscape"
   xmlns:sodipodi="http://sodipodi.sourceforge.net/DTD/sodipodi-0.dtd"
   xmlns="http://www.w3.org/2000/svg"
   xmlns:svg="http://www.w3.org/2000/svg">
  <defs
     id="defs96" />
  <sodipodi:namedview
     id="namedview94"
     pagecolor="#ffffff"
     bordercolor="#666666"
     borderopacity="1.0"
     inkscape:pageshadow="2"
     inkscape:pageopacity="0.0"
     inkscape:pagecheckerboard="0"
     showgrid="false"
     inkscape:zoom="8.2887928"
     inkscape:cx="77.333336"
     inkscape:cy="27.386376"
     inkscape:window-width="2560"
     inkscape:window-height="1299"
     inkscape:window-x="0"
     inkscape:window-y="32"
     inkscape:window-maximized="1"
     inkscape:current-layer="g98" />
  <g
     inkscape:groupmode="layer"
     inkscape:label="Image"
     id="g98">
    <path
       style="fill:#000000;stroke-width:1.33333"
       d="M 16.11594,49.307229 C -0.65882943,46.805276 0.59225333,26.392309 17.779935,22.157086 22.473283,21.000597 124.79711,20.844553 126.6522,21.991055 c 1.68297,1.040135 1.77982,8.251235 0.12456,9.274244 -0.67279,0.415806 -25.08978,0.774843 -54.259985,0.797862 -53.787016,0.04244 -58.620367,0.462261 -55.036619,4.780412 2.002211,2.412516 108.449784,2.709111 113.700324,0.316801 4.37533,-1.993532 6.97163,-8.291072 5.3397,-12.951899 -2.57931,-7.366549 -20.66976,-11.591921 -40.520178,-9.464261 -6.233333,0.668118 -28.883334,1.198081 -50.333334,1.177696 L 6.6666668,15.884847 V 12.77235 c 0,-6.409125 0.017858,-6.4109013 66.3272212,-6.5972025 l 62.339452,-0.1751474 5.40873,3.1005563 c 6.94452,3.9809396 8.46472,6.5551306 9.39993,15.9170296 0.69792,6.986405 0.405,8.184668 -3.3811,13.831216 C 139.30344,49.970756 133.67266,50.838569 71.333335,50.473633 44.200001,50.314795 19.352174,49.789913 16.11594,49.307229 Z"
       id="path120" />
  </g>
</svg>
