<?xml version="1.0" encoding="UTF-8" standalone="no"?>
<!-- Created with Inkscape (http://www.inkscape.org/) -->

<svg
   version="1.1"
   id="svg2"
   width="162.66667"
   height="158.66667"
   viewBox="0 0 162.66667 158.66667"
   sodipodi:docname="0203.svg"
   inkscape:version="1.1.2 (0a00cf5339, 2022-02-04)"
   xmlns:inkscape="http://www.inkscape.org/namespaces/inkscape"
   xmlns:sodipodi="http://sodipodi.sourceforge.net/DTD/sodipodi-0.dtd"
   xmlns="http://www.w3.org/2000/svg"
   xmlns:svg="http://www.w3.org/2000/svg">
  <defs
     id="defs6" />
  <sodipodi:namedview
     id="namedview4"
     pagecolor="#ffffff"
     bordercolor="#666666"
     borderopacity="1.0"
     inkscape:pageshadow="2"
     inkscape:pageopacity="0.0"
     inkscape:pagecheckerboard="0"
     showgrid="false"
     inkscape:zoom="5.5021007"
     inkscape:cx="31.987783"
     inkscape:cy="79.242461"
     inkscape:window-width="2560"
     inkscape:window-height="1299"
     inkscape:window-x="0"
     inkscape:window-y="32"
     inkscape:window-maximized="1"
     inkscape:current-layer="g8" />
  <g
     inkscape:groupmode="layer"
     inkscape:label="Image"
     id="g8">
    <path
       style="fill:#000000;stroke-width:1.33333"
       d="m 18.831182,150.79656 c -1.949972,-1.23513 -2.371011,-7.34945 -1.816092,-26.37337 0.377409,-12.93848 -0.07968,-12.61366 17.750513,-12.61366 14.728351,0 16.453223,1.03526 15.519974,9.31502 -0.365516,3.24285 -0.110373,7.76645 0.56698,10.05244 1.564977,5.28161 0.157648,16.289 -2.411009,18.85765 -1.464072,1.46408 -5.25685,1.96015 -14.870119,1.94495 -7.097619,-0.0107 -13.73073,-0.5436 -14.740247,-1.18303 z m 92.190178,-4.4311 c -2.64689,-3.30999 3.16539,-11.85707 11.30833,-16.62916 6.66747,-3.9074 14.29322,-4.43176 21.25293,-1.4614 5.80553,2.47776 12.6541,11.3038 12.14725,15.65464 l -0.39653,3.4038 -21.47675,0.36545 c -16.15925,0.27496 -21.81311,-0.0552 -22.83523,-1.33333 z M 73.333335,100.98676 C 53.133844,98.491146 45.524736,96.731151 37.043433,92.592874 27.143585,87.762446 13.750002,77.978712 9.3100226,72.334194 l -2.869719,-3.648257 4.4465154,-0.966533 c 2.445583,-0.531593 32.765615,-1.080711 67.377849,-1.220261 l 62.931332,-0.253728 4.87882,3.721253 c 8.49661,6.480678 14.44116,24.398795 9.46477,28.528823 -0.98656,0.818771 -3.67955,1.865839 -5.98443,2.326809 -7.1898,1.43796 -12.91501,-4.423123 -15.45546,-15.822298 -1.02882,-4.616364 -2.37829,-4.597775 -8.51121,0.117253 -6.69398,5.146358 -25.742839,13.35911 -35.550332,15.327215 -5.261607,1.05587 -11.031806,1.24319 -16.704823,0.54229 z M 146.66667,87.481047 c 0,-1.752092 -1.18004,-4.602092 -2.62231,-6.333333 l -2.6223,-3.147712 -0.0444,2.9132 c -0.0607,3.989237 2.25754,9.753467 3.92268,9.753467 0.75148,0 1.36633,-1.43353 1.36633,-3.185622 z M 8.0467216,41.420634 C 6.3087288,38.173165 7.2185781,35.409482 16.196128,16.666667 21.965864,4.6209442 25.226841,3.6326301 29.463479,12.64569 l 2.891803,6.152045 2.908295,-2.7322 c 3.927608,-3.689797 7.966459,-3.439244 10.652951,0.660861 l 2.223221,3.393064 4.032427,-3.393064 C 57.021972,12.645562 60.725703,12.396543 62.976099,16 c 0.915948,1.466667 2.276704,2.666667 3.023902,2.666667 0.747199,0 2.107955,-1.2 3.023903,-2.666667 2.128409,-3.408125 6.234639,-3.408125 9.642764,0 3.177596,3.177596 5.738968,3.391044 8,0.666667 0.912919,-1.1 2.712919,-2 4.000001,-2 1.287081,0 3.087081,0.9 4,2 C 96.918782,19.380296 99.12215,19.179991 102,16 c 3.21186,-3.54906 5.24693,-3.362432 9.14215,0.838387 3.09508,3.337895 3.39794,3.401483 6.35064,1.333333 3.86571,-2.707648 7.02024,-2.766696 9.17388,-0.17172 2.60784,3.142259 4.84613,2.379314 7.82333,-2.666666 3.74916,-6.3543571 7.2389,-6.0991941 11.62578,0.850054 4.60505,7.29489 8.94114,20.746898 7.95456,24.67776 -0.61092,2.434109 -1.69679,3.138853 -4.8363,3.138853 -3.59989,0 -4.35548,-0.738707 -6.81902,-6.666667 -1.5238,-3.666667 -3.48235,-6.666667 -4.35234,-6.666667 -0.86998,0 -2.88601,1.5 -4.48008,3.333334 -3.49431,4.018813 -4.78457,4.131356 -8.20063,0.7153 -1.59622,-1.59622 -2.94777,-2.084518 -3.46285,-1.25109 -1.64442,2.660723 -7.29697,3.937975 -10.33975,2.336375 -1.60199,-0.843221 -3.27157,-2.081256 -3.71018,-2.751189 -0.43861,-0.669934 -2.67957,0.365622 -4.97992,2.301237 -4.812467,4.049423 -8.320777,3.926208 -10.205439,-0.358423 -1.542652,-3.507096 -2.800794,-3.732388 -5.540972,-0.99221 -2.646147,2.646146 -7.007604,2.535702 -10.091909,-0.255555 -2.340936,-2.118517 -2.724346,-2.118517 -6.31071,0 -5.031804,2.97236 -7.356737,2.8453 -9.594085,-0.524327 l -1.845772,-2.779881 -3.718887,3.446548 c -4.650284,4.309737 -6.887112,4.333191 -10.798055,0.113215 -3.734813,-4.029932 -4.980471,-4.132243 -8.116774,-0.666667 -2.589389,2.861244 -8.575434,3.557899 -10.868462,1.264871 -0.980171,-0.980171 -2.035334,-0.434892 -3.508157,1.81292 -5.172484,7.894208 -11.50712,10.122157 -14.2433264,5.009509 z"
       id="path626" />
  </g>
</svg>
