<?xml version="1.0" encoding="UTF-8" standalone="no"?>
<!-- Created with Inkscape (http://www.inkscape.org/) -->

<svg
   version="1.1"
   id="svg12"
   width="98.666664"
   height="153.33333"
   viewBox="0 0 98.666664 153.33333"
   sodipodi:docname="0204.svg"
   inkscape:version="1.1.2 (0a00cf5339, 2022-02-04)"
   xmlns:inkscape="http://www.inkscape.org/namespaces/inkscape"
   xmlns:sodipodi="http://sodipodi.sourceforge.net/DTD/sodipodi-0.dtd"
   xmlns="http://www.w3.org/2000/svg"
   xmlns:svg="http://www.w3.org/2000/svg">
  <defs
     id="defs16" />
  <sodipodi:namedview
     id="namedview14"
     pagecolor="#ffffff"
     bordercolor="#666666"
     borderopacity="1.0"
     inkscape:pageshadow="2"
     inkscape:pageopacity="0.0"
     inkscape:pagecheckerboard="0"
     showgrid="false"
     inkscape:zoom="5.6934784"
     inkscape:cx="1.580756"
     inkscape:cy="76.578844"
     inkscape:window-width="2560"
     inkscape:window-height="1299"
     inkscape:window-x="0"
     inkscape:window-y="32"
     inkscape:window-maximized="1"
     inkscape:current-layer="g18" />
  <g
     inkscape:groupmode="layer"
     inkscape:label="Image"
     id="g18">
    <path
       style="fill:#000000;stroke-width:1.33333"
       d="m 12.188238,145.52157 c -2.2565637,-2.25656 -2.4814464,-4.35604 -2.158239,-20.14904 0.19844,-9.6965 0.937198,-18.2064 1.641683,-18.91088 0.704485,-0.70449 4.516555,-1.09656 8.471267,-0.87127 L 27.333333,106 l 0.790612,18 c 0.434836,9.9 0.518656,18.75517 0.186265,19.67817 -0.332391,0.923 -2.038167,1.973 -3.790612,2.33333 -1.752447,0.36034 -4.677128,0.9643 -6.499292,1.34214 -2.177409,0.45149 -4.176489,-0.1765 -5.832068,-1.83207 z m 32.811761,-0.29504 c -2.033103,-1.18417 -2.333333,-3.59208 -2.333333,-18.71378 0,-9.5451 0.57869,-18.43602 1.285978,-19.7576 1.821888,-3.40423 9.076512,-4.59448 12.866752,-2.11102 3.257102,2.13413 3.174286,0.72638 2.01743,34.2932 -0.155765,4.5196 -0.593181,5.0548 -5.170161,6.32589 -5.989142,1.66327 -5.746249,1.6643 -8.666666,-0.0367 z M 73.52157,142.8549 c -2.256564,-2.25656 -2.481447,-4.35604 -2.15824,-20.14904 0.198441,-9.6965 0.937199,-18.20639 1.641684,-18.91088 0.704484,-0.70448 4.516555,-1.09655 8.471266,-0.87126 l 7.190384,0.40961 0.790612,18 c 0.434836,9.9 0.518656,18.75517 0.186266,19.67817 -0.332391,0.923 -2.038167,1.973 -3.790612,2.33334 -1.752447,0.36033 -4.677128,0.96429 -6.499292,1.34213 -2.177409,0.45149 -4.176489,-0.17649 -5.832068,-1.83207 z M 37.662463,48.679999 C 36.381442,47.819148 33.134616,46.261018 30.447297,45.217486 27.759977,44.173954 23.682214,40.955682 21.385601,38.06577 17.650238,33.365427 17.285705,32.130966 17.928472,26.35849 19.530901,11.967605 26.782313,5.9999999 42.666666,5.9999999 c 8.827454,0 10.735941,0.4690178 16.27645,3.9999999 5.967209,3.8029182 9.123801,8.5239172 9.774075,14.6181062 0.705947,6.615923 -7.430029,19.55349 -14.050526,22.342696 -5.992889,2.524796 -14.522153,3.38714 -17.004202,1.719197 z"
       id="path487" />
  </g>
</svg>
