<?xml version="1.0" encoding="UTF-8" standalone="no"?>
<!-- Created with Inkscape (http://www.inkscape.org/) -->

<svg
   version="1.1"
   id="svg22"
   width="114.66667"
   height="146.66667"
   viewBox="0 0 114.66667 146.66667"
   sodipodi:docname="0205.svg"
   inkscape:version="1.1.2 (0a00cf5339, 2022-02-04)"
   xmlns:inkscape="http://www.inkscape.org/namespaces/inkscape"
   xmlns:sodipodi="http://sodipodi.sourceforge.net/DTD/sodipodi-0.dtd"
   xmlns="http://www.w3.org/2000/svg"
   xmlns:svg="http://www.w3.org/2000/svg">
  <defs
     id="defs26" />
  <sodipodi:namedview
     id="namedview24"
     pagecolor="#ffffff"
     bordercolor="#666666"
     borderopacity="1.0"
     inkscape:pageshadow="2"
     inkscape:pageopacity="0.0"
     inkscape:pagecheckerboard="0"
     showgrid="false"
     inkscape:zoom="5.9522725"
     inkscape:cx="11.760214"
     inkscape:cy="73.249334"
     inkscape:window-width="2560"
     inkscape:window-height="1299"
     inkscape:window-x="0"
     inkscape:window-y="32"
     inkscape:window-maximized="1"
     inkscape:current-layer="g28" />
  <g
     inkscape:groupmode="layer"
     inkscape:label="Image"
     id="g28">
    <path
       style="fill:#000000;stroke-width:1.33333"
       d="m 52.666668,138.76455 c -9.290079,-0.761 -9.333333,-0.78291 -9.333333,-4.72659 0,-3.47866 0.731996,-4.23229 6,-6.17729 5.313809,-1.96192 6.091863,-2.77606 6.803244,-7.11878 0.441784,-2.69692 0.371911,-11.8666 -0.155275,-20.37705 C 54.737143,80.28009 55.545536,80.916034 32.195942,81.653454 15.764486,82.172386 14.068396,81.998478 10.195941,79.397676 6.7889673,77.1095 5.9236954,75.538408 5.5941906,71.042176 5.1368741,64.801903 7.822023,62.282949 14.390696,62.790124 c 1.985118,0.153272 10.344049,0.188197 18.575402,0.07761 l 14.966099,-0.201067 -0.484804,-11 C 47.180751,45.616668 46.232811,34.443993 45.340859,26.838501 43.181703,8.4278031 43.759693,7.190228 55.083647,5.9775355 69.073287,4.479372 69.339447,4.836352 69.301526,25.046913 c -0.01749,9.324198 -0.565339,19.251995 -1.217431,22.061771 -1.055186,4.546657 -0.794988,5.532323 2.365143,8.959487 3.265897,3.541866 4.353034,3.866369 13.550764,4.04481 5.500001,0.106707 13.000001,-0.201618 16.666668,-0.685158 3.66667,-0.48354 7.51272,-0.307835 8.54679,0.390456 1.08781,0.734576 2.13969,4.399581 2.49605,8.696808 0.58066,7.002056 0.41962,7.501821 -2.81343,8.731028 -1.88615,0.717112 -10.370202,1.718801 -18.853455,2.225976 -17.680759,1.057055 -15.661795,-1.035744 -17.961359,18.618211 -1.936952,16.554768 -1.732689,26.043688 0.627807,29.164538 4.406943,5.8265 0.177985,13.03491 -7.339079,12.50971 -1.853496,-0.12947 -7.569992,-0.57949 -12.703326,-1 z"
       id="path348" />
  </g>
</svg>
