<?xml version="1.0" encoding="UTF-8" standalone="no"?>
<!-- Created with Inkscape (http://www.inkscape.org/) -->

<svg
   version="1.1"
   id="svg32"
   width="168"
   height="184"
   viewBox="0 0 168 184"
   sodipodi:docname="0206.svg"
   inkscape:version="1.1.2 (0a00cf5339, 2022-02-04)"
   xmlns:inkscape="http://www.inkscape.org/namespaces/inkscape"
   xmlns:sodipodi="http://sodipodi.sourceforge.net/DTD/sodipodi-0.dtd"
   xmlns="http://www.w3.org/2000/svg"
   xmlns:svg="http://www.w3.org/2000/svg">
  <defs
     id="defs36" />
  <sodipodi:namedview
     id="namedview34"
     pagecolor="#ffffff"
     bordercolor="#666666"
     borderopacity="1.0"
     inkscape:pageshadow="2"
     inkscape:pageopacity="0.0"
     inkscape:pagecheckerboard="0"
     showgrid="false"
     inkscape:zoom="4.7445652"
     inkscape:cx="26.767468"
     inkscape:cy="91.894616"
     inkscape:window-width="2560"
     inkscape:window-height="1299"
     inkscape:window-x="0"
     inkscape:window-y="32"
     inkscape:window-maximized="1"
     inkscape:current-layer="g38" />
  <g
     inkscape:groupmode="layer"
     inkscape:label="Image"
     id="g38">
    <path
       style="fill:#000000;stroke-width:1.33333"
       d="m 73.053672,177.22296 c -1.253813,-0.71247 -4.457428,-5.43969 -7.119143,-10.50495 -5.297794,-10.08172 -4.919701,-9.96785 -14.857788,-4.47453 -7.073126,3.90969 -9.162614,3.88244 -11.807433,-0.15407 -2.945023,-4.49468 -0.894619,-7.77308 6.667805,-10.6612 C 49.836348,149.93908 52,148.30636 52,146.85307 c 0,-2.25627 -2.9428,-7.20211 -6.370611,-10.70682 -6.107321,-6.24432 -6.534056,-11.39929 -1.110589,-13.41596 4.312371,-1.60351 5.795299,-0.46181 12.256629,9.43632 6.500039,9.95743 10.000496,11.53594 14.516316,6.54602 2.296824,-2.53798 2.177048,-2.88268 -3.79335,-10.917 -3.390784,-4.56295 -6.165062,-8.99064 -6.165062,-9.8393 0,-2.69528 4.99912,-6.24504 7.571115,-5.37607 1.335887,0.45134 5.314572,5.00789 8.841523,10.12568 5.844997,8.48138 6.730188,9.22924 10,8.44855 7.330277,-1.75016 7.358161,-3.28476 0.254029,-13.98024 -6.178163,-9.3014 -6.52948,-11.45214 -2.143096,-13.11984 5.006115,-1.90333 7.850435,-0.38127 11.885125,6.35999 2.058118,3.43875 4.801001,7.65569 6.095291,9.37099 l 2.35326,3.11873 6.25504,-2.94022 c 3.44027,-1.61712 6.5828,-3.47055 6.9834,-4.11873 2.46905,-3.995 11.20307,2.84716 9.45369,7.40596 -0.4091,1.06611 -4.07331,3.51348 -8.14268,5.4386 -8.47864,4.01104 -8.48134,3.95378 0.76045,16.1001 5.40546,7.1043 6.66087,13.01797 3.05714,14.40085 -4.33606,1.66391 -7.12837,0.68665 -10.06925,-3.52401 -1.66461,-2.38334 -3.43767,-4.63334 -3.94013,-5 -0.50247,-0.36667 -2.0546,-2.71592 -3.44919,-5.22058 -3.65748,-6.56876 -6.09299,-7.74532 -10.311431,-4.98129 -3.423823,2.24339 -3.445167,2.35267 -1.28418,6.57492 1.20863,2.36148 4.040582,6.87713 6.293231,10.03477 4.28979,6.01322 4.11014,8.34491 -0.88578,11.49624 -3.34487,2.1099 -6.216158,-0.28136 -11.566214,-9.63256 -5.353628,-9.35742 -8.939759,-11.74009 -13.189655,-8.76334 -2.768265,1.93896 -3.964254,7.1585 -1.640276,7.1585 0.649776,0 2.138703,2.01735 3.308727,4.48299 1.170024,2.46564 3.038389,5.23911 4.151923,6.16325 2.093692,1.73762 2.786717,7.4355 1.024605,8.42406 -2.754479,1.5453 -7.919952,1.97081 -9.946328,0.81933 z M 18.666667,97.486268 11.333333,96.666667 10.933188,89.749335 c -0.322097,-5.568091 0.06801,-7.160926 2,-8.1662 C 16.692621,79.626987 28.789151,78.527999 46.97922,78.49 L 63.693011,78.45508 64.5222,73.269617 c 1.193473,-7.463573 4.107521,-8.513456 12.647673,-4.556745 8.545942,3.959392 23.165027,5.775599 26.201917,3.255204 3.86284,-3.205872 20.74061,-0.286804 31.47641,5.443953 C 138.24971,79.227751 142.34033,80 148.55672,80 c 6.64584,0 9.05212,0.499863 9.62777,2 0.42212,1.1 1.60328,2 2.62483,2 2.49743,0 2.37851,4.848044 -0.14265,5.815501 -1.1,0.422111 -2,1.672472 -2,2.778582 0,1.10611 -1.50943,3.00012 -3.35427,4.20891 -4.16109,2.726455 -12.78639,1.662046 -17.67177,-2.180796 -4.24191,-3.336685 -7.54293,-3.312093 -13.05943,0.09729 -4.17279,2.578926 -6.83418,2.741892 -51.490712,3.152934 C 47.19072,98.110817 22.7,97.937048 18.666667,97.486268 Z M 123.33333,56.464513 c -6.55461,-1.779861 -21.51257,-1.706157 -66.666663,0.328495 L 42,57.453891 38.109016,49.944037 c -2.140043,-4.13042 -5.264891,-8.410072 -6.944109,-9.510337 -2.780519,-1.821865 -3.51173,-1.742735 -8.18938,0.886253 -3.25878,1.831536 -6.812707,2.727116 -9.722558,2.450059 C 9.3221792,43.395747 8.6043035,42.787892 8.2303417,39.517143 7.9216696,36.817429 8.9925177,34.209577 11.890564,30.603345 L 15.987112,25.50574 11.993556,22.662077 C 7.8025695,19.677832 6.9082164,16.291784 9.6,13.6 c 2.225313,-2.225313 7.075575,-1.999118 9.086375,0.423747 1.489389,1.794604 2.195868,1.71912 6.239473,-0.666667 5.652419,-3.335007 10.574108,-3.4494439 12.26754,-0.285237 1.742688,3.256241 -0.06133,5.759905 -5.397728,7.491077 -6.449263,2.092197 -6.290308,5.169653 0.471748,9.133311 3.152925,1.848124 7.709784,5.821176 10.126351,8.829005 2.416568,3.007828 6.181894,6.393459 8.367394,7.523625 3.77713,1.95323 4.396674,1.852948 12.528124,-2.027836 12.512483,-5.971656 21.236595,-7.228612 37.308773,-5.375384 12.26296,1.414 26.36101,4.681543 35.78316,8.293562 2.04302,0.783193 6.84302,1.120712 10.66667,0.750041 3.82367,-0.370671 7.70212,-0.402388 8.61879,-0.07048 2.1585,0.781545 2.1664,7.915007 0.0107,9.247591 -2.86414,1.76987 -25.37634,1.49018 -32.344,-0.401842 z"
       id="path209" />
  </g>
</svg>
