<?xml version="1.0" encoding="UTF-8" standalone="no"?>
<!-- Created with Inkscape (http://www.inkscape.org/) -->

<svg
   version="1.1"
   id="svg42"
   width="69.333336"
   height="164"
   viewBox="0 0 69.333336 164"
   sodipodi:docname="0207.svg"
   inkscape:version="1.1.2 (0a00cf5339, 2022-02-04)"
   xmlns:inkscape="http://www.inkscape.org/namespaces/inkscape"
   xmlns:sodipodi="http://sodipodi.sourceforge.net/DTD/sodipodi-0.dtd"
   xmlns="http://www.w3.org/2000/svg"
   xmlns:svg="http://www.w3.org/2000/svg">
  <defs
     id="defs46" />
  <sodipodi:namedview
     id="namedview44"
     pagecolor="#ffffff"
     bordercolor="#666666"
     borderopacity="1.0"
     inkscape:pageshadow="2"
     inkscape:pageopacity="0.0"
     inkscape:pagecheckerboard="0"
     showgrid="false"
     inkscape:zoom="5.3231707"
     inkscape:cx="34.753723"
     inkscape:cy="81.906071"
     inkscape:window-width="2560"
     inkscape:window-height="1299"
     inkscape:window-x="0"
     inkscape:window-y="32"
     inkscape:window-maximized="1"
     inkscape:current-layer="g48" />
  <g
     inkscape:groupmode="layer"
     inkscape:label="Image"
     id="g48">
    <path
       style="fill:#000000;stroke-width:1.33333"
       d="m 39.103339,155.10333 c -2.119887,-2.11988 -3.043371,-2.22977 -7.103338,-0.84525 -5.825773,1.98668 -10.010893,2.09443 -16.061591,0.41351 -6.8670069,-1.9077 -8.8537272,-3.98828 -9.7804831,-10.24256 -1.3390518,-9.0367 4.7892351,-12.72666 8.3085031,-5.00271 1.552396,3.40713 7.550022,7.00168 9.098639,5.45305 0.487923,-0.48792 -0.462828,-3.76934 -2.11278,-7.29206 -2.71998,-5.80727 -3.005402,-8.45081 -3.058722,-28.32946 -0.05658,-21.092049 3.948805,-64.468377 7.010887,-75.924517 0.686038,-2.566666 1.250688,-9.029529 1.254778,-14.361918 0.0069,-9.1223479 0.210525,-9.7877854 3.444314,-11.2611986 5.092659,-2.3203707 7.727831,0.00787 8.788899,7.7652236 1.358086,9.928816 5.045358,29.950361 6.481001,35.191227 0.703093,2.566666 1.281697,6.496666 1.285786,8.733333 0.0041,2.236667 0.543754,4.636667 1.199251,5.333333 1.153592,1.226043 1.914466,9.910239 3.659048,41.762387 0.853808,15.58862 -0.722549,27.28399 -4.421065,32.80096 -2.527399,3.77004 -2.2069,4.70332 1.615169,4.70332 2.457087,0 4.140386,-1.29164 6.173038,-4.73672 2.017615,-3.4196 3.577033,-4.62456 5.608079,-4.33333 3.411262,0.48912 4.045182,3.22384 2.89018,12.46816 -1.008151,8.06897 -1.571702,8.46056 -13.612926,9.45929 -6.789322,0.56312 -8.65654,0.25607 -10.666667,-1.75407 z"
       id="path70" />
  </g>
</svg>
