<?xml version="1.0" encoding="UTF-8" standalone="no"?>
<!-- Created with Inkscape (http://www.inkscape.org/) -->

<svg
   version="1.1"
   id="svg2"
   width="169.33333"
   height="166.66667"
   viewBox="0 0 169.33333 166.66667"
   sodipodi:docname="0208.png"
   inkscape:version="1.1.2 (0a00cf5339, 2022-02-04)"
   xmlns:inkscape="http://www.inkscape.org/namespaces/inkscape"
   xmlns:sodipodi="http://sodipodi.sourceforge.net/DTD/sodipodi-0.dtd"
   xmlns="http://www.w3.org/2000/svg"
   xmlns:svg="http://www.w3.org/2000/svg">
  <defs
     id="defs6" />
  <sodipodi:namedview
     id="namedview4"
     pagecolor="#ffffff"
     bordercolor="#666666"
     borderopacity="1.0"
     inkscape:pageshadow="2"
     inkscape:pageopacity="0.0"
     inkscape:pagecheckerboard="0"
     showgrid="false"
     inkscape:zoom="5.2379998"
     inkscape:cx="84.574268"
     inkscape:cy="83.23788"
     inkscape:window-width="2560"
     inkscape:window-height="1299"
     inkscape:window-x="0"
     inkscape:window-y="32"
     inkscape:window-maximized="1"
     inkscape:current-layer="g8" />
  <g
     inkscape:groupmode="layer"
     inkscape:label="Image"
     id="g8">
    <path
       style="fill:#000000;stroke-width:1.33333"
       d="m 8.6970089,158.20755 c -4.1077318,-3.03556 -1.5392684,-7.32933 11.2596991,-18.82313 19.564562,-17.5695 27.405344,-19.86168 65.231778,-19.06991 13.646332,0.28564 33.171804,0.11054 43.389934,-0.3891 21.36267,-1.04459 27.00063,-0.0668 28.2469,4.89868 0.46536,1.85414 0.25202,3.96524 -0.47408,4.69133 -0.8245,0.82451 -18.94387,1.28974 -48.25872,1.2391 -30.25849,-0.0523 -49.157288,0.44852 -53.1822,1.40926 -8.084884,1.92984 -19.087934,7.1786 -21.87693,10.4359 -2.082165,2.4318 -1.992563,2.60395 1.787395,3.43418 4.542694,0.99774 97.531045,-0.29446 110.187675,-1.5312 5.74747,-0.56162 8.96118,-0.3011 10.33334,0.8377 2.75972,2.29036 2.54282,8.93844 -0.3418,10.477 -1.30179,0.69434 -32.10079,1.56347 -69.666668,1.96598 -37.033333,0.39678 -68.833332,1.09292 -70.666666,1.54693 -2.020717,0.50043 -4.371477,0.0583 -5.9696571,-1.12272 z M 146.66666,68.144671 c 0,-1.359068 -17.10088,-5.478003 -22.74342,-5.478003 -2.0623,0 -5.43173,-0.639531 -7.48762,-1.421177 l -3.73799,-1.421179 3.28057,-2.474539 c 1.80432,-1.360997 3.74735,-2.186056 4.31785,-1.833467 0.57051,0.352591 1.03728,-0.05853 1.03728,-0.913601 0,-0.948091 -0.91039,-1.189717 -2.33333,-0.619288 -1.28334,0.514463 -4.73334,1.707839 -7.66667,2.651947 -2.93333,0.944109 -10.01657,3.887379 -15.740533,6.5406 -11.842113,5.48916 -12.829955,5.627497 -19.063239,2.669611 -2.908513,-1.38018 -5.855929,-1.821139 -8.201505,-1.227015 -8.702782,2.204375 -17.677634,2.632943 -27.20807,1.299241 C 34.255857,64.957227 28.335993,64.913672 23.067545,65.784984 13.205651,67.415973 7.5580232,65.263731 6.9085584,59.626988 6.2478336,53.89252 13.01922,51.619032 27.306739,52.778314 c 15.683597,1.272559 20.252695,0.190458 22.565191,-5.344124 1.020788,-2.44309 2.5172,-4.85064 3.325357,-5.350109 2.761329,-1.706595 1.566957,-4.750747 -1.863955,-4.750747 -2.444444,0 -3.333333,0.711111 -3.333333,2.666667 0,2.964829 -1.574037,3.345248 -5.390431,1.302776 -5.452982,-2.918348 -5.702782,-6.12922 -1.142481,-14.68522 4.015876,-7.534557 4.676261,-8.111875 11.57218,-10.116573 4.022293,-1.169312 9.26432,-1.809409 11.648948,-1.422437 5.879808,0.954161 17.475203,9.510585 21.475078,15.846795 3.725184,5.901073 7.499334,7.741325 15.876597,7.741325 6.68687,0 8.62677,-2.18252 8.62677,-9.705694 0,-6.578485 3.07116,-8.557515 16.23316,-10.460545 l 11.5438,-1.66906 5.44486,3.603235 c 5.851,3.872011 6.66014,6.159634 3.34961,9.470159 -3.02621,3.026221 -6.83439,2.581675 -10.96295,-1.27976 -5.19932,-4.862908 -8.78663,-5.39179 -13.55266,-1.998077 -5.58173,3.974538 -5.43867,7.082121 0.27752,6.028558 8.57049,-1.579646 14.98556,-0.401172 25.8825,4.754723 5.44114,2.574481 7.05004,4.075833 7.6825,7.168972 0.44,2.15188 1.76972,4.984028 2.95492,6.293662 1.98654,2.19511 1.97237,2.774901 -0.18138,7.420822 -3.04441,6.567177 -7.19197,11.039673 -10.23762,11.039673 -1.33884,0 -2.43426,-0.534899 -2.43426,-1.188664 z"
       id="path30" />
  </g>
</svg>
