<?xml version="1.0" encoding="UTF-8" standalone="no"?>
<!-- Created with Inkscape (http://www.inkscape.org/) -->

<svg
   version="1.1"
   id="svg72"
   width="161.33333"
   height="157.33333"
   viewBox="0 0 161.33333 157.33333"
   sodipodi:docname="0210.svg"
   inkscape:version="1.1.2 (0a00cf5339, 2022-02-04)"
   xmlns:inkscape="http://www.inkscape.org/namespaces/inkscape"
   xmlns:sodipodi="http://sodipodi.sourceforge.net/DTD/sodipodi-0.dtd"
   xmlns="http://www.w3.org/2000/svg"
   xmlns:svg="http://www.w3.org/2000/svg">
  <defs
     id="defs76" />
  <sodipodi:namedview
     id="namedview74"
     pagecolor="#ffffff"
     bordercolor="#666666"
     borderopacity="1.0"
     inkscape:pageshadow="2"
     inkscape:pageopacity="0.0"
     inkscape:pagecheckerboard="0"
     showgrid="false"
     inkscape:zoom="5.548729"
     inkscape:cx="31.718976"
     inkscape:cy="78.576553"
     inkscape:window-width="2560"
     inkscape:window-height="1299"
     inkscape:window-x="0"
     inkscape:window-y="32"
     inkscape:window-maximized="1"
     inkscape:current-layer="g78" />
  <g
     inkscape:groupmode="layer"
     inkscape:label="Image"
     id="g78">
    <path
       style="fill:#000000;stroke-width:1.33333"
       d="m 41.999999,148.65642 c -13.33659,-2.46021 -25.863135,-5.72328 -31.750857,-8.27082 -4.4663864,-1.93255 -4.9814861,-2.6162 -4.2389832,-5.62607 1.2125229,-4.91517 1.6150149,-5.15218 14.7519452,-8.68659 37.661972,-10.13272 63.602064,-10.35429 113.904556,-0.97289 13.41338,2.50159 18.66667,5.77422 18.66667,11.62875 0,6.94444 -39.72248,13.88034 -78.666665,13.7359 -12.947361,-0.048 -27.487721,-0.8529 -32.666666,-1.80828 z m 61.333331,-9.37425 c 7.33333,-0.43245 16.02916,-1.45581 19.32406,-2.27412 l 5.99072,-1.48783 -3.99072,-1.13026 c -16.22907,-4.5965 -44.09076,-6.78123 -63.48655,-4.9782 -18.038366,1.67683 -26.596425,3.05802 -29.645451,4.78449 -2.058874,1.1658 -1.107107,1.67025 5.665245,3.00263 4.476921,0.88078 13.990496,1.9242 21.141277,2.31869 7.150781,0.39451 13.275524,0.98855 13.610537,1.32008 0.335015,0.33155 4.535014,0.29411 9.333333,-0.0832 4.79832,-0.37729 14.724217,-1.03983 22.057549,-1.47228 z M 39.592747,50.5185 c -1.323988,-0.770224 -2.945268,-2.815498 -3.602842,-4.545052 -0.657576,-1.729554 -2.396403,-3.7873 -3.864062,-4.572766 -2.20973,-1.182611 -3.471702,-0.722874 -7.340842,2.674276 -3.54582,3.113272 -5.705999,4.000646 -8.959337,3.680386 C 9.8146155,47.163612 9.6267873,44.628936 15.204189,39.36877 17.841885,36.881103 20,34.243838 20,33.508182 20,32.772526 17.627789,30.837369 14.728421,29.207833 8.759524,25.853125 7.2173453,23.216276 9.5678193,20.384128 10.663368,19.064073 12.4906,18.70355 15.25749,19.261526 24.686361,21.162968 24.613217,21.201164 25.333333,14 c 0.578218,-5.7821826 1.088904,-6.7263682 3.849213,-7.1166563 4.134333,-0.5845654 5.438653,1.6756504 5.463703,9.4678823 l 0.02042,6.351227 4.829499,-2.017893 c 6.499947,-2.715852 10.796823,-2.540806 12.427571,0.506276 1.036696,1.937082 0.714984,3.332597 -1.383194,5.999999 -1.50375,1.911707 -3.609372,3.475831 -4.679163,3.475831 -3.299001,0 -3.587972,3.715604 -0.657711,8.456867 3.15173,5.099605 3.556632,8.916165 1.196331,11.276466 -1.938019,1.938019 -3.628968,1.967455 -6.807252,0.118507 z m 69.187193,-2.393334 c -2.02359,-2.236043 -2.20215,-4.599739 -1.48568,-19.666667 0.7304,-15.359792 1.11135,-17.375801 3.69542,-19.5564769 2.17167,-1.8326558 4.04354,-2.2132298 7.60221,-1.5456205 2.59662,0.4871297 5.17304,1.1649825 5.72536,1.5063394 1.61448,0.9978 0.29586,35.500282 -1.48383,38.825678 -2.09648,3.917311 -10.66269,4.183527 -14.05348,0.436747 z m 23.96913,1.341501 c -0.4079,-0.66 -0.35071,-9.351279 0.12709,-19.313954 l 0.86873,-18.113955 6.12755,-1.802413 c 10.66959,-3.1384462 11.11412,-2.3328878 10.03677,18.188121 -0.5075,9.666544 -1.4658,18.625533 -2.12954,19.908866 -0.90054,1.741138 -2.86694,2.333334 -7.7479,2.333334 -3.59758,0 -6.8748,-0.54 -7.2827,-1.199999 z"
       id="path249" />
  </g>
</svg>
