<?xml version="1.0" encoding="UTF-8" standalone="no"?>
<!-- Created with Inkscape (http://www.inkscape.org/) -->

<svg
   version="1.1"
   id="svg82"
   width="162.66667"
   height="164"
   viewBox="0 0 162.66667 164"
   sodipodi:docname="0211.svg"
   inkscape:version="1.1.2 (0a00cf5339, 2022-02-04)"
   xmlns:inkscape="http://www.inkscape.org/namespaces/inkscape"
   xmlns:sodipodi="http://sodipodi.sourceforge.net/DTD/sodipodi-0.dtd"
   xmlns="http://www.w3.org/2000/svg"
   xmlns:svg="http://www.w3.org/2000/svg">
  <defs
     id="defs86" />
  <sodipodi:namedview
     id="namedview84"
     pagecolor="#ffffff"
     bordercolor="#666666"
     borderopacity="1.0"
     inkscape:pageshadow="2"
     inkscape:pageopacity="0.0"
     inkscape:pagecheckerboard="0"
     showgrid="false"
     inkscape:zoom="5.3231707"
     inkscape:cx="81.342497"
     inkscape:cy="81.906071"
     inkscape:window-width="2560"
     inkscape:window-height="1299"
     inkscape:window-x="0"
     inkscape:window-y="32"
     inkscape:window-maximized="1"
     inkscape:current-layer="g88" />
  <g
     inkscape:groupmode="layer"
     inkscape:label="Image"
     id="g88">
    <path
       style="fill:#000000;stroke-width:1.33333"
       d="m 42.267402,155.62053 c -1.700885,-1.30257 -2.1841,-4.94653 -2.46274,-18.57176 -0.190661,-9.32317 0.05826,-17.35614 0.553167,-17.85104 1.219631,-1.21963 5.451455,-1.44981 46.308839,-2.51884 28.635872,-0.74926 35.746852,-0.5853 37.514902,0.86497 1.71424,1.40614 2.36977,5.41424 3.06012,18.71038 0.82865,15.95975 0.72912,17.00089 -1.75227,18.32889 -4.03611,2.16007 -80.511238,3.11335 -83.222018,1.0374 z m 99.065938,-54.75056 c -10.92636,-4.276133 -12.71805,-5.585778 -16.52213,-12.076955 -5.46647,-9.327826 -3.9025,-19.785722 3.8737,-25.902482 4.11332,-3.23554 8.65263,-3.599345 17.40663,-1.395062 6.57173,1.654782 7.73725,3.735545 7.00125,12.49917 -0.30176,3.592987 -1.39896,5.761358 -3.75945,7.429688 -6.25443,4.420456 -9.00547,4.441998 -13.34299,0.10448 -3.75406,-3.754065 -3.98859,-3.818781 -3.9607,-1.092913 0.0163,1.593589 1.06631,4.169916 2.33334,5.725168 2.28889,2.809587 13.1876,7.172269 17.91749,7.172269 3.03359,0 5.19575,5.125967 3.51506,8.333337 -1.56618,2.98881 -5.3175,2.78216 -14.4622,-0.7967 z M 143.05362,71 c -3.12818,-2.337989 -4.38695,-2.079105 -4.38695,0.902235 0,2.81832 4.08595,4.381101 5.64179,2.157853 C 144.84478,73.293707 144.2801,71.916667 143.05362,71 Z M 20.141007,97.465053 C 16.689638,94.240992 16,92.592909 16,87.568951 c 0,-5.382715 0.570783,-6.516391 5.333334,-10.592958 2.933333,-2.510824 5.333333,-5.221358 5.333333,-6.02341 0,-0.802051 -2.189233,-1.644495 -4.864964,-1.872096 -5.74128,-0.48836 -8.581861,-3.82337 -6.314696,-7.41382 1.262435,-1.999286 3.838401,-2.360252 17.99318,-2.521363 9.085898,-0.103416 17.569814,0.367695 18.853147,1.046912 5.272926,2.790751 0.806974,9.141117 -6.428572,9.141117 -5.760149,0 -6.040571,2.772294 -0.667426,6.59831 4.502684,3.206194 7.27168,10.242705 6.009565,15.271373 -0.479212,1.909332 -2.651841,4.969744 -4.828064,6.800915 -3.372557,2.837819 -5.298904,3.329399 -13.046796,3.329399 -8.190798,0 -9.499675,-0.38266 -13.231034,-3.868277 z M 13.77165,51.389652 C 7.8247919,48.802809 5.9849477,44.866531 7.8355838,38.689657 10.192774,30.822057 18.813166,28.541701 30.000001,32.826492 c 2.933333,1.123528 7.980929,2.597303 11.216881,3.275056 6.80296,1.424844 96.983558,1.933099 100.399028,0.565845 5.91527,-2.367949 3.61967,-10.734848 -3.29877,-12.023305 C 134.7163,23.973487 116.58787,24.29858 90.000002,25.510548 87.066668,25.64426 75.066668,25.427648 63.333335,25.029189 44.28714,24.382389 41.159598,24.591788 34.161121,26.982361 23.671226,30.565549 12.720279,29.547337 8.3333335,24.580908 2.6178891,18.110496 4.982761,12.021924 14.50097,8.7017859 22.487656,5.9158724 24.825805,6.1158429 31.756635,10.17758 l 5.990922,3.510913 52.792889,0.28481 c 55.222734,0.297917 57.585394,0.533022 63.792894,6.347932 2.54068,2.379998 3,4.196497 3,11.864272 0,7.485242 -0.43278,9.285614 -2.49771,10.390737 -6.81627,3.647953 -17.41371,4.371977 -66.836082,4.566285 -50.913123,0.200171 -51.36825,0.226363 -55.539162,3.196315 -4.835449,3.443143 -12.232848,3.859075 -18.688736,1.050808 z M 22.666667,42 c 0,-1.111111 -1.185185,-2 -2.666667,-2 -2.656324,0 -3.468165,1.420723 -1.777777,3.111111 1.623905,1.623905 4.444444,0.91877 4.444444,-1.111111 z m 2,-23.333333 c -0.453225,-0.733334 -1.953225,-1.333334 -3.333333,-1.333334 -1.380108,0 -2.880108,0.6 -3.333334,1.333334 C 17.517935,19.446665 18.901274,20 21.333334,20 c 2.43206,0 3.815399,-0.553335 3.333333,-1.333333 z"
       id="path110" />
  </g>
</svg>
