<?xml version="1.0" encoding="UTF-8" standalone="no"?>
<!-- Created with Inkscape (http://www.inkscape.org/) -->

<svg
   version="1.1"
   id="svg22"
   width="58.666668"
   height="154.66667"
   viewBox="0 0 58.666668 154.66667"
   sodipodi:docname="0212.svg"
   inkscape:version="1.1.2 (0a00cf5339, 2022-02-04)"
   xmlns:inkscape="http://www.inkscape.org/namespaces/inkscape"
   xmlns:sodipodi="http://sodipodi.sourceforge.net/DTD/sodipodi-0.dtd"
   xmlns="http://www.w3.org/2000/svg"
   xmlns:svg="http://www.w3.org/2000/svg">
  <defs
     id="defs26" />
  <sodipodi:namedview
     id="namedview24"
     pagecolor="#ffffff"
     bordercolor="#666666"
     borderopacity="1.0"
     inkscape:pageshadow="2"
     inkscape:pageopacity="0.0"
     inkscape:pagecheckerboard="0"
     showgrid="false"
     inkscape:zoom="5.6443964"
     inkscape:cx="29.409699"
     inkscape:cy="77.244752"
     inkscape:window-width="2560"
     inkscape:window-height="1299"
     inkscape:window-x="0"
     inkscape:window-y="32"
     inkscape:window-maximized="1"
     inkscape:current-layer="g28" />
  <g
     inkscape:groupmode="layer"
     inkscape:label="Image"
     id="g28">
    <path
       style="fill:#000000;stroke-width:1.33333"
       d="m 16.88889,147.11111 c -2.205068,-2.20507 -0.647035,-7.10173 3.11111,-9.77777 2.200001,-1.56654 3.981035,-3.5574 3.957857,-4.42413 -0.02319,-0.86673 -2.723181,-3.20279 -6.000001,-5.19124 -9.5669975,-5.80547 -6.428322,-13.45438 3.429183,-8.35686 5.985723,3.09534 7.946295,1.82321 7.946295,-5.156 0,-3.35766 0.785192,-6.53024 1.831003,-7.39819 2.322816,-1.92776 6.110908,-0.53568 6.355933,2.33573 0.102814,1.20488 0.30754,3.99069 0.454943,6.19069 0.147404,2.2 0.363283,4.67472 0.479731,5.49938 0.137273,0.97215 1.969922,0.63179 5.211724,-0.96792 6.277912,-3.0979 11,-2.12618 11,2.26361 0,2.33348 -1.383376,3.85648 -5.333334,5.87159 -2.933333,1.49648 -5.308949,3.45867 -5.279145,4.36043 0.0298,0.90177 1.80114,3.68257 3.936304,6.17957 3.050292,3.56722 3.600019,5.06712 2.565568,7 -1.988521,3.71559 -5.534428,2.97435 -10.55606,-2.20666 -2.487711,-2.56667 -5.003683,-4.66667 -5.591048,-4.66667 -0.587366,0 -3.392386,2.1 -6.233379,4.66667 -4.833575,4.36684 -9.227068,5.8374 -11.286684,3.77777 z M 7.4285716,52.571429 C 5.8078884,50.950746 5.3333335,47.506405 5.3333335,37.364097 c 0,-14.050479 2.1470713,-20.572589 8.8434335,-26.863494 6.529507,-6.1341529 20.39148,-5.4708177 27.162082,1.299783 3.160749,3.160749 3.645483,4.908401 4.43106,15.975679 0.552845,7.788521 0.364143,13.394449 -0.505577,15.019535 -0.763207,1.426065 -1.038018,3.158561 -0.610691,3.84999 1.542407,2.495667 -4.613657,6.864068 -9.065588,6.433026 l -4.254719,-0.411948 0.496309,-13.74906 C 32.283113,26.355325 32.086518,24.945479 29.552061,22.584274 22.334159,15.859775 19.407191,21.221818 20.3382,39.463557 21.006248,52.552985 20.919743,53.131254 18.183764,53.8654 13.269287,55.184101 9.5997573,54.742616 7.4285716,52.571429 Z"
       id="path50" />
  </g>
</svg>
