<?xml version="1.0" encoding="UTF-8" standalone="no"?>
<!-- Created with Inkscape (http://www.inkscape.org/) -->

<svg
   version="1.1"
   id="svg2"
   width="29.333332"
   height="150.66667"
   viewBox="0 0 29.333332 150.66667"
   xmlns="http://www.w3.org/2000/svg"
   xmlns:svg="http://www.w3.org/2000/svg">
  <defs
     id="defs6" />
  <g
     id="g8">
    <path
       style="fill:#000000;stroke-width:1.33333"
       d="M 9.3703397,143.37792 C 7.8571899,141.5547 7.7086498,136.29851 8.4647565,111.33334 l 0.2019098,-6.66667 4.9770147,-0.41245 c 9.311522,-0.77166 9.747531,0.10845 9.240882,18.65306 -0.50806,18.5962 -1.888855,22.42606 -8.085374,22.42606 -2.093302,0 -4.536284,-0.87994 -5.4288493,-1.95542 z M 11.631918,47.108165 6.5971704,45.020405 6.9652517,25.558515 7.333333,6.0966253 11.69514,4.8472661 c 3.002066,-0.8598867 5.44799,-0.7544611 7.846091,0.3381869 3.256671,1.4838387 3.433019,2.0204004 2.69952,8.213643 -0.431619,3.644354 -0.204815,11.730023 0.504011,17.968155 1.102166,9.699802 0.974554,11.821615 -0.881342,14.65407 -2.505829,3.82438 -3.40058,3.919425 -10.231502,1.086844 z"
       id="path148" />
  </g>
</svg>
