<?xml version="1.0" encoding="UTF-8" standalone="no"?>
<!-- Created with Inkscape (http://www.inkscape.org/) -->

<svg
   version="1.1"
   id="svg2"
   width="158.66667"
   height="160"
   viewBox="0 0 158.66667 160"
   xmlns="http://www.w3.org/2000/svg"
   xmlns:svg="http://www.w3.org/2000/svg">
  <defs
     id="defs6" />
  <g
     id="g8">
    <path
       style="fill:#000000;stroke-width:1.33333"
       d="m 53.309354,152.63777 c -1.996265,-2.40534 -2.19701,-26.927 -0.507324,-61.971103 L 53.60563,74 34.469482,69.492005 C 8.7495318,63.433033 4.0000001,61.208636 4.0000001,55.221921 c 0,-4.039074 3.0508382,-6.875473 9.0595609,-8.422777 10.374273,-2.671475 24.990404,-5.676325 31.171564,-6.408392 3.539548,-0.419207 6.481752,-1.12862 6.538229,-1.576473 C 50.825832,38.366425 51.129284,35.3 51.443692,32 52.615088,19.705127 53.481652,17.289753 58.591627,12.076557 64.50998,6.0386527 68.207516,5.0629519 82.99365,5.6373823 c 9.49862,0.3690145 10.6557,0.729914 14.425033,4.4992487 4.663797,4.663794 6.919977,11.685673 6.683247,20.800154 -0.2073,7.981322 -0.24012,7.96368 24.56474,13.203075 4.4,0.929388 9.2,2.419227 10.66667,3.310753 1.46666,0.891527 4.76666,2.049138 7.33333,2.57247 6.20724,1.265626 8,2.904156 8,7.311749 0,2.775627 -0.89732,4.022803 -3.66667,5.096265 -5.1433,1.993664 -17.48064,4.873586 -32.33333,7.54761 -6.96667,1.254254 -13.41667,2.503317 -14.33333,2.775697 -1.2308,0.365721 -1.66667,5.396555 -1.66667,19.236751 v 18.741515 l -3.588349,1.36429 c -1.973592,0.75035 -5.123592,1.1855 -7,0.96699 l -3.411652,-0.39728 V 94.445807 c 0,-10.021474 -0.3,-18.498508 -0.666667,-18.837856 -0.366667,-0.339347 -5.316667,-1.041151 -11,-1.559566 L 66.666668,73.105813 66.5591,88.219573 c -0.05916,8.312568 -0.01663,25.654987 0.09453,38.538717 0.220112,25.51295 0.13648,25.81702 -7.522056,27.34872 -2.802556,0.56052 -4.491361,0.13435 -5.822219,-1.46924 z M 119.05835,59.699885 c 17.78995,-4.362146 3.91452,-7.751481 -35.058348,-8.563669 -14.520573,-0.302607 -28.354755,0.03435 -31.333334,0.763185 -2.933334,0.717763 -8.13019,1.662822 -11.54857,2.100131 -9.414937,1.204444 -9.44032,4.310399 -0.04303,5.265957 4.175374,0.424572 10.291596,1.269844 13.591596,1.878383 8.361164,1.541844 56.629056,0.459435 64.391686,-1.443987 z M 89.333335,32.095239 c 0,-7.077639 -2.314893,-10.761906 -6.761905,-10.761906 -1.414286,0 -2.571428,-0.9 -2.571428,-2 0,-3.005253 -7.47483,-2.52517 -10.686347,0.686347 -1.477491,1.477491 -2.645372,4.327491 -2.595294,6.333333 0.05008,2.005843 -0.305737,5.269396 -0.790702,7.25234 l -0.881755,3.605354 9.810382,0.46305 c 5.39571,0.254678 10.860382,0.58227 12.143716,0.72798 1.942439,0.220547 2.333333,-0.835958 2.333333,-6.306498 z"
       id="path148" />
  </g>
</svg>
