<?xml version="1.0" encoding="UTF-8" standalone="no"?>
<!-- Created with Inkscape (http://www.inkscape.org/) -->

<svg
   version="1.1"
   id="svg2"
   width="162.66667"
   height="154.66667"
   viewBox="0 0 162.66667 154.66667"
   xmlns="http://www.w3.org/2000/svg"
   xmlns:svg="http://www.w3.org/2000/svg">
  <defs
     id="defs6" />
  <g
     id="g8">
    <path
       style="fill:#000000;stroke-width:1.33333"
       d="m 145.11448,149.76962 c -2.18181,-0.57791 -6.44781,-9.26494 -6.44781,-13.12994 0,-2.81005 -1.24717,-2.45538 -4.78344,1.36032 -3.73941,4.0349 -6.29865,4.2071 -9.61538,0.647 l -2.50269,-2.68632 -3.61794,3.35299 c -4.54392,4.21117 -6.45962,4.21508 -9.61025,0.0197 -3.02678,-4.0305 -4.69796,-4.17206 -7.8703,-0.66666 -1.327316,1.46666 -3.387853,2.66666 -4.578972,2.66666 -1.19112,0 -3.030583,-1.2 -4.087696,-2.66666 -1.057113,-1.46667 -2.557114,-2.66667 -3.333334,-2.66667 -0.77622,0 -2.27622,1.2 -3.333333,2.66667 -1.057113,1.46666 -3.268459,2.66666 -4.9141,2.66666 -1.645643,0 -3.634297,-1.2 -4.419233,-2.66666 -0.784936,-1.46667 -2.031135,-2.66667 -2.76933,-2.66667 -0.738196,0 -2.630221,1.2 -4.204504,2.66667 -3.819865,3.55874 -6.608659,3.3605 -10.158461,-0.72214 l -2.946523,-3.3888 -3.41245,4.05547 c -4.00301,4.75731 -6.999969,5.12541 -10.30475,1.26572 -2.107687,-2.4616 -2.652263,-2.56387 -4.629655,-0.86933 -4.212856,3.6102 -6.713336,3.65044 -10.844263,0.17449 -4.54469,-3.82411 -6.03954,-3.45708 -7.352908,1.80532 -1.769142,7.08855 -7.36823,10.48813 -11.1104912,6.74587 C 5.7873552,145.254 6.3568641,140.52269 10,133.33331 c 1.833334,-3.61791 3.333334,-7.25534 3.333334,-8.08319 0,-0.82784 1.240856,-3.24778 2.757458,-5.37765 3.615456,-5.07744 10.045914,-5.44 11.859966,-0.66868 1.658452,4.36206 3.197887,5.05782 6.186147,2.79588 3.90604,-2.95665 7.970228,-2.38558 10.500029,1.47538 l 2.276959,3.47508 4.273197,-4.14175 c 5.014284,-4.86003 6.243179,-5.05125 9.479578,-1.47507 3.025001,3.34258 4.955164,3.3645 7.918624,0.0899 2.523073,-2.78797 4.81406,-2.45286 9.899463,1.44803 3.054819,2.34328 3.254465,2.33632 6.513144,-0.22695 4.077817,-3.20761 5.419036,-3.28364 8.514122,-0.48263 2.38426,2.15773 2.89103,2.07485 9.136999,-1.49434 3.05337,-1.74481 3.60026,-1.62208 6.91249,1.55124 l 3.5968,3.44595 3.60066,-2.83228 c 4.35951,-3.42919 6.3373,-3.54553 9.33377,-0.54906 2.15541,2.1554 2.48821,2.03767 5.94505,-2.10305 2.82295,-3.38145 4.51357,-4.28631 7.37989,-3.94989 3.7367,0.43858 8.27656,6.06697 8.48487,10.51929 0.0536,1.14559 1.22336,4.44559 2.59947,7.33333 4.3406,9.1087 4.54033,10.87476 1.56618,13.8489 -2.78794,2.78795 -3.0776,2.8645 -6.95372,1.83782 z M 71.333335,94.979585 C 70.600001,94.440814 69.331716,92.800002 68.514924,91.333335 66.796456,88.247583 60.662919,87.990375 28.523994,89.65633 10.992502,90.565093 9.5576623,90.457858 7.4038163,88.077885 5.930822,86.450245 5.4108432,84.522938 5.9696732,82.76222 c 0.832888,-2.624198 1.9215179,-2.775168 21.7868448,-3.02137 11.500581,-0.142534 24.21015,-0.157114 28.243483,-0.0324 10.580088,0.327143 13.333334,-0.52647 13.333334,-4.133849 0,-6.36374 7.311115,-8.783576 8.785808,-2.907931 0.995161,3.96504 4.547525,4.485816 4.547525,0.666667 0,-2.078972 0.88889,-2.666667 4.033334,-2.666667 3.387547,0 4.157641,0.62154 4.809713,3.881899 0.430712,2.153563 1.834138,4.158509 3.152136,4.503173 2.9542,0.772542 41.379219,-0.07563 48.773329,-1.076596 9.03584,-1.223208 13.57369,2.560108 9.05698,7.551015 -2.05036,2.265623 -4.68821,2.473843 -31.34007,2.473843 H 92.050807 l -0.824621,3.285553 c -1.207284,4.810204 -5.736554,5.78206 -8.71888,1.870834 l -2.406756,-3.156387 -2.12588,3 c -2.180434,3.076987 -4.291252,3.706159 -6.641335,1.979583 z M 129.33334,47.906074 C 124.83094,46.792412 76.126328,46.385194 28.173743,47.060282 3.3558823,47.409674 2.8868997,47.283128 4.5431772,40.683993 5.0479562,38.672793 6.6421119,37.055657 8.6058062,36.562801 11.211068,35.908922 12.613756,33.643034 15.840572,24.875829 22.566519,6.6015427 23.171828,5.352702 25.69089,4.5531829 c 3.863392,-1.226193 6.066443,1.6970847 9.4995,12.6051051 l 3.202371,10.175046 5.877539,0.699171 c 3.232645,0.384542 7.432732,1.922486 9.333525,3.41765 3.141571,2.471159 5.136359,2.695252 21.926083,2.46316 10.158551,-0.140425 29.037862,-0.38546 41.954012,-0.54452 l 23.48392,-0.2892 0.76615,-9.138524 c 1.00699,-12.011314 2.46857,-14.6077375 8.22308,-14.6077375 5.75544,0 6.08299,1.0364985 6.43339,20.3582295 0.34853,19.219013 0.0368,19.690893 -12.88704,19.50529 C 138.27654,49.121788 131.9,48.540937 129.33334,47.906074 Z M 33.399766,36.746713 c -0.876381,-1.055975 -2.893719,-2.105975 -4.482972,-2.333334 -3.7742,-0.539936 -4.401125,-4.26238 -1.248772,-7.414733 1.957355,-1.957355 2.239888,-3.274917 1.304201,-6.081979 -0.656945,-1.970833 -1.661613,-3.583333 -2.232597,-3.583333 -0.937499,0 -4.072959,12.844733 -4.072959,16.685289 0,1.966035 4.970147,4.438184 9.16326,4.557804 2.605607,0.07433 2.882355,-0.248229 1.569839,-1.829714 z"
       id="path1042" />
  </g>
</svg>
