<?xml version="1.0" encoding="UTF-8" standalone="no"?>
<!-- Created with Inkscape (http://www.inkscape.org/) -->

<svg
   version="1.1"
   id="svg12"
   width="161.33333"
   height="153.33333"
   viewBox="0 0 161.33333 153.33333"
   xmlns="http://www.w3.org/2000/svg"
   xmlns:svg="http://www.w3.org/2000/svg">
  <defs
     id="defs16" />
  <g
     id="g18">
    <path
       style="fill:#000000;stroke-width:1.33333"
       d="m 56.999999,147.04909 c -2.004964,-2.22757 -2.319983,-5.2984 -2.238468,-21.82075 0.126947,-25.731551 1.463528,-39.711783 3.946788,-41.2823 1.07709,-0.681198 11.365489,-1.247728 22.863107,-1.258958 17.350733,-0.01695 21.265254,0.340078 23.025184,2.100008 1.83361,1.833603 2.07193,6.117036 1.76191,31.66667 L 106,146 91.999998,146.83858 c -7.7,0.46123 -18.2,1.28056 -23.333333,1.82075 -8.285905,0.87195 -9.59519,0.69124 -11.666666,-1.61024 z m 1,-108.560584 c -2.2,-0.6356 -10.3,-2.080432 -18,-3.210739 C 26.133477,33.242258 10.27827,28.923013 6.9319127,26.269422 5.9777981,25.512829 5.3777982,23.049105 5.5985794,20.794478 5.9859295,16.838845 6.397252,16.592377 17.333333,13.762909 51.474983,4.929515 82.781976,3.2344466 115.33333,8.4568509 c 14.46004,2.3199081 32.27567,7.0220901 36.16236,9.5445411 3.24231,2.104249 4.84557,8.065141 2.65112,9.856845 -1.95084,1.59281 -18.97267,5.812668 -23.36765,5.793041 -1.8952,-0.0085 -4.34583,0.455175 -5.44583,1.030308 -1.1,0.575133 -6.5,1.485733 -12,2.023557 -5.5,0.537824 -12.1,1.216007 -14.666665,1.507074 -10.386325,1.177834 -36.922133,1.358118 -40.666666,0.276289 z M 118,24.829659 l 8,-1.792558 -5.33334,-1.470543 c -14.56057,-4.014738 -20.08874,-4.436896 -49.001788,-3.74201 -34.736303,0.834841 -43.030657,1.66681 -40.622775,4.074692 2.529816,2.529817 9.540078,3.781553 26.957902,4.813543 C 79.162488,27.966641 108.04563,27.060131 118,24.829659 Z"
       id="path903" />
  </g>
</svg>
