<?xml version="1.0" encoding="UTF-8" standalone="no"?>
<!-- Created with Inkscape (http://www.inkscape.org/) -->

<svg
   version="1.1"
   id="svg22"
   width="165.33333"
   height="157.33333"
   viewBox="0 0 165.33333 157.33333"
   xmlns="http://www.w3.org/2000/svg"
   xmlns:svg="http://www.w3.org/2000/svg">
  <defs
     id="defs26" />
  <g
     id="g28">
    <path
       style="fill:#000000;stroke-width:1.33333"
       d="m 51.870374,150.53704 c -4.067571,-4.06758 -2.6308,-10.47064 4.784786,-21.32373 5.138039,-7.51979 7.251616,-9.40567 13.870025,-12.37584 14.943636,-6.7063 36.507175,-3.31108 45.179315,7.11357 8.72099,10.4834 12.52847,25.06996 7.27746,27.88021 -1.29325,0.69213 -17.18404,1.32245 -35.312856,1.40072 -31.940678,0.13791 -33.04936,0.0544 -35.79873,-2.69493 z M 151.1322,109.64625 c -2.67426,-1.7072 -10.83562,-14.702775 -12.52316,-19.940984 -0.89278,-2.771231 -2.04172,-5.638601 -2.55322,-6.371934 -0.51148,-0.733334 -2.00666,-4.333334 -3.32263,-8 -1.31597,-3.666667 -4.33258,-9.666667 -6.70359,-13.333333 -2.37101,-3.666667 -5.34429,-8.366783 -6.6073,-10.444701 -3.51945,-5.790228 -9.55308,-7.622834 -24.429563,-7.420027 -18.407004,0.250939 -24.116944,-0.07743 -31.352856,-1.803044 -7.575539,-1.806609 -8.476426,-1.180445 -13.962499,9.704676 -3.406756,6.759469 -4.058274,7.327654 -8.853088,7.720724 -6.350741,0.520622 -7.756176,-0.7763 -8.739212,-8.064471 l -0.767899,-5.693157 -7.528771,0.453152 C 13.165972,47.092507 4.7268154,43.300743 3.5375278,37.354306 2.4365685,31.849509 5.6277922,24.921327 11.03922,21.068052 c 3.939954,-2.805496 4.205661,-2.82194 10.347902,-0.640408 3.467263,1.231462 7.650271,2.239022 9.295573,2.239022 2.758582,0 2.922967,-0.428328 2.111634,-5.502128 -0.996507,-6.231814 1.65685,-11.8312048 5.6064,-11.8312048 3.444553,0 8.265937,3.797089 8.265937,6.5098528 0,3.450396 5.61859,8.156814 9.737725,8.156814 1.96122,0 8.208045,-1.273567 13.881834,-2.830148 11.298083,-3.099584 19.594445,-2.921344 37.047105,0.795924 5.13333,1.093357 11.8344,1.998338 14.89126,2.011072 4.84177,0.02017 5.90414,-0.535202 8.24497,-4.310182 4.48361,-7.2305778 8.08152,-10.3333328 11.98238,-10.3333328 8.37638,0 9.63356,9.1874358 2.21472,16.1850688 C 142.1,23.939347 140,26.872426 140,28.036355 c 0,2.542335 6.4459,10.612019 8.5267,10.67467 2.77723,0.08363 7.4733,5.049229 7.4733,7.902245 0,1.568869 0.8143,4.472693 1.80957,6.452942 2.76671,5.504835 3.7364,12.404329 2.03201,14.458 -3.62362,4.366198 -11.43442,0.06009 -13.88262,-7.653524 -0.4497,-1.416843 -1.41351,-2.207799 -2.14182,-1.75768 -0.79422,0.490863 -0.41278,1.825497 0.95312,3.334797 2.06543,2.282271 2.36746,4.675582 1.79948,14.259047 -0.26578,4.484673 5.34431,17.643054 9.6666,22.672874 2.07002,2.408854 3.76366,5.438854 3.76366,6.733334 0,4.46858 -4.98067,7.01468 -8.8678,4.53319 z"
       id="path764" />
  </g>
</svg>
