<?xml version="1.0" encoding="UTF-8" standalone="no"?>
<!-- Created with Inkscape (http://www.inkscape.org/) -->

<svg
   version="1.1"
   id="svg32"
   width="165.33333"
   height="109.33333"
   viewBox="0 0 165.33333 109.33333"
   xmlns="http://www.w3.org/2000/svg"
   xmlns:svg="http://www.w3.org/2000/svg">
  <defs
     id="defs36" />
  <g
     id="g38">
    <path
       style="fill:#000000;stroke-width:1.33333"
       d="M 34.167723,101.51866 C 32.482739,99.656777 32.220591,97.37886 32.879395,90.323872 34.225154,75.91247 29.458863,56.485222 22.508781,48.053565 c -2.113163,-2.563632 -3.842115,-5.478689 -3.842115,-6.477904 0,-0.999214 -2.943209,-4.653526 -6.540466,-8.120693 C 6.2932605,27.83297 5.48553,26.349023 4.6594347,19.737181 3.6877686,11.960228 5.2554452,6.6666665 8.5302386,6.6666665 c 0.9733619,0 4.0347544,1.7999999 6.8030944,3.9999995 2.76834,2.2 5.400843,4.006399 5.850007,4.01422 1.0268,0.01788 12.136059,10.553335 14.816659,14.051364 1.1,1.435436 3.867047,5.007904 6.148992,7.938817 2.281945,2.930912 4.916672,7.728932 5.854949,10.662265 0.938276,2.933333 2.024756,6.233333 2.414399,7.333333 0.389643,1.1 1.954916,6.689234 3.478384,12.420521 l 2.769943,10.420521 26.610107,0.246145 26.610107,0.246146 1.53987,-10 c 2.5355,-16.465724 4.48308,-24.357061 6.58437,-26.678957 C 119.105,40.112315 120,38.685419 120,38.15016 c 0,-1.696568 8.48505,-11.993642 13.30813,-16.150161 2.55281,-2.2 7.46187,-6.593803 10.90901,-9.76401 4.84399,-4.45483 7.12102,-5.6661899 10.0252,-5.3333327 3.22331,0.3694341 3.92388,1.2226608 4.92659,6.0001477 1.89413,9.024649 1.15295,10.657625 -11.313,24.924712 -4.18901,4.794265 -8.15296,10.742315 -8.55636,12.839149 -0.0705,0.366667 -1.09009,2.866161 -2.26565,5.554432 -3.31262,7.57524 -6.6957,29.876942 -5.66692,37.357027 1.49964,10.903696 3.91818,10.390706 -48.706135,10.330836 -42.467603,-0.0483 -46.556062,-0.24985 -48.493142,-2.3903 z"
       id="path625" />
  </g>
</svg>
