<?xml version="1.0" encoding="UTF-8" standalone="no"?>
<!-- Created with Inkscape (http://www.inkscape.org/) -->

<svg
   version="1.1"
   id="svg42"
   width="104"
   height="165.33333"
   viewBox="0 0 104 165.33333"
   xmlns="http://www.w3.org/2000/svg"
   xmlns:svg="http://www.w3.org/2000/svg">
  <defs
     id="defs46" />
  <g
     id="g48">
    <path
       style="fill:#000000;stroke-width:1.33333"
       d="m 82.666667,156.36148 c -1.1,-0.41874 -2.395279,-1.36824 -2.878398,-2.11 -1.64971,-2.53294 -0.352268,-35.29867 1.485423,-37.51295 2.428171,-2.92577 10.156821,-2.66792 12.317369,0.41093 2.355338,3.35644 1.137334,34.89635 -1.468894,38.03667 -1.775666,2.13955 -5.6556,2.62183 -9.4555,1.17535 z M 8.2701472,154.3255 c -0.7856704,-0.94668 -1.2253492,-6.30734 -1.0115704,-12.33333 0.2079741,-5.86236 0.4598748,-14.34074 0.5597791,-18.84084 0.1812248,-8.16311 0.1916464,-8.18349 4.5149771,-8.8285 2.383334,-0.35557 5.626874,-0.15999 7.207867,0.43463 2.746812,1.03309 2.877849,1.89596 2.949133,19.41984 0.04608,11.32652 -0.478204,19.0048 -1.371126,20.08071 -1.844771,2.2228 -11.020305,2.27101 -12.8490598,0.0675 z m 36.0175698,0.5472 c -2.537965,-1.61037 -2.100324,-33.12493 0.516679,-37.20604 2.18222,-3.40308 8.613361,-4.11141 11.018356,-1.21357 0.946655,1.14065 1.411693,8.15318 1.286441,19.39889 -0.171385,15.38794 -0.49536,17.77259 -2.565022,18.88024 -2.886115,1.5446 -7.934559,1.61375 -10.256454,0.14048 z m 5.71908,-80.202891 C 43.061781,71.458152 29.100277,53.790996 26.286752,44.654006 22.151956,31.226155 27.927713,18.12802 40.613016,12.165224 47.680533,8.8430984 58.383419,8.4288862 63.868288,11.265222 c 5.472181,2.829775 12.100291,10.948131 12.340012,15.114505 0.114564,1.99115 0.325311,5.420272 0.468324,7.620272 0.541333,8.327383 -6.874587,14 -18.302463,14 -6.843428,0 -11.25478,-1.644293 -13.998424,-5.217791 C 39.457335,36.376166 45.789,24.814802 53.7904,25.591417 c 3.480613,0.337828 4.282788,1.044861 4.632228,4.08283 0.275608,2.396086 -0.304176,3.953148 -1.666667,4.475984 -2.88118,1.105614 -2.635017,4.516435 0.325958,4.516435 3.32504,0 8.251414,-4.859615 8.251414,-8.139596 0,-6.70149 -7.924934,-12.832253 -14.476938,-11.19942 -9.25172,2.305634 -11.721304,4.495115 -13.518058,11.984824 -2.117013,8.824704 -0.926617,12.360652 7.081375,21.034492 6.934465,7.511053 12.397249,10.319699 20.071692,10.319699 8.840531,0 10.175263,0.871791 10.175263,6.646059 0,2.765083 -0.75,5.619104 -1.666667,6.342272 -2.679349,2.113765 -17.681949,1.47095 -22.993203,-0.985187 z"
       id="path368" />
  </g>
</svg>
