<?xml version="1.0" encoding="UTF-8" standalone="no"?>
<!-- Created with Inkscape (http://www.inkscape.org/) -->

<svg
   version="1.1"
   id="svg52"
   width="164"
   height="150.66667"
   viewBox="0 0 164 150.66667"
   xmlns="http://www.w3.org/2000/svg"
   xmlns:svg="http://www.w3.org/2000/svg">
  <defs
     id="defs56" />
  <g
     id="g58">
    <path
       style="fill:#000000;stroke-width:1.33333"
       d="m 8.8107933,143.03302 c -2.4888553,-2.48886 -0.3391364,-7.09274 5.5225397,-11.82719 3.483334,-2.81347 6.633334,-5.444 7,-5.84561 4.349062,-4.76358 16.25642,-12.86613 22.928639,-15.60215 L 52.666667,106.31163 102,106.08661 c 27.13333,-0.12376 50.83333,0.14929 52.66667,0.60678 2.74554,0.68513 3.33333,1.63779 3.33333,5.40254 v 4.57074 l -16.49041,0.66667 c -9.06972,0.36666 -24.36972,0.36666 -34,0 -9.630274,-0.36667 -26.20959,-0.36667 -36.842923,0 -18.24205,0.62903 -19.83499,0.90433 -28.220731,4.87725 -4.888068,2.31582 -9.591243,5.52574 -10.451499,7.13314 l -1.564101,2.92255 63.658723,-0.43602 c 58.370891,-0.39981 63.775701,-0.25058 65.066971,1.7965 0.9518,1.50892 0.98214,3.44376 0.0936,5.96955 l -1.3146,3.73703 -74.156725,0.25524 C 42.992111,143.72895 9.2567296,143.47895 8.8107933,143.03302 Z M 70.666667,82.824627 C 59.656747,79.130907 48.660941,69.924611 46.661067,62.725811 44.833693,56.147952 45.008808,46.276086 47,43.61888 c 0.916667,-1.223274 3.732804,-2.387951 6.258084,-2.588174 4.41574,-0.350109 4.635513,-0.14745 5.743944,5.296622 0.910715,4.472994 1.856309,5.837297 4.506905,6.502555 4.102123,1.029566 9.642115,-1.309037 10.624688,-4.485013 1.554472,-5.024521 2.996772,-6.373109 7.620814,-7.125658 6.184424,-1.006498 7.275002,-0.22353 8.594162,6.17007 0.947428,4.591916 1.601648,5.32241 5.036798,5.624025 5.786555,0.508074 10.401655,-2.428865 12.122915,-7.714735 1.41651,-4.349998 1.86283,-4.631904 7.33333,-4.631904 5.77713,0 5.82845,0.04144 6.24125,5.040317 1.05969,12.83248 -8.0269,28.312566 -20.29196,34.569727 -5.854874,2.986938 -24.192566,4.537942 -30.124263,2.547915 z m 1.60871,-54.086032 C 70.466381,24.768281 64.014396,23.245101 56.545637,25.02513 53.678869,25.708366 43.833333,26.126069 34.666667,25.953357 5.7084957,25.40775 8,25.739283 8,22.095239 c 0,-3.39934 3.08918,-7.402233 5.761905,-7.466155 0.864286,-0.02067 14.144012,-0.170669 29.510504,-0.333333 L 71.211484,14 71.991473,10.666667 C 73.07784,6.0240105 80.435228,5.1638512 82.709623,9.4135975 L 84.263085,12.31627 85.837587,9.1581351 C 88.221413,4.3766553 93.52408,4.9196413 95.842533,10.182628 l 1.842535,4.182628 25.490802,-0.528277 c 14.01994,-0.290553 26.75658,-0.813031 28.30366,-1.161063 1.75516,-0.394844 3.74399,0.396093 5.28911,2.103434 2.25964,2.496873 2.30108,3.048984 0.47372,6.311768 -1.58671,2.833085 -3.37716,3.782157 -8.62244,4.570532 -8.8338,1.327733 -7.93959,1.341715 -19.28659,-0.301547 -8.89211,-1.287745 -26.21062,-0.862861 -32.189369,0.78972 -1.204156,0.332839 -2.497984,1.785291 -2.875174,3.22767 -0.846954,3.238757 -4.547958,3.386486 -7.939784,0.316926 -2.414642,-2.185221 -2.614998,-2.185221 -3.837908,0 -2.005848,3.584252 -8.420584,2.984063 -10.215718,-0.955824 z"
       id="path229" />
  </g>
</svg>
