<?xml version="1.0" encoding="UTF-8" standalone="no"?>
<!-- Created with Inkscape (http://www.inkscape.org/) -->

<svg
   version="1.1"
   id="svg62"
   width="153.33333"
   height="154.66667"
   viewBox="0 0 153.33333 154.66667"
   xmlns="http://www.w3.org/2000/svg"
   xmlns:svg="http://www.w3.org/2000/svg">
  <defs
     id="defs66" />
  <g
     id="g68">
    <path
       style="fill:#000000;stroke-width:1.33333"
       d="M 6.9368137,147.65884 C 6.1511433,146.71216 5.7114645,141.3515 5.9252433,135.32551 6.1332175,129.46315 6.3851181,120.98477 6.4850224,116.48467 6.6662472,108.32155 6.6766688,108.30118 11,107.65617 c 2.383333,-0.35558 5.626873,-0.15999 7.207866,0.43463 2.746812,1.03309 2.87785,1.89596 2.949134,19.41984 0.04608,11.32652 -0.478204,19.0048 -1.371127,20.08071 -1.844771,2.2228 -11.0203048,2.27101 -12.8490593,0.0675 z m 63.3965183,0.23436 c -2.033103,-1.18417 -2.333333,-3.59208 -2.333333,-18.71377 0,-9.54511 0.57869,-18.43603 1.285978,-19.75761 1.821888,-3.40423 9.076512,-4.59448 12.866752,-2.11102 3.257102,2.13413 3.174286,0.72638 2.017431,34.2932 -0.155766,4.5196 -0.593182,5.0548 -5.170162,6.3259 -5.989142,1.66326 -5.746249,1.66429 -8.666666,-0.0367 z m 62.206648,-1.38409 c -2.21187,-2.45939 -2.51241,-4.76701 -2.3265,-17.86371 0.25785,-18.16574 1.27314,-20.6454 8.45318,-20.6454 7.15256,0 8,2.14849 8,20.28234 0,11.53073 -0.49317,15.82841 -2.0756,18.08765 -2.68098,3.82764 -8.67158,3.8968 -12.05108,0.13912 z M 27.102785,59.619421 c -1.59347,-0.890681 -5.038996,-4.427568 -7.656728,-7.859749 -2.617732,-3.43218 -5.963985,-6.622614 -7.436119,-7.08985 -3.2298346,-1.02511 -3.5224235,-5.525226 -0.571263,-8.786223 1.930729,-2.13343 1.820143,-2.837216 -1.333333,-8.485632 -4.6735313,-8.371092 -4.529046,-14.512724 0.45876,-19.500531 2.982688,-2.982688 5.124767,-3.8974359 9.126683,-3.8974359 9.242848,0 12.653846,7.4109569 5.013301,10.8922229 -1.853914,0.844699 -3.364285,2.489508 -3.356381,3.655131 0.02579,3.801849 10.631433,13.333747 20.152117,18.111847 8.386188,4.208735 10.40148,4.673393 20.240183,4.666697 6.009663,-0.0041 13.02666,-0.573034 15.593327,-1.264321 4.05687,-1.092648 24.942648,-2.686875 42.220048,-3.222687 3.05435,-0.09472 6.01588,-0.633743 6.58115,-1.197824 0.56528,-0.56408 0.89077,-3.672355 0.72332,-6.907276 -0.16745,-3.234921 0.57564,-7.988054 1.65132,-10.562516 1.58225,-3.786844 3.02892,-4.969807 7.57459,-6.193827 8.32848,-2.2426291 8.95837,-1.016426 9.9562,19.381908 0.80673,16.491794 0.7096,17.485658 -1.94342,19.886603 -2.63628,2.385798 -5.3104,2.514327 -47.777889,2.296403 -45.055252,-0.231204 -52.318652,0.388519 -52.318652,4.463892 0,3.331067 -11.807161,4.45829 -16.897214,1.613168 z"
       id="path90" />
  </g>
</svg>
