<?xml version="1.0" encoding="UTF-8" standalone="no"?>
<!-- Created with Inkscape (http://www.inkscape.org/) -->

<svg
   version="1.1"
   id="svg2"
   width="62.666668"
   height="164"
   viewBox="0 0 62.666668 164"
   xmlns="http://www.w3.org/2000/svg"
   xmlns:svg="http://www.w3.org/2000/svg">
  <defs
     id="defs6" />
  <g
     id="g8">
    <path
       style="fill:#000000;stroke-width:1.33333"
       d="m 23.287576,155.92596 c -0.478392,-0.77405 -0.67736,-13.37877 -0.44215,-28.01048 l 0.427653,-26.60312 -8.969872,-8.095636 c -6.3704907,-5.7496 -8.9698736,-9.030852 -8.9698736,-11.322848 0,-1.945291 0.7758098,-3.227209 1.9530884,-3.227209 2.6346305,0 5.0559302,-4.820864 4.0357292,-8.035232 C 9.8703231,66.057129 9.4000259,11.700073 10.78981,9.1032391 12.233483,6.4057105 17.395927,5.8927636 21.420988,8.0469117 c 1.861887,0.9964511 2.579013,2.8028133 2.579013,6.4962563 0,4.920367 0.199901,5.147976 5.227376,5.951901 7.332329,1.172487 9.173133,0.06244 10.419979,-6.28352 0.933818,-4.7527693 1.619761,-5.6062637 4.801678,-5.9745591 7.423228,-0.8592123 7.550967,-0.2509703 7.550967,35.9548551 v 33.198659 l 3.333334,1.518768 c 6.072542,2.766836 3.747409,8.311948 -5.459062,13.019083 -7.132751,3.64687 -11.726686,8.651175 -12.058035,13.135155 -0.146443,1.98174 -0.315005,13.6103 -0.374581,25.84125 -0.08932,18.33761 -0.47582,22.6056 -2.203562,24.33333 -2.362624,2.36263 -10.621657,2.83802 -11.950519,0.68787 z M 38.421897,75.006331 c -0.332235,-2.882444 -1.271974,-3.813732 -4.421896,-4.382127 -8.095615,-1.460831 -12.738371,1.124484 -10.851166,6.042463 0.555723,1.448188 2.826766,2 8.231216,2 7.352702,0 7.457466,-0.05445 7.041846,-3.660336 z M 37.066667,58.4 c 2.646455,-2.646455 1.85719,-6.284644 -1.548836,-7.139503 -8.685437,-2.179905 -16.803735,1.976947 -12.94392,6.627739 2.094706,2.523967 12.126322,2.878199 14.492756,0.511764 z m 1.308679,-20.330901 c 2.024091,-2.024091 -2.247929,-5.422551 -7.293096,-5.801775 -6.355865,-0.477744 -10.538412,2.882305 -6.900636,5.543627 2.160671,1.580701 12.679861,1.77202 14.193732,0.258148 z"
       id="path1918" />
  </g>
</svg>
