<?xml version="1.0" encoding="UTF-8" standalone="no"?>
<!-- Created with Inkscape (http://www.inkscape.org/) -->

<svg
   version="1.1"
   id="svg12"
   width="160"
   height="157.33333"
   viewBox="0 0 160 157.33333"
   xmlns="http://www.w3.org/2000/svg"
   xmlns:svg="http://www.w3.org/2000/svg">
  <defs
     id="defs16" />
  <g
     id="g18">
    <path
       style="fill:#000000;stroke-width:1.33333"
       d="m 71.219937,150.48318 c -0.515592,-0.83424 -1.098552,-9.08424 -1.295465,-18.33333 -0.44002,-20.66789 0.707188,-23.53001 8.986304,-22.41954 2.920201,0.39168 5.664787,1.06747 6.099077,1.50176 0.434292,0.43429 0.933814,8.89281 1.11005,18.79671 0.257478,14.46958 -0.06895,18.39646 -1.661643,19.98915 -2.327568,2.32756 -11.879869,2.66328 -13.238323,0.46525 z M 4.8107933,99.033014 C 2.321938,96.544158 4.4716569,91.940275 10.333333,87.205826 c 3.483334,-2.813472 6.633334,-5.443998 7,-5.845613 4.349062,-4.76358 16.25642,-12.866124 22.928639,-15.602144 L 48.666667,62.311628 98,62.086604 c 27.13333,-0.12376 50.83333,0.149288 52.66667,0.606781 C 153.41221,63.378512 154,64.331177 154,68.095928 v 4.570737 l -16.49041,0.666667 c -9.06972,0.366666 -24.36972,0.366666 -34,0 -9.630274,-0.366667 -26.20959,-0.366667 -36.842923,0 -18.24205,0.629036 -19.83499,0.904336 -28.220731,4.877254 -4.888068,2.315823 -9.591243,5.525735 -10.451499,7.133139 l -1.564101,2.922552 63.658723,-0.436026 c 58.370891,-0.399805 63.775701,-0.250577 65.066971,1.796503 0.9518,1.508928 0.98214,3.44376 0.0936,5.969552 l -1.3146,3.737025 -74.156725,0.255238 C 38.992111,99.72895 5.2567296,99.47895 4.8107933,99.033014 Z M 38.267401,44.95386 C 36.566516,43.651296 36.083301,40.007335 35.804661,26.382109 35.614,17.058936 35.862925,9.0259637 36.357828,8.5310604 37.577459,7.3114298 41.809283,7.0812517 82.666667,6.0122221 111.30254,5.2629674 118.41352,5.4269242 120.18157,6.8771976 c 1.71424,1.4061321 2.36977,5.4142364 3.06012,18.7103804 0.82865,15.959745 0.72911,17.00089 -1.75227,18.328889 -4.03611,2.16006 -80.511239,3.113351 -83.222019,1.037393 z"
       id="path1779" />
  </g>
</svg>
