<?xml version="1.0" encoding="UTF-8" standalone="no"?>
<!-- Created with Inkscape (http://www.inkscape.org/) -->

<svg
   version="1.1"
   id="svg22"
   width="160"
   height="154.66667"
   viewBox="0 0 160 154.66667"
   xmlns="http://www.w3.org/2000/svg"
   xmlns:svg="http://www.w3.org/2000/svg">
  <defs
     id="defs26" />
  <g
     id="g28">
    <path
       style="fill:#000000;stroke-width:1.33333"
       d="m 7,148.4503 c -2.4579964,-0.99183 -2.0327899,-6.38111 1.1206053,-14.20312 1.5329996,-3.80261 3.8859287,-9.61384 5.2287307,-12.91384 1.342803,-3.3 2.784405,-7.08833 3.203561,-8.4185 1.060171,-3.3644 8.877947,-2.57526 10.750402,1.08516 3.122354,6.10383 3.409494,6.27647 6.773256,4.07245 4.31728,-2.82879 8.237332,-2.60115 10.232876,0.59422 0.915948,1.46667 2.32804,2.66667 3.137981,2.66667 0.809941,0 2.558607,-1.2 3.885921,-2.66667 3.151956,-3.48287 8.00343,-3.39769 10.512552,0.18459 l 1.997095,2.85125 4.180811,-3.51792 C 73.175867,113.8494 73.819948,113.8363 77.09512,118 c 3.167149,4.02638 5.697728,4.23916 7.928783,0.66667 2.10839,-3.37607 4.378478,-3.37607 8.002264,0 1.574282,1.46667 3.394426,2.66667 4.044765,2.66667 0.650339,0 2.26842,-1.2 3.595738,-2.66667 3.08028,-3.40367 4.43047,-3.3534 8.33018,0.31019 3.07795,2.89158 3.28402,2.91068 7.19398,0.66666 4.93675,-2.8333 6.99067,-2.90299 9.1425,-0.31018 2.50391,3.01702 3.65476,2.4939 7.33334,-3.33334 5.3711,-8.50839 8.80641,-6.79742 14.94953,7.44569 1.87109,4.3382 4.22289,9.77832 5.22623,12.08915 2.34778,5.4073 2.31394,9.06555 -0.1024,11.07092 -3.86426,3.20706 -7.80686,1.05612 -11.35382,-6.19422 -3.70912,-7.5818 -5.22446,-8.44511 -7.74348,-4.41154 -1.97328,3.15975 -6.54477,3.47031 -9.65466,0.6559 -1.99168,-1.80244 -2.54175,-1.73336 -5.309,0.66666 -3.65517,3.17012 -8.3625,3.46875 -10.67907,0.67744 -0.91292,-1.1 -2.41292,-2 -3.33333,-2 -0.92042,0 -2.42042,0.9 -3.33334,2 -2.493311,3.00426 -8.971973,2.57235 -9.999997,-0.66666 -1.002816,-3.1596 -3.683826,-3.45748 -6,-0.66667 -0.912918,1.1 -3.405216,2 -5.53844,2 -2.217644,0 -4.207244,-0.85647 -4.646058,-2 -1.081627,-2.81868 -4.157372,-2.48389 -6.124932,0.66667 -2.157764,3.45513 -5.09751,3.37469 -9.726075,-0.26615 l -3.728463,-2.9328 -1.947312,2.9328 c -2.282266,3.43728 -9.273228,4.05993 -10.473218,0.93281 -0.949271,-2.47376 -5.306478,-2.62404 -6.749248,-0.23278 -2.074755,3.4387 -5.577047,3.52512 -9.488215,0.23409 l -3.827503,-3.22064 -2.875268,3.88901 c -1.581397,2.13895 -2.875268,4.42031 -2.875268,5.06968 0,1.83136 -4.657144,5.60616 -6.771654,5.48871 C 9.5194223,149.17018 7.9166667,148.82018 7,148.4503 Z M 70.496593,97.799453 C 69.263951,96.317158 68.53882,90.985994 68.274976,81.466119 67.795299,64.158612 69.596732,59.54808 78.615853,55.000001 c 7.183336,-3.622345 10.999256,-3.72182 18.151962,-0.473192 8.067015,3.663891 9.898855,8.582567 9.898855,26.579461 0,15.912913 -1.14623,18.89373 -7.265315,18.89373 -5.01102,0 -5.852003,-2.512797 -5.620014,-16.792209 0.157814,-9.713737 -0.290546,-14.073228 -1.611268,-15.666667 -2.451833,-2.958115 -4.865517,-2.780981 -8.003606,0.587363 -2.32576,2.496409 -2.524364,4.131291 -1.85823,15.296643 C 83.140629,97.377213 82.142421,100 76,100 73.979585,100 71.503052,99.009755 70.496593,97.799453 Z M 54.666667,35.824371 c -7.7,-0.666648 -15.739534,-1.79985 -17.865631,-2.518229 -2.126097,-0.718377 -5.486075,-1.306141 -7.466616,-1.306141 -1.980541,0 -6.126807,-1.829698 -9.213925,-4.065994 -4.811338,-3.485316 -5.553974,-4.661454 -5.200051,-8.235503 0.332169,-3.354373 1.500028,-4.74251 5.973719,-7.100474 7.696817,-4.0567861 14.51351,-5.2200804 48.43917,-8.2663259 21.662236,-1.9450908 57.904707,2.6994401 78.461397,10.0549549 6.00912,2.150156 8.73346,5.998933 6.82818,9.646395 -0.58771,1.1251 -4.83444,2.848236 -9.50911,3.858377 -4.64592,1.00393 -9.04713,2.249242 -9.78047,2.767362 -1.47606,1.042878 -13.68563,3.438713 -24,4.709424 -11.826049,1.456948 -42.276013,1.702064 -56.666663,0.456154 z M 111.06563,23.924577 c 3.51943,-0.691851 8.91943,-1.300081 12,-1.351623 10.96293,-0.183427 11.52537,-2.14466 0.93437,-3.258138 -5.5,-0.578238 -11.8,-1.30027 -14,-1.604517 -11.503465,-1.59086 -51.091909,-1.830737 -61.369341,-0.371855 -18.631026,2.644678 -13.57177,6.127775 11.199604,7.710486 18.298765,1.169159 42.241057,0.643748 51.235367,-1.124353 z"
       id="path1640" />
  </g>
</svg>
