<?xml version="1.0" encoding="UTF-8" standalone="no"?>
<!-- Created with Inkscape (http://www.inkscape.org/) -->

<svg
   version="1.1"
   id="svg32"
   width="156"
   height="158.66667"
   viewBox="0 0 156 158.66667"
   xmlns="http://www.w3.org/2000/svg"
   xmlns:svg="http://www.w3.org/2000/svg">
  <defs
     id="defs36" />
  <g
     id="g38">
    <path
       style="fill:#000000;stroke-width:1.33333"
       d="m 76.012497,150.14583 c -1.439521,-1.43952 -1.889278,-27.17819 -0.536512,-30.70344 0.970368,-2.52874 7.885394,-2.85262 9.445326,-0.44239 0.593278,0.91667 1.378689,5.86667 1.745356,11 0.611114,8.5556 0.927952,9.37032 3.802284,9.77718 1.724589,0.2441 4.573512,0.0829 6.33094,-0.35814 3.038188,-0.76253 3.181378,-1.27613 2.911781,-10.44384 -0.155947,-5.30303 0.197264,-12.34186 0.784918,-15.64186 0.65165,-3.65944 0.52586,-7.40443 -0.32247,-9.60021 L 98.783203,100.13292 80.391601,100.39979 62,100.66667 61.333333,124.38485 c -0.537288,19.11525 -1.054801,23.96297 -2.666666,24.97958 -3.275475,2.06585 -6.38739,1.48508 -8.544516,-1.59465 -1.717668,-2.45231 -1.913432,-7.00515 -1.275619,-29.66667 0.475592,-16.8978 1.311207,-27.4507 2.265929,-28.616235 2.056166,-2.510187 57.041009,-1.459262 60.185359,1.15032 1.69979,1.410703 2.03551,6.04627 2.03551,28.105935 0,14.52913 -0.5895,27.96713 -1.31001,29.86219 l -1.31001,3.4456 -16.67749,-0.27962 c -9.172621,-0.1538 -17.283116,-0.88526 -18.023323,-1.62547 z M 40.666667,35.323097 C 27.330076,32.862874 14.803531,29.599818 8.9158087,27.052273 4.4494224,25.119722 3.9343227,24.436071 4.6768256,21.426203 5.8893485,16.511026 6.2918405,16.27402 19.428771,12.73961 57.090744,2.6068859 83.030836,2.3853241 133.33333,11.766717 146.74671,14.268307 152,17.540942 152,23.395472 152,30.339914 112.27752,37.275813 73.333333,37.131373 60.385972,37.083346 45.845612,36.278465 40.666667,35.323097 Z M 102,25.948838 c 7.33333,-0.432456 16.02916,-1.455807 19.32406,-2.274112 l 5.99072,-1.48783 -3.99072,-1.130274 c -16.22907,-4.596491 -44.090761,-6.78122 -63.486552,-4.978196 -18.038367,1.676838 -26.596425,3.058026 -29.645452,4.784493 -2.058873,1.165807 -1.107107,1.670252 5.665245,3.002631 4.476922,0.88078 13.990496,1.924193 21.141278,2.318695 7.150781,0.394502 13.275524,0.988537 13.610537,1.320077 0.335015,0.33154 4.535015,0.2941 9.333333,-0.0832 4.79832,-0.3773 14.724218,-1.039828 22.057551,-1.472284 z"
       id="path1501" />
  </g>
</svg>
