<?xml version="1.0" encoding="UTF-8" standalone="no"?>
<!-- Created with Inkscape (http://www.inkscape.org/) -->

<svg
   version="1.1"
   id="svg42"
   width="164"
   height="156"
   viewBox="0 0 164 156"
   xmlns="http://www.w3.org/2000/svg"
   xmlns:svg="http://www.w3.org/2000/svg">
  <defs
     id="defs46" />
  <g
     id="g48">
    <path
       style="fill:#000000;stroke-width:1.33333"
       d="m 10.096498,146.21771 c -2.7914489,-2.79144 -3.4298313,-4.70104 -3.4298313,-10.25967 0,-5.77099 0.6042297,-7.43406 3.8974363,-10.72727 9.414312,-9.41431 25.730014,-0.14286 23.454144,13.3279 -1.197928,7.09046 -4.588992,9.77008 -13.275746,10.49045 -6.396176,0.53043 -7.605913,0.20868 -10.646003,-2.83141 z m 64.000001,0 c -2.79145,-2.79144 -3.429832,-4.70104 -3.429832,-10.25967 0,-5.77099 0.604229,-7.43406 3.897436,-10.72727 9.414312,-9.41431 25.730017,-0.14286 23.454144,13.3279 -1.197928,7.09046 -4.588992,9.77008 -13.275746,10.49045 -6.396176,0.53043 -7.605913,0.20868 -10.646002,-2.83141 z m 62.546421,1.85526 c -3.9941,-1.62014 -6.20813,-6.81582 -5.73202,-13.45134 0.38059,-5.30421 0.95074,-6.18574 5.75577,-8.89924 7.77872,-4.39282 13.36778,-4.01453 18.27325,1.23679 3.60748,3.86183 3.94596,4.95702 3.37345,10.91525 -0.81717,8.5044 -4.17788,11.49212 -12.79441,11.37438 -3.40209,-0.0465 -7.39631,-0.57561 -8.87604,-1.17584 z M 21.196121,68.397252 C 16.139373,67.615504 7.1759887,58.466303 6.1597224,53.049137 4.9227317,46.455411 7.2164909,36.348783 10.842822,32.414739 c 1.736448,-1.883795 5.133285,-4.266715 7.548526,-5.295378 9.225755,-3.92929 6.029013,-9.786028 -5.341439,-9.786028 -5.5552915,0 -6.6466678,-0.452681 -7.9411901,-3.293848 C 3.9611647,11.520878 4.0063173,10.265623 5.3005636,8.7061519 6.7043856,7.0146497 11.067612,6.6666667 30.872892,6.6666667 c 23.427171,0 23.900388,0.055909 24.971083,2.9502728 1.822821,4.9275535 0.300853,7.6978275 -4.332816,7.8865575 -7.790023,0.317291 -10.125442,0.793176 -12.153799,2.476563 -2.911247,2.41612 -2.49248,5.238407 0.975973,6.577572 5.395044,2.083019 12.649411,10.640609 14.182959,16.730884 1.153861,4.582395 1.056824,6.740831 -0.467008,10.387873 C 51.20552,60.482475 44.000388,66.159664 36.039488,67.866971 29.18302,69.33742 27.63528,69.392713 21.196121,68.397252 Z M 109.50649,52.296493 c -2.95058,-5.052092 -6.26502,-9.932829 -7.36542,-10.846082 -1.1004,-0.913255 -3.011289,-4.30656 -4.24641,-7.540679 -3.550779,-9.297579 -0.630891,-11.212504 11.77201,-7.720339 1.28333,0.361335 2.33903,1.366542 2.346,2.233791 0.007,0.867248 2.40696,5.350933 5.33333,9.963743 2.92637,4.612809 5.32067,9.142809 5.32067,10.066666 0,0.923858 0.6469,2.326647 1.43757,3.117311 0.79066,0.790663 1.24066,3.160663 1,5.266667 -0.383,3.351534 -1.04842,3.879946 -5.33531,4.23682 -4.77323,0.397358 -5.03413,0.174196 -10.26244,-8.777898 z m 31.13643,7.776483 c -1.47972,-0.600229 -3.57404,-2.812197 -4.65404,-4.915484 -1.07999,-2.103288 -3.96847,-7.022179 -6.41882,-10.930871 -9.50203,-15.157181 -9.63372,-20.243758 -0.52315,-20.206204 2.7242,0.0112 5.62333,0.46123 6.4425,1 C 136.3086,25.559188 139.31655,30.5 142.17375,36 c 2.8572,5.5 6.23696,11.483504 7.51058,13.296675 3.36766,4.794316 3.03732,10.198913 -0.68433,11.196277 -3.75629,1.006647 -4.99333,0.944481 -8.35708,-0.419976 z"
       id="path1362" />
  </g>
</svg>
