<?xml version="1.0" encoding="UTF-8" standalone="no"?>
<!-- Created with Inkscape (http://www.inkscape.org/) -->

<svg
   version="1.1"
   id="svg52"
   width="164"
   height="156"
   viewBox="0 0 164 156"
   xmlns="http://www.w3.org/2000/svg"
   xmlns:svg="http://www.w3.org/2000/svg">
  <defs
     id="defs56" />
  <g
     id="g58">
    <path
       style="fill:#000000;stroke-width:1.33333"
       d="m 34.597713,148 c -17.535056,-0.75899 -21.411277,-2.36503 -23.898705,-9.902 -1.2696616,-3.84712 -1.1523295,-5.47791 0.670497,-9.31924 5.149478,-10.85171 7.973991,-11.31538 69.363828,-11.38658 37.748847,-0.0438 51.142827,0.35065 52.333337,1.54115 2.06542,2.06543 2.03821,5.33423 -0.0667,8.00536 -1.45174,1.84229 -8.2003,2.20368 -52.333333,2.80254 -27.866667,0.37813 -51.731982,1.11111 -53.034031,1.62885 -1.764725,0.70171 -2.001837,1.38178 -0.931451,2.67151 1.131103,1.3629 8.709552,1.61264 35.700699,1.1765 18.845631,-0.30452 42.129606,-0.50953 51.742176,-0.45557 19.86718,0.11147 26.51478,-1.6109 27.92657,-7.23586 1.31002,-5.21957 0.24317,-7.87563 -4.42766,-11.02331 -5.84198,-3.93691 -14.86741,-4.97391 -34.15691,-3.92454 -32.660063,1.77674 -44.44668,2.18239 -57.48606,1.97844 -7.333333,-0.11469 -17.662069,-0.19739 -22.952747,-0.18377 -8.486958,0.0219 -9.719893,-0.29182 -10.472921,-2.6644 -0.552901,-1.74204 0.01746,-3.53438 1.619413,-5.08898 2.148299,-2.08479 5.973483,-2.50916 29.139588,-3.23275 C 58,102.92923 85.6,102.44404 104.66667,102.30914 c 34.36684,-0.24315 34.72246,-0.21705 41.11861,3.01837 8.22416,4.1601 10.21472,8.07568 10.21472,20.09312 0,9.3003 -0.1296,9.67173 -4.89705,14.03857 -8.14476,7.46032 -13.51491,8.24685 -59.769617,8.75415 C 68.6,148.46268 43.068971,148.36667 34.597713,148 Z M 8.6856895,99.512121 c -2.7918306,-2.041436 -2.544658,-3.018172 4.7690275,-18.845454 2.033212,-4.4 4.607054,-10.25 5.719647,-13 1.589079,-3.927726 2.746527,-5 5.397168,-5 2.594283,0 4.003219,1.23284 6.095135,5.333333 3.074505,6.026528 3.97471,6.377903 7.202438,2.811304 2.667014,-2.947017 6.919026,-2.314796 9.22086,1.371027 1.998536,3.200166 4.452622,3.163709 6.195042,-0.09203 2.167896,-4.050751 6.254346,-4.646192 10.260374,-1.495049 3.174918,2.49739 3.759024,2.574237 5.765383,0.758506 2.819343,-2.551469 9.206041,-2.629056 10.167508,-0.12352 1.257083,3.275906 4.784203,3.657523 7.441597,0.805144 3.173948,-3.406833 5.165452,-3.400858 9.525271,0.02857 l 3.471431,2.730628 2.338039,-2.730628 c 2.68708,-3.13828 8.14984,-3.632055 9.22366,-0.833719 1.30829,3.409356 4.81731,3.623583 8.14512,0.497263 3.13177,-2.94214 3.30678,-2.958336 7.28653,-0.674276 4.60067,2.640424 6.58568,1.75319 9.45051,-4.224059 0.95916,-2.00124 2.78521,-3.495836 4.27109,-3.495836 3.22296,0 8.23931,7.223485 10.09363,14.534719 0.76238,3.005904 1.8864,6.665281 2.49781,8.131948 4.14319,9.938613 4.13703,9.891914 1.4912,11.307917 -6.03308,3.228801 -10.05736,0.976087 -11.54512,-6.46274 -1.049,-5.244952 -2.67063,-6.352801 -5.58639,-3.816443 -3.52777,3.068732 -5.91952,3.425307 -10.50335,1.565898 -3.56963,-1.448003 -4.50757,-1.420138 -5.82993,0.173202 -2.12674,2.562571 -7.81837,2.400515 -10.81105,-0.307818 -2.17674,-1.969927 -2.68863,-1.991668 -4.77165,-0.202666 -4.10596,3.5264 -6.485818,3.602707 -10.294419,0.330074 -2.882432,-2.4768 -4.246107,-2.88024 -6.200351,-1.83436 -1.377879,0.737418 -2.505233,1.855457 -2.505233,2.48453 0,2.753314 -4.250471,2.402948 -7.511382,-0.619161 -1.949573,-1.806804 -3.669452,-3.285099 -3.821952,-3.285099 -0.1525,0 -1.898922,1.502895 -3.88094,3.339766 -3.954018,3.664461 -7.293614,3.013302 -10.447641,-2.037096 -1.539517,-2.46516 -1.793084,-2.395032 -5.966687,1.650182 l -4.358841,4.224755 -3.9973,-3.829656 -3.997301,-3.829657 -3.094914,2.90752 c -4.041149,3.796462 -6.794362,3.672584 -10.038504,-0.451674 -2.396852,-3.047104 -2.83609,-3.165445 -4.727762,-1.273772 -1.146983,1.146982 -2.778047,4.397198 -3.624588,7.222702 -0.964962,3.220754 -2.742635,5.685617 -4.765082,6.607105 -4.122179,1.878189 -4.737092,1.850299 -7.7480835,-0.351387 z M 57.957975,43.271349 C 52.801527,42.330944 45.022321,40.310179 40.670852,38.78076 31.281563,35.480691 28.592717,35.359615 23.514257,38.008215 18.55452,40.594896 11.454106,40.555375 9.2743707,37.928955 6.7741952,34.916427 7.1383571,27.927607 9.9007547,25.907692 11.190614,24.964524 14.614749,23.792635 17.509944,23.303495 20.405139,22.814355 25.876455,20.326307 29.668425,17.7745 33.460395,15.222692 40.143921,11.895569 44.520704,10.380892 51.578203,7.9384977 54.299057,7.7298224 68.570725,8.5363803 87.261083,9.5926588 99.442235,12.423756 118,20.024545 c 12.19847,4.996184 22.67952,8.437326 31.33333,10.287364 4.66764,0.997863 6.66667,2.872359 6.66667,6.251351 0,5.405249 -5.84951,7.876764 -11.68476,4.937004 -9.42268,-4.74708 -14.09681,-6.833597 -15.30835,-6.833597 -0.77427,0 -4.46757,1.488514 -8.20733,3.30781 -14.06455,6.842039 -41.629319,9.165454 -62.841585,5.296872 z M 105.70596,33.268285 c 3.48665,-0.877949 6.63622,-2.076596 6.99905,-2.663657 1.11424,-1.802888 -6.88925,-6.607876 -10.91084,-6.55044 -2.21563,0.03164 -5.71475,1.695816 -8.410471,4 C 90.844733,30.224384 88.058927,32 87.193017,32 c -0.865909,0 -1.921796,0.905349 -2.346413,2.011887 -0.647723,1.687938 0.459105,1.91856 6.873973,1.432278 4.205304,-0.318784 10.498723,-1.29793 13.985383,-2.17588 z M 50.28072,27.399107 c -3.157541,-6.35735 -6.348401,-7.593511 -10.938049,-4.237479 -2.352928,1.720503 -2.191079,2.022588 2.74516,5.12374 5.089994,3.197748 8.241284,4.725861 10.192889,4.942703 0.521064,0.05789 -0.378936,-2.565139 -2,-5.828964 z"
       id="path1223" />
  </g>
</svg>
