<?xml version="1.0" encoding="UTF-8" standalone="no"?>
<!-- Created with Inkscape (http://www.inkscape.org/) -->

<svg
   version="1.1"
   id="svg62"
   width="57.333332"
   height="156"
   viewBox="0 0 57.333332 156"
   xmlns="http://www.w3.org/2000/svg"
   xmlns:svg="http://www.w3.org/2000/svg">
  <defs
     id="defs66" />
  <g
     id="g68">
    <path
       style="fill:#000000;stroke-width:1.33333"
       d="m 11.219937,149.14985 c -0.515592,-0.83424 -1.098551,-9.08424 -1.2954647,-18.33333 -0.44002,-20.66789 0.7071867,-23.53001 8.9863037,-22.41955 2.920201,0.39169 5.664786,1.06748 6.099077,1.50177 0.434292,0.43429 0.933813,8.89281 1.110049,18.79671 0.257479,14.46958 -0.06895,18.39646 -1.661643,19.98915 -2.327568,2.32756 -11.879868,2.66328 -13.238322,0.46525 z m 28.034902,-0.3736 c -2.265901,-1.65502 -2.693223,-4.18688 -3.431829,-20.33333 -0.932467,-20.38435 -0.473139,-21.77625 7.18615,-21.77625 8.679285,0 8.990839,0.76512 8.990839,22.07991 V 148.066 l -3.420133,1.30033 c -4.597759,1.74807 -6.268619,1.64234 -9.325027,-0.59008 z M 7.8299261,51.132784 C 6.5972836,49.650489 5.8721531,44.319325 5.6083095,34.799451 5.1286315,17.491944 6.9300648,12.881411 15.949186,8.3333333 23.132522,4.7109877 26.948442,4.6115128 34.101147,7.8601411 c 8.067015,3.6638909 9.898852,8.5825669 9.898852,26.5794599 0,15.912914 -1.146231,18.893732 -7.265312,18.893732 -5.01102,0 -5.852002,-2.512798 -5.620013,-16.79221 0.157813,-9.713738 -0.290547,-14.073228 -1.611268,-15.666667 -2.451833,-2.958115 -4.865517,-2.780981 -8.003606,0.587363 -2.32576,2.496409 -2.524364,4.13129 -1.85823,15.296642 0.832392,13.952083 -0.165816,16.574872 -6.308237,16.574872 -2.020414,0 -4.4969475,-0.990246 -5.5034069,-2.200549 z"
       id="path1084" />
  </g>
</svg>
