<?xml version="1.0" encoding="UTF-8" standalone="no"?>
<!-- Created with Inkscape (http://www.inkscape.org/) -->

<svg
   version="1.1"
   id="svg72"
   width="81.333336"
   height="146.66667"
   viewBox="0 0 81.333336 146.66667"
   xmlns="http://www.w3.org/2000/svg"
   xmlns:svg="http://www.w3.org/2000/svg">
  <defs
     id="defs76" />
  <g
     id="g78">
    <path
       style="fill:#000000;stroke-width:1.33333"
       d="m 19.000001,141.78363 c -2.84932,-1.14972 -1.729806,-7.58335 2.097198,-12.05217 7.300433,-8.52477 23.301244,-12.35187 32.264112,-7.71699 4.569808,2.36314 10.638691,10.74599 10.638691,14.69504 0,5.40519 -2.21516,5.96232 -23.266667,5.85189 -11.036667,-0.0579 -20.816668,-0.40789 -21.733334,-0.77777 z M 8.6914934,108.04017 C 8.2519229,107.32893 7.5573666,98.911677 7.148035,89.335159 6.317281,69.899262 6.9190917,68.000002 13.90842,68.000002 c 8.212939,0 8.934513,1.584358 9.192626,20.184249 0.267195,19.254359 -0.496011,21.149089 -8.51895,21.149089 -2.800261,0 -5.4510322,-0.58193 -5.8906026,-1.29317 z m 26.2628916,0.16587 c -2.537965,-1.61037 -2.100324,-33.124932 0.516679,-37.206038 2.18222,-3.40308 8.613361,-4.111412 11.018356,-1.213572 0.946655,1.14065 1.411694,8.153181 1.286442,19.398892 -0.171386,15.387928 -0.49536,17.772588 -2.565023,18.880238 -2.886115,1.5446 -7.934559,1.61375 -10.256454,0.14048 z m 26.415957,-0.82811 c -1.513149,-1.82324 -1.661689,-7.07942 -0.905583,-32.044595 l 0.20191,-6.666667 4.977014,-0.41245 c 9.311523,-0.771655 9.747533,0.108453 9.240883,18.653061 -0.50806,18.596211 -1.888854,22.426061 -8.085374,22.426061 -2.093303,0 -4.536285,-0.87994 -5.42885,-1.95541 z M 8.5532713,46.483189 C 8.0376788,45.648944 7.4547194,37.398944 7.2578061,28.149855 6.8177861,7.481964 7.9649933,4.6198453 16.24411,5.7303079 c 2.920201,0.3916812 5.664787,1.0674769 6.099077,1.5017681 0.434292,0.4342914 0.933814,8.892808 1.11005,18.796703 0.257478,14.469578 -0.06895,18.396462 -1.661643,19.989153 C 19.464026,48.3455 9.9117247,48.681213 8.5532713,46.483189 Z m 25.0502097,-0.15768 c -0.785669,-0.946676 -1.225348,-6.307355 -1.011569,-12.333334 0.207973,-5.862362 0.459874,-14.340741 0.559778,-18.840843 0.181226,-8.1631144 0.191647,-8.1834925 4.514978,-8.8284996 2.383333,-0.3555747 5.626873,-0.1599908 7.207867,0.434631 2.746812,1.0330932 2.877849,1.8959587 2.949133,19.4198416 0.04608,11.32652 -0.478204,19.004797 -1.371126,20.080703 -1.844771,2.222813 -11.020306,2.271014 -12.849061,0.06751 z m 26.666668,0 c -0.78567,-0.946676 -1.225348,-6.307355 -1.01157,-12.333334 0.207974,-5.862362 0.459875,-14.340741 0.559779,-18.840843 0.181225,-8.1631144 0.191647,-8.1834925 4.514977,-8.8284996 2.383334,-0.3555747 5.626874,-0.1599908 7.207867,0.434631 2.746812,1.0330932 2.87785,1.8959587 2.949134,19.4198416 0.04608,11.32652 -0.478204,19.004797 -1.371127,20.080703 -1.844771,2.222813 -11.020306,2.271014 -12.84906,0.06751 z"
       id="path945" />
  </g>
</svg>
