<?xml version="1.0" encoding="UTF-8" standalone="no"?>
<!-- Created with Inkscape (http://www.inkscape.org/) -->

<svg
   version="1.1"
   id="svg82"
   width="161.33333"
   height="162.66667"
   viewBox="0 0 161.33333 162.66667"
   xmlns="http://www.w3.org/2000/svg"
   xmlns:svg="http://www.w3.org/2000/svg">
  <defs
     id="defs86" />
  <g
     id="g88">
    <path
       style="fill:#000000;stroke-width:1.33333"
       d="m 71.91802,155.91803 c -4.480376,-4.48039 -2.817079,-7.00285 6.098945,-9.24933 7.668435,-1.93214 8.053757,-2.23472 9.777684,-7.67804 1.647284,-5.20134 1.567013,-6.02209 -0.977539,-9.99532 -1.524702,-2.38077 -2.782296,-3.51014 -2.794649,-2.50972 -0.0124,1.00042 -2.887852,5.20042 -6.389995,9.33333 -3.502142,4.13292 -7.170333,9.10236 -8.151533,11.04321 -1.327925,2.62668 -3.968036,4.24579 -10.327133,6.33334 -13.16614,4.32213 -17.820468,3.61693 -17.820468,-2.70007 0,-4.28369 2.225027,-5.70892 11.202236,-7.17556 3.734506,-0.61012 7.112875,-2.67253 11.974327,-7.31004 l 6.772092,-6.46012 -2.307662,-8.66037 c -1.269213,-4.7632 -2.30766,-10.09188 -2.30766,-11.84152 0,-1.74963 -0.681125,-3.86228 -1.51361,-4.69476 -2.732336,-2.73234 -17.047603,13.17888 -21.651859,24.06574 -2.251754,5.32432 -8.589883,11.98224 -18.581627,19.51918 -6.152904,4.64122 -8.896629,5.86621 -13.333333,5.95289 -8.1058434,0.15836 -8.2170795,-3.65949 -0.386693,-13.27211 3.325454,-4.08234 6.710357,-9.64161 7.522007,-12.35393 1.628738,-5.44281 6.332852,-24.20096 7.494241,-29.884084 0.684854,-3.351247 12.295164,-15.714078 14.757568,-15.714078 0.598181,0 1.150419,-4.35 1.227193,-9.666667 0.155586,-10.774188 1.86848,-15.02976 8.690487,-21.590916 9.848304,-9.47174 12.901612,-16.389794 9.233174,-20.920122 C 58.12998,28.026189 56.090972,27.579983 44.5811,27.087591 26.975597,26.33443 25.794783,26.020081 24.736802,21.80475 c -1.089296,-4.340102 0.759287,-5.756343 7.550136,-5.784332 3.669407,-0.01512 6.233121,-1.143814 9.889148,-4.353751 4.262828,-3.7427008 5.808713,-4.2952406 11.341797,-4.053855 13.997138,0.6106374 22.482115,10.074307 22.482115,25.075298 0,8.663819 -1.22222,11.443966 -8.051161,18.313724 -7.746397,7.792701 -7.937034,11.972429 -0.615505,13.494959 4.604504,0.957518 5.556622,0.419175 9.695748,-5.482136 2.093648,-2.984995 2.772809,-5.339747 2.199232,-7.625059 -0.685906,-2.732864 0.461202,-4.659913 6.613184,-11.109624 8.576545,-8.991612 9.408977,-9.460799 25.491834,-14.368071 17.79263,-5.428961 23.33443,-8.136047 28.82023,-14.078243 3.92153,-4.2477828 5.7414,-5.2757391 8.73345,-4.9331257 3.30491,0.3784376 3.83131,1.0553137 4.19085,5.3889387 0.28939,3.487843 -0.50062,6.286099 -2.66666,9.445339 -8.35096,12.180225 -21.21201,26.097594 -27.84359,30.130498 -2.17517,1.322803 -9.04554,7.328439 -15.26749,13.345859 -12.434371,12.025629 -12.624258,12.79409 -4.6996,19.019055 5.05798,3.97314 16.09384,19.993536 19.12956,27.769776 3.49274,8.9469 4.9173,10.22332 15.31925,13.72614 5.2426,1.76542 10.4512,3.97273 11.57467,4.90512 2.87285,2.38425 2.53868,6.13609 -0.8257,9.27049 -2.40762,2.24303 -2.5903,3.00733 -1.1373,4.75809 2.21698,2.67131 -0.21563,8.6735 -3.51527,8.6735 -3.96553,0 -13.49363,-6.5028 -16.38651,-11.18358 -1.5434,-2.49728 -4.35502,-5.55534 -6.24805,-6.79569 -4.65371,-3.04924 -17.40402,-7.34854 -18.51685,-6.24375 -2.391333,2.37407 -4.660989,10.59824 -4.660989,16.88926 0,4.00178 -0.714846,7.58234 -1.666666,8.34809 -1.780194,1.43219 -14.078023,4.319 -18.398961,4.319 -1.430571,0 -3.83793,-1.23689 -5.349684,-2.74864 z"
       id="path806" />
  </g>
</svg>
