<?xml version="1.0" encoding="UTF-8" standalone="no"?>
<!-- Created with Inkscape (http://www.inkscape.org/) -->

<svg
   version="1.1"
   id="svg92"
   width="157.33333"
   height="154.66667"
   viewBox="0 0 157.33333 154.66667"
   xmlns="http://www.w3.org/2000/svg"
   xmlns:svg="http://www.w3.org/2000/svg">
  <defs
     id="defs96" />
  <g
     id="g98">
    <path
       style="fill:#000000;stroke-width:1.33333"
       d="m 71.351932,148.49479 c -1.810523,-1.81052 -2.019863,-3.91453 -1.258215,-12.64591 1.099776,-12.60761 -0.230829,-16.57218 -7.53097,-22.43873 l -5.229415,-4.20248 V 90.714949 c 0,-13.57557 -0.443161,-18.65711 -1.666667,-19.110953 C 54.749999,71.263971 44.34433,71.302691 32.542957,71.690042 20.741584,72.077391 9.4551039,71.985007 7.4618912,71.484743 4.3369495,70.700432 3.894937,69.988771 4.2522674,66.317096 c 0.3811192,-3.916112 0.8962538,-4.339972 6.4143986,-5.277857 3.628638,-0.616736 7.747959,-0.444138 10.42267,0.436709 2.432468,0.801071 4.768345,1.110817 5.190837,0.688324 0.689572,-0.689572 -0.578084,-1.310688 -5.977081,-2.928608 -2.303695,-0.690348 -3.612055,-4.460033 -2.079778,-5.992311 0.684239,-0.684239 6.538879,-1.301316 13.010311,-1.371283 9.838766,-0.106373 12.36259,0.313687 15.40665,2.564259 3.576721,2.644384 5.716781,3.368687 9.02639,3.054983 1.267658,-0.12016 1.671555,-6.143119 1.687084,-25.157978 0.0112,-13.75 0.524148,-25.7945104 1.139819,-26.765578 0.673216,-1.0618292 2.923776,-1.5932876 5.646251,-1.3333334 4.452822,0.425176 4.533409,0.5459302 4.928206,7.3845884 0.387967,6.720348 0.55013,6.980255 4.859604,7.788716 7.098721,1.331729 10.072369,-1.075652 10.072369,-8.154306 0,-5.1990583 0.449734,-6.1570782 3.420633,-7.2866122 3.998307,-1.5201534 8.066075,0.1447834 9.036023,3.698443 0.350489,1.2841116 0.541124,12.9848072 0.423632,26.0015462 -0.12424,13.76499 0.309944,23.841266 1.037779,24.083801 0.688269,0.229352 3.919255,0.01213 7.179965,-0.48273 3.26072,-0.494852 8.51865,-0.607792 11.6843,-0.250978 3.16565,0.356814 8.48466,-0.157004 11.82003,-1.141822 l 6.0643,-1.790575 V 46.58223 c 0,-8.700264 2.4312,-11.915563 9.00975,-11.915563 6.73331,0 8.29649,2.766026 8.53095,15.095239 0.114,5.997619 0.0763,12.404762 -0.084,14.238095 -0.58554,6.697446 -2.28206,7.162401 -27.76791,7.610155 -13.0288,0.228899 -24.468957,0.703023 -25.422567,1.053608 -1.273188,0.468076 -1.658802,3.741299 -1.45142,12.320166 0.55206,22.8373 0.550151,22.84615 -6.304393,29.2294 l -6.156314,5.73303 0.207626,13.21361 c 0.166015,10.56539 -0.222574,13.64381 -1.938922,15.36015 -2.769912,2.76991 -9.155787,2.75636 -11.937475,-0.0253 z M 83.74617,92.333335 c -0.356114,-1.849153 -1.825153,-2.333333 -7.079505,-2.333333 -5.254352,0 -6.72339,0.48418 -7.079505,2.333333 -0.385125,1.999792 0.626863,2.333334 7.079505,2.333334 6.452643,0 7.464631,-0.333542 7.079505,-2.333334 z M 82.75432,77.286423 c 4.262646,-2.281299 3.040248,-4.974101 -2.698091,-5.943588 -2.902407,-0.490359 -6.536529,-0.491835 -8.075828,-0.0033 -4.009885,1.272688 -2.731958,5.138762 2.035879,6.159086 5.953849,1.274131 5.9611,1.273955 8.73804,-0.212218 z M 79.833332,57.833335 c 2.291666,-0.458334 4.166666,-1.599639 4.166666,-2.536234 0,-1.914708 -6.763633,-4.630433 -11.532297,-4.630433 -2.593744,0 -3.134369,0.689932 -3.134369,4 0,4.347811 1.831897,4.900287 10.5,3.166667 z m 3.90699,-22.987808 c -0.31946,-2.756829 -1.230226,-3.606273 -4.234762,-3.949636 -6.573624,-0.751241 -10.172228,0.794762 -10.172228,4.370111 0,3.535079 2.63149,4.440191 10.40699,3.579526 3.876936,-0.429137 4.358039,-0.910241 4,-4.000001 z"
       id="path567" />
  </g>
</svg>
