<?xml version="1.0" encoding="UTF-8" standalone="no"?>
<!-- Created with Inkscape (http://www.inkscape.org/) -->

<svg
   version="1.1"
   id="svg102"
   width="166.66667"
   height="157.33333"
   viewBox="0 0 166.66667 157.33333"
   xmlns="http://www.w3.org/2000/svg"
   xmlns:svg="http://www.w3.org/2000/svg">
  <defs
     id="defs106" />
  <g
     id="g108">
    <path
       style="fill:#000000;stroke-width:1.33333"
       d="m 122.66667,151.13057 c -5.81369,-1.91531 -8.44722,-4.25124 -10.97896,-9.73827 -3.17304,-6.8769 -3.8955,-21.26212 -1.22919,-24.47483 0.89385,-1.07703 4.89611,-3.37406 8.89391,-5.10452 5.69696,-2.46594 7.27365,-3.795 7.29148,-6.14629 0.021,-2.76756 -0.57408,-3 -7.68057,-3 -8.46059,0 -13.63,-2.52844 -13.63,-6.666662 0,-5.575485 4.53674,-6.666667 27.71766,-6.666667 23.01324,0 26.9623,0.837891 26.92859,5.713579 -0.0365,5.27742 -2.17639,6.88004 -10.14641,7.59887 -8.44959,0.76208 -10.1869,2.67465 -5.71396,6.29036 14.56442,11.77317 17.08776,16.29653 14.48436,25.96484 -3.36298,12.48911 -10.18422,17.16228 -24.80508,16.99375 -5.02251,-0.0579 -10.03183,-0.40176 -11.13183,-0.76416 z M 6.6621553,144.66122 C 4.6119438,142.19088 5.5885709,107.35484 7.9224155,99.708071 10.341967,91.780489 14.93962,87.409927 23.626355,84.779796 c 14.372787,-4.35173 30.187701,1.147124 34.315301,11.931446 2.430036,6.349038 2.956333,43.119488 0.6781,47.376408 -1.106114,2.0668 -2.827403,2.57901 -8.666667,2.57901 -7.509876,0 -8.010325,-0.44116 -7.562713,-6.66666 0.07909,-1.1 0.278125,-9.03727 0.442301,-17.63837 0.258515,-13.5434 -0.02823,-15.9994 -2.140404,-18.33334 -3.380314,-3.7352 -11.734728,-3.6525 -15.541075,0.15384 -2.698171,2.69817 -2.813228,3.78107 -2.176012,20.48026 0.370033,9.6973 0.122186,18.61534 -0.550786,19.81787 -1.629928,2.91252 -13.3832657,3.04746 -15.7622447,0.18096 z M 46.000001,36.656429 C 32.66341,34.196206 20.136864,30.93315 14.249142,28.385605 9.7827559,26.453054 9.2676562,25.769403 10.010159,22.759536 11.222682,17.844358 11.625174,17.607353 24.762104,14.072942 62.424079,3.9402191 88.364171,3.7186573 138.66667,13.10005 c 13.41337,2.50159 18.66667,5.774224 18.66667,11.628755 0,6.944441 -39.72249,13.88034 -78.666672,13.7359 C 65.719307,38.416678 51.178946,37.611797 46.000001,36.656429 Z M 107.33334,27.28217 c 7.33333,-0.432456 16.02915,-1.455807 19.32405,-2.274112 l 5.99073,-1.487829 -3.99073,-1.130275 c -16.22907,-4.59649 -44.090756,-6.78122 -63.486547,-4.978196 -18.038367,1.676839 -26.596426,3.058027 -29.645453,4.784494 -2.058873,1.165806 -1.107107,1.670251 5.665245,3.00263 4.476922,0.88078 13.990497,1.924193 21.141278,2.318695 7.150782,0.394502 13.275525,0.988537 13.610538,1.320077 0.335015,0.33154 4.535015,0.2941 9.333333,-0.0832 C 90.074104,28.377154 100,27.714626 107.33334,27.28217 Z"
       id="path428" />
  </g>
</svg>
