<?xml version="1.0" encoding="UTF-8" standalone="no"?>
<!-- Created with Inkscape (http://www.inkscape.org/) -->

<svg
   version="1.1"
   id="svg112"
   width="162.66667"
   height="165.33333"
   viewBox="0 0 162.66667 165.33333"
   xmlns="http://www.w3.org/2000/svg"
   xmlns:svg="http://www.w3.org/2000/svg">
  <defs
     id="defs116" />
  <g
     id="g118">
    <path
       style="fill:#000000;stroke-width:1.33333"
       d="M 146.20666,154.89501 C 144.99299,153.55393 144,151.99461 144,151.42985 c 0,-2.09727 -4.34585,-10.09652 -5.48525,-10.09652 -0.64977,0 -2.38141,1.2 -3.84808,2.66667 -3.25475,3.25474 -4.48794,3.32158 -7.40804,0.40148 -2.13137,-2.13136 -2.56499,-2.09264 -7.33973,0.65534 l -5.07454,2.92054 -3.94799,-3.32202 C 106.3942,140.86701 104,140.41797 104,143.36192 c 0,1.11572 -1.53716,2.72896 -3.41592,3.58498 -3.054441,1.3917 -3.727618,1.1655 -6.361387,-2.13757 l -2.945467,-3.69396 -2.51193,2.77564 c -3.021764,3.33901 -6.382305,3.52489 -10.846369,0.59992 -3.070833,-2.01208 -3.501413,-2.01208 -5.724744,0 -3.283034,2.97111 -6.765836,2.72983 -10.44158,-0.72335 l -3.085935,-2.89909 -3,2.70073 c -1.65,1.4854 -3.7376,3.11774 -4.639111,3.62742 -2.187787,1.23688 -7.027556,-1.45603 -7.027556,-3.91022 0,-2.83245 -3.082827,-2.39458 -5.023903,0.71358 -2.314569,3.70621 -7.252532,3.32913 -10.868844,-0.83 l -3.040308,-3.49666 -3.403339,7.52226 c -2.484621,5.49165 -4.304013,7.74832 -6.739841,8.35966 -4.271757,1.07215 -7.4862277,-0.953 -7.9730353,-5.02308 -0.4746106,-3.9681 11.9171443,-31.96419 14.9752283,-33.8328 2.256959,-1.37909 5.545108,1.39827 9.599974,8.10868 1.30257,2.15563 1.934222,2.28131 4.315241,0.8586 4.119629,-2.46155 8.195732,-2.03214 10.95957,1.1546 l 2.446865,2.82125 4.145163,-3.48792 c 4.734311,-3.98366 6.912573,-4.33315 9.273896,-1.48793 2.076288,2.50178 4.029392,2.51835 8.740528,0.0742 3.89758,-2.02209 6.683311,-1.31488 9.849834,2.50054 1.521396,1.83317 2.065724,1.76941 5.070152,-0.59387 4.239316,-3.33465 5.456599,-3.31549 9.138884,0.14384 l 2.971267,2.79136 4.114667,-3.0421 4.11467,-3.04211 3.9272,2.9035 c 4.05302,2.99653 7.32461,2.80426 8.59453,-0.5051 1.02758,-2.67784 4.47628,-2.35423 8.48091,0.79582 l 3.42325,2.69273 3.24179,-5.43625 c 2.64261,-4.43148 3.88028,-5.36043 6.69632,-5.02606 2.78316,0.33046 3.94529,1.7058 5.97977,7.07685 2.25002,5.94002 5.9163,14.31306 9.1873,20.9819 1.88029,3.83351 1.28894,7.50887 -1.44342,8.97119 -3.72804,1.99519 -6.04394,1.70851 -8.54766,-1.05808 z M 50.577338,103.83309 c -1.740072,-3.25136 -1.102674,-53.49413 0.73146,-57.65725 1.034138,-2.347282 2.776356,-2.459554 30.23181,-1.948194 23.265072,0.433313 29.517702,0.93511 31.036902,2.490825 1.31592,1.347544 1.91928,5.236852 1.95699,12.614861 0.11365,22.237226 -0.68106,42.754058 -1.74451,45.037608 -0.98962,2.125 -2.92042,2.33246 -18.613737,2 L 76.666668,106 76.288334,90.857505 c -0.391046,-15.651243 0.459358,-18.857506 5.00161,-18.857506 4.169299,0 6.975056,4.56487 6.000083,9.761926 -0.484564,2.582951 -0.48892,6.48152 -0.0097,8.663487 0.725988,3.305405 1.634077,4.056257 5.443544,4.500991 6.287425,0.734022 8.612439,-0.89999 8.522299,-5.989437 -0.0416,-2.348665 0.31143,-10.203713 0.78452,-17.455659 0.67006,-10.271234 0.46704,-13.434563 -0.91861,-14.312916 -2.247737,-1.424837 -35.395636,-1.533664 -36.269899,-0.11908 -0.356683,0.577124 -1.079865,11.977124 -1.607073,25.333333 L 62.2766,106.66666 h -5.091371 c -3.826734,0 -5.46805,-0.70382 -6.607858,-2.83357 z M 35.333334,38.04361 C 25.167021,36.358866 14.134728,33.177765 8.9221292,30.428085 c -1.7174049,-0.905943 -2.2928844,-2.493308 -2,-5.516672 0.3746605,-3.867516 1.1221648,-4.502987 8.4112048,-7.150568 4.4,-1.598201 11.3,-3.561377 15.333333,-4.362615 4.033334,-0.801237 9.433334,-2.008549 12.000001,-2.682917 2.566666,-0.674367 10.659518,-1.6140668 17.984115,-2.0882216 7.324596,-0.4741548 13.624596,-1.0334553 14,-1.2428901 1.28978,-0.7195577 32.685237,1.8951152 38.015887,3.1660347 2.93333,0.699358 9.23333,1.957044 14,2.794858 23.65367,4.157495 28,5.894331 28,11.18905 0,1.726635 -0.75,3.709486 -1.66667,4.406335 -3.18378,2.420312 -13.73801,5.555483 -26.33333,7.822406 -16.88588,3.039146 -75.742206,3.864462 -91.333336,1.280725 z M 111.33334,28.68695 C 117.2,27.626963 124.7,26.695326 128,26.616645 c 5.78819,-0.138006 5.64018,-0.231562 -4.19292,-2.650137 -14.31173,-3.520155 -41.55312,-5.68639 -52.037232,-4.137999 -4.640083,0.685291 -11.309685,1.309944 -14.82134,1.388119 -3.511654,0.07817 -10.411654,0.724529 -15.333334,1.436342 -4.921679,0.711814 -9.548507,1.344124 -10.28184,1.405134 -4.632912,0.385434 6.64334,2.603641 19.46984,3.830007 8.358255,0.79915 17.296827,1.655226 19.863494,1.902394 12.028472,1.15833 30.996792,0.643594 40.666672,-1.103555 z"
       id="path289" />
  </g>
</svg>
