<?xml version="1.0" encoding="UTF-8" standalone="no"?>
<!-- Created with Inkscape (http://www.inkscape.org/) -->

<svg
   version="1.1"
   id="svg122"
   width="162.66667"
   height="161.33333"
   viewBox="0 0 162.66667 161.33333"
   xmlns="http://www.w3.org/2000/svg"
   xmlns:svg="http://www.w3.org/2000/svg">
  <defs
     id="defs126" />
  <g
     id="g128">
    <path
       style="fill:#000000;stroke-width:1.33333"
       d="m 47.666668,154.60789 c -5.53559,-3.33813 0.85152,-12.86591 7.505365,-11.19591 1.935907,0.48588 3.849572,1.41696 4.252588,2.06906 1.863775,3.01565 5.626978,0.90437 7.987122,-4.48104 1.365873,-3.11667 3.928222,-7.61668 5.69411,-10.00004 3.032851,-4.09332 3.115326,-4.68419 1.488878,-10.66666 -0.9762,-3.5907 -1.766483,-14.12811 -1.824946,-24.333302 l -0.103117,-18 -12.666667,-12.72079 C 50.593244,55.832256 45.854374,52.081695 41.586705,50.706072 c -7.56912,-2.4398 -11.292524,-7.664356 -11.132812,-15.621195 0.06663,-3.319002 0.707426,-6.740995 1.424014,-7.60443 2.210608,-2.66362 -0.240124,-4.381175 -7.619105,-5.33973 -6.418828,-0.833827 -7.46745,-0.588387 -11.313807,2.648109 L 8.7057191,28.355942 6.2612917,22.750352 C 4.0072722,17.581406 3.9821806,16.892456 5.9391696,13.905713 7.697477,11.222197 9.1566539,10.666666 14.446966,10.666666 c 3.656813,0 8.744049,-1.1395318 11.904853,-2.6666662 6.867592,-3.3180592 20.464933,-3.6989638 23.000074,-0.6443049 3.394316,4.0899011 2.028503,12.1860851 -3.184571,18.8772941 -3.494645,4.48553 -4.62075,7.019178 -4.002109,9.00443 1.574519,5.052714 3.740521,4.912523 6.021893,-0.389757 1.641446,-3.814984 3.71291,-5.8004 8.302794,-7.9579 5.460449,-2.566715 6.868944,-2.715064 13.146228,-1.384628 7.127572,1.510651 14.971122,4.933635 21.030541,9.177888 1.833333,1.284137 6.333333,3.332797 10.000001,4.552576 33.90463,11.278953 41.81917,18.158509 51.92197,45.132134 5.22336,13.945935 5.63418,16.966148 2.90346,21.345848 -1.55922,2.50077 -1.56688,5.0974 -0.05,16.95308 3.49308,27.30254 2.17692,32.95132 -6.61794,28.40334 -3.69432,-1.91042 -4.05372,-1.85896 -6.11652,0.87577 -2.61533,3.46723 -11.64145,5.07541 -15.8487,2.82376 -2.63177,-1.40848 -2.86224,-2.61196 -2.90127,-15.14977 -0.0307,-9.8578 -0.58312,-14.33465 -2,-16.20794 C 120.04753,120.88649 120,120.89573 120,123.79207 c 0,4.93483 -3.86749,9.54126 -8.01069,9.54126 -3.87889,0 -5.32264,1.98004 -5.32264,7.29973 0,3.20084 3.32394,5.53951 4.70265,3.30871 1.31334,-2.12503 6.74371,-1.43017 9.0907,1.16321 2.39462,2.64603 2.94781,7.61291 0.98312,8.82715 -2.42947,1.50149 -71.360164,2.13288 -73.776472,0.67576 z M 95.827461,141.5391 c 1.517205,-3.89482 1.93659,-7.1467 1.574141,-12.20577 -0.230769,-3.22107 -0.311445,-3.18739 -2.395441,1 -1.850539,3.71831 -2.856087,4.33333 -7.084802,4.33333 -5.249476,0 -7.486289,1.68927 -7.944797,6 -0.426892,4.01348 -0.47581,3.98515 7.25868,4.20578 6.65578,0.18985 7.320188,-0.0679 8.592219,-3.33334 z"
       id="path150" />
  </g>
</svg>
