<?xml version="1.0" encoding="UTF-8" standalone="no"?>
<!-- Created with Inkscape (http://www.inkscape.org/) -->

<svg
   version="1.1"
   id="svg2"
   width="97.333336"
   height="162.66667"
   viewBox="0 0 97.333336 162.66667"
   xmlns="http://www.w3.org/2000/svg"
   xmlns:svg="http://www.w3.org/2000/svg">
  <defs
     id="defs6" />
  <g
     id="g8">
    <path
       style="fill:#000000;stroke-width:1.33333"
       d="M 7.6007347,154.2872 C 5.899849,152.98463 5.4166353,149.34067 5.1379953,135.71544 4.9473336,126.39227 5.1962585,118.3593 5.6911619,117.8644 c 1.2196306,-1.21963 5.4514551,-1.44981 46.3088391,-2.51884 28.635871,-0.74926 35.746853,-0.5853 37.514903,0.86497 1.714237,1.40614 2.369771,5.41424 3.060121,18.71038 0.828648,15.95975 0.729114,17.00089 -1.752273,18.32889 -4.03611,2.16007 -80.511237,3.11335 -83.2220173,1.0374 z M 11.870375,41.203709 C 7.8028037,37.136138 9.2395753,30.733063 16.655162,19.879976 21.793201,12.360193 23.906778,10.474308 30.525188,7.5041426 45.468824,0.79783767 67.032365,4.193059 75.704501,14.617714 c 8.720996,10.483388 12.528473,25.069957 7.277467,27.880211 -1.293254,0.692128 -17.184041,1.322452 -35.312861,1.400719 -31.94068,0.137898 -33.049361,0.05444 -35.798732,-2.694935 z"
       id="path1669" />
  </g>
</svg>
