<?xml version="1.0" encoding="UTF-8" standalone="no"?>
<!-- Created with Inkscape (http://www.inkscape.org/) -->

<svg
   version="1.1"
   id="svg12"
   width="53.333332"
   height="148"
   viewBox="0 0 53.333332 148"
   xmlns="http://www.w3.org/2000/svg"
   xmlns:svg="http://www.w3.org/2000/svg">
  <defs
     id="defs16" />
  <g
     id="g18">
    <path
       style="fill:#000000;stroke-width:1.33333"
       d="M 6.1409406,141.95047 C 4.201624,140.01115 4.20376,139.46515 6.1658574,135.58132 10.963372,126.085 18.434576,121.33333 28.568457,121.33333 c 6.405411,0 16.500885,5.656 20.216051,11.32606 2.186645,3.33725 2.16926,3.6536 -0.389295,7.0836 -2.659418,3.56522 -2.809211,3.59293 -21.405639,3.95949 -15.682044,0.30911 -19.0724181,0.0243 -20.8486334,-1.75201 z M 19.596374,85.623991 c -1.730538,-1.912223 -2.263041,-5.00431 -2.263041,-13.140806 0,-13.352481 1.429985,-15.687712 9.414825,-15.374834 3.182821,0.12472 6.28862,0.728428 6.901774,1.341582 0.613155,0.613155 0.942756,7.362756 0.732447,14.999114 l -0.38238,13.884286 -6.070292,0.395646 c -4.589928,0.29916 -6.62218,-0.214184 -8.333333,-2.104988 z M 10.222222,45.777777 C 8.0171545,43.572711 9.5751872,38.676036 13.333333,36 c 2.2,-1.566539 3.981035,-3.557395 3.957856,-4.424125 -0.02318,-0.866731 -2.72318,-3.20279 -6.000001,-5.19124 -9.5669964,-5.805475 -6.4283212,-13.454377 3.429184,-8.356863 5.985722,3.095337 7.946294,1.823209 7.946294,-5.155999 0,-3.3576626 0.785192,-6.5302385 1.831003,-7.3981841 2.322816,-1.9277666 6.110908,-0.5356881 6.355933,2.3357295 C 30.956417,9.0141933 31.161142,11.8 31.308545,14 c 0.497941,7.43176 0.447216,7.387504 5.231725,4.564573 5.87108,-3.464021 11.459729,-2.381602 11.459729,2.219539 0,2.346273 -1.375496,3.863417 -5.333333,5.882555 -2.933334,1.496474 -5.30895,3.458669 -5.279146,4.360432 0.0298,0.901762 1.80114,3.682569 3.936304,6.179572 3.050292,3.567213 3.600019,5.06711 2.565568,7 C 41.900871,47.922256 38.354964,47.181009 33.333333,42 30.845622,39.433333 28.32965,37.333333 27.742285,37.333333 c -0.587366,0 -3.392386,2.1 -6.233379,4.666667 -4.833574,4.366844 -9.227067,5.837395 -11.286684,3.777777 z"
       id="path1530" />
  </g>
</svg>
