<?xml version="1.0" encoding="UTF-8" standalone="no"?>
<!-- Created with Inkscape (http://www.inkscape.org/) -->

<svg
   version="1.1"
   id="svg22"
   width="157.33333"
   height="153.33333"
   viewBox="0 0 157.33333 153.33333"
   xmlns="http://www.w3.org/2000/svg"
   xmlns:svg="http://www.w3.org/2000/svg">
  <defs
     id="defs26" />
  <g
     id="g28">
    <path
       style="fill:#000000;stroke-width:1.33333"
       d="m 43.095803,145.11686 c -2.688048,-0.91832 -5.857072,-3.82396 -8.666666,-7.94636 -2.436026,-3.57428 -5.103702,-6.49984 -5.928168,-6.50126 -0.824468,-0.001 -4.104239,0.91659 -7.288381,2.04003 -5.81135,2.05035 -12.2546075,1.62491 -15.5459215,-1.0265 -3.0881014,-2.4877 -1.9773104,-8.75695 2,-11.2879 5.8843865,-3.74452 5.9762065,-4.80446 0.7998469,-9.23321 -3.3265707,-2.84613 -4.608622,-4.86816 -4.0347743,-6.36358 1.4103517,-3.67532 4.858523,-3.99808 9.1125099,-0.85297 l 4.01842,2.97094 2.971267,-2.79136 c 3.455295,-3.24608 9.50171,-3.69228 10.617891,-0.78356 0.515198,1.34258 -0.983689,3.11515 -4.524014,5.35006 -2.911964,1.83824 -5.29448,4.17772 -5.29448,5.19884 0,1.02112 2.655828,3.41299 5.90184,5.31528 3.24601,1.90229 7.59601,5.45042 9.666666,7.88474 2.070655,2.43432 5.735456,5.79046 8.144003,7.45809 l 4.379176,3.03206 8.954157,-3.60124 c 23.257078,-9.35367 35.184195,-9.17293 66.287485,1.00449 4.4,1.43975 12.40035,2.93959 17.77856,3.33299 10.56074,0.77249 13.54114,3.0426 8.77142,6.681 -2.1143,1.6128 -5.62542,1.76108 -20.54998,0.86788 -20.9225,-1.25216 -52.540902,-1.30892 -70.666661,-0.1268 -7.852807,0.51212 -14.277104,0.27588 -16.904196,-0.62163 z M 54.974906,69.108238 C 53.816078,67.949411 53.36123,61.761613 53.428198,48.066666 53.554808,22.174702 54.886615,8.1864576 57.374985,6.6127075 58.452076,5.9315104 68.740475,5.3649796 80.238093,5.3537503 c 17.245593,-0.016843 21.271517,0.3463334 22.999997,2.074821 1.77702,1.7770202 2.09524,6.5238707 2.09524,31.2546437 0,16.037673 -0.45,29.435137 -1,29.772144 -0.55,0.337005 -11.511291,0.991123 -24.358425,1.453594 -17.659286,0.6357 -23.758949,0.440336 -24.999999,-0.800715 z"
       id="path1391" />
  </g>
</svg>
