<?xml version="1.0" encoding="UTF-8" standalone="no"?>
<!-- Created with Inkscape (http://www.inkscape.org/) -->

<svg
   version="1.1"
   id="svg32"
   width="158.66667"
   height="157.33333"
   viewBox="0 0 158.66667 157.33333"
   xmlns="http://www.w3.org/2000/svg"
   xmlns:svg="http://www.w3.org/2000/svg">
  <defs
     id="defs36" />
  <g
     id="g38">
    <path
       style="fill:#000000;stroke-width:1.33333"
       d="m 6.7135785,150.75432 c -0.7591348,-1.41846 -1.3802451,-3.53383 -1.3802451,-4.70082 0,-3.07037 11.3054946,-26.48393 13.7794786,-28.53715 2.989656,-2.4812 6.998347,-0.74308 8.905554,3.86132 1.930083,4.65963 3.058821,4.87847 6.648301,1.28899 3.54608,-3.54608 5.904326,-3.36207 8.544058,0.66667 2.639799,4.02884 4.778225,4.2113 7.813239,0.66667 2.99484,-3.49772 7.298876,-3.3867 10.255463,0.26453 l 2.37354,2.93119 4.286413,-3.60677 c 4.406083,-3.70748 5.402628,-3.64537 10.172728,0.63399 2.728002,2.44735 2.845759,2.43082 6.44494,-0.90479 l 3.666169,-3.39769 4.546536,2.80991 4.546536,2.80992 3.484351,-2.7408 c 2.84991,-2.24174 4.00466,-2.46701 6.34186,-1.2372 1.57163,0.82697 3.24695,2.10119 3.72294,2.8316 0.94325,1.44744 2.89061,0.79408 7.37016,-2.47279 2.69555,-1.96582 3.09916,-1.91968 5.66667,0.64783 3.74754,3.74754 6.28013,3.47448 8.36816,-0.90227 2.13729,-4.47999 7.59027,-5.53772 10.63608,-2.06311 2.48732,2.83749 11.76016,25.32534 11.76016,28.51993 0,3.12056 -3.30043,5.49292 -6.92661,4.97886 -2.97822,-0.42218 -5.15788,-3.72356 -9.08158,-13.75516 l -1.5591,-3.98616 -2.6609,3.65283 c -3.00212,4.12124 -7.07801,4.694 -10.61636,1.49183 -2.21873,-2.00791 -2.68161,-1.91382 -6.53493,1.32854 -4.49711,3.78407 -7.75135,3.25552 -10.88894,-1.76854 -1.47491,-2.36172 -1.66626,-2.32748 -4.06974,0.72804 -3.076443,3.91106 -7.199249,4.10569 -11.016001,0.52005 l -2.859363,-2.68624 -3.097252,2.68624 c -3.940939,3.41795 -7.533107,3.42547 -9.355892,0.0196 -0.784936,-1.46667 -2.172702,-2.66667 -3.083924,-2.66667 -0.911222,0 -2.684239,1.2 -3.940039,2.66667 -3.098367,3.61863 -6.886054,3.35339 -9.520095,-0.66667 -2.708883,-4.13428 -5.087762,-4.25077 -6.806439,-0.33333 -1.938267,4.41797 -6.846837,4.56248 -10.781043,0.3174 l -3.296349,-3.55681 -2.716163,3.45304 c -3.012453,3.8297 -7.514599,4.56068 -8.721328,1.416 -0.429927,-1.12038 -1.865628,-2.61715 -3.190448,-3.32618 -2.039687,-1.0916 -2.653704,-0.52412 -4.007364,3.70371 -3.044664,9.50927 -10.2002586,14.06231 -13.2232315,8.41383 z M 9.6666669,101.29178 C 6.8872985,100.17461 6.6470903,99.175727 6.4004783,87.70963 6.2540745,80.902666 6.1955264,73.655905 6.2703713,71.605717 6.4571411,66.489629 11.856205,58.991296 16.532298,57.353736 c 8.445676,-2.957661 20.185076,-0.915628 24.47882,4.258016 2.062004,2.484563 3.429028,32.407805 1.633776,35.762263 -1.665005,3.111095 -8.201597,3.569975 -10.549756,0.740616 -1.049015,-1.263985 -1.339819,-5.455504 -0.882343,-12.717734 0.820431,-13.024005 -0.472958,-17.396898 -5.145553,-17.396898 -5.235484,0 -7.400575,5.753754 -7.400575,19.667119 0,14.469332 -1.447376,16.660452 -9.0000001,13.624662 z M 136.22692,92.772827 c -4.86063,-5.044245 -6.42521,-5.020993 -12.74412,0.189402 -2.1178,1.746276 -5.11167,2.99416 -6.65305,2.773074 -4.38248,-0.628593 -4.16459,-4.678564 0.46111,-8.570833 2.28487,-1.922594 3.93491,-4.153834 3.66675,-4.95831 -0.26816,-0.804478 -2.84332,-2.693252 -5.72258,-4.197279 -4.26052,-2.225545 -5.15152,-3.349605 -4.78642,-6.038405 0.68069,-5.012892 1.74342,-5.387444 7.7085,-2.716797 3.01805,1.35122 6.08671,2.071914 6.81925,1.601542 0.73254,-0.470373 1.26254,-3.476394 1.17777,-6.680048 -0.11348,-4.288742 0.4818,-6.222638 2.2573,-7.333333 3.34792,-2.094346 6.13616,1.869159 5.64749,8.027943 -0.46682,5.883482 1.65032,6.839349 8.86846,4.003988 2.99229,-1.175407 5.95776,-1.817444 6.58992,-1.426748 2.77337,1.714038 0.83637,6.055603 -4.18396,9.377906 C 142.4,78.766117 140,80.853752 140,81.464118 c 0,0.610367 1.84727,3.213671 4.10503,5.785123 4.74996,5.409905 4.70415,9.256453 -0.1164,9.774238 -2.32915,0.250178 -4.64879,-1.020166 -7.76168,-4.250652 z M 49.333334,37.270155 C 33.866479,35.68033 9.7397925,29.770418 5.9809297,26.650839 1.1908997,22.675468 5.7699635,16.84167 16.382819,13.398673 38.277474,6.2956613 91.884987,3.4442402 115.33334,8.1354258 c 16.65264,3.3316062 33.21757,8.2220352 36.18134,10.6817422 2.01959,1.676114 2.33608,4.970338 0.72178,7.512566 -1.0655,1.67794 -13.35766,5.377904 -29.87031,8.991021 -10.40617,2.276962 -57.592747,3.536471 -73.032816,1.9494 z M 100.19206,26.619761 c 7.59437,-0.759132 15.86777,-2.041908 18.38533,-2.850615 l 4.57739,-1.470376 -4.57739,-1.662152 c -12.21217,-4.434512 -56.575878,-4.71434 -80.127607,-0.505412 -11.955418,2.136554 -9.698497,3.552441 9.337895,5.858168 18.018478,2.182433 34.851916,2.384928 52.404382,0.630387 z"
       id="path1252" />
  </g>
</svg>
