<?xml version="1.0" encoding="UTF-8" standalone="no"?>
<!-- Created with Inkscape (http://www.inkscape.org/) -->

<svg
   version="1.1"
   id="svg42"
   width="113.33333"
   height="158.66667"
   viewBox="0 0 113.33333 158.66667"
   xmlns="http://www.w3.org/2000/svg"
   xmlns:svg="http://www.w3.org/2000/svg">
  <defs
     id="defs46" />
  <g
     id="g48">
    <path
       style="fill:#000000;stroke-width:1.33333"
       d="m 11.077498,151.42279 c -7.2441897,-3.22657 -9.1282897,-16.95183 -3.3561986,-24.44916 1.6690569,-2.16793 4.2137286,-3.23806 8.9709986,-3.77262 6.034016,-0.67802 7.031869,-0.38259 10.916935,3.2321 5.264534,4.89815 6.548831,9.55636 4.51049,16.35975 -2.513365,8.38885 -12.4416,12.46068 -21.042225,8.62993 z m 75.999998,0 c -7.24419,-3.22657 -9.12829,-16.95183 -3.356198,-24.44916 1.669055,-2.16793 4.213727,-3.23806 8.970998,-3.77262 6.034016,-0.67802 7.031869,-0.38259 10.916934,3.2321 5.26453,4.89815 6.54883,9.55636 4.51049,16.35975 -2.51336,8.38885 -12.441599,12.46068 -21.042224,8.62993 z M 46.096497,98.217713 c -2.791449,-2.79145 -3.429832,-4.701046 -3.429832,-10.25967 0,-5.770988 0.60423,-7.434065 3.897436,-10.727272 9.414312,-9.414312 25.730014,-0.142863 23.454144,13.327892 -1.197928,7.090476 -4.588992,9.770087 -13.275745,10.490457 -6.396176,0.53042 -7.605913,0.20868 -10.646003,-2.831407 z M 19.870374,42.537042 c -4.06757,-4.067571 -2.6308,-10.470645 4.784787,-21.323732 5.138038,-7.519783 7.251615,-9.405669 13.870025,-12.3758341 14.943635,-6.7063049 36.507174,-3.3110835 45.17931,7.1135711 8.720996,10.483388 12.528473,25.069958 7.277467,27.880211 -1.293254,0.692128 -17.18404,1.322452 -35.312859,1.400719 -31.940678,0.137899 -33.049359,0.05444 -35.79873,-2.694935 z"
       id="path1113" />
  </g>
</svg>
