<?xml version="1.0" encoding="UTF-8" standalone="no"?>
<!-- Created with Inkscape (http://www.inkscape.org/) -->

<svg
   version="1.1"
   id="svg52"
   width="106.66667"
   height="157.33333"
   viewBox="0 0 106.66667 157.33333"
   xmlns="http://www.w3.org/2000/svg"
   xmlns:svg="http://www.w3.org/2000/svg">
  <defs
     id="defs56" />
  <g
     id="g58">
    <path
       style="fill:#000000;stroke-width:1.33333"
       d="m 9.8866047,149.14985 c -0.5155925,-0.83424 -1.0985519,-9.08424 -1.2954652,-18.33333 -0.44002,-20.66789 0.7071872,-23.53001 8.9863035,-22.41955 2.920202,0.39168 5.664787,1.06748 6.099078,1.50177 0.434292,0.43429 0.933813,8.89281 1.110049,18.7967 0.257479,14.46958 -0.06895,18.39646 -1.661643,19.98916 -2.327568,2.32756 -11.879869,2.66328 -13.2383223,0.46525 z m 39.4467303,0.54496 c -1.1,-0.41873 -2.395279,-1.36824 -2.878398,-2.11 -1.64971,-2.53293 -0.352268,-35.29867 1.485423,-37.51295 2.428171,-2.92576 10.156822,-2.66792 12.31737,0.41094 2.355337,3.35643 1.137333,34.89634 -1.468895,38.03666 -1.775665,2.13955 -5.6556,2.62183 -9.4555,1.17535 z m 38.666668,0 c -1.1,-0.41873 -2.395279,-1.36824 -2.878398,-2.11 -1.64971,-2.53293 -0.352268,-35.29867 1.485423,-37.51295 2.428171,-2.92576 10.156822,-2.66792 12.31737,0.41094 2.355342,3.35643 1.137332,34.89634 -1.468895,38.03666 -1.775665,2.13955 -5.6556,2.62183 -9.4555,1.17535 z M 56.378254,46.227096 C 50.290932,39.294019 49.595068,39.20323 44.0493,44.618527 c -3.885047,3.793647 -5.924393,4.824019 -8.879644,4.486407 -5.651242,-0.645608 -5.851143,-5.35724 -0.437095,-10.302211 4.824432,-4.406438 4.550215,-5.573809 -2.04438,-8.70315 -3.507061,-1.66421 -4.68818,-3.059254 -4.68818,-5.53731 0,-4.190729 3.203497,-5.462286 8.529952,-3.385773 6.029106,2.350442 6.611548,2.363551 6.968742,0.156843 0.178053,-1.1 0.680006,-4.192069 1.115453,-6.871265 1.539473,-9.4720109 8.719187,-7.5222256 8.719187,2.367858 0,6.587195 1.423519,7.237571 8.186556,3.740268 4.783162,-2.473469 7.16272,-1.869236 8.195762,2.08112 0.597849,2.28618 -0.459411,3.731133 -5.148316,7.036179 -6.631121,4.674044 -7.030734,5.61389 -3.247802,7.638454 3.866971,2.06954 6.744088,8.225188 5.164044,11.048569 -1.983645,3.544579 -5.82427,2.728432 -10.105325,-2.14742 z"
       id="path974" />
  </g>
</svg>
