<?xml version="1.0" encoding="UTF-8" standalone="no"?>
<!-- Created with Inkscape (http://www.inkscape.org/) -->

<svg
   version="1.1"
   id="svg62"
   width="104"
   height="157.33333"
   viewBox="0 0 104 157.33333"
   xmlns="http://www.w3.org/2000/svg"
   xmlns:svg="http://www.w3.org/2000/svg">
  <defs
     id="defs66" />
  <g
     id="g68">
    <path
       style="fill:#000000;stroke-width:1.33333"
       d="m 18.537041,149.2037 c -4.06757,-4.06757 -2.6308,-10.47064 4.784787,-21.32373 5.138039,-7.51978 7.251616,-9.40566 13.870025,-12.37583 14.943636,-6.7063 36.507176,-3.31108 45.179312,7.11357 8.720996,10.48339 12.528474,25.06995 7.277467,27.88021 -1.293253,0.69213 -17.18404,1.32245 -35.31286,1.40072 -31.940679,0.1379 -33.04936,0.0544 -35.798731,-2.69494 z M 8.3725093,46.925104 C 7.1883872,46.172748 6.8486919,40.864942 7.1255763,27.44153 7.4648872,10.991664 7.7857957,8.7872977 10.0864,7.103218 12.716844,5.1776906 18.161313,5.7082353 20.636987,8.1313365 22.289173,9.7484382 22.689696,42.53886 21.095467,45.666666 19.844957,48.120108 11.545342,48.94103 8.3725093,46.925104 Z M 33.60348,46.325507 C 32.817811,45.378831 32.378132,40.018152 32.591911,33.992174 32.799884,28.129811 33.051785,19.651433 33.151689,15.151332 33.332915,6.9882173 33.343336,6.9678392 37.666667,6.3228321 40.05,5.9672575 43.29354,6.1628413 44.874533,6.7574631 c 2.746812,1.0330931 2.87785,1.8959586 2.949134,19.4198399 0.04608,11.32652 -0.478204,19.004797 -1.371127,20.080703 -1.844771,2.222813 -11.020305,2.271014 -12.84906,0.06751 z M 58.703673,46.04459 C 57.190524,44.221355 57.041984,38.965174 57.798091,14 L 58,7.3333332 l 4.977015,-0.41245 c 9.311522,-0.7716549 9.747532,0.1084471 9.240882,18.6530598 -0.50806,18.596205 -1.888854,22.426056 -8.085374,22.426056 -2.093303,0 -4.536284,-0.879935 -5.42885,-1.955409 z m 24.23314,0.280917 C 82.151144,45.378831 81.711465,40.018152 81.925244,33.992174 82.133217,28.129811 82.385119,19.651433 82.485023,15.151332 82.666248,6.9882173 82.676669,6.9678392 87,6.3228321 c 2.383333,-0.3555746 5.626873,-0.1599908 7.207867,0.434631 2.746812,1.0330931 2.877849,1.8959586 2.949133,19.4198399 0.04608,11.32652 -0.478204,19.004797 -1.371127,20.080703 -1.84477,2.222813 -11.020305,2.271014 -12.84906,0.06751 z"
       id="path835" />
  </g>
</svg>
