<?xml version="1.0" encoding="UTF-8" standalone="no"?>
<!-- Created with Inkscape (http://www.inkscape.org/) -->

<svg
   version="1.1"
   id="svg72"
   width="165.33333"
   height="161.33333"
   viewBox="0 0 165.33333 161.33333"
   xmlns="http://www.w3.org/2000/svg"
   xmlns:svg="http://www.w3.org/2000/svg">
  <defs
     id="defs76" />
  <g
     id="g78">
    <path
       style="fill:#000000;stroke-width:1.33333"
       d="m 50.53704,151.87037 c -4.06757,-4.06757 -2.6308,-10.47064 4.784787,-21.32373 5.138038,-7.51978 7.251616,-9.40567 13.870025,-12.37583 14.943636,-6.70631 36.507178,-3.31109 45.179308,7.11357 8.721,10.48339 12.52848,25.06995 7.27747,27.8802 -1.29325,0.69214 -17.18404,1.32246 -35.31286,1.40072 -31.940678,0.13791 -33.049359,0.0544 -35.79873,-2.69493 z M 38.982923,101.5249 C 38.222626,101.05287 37.295638,94.666665 36.922951,87.333332 35.66743,62.628583 31.816935,51.225736 20.489268,38.666666 8.779854,25.684353 7.9999998,24.30233 7.9999998,16.533766 c 0,-5.49814 0.5472246,-7.3994751 2.4177702,-8.400561 2.722254,-1.4569061 4.146838,-0.8214454 15.379433,6.860269 14.63056,10.005503 29.919492,35.482878 32.075518,53.450431 0.425283,3.544148 1.075296,6.93264 1.444474,7.529983 0.672706,1.088462 25.835245,0.647418 33.34947,-0.584543 2.2,-0.360691 6.1,-0.202321 8.666665,0.351933 10.25158,2.21376 11.21152,1.103054 14.75679,-17.074613 2.15686,-11.058803 4.83729,-17.001393 13.53167,-29.999999 7.68186,-11.484844 24.94895,-24.6787405 29.84081,-22.8015591 1.32294,0.5076638 1.87073,3.103135 1.87073,8.8638251 0,7.90493 -0.19984,8.369725 -6.75376,15.708513 -12.72575,14.249707 -19.43693,34.661174 -18.73883,56.992419 0.23843,7.626619 -0.17504,11.181678 -1.4188,12.199222 -1.93371,1.582004 -93.029832,3.391554 -95.439017,1.895814 z"
       id="path696" />
  </g>
</svg>
