<?xml version="1.0" encoding="UTF-8" standalone="no"?>
<!-- Created with Inkscape (http://www.inkscape.org/) -->

<svg
   version="1.1"
   id="svg82"
   width="160"
   height="158.66667"
   viewBox="0 0 160 158.66667"
   xmlns="http://www.w3.org/2000/svg"
   xmlns:svg="http://www.w3.org/2000/svg">
  <defs
     id="defs86" />
  <g
     id="g88">
    <path
       style="fill:#000000;stroke-width:1.33333"
       d="m 77.333333,153.39855 c -1.544149,-1.00156 -2.19229,-5.48741 -2.843656,-19.68123 C 73.550807,113.25855 73.986041,112 82,112 c 8.339189,0 8.785131,1.20792 8.371912,22.67699 L 90,154 l -5.333333,0.34788 c -2.933334,0.19134 -6.233334,-0.23586 -7.333334,-0.94933 z M 9.8866044,149.14986 c -0.5155925,-0.83424 -1.0985519,-9.08424 -1.2954652,-18.33334 -0.44002,-20.66789 0.7071872,-23.53001 8.9863038,-22.41954 2.920201,0.39168 5.664786,1.06747 6.099077,1.50176 0.434292,0.4343 0.933813,8.89281 1.110049,18.79671 0.257479,14.46958 -0.06895,18.39646 -1.661642,19.98915 -2.327568,2.32756 -11.879869,2.66328 -13.2383226,0.46526 z M 137.62105,148.20604 c -2.53797,-1.61037 -2.10032,-33.12493 0.51668,-37.20604 2.18222,-3.40308 8.61336,-4.11141 11.01835,-1.21357 0.94667,1.14065 1.41169,8.15318 1.28645,19.39889 -0.17138,15.38794 -0.49536,17.77259 -2.56502,18.88024 -2.88612,1.5446 -7.93456,1.61375 -10.25646,0.14048 z M 53.333333,89.183314 C 35.596575,86.907252 15.806188,82.270103 11.512634,79.384172 6.8596891,76.256675 5.692814,72.499008 8.283012,68.983879 11.514008,64.599131 45.146685,58.458336 70,57.715333 c 26.159195,-0.782042 47.78433,1.962516 75.26325,9.55205 14.57659,4.025978 8.89755,11.851003 -11.26325,15.519399 -3.66667,0.667174 -9.66667,1.810396 -13.33333,2.540493 -22.179915,4.416404 -50.381101,6.031427 -67.333337,3.856039 z M 108,77.242514 c 20.11547,-2.068024 22.83367,-2.560276 21.95836,-3.976547 -0.43032,-0.696281 -2.50793,-1.265965 -4.61692,-1.265965 -2.10898,0 -5.48773,-0.628555 -7.50834,-1.396789 -5.24376,-1.993674 -45.500296,-2.793778 -60.499767,-1.202442 -6.966666,0.739113 -14.466666,1.319345 -16.666666,1.289404 -2.2,-0.02994 -5.5,0.302569 -7.333334,0.738913 L 30,72.22244 l 4.10044,1.726491 c 2.255241,0.949571 9.752097,2.146377 16.659679,2.659572 6.907582,0.513193 12.812384,1.186224 13.121782,1.495623 C 64.999587,79.22181 94.316767,78.649255 108,77.242514 Z M 34.309371,52.000001 c -1.562642,-1.825032 -3.933251,-2.666667 -7.51113,-2.666667 -4.200862,0 -5.905964,-0.805884 -8.679716,-4.1023 -1.898522,-2.256265 -3.451858,-4.651544 -3.451858,-5.322841 0,-0.671296 -2.25,-2.277603 -5.0000003,-3.569567 C 3.3029691,33.348925 2.2209307,28.753429 7.3323284,26.424521 10.621221,24.926001 10.790842,24.416777 9.9755845,18.489146 8.8014693,9.9523082 9.9565308,7.1078383 15.315396,5.3392533 c 9.350271,-3.0858677 17.866037,6.5385547 9.256331,10.4613987 -4.209615,1.91803 -3.84938,5.499751 0.77104,7.66625 1.828145,0.857212 6.86888,3.221525 11.201632,5.254032 l 7.877732,3.695467 17.455601,-1.53097 c 9.600581,-0.842034 29.755601,-1.884616 44.788938,-2.316848 15.03333,-0.432232 28.98333,-1.409777 31,-2.172324 3.4956,-1.321761 3.66666,-1.801906 3.66666,-10.291352 0,-9.5164818 1.31966,-12.1049069 6.17143,-12.1049069 6.15221,0 7.16191,2.9159427 7.16191,20.6832169 0,11.73682 -0.48062,16.800107 -1.66667,17.558643 -0.91667,0.586246 -25.06667,0.85698 -53.666667,0.601629 -50.696974,-0.452641 -52.060685,-0.397124 -54.421777,2.215503 -1.331977,1.473877 -2.310888,3.488553 -2.175356,4.47706 0.790627,5.766481 -4.319713,7.260711 -8.426829,2.463949 z"
       id="path557" />
  </g>
</svg>
