<?xml version="1.0" encoding="UTF-8" standalone="no"?>
<!-- Created with Inkscape (http://www.inkscape.org/) -->

<svg
   version="1.1"
   id="svg92"
   width="181.33333"
   height="157.33333"
   viewBox="0 0 181.33333 157.33333"
   xmlns="http://www.w3.org/2000/svg"
   xmlns:svg="http://www.w3.org/2000/svg">
  <defs
     id="defs96" />
  <g
     id="g98">
    <path
       style="fill:#000000;stroke-width:1.33333"
       d="M 7.8299261,149.79945 C 6.5972836,148.31716 5.8721531,142.98598 5.6083095,133.46612 5.1286315,116.15861 6.9300648,111.54808 15.949186,107 c 7.183336,-3.62235 10.999256,-3.72182 18.151961,-0.47319 8.067015,3.66389 9.898852,8.58256 9.898852,26.57946 0,15.91291 -1.14623,18.89373 -7.265312,18.89373 -5.01102,0 -5.852002,-2.5128 -5.620013,-16.79222 0.157813,-9.71373 -0.290547,-14.07322 -1.611268,-15.66666 -2.451833,-2.95811 -4.865517,-2.78098 -8.003606,0.58736 -2.32576,2.49641 -2.524364,4.13129 -1.85823,15.29665 C 20.473962,149.37721 19.475754,152 13.333333,152 11.312919,152 8.8363856,151.00974 7.8299261,149.79945 Z M 96.37825,143.56042 c -6.087321,-6.93306 -6.783185,-7.02386 -12.328953,-1.60856 -3.885046,3.79364 -5.924393,4.82402 -8.879644,4.4864 -5.651241,-0.6456 -5.851142,-5.35724 -0.437094,-10.30221 4.824432,-4.40643 4.550214,-5.5738 -2.04438,-8.70315 -3.507062,-1.66421 -4.68818,-3.05925 -4.68818,-5.53731 0,-4.19072 3.203497,-5.46228 8.529952,-3.38577 6.029105,2.35044 6.611547,2.36355 6.968741,0.15684 0.178053,-1.1 0.680006,-4.19207 1.115453,-6.87126 1.539473,-9.47201 8.719187,-7.52223 8.719187,2.36786 0,6.58719 1.423518,7.23757 8.186558,3.74027 4.78316,-2.47347 7.16272,-1.86924 8.19576,2.08112 0.59785,2.28618 -0.45941,3.73113 -5.14832,7.03617 -6.631117,4.67405 -7.03073,5.61389 -3.2478,7.63846 3.86697,2.06954 6.74409,8.22518 5.16405,11.04857 -1.98365,3.54457 -5.82428,2.72843 -10.10533,-2.14743 z m 47.76276,0.5713 C 140.68964,140.90765 140,139.25957 140,134.23561 c 0,-5.38271 0.57078,-6.51639 5.33333,-10.59295 2.93333,-2.51083 5.33333,-5.22136 5.33333,-6.02341 0,-0.80205 -2.18924,-1.6445 -4.86496,-1.8721 -5.74128,-0.48836 -8.58186,-3.82337 -6.31469,-7.41382 1.26243,-1.99928 3.8384,-2.36025 17.99317,-2.52136 9.0859,-0.10341 17.56982,0.36769 18.85315,1.04691 5.27292,2.79075 0.80697,9.14112 -6.42857,9.14112 -5.76015,0 -6.04058,2.77229 -0.66743,6.59831 4.50268,3.20619 7.27168,10.2427 6.00956,15.27137 -0.4792,1.90933 -2.65184,4.96974 -4.82805,6.80092 -3.37256,2.83781 -5.29891,3.3294 -13.0468,3.3294 -8.1908,0 -9.49968,-0.38267 -13.23103,-3.86828 z M 63.999999,37.270155 C 48.533144,35.68033 24.406458,29.770418 20.647596,26.650839 15.857566,22.675468 20.43663,16.84167 31.049485,13.398673 52.944139,6.2956613 106.55165,3.4442402 130,8.1354258 c 16.65265,3.3316062 33.21757,8.2220352 36.18134,10.6817422 2.01959,1.676114 2.33608,4.970338 0.72178,7.512566 -1.0655,1.67794 -13.35766,5.377904 -29.87031,8.991021 -10.40617,2.276962 -57.592743,3.536471 -73.032811,1.9494 z M 114.85872,26.619761 c 7.59437,-0.759132 15.86777,-2.041908 18.38533,-2.850615 l 4.57739,-1.470376 -4.57739,-1.662152 c -12.21217,-4.434512 -56.575874,-4.71434 -80.127602,-0.505412 -11.955418,2.136554 -9.698497,3.552441 9.337895,5.858168 18.018477,2.182433 34.851914,2.384928 52.404377,0.630387 z"
       id="path418" />
  </g>
</svg>
