<?xml version="1.0" encoding="UTF-8" standalone="no"?>
<!-- Created with Inkscape (http://www.inkscape.org/) -->

<svg
   version="1.1"
   id="svg102"
   width="88"
   height="160"
   viewBox="0 0 88 160"
   xmlns="http://www.w3.org/2000/svg"
   xmlns:svg="http://www.w3.org/2000/svg">
  <defs
     id="defs106" />
  <g
     id="g108">
    <path
       style="fill:#000000;stroke-width:1.33333"
       d="m 37.630008,152.59107 c -3.236501,-2.26694 -3.99102,-8.29215 -1.537264,-12.27583 1.028951,-1.67051 0.933875,-4.72869 -0.341419,-10.98191 C 34.779203,124.56667 34.287468,118.56667 34.658581,116 c 0.631514,-4.36763 1.016514,-4.68896 6.008086,-5.01455 9.014826,-0.58802 9.280744,-0.0195 9.765952,20.87774 l 0.432618,18.63232 -4.033072,2.08557 c -4.992849,2.58191 -5.529388,2.58249 -9.202157,0.009 z M 39.854101,89.179437 C 36.607188,87.987983 36.384612,87.368831 36.520768,79.906913 36.68032,71.162804 35.429045,69.38986 29.072755,69.353751 c -2.609211,-0.01483 -4.071348,0.97572 -5.336432,3.61523 -2.394434,4.995818 -8.6863,7.182603 -11.113868,3.862707 C 11.35725,75.101417 11.201287,73.434108 12.086778,71.105089 14.040041,65.967616 12.129455,57.479631 8.4818016,55.089596 4.3928933,52.41044 4.4612361,47.907696 8.6666667,42.909825 10.5,40.731033 12,37.950689 12,36.731285 12,25.705621 21.585989,12.241555 31.333333,9.5765205 40.748812,7.002222 46.005337,6.6102743 53.091524,7.9541417 c 8.461508,1.6046922 13.758332,5.3533873 18.911783,13.3843453 6.196084,9.655758 7.96791,16.348284 8.166796,30.847518 0.221525,16.149723 -0.983456,18.148824 -11.301447,18.749456 -6.808027,0.396311 -6.838113,0.418046 -7.664439,5.536748 -0.936642,5.802062 -2.663001,7.3889 -7.113077,6.538215 -2.282229,-0.436276 -3.822743,0.470572 -6.004599,3.534707 -3.20159,4.49622 -3.178525,4.488838 -8.23244,2.634306 z"
       id="path279" />
  </g>
</svg>
