<?xml version="1.0" encoding="UTF-8" standalone="no"?>
<!-- Created with Inkscape (http://www.inkscape.org/) -->

<svg
   version="1.1"
   id="svg112"
   width="160"
   height="57.333332"
   viewBox="0 0 160 57.333332"
   xmlns="http://www.w3.org/2000/svg"
   xmlns:svg="http://www.w3.org/2000/svg">
  <defs
     id="defs116" />
  <g
     id="g118">
    <path
       style="fill:#000000;stroke-width:1.33333"
       d="M 123.33333,50.477089 C 116.73333,49.992024 97.233333,49.612388 80,49.633455 19.335545,49.707614 7.5264428,49.388378 6.4186352,47.64433 4.2407425,44.215622 5.3931109,40.139018 9.3333333,37.333332 c 2.1999997,-1.566538 3.9999997,-3.485014 3.9999997,-4.263279 0,-0.778266 1.926147,-6.73741 4.280326,-13.242541 3.64509,-10.072211 4.722197,-11.8275122 7.257728,-11.8275122 3.526776,0 6.671502,4.0644262 8.565332,11.0703292 1.772672,6.557698 5.56501,10.263004 10.504069,10.263004 2.167433,0 6.217433,1.572738 9,3.494976 L 58,36.323284 89.333333,35.325042 c 17.233337,-0.549033 35.383337,-0.879533 40.333337,-0.734445 6.61372,0.193852 9.05522,-0.202995 9.20829,-1.496735 0.31951,-2.700352 1.02028,-7.844119 1.92416,-14.12341 0.96168,-6.680881 3.94084,-8.970316 9.11359,-7.003644 3.31934,1.262018 3.4293,1.686389 3.71366,14.333523 0.42016,18.686475 0.27023,22.914123 -0.85248,24.037285 -1.23853,1.239027 -13.67774,1.297956 -29.44056,0.139473 z M 24.521728,35.436425 c -0.400351,-1.0433 0.570475,-3.195295 2.157391,-4.782211 2.040592,-2.040592 2.648864,-3.827355 2.077689,-6.103092 -1.220351,-4.862266 -3.151125,-3.874084 -4.784776,2.448877 -0.805248,3.116667 -1.768807,6.716667 -2.141243,8 -0.436301,1.503397 0.05129,2.333333 1.370848,2.333333 1.22319,0 1.754844,-0.763962 1.320091,-1.896907 z"
       id="path140" />
  </g>
</svg>
