<?xml version="1.0" encoding="UTF-8" standalone="no"?>
<!-- Created with Inkscape (http://www.inkscape.org/) -->

<svg
   version="1.1"
   id="svg2"
   width="85.333336"
   height="149.33333"
   viewBox="0 0 85.333336 149.33333"
   xmlns="http://www.w3.org/2000/svg"
   xmlns:svg="http://www.w3.org/2000/svg">
  <defs
     id="defs6" />
  <g
     id="g8">
    <path
       style="fill:#000000;stroke-width:1.33333"
       d="m 51.459351,141.93553 c -1.289696,-1.28969 -2.0955,-3.78255 -1.865071,-5.76983 0.341247,-2.94299 1.147324,-3.56017 5.072388,-3.88375 8.020518,-0.66121 8.593985,-1.17593 5.899907,-5.29554 -1.313942,-2.00919 -3.028944,-4.29924 -3.811113,-5.08899 -0.78217,-0.78975 -3.443355,-3.74175 -5.913744,-6.56 -3.585254,-4.0901 -4.930522,-4.84728 -6.666667,-3.75228 C 41.462508,113.29595 33.95119,127.9866 31.691749,136 l -1.691748,6 -11.878336,0.38833 c -6.533085,0.21357 -12.3203975,-0.0864 -12.8606947,-0.66667 -2.0281219,-2.17809 1.341148,-7.10876 5.4142807,-7.92338 6.23675,-1.24735 12.566479,-8.48353 15.214411,-17.39319 2.326178,-7.82703 5.550832,-16.741494 7.381195,-20.405092 1.275475,-2.552952 9.929643,-3.315332 16.243599,-1.430963 5.377084,1.604766 9.370309,6.178355 15.847775,18.151035 2.336499,4.3187 6.585839,10.50789 9.442977,13.75377 5.354193,6.08268 6.773755,11.932 3.528128,14.53769 -0.916667,0.73592 -6.827386,1.75581 -13.134931,2.26643 -9.829571,0.79572 -11.792735,0.60389 -13.739054,-1.34243 z M 27.388149,51.666666 c -0.290488,-0.916667 -0.905036,-5.038266 -1.365662,-9.159107 -0.460625,-4.120843 -1.981984,-9.520842 -3.380797,-12 C 14.229574,15.598522 14.0134,14.931826 16.647535,12.02114 18.895006,9.5377133 20.716851,9.3333331 40.606652,9.3333331 c 22.192641,0 24.726683,0.5678316 24.726683,5.5407879 0,1.287433 -1.515208,4.573571 -3.367128,7.302528 -1.851921,2.728958 -3.693445,6.505604 -4.092277,8.392546 -0.398831,1.886942 -1.283624,4.809036 -1.966206,6.493542 -0.68258,1.684505 -1.241056,5.413394 -1.241056,8.286421 0,3.799896 -0.702945,5.599889 -2.579012,6.603929 -3.796794,2.031982 -24.039202,1.797246 -24.699507,-0.286421 z"
       id="path1834" />
  </g>
</svg>
