<?xml version="1.0" encoding="UTF-8" standalone="no"?>
<!-- Created with Inkscape (http://www.inkscape.org/) -->

<svg
   version="1.1"
   id="svg12"
   width="161.33333"
   height="166.66667"
   viewBox="0 0 161.33333 166.66667"
   xmlns="http://www.w3.org/2000/svg"
   xmlns:svg="http://www.w3.org/2000/svg">
  <defs
     id="defs16" />
  <g
     id="g18">
    <path
       style="fill:#000000;stroke-width:1.33333"
       d="m 18.666666,155.02815 c -1.1,-0.41873 -2.395278,-1.36824 -2.878397,-2.11 -1.649711,-2.53293 -0.352268,-35.29867 1.485423,-37.51295 2.42817,-2.92577 10.156821,-2.66792 12.317369,0.41093 2.355337,3.35644 1.137333,34.89635 -1.468895,38.03667 -1.775665,2.13955 -5.6556,2.62183 -9.4555,1.17535 z m 54.760256,-2.24871 c -0.861443,-1.03797 -1.492089,-5.08797 -1.401434,-9 0.09065,-3.91202 -0.249995,-10.53506 -0.756999,-14.71786 -1.502548,-12.39608 1.351317,-18.39491 8.751143,-18.39491 6.650354,0 7.980366,3.73058 7.980366,22.38433 0,9.05171 -0.62111,17.6182 -1.380245,19.03666 -1.674671,3.12914 -10.774007,3.60629 -13.192831,0.69178 z m 65.239738,0.91538 c -1.1,-0.41874 -2.39528,-1.36824 -2.8784,-2.11 -1.6497,-2.53294 -0.35226,-35.29867 1.48543,-37.51295 2.42817,-2.92577 10.15683,-2.66793 12.31737,0.41093 2.35534,3.35644 1.13734,34.89635 -1.46889,38.03667 -1.77567,2.13955 -5.65561,2.62183 -9.45551,1.17535 z M 52.666666,91.34775 c -17.301559,-1.910102 -35.851269,-5.634879 -41,-8.232792 -2.7103757,-1.367584 -3.6666662,-2.84182 -3.6666662,-5.652603 0,-4.965175 1.6338009,-6.158776 12.0161962,-8.778642 15.074449,-3.803845 20.153042,-4.613381 41.753628,-6.6556 14.694504,-1.389285 22.792698,-1.605177 26.666666,-0.710912 3.059929,0.706352 8.307827,1.298946 11.66199,1.316872 12.55508,0.06711 43.28629,5.707944 50.47908,9.265644 2.83246,1.400995 4.61948,4.79497 3.73638,7.096287 -0.42741,1.113823 -4.2729,3.028283 -8.54553,4.254358 -4.27263,1.226074 -9.61101,2.79632 -11.86308,3.489433 -2.25206,0.693113 -5.85206,1.268939 -8,1.279611 -2.14793,0.01067 -6.30533,0.832533 -9.23867,1.826357 -7.63477,2.58669 -46.015908,3.487439 -63.999994,1.501987 z m 72.666664,-12.284028 7.33333,-1.06372 -6.99698,-1.78911 c -3.84834,-0.98401 -7.33375,-2.334011 -7.74536,-3 -1.10231,-1.783589 -50.756703,-1.501805 -68.924321,0.39114 -20.433636,2.129048 -21.11378,4.287642 -2.020393,6.412172 11.405889,1.26914 67.764814,0.585468 78.353724,-0.950482 z M 38.267401,46.287196 c -1.700886,-1.302564 -2.1841,-4.946526 -2.46274,-18.571753 -0.190662,-9.323173 0.05826,-17.356146 0.553166,-17.8510489 1.219631,-1.2196306 5.451455,-1.4498087 46.308838,-2.5188384 28.635865,-0.7492548 35.746855,-0.585298 37.514905,0.8649755 1.71423,1.4061322 2.36977,5.4142368 3.06012,18.7103818 0.82864,15.959745 0.72911,17.000891 -1.75228,18.328889 -4.03611,2.16006 -80.51123,3.113351 -83.222009,1.037394 z"
       id="path1695" />
  </g>
</svg>
