<?xml version="1.0" encoding="UTF-8" standalone="no"?>
<!-- Created with Inkscape (http://www.inkscape.org/) -->

<svg
   version="1.1"
   id="svg22"
   width="162.66667"
   height="156"
   viewBox="0 0 162.66667 156"
   xmlns="http://www.w3.org/2000/svg"
   xmlns:svg="http://www.w3.org/2000/svg">
  <defs
     id="defs26" />
  <g
     id="g28">
    <path
       style="fill:#000000;stroke-width:1.33333"
       d="m 9.1632598,148.46612 c -1.2326426,-1.48229 -1.9577731,-6.81347 -2.2216167,-16.33334 -0.479678,-17.3075 1.3217553,-21.91803 10.3408769,-26.46611 7.183337,-3.62235 10.999257,-3.72182 18.151962,-0.4732 8.067015,3.6639 9.898852,8.58257 9.898852,26.57946 0,15.91292 -1.14623,18.89374 -7.265312,18.89374 -5.01102,0 -5.852003,-2.5128 -5.620013,-16.79222 0.157813,-9.71373 -0.290547,-14.07322 -1.611268,-15.66666 -2.451834,-2.95812 -4.865518,-2.78098 -8.003607,0.58736 -2.32576,2.49641 -2.524364,4.13129 -1.85823,15.29665 0.832392,13.95208 -0.165816,16.57487 -6.308237,16.57487 -2.020414,0 -4.496948,-0.99026 -5.5034072,-2.20055 z M 140.37826,142.22709 c -6.08732,-6.93306 -6.78319,-7.02386 -12.32896,-1.60856 -3.88505,3.79364 -5.92439,4.82402 -8.87964,4.4864 -5.65124,-0.6456 -5.85115,-5.35724 -0.4371,-10.30221 4.82443,-4.40643 4.55022,-5.57381 -2.04438,-8.70315 C 113.18112,124.43536 112,123.04032 112,120.56226 c 0,-4.19073 3.2035,-5.46228 8.52995,-3.38577 6.02911,2.35044 6.61155,2.36355 6.96875,0.15684 0.17805,-1.1 0.68,-4.19207 1.11545,-6.87126 1.53947,-9.47201 8.71919,-7.52223 8.71919,2.36786 0,6.58719 1.42352,7.23757 8.18656,3.74026 4.78316,-2.47346 7.16272,-1.86923 8.19576,2.08112 0.59785,2.28618 -0.45942,3.73114 -5.14832,7.03618 -6.63112,4.67405 -7.03074,5.61389 -3.2478,7.63846 3.86697,2.06954 6.74409,8.22518 5.16404,11.04857 -1.98364,3.54457 -5.82427,2.72843 -10.10532,-2.14743 z M 53.333334,37.270156 C 37.866479,35.680331 13.739792,29.770419 9.9809298,26.65084 5.1908998,22.675468 9.7699635,16.841671 20.382819,13.398673 42.277474,6.2956615 95.884987,3.4442403 119.33334,8.135426 c 16.65265,3.331606 33.21757,8.222035 36.18134,10.681742 2.01959,1.676115 2.33608,4.970339 0.72178,7.512567 -1.0655,1.67794 -13.35766,5.377904 -29.87031,8.991021 -10.40617,2.276961 -57.592747,3.536471 -73.032816,1.9494 z M 104.19206,26.619761 c 7.59437,-0.759132 15.86777,-2.041908 18.38533,-2.850614 l 4.57739,-1.470376 -4.57739,-1.662152 c -12.21217,-4.434512 -56.575878,-4.71434 -80.127606,-0.505412 -11.955419,2.136553 -9.698498,3.552441 9.337894,5.858168 18.018478,2.182433 34.851916,2.384928 52.404382,0.630386 z"
       id="path1556" />
  </g>
</svg>
