<?xml version="1.0" encoding="UTF-8" standalone="no"?>
<!-- Created with Inkscape (http://www.inkscape.org/) -->

<svg
   version="1.1"
   id="svg32"
   width="160"
   height="161.33333"
   viewBox="0 0 160 161.33333"
   xmlns="http://www.w3.org/2000/svg"
   xmlns:svg="http://www.w3.org/2000/svg">
  <defs
     id="defs36" />
  <g
     id="g38">
    <path
       style="fill:#000000;stroke-width:1.33333"
       d="m 76.012497,152.81249 c -1.439521,-1.43952 -1.889278,-27.17819 -0.536512,-30.70344 0.970368,-2.52874 7.885394,-2.85261 9.445326,-0.44239 0.593278,0.91667 1.378689,5.86667 1.745356,11 0.611114,8.5556 0.927952,9.37032 3.802284,9.77718 1.724589,0.2441 4.485805,0.10493 6.136034,-0.30922 2.85201,-0.71581 3.037432,-1.55641 3.748715,-16.9946 1.0899,-23.65569 2.22947,-22.39558 -19.962099,-22.07356 L 62,103.33333 61.333333,127.05151 c -0.537288,19.11525 -1.054801,23.96297 -2.666666,24.97958 -3.275475,2.06585 -6.38739,1.48508 -8.544516,-1.59465 -1.717668,-2.45231 -1.913432,-7.00515 -1.275619,-29.66667 0.475592,-16.89779 1.311207,-27.450697 2.265929,-28.616232 2.056166,-2.510187 57.041009,-1.459263 60.185359,1.15032 1.69979,1.410703 2.03551,6.046269 2.03551,28.105932 0,14.52914 -0.5895,27.96713 -1.31001,29.86219 l -1.31001,3.4456 -16.67749,-0.27962 c -9.172621,-0.1538 -17.283116,-0.88526 -18.023323,-1.62547 z M 48.976044,75.198264 C 48.535089,74.75731 44.685089,73.915485 40.420488,73.327541 31.130172,72.046721 13.540659,67.585024 9.7196041,65.540057 6.1837945,63.647749 4.8745459,60.159372 6.8202392,57.814955 8.89141,55.319347 31.790769,48.357791 43.333333,46.714734 55.307029,45.010306 99.16454,44.941991 107.56495,46.61468 c 3.53928,0.704742 13.31439,2.561352 21.72247,4.125799 8.40809,1.564447 17.53546,3.743933 20.28305,4.843301 5.63073,2.252972 7.72366,6.360175 4.75418,9.32966 -2.9552,2.9552 -21.06467,7.097443 -42.39385,9.696894 -12.118917,1.47697 -61.603583,1.939102 -62.954756,0.587927 z M 110.66667,64.476083 c 5.5,-0.443018 11.04753,-1.536132 12.32785,-2.429147 2.01784,-1.407428 1.39635,-1.821913 -4.66667,-3.112304 -17.83701,-3.79625 -35.004242,-4.673457 -57.228631,-2.924254 -11.971238,0.942213 -23.128579,2.398746 -24.794095,3.236741 -2.768132,1.39277 -2.367336,1.656208 4.666667,3.06734 19.142552,3.840296 40.59428,4.505633 69.694879,2.161624 z M 6.0190228,42.178787 c -2.7918305,-2.041436 -2.544658,-3.018172 4.7690282,-18.845454 2.033212,-4.4 4.607053,-10.25 5.719646,-13 1.589079,-3.9277255 2.746527,-4.9999998 5.397168,-4.9999998 2.594283,0 4.003219,1.2328397 6.095135,5.3333328 3.074505,6.026528 3.974711,6.377903 7.202439,2.811304 2.667013,-2.947017 6.919025,-2.314795 9.22086,1.371027 1.998536,3.200167 4.452621,3.163709 6.195041,-0.09203 2.167896,-4.050751 6.254347,-4.646191 10.260375,-1.495049 3.174917,2.497391 3.759024,2.574237 5.765382,0.758507 2.819343,-2.551469 9.206042,-2.629056 10.167508,-0.12352 1.257083,3.275905 4.784203,3.657522 7.441598,0.805144 3.173948,-3.406833 5.165452,-3.400859 9.52527,0.02857 l 3.471431,2.730628 2.338036,-2.730628 c 2.68708,-3.13828 8.14984,-3.632055 9.22367,-0.833719 1.30829,3.409356 4.8173,3.623583 8.14512,0.497263 3.13176,-2.94214 3.30678,-2.958336 7.28652,-0.674276 4.60067,2.640424 6.58568,1.753191 9.45051,-4.2240583 0.95916,-2.0012387 2.78521,-3.4958348 4.27109,-3.4958348 3.23308,0 8.25378,7.2476901 10.06863,14.5347181 0.74864,3.005904 1.90632,6.441416 2.57263,7.634471 0.6663,1.193054 1.6096,4.291394 2.0962,6.8852 0.72177,3.847404 0.40992,4.970122 -1.69323,6.095689 -4.55525,2.437901 -8.18765,0.368194 -9.893,-5.636955 -2.07936,-7.32217 -3.21275,-8.425332 -6.08457,-5.922269 -3.64424,3.176293 -5.99502,3.546092 -10.61888,1.670444 -3.56963,-1.448003 -4.50757,-1.420137 -5.82993,0.173203 -2.12674,2.56257 -7.81837,2.400514 -10.81105,-0.307819 -2.17674,-1.969927 -2.68863,-1.991668 -4.77165,-0.202665 -4.105955,3.5264 -6.485815,3.602706 -10.294416,0.330073 -2.882432,-2.4768 -4.246107,-2.88024 -6.200351,-1.83436 C 85.127355,30.157147 84,31.275186 84,31.904259 c 0,2.753314 -4.250471,2.402948 -7.511381,-0.619161 -1.949574,-1.806804 -3.669452,-3.285099 -3.821952,-3.285099 -0.1525,0 -1.898923,1.502895 -3.88094,3.339766 -3.954019,3.664461 -7.293615,3.013302 -10.447642,-2.037096 -1.539517,-2.46516 -1.793084,-2.395032 -5.966686,1.650182 l -4.358842,4.224755 -3.9973,-3.829656 -3.997301,-3.829657 -3.094913,2.90752 c -4.04115,3.796462 -6.794363,3.672584 -10.038504,-0.451674 -2.396852,-3.047104 -2.836091,-3.165445 -4.727763,-1.273772 -1.146983,1.146982 -2.778047,4.397198 -3.624588,7.222702 -0.964961,3.220754 -2.742635,5.685617 -4.765081,6.607105 -4.1221801,1.87819 -4.7370926,1.850304 -7.7480842,-0.351387 z"
       id="path1417" />
  </g>
</svg>
