<?xml version="1.0" encoding="UTF-8" standalone="no"?>
<!-- Created with Inkscape (http://www.inkscape.org/) -->

<svg
   version="1.1"
   id="svg42"
   width="160"
   height="154.66667"
   viewBox="0 0 160 154.66667"
   xmlns="http://www.w3.org/2000/svg"
   xmlns:svg="http://www.w3.org/2000/svg">
  <defs
     id="defs46" />
  <g
     id="g48">
    <path
       style="fill:#000000;stroke-width:1.33333"
       d="M 65.333333,147.98146 C 39.004481,146.42418 11.758751,140.23958 8.3572757,135.04827 5.7482868,131.06645 7.6759768,126.02953 12.224443,124.94362 13.934332,124.5354 21.033333,122.6466 28,120.74628 c 13.758111,-3.75284 43.86666,-6.18619 65.333333,-5.28019 11.927827,0.50341 33.719717,3.98009 37.648577,6.00646 1.27338,0.65677 3.49514,1.19412 4.93726,1.19412 1.44211,0 4.00026,0.55848 5.68476,1.24106 1.68451,0.68258 4.69542,1.58966 6.69092,2.01574 4.12272,0.88028 6.88947,5.01172 5.75339,8.59123 -0.84996,2.67797 -6.05855,5.4853 -10.17719,5.4853 -1.46858,0 -4.3418,0.86444 -6.38492,1.92099 -9.69026,5.01103 -42.831578,7.79473 -72.152797,6.06047 z M 122,133.68382 131.33333,132.60727 124,130.87792 c -21.24324,-5.00957 -64.107221,-6.57457 -79.333333,-2.89653 -2.933334,0.70858 -7.247923,1.30264 -9.587978,1.32014 -8.848189,0.0661 -5.259938,2.49539 6.596132,4.46558 13.09088,2.17537 61.175479,2.12552 80.325179,-0.0833 z M 73.37034,108.71126 c -1.513149,-1.82324 -1.661689,-7.07942 -0.905583,-32.044592 l 0.20191,-6.666666 4.977014,-0.412451 c 9.311523,-0.771655 9.747532,0.108453 9.240883,18.653062 -0.50806,18.596207 -1.888855,22.426057 -8.085375,22.426057 -2.093302,0 -4.536284,-0.87994 -5.428849,-1.95541 z m 65.56647,0.28092 c -0.78566,-0.94668 -1.22534,-6.30736 -1.01157,-12.333337 0.20797,-5.862362 0.45988,-14.340741 0.55979,-18.840843 0.18122,-8.163114 0.19164,-8.183492 4.51497,-8.8285 2.38333,-0.355575 5.62688,-0.159991 7.20787,0.434631 2.74681,1.033093 2.87785,1.895959 2.94913,19.419842 0.0461,11.326517 -0.4782,19.004797 -1.37113,20.080707 -1.84476,2.22281 -11.0203,2.27101 -12.84906,0.0675 z M 10.024826,108.04017 C 9.585256,107.32893 8.8906997,98.911677 8.4813681,89.335159 7.6506141,69.899262 8.2524248,68.000001 15.241753,68.000001 c 8.212939,0 8.934512,1.584359 9.192626,20.18425 0.267194,19.254359 -0.496011,21.149089 -8.51895,21.149089 -2.800261,0 -5.451032,-0.58193 -5.890603,-1.29317 z M 114.4722,51.36109 C 114.1208,51.009689 89.748947,50.655082 60.312529,50.573077 2.2558249,50.41134 3.3792165,50.56144 4.2369899,43.08063 4.6493407,39.484438 4.973178,39.326657 12.267987,39.167729 16.448713,39.076649 20.915095,38.600817 22.19328,38.11033 24.182705,37.346917 23.992065,36.946067 20.868973,35.325787 18.86242,34.284775 15.167415,33.047841 12.657852,32.577043 7.1816931,31.54971 4.9768579,29.217401 5.5643148,25.07339 c 0.3346697,-2.360811 1.2085325,-3.013747 3.7690185,-2.816148 4.4712267,0.345053 16.4472827,2.847639 24.7838557,5.178976 9.161619,2.562061 14.188238,2.386299 17.40279,-0.608512 1.479212,-1.378095 5.214265,-4.099458 8.30012,-6.047472 3.085854,-1.948015 7.8642,-5.577796 10.618545,-8.066182 5.900797,-5.3310165 11.07978,-7.0375007 13.286917,-4.3780633 0.840228,1.0124127 1.76633,6.4716073 2.058004,12.1315433 0.291674,5.659937 0.759692,10.507273 1.040042,10.771858 0.280349,0.264587 4.828353,0.165588 10.106674,-0.219997 9.232069,-0.674407 9.650289,-0.854086 10.999999,-4.725858 C 110.34883,19.355683 109.6938,16.254886 105.33333,14 c -4.37794,-2.263923 -5.573722,-7.7774681 -1.98541,-9.1544314 4.7377,-1.8180285 10.77186,1.0087393 18.14212,8.4988794 7.65355,7.778032 19.46604,16.302237 24.84471,17.928603 3.96666,1.199414 5.93624,5.136964 4.85177,9.699591 -2.16127,9.092991 -9.48281,11.21925 -13.8678,4.027359 -1.45315,-2.383333 -2.64433,-5.290341 -2.64707,-6.460016 -0.006,-2.613303 -4.1558,-6.539984 -6.91138,-6.539984 -1.11637,0 -4.85088,1.5 -8.2989,3.333333 -3.44803,1.833333 -7.28739,3.393142 -8.53192,3.46624 -5.37584,0.315755 5.05978,2.278372 12.7658,2.400854 7.65987,0.121746 8.49502,0.425029 9.94724,3.612302 1.36088,2.986808 1.22638,3.741864 -0.95009,5.333334 -2.36279,1.72771 -16.74821,2.687012 -18.2202,1.215026 z M 120,25.475986 c 0,-0.654875 -0.9,-1.536044 -2,-1.958153 -1.21828,-0.467499 -2,-0.0021 -2,1.190681 0,1.076984 0.9,1.958153 2,1.958153 1.1,0 2,-0.535806 2,-1.190681 z"
       id="path1278" />
  </g>
</svg>
