<?xml version="1.0" encoding="UTF-8" standalone="no"?>
<!-- Created with Inkscape (http://www.inkscape.org/) -->

<svg
   version="1.1"
   id="svg52"
   width="160"
   height="162.66667"
   viewBox="0 0 160 162.66667"
   xmlns="http://www.w3.org/2000/svg"
   xmlns:svg="http://www.w3.org/2000/svg">
  <defs
     id="defs56" />
  <g
     id="g58">
    <path
       style="fill:#000000;stroke-width:1.33333"
       d="m 134.96477,155.37442 c -15.74366,-4.91631 -27.52887,-19.38772 -29.23264,-35.89566 -0.81289,-7.87622 0.97506,-12.49189 8.38296,-21.640975 5.26799,-6.506202 11.84787,-8.608357 23.59187,-7.537178 6.93169,0.632246 8.15599,1.227564 12.17096,5.918152 5.16095,6.029401 6.8468,13.471561 4.78564,21.126121 -4.19545,15.5807 -28.16231,15.92109 -30.24017,0.42949 -0.66669,-4.9705 -0.35222,-5.69295 3.88479,-8.92467 5.47993,-4.17974 7.8229,-4.38815 10.91543,-0.97093 2.13275,2.35665 2.14554,2.85107 0.17242,6.66666 -2.00612,3.8794 -1.98834,4.12124 0.30306,4.12124 3.64567,0 5.63424,-2.68238 5.63424,-7.6 0,-6.1478 -3.95374,-9.73333 -10.73288,-9.73333 -9.38131,0 -17.31152,6.56003 -17.24704,14.26712 0.0328,3.91895 3.10332,11.43039 6.56181,16.05214 3.34455,4.4695 14.25731,11.00846 18.39357,11.02151 6.24861,0.0197 12.35505,2.8504 13.17218,6.10609 1.92843,7.68347 -7.41304,10.68595 -20.5162,6.59422 z M 21.333333,153.79724 c -5.813686,-1.9153 -8.447221,-4.25124 -10.978963,-9.73826 -3.173036,-6.87691 -3.8954968,-21.26213 -1.2291852,-24.47484 0.8938512,-1.07703 4.8961112,-3.37406 8.8939112,-5.10452 5.645187,-2.44353 7.273809,-3.80541 7.291483,-6.09726 0.02129,-2.76185 -0.535362,-2.94146 -8.685894,-2.80257 -9.1175719,0.15537 -12.4806791,-1.76132 -12.5822805,-7.170849 -0.099319,-5.288003 4.7411374,-6.408939 27.6752595,-6.408939 23.013244,0 26.962295,0.837891 26.928585,5.713579 -0.03649,5.277419 -2.176388,6.880039 -10.146406,7.598869 -8.449588,0.76208 -10.186902,2.67465 -5.713959,6.29036 14.564428,11.77318 17.087759,16.29654 14.484352,25.96485 -3.362967,12.4891 -10.184211,17.16228 -24.805075,16.99374 -5.022505,-0.0579 -10.031828,-0.40176 -11.131828,-0.76416 z M 12.634348,51.472077 C 8.5889611,49.709505 5.3333333,44.646146 5.3333333,40.117075 c 0,-1.333265 1.2435482,-4.005033 2.7634402,-5.937262 2.4535775,-3.119219 3.6869995,-3.512587 10.9999995,-3.508162 5.981406,0.0036 9.478694,0.76224 12.773234,2.770727 4.394534,2.679089 6.139474,2.761203 55.693649,2.620804 59.215374,-0.167772 62.397054,-0.719869 55.220814,-9.582136 l -2.54887,-3.147712 -45.117799,-0.08459 c -47.774302,-0.08957 -57.401654,0.5124 -64.86936,4.056058 C 25.921417,29.358114 20.771268,29.485079 16,27.656071 14.9,27.234399 12.460053,26.555471 10.577895,26.147342 5.5940307,25.066638 3.1671461,19.896306 5.2656819,14.829992 6.1702403,12.646195 8.1193677,9.766075 9.5970763,8.4297258 13.503237,4.8972325 23.428211,5.3601688 30.797372,9.4185835 L 36.666667,12.650977 90,12.739766 c 29.33333,0.04884 54.57496,0.508402 56.09251,1.02126 4.90933,1.659123 9.04849,8.816716 9.14922,15.821211 0.0812,5.645947 -0.47941,6.94045 -4.93421,11.393701 l -5.02581,5.024063 -23.64086,0.304501 C 108.63839,46.471977 88.7,46.721137 77.333333,46.858189 65.966667,46.995241 53.065303,46.666554 48.663637,46.127774 40.510169,45.12976 38.835045,45.523832 29.333333,50.675206 23.85132,53.647292 18.241255,53.915004 12.634348,51.472077 Z m 10.777479,-9.429672 c 2.479058,-1.875064 2.433589,-1.959383 -1.078494,-2 -2.389217,-0.02763 -3.666666,0.654387 -3.666666,1.957596 0,2.523848 1.447298,2.536781 4.74516,0.0424 z M 22.204833,18.487956 c -1.764348,-1.025536 -2.87874,-1.014049 -3.933333,0.04055 -1.073111,1.073111 -0.406601,1.460523 2.461833,1.430955 3.448151,-0.03555 3.629663,-0.217055 1.4715,-1.471499 z"
       id="path1139" />
  </g>
</svg>
