<?xml version="1.0" encoding="UTF-8" standalone="no"?>
<!-- Created with Inkscape (http://www.inkscape.org/) -->

<svg
   version="1.1"
   id="svg62"
   width="106.66667"
   height="164"
   viewBox="0 0 106.66667 164"
   xmlns="http://www.w3.org/2000/svg"
   xmlns:svg="http://www.w3.org/2000/svg">
  <defs
     id="defs66" />
  <g
     id="g68">
    <path
       style="fill:#000000;stroke-width:1.33333"
       d="M 84.588176,154.10959 C 82.322275,152.45456 81.894953,149.92271 81.156347,133.77625 80.22388,113.39191 80.683208,112 88.342497,112 c 8.679286,0 8.990839,0.76512 8.990839,22.07991 v 19.31942 l -3.420133,1.30034 c -4.597759,1.74806 -6.268619,1.64233 -9.325027,-0.59008 z m -48.909251,-5.43715 c -4.418327,-6.83652 -7.071476,-7.14012 -12.874836,-1.47329 -5.243558,5.1202 -11.579159,6.47376 -12.9977763,2.7769 -1.1750394,-3.0621 1.9583433,-9.39949 5.6149473,-11.35644 1.784974,-0.95529 3.245407,-2.19054 3.245407,-2.74502 0,-0.55447 -2.55,-2.41479 -5.666667,-4.13404 -4.6999707,-2.59265 -5.6666664,-3.80384 -5.6666664,-7.0999 0,-3.55053 0.407959,-3.94487 3.8285464,-3.7008 2.105701,0.15025 4.852946,1.20025 6.104989,2.33333 3.893293,3.52339 5.241657,2.37999 5.663452,-4.80252 0.425336,-7.24281 2.82612,-10.28357 6.888449,-8.7247 1.655647,0.63533 2.181231,2.61412 2.181231,8.21219 0,4.05635 0.359323,7.37518 0.798495,7.37518 0.439172,0 2.802641,-0.95103 5.252153,-2.1134 6.0094,-2.85164 9.183707,-2.05391 9.702676,2.43838 0.35041,3.03321 -0.367506,4.01105 -4.333333,5.90222 -2.614328,1.24669 -4.753324,2.71855 -4.753324,3.27079 0,0.55225 1.8,2.97484 4,5.38353 4.202312,4.60095 5.084344,8.83414 2.4,11.51848 -2.840392,2.84039 -6.303619,1.7112 -9.387743,-3.06089 z M 10.267402,46.287195 C 8.5665157,44.984631 8.0833021,41.340669 7.8046621,27.715443 7.6140004,18.392269 7.8629253,10.359297 8.3578287,9.8643939 9.5774592,8.6447633 13.809283,8.4145852 54.666668,7.3455556 83.302539,6.5963008 90.413521,6.7602576 92.181571,8.2105311 c 1.714237,1.4061321 2.369771,5.4142369 3.060121,18.7103809 0.828648,15.959745 0.729114,17.000891 -1.752273,18.328889 -4.03611,2.16006 -80.511237,3.113351 -83.222017,1.037394 z"
       id="path984" />
  </g>
</svg>
