<?xml version="1.0" encoding="UTF-8" standalone="no"?>
<!-- Created with Inkscape (http://www.inkscape.org/) -->

<svg
   version="1.1"
   id="svg72"
   width="104"
   height="156"
   viewBox="0 0 104 156"
   xmlns="http://www.w3.org/2000/svg"
   xmlns:svg="http://www.w3.org/2000/svg">
  <defs
     id="defs76" />
  <g
     id="g78">
    <path
       style="fill:#000000;stroke-width:1.33333"
       d="m 82.339347,147.4822 c -1.42476,-1.42476 -1.811091,-6.25577 -1.677296,-20.97436 l 0.173833,-19.12323 4.277197,-1.22669 c 2.784756,-0.79865 5.361438,-0.73267 7.384523,0.18911 2.884607,1.31432 3.159989,2.40384 3.842128,15.20105 0.404143,7.58189 1.389787,15.46577 2.190321,17.51975 1.268143,3.25373 1.035138,4.15486 -1.809996,7 -3.704716,3.7047 -11.339477,4.45561 -14.38071,1.41437 z M 8.2701472,146.32551 c -0.7856704,-0.94668 -1.2253492,-6.30735 -1.0115704,-12.33334 0.2079741,-5.86236 0.4598748,-14.34074 0.5597791,-18.84084 0.1812248,-8.16311 0.1916464,-8.18349 4.5149771,-8.8285 2.383334,-0.35557 5.626874,-0.15999 7.207867,0.43463 2.746812,1.0331 2.877849,1.89596 2.949133,19.41984 0.04608,11.32653 -0.478204,19.00481 -1.371126,20.08071 -1.844771,2.2228 -11.020305,2.27102 -12.8490598,0.0675 z m 37.6164568,0.15768 c -0.515592,-0.83424 -1.098552,-9.08424 -1.295465,-18.33334 -0.44002,-20.66789 0.707188,-23.53 8.986304,-22.41954 2.920201,0.39168 5.664786,1.06747 6.099077,1.50177 0.434292,0.43429 0.933813,8.8928 1.110049,18.7967 0.257479,14.46958 -0.06895,18.39646 -1.661642,19.98915 -2.327568,2.32756 -11.87987,2.66328 -13.238323,0.46526 z M 9.9215061,48.776251 C 7.6556059,47.121225 7.2282835,44.589372 6.4896767,28.442917 5.5572109,8.0585723 6.0165391,6.6666667 13.675828,6.6666667 c 8.679285,0 8.990839,0.7651197 8.990839,22.0799133 v 19.319423 l -3.420134,1.300332 C 14.648775,51.1144 12.977914,51.008668 9.9215061,48.776251 Z m 70.1752669,-1.62273 c -2.410577,-3.064552 -2.76344,-5.362966 -2.76344,-18 C 77.333333,16.444444 77.660577,14.339423 80,12 c 3.584376,-3.5843763 8.800233,-3.4281644 11.129876,0.333333 2.556543,4.127854 2.315037,32.985751 -0.302444,36.139623 -2.716336,3.272985 -7.589603,2.673772 -10.730659,-1.319435 z M 45.60348,47.658841 C 44.817811,46.712165 44.378132,41.351487 44.591911,35.325508 44.799884,29.463145 45.051785,20.984767 45.151689,16.484665 45.332915,8.3215508 45.343336,8.3011727 49.666667,7.6561656 52.05,7.3005909 55.29354,7.4961748 56.874533,8.0907965 c 2.746812,1.0330932 2.87785,1.8959587 2.949134,19.4198405 0.04608,11.32652 -0.478204,19.004798 -1.371127,20.080703 -1.844771,2.222813 -11.020305,2.271015 -12.84906,0.06751 z"
       id="path845" />
  </g>
</svg>
