<?xml version="1.0" encoding="UTF-8" standalone="no"?>
<!-- Created with Inkscape (http://www.inkscape.org/) -->

<svg
   version="1.1"
   id="svg82"
   width="86.666664"
   height="166.66667"
   viewBox="0 0 86.666664 166.66667"
   xmlns="http://www.w3.org/2000/svg"
   xmlns:svg="http://www.w3.org/2000/svg">
  <defs
     id="defs86" />
  <g
     id="g88">
    <path
       style="fill:#000000;stroke-width:1.33333"
       d="M 7.8703748,154.53704 C 3.8028033,150.46947 5.2395749,144.0664 12.65516,133.21331 c 5.138039,-7.51978 7.251617,-9.40567 13.870026,-12.37583 14.943635,-6.70631 36.507175,-3.31109 45.17931,7.11357 8.720996,10.48339 12.528473,25.06995 7.277467,27.88021 -1.293253,0.69213 -17.18404,1.32245 -35.312859,1.40072 -31.940678,0.1379 -33.049359,0.0544 -35.7987292,-2.69494 z M 16,52.36148 c -1.1,-0.418732 -2.395279,-1.368232 -2.878397,-2.110002 -1.649712,-2.532934 -0.352269,-35.298666 1.485422,-37.512947 2.42817,-2.9257667 10.156821,-2.667922 12.317369,0.410935 2.355337,3.356438 1.137333,34.896354 -1.468895,38.036667 C 23.679834,53.325678 19.799899,53.807966 16,52.36148 Z m 47.999998,0 c -1.1,-0.418732 -2.395279,-1.368232 -2.878397,-2.110002 -1.649711,-2.532934 -0.352268,-35.298666 1.485422,-37.512947 2.428171,-2.9257667 10.156821,-2.667922 12.317369,0.410935 2.355338,3.356438 1.137334,34.896354 -1.468894,38.036667 -1.775666,2.139545 -5.6556,2.621833 -9.4555,1.175347 z"
       id="path706" />
  </g>
</svg>
