<?xml version="1.0" encoding="UTF-8" standalone="no"?>
<!-- Created with Inkscape (http://www.inkscape.org/) -->

<svg
   version="1.1"
   id="svg92"
   width="164"
   height="169.33333"
   viewBox="0 0 164 169.33333"
   xmlns="http://www.w3.org/2000/svg"
   xmlns:svg="http://www.w3.org/2000/svg">
  <defs
     id="defs96" />
  <g
     id="g98">
    <path
       style="fill:#000000;stroke-width:1.33333"
       d="M 58,160.01908 C 50.666667,159.44096 41.666667,158.34104 38,157.57482 26.398651,155.15052 8.7254373,149.18589 7.1410312,147.16008 5.4410224,144.98644 6.130284,140.77168 8.5085387,138.7979 10.186352,137.40544 27.194684,132.61864 38,130.49787 c 24.436349,-4.79615 59.139416,-3.67345 88,2.84694 27.12953,6.12929 28.66667,6.72523 28.66667,11.11392 0,6.31273 -2.18614,7.19141 -35.33334,14.20156 -8.05416,1.70335 -46.233553,2.54917 -61.33333,1.35879 z m 58.58655,-13.74399 6.58654,-1.7418 -3.91988,-1.49412 c -7.66479,-2.92153 -44.271086,-4.93651 -59.08323,-3.25219 -7.479391,0.8505 -16.277387,1.54635 -19.551103,1.54635 -4.225426,0 -5.95221,0.54392 -5.95221,1.87488 0,5.11329 64.982044,7.54607 81.919883,3.06688 z M 38.744004,122.81117 c -0.775868,-1.44972 -1.410671,-3.48231 -1.410671,-4.51687 0,-2.92445 -4.50412,-6.2943 -8.412918,-6.2943 -2.631439,0 -3.744042,0.8278 -4.348262,3.2352 -1.187737,4.73233 -5.083562,7.69845 -9.454241,7.19807 -4.364615,-0.49968 -5.5989604,-4.42654 -3.214548,-10.22653 1.946469,-4.73472 -0.106288,-11.60044 -4.5022241,-15.058286 -4.243543,-3.337971 -4.2717898,-5.518233 -0.1416463,-10.93313 1.7927215,-2.350379 3.9123014,-7.186378 4.7101784,-10.746661 1.713691,-7.64683 3.102049,-10.449918 7.771465,-15.690542 10.066407,-11.297822 27.175279,-13.167069 46.31469,-5.060157 4.247992,1.79933 5.898446,3.51785 7.794261,8.115699 1.322805,3.208152 3.547683,8.399053 4.944173,11.535337 3.134683,7.03998 3.374095,21.001837 0.524662,30.59692 -1.669715,5.62254 -2.730456,7.03287 -6.198966,8.242 -2.301504,0.80231 -6.1588,1.45874 -8.571768,1.45874 -4.107214,0 -4.413626,0.31912 -4.801036,5 l -0.41382,5 -9.589329,0.39019 c -8.414145,0.34237 -9.762208,0.0672 -11,-2.24568 z m 67.589326,-5.09541 c -2.00496,-2.22758 -2.31998,-5.29841 -2.23846,-21.82075 0.12694,-25.731554 1.46352,-39.711786 3.94678,-41.282303 1.07709,-0.681197 11.36549,-1.247728 22.86311,-1.258957 17.35073,-0.01695 21.26525,0.340077 23.02519,2.100008 1.8336,1.833602 2.07193,6.117035 1.7619,31.666666 l -0.35852,29.546236 -14,0.83859 c -7.7,0.46123 -18.2,1.28056 -23.33333,1.82075 -8.28591,0.87194 -9.59519,0.69123 -11.66667,-1.61024 z M 128.90315,45.83365 C 128.47197,45.530347 63.384129,43.65867 60.666667,43.87143 59.2,43.98626 50.35,44.411099 41,44.815515 26.343963,45.449432 24,45.270912 24,43.520764 24,39.972686 21.55334,39.794118 16.062381,42.94144 9.9138444,46.465676 6.2773155,45.356954 5.5992559,39.751389 5.0883883,35.528011 7.4622481,33.672997 25.251948,24.394106 c 7.203133,-3.757065 12.07454,-3.22918 23.169187,2.510708 8.847092,4.5771 7.524524,4.470876 50.578865,4.062336 18.89713,-0.179315 31.66667,-0.811195 31.66667,-1.566975 0,-0.696569 -1.71587,-3.846569 -3.81304,-6.999999 -4.67046,-7.0228 -6.18455,-12.6598934 -4.08112,-15.1943805 2.9276,-3.5275338 14.56082,-1.4996732 14.56082,2.5381876 0,0.9075879 2.16439,4.9364779 4.80975,8.9530889 6.92648,10.516913 11.19025,18.426439 11.19025,20.758545 0,3.151185 -10.84117,7.305329 -18.00017,6.897345 -3.40644,-0.19413 -6.29995,-0.42782 -6.43001,-0.519312 z"
       id="path567" />
  </g>
</svg>
