<?xml version="1.0" encoding="UTF-8" standalone="no"?>
<!-- Created with Inkscape (http://www.inkscape.org/) -->

<svg
   version="1.1"
   id="svg102"
   width="101.33333"
   height="158.66667"
   viewBox="0 0 101.33333 158.66667"
   xmlns="http://www.w3.org/2000/svg"
   xmlns:svg="http://www.w3.org/2000/svg">
  <defs
     id="defs106" />
  <g
     id="g108">
    <path
       style="fill:#000000;stroke-width:1.33333"
       d="m 37.630007,148.59107 c -2.779144,-1.9466 -2.963341,-3.05909 -2.963341,-17.89771 0,-15.12351 0.154186,-16.00533 3.492154,-19.97228 1.920685,-2.2826 5.190889,-5.02864 7.26712,-6.1023 4.887917,-2.52764 13.657714,-2.49445 18.617702,0.0704 6.272434,3.2436 7.904026,8.0794 8.329585,24.68762 0.443505,17.30861 -0.717247,20.35669 -7.501314,19.69807 l -4.205248,-0.40825 -0.01665,-13.33333 c -0.01783,-14.26849 -1.762002,-20.67951 -5.617011,-20.64625 -6.404462,0.0553 -8.804295,6.92174 -7.56196,21.63654 1.155112,13.68168 -2.074364,17.70743 -9.841033,12.26744 z M 8.9340676,48.953862 C 7.2331819,47.651298 6.7499683,44.007337 6.4713283,30.38211 6.2806666,21.058936 6.5295915,13.025964 7.0244948,12.531061 8.2441253,11.31143 12.475949,11.081252 53.333332,10.012222 c 28.635868,-0.7492543 35.74685,-0.5852975 37.5149,0.864976 1.714237,1.406132 2.36977,5.414237 3.060121,18.710381 0.828648,15.959746 0.729113,17.000891 -1.752273,18.32889 -4.03611,2.16006 -80.511233,3.113351 -83.2220124,1.037393 z"
       id="path428" />
  </g>
</svg>
