<?xml version="1.0" encoding="UTF-8" standalone="no"?>
<!-- Created with Inkscape (http://www.inkscape.org/) -->

<svg
   version="1.1"
   id="svg112"
   width="157.33333"
   height="157.33333"
   viewBox="0 0 157.33333 157.33333"
   xmlns="http://www.w3.org/2000/svg"
   xmlns:svg="http://www.w3.org/2000/svg">
  <defs
     id="defs116" />
  <g
     id="g118">
    <path
       style="fill:#000000;stroke-width:1.33333"
       d="m 5.4842684,146.94869 c -1.6552811,-3.09292 -0.8357176,-5.87255 5.7835396,-19.61536 6.959412,-14.44904 8.926061,-15.53862 15.350617,-8.50463 3.642889,3.98846 3.930174,4.07187 6.88818,2 4.055836,-2.84081 6.035475,-2.72733 8.802765,0.50463 C 43.56517,122.8 45.514968,124 46.642258,124 c 1.127289,0 2.799029,-1.2 3.714977,-2.66667 1.962199,-3.14198 7.283132,-3.50985 9.642764,-0.66667 0.912918,1.1 2.412918,2 3.333333,2 0.920415,0 2.420415,-0.9 3.333333,-2 2.354986,-2.83758 6.653685,-2.47703 10.201125,0.85562 2.862522,2.6892 3.286656,2.73599 7.277936,0.80296 3.203316,-1.55142 5.173735,-1.72656 8.069099,-0.71723 2.964998,1.03361 4.568448,0.85213 7.094421,-0.80296 4.133584,-2.70842 5.871204,-2.69004 8.948264,0.0947 2.30808,2.08878 2.77294,2.08738 7.1958,-0.0217 4.4539,-2.12391 4.95553,-2.12055 8.64324,0.0578 3.89899,2.30319 3.93083,2.29519 7.82367,-1.96693 6.06962,-6.64538 8.8614,-4.74049 15.84411,10.81074 6.65937,14.8311 6.61467,18.62525 -0.21163,17.96303 -4.02413,-0.39037 -6.53621,-3.63345 -10.64498,-13.74264 -0.29806,-0.73333 -2.13648,0.1328 -4.08539,1.92467 -3.26641,3.00328 -3.90692,3.12657 -8.19202,1.57707 -4.15932,-1.50403 -5.01733,-1.39086 -8.15258,1.07533 -4.34728,3.41957 -5.2606,3.42965 -8.12044,0.0896 C 107.10149,137.2 105.1517,136 104.02441,136 c -1.12729,0 -2.79903,1.2 -3.71498,2.66667 -2.175909,3.48419 -6.198269,3.39007 -9.565108,-0.22381 -2.673117,-2.86926 -2.726988,-2.87211 -7.337378,-0.38926 -4.633915,2.49554 -4.651974,2.4942 -7.930094,-0.58544 -3.089262,-2.90221 -3.468398,-2.95862 -6.344567,-0.94408 -4.12597,2.88994 -8.21693,2.69734 -11.132284,-0.52408 -3.165187,-3.49749 -3.661495,-3.39497 -6.454572,1.33333 -2.752923,4.66033 -5.327839,5.06321 -8.521465,1.33333 -2.682378,-3.13278 -4.773476,-3.37833 -6.904381,-0.81074 -3.125776,3.76632 -6.920752,3.49473 -10.819951,-0.77435 l -3.728301,-4.08196 -3.785665,7.83352 c -3.062136,6.33636 -4.46931,7.91252 -7.362653,8.24677 -2.443294,0.28227 -4.0085842,-0.3932 -4.9387426,-2.13121 z M 18.684129,47.017628 C 9.4442918,45.292147 3.572909,36.707711 3.5624394,24.908497 3.5559562,17.601882 3.8731931,16.832689 9.0128754,11.693006 13.804209,6.9016724 15.369594,6.1611013 21.840182,5.6245099 31.340397,4.8366782 34.929993,5.8086593 40.463727,10.667342 46.451604,15.924768 48.947475,24.388003 46.6228,31.552113 42.300238,44.873248 33.446293,49.77437 18.684129,47.017628 Z M 84.037005,46.04459 C 82.523856,44.221355 82.375316,38.965174 83.131422,14 l 0.20191,-6.6666668 4.977014,-0.41245 c 9.311523,-0.7716549 9.747532,0.1084471 9.240883,18.6530598 -0.50806,18.596205 -1.888855,22.426056 -8.085375,22.426056 -2.093303,0 -4.536284,-0.879935 -5.428849,-1.955409 z m 25.584045,0.82811 c -2.53797,-1.61037 -2.10033,-33.124927 0.51668,-37.2060335 2.18222,-3.4030796 8.61336,-4.1114113 11.01835,-1.2135713 0.94666,1.1406501 1.4117,8.1531808 1.28644,19.3988908 -0.17138,15.387929 -0.49536,17.772588 -2.56502,18.880237 -2.88611,1.544603 -7.93456,1.613748 -10.25645,0.140477 z m 23.98243,-0.547193 c -0.78567,-0.946676 -1.22535,-6.307355 -1.01157,-12.333333 0.20797,-5.862363 0.45987,-14.340741 0.55978,-18.840842 0.18122,-8.1631147 0.19164,-8.1834928 4.51497,-8.8284999 2.38334,-0.3555746 5.62688,-0.1599908 7.20787,0.434631 2.74681,1.0330931 2.87785,1.8959586 2.94913,19.4198399 0.0461,11.32652 -0.4782,19.004797 -1.37113,20.080703 -1.84476,2.222813 -11.02029,2.271014 -12.84905,0.06751 z"
       id="path289" />
  </g>
</svg>
