<?xml version="1.0" encoding="UTF-8" standalone="no"?>
<!-- Created with Inkscape (http://www.inkscape.org/) -->

<svg
   version="1.1"
   id="svg122"
   width="234.66667"
   height="136"
   viewBox="0 0 234.66667 136"
   xmlns="http://www.w3.org/2000/svg"
   xmlns:svg="http://www.w3.org/2000/svg">
  <defs
     id="defs126" />
  <g
     id="g128">
    <path
       style="fill:#000000;stroke-width:1.33333"
       d="m 83.666668,126.70632 c -6.421798,-5.07883 -3.819356,-16.03965 3.808312,-16.03965 3.731069,0 8.525021,-3.72928 8.525021,-6.63174 0,-1.36428 1.244644,-5.380259 2.765876,-8.92439 C 101.67863,88.324479 101.63062,86.822005 98.091353,74 95.385125,64.195916 92.734105,61.329852 86.142657,61.082055 c -4.089364,-0.153735 -5.809127,0.61646 -8.999931,4.030613 -2.986774,3.195843 -5.08682,4.220665 -8.648904,4.220665 -3.130085,0 -9.917057,2.67712 -20.281415,8 -8.567386,4.4 -16.341128,8 -17.274981,8 -2.473019,0 -8.174407,3.995276 -9.658426,6.76819 -0.82818,1.547468 -0.796592,3.660374 0.08956,5.991149 2.696947,7.093508 -4.969777,12.775778 -11.118592,8.240658 C 9.0071372,105.41667 7.4636641,102.8189 6.8200346,100.56053 4.3924473,92.042576 11.76894,82.699713 27.029638,74.9636 l 10.362971,-5.253305 -8.362971,-1.628576 c -12.09365,-2.355075 -14.362971,-3.499584 -14.362971,-7.243815 0,-3.466231 2.148708,-4.81432 7.775716,-4.878449 3.060268,-0.03488 3.231421,-0.230536 1.224284,-1.399587 -2.816351,-1.640373 -3.002544,-5.134989 -0.458932,-8.613585 1.795943,-2.456099 2.144759,-2.472064 8.333333,-0.381428 5.448127,1.840496 19.835043,2.425389 21.05565,0.856008 C 52.77675,46.189388 55.937737,39.7 59.621134,32 67.982193,14.521527 73.987744,7.2906209 80.951378,6.3176013 88.410413,5.2753599 115.37387,7.3955795 125.33334,9.8074909 130.1,10.961848 137.49127,11.9274 141.75838,11.953161 c 4.2671,0.02576 13.78808,1.575292 21.15773,3.443403 28.92741,7.33272 41.65548,17.301528 53.75165,42.099071 6.9125,14.170812 8.9472,20.894668 10.84548,35.839674 0.63098,4.967536 0.28758,6.431656 -1.99244,8.495041 -3.89362,3.52368 -6.85413,1.9213 -6.85413,-3.709814 0,-2.546404 -0.63992,-5.025317 -1.42204,-5.508697 -2.79812,-1.72933 -5.15936,3.962434 -5.20223,12.539951 C 211.96991,119.65827 205.19886,128 193.49632,128 c -4.04909,0 -5.9144,-0.77756 -7.88981,-3.28889 -3.87985,-4.93244 -2.44888,-9.30904 3.85308,-11.78452 4.51711,-1.77437 5.20708,-2.60126 5.20708,-6.24032 0,-5.84889 -2.20429,-9.352937 -5.88365,-9.352937 -4.7054,0 -5.77944,2.340131 -6.33862,13.810657 -0.46285,9.49442 -0.8586,10.77652 -4.2186,13.66666 -2.88665,2.483 -5.24978,3.18935 -10.67014,3.18935 -8.51495,0 -12.88899,-2.67043 -12.88899,-7.86895 0,-3.62715 3.47584,-8.13105 6.27507,-8.13105 0.76912,0 2.05962,-0.79671 2.86776,-1.77046 1.70878,-2.05896 -0.13214,-10.11416 -2.66987,-11.682589 -2.15519,-1.33198 -26.94323,0.212046 -27.9411,1.740429 -0.44082,0.67516 -0.24773,4.27421 0.42907,7.99789 1.4955,8.22809 0.60914,12.26588 -3.62122,16.49623 -2.61112,2.61113 -4.58302,3.2185 -10.44918,3.2185 -4.77701,0 -7.78982,-0.67372 -8.8784,-1.98538 -2.40262,-2.89498 -0.4948,-10.94592 3.39537,-14.32837 3.53525,-3.07387 4.31263,-6.35292 1.50611,-6.35292 -1.79933,0 -6.24695,7.99634 -6.24695,11.23135 0,0.99415 -1.95,3.98881 -4.33333,6.65481 -3.56913,3.99244 -5.509031,4.98302 -10.999999,5.61699 -5.555164,0.64138 -7.277993,0.28623 -10.333333,-2.13016 z"
       id="path150" />
  </g>
</svg>
