<?xml version="1.0" encoding="UTF-8" standalone="no"?>
<!-- Created with Inkscape (http://www.inkscape.org/) -->

<svg
   version="1.1"
   id="svg2"
   width="100"
   height="161.33333"
   viewBox="0 0 100 161.33333"
   xmlns="http://www.w3.org/2000/svg"
   xmlns:svg="http://www.w3.org/2000/svg">
  <defs
     id="defs6" />
  <g
     id="g8">
    <path
       style="fill:#000000;stroke-width:1.33333"
       d="M 52.533384,149.48829 C 36.417033,137.57149 29.536976,125.24916 31.267281,111.40026 32.938873,98.021298 41.868383,89.333331 53.947723,89.333331 c 5.775884,0 7.450918,0.59143 10.384664,3.666667 5.091761,5.337331 6.719877,10.458252 4.990772,15.697502 -2.237355,6.77924 -5.949947,9.31728 -13.465068,9.20511 l -6.524758,-0.0974 v 4.47355 c 0,6.94691 3.277996,13.19111 10.740952,20.46025 4.273788,4.1628 6.565395,7.40812 6.095582,8.63244 -1.229099,3.20298 -8.02768,2.26411 -13.636483,-1.88317 z M 8.9340679,46.287194 C 7.2331821,44.98463 6.7499685,41.340668 6.4713285,27.715442 6.2806668,18.392269 6.5295917,10.359297 7.0244951,9.8643937 8.2441256,8.6447632 12.47595,8.414585 53.333333,7.3455554 81.969203,6.5963007 89.080185,6.7602575 90.848235,8.2105309 c 1.714237,1.4061321 2.36977,5.4142371 3.060121,18.7103801 0.828648,15.959745 0.729113,17.000891 -1.752273,18.328889 -4.03611,2.16006 -80.511235,3.113351 -83.2220151,1.037394 z"
       id="path924" />
  </g>
</svg>
