<?xml version="1.0" encoding="UTF-8" standalone="no"?>
<!-- Created with Inkscape (http://www.inkscape.org/) -->

<svg
   version="1.1"
   id="svg12"
   width="120"
   height="165.33333"
   viewBox="0 0 120 165.33333"
   xmlns="http://www.w3.org/2000/svg"
   xmlns:svg="http://www.w3.org/2000/svg">
  <defs
     id="defs16" />
  <g
     id="g18">
    <path
       style="fill:#000000;stroke-width:1.33333"
       d="m 16.444397,154.05888 c -7.2099141,-3.13642 -9.7777303,-6.68698 -9.7777303,-13.51983 0,-8.22305 3.3336053,-13.56569 9.6442143,-15.45639 7.61217,-2.28066 14.541238,0.21259 17.430783,6.27203 2.753196,5.77351 2.765571,6.45325 0.270433,14.85529 -1.787094,6.0178 -2.509824,6.85038 -7.154692,8.242 -6.137556,1.83887 -5.200916,1.87423 -10.413008,-0.3931 z m 78.274032,-0.88336 c -8.568176,-1.63147 -12.252545,-5.84228 -12.510584,-14.29819 -0.177514,-5.81714 0.33214,-7.35101 3.492419,-10.51088 3.288109,-3.28768 4.659371,-3.69697 12.310979,-3.67452 10.043057,0.0295 11.796227,1.27449 14.118647,10.02645 3.88316,14.63355 -2.41712,21.3122 -17.411461,18.45714 z M 47.429832,111.55104 C 44.638383,108.75959 44,106.85 44,101.29137 c 0,-5.770985 0.604229,-7.434063 3.897436,-10.727269 9.414312,-9.414312 25.730015,-0.142863 23.454144,13.327889 -1.197928,7.09048 -4.588992,9.77009 -13.275745,10.49046 -6.396176,0.53042 -7.605914,0.20868 -10.646003,-2.83141 z M 46.666667,69.79724 C 40.85298,67.881927 38.219445,65.545997 35.687704,60.058969 32.514667,53.18207 31.792207,38.796845 34.458519,35.584137 c 0.89385,-1.077026 4.89611,-3.374058 8.89391,-5.104516 5.696959,-2.465944 7.273647,-3.794999 7.291483,-6.146288 0.02133,-2.81218 -0.531503,-3 -8.830255,-3 -9.220282,0 -12.340492,-1.737072 -12.43792,-6.924395 -0.09932,-5.2880025 4.741138,-6.4089382 27.67526,-6.4089382 23.013244,0 26.962295,0.8378908 26.928586,5.7135782 -0.03649,5.27742 -2.176388,6.88004 -10.146407,7.59887 -8.449588,0.762081 -10.186901,2.674648 -5.713959,6.290358 14.564428,11.773177 17.087759,16.296536 14.484352,25.96485 -3.362966,12.489105 -10.18421,17.162281 -24.805074,16.993747 -5.022506,-0.0579 -10.031828,-0.401768 -11.131828,-0.764163 z"
       id="path785" />
  </g>
</svg>
