<?xml version="1.0" encoding="UTF-8" standalone="no"?>
<!-- Created with Inkscape (http://www.inkscape.org/) -->

<svg
   version="1.1"
   id="svg22"
   width="172"
   height="121.33333"
   viewBox="0 0 172 121.33333"
   xmlns="http://www.w3.org/2000/svg"
   xmlns:svg="http://www.w3.org/2000/svg">
  <defs
     id="defs26" />
  <g
     id="g28">
    <path
       style="fill:#000000;stroke-width:1.33333"
       d="M 150.35887,111 C 145.66636,106.16137 136,87.474424 136,83.241538 c 0,-1.144288 -1.15029,-4.891752 -2.5562,-8.327699 -1.40591,-3.435945 -2.89068,-7.790946 -3.29949,-9.677779 -0.40881,-1.886832 -2.81774,-6.14744 -5.35319,-9.468018 -5.93386,-7.771338 -11.21405,-9.250686 -31.457787,-8.813509 -9.944089,0.21475 -17.746302,-0.32274 -22.19865,-1.529249 -9.963135,-2.699836 -14.266959,-0.625371 -18.911384,9.115387 -2.924454,6.133458 -4.222702,7.535701 -7.303928,7.889005 -2.061012,0.236321 -4.611012,-0.287146 -5.666667,-1.16326 -2.567275,-2.13065 -2.437188,-9.903284 0.233976,-13.979995 3.130115,-4.777158 -0.360551,-4.381082 -5.888791,0.668184 -3.666594,3.348918 -4.848578,3.757346 -7.717281,2.666667 -1.863147,-0.708367 -5.115023,-1.28794 -7.226389,-1.28794 -5.379169,0 -10.5776961,-4.953953 -11.5398611,-10.996948 C 6.1193033,32.086823 10.767734,24.485625 16.333333,23.261349 20.140128,22.423961 27.680729,23.559705 30,25.319783 c 1.681267,1.275902 10.003024,2.483028 9.991215,1.449292 -0.0048,-0.422992 -1.200879,-2.569076 -2.657882,-4.769076 -3.340232,-5.043581 -3.378882,-8.942152 -0.117912,-11.89329 4.53178,-4.101205 9.545918,-2.2815351 13.169234,4.779217 3.823314,7.450493 5.707098,8.064804 18.948678,6.179249 13.988722,-1.991944 32.657457,-1.703454 41.333337,0.638728 4.03333,1.08886 9.56044,2.373816 12.28246,2.85546 5.30164,0.938092 4.9057,1.203804 13.15591,-8.828909 4.69499,-5.709376 8.01912,-7.138071 11.8446,-5.090741 4.38975,2.34932 3.51611,8.468124 -2.09601,14.680069 -2.64718,2.930105 -4.45736,6.081834 -4.02264,7.003841 0.43472,0.922007 3.47101,5.276376 6.7473,9.676376 11.95548,16.055991 15.21092,24.344122 11.15504,28.399999 -2.60173,2.601729 -7.1561,1.868585 -8.69697,-1.4 -0.77784,-1.65 -2.36556,-5.1 -3.52828,-7.666666 l -2.11403,-4.666667 -0.0304,5.52622 c -0.0536,9.759356 7.63015,29.874846 16.69807,43.714245 1.86748,2.85013 2.02693,4.17098 0.82263,6.81415 -2.19795,4.82398 -6.78991,4.19294 -12.52552,-1.72128 z"
       id="path646" />
  </g>
</svg>
