<?xml version="1.0" encoding="UTF-8" standalone="no"?>
<!-- Created with Inkscape (http://www.inkscape.org/) -->

<svg
   version="1.1"
   id="svg32"
   width="164"
   height="164"
   viewBox="0 0 164 164"
   xmlns="http://www.w3.org/2000/svg"
   xmlns:svg="http://www.w3.org/2000/svg">
  <defs
     id="defs36" />
  <g
     id="g38">
    <path
       style="fill:#000000;stroke-width:1.33333"
       d="m 10.601935,152.73333 c -3.7704203,-3.76466 2.653261,-11.87756 20.064732,-25.34109 15.74234,-12.17286 17.380837,-12.45218 75.803383,-12.92227 46.42316,-0.37354 48.54874,-0.2824 50.33334,2.15818 2.46194,3.36691 2.35005,5.19583 -0.47006,7.68347 -3.02776,2.67083 -14.40292,5.08546 -16.0759,3.41248 -0.72494,-0.72494 -18.87797,-1.23653 -43.26243,-1.21923 l -42.013396,0.0298 -8.298711,4.01995 c -9.8399,4.76651 -12.016226,6.42039 -12.016226,9.13164 0,1.78475 3.975306,1.91111 33.333333,1.05955 19.676711,-0.57076 33.33333,-0.47327 33.33333,0.23796 0,1.38956 16.64151,0.90389 38.40598,-1.12086 16.81184,-1.56401 18.92736,-0.93736 18.92736,5.60656 0,5.36824 -7.27112,8.79264 -17.33334,8.1633 C 137.3,153.3805 129.8,153.25077 124.66667,153.34447 80.479257,154.15111 11.652563,153.78234 10.601935,152.73331 Z M 46.996368,55.058547 C 45.344369,54.740481 41.144369,51.180941 37.663035,47.14846 32.299044,40.935271 30.824773,39.941031 28,40.631764 16.163504,43.526105 12.93854,43.882536 10.482091,42.567885 4.6610575,39.452563 4.7338715,29.216329 10.590288,27.357575 14.487763,26.120564 13.987745,23.230327 9.2732523,19.744752 6.2965881,17.544009 5.3181524,15.843332 5.6065856,13.371503 6.1275031,8.9073177 10.664974,8.2907499 16.492401,11.892298 c 4.440906,2.74463 4.454375,2.744818 6.851943,0.09554 2.445249,-2.7019707 5.425241,-3.2987865 9.213273,-1.845182 3.212622,1.232798 2.534956,4.123959 -1.89095,8.06746 -3.873918,3.451676 -5.29606,7.123221 -2.75912,7.123221 2.341954,0 10.661694,6.00027 11.440814,8.251216 C 40.685779,37.448465 49.220904,44 52.917271,44 c 1.920132,0 7.250209,-1.776072 11.844618,-3.946825 7.342186,-3.469016 9.94047,-3.970702 21.462459,-4.144038 14.186752,-0.213424 19.858092,0.783696 38.791592,6.820231 7.43236,2.369645 15.24406,3.937299 19.61975,3.937299 5.8187,0 7.54556,0.513996 8.64808,2.574072 1.03988,1.943016 0.86459,3.08709 -0.71498,4.666666 -2.67468,2.674674 -25.22396,2.892194 -37.90262,0.365626 -10.20125,-2.032875 -34.390569,-1.905368 -41.999503,0.221389 -5.14855,1.43906 -19.489156,1.754207 -25.670299,0.564127 z"
       id="path507" />
  </g>
</svg>
