<?xml version="1.0" encoding="UTF-8" standalone="no"?>
<!-- Created with Inkscape (http://www.inkscape.org/) -->

<svg
   version="1.1"
   id="svg42"
   width="162.66667"
   height="154.66667"
   viewBox="0 0 162.66667 154.66667"
   xmlns="http://www.w3.org/2000/svg"
   xmlns:svg="http://www.w3.org/2000/svg">
  <defs
     id="defs46" />
  <g
     id="g48">
    <path
       style="fill:#000000;stroke-width:1.33333"
       d="M 12.037007,146.04459 C 10.523857,144.22136 10.375317,138.96518 11.131424,114 l 0.20191,-6.66666 4.977014,-0.41246 c 9.311523,-0.77165 9.747533,0.10846 9.240883,18.65307 C 25.043171,144.17015 23.662376,148 17.465856,148 c -2.093302,0 -4.536284,-0.87993 -5.428849,-1.95541 z m 38.666667,0 C 49.190525,144.22136 49.041985,138.96518 49.798092,114 l 0.201909,-6.66666 4.977015,-0.41246 c 9.311523,-0.77165 9.747532,0.10846 9.240883,18.65307 C 63.709839,144.17015 62.329044,148 56.132524,148 c -2.093303,0 -4.536284,-0.87993 -5.42885,-1.95541 z m 52.341966,0.24024 c -2.51368,-1.12164 -2.78855,-2.66279 -3.34471,-18.75344 -0.352272,-10.19187 -0.06906,-18.22914 0.67648,-19.19805 1.48843,-1.93437 9.43175,-2.22172 12.71025,-0.4598 1.93886,1.04197 2.24568,3.72535 2.24568,19.64052 v 18.43366 l -4.77447,0.77959 c -2.62596,0.42877 -6.00691,0.22967 -7.51323,-0.44248 z m 35.89118,0.0407 c -0.78567,-0.94668 -1.22535,-6.30735 -1.01158,-12.33334 0.20798,-5.86236 0.45988,-14.34074 0.55979,-18.84084 0.18123,-8.16311 0.19164,-8.18349 4.51497,-8.8285 2.38334,-0.35557 5.62688,-0.15999 7.20787,0.43463 2.74681,1.03309 2.87785,1.89596 2.94913,19.41984 0.0461,11.32653 -0.4782,19.00481 -1.37113,20.08071 -1.84476,2.2228 -11.02029,2.27102 -12.84905,0.0675 z M 64.000001,39.817109 C 59.966668,39.189029 52.466668,38.381805 47.333334,38.023278 42.200001,37.664753 34.708471,36.162845 30.68549,34.685706 26.662509,33.208569 21.993238,32.000001 20.309331,32.000001 c -4.788507,0 -11.9402668,-3.485708 -13.630105,-6.6432 C 4.7508558,21.753608 7.8617127,16.330662 12.3502,15.470975 23.421202,13.35053 32.326015,11.370265 38.666667,9.6186863 42.700001,8.5044944 49.125121,7.7143103 52.944712,7.8627215 56.764302,8.0111328 62.396515,7.4574703 65.460739,6.6323607 70.972675,5.1481501 73.622278,5.2922038 114,9.2713466 c 5.86667,0.5781481 13.96667,2.0640724 18,3.3020534 4.03334,1.23798 10.40831,2.862122 14.1666,3.609202 5.3214,1.057792 7.1743,2.10677 8.37456,4.741074 2.37996,5.223449 0.67603,8.173945 -5.62157,9.734166 -9.6994,2.403013 -16.20308,4.452092 -17.72582,5.584771 -0.81009,0.602584 -12.51009,1.694462 -26,2.426399 -13.489904,0.731934 -26.627102,1.546626 -29.193768,1.810426 -2.566667,0.263799 -7.966667,-0.03425 -12.000001,-0.662329 z M 119.03108,25.797921 131.33334,23.361162 124.66667,22.52745 C 121,22.06891 114.7,20.977816 110.66667,20.102799 99.324101,17.642068 57.540943,18.207231 45.587529,20.983064 l -9.745806,2.263181 7.079139,1.808933 c 17.569439,4.48952 55.333621,4.858052 76.110218,0.742743 z"
       id="path368" />
  </g>
</svg>
