<?xml version="1.0" encoding="UTF-8" standalone="no"?>
<!-- Created with Inkscape (http://www.inkscape.org/) -->

<svg
   version="1.1"
   id="svg52"
   width="158.66667"
   height="150.66667"
   viewBox="0 0 158.66667 150.66667"
   xmlns="http://www.w3.org/2000/svg"
   xmlns:svg="http://www.w3.org/2000/svg">
  <defs
     id="defs56" />
  <g
     id="g58">
    <path
       style="fill:#000000;stroke-width:1.33333"
       d="m 53.685786,139.37979 c -7.506152,-1.67224 -15.421765,-3.77533 -17.590251,-4.67355 -4.13559,-1.71302 -14.0907,-0.81686 -17.002484,1.53055 -0.865489,0.69773 -3.85456,1.07989 -6.64238,0.84925 -4.1636032,-0.34448 -5.2994496,-1.07929 -6.3605631,-4.11482 -1.679705,-4.80514 1.9270361,-8.65937 9.7476791,-10.41655 3.063412,-0.6883 9.003124,-3.56027 13.19936,-6.38214 4.196236,-2.82188 9.559048,-5.77675 11.917359,-6.56639 12.363812,-4.13979 37.863936,-2.98632 55.959405,2.53126 7.371509,2.24768 30.336339,10.73989 46.843799,17.32247 2.18205,0.87012 2.96625,2.11103 2.66667,4.21969 -0.58478,4.11615 -6.54998,4.62976 -12.56343,1.08174 -5.83991,-3.44564 -9.05673,-3.47583 -14.46115,-0.13571 -11.98868,7.40941 -43.547184,9.69257 -65.714014,4.7542 z m 47.331094,-7.48994 c 12.86889,-2.20245 14.255,-4.06086 5.75584,-7.7171 -3.63022,-1.56168 -7.581529,-2.83941 -8.780685,-2.83941 -1.199156,0 -5.178318,2.52798 -8.842582,5.61773 -5.560043,4.6883 -6.26493,5.75712 -4.260499,6.46024 1.320989,0.46337 3.31138,0.68351 4.423091,0.48917 1.111709,-0.19434 6.378886,-1.09912 11.704835,-2.01063 z m -48.414452,-2.2436 C 51.833764,129.10748 49.76267,126.56667 48.000001,124 c -1.762669,-2.56666 -3.801433,-5.0748 -4.530584,-5.57363 -1.454255,-0.99489 -5.469264,0.7522 -9.186858,3.99756 -2.227993,1.94499 -1.878758,2.27685 5.333334,5.06804 7.299619,2.82506 16.00348,4.26891 12.986535,2.15428 z m 0.730906,-32.967535 c -1.1,-0.275626 -4.323034,-0.881982 -7.1623,-1.347458 -3.882517,-0.636508 -6.773861,-2.527144 -11.662901,-7.626318 L 28.007531,80.92494 22.755175,83.293423 C 13.013752,87.686194 3.8868798,83.277981 5.9234087,75.163803 6.3726625,73.373832 8.2236812,71.233408 10.036784,70.407303 14.146848,68.534634 14.14316,67.892298 10,64.000001 6.2978108,60.521975 5.7308633,57.103168 8.4781766,54.823101 c 1.3841705,-1.14876 2.6310004,-0.858808 5.2853674,1.229118 3.239836,2.548454 3.742096,2.593826 7.455611,0.673493 8.103463,-4.190464 13.369714,-0.690443 6.114179,4.063565 -4.28889,2.810188 -4.474955,8.005502 -0.333333,9.307373 1.65,0.518657 6.783094,4.755965 11.406876,9.416238 4.623783,4.660274 9.788297,8.819939 11.476701,9.243702 1.823343,0.457629 6.259955,-0.567987 10.926457,-2.525881 12.634985,-5.301183 26.500008,-7.090685 38.854407,-5.014779 5.682108,0.954762 13.332108,2.851923 16.999998,4.215911 9.66952,3.595828 24.4469,6.789178 29.21412,6.31309 3.36975,-0.336526 4.12144,0.07476 4.12144,2.255071 0,2.571536 -0.6897,2.645349 -19.33333,2.069104 -27.15543,-0.839332 -57.894646,-0.714515 -67.333335,0.273409 -4.4,0.460538 -8.900001,0.611827 -10.000001,0.3362 z M 94.464562,51.376761 C 93.986735,50.886114 74.397384,50.298517 50.932669,50.070989 27.467953,49.843462 7.6089008,49.249001 6.8014415,48.749962 5.993982,48.250925 5.3333334,46.143077 5.3333334,44.065856 c 0,-4.873788 3.4159129,-5.793416 17.0884016,-4.600519 5.634714,0.491617 9.803355,0.421456 9.26365,-0.155915 C 31.145681,38.732053 25.779603,36.642107 19.760771,34.665101 7.4198067,30.611462 3.6711466,27.185997 7.4455194,23.411625 8.7770855,22.080058 10.548927,21.551847 11.838585,22.10199 c 5.964569,2.544369 26.503749,7.231344 31.689068,7.231344 6.872255,0 9.647379,-1.577301 22.931938,-13.033867 C 75.138178,8.8150794 76.807096,7.900312 81.126258,8.2603734 L 86.000002,8.6666669 86.666668,20 l 0.666667,11.333334 8.114079,0.391265 c 9.728426,0.469111 13.226826,-1.82214 14.324076,-9.381448 0.69219,-4.768683 -1.37464,-9.009817 -4.39074,-9.009817 -1.90932,0 -2.8194,-4.2665358 -1.30047,-6.0967293 1.05542,-1.2716994 2.37972,-1.408912 4.7822,-0.4954902 1.82742,0.6947841 4.67547,0.9236917 6.32899,0.5086837 3.17072,-0.7958001 6.98985,2.2994432 5.604,4.5418018 -1.62398,2.627656 22.56845,20.208401 27.80829,20.208401 2.90818,0 5.27954,6.39744 3.26923,8.819712 -2.73,3.289452 -11.94652,0.929808 -16.68096,-4.270712 -2.27771,-2.501951 -5.19449,-4.549 -6.48172,-4.549 -1.96208,0 -2.19583,0.770721 -1.44598,4.767737 1.15599,6.161972 -0.87783,8.565596 -7.24778,8.565596 -3.00602,0 -6.36695,1.08291 -8.45259,2.723468 -3.43542,2.702306 -15.432475,5.031611 -17.099398,3.319959 z M 121.09381,27.62195 c 1.653,-1.991744 0.55284,-4.121559 -2.76047,-5.344026 C 116.44178,21.580023 116,22.166438 116,25.375181 c 0,4.192681 2.54662,5.31594 5.09381,2.246769 z"
       id="path229" />
  </g>
</svg>
