<?xml version="1.0" encoding="UTF-8" standalone="no"?>
<!-- Created with Inkscape (http://www.inkscape.org/) -->

<svg
   version="1.1"
   id="svg62"
   width="110.66667"
   height="156"
   viewBox="0 0 110.66667 156"
   xmlns="http://www.w3.org/2000/svg"
   xmlns:svg="http://www.w3.org/2000/svg">
  <defs
     id="defs66" />
  <g
     id="g68">
    <path
       style="fill:#000000;stroke-width:1.33333"
       d="m 61.705845,146.92511 c -1.184123,-0.75236 -1.523818,-6.06016 -1.246934,-19.48358 0.339311,-16.44987 0.66022,-18.65423 2.960824,-20.33831 2.630444,-1.92553 8.074914,-1.39498 10.550587,1.02812 1.652187,1.6171 2.05271,34.40753 0.45848,37.53533 -1.250509,2.45344 -9.550125,3.27436 -12.722957,1.25844 z M 8.2701474,144.99217 C 7.484477,144.04549 7.0447982,138.68483 7.258577,132.65884 7.4665512,126.79648 7.7184518,118.3181 7.8183561,113.818 c 0.1812248,-8.16312 0.1916464,-8.18349 4.5149779,-8.8285 2.383333,-0.35558 5.626873,-0.15999 7.207867,0.43463 2.746812,1.03309 2.877849,1.89596 2.949133,19.41984 0.04608,11.32652 -0.478204,19.0048 -1.371127,20.08071 -1.84477,2.2228 -11.020305,2.27101 -12.8490596,0.0675 z m 29.6479186,-0.65884 c -1.520546,-3.4316 -1.797348,-33.9294 -0.333448,-36.73914 0.964928,-1.85204 2.538087,-2.3124 6.834417,-2 L 50.000002,106 49.57794,116.66667 c -0.232133,5.86666 0.298118,14.10849 1.178336,18.31517 1.958247,9.35871 0.60916,11.68483 -6.776883,11.68483 -3.505262,0 -5.340459,-0.70647 -6.061327,-2.33334 z m 49.003973,0.64104 c -0.868015,-1.04589 -1.277359,-8.47084 -1.07167,-19.43858 0.368716,-19.66052 0.734907,-20.4864 8.816301,-19.88378 L 99.333336,106 l 0.683994,17.33333 c 0.92752,23.50472 0.97166,23.33334 -6.009503,23.33334 -3.124718,0 -6.313323,-0.76154 -7.085788,-1.6923 z M 12.922781,48.333333 c -1.142466,-2.011625 -0.622164,-34.403622 0.588963,-36.666666 1.607956,-3.0045335 9.514019,-3.117095 12.453805,-0.17731 1.752189,1.75219 2.122027,4.936376 1.974517,17 -0.21977,17.973211 -1.490357,20.843976 -9.225447,20.843976 -2.873148,0 -5.479476,-0.45 -5.791838,-1 z m 28.743887,0.03547 c -2.383333,-0.295768 -4.333334,-1.2726 -4.333334,-2.170737 0,-0.898137 -0.176958,-8.973797 -0.39324,-17.945912 -0.216282,-8.972116 -0.0028,-16.944703 0.474434,-17.716863 0.477221,-0.7721593 3.804179,-1.5084837 7.39324,-1.6362762 l 6.525567,-0.2323501 0.351943,6.6666663 C 51.878846,19 52.628406,26.012097 53.350967,30.915771 55.019588,42.239907 52.501955,49.847559 47.333335,49.099533 46.600001,48.9934 44.050001,48.664575 41.666668,48.368805 Z m 21.077719,-0.941826 c -1.956204,-2.357082 -1.148914,-33.555783 0.921863,-35.62656 0.756531,-0.756532 3.3573,-1.471116 5.779485,-1.587965 6.685207,-0.3225037 7.833234,3.152331 6.938383,21.001035 -0.407729,8.132582 -1.33442,15.536511 -2.059313,16.453178 -1.796039,2.271186 -9.631164,2.109017 -11.580418,-0.239688 z m 26.666668,0 c -1.956204,-2.357082 -1.148915,-33.555783 0.921862,-35.62656 0.756531,-0.756532 3.3573,-1.471116 5.779486,-1.587965 6.685207,-0.3225037 7.833237,3.152331 6.938387,21.001035 -0.40773,8.132582 -1.33442,15.536511 -2.05932,16.453178 -1.796036,2.271186 -9.631162,2.109017 -11.580415,-0.239688 z"
       id="path90" />
  </g>
</svg>
