<?xml version="1.0" encoding="UTF-8" standalone="no"?>
<!-- Created with Inkscape (http://www.inkscape.org/) -->

<svg
   version="1.1"
   id="svg2"
   width="161.33333"
   height="149.33333"
   viewBox="0 0 161.33333 149.33333"
   xmlns="http://www.w3.org/2000/svg"
   xmlns:svg="http://www.w3.org/2000/svg">
  <defs
     id="defs6" />
  <g
     id="g8">
    <path
       style="fill:#000000;stroke-width:1.33333"
       d="m 72.539983,139.84244 c -2.211871,-2.45939 -2.512407,-4.76702 -2.326504,-17.86371 0.257856,-18.16574 1.273144,-20.6454 8.453186,-20.6454 7.152567,0 8,2.14849 8,20.28234 0,11.53073 -0.493171,15.82841 -2.075605,18.08765 -2.680983,3.82764 -8.671588,3.8968 -12.051077,0.13912 z M 48.348675,42.138834 C 47.171491,41.481859 37.756342,41.286788 27.426121,41.705342 0.51787894,42.795596 -1.8304306,40.471506 12.855256,27.284753 24.379573,16.936697 36.551689,8.8765091 43.770038,6.81346 51.967818,4.4704836 149.89208,4.3639694 152.70077,6.6949733 c 2.43848,2.0237624 2.55917,7.1527977 0.21409,9.0990347 -1.66226,1.379558 -11.56356,1.479328 -83.581528,0.842197 -17.803988,-0.157509 -19.966166,0.09223 -27.333333,3.157155 -9.090149,3.781721 -14.972116,8.767471 -12.32125,10.443902 0.910021,0.575505 18.154583,0.808032 38.32125,0.516725 C 88.166665,30.462682 115.16666,30.173865 128,30.11217 l 23.33333,-0.112171 0.43045,4.502878 c 0.56399,5.899614 -0.61853,6.856971 -9.22709,7.470198 -3.96185,0.28222 -12.48171,0.903667 -18.93304,1.380992 -8.15426,0.603325 -12.3023,0.392628 -13.60825,-0.691221 -1.09178,-0.90609 -2.60111,-1.092176 -3.60366,-0.4443 -2.32528,1.502653 -55.338194,1.429849 -58.043065,-0.07971 z"
       id="path1073" />
  </g>
</svg>
