<?xml version="1.0" encoding="UTF-8" standalone="no"?>
<!-- Created with Inkscape (http://www.inkscape.org/) -->

<svg
   version="1.1"
   id="svg12"
   width="157.33333"
   height="162.66667"
   viewBox="0 0 157.33333 162.66667"
   xmlns="http://www.w3.org/2000/svg"
   xmlns:svg="http://www.w3.org/2000/svg">
  <defs
     id="defs16" />
  <g
     id="g18">
    <path
       style="fill:#000000;stroke-width:1.33333"
       d="m 8.2666665,153.06667 c -1.8570022,-1.857 -2.1598905,-11.93499 -0.4147516,-13.8 0.6518865,-0.69667 2.5522891,-5.37419 4.2231171,-10.39449 3.950368,-11.8696 6.369804,-14.88492 11.009092,-13.72053 2.027911,0.50897 4.411322,2.58346 5.592531,4.86767 2.340319,4.52568 3.11772,4.75919 6.735171,2.02309 3.738391,-2.82758 5.860513,-2.49761 9.551625,1.48516 l 3.26924,3.52757 3.270945,-3.52757 c 3.907983,-4.21458 5.722581,-4.37774 10.130023,-0.91085 2.937416,2.31057 3.621429,2.39353 5.846477,0.70907 3.553158,-2.6899 7.70312,-2.43825 10.485089,0.63579 2.366935,2.61543 2.394809,2.61543 5.719795,0 4.237805,-3.33346 6.743137,-3.31715 10.345779,0.0674 l 2.869338,2.6956 3.426903,-2.6956 c 4.31392,-3.39337 6.62197,-3.40028 9.67296,-0.029 3.01046,3.32652 4.0027,3.33063 7.30309,0.0302 2.75832,-2.75832 5.5813,-2.48415 9.56824,0.9293 1.95475,1.67358 2.47866,1.4237 4.62182,-2.20438 4.92267,-8.33341 10.42035,-6.16272 15.94505,6.29571 4.51568,10.18304 5.25854,15.39524 2.57646,18.07732 -4.35829,4.35829 -9.33814,1.63784 -10.51893,-5.74642 -1.00089,-6.25925 -1.93583,-6.61616 -5.36603,-2.04844 -3.01265,4.01168 -5.97992,4.21707 -10.4238,0.72152 l -3.32039,-2.61182 -2.8506,3.27849 c -3.69829,4.2534 -7.31771,4.15936 -10.21697,-0.26547 -2.30236,-3.51385 -2.34046,-3.52116 -4.48668,-0.85997 -3.633369,4.50517 -6.393211,4.62855 -10.326117,0.46163 -3.751422,-3.97464 -5.570636,-3.58634 -7.537903,1.60896 -1.315574,3.47425 -4.661128,2.83306 -8.786859,-1.68403 l -3.669295,-4.01736 -2.913391,3.35069 c -3.740459,4.30191 -7.363263,4.25787 -10.23463,-0.1244 l -2.276958,-3.47508 -4.48404,4.34611 -4.48404,4.34611 -3.68926,-4.20436 c -4.451296,-5.07279 -6.528956,-5.30958 -7.64296,-0.87103 -1.19718,4.76995 -6.095089,4.36205 -10.781722,-0.89789 l -3.770043,-4.23123 -1.763448,5.89789 c -0.969894,3.24384 -1.772554,6.93249 -1.783686,8.19699 -0.0112,1.26451 -1.790446,3.21451 -3.954028,4.33334 -4.721947,2.44182 -4.47521,2.42525 -6.4662135,0.43425 z M 98.954382,98.872703 c -2.537965,-1.61037 -2.100324,-33.124928 0.516679,-37.206035 2.182219,-3.40308 8.613359,-4.111412 11.018359,-1.213572 0.94665,1.140651 1.41169,8.153181 1.28644,19.398892 -0.17139,15.38793 -0.49536,17.772589 -2.56502,18.880238 -2.88612,1.544604 -7.93456,1.613744 -10.256458,0.140477 z m 38.712278,0.162771 c -2.38333,-0.295768 -4.33333,-1.2726 -4.33333,-2.170737 0,-0.898138 -0.17696,-8.973798 -0.39324,-17.945913 -0.21628,-8.972116 -0.003,-16.944704 0.47443,-17.716863 0.47722,-0.77216 3.80418,-1.508484 7.39325,-1.636276 l 6.52556,-0.23235 0.35195,6.666666 c 0.19356,3.666667 0.94312,10.678765 1.66568,15.582438 1.66862,11.324136 -0.849,18.931791 -6.01763,18.183763 C 142.6,99.660069 140.05,99.331243 137.66666,99.035474 Z M 10.76344,95.153523 c -2.4105774,-3.064552 -2.7634402,-5.362966 -2.7634402,-18 0,-12.709078 0.3272443,-14.814099 2.6666662,-17.153522 3.584376,-3.584376 8.800234,-3.428164 11.129876,0.333334 2.556543,4.127853 2.315037,32.985751 -0.302444,36.139623 -2.716336,3.272985 -7.589602,2.673772 -10.730658,-1.319435 z m 37.314278,1.606791 c -1.956204,-2.357081 -1.148915,-33.555783 0.921862,-35.626561 0.756531,-0.75653 3.3573,-1.471116 5.779486,-1.587965 6.685206,-0.322503 7.833233,3.152332 6.938382,21.001036 -0.407729,8.132582 -1.33442,15.536511 -2.059313,16.453178 -1.796039,2.271187 -9.631164,2.109017 -11.580417,-0.239688 z M 68.666665,39.928402 c -2.2,-0.6763 -9.1,-1.807283 -15.333333,-2.513295 C 47.099999,36.709094 35.999999,34.844159 28.666666,33.270806 21.333333,31.697453 13.244862,30.009573 10.692285,29.519962 7.3023694,28.869741 5.7201563,27.688335 4.8230979,25.137563 2.9264906,19.74459 4.5364602,17.725203 12.010586,16.12229 c 3.773467,-0.809264 8.030366,-2.097295 9.459774,-2.862291 1.429408,-0.764996 4.533334,-1.644999 6.897614,-1.955562 2.364281,-0.310564 7.298692,-1.268308 10.965358,-2.12832 9.27391,-2.1751843 52.563806,-3.0181346 63.284478,-1.232289 10.4392,1.7389585 28.0519,5.954078 40.26013,9.635163 13.49979,4.07052 13.37298,10.250759 -0.28742,14.00717 -17.32583,4.764349 -24.21431,5.989845 -39.92386,7.102648 -9.166662,0.649332 -19.666662,1.470544 -23.333328,1.824917 -3.666667,0.354372 -8.466667,0.09097 -10.666667,-0.585324 z M 105.52539,27.987989 c 7.59437,-0.73994 16.20794,-1.719043 19.14127,-2.175783 5.14268,-0.800748 4.88147,-0.941661 -7.30663,-3.941739 -11.87434,-2.922847 -14.66063,-3.082712 -45.999996,-2.639265 -18.348019,0.25962 -35.039953,0.911362 -37.093187,1.448316 -3.435088,0.898329 -3.541545,1.108822 -1.333333,2.636358 3.167731,2.191289 14.810398,3.595829 34.228689,4.129261 8.705878,0.239156 16.155878,0.761836 16.555555,1.161513 1.049008,1.049007 6.18776,0.903225 21.807632,-0.618661 z"
       id="path934" />
  </g>
</svg>
