<?xml version="1.0" encoding="UTF-8" standalone="no"?>
<!-- Created with Inkscape (http://www.inkscape.org/) -->

<svg
   version="1.1"
   id="svg22"
   width="88"
   height="165.33333"
   viewBox="0 0 88 165.33333"
   xmlns="http://www.w3.org/2000/svg"
   xmlns:svg="http://www.w3.org/2000/svg">
  <defs
     id="defs26" />
  <g
     id="g28">
    <path
       style="fill:#000000;stroke-width:1.33333"
       d="m 24.864931,155.86014 c -7.920748,-0.5413 -12.18907,-1.41824 -12.979584,-2.66666 -0.647815,-1.02308 -1.187034,-11.32898 -1.198263,-22.902 -0.01826,-18.81609 0.226397,-21.13795 2.312916,-21.95046 1.283333,-0.49973 15.104981,-0.9309 30.714775,-0.95815 22.23039,-0.0388 28.619277,0.33511 29.478841,1.72524 0.603571,0.97613 1.031921,12.07613 0.951892,24.66667 L 74,156.66666 H 55.333333 c -10.266666,0 -23.977448,-0.36293 -30.468402,-0.80652 z M 38.744004,81.477838 c -0.775868,-1.449724 -1.410671,-3.482314 -1.410671,-4.516868 0,-2.924451 -4.50412,-6.294305 -8.412918,-6.294305 -2.631439,0 -3.744042,0.827802 -4.348262,3.235206 -1.187737,4.732322 -5.083562,7.698442 -9.454241,7.198069 C 10.753297,80.60026 9.5189516,76.673401 11.903364,70.873405 13.849833,66.138687 11.797076,59.272965 7.4011399,55.815122 3.1575969,52.477151 3.1293501,50.296888 7.2594936,44.881991 9.0522151,42.531612 11.171795,37.695614 11.969672,34.13533 13.683363,26.488501 15.071721,23.685413 19.741137,18.444789 29.807544,7.1469669 46.916416,5.2777199 66.055827,13.384632 c 4.247992,1.799329 5.898446,3.517849 7.794261,8.115698 1.322805,3.208152 3.547683,8.399053 4.944173,11.535337 3.134683,7.03998 3.374095,21.001837 0.524662,30.59692 -1.669715,5.622536 -2.730456,7.032873 -6.198966,8.242002 -2.301504,0.802308 -6.1588,1.458743 -8.571768,1.458743 -4.107214,0 -4.413626,0.319111 -4.801036,5 l -0.41382,5 -9.589329,0.390185 c -8.414145,0.342367 -9.762208,0.06716 -11,-2.245679 z"
       id="path795" />
  </g>
</svg>
