<?xml version="1.0" encoding="UTF-8" standalone="no"?>
<!-- Created with Inkscape (http://www.inkscape.org/) -->

<svg
   version="1.1"
   id="svg32"
   width="160"
   height="158.66667"
   viewBox="0 0 160 158.66667"
   xmlns="http://www.w3.org/2000/svg"
   xmlns:svg="http://www.w3.org/2000/svg">
  <defs
     id="defs36" />
  <g
     id="g38">
    <path
       style="fill:#000000;stroke-width:1.33333"
       d="m 74.16128,147.66667 c -1.510436,-2.38465 -1.721856,-6.32784 -1.030737,-19.22425 0.478201,-8.92333 1.169457,-16.51982 1.536124,-16.88109 0.366666,-0.36126 2.766666,-1.04382 5.333333,-1.51681 8.361947,-1.54093 9.214192,0.23165 9.594463,19.95548 0.183801,9.53334 -0.135172,18.08334 -0.70883,19 -0.578522,0.92444 -3.666289,1.66667 -6.933585,1.66667 -4.656833,0 -6.288556,-0.62833 -7.790768,-3 z M 28,51.776748 C 14.812753,50.695389 13.787136,50.396408 10.333333,46.62667 8.3166667,44.42553 6.6666667,41.404266 6.6666667,39.912753 c 0,-4.252528 3.5861583,-10.128056 8.4425623,-13.832218 l 4.445368,-3.390647 54.20872,0.355362 c 48.794623,0.319869 54.433483,0.580124 56.459163,2.605803 3.06535,3.065346 0.53533,8.99853 -3.86056,9.053457 -1.66572,0.02081 -25.97859,0.07155 -54.028587,0.112741 -41.660665,0.06118 -51,0.401567 -51,1.858755 0,3.831415 9.04044,4.505712 59.022355,4.402286 56.703422,-0.117334 58.588912,-0.393006 59.390862,-8.68335 0.54066,-5.589212 -1.504,-9.185916 -6.78608,-11.937186 -3.7524,-1.954508 -9.00118,-2.208766 -41.627137,-2.016473 C 70.8,18.562303 44.753067,18.955543 33.45126,19.315148 11.480397,20.014226 9.3333333,19.52358 9.3333333,13.803739 9.3333333,11.542763 10.411785,10.18282 13,9.1800209 17.593545,7.4002596 113.846,7.1296876 132.21978,8.8448862 c 14.89513,1.3904648 17.23454,2.8169738 20.43835,12.4627728 1.68138,5.062134 1.82107,7.630288 0.69859,12.843188 -2.38641,11.082794 -3.46393,12.223074 -14.99156,15.86465 -10.34962,3.269443 -11.11794,3.314208 -53.432887,3.113197 C 61.319523,53.016526 35.7,52.40815 28,51.776748 Z"
       id="path656" />
  </g>
</svg>
