<?xml version="1.0" encoding="UTF-8" standalone="no"?>
<!-- Created with Inkscape (http://www.inkscape.org/) -->

<svg
   version="1.1"
   id="svg42"
   width="161.33333"
   height="148"
   viewBox="0 0 161.33333 148"
   xmlns="http://www.w3.org/2000/svg"
   xmlns:svg="http://www.w3.org/2000/svg">
  <defs
     id="defs46" />
  <g
     id="g48">
    <path
       style="fill:#000000;stroke-width:1.33333"
       d="M 10.936814,138.32551 C 10.151143,137.37883 9.7114645,132.01815 9.9252433,125.99217 10.133217,120.12981 10.385118,111.65143 10.485022,107.15133 10.666247,98.988217 10.676669,98.96784 15,98.322832 c 2.383333,-0.355575 5.626873,-0.159991 7.207866,0.434631 2.746812,1.033093 2.877849,1.895957 2.949133,19.419837 0.04608,11.32652 -0.478204,19.00481 -1.371126,20.08071 -1.844771,2.2228 -11.020305,2.27102 -12.849059,0.0675 z m 124.301886,-0.6106 c -2.70796,-2.70798 -2.33709,-34.91984 0.43807,-38.048243 2.17479,-2.451622 9.04909,-3.099796 12.13548,-1.14425 2.53465,1.605963 3.47463,35.828293 1.07175,39.020133 -2.00282,2.66044 -11.04303,2.77462 -13.6453,0.17236 z m -60.475262,-2.56139 c -2.410577,-3.06455 -2.763439,-5.36297 -2.763439,-18 0,-12.70908 0.327244,-14.8141 2.666666,-17.15352 3.584376,-3.584376 8.800233,-3.428164 11.129876,0.33333 2.556543,4.12786 2.315037,32.98575 -0.302444,36.13963 -2.716336,3.27299 -7.589603,2.67377 -10.730659,-1.31944 z M 122.5155,55.404392 C 122.13639,55.02528 96.665309,54.596477 65.913103,54.451497 35.160897,54.306517 8.9499998,53.674509 7.6666665,53.047037 5.0355915,51.760599 4.4325856,44.714071 6.8269407,43.234279 7.6484248,42.726573 13.348425,42.421995 19.493608,42.557437 c 6.145182,0.135442 11.173058,-0.286426 11.173058,-0.937486 0,-0.65106 -4.809856,-2.28229 -10.688568,-3.624954 C 8.4593444,35.364181 6.2208963,33.839763 6.897648,29.087011 c 0.5530178,-3.883783 4.219227,-4.609267 9.589142,-1.897538 3.8667,1.952628 25.373758,6.14386 31.526852,6.14386 1.473518,0 3.723252,-1.253289 4.999406,-2.785088 1.276156,-1.531797 5.020284,-4.612696 8.320284,-6.846441 3.3,-2.233744 7.919411,-6.080455 10.265356,-8.548245 4.67176,-4.914404 9.550538,-5.8138554 12.972738,-2.391654 1.503374,1.503372 2.095239,4.716647 2.095239,11.375179 0,10.954445 0.351149,11.231 12.595434,9.919748 8.017931,-0.858648 8.631811,-1.1675 9.974171,-5.018193 2.35154,-6.745623 1.75788,-10.1021 -2.23627,-12.643771 -7.190305,-4.575529 -6.46094,-7.4368059 2.03154,-7.9697227 2.73265,-0.1714784 6.46846,-0.4872864 8.30179,-0.7017954 2.87464,-0.3363475 3.39018,0.1975877 3.74643,3.8801431 0.22721,2.348587 1.72721,5.460075 3.33334,6.914418 7.32149,6.629584 18.12035,14.593128 21.04196,15.517254 8.74314,2.765519 11.36004,7.637491 7.25239,13.501986 -4.28009,6.11069 -11.8178,3.715234 -15.38144,-4.888171 -0.93589,-2.259437 -3.41399,-4.993564 -5.50687,-6.075836 -3.46622,-1.792455 -4.27628,-1.727457 -9.09241,0.729544 C 119.81879,38.786209 116.51566,40 115.38645,40 c -1.12922,0 -2.05312,0.560147 -2.05312,1.244771 0,0.684622 -1.65,1.494724 -3.66667,1.800224 -3.3047,0.50062 4.68083,1.218412 17,1.52807 5.7024,0.143338 8,1.486202 8,4.675698 0,1.333594 -0.75,3.028901 -1.66666,3.767348 -2.02949,1.634906 -9.52945,3.343334 -10.4845,2.388281 z m -1.18217,-26.659036 c 0,-2.323716 -2.18622,-3.866332 -3.94177,-2.781345 -1.77459,1.096757 -0.1763,4.702656 2.08442,4.702656 1.02154,0 1.85735,-0.86459 1.85735,-1.921311 z"
       id="path517" />
  </g>
</svg>
