<?xml version="1.0" encoding="UTF-8" standalone="no"?>
<!-- Created with Inkscape (http://www.inkscape.org/) -->

<svg
   version="1.1"
   id="svg52"
   width="174.66667"
   height="162.66667"
   viewBox="0 0 174.66667 162.66667"
   xmlns="http://www.w3.org/2000/svg"
   xmlns:svg="http://www.w3.org/2000/svg">
  <defs
     id="defs56" />
  <g
     id="g58">
    <path
       style="fill:#000000;stroke-width:1.33333"
       d="m 144,152.81276 c -6.14084,-2.17257 -9.45053,-8.3813 -7.96914,-14.94956 1.67624,-7.43224 4.69212,-9.8632 12.2364,-9.8632 7.77549,0 12.38934,3.70348 13.76778,11.05122 1.29071,6.88005 0.45358,9.17994 -4.57478,12.56856 -5.06312,3.41204 -6.76238,3.56265 -13.46026,1.19298 z M 17.333334,151.47943 c -6.140847,-2.17257 -9.4505285,-8.38131 -7.9691468,-14.94956 1.6762438,-7.43225 4.6921128,-9.8632 12.2364028,-9.8632 7.775493,0 12.389344,3.70347 13.767788,11.05121 1.290707,6.88006 0.453575,9.17995 -4.574784,12.56856 -5.063126,3.41204 -6.762374,3.56266 -13.46026,1.19299 z m 59.429833,-1.26172 c -2.79145,-2.79144 -3.429832,-4.70104 -3.429832,-10.25967 0,-5.77098 0.604229,-7.43406 3.897436,-10.72727 9.414312,-9.41431 25.730019,-0.14286 23.454149,13.3279 -1.197933,7.09047 -4.588997,9.77008 -13.27575,10.49045 -6.396176,0.53043 -7.605914,0.20868 -10.646003,-2.83141 z M 80.397526,71.912113 C 74.244273,69.501444 73.059481,68.372724 69.896715,61.908261 66.978719,55.94409 66.452529,53.364324 66.997403,47.69371 c 0.557804,-5.805168 1.395274,-7.552864 5.167477,-10.783875 2.475983,-2.120757 6.451788,-4.701105 8.835122,-5.734105 2.383333,-1.033001 4.324145,-2.620131 4.312916,-3.526956 -0.04442,-3.586914 -2.205626,-4.581715 -9.312917,-4.286724 -9.498617,0.394245 -12,-0.958056 -12,-6.487455 0,-7.2963144 2.213852,-8.9426214 10,-7.4363899 3.666667,0.7093169 10.566667,1.2089919 15.333334,1.1103889 24.000445,-0.496475 29.333335,0.607024 29.333335,6.069746 0,4.842302 -3.42378,7.38166 -9.95259,7.38166 -8.68216,0 -8.911538,2.996431 -0.80495,10.515461 7.4651,6.924025 9.42421,10.998721 9.42421,19.601131 0,5.080856 -0.77416,6.782845 -5.3365,11.732401 -4.19326,4.549156 -6.54977,5.959723 -11,6.584416 -3.114926,0.437254 -7.463505,1.110221 -9.663505,1.495482 -2.405084,0.421175 -6.765508,-0.382973 -10.935809,-2.016778 z"
       id="path378" />
  </g>
</svg>
