<?xml version="1.0" encoding="UTF-8" standalone="no"?>
<!-- Created with Inkscape (http://www.inkscape.org/) -->

<svg
   version="1.1"
   id="svg62"
   width="94.666664"
   height="76"
   viewBox="0 0 94.666664 76"
   xmlns="http://www.w3.org/2000/svg"
   xmlns:svg="http://www.w3.org/2000/svg">
  <defs
     id="defs66" />
  <g
     id="g68">
    <path
       style="fill:#000000;stroke-width:1.33333"
       d="M 29.562523,59.666667 C 25.977215,54.35 21.847667,47.6 20.38575,44.666667 18.923831,41.733333 15.51852,35.734651 12.818389,31.336261 2.6494475,14.77152 3.0420764,8.3623388 14.181154,9.0907977 c 7.916457,0.5177102 12.508709,4.3814553 15.881684,13.3622433 1.28353,3.417494 3.444473,7.806248 4.802093,9.752786 1.357621,1.946538 2.468401,4.103517 2.468401,4.793285 0,1.059461 4.79926,9.179709 11.676344,19.756133 6.667381,10.253916 5.756936,12.578088 -4.927199,12.578088 h -8.001214 z m 35.999999,0 C 61.977214,54.35 57.847666,47.6 56.385749,44.666667 54.92383,41.733333 51.518519,35.734651 48.818388,31.336261 38.649447,14.77152 39.042075,8.3623388 50.181153,9.0907977 58.09761,9.6085079 62.689862,13.472253 66.062837,22.453041 c 1.28353,3.417494 3.444473,7.806248 4.802093,9.752786 1.357621,1.946538 2.468401,4.103517 2.468401,4.793285 0,1.059461 4.79926,9.179709 11.676344,19.756133 6.667381,10.253916 5.756936,12.578088 -4.927199,12.578088 h -8.001214 z"
       id="path239" />
  </g>
</svg>
