<?xml version="1.0" encoding="UTF-8" standalone="no"?>
<!-- Created with Inkscape (http://www.inkscape.org/) -->

<svg
   version="1.1"
   id="svg72"
   width="160"
   height="49.333332"
   viewBox="0 0 160 49.333332"
   xmlns="http://www.w3.org/2000/svg"
   xmlns:svg="http://www.w3.org/2000/svg">
  <defs
     id="defs76" />
  <g
     id="g78">
    <path
       style="fill:#000000;stroke-width:1.33333"
       d="m 6.0190228,42.178787 c -2.7918305,-2.041436 -2.544658,-3.018172 4.7690282,-18.845454 2.033212,-4.4 4.607053,-10.25 5.719646,-13 1.589079,-3.9277256 2.746527,-4.9999998 5.397168,-4.9999998 2.594283,0 4.003219,1.2328397 6.095135,5.3333328 3.074505,6.026528 3.974711,6.377903 7.202439,2.811304 2.667013,-2.947017 6.919025,-2.314795 9.22086,1.371027 1.998536,3.200167 4.452621,3.163709 6.195041,-0.09203 2.167896,-4.050751 6.254347,-4.646191 10.260375,-1.495049 3.174917,2.497391 3.759024,2.574237 5.765382,0.758507 2.819343,-2.551469 9.206042,-2.629056 10.167508,-0.12352 1.257083,3.275905 4.784203,3.657522 7.441598,0.805144 3.173948,-3.406834 5.165452,-3.400859 9.52527,0.02857 l 3.471431,2.730628 2.338036,-2.730628 c 2.68708,-3.138281 8.14984,-3.632055 9.22367,-0.833719 1.30829,3.409356 4.8173,3.623583 8.14512,0.497263 3.13176,-2.942141 3.30678,-2.958336 7.28652,-0.674276 4.60067,2.640424 6.58568,1.753191 9.45051,-4.2240583 0.95916,-2.0012388 2.78521,-3.4958349 4.27109,-3.4958349 3.22296,0 8.23931,7.2234852 10.09363,14.5347182 0.76239,3.005904 1.8864,6.665281 2.49781,8.131948 3.63327,8.715428 4.11383,10.555309 3.36951,12.900466 -0.67324,2.121167 -1.59221,2.435095 -5.04123,1.722104 -5.03578,-1.041013 -7.22805,-3.543921 -8.35209,-9.535609 -1.02156,-5.445341 -2.66051,-6.629577 -5.61649,-4.058226 -3.52778,3.068731 -5.91953,3.425306 -10.50336,1.565897 -3.56963,-1.448003 -4.50757,-1.420137 -5.82993,0.173202 -2.12674,2.562571 -7.81837,2.400515 -10.81105,-0.307818 -2.17674,-1.969927 -2.68863,-1.991668 -4.77165,-0.202666 -4.105955,3.5264 -6.485815,3.602707 -10.294416,0.330074 -2.882432,-2.4768 -4.246107,-2.88024 -6.200351,-1.83436 C 85.127355,30.157147 84,31.275186 84,31.904259 c 0,2.753313 -4.250471,2.402948 -7.511381,-0.619161 -1.949574,-1.806804 -3.669452,-3.285099 -3.821952,-3.285099 -0.1525,0 -1.898923,1.502895 -3.88094,3.339765 -3.954019,3.664462 -7.293615,3.013303 -10.447642,-2.037095 -1.539517,-2.46516 -1.793084,-2.395032 -5.966686,1.650182 l -4.358842,4.224755 -3.9973,-3.829656 -3.997301,-3.829657 -3.094913,2.90752 c -4.04115,3.796462 -6.794363,3.672583 -10.038504,-0.451674 -2.396852,-3.047104 -2.836091,-3.165445 -4.727763,-1.273772 -1.146983,1.146982 -2.778047,4.397197 -3.624588,7.222701 -0.964961,3.220755 -2.742635,5.685618 -4.765081,6.607106 -4.1221801,1.87819 -4.7370926,1.850303 -7.7480842,-0.351387 z"
       id="path100" />
  </g>
</svg>
