<?xml version="1.0" encoding="UTF-8" standalone="no"?>
<!-- Created with Inkscape (http://www.inkscape.org/) -->

<svg
   version="1.1"
   id="svg2"
   width="161.33333"
   height="158.66667"
   viewBox="0 0 161.33333 158.66667"
   xmlns="http://www.w3.org/2000/svg"
   xmlns:svg="http://www.w3.org/2000/svg">
  <defs
     id="defs6" />
  <g
     id="g8">
    <path
       style="fill:#000000;stroke-width:1.33333"
       d="m 143.33333,151.97559 c -5.08287,-1.37937 -30.07936,-4.15653 -43.999999,-4.88848 -5.866666,-0.30847 -16.874886,0.25375 -24.46271,1.24939 -22.85311,2.99865 -31.938539,0.79549 -38.982308,-9.45299 -2.766555,-4.02525 -3.511411,-4.37021 -7.806671,-3.61551 -11.699492,2.05571 -14.304878,2.1829 -17.748309,0.86646 -3.1700438,-1.21192 -3.6666665,-2.13702 -3.6666665,-6.83014 0,-4.64555 0.5794231,-5.75588 4.0180295,-7.69966 4.779258,-2.70163 4.646177,-5.59752 -0.367668,-8.00059 -4.3523996,-2.08606 -4.8196542,-6.38658 -0.8314365,-7.65239 1.8659135,-0.59222 4.0928085,0.0471 6.5869615,1.89113 l 3.768036,2.78583 3.938847,-3.31432 c 4.769333,-4.01313 7.650333,-4.20449 9.560641,-0.63505 1.204905,2.25139 0.946228,2.86575 -1.619755,3.84698 -1.679511,0.64225 -4.132112,2.36526 -5.450224,3.82893 -2.208484,2.45236 -2.227169,2.83061 -0.238095,4.81968 1.18716,1.18716 2.96006,2.15848 3.939778,2.15848 0.979717,0 5.741362,3.96005 10.581434,8.80013 8.541912,8.54191 8.966109,8.78129 14.456789,8.15828 3.111164,-0.35303 10.600879,-2.46865 16.643811,-4.7014 10.168677,-3.75713 11.639563,-3.96714 19.745183,-2.81925 4.81692,0.68216 10.268932,0.86108 12.115582,0.3976 1.84665,-0.46347 4.66131,-0.20481 6.25481,0.57482 11.60472,5.67766 17.05059,7.21718 27.56394,7.79219 6.23333,0.34092 12.64335,0.88625 14.24447,1.21184 4.43244,0.90135 5.2482,5.53468 1.64897,9.36589 -3.23283,3.44118 -3.73004,3.53476 -9.89344,1.86215 z M 99.777287,99.586815 c -2.942226,-2.942226 -1.83616,-38.145167 1.275223,-40.586814 3.10781,-2.43884 8.86814,-2.034306 11.43598,0.803119 1.96552,2.171881 2.12651,4.745092 1.33464,21.333334 C 113.18006,94.607743 112.45728,100 111.29466,100 c -0.8954,0 -3.40478,0.35536 -5.57641,0.78968 -2.60879,0.52176 -4.62444,0.11366 -5.940963,-1.202865 z m 36.775973,0.229708 c -0.51558,-0.834245 -1.09854,-9.084245 -1.29546,-18.333333 -0.44002,-20.667891 0.70718,-23.53001 8.9863,-22.419547 2.9202,0.391681 5.66479,1.067476 6.09908,1.501768 0.4343,0.43429 0.93382,8.892808 1.11006,18.796703 0.25748,14.469577 -0.0689,18.396461 -1.66164,19.989152 -2.32758,2.327564 -11.87988,2.663284 -13.23834,0.465257 z M 12.270147,98.32551 c -0.78567,-0.946676 -1.225349,-6.307355 -1.01157,-12.333334 0.207974,-5.862362 0.459874,-14.340741 0.559779,-18.840843 0.181224,-8.163114 0.191646,-8.183492 4.514977,-8.8285 2.383333,-0.355574 5.626873,-0.15999 7.207867,0.434631 2.746811,1.033093 2.877849,1.895959 2.949133,19.419842 0.04608,11.32652 -0.478204,19.004797 -1.371127,20.080703 -1.84477,2.222811 -11.020305,2.271011 -12.849059,0.06751 z m 37.333332,0 C 48.81781,97.378834 48.378131,92.018155 48.59191,85.992176 c 0.207973,-5.862362 0.459874,-14.340741 0.559778,-18.840843 0.181226,-8.163114 0.191647,-8.183492 4.514978,-8.8285 2.383333,-0.355574 5.626873,-0.15999 7.207866,0.434631 2.746812,1.033093 2.877849,1.895959 2.949133,19.419842 0.04608,11.32652 -0.478204,19.004797 -1.371126,20.080703 -1.844771,2.222811 -11.020305,2.271011 -12.84906,0.06751 z M 50.666666,37.270157 C 35.199811,35.680331 11.073125,29.770419 7.3142628,26.650841 2.524233,22.675468 7.1032965,16.841671 17.716152,13.398674 39.610806,6.2956616 93.218317,3.4442403 116.66666,8.1354262 c 16.65265,3.3316068 33.21758,8.2220358 36.18135,10.6817418 2.01959,1.676115 2.33608,4.970339 0.72177,7.512567 -1.06549,1.67794 -13.35765,5.377904 -29.87031,8.991022 -10.40616,2.276961 -57.592737,3.53647 -73.032804,1.9494 z M 101.52539,26.619762 c 7.59437,-0.759132 15.86776,-2.041908 18.38533,-2.850615 l 4.57739,-1.470376 -4.57739,-1.662152 c -12.21217,-4.434512 -56.575877,-4.71434 -80.127605,-0.505412 -11.955418,2.136553 -9.698497,3.552441 9.337895,5.858168 18.018477,2.182434 34.851914,2.384928 52.40438,0.630387 z"
       id="path30" />
  </g>
</svg>
