<?xml version="1.0" encoding="UTF-8" standalone="no"?>
<!-- Created with Inkscape (http://www.inkscape.org/) -->

<svg
   version="1.1"
   id="svg2"
   width="161.33333"
   height="156"
   viewBox="0 0 161.33333 156"
   xmlns="http://www.w3.org/2000/svg"
   xmlns:svg="http://www.w3.org/2000/svg">
  <defs
     id="defs6" />
  <g
     id="g8">
    <path
       style="fill:#000000;stroke-width:1.33333"
       d="m 89.373501,149.6582 c -15.736752,-0.61617 -16.433919,-1.38388 -15.37974,-16.93579 1.215671,-17.93432 1.260909,-18.05574 6.726892,-18.05574 6.27638,0 8.47835,4.32694 6.009255,11.80837 -2.516804,7.62599 -1.007904,10.85829 5.068853,10.85829 4.720228,0 5.017318,-0.26565 6.337254,-5.66666 0.761672,-3.11667 1.34266,-11.66667 1.291087,-19 L 99.333331,99.333333 83.571776,98.24216 c -23.004185,-1.59258 -22.016221,-2.721628 -22.016221,25.16022 0,12.18425 -0.37,22.52318 -0.822223,22.97539 -1.499432,1.49944 -9.782633,0.85114 -11.933589,-0.934 -1.732491,-1.43784 -1.987473,-3.72206 -1.406501,-12.59999 C 47.783531,126.8797 48.529715,114.8 49.051428,106 c 0.521715,-8.8 1.433982,-16.75 2.02726,-17.666667 1.678846,-2.59396 58.675072,-2.37322 60.840222,0.235627 2.09476,2.524029 1.08266,53.73489 -1.14421,57.89585 -0.84436,1.57768 -2.66501,2.86852 -4.0459,2.86852 -1.38088,0 -3.30977,0.17259 -4.28642,0.38352 -0.97664,0.21095 -6.857639,0.18455 -13.068879,-0.0587 z M 45.185262,82.074151 C 44.859378,81.748268 40.109378,80.850745 34.629706,80.079657 13.175983,77.060735 8.666321,75.736389 6.5827148,71.843135 3.5388561,66.155632 9.9986449,62.2151 27.999999,58.778389 c 4.033334,-0.77002 10.512866,-2.010165 14.398961,-2.75588 3.886096,-0.745713 19.069892,-1.355842 33.741769,-1.355842 23.955351,0 29.014051,0.419306 49.598311,4.111117 12.60718,2.261113 23.6734,4.73458 24.59156,5.496592 1.89776,1.575 2.26577,8.533001 0.50874,9.618901 -2.0024,1.23755 -16.41793,4.922598 -26.83934,6.860952 -9.38793,1.746128 -77.252004,2.882658 -78.814738,1.319922 z M 114,71.901493 c 2.93333,-0.6433 7.62619,-1.184305 10.42857,-1.202232 4.25679,-0.02723 4.80145,-0.326377 3.30992,-1.817913 -2.58502,-2.58502 -7.29658,-3.438936 -30.405159,-5.510581 -17.971462,-1.611111 -22.966679,-1.594055 -38.30303,0.130792 -9.699999,1.090937 -20.199999,2.740621 -23.333332,3.665965 l -5.69697,1.682443 10,1.769274 C 60.829099,74.304483 99.951685,74.982388 114,71.901493 Z M 5.9162559,43.600413 c -1.0539408,-0.58644 -1.916256,-2.24992 -1.916256,-3.696622 0,-2.74917 11.3427781,-14.485087 17.6666661,-18.278992 2.016667,-1.209864 3.666667,-2.613375 3.666667,-3.118914 0,-1.664576 11.196977,-7.50783 18.575334,-9.6937223 C 54.63296,5.6350124 149.4007,5.5911811 152.57142,8.7619048 c 2.36612,2.3661222 2.66295,5.6138722 0.78338,8.5714282 -1.10051,1.731687 -7.91728,1.943536 -50.81208,1.579115 -48.7925,-0.414525 -49.654388,-0.375453 -57.041886,2.585816 -9.34224,3.744825 -16.266645,8.081507 -15.703713,9.835069 0.378941,1.180426 96.925349,1.47541 117.476479,0.358934 6.4718,-0.351592 6.63364,-0.266466 7.91342,4.1623 1.1586,4.009361 0.94002,4.818009 -1.93073,7.142596 -3.14517,2.546802 -5.2594,2.607826 -74.330513,2.145433 C 39.824481,44.880835 6.9701967,44.186852 5.9162559,43.600413 Z"
       id="path626" />
  </g>
</svg>
