<?xml version="1.0" encoding="UTF-8" standalone="no"?>
<!-- Created with Inkscape (http://www.inkscape.org/) -->

<svg
   version="1.1"
   id="svg12"
   width="73.333336"
   height="152"
   viewBox="0 0 73.333336 152"
   xmlns="http://www.w3.org/2000/svg"
   xmlns:svg="http://www.w3.org/2000/svg">
  <defs
     id="defs16" />
  <g
     id="g18">
    <path
       style="fill:#000000;stroke-width:1.33333"
       d="m 27.30988,144.45273 c -2.56617,-2.56617 -2.684988,-2.19769 2.551997,-7.91417 l 4.528542,-4.94317 -3.721017,-3.13103 c -2.04656,-1.72206 -4.34397,-3.13103 -5.105358,-3.13103 -2.560224,0 -3.290366,-5.51177 -1.029622,-7.77251 1.847862,-1.84786 2.735934,-1.90359 6.470372,-0.40602 7.594151,3.04537 8.328541,2.74227 8.328541,-3.43733 0,-6.09764 3.103124,-10.60276 6.425113,-9.32799 1.175407,0.45104 2.338968,3.47156 2.895174,7.51565 0.51147,3.71885 1.465034,6.76154 2.119029,6.76154 0.653995,0 3.894187,-0.72351 7.200427,-1.60779 6.991906,-1.87005 9.50497,-0.47319 8.237075,4.57851 -0.50672,2.01893 -2.500236,3.8352 -5.502379,5.01315 -4.75322,1.86502 -6.142852,4.51347 -3.000831,5.71917 2.614559,1.0033 6.817889,9.67276 5.877694,12.12288 -1.314745,3.42616 -7.366742,2.57073 -12.917968,-1.82592 -6.078701,-4.81442 -6.750519,-4.86544 -11.564368,-0.87828 -5.01291,4.15204 -9.329463,5.1273 -11.792421,2.66434 z M 24.26379,77.666667 C 23.623938,76.383333 22.016263,71.133333 20.691178,66 17.780089,54.722531 15.99571,51.004915 11.460019,46.767581 4.50672,40.271671 8.1243692,36 20.579013,36 c 6.833495,0 7.420988,-0.240401 7.420988,-3.036659 0,-1.670161 0.951883,-4.395661 2.115296,-6.056666 1.279875,-1.827276 1.999042,-5.235639 1.820939,-8.630008 -0.472471,-9.0045603 -0.118962,-10.2505814 3.357613,-11.8346147 4.077448,-1.8578099 7.372819,0.3706736 7.372819,4.9858447 0,1.705758 1.5,4.719904 3.333334,6.698104 2.692638,2.905404 3.333333,4.968834 3.333333,10.735363 V 36 h 7.224284 c 12.031387,0 13.950764,2.065651 8.730898,9.396276 -4.488317,6.30326 -8.891891,17.488655 -9.94869,25.270391 -0.547748,4.033333 -1.673286,7.774145 -2.501198,8.312916 -0.827911,0.53877 -7.334183,0.98877 -14.458382,1 C 27.363356,79.996943 25.25326,79.651219 24.26379,77.666667 Z"
       id="path487" />
  </g>
</svg>
