<?xml version="1.0" encoding="UTF-8" standalone="no"?>
<!-- Created with Inkscape (http://www.inkscape.org/) -->

<svg
   version="1.1"
   id="svg22"
   width="174.66667"
   height="152"
   viewBox="0 0 174.66667 152"
   xmlns="http://www.w3.org/2000/svg"
   xmlns:svg="http://www.w3.org/2000/svg">
  <defs
     id="defs26" />
  <g
     id="g28">
    <path
       style="fill:#000000;stroke-width:1.33333"
       d="M 135.42983,144.88437 C 132.63839,142.09293 132,140.18333 132,134.62471 c 0,-5.77099 0.60423,-7.43407 3.89744,-10.72727 9.41431,-9.41432 25.73002,-0.14287 23.45415,13.32789 -1.19793,7.09047 -4.589,9.77008 -13.27575,10.49046 -6.39618,0.53042 -7.60592,0.20868 -10.64601,-2.83142 z M 11.930719,141.04263 c -3.8726864,-4.24006 -5.9498654,-10.4968 -5.0448975,-15.19592 0.7837738,-4.06981 8.8290865,-8.51338 15.4139205,-8.51338 14.368061,0 18.993541,17.52966 6.640061,25.16452 -6.786443,4.19426 -12.278221,3.7244 -17.009084,-1.45522 z m 64.712209,3.03034 c -3.994107,-1.62014 -6.20814,-6.81582 -5.732027,-13.45135 0.380588,-5.3042 0.950739,-6.18573 5.755767,-8.89923 7.778715,-4.39282 13.367783,-4.01453 18.273252,1.23679 3.607486,3.86183 3.945963,4.95702 3.373453,10.91525 -0.817167,8.5044 -4.177879,11.49212 -12.794417,11.37438 -3.402092,-0.0465 -7.396304,-0.57561 -8.876028,-1.17584 z M 159.1322,108.31292 C 156.45795,106.60572 148.29659,93.610144 146.60904,88.371935 145.71627,85.600704 144.56172,82.733333 144.04342,82 c -0.51832,-0.733333 -2.30638,-5.06484 -3.97344,-9.625571 -3.21935,-8.807397 -4.4862,-10.442808 -8.73664,-11.278341 -2.03745,-0.400511 -2.57142,-1.408096 -2.26301,-4.27018 0.22201,-2.060288 -0.57465,-5.239079 -1.77037,-7.063977 -3.51016,-5.357172 -9.79865,-7.157784 -24.30722,-6.959992 -18.407004,0.250938 -24.116944,-0.07743 -31.352856,-1.803044 -7.57554,-1.80661 -8.476427,-1.180446 -13.9625,9.704676 -3.406756,6.759469 -4.058274,7.327654 -8.853088,7.720724 -6.350742,0.520622 -7.756177,-0.7763 -8.739213,-8.064471 l -0.767898,-5.693157 -7.528772,0.453152 C 21.165972,45.759175 12.726816,41.967411 11.537528,36.020973 10.436569,30.516176 13.627792,23.587995 19.03922,19.734719 c 3.939955,-2.805496 4.205662,-2.82194 10.347903,-0.640408 3.467263,1.231462 7.650271,2.239022 9.295574,2.239022 2.758581,0 2.922966,-0.428328 2.111633,-5.502128 C 39.797823,9.5993904 42.451181,4 46.40073,4 c 3.444554,0 8.265938,3.7970891 8.265938,6.509853 0,3.450396 5.61859,8.156814 9.737725,8.156814 1.96122,0 8.208046,-1.273567 13.881835,-2.830148 11.298083,-3.099585 19.594446,-2.921344 37.047112,0.795924 5.13333,1.093357 11.83439,1.998338 14.89125,2.011072 4.84177,0.02017 5.90415,-0.535202 8.24497,-4.310182 C 142.95318,7.1027551 146.55108,4 150.45195,4 c 8.37637,0 9.63356,9.187436 2.21472,16.185069 C 150.1,22.606015 148,25.539093 148,26.703023 c 0,2.542334 6.44591,10.612018 8.52671,10.674669 2.77723,0.08363 7.47329,5.049229 7.47329,7.902245 0,1.56887 0.86088,4.517236 1.91306,6.551926 1.05217,2.03469 2.10217,6.031429 2.33333,8.881641 0.37068,4.570625 -0.0303,5.402184 -3.39748,7.046192 -5.73299,2.799073 -9.68076,0.487876 -10.83485,-6.343208 -0.50438,-2.985301 -1.44094,-5.104029 -2.08127,-4.708285 -0.64696,0.399848 -0.55065,2.327653 0.21677,4.339 0.75954,1.990705 1.60143,6.554469 1.87086,10.141697 0.6193,8.245457 5.33226,20.174412 10.21593,25.857495 2.07001,2.40885 3.76365,5.438855 3.76365,6.733335 0,4.46858 -4.98066,7.01468 -8.8678,4.53319 z"
       id="path348" />
  </g>
</svg>
