<?xml version="1.0" encoding="UTF-8" standalone="no"?>
<!-- Created with Inkscape (http://www.inkscape.org/) -->

<svg
   version="1.1"
   id="svg32"
   width="165.33333"
   height="158.66667"
   viewBox="0 0 165.33333 158.66667"
   xmlns="http://www.w3.org/2000/svg"
   xmlns:svg="http://www.w3.org/2000/svg">
  <defs
     id="defs36" />
  <g
     id="g38">
    <path
       style="fill:#000000;stroke-width:1.33333"
       d="m 139.25484,151.44292 c -2.26591,-1.65502 -2.69323,-4.18688 -3.43183,-20.33333 -0.93247,-20.38435 -0.47315,-21.77625 7.18615,-21.77625 8.67929,0 8.99084,0.76512 8.99084,22.07991 v 19.31942 l -3.42014,1.30033 c -4.59776,1.74807 -6.26861,1.64234 -9.32502,-0.59008 z m -41.368238,-2.29306 c -0.515592,-0.83424 -1.098552,-9.08424 -1.295465,-18.33334 -0.44002,-20.66789 0.707188,-23.53001 8.986303,-22.41954 2.9202,0.39168 5.66479,1.06747 6.09908,1.50176 0.43429,0.4343 0.93381,8.89281 1.11005,18.79671 0.25748,14.46958 -0.069,18.39646 -1.66165,19.98915 -2.32756,2.32756 -11.879865,2.66328 -13.238318,0.46526 z m -85.839691,-2.39554 c -0.759134,-1.41845 -1.380245,-10.39734 -1.380245,-19.95308 0,-15.91047 0.220868,-17.49229 2.621846,-18.77725 3.146237,-1.68382 13.332455,-0.31441 13.486477,1.81309 0.05957,0.82294 0.406437,3.29626 0.770802,5.49626 0.364364,2.2 0.955994,10.23963 1.314732,17.86586 0.744083,15.81808 0.594226,16.08208 -9.146945,16.11372 -4.863745,0.0157 -6.598784,-0.56324 -7.666667,-2.5586 z m 45.286421,1.60716 c -1.1,-0.41873 -2.395278,-1.36824 -2.878397,-2.11 -1.649711,-2.53293 -0.352268,-35.29867 1.485423,-37.51295 2.42817,-2.92576 10.156821,-2.66792 12.317369,0.41094 2.355337,3.35644 1.137333,34.89635 -1.468895,38.03667 -1.775665,2.13954 -5.6556,2.62182 -9.4555,1.17534 z m -4,-60.467933 C 47.099999,87.306166 38.999999,86.17556 35.333333,85.381091 31.666666,84.58662 25.006791,83.42021 20.533612,82.789064 8.2984225,81.062739 4.617719,78.357854 6.211332,72.263867 c 1.6483562,-6.303324 41.853164,-14.99361 69.122,-14.94075 13.84202,0.02684 51.580278,4.220236 59.999998,6.667084 2.2,0.63934 6.7,1.91117 10,2.826288 7.89495,2.189335 9.54921,3.596231 9.06741,7.711511 -0.27121,2.316527 -1.47818,3.739823 -3.73408,4.403342 -1.83333,0.53923 -8.43333,2.508081 -14.66666,4.375224 -17.91661,5.366765 -53.461368,7.339061 -82.666668,4.586981 z M 119.33333,76.38981 c 13.4368,-1.330842 17.15915,-3.324463 8.66667,-4.641704 -3.3,-0.511853 -12,-1.909545 -19.33334,-3.105983 -10.355811,-1.689559 -18.097356,-1.98951 -34.666661,-1.343182 -11.733334,0.457688 -24.033333,1.435804 -27.333333,2.173592 -3.3,0.737787 -8.1,1.839291 -10.666667,2.447785 l -4.666666,1.106353 4.066666,0.153332 c 2.236667,0.08433 4.636667,0.722999 5.333334,1.419257 3.637787,3.635659 49.436967,4.678988 78.599997,1.79055 z M 7.6666665,49.911152 C 4.736471,46.915725 7.1943791,42.518821 17.021253,33.176911 22.716277,27.762943 29.166277,22.43429 31.354586,21.335459 33.542897,20.236628 35.711557,18.817355 36.17383,18.181518 38.183066,15.4179 52.8388,12.821035 71.999999,11.83344 c 11.366666,-0.585854 21.866666,-1.044434 23.333332,-1.019068 42.824229,0.740656 58.717709,1.454755 60.225309,2.705944 2.51672,2.088694 2.19824,5.683075 -0.73907,8.341306 -2.26484,2.049653 -7.513,2.301167 -53,2.539983 l -50.486238,0.265062 -8.84343,4.20732 c -9.559173,4.54784 -11.872633,6.759318 -8.994056,8.597574 1.805468,1.152969 28.784213,0.886521 90.176804,-0.890608 33.2758,-0.963232 34.99401,-0.690651 34.99401,5.551571 0,1.93456 -1.37312,4.03904 -3.578,5.483734 -3.2768,2.147042 -9.59048,2.385343 -74.999999,2.830778 -39.282098,0.267508 -71.8719945,0.02636 -72.4219945,-0.535884 z"
       id="path209" />
  </g>
</svg>
