<?xml version="1.0" encoding="UTF-8" standalone="no"?>
<!-- Created with Inkscape (http://www.inkscape.org/) -->

<svg
   version="1.1"
   id="svg42"
   width="165.33333"
   height="158.66667"
   viewBox="0 0 165.33333 158.66667"
   xmlns="http://www.w3.org/2000/svg"
   xmlns:svg="http://www.w3.org/2000/svg">
  <defs
     id="defs46" />
  <g
     id="g48">
    <path
       style="fill:#000000;stroke-width:1.33333"
       d="m 9.4571957,146.62606 c -5.219441,-7.20523 -5.5503034,-14.15235 -0.9298444,-19.52395 2.8959067,-3.3667 4.0264187,-3.71586 12.1125187,-3.74102 8.134727,-0.0253 9.201551,0.30101 12.139315,3.71326 2.228821,2.58881 3.220814,5.36076 3.220814,9 0,2.89244 -0.530021,5.25899 -1.177825,5.25899 -0.647803,0 -1.475652,1.13889 -1.839663,2.53086 -0.959433,3.66888 -6.809394,7.03538 -13.544553,7.79454 -5.641932,0.63592 -6.00826,0.4512 -9.9807623,-5.03268 z m 68.7328693,4.003 c -6.66296,-1.99671 -8.856733,-5.03263 -8.856733,-12.2567 0,-7.92332 1.511343,-11.03977 6.639978,-13.69189 4.513952,-2.33426 13.683436,-2.64812 17.5115,-0.5994 5.779855,3.09329 7.68639,15.73171 3.181855,21.09249 -2.708592,3.22347 -9.845591,6.92044 -12.957175,6.71184 -0.940221,-0.0631 -3.423961,-0.62838 -5.519425,-1.25634 z m 55.151625,-4.16244 c -5.10069,-7.0413 -5.39498,-14.03921 -0.81434,-19.36451 2.8959,-3.3667 4.02642,-3.71586 12.11251,-3.74102 8.13474,-0.0253 9.20156,0.30101 12.13932,3.71326 8.16171,9.47993 -1.19338,24.91692 -15.10416,24.92359 -3.54016,0.001 -5.05232,-1.00202 -8.33333,-5.53132 z M 65.506493,90.963162 C 62.555913,85.91107 59.241471,81.030332 58.141068,80.117079 57.040664,79.203824 55.12978,75.810519 53.894659,72.5764 50.34388,63.278821 53.263768,61.363896 65.666665,64.856061 c 1.283334,0.361335 2.339034,1.366542 2.346,2.233791 0.0069,0.867248 2.406968,5.350934 5.333334,9.963743 2.926366,4.612809 5.320666,9.142809 5.320666,10.066667 0,0.923857 0.646907,2.326647 1.437571,3.117311 0.790662,0.790662 1.240662,3.160662 1,5.266666 -0.382998,3.351535 -1.048414,3.879947 -5.335311,4.23682 -4.773224,0.397361 -5.034128,0.174196 -10.262432,-8.777897 z m 32.164753,7.663652 C 95.831877,97.887387 92.97205,93.92177 90.261198,88.35157 87.83315,83.362474 84.231089,76.903095 82.256616,73.997398 77.749085,67.363969 77.676154,64.299409 81.999998,63.214193 c 7.265103,-1.823424 9.406791,0.05693 18.577372,16.310546 4.81578,8.535316 8.75596,16.269776 8.75596,17.187691 0,3.142232 -6.11195,4.14554 -11.662084,1.914384 z M 47.870374,42.537042 C 43.802803,38.469471 45.239574,32.066397 52.65516,21.21331 57.793199,13.693527 59.906776,11.807641 66.525185,8.8374759 81.468821,2.131171 103.03236,5.5263924 111.7045,15.951047 c 8.72099,10.483388 12.52847,25.069958 7.27746,27.880211 -1.29325,0.692128 -17.18404,1.322452 -35.312856,1.400719 -31.940678,0.137899 -33.04936,0.05444 -35.79873,-2.694935 z"
       id="path70" />
  </g>
</svg>
