<?xml version="1.0" encoding="UTF-8" standalone="no"?>
<!-- Created with Inkscape (http://www.inkscape.org/) -->

<svg
   version="1.1"
   id="svg2"
   width="168"
   height="57.333332"
   viewBox="0 0 168 57.333332"
   xmlns="http://www.w3.org/2000/svg"
   xmlns:svg="http://www.w3.org/2000/svg">
  <defs
     id="defs6" />
  <g
     id="g8">
    <path
       style="fill:#000000;stroke-width:1.33333"
       d="M 121.64701,49.049727 C 115.48839,47.445023 67.023699,45.539258 61.689025,46.692012 58.926728,47.28891 49.773309,47.669219 41.348096,47.537144 28.967992,47.343074 25.963072,46.916846 25.6831,45.315171 c -0.642141,-3.673583 1.924856,-5.557347 9.138863,-6.70646 L 42,37.465328 35.120843,37.858662 c -5.702579,0.32606 -7.864806,1.237013 -12.642,5.326113 C 15.837947,48.869135 10.987894,49.20087 8.479376,44.142312 7.6090484,42.387251 7.1574153,40.287251 7.4757469,39.475646 8.1121044,37.853214 24.782991,28.161007 31.681735,25.402643 c 5.854357,-2.340782 13.328634,-0.976706 21.702657,3.960795 l 6.805409,4.012613 35.867935,-0.296254 c 25.966844,-0.214476 36.033574,-0.7279 36.467974,-1.859942 0.33003,-0.860026 -1.45325,-4.612654 -3.96283,-8.33917 -5.25399,-7.801719 -5.84388,-12.767956 -1.77524,-14.9454265 5.89952,-3.1573298 13.92481,3.1076985 21.29623,16.6251245 2.36756,4.341544 5.71724,9.975272 7.44373,12.519396 3.40955,5.024244 4.12807,10.669265 1.4724,11.567865 -3.07025,1.038888 -31.66106,1.364062 -35.35299,0.402083 z"
       id="path30" />
  </g>
</svg>
