<?xml version="1.0" encoding="UTF-8" standalone="no"?>
<!-- Created with Inkscape (http://www.inkscape.org/) -->

<svg
   version="1.1"
   id="svg2"
   width="157.33333"
   height="146.66667"
   viewBox="0 0 157.33333 146.66667"
   xmlns="http://www.w3.org/2000/svg"
   xmlns:svg="http://www.w3.org/2000/svg">
  <defs
     id="defs6" />
  <g
     id="g8">
    <path
       style="fill:#000000;stroke-width:1.33333"
       d="m 6.6279753,138.84436 c -2.3013405,-1.91549 -2.6329261,-4.00228 -2.7539562,-17.33162 -0.1124426,-12.3836 0.2613796,-15.55234 2.0448478,-17.33333 1.9663899,-1.96365 9.2243431,-2.17491 73.3150011,-2.13392 57.398492,0.0367 71.547692,0.39002 73.282672,1.82992 2.93615,2.43679 3.14579,30.25314 0.25778,34.20309 -1.8292,2.5018 -4.25576,2.5941 -72.711172,2.76586 -63.726518,0.1599 -71.0808346,-0.0404 -73.4351727,-2 z M 50.380166,127.36981 c 4.492562,-3.78025 8.668147,-11.51969 7.075139,-13.11377 -1.486202,-1.48721 -36.240757,-2.05746 -39.121972,-0.64192 C 16.58016,114.47546 16,116.40011 16,121.35485 c 0,7.7629 0.0083,7.76688 17.333333,8.37272 6.233333,0.21797 11.737298,0.51844 12.231033,0.66771 0.493734,0.14926 2.660844,-1.2122 4.8158,-3.02547 z m 92.034644,-4.46835 c 0.65035,-9.03874 -0.40405,-9.57107 -18.91141,-9.54771 -8.89354,0.0112 -16.77972,0.46123 -17.52486,1 -3.3002,2.38623 -8.645209,10.08202 -8.645209,12.44746 0,2.48445 0.964611,2.58081 22.333329,2.23103 L 142,128.66667 Z m -70.927972,-1.16201 c 6.380502,-6.96589 5.637102,-8.68833 -0.820173,-1.90033 -2.933333,3.08358 -5.333333,5.88124 -5.333333,6.21703 0,1.60733 2.034715,0.17997 6.153506,-4.3167 z m 17.257391,-0.3746 c 2.15734,-2.916 4.445902,-5.316 5.085696,-5.33333 0.639792,-0.0173 0.410185,-0.93892 -0.510239,-2.04796 -2.082753,-2.50956 -3.917431,-1.1688 -9.496264,6.93975 -3.48463,5.06474 -3.6591,5.74336 -1.476581,5.74336 1.361223,0 4.240046,-2.38582 6.397388,-5.30182 z M 47.999999,86.712423 C 33.716606,85.492962 9.8823023,79.576779 6.3407359,76.371706 0.67380567,71.243204 5.3435344,65.058899 16.666666,62.696672 c 4.4,-0.917927 9.033872,-2.212672 10.297495,-2.877212 1.263621,-0.66454 8.463621,-2.165849 15.999999,-3.336244 20.623505,-3.202816 58.50703,-2.224759 79.7025,2.057719 3.3,0.666754 9.40472,1.828981 13.56603,2.582726 12.74213,2.307999 17.49257,5.952371 16.10768,12.357231 -0.52329,2.420162 -5.76256,5.185776 -9.82409,5.185776 -1.48038,0 -3.74183,0.562072 -5.02546,1.249048 -1.28362,0.686978 -8.59418,2.536471 -16.24568,4.109986 -15.75167,3.2393 -51.439745,4.548383 -73.245141,2.686721 z M 120,72.890399 l 7.33333,-1.791391 -4.66667,-0.943601 c -14.68684,-2.969684 -28.771907,-4.65675 -39.525388,-4.734228 -15.450383,-0.11132 -37.450216,2.119104 -44.05763,4.466724 l -5.083643,1.806223 3.758354,0.98716 C 51.10158,76.185988 105.93822,76.32542 120,72.890399 Z M 62.83118,45.463226 C 60.881208,44.228101 60.460169,38.113768 61.015088,19.089851 61.392497,6.1513777 60.935408,6.4761907 78.765601,6.4761907 c 14.72835,0 16.453222,1.0352615 15.519973,9.3150273 -0.365516,3.24285 -0.110373,7.766448 0.56698,10.052437 1.564977,5.281606 0.157648,16.288999 -2.411009,18.857657 -1.464072,1.464072 -5.25685,1.960148 -14.870119,1.944938 -7.097618,-0.0112 -13.730729,-0.54359 -14.740246,-1.183024 z"
       id="path1967" />
  </g>
</svg>
