<?xml version="1.0" encoding="UTF-8" standalone="no"?>
<!-- Created with Inkscape (http://www.inkscape.org/) -->

<svg
   version="1.1"
   id="svg2"
   width="162.66667"
   height="158.66667"
   viewBox="0 0 162.66667 158.66667"
   xmlns="http://www.w3.org/2000/svg"
   xmlns:svg="http://www.w3.org/2000/svg">
  <defs
     id="defs6" />
  <g
     id="g8">
    <path
       style="fill:#000000;stroke-width:1.33333"
       d="M 16.441888,152.26742 C 12.651594,152.04783 8.8620427,151.0387 8.0206632,150.0249 7.1792837,149.0111 6.1403757,141.53752 5.7119789,133.41694 5.0371804,120.62564 5.2393141,118.31387 7.2243268,116.12045 c 2.2028085,-2.43407 4.7195492,-2.51036 65.2001302,-1.97628 34.599883,0.30553 66.920063,0.58984 71.822623,0.63179 5.35212,0.0458 9.45902,0.73329 10.2784,1.72059 1.57792,1.90128 2.38871,25.48072 1.0186,29.62331 -1.87505,5.66933 -4.03782,5.86253 -69.544078,6.21225 -34.466668,0.18401 -65.767819,0.15489 -69.558114,-0.0647 z m 37.077898,-13.07299 c 3.607546,-3.22671 9.564431,-12.55466 8.620366,-13.49872 -1.137853,-1.13785 -23.090725,-2.74189 -34.806818,-2.54323 l -10.666667,0.18086 -0.395889,8.29223 c -0.452863,9.48555 -0.713971,9.29195 13.729223,10.17982 13.781005,0.84715 20.485661,0.1028 23.519785,-2.61096 z m 90.146884,2.57888 C 147.92164,141.04988 148,140.908 148,133.92722 148,123.67354 146.90144,123.18523 125.6662,124 c -16.49156,0.63277 -17.5196,0.83619 -20.21453,4 -4.3185,5.06987 -7.142288,10.84535 -5.898465,12.06411 1.913095,1.87455 35.489235,3.17547 44.113465,1.7092 z m -52.345644,-8.4232 c 2.573436,-3.50573 4.678976,-7.08539 4.678976,-7.95481 0,-2.50355 -5.573904,-1.00705 -7.197163,1.93232 -0.808228,1.46352 -2.519504,4.25614 -3.802837,6.20582 -2.8994,4.40487 -3.078208,8.00204 -0.345643,6.95346 1.093229,-0.41951 4.093229,-3.63107 6.666667,-7.13679 z m -20.151623,4.98323 c 3.519144,-3.56422 8.675481,-12.1723 7.972595,-13.30959 -0.407039,-0.65861 -1.958328,-0.10838 -3.44731,1.22273 -2.598811,2.32326 -9.02802,11.62406 -9.02802,13.06036 0,1.30975 2.858573,0.69171 4.502735,-0.9735 z M 58.529963,98.085518 C 58.210329,97.765886 52.976886,97.197586 46.900088,96.822631 39.777798,96.383167 31.133818,94.635958 22.576503,91.906103 11.335303,88.320065 9.1777297,87.177602 8.4927928,84.448596 7.444465,80.271726 10.825579,76.489395 16.416786,75.584311 c 3.837674,-0.621228 12.589984,-2.460975 30.51819,-6.414963 8.887414,-1.96008 36.906287,-1.649747 60.716204,0.672485 11.17481,1.089904 20.77976,2.267125 21.34433,2.616046 0.56456,0.348921 5.79777,1.619939 11.62935,2.824484 5.83157,1.204544 11.37662,2.832248 12.32233,3.61712 2.26175,1.877081 2.19887,7.042808 -0.10907,8.958202 -2.67934,2.223657 -13.34457,5.006008 -25.50481,6.653712 -5.86667,0.794928 -14.9816,2.055062 -20.25541,2.800298 -9.360015,1.322654 -47.392913,1.928874 -48.547964,0.773823 z M 105.33334,87.303955 c 18.67468,-0.946037 27.28849,-2.770453 23.38756,-4.95352 -10.03911,-5.618168 -78.949619,-6.103604 -91.641853,-0.645565 -3.583317,1.540933 -3.58012,1.544762 2.666667,3.193446 3.439858,0.907866 10.754287,1.719315 16.254287,1.803222 5.5,0.08391 11.2,0.668075 12.666667,1.298149 1.466667,0.630076 6.566667,0.921266 11.333334,0.647087 4.766666,-0.274177 16.166667,-0.878445 25.333338,-1.342819 z M 66.542668,45.629744 C 63.896001,43.775946 63.707723,42.775305 64.366533,34.064311 64.763199,28.819483 64.542111,21.60763 63.875227,18.037971 61.979968,7.8931444 63.804848,6.6666668 80.79463,6.6666668 c 9.532785,0 14.02914,0.5082002 14.746012,1.6666667 1.877604,3.0342155 1.9933,35.1800715 0.131947,36.6616315 -0.919924,0.732221 -7.198586,1.631201 -13.952583,1.997735 -9.64947,0.523666 -12.900642,0.231704 -15.177338,-1.362956 z"
       id="path30" />
  </g>
</svg>
