<?xml version="1.0" encoding="UTF-8" standalone="no"?>
<!-- Created with Inkscape (http://www.inkscape.org/) -->

<svg
   version="1.1"
   id="svg2"
   width="158.66667"
   height="146.66667"
   viewBox="0 0 158.66667 146.66667"
   xmlns="http://www.w3.org/2000/svg"
   xmlns:svg="http://www.w3.org/2000/svg">
  <defs
     id="defs6" />
  <g
     id="g8">
    <path
       style="fill:#000000;stroke-width:1.33333"
       d="M 7.4851347,137.96132 C 4.6488818,135.12507 4.4731282,113.91328 7.2554702,110.24297 8.990593,107.9541 12.931531,107.8218 78.101344,107.86458 c 42.392096,0.0278 69.503736,0.5405 70.292436,1.32919 0.72516,0.72516 1.01822,6.34539 0.67342,12.91452 -0.91332,17.40114 1.30682,16.53941 -42.88158,16.64415 -19.902089,0.0472 -49.767308,0.37264 -66.367151,0.72323 -26.549088,0.56075 -30.4405092,0.37848 -32.3333343,-1.51435 z M 56.225655,125.05931 53.447673,120.66667 38.581717,120.28803 C 23.136506,119.89463 20,120.75505 20,125.38548 c 0,3.36098 1.156979,3.57047 21.168485,3.83273 l 17.835151,0.23374 z m 78.528665,2.89378 c 3.26247,-1.74602 3.43148,-7.53768 0.24568,-8.41854 -1.28333,-0.35483 -10.59332,-0.67138 -20.68887,-0.70343 l -18.355545,-0.0583 2.355542,3.21668 c 3.809543,5.20224 9.162443,6.66408 26.109863,7.13044 4.26488,0.11736 8.91488,-0.40773 10.33333,-1.16686 z m -48.087652,-0.68597 c 0,-0.40308 -0.915408,-2.50308 -2.03424,-4.66666 -1.880828,-3.63713 -2.590634,-3.93379 -9.412022,-3.93379 -7.842909,0 -7.957971,0.26464 -2.729535,6.27787 2.002859,2.30349 4.074165,3.05546 8.416244,3.05546 3.167755,0 5.759553,-0.32979 5.759553,-0.73288 z M 49.333334,85.37909 C 35.049941,84.159629 11.215636,78.243446 7.6740695,75.038372 2.0071391,69.909871 6.676868,63.725565 18,61.363339 c 4.4,-0.917927 9.033873,-2.212672 10.297495,-2.877212 1.263622,-0.66454 8.463622,-2.16585 16.000001,-3.336244 C 64.921001,51.947067 102.80453,52.925124 124,57.207601 c 3.3,0.666755 9.40472,1.828982 13.56603,2.582727 12.74213,2.307999 17.49257,5.952371 16.10768,12.357231 -0.52329,2.420161 -5.76256,5.185776 -9.82409,5.185776 -1.48038,0 -3.74183,0.562072 -5.02546,1.249048 -1.28362,0.686977 -8.59419,2.536471 -16.24568,4.109986 -15.75167,3.2393 -51.439749,4.548382 -73.245146,2.686721 z M 121.33334,71.557066 128.66667,69.765675 124,68.822074 C 109.31316,65.852389 95.22809,64.165324 84.474608,64.087845 69.024225,63.976525 47.024392,66.20695 40.416977,68.55457 l -5.083643,1.806222 3.758353,0.98716 c 13.343229,3.504703 68.179873,3.644135 82.241653,0.209114 z M 64.164516,44.129893 C 62.214544,42.894768 61.793505,36.780434 62.348424,17.756518 62.725833,4.8180444 62.268744,5.1428573 80.098938,5.1428573 c 14.728351,0 16.453223,1.0352615 15.519973,9.3150267 -0.365516,3.242851 -0.110373,7.766449 0.56698,10.052438 1.564978,5.281605 0.157648,16.288999 -2.411009,18.857656 -1.464072,1.464072 -5.256849,1.960148 -14.870119,1.944939 -7.097619,-0.0112 -13.73073,-0.543591 -14.740247,-1.183024 z"
       id="path148" />
  </g>
</svg>
