<?xml version="1.0" encoding="UTF-8" standalone="no"?>
<!-- Created with Inkscape (http://www.inkscape.org/) -->

<svg
   version="1.1"
   id="svg12"
   width="166.66667"
   height="158.66667"
   viewBox="0 0 166.66667 158.66667"
   xmlns="http://www.w3.org/2000/svg"
   xmlns:svg="http://www.w3.org/2000/svg">
  <defs
     id="defs16" />
  <g
     id="g18">
    <path
       style="fill:#000000;stroke-width:1.33333"
       d="m 142.93682,152.99218 c -0.78567,-0.94668 -1.22535,-6.30735 -1.01158,-12.33334 0.20798,-5.86236 0.45988,-14.34074 0.55979,-18.84084 0.18123,-8.16311 0.19164,-8.18349 4.51497,-8.8285 2.38334,-0.35557 5.62688,-0.15999 7.20787,0.43463 2.74681,1.0331 2.87785,1.89596 2.94913,19.41984 0.0461,11.32653 -0.4782,19.00481 -1.37113,20.08071 -1.84476,2.2228 -11.02029,2.27102 -12.84905,0.0675 z M 13.705843,150.92511 c -1.184122,-0.75236 -1.523818,-6.06016 -1.246933,-19.48358 0.339311,-16.44986 0.660219,-18.65423 2.960824,-20.33831 2.630444,-1.92553 8.074913,-1.39498 10.550587,1.02812 1.652186,1.6171 2.052709,34.40753 0.45848,37.53533 -1.25051,2.45344 -9.550126,3.27436 -12.722958,1.25844 z m 64.960825,0.10304 c -1.1,-0.41873 -2.395278,-1.36824 -2.878397,-2.11 -1.649711,-2.53293 -0.352268,-35.29867 1.485423,-37.51295 2.42817,-2.92577 10.156821,-2.66792 12.317369,0.41093 2.355338,3.35644 1.137333,34.89635 -1.468895,38.03667 -1.775665,2.13955 -5.6556,2.62183 -9.4555,1.17535 z M 33.345831,68.812499 C 31.90631,67.372977 31.456553,41.634304 32.809319,38.10905 c 0.970368,-2.528737 7.885394,-2.852611 9.445326,-0.442383 0.593279,0.916667 1.378689,5.866667 1.745356,11.000001 0.611115,8.555604 0.927952,9.370317 3.802284,9.777173 1.724589,0.244112 4.573512,0.08295 6.33094,-0.358136 3.038188,-0.762536 3.181379,-1.276124 2.911781,-10.443839 -0.155946,-5.303026 0.197264,-12.341865 0.784914,-15.641865 0.651656,-3.659432 0.525864,-7.404423 -0.322464,-9.60021 L 56.116537,18.799582 37.724935,19.066458 19.333334,19.333334 18.666667,43.05151 C 18.129379,62.166768 17.611866,67.014484 16,68.031093 12.724525,70.096947 9.6126113,69.516176 7.4554839,66.436445 5.7378165,63.984132 5.5420517,59.431291 6.1798651,36.769778 6.6554575,19.871979 7.4910719,9.3190749 8.4457952,8.1535396 10.50196,5.6433537 65.4868,6.6942771 68.631155,9.3038603 c 1.699792,1.4107017 2.035513,6.0462697 2.035513,28.1059337 0,14.529135 -0.589505,27.967123 -1.310011,29.862198 L 68.046645,70.717583 51.369154,70.437956 C 42.196533,70.284161 34.086038,69.552705 33.345831,68.812499 Z m 89.183629,-0.415246 c -5.05675,-0.781748 -14.02014,-9.930949 -15.0364,-15.348115 -1.23699,-6.593726 1.05677,-16.700355 4.6831,-20.634399 1.73644,-1.883794 5.13328,-4.266714 7.54852,-5.295377 9.22576,-3.929291 6.02902,-9.786028 -5.34144,-9.786028 -5.55529,0 -6.64666,-0.452682 -7.94119,-3.293848 -2.81714,-6.1829577 -0.036,-7.3728192 17.23319,-7.3728192 8.44179,0 17.57091,-0.6657852 20.28692,-1.4795228 4.04036,-1.2105212 5.70483,-1.0830848 9.1547,0.7009069 3.95896,2.047259 4.90684,3.9991761 4.26302,8.7786161 -0.47392,3.518213 -2.64749,4.628136 -10.422,5.321932 -5.84185,0.521328 -7.70076,1.216536 -8.04174,3.007516 -0.27684,1.454082 0.7203,2.778579 2.65352,3.524631 5.48142,2.11536 12.73517,10.632821 14.27997,16.767771 1.15385,4.582395 1.05683,6.740831 -0.46701,10.387873 -2.84376,6.806086 -10.0489,12.483275 -18.00979,14.190582 -6.85647,1.470449 -8.40421,1.525743 -14.84337,0.530281 z"
       id="path1828" />
  </g>
</svg>
