<?xml version="1.0" encoding="UTF-8" standalone="no"?>
<!-- Created with Inkscape (http://www.inkscape.org/) -->

<svg
   version="1.1"
   id="svg22"
   width="158.66667"
   height="173.33333"
   viewBox="0 0 158.66667 173.33333"
   xmlns="http://www.w3.org/2000/svg"
   xmlns:svg="http://www.w3.org/2000/svg">
  <defs
     id="defs26" />
  <g
     id="g28">
    <path
       style="fill:#000000;stroke-width:1.33333"
       d="m 36.333334,167.99978 c -3.661092,-1.52202 -4.083827,-7.3264 -0.666667,-9.15368 1.283334,-0.68625 6.185495,-1.24736 10.893691,-1.24692 7.413287,7.1e-4 8.883294,-0.41905 10.970354,-3.13252 5.432892,-7.06353 1.101089,-15.18517 -11.124004,-20.85625 C 41.3543,131.26665 34.740446,126.56478 29.830745,121.82635 15.11687,107.62575 13.670323,92.384752 25.365278,74.777655 28.263822,70.413812 31.304069,66.430108 32.121382,65.924981 34.694759,64.334547 39.657483,52.142674 39.042025,48.92311 38.049162,43.729283 33.751399,42.152126 19.683871,41.819215 5.4507874,41.482387 4.0000001,41.063323 4.0000001,37.288883 c 0,-2.734973 6.1129909,-6.622217 10.4139479,-6.622217 1.400507,0 4.773023,-2.1 7.494483,-4.666667 8.593235,-8.104462 19.400669,-5.952389 26.505561,5.278028 6.541789,10.34034 4.60905,22.69382 -6.421852,41.04655 -3.315583,5.516319 -5.688366,10.915608 -5.272853,11.99842 1.575767,4.106381 6.743894,5.450837 16.89581,4.395339 13.079988,-1.359931 17.317134,-1.150271 29.051571,1.437506 12.306265,2.713882 26.275492,9.142392 36.962812,17.009948 9.47778,6.97715 14.46899,9.68358 23.55268,12.77122 8.00166,2.71985 9.48788,4.73996 8.26867,11.23894 -1.10215,5.87497 -5.358,8.22041 -11.01409,6.06997 -1.9598,-0.74512 -4.5098,-0.95055 -5.66667,-0.45651 -1.15687,0.49404 -10.5034,1.06029 -20.77007,1.25835 -19.085058,0.36816 -21.404046,1.16916 -15.623074,5.3963 1.978744,1.4469 2.032594,2.48974 0.50934,9.86458 C 95.732137,168.57942 96.340486,168 83.461574,168 c -8.608756,0 -11.780948,-0.50986 -13.429569,-2.15847 -1.974325,-1.97433 -1.977486,-2.35847 -0.03705,-4.50263 1.28004,-1.41442 4.798795,-2.6014 8.872022,-2.99278 6.73183,-0.64686 9.073928,-2.34024 9.112607,-6.58867 0.02653,-2.91376 -6.942894,-7.84712 -11.543391,-8.17108 -3.02355,-0.21292 -3.733047,0.40437 -4.474738,3.89317 -0.484797,2.28042 -1.874451,5.56392 -3.088119,7.29668 -1.213664,1.73275 -2.206665,5.04416 -2.206665,7.3587 0,3.3753 -0.725725,4.47486 -3.666667,5.55542 -4.702556,1.72779 -22.751141,1.93723 -26.666667,0.30944 z M 114,67.0327 c -6.27602,-3.065812 -11.33333,-12.061562 -11.33333,-20.159284 0,-5.741942 0.66061,-7.533017 4.3125,-11.692295 2.37188,-2.701419 6.29798,-5.741256 8.72468,-6.755196 2.4267,-1.013939 4.7532,-2.732207 5.17,-3.818372 1.13251,-2.95126 -2.16185,-6.089911 -6.08448,-5.796905 -8.2895,0.619193 -12.05299,-0.189044 -13.50389,-2.900059 -1.14463,-2.138765 -1.0071,-3.470193 0.61404,-5.9443575 2.07519,-3.167149 2.2455,-3.1879174 25.69522,-3.1334524 20.42882,0.047448 23.8337,0.354021 25.29665,2.2776911 C 157.51722,15.193133 153.29079,20 143.31679,20 c -10.87583,0 -11.18771,3.187936 -1.03153,10.544143 7.44541,5.392782 9.7811,9.246308 9.92416,16.373333 0.15338,7.641604 -2.94959,13.486512 -9.79063,18.442144 -4.94327,3.580877 -6.42141,3.956577 -14.95217,3.800388 C 122.21454,69.063849 116.2192,68.116771 114,67.0327 Z"
       id="path1689" />
  </g>
</svg>
