<?xml version="1.0" encoding="UTF-8" standalone="no"?>
<!-- Created with Inkscape (http://www.inkscape.org/) -->

<svg
   version="1.1"
   id="svg32"
   width="150.66667"
   height="152"
   viewBox="0 0 150.66667 152"
   xmlns="http://www.w3.org/2000/svg"
   xmlns:svg="http://www.w3.org/2000/svg">
  <defs
     id="defs36" />
  <g
     id="g38">
    <path
       style="fill:#000000;stroke-width:1.33333"
       d="m 29.744166,146.08945 c -7.244191,-3.22657 -9.128291,-16.95182 -3.356199,-24.44916 1.669056,-2.16793 4.213728,-3.23805 8.970999,-3.77261 6.034016,-0.67803 7.03187,-0.3826 10.916935,3.23209 5.264535,4.89816 6.548832,9.55636 4.510491,16.35975 -2.513366,8.38885 -12.4416,12.46068 -21.042226,8.62993 z m 72.352334,-1.20508 c -2.791448,-2.79144 -3.429831,-4.70104 -3.429831,-10.25966 0,-5.77099 0.604229,-7.43407 3.897431,-10.72727 9.41432,-9.41432 25.73002,-0.14287 23.45415,13.32789 -1.19793,7.09047 -4.58899,9.77008 -13.27575,10.49046 -6.39617,0.53042 -7.60591,0.20868 -10.646,-2.83142 z M 64.763167,106.21771 c -2.79145,-2.79145 -3.429832,-4.70104 -3.429832,-10.259669 0,-5.770988 0.604229,-7.434065 3.897436,-10.727272 9.414312,-9.414312 25.730015,-0.142862 23.454144,13.327892 -1.197928,7.090479 -4.588992,9.770089 -13.275745,10.490459 -6.396176,0.53042 -7.605914,0.20868 -10.646003,-2.83141 z M 136.62038,74.731301 c -1.49212,-0.604817 -3.51559,-2.066786 -4.49659,-3.248818 -2.23736,-2.695843 -4.93602,-2.763614 -5.93929,-0.14915 -1.6724,4.358208 -9.11891,1.07197 -12.64186,-5.579012 C 112.69419,64.152532 112,59.869003 112,56.235367 c 0,-8.859271 -2.85199,-12.28325 -10.99589,-13.201184 l -6.223991,-0.701535 0.780564,4.810048 c 0.603524,3.719087 0.282815,5.001053 -1.414006,5.652184 C 91.405103,53.846921 84.522773,51.154229 79.564368,47.089596 76.3274,44.436105 74.304212,44 65.231035,44 c -5.810402,0 -10.545284,0.45 -10.521963,1 0.02332,0.55 0.923323,2.164677 2,3.588173 7.838996,10.364079 -7.484866,10.939643 -15.791426,0.593126 C 38.924165,46.698251 36.690714,43.929716 35.954422,43.029 35.068178,41.944845 32.652707,41.660392 28.807813,42.187393 21.083412,43.24614 14.257447,40.819353 8.6133321,35.007793 3.2280222,29.462717 2.8725455,26.829085 7.0000002,23.055049 12.398715,18.118607 18.255603,16 26.503681,16 33.178071,16 34.868017,15.509516 36.903227,12.981675 40.894714,8.0240327 46.821964,4 50.132901,4 53.357064,4 56.747447,8.3785857 55.316304,10.694222 54.817071,11.502 58.320016,12 64.501179,12 c 5.49554,0 11.605324,0.613427 13.5773,1.363171 2.960525,1.125589 4.572532,0.784678 9.249239,-1.956055 7.419911,-4.3483572 17.235792,-6.5796029 20.726632,-4.7113643 3.57998,1.9159472 3.30531,3.1880992 -1.69793,7.8640323 l -4.31025,4.02828 7.69366,6.857255 c 4.23152,3.771489 8.84954,9.122953 10.26228,11.892142 1.62256,3.180483 4.02802,5.543644 6.53106,6.416207 4.00229,1.395205 8.12861,7.401129 8.13923,11.846785 0.003,1.319751 2.40316,5.561719 5.33334,9.426595 2.93018,3.864877 5.3276,7.914877 5.3276,9 0,2.160243 -4.26955,2.505343 -8.71296,0.704253 z"
       id="path1550" />
  </g>
</svg>
