<?xml version="1.0" encoding="UTF-8" standalone="no"?>
<!-- Created with Inkscape (http://www.inkscape.org/) -->

<svg
   version="1.1"
   id="svg42"
   width="166.66667"
   height="156"
   viewBox="0 0 166.66667 156"
   xmlns="http://www.w3.org/2000/svg"
   xmlns:svg="http://www.w3.org/2000/svg">
  <defs
     id="defs46" />
  <g
     id="g48">
    <path
       style="fill:#000000;stroke-width:1.33333"
       d="m 48.666668,147.32309 c -13.336591,-2.46021 -25.863137,-5.72328 -31.75086,-8.27082 -4.466385,-1.93255 -4.981485,-2.6162 -4.238982,-5.62607 1.212522,-4.91517 1.615014,-5.15218 14.751945,-8.68659 37.661974,-10.13272 63.602067,-10.35429 113.904569,-0.97289 13.41337,2.50159 18.66666,5.77422 18.66666,11.62875 0,6.94444 -39.72248,13.88034 -78.666665,13.7359 -12.947362,-0.048 -27.487722,-0.8529 -32.666667,-1.80828 z M 110,137.94884 c 7.33334,-0.43245 16.02916,-1.45581 19.32406,-2.27412 l 5.99073,-1.48783 -3.99073,-1.13027 c -16.22907,-4.59649 -44.09076,-6.78122 -63.486551,-4.97819 -18.038367,1.67683 -26.596426,3.05802 -29.645452,4.78449 -2.058874,1.1658 -1.107107,1.67025 5.665245,3.00263 4.476922,0.88078 13.990496,1.9242 21.141278,2.31869 7.150781,0.39451 13.275524,0.98855 13.610538,1.32008 0.335014,0.33155 4.535014,0.29411 9.333333,-0.0832 4.79832,-0.37729 14.724219,-1.03983 22.057549,-1.47228 z M 11.666667,72.382428 C 9.6617031,70.154853 9.3466839,67.084023 9.428199,50.561679 9.5551487,24.830124 10.891727,10.849892 13.374987,9.2793743 14.452078,8.5981772 24.740476,8.0316464 36.238095,8.0204171 c 17.350734,-0.016947 21.265258,0.3400774 23.025189,2.1000079 1.833603,1.833604 2.071929,6.117036 1.761904,31.666667 l -0.35852,29.546241 -14,0.83859 c -7.700001,0.461224 -18.200001,1.280561 -23.333334,1.820749 -8.285906,0.871939 -9.595191,0.691229 -11.666667,-1.610244 z M 92.269462,71.207455 C 88.4093,68.385439 91.372511,63.286604 99.057905,59.526491 108.50015,54.906829 110.83789,52.152121 117.32603,38 c 6.17124,-13.460891 10.8647,-19.036267 20.8374,-24.752815 6.81119,-3.9042999 13.15336,-4.2957505 17.29685,-1.067593 1.7215,1.3412 0.93974,57.105949 -0.82689,58.984401 -1.66501,1.770402 -59.946135,1.811018 -62.363928,0.04347 z"
       id="path1411" />
  </g>
</svg>
