<?xml version="1.0" encoding="UTF-8" standalone="no"?>
<!-- Created with Inkscape (http://www.inkscape.org/) -->

<svg
   version="1.1"
   id="svg52"
   width="168"
   height="164"
   viewBox="0 0 168 164"
   xmlns="http://www.w3.org/2000/svg"
   xmlns:svg="http://www.w3.org/2000/svg">
  <defs
     id="defs56" />
  <g
     id="g58">
    <path
       style="fill:#000000;stroke-width:1.33333"
       d="M 23.901199,157.04296 C 21.323743,156.08236 20.888901,154.94309 21.213,150 c 0.322717,-4.92205 -4.958327,-20.5107 -8.538813,-25.20496 -2.085567,-2.73432 -3.3661346,-5.91395 -3.1098609,-7.72174 0.3934511,-2.77545 1.2276939,-3.11137 8.6081019,-3.46608 l 8.172428,-0.39278 0.843329,-5.27389 c 0.463831,-2.90063 1.436238,-5.27388 2.160906,-5.27388 0.728705,0 1.317576,-3.761067 1.317576,-8.415255 C 30.666667,85.580621 33.521325,80 37.956703,80 40.989617,80 44,83.930901 44,87.891225 c 0,2.035412 1.2,5.08436 2.666667,6.775442 2.798338,3.22651 3.007878,4.053645 3.208873,12.666663 l 0.124453,5.33334 7.864018,0.66666 c 9.904589,0.83966 12.086461,3.37347 7.844973,9.11039 -5.674496,7.67517 -9.960201,18.1484 -10.349284,25.29116 -0.211761,3.88752 -0.801933,7.48752 -1.311492,8 -1.32644,1.33405 -27.079156,2.45147 -30.147016,1.30808 z m 97.934031,-2.81107 c -7.23522,-2.71918 -10.83511,-8.48656 -11.87326,-19.02214 -0.86343,-8.7624 -0.7095,-9.57571 2.544,-13.44228 1.90467,-2.26357 5.56191,-5.11156 8.1272,-6.32887 5.247,-2.48987 7.72429,-6.03618 6.07769,-8.70042 -0.80083,-1.29577 -2.87599,-1.55547 -7.57363,-0.9478 C 111.49229,106.7793 109,105.5579 109,100.82241 c 0,-7.019501 1.51925,-7.489077 24.22993,-7.489077 22.91046,0 24.1034,0.372867 24.1034,7.533747 0,5.18626 -3.09226,7.48934 -7.41264,5.52085 -2.00208,-0.91221 -3.79322,-0.85985 -5.71186,0.16698 -3.94771,2.11274 -1.68511,6.49756 5.79452,11.22952 7.05902,4.46588 9.31237,9.9825 7.99372,19.5702 -1.1006,8.00233 -4.66667,12.83522 -11.89227,16.11693 -6.18136,2.80743 -17.84995,3.173 -24.26957,0.76033 z M 8.1533515,43.518111 C 7.30985,42.501753 6.5045135,35.818267 6.3234252,28.331556 5.7773317,5.7544756 5.3467017,5.8946659 70.332109,7.4937279 c 26.21734,0.6451162 55.499561,0.9688822 65.071601,0.7194797 14.45522,-0.3766353 17.69342,-0.1043787 19.11376,1.6070184 2.66076,3.206016 2.78862,32.513527 0.1492,34.196794 -1.20796,0.770361 -30.31694,1.283565 -73.50341,1.295896 C 22.447515,45.329681 9.3904301,45.008699 8.1533515,43.518111 Z M 53.401553,32.998372 C 57.431271,29.446291 63.296737,20.185627 62.207017,19.095907 61.786911,18.6758 51.368471,18.25736 39.054928,18.166039 L 16.666667,18 v 8 8 L 22,34.810793 c 2.933333,0.445936 10.433333,0.895203 16.666667,0.998371 10.005434,0.165601 11.731885,-0.163733 14.734886,-2.810792 z m 91.884177,1.058979 c 1.12003,-1.349544 1.34882,-4.110338 0.7197,-8.684592 l -0.92234,-6.706092 -11.54154,-0.300484 c -21.43382,-0.558028 -22.74937,-0.344278 -27.75782,4.510102 -4.42997,4.293692 -6.729579,9.181276 -5.36139,11.39506 0.37037,0.599264 10.24669,1.241432 21.94739,1.427039 17.47584,0.277216 21.56715,-0.01576 22.916,-1.641033 z M 73.953991,28.333333 c 4.677796,-6.3759 5.832616,-9.666666 3.392297,-9.666666 -1.643511,0 -10.60148,12.059996 -10.646567,14.333333 -0.06581,3.318643 2.702043,1.53808 7.25427,-4.666667 z M 96,19.702549 c 0,-0.569736 -1.05,-1.020412 -2.333333,-1.001502 -3.355286,0.04944 -12.06175,13.152044 -9.706538,14.607645 1.239323,0.765944 3.315052,-0.958621 6.905892,-5.737579 C 93.689709,23.813139 96,20.272284 96,19.702549 Z"
       id="path1272" />
  </g>
</svg>
