<?xml version="1.0" encoding="UTF-8" standalone="no"?>
<!-- Created with Inkscape (http://www.inkscape.org/) -->

<svg
   version="1.1"
   id="svg62"
   width="166.66667"
   height="166.66667"
   viewBox="0 0 166.66667 166.66667"
   xmlns="http://www.w3.org/2000/svg"
   xmlns:svg="http://www.w3.org/2000/svg">
  <defs
     id="defs66" />
  <g
     id="g68">
    <path
       style="fill:#000000;stroke-width:1.33333"
       d="M 9.2946423,154.84436 C 6.9933017,152.92887 6.6617161,150.84208 6.540686,137.51275 6.4282432,125.12914 6.8020656,121.9604 8.5855339,120.17941 c 1.9663901,-1.96365 9.2243441,-2.1749 73.3150041,-2.13392 57.398492,0.0367 71.547692,0.39002 73.282682,1.82992 2.93614,2.43679 3.14578,30.25314 0.25777,34.20309 -1.8292,2.5018 -4.25576,2.5941 -72.711172,2.76586 -63.72652,0.1599 -71.080838,-0.0404 -73.4351757,-2 z M 53.046834,143.3698 c 4.492563,-3.78024 8.668149,-11.51968 7.075141,-13.11376 C 58.635772,128.76883 23.881215,128.19858 21,129.61412 c -1.753173,0.86134 -2.333333,2.78599 -2.333333,7.74072 0,7.76291 0.0083,7.7669 17.333334,8.37272 6.233333,0.21798 11.737299,0.51844 12.231033,0.66771 0.493735,0.14927 2.660844,-1.21219 4.8158,-3.02547 z m 92.034646,-4.46833 c 0.65035,-9.03875 -0.40405,-9.57108 -18.9114,-9.54772 -8.89354,0.0112 -16.77973,0.46123 -17.52487,1 C 105.34501,132.73998 100,140.43576 100,142.8012 c 0,2.48446 0.96461,2.58083 22.33334,2.23104 l 22.33333,-0.36557 z m -70.927972,-1.16203 c 2.482238,-2.70997 4.49712,-5.55997 4.477515,-6.33333 -0.03224,-1.27173 -10.631022,9.40389 -10.631022,10.70809 0,1.54863 2.086831,0.0651 6.153507,-4.37476 z m 17.257391,-0.37458 c 2.15734,-2.916 4.445903,-5.31601 5.085696,-5.33334 0.639792,-0.0173 0.410186,-0.93892 -0.510238,-2.04796 -2.082754,-2.50956 -3.917431,-1.1688 -9.496265,6.93975 -3.48463,5.06475 -3.6591,5.74336 -1.476581,5.74336 1.361223,0 4.240047,-2.38581 6.397388,-5.30181 z M 7.6666668,75.065763 C 5.6981732,72.864647 5.3349157,69.762871 5.3434525,55.228346 5.354439,36.522945 7.2300291,16.236638 9.1235342,14.343132 11.125774,12.340894 58.395652,12.066877 60.03982,14.047979 60.873047,15.051955 61.666963,27.066477 62.006844,43.81543 62.684839,77.226234 63.185148,75.997019 48.904762,76.006066 43.640477,76.0094 32.733334,76.386238 24.666667,76.84348 11.199872,77.60682 9.8091114,77.461386 7.6666668,75.065763 Z M 106.3886,68.199416 c -13.305462,-1.553855 -13.378459,-4.607192 -0.43989,-18.399798 9.81266,-10.460368 9.86534,-9.824877 -1.77068,-21.358436 -12.94658,-12.83258 -12.340187,-15.70304 3.97579,-18.8199909 19.50174,-3.7255496 31.00181,-1.554904 41.71285,7.8733279 7.28171,6.40962 9.39999,12.696418 8.4228,24.997954 -1.35873,17.104739 -12.25044,25.821738 -32.88671,26.320327 -6.27151,0.151525 -14.82789,-0.124493 -19.01416,-0.613384 z"
       id="path1133" />
  </g>
</svg>
