<?xml version="1.0" encoding="UTF-8" standalone="no"?>
<!-- Created with Inkscape (http://www.inkscape.org/) -->

<svg
   version="1.1"
   id="svg72"
   width="104"
   height="156"
   viewBox="0 0 104 156"
   xmlns="http://www.w3.org/2000/svg"
   xmlns:svg="http://www.w3.org/2000/svg">
  <defs
     id="defs76" />
  <g
     id="g78">
    <path
       style="fill:#000000;stroke-width:1.33333"
       d="m 86.816052,150.55707 c -2.952239,-1.18119 -3.129764,-1.79891 -2.439384,-8.48803 0.409511,-3.96779 0.03844,-10.70649 -0.824613,-14.97493 -0.863048,-4.26842 -1.265326,-9.86078 -0.89395,-12.42744 0.631946,-4.36754 1.017095,-4.68897 6.008562,-5.01455 8.966905,-0.58489 9.280342,0.0602 9.766349,20.10173 0.368207,15.18378 0.104507,18.18482 -1.761905,20.05123 -2.444487,2.44448 -5.115484,2.64829 -9.855059,0.75199 z M 5.8866044,149.14985 c -0.5155925,-0.83424 -1.0985519,-9.08424 -1.2954652,-18.33333 -0.44002,-20.66789 0.7071872,-23.53001 8.9863038,-22.41955 2.920201,0.39169 5.664786,1.06748 6.099077,1.50177 0.434292,0.43429 0.933813,8.89281 1.110049,18.79671 0.257479,14.46958 -0.06895,18.39646 -1.661642,19.98915 -2.327568,2.32756 -11.8798693,2.66328 -13.2383226,0.46525 z m 38.8048886,0.22366 c -0.43957,-0.71124 -1.134126,-9.1285 -1.543458,-18.70502 -0.830754,-19.4359 -0.228943,-21.33516 6.760385,-21.33516 8.212939,0 8.934512,1.58436 9.192625,20.18425 0.267195,19.25435 -0.49601,21.14909 -8.518949,21.14909 -2.800261,0 -5.451032,-0.58192 -5.890603,-1.29316 z M 38.666667,67.130575 c -5.813687,-1.915314 -8.447222,-4.251243 -10.978963,-9.738271 -3.173037,-6.8769 -3.895497,-21.262125 -1.229185,-24.474833 0.89385,-1.077026 4.89611,-3.374058 8.89391,-5.104516 5.696959,-2.465944 7.273647,-3.794999 7.291483,-6.146288 0.02099,-2.767566 -0.574084,-3 -7.680571,-3 -11.984064,0 -17.87013,-6.212226 -10.666666,-11.2577283 2.388597,-1.6730382 7.18974,-2.0756054 24.754322,-2.0756054 23.013244,0 26.962295,0.8378908 26.928586,5.7135787 -0.03649,5.27742 -2.176388,6.88004 -10.146407,7.598869 -8.449588,0.762082 -10.186901,2.674648 -5.713959,6.290359 14.564428,11.773177 17.087759,16.296536 14.484352,25.964851 -3.362966,12.489105 -10.18421,17.162281 -24.805074,16.993746 -5.022506,-0.05789 -10.031828,-0.401768 -11.131828,-0.764162 z"
       id="path994" />
  </g>
</svg>
