<?xml version="1.0" encoding="UTF-8" standalone="no"?>
<!-- Created with Inkscape (http://www.inkscape.org/) -->

<svg
   version="1.1"
   id="svg82"
   width="162.66667"
   height="162.66667"
   viewBox="0 0 162.66667 162.66667"
   xmlns="http://www.w3.org/2000/svg"
   xmlns:svg="http://www.w3.org/2000/svg">
  <defs
     id="defs86" />
  <g
     id="g88">
    <path
       style="fill:#000000;stroke-width:1.33333"
       d="m 7.8703752,153.20371 c -4.0675717,-4.06757 -2.6308,-10.47064 4.7847858,-21.32373 5.138039,-7.51978 7.251617,-9.40567 13.870026,-12.37583 14.943637,-6.70631 36.507177,-3.31109 45.179313,7.11357 8.720996,10.48339 12.528474,25.06995 7.277467,27.8802 -1.293253,0.69214 -17.18404,1.32246 -35.312861,1.40072 -31.940679,0.13791 -33.04936,0.0544 -35.7987308,-2.69493 z M 124.09077,144.2013 c -8.95757,-9.34018 -26.862047,-35.24085 -28.350499,-41.01192 -0.398697,-1.54584 -0.173546,-3.795843 0.500334,-5.000001 1.7545,-3.135117 9.423455,-2.84055 12.426065,0.47729 1.32731,1.466671 3.07031,2.673041 3.87332,2.680841 0.803,0.008 4.46001,2.40141 8.12668,5.31916 3.66667,2.91774 7.18727,5.31137 7.82356,5.31916 2.77447,0.034 20.89019,15.07087 21.60952,17.9369 1.53968,6.13459 -7.55151,16.14933 -16.49015,18.16533 -4.37359,0.9864 -5.1489,0.66982 -9.51883,-3.88676 z M 126,67.757513 c -9.84857,-2.343633 -15.53312,-2.757721 -17.04893,-1.241916 -2.81029,2.81029 -9.432275,1.690075 -13.122673,-2.21991 C 92.95581,61.252173 90.459159,60.313663 81.832726,59.034595 66.042987,56.693402 42.763972,46.581533 32.996159,37.82111 28.65309,33.925958 27.063614,33.333334 20.9595,33.333334 c -8.514936,0 -12.9679524,-2.664521 -12.9390828,-7.742272 0.026641,-4.685794 1.0797785,-6.079879 6.3129168,-8.356694 3.26684,-1.421325 4.333333,-2.72405 4.333333,-5.293183 0,-4.5977364 2.320623,-6.6078516 7.628586,-6.6078516 4.647792,0 5.909596,1.6091335 7.665058,9.7749786 0.780567,3.630947 1.025734,3.736702 6.425611,2.771726 3.087743,-0.551791 9.664079,-0.905163 14.614079,-0.785272 7.979994,0.193278 9,-0.06457 9,-2.275131 0,-6.6642439 8.914502,-6.8639267 12.799758,-0.286712 1.524816,2.581307 3.682429,4.079449 6.543967,4.543813 2.348008,0.38103 17.966714,0.182662 34.708224,-0.440816 18.67765,-0.695582 31.33975,-0.651601 32.76996,0.113827 3.09936,1.658727 4.31769,5.875214 2.61624,9.054416 -1.31412,2.455454 -2.72828,2.540115 -31.32238,1.875163 -16.47037,-0.383015 -30.884452,-0.336324 -32.031291,0.10376 -1.827368,0.701227 -1.729011,1.505893 0.795567,6.508533 4.274863,8.470966 8.985059,14.389763 12.521374,15.734269 3.02923,1.151708 39.36793,6.249352 45.70512,6.411576 6.43181,0.164648 9.43024,6.77774 4.31445,9.515625 C 150.29031,69.628576 133.35512,69.507788 126,67.757513 Z M 83.71006,44.333334 c -0.861357,-2.016666 -3.120628,-6.066667 -5.0206,-9 -3.317822,-5.122329 -3.814609,-5.373316 -12.556788,-6.343936 -5.578911,-0.619412 -11.141138,-0.4616 -14.369432,0.407689 l -5.267138,1.418294 3.085283,2.379818 c 9.703739,7.484937 24.904317,14.618065 31.390031,14.730305 4.193494,0.07257 4.264274,-0.02027 2.738644,-3.59217 z"
       id="path855" />
  </g>
</svg>
