<?xml version="1.0" encoding="UTF-8" standalone="no"?>
<!-- Created with Inkscape (http://www.inkscape.org/) -->

<svg
   version="1.1"
   id="svg92"
   width="162.66667"
   height="162.66667"
   viewBox="0 0 162.66667 162.66667"
   xmlns="http://www.w3.org/2000/svg"
   xmlns:svg="http://www.w3.org/2000/svg">
  <defs
     id="defs96" />
  <g
     id="g98">
    <path
       style="fill:#000000;stroke-width:1.33333"
       d="m 120.66667,157.64644 c -10.94622,-0.3225 -12.23861,-0.64453 -14.71714,-3.66714 l -2.71713,-3.31359 -5.231457,2.66715 c -3.87757,1.97689 -7.832725,2.66186 -15.282864,2.64673 -5.528276,-0.0107 -10.847539,-0.52515 -11.820586,-1.14204 -0.973045,-0.61691 -4.573045,-0.56697 -8,0.11093 -3.426953,0.67795 -16.730825,1.17211 -29.564159,1.09816 C 13.264183,155.931 9.7668443,155.6029 8.3333335,153.70126 c -2.1367926,-2.83459 -2.1025536,-4.59547 0.1492333,-7.67496 1.6810512,-2.29898 2.7720712,-2.38158 14.6918312,-1.11224 17.346973,1.84726 23.068322,0.51246 27.426974,-6.39879 1.797421,-2.85007 3.747421,-5.18193 4.333333,-5.18193 0.585913,0 1.065296,-0.8903 1.065296,-1.97843 0,-1.71729 -0.591927,-1.69616 -4.484484,0.16007 -3.888947,1.85452 -4.995608,1.89461 -8.333333,0.30191 -5.459805,-2.6053 -5.610609,-7.33041 -0.499084,-15.63769 4.519718,-7.34548 8.891053,-9.49532 19.316901,-9.50011 7.379426,-0.003 22.000001,9.37937 22.000001,14.11851 0,0.89761 1.846034,3.18536 4.1023,5.08388 3.267503,2.74942 5.519515,3.45186 11.066667,3.45186 7.644421,0 10.164371,-1.57005 10.164371,-6.33288 0,-9.12699 7.95674,-15.32455 19.49746,-15.1867 10.83066,0.12938 18.47763,4.95642 17.60488,11.11285 -0.38334,2.70424 -1.05918,3.01821 -5.62676,2.61399 -2.85509,-0.25268 -6.41822,-1.60268 -7.91807,-3 -3.14919,-2.93392 -8.52033,-3.24312 -11.89085,-0.68454 -4.23966,3.21837 -2.47165,4.43657 6.66667,4.59351 9.69128,0.16642 11.22707,0.40393 16.33333,2.52587 4.91244,2.04141 7.42914,5.42523 10.67855,14.3579 3.22316,8.86048 3.65877,13.52934 1.46683,15.72129 -1.78438,1.78437 -19.34439,3.06719 -35.47871,2.59181 z M 98.978167,69.554067 C 97.974054,68.916712 97.025155,64.466439 96.637071,58.574484 96.278145,53.125185 95.351954,46.266668 94.57887,43.333334 c -0.773084,-2.933333 -1.615885,-6.533333 -1.872893,-8 -0.371698,-2.121163 -5.316746,-14.658395 -9.529965,-24.161415 -0.364488,-0.822112 0.32485,-2.4823028 1.53186,-3.6893138 1.940382,-1.9403806 6.06361,-2.1533342 35.598878,-1.8385852 28.95029,0.3085151 33.58403,0.6410788 34.7522,2.4941736 1.00491,1.5940993 0.0981,5.0479194 -3.5634,13.5728964 -5.30301,12.346701 -9.94591,28.323796 -11.3092,38.917174 -1.0032,7.795267 -4.64329,10.669997 -10.79523,8.525421 -2.34217,-0.816485 -4.88871,-0.771762 -7.25367,0.127387 -4.28417,1.628839 -20.71804,1.822553 -23.159283,0.272991 z M 16.501895,67.565231 C 9.2666722,64.846047 5.6667856,59.078667 4.6286352,48.543076 3.7652109,39.780679 3.9191323,38.967374 7.1726399,35.100799 9.0773083,32.83723 12.734545,29.989239 15.299832,28.77193 20.546842,26.282061 23.024123,22.735755 21.377531,20.071512 20.5767,18.775742 18.50154,18.516047 13.803898,19.123714 6.1589519,20.11263 3.6666667,18.891231 3.6666667,14.155744 c 0,-7.0241873 1.5105095,-7.4890772 24.3333343,-7.4890772 23.315229,0 24.509392,0.4144916 23.757641,8.2462352 -0.411298,4.2849 -0.608269,4.420852 -6.424308,4.434125 -3.3,0.0075 -6.727375,0.478957 -7.616387,1.047615 -2.684221,1.716961 0.514174,6.649575 6.953067,10.723123 7.05903,4.465876 9.312371,9.982496 7.993726,19.570196 -1.100603,8.002338 -4.666668,12.835226 -11.892274,16.116932 -6.18136,2.807434 -17.849951,3.172998 -24.269571,0.760338 z"
       id="path716" />
  </g>
</svg>
