<?xml version="1.0" encoding="UTF-8" standalone="no"?>
<!-- Created with Inkscape (http://www.inkscape.org/) -->

<svg
   version="1.1"
   id="svg102"
   width="161.33333"
   height="156"
   viewBox="0 0 161.33333 156"
   xmlns="http://www.w3.org/2000/svg"
   xmlns:svg="http://www.w3.org/2000/svg">
  <defs
     id="defs106" />
  <g
     id="g108">
    <path
       style="fill:#000000;stroke-width:1.33333"
       d="m 9.0216466,147 c -1.73995,-1.97243 -1.9833814,-6.24256 -1.5738285,-27.60718 L 7.9323097,94.118972 11.6358,90.415481 c 3.59437,-3.59437 4.290877,-3.736237 23.639298,-4.814962 21.297769,-1.187407 33.778549,-0.0932 36.253905,3.178438 1.050205,1.388039 1.46773,10.593019 1.333333,29.395373 -0.241624,33.80338 1.15133,31.76951 -20.862337,30.46126 -8.433333,-0.50119 -16.083333,-1.52268 -17,-2.27002 -2.264273,-1.84596 -2.322241,-29.17666 -0.06667,-31.43224 2.04629,-2.04629 8.614009,-2.07777 9.868907,-0.0473 0.527792,0.85398 1.097479,5.42795 1.265971,10.16438 0.31734,8.9206 1.519928,10.90874 6.598455,10.90874 5.993367,0 6.646953,-1.69352 7.039931,-18.24138 0.205296,-8.64478 -0.201626,-16.58348 -0.904272,-17.64157 -0.960384,-1.446211 -5.190625,-2.042347 -17.039931,-2.401309 -8.669317,-0.262628 -16.571575,0.07507 -17.560572,0.750433 -1.338317,0.913916 -1.979705,6.983716 -2.508004,23.734646 -0.390404,12.37868 -1.252334,23.5567 -1.915401,24.84003 -0.71434,1.38257 -2.732131,2.33333 -4.952012,2.33333 -2.060541,0 -4.672682,-1.05 -5.8047584,-2.33333 z M 117.33333,145.79724 c -5.81369,-1.91531 -8.44722,-4.25124 -10.97896,-9.73827 -3.17304,-6.8769 -3.8955,-21.26212 -1.22919,-24.47483 0.89385,-1.07703 4.89611,-3.37406 8.89391,-5.10452 5.88247,-2.54624 7.27307,-3.75466 7.29149,-6.33623 0.0221,-3.103182 -0.19401,-3.167285 -7.94727,-2.356907 -7.06479,0.738416 -8.27631,0.504274 -10.66667,-2.061475 -3.508735,-3.766185 -3.417451,-7.068923 0.2667,-9.649403 C 105.35194,84.402567 110.15308,84 127.71766,84 c 23.01324,0 26.9623,0.837891 26.92859,5.713579 -0.0365,5.27742 -2.17639,6.88004 -10.14641,7.598869 -8.44959,0.762081 -10.1869,2.674648 -5.71396,6.290362 14.56442,11.77317 17.08776,16.29653 14.48436,25.96485 -3.36298,12.4891 -10.18422,17.16227 -24.80508,16.99374 -5.02251,-0.0579 -10.03183,-0.40176 -11.13183,-0.76416 z M 9.6573014,82.457301 C 6.8475847,79.647585 7.795459,74.289163 12.813667,64.614071 c 5.999115,-11.56628 6.496329,-12.171296 10.656081,-12.966483 2.27829,-0.435523 4.569515,0.346204 6.993919,2.386204 3.185931,2.680785 3.90283,2.816588 6.159144,1.166731 3.751651,-2.743274 6.523313,-2.296155 9.909783,1.598628 l 3.013489,3.465817 2.97956,-2.799151 c 3.444065,-3.23553 9.094764,-3.666382 11.415237,-0.870384 1.39128,1.67639 2.204988,1.640619 6.218663,-0.273369 4.351549,-2.075109 4.883787,-2.05896 9.226898,0.279959 4.297681,2.314454 4.773809,2.332918 7.049585,0.273369 3.307493,-2.99324 7.849671,-2.782568 9.873403,0.457941 2.165678,3.467804 3.425993,3.362644 6.497501,-0.542148 2.89596,-3.681616 6.85889,-3.337534 9.7921,0.850198 1.83802,2.624144 1.86736,2.622998 4.25553,-0.166175 2.8378,-3.314313 8.00562,-3.650039 11.23254,-0.729719 2.10625,1.906138 2.62536,1.727548 6.24915,-2.14989 4.89657,-5.239327 7.42015,-4.627584 13.32761,3.230761 5.54323,7.373811 7.36795,17.63412 3.62311,20.372419 -3.79525,2.775152 -5.68932,2.183452 -8.10544,-2.532112 -2.95963,-5.776306 -4.6888,-6.678351 -6.85997,-3.578582 -2.15024,3.069903 -7.32969,3.380287 -9.6549,0.578582 -2.23004,-2.687036 -4.29717,-2.517988 -6.93902,0.567465 -2.38279,2.782899 -6.54837,2.460039 -9.18056,-0.711552 -2.07432,-2.499408 -3.32292,-2.347917 -7.77448,0.943257 -3.099083,2.291255 -4.298967,2.524679 -6.612673,1.286422 -1.554628,-0.832012 -2.826596,-2.091639 -2.826596,-2.799171 0,-2.085825 -5.34701,-1.468877 -6.184498,0.713579 -1.106299,2.882968 -7.495588,2.460085 -10.178816,-0.673698 l -2.289291,-2.673697 -2.673697,2.673697 c -3.33145,3.331451 -4.972688,3.33792 -9.976953,0.03933 l -3.969923,-2.616799 -3.607466,3.456173 -3.607468,3.456172 -4.629873,-2.86142 c -4.30038,-2.65778 -4.786266,-2.705029 -6.827373,-0.663921 -2.816946,2.816945 -8.126652,2.81562 -11.240979,-0.0028 -2.806559,-2.539903 -4.130221,-1.510112 -7.990092,6.216175 -2.336284,4.676529 -7.554228,6.386804 -10.4996006,3.44143 z M 57.957973,40.604683 C 52.801526,39.664277 45.02232,37.643512 40.670851,36.114093 31.281562,32.814024 28.592717,32.692948 23.514257,35.341548 18.55452,37.928229 11.454106,37.888708 9.2743705,35.262288 6.7741951,32.24976 7.1383569,25.26094 9.9007545,23.241025 11.190614,22.297857 14.614749,21.125968 17.509944,20.636828 20.405138,20.147688 25.876454,17.65964 29.668425,15.107833 33.460394,12.556026 40.143921,9.2289021 44.520703,7.7142252 51.578202,5.2718311 54.299056,5.0631557 68.570724,5.8697136 87.261081,6.9259921 99.442233,9.7570896 118,17.357879 c 12.19847,4.996184 22.67952,8.437325 31.33333,10.287364 4.66764,0.997862 6.66667,2.872358 6.66667,6.25135 0,5.40525 -5.84951,7.876764 -11.68476,4.937004 C 134.89256,34.086517 130.21843,32 129.00689,32 c -0.77427,0 -4.46757,1.488515 -8.20733,3.307811 -14.06455,6.842038 -41.62932,9.165453 -62.841587,5.296872 z m 45.027317,-9.521162 c 4.94191,-1.076482 9.29897,-2.464774 9.68235,-3.085092 1.14364,-1.850454 -6.78235,-6.669337 -10.87347,-6.610908 -2.215632,0.03164 -5.714752,1.695816 -8.410473,4 -2.538966,2.170196 -5.324772,3.945812 -6.190681,3.945812 -0.86591,0 -1.912354,0.880744 -2.325432,1.957208 -0.979492,2.552518 5.805133,2.474994 18.117706,-0.20702 z M 50.280719,24.73244 c -1.828364,-3.681203 -3.866553,-5.959199 -5.368375,-6 -3.527329,-0.09583 -7.794797,2.506389 -6.786307,4.13816 0.6605,1.068711 13.313453,7.713076 14.821349,7.783041 0.154397,0.0072 -1.045603,-2.657376 -2.666667,-5.921201 z"
       id="path577" />
  </g>
</svg>
