<?xml version="1.0" encoding="UTF-8" standalone="no"?>
<!-- Created with Inkscape (http://www.inkscape.org/) -->

<svg
   version="1.1"
   id="svg112"
   width="154.66667"
   height="160"
   viewBox="0 0 154.66667 160"
   xmlns="http://www.w3.org/2000/svg"
   xmlns:svg="http://www.w3.org/2000/svg">
  <defs
     id="defs116" />
  <g
     id="g118">
    <path
       style="fill:#000000;stroke-width:1.33333"
       d="m 42.537042,151.87037 c -4.067571,-4.06757 -2.6308,-10.47064 4.784787,-21.32373 5.138039,-7.51978 7.251616,-9.40567 13.870026,-12.37583 14.943636,-6.70631 36.507176,-3.31108 45.179315,7.11357 8.72099,10.48339 12.52847,25.06995 7.27746,27.88021 -1.29325,0.69213 -17.184036,1.32245 -35.312856,1.40072 -31.94068,0.1379 -33.049361,0.0544 -35.798732,-2.69494 z m 92.417348,-50.331 c -2.53797,-1.610373 -2.10033,-33.12493 0.51668,-37.206037 2.18221,-3.40308 8.61336,-4.111412 11.01835,-1.213572 0.94666,1.140651 1.41169,8.153182 1.28645,19.398892 -0.17139,15.38793 -0.49536,17.772587 -2.56503,18.880237 -2.88612,1.5446 -7.93456,1.61375 -10.25645,0.14048 z M 9.0787027,99.937245 C 7.1157152,98.792347 6.8629903,96.339884 7.1249411,80.977791 7.2904191,71.273339 7.8904132,62.583333 8.4582612,61.666667 9.933051,59.28594 18.08208,59.605889 20.62037,62.144179 c 1.801057,1.801057 2.059884,4.783249 1.617417,18.635836 -0.33908,10.61584 -1.127265,17.215222 -2.2122,18.522488 -1.899197,2.288397 -7.54985,2.616037 -10.9468843,0.634742 z m 35.5904983,0.06685 c -0.496393,-0.803186 -0.433561,-4.582682 0.139625,-8.398886 0.573187,-3.816204 1.075687,-11.983872 1.116667,-18.150375 0.07384,-11.110813 0.10872,-11.22332 3.871611,-12.487923 2.482657,-0.834352 4.833047,-0.804092 6.789688,0.08741 2.763115,1.258958 3.058343,2.523256 3.850116,16.487922 0.471641,8.318426 0.375843,16.92441 -0.212887,19.12441 -0.990918,3.702922 -1.574776,4.029622 -7.861353,4.398882 -3.912211,0.22979 -7.173526,-0.22017 -7.693467,-1.06145 z m 50.706666,-0.474794 c -2.208508,-1.6149 -2.435633,-3.600111 -2.166541,-18.936858 0.165333,-9.42306 0.596281,-17.61125 0.957664,-18.195978 0.897559,-1.45228 8.71608,-1.307127 11.10851,0.206233 1.52345,0.963676 1.97103,4.911827 2.07604,18.312917 0.0736,9.396406 -0.42381,17.834375 -1.10543,18.751042 -1.63858,2.203648 -7.774772,2.126108 -10.870243,-0.137356 z M 35.600735,44.953861 C 33.89985,43.651297 33.416635,40.007336 33.137995,26.382109 32.947334,17.058936 33.196259,9.0259639 33.691162,8.5310605 34.910793,7.31143 39.142617,7.0812519 80.000002,6.0122223 108.63587,5.2629675 115.74685,5.4269243 117.5149,6.8771977 c 1.71424,1.4061322 2.36977,5.4142363 3.06013,18.7103813 0.82864,15.959745 0.72911,17.00089 -1.75228,18.328889 -4.03611,2.16006 -80.511235,3.113351 -83.222015,1.037393 z"
       id="path438" />
  </g>
</svg>
