<?xml version="1.0" encoding="UTF-8" standalone="no"?>
<!-- Created with Inkscape (http://www.inkscape.org/) -->

<svg
   version="1.1"
   id="svg122"
   width="164"
   height="149.33333"
   viewBox="0 0 164 149.33333"
   xmlns="http://www.w3.org/2000/svg"
   xmlns:svg="http://www.w3.org/2000/svg">
  <defs
     id="defs126" />
  <g
     id="g128">
    <path
       style="fill:#000000;stroke-width:1.33333"
       d="M 9.5470468,141.54705 C 7.795856,139.79585 6.8470873,136.17201 6.2307036,128.8802 4.4897427,108.28466 11.082961,95.961846 24.757944,94.252542 40.257347,92.315195 46.658047,97.847 46.678256,113.19717 c 0.0064,4.84156 0.356277,11.80283 0.777561,15.46949 0.867423,7.54966 -0.760638,10.69967 -6.206788,12.00907 -2.291041,0.55083 -4.404434,0.0227 -6.41118,-1.60235 -2.909276,-2.35578 -2.952713,-2.75258 -1.543089,-14.0963 1.618128,-13.02164 0.601832,-16.99084 -4.341672,-16.95667 -6.051232,0.0418 -6.507667,1.32874 -6.050212,17.05826 0.393197,13.52005 0.199631,14.97589 -2.236209,16.81889 -3.629807,2.74636 -8.165731,2.60337 -11.1196202,-0.35051 z M 141.92151,138.10958 c -2.26591,-1.65502 -2.69323,-4.18688 -3.43183,-20.33333 -0.93247,-20.384347 -0.47315,-21.776252 7.18615,-21.776252 8.67929,0 8.99084,0.76512 8.99084,22.079912 v 19.31942 l -3.42014,1.30033 c -4.59776,1.74807 -6.26861,1.64234 -9.32502,-0.59008 z m -38.66667,-1.33333 c -2.2659,-1.65503 -2.69322,-4.18688 -3.431829,-20.33334 -0.932467,-20.38434 -0.473139,-21.776245 7.186149,-21.776245 8.67929,0 8.99084,0.76512 8.99084,22.079915 V 136.066 l -3.42013,1.30033 c -4.59776,1.74807 -6.26862,1.64233 -9.32503,-0.59008 z M 32.874128,52.792493 C 14.573141,51.443294 12.890116,51.096123 10.540794,48.18562 7.7510013,44.729431 7.1241293,36.127935 9.3578563,31.954178 10.104677,30.55873 13.330917,27.884389 16.527277,26.011197 l 5.811566,-3.405804 53.792341,0.02944 c 51.147336,0.02799 53.917556,0.154653 56.338906,2.575997 3.6076,3.607601 2.07915,9.019177 -2.80217,9.921225 -2.01735,0.372802 -25.407,0.570599 -51.976981,0.439551 -34.240418,-0.16888 -48.910967,0.201895 -50.37589,1.273172 -1.760185,1.287197 -1.516512,1.654497 1.642395,2.475661 2.040072,0.530321 26.475924,0.872048 54.301893,0.759395 l 50.592673,-0.204824 4.40732,-4.538083 c 2.42404,-2.495949 4.40734,-5.443544 4.40734,-6.550214 0,-3.027834 -6.51863,-8.462167 -11.20524,-9.341379 -5.75121,-1.078933 -54.38955,-1.055112 -88.925598,0.04355 C 14.145457,20.392045 13.697335,20.364001 10.838607,17.505273 7.2682599,13.934926 8.8244495,9.9021148 14.37182,8.3490765 16.367319,7.7904177 45.9,7.3730505 80,7.4215938 c 60.56536,0.086219 62.1266,0.1539564 67.47124,2.9274012 4.27659,2.219209 6.11773,4.341929 8.43199,9.721557 2.67638,6.22145 2.80764,7.540927 1.36664,13.739265 -2.00208,8.611799 -6.46078,13.446431 -15.53035,16.839795 -6.40647,2.396963 -11.11763,2.703579 -48.087564,3.129672 -22.541909,0.259804 -49.891932,-0.184252 -60.777828,-0.986791 z"
       id="path299" />
  </g>
</svg>
