<?xml version="1.0" encoding="UTF-8" standalone="no"?>
<!-- Created with Inkscape (http://www.inkscape.org/) -->

<svg
   version="1.1"
   id="svg132"
   width="161.33333"
   height="146.66667"
   viewBox="0 0 161.33333 146.66667"
   xmlns="http://www.w3.org/2000/svg"
   xmlns:svg="http://www.w3.org/2000/svg">
  <defs
     id="defs136" />
  <g
     id="g138">
    <path
       style="fill:#000000;stroke-width:1.33333"
       d="m 7.8299261,137.79946 c -1.2326425,-1.4823 -1.957773,-6.81347 -2.2216166,-16.33334 -0.479678,-17.30751 1.3217553,-21.918039 10.3408765,-26.466118 7.183336,-3.622345 10.999256,-3.72182 18.151961,-0.473192 8.067015,3.663891 9.898852,8.58257 9.898852,26.57946 0,15.91292 -1.146231,18.89373 -7.265312,18.89373 -5.01102,0 -5.852002,-2.5128 -5.620013,-16.79221 0.157813,-9.71374 -0.290547,-14.07323 -1.611268,-15.66666 -2.451833,-2.95812 -4.865517,-2.78099 -8.003606,0.58736 -2.32576,2.49641 -2.524364,4.13129 -1.85823,15.29664 C 20.473962,137.37722 19.475754,140 13.333333,140 c -2.020414,0 -4.4969474,-0.99025 -5.5034069,-2.20054 z m 111.9999939,0 c -1.23264,-1.4823 -1.95777,-6.81347 -2.22161,-16.33334 -0.47968,-17.30751 1.32175,-21.918039 10.34087,-26.466118 7.18334,-3.622345 10.99926,-3.72182 18.15196,-0.473192 C 154.16816,98.190701 156,103.10938 156,121.10627 156,137.01919 154.85377,140 148.73469,140 c -5.01103,0 -5.85201,-2.5128 -5.62001,-16.79221 0.15781,-9.71374 -0.29055,-14.07323 -1.61127,-15.66666 -2.45184,-2.95812 -4.86552,-2.78099 -8.00361,0.58736 -2.32576,2.49641 -2.52437,4.13129 -1.85823,15.29664 C 132.47396,137.37722 131.47575,140 125.33333,140 c -2.02041,0 -4.49695,-0.99025 -5.50341,-2.20054 z M 37.484219,51.742379 C 14.58438,50.827281 14.255236,50.771401 10.48422,47.15854 4.0466876,40.990992 5.6251178,31.259141 13.992944,25.525414 l 4.513066,-3.092403 54.790534,0.06505 c 30.134796,0.03577 55.370936,0.423758 56.080326,0.862184 0.70939,0.438425 1.28061,2.411725 1.26938,4.385113 -0.0405,7.108456 -0.75376,7.335261 -21.50758,6.838645 -10.526271,-0.251886 -34.398785,-0.346216 -53.050035,-0.209625 -31.340314,0.229517 -38.499063,0.992968 -35.686242,3.80579 1.547297,1.547298 23.551257,2.744762 42.930939,2.336318 73.392238,-1.546808 72.861488,-1.495552 74.675728,-7.211703 1.25799,-3.963578 -0.53488,-10.468916 -3.29188,-11.944416 -1.31966,-0.706265 -5.30723,-2.271355 -8.86125,-3.477976 -6.79046,-2.305419 -24.43974,-2.17752 -89.855931,0.651161 C 8.8522869,19.707459 6.8155143,19.289032 9.1962945,13.027106 9.9145305,11.138002 11.174965,9.1765665 11.99726,8.6683602 14.542278,7.0954523 112.44435,6.4765952 126.7349,7.9430823 c 21.17512,2.1729777 27.78936,8.1326767 26.1929,23.6008667 -0.53443,5.178068 -1.70732,8.463517 -3.84826,10.779481 -3.93421,4.255843 -12.66474,8.044016 -20.75114,9.003908 -9.95927,1.182211 -65.317093,1.435125 -90.844181,0.415041 z"
       id="path160" />
  </g>
</svg>
