<?xml version="1.0" encoding="UTF-8" standalone="no"?>
<!-- Created with Inkscape (http://www.inkscape.org/) -->

<svg
   version="1.1"
   id="svg2"
   width="160"
   height="161.33333"
   viewBox="0 0 160 161.33333"
   xmlns="http://www.w3.org/2000/svg"
   xmlns:svg="http://www.w3.org/2000/svg">
  <defs
     id="defs6" />
  <g
     id="g8">
    <path
       style="fill:#000000;stroke-width:1.33333"
       d="m 18.123073,153.67862 c -1.682182,-1.68218 -0.658054,-5.33056 2.21026,-7.87386 4.741807,-4.20452 27.452786,-15.1381 31.444512,-15.1381 3.224418,0 21.57908,4.33212 33.222155,7.84118 2.941348,0.88648 4.333333,0.86216 4.333333,-0.0757 0,-2.33108 -7.97574,-11.92979 -18.639261,-22.43213 -5.584407,-5.5 -12.103928,-12.85 -14.487824,-16.333335 -2.383896,-3.483334 -4.567279,-6.333334 -4.851961,-6.333334 -0.284684,0 -4.305859,3.326954 -8.935947,7.393229 C 29.746849,111.85504 21.212616,114.99 12.967557,111.54499 7.4322947,109.23221 6.1676176,107.5032 7.1495701,103.59089 7.6708505,101.514 10.248096,99.727484 16.043912,97.425429 24.117104,94.218819 40.183595,81.566928 41.116137,77.681786 41.363347,76.651868 40.256365,72.583441 38.656179,68.640835 34.954211,59.519773 34.649283,48.074706 37.885769,39.724505 41.473999,30.466804 40.190028,27.23794 32.501371,26.184092 23.186511,24.907348 20.170435,25.127353 15.299243,27.438885 12.858837,28.596933 9.4681597,29.346933 7.7644041,29.105552 4.8003579,28.685607 4.6666667,28.177546 4.6666667,17.333333 V 5.9999999 L 8.2877896,5.5824982 c 1.9916174,-0.2296259 5.7322414,0.5842895 8.3124974,1.808701 3.269662,1.5515567 6.414958,1.9800537 10.378877,1.4139581 19.336767,-2.7615254 20.351016,-2.699385 25.092768,1.5373697 3.957115,3.535682 4.431665,4.700899 4.341755,10.660817 -0.07596,5.035613 -1.274562,8.827027 -4.844082,15.32287 -6.728074,12.243805 -7.066288,18.892004 -1.236272,24.301207 5.992452,5.559915 7.629739,5.425566 15.89092,-1.303945 4.172799,-3.399138 11.229395,-7.853932 15.681327,-9.899542 4.451931,-2.04561 10.426923,-5.602836 13.27776,-7.904946 6.18271,-4.992673 8.09668,-5.190667 10.76787,-1.113909 2.21934,3.387132 1.21558,9.264789 -2.56845,15.039944 -2.56074,3.908185 -17.082228,13.872193 -20.309601,13.935556 -1.323571,0.02599 -3.853147,0.848824 -5.621279,1.828529 l -3.214787,1.781281 3.214787,2.085375 c 3.211732,2.083392 17.672787,7.106165 29.45364,10.230164 3.43137,0.909917 7.58596,3.088321 9.23242,4.840898 1.64646,1.752579 3.74881,3.186505 4.67188,3.186505 0.92307,0 3.92856,2.746126 6.67885,6.1025 4.68014,5.711489 5.30524,6.045389 9.75593,5.211129 2.61547,-0.49026 7.07591,-1.6905 9.91208,-2.6672 8.14287,-2.804173 9.00755,-1.8237 8.56313,9.70982 -0.48996,12.71578 -2.18006,14.23764 -11.03434,9.9359 -7.45327,-3.62107 -10.53324,-3.71763 -13.63353,-0.42742 -3.29511,3.49697 -11.80635,7.6793 -19.49883,9.5815 -3.54579,0.87681 -6.75659,2.40124 -7.1351,3.38762 -0.37851,0.98639 0.87259,3.64832 2.78023,5.91543 5.15921,6.13136 4.11026,13.25072 -1.95232,13.25072 -1.22141,0 -10.251415,-2.62547 -20.066669,-5.83437 -9.815255,-3.20892 -19.945918,-6.15787 -22.512584,-6.55324 C 60.1,140.55036 56.8,139.77408 55.333333,139.22068 c -2.497669,-0.94243 -2.531637,-0.84399 -0.536,1.55322 3.519956,4.22828 4.069512,7.38866 1.868844,10.7473 -2.607282,3.97922 -4.030794,3.9466 -9.490182,-0.21748 l -4.40905,-3.36295 -2.171892,3.31473 c -1.991993,3.04016 -2.979914,3.31051 -11.927066,3.26379 -5.365346,-0.028 -10.110558,-0.40631 -10.544914,-0.84067 z"
       id="path1505" />
  </g>
</svg>
