<?xml version="1.0" encoding="UTF-8" standalone="no"?>
<!-- Created with Inkscape (http://www.inkscape.org/) -->

<svg
   version="1.1"
   id="svg12"
   width="85.333336"
   height="156"
   viewBox="0 0 85.333336 156"
   xmlns="http://www.w3.org/2000/svg"
   xmlns:svg="http://www.w3.org/2000/svg">
  <defs
     id="defs16" />
  <g
     id="g18">
    <path
       style="fill:#000000;stroke-width:1.33333"
       d="m 15.333334,149.59864 c -7.0104472,-0.52756 -8.6666671,-3.031 -8.6666671,-13.10001 0,-16.05287 3.8126661,-18.95454 12.7294031,-9.68784 7.226408,7.51002 14.669731,10.52254 25.999023,10.52254 h 9.174011 l 8.552026,-8 c 13.07447,-12.23052 17.271119,-10.68318 17.016221,6.27402 -0.09469,6.29997 -0.800357,10.92805 -1.812869,11.88977 -1.586022,1.50645 -49.60881,3.1086 -62.991148,2.10152 z m 18.078822,-18.39503 c -1.789983,-2.62799 -3.69618,-7.87389 -4.235996,-11.65755 -1.486666,-10.4203 -1.353023,-26.907725 0.252297,-31.125927 2.947109,-7.743936 7.904877,-38.513373 7.904877,-49.060101 0,-11.779188 -2.139452,-18.270473 -6.853194,-20.793192 -3.152838,-1.687348 -6.480139,0.428336 -6.480139,4.120435 0,4.255061 -7.677123,5.445126 -11.361112,1.761138 -5.2152672,-5.215268 3.657986,-19.1150797 12.202534,-19.1150797 10.351487,0 17.366068,5.6862237 23.849784,19.3333337 4.037429,8.498098 5.706228,15.301268 9.975421,40.666666 2.295603,13.639314 2.720278,25.944374 1.374286,39.820267 -2.012318,20.74509 -8.215558,30.85913 -18.913406,30.83729 -3.618665,-0.008 -5.07527,-0.9112 -7.715352,-4.78728 z"
       id="path1366" />
  </g>
</svg>
