<?xml version="1.0" encoding="UTF-8" standalone="no"?>
<!-- Created with Inkscape (http://www.inkscape.org/) -->

<svg
   version="1.1"
   id="svg22"
   width="162.66667"
   height="161.33333"
   viewBox="0 0 162.66667 161.33333"
   xmlns="http://www.w3.org/2000/svg"
   xmlns:svg="http://www.w3.org/2000/svg">
  <defs
     id="defs26" />
  <g
     id="g28">
    <path
       style="fill:#000000;stroke-width:1.33333"
       d="m 30.468989,152.05232 c -7.769297,-2.9591 -16.781713,-9.00226 -20.088356,-13.46998 -3.2285015,-4.36213 -3.4420657,-15.27586 -0.4234053,-21.63722 1.6592533,-3.49661 3.8639663,-5.34644 8.8336943,-7.41177 3.642426,-1.51372 7.354553,-2.52809 8.249169,-2.25415 0.894618,0.27394 3.259863,0.85542 5.256102,1.29218 2.154553,0.4714 4.999225,2.80981 7,5.75421 5.936539,8.7364 3.754288,15.80079 -5.861298,18.97422 -4.882052,1.61123 -5.690909,1.54847 -8.096085,-0.62819 -3.124071,-2.82725 -3.480171,-1.19053 -0.579109,2.66171 1.104524,1.46667 5.678584,3.89877 10.16458,5.40467 9.548416,3.2053 12.084621,6.91976 7.711023,11.29336 -3.114879,3.11488 -4.038875,3.11648 -12.166315,0.0209 z m 1.531012,-30.71899 c 0,-1.75075 -0.88889,-2.66667 -2.587978,-2.66667 -2.930189,0 -4.643096,2.00809 -3.412022,4 1.536785,2.48657 6,1.49475 6,-1.33333 z M 120.88594,150.8975 C 115.85446,147.48112 112,140.90589 112,135.73921 c 0,-3.23283 1.37763,-5.51632 6,-9.94534 3.3,-3.16195 6,-6.02288 6,-6.35762 0,-0.33474 -2.18923,-0.79483 -4.86496,-1.02243 -6.37533,-0.5423 -8.38516,-3.64063 -5.35827,-8.26025 2.23606,-3.41265 2.43214,-3.44763 18.57491,-3.3136 8.97324,0.0745 17.06499,0.73946 17.98166,1.47767 2.53728,2.04334 1.99085,7.41504 -0.91235,8.96878 -1.41845,0.75913 -4.11845,1.38024 -6,1.38024 -4.64808,0 -4.29825,1.97789 1.20437,6.80926 11.63726,10.21764 4.40511,24.98346 -13.3067,27.16821 -5.30046,0.6538 -7.42015,0.29893 -10.43272,-1.74663 z M 71.309595,97.406307 C 69.829871,96.806078 67.735552,94.59411 66.655553,92.490823 65.575555,90.387535 62.687083,85.468645 60.236727,81.559953 50.734698,66.402772 50.603005,61.316195 59.71358,61.353749 c 2.724199,0.0112 5.623325,0.46123 6.442503,1 0.819178,0.538771 3.827126,5.479583 6.684328,10.979583 2.857201,5.5 6.236964,11.483504 7.510584,13.296674 3.367656,4.794316 3.037323,10.198913 -0.684327,11.196277 -3.75629,1.006647 -4.99333,0.944482 -8.357073,-0.419976 z m 26.666667,0 C 96.496538,96.806078 94.402219,94.59411 93.322221,92.490823 92.242222,90.387535 89.35375,85.468645 86.903394,81.559953 77.401366,66.402772 77.269672,61.316195 86.380247,61.353749 c 2.724199,0.0112 5.623326,0.46123 6.442503,1 0.819179,0.538771 3.827127,5.479583 6.684328,10.979583 2.857202,5.5 6.236962,11.483504 7.510582,13.296674 3.36766,4.794316 3.03732,10.198913 -0.68432,11.196277 -3.7563,1.006647 -4.99334,0.944482 -8.357078,-0.419976 z M 69.874,33.999999 c -3.589708,-3.326829 -3.649276,-3.333333 -30.528713,-3.333333 -24.397948,0 -27.139611,-0.229423 -29.138637,-2.438321 -2.8098452,-3.104844 -2.7798938,-4.6296 0.1429,-7.274692 1.964112,-1.777496 6.758972,-2.170635 29.22848,-2.396491 14.783412,-0.148597 27.38391,-0.634749 28.001105,-1.080337 0.617196,-0.445587 1.725422,-2.610159 2.462728,-4.810159 0.988073,-2.9482561 2.300192,-4.1111235 4.99026,-4.4226275 2.374073,-0.2749124 3.929928,0.3076157 4.451444,1.6666666 0.857815,2.2354289 4.516435,2.9205939 4.516435,0.8458119 0,-2.0465437 5.040882,-3.0068552 7.861024,-1.4975616 1.445629,0.7736776 2.818293,3.0569166 3.050364,5.0738656 L 95.333335,18 112.66667,17.596017 c 9.53333,-0.222191 22.24767,-0.664995 28.25408,-0.984009 11.88317,-0.631144 15.09911,0.753404 15.05884,6.48323 -0.0433,6.163437 -0.85307,6.364385 -28.10687,6.975112 -14.22999,0.318879 -27.23757,0.5835 -28.905719,0.588048 -2.004038,0.0055 -3.462951,1.13912 -4.300332,3.341601 -1.588438,4.177906 -7.238201,4.58146 -9.333334,0.666667 -0.784936,-1.466667 -2.236068,-2.666667 -3.224736,-2.666667 -0.988669,0 -2.111388,1.2 -2.494929,2.666667 -0.962211,3.6795 -5.376074,3.377377 -9.73967,-0.666667 z"
       id="path1227" />
  </g>
</svg>
