<?xml version="1.0" encoding="UTF-8" standalone="no"?>
<!-- Created with Inkscape (http://www.inkscape.org/) -->

<svg
   version="1.1"
   id="svg32"
   width="161.33333"
   height="157.33333"
   viewBox="0 0 161.33333 157.33333"
   xmlns="http://www.w3.org/2000/svg"
   xmlns:svg="http://www.w3.org/2000/svg">
  <defs
     id="defs36" />
  <g
     id="g38">
    <path
       style="fill:#000000;stroke-width:1.33333"
       d="m 28.666666,150.02001 c -10.381022,-2.76457 -18,-13.52396 -18,-25.41927 0,-4.87892 4.873467,-18.56902 8.866723,-24.907579 1.723303,-2.735428 3.133277,-5.218654 3.133277,-5.518279 0,-0.299627 -2.25,-0.965241 -5,-1.479144 -6.42443,-1.200559 -8.338185,-2.856339 -8.3129158,-7.192333 0.040593,-6.965459 0.5560407,-7.110244 25.3129158,-7.110244 25.040934,0 25.274746,0.07088 25.312915,7.673504 0.0264,5.257614 -2.099888,7.266666 -7.690693,7.266666 -4.993772,0 -4.991802,-0.04759 -0.288889,6.983499 l 3.333333,4.98349 22.666666,0.22776 c 27.560692,0.27694 27.633502,0.27073 29.179742,-2.49226 0.68397,-1.22217 2.77507,-3.641475 4.64689,-5.376223 2.84413,-2.635848 3.0832,-3.366207 1.45501,-4.445058 -1.07157,-0.710033 -3.74831,-1.04561 -5.94831,-0.745729 -5.96762,0.813445 -8.666665,-1.164893 -8.666665,-6.352464 0,-2.451072 0.771236,-5.096564 1.713855,-5.87887 1.04724,-0.869127 10.9898,-1.516532 25.56182,-1.664448 21.67254,-0.21999 24.00955,-0.02107 25.61947,2.180622 3.60336,4.927888 0.62791,11.224932 -5.32372,11.266765 -5.84731,0.04109 -6.07948,1.53861 -1.85732,11.979585 3.24459,8.0235 4.04703,11.9765 4.05995,20 0.018,11.18002 -1.70392,15.67452 -8.58126,22.39838 -5.3463,5.22702 -11.02434,6.4038 -19.91011,4.12646 -6.68192,-1.71254 -9.81971,-4.338 -16.19829,-13.55351 -2.23272,-3.22575 -2.40208,-3.24803 -23.487794,-3.08864 -22.033251,0.16656 -24.562034,0.7572 -26.269064,6.13557 -0.806756,2.54187 -11.348543,9.83812 -15.994203,11.07003 -1.466666,0.38892 -5.666666,-0.0917 -9.333333,-1.06828 z m 73.856864,-28.00599 c 1.96956,-2.00069 1.94651,-2.32288 -0.28454,-3.97815 -3.122005,-2.3163 -24.919633,-3.96394 -36.307362,-2.74442 -8.831784,0.9458 -11.977396,3.19611 -8.845563,6.32795 4.01561,4.01561 41.551889,4.34161 45.437465,0.39462 z M 19.333333,45.365291 C 4.7462468,44.670456 4.6686284,44.649042 5.0282472,41.418523 5.7589097,34.854851 33.366287,11.711477 42.590694,9.9297742 44.465812,9.5675934 48.941559,8.6063162 52.536799,7.7936025 61.768763,5.706692 148.89841,5.9791997 151.45742,8.1029877 c 2.81428,2.3356403 2.35695,8.8790763 -0.73626,10.5345143 -1.66022,0.88852 -21.21803,1.513002 -53.666667,1.713578 l -51.054494,0.315586 -6.239041,3.667613 c -3.431473,2.017187 -7.25498,4.683551 -8.496681,5.925254 -2.121298,2.121297 -2.106862,2.317669 0.239041,3.251648 1.373175,0.546705 6.696681,0.70277 11.830014,0.34681 5.133334,-0.35596 32.26549,-0.798842 60.293678,-0.984181 42.33484,-0.279944 51.07991,-0.02544 51.66667,1.503655 1.26536,3.297468 0.7456,7.930082 -1.05763,9.426627 -1.92328,1.596176 -108.319098,2.827471 -134.902717,1.561199 z"
       id="path1088" />
  </g>
</svg>
