<?xml version="1.0" encoding="UTF-8" standalone="no"?>
<!-- Created with Inkscape (http://www.inkscape.org/) -->

<svg
   version="1.1"
   id="svg42"
   width="164"
   height="156"
   viewBox="0 0 164 156"
   xmlns="http://www.w3.org/2000/svg"
   xmlns:svg="http://www.w3.org/2000/svg">
  <defs
     id="defs46" />
  <g
     id="g48">
    <path
       style="fill:#000000;stroke-width:1.33333"
       d="M 93.844737,143.14536 C 84.611329,132.7871 83.13824,132.72275 76.008485,142.36619 c -5.699694,7.70918 -6.419582,8.2544 -10.93288,8.28006 -4.086458,0.0232 -7.954392,-4.41986 -6.7897,-7.79932 0.413272,-1.19914 4.000139,-5.53013 7.970816,-9.62441 8.22017,-8.47606 8.121706,-8.82702 -3.590054,-12.79606 C 52.788329,117.07876 52,116.45364 52,111.96822 c 0,-6.86507 6.217559,-8.38109 15.648625,-3.81559 3.20314,1.55061 5.97963,2.60061 6.169978,2.33333 0.190346,-0.26728 1.220862,-4.96959 2.290034,-10.44959 1.634479,-8.377449 2.508983,-10.280778 5.493206,-11.955779 3.235204,-1.815874 3.793273,-1.771311 6.30704,0.503616 2.341712,2.11922 2.757784,4.073882 2.757784,12.955773 0,11.9446 0.236509,12.11988 9.616203,7.12669 9.85178,-5.24451 16.54543,-3.73491 15.48615,3.49255 -0.44857,3.06055 -6.68453,7.57072 -10.70628,7.74333 -3.35113,0.14382 -8.822491,2.88153 -9.550543,4.7788 -0.690197,1.79862 6.332143,9.84473 11.610663,13.30336 4.40742,2.88785 5.68202,8.24926 2.73525,11.50541 -4.06472,4.49147 -7.60391,3.08917 -16.013373,-6.34476 z M 6.5773379,67.833088 C 5.5323427,65.880496 5.239714,56.864112 5.6361369,38.833088 6.2071623,12.860395 6.7623784,8.6780415 9.7697584,7.6951828 10.629725,7.4141325 23.827612,7.5834485 39.098397,8.0714405 c 21.02851,0.6719856 28.203796,1.337085 29.573322,2.7412425 1.909354,1.957636 2.213452,9.548636 1.569853,39.187317 -0.191089,8.8 -0.844304,17.066923 -1.451587,18.37094 -0.989617,2.125003 -2.920416,2.332461 -18.613734,2 L 32.666667,70 32.288332,54.857507 C 31.897287,39.206264 32.747691,36 37.289943,36 c 4.169298,0 6.975056,4.564871 6.000082,9.761927 -0.484564,2.58295 -0.48892,6.48152 -0.0097,8.663486 0.725988,3.305406 1.634077,4.056258 5.443544,4.500992 6.301572,0.735672 8.617765,-0.897396 8.494863,-5.989437 -0.05669,-2.348665 0.11596,-10.405971 0.383662,-17.905124 0.379563,-10.632653 0.08593,-13.788623 -1.333557,-14.333333 -2.916859,-1.119304 -34.712669,-0.804454 -35.426657,0.350804 -0.356683,0.577124 -1.079866,11.977124 -1.607074,25.333333 l -0.958508,24.284019 h -5.091371 c -3.8267321,0 -5.4680484,-0.70383 -6.6078561,-2.833579 z m 114.7559921,0.63082 c -5.81368,-1.915313 -8.44722,-4.251243 -10.97896,-9.738271 -3.17304,-6.8769 -3.8955,-21.262125 -1.22918,-24.474833 0.89385,-1.077025 4.89611,-3.374057 8.89391,-5.104516 5.69695,-2.465944 7.27364,-3.794999 7.29148,-6.146288 0.021,-2.767565 -0.57409,-3 -7.68057,-3 C 109.16941,20 104,17.471553 104,13.333333 c 0,-5.5754854 4.53675,-6.6666663 27.71766,-6.6666663 23.01325,0 26.9623,0.8378908 26.92859,5.7135783 -0.0365,5.27742 -2.17638,6.88004 -10.14641,7.59887 -8.44959,0.762081 -10.18689,2.674648 -5.71396,6.290358 14.56443,11.773178 17.08776,16.296536 14.48436,25.964851 -3.36297,12.489105 -10.18421,17.162281 -24.80508,16.993747 -5.0225,-0.0579 -10.03183,-0.401768 -11.13183,-0.764163 z"
       id="path949" />
  </g>
</svg>
