<?xml version="1.0" encoding="UTF-8" standalone="no"?>
<!-- Created with Inkscape (http://www.inkscape.org/) -->

<svg
   version="1.1"
   id="svg52"
   width="84"
   height="152"
   viewBox="0 0 84 152"
   xmlns="http://www.w3.org/2000/svg"
   xmlns:svg="http://www.w3.org/2000/svg">
  <defs
     id="defs56" />
  <g
     id="g58">
    <path
       style="fill:#000000;stroke-width:1.33333"
       d="m 18.933333,146.4 c -3.423812,-3.42381 -1.743913,-8.10591 5.216187,-14.53818 4.121027,-3.80851 6.434533,-6.9168 5.850968,-7.86103 -0.530871,-0.85897 -5.437648,-3.62761 -10.903949,-6.15254 -8.267962,-3.81904 -9.8679431,-5.06584 -9.5176358,-7.41668 0.6932188,-4.65205 4.1763058,-5.92583 10.6975538,-3.91214 3.147948,0.97205 7.823543,1.85284 10.39021,1.9573 l 4.666666,0.18994 -0.351528,-6 c -0.558178,-9.527211 0.778059,-14.614426 4.254799,-16.198535 2.213695,-1.008627 3.898633,-0.977854 5.928072,0.108266 C 47.733492,87.951192 48,89.220716 48,100.0826 v 11.98877 l 9.086659,-4.70235 c 10.380413,-5.37187 12.30438,-5.65521 15.373357,-2.26403 4.689189,5.18149 2.862831,7.71122 -9.001483,12.46812 -11.895892,4.76956 -12.067421,6.00137 -2.135618,15.33658 7.416854,6.97132 8.318193,8.34919 7.52612,11.50507 C 68.058473,147.5646 67.296331,148 62.573287,148 c -4.488358,0 -6.15127,-0.82549 -10.072294,-5 -2.583012,-2.75 -5.621428,-6.35 -6.752036,-8 -1.130608,-1.65 -2.566644,-3 -3.191193,-3 C 41.045499,132 32,141.09528 32,142.61587 32,146.99995 22.332885,149.79955 18.933333,146.4 Z M 6.3333333,54.559868 C 4.3044847,53.378172 4.0006504,50.991084 4.0049841,36.26708 4.0092908,21.634869 4.3756965,18.733467 6.7008461,14.919765 11.309409,7.3608193 22.931193,4.5129973 32.630941,8.5658109 38.777117,11.133847 40.182325,16.904643 39.708005,37.629329 L 39.333333,54 34.685624,53.618957 C 32.129384,53.409384 29.501319,52.701319 28.84548,52.04548 28.18964,51.38964 27.581109,44.061109 27.493189,35.759856 L 27.333333,20.666667 23.885872,20.265923 c -5.894783,-0.68523 -7.070223,2.412428 -6.878365,18.126674 0.101816,8.339362 -0.412098,14.889978 -1.247088,15.896082 -1.689404,2.035606 -6.1761637,2.164677 -9.4270857,0.271189 z M 44.519695,52.764459 C 44.118224,51.718244 43.987056,42.728071 44.228208,32.786295 L 44.666667,14.71034 48.791173,10.589637 C 56.431451,2.9564083 70.965524,4.3022205 76.951257,13.197178 79.695387,17.275024 80,19.285973 80,33.323861 c 0,17.115151 -1.196968,20.009472 -8.275061,20.009472 -5.542586,0 -6.930058,-2.931682 -5.531332,-11.687517 1.340364,-8.390497 -0.07911,-20.322149 -2.609035,-21.93078 -2.638551,-1.677697 -4.682796,-1.189228 -7.448983,1.779925 -2.355376,2.5282 -2.57209,4.245534 -2.042465,16.1853 0.390236,8.797395 0.07837,13.97648 -0.913576,15.171706 -1.982045,2.388218 -7.732125,2.330113 -8.659853,-0.08751 z"
       id="path810" />
  </g>
</svg>
