<?xml version="1.0" encoding="UTF-8" standalone="no"?>
<!-- Created with Inkscape (http://www.inkscape.org/) -->

<svg
   version="1.1"
   id="svg62"
   width="164"
   height="166.66667"
   viewBox="0 0 164 166.66667"
   xmlns="http://www.w3.org/2000/svg"
   xmlns:svg="http://www.w3.org/2000/svg">
  <defs
     id="defs66" />
  <g
     id="g68">
    <path
       style="fill:#000000;stroke-width:1.33333"
       d="m 10.537042,154.53704 c -4.0675719,-4.06757 -2.6308003,-10.47064 4.784786,-21.32373 5.138039,-7.51978 7.251616,-9.40567 13.870025,-12.37583 14.943636,-6.70631 36.507176,-3.31109 45.179312,7.11357 8.720996,10.48339 12.528474,25.06995 7.277467,27.88021 -1.293253,0.69213 -17.18404,1.32245 -35.31286,1.40072 -31.940679,0.1379 -33.04936,0.0544 -35.79873,-2.69494 z m 107.212108,-5.86253 c -1.56431,-1.09568 -5.14781,-5.97483 -7.96334,-10.84253 -2.81553,-4.8677 -6.50633,-11.2066 -8.20177,-14.08644 -3.864524,-6.56417 -3.36758,-9.51056 1.76557,-10.46816 6.59975,-1.23119 8.25194,-0.0697 13.0662,9.18554 2.53774,4.87873 6.17513,11.57042 8.08308,14.87042 4.38204,7.57921 4.40096,10.39054 0.081,12.033 -4.19702,1.5957 -3.45794,1.67056 -6.83072,-0.69183 z m 26.66666,0 c -1.5643,-1.09568 -5.14781,-5.97483 -7.96333,-10.84253 -2.81553,-4.8677 -6.50633,-11.2066 -8.20178,-14.08644 -3.86452,-6.56417 -3.36757,-9.51056 1.76558,-10.46816 6.59975,-1.23119 8.25195,-0.0697 13.06619,9.18554 2.53774,4.87873 6.17513,11.57042 8.08308,14.87042 4.38204,7.57921 4.40096,10.39054 0.0809,12.033 -4.19703,1.5957 -3.45793,1.67056 -6.83072,-0.69183 z M 9.4326807,44.452849 c -3.287103,-2.302377 -3.1206467,-4.748962 0.9821903,-14.4363 5.825428,-13.754605 8.972762,-18.701852 12.714798,-19.986206 3.941406,-1.352783 4.316248,-1.1054647 8.367534,5.520828 1.427738,2.335212 1.618196,2.340571 4.104988,0.115493 3.470634,-3.105374 7.986696,-2.955447 10.040573,0.333334 2.141497,3.429082 3.151001,3.357733 7.796299,-0.551027 4.011858,-3.375757 7.873862,-3.353366 10.708434,0.06208 1.348235,1.624524 1.868648,1.626433 3.710346,0.01363 4.394146,-3.848044 7.741393,-3.840501 11.326173,0.02552 l 3.396135,3.662578 3.129193,-2.939724 c 3.943784,-3.704992 8.232424,-3.758777 10.770563,-0.135077 l 1.964452,2.804647 3.018271,-3.471314 c 3.77755,-4.344568 4.8252,-4.33317 9.45543,0.10288 l 3.73065,3.574187 3.09491,-2.90752 c 3.95005,-3.710876 6.72999,-3.683324 9.33121,0.09248 l 2.06676,3 5.28685,-5.679446 c 8.03053,-8.6268536 10.58069,-6.4817021 17.65431,14.850467 4.03426,12.166278 4.14782,13.030898 2.02014,15.381957 -1.36114,1.504046 -3.30488,2.216377 -4.9056,1.797781 -2.63789,-0.689827 -7.86396,-9.196871 -7.86396,-12.801048 0,-1.039423 -0.80245,-2.555832 -1.78322,-3.369802 -1.36327,-1.131412 -2.51702,-0.698852 -4.89908,1.83674 -3.50225,3.727974 -7.31377,4.320727 -8.46653,1.316684 -1.09559,-2.855068 -5.24893,-2.470948 -7.2084,0.666667 -2.31213,3.702296 -5.18013,3.334435 -9.76736,-1.2528 l -3.91947,-3.919465 -2.05796,3.140842 c -3.260159,4.975638 -5.75221,5.136148 -9.951347,0.640956 l -3.801894,-4.06994 -2.152357,3.284914 c -3.207844,4.895788 -5.730432,5.262196 -9.348795,1.357918 l -3.205273,-3.458546 -3.565633,2.804726 c -4.668919,3.672572 -7.76515,3.542902 -10.911452,-0.456973 l -2.565655,-3.261703 -2.904369,3.92837 c -3.362516,4.548046 -7.44216,5.090369 -9.491202,1.261701 -0.784936,-1.466667 -2.331134,-2.666667 -3.435996,-2.666667 -1.104862,0 -3.296888,1.2 -4.87117,2.666667 -3.916268,3.648559 -5.801994,3.355229 -8.571595,-1.333333 -3.831668,-6.486496 -4.562625,-5.910954 -9.801603,7.717622 -2.234948,5.81395 -5.376645,7.427418 -9.2202883,4.735226 z"
       id="path655" />
  </g>
</svg>
