<?xml version="1.0" encoding="UTF-8" standalone="no"?>
<!-- Created with Inkscape (http://www.inkscape.org/) -->

<svg
   version="1.1"
   id="svg72"
   width="162.66667"
   height="162.66667"
   viewBox="0 0 162.66667 162.66667"
   xmlns="http://www.w3.org/2000/svg"
   xmlns:svg="http://www.w3.org/2000/svg">
  <defs
     id="defs76" />
  <g
     id="g78">
    <path
       style="fill:#000000;stroke-width:1.33333"
       d="m 19.666667,155.91032 c -3.040856,-1.79344 -2.985532,-6.90678 0.104987,-9.70366 2.926785,-2.64871 7.708463,-2.76931 12.155239,-0.30656 4.856522,2.68966 8.390678,0.37166 12.638467,-8.28942 3.094021,-6.30858 3.864489,-10.14219 4.859138,-24.17754 0.89671,-12.65331 0.786976,-17.209475 -0.454541,-18.872686 C 48.069814,93.354569 43.490134,87.63515 38.792889,81.850635 23.711622,63.278509 20.432978,50.962498 27.349394,38.863902 31.509818,31.58625 31.499122,30.140666 27.270594,28.214021 22.885512,26.216045 17.05232,26.244367 12.572772,28.285381 9.4160737,29.723675 8.7402934,29.558591 6.5100368,26.804341 3.4570357,23.034044 3.3060049,18.9175 6.0756055,14.963342 7.7956756,12.507598 9.4162441,12 15.536444,12 c 5.424132,0 8.456319,-0.762679 11.418789,-2.872143 3.941894,-2.8068767 4.177378,-2.8204239 10.362838,-0.5961636 6.150125,2.2115536 6.482899,2.1959126 11.755915,-0.5525367 7.62804,-3.9759574 10.285009,-2.309241 11.396654,7.1491233 0.467867,3.980812 0.247972,10.415838 -0.488656,14.300057 -0.736627,3.884218 -0.964959,8.301841 -0.507405,9.81694 1.288576,4.266863 5.93315,8.717165 12.685074,12.154488 3.387809,1.724692 7.747209,5.1153 9.687555,7.534687 1.940347,2.419385 5.963782,7.201205 8.940966,10.626265 2.977184,3.425062 7.749819,9.425062 10.605856,13.333334 6.57484,8.997186 5.96306,8.219538 14.51163,18.446059 11.19053,13.38706 28.24292,29.80662 33.57733,32.33125 6.11781,2.89539 8.16792,5.38567 7.61936,9.25526 -0.61133,4.31242 -6.76751,4.79397 -13.42835,1.05037 -6.9361,-3.89831 -7.6641,-2.59536 -1.42386,2.54839 4.12884,3.40333 4.79393,4.57825 3.63325,6.4183 -2.25077,3.56823 -8.39475,4.63072 -17.21672,2.97731 -4.4,-0.82464 -9.66215,-2.12204 -11.69366,-2.88311 -5.25495,-1.96866 -10.16721,-8.36484 -11.15148,-14.52017 -0.58352,-3.64913 -2.03735,-6.18685 -4.71495,-8.23016 -2.129209,-1.62482 -5.950845,-4.66779 -8.492523,-6.76216 -6.727898,-5.54385 -8.614055,-4.13531 -8.614055,6.43277 0,9.05167 -0.158091,9.26636 -6.440411,8.74664 -2.546344,-0.21065 -3.027597,0.30412 -2.666667,2.85242 0.386095,2.72596 1.070703,3.05952 5.550971,2.70461 5.660681,-0.44841 8.88944,1.44176 8.88944,5.20403 0,5.44092 -4.455481,6.29188 -32.864321,6.27686 -14.775376,-0.008 -28.575376,0.33634 -30.666667,0.76478 -2.091291,0.42844 -4.852347,0.1597 -6.13568,-0.59718 z m 45.666668,-13.3496 c 0,-3.9275 -0.188308,-4.06694 -4.333334,-3.20864 -2.383333,0.49351 -5.114276,1.89118 -6.068761,3.10594 -1.525584,1.94158 -1.203139,2.30834 2.666667,3.03313 7.584124,1.42044 7.735428,1.36313 7.735428,-2.93043 z M 101.42277,52.08944 c -3.546703,-3.546707 -2.089319,-7.947007 3.39037,-10.236567 5.05986,-2.114146 6.51117,-4.406699 10.39712,-16.423728 2.23013,-6.896547 3.66263,-9.135482 7.14122,-11.161457 5.61493,-3.270205 13.5693,-3.336679 15.91191,-0.132973 2.29919,3.144333 1.79873,35.243966 -0.59444,38.127562 -1.22488,1.475896 -5.44707,1.993276 -17.64901,2.162687 -14.21149,0.19731 -16.33044,-0.0688 -18.59717,-2.335524 z"
       id="path516" />
  </g>
</svg>
