<?xml version="1.0" encoding="UTF-8" standalone="no"?>
<!-- Created with Inkscape (http://www.inkscape.org/) -->

<svg
   version="1.1"
   id="svg82"
   width="160"
   height="88"
   viewBox="0 0 160 88"
   xmlns="http://www.w3.org/2000/svg"
   xmlns:svg="http://www.w3.org/2000/svg">
  <defs
     id="defs86" />
  <g
     id="g88">
    <path
       style="fill:#000000;stroke-width:1.33333"
       d="M 48.282081,81.384077 C 21.960915,80.649839 20.087169,80.232889 20.020417,75.095239 c -0.05525,-4.252751 4.13525,-5.761906 15.999216,-5.761906 10.712424,0 12.025104,-0.279754 13.904762,-2.963341 C 53.789011,60.85248 52.618372,57.691608 45.345392,54.006111 37.795913,50.1805 24.240467,37.082796 22.415427,31.850448 21.108553,28.103668 16.44044,25.333333 11.433856,25.333333 c -1.7090355,0 -3.8303489,-0.871176 -4.7140307,-1.935948 -2.8877598,-3.479537 -0.985502,-6.631817 5.2925067,-8.770348 3.293217,-1.121794 8.218964,-3.174003 10.946105,-4.560462 4.486858,-2.2810866 5.501327,-2.3454359 10.666667,-0.6766034 3.376119,1.0907664 7.887175,4.1338034 11.041563,7.4483404 2.951597,3.101451 9.780757,7.811417 15.292284,10.546852 5.477422,2.718509 13.773882,7.352092 18.436577,10.296851 8.249643,5.21012 8.716885,5.333344 17.374384,4.582048 4.893218,-0.424634 13.094158,-2.30776 18.224308,-4.184728 5.13016,-1.876967 10.39899,-3.412668 11.70852,-3.412668 3.51992,0 4.1571,3.290268 1.44018,7.43682 l -2.39305,3.652256 3.9584,-0.848302 c 14.01666,-3.003826 22.0613,-3.994054 23.11137,-2.844814 0.63859,0.698889 1.52791,3.233206 1.97627,5.631817 0.98122,5.249288 -2.59044,9.638889 -7.84282,9.638889 -1.85913,0 -4.82976,0.949758 -6.60138,2.110571 -1.77163,1.160813 -4.30052,1.798808 -5.61976,1.417765 C 132.41271,60.480627 124.43333,59.832348 116,59.421051 107.56667,59.009752 97.066667,58.349781 92.666667,57.954449 82.297599,57.022804 76.987657,58.544891 75.930297,62.7519 c -1.2063,4.799615 -0.09166,6.581433 4.117116,6.581433 3.930331,0 7.952587,2.978327 7.952587,5.888588 0,2.786022 -4.352599,5.736434 -9.333333,6.326607 C 76.1,81.852656 62.426937,81.778653 48.282081,81.384077 Z M 63.577485,63.75 c -0.425634,-1.063644 -0.741577,-0.747701 -0.805556,0.805556 -0.05789,1.405555 0.257238,2.193055 0.700294,1.75 C 63.915277,65.8625 63.962647,64.7125 63.577489,63.75 Z"
       id="path377" />
  </g>
</svg>
