<?xml version="1.0" encoding="UTF-8" standalone="no"?>
<!-- Created with Inkscape (http://www.inkscape.org/) -->

<svg
   version="1.1"
   id="svg92"
   width="160"
   height="157.33333"
   viewBox="0 0 160 157.33333"
   xmlns="http://www.w3.org/2000/svg"
   xmlns:svg="http://www.w3.org/2000/svg">
  <defs
     id="defs96" />
  <g
     id="g98">
    <path
       style="fill:#000000;stroke-width:1.33333"
       d="m 48.329701,149.72521 c -1.651998,-0.31807 -5.851998,-3.8776 -9.333333,-7.91009 -5.363991,-6.21319 -6.838261,-7.20743 -9.663035,-6.5167 -11.836496,2.89435 -15.06146,3.25078 -17.517908,1.93612 -5.8210342,-3.11532 -5.7482202,-13.35155 0.108196,-15.2103 3.897475,-1.23701 3.397457,-4.12725 -1.317036,-7.61282 -2.9766639,-2.20075 -3.9550997,-3.90142 -3.6666665,-6.37325 0.5209175,-4.46419 5.0583885,-5.08076 10.8858155,-1.47921 4.440906,2.74463 4.454375,2.74482 6.851943,0.0955 2.445249,-2.70197 5.425241,-3.29879 9.213273,-1.84518 3.212622,1.2328 2.534957,4.12396 -1.89095,8.06746 C 28.126083,116.32845 26.70394,120 29.24088,120 c 2.341955,0 10.661695,6.00027 11.440815,8.25121 1.337417,3.86392 9.872542,10.41545 13.568909,10.41545 1.920132,0 7.250209,-1.77606 11.844619,-3.94682 7.342185,-3.46902 9.940469,-3.9707 21.462458,-4.14404 14.186749,-0.21342 19.858089,0.7837 38.791599,6.82024 7.43235,2.36964 15.24405,3.93729 19.61975,3.93729 5.81869,0 7.54556,0.514 8.64808,2.57407 1.03988,1.94302 0.86458,3.08709 -0.71499,4.66666 -2.67468,2.67468 -25.22395,2.8922 -37.90262,0.36563 -10.20125,-2.03287 -34.390565,-1.90536 -41.9995,0.22139 -5.148549,1.43906 -19.489156,1.75421 -25.670299,0.56413 z M 70.222223,35.11111 c -0.48889,-0.488888 -0.88889,-1.941215 -0.88889,-3.227392 0,-3.680147 -5.301404,-4.013887 -32,-2.014499 C 16.097292,31.45953 12.249428,31.453726 9.6666667,29.827482 6.2388088,27.669123 5.7621471,23.072845 8.5702197,19.25484 10.324206,16.870025 12.288515,16.661974 33.57022,16.606945 68.825433,16.515784 68.997988,16.498741 70.089859,13 c 0.514922,-1.65 1.605356,-3.4408126 2.423182,-3.9795831 2.507802,-1.6520969 7.06974,-1.1297029 8.84821,1.0132211 1.512646,1.822628 1.920932,1.822628 3.934913,0 3.917897,-3.5456485 7.796376,-2.5242866 9.945391,2.619027 l 1.944006,4.652665 11.740549,-0.540233 c 6.45731,-0.297129 18.37461,-0.973992 26.48289,-1.50414 16.8876,-1.104169 20.60355,-0.05897 20.57059,5.785955 -0.0428,7.594135 -0.0995,7.608374 -30.80003,7.751005 l -28.251235,0.131253 -2.575372,3.535416 c -2.948098,4.047089 -5.774645,4.472077 -9.189481,1.381693 -2.190904,-1.982741 -2.550819,-1.982741 -4.533559,0 -2.149488,2.149488 -8.72404,2.948486 -10.40769,1.264834 z"
       id="path120" />
  </g>
</svg>
