<?xml version="1.0" encoding="UTF-8" standalone="no"?>
<!-- Created with Inkscape (http://www.inkscape.org/) -->

<svg
   version="1.1"
   id="svg2"
   width="166.66667"
   height="165.33333"
   viewBox="0 0 166.66667 165.33333"
   xmlns="http://www.w3.org/2000/svg"
   xmlns:svg="http://www.w3.org/2000/svg">
  <defs
     id="defs6" />
  <g
     id="g8">
    <path
       style="fill:#000000;stroke-width:1.33333"
       d="m 9.4428327,153.53793 c -2.1910467,-4.09401 -1.9263525,-4.74244 4.8905013,-11.98036 14.092795,-14.96329 29.052592,-23.70255 43.783926,-25.57783 13.552241,-1.72517 95.29032,-1.42031 97.54941,0.36384 2.15712,1.70362 2.15712,8.51494 0,9.91106 C 154.75,126.84792 131.5,127.33333 104,127.33333 H 54.000001 l -8.368545,4.48678 c -4.602701,2.46773 -8.996094,5.65937 -9.763097,7.09253 -1.374833,2.5689 -0.540148,2.60302 59.035214,2.41412 33.236367,-0.10534 61.179767,-0.14703 62.096427,-0.0925 2.12548,0.1264 2.2538,10.24551 0.14644,11.54794 -0.83613,0.51676 -23.78613,1.11986 -51,1.34025 -27.213876,0.22039 -59.780498,0.78561 -72.370274,1.25608 -22.060027,0.82435 -22.942847,0.75757 -24.3333333,-1.84057 z M 71.064192,70.578777 C 64.91094,68.168108 63.726148,67.039388 60.563381,60.574925 c -2.917996,-5.96417 -3.444185,-8.543937 -2.899312,-14.21455 0.557804,-5.805168 1.395275,-7.552864 5.167478,-10.783874 2.475982,-2.120758 6.451788,-4.701106 8.835121,-5.734106 4.251886,-1.842881 5.260526,-3.832504 3.312916,-6.534989 C 74.440813,22.559813 70.100001,21.748722 65.333335,21.504982 60.566668,21.261242 56.216668,20.787498 55.666668,20.45222 53.606974,19.196633 54.635952,10.776536 57.000001,9.5415818 58.283334,8.8711825 67.133335,8.5981456 76.666668,8.934833 86.200002,9.2715205 96.26087,9.4836247 99.024153,9.4061758 106.17765,9.2056785 109.5879,11.359239 109.07991,15.756344 c -0.33348,2.886605 -1.18527,3.651726 -4.41324,3.964214 -5.765063,0.558095 -11.018736,2.869767 -11.932237,5.250311 -0.520974,1.357636 1.470756,4.157426 5.841368,8.211257 C 106.04089,40.106151 108,44.180847 108,52.783256 c 0,5.080856 -0.77415,6.782845 -5.33649,11.732401 -4.193265,4.549156 -6.549775,5.959723 -11,6.584416 -3.11493,0.437254 -7.463508,1.11022 -9.663508,1.495482 -2.405084,0.421174 -6.765508,-0.382974 -10.93581,-2.016778 z"
       id="path1787" />
  </g>
</svg>
