<?xml version="1.0" encoding="UTF-8" standalone="no"?>
<!-- Created with Inkscape (http://www.inkscape.org/) -->

<svg
   version="1.1"
   id="svg12"
   width="165.33333"
   height="161.33333"
   viewBox="0 0 165.33333 161.33333"
   xmlns="http://www.w3.org/2000/svg"
   xmlns:svg="http://www.w3.org/2000/svg">
  <defs
     id="defs16" />
  <g
     id="g18">
    <path
       style="fill:#000000;stroke-width:1.33333"
       d="m 121.73085,153.24544 c -6.15325,-2.41067 -7.33804,-3.53939 -10.50081,-10.00384 -2.91799,-5.96418 -3.44418,-8.54395 -2.89931,-14.21456 0.55781,-5.80517 1.39528,-7.55286 5.16748,-10.78387 2.47598,-2.12076 6.45179,-4.70111 8.83512,-5.73411 2.38333,-1.033 4.32415,-2.62013 4.31292,-3.52696 -0.0444,-3.58691 -2.20563,-4.58171 -9.31292,-4.28672 -9.46851,0.393 -12.00552,-0.96428 -11.97958,-6.408961 0.035,-7.356432 0.33354,-7.453589 20.6551,-6.722872 10.2618,0.368992 20.91868,0.60285 23.68196,0.519686 C 156.30686,91.884114 160,93.986409 160,97.951671 c 0,5.034819 -3.39651,7.381659 -10.68322,7.381659 -3.57101,0 -6.8656,0.60329 -7.3213,1.34064 -0.45571,0.73736 2.46878,4.48736 6.49886,8.33334 8.20243,7.82772 10.17232,11.78648 10.17232,20.44261 0,5.08086 -0.77414,6.78285 -5.33649,11.7324 -4.19327,4.54916 -6.54977,5.95973 -11,6.58442 -3.11493,0.43726 -7.46351,1.11022 -9.66351,1.49548 -2.40508,0.42118 -6.7655,-0.38297 -10.93581,-2.01678 z M 9.6468678,148.30221 c -4.0812963,-2.7848 -3.5613203,-58.197284 0.5850162,-62.34362 2.971471,-2.97147 43.350496,-2.852401 46.339543,0.136647 1.777021,1.77702 2.095238,6.52387 2.095238,31.254643 0,16.03768 -0.45,29.42717 -0.999999,29.75444 -2.023092,1.20378 -46.389147,2.31054 -48.0197982,1.19789 z M 51.999999,38.712421 C 37.716606,37.492959 13.882302,31.576777 10.340736,28.371703 4.6738056,23.243202 9.3435343,17.058897 20.666666,14.69667 c 4.4,-0.917926 9.033872,-2.212671 10.297495,-2.877211 1.263621,-0.664541 8.463621,-2.1658505 15.999999,-3.3362446 20.623505,-3.2028158 58.50703,-2.2247583 79.7025,2.0577186 3.3,0.666754 9.40472,1.828982 13.56603,2.582727 12.74213,2.307998 17.49257,5.95237 16.10768,12.35723 -0.52329,2.420161 -5.76256,5.185776 -9.82409,5.185776 -1.48038,0 -3.74183,0.562072 -5.02546,1.249048 -1.28362,0.686977 -8.59418,2.536471 -16.24568,4.109985 -15.75167,3.2393 -51.439745,4.548383 -73.245141,2.686722 z M 124,24.890397 l 7.33333,-1.791391 -4.66667,-0.943601 C 111.97982,19.185721 97.894753,17.498656 87.141272,17.421177 71.690889,17.309857 49.691056,19.540281 43.083642,21.887901 l -5.083643,1.806223 3.758353,0.987159 C 55.10158,28.185986 109.93822,28.325418 124,24.890397 Z"
       id="path1648" />
  </g>
</svg>
