<?xml version="1.0" encoding="UTF-8" standalone="no"?>
<!-- Created with Inkscape (http://www.inkscape.org/) -->

<svg
   version="1.1"
   id="svg22"
   width="58.666668"
   height="150.66667"
   viewBox="0 0 58.666668 150.66667"
   xmlns="http://www.w3.org/2000/svg"
   xmlns:svg="http://www.w3.org/2000/svg">
  <defs
     id="defs26" />
  <g
     id="g28">
    <path
       style="fill:#000000;stroke-width:1.33333"
       d="m 7.0000002,144.4503 c -3.5164239,-1.41891 -1.6418543,-7.25774 4.4058898,-13.72326 13.937901,-14.90074 26.807048,-14.26071 37.647471,1.87236 4.983314,7.41634 5.049464,10.21351 0.272972,11.54256 -3.813249,1.06104 -39.8110499,1.32327 -42.3263328,0.30834 z M 16.501895,64.898564 C 9.2666722,62.17938 5.6667856,56.412 4.6286352,45.876409 3.7652109,37.114013 3.9191324,36.300707 7.1726399,32.434133 c 1.9046684,-2.26357 5.5619051,-5.11156 8.1271921,-6.32887 5.24701,-2.489869 7.724291,-6.036175 6.077699,-8.700417 C 20.5767,16.109075 18.50154,15.84938 13.803898,16.457047 6.1589519,17.445963 3.6666667,16.224564 3.6666667,11.489077 c 0,-7.019501 1.5192513,-7.4890769 24.2299273,-7.4890769 22.910462,0 24.103407,0.3728661 24.103407,7.5337469 0,5.186256 -3.092267,7.489341 -7.412637,5.520848 -2.002086,-0.912211 -3.793226,-0.859849 -5.711874,0.16698 -3.947697,2.112744 -1.685096,6.497562 5.794524,11.229523 7.05903,4.465876 9.312371,9.982496 7.993726,19.570196 -1.100603,8.002338 -4.666668,12.835226 -11.892274,16.116933 -6.18136,2.807433 -17.849951,3.172997 -24.269571,0.760337 z"
       id="path1509" />
  </g>
</svg>
