<?xml version="1.0" encoding="UTF-8" standalone="no"?>
<!-- Created with Inkscape (http://www.inkscape.org/) -->

<svg
   version="1.1"
   id="svg32"
   width="82.666664"
   height="158.66667"
   viewBox="0 0 82.666664 158.66667"
   xmlns="http://www.w3.org/2000/svg"
   xmlns:svg="http://www.w3.org/2000/svg">
  <defs
     id="defs36" />
  <g
     id="g38">
    <path
       style="fill:#000000;stroke-width:1.33333"
       d="m 45.333332,152.51055 c -5.850227,-2.20981 -16.907976,-8.14235 -18.969468,-10.17721 -2.879537,-2.84235 -3.687782,-2.87466 -8.544789,-0.34155 -4.621966,2.41052 -8.7294056,2.56455 -10.8857419,0.40821 -2.6215386,-2.62153 -1.8244059,-9.69719 1.6730972,-14.85105 l 3.2730967,-4.82318 -3.5976851,-7.69622 C 5.3597305,108.77853 4.6825142,105.41311 4.6754114,97.107421 4.6678648,88.284878 5.0847274,86.4365 7.7129419,83.638894 c 1.6754514,-1.783436 5.3056561,-3.988274 8.0671201,-4.89964 6.116619,-2.018666 19.943362,-1.244098 28.291691,1.58489 5.641756,1.911814 6.593717,1.87694 13.442092,-0.492438 6.844429,-2.368015 7.7277,-2.400651 12.378601,-0.45738 3.542025,1.479953 4.778828,2.690486 4.224574,4.134848 -0.431029,1.123244 -0.783689,3.147153 -0.783689,4.497577 0,1.350424 -1.480443,4.214723 -3.289872,6.365108 l -3.289872,3.909791 4.100825,6.46633 c 3.895999,6.14335 7.812252,17.78861 7.812252,23.23028 0,6.02624 -6.118554,15.68754 -13.009221,20.5418 -5.390585,3.79748 -15.552809,5.79276 -20.324111,3.99049 z M 9.6027934,68.540789 C 5.7426319,65.718773 8.7058417,60.619939 16.391235,56.859825 25.833483,52.240164 28.171224,49.485456 34.659362,35.333334 40.8306,21.872443 45.52406,16.297067 55.496764,10.580519 62.307943,6.6762185 68.650116,6.284768 72.793612,9.5129258 c 1.721495,1.3411992 0.939731,57.1059502 -0.8269,58.9844022 -1.66501,1.770401 -59.946125,1.811017 -62.3639186,0.04346 z"
       id="path1370" />
  </g>
</svg>
