<?xml version="1.0" encoding="UTF-8" standalone="no"?>
<!-- Created with Inkscape (http://www.inkscape.org/) -->

<svg
   version="1.1"
   id="svg42"
   width="162.66667"
   height="161.33333"
   viewBox="0 0 162.66667 161.33333"
   xmlns="http://www.w3.org/2000/svg"
   xmlns:svg="http://www.w3.org/2000/svg">
  <defs
     id="defs46" />
  <g
     id="g48">
    <path
       style="fill:#000000;stroke-width:1.33333"
       d="m 45.333334,151.77072 c -7.272833,-2.73424 -16,-9.54815 -16,-12.4923 0,-0.84248 -1.05,-2.48168 -2.333333,-3.64264 -1.950948,-1.76492 -3.248051,-1.86661 -7.914974,-0.62056 -7.446053,1.9881 -12.4183602,-0.1 -12.4183602,-5.21498 0,-1.97465 1.0149998,-4.71183 2.255555,-6.08263 2.1197262,-2.34227 2.1146202,-2.73094 -0.084793,-6.45425 C 6.2088847,112.81359 6.9949908,108 10.350225,108 c 1.193789,0 3.804509,1.56545 5.801601,3.47879 l 3.631076,3.47879 3.508786,-5.55828 c 3.076851,-4.87405 4.033993,-5.50746 7.775218,-5.14546 5.866936,0.56769 6.307567,4.7546 1.121936,10.6607 l -3.961961,4.51243 8.500281,9.151 8.500283,9.151 9.501121,-0.79653 c 5.225617,-0.43811 10.199442,-1.32207 11.052945,-1.96439 3.25824,-2.45201 12.90704,-4.30083 22.373184,-4.28695 10.38417,0.0152 17.505705,1.7249 31.791745,7.6323 7.63831,3.15852 10.53992,3.6109 23.3869,3.64625 13.65229,0.0376 14.6932,0.22544 15.05032,2.71669 0.71382,4.9796 -2.52788,7.2927 -11.71699,8.36052 -10.36315,1.20427 -26.63528,0.11 -44.17848,-2.97098 -12.835756,-2.25422 -12.857317,-2.25336 -29.48631,1.17245 -9.152637,1.88559 -17.472322,3.39707 -18.488186,3.35885 -1.015865,-0.0382 -5.147026,-1.31012 -9.18036,-2.82646 z M 23.901199,81.042964 C 21.323743,80.082356 20.888902,78.943092 21.213,73.999998 21.535718,69.077944 16.254674,53.4893 12.674187,48.795042 10.58862,46.060722 9.3080526,42.881092 9.5643263,41.073303 9.9577774,38.297845 10.79202,37.961934 18.172428,37.607219 l 8.172429,-0.39278 0.843329,-5.273886 c 0.463831,-2.900638 1.436237,-5.273887 2.160905,-5.273887 0.728706,0 1.317576,-3.761064 1.317576,-8.415252 0,-8.670793 2.854659,-14.2514141 7.290036,-14.2514141 3.032915,0 6.043298,3.9309009 6.043298,7.8912251 0,2.035412 1.2,5.08436 2.666667,6.775441 2.798338,3.226511 3.007878,4.053646 3.208873,12.666667 l 0.124453,5.333333 7.864018,0.666667 c 9.904589,0.839654 12.086461,3.373469 7.844973,9.110389 -5.674496,7.675166 -9.960201,18.148398 -10.349284,25.291157 -0.211761,3.887515 -0.801933,7.487515 -1.311492,7.999999 -1.32644,1.33405 -27.079156,2.451467 -30.147017,1.308086 z M 105.05527,78.86608 c -13.305465,-1.553855 -13.378463,-4.607192 -0.4399,-18.399797 9.81267,-10.460368 9.86535,-9.824877 -1.77067,-21.358436 -12.946583,-12.83258 -12.34019,-15.703039 3.97578,-18.81999 19.50175,-3.725549 31.00182,-1.554904 41.71286,7.873328 7.2817,6.40962 9.39998,12.696417 8.4228,24.997953 -1.35874,17.104738 -12.25044,25.821736 -32.88671,26.320326 -6.27152,0.151525 -14.82789,-0.124494 -19.01416,-0.613384 z"
       id="path1231" />
  </g>
</svg>
