<?xml version="1.0" encoding="UTF-8" standalone="no"?>
<!-- Created with Inkscape (http://www.inkscape.org/) -->

<svg
   version="1.1"
   id="svg52"
   width="162.66667"
   height="153.33333"
   viewBox="0 0 162.66667 153.33333"
   xmlns="http://www.w3.org/2000/svg"
   xmlns:svg="http://www.w3.org/2000/svg">
  <defs
     id="defs56" />
  <g
     id="g58">
    <path
       style="fill:#000000;stroke-width:1.33333"
       d="m 49.663036,145.72521 c -1.651999,-0.31807 -5.851999,-3.8776 -9.333334,-7.91009 -5.363991,-6.21319 -6.838261,-7.20743 -9.663035,-6.51669 -11.836496,2.89434 -15.06146,3.25077 -17.517909,1.93612 -5.8210337,-3.11532 -5.7482197,-13.35156 0.108197,-15.21031 3.897475,-1.23701 3.397457,-4.12725 -1.317036,-7.61282 -2.976664,-2.20075 -3.9550998,-3.90142 -3.6666666,-6.37325 0.5209175,-4.464188 5.0583886,-5.080756 10.8858156,-1.47921 4.440906,2.74463 4.454375,2.74482 6.851943,0.0955 2.44525,-2.701973 5.425242,-3.298789 9.213274,-1.84518 3.212621,1.2328 2.534956,4.12396 -1.890951,8.06746 -3.873917,3.45167 -5.29606,7.12322 -2.75912,7.12322 2.341955,0 10.661695,6.00027 11.440815,8.25121 1.337417,3.86392 9.872543,10.41545 13.568909,10.41545 1.920133,0 7.25021,-1.77607 11.844619,-3.94682 7.342186,-3.46902 9.94047,-3.9707 21.462459,-4.14404 14.186754,-0.21342 19.858094,0.7837 38.791594,6.82024 7.43235,2.36964 15.24406,3.93729 19.61975,3.93729 5.8187,0 7.54556,0.514 8.64808,2.57407 1.03988,1.94302 0.86459,3.08709 -0.71498,4.66666 -2.67468,2.67468 -25.22396,2.8922 -37.90262,0.36563 -10.20125,-2.03287 -34.39057,-1.90536 -41.999505,0.22139 -5.14855,1.43906 -19.489157,1.75421 -25.670299,0.56413 z M 59.291309,41.938015 C 54.134861,40.99761 46.355656,38.976844 42.004186,37.447426 32.614897,34.147357 29.926051,34.026281 24.847591,36.674881 19.887854,39.261562 12.78744,39.22204 10.607704,36.595621 8.1075287,33.583093 8.4716906,26.594273 11.234088,24.574358 c 1.28986,-0.943168 4.713995,-2.115057 7.60919,-2.604197 2.895194,-0.48914 8.366511,-2.977188 12.158481,-5.528995 3.79197,-2.551808 10.475497,-5.878931 14.852279,-7.3936077 7.057499,-2.442394 9.778354,-2.6510694 24.050022,-1.8445115 18.690358,1.0562785 30.87151,3.8873762 49.42928,11.4881652 12.19847,4.996183 22.67952,8.437325 31.33333,10.287363 4.66764,0.997863 6.66667,2.872359 6.66667,6.251351 0,5.405249 -5.84951,7.876764 -11.68476,4.937004 -9.42268,-4.74708 -14.09681,-6.833597 -15.30835,-6.833597 -0.77427,0 -4.46757,1.488514 -8.20733,3.30781 -14.06456,6.842039 -41.629324,9.165453 -62.841591,5.296872 z M 107.03929,31.934951 c 3.48666,-0.877949 6.63623,-2.076596 6.99905,-2.663657 1.11425,-1.802888 -6.88925,-6.607876 -10.91083,-6.55044 -2.21563,0.03164 -5.714755,1.695816 -8.410476,4 -2.538965,2.170196 -5.324772,3.945812 -6.190682,3.945812 -0.865909,0 -1.921796,0.905349 -2.346413,2.011887 -0.647723,1.687938 0.459105,1.91856 6.873974,1.432278 4.205304,-0.318784 10.498727,-1.29793 13.985377,-2.17588 z M 50.831377,24.710086 c -2.361893,-5.044378 -5.85658,-6.025146 -10.186734,-2.85886 -2.406381,1.759589 -2.303494,1.990348 2.078494,4.661683 2.535608,1.54575 5.884317,2.812698 7.441573,2.81544 2.758224,0.0048 2.775448,-0.114467 0.666667,-4.618263 z"
       id="path1092" />
  </g>
</svg>
