<?xml version="1.0" encoding="UTF-8" standalone="no"?>
<!-- Created with Inkscape (http://www.inkscape.org/) -->

<svg
   version="1.1"
   id="svg62"
   width="158.66667"
   height="152"
   viewBox="0 0 158.66667 152"
   xmlns="http://www.w3.org/2000/svg"
   xmlns:svg="http://www.w3.org/2000/svg">
  <defs
     id="defs66" />
  <g
     id="g68">
    <path
       style="fill:#000000;stroke-width:1.33333"
       d="m 79.415696,144.09101 c -1.775074,-1.96144 -2.082361,-7.41096 -2.082361,-36.92933 0,-25.155381 0.437697,-35.066044 1.6,-36.228347 3.030143,-3.030142 7.911304,-1.738166 12.915815,3.418642 2.959388,3.049446 7.214301,5.697762 10.84397,6.749436 3.28545,0.951936 8.67355,2.691528 11.97355,3.865757 3.3,1.174231 10.32037,2.486985 15.60082,2.917232 5.28046,0.430247 10.36773,1.549536 11.30505,2.487309 1.16692,1.16749 1.76912,6.716588 1.91009,17.600971 0.24248,18.72301 -0.86875,20.92859 -9.78533,19.42214 -8.60387,-1.45361 -29.79944,5.23261 -39.944594,12.60067 -8.370672,6.07932 -11.684896,7.02607 -14.33701,4.09552 z M 18.64254,142.91524 c -2.154592,-1.74468 -3.167121,-4.3008 -3.635813,-9.17856 -0.827541,-8.6124 2.292447,-12.40335 10.208082,-12.40335 6.798497,0 12.128664,5.7726 12.098108,13.10231 -0.02521,6.04956 -1.013535,7.67627 -5.760186,9.48095 -5.421842,2.06137 -9.520475,1.74348 -12.910191,-1.00135 z M 34.158253,119.4223 c -4.39247,-5.75883 -4.507667,-11.33624 -0.315484,-15.27459 5.613697,-5.273793 15.642737,-3.428 18.221056,3.35349 2.003045,5.26841 1.523511,7.99234 -2.182349,12.3965 -4.959499,5.89403 -11.004427,5.71126 -15.723223,-0.4754 z m 21.827135,-7.75563 C 52.80491,106.45031 52.606969,101.63038 55.40894,97.630008 58.575831,93.108639 68.165685,93.428296 71.903228,98.179812 77.883912,105.78302 73.285976,116 63.883629,116 c -4.499168,0 -5.636668,-0.62408 -7.898241,-4.33333 z m 6.68128,-74.235655 C 60.833335,36.790153 56.513793,36.206005 53.067686,36.132907 49.621581,36.059813 40.321581,34.755125 32.401019,33.233612 10.696064,29.064161 2.5959423,24.637736 6.2039505,18.917856 9.2403015,14.10424 41.242672,6.2883655 64.666668,4.6396241 78.912815,3.6368828 114.44199,6.0881523 122,8.5952317 c 2.93334,0.9730198 10.43334,3.1198123 16.66667,4.7706493 12.91457,3.420298 16.32135,5.808454 14.6044,10.237703 -0.87467,2.256411 -3.70261,3.678699 -12.20476,6.138281 -19.36373,5.601722 -24.24339,6.697808 -31.06631,6.978227 -3.66666,0.150699 -15.066665,0.634476 -25.333332,1.07506 -10.266666,0.440585 -20.166667,0.276723 -22,-0.364137 z M 118,24.328423 c 10.12566,-1.036116 10.39616,-1.146428 5.33334,-2.174903 C 120.4,21.557635 114.46388,20.190579 110.14196,19.115617 97.558754,15.985888 63.283073,15.304725 46.49555,17.850768 c -7.794113,1.182077 -14.994113,2.167477 -16,2.189777 -4.926268,0.109214 4.698412,3.350162 14.171118,4.771887 C 56.08434,26.526069 99.311245,26.240768 118,24.328423 Z"
       id="path953" />
  </g>
</svg>
