<?xml version="1.0" encoding="UTF-8" standalone="no"?>
<!-- Created with Inkscape (http://www.inkscape.org/) -->

<svg
   version="1.1"
   id="svg72"
   width="161.33333"
   height="160"
   viewBox="0 0 161.33333 160"
   xmlns="http://www.w3.org/2000/svg"
   xmlns:svg="http://www.w3.org/2000/svg">
  <defs
     id="defs76" />
  <g
     id="g78">
    <path
       style="fill:#000000;stroke-width:1.33333"
       d="m 49.999999,153.33333 c -8.066667,-0.36666 -15.416666,-1.15208 -16.333333,-1.74536 -3.440521,-2.22674 -1.525357,-6.68506 6.043039,-14.0676 L 47.419408,130 47.743446,117.20688 c 0.17822,-7.03621 0.838417,-14.58666 1.467105,-16.77877 1.470868,-5.128613 0.470391,-6.868782 -10.843016,-18.85967 -5.067248,-5.370692 -10.439052,-12.570692 -11.937341,-16 -3.746886,-8.575936 -3.631862,-18.642719 0.309159,-27.056961 2.948569,-6.29532 3.000997,-6.859647 0.952565,-10.253398 -2.832556,-4.692853 -9.074238,-5.461896 -13.848694,-1.706308 -5.3410639,4.201282 -8.5098908,1.804923 -8.5098908,-6.435425 0,-8.154357 1.9607578,-9.853672 11.7595668,-10.1915753 4.165572,-0.1436459 9.58661,-1.3107795 12.046751,-2.5936303 3.85603,-2.0107415 5.16867,-2.1028593 9.516754,-0.6678621 4.397146,1.451189 5.571703,1.3527348 9.161754,-0.7679603 3.2019,-1.8914088 4.940775,-2.1448317 7.81658,-1.1391856 3.106052,1.0861616 3.762277,2.1562959 4.096101,6.6796916 0.218629,2.962478 -0.328259,7.151339 -1.215308,9.308582 -0.887049,2.157243 -1.428997,4.522259 -1.204328,5.255592 0.224671,0.733333 0.886191,4.604073 1.470045,8.601645 1.187879,8.133236 2.821706,9.896859 14.219331,15.348966 4.619513,2.209765 8.247505,5.19141 10.666666,8.766345 2.016347,2.979672 6.066085,8.469624 8.999419,12.199892 7.250364,9.22016 10.963495,14.024844 17.896545,23.157585 3.2431,4.272062 7.1431,9.269297 8.66667,11.104977 5.08091,6.12175 24.79264,25.48726 25.94293,25.48726 3.17907,0 8.16052,5.782 8.16052,9.47194 0,7.06948 -5.65284,6.32272 -14.33333,-1.89349 -5.5786,-5.28022 -5.86806,-1.93989 -0.38752,4.47191 7.59176,8.88178 3.56654,12.62358 -11.31291,10.51638 -11.76266,-1.6658 -19.13571,-6.05638 -21.48077,-12.79161 -0.97826,-2.80965 -1.78769,-6.04076 -1.79873,-7.18024 -0.0279,-2.87813 -7.545828,-9.7359 -14.482612,-13.21084 -3.18773,-1.59688 -6.023377,-2.67591 -6.301436,-2.39786 -0.278058,0.27806 -0.669914,4.36992 -0.870792,9.09302 -0.349294,8.21272 -0.520974,8.60545 -3.934325,8.99993 -8.568669,0.99028 -6.441442,7.86619 2.20318,7.1214 4.512335,-0.38876 8.699246,2.42576 8.699246,5.84778 0,4.7509 -10.163459,5.94425 -39.333332,4.61834 z m 15.193388,-11.7385 c 1.921653,-3.59064 -0.117334,-5.66804 -5.00472,-5.09899 -4.820067,0.56121 -9.0253,4.81039 -6.408344,6.47529 3.061426,1.9477 10.087568,1.1004 11.413064,-1.3763 z M 131.33333,60.386181 c -21.32108,-0.498022 -22,-0.691753 -22,-6.277794 0,-3.770211 1.21705,-5.619787 7.44078,-11.30793 6.72732,-6.148389 8.03776,-6.79998 13.66667,-6.795473 14.63895,0.01173 31.81136,19.843692 20.80575,24.028017 -1.88107,0.715183 -3.53107,1.171312 -3.66667,1.013622 -0.13558,-0.157691 -7.44653,-0.45489 -16.24653,-0.660442 z"
       id="path696" />
  </g>
</svg>
