<?xml version="1.0" encoding="UTF-8" standalone="no"?>
<!-- Created with Inkscape (http://www.inkscape.org/) -->

<svg
   version="1.1"
   id="svg82"
   width="156"
   height="148"
   viewBox="0 0 156 148"
   xmlns="http://www.w3.org/2000/svg"
   xmlns:svg="http://www.w3.org/2000/svg">
  <defs
     id="defs86" />
  <g
     id="g88">
    <path
       style="fill:#000000;stroke-width:1.33333"
       d="M 8.8184679,139.29465 C 5.9822151,136.4584 5.8064615,115.24661 8.5888033,111.5763 c 1.7351227,-2.28887 5.6760607,-2.42117 70.8458727,-2.37839 42.392094,0.0278 69.503734,0.5405 70.292434,1.3292 0.72516,0.72515 1.01822,6.34538 0.67342,12.91451 -0.91332,17.40114 1.30682,16.53941 -42.88158,16.64415 -19.902087,0.0472 -49.767306,0.37264 -66.367149,0.72323 -26.549088,0.56075 -30.440508,0.37848 -32.3333331,-1.51435 z m 49.8481991,-9.28986 c 0,-0.50956 -1.157475,-2.55199 -2.572166,-4.53874 -2.500141,-3.51113 -2.972637,-3.61932 -16.87391,-3.86376 -8.929843,-0.15702 -14.975124,0.30737 -16.0945,1.23637 -2.129184,1.76707 -2.380586,6.08608 -0.390978,6.7169 2.908159,0.92205 35.931554,1.33492 35.931554,0.44923 z m 32,-0.071 c 0,-0.40308 -0.915408,-2.50308 -2.03424,-4.66667 -1.993628,-3.85525 -2.245674,-3.93379 -12.62482,-3.93379 -9.512611,0 -10.506355,0.2375 -9.763095,2.33334 2.067808,5.83077 4.511296,7 14.628805,7 5.386342,0 9.79335,-0.3298 9.79335,-0.73288 z m 45.420983,-0.64737 c 2.46956,-1.32167 3.7204,-7.75752 1.57902,-8.12442 -2.0349,-0.34866 -39.000003,-0.63261 -39.000003,-0.29959 0,1.29896 3.532363,7.98664 4.639523,8.78384 2.0915,1.50594 29.86487,1.20108 32.78146,-0.35983 z M 60.666667,69.716361 C 52.614264,68.49616 51.990021,66.826787 52.094865,46.793349 52.224155,22.089017 53.592164,8.1618672 56.041653,6.6127076 57.118744,5.9315105 67.407143,5.3649797 78.904761,5.3537504 96.150355,5.3369071 100.17627,5.7000839 101.90476,7.4285715 103.68231,9.2061176 104,13.9634 104,38.803751 c 0,22.258272 -0.39969,29.404401 -1.66667,29.798928 -2.719366,0.846788 -37.32413,1.771717 -41.666663,1.113682 z"
       id="path557" />
  </g>
</svg>
