<?xml version="1.0" encoding="UTF-8" standalone="no"?>
<!-- Created with Inkscape (http://www.inkscape.org/) -->

<svg
   version="1.1"
   id="svg92"
   width="126.66667"
   height="166.66667"
   viewBox="0 0 126.66667 166.66667"
   xmlns="http://www.w3.org/2000/svg"
   xmlns:svg="http://www.w3.org/2000/svg">
  <defs
     id="defs96" />
  <g
     id="g98">
    <path
       style="fill:#000000;stroke-width:1.33333"
       d="m 34.537042,158.53704 c -4.067571,-4.06757 -2.6308,-10.47064 4.784787,-21.32373 5.138039,-7.51978 7.251616,-9.40567 13.870026,-12.37583 14.943636,-6.70631 36.507177,-3.31109 45.179313,7.11357 8.720992,10.48339 12.528472,25.06995 7.277462,27.88021 -1.29325,0.69213 -17.184036,1.32245 -35.312856,1.40072 -31.94068,0.1379 -33.049361,0.0544 -35.798732,-2.69494 z M 109,97.226537 c -1.28333,-0.747474 -2.33333,-2.829228 -2.33333,-4.626122 0,-3.980147 -1.80096,-4.087545 -9.13383,-0.544685 -5.098699,2.463423 -9.527168,2.835528 -46.553569,3.911685 C 22.542762,96.793911 9.5427765,96.727109 8.3635381,95.748427 6.0816976,93.854669 6.2074794,87.374279 8.5640376,85.41851 9.9497743,84.268451 17.09936,84.055254 35.077934,84.627879 63.493815,85.532939 87.95335,83.722684 93.824734,80.280019 103.0804,74.852995 103.82961,44.585802 94.970314,34.000001 89.099589,26.985182 81.77505,23.556335 71.371142,22.952488 60.482746,22.320522 63.451131,22.325216 32.034314,22.890288 L 7.4019594,23.333334 6.0855138,19.596308 c -0.894741,-2.539921 -0.8596511,-4.461936 0.109541,-6 1.2609071,-2.001001 4.9594622,-2.309137 31.9487992,-2.661734 37.363375,-0.488128 49.18085,0.898376 57.775687,6.778622 C 99.263795,20.001202 102.9,22.765324 104,23.85569 c 1.77445,1.758903 2.0487,1.390128 2.43179,-3.269938 0.69262,-8.425097 6.42372,-11.9812021 10.80372,-6.703621 0.7967,0.959964 1.42377,17.424587 1.57654,41.394574 0.2376,37.279613 0.0982,39.914292 -2.2007,41.595289 -2.89761,2.118785 -4.45757,2.191451 -7.61135,0.354543 z"
       id="path418" />
  </g>
</svg>
