<?xml version="1.0" encoding="UTF-8" standalone="no"?>
<!-- Created with Inkscape (http://www.inkscape.org/) -->

<svg
   version="1.1"
   id="svg102"
   width="158.66667"
   height="161.33333"
   viewBox="0 0 158.66667 161.33333"
   xmlns="http://www.w3.org/2000/svg"
   xmlns:svg="http://www.w3.org/2000/svg">
  <defs
     id="defs106" />
  <g
     id="g108">
    <path
       style="fill:#000000;stroke-width:1.33333"
       d="m 53.000001,151.06576 c -1.968493,-2.20112 -2.331751,-5.3029 -2.323215,-19.83742 0.01093,-18.7054 1.886578,-38.991705 3.780083,-40.88521 2.002239,-2.002238 49.272121,-2.276256 50.916281,-0.295153 0.83323,1.003976 1.62715,13.018493 1.96703,29.767453 0.67799,33.41079 1.1783,32.18158 -13.102083,32.19063 -5.264286,0.004 -16.171429,0.38018 -24.238096,0.83742 -13.466794,0.76333 -14.857556,0.6179 -17,-1.77772 z M 6.2222224,45.777776 C 4.9524742,44.508028 5.120382,34.955655 6.4266399,34.148345 7.0279583,33.776709 9.2396791,29.091299 11.341575,23.736322 15.633152,12.802717 18.039962,9.3333331 21.333334,9.3333331 c 2.445634,0 5.77082,3.2835219 7.088821,6.9999999 1.014544,2.860799 2.752379,2.968324 5.38737,0.333333 2.771006,-2.771006 6.659063,-2.498842 9.523809,0.666667 C 44.660649,18.8 46.420297,20 47.243664,20 c 0.823365,0 2.5245,-1.2 3.7803,-2.666667 2.874845,-3.357576 5.064721,-3.362828 9.311473,-0.02233 3.352262,2.636889 3.37119,2.636889 6.723451,0 4.249003,-3.342267 6.567736,-3.336878 9.60778,0.02233 2.877852,3.179991 5.08122,3.380296 7.333334,0.666667 2.134652,-2.572099 7.198681,-2.572099 9.333333,0 2.23012,2.68713 3.941607,2.519694 7.393645,-0.723326 2.50072,-2.349309 3.38233,-2.503033 6.41927,-1.119313 1.93623,0.882207 3.52042,2.107703 3.52042,2.723325 0,1.84928 3.55483,1.262275 5.33333,-0.880686 2.14465,-2.584147 7.85954,-2.584147 8.85117,0 1.19854,3.123344 3.26175,2.397836 8.05133,-2.831172 4.16685,-4.549129 4.6002,-4.714971 7.42294,-2.84074 4.6307,3.074666 11.72931,20.405635 11.33418,27.671911 -0.30927,5.68716 -0.53219,6 -4.2754,6 -3.58694,0 -4.18444,-0.672569 -6.51483,-7.333333 -2.95983,-8.459864 -4.72317,-10.135431 -7.09809,-6.744756 -2.56797,3.666279 -6.91497,4.267748 -9.8235,1.359219 -2.47241,-2.472406 -2.59622,-2.457656 -6.42686,0.765616 -4.9268,4.145633 -6.50563,4.119513 -10.99535,-0.181906 l -3.62033,-3.468494 -2.21992,3.388033 c -2.400421,3.663505 -4.379765,3.530377 -9.845017,-0.662165 -3.092053,-2.371996 -3.243941,-2.352974 -7.096607,0.888832 -3.127713,2.631796 -4.46519,3.029989 -6.506988,1.937252 -1.413533,-0.7565 -2.57006,-1.890151 -2.57006,-2.519224 0,-2.739235 -4.081181,-2.326292 -7.399108,0.748658 l -3.610617,3.346207 -4.372079,-4.237585 c -4.287802,-4.155902 -4.400742,-4.184028 -5.859028,-1.459194 -0.817823,1.528115 -2.745168,3.45177 -4.28299,4.274786 -2.285904,1.223378 -3.517942,0.962668 -6.752784,-1.428954 l -3.956747,-2.925349 -2.60193,2.792845 c -3.403962,3.653724 -5.887208,3.524902 -9.927096,-0.514988 l -3.307833,-3.307832 -2.626577,4.307832 c -1.444617,2.369308 -2.62882,4.964842 -2.631561,5.767849 -0.01307,3.808342 -8.4907727,7.609751 -11.1160956,4.984428 z"
       id="path279" />
  </g>
</svg>
