<?xml version="1.0" encoding="UTF-8" standalone="no"?>
<!-- Created with Inkscape (http://www.inkscape.org/) -->

<svg
   version="1.1"
   id="svg112"
   width="154.66667"
   height="128"
   viewBox="0 0 154.66667 128"
   xmlns="http://www.w3.org/2000/svg"
   xmlns:svg="http://www.w3.org/2000/svg">
  <defs
     id="defs116" />
  <g
     id="g118">
    <path
       style="fill:#000000;stroke-width:1.33333"
       d="m 43.93036,123.08177 c -1.871638,-0.29774 -5.851377,-2.7794 -8.843865,-5.5148 -4.427712,-4.04733 -5.734954,-6.38997 -7.020062,-12.5803 -0.868546,-4.18376 -2.288807,-8.067301 -3.156136,-8.630087 -0.86733,-0.562787 -5.476963,-1.626851 -10.24363,-2.364586 L 6.0000001,92.650661 5.6002155,86.48702 C 5.0431422,77.898401 7.2317482,75.975771 16.47914,76.930187 c 6.810402,0.702894 7.188018,0.577478 7.999809,-2.656951 1.587009,-6.323153 -0.03967,-7.762204 -8.431909,-7.459359 C 11.856785,66.965089 7.7984728,66.699495 7.0285695,66.223668 4.3752806,64.583845 3.7928437,58.514755 5.9698993,55.192148 7.8130342,52.379168 9.0678717,52 16.534144,52 26.888855,52 27.428563,51.454471 32.206785,36.158321 38.045953,17.465844 41.607134,7.4456669 43.067749,5.5985795 44.854792,3.3386937 52.116758,4.09126 53.374366,6.6666667 c 4.125419,8.4482823 6.960987,15.8785883 10.585835,27.7390573 2.309446,7.55648 4.913174,13.955328 5.786063,14.219661 11.055387,3.347847 15.913639,0.909314 17.444186,-8.75587 C 88.11289,34.044444 92.039477,21.677709 95.404333,14 97.768967,8.6045317 102.24986,4 105.13582,4 c 3.8309,0 8.86063,6.745354 11.43343,15.333333 1.31816,4.4 2.85075,8.6 3.40576,9.333334 0.55501,0.733333 1.75288,4.505682 2.66195,8.382997 C 124.90683,46.731056 126.52474,48 136.59864,48 c 9.63775,0 11.66803,1.486379 11.66803,8.542192 0,6.437964 -0.96873,7.439051 -7.34536,7.590715 -7.95798,0.189276 -12.1714,1.624484 -12.69107,4.32294 -0.87285,4.532352 2.37708,6.469216 9.26531,5.521844 10.22657,-1.406514 11.83779,-0.33868 11.83779,7.845493 0,3.837248 -0.72,7.696816 -1.6,8.576816 -0.88,0.88 -4.6996,1.6 -8.48802,1.6 h -6.88801 l -2.93393,8.33333 c -4.59498,13.0513 -7.06734,17.06568 -12.09004,19.63063 -10.88076,5.55651 -22.300657,4.19643 -27.170539,-3.23596 -1.953283,-2.98108 -5.199774,-12.45514 -6.760225,-19.728 -0.674014,-3.141408 -1.447181,-3.666667 -5.39724,-3.666667 -5.400101,0 -7.426577,2.559668 -10.028139,12.666667 -3.14127,12.20376 -12.576873,18.90637 -24.046837,17.08177 z M 80.579868,76.033001 c 2.63088,-1.000258 3.420134,-2.231014 3.420134,-5.333333 0,-3.701875 -0.3742,-4.033001 -4.557618,-4.033001 -6.793857,0 -8.775716,1.18648 -8.775716,5.253762 0,1.99932 0.4,4.035127 0.88889,4.524015 1.270285,1.270287 5.054866,1.097737 9.02431,-0.411443 z"
       id="path140" />
  </g>
</svg>
