<?xml version="1.0" encoding="UTF-8" standalone="no"?>
<!-- Created with Inkscape (http://www.inkscape.org/) -->

<svg
   version="1.1"
   id="svg2"
   width="160"
   height="153.33333"
   viewBox="0 0 160 153.33333"
   xmlns="http://www.w3.org/2000/svg"
   xmlns:svg="http://www.w3.org/2000/svg">
  <defs
     id="defs6" />
  <g
     id="g8">
    <path
       style="fill:#000000;stroke-width:1.33333"
       d="m 21.248996,144.56504 c -2.556812,-3.08076 -0.03505,-4.38067 15.138868,-7.80376 4.640243,-1.04679 3.450279,-3.42795 -1.713087,-3.42795 -5.444758,0 -10.390216,2.14057 -15.684056,6.78863 -3.424034,3.00634 -5.652232,3.92394 -8.788832,3.61938 -3.6306889,-0.35254 -4.2572326,-0.9776 -4.6090101,-4.59801 -0.3347461,-3.44513 0.3713607,-4.74433 3.9719654,-7.30818 7.4303407,-5.29087 23.9041927,-13.02346 26.2293067,-12.31166 1.213217,0.3714 6.581468,2.84134 11.929446,5.48873 9.349895,4.62846 10.246658,4.80778 23.333334,4.66579 7.485354,-0.0812 23.809736,-0.25412 36.276399,-0.38422 13.51068,-0.141 23.0046,-0.779 23.50325,-1.57944 1.40713,-2.25874 -0.27949,-6.14612 -3.61477,-8.33148 -4.20839,-2.75745 -7.58085,-9.48449 -6.48531,-12.93624 0.78603,-2.47654 1.56391,-2.66413 7.73537,-1.86547 6.59548,0.85354 11.41705,4.27873 11.49848,8.1684 0.0537,2.5694 5.1522,11.84637 8.74769,15.9171 5.35785,6.06607 7.12964,10.2187 5.83108,13.66667 -1.51393,4.01983 3.37521,3.88395 -58.195244,1.61724 -31.545553,-1.16136 -36.949517,-1.07081 -41.162832,0.68961 -6.950909,2.90428 -31.514483,2.8499 -33.942048,-0.0752 z M 56.266667,66.399999 c -3.423812,-3.423812 -1.743914,-8.105907 5.216186,-14.53818 4.121027,-3.808507 6.434534,-6.916803 5.850968,-7.861031 -0.53087,-0.858965 -5.437648,-3.627609 -10.903949,-6.152541 -8.267961,-3.819042 -9.867943,-5.065838 -9.517636,-7.41668 0.69322,-4.65205 4.176307,-5.92583 10.697555,-3.912141 C 60.757739,27.491478 65.433333,28.372265 68,28.47673 l 4.666667,0.189936 -0.351528,-6 C 71.75696,13.139458 73.093197,8.0522433 76.569937,6.4681343 c 2.213695,-1.0086267 3.898634,-0.9778532 5.928072,0.1082694 2.568816,1.3747887 2.835324,2.6443122 2.835324,13.5061923 v 11.988773 l 9.086659,-4.702352 c 10.380418,-5.371869 12.304378,-5.655212 15.373358,-2.26403 4.68919,5.181496 2.86283,7.711219 -9.00148,12.46812 -11.895895,4.769563 -12.067425,6.001372 -2.135622,15.336581 7.416852,6.971331 8.318192,8.349192 7.526122,11.505064 -0.79056,3.149845 -1.55271,3.585247 -6.27575,3.585247 -4.488357,0 -6.151269,-0.825488 -10.072293,-5 -2.583012,-2.75 -5.621428,-6.35 -6.752036,-8 -1.130608,-1.65 -2.566644,-3 -3.191194,-3 -1.512265,0 -10.557764,9.095284 -10.557764,10.615873 0,4.384068 -9.667114,7.183678 -13.066666,3.784127 z"
       id="path1669" />
  </g>
</svg>
