<?xml version="1.0" encoding="UTF-8" standalone="no"?>
<!-- Created with Inkscape (http://www.inkscape.org/) -->

<svg
   version="1.1"
   id="svg12"
   width="70.666664"
   height="161.33333"
   viewBox="0 0 70.666664 161.33333"
   xmlns="http://www.w3.org/2000/svg"
   xmlns:svg="http://www.w3.org/2000/svg">
  <defs
     id="defs16" />
  <g
     id="g18">
    <path
       style="fill:#000000;stroke-width:1.33333"
       d="m 7.6390812,155.41164 c -1.7271488,-0.85615 -3.1455391,-2.95903 -3.3856576,-5.01952 -0.4812543,-4.12971 2.2631716,-6.05032 10.7047254,-7.4914 4.44186,-0.7583 6.00012,-1.83367 8.095129,-5.58655 1.426928,-2.55613 4.173685,-6.57545 6.103902,-8.93182 6.818077,-8.32337 9.390852,-12.01813 12.692494,-18.22767 l 3.337183,-6.27637 -3.346895,-1.27249 c -1.840793,-0.69987 -5.426667,-1.27249 -7.968609,-1.27249 -3.09477,0 -4.905159,-0.73865 -5.479638,-2.235716 -0.47186,-1.229644 0.847237,-10.379644 2.931325,-20.333333 2.084088,-9.953689 4.191536,-22.047233 4.683217,-26.874545 0.49168,-4.82731 1.24152,-9.339285 1.666311,-10.026609 0.424789,-0.687325 1.511691,-8.632485 2.415336,-17.655913 1.466017,-14.6390573 1.96968,-16.6202882 4.675945,-18.3935011 2.673548,-1.7517751 3.4795,-1.7549955 6.801218,-0.027176 4.23491,2.2028217 8.671196,6.7320141 10.980016,11.2099591 1.069691,2.07466 1.728495,20.327857 2.141489,59.333332 0.328076,30.985262 0.966152,60.361412 1.417947,65.280342 0.784908,8.54573 0.6571,9.09583 -2.873545,12.36792 -3.50247,3.24597 -4.221296,3.37992 -13.796316,2.57069 -10.186825,-0.86093 -16.903371,-3.50569 -15.337461,-6.03938 0.466863,-0.7554 4.361884,-2.89703 8.655605,-4.75916 9.453039,-4.09967 11.30334,-7.86346 9.426828,-19.17559 -0.660673,-3.98273 -1.271367,-5.93967 -1.357095,-4.34877 -0.08573,1.5909 -3.117318,6.13285 -6.736866,10.09321 -3.619549,3.96036 -6.953036,8.65872 -7.407749,10.44079 -0.454715,1.78206 -2.443265,5.1635 -4.419004,7.51432 -3.112517,3.7034 -4.797856,4.43022 -12.619835,5.44253 -6.15023,0.79595 -9.9749804,0.69871 -11.9999998,-0.30509 z"
       id="path1530" />
  </g>
</svg>
