<?xml version="1.0" encoding="UTF-8" standalone="no"?>
<!-- Created with Inkscape (http://www.inkscape.org/) -->

<svg
   version="1.1"
   id="svg22"
   width="109.33333"
   height="164"
   viewBox="0 0 109.33333 164"
   xmlns="http://www.w3.org/2000/svg"
   xmlns:svg="http://www.w3.org/2000/svg">
  <defs
     id="defs26" />
  <g
     id="g28">
    <path
       style="fill:#000000;stroke-width:1.33333"
       d="m 21.42531,157.33165 c -13.8110789,-1.5626 -16.7423683,-8.52432 -7.018353,-16.66836 3.794134,-3.17766 4.860244,-3.48437 7.666666,-2.20568 1.79284,0.81687 3.25971,2.1237 3.25971,2.90407 0,0.78037 2.399999,4.66761 5.333333,8.63832 2.933333,3.97071 5.333333,7.54509 5.333333,7.94307 0,0.84054 -2.767627,0.72445 -14.574689,-0.61142 z m 16.432129,-3.58025 c -5.379389,-5.87293 -6.639376,-9.20265 -4.471005,-11.81539 2.164345,-2.60786 5.670201,-2.44105 8.349821,0.39732 13.699446,14.51106 14.250875,16.27132 5.110237,16.31292 -3.482077,0.0159 -5.495044,-1.08029 -8.989053,-4.89485 z m 16.392747,-1.82503 C 51.580525,148.95255 48.687125,144.15255 47.820411,141.25971 46.31262,136.22715 46.004159,136 40.677837,136 c -3.061699,0 -6.022167,-0.45 -6.578818,-1 -0.556651,-0.55 -3.206651,-1.02951 -5.888889,-1.06559 -14.303197,-0.19234 -17.654332,-0.6719 -18.4073022,-2.6341 -1.0676366,-2.78222 5.6734852,-12.75091 8.0149452,-11.85241 1.109462,0.42575 2.131413,-0.44292 2.591665,-2.20293 0.673035,-2.57369 1.339643,-2.79708 5.831741,-1.95436 6.732725,1.26307 7.233921,1.6803 6.332533,5.27171 -0.680002,2.70935 -0.177045,3.16244 4.32844,3.8993 3.840231,0.62805 5.870715,1.97562 8.230729,5.46249 3.514064,5.19194 9.249851,9.8883 16.20045,13.26461 5.639623,2.73949 11.103227,10.50805 8.923367,12.68791 -0.801185,0.80118 -3.638273,1.4567 -6.30464,1.4567 -3.980073,0 -5.716881,-0.96794 -9.701872,-5.40696 z m 22.083145,2.8986 c -3.615619,-3.88684 -7,-8.59293 -7,-9.73372 0,-1.70296 13.64482,-0.0179 15.58772,1.92504 2.991586,2.99159 3.203194,7.49006 0.422341,8.97832 -3.710913,1.98603 -6.399226,1.63704 -9.010061,-1.16964 z m 14.559114,-3.52856 c -1.161982,-2.55028 -1.157365,-3.97589 0.01897,-5.85953 1.505173,-2.41016 1.694522,-2.3984 5.958965,0.37027 7.4145,4.8138 7.38326,8.85952 -0.0684,8.85952 -3.38444,0 -4.721353,-0.76246 -5.909549,-3.37026 z m 7.919704,-6.52241 c -2.404927,-1.77429 -6.525922,-5.74168 -9.15777,-8.8164 -3.79215,-4.43027 -4.492795,-6.04354 -3.376258,-7.774 1.329274,-2.06016 5.597614,-2.28769 7.055209,-0.37608 0.366667,0.48087 2.854935,2.50435 5.529483,4.49662 4.135667,3.08065 4.934607,4.52499 5.342937,9.65909 0.26407,3.32022 0.14237,6.03677 -0.27044,6.03677 -0.41281,0 -2.71823,-1.45169 -5.123161,-3.226 z m -40.145484,-8.75257 c -2.566667,-1.403 -6.005133,-3.27284 -7.641037,-4.15518 -1.635904,-0.88235 -3.346176,-2.77572 -3.800604,-4.2075 -0.454428,-1.43178 -2.863533,-4.76315 -5.353567,-7.40305 C 37.065796,115.16079 37.420715,113 43.063233,113 c 2.314844,0 6.431344,3.18947 14.1641,10.97437 5.995476,6.0359 10.6723,11.6609 10.392944,12.5 -0.814156,2.44546 -3.940592,2.2873 -8.953612,-0.45294 z m 11.516028,-2.66204 c -5.364555,-4.94488 -10.855711,-14.9086 -9.154123,-16.61018 2.653345,-2.65335 13.638094,1.9395 13.638094,5.70224 0,1.31064 1.8,4.10748 4,6.21522 2.2,2.10773 4,5.21998 4,6.91612 0,5.01125 -5.745401,3.988 -12.483971,-2.2234 z m 24.71474,-7.82464 c -1.960256,-2.08923 -5.574253,-6.32052 -8.031104,-9.40288 -2.45685,-3.08235 -6.950603,-7.22299 -9.986118,-9.20141 C 68.844894,101.69338 58.52618,90.545099 56.815636,85.252805 55.699422,81.799323 54.484278,80.567923 51.895504,80.266852 48.936611,79.922737 34.666666,67.049605 34.666666,64.724457 34.666666,64.326005 36.131255,64 37.92131,64 c 1.790054,0 3.569523,-0.509485 3.954375,-1.132191 0.937112,-1.51628 14.124313,11.287151 14.124313,13.713271 0,1.048237 1.35,2.312225 3,2.808861 1.65,0.496636 9.686819,7.737068 17.859596,16.08985 8.172777,8.352779 15.302825,15.186879 15.844549,15.186879 0.541723,0 3.304373,2.25 6.139219,5 3.899508,3.78279 5.154558,6.05491 5.155448,9.33333 9.6e-4,3.49832 -0.53243,4.33333 -2.76804,4.33333 -1.523081,0 -4.373081,-1.70936 -6.333337,-3.79858 z M 92.656935,107.31853 C 72.70889,88.969171 72.73322,88.997876 73.175354,84.333333 c 0.08689,-0.916666 1.735754,-1.666666 3.66415,-1.666666 2.53262,0 5.880336,2.374164 12.056537,8.550365 4.702701,4.702701 9.979417,9.486718 11.726039,10.631148 4.15638,2.72337 5.27358,6.57446 3.10687,10.70976 l -1.74841,3.33697 z m -82.561697,1.2529 c -3.4381507,-3.43815 -2.0798417,-6.52186 3.488318,-7.91938 3.000065,-0.752973 3.856382,-0.29991 5.47037,2.89428 1.052439,2.08285 1.645849,4.537 1.318688,5.45367 -0.842156,2.35963 -7.778423,2.07038 -10.277376,-0.42857 z m 48.987174,0.26833 c 0.403846,-1.05241 -1.539663,-3.73736 -4.584392,-6.33333 -9.918051,-8.456245 -13.512137,-12.500027 -18.522238,-20.839763 -1.43179,-2.383334 -3.462675,-4.333334 -4.51308,-4.333334 -2.856695,0 -23.4627022,-21.044644 -23.4627022,-23.962149 0,-3.701663 4.9475302,-4.7922 8.2782482,-1.824695 2.210537,1.96948 15.962934,15.976012 24.721751,25.178594 0.916666,0.963109 1.666666,2.393965 1.666666,3.179678 0,0.785715 0.45,1.429306 1,1.4302 2.131223,0.0035 20.333333,16.770172 20.333333,18.729859 0,0.59885 1.144572,1.45209 2.543492,1.89609 3.260055,1.0347 4.603489,4.52044 2.649585,6.87475 -2.068718,2.49266 -11.067011,2.4963 -10.110663,0.004 z m -28.415746,-0.54481 c -3.526427,-0.32925 -6.051243,-1.92301 -10.333333,-6.52279 -6.020549,-6.467209 -7.377362,-12.025889 -3.683647,-15.091401 2.900781,-2.407435 5.662197,-0.777558 7.946905,4.690518 1.107806,2.651352 2.557132,4.485084 3.220725,4.07496 0.663594,-0.410122 1.940695,1.026743 2.838003,3.193038 0.897308,2.166295 2.766943,4.299095 4.154741,4.739575 2.478523,0.78665 3.487004,4.03585 1.523272,4.90779 -0.55,0.24421 -3.1,0.24795 -5.666666,0.008 z m 11.999999,-2.722 c -5.405507,-2.44947 -9.408737,-6.258815 -10.894085,-10.36647 -0.902889,-2.496897 -2.35689,-4.539813 -3.231114,-4.539813 -0.874223,0 -1.934859,-0.9 -2.356968,-2 -0.599688,-1.562763 0.346468,-2 4.327877,-2 4.648313,0 5.750787,0.779865 12.566104,8.888993 4.108914,4.88895 7.161766,9.38895 6.784114,10 -0.803645,1.30033 -4.345736,1.30884 -7.195928,0.0173 z M 94.369434,90.945687 c -2.40319,-1.985268 -5.532574,-4.660203 -6.954185,-5.9443 -1.421612,-1.284096 -3.33118,-2.33472 -4.243484,-2.33472 -0.912304,0 -2.015946,-1.125475 -2.452538,-2.501056 -0.436592,-1.37558 -3.978257,-5.72558 -7.870367,-9.666667 -3.892109,-3.941085 -7.461721,-8.22922 -7.93247,-9.529185 -0.470751,-1.299967 -1.919517,-2.736758 -3.219484,-3.192868 -5.697789,-1.999148 -13.909673,-12.443558 -9.783708,-12.443558 4.543978,0 14.753467,7.256535 14.753467,10.486228 0,0.832575 0.893141,1.513772 1.984758,1.513772 3.045933,0 19.230157,13.922059 19.374796,16.666667 0.03865,0.733333 3.198556,3.442768 7.022022,6.020967 5.550169,3.742533 7.033439,5.522761 7.356869,8.829802 0.56301,5.756519 -2.603856,6.582127 -8.035676,2.094918 z M 14.334242,80.304776 c -2.661057,-0.5704 -4.078158,-4.883751 -3.438351,-10.465603 0.656554,-5.72797 4.154087,-5.422417 9.076763,0.792967 3.345837,4.224464 3.965083,5.836313 2.787384,7.255353 -1.782089,2.147287 -5.161856,3.116911 -8.425796,2.417283 z M 97.33333,78.920177 c 0,-1.332437 -10.146017,-12.25351 -11.383893,-12.25351 -0.396104,0 -3.144294,-2.4 -6.10709,-5.333334 C 76.879551,58.4 73.75297,55.961576 72.894388,55.914613 c -0.858581,-0.04696 -6.961057,-5.78551 -13.561056,-12.752329 -6.6,-6.966819 -16.65,-17.371033 -22.333333,-23.120476 C 31.316666,14.292365 26.666666,9.0059143 26.666666,8.2941383 c 0,-0.711776 1.904952,-1.6751288 4.233228,-2.1407839 4.992976,-0.9985952 7.502577,0.9639988 16.853457,13.1799786 6.326422,8.264834 7.341473,9.267615 16.195778,16 2.893397,2.2 5.288506,4.662966 5.322462,5.473258 0.07271,1.734913 11.10114,12.035453 21.977278,20.526742 4.226832,3.3 8.851211,7.191282 10.276411,8.647292 3.49591,3.571511 2.80855,9.210614 -1.19195,9.778776 -1.65,0.234338 -3,-0.143313 -3,-0.839224 z M 52.333332,68.275117 c -3.85,-3.51872 -7,-6.694133 -7,-7.056473 0,-1.877759 13.143557,-0.236503 17.039258,2.127719 3.589319,2.178285 4.305848,3.370166 4,6.653637 -0.612735,6.578073 -5.628913,5.961779 -14.039258,-1.724883 z M 24.666666,55.944087 c -2.933333,-2.892134 -5.783333,-5.262699 -6.333333,-5.267923 -0.55,-0.0052 -1,-0.532812 -1,-1.17242 0,-0.639607 2.536284,-1.568491 5.636188,-2.064185 5.313701,-0.849695 5.881501,-0.617396 9.923617,4.059965 3.377542,3.908344 4.010722,5.478263 2.983568,7.397519 -1.988912,3.716314 -5.341478,2.83318 -11.21004,-2.952956 z m 65.247762,-1.981824 c -2.152937,-1.759832 -4.684665,-3.221272 -5.626064,-3.247646 -0.941399,-0.02637 -2.921641,-2.09876 -4.40054,-4.605305 C 78.408927,43.602767 75.777627,40.620689 74.040491,39.482475 72.303354,38.344259 69.601625,35.134763 68.036647,32.350261 66.47167,29.565759 63.273205,25.962073 60.928949,24.342069 53.756625,19.385621 45.333332,11.086419 45.333332,8.9762061 c 0,-5.7013673 14.213406,-1.2912384 17.238837,5.3488579 0.753862,1.654548 1.983522,3.008269 2.732577,3.008269 0.749056,0 1.361919,0.814423 1.361919,1.809827 0,2.451145 18.975923,21.592123 23.962204,24.170629 2.195962,1.135575 4.902812,3.824731 6.015225,5.9759 2.537438,4.906863 2.531166,5.010962 -0.396333,6.577712 -1.842089,0.985856 -3.352341,0.531556 -6.333333,-1.905138 z M 37.948391,50.326137 c -6.8066,-7.267804 -13.16497,-12.564456 -16.263622,-13.547929 -1.621698,-0.514707 -4.100546,-2.400365 -5.508549,-4.190352 -1.408004,-1.789988 -3.208247,-3.254523 -4.00054,-3.254523 -2.3887278,0 -5.5090135,-7.51445 -5.5090135,-13.26712 0,-2.96975 0.5282298,-5.399546 1.1738441,-5.399546 0.6456142,0 4.3754584,3.75 8.2885434,8.333333 11.322258,13.261581 23.844354,25 26.669041,25 3.33416,0 5.942612,6.167599 3.733972,8.828849 -2.306267,2.77888 -4.13721,2.245038 -8.583676,-2.502712 z M 85.835681,34.333333 C 78.796159,27.55 71.753326,20.770171 70.184941,19.267047 65.438169,14.717791 61.40497,8.9627753 62.135349,7.7809972 c 0.378782,-0.6128817 2.476806,-1.1143305 4.662276,-1.1143305 3.294757,0 6.698003,2.7144081 19.92131,15.8891133 13.490735,13.441147 15.947725,16.522461 15.947725,20 0,2.779667 -0.65281,4.110887 -2.01592,4.110887 -1.108762,0 -7.775536,-5.55 -14.815059,-12.333334 z M 25.37313,25.493677 8.7462603,8.6666667 13.614176,8.2583483 c 5.671819,-0.4757498 13.130345,3.8021697 18.385823,10.5453927 1.833333,2.352322 6.783333,7.850107 11,12.2173 4.216666,4.367194 7.666666,8.409844 7.666666,8.98367 0,1.335394 -3.565094,2.712742 -6.442382,2.488966 -1.223356,-0.09515 -9.706376,-7.745144 -18.851153,-17 z m 67.469583,-2.491506 c -3.295133,-2.751195 -7.567389,-6.106308 -9.493902,-7.45581 -5.267445,-3.689785 -4.124664,-8.0930949 2.237666,-8.6220675 2.705898,-0.224972 6.708594,0.5159748 8.894881,1.6465482 8.253862,4.2682373 12.421442,15.1151333 6.935572,18.0510833 -2.123622,1.13653 -3.648696,0.492694 -8.574217,-3.619754 z"
       id="path1391" />
  </g>
</svg>
