<?xml version="1.0" encoding="UTF-8" standalone="no"?>
<!-- Created with Inkscape (http://www.inkscape.org/) -->

<svg
   version="1.1"
   id="svg32"
   width="169.33333"
   height="162.66667"
   viewBox="0 0 169.33333 162.66667"
   xmlns="http://www.w3.org/2000/svg"
   xmlns:svg="http://www.w3.org/2000/svg">
  <defs
     id="defs36" />
  <g
     id="g38">
    <path
       style="fill:#000000;stroke-width:1.33333"
       d="m 89.203706,153.20371 c -4.06757,-4.06757 -2.6308,-10.47064 4.784787,-21.32373 5.138038,-7.51978 7.251617,-9.40567 13.870027,-12.37583 14.94363,-6.70631 36.50717,-3.31109 45.1793,7.11357 8.721,10.48339 12.52848,25.06995 7.27747,27.8802 -1.29325,0.69214 -17.18404,1.32246 -35.31285,1.40072 -31.940682,0.13791 -33.049363,0.0544 -35.798734,-2.69493 z M 29.062267,150.69274 C 16.309942,145.83919 10.110038,138.10334 10.100954,127.034 c -0.0068,-8.32611 3.004604,-13.17572 10.489446,-16.89218 4.149529,-2.06037 6.218611,-2.30566 11.247287,-1.33333 5.549851,1.07309 6.444732,1.78011 9.003888,7.11367 2.223017,4.63301 2.563301,6.72042 1.563216,9.58926 -1.961756,5.6275 -4.242848,6.78657 -12.361717,6.28125 -10.754538,-0.66936 -9.043712,4.63664 2.623592,8.13688 13.388617,4.01664 15.944269,6.37875 11.825497,10.92995 -2.734976,3.0221 -7.17754,2.97409 -15.429896,-0.16676 z m 2.937732,-29.7594 c 0,-3.34983 -2.769234,-4.82943 -6.153138,-3.28762 -2.446341,1.11462 -2.823949,1.84363 -1.673181,3.23022 1.903451,2.29352 7.826319,2.33695 7.826319,0.0574 z M 143.24221,89.02345 c -3.20201,-2.518703 -3.32035,-3.138911 -2.95555,-15.490268 l 0.38,-12.866514 6.11679,-0.397544 c 8.67172,-0.563596 9.88388,1.359485 9.372,14.868611 -0.22609,5.9667 -0.93537,11.828211 -1.57619,13.025579 -1.8319,3.422951 -7.52942,3.855217 -11.33705,0.860136 z M 8.225286,87.691955 C 7.3680453,86.834714 6.6666665,84.204436 6.6666665,81.846894 c 0,-3.57897 1.0453112,-5.045879 6.3333335,-8.887715 8.095776,-5.881718 14.763757,-8.03267 21.25029,-6.854903 6.426295,1.166829 14.515012,5.206483 18.595424,9.286895 3.489662,3.489663 4.226854,10.058825 1.392753,12.41092 -2.499296,2.074231 -43.927976,1.975068 -46.013181,-0.110133 z M 32.873317,50.895013 c -1.213659,-1.341076 -2.206651,-4.267609 -2.206651,-6.503407 0,-4.894723 -2.526053,-7.238145 -8.92477,-8.27952 -8.781139,-1.429109 -9.505557,-9.563425 -0.940747,-10.563399 5.763716,-0.672936 7.19885,-2.555909 7.19885,-9.44528 0,-3.430207 0.72,-6.9567401 1.6,-7.8367402 2.423816,-2.4238167 7.03146,-1.9188693 9.733334,1.0666667 3.501638,3.8692675 22.1576,3.8692675 27.999999,0 7.433332,-4.9229018 14,-2.5800398 14,4.9949335 0,1.376968 1.85926,3.878188 4.131688,5.558267 4.515917,3.338761 2.208604,3.4221 34.89306,-1.260307 21.5436,-3.086356 34.32904,-0.673276 34.28817,6.47143 -0.0107,1.962956 -0.50341,4.329973 -1.09375,5.260038 -2.58484,4.072412 -17.96964,5.449088 -34.37159,3.075671 -4.68695,-0.678217 -12.56632,-0.684683 -18.536,-0.01521 -11.768797,1.319816 -16.228717,4.207257 -16.906042,10.945301 -0.581976,5.789516 -3.629131,7.242254 -11.035703,5.261298 -6.854722,-1.833356 -30.036499,-2.223448 -30.036499,-0.505438 0,0.903179 -5.648533,4.21402 -7.18942,4.21402 -0.218504,0 -1.390272,-1.097244 -2.603929,-2.438321 z"
       id="path1252" />
  </g>
</svg>
