<?xml version="1.0" encoding="UTF-8" standalone="no"?>
<!-- Created with Inkscape (http://www.inkscape.org/) -->

<svg
   version="1.1"
   id="svg42"
   width="157.33333"
   height="153.33333"
   viewBox="0 0 157.33333 153.33333"
   xmlns="http://www.w3.org/2000/svg"
   xmlns:svg="http://www.w3.org/2000/svg">
  <defs
     id="defs46" />
  <g
     id="g48">
    <path
       style="fill:#000000;stroke-width:1.33333"
       d="m 145.03524,146.38713 c -3.38295,-1.16683 -6.33594,-7.07196 -6.36114,-12.72047 -0.0136,-3.04969 -3.94348,-1.71907 -4.78125,1.6189 -1.26045,5.02202 -5.8054,5.79465 -8.92171,1.51664 l -2.56709,-3.52405 -4.35941,2.69426 c -5.5697,3.44227 -6.48954,3.39029 -10.80651,-0.61053 l -3.56592,-3.30479 -2.59955,3.30479 c -3.172346,4.03298 -4.997233,4.13004 -9.598754,0.51048 -3.318989,-2.61072 -3.765724,-2.65452 -6.799568,-0.66667 -4.127337,2.70433 -5.856852,2.67743 -8.969574,-0.13955 -2.361047,-2.13671 -2.770139,-2.1245 -7.109071,0.21216 -4.749017,2.55752 -6.66967,2.2256 -12.869104,-2.22401 -1.891909,-1.3579 -2.856722,-1.08373 -5.749447,1.63385 -3.348412,3.14567 -3.616368,3.18503 -7.297996,1.07207 -3.28143,-1.88329 -4.165425,-1.93316 -6.250552,-0.3526 -3.629672,2.75135 -6.915092,2.31437 -11.480189,-1.52691 l -4.103211,-3.45262 -2.094066,5.11929 c -3.599856,8.80044 -5.379018,11.11929 -8.531373,11.11929 -6.6558093,0 -7.7664011,-4.75426 -3.3653422,-14.40648 1.5699272,-3.4431 3.9405432,-8.79138 5.2680362,-11.88506 3.391479,-7.90374 12.327205,-9.88413 15.193721,-3.36733 1.527793,3.47331 3.66548,3.82581 6.017163,0.99221 2.333738,-2.81199 5.307508,-2.4891 8.996846,0.97685 3.077951,2.89159 3.284019,2.91068 7.193988,0.66667 5.223836,-2.99807 7.661241,-2.91399 11.1733,0.38541 l 2.869337,2.69561 3.426903,-2.69561 c 4.360905,-3.43028 8.513057,-3.4419 10.339625,-0.0289 1.794809,3.35363 3.306146,3.36052 6.636425,0.0302 2.741069,-2.74107 5.577552,-2.4842 9.49113,0.85951 1.819855,1.55486 2.621615,1.42914 5.54364,-0.86933 4.308873,-3.38936 6.954633,-3.39459 10.328803,-0.0204 1.46667,1.46666 3.12234,2.66666 3.67927,2.66666 0.55693,0 1.76202,-1.2 2.67797,-2.66666 1.99878,-3.20057 6.55538,-3.46071 9.76348,-0.55742 2.15052,1.9462 2.61372,1.79159 5.99205,-2 2.01375,-2.26009 4.96919,-4.10925 6.56764,-4.10925 3.25536,0 7.31959,3.82168 7.31959,6.88277 0,1.10336 0.38619,2.3923 0.85819,2.86431 1.6982,1.69819 7.1296,16.31715 7.13564,19.20601 0.008,3.88051 -3.6645,5.69676 -8.29192,4.10071 z M 42.53704,109.20371 c -4.06757,-4.06757 -2.6308,-10.470649 4.784787,-21.323736 5.138039,-7.519782 7.251616,-9.405668 13.870025,-12.375833 14.943636,-6.706305 36.507175,-3.311084 45.179308,7.113571 8.721,10.483387 12.52848,25.069958 7.27747,27.880208 -1.29325,0.69213 -17.18404,1.32245 -35.31286,1.40072 -31.940678,0.1379 -33.049359,0.0544 -35.79873,-2.69493 z M 26.999999,62.654224 c -2.174122,-0.894985 -3,-2.340965 -3,-5.252524 0,-5.445964 2.713716,-5.968276 25.850152,-4.975409 10.75099,0.461363 26.144197,0.148197 35.911677,-0.7306 17.017432,-1.531091 17.115952,-1.559485 21.666662,-6.244677 6.31926,-6.505998 6.40059,-13.564287 0.23817,-20.670115 L 103.33333,19.784172 71.999998,19.21019 C 51.277492,18.830585 38.471065,19.150128 34.183147,20.153788 27.132871,21.804025 26.18025,21.278945 24.458541,14.79363 22.649965,7.9811024 24.42611,7.3882953 48.808242,6.6666665 61.197041,6.2999999 79.007669,6.4389703 88.387415,6.9754897 103.21191,7.8234478 106.19638,8.3933674 111.21555,11.334801 l 5.77406,3.383821 0.77053,-3.852689 c 0.85169,-4.2584062 5.11583,-6.2279859 8.99218,-4.1534267 2.04455,1.0942099 2.38406,4.1450117 2.84875,25.5982117 0.29016,13.39577 0.0635,25.705947 -0.50375,27.355947 -1.51116,4.395796 -8.69691,4.226756 -10.39691,-0.244581 l -1.23359,-3.244583 -5.06675,2.419824 c -2.7867,1.330904 -8.06674,3.029778 -11.73341,3.775276 -8.401838,1.708244 -69.632442,1.942324 -73.666661,0.281623 z"
       id="path1113" />
  </g>
</svg>
