<?xml version="1.0" encoding="UTF-8" standalone="no"?>
<!-- Created with Inkscape (http://www.inkscape.org/) -->

<svg
   version="1.1"
   id="svg52"
   width="85.333336"
   height="157.33333"
   viewBox="0 0 85.333336 157.33333"
   xmlns="http://www.w3.org/2000/svg"
   xmlns:svg="http://www.w3.org/2000/svg">
  <defs
     id="defs56" />
  <g
     id="g58">
    <path
       style="fill:#000000;stroke-width:1.33333"
       d="m 6.5370419,146.53704 c -4.0675717,-4.06758 -2.6308,-10.47064 4.7847861,-21.32373 5.138039,-7.51979 7.251617,-9.40567 13.870026,-12.37584 14.943637,-6.7063 36.507177,-3.31108 45.179314,7.11357 8.720996,10.48339 12.528473,25.06996 7.277466,27.88021 -1.293253,0.69213 -17.18404,1.32245 -35.312861,1.40072 -31.940679,0.13791 -33.0493603,0.0544 -35.7987311,-2.69493 z M 18.933334,65.066665 c -3.423812,-3.423812 -1.743913,-8.105906 5.216187,-14.538179 4.121027,-3.808507 6.434533,-6.916803 5.850968,-7.861031 -0.530871,-0.858965 -5.437648,-3.627609 -10.90395,-6.152541 -8.267961,-3.819043 -9.8679428,-5.065839 -9.5176355,-7.41668 0.6932185,-4.652051 4.1763065,-5.92583 10.6975545,-3.912141 3.147948,0.972052 7.823543,1.852838 10.39021,1.957304 l 4.666666,0.189936 -0.351528,-6 C 34.423628,11.806125 35.759865,6.71891 39.236605,5.134801 41.4503,4.1261743 43.135239,4.1569478 45.164677,5.2430704 c 2.568816,1.3747887 2.835325,2.6443122 2.835325,13.5061916 v 11.988773 l 9.086658,-4.702352 c 10.380414,-5.371869 12.304381,-5.655211 15.373358,-2.264029 4.68919,5.181496 2.862831,7.711219 -9.001483,12.46812 -11.895892,4.769562 -12.067421,6.001372 -2.135618,15.336581 7.416854,6.97133 8.318193,8.349192 7.52612,11.505064 -0.790562,3.149845 -1.552704,3.585246 -6.275748,3.585246 -4.488358,0 -6.15127,-0.825488 -10.072294,-5 -2.583012,-2.75 -5.621428,-6.35 -6.752036,-7.999999 -1.130608,-1.65 -2.566644,-3 -3.191194,-3 -1.512265,0 -10.557764,9.095283 -10.557764,10.615873 0,4.384068 -9.667115,7.183678 -13.066667,3.784126 z"
       id="path974" />
  </g>
</svg>
