<?xml version="1.0" encoding="UTF-8" standalone="no"?>
<!-- Created with Inkscape (http://www.inkscape.org/) -->

<svg
   version="1.1"
   id="svg62"
   width="161.33333"
   height="150.66667"
   viewBox="0 0 161.33333 150.66667"
   xmlns="http://www.w3.org/2000/svg"
   xmlns:svg="http://www.w3.org/2000/svg">
  <defs
     id="defs66" />
  <g
     id="g68">
    <path
       style="fill:#000000;stroke-width:1.33333"
       d="m 52.999999,143.06576 c -1.968493,-2.20112 -2.331751,-5.30289 -2.323215,-19.83741 0.01093,-18.7054 1.886578,-38.991711 3.780083,-40.885216 2.002239,-2.002239 49.272113,-2.276256 50.916283,-0.295154 0.83323,1.003977 1.62714,13.018498 1.96702,29.76745 0.678,33.4108 1.17831,32.18159 -13.102077,32.19064 -5.264286,0.004 -16.171428,0.38017 -24.238094,0.83741 -13.466795,0.76334 -14.857556,0.61791 -17,-1.77772 z M 73.999998,44.427689 C 64.093611,43.881837 49.665564,41.27635 41.042059,38.475986 31.310901,35.315926 28.44351,35.363966 20.63538,38.817873 14.637093,41.471201 14.004334,41.511389 9.7992227,39.506112 5.984102,37.686808 5.3333332,36.693307 5.3333332,32.688239 c 0,-6.071486 3.3718408,-9.367296 10.7971518,-10.553689 3.228233,-0.515798 8.869514,-2.945358 12.536181,-5.399023 3.666667,-2.453664 9.366667,-5.37059 12.666666,-6.482057 9.520692,-3.2066472 24.180673,-6.2991859 25.626112,-5.4058559 0.727016,0.4493208 6.208557,1.5965727 12.181201,2.5494485 15.155417,2.4178954 27.941675,6.2871994 41.526015,12.5663644 6.95418,3.214464 12.07713,4.671396 30.31303,8.620814 4.24764,0.919926 6.04232,5.681409 3.75344,9.958239 -1.95316,3.649498 -8.38001,3.685762 -15.82385,0.08929 -8.10119,-3.914075 -13.03635,-4.617771 -16.56037,-2.36132 -1.65857,1.061988 -6.01558,2.673469 -9.68225,3.581069 C 109,40.759124 103.9,42.033098 101.33333,42.682578 95.657658,44.118774 83.027824,44.925133 73.999998,44.427689 Z M 105.97482,32.010794 c 3.40774,-1.460729 5.90717,-3.110729 5.55427,-3.666667 -0.35289,-0.555936 -2.74136,-2.128381 -5.30771,-3.494324 l -4.6661,-2.483529 -8.173118,5.044735 c -4.495215,2.774605 -8.480562,5.542193 -8.85633,6.150197 -1.421947,2.300759 15.281245,1.093391 21.448988,-1.550412 z M 50.666666,31.409547 c 0,-2.469729 -6.066687,-10.076213 -8.036463,-10.076213 -2.380438,0 -7.274654,3.799993 -6.234232,4.840416 2.53881,2.538809 14.270695,6.843139 14.270695,5.235797 z"
       id="path835" />
  </g>
</svg>
