<?xml version="1.0" encoding="UTF-8" standalone="no"?>
<!-- Created with Inkscape (http://www.inkscape.org/) -->

<svg
   version="1.1"
   id="svg72"
   width="158.66667"
   height="153.33333"
   viewBox="0 0 158.66667 153.33333"
   xmlns="http://www.w3.org/2000/svg"
   xmlns:svg="http://www.w3.org/2000/svg">
  <defs
     id="defs76" />
  <g
     id="g78">
    <path
       style="fill:#000000;stroke-width:1.33333"
       d="m 26.000001,146.83906 c -7.569934,-4.7015 -15.333334,-16.15309 -15.333334,-22.61781 0,-8.19709 8.889279,-17.55459 16.676215,-17.55459 5.404573,0 11.323785,5.94658 11.323785,11.37614 0,4.75228 -3.159186,8.27303 -8.769853,9.77355 -2.04768,0.54764 -3.920747,1.58878 -4.162371,2.31365 -0.241624,0.72488 2.326595,4.5583 5.707155,8.51873 5.703409,6.68172 5.974752,7.32633 3.764264,8.94269 -3.152888,2.30544 -4.453617,2.19914 -9.205861,-0.75236 z m 3.333333,-28.09371 c 0,-0.69005 -0.628732,-1.64322 -1.397183,-2.11815 -1.956946,-1.20946 -5.614928,0.40183 -4.608637,2.03005 1.048749,1.69691 6.00582,1.76963 6.00582,0.0881 z m 88.141006,26.7197 c -3.45137,-3.22407 -4.141,-4.87215 -4.141,-9.89611 0,-5.38271 0.57078,-6.51638 5.33333,-10.59295 C 121.6,122.46517 124,119.75463 124,118.95258 c 0,-0.80205 -2.18923,-1.64449 -4.86496,-1.8721 -5.74128,-0.48836 -8.58186,-3.82337 -6.3147,-7.41382 1.26244,-1.99928 3.8384,-2.36025 17.99318,-2.52136 9.0859,-0.10341 17.56982,0.3677 18.85315,1.04691 5.27292,2.79075 0.80697,9.14112 -6.42857,9.14112 -5.76015,0 -6.04058,2.77229 -0.66743,6.59831 4.50268,3.20619 7.27168,10.2427 6.00956,15.27137 -0.4792,1.90933 -2.65184,4.96975 -4.82805,6.80092 -3.37256,2.83781 -5.29891,3.3294 -13.0468,3.3294 -8.1908,0 -9.49968,-0.38267 -13.23104,-3.86828 z M 70.333335,83.8932 c -1.283334,-0.747474 -2.333334,-2.229228 -2.333334,-3.292788 0,-1.063562 -0.75,-1.962892 -1.666666,-1.998514 C 57.649577,78.264452 24.263021,78.899305 17.92007,79.522489 9.1996987,80.37925 5.3333334,78.478078 5.3333334,73.333332 c 0,-5.735424 3.3389985,-6.818805 19.8264996,-6.432961 8.528758,0.199592 21.506835,0.224865 28.840168,0.05616 13.28677,-0.305659 13.341266,-0.32067 15.604654,-4.2983 2.673235,-4.697887 6.727037,-5.205732 9.536477,-1.194694 l 1.959008,2.796875 1.496843,-2.796875 c 2.492124,-4.656578 9.940336,-3.382494 10.930679,1.869791 0.453615,2.405747 1.740691,2.709469 13.154238,3.104123 6.95829,0.240601 18.8267,-0.271727 26.37424,-1.138507 16.38548,-1.881752 21.624,-0.620985 21.59012,5.196144 -0.0107,1.927698 -0.46123,4.194752 -1,5.037896 -1.26378,1.977725 -7.73,2.554586 -13.54818,1.208652 -2.54072,-0.587752 -13.92401,-0.299143 -25.64541,0.650205 -18.407296,1.490857 -21.175211,2.017056 -21.853613,4.154513 -0.427234,1.346094 -2.350994,2.842543 -4.275022,3.325444 -2.702073,0.678177 -3.932668,0.223704 -5.407096,-1.996902 -2.171956,-3.27114 -4.250271,-3.768708 -4.250271,-1.017554 0,1.021542 -0.949072,2.221542 -2.109049,2.666667 -2.759224,1.058813 -3.442213,0.989594 -6.224284,-0.630813 z M 120.66667,49.715642 C 99.383822,47.172624 78.207774,46.989702 62.382552,49.212171 46.758197,51.406432 44.049382,50.609227 34.636226,41.04642 L 28.227511,34.535819 23.13141,36.665106 C 9.4914642,42.364239 -2.1636708,32.090103 8.1226642,23.434722 L 12.245328,19.96573 8.0044544,16.004161 C 5.6719739,13.825297 4.0158036,11.283008 4.3240761,10.354629 5.2159796,7.668613 11.751535,5.8700396 14.464154,7.5640976 c 1.749576,1.0926279 2.966252,0.9958126 4.856621,-0.386459 3.102251,-2.2684214 10.247803,-2.409061 12.412559,-0.2443054 2.653969,2.6539693 1.838952,4.6622798 -3.066667,7.5566648 -4.806722,2.836036 -6.298361,6.843335 -2.547297,6.843335 1.165652,0 6.294449,4.2 11.397327,9.333333 7.768765,7.815133 9.9974,9.333333 13.70082,9.333333 2.432573,0 5.948414,-1.2 7.812979,-2.666666 1.864564,-1.466667 4.252487,-2.666667 5.306495,-2.666667 1.054006,0 3.022933,-1.222731 4.37539,-2.717179 1.756862,-1.94131 3.452666,-2.498936 5.938901,-1.952868 1.913938,0.420372 8.550376,1.00661 14.747637,1.302751 13.336531,0.637296 22.163131,2.402121 31.267751,6.251795 3.66667,1.550363 9.66667,3.008571 13.33333,3.240461 18.93335,1.19739 23.43403,3.273837 18.62172,8.591366 -2.82569,3.122355 -8.14426,3.17772 -31.95505,0.33265 z"
       id="path696" />
  </g>
</svg>
