<?xml version="1.0" encoding="UTF-8" standalone="no"?>
<!-- Created with Inkscape (http://www.inkscape.org/) -->

<svg
   version="1.1"
   id="svg82"
   width="153.33333"
   height="160"
   viewBox="0 0 153.33333 160"
   xmlns="http://www.w3.org/2000/svg"
   xmlns:svg="http://www.w3.org/2000/svg">
  <defs
     id="defs86" />
  <g
     id="g88">
    <path
       style="fill:#000000;stroke-width:1.33333"
       d="m 15.333333,153.33333 c -6.0914691,-0.60914 -6.7031307,-0.98368 -7.0892945,-4.34092 -0.5674571,-4.93336 1.8692405,-5.65036 12.4302935,-3.65764 4.754889,0.89719 10.680481,1.24944 13.167983,0.78278 4.125722,-0.77399 5.004137,-1.85174 10.006875,-12.27772 3.016278,-6.2861 5.483962,-13.02164 5.483744,-14.96788 -2.2e-4,-1.94624 -2.10022,-9.41309 -4.666667,-16.593 -2.566448,-7.179914 -4.668511,-14.979914 -4.671252,-17.333335 -0.0057,-4.974502 -2.313774,-9.054232 -11.78437,-20.830796 -3.782522,-4.703516 -6.877312,-9.618106 -6.877312,-10.921311 0,-1.303204 -0.6,-2.740283 -1.333333,-3.193508 -2.257222,-1.39504 -1.478898,-9.820905 1.434752,-15.532129 2.311479,-4.530875 2.516551,-6.033148 1.243214,-9.107258 -1.558177,-3.761773 -6.198262,-6.693946 -10.592992,-6.693946 -1.350919,0 -3.8726874,-1.162411 -5.6039288,-2.583134 -2.5602529,-2.101042 -2.8728921,-3.034195 -1.6751772,-5 C 7.3100149,6.9734852 17.04558,4.1513193 28.991637,4.0725115 L 39.983272,4 43.991636,9.5333847 c 2.368175,3.2691713 4.020346,7.2246883 4.037646,9.6666663 0.05052,7.131644 4.642978,14.437913 16.007382,25.466616 6.045242,5.866666 15.111118,16.211498 20.146392,22.988516 5.035273,6.777017 12.140362,15.618342 15.789084,19.647389 7.2644,8.021607 9.27768,12.918248 6.62538,16.114078 -2.86244,3.44902 -12.765862,7.23882 -21.227493,8.12323 -8.341133,0.87182 -9.349623,1.94548 -5.994291,6.38163 2.890418,3.82147 2.416992,6.93031 -2.042404,13.41182 -4.708951,6.84423 -5.16464,11.94955 -1.253424,14.04276 1.895789,1.0146 2.618569,2.52552 2.333333,4.87767 l -0.413243,3.40775 -27.999999,0.16925 C 34.599999,153.92384 19,153.7 15.333333,153.33333 Z m 44.927776,-11.66666 c 3.67255,-3.92975 9.072223,-15.20697 9.072223,-18.94735 0,-1.25126 -2.075024,-4.62499 -4.611164,-7.49717 L 60.111003,110 l -0.05551,6.22528 c -0.03052,3.42391 -0.947477,7.92391 -2.037667,10 -4.238618,8.07179 -7.419981,16.58469 -6.658387,17.81697 1.472422,2.38243 5.446105,1.32198 8.901662,-2.37558 z M 131.20005,69.488295 C 115.0837,57.571489 108.20364,45.249165 109.93395,31.400267 111.60554,18.0213 120.53505,9.3333333 132.61439,9.3333333 c 5.77589,0 7.45091,0.5914288 10.38466,3.6666667 5.09176,5.337331 6.71988,10.458255 4.99077,15.697497 -2.23736,6.77925 -5.94994,9.317286 -13.46506,9.205112 L 128,37.805219 v 4.473549 c 0,6.946911 3.27799,13.191108 10.74094,20.460255 4.27379,4.1628 6.5654,7.408126 6.09559,8.63244 -1.22909,3.20298 -8.02768,2.26411 -13.63648,-1.883168 z"
       id="path557" />
  </g>
</svg>
