<?xml version="1.0" encoding="UTF-8" standalone="no"?>
<!-- Created with Inkscape (http://www.inkscape.org/) -->

<svg
   version="1.1"
   id="svg92"
   width="157.33333"
   height="158.66667"
   viewBox="0 0 157.33333 158.66667"
   xmlns="http://www.w3.org/2000/svg"
   xmlns:svg="http://www.w3.org/2000/svg">
  <defs
     id="defs96" />
  <g
     id="g98">
    <path
       style="fill:#000000;stroke-width:1.33333"
       d="M 24.666666,150.38404 C 14.106641,149.50322 12.307815,148.97252 9.6761857,145.9616 5.0862334,140.7101 4.4771442,136.206 7.6160732,130.72749 c 5.3469208,-9.33223 5.2722478,-9.3218 66.0742828,-9.23442 59.920344,0.0861 59.499644,0.0287 56.807094,7.75256 -0.74275,2.13065 -2.05853,4.10467 -2.92395,4.38672 -0.86543,0.28204 -14.7735,0.1274 -30.906835,-0.34364 -16.133333,-0.47104 -37.133333,-0.69642 -46.666666,-0.50084 -9.533333,0.19559 -20.183333,0.39833 -23.666666,0.45054 C 21.886192,133.30506 20,133.8808 20,135.17158 c 0,4.47148 6.659022,4.98926 58.79464,4.57178 58.31568,-0.46696 58.88602,-0.55796 59.62473,-9.51255 0.48869,-5.92405 -1.08308,-8.23305 -7.64656,-11.23311 -4.17996,-1.91059 -12.06004,-2.19086 -63.439478,-2.2563 L 8.6666665,116.6667 8.2418917,112.9702 c -0.787992,-6.8573 2.8446353,-7.33797 56.4247733,-7.46614 49.929205,-0.11944 73.001315,1.22156 79.583955,4.62557 11.71939,6.06034 12.19758,24.30419 0.90836,34.65662 -3.72569,3.41653 -6.31261,4.39069 -15.15898,5.7084 -11.6026,1.72826 -84.201556,1.65205 -105.333334,-0.11054 z M 68.501893,64.898564 C 61.266671,62.17938 57.666784,56.412 56.628633,45.876409 c -0.863424,-8.762396 -0.709502,-9.575702 2.544006,-13.442276 1.904668,-2.26357 5.561904,-5.11156 8.127192,-6.32887 5.247009,-2.489869 7.72429,-6.036175 6.077698,-8.700417 -0.800831,-1.295771 -2.87599,-1.555466 -7.573633,-0.947799 -7.644945,0.988916 -10.137231,-0.232483 -10.137231,-4.96797 0,-7.019501 1.519251,-7.4890769 24.229927,-7.4890769 22.910458,0 24.103408,0.3728661 24.103408,7.5337469 0,5.186256 -3.09227,7.489341 -7.412639,5.520848 -2.002086,-0.912211 -3.793226,-0.859849 -5.711874,0.16698 -3.947697,2.112744 -1.685096,6.497561 5.794524,11.229523 7.059029,4.465876 9.312369,9.982496 7.993729,19.570196 -1.10061,8.002338 -4.666671,12.835226 -11.892277,16.116933 -6.18136,2.807433 -17.84995,3.172997 -24.26957,0.760337 z"
       id="path418" />
  </g>
</svg>
