<?xml version="1.0" encoding="UTF-8" standalone="no"?>
<!-- Created with Inkscape (http://www.inkscape.org/) -->

<svg
   version="1.1"
   id="svg102"
   width="48"
   height="156"
   viewBox="0 0 48 156"
   xmlns="http://www.w3.org/2000/svg"
   xmlns:svg="http://www.w3.org/2000/svg">
  <defs
     id="defs106" />
  <g
     id="g108">
    <path
       style="fill:#000000;stroke-width:1.33333"
       d="m 6.4096124,141.66667 c -0.6283331,-21.99924 2.2620573,-32.00326 10.6294286,-36.78984 6.0742,-3.47477 15.31358,-2.06267 20.51106,3.13481 3.748155,3.74815 3.783232,3.93635 3.783232,20.29762 0,18.16741 -1.115312,21.61149 -6.74137,20.81737 -3.221952,-0.45479 -3.25863,-0.61896 -3.25863,-14.58572 0,-14.88054 -1.21676,-18.54091 -6.16326,-18.54091 -1.376873,0 -3.781097,1.27769 -5.34272,2.83931 -2.596497,2.5965 -2.784116,3.89458 -2.193876,15.17885 0.354991,6.78675 0.102867,13.30905 -0.560273,14.49403 -0.746825,1.33449 -2.956595,2.15448 -5.806124,2.15448 H 6.6666667 Z M 7.425928,49.902119 C 5.7790691,48.25526 5.3333333,44.694404 5.3333333,33.184977 c 0,-20.833494 3.5095327,-26.976499 16.3624827,-28.6405129 8.854969,-1.1464132 15.406737,1.8520528 19.088828,8.7361449 2.261257,4.22768 2.752001,6.427154 1.821817,8.165219 -0.70022,1.308373 -1.273128,6.890075 -1.273128,12.40378 0,11.755997 -1.820965,16.817059 -6.05076,16.817059 -5.460244,0 -6.430306,-2.933575 -4.909456,-14.846732 1.208706,-9.468054 1.091256,-11.350183 -0.935441,-14.990388 -3.025655,-5.43446 -7.235008,-6.062498 -10.209253,-1.523224 -1.658788,2.531629 -2.319679,6.609149 -2.444466,15.081692 -0.180197,12.234684 -0.729112,14.108565 -4.76562,16.268838 -1.853556,0.991992 -3.0407978,0.796876 -4.592409,-0.754734 z"
       id="path279" />
  </g>
</svg>
