<?xml version="1.0" encoding="UTF-8" standalone="no"?>
<!-- Created with Inkscape (http://www.inkscape.org/) -->

<svg
   version="1.1"
   id="svg112"
   width="162.66667"
   height="160"
   viewBox="0 0 162.66667 160"
   xmlns="http://www.w3.org/2000/svg"
   xmlns:svg="http://www.w3.org/2000/svg">
  <defs
     id="defs116" />
  <g
     id="g118">
    <path
       style="fill:#000000;stroke-width:1.33333"
       d="m 7.8703752,150.53704 c -4.0675717,-4.06757 -2.6308,-10.47064 4.7847858,-21.32373 5.138039,-7.51978 7.251617,-9.40567 13.870026,-12.37583 14.943637,-6.70631 36.507177,-3.31109 45.179313,7.11357 8.720996,10.48339 12.528474,25.06995 7.277467,27.8802 -1.293253,0.69214 -17.18404,1.32246 -35.312861,1.40072 -31.940679,0.13791 -33.04936,0.0544 -35.7987308,-2.69493 z M 138.16128,146.33333 c -1.51044,-2.38465 -1.72185,-6.32784 -1.03073,-19.22424 0.4782,-8.92334 1.16945,-16.51983 1.53612,-16.88109 0.36667,-0.36126 2.76667,-1.04383 5.33333,-1.51681 8.36195,-1.54094 9.21419,0.23165 9.59447,19.95548 0.1838,9.53333 -0.13517,18.08333 -0.70883,19 -0.57853,0.92444 -3.66629,1.66666 -6.93358,1.66666 -4.65684,0 -6.28856,-0.62833 -7.79078,-3 z M 53.333334,81.965481 c -1.1,-0.215517 -6.5,-1.085497 -12,-1.93329 C 16.124055,76.146328 6.0825847,72.103369 6.9274277,66.179475 7.5100906,62.093944 12.139433,61.926672 19.688554,65.71838 c 11.600469,5.826584 54.453489,7.218077 69.29901,2.250228 4.223507,-1.413339 9.479105,-2.597115 11.679106,-2.630613 2.2,-0.03349 8.2,-1.594414 13.33333,-3.4687 5.13334,-1.874286 10.38334,-3.73161 11.66667,-4.127386 3.57676,-1.103062 2.78195,-5.127369 -1.76897,-8.956717 -2.25626,-1.898523 -4.61583,-3.451859 -5.24348,-3.451859 -1.66918,0 -2.8525,-4.598526 -1.85334,-7.202292 0.47374,-1.234548 3.03735,-3.38651 5.6969,-4.78214 2.65956,-1.395628 8.42333,-5.870069 12.80838,-9.943204 8.9371,-8.301381 11.93754,-8.991849 17.76523,-4.088168 5.13983,4.324874 5.85628,7.547775 2.79641,12.579328 C 153.9315,35.080856 152.43268,36 149.17698,36 144.31204,36 136,40.683917 136,43.425353 c 0,1.030991 2.55,3.456188 5.66667,5.38933 3.11667,1.93314 7.01667,4.745256 8.66667,6.249144 3.27661,2.986465 4.01345,9.177213 1.33333,11.20233 -3.1256,2.361722 -26.97949,10.907511 -34.33333,12.30011 -4.03334,0.763792 -10.51287,1.998842 -14.39897,2.744557 -6.218401,1.193267 -44.287441,1.69572 -49.601036,0.654657 z M 16,35.015712 c -5.023262,-0.600125 -9.3333332,-3.641259 -9.3333332,-6.585487 0,-2.462908 9.9395362,-13.096674 15.3907202,-16.465692 5.932898,-3.6667321 22.343698,-6.636133 29.997347,-5.4277762 6.918343,1.0922669 21.498765,9.5657382 24.597428,14.2948952 3.79226,5.78772 3.982706,10.57246 0.517422,12.999639 -2.636236,1.846492 -7.063733,2.137005 -29.799591,1.955326 C 32.683163,35.669257 18.566667,35.322349 16,35.015712 Z"
       id="path140" />
  </g>
</svg>
