<?xml version="1.0" encoding="UTF-8" standalone="no"?>
<!-- Created with Inkscape (http://www.inkscape.org/) -->

<svg
   version="1.1"
   id="svg2"
   width="162.66667"
   height="80"
   viewBox="0 0 162.66667 80"
   xmlns="http://www.w3.org/2000/svg"
   xmlns:svg="http://www.w3.org/2000/svg">
  <defs
     id="defs6" />
  <g
     id="g8">
    <path
       style="fill:#000000;stroke-width:1.33333"
       d="M 58.000001,73.142477 C 20.411059,69.518969 9.749663,67.093964 6.7477357,61.484812 4.5241137,57.329936 5.0619044,54.905988 8.7423902,52.494441 c 3.2252948,-2.113293 3.6744958,-2.08838 8.3333338,0.462182 2.708352,1.482734 10.448093,4.034744 17.199425,5.671132 9.960553,2.414238 14.485979,2.826058 24,2.18403 23.24695,-1.568754 34.439225,-2.880992 37.058186,-4.344884 C 96.800002,55.647096 100.7,54.556176 104,54.042637 c 9.39784,-1.462473 18.88352,-4.492254 21.51211,-6.87109 2.95517,-2.674395 1.29821,-6.676003 -3.52344,-8.509191 -4.29899,-1.634471 -7.41655,-6.679448 -6.43859,-10.419193 0.45078,-1.723794 2.99475,-4.153906 5.90023,-5.636171 2.80927,-1.433183 7.19486,-4.856057 9.74577,-7.606389 6.12406,-6.6028386 13.01668,-10.2376029 17.35083,-9.1498019 5.93341,1.4891932 10.76905,8.8679669 9.09764,13.8822199 -0.29927,0.897807 -3.73029,3.139678 -7.62452,4.981936 -9.52339,4.505284 -10.80143,6.179616 -8.66115,11.346716 0.92587,2.235246 3.39324,4.948274 5.48304,6.028951 4.92167,2.545097 8.27902,7.710964 7.20686,11.089033 -1.00536,3.167594 -16.80223,12.153676 -21.36527,12.153676 -1.77358,0 -4.60293,0.537516 -6.28744,1.194482 -3.41482,1.331794 -10.69051,3.290849 -19.7294,5.312346 -8.160872,1.825132 -35.620457,2.559948 -48.666669,1.302316 z"
       id="path1654" />
  </g>
</svg>
