<?xml version="1.0" encoding="UTF-8" standalone="no"?>
<!-- Created with Inkscape (http://www.inkscape.org/) -->

<svg
   version="1.1"
   id="svg12"
   width="160"
   height="154.66667"
   viewBox="0 0 160 154.66667"
   xmlns="http://www.w3.org/2000/svg"
   xmlns:svg="http://www.w3.org/2000/svg">
  <defs
     id="defs16" />
  <g
     id="g18">
    <path
       style="fill:#000000;stroke-width:1.33333"
       d="m 120.66667,148.0613 c -4.46345,-1.8462 -8.72939,-7.41466 -9.54885,-12.46439 -1.17683,-7.25198 0.4357,-11.42341 5.59191,-14.46565 2.54298,-1.5004 4.6236,-3.21179 4.6236,-3.8031 0,-0.59131 -2.50702,-1.88205 -5.57116,-2.8683 -6.20964,-1.9987 -7.26352,-3.50151 -4.78014,-6.8164 1.91764,-2.55973 4.86414,-2.90399 21.68464,-2.53356 12.97653,0.28578 14.82093,0.85757 15.5334,4.81559 0.37609,2.08933 -0.7824,2.95072 -5.97234,4.44066 l -6.43893,1.8485 5.43893,5.0212 c 5.03536,4.64861 5.43894,5.54084 5.43894,12.02439 0,6.04026 -0.54239,7.50987 -3.94463,10.68804 -5.08428,4.74942 -15.72111,6.73304 -22.05537,4.11302 z M 25.671248,143.96015 C 23.831879,143.22072 20.972052,139.25511 18.2612,133.68491 15.833152,128.69581 12.23109,122.23643 10.256617,119.33073 5.7490865,112.6973 5.6761565,109.63274 10,108.54753 c 7.265103,-1.82343 9.406791,0.0569 18.577372,16.31054 4.815779,8.53532 8.755961,16.26979 8.755961,17.18769 0,3.14223 -6.111952,4.14554 -11.662085,1.91439 z m 23.994687,-0.89339 c -4.070442,-3.49609 -14.999268,-26.00433 -14.999268,-30.89143 0,-3.838 0.356868,-4.17533 4.417212,-4.17533 5.332973,0 9.497866,4.09116 14.839764,14.57704 2.029617,3.98404 4.875374,8.84672 6.323905,10.80596 1.59366,2.15555 2.459693,5.08683 2.193072,7.42296 -0.384104,3.36552 -1.052416,3.91203 -5.210456,4.2608 -3.132773,0.26279 -5.728904,-0.42364 -7.564229,-2 z M 41.865237,84.636652 c -2.125881,-0.929213 -5.577042,-3.897993 -7.669248,-6.597288 l -3.80401,-4.907808 -9.700164,0.908979 C 8.5806153,75.175448 5.7639416,74.329195 4.6413971,69.218283 3.6127028,64.534668 5.5160425,61.688405 11.304226,59.254657 l 3.971925,-1.670069 -5.273769,-4.830584 C 5.6613165,48.777742 4.9842195,47.517525 6.1738841,45.628377 c 2.1314602,-3.384688 5.3707639,-3.513436 9.3642129,-0.372189 3.048291,2.397786 3.835707,2.528842 5.66768,0.943316 3.574798,-3.093896 8.941631,-3.765074 10.93175,-1.367127 1.517782,1.828817 1.324641,2.505409 -1.328483,4.653779 -1.707457,1.382614 -3.873804,2.513845 -4.814104,2.513845 -2.896767,0 -3.702608,4.428722 -1.146001,6.298159 1.280073,0.936012 2.979012,1.701841 3.775418,1.701841 1.840422,0 8.278312,6.116483 13.099152,12.445186 3.145811,4.129757 4.515855,4.888148 8.83051,4.888148 2.808849,0 7.73327,-1.147713 10.943157,-2.550473 9.712424,-4.244448 24.591368,-6.115358 35.264369,-4.434214 13.186865,2.077112 21.757895,4.04686 28.046515,6.4455 3.89769,1.486682 8.8787,1.961119 17.29173,1.647028 10.50905,-0.392344 11.87069,-0.175821 12.30204,1.956211 1.2195,6.027588 0.53572,6.101495 -55.628179,6.012651 C 59.035927,86.347185 44.760909,85.902339 41.865237,84.636652 Z M 69,31.893202 c -1.283333,-0.747473 -2.333333,-2.229228 -2.333333,-3.292788 0,-1.063561 -0.75,-1.962892 -1.666667,-1.998513 -8.683757,-0.337447 -42.070313,0.297406 -48.413264,0.92059 C 7.8663652,28.379253 4,26.478081 4,21.333334 4,15.59791 7.3389984,14.514528 23.826499,14.900372 c 8.528758,0.199592 21.506834,0.224866 28.840168,0.05616 13.286769,-0.305658 13.341265,-0.320669 15.604653,-4.298299 2.645417,-4.6490033 6.918256,-5.2530826 9.371444,-1.3249035 2.106333,3.3727765 3.286759,3.3727765 4.357236,0 1.480989,-4.666185 9.223809,-3.1471402 10.194327,2.0000005 0.453614,2.405746 1.74069,2.709469 13.154243,3.104122 6.95829,0.240602 18.82669,-0.271726 26.37424,-1.138507 16.38547,-1.881752 21.62399,-0.620985 21.59011,5.196145 -0.0107,1.927698 -0.46123,4.194752 -1,5.037896 -1.26377,1.977725 -7.73,2.554587 -13.54817,1.208652 -2.54072,-0.587752 -13.92402,-0.299143 -25.64542,0.650205 -18.175187,1.472059 -21.180915,2.035046 -21.832945,4.089408 -1.233101,3.885156 -6.18162,4.688691 -8.3902,1.362391 -2.126701,-3.202983 -5.562852,-3.812215 -5.562852,-0.986297 0,1.021541 -0.949072,2.221541 -2.109049,2.666666 C 72.46506,33.582829 71.782071,33.51361 69,31.893202 Z"
       id="path1515" />
  </g>
</svg>
