<?xml version="1.0" encoding="UTF-8" standalone="no"?>
<!-- Created with Inkscape (http://www.inkscape.org/) -->

<svg
   version="1.1"
   id="svg22"
   width="164"
   height="166.66667"
   viewBox="0 0 164 166.66667"
   xmlns="http://www.w3.org/2000/svg"
   xmlns:svg="http://www.w3.org/2000/svg">
  <defs
     id="defs26" />
  <g
     id="g28">
    <path
       style="fill:#000000;stroke-width:1.33333"
       d="m 31.333333,158.02002 c -10.381022,-2.76458 -18,-13.52396 -18,-25.41927 0,-4.25655 4.776211,-18.5913 7.518152,-22.56409 3.084,-4.46839 2.293163,-8.53834 -1.851485,-9.52844 -5.250089,-1.254177 -7.002845,-3.013269 -6.979583,-7.004811 0.04059,-6.965459 0.556041,-7.110245 25.312916,-7.110245 25.040935,0 25.274747,0.07088 25.312916,7.673505 0.02537,5.053874 -2.079697,7.266671 -6.912916,7.266671 -4.51735,0 -4.64854,1.30447 -0.733333,7.29186 l 3,4.58779 23.333333,0.39351 c 12.833334,0.21642 24.233337,0.21241 25.333337,-0.009 2.4069,-0.48429 8,-8.68531 8,-11.73021 0,-1.6944 -0.94979,-2.025729 -4.33334,-1.51167 -6.25939,0.951 -9,-0.948957 -9,-6.23933 0,-2.451072 0.77124,-5.096564 1.71386,-5.878871 1.04723,-0.869127 10.9898,-1.516532 25.56182,-1.664448 21.67254,-0.219989 24.00955,-0.02107 25.61947,2.180623 3.60336,4.927888 0.62791,11.224932 -5.32372,11.266766 -5.84731,0.0411 -6.07948,1.53861 -1.85732,11.97958 3.24459,8.0235 4.04703,11.9765 4.05995,20 0.018,11.18003 -1.70392,15.67452 -8.58126,22.39839 -5.3463,5.22701 -11.02434,6.4038 -19.91011,4.12645 -6.68192,-1.71253 -9.81971,-4.338 -16.19829,-13.5535 -2.23272,-3.22575 -2.40209,-3.24803 -23.487795,-3.08864 -22.033252,0.16656 -24.562035,0.7572 -26.269066,6.13557 -0.806756,2.54187 -11.348542,9.83812 -15.994202,11.07003 C 39.2,159.47722 35,158.99656 31.333333,158.02002 Z M 105.1902,130.01403 c 1.96956,-2.00069 1.94651,-2.32289 -0.28454,-3.97816 -3.12201,-2.31629 -24.919635,-3.96394 -36.307364,-2.74442 -8.831784,0.94581 -11.977396,3.19612 -8.845563,6.32795 4.01561,4.01562 41.551887,4.34162 45.437467,0.39463 z m 39.68312,-84.45235 c -1.21367,-1.341076 -2.20665,-2.900399 -2.20665,-3.465162 0,-2.097261 -4.34586,-10.096517 -5.48526,-10.096517 -0.64977,0 -2.38141,1.2 -3.84808,2.666666 -3.25474,3.254748 -4.48794,3.32158 -7.40804,0.40148 -2.13136,-2.131361 -2.56499,-2.092644 -7.33973,0.655346 l -5.07453,2.920533 -3.94799,-3.322013 c -4.50218,-3.788334 -6.89637,-4.237368 -6.89637,-1.293427 0,1.115721 -1.53717,2.728964 -3.415925,3.584983 -3.054441,1.391697 -3.727618,1.165494 -6.361388,-2.137568 l -2.945466,-3.693967 -2.51193,2.775651 c -3.021764,3.339012 -6.382305,3.524885 -10.846369,0.599917 -3.070833,-2.012087 -3.501413,-2.012087 -5.724744,0 -3.283033,2.971104 -6.765836,2.729829 -10.44158,-0.723353 l -3.085935,-2.899086 -3,2.700731 c -1.65,1.485401 -3.7376,3.117736 -4.63911,3.627411 -2.187787,1.236877 -7.027556,-1.456028 -7.027556,-3.910216 0,-2.832452 -3.082827,-2.394578 -5.023903,0.713578 -2.314569,3.706215 -7.252532,3.32913 -10.868844,-0.829994 L 23.733612,30.340011 20.330273,37.86227 C 17.845652,43.353926 16.02626,45.610584 13.590432,46.221937 9.3186759,47.29408 6.1042048,45.268933 5.6173972,41.198851 5.1427867,37.230747 17.534541,9.2346621 20.592625,7.3660523 c 2.256959,-1.3790907 5.545108,1.3982648 9.599974,8.1086777 1.30257,2.155629 1.934222,2.281309 4.315241,0.858604 4.119629,-2.461559 8.195732,-2.032142 10.959569,1.154592 l 2.446866,2.821257 4.145162,-3.487924 c 4.734311,-3.98366 6.912574,-4.333146 9.273896,-1.487925 2.076288,2.501774 4.029392,2.51835 8.740528,0.07419 3.89758,-2.022088 6.683311,-1.314885 9.849834,2.50054 1.521396,1.833171 2.065724,1.769414 5.070152,-0.59387 4.239316,-3.334647 5.456598,-3.315487 9.138884,0.143841 l 2.971266,2.79136 4.114673,-3.042105 4.11466,-3.042108 3.9272,2.903502 c 4.05302,2.996528 7.32461,2.804256 8.59453,-0.505105 1.02758,-2.677836 4.47628,-2.354221 8.48091,0.795823 l 3.42326,2.69273 3.24178,-5.436245 c 2.64262,-4.43148 3.88028,-5.3604339 6.69632,-5.0260647 2.78316,0.3304662 3.9453,1.7057977 5.97978,7.0768487 2.25001,5.940021 5.91629,14.313064 9.18729,20.981908 1.88029,3.833499 1.28895,7.508869 -1.44341,8.971181 -3.72804,1.995186 -6.04395,1.708512 -8.54767,-1.058076 z"
       id="path1376" />
  </g>
</svg>
