<?xml version="1.0" encoding="UTF-8" standalone="no"?>
<!-- Created with Inkscape (http://www.inkscape.org/) -->

<svg
   version="1.1"
   id="svg32"
   width="160"
   height="153.33333"
   viewBox="0 0 160 153.33333"
   xmlns="http://www.w3.org/2000/svg"
   xmlns:svg="http://www.w3.org/2000/svg">
  <defs
     id="defs36" />
  <g
     id="g38">
    <path
       style="fill:#000000;stroke-width:1.33333"
       d="M 60.666667,146.66445 C 57,146.11286 51.9,144.74538 49.333333,143.6256 c -2.566666,-1.11979 -7.366666,-2.82407 -10.666666,-3.78731 -5.303898,-1.54813 -20.832566,-10.08084 -28.9726683,-15.91991 -1.596061,-1.14489 -3.492791,-3.6357 -4.2149556,-5.53514 -2.0236124,-5.3225 2.0147261,-8.35889 9.4869259,-7.13312 3.135384,0.51434 34.939271,0.88205 70.675306,0.81713 63.482135,-0.11532 65.036445,-0.0562 67.666675,2.57402 1.48062,1.48063 2.69205,3.53692 2.69205,4.56953 0,2.13102 -19.58135,15.36222 -26.66667,18.0188 -2.56666,0.96234 -6.50186,2.55305 -8.74489,3.53489 -2.24302,0.98184 -7.34302,2.38052 -11.33333,3.10819 C 105.2648,144.60033 99.3,145.80053 96,146.53977 c -6.866153,1.53812 -25.500235,1.60387 -35.333333,0.12467 z M 30,38.703726 C 27.8,37.23567 23.097591,34.989391 19.550201,33.711994 13.159276,31.410654 9.3779911,27.419195 11.543146,25.259887 c 0.617936,-0.616268 4.123521,-2.744085 7.790187,-4.728482 15.555315,-8.418528 15.75178,-8.444672 18.049243,-2.401887 1.093743,2.876759 2.010901,3.203815 8.984423,3.203815 8.694025,0 10.966334,-1.450739 10.966334,-7.001369 0,-5.8298449 5.911415,-7.6652975 24.687507,-7.6652975 14.941128,0 15.544289,0.11272 18.67411,3.4898575 2.66909,2.879987 3.99775,3.34397 7.60301,2.655046 2.40279,-0.459147 9.76871,-1.444039 16.36871,-2.188649 6.6,-0.74461 12.79346,-1.6372288 13.76325,-1.9835973 2.97052,-1.0609431 6.90341,1.9385083 6.90341,5.2649363 0,3.856664 -2.16121,4.762406 -11.36369,4.762406 -3.93008,0 -7.47809,0.537982 -7.88446,1.195514 -0.40638,0.657533 2.55529,1.234861 6.58149,1.282952 9.52697,0.1138 12.95306,1.938511 12.41324,6.611211 l -0.41324,3.57699 -32,0.238006 c -17.600003,0.130907 -41.111989,0.280904 -52.248859,0.333334 l -20.248855,0.09533 -0.417812,4.333334 C 39.234536,41.691336 35.747471,42.539003 30,38.703726 Z"
       id="path1237" />
  </g>
</svg>
