<?xml version="1.0" encoding="UTF-8" standalone="no"?>
<!-- Created with Inkscape (http://www.inkscape.org/) -->

<svg
   version="1.1"
   id="svg42"
   width="158.66667"
   height="154.66667"
   viewBox="0 0 158.66667 154.66667"
   xmlns="http://www.w3.org/2000/svg"
   xmlns:svg="http://www.w3.org/2000/svg">
  <defs
     id="defs46" />
  <g
     id="g48">
    <path
       style="fill:#000000;stroke-width:1.33333"
       d="m 58.206652,145.56168 c -3.493767,-3.86057 -2.666025,-6.27786 4.460016,-13.0248 3.666667,-3.4716 6.666667,-7.1059 6.666667,-8.07622 0,-0.97033 -4.8,-4.17762 -10.666667,-7.12732 -11.50495,-5.78458 -13.279622,-8.68528 -7.703326,-12.59107 4.045675,-2.8337 6.390754,-2.62482 14.120746,1.25773 10.27521,5.16095 10.94311,4.65843 9.896244,-7.445731 -0.88305,-10.210092 1.0042,-13.498203 7.440208,-12.962888 l 4.912795,0.408621 v 11.333333 c 0,6.233335 0.567447,11.741335 1.260994,12.239995 0.693546,0.49866 4.593546,-0.85005 8.666666,-2.99714 4.073125,-2.14709 8.482945,-3.90509 9.799615,-3.90666 2.52211,-0.003 8.93939,5.62598 8.93939,7.8413 0,2.71204 -4.36155,5.48917 -8.6209,5.48917 -3.0654,0 -5.72753,1.21168 -8.640441,3.93275 -4.10332,3.83308 -4.15762,4.03409 -2.142409,7.93108 1.137188,2.19908 4.16825,5.60056 6.73568,7.55884 5.20269,3.96828 5.87078,7.0756 2.22975,10.37068 -4.60327,4.16591 -8.412274,2.61251 -15.927154,-6.49544 -3.907572,-4.73593 -7.758407,-8.21214 -8.666667,-7.82353 -0.898988,0.38465 -4.574167,4.26026 -8.167063,8.61249 -6.992047,8.46975 -10.643956,9.83972 -14.594144,5.47481 z M 24.666667,50.384038 C 14.106642,49.50321 12.307816,48.972528 9.6761861,45.9616 5.0862336,40.710093 4.4771444,36.206002 7.6160735,30.727485 12.962995,21.395256 12.888321,21.405692 73.690359,21.493072 c 59.920351,0.08612 59.499641,0.02869 56.807091,7.752551 -0.74275,2.130651 -2.05852,4.104675 -2.92395,4.38672 C 126.70808,33.914389 112.8,33.759753 96.666669,33.288707 80.533335,32.817663 59.533335,32.592287 50.000001,32.78787 40.466668,32.983454 29.816667,33.186195 26.333334,33.238406 21.886192,33.305062 20,33.880798 20,35.171574 c 0,4.471475 6.659023,4.989272 58.794643,4.571791 58.315677,-0.466967 58.886027,-0.55796 59.624737,-9.512552 0.48869,-5.924056 -1.08308,-8.233055 -7.64657,-11.233117 -4.17996,-1.910589 -12.06003,-2.190854 -63.439475,-2.2563 L 8.6666668,16.666667 8.241892,12.970171 C 7.4539,6.1128697 11.086527,5.6321995 64.666668,5.50403 114.59587,5.384594 137.66799,6.7255895 144.25063,10.129602 155.97002,16.189938 156.4482,34.433789 145.15899,44.786213 141.4333,48.202746 138.84638,49.176902 130,50.494617 118.3974,52.222886 45.798446,52.146673 24.666667,50.384044 Z"
       id="path1098" />
  </g>
</svg>
