<?xml version="1.0" encoding="UTF-8" standalone="no"?>
<!-- Created with Inkscape (http://www.inkscape.org/) -->

<svg
   version="1.1"
   id="svg52"
   width="164"
   height="157.33333"
   viewBox="0 0 164 157.33333"
   xmlns="http://www.w3.org/2000/svg"
   xmlns:svg="http://www.w3.org/2000/svg">
  <defs
     id="defs56" />
  <g
     id="g58">
    <path
       style="fill:#000000;stroke-width:1.33333"
       d="m 33.041369,149.38986 c -1.783994,-1.40329 -6.777728,-4.11438 -11.097185,-6.02465 -12.8300969,-5.67408 -12.5589823,-7.78424 1.889772,-14.70862 11.514279,-5.51807 13.176025,-5.68067 14.785756,-1.44676 1.536707,4.04184 7.328769,5.44537 14.501447,3.51397 4.290626,-1.15535 5.509213,-2.18991 6.180736,-5.24733 0.460037,-2.09454 2.310377,-5.19295 4.111866,-6.88536 3.044199,-2.85988 4.27825,-3.0574 17.480311,-2.79795 11.607965,0.22813 15.114295,0.79029 19.179308,3.07495 4.43959,2.4952 6.31581,2.7044 17.45052,1.94576 6.86186,-0.46752 15.48907,-1.19057 19.17158,-1.60677 5.45373,-0.61639 7.11036,-0.29829 8.93255,1.7152 3.7098,4.09929 0.9918,6.00837 -9.63702,6.76886 -11.10531,0.79458 -9.98036,2.76316 2.10916,3.69089 8.94895,0.68673 9.89983,1.19737 9.89983,5.31639 0,5.13404 -3.15411,5.7235 -24,4.48525 -21.20257,-1.25943 -68.154163,-1.22428 -77.457956,0.058 -5.409428,0.74553 -5.845788,1.09309 -5.502269,4.38249 0.541289,5.1832 -3.673592,7.16758 -7.998406,3.76568 z M 12,114.70877 6,114 5.6728004,84.666665 C 5.4826739,67.621885 5.8810691,54.495476 6.6237877,53.333332 7.923496,51.299658 10.746699,51.052403 37.333333,50.643807 c 12.243044,-0.188157 29.039586,1.435761 31.563351,3.051599 1.078469,0.690488 1.57746,7.22241 1.608843,21.060214 0.02503,11.032605 0.432272,23.477951 0.905001,27.65632 1.230804,10.87887 -0.163692,11.80858 -19.018056,12.67933 C 30.453932,116.10445 32,117.40121 32,97.987141 c 0,-17.554596 0.175045,-17.987143 7.279124,-17.987143 4.711987,0 6.12108,2.889768 6.432605,13.19198 l 0.286502,9.474682 h 5.462192 5.462192 L 57.817363,84.999998 C 58.615512,69.240624 58.466224,67.153399 56.434548,65.666665 53.201696,63.300937 20.543487,63.327183 19.634395,65.696239 18.830036,67.792367 19.488572,91.791215 20.658908,103.03229 21.773561,113.73852 20.324803,115.69216 12,114.70877 Z m 114.13645,0.31722 c -5.01754,-0.74603 -13.48449,-6.1248 -16.22484,-10.30709 -1.18571,-1.80963 -2.48774,-6.950482 -2.89339,-11.424113 l -0.73756,-8.133875 5.72661,-5.834983 c 3.14963,-3.209241 7.43648,-6.543239 9.52633,-7.408884 3.88589,-1.609586 5.18392,-5.804365 2.13307,-6.893276 -0.91667,-0.327176 -4.95345,-0.72727 -8.97062,-0.8891 -9.50037,-0.382716 -12.12209,-4.04196 -6.74701,-9.417047 2.38938,-2.389375 4.55262,-2.61728 25,-2.633843 12.31136,-0.01 23.17183,0.475704 24.13436,1.07928 1.9132,1.199699 2.56317,8.172724 0.99789,10.705405 -0.585,0.946545 -3.58702,1.467149 -7.44509,1.291109 -5.80263,-0.264769 -10.63881,1.555902 -10.63484,4.003686 7.5e-4,0.460206 2.88223,2.454727 6.40328,4.432269 6.23765,3.503258 7.68376,5.347234 10.86723,13.857083 2.45148,6.553139 -0.40918,15.457699 -6.82923,21.257829 -7.79827,7.04527 -12.02028,8.14228 -24.30619,6.31555 z M 64.666667,37.340595 C 43.372787,35.954526 30.833855,33.916727 15.711655,29.384538 7.2288508,26.842205 4.5242504,22.332892 8.8735707,17.983572 12.569782,14.287361 16.090456,13.269161 42,8.4032116 c 16.465435,-3.0922954 60.75343,-2.986644 76,0.1813021 5.86667,1.218981 14.26667,2.7861083 18.66667,3.4825043 8.44704,1.336928 12.66666,4.516891 12.66666,9.545747 0,3.967277 -7.23229,9.997033 -12.99006,10.830172 -2.75547,0.398709 -10.10994,1.58335 -16.34327,2.632534 -15.0275,2.529406 -37.279304,3.440306 -55.333333,2.265124 z M 105.57627,26.565917 c 6.66301,-0.810144 15.78413,-2.226928 20.26915,-3.148408 L 134,21.742092 126.66667,20.883446 C 96.062813,17.300106 87.257976,16.676465 71.04734,16.943962 53.874148,17.227342 47.66218,17.969154 36,21.129198 c -2.933361,0.794839 -3.634937,1.315196 -1.888889,1.400987 1.527778,0.07507 3.223608,0.586481 3.76851,1.136481 3.502858,3.535625 47.104834,5.402972 67.696649,2.899251 z"
       id="path825" />
  </g>
</svg>
