<?xml version="1.0" encoding="UTF-8" standalone="no"?>
<!-- Created with Inkscape (http://www.inkscape.org/) -->

<svg
   version="1.1"
   id="svg62"
   width="157.33333"
   height="158.66667"
   viewBox="0 0 157.33333 158.66667"
   xmlns="http://www.w3.org/2000/svg"
   xmlns:svg="http://www.w3.org/2000/svg">
  <defs
     id="defs66" />
  <g
     id="g68">
    <path
       style="fill:#000000;stroke-width:1.33333"
       d="M 23.333333,150.38404 C 12.773308,149.50322 10.974482,148.97252 8.3428524,145.9616 3.7529001,140.7101 3.1438109,136.206 6.2827399,130.72749 c 5.3469211,-9.33223 5.2722481,-9.3218 66.0742821,-9.23442 59.920348,0.0861 59.499638,0.0287 56.807088,7.75256 -0.74274,2.13065 -2.05852,4.10467 -2.92395,4.38672 -0.86542,0.28204 -14.7735,0.1274 -30.906829,-0.34364 -16.133333,-0.47104 -37.133332,-0.69642 -46.666665,-0.50084 -9.533333,0.19559 -20.183333,0.39833 -23.666667,0.45054 -4.447141,0.0667 -6.333333,0.64239 -6.333333,1.93317 0,4.47148 6.659023,4.98926 58.79464,4.57178 58.315674,-0.46696 58.886024,-0.55796 59.624734,-9.51255 0.48869,-5.92405 -1.08308,-8.23305 -7.64657,-11.23311 -4.17996,-1.91059 -12.06003,-2.19086 -63.439471,-2.2563 L 7.3333332,116.6667 6.9085584,112.9702 c -0.787992,-6.8573 2.8446351,-7.33797 56.4247736,-7.46614 49.929198,-0.11944 73.001318,1.22156 79.583958,4.62557 11.71939,6.06034 12.19757,24.30419 0.90836,34.65662 -3.72569,3.41653 -6.31261,4.39069 -15.15899,5.7084 -11.6026,1.72826 -84.201549,1.65205 -105.333327,-0.11054 z M 47.999999,40.045756 C 33.716606,38.826294 9.8823023,32.910111 6.3407359,29.705038 0.67380567,24.576537 5.3435344,18.392231 16.666666,16.030004 c 4.4,-0.917926 9.033872,-2.212672 10.297495,-2.877211 1.263621,-0.664541 8.463621,-2.165851 15.999999,-3.3362449 20.623505,-3.202816 58.50703,-2.2247583 79.7025,2.0577189 3.3,0.666754 9.40472,1.828981 13.56603,2.582727 9.18885,1.664389 15.23265,4.619374 16.0002,7.822942 1.15879,4.836525 -0.37632,6.989954 -5.99224,8.405819 -3.06569,0.772914 -6.91243,1.966679 -8.54829,2.652812 -1.63587,0.686134 -9.13587,2.51514 -16.66667,4.06446 -15.52602,3.194186 -51.372173,4.491423 -73.025691,2.642729 z M 120,26.223731 l 7.33333,-1.79139 -4.66667,-0.943602 C 99.161362,18.73596 78.660849,17.646634 57.999999,20.052575 c -5.866667,0.683169 -14.736043,1.639465 -19.709725,2.125101 -4.973683,0.485638 -9.300961,1.300271 -9.616176,1.810299 -0.315215,0.510028 5.254163,1.632556 12.376392,2.49451 7.12223,0.861952 14.749509,1.809632 16.949509,2.105956 C 66.454617,29.727213 112.91145,27.955327 120,26.223731 Z"
       id="path686" />
  </g>
</svg>
