<?xml version="1.0" encoding="UTF-8" standalone="no"?>
<!-- Created with Inkscape (http://www.inkscape.org/) -->

<svg
   version="1.1"
   id="svg72"
   width="158.66667"
   height="152"
   viewBox="0 0 158.66667 152"
   xmlns="http://www.w3.org/2000/svg"
   xmlns:svg="http://www.w3.org/2000/svg">
  <defs
     id="defs76" />
  <g
     id="g78">
    <path
       style="fill:#000000;stroke-width:1.33333"
       d="m 112.49341,146.43523 c -0.73457,-0.97271 -1.23047,-7.71492 -1.10199,-14.98268 0.19481,-11.02043 0.63253,-13.50583 2.63667,-14.9713 2.71752,-1.9871 8.25783,-1.13714 11.30525,1.73437 2.54029,2.39366 2.27219,24.11123 -0.32881,26.63498 -2.67389,2.59447 -10.95631,3.64349 -12.51112,1.58463 z m 26.46994,-0.51083 C 136.34651,144.09149 136,142.67289 136,133.79257 c 0,-11.82204 2.54848,-18.53756 7.38578,-19.46226 5.90778,-1.12935 7.72229,2.83403 7.84137,17.12774 0.0929,11.1487 -0.21817,12.98394 -2.48199,14.64402 -3.34146,2.45033 -6.10138,2.4002 -9.78181,-0.17767 z M 85.62858,143 c -1.72684,-3.55973 -0.897968,-26.6672 1.040338,-29.00271 2.102001,-2.53276 3.887373,-2.51312 9.126233,0.10036 L 100,116.19531 v 12.96901 c 0,8.30923 -0.574879,13.54389 -1.599998,14.56901 C 95.871311,146.26203 86.962863,145.75051 85.62858,143 Z M 8.8076077,137.95047 c -1.9393168,-1.93932 -1.9371808,-2.48532 0.024917,-6.36915 4.7975143,-9.49632 12.2687183,-14.24799 22.4026003,-14.24799 6.405412,0 16.500885,5.656 20.216052,11.32606 2.186645,3.33724 2.16926,3.65359 -0.389295,7.0836 -2.659418,3.56522 -2.809212,3.59293 -21.40564,3.95949 -15.682044,0.30911 -19.072419,0.0243 -20.8486343,-1.75201 z M 68.455971,100.53223 66.183799,97.064453 45.29617,97.532227 C 31.042955,97.851424 23.764162,98.534961 22.37979,99.684259 19.481314,102.09056 6.8183756,98.742673 4.263313,94.894544 2.5580718,92.326313 2.6932611,91.774531 5.6794025,89.114704 8.6139479,86.500835 10.66673,86.136664 24.157022,85.836712 c 45.769723,-1.017673 41.847326,-0.59586 44.235541,-4.757085 2.384257,-4.154328 8.452597,-5.236556 9.791937,-1.746294 0.42211,1.1 1.539086,2 2.482168,2 0.943083,0 2.060059,-0.9 2.482168,-2 0.422111,-1.1 2.317515,-2 4.212013,-2 2.628508,0 3.774881,0.947623 4.838946,4 1.380287,3.959494 1.494536,4 11.282065,4 5.43821,0 11.02611,-0.710974 12.41755,-1.579942 1.8566,-1.15947 3.89214,-1.208746 7.64857,-0.185158 2.95901,0.806298 9.61917,1.036754 15.78536,0.546208 9.85188,-0.783756 10.89582,-0.621468 13.66666,2.124552 3.69058,3.657511 3.78546,5.970212 0.37171,9.059615 -2.19441,1.985917 -3.48784,2.160399 -7.83509,1.056947 -2.86375,-0.726894 -9.03102,-1.095206 -13.70505,-0.818471 -4.67403,0.276736 -12.39823,0.486273 -17.1649,0.465639 -15.191543,-0.06576 -20.812247,1.126393 -22.470573,4.766027 -1.796987,3.94395 -6.212051,4.23702 -8.505526,0.56458 -0.915948,-1.466663 -2.121033,-2.666663 -2.677965,-2.666663 -0.556932,0 -2.212604,1.2 -3.679271,2.666663 -3.587935,3.58794 -6.153236,3.35644 -8.877364,-0.8011 z M 72.000002,69.284655 C 70.166668,68.680573 65.966668,67.441041 62.666668,66.530137 54.681801,64.326064 48.560032,59.658181 45.316672,53.300672 43.854378,50.434341 41.530996,47.486029 40.153597,46.748868 38.776198,46.011707 36.527358,43.141645 35.156174,40.370955 31.930969,33.853919 24.002141,24 21.983498,24 21.11989,24 19.337935,22.811735 18.023599,21.359411 16.709264,19.907085 13.568938,18.331432 11.045097,17.857956 5.5028072,16.818216 2.9212402,12.507037 5.2430706,8.1686576 7.268701,4.3837329 14.40745,4.4633156 23.689267,8.3742956 32.439555,12.06131 54.467298,33.364073 58.582784,42.119392 c 3.081189,6.554951 5.539692,7.289935 10.750551,3.213941 4.211881,-3.294581 11.208975,-3.390701 15.794173,-0.216966 5.870255,4.063213 8.054986,4.367808 10.902735,1.520058 1.450035,-1.450034 2.636426,-3.576893 2.636426,-4.726353 0,-2.555309 10.180511,-15.245136 16.239731,-20.242537 2.43482,-2.008136 5.02694,-4.393972 5.76027,-5.301859 2.14585,-2.656621 17.01251,-11.1738235 20.65809,-11.8351537 1.83806,-0.333433 5.14191,-0.096037 7.34191,0.5275469 3.27557,0.9284512 4,1.8408451 4,5.0378598 0,3.464507 -0.97465,4.398744 -8.65656,8.297615 -11.35383,5.76252 -14.67292,9.131492 -22.18805,22.521491 -6.50937,11.597984 -16.35307,21.990417 -23.755157,25.07936 -9.902288,4.132294 -19.74202,5.374302 -26.066901,3.29026 z"
       id="path547" />
  </g>
</svg>
