<?xml version="1.0" encoding="UTF-8" standalone="no"?>
<!-- Created with Inkscape (http://www.inkscape.org/) -->

<svg
   version="1.1"
   id="svg82"
   width="157.33333"
   height="153.33333"
   viewBox="0 0 157.33333 153.33333"
   xmlns="http://www.w3.org/2000/svg"
   xmlns:svg="http://www.w3.org/2000/svg">
  <defs
     id="defs86" />
  <g
     id="g88">
    <path
       style="fill:#000000;stroke-width:1.33333"
       d="M 20.761905,145.90476 C 19.609524,144.75238 18.666666,142.99524 18.666666,142 c 0,-4.51171 3.973651,-6 16.019633,-6 10.712424,0 12.025104,-0.27976 13.904761,-2.96334 3.864616,-5.51752 2.693978,-8.67839 -4.579002,-12.36389 -7.549479,-3.82561 -21.104925,-16.92331 -22.929965,-22.155657 -1.306873,-3.74678 -5.974987,-6.517115 -10.981571,-6.517115 -1.709035,0 -3.8303484,-0.871176 -4.7140301,-1.935948 -2.8877598,-3.479537 -0.985502,-6.631817 5.2925071,-8.770348 3.293217,-1.121794 8.218963,-3.174004 10.946105,-4.560462 4.486857,-2.281087 5.501326,-2.345436 10.666666,-0.676603 3.376119,1.090765 7.887174,4.133803 11.041562,7.44834 2.951598,3.10145 9.780758,7.811417 15.292284,10.546852 5.477423,2.718509 13.773882,7.352091 18.436577,10.296851 8.249643,5.21012 8.716885,5.33334 17.374384,4.58205 4.893214,-0.42464 13.094153,-2.30776 18.224313,-4.18473 5.13015,-1.87697 10.39898,-3.41267 11.70851,-3.41267 3.51993,0 4.15711,3.29027 1.44018,7.43682 l -2.39305,3.65226 3.9584,-0.8483 c 14.01667,-3.00383 22.06131,-3.99406 23.11137,-2.84482 0.63859,0.69889 1.52791,3.23321 1.97627,5.63182 1.01627,5.43672 -2.63877,9.63889 -8.38388,9.63889 -2.15672,0 -4.33953,0.67669 -4.85069,1.50376 -0.90132,1.45838 -32.09837,0.87092 -49.228002,-0.92699 -8.978682,-0.94239 -14.375662,0.75409 -15.403036,4.84179 -1.2063,4.79962 -0.09166,6.58144 4.117116,6.58144 3.930331,0 7.952587,2.97833 7.952587,5.88858 0,0.93396 -1.097244,2.69111 -2.438321,3.90476 C 82.114293,147.70654 77.871317,148 52.323583,148 27.313687,148 22.540256,147.6831 20.761905,145.90476 Z m 43.217676,-13.57143 c -0.01123,-0.55 -0.602041,-1.9 -1.312916,-3 -1.045165,-1.61728 -1.296406,-1.42592 -1.312916,1 -0.01123,1.65 0.579583,3 1.312916,3 0.733334,0 1.324146,-0.45 1.312916,-1 z M 48.269459,67.207453 c -3.860161,-2.822016 -0.896951,-7.92085 6.788443,-11.680964 9.442247,-4.619661 11.779989,-7.374369 18.268126,-21.52649 6.171238,-13.46089 10.864698,-19.036266 20.837402,-24.7528137 6.81118,-3.9043003 13.15335,-4.2957509 17.29685,-1.0675932 1.72149,1.3411994 0.93973,57.1059479 -0.8269,58.9843999 -1.66501,1.770401 -59.946128,1.811017 -62.363921,0.04347 z"
       id="path408" />
  </g>
</svg>
