<?xml version="1.0" encoding="UTF-8" standalone="no"?>
<!-- Created with Inkscape (http://www.inkscape.org/) -->

<svg
   version="1.1"
   id="svg92"
   width="162.66667"
   height="150.66667"
   viewBox="0 0 162.66667 150.66667"
   xmlns="http://www.w3.org/2000/svg"
   xmlns:svg="http://www.w3.org/2000/svg">
  <defs
     id="defs96" />
  <g
     id="g98">
    <path
       style="fill:#000000;stroke-width:1.33333"
       d="m 83.53802,145.76024 c -0.423301,-0.4233 -8.742525,-1.25184 -18.487163,-1.84118 -20.074675,-1.21412 -27.214724,-2.08538 -31.050856,-3.78896 -1.466667,-0.65134 -6.124239,-1.94471 -10.350159,-2.87416 -4.225922,-0.92946 -8.335922,-2.47604 -9.133334,-3.43687 -1.749104,-2.10754 -1.927108,-10.9418 -0.254178,-12.61473 1.509696,-1.5097 19.258116,-5.74794 32.523743,-7.76653 18.160296,-2.76339 55.713867,-1.53017 79.880597,2.62321 4.76667,0.81921 10.64371,1.71742 13.06008,1.99602 2.41637,0.27859 6.79495,1.85628 9.73017,3.50596 4.61831,2.59564 5.28334,3.54347 4.93992,7.04063 -0.31254,3.18286 -1.52961,4.63229 -5.73017,6.82419 -2.93333,1.53064 -7.43333,3.18089 -10,3.66722 C 136.1,139.58138 131.3,140.58 128,141.31422 c -3.3,0.73421 -12.6,1.98965 -20.66666,2.78985 -8.066671,0.8002 -16.547449,1.67336 -18.846176,1.94036 -2.298728,0.267 -4.525842,0.13912 -4.949144,-0.28419 z m 35.12865,-14.51889 c 14.00471,-0.30947 14.91715,-0.42404 14.08602,-1.76882 -0.40591,-0.65678 -5.99132,-1.89393 -12.41202,-2.74923 -6.4207,-0.8553 -13.84361,-2.11793 -16.49536,-2.80586 -12.093829,-3.13742 -71.342577,-0.40924 -70.12976,3.22921 1.248681,3.74604 29.043042,6.32579 55.617785,5.1622 10.633334,-0.46559 23.833335,-0.94596 29.333335,-1.0675 z M 113.33334,93.29613 C 100.46178,90.528062 76.787304,89.891722 71.086801,92.160597 69.022395,92.982258 62.027643,93.713358 55.542908,93.785266 L 43.75248,93.916013 36.979453,86.815906 C 30.268422,79.780782 30.161351,79.729298 25.281854,81.191231 18.61899,83.187474 10.368763,83.051107 7.4215063,80.89602 3.4625638,78.001171 4.347233,71.974394 9.3433634,67.80344 14.028932,63.891753 14.060086,60.289073 9.4188374,59.07536 6.4605344,58.301747 5.0753486,55.557065 6.1844983,52.666668 c 0.9762632,-2.544102 7.6483737,-2.611231 9.7342207,-0.09793 1.20926,1.457069 2.469801,1.591379 5.387999,0.57409 5.23156,-1.823732 12.580108,-0.959586 13.051371,1.534764 0.219178,1.160097 -1.609638,3.082368 -4.322415,4.543295 -5.850712,3.150812 -5.956244,5.294777 -0.369007,7.496662 4.979336,1.962315 11.666667,7.70507 11.666667,10.018767 0,3.042376 5.545992,8.597023 8.583628,8.597023 1.681212,0 4.556184,-1.179456 6.388827,-2.621012 9.766727,-7.682509 34.11608,-9.678151 50.981521,-4.17838 12.62815,4.118001 32.14992,8.264988 34.55768,7.341046 3.53715,-1.357332 13.83905,0.711808 14.6988,2.952257 0.42899,1.117931 0.16103,3.189136 -0.59548,4.602679 -1.23979,2.316558 -2.85048,2.556928 -16.32855,2.436774 -8.95796,-0.07986 -19.49695,-1.110473 -26.28642,-2.570569 z M 56.624642,40.604684 C 51.468194,39.664278 43.688989,37.643513 39.337519,36.114094 29.94823,32.814025 27.259385,32.692949 22.180924,35.341549 17.221187,37.92823 10.120773,37.888709 7.9410375,35.262289 5.440862,32.249761 5.8050239,25.260941 8.5674215,23.241026 9.8572811,22.297858 13.281416,21.125968 16.176611,20.636828 19.071806,20.147688 24.543122,17.65964 28.335093,15.107834 32.127062,12.556026 38.810589,9.2289023 43.187372,7.7142254 50.24487,5.2718312 52.965725,5.0631558 67.237393,5.8697137 85.927751,6.9259923 98.108903,9.7570898 116.66667,17.357879 128.86514,22.354063 139.34619,25.795205 148,27.645243 c 4.66764,0.997863 6.66667,2.872359 6.66667,6.251351 0,5.40525 -5.84951,7.876764 -11.68476,4.937004 -9.42268,-4.74708 -14.09681,-6.833597 -15.30835,-6.833597 -0.77427,0 -4.46757,1.488514 -8.20733,3.30781 -14.06455,6.842039 -41.62932,9.165454 -62.841588,5.296873 z M 104.37262,30.601619 c 3.48666,-0.877949 6.63623,-2.076596 6.99906,-2.663657 1.11424,-1.802888 -6.88925,-6.607876 -10.91084,-6.55044 -2.215631,0.03164 -5.714751,1.695816 -8.410473,4 -2.538965,2.170196 -5.324772,3.945812 -6.190681,3.945812 -0.86591,0 -1.921796,0.905349 -2.346414,2.011887 -0.647722,1.687938 0.459106,1.91856 6.873974,1.432278 4.205304,-0.318784 10.498724,-1.29793 13.985374,-2.17588 z M 48.947388,24.732441 c -1.828364,-3.681203 -3.866554,-5.959199 -5.368375,-6.000001 -3.52733,-0.09583 -7.794798,2.50639 -6.786308,4.138161 0.6605,1.06871 13.313453,7.713076 14.821349,7.783041 0.154398,0.0072 -1.045602,-2.657376 -2.666666,-5.921201 z"
       id="path269" />
  </g>
</svg>
