<?xml version="1.0" encoding="UTF-8" standalone="no"?>
<!-- Created with Inkscape (http://www.inkscape.org/) -->

<svg
   version="1.1"
   id="svg102"
   width="160"
   height="153.33333"
   viewBox="0 0 160 153.33333"
   xmlns="http://www.w3.org/2000/svg"
   xmlns:svg="http://www.w3.org/2000/svg">
  <defs
     id="defs106" />
  <g
     id="g108">
    <path
       style="fill:#000000;stroke-width:1.33333"
       d="M 50.666667,146.60349 C 35.199812,145.01366 11.073126,139.10374 7.3142629,135.98417 2.5242331,132.0088 7.1032967,126.175 17.716152,122.732 c 21.894655,-7.10301 75.502167,-9.95443 98.950518,-5.26324 16.65264,3.3316 33.21757,8.22203 36.18134,10.68174 2.01959,1.67611 2.33608,4.97034 0.72178,7.51256 -1.0655,1.67795 -13.35766,5.37791 -29.87031,8.99103 -10.40617,2.27696 -57.592745,3.53647 -73.032813,1.9494 z m 50.858723,-10.6504 c 7.59437,-0.75913 15.86777,-2.04191 18.38533,-2.85061 l 4.57739,-1.47038 -4.57739,-1.66215 c -12.21217,-4.43451 -56.575876,-4.71434 -80.127604,-0.50541 -11.955419,2.13655 -9.698497,3.55244 9.337895,5.85816 18.018477,2.18244 34.851914,2.38494 52.404379,0.63039 z M 55.666667,67.8932 c -2.838974,-1.653551 -2.993503,-7.574919 -0.29093,-11.148041 1.076679,-1.423495 1.957596,-3.60672 1.957596,-4.851612 0,-1.518912 1.492691,-2.543469 4.537932,-3.11476 4.38141,-0.821957 7.919407,-4.778788 4.272951,-4.778788 -0.974651,0 -3.846,-1.407392 -6.380776,-3.127539 -2.534777,-1.720145 -6.201187,-3.527229 -8.147576,-4.015742 -4.806427,-1.206336 -6.74036,-5.059752 -4.741309,-9.447189 1.267784,-2.782483 2.481073,-3.40953 6.597193,-3.40953 3.515303,0 5.604076,0.800036 6.892909,2.640104 1.01706,1.452059 4.051083,3.560111 6.742272,4.68456 5.637751,2.355603 5.203318,3.430684 4.908739,-12.147537 C 71.781989,6.8195599 75.44776,2.377341 81.953451,7.1344177 c 2.188322,1.6001401 2.361762,3.0165703 1.55456,12.6956143 -1.140016,13.669785 0.07053,14.513627 11.766141,8.201905 6.980038,-3.766887 8.615148,-4.185004 11.121188,-2.843816 3.24291,1.735557 3.97022,6.981664 1.27133,9.170188 -0.91667,0.743322 -4.58817,2.333946 -8.158898,3.53472 C 90.709483,40.85174 88,42.426564 88,44.581651 c 0,1.00164 3.6,4.939896 8,8.751681 9.01547,7.810236 10.27877,11.867016 4.51345,14.493869 -4.71461,2.148123 -7.815754,0.908871 -10.928741,-4.367249 -1.43491,-2.431992 -4.846577,-6.128541 -7.581482,-8.214556 l -4.972555,-3.792752 -5.1672,5.940344 c -2.84196,3.267189 -6.352421,7.290344 -7.801025,8.940344 -2.876854,3.276817 -4.826159,3.638982 -8.39578,1.559868 z"
       id="path130" />
  </g>
</svg>
