<?xml version="1.0" encoding="UTF-8" standalone="no"?>
<!-- Created with Inkscape (http://www.inkscape.org/) -->

<svg
   version="1.1"
   id="svg2"
   width="157.33333"
   height="152"
   viewBox="0 0 157.33333 152"
   xmlns="http://www.w3.org/2000/svg"
   xmlns:svg="http://www.w3.org/2000/svg">
  <defs
     id="defs6" />
  <g
     id="g8">
    <path
       style="fill:#000000;stroke-width:1.33333"
       d="M 40.666666,144.65643 C 27.330075,142.19621 14.80353,138.93315 8.9158085,136.3856 4.4494223,134.45305 3.9343226,133.7694 4.6768255,130.75954 5.8893484,125.84436 6.2918404,125.60735 19.42877,122.07294 57.090743,111.94022 83.030834,111.71866 133.33333,121.10005 146.7467,123.60164 152,126.87427 152,132.72881 c 0,6.94443 -39.72249,13.88034 -78.666668,13.7359 -12.947361,-0.048 -27.487721,-0.85291 -32.666666,-1.80828 z M 102,135.28217 c 7.33333,-0.43245 16.02916,-1.45581 19.32405,-2.27411 l 5.99073,-1.48783 -3.99073,-1.13028 c -16.22907,-4.59649 -44.090753,-6.78122 -63.486543,-4.97819 -18.038367,1.67684 -26.596425,3.05803 -29.645452,4.78449 -2.058873,1.16581 -1.107106,1.67025 5.665246,3.00263 4.476921,0.88079 13.990495,1.9242 21.141276,2.31869 7.150782,0.39451 13.275524,0.98855 13.610538,1.32008 0.335014,0.33155 4.535014,0.29411 9.333333,-0.0832 4.79832,-0.37729 14.724217,-1.03982 22.057552,-1.47228 z M 56.354693,101.03212 c -2.646894,-3.309981 3.165386,-11.857073 11.308326,-16.629153 6.667473,-3.9074 14.293218,-4.431764 21.252931,-1.461403 5.805527,2.477763 12.6541,11.303792 12.14725,15.654633 L 100.66666,102 79.189913,102.36545 c -16.159245,0.27497 -21.813098,-0.0552 -22.83522,-1.33333 z M 41.999999,65.6342 C 26.914718,65.220336 25.333333,64.286484 25.333333,55.792072 c 0,-3.798961 0.709072,-5.411065 2.894446,-6.580643 2.394603,-1.281552 3.197091,-1.135169 4.646968,0.847655 1.589076,2.173191 4.707692,2.427675 33.438886,2.728668 31.107421,0.325885 40.494277,-0.480416 49.353027,-4.239269 C 119.86278,46.768031 120,46.459048 120,38.790539 c 0,-6.561866 -0.58804,-8.618111 -3.43067,-11.99639 -1.91065,-2.270678 -5.60288,-4.636837 -8.33333,-5.3404 -7.4987,-1.93221 -70.217317,-1.015725 -72.721613,1.062655 -1.110888,0.921956 -3.68685,1.482928 -5.724361,1.246607 -3.058787,-0.354776 -3.910389,-1.30536 -4.885291,-5.453108 -0.913396,-3.886075 -0.6897,-5.772828 0.988008,-8.3333342 2.166358,-3.3062799 2.193139,-3.3098973 24.471327,-3.3054604 12.266427,0.00244 31.754427,0.3964544 43.306667,0.8755811 l 21.004073,0.8711394 5.32926,4.5616501 c 4.64252,3.973829 5.32926,4.223665 5.32926,1.938797 0,-1.442568 1.12952,-4.017746 2.51004,-5.7226161 2.21533,-2.7358191 2.91979,-2.9130656 6,-1.5096304 l 3.48996,1.5901337 V 35.209511 c 0,21.784093 -0.33481,26.268154 -2.0926,28.025941 C 132.83937,65.63682 128,63.941203 128,60.698444 c 0,-3.017301 -2.35871,-3.628367 -5.65886,-1.466028 -8.37961,5.490535 -35.317438,7.637008 -80.341141,6.401784 z"
       id="path1538" />
  </g>
</svg>
