<?xml version="1.0" encoding="UTF-8" standalone="no"?>
<!-- Created with Inkscape (http://www.inkscape.org/) -->

<svg
   version="1.1"
   id="svg12"
   width="52"
   height="153.33333"
   viewBox="0 0 52 153.33333"
   xmlns="http://www.w3.org/2000/svg"
   xmlns:svg="http://www.w3.org/2000/svg">
  <defs
     id="defs16" />
  <g
     id="g18">
    <path
       style="fill:#000000;stroke-width:1.33333"
       d="m 10.750836,146.82393 c -0.7796263,-1.45673 -1.4175027,-9.45456 -1.4175027,-17.77294 0,-16.54472 1.6957737,-21.58564 6.9949747,-20.79352 5.932581,0.88679 7.602108,5.85203 7.983271,23.74253 l 0.355088,16.66666 -6.249164,0.40295 c -5.11657,0.32992 -6.506071,-0.0771 -7.666667,-2.24568 z M 11.865038,49.755167 C 7.7946263,39.35425 7.0826227,36.013758 7.3125545,28.396378 7.5050453,22.019378 8.3481573,18.93842 10.995447,14.938094 15.357229,8.3469958 22.528172,4.7848907 29.129629,5.9300927 43.537164,8.4294709 45.333333,11.436854 45.333333,33.06047 c 0,13.671164 -0.336454,16.164049 -2.438321,18.066212 -5.257029,4.757546 -13.198707,0.886756 -11.634049,-5.670462 0.45359,-1.900921 1.179037,-7.408138 1.612102,-12.238258 0.966272,-10.777161 -0.643466,-14.551296 -6.206398,-14.551296 -5.907091,0 -7.046696,3.490404 -6.485019,19.862438 l 0.485019,14.137562 -3.66602,0.421834 c -2.96972,0.341714 -3.945144,-0.291398 -5.135609,-3.333333 z"
       id="path1381" />
  </g>
</svg>
