<?xml version="1.0" encoding="UTF-8" standalone="no"?>
<!-- Created with Inkscape (http://www.inkscape.org/) -->

<svg
   version="1.1"
   id="svg22"
   width="76"
   height="149.33333"
   viewBox="0 0 76 149.33333"
   xmlns="http://www.w3.org/2000/svg"
   xmlns:svg="http://www.w3.org/2000/svg">
  <defs
     id="defs26" />
  <g
     id="g28">
    <path
       style="fill:#000000;stroke-width:1.33333"
       d="m 32.539984,141.17577 c -2.211871,-2.45939 -2.512407,-4.76701 -2.326504,-17.8637 0.257856,-18.16575 1.273144,-20.64541 8.453187,-20.64541 7.152566,0 8,2.1485 8,20.28234 0,11.53073 -0.493171,15.82841 -2.075606,18.08765 -2.680982,3.82764 -8.671588,3.8968 -12.051077,0.13912 z M 14.333333,68.142237 c -3.578626,-3.628633 -3.003251,-10.456646 1.172134,-13.909796 1.928006,-1.594509 4.963853,-4.257682 6.746325,-5.918161 l 3.240857,-3.019052 -3.79174,-3.19054 C 19.615452,40.349892 14.929605,37.483738 11.287918,35.735457 4.0118291,32.242393 3.1726409,29.302762 8.223224,24.999999 c 3.713097,-3.163313 6.847503,-2.937829 13.900828,1 3.283813,1.833334 7.164071,3.333334 8.622795,3.333334 2.451934,0 2.632072,-0.81913 2.385342,-10.846772 -0.289502,-11.7659929 1.164518,-14.4865611 7.742406,-14.4865611 4.297824,0 5.663189,3.5144859 5.561557,14.3155861 -0.04876,5.18244 0.301952,10.054647 0.779369,10.827124 0.560066,0.906203 3.052394,0.243068 7.024842,-1.869104 7.105756,-3.778167 14.405174,-4.322484 15.616985,-1.164557 2.05016,5.34263 0.876792,8.328544 -3.89122,9.902129 -2.585296,0.853225 -6.489651,3.056756 -8.676343,4.896736 l -3.975802,3.345417 5.854113,6.511183 c 8.600232,9.565527 9.188021,18.568818 1.212284,18.568818 -3.396057,0 -6.792124,-2.240448 -15.322296,-10.108403 -2.718055,-2.507045 -5.288183,-4.558264 -5.711397,-4.558264 -0.423214,0 -4.125839,3.6 -8.228056,8 -8.043595,8.627485 -12.305648,10.01782 -16.785298,5.475572 z"
       id="path1242" />
  </g>
</svg>
