<?xml version="1.0" encoding="UTF-8" standalone="no"?>
<!-- Created with Inkscape (http://www.inkscape.org/) -->

<svg
   version="1.1"
   id="svg32"
   width="84"
   height="148"
   viewBox="0 0 84 148"
   xmlns="http://www.w3.org/2000/svg"
   xmlns:svg="http://www.w3.org/2000/svg">
  <defs
     id="defs36" />
  <g
     id="g38">
    <path
       style="fill:#000000;stroke-width:1.33333"
       d="m 51.459349,139.26887 c -1.289696,-1.2897 -2.0955,-3.78255 -1.86507,-5.76983 0.341246,-2.94299 1.147324,-3.56018 5.072388,-3.88376 8.020517,-0.6612 8.593984,-1.17592 5.899906,-5.29553 -1.313942,-2.0092 -3.028944,-4.29924 -3.811113,-5.08899 -0.782169,-0.78975 -3.443355,-3.74175 -5.913744,-6.56001 -3.585253,-4.0901 -4.930521,-4.84727 -6.666667,-3.75228 -2.712542,1.71081 -10.22386,16.40146 -12.483301,24.41486 l -1.691748,6 -11.878336,0.38834 c -6.533084,0.21357 -12.3203967,-0.0864 -12.8606939,-0.66667 -2.0281218,-2.17809 1.341148,-7.10876 5.4142809,-7.92338 6.236749,-1.24735 12.566478,-8.48353 15.21441,-17.3932 2.326178,-7.82703 5.550832,-16.741488 7.381195,-20.405087 1.275475,-2.552952 9.929643,-3.315332 16.243599,-1.430962 5.377084,1.604765 9.370308,6.178352 15.847774,18.151039 2.336499,4.31869 6.585839,10.50788 9.442976,13.75376 5.354194,6.08269 6.773755,11.932 3.528128,14.5377 -0.916666,0.73592 -6.827385,1.75581 -13.13493,2.26642 -9.829571,0.79572 -11.792735,0.6039 -13.739054,-1.34242 z M 29.987864,48.464055 c -1.093325,-1.093326 -2.009237,-3.895007 -2.03536,-6.22596 -0.08853,-7.899554 -3.588519,-19.092051 -7.779359,-24.877338 -4.85334,-6.699841 -5.12145,-8.5453273 -1.599813,-11.0119782 1.93148,-1.3528615 5.007713,-1.5608513 12.333333,-0.8338793 5.368002,0.5327038 14.693406,0.6225352 20.72312,0.199625 7.86762,-0.5518165 11.538244,-0.2916162 13,0.9215336 2.208058,1.8325248 2.765912,7.4226649 0.858374,8.6015869 -3.217442,1.98849 -6.821492,13.145823 -6.821492,21.117815 0,12.872328 -1.530495,14.281151 -15.403899,14.179313 C 35.126037,50.47504 31.4209,49.897089 29.987864,48.464055 Z"
       id="path1103" />
  </g>
</svg>
