<?xml version="1.0" encoding="UTF-8" standalone="no"?>
<!-- Created with Inkscape (http://www.inkscape.org/) -->

<svg
   version="1.1"
   id="svg2"
   width="162.66667"
   height="149.33333"
   viewBox="0 0 162.66667 149.33333"
   xmlns="http://www.w3.org/2000/svg"
   xmlns:svg="http://www.w3.org/2000/svg">
  <defs
     id="defs6" />
  <g
     id="g8">
    <path
       style="fill:#000000;stroke-width:1.33333"
       d="m 7.0000001,141.78362 c -2.9341902,-1.18397 -1.8818551,-6.91449 1.7008387,-9.26196 2.8376982,-1.85933 6.0977732,-2.10788 20.7213272,-1.57983 9.544601,0.34465 17.625779,0.1866 17.95817,-0.35122 1.100738,-1.78103 -3.497692,-2.59891 -10.487053,-1.86523 -5.606653,0.58853 -7.515448,0.22552 -10.226616,-1.94491 -2.741203,-2.19446 -3.06604,-3.09293 -1.828634,-5.05782 1.216057,-1.93098 3.006433,-2.32112 9.333333,-2.03379 14.763663,0.67047 19.133307,1.70153 23.551565,5.55722 4.215102,3.67841 4.431614,3.7157 14.943737,2.57399 5.866667,-0.63717 23.236489,-1.53431 38.599602,-1.99365 20.20727,-0.60417 28.41245,-1.31467 29.66667,-2.56888 1.05994,-1.05994 1.73373,-5.0353 1.73373,-10.22897 0,-4.82963 0.69039,-9.18562 1.6,-10.09524 2.09591,-2.09591 8.38151,-2.05424 10.05604,0.0667 1.97144,2.49695 3.35461,31.19922 1.65641,34.37233 -1.32625,2.47815 -2.86409,2.62417 -27.02603,2.56632 -14.09086,-0.0337 -35.219755,-0.56415 -46.953088,-1.17867 -19.56711,-1.02481 -21.742895,-0.90934 -26.280217,1.39468 -4.256957,2.16166 -7.883088,2.49732 -26,2.40674 C 18.14057,142.5035 7.9166668,142.1535 7.0000001,141.78362 Z M 15.333334,38.678264 8.6666668,37.999999 8.2882387,24.473666 C 7.7733124,6.0684188 7.2175824,6.5106808 30.473065,6.8185025 40.479546,6.9509534 70.979699,6.8668262 98.251181,6.6315529 137.39835,6.2938272 148.27398,6.5675277 149.91784,7.9318178 151.45492,9.2074793 152,12.19133 152,19.329926 c 0,14.983984 -0.88762,17.819395 -5.82728,18.61444 -5.72324,0.921166 -122.55739,1.576508 -130.839386,0.733898 z M 134.66667,27.227393 c 3.11059,-0.600815 4,-1.4798 4,-3.95309 0,-5.286529 -3.86875,-6.281535 -18.6613,-4.799511 -7.24382,0.725737 -14.34069,1.01353 -15.77082,0.639541 -3.28119,-0.858049 -4.240404,0.708395 -2.78763,4.552333 0.9444,2.498808 2.19907,3.026355 7.51012,3.157753 3.50696,0.08676 8.1763,0.621378 10.3763,1.18803 3.87098,0.997044 6.91335,0.841277 15.33333,-0.785056 z M 58.051927,26.582649 c 0.481784,-0.779544 -0.102578,-2.498636 -1.298583,-3.820207 -2.5206,-2.785232 -20.608267,-4.790113 -29.86349,-3.310144 -4.571654,0.731038 -5.55652,1.409748 -5.55652,3.829224 0,1.617384 0.4,3.3407 0.888889,3.829588 1.519541,1.519543 34.867957,1.027677 35.829704,-0.528461 z m 28.614741,-0.779291 c 0,-0.317903 -1.312834,-2.353709 -2.91741,-4.524016 -2.029652,-2.745249 -4.0583,-3.946009 -6.666667,-3.946009 -2.062091,0 -3.749256,0.572727 -3.749256,1.272727 0,1.57929 5.894905,7.571942 8.257576,8.394499 1.781581,0.620252 5.075757,-0.156733 5.075757,-1.197201 z"
       id="path30" />
  </g>
</svg>
