<?xml version="1.0" encoding="UTF-8" standalone="no"?>
<!-- Created with Inkscape (http://www.inkscape.org/) -->

<svg
   version="1.1"
   id="svg52"
   width="190.66667"
   height="166.66667"
   viewBox="0 0 190.66667 166.66667"
   xmlns="http://www.w3.org/2000/svg"
   xmlns:svg="http://www.w3.org/2000/svg">
  <defs
     id="defs56" />
  <g
     id="g58">
    <path
       style="fill:#000000;stroke-width:1.33333"
       d="m 22.333334,157.24366 c -3.040856,-1.79344 -2.985532,-6.90679 0.104986,-9.70367 2.926786,-2.64871 7.708463,-2.76931 12.155239,-0.30656 4.856523,2.68967 8.390679,0.37167 12.638467,-8.28941 3.094022,-6.30859 3.86449,-10.14219 4.859139,-24.17754 C 52.987874,102.11316 52.878141,97.556998 51.636624,95.893787 50.736481,94.687902 46.156801,88.968483 41.459555,83.183968 26.378288,64.611843 23.099644,52.295832 30.016061,40.197235 c 4.160424,-7.277652 4.149728,-8.723236 -0.0788,-10.649881 -4.385082,-1.997976 -10.218274,-1.969653 -14.697822,0.07136 -3.156699,1.438295 -3.832479,1.273211 -6.0627355,-1.48104 -3.0530011,-3.770296 -3.2040319,-7.88684 -0.4344313,-11.840999 1.7200698,-2.455744 3.3406388,-2.963341 9.4608388,-2.963341 5.424132,0 8.456319,-0.76268 11.418788,-2.872144 3.941895,-2.8068764 4.177379,-2.8204236 10.362839,-0.5961633 6.150124,2.2115533 6.482899,2.1959123 11.755915,-0.5525366 7.62804,-3.9759575 10.285008,-2.309241 11.396653,7.1491239 0.467867,3.980812 0.247972,10.415837 -0.488656,14.300056 -0.736626,3.884219 -0.964958,8.301841 -0.507405,9.81694 1.288576,4.266863 5.933151,8.717166 12.685075,12.154488 3.387808,1.724692 7.747208,5.1153 9.687555,7.534687 1.940347,2.419386 5.963781,7.201206 8.940965,10.626266 2.977184,3.425061 7.74982,9.425061 10.60585,13.333333 6.57485,8.997186 5.96307,8.219538 14.51163,18.446056 11.19054,13.38707 28.24292,29.80663 33.57734,32.33126 6.11781,2.89538 8.16792,5.38566 7.61936,9.25525 -0.61134,4.31243 -6.76751,4.79397 -13.42835,1.05037 -6.93611,-3.8983 -7.66411,-2.59536 -1.42387,2.54839 4.12884,3.40333 4.79394,4.57825 3.63326,6.41831 -2.25078,3.56822 -8.39475,4.63072 -17.21672,2.9773 -4.4,-0.82464 -9.66215,-2.12204 -11.69367,-2.8831 -5.25494,-1.96867 -10.1672,-8.36484 -11.15148,-14.52018 -0.58352,-3.64913 -2.03734,-6.18685 -4.71494,-8.23015 -2.12921,-1.62482 -5.950848,-4.66779 -8.492527,-6.76216 -6.727897,-5.54385 -8.614055,-4.13532 -8.614055,6.43276 0,9.05167 -0.15809,9.26637 -6.440411,8.74665 -2.546344,-0.21066 -3.027597,0.30412 -2.666666,2.85241 0.386094,2.72596 1.070702,3.05952 5.55097,2.70461 5.660682,-0.44841 8.889441,1.44176 8.889441,5.20403 0,5.44092 -4.455482,6.29188 -32.864321,6.27687 -14.775376,-0.008 -28.575376,0.33633 -30.666667,0.76477 -2.091291,0.42844 -4.852347,0.15971 -6.13568,-0.59717 z m 45.666667,-13.3496 c 0,-3.92751 -0.188308,-4.06695 -4.333333,-3.20864 -2.383334,0.4935 -5.114276,1.89117 -6.068762,3.10593 -1.525584,1.94159 -1.203138,2.30835 2.666667,3.03313 7.584124,1.42044 7.735428,1.36314 7.735428,-2.93042 z M 133.0492,68.002839 c -8.11963,-5.099198 -10.44593,-8.829351 -12.59523,-20.196055 -1.61847,-8.559399 -1.55615,-9.694754 0.78059,-14.221077 6.12806,-11.870205 18.32859,-18.861461 32.98823,-18.903215 5.84328,-0.01664 15.14371,3.510754 19.97285,7.575147 5.18946,4.367656 8.7193,13.434419 8.93423,22.948517 0.27357,12.109898 -1.65343,15.878515 -11.15671,21.818939 -7.71165,4.820494 -8.3417,4.97412 -20.29925,4.949573 -11.34788,-0.02329 -12.84608,-0.342797 -18.62471,-3.971829 z m 30.50942,-10.17975 C 167.81819,55.366561 172,47.608949 172,42.163636 172,28.927067 155.05891,21.278822 140.44091,27.915931 c -6.36832,2.891451 -8.14579,5.558726 -9.29586,13.949402 -0.64771,4.72558 -0.26832,6.728369 1.8168,9.590771 5.28126,7.250015 22.7591,10.887035 30.59677,6.366985 z m -18.25828,-9.243221 c -1.93572,-5.091315 -1.6119,-6.8771 1.66301,-9.170929 C 153.19902,35.041303 160,38.157162 160,45.381661 c 0,4.440469 -3.05329,6.61834 -9.27868,6.61834 -3.19641,0 -4.41232,-0.767121 -5.42098,-3.420133 z"
       id="path825" />
  </g>
</svg>
