<?xml version="1.0" encoding="UTF-8" standalone="no"?>
<!-- Created with Inkscape (http://www.inkscape.org/) -->

<svg
   version="1.1"
   id="svg2"
   width="166.66667"
   height="158.66667"
   viewBox="0 0 166.66667 158.66667"
   xmlns="http://www.w3.org/2000/svg"
   xmlns:svg="http://www.w3.org/2000/svg">
  <defs
     id="defs6" />
  <g
     id="g8">
    <path
       style="fill:#000000;stroke-width:1.33333"
       d="M 33.670673,151.3472 C 21.76724,146.17332 9.3333335,130.61833 9.3333335,120.90085 c 0,-2.85043 0.9419565,-8.8692 2.0932375,-13.37505 1.745993,-6.83343 3.324104,-9.445526 9.513083,-15.746106 8.261984,-8.410966 13.456752,-10.446359 26.661383,-10.446359 8.650716,0 17.93334,4.000869 25.153795,10.841446 5.164791,4.893061 9.303752,17.773279 8.942611,27.828909 -0.297441,8.28192 -5.620605,19.62427 -11.958096,25.47975 -7.133718,6.59116 -26.974278,9.81667 -36.068674,5.86376 z m 4.976158,-7.68053 c -0.03528,-2.96407 -8.538932,-11.5495 -12.313497,-12.4319 -6.840964,-1.59927 -2.617679,7.13562 5.532891,11.4435 5.734788,3.03105 6.806777,3.18731 6.780606,0.9884 z m 15.758374,-5.30936 c 0.238223,-1.22777 -2.096964,-3.88531 -5.666667,-6.44887 -3.339529,-2.39827 -6.07187,-4.72234 -6.07187,-5.16459 0,-0.44226 -2.100001,-1.93503 -4.666667,-3.31727 -2.566667,-1.38224 -4.666667,-2.99705 -4.666667,-3.58847 0,-1.1778 -9.326836,-7.83811 -10.97618,-7.83811 -0.563102,0 -0.991472,1.35 -0.951935,3 0.04921,2.05405 2.466656,4.78558 7.666667,8.66277 4.177129,3.11452 10.894781,8.33862 14.928115,11.6091 7.517379,6.09557 9.69582,6.74153 10.405204,3.08544 z M 67.979584,131 c -0.0112,-1.28333 -0.461229,-2.93333 -1,-3.66666 -1.204231,-1.63911 -7.723987,-6.06398 -12.61118,-8.55904 -1.997378,-1.01972 -5.795234,-3.83585 -8.439679,-6.25807 -2.644445,-2.42222 -5.963464,-4.77074 -7.375598,-5.21893 -1.412133,-0.44819 -4.376321,-2.33691 -6.587086,-4.19714 -3.274016,-2.75491 -4.385568,-3.0785 -5.992806,-1.74461 C 24.887956,102.25625 24,103.44702 24,104.00171 c 0,2.08932 30.531808,24.14949 38.000001,27.45617 5.307062,2.3498 6.003684,2.29646 5.979583,-0.45788 z m 4.670053,-10.97244 c 1.111866,-1.79904 -1.683893,-6.69422 -3.82323,-6.69422 -0.960542,0 -2.865839,-1.23693 -4.233994,-2.74872 -1.368154,-1.5118 -3.522273,-2.47813 -4.786929,-2.14742 -1.423705,0.37231 -4.0779,-1.2467 -6.969512,-4.25128 -6.071458,-6.308649 -13.475873,-12.185918 -15.352299,-12.185918 -3.4747,0 -0.964268,4.605337 6.182995,11.342578 5.28463,4.98147 8.78241,7.24196 11.257728,7.27547 2.106841,0.0285 4.409525,1.21714 5.571331,2.87585 1.868318,2.6674 8.41555,7.52933 10.425585,7.74197 0.506721,0.0536 1.284468,-0.49013 1.728325,-1.20831 z m -3.71666,-19.57409 c 0.919486,-2.39614 -5.391692,-8.434836 -8.827988,-8.446845 -1.042257,-0.0036 -2.842257,-0.835655 -4,-1.848915 -3.290093,-2.879501 -8.104988,-3.994899 -8.104988,-1.877567 0,3.353418 4.163096,7.751434 10.422934,11.011091 7.459281,3.884236 9.383845,4.097066 10.510042,1.162236 z m 41.398993,46.58003 c -1.99616,-2.20574 -2.31831,-5.24974 -2.2371,-21.13849 0.12833,-25.10945 1.48376,-39.057911 3.94679,-40.615634 1.07709,-0.681197 11.36549,-1.247728 22.8631,-1.258957 17.2456,-0.01684 21.27152,0.346333 23,2.074821 1.77703,1.777021 2.09524,6.523871 2.09524,31.25465 0,16.03767 -0.45,29.42717 -1,29.75443 -0.55,0.32726 -11.20061,1.02499 -23.66802,1.5505 -21.37822,0.9011 -22.80073,0.80885 -25.00001,-1.62132 z m 12.3347,-93.885359 c -9.59224,-2.157361 -14.7131,-2.438941 -33.333335,-1.832896 -12.1,0.393828 -24.273703,1.025752 -27.052675,1.404279 -8.435003,1.148937 -15.2876,-1.555614 -22.194881,-8.759771 L 33.840427,37.445974 24.58688,38.188197 C 13.281725,39.094978 8.0000002,37.404535 8.0000002,32.879481 c 0,-3.751291 4.7009388,-10.212814 7.4301068,-10.212814 2.972528,0 2.246787,-2.499057 -1.715511,-5.907283 -3.245613,-2.791758 -3.454778,-3.472559 -2.028585,-6.602712 1.81024,-3.9730453 7.427687,-4.8369636 9.331463,-1.4351045 1.003798,1.7936895 1.603616,1.6980705 4.718643,-0.7522095 2.37211,-1.8659025 5.02639,-2.6666635 7.916273,-2.388234 3.636863,0.3503981 4.347611,0.9638103 4.347611,3.7522095 0,2.5286265 -1.20706,3.9231375 -5,5.7764775 -6.37579,3.115393 -6.513755,6.473773 -0.357403,8.699939 2.730867,0.987493 7.480051,4.941075 11.533291,9.601184 8.181423,9.406386 11.371788,9.988808 23.451266,4.281185 6.576804,-3.107578 9.800523,-3.710918 21.996719,-4.116832 12.936256,-0.430544 15.529586,-0.09067 27.365146,3.586351 19.31085,5.999423 29.00437,8.008251 34.85608,7.223374 6.41168,-0.859987 9.04164,2.320596 6.36649,7.699426 -1.50971,3.03554 -2.35776,3.26084 -12.91371,3.430771 -6.92853,0.111538 -15.68093,-0.803904 -22.63121,-2.367068 z"
       id="path30" />
  </g>
</svg>
