<?xml version="1.0" encoding="UTF-8" standalone="no"?>
<!-- Created with Inkscape (http://www.inkscape.org/) -->

<svg
   version="1.1"
   id="svg62"
   width="166.66667"
   height="158.66667"
   viewBox="0 0 166.66667 158.66667"
   xmlns="http://www.w3.org/2000/svg"
   xmlns:svg="http://www.w3.org/2000/svg">
  <defs
     id="defs66" />
  <g
     id="g68">
    <path
       style="fill:#000000;stroke-width:1.33333"
       d="M 35.333334,150.24352 C 24.511167,146.09824 19.364928,141.88064 15.107279,133.66726 12.782949,129.18341 10.473801,122.25391 9.9758394,118.26836 8.693153,108.00208 14.267943,95.272199 22.748727,89.101815 c 6.110896,-4.446119 16.075587,-7.76848 23.299843,-7.76848 12.87905,0 26.010999,8.27712 32.055009,20.204405 8.46198,16.69891 -1.62752,39.47029 -20.460199,46.1774 -10.050956,3.57957 -17.393297,4.41168 -22.310046,2.52838 z m 74.998636,-3.21002 c -1.99616,-2.20574 -2.31831,-5.24974 -2.2371,-21.13849 0.12833,-25.10945 1.48376,-39.057911 3.94679,-40.615634 1.07709,-0.681197 11.36549,-1.247728 22.8631,-1.258957 17.2456,-0.01684 21.27152,0.346333 23,2.074821 1.77703,1.777021 2.09524,6.523871 2.09524,31.25465 0,16.03767 -0.45,29.42717 -1,29.75443 -0.55,0.32726 -11.20061,1.02499 -23.66802,1.5505 -21.37822,0.9011 -22.80073,0.80885 -25.00001,-1.62132 z m 12.3347,-93.885359 c -9.59224,-2.157361 -14.7131,-2.438941 -33.333335,-1.832896 -12.1,0.393828 -24.273703,1.025752 -27.052675,1.404279 -8.435003,1.148937 -15.2876,-1.555614 -22.194881,-8.759771 L 33.840427,37.445974 24.58688,38.188197 C 13.281725,39.094978 8.0000002,37.404535 8.0000002,32.879481 c 0,-3.751291 4.7009388,-10.212814 7.4301068,-10.212814 2.972528,0 2.246787,-2.499057 -1.715511,-5.907283 -3.245613,-2.791758 -3.454778,-3.472559 -2.028585,-6.602712 1.81024,-3.9730453 7.427687,-4.8369636 9.331463,-1.4351045 1.003798,1.7936895 1.603616,1.6980705 4.718643,-0.7522095 2.37211,-1.8659025 5.02639,-2.6666635 7.916273,-2.388234 3.636863,0.3503981 4.347611,0.9638103 4.347611,3.7522095 0,2.5286265 -1.20706,3.9231375 -5,5.7764775 -6.37579,3.115393 -6.513755,6.473773 -0.357403,8.699939 2.730867,0.987493 7.480051,4.941075 11.533291,9.601184 8.181423,9.406386 11.371788,9.988808 23.451266,4.281185 6.576804,-3.107578 9.800523,-3.710918 21.996719,-4.116832 12.936256,-0.430544 15.529586,-0.09067 27.365146,3.586351 19.31085,5.999423 29.00437,8.008251 34.85608,7.223374 6.41168,-0.859987 9.04164,2.320596 6.36649,7.699426 -1.50971,3.03554 -2.35776,3.26084 -12.91371,3.430771 -6.92853,0.111538 -15.68093,-0.803904 -22.63121,-2.367068 z"
       id="path686" />
  </g>
</svg>
