<?xml version="1.0" encoding="UTF-8" standalone="no"?>
<!-- Created with Inkscape (http://www.inkscape.org/) -->

<svg
   version="1.1"
   id="svg72"
   width="112"
   height="157.33333"
   viewBox="0 0 112 157.33333"
   xmlns="http://www.w3.org/2000/svg"
   xmlns:svg="http://www.w3.org/2000/svg">
  <defs
     id="defs76" />
  <g
     id="g78">
    <path
       style="fill:#000000;stroke-width:1.33333"
       d="M 54.298585,148.44149 49.263837,146.35373 49.631919,126.89185 50,107.42996 54.361807,106.1806 c 3.002066,-0.85989 5.44799,-0.75446 7.846092,0.33818 3.25667,1.48384 3.433018,2.0204 2.69952,8.21365 -0.431619,3.64435 -0.204815,11.73002 0.50401,17.96815 1.102167,9.6998 0.974555,11.82162 -0.881341,14.65407 -2.505829,3.82437 -3.40058,3.91943 -10.231503,1.08684 z m 35.622922,0.33476 c -2.265902,-1.65503 -2.693223,-4.18688 -3.43183,-20.33334 -0.932466,-20.38434 -0.473138,-21.77625 7.186151,-21.77625 8.679282,0 8.990842,0.76512 8.990842,22.07992 V 148.066 l -3.420137,1.30033 c -4.597758,1.74807 -6.268618,1.64233 -9.325026,-0.59008 z m -77.368236,-0.95973 c -0.515592,-0.83424 -1.098552,-9.08424 -1.295465,-18.33333 -0.44002,-20.66789 0.707187,-23.53001 8.986303,-22.41955 2.920202,0.39168 5.664787,1.06748 6.099078,1.50177 0.434292,0.43429 0.933813,8.8928 1.110049,18.7967 0.257479,14.46958 -0.06895,18.39646 -1.661643,19.98915 -2.327568,2.32756 -11.879869,2.66328 -13.238322,0.46526 z M 59.200051,68.15496 C 43.0837,56.238155 36.203643,43.915831 37.933948,30.066933 39.60554,16.687966 48.535049,7.9999998 60.614389,7.9999998 c 5.775884,0 7.450919,0.5914288 10.384664,3.6666662 5.091762,5.337331 6.719878,10.458255 4.990772,15.697497 -2.237354,6.77925 -5.949946,9.317286 -13.465068,9.205112 L 56,36.471885 v 4.473549 c 0,6.94691 3.277996,13.191108 10.740952,20.460254 4.273788,4.1628 6.565395,7.408127 6.095581,8.63244 -1.229098,3.20298 -8.02768,2.26411 -13.636482,-1.883168 z"
       id="path547" />
  </g>
</svg>
