<?xml version="1.0" encoding="UTF-8" standalone="no"?>
<!-- Created with Inkscape (http://www.inkscape.org/) -->

<svg
   version="1.1"
   id="svg82"
   width="166.66667"
   height="162.66667"
   viewBox="0 0 166.66667 162.66667"
   xmlns="http://www.w3.org/2000/svg"
   xmlns:svg="http://www.w3.org/2000/svg">
  <defs
     id="defs86" />
  <g
     id="g88">
    <path
       style="fill:#000000;stroke-width:1.33333"
       d="m 132.66667,153.30518 c -8.06667,-0.47696 -19.76667,-1.5543 -26,-2.39407 -8.170739,-1.1008 -14.309896,-1.13699 -22.000002,-0.12973 -18.785395,2.46065 -34.342595,2.84476 -37.939004,0.93673 -1.799787,-0.95487 -5.339106,-4.43207 -7.865155,-7.72715 -4.889732,-6.37833 -5.520418,-6.54341 -16.121861,-4.21977 -7.050006,1.54523 -11.096186,0.29389 -14.157596,-4.37841 -2.0620812,-3.14707 -2.0649052,-3.63418 -0.038995,-6.72611 1.2012462,-1.83333 2.996786,-3.33333 3.990088,-3.33333 0.993302,0 2.494578,-0.82969 3.33617,-1.84374 1.213877,-1.46264 0.512681,-2.66 -3.392286,-5.79267 -3.4497503,-2.76749 -4.6655659,-4.61837 -4.0638164,-6.18651 1.3456612,-3.50673 5.0095784,-4.1739 9.3239294,-1.6978 3.695902,2.12115 4.334617,2.12555 9.725171,0.0669 9.85497,-3.76365 13.874408,0.82779 5.203354,5.94384 -2.566666,1.51437 -4.666666,3.37463 -4.666666,4.13392 0,0.75928 2.85,3.46212 6.333333,6.0063 3.483333,2.54418 8.296454,7.01846 10.695822,9.94283 6.174649,7.52574 11.646456,8.36472 21.373105,3.27715 7.091563,-3.70929 7.999659,-3.84391 24.812683,-3.67813 14.981866,0.1477 19.244376,0.70692 30.118396,3.95132 8.58128,2.56034 16.96706,4.00998 26,4.49461 13.2643,0.71163 13.33148,0.73259 12.97458,4.04867 -0.4657,4.32705 -3.79386,6.7287 -8.89609,6.41952 -2.24317,-0.13593 -10.67849,-0.63739 -18.74516,-1.11435 z M 25.234533,82.3763 C 22.657076,81.415692 22.222235,80.276428 22.546334,75.333335 22.869051,70.41128 17.588007,54.822636 14.00752,50.128377 c -2.085567,-2.73432 -3.366134,-5.913949 -3.10986,-7.721739 0.393451,-2.775459 1.227694,-3.111369 8.608102,-3.466084 l 8.172428,-0.39278 0.843329,-5.273887 c 0.463831,-2.900637 1.436238,-5.273886 2.160906,-5.273886 0.728705,0 1.317576,-3.761065 1.317576,-8.415253 0,-8.670793 2.854658,-14.2514146 7.290036,-14.2514146 3.032915,0 6.043297,3.9309011 6.043297,7.8912256 0,2.035412 1.2,5.08436 2.666667,6.775441 2.798339,3.226511 3.007879,4.053646 3.208873,12.666667 l 0.124454,5.333334 7.864017,0.666666 c 9.90459,0.839655 12.086462,3.37347 7.844974,9.11039 -5.674496,7.675167 -9.960202,18.148399 -10.349285,25.291158 -0.211761,3.887516 -0.801933,7.487516 -1.311492,8 -1.32644,1.334049 -27.079156,2.451467 -30.147016,1.308085 z m 67.697881,-2.967696 c -1.976535,-1.976534 -1.611954,-8.164577 0.560124,-9.506996 0.645772,-0.399108 1.174131,-1.915565 1.174131,-3.369904 0,-1.454339 0.622598,-3.368929 1.38355,-4.254644 0.760954,-0.885716 4.040491,-5.322812 7.287861,-9.860216 l 5.90431,-8.249824 -4.49821,-6.539241 C 97.994065,27.814833 90.458376,12.140966 90.922954,8.88029 c 0.300472,-2.1088848 1.481959,-2.9855523 4.411464,-3.273321 3.339157,-0.3280094 4.841742,0.6126689 9.082552,5.68604 5.5307,6.616486 15.98505,12.697713 21.87204,12.722817 4.92446,0.021 15.99174,3.024195 21.33814,5.790276 10.74095,5.557075 10.33681,21.593758 -0.69955,27.759315 -2.2711,1.268778 -8.80892,3.19878 -14.52844,4.288895 -14.03368,2.674748 -18.45336,4.74022 -27.06582,12.64879 -7.905226,7.25913 -9.440127,7.866301 -12.400926,4.905502 z"
       id="path408" />
  </g>
</svg>
