<?xml version="1.0" encoding="UTF-8" standalone="no"?>
<!-- Created with Inkscape (http://www.inkscape.org/) -->

<svg
   version="1.1"
   id="svg92"
   width="140"
   height="88"
   viewBox="0 0 140 88"
   xmlns="http://www.w3.org/2000/svg"
   xmlns:svg="http://www.w3.org/2000/svg">
  <defs
     id="defs96" />
  <g
     id="g98">
    <path
       style="fill:#000000;stroke-width:1.33333"
       d="M 70.082361,80.091008 C 68.307287,78.129572 68,72.680047 68,43.161679 68,18.006299 68.437697,8.0956357 69.6,6.9333333 c 3.030143,-3.030143 7.911304,-1.7381661 12.915815,3.4186417 2.959388,3.049446 7.214301,5.697762 10.843972,6.749436 3.28545,0.951936 8.673543,2.691528 11.973543,3.865757 3.3,1.174231 10.32037,2.486985 15.60082,2.917232 5.28046,0.430247 10.36773,1.549536 11.30505,2.487309 1.16692,1.16749 1.76912,6.716588 1.91009,17.600972 0.24248,18.723006 -0.86874,20.928591 -9.78533,19.422143 -8.60387,-1.453615 -29.799439,5.232608 -39.944589,12.600671 -8.370672,6.079322 -11.684896,7.026065 -14.33701,4.095513 z M 9.3092068,78.915241 C 7.1546152,77.170559 6.1420849,74.614439 5.6733936,69.736676 4.8458515,61.12428 7.9658405,57.333333 15.881475,57.333333 c 6.798497,0 12.128664,5.772592 12.098108,13.1023 -0.02521,6.049564 -1.013535,7.676279 -5.760186,9.480952 -5.421842,2.061382 -9.520474,1.743482 -12.9101902,-1.001344 z M 24.824919,55.422296 c -4.39247,-5.758824 -4.507667,-11.336233 -0.315484,-15.274584 5.613697,-5.273795 15.642737,-3.428003 18.221056,3.353489 2.003045,5.268411 1.52351,7.992335 -2.18235,12.396499 -4.959498,5.894029 -11.004426,5.711256 -15.723222,-0.475404 z M 46.652053,47.666667 C 43.471576,42.450307 43.273635,37.630381 46.075605,33.630008 49.242496,29.108639 58.832351,29.428296 62.569893,34.179812 68.550577,41.783019 63.952641,52 54.550295,52 50.051127,52 48.913627,51.375916 46.652053,47.666667 Z"
       id="path269" />
  </g>
</svg>
