<?xml version="1.0" encoding="UTF-8" standalone="no"?>
<!-- Created with Inkscape (http://www.inkscape.org/) -->

<svg
   version="1.1"
   id="svg102"
   width="168"
   height="156"
   viewBox="0 0 168 156"
   xmlns="http://www.w3.org/2000/svg"
   xmlns:svg="http://www.w3.org/2000/svg">
  <defs
     id="defs106" />
  <g
     id="g108">
    <path
       style="fill:#000000;stroke-width:1.33333"
       d="m 141.33333,148.81276 c -6.14084,-2.17257 -9.45052,-8.38131 -7.96914,-14.94956 1.67624,-7.43225 4.69212,-9.8632 12.2364,-9.8632 7.77549,0 12.38934,3.70347 13.76778,11.05121 1.29071,6.88006 0.45358,9.17995 -4.57478,12.56856 -5.06312,3.41204 -6.76238,3.56266 -13.46026,1.19299 z M 14.524359,147.33745 C 9.7821204,144.75991 6.8321987,139.88421 6.4335449,133.96476 5.9688785,127.06512 11.06947,122.66667 19.535191,122.66667 c 8.756096,0 13.798142,3.89921 13.798142,10.67065 0,6.26943 -1.988912,11.85079 -5.05242,14.17828 -2.989792,2.27149 -9.402422,2.18845 -13.756554,-0.17815 z m 62.808974,0.14198 c -6.140846,-2.17258 -9.450528,-8.38131 -7.969146,-14.94956 1.676244,-7.43225 4.692113,-9.8632 12.236402,-9.8632 7.775494,0 12.389344,3.70347 13.767788,11.05121 1.290707,6.88005 0.453575,9.17995 -4.574784,12.56856 -5.063125,3.41204 -6.762373,3.56265 -13.46026,1.19299 z M 8.118024,56.220529 C 4.6303521,49.703756 7.0564327,46.124896 24.251479,32.421091 34.429752,24.309388 36.913412,22.974332 44.707907,21.425033 53.100403,19.756871 53.545255,19.482371 52.944985,16.342263 51.522909,8.9031517 61.492675,5.8075955 63.3276,13.118519 64.692463,18.556567 66.545797,20 72.16326,20 c 3.753824,0 5.170073,-0.559327 5.170073,-2.041847 0,-1.123014 -0.9,-2.387208 -2,-2.809318 C 70.21618,13.185199 74.603657,8.1410921 82.719756,6.6569587 88.774683,5.5497371 90.110059,6.6791052 89.510007,12.39968 88.961232,17.631411 91.450199,20 97.496593,20 c 5.556007,0 6.863617,-2.267968 3.105727,-5.386733 -3.719613,-3.087008 -1.831008,-7.1532003 3.74065,-8.0536571 5.79061,-0.9358428 6.94036,0.059423 8.21026,7.1070571 0.49552,2.75 1.32375,5.04618 1.84052,5.102621 10.72013,1.170848 16.26041,-0.237889 13.58999,-3.455551 -0.83698,-1.008493 -1.32572,-3.21665 -1.08609,-4.907014 0.33167,-2.3396335 1.41778,-3.1692267 4.54925,-3.4748102 4.77529,-0.4659948 7.14463,1.7914919 8.47649,8.0763042 0.69445,3.277078 1.54173,4.234622 3.49658,3.951655 1.41902,-0.205404 4.82428,-0.733635 7.56727,-1.173848 5.52245,-0.886279 9.01276,1.030157 9.01276,4.948664 0,3.767365 -3.75947,6.598645 -8.76191,6.598645 -5.02096,0 -5.81489,1.846312 -2.61382,6.078494 1.07666,1.423496 1.97666,3.597317 2,4.830714 0.0233,1.233398 1.8424,3.524254 4.0424,5.090792 4.17513,2.972962 5.41406,8.302016 2.36778,10.184716 -0.8977,0.554819 -32.84771,1.090547 -70.999994,1.190508 -38.152284,0.09996 -70.964679,0.641222 -72.916432,1.202802 -2.831083,0.814592 -3.8421171,0.472696 -5,-1.69083 z m 54.049968,-9.553862 h 4.462469 l -3.140906,-8.333334 c -3.136276,-8.321048 -3.148668,-8.33319 -8.406458,-8.236142 -8.581385,0.158392 -25.749764,9.90904 -25.749764,14.624377 0,1.99154 11.955623,3.276128 22.519428,2.419632 3.219019,-0.260993 7.860874,-0.474533 10.315231,-0.474533 z m 50.724098,-8.76551 -4.22542,-8.563021 -6.33334,-0.0024 C 94.89134,29.332913 94.502119,30.612352 99.089137,40 c 2.706413,5.538864 3.392073,6.054304 8.921303,6.706565 9.31595,1.098968 9.55564,0.666631 4.88165,-8.805408 z m 29.02604,8.897975 c 1.21352,-1.963521 -6.38238,-17.403237 -8.97436,-18.241617 -1.31426,-0.4251 -4.81939,-0.362392 -7.78919,0.139352 -5.37525,0.908144 -5.39561,0.934197 -4.5118,5.774362 1.12054,6.136548 4.01071,10.669083 7.76828,12.182643 3.87991,1.562837 12.57318,1.656329 13.50707,0.14526 z M 90.666667,45.371351 c 0,-0.712423 -1.466983,-4.612423 -3.259962,-8.666667 -3.248825,-7.346171 -3.28022,-7.371351 -9.190681,-7.371351 -3.534191,0 -6.174307,0.673479 -6.533527,1.666667 -0.331544,0.916667 0.843948,4.816667 2.612204,8.666667 l 3.21501,7 h 6.578478 c 3.618163,0 6.578478,-0.582892 6.578478,-1.295316 z"
       id="path130" />
  </g>
</svg>
