<?xml version="1.0" encoding="UTF-8" standalone="no"?>
<!-- Created with Inkscape (http://www.inkscape.org/) -->

<svg
   version="1.1"
   id="svg2"
   width="161.33333"
   height="156"
   viewBox="0 0 161.33333 156"
   xmlns="http://www.w3.org/2000/svg"
   xmlns:svg="http://www.w3.org/2000/svg">
  <defs
     id="defs6" />
  <g
     id="g8">
    <path
       style="fill:#000000;stroke-width:1.33333"
       d="m 144.45116,149 c -8.25598,-9.24057 -15.21009,-29.34642 -14.97737,-43.30279 0.0461,-2.7668 -0.34222,-12.530543 -0.86301,-21.69721 -0.77956,-13.721565 -1.38588,-17.085815 -3.43125,-19.038671 -1.36641,-1.304602 -3.40095,-4.144446 -4.52119,-6.310765 -1.12025,-2.166317 -3.73958,-4.819292 -5.82073,-5.8955 C 108.89347,49.681233 90.883201,48 63.898823,48 40.252131,48 38.84469,47.854215 34.549935,44.95998 28.760349,41.058377 26.493357,36.629437 28.109746,32.378012 c 1.557784,-4.097284 1.595307,-13.711345 0.05351,-13.711345 -0.643541,0 -1.917008,0.9 -2.829926,2 -1.09725,1.322105 -4.079713,2 -8.799189,2 -6.227866,0 -7.4310278,-0.445178 -9.4240901,-3.486975 C 5.0646852,16.058064 5.0307624,15.32666 6.7862859,12.198976 9.8268362,6.7818568 14.14325,5.2633448 24,6.1432013 c 7.368641,0.6577571 9.226442,1.369006 12.404182,4.7488747 3.585976,3.814071 3.700628,4.349608 2.82772,13.208253 -0.980893,9.954512 -0.884697,10.077671 7.434764,9.518724 45.633757,-3.065918 48.856313,-3.125708 60.349054,-1.119686 15.26542,2.664533 22.55306,6.008144 27.26126,12.507625 6.61524,9.13208 11.49063,23.173501 9.99192,28.777377 -0.55288,2.067298 -0.56988,9.207616 -0.0377,15.867375 0.56887,7.119752 0.44588,13.083256 -0.29851,14.474136 -2.10972,3.94205 -1.42209,16.76792 1.28026,23.87995 1.40042,3.6856 4.40042,8.81292 6.66666,11.39402 6.25191,7.12054 5.19824,12.60015 -2.42284,12.60015 -1.27886,0 -3.53136,-1.35 -5.00554,-3 z M 49.703571,121 c -0.709287,-0.91667 -1.663923,-2.71667 -2.121413,-4 -0.734148,-2.05941 -2.860419,-2.33333 -18.111741,-2.33333 -13.89648,0 -17.688257,-0.40832 -19.365286,-2.08535 -1.8733116,-1.87331 -1.8795137,-2.48338 -0.061,-6 2.30753,-4.46227 1.776868,-4.39236 18.871834,-2.48616 14.4846,1.61513 19.084032,0.99319 19.084032,-2.58058 0,-2.640231 3.937123,-6.847913 6.407584,-6.847913 0.842017,0 2.529905,1.52461 3.75086,3.388025 l 2.21992,3.388028 3.204074,-3.010076 c 3.741104,-3.514584 7.196956,-2.275952 8.445155,3.026876 0.736578,3.12927 1.125268,3.21581 16.006322,3.5641 16.534708,0.38698 20.759158,1.96942 17.800908,6.66807 -1.22551,1.94651 -4.00415,2.36709 -17.727964,2.68336 l -16.274659,0.37504 -1.379867,3.95829 c -1.020168,2.92645 -2.225695,3.95829 -4.624613,3.95829 -1.784611,0 -3.590108,-0.9 -4.012219,-2 -0.422109,-1.1 -1.539085,-2 -2.482168,-2 -0.943083,0 -2.060059,0.9 -2.482168,2 -0.93123,2.42674 -5.367686,2.63364 -7.147593,0.33333 z"
       id="path1546" />
  </g>
</svg>
