<?xml version="1.0" encoding="UTF-8" standalone="no"?>
<!-- Created with Inkscape (http://www.inkscape.org/) -->

<svg
   version="1.1"
   id="svg12"
   width="158.66667"
   height="156"
   viewBox="0 0 158.66667 156"
   xmlns="http://www.w3.org/2000/svg"
   xmlns:svg="http://www.w3.org/2000/svg">
  <defs
     id="defs16" />
  <g
     id="g18">
    <path
       style="fill:#000000;stroke-width:1.33333"
       d="M 61.774052,147.0996 C 47.591326,142.20835 38.856959,133.5628 33.429231,119.04301 28.973049,107.12222 28.59937,103.23479 30.757138,91.244879 33.539271,75.785612 44.037853,63.385041 60.049365,56.645889 c 10.802503,-4.54671 19.867871,-5.42429 29.516169,-2.857334 29.539376,7.859033 45.939536,34.105476 37.953246,60.739505 -3.03279,10.11425 -8.83889,18.46513 -17.81035,25.61657 -10.595317,8.44585 -11.365924,8.73178 -25.708428,9.5389 -11.137923,0.62679 -13.820381,0.31494 -22.22595,-2.58393 z m 32.837013,-14.04097 c 3.751892,-2.3431 3.458792,-3.50962 -2.611063,-10.39196 -5.865659,-6.65081 -6.374236,-8.63984 -3.126683,-12.22835 2.787307,-3.07994 6.45144,-3.11356 9.47803,-0.087 4.590971,4.59097 10.484581,8.11345 12.003891,7.17446 3.50523,-2.16635 5.81932,-10.99222 4.89506,-18.669606 -0.98266,-8.162487 -3.75919,-16.189537 -5.59991,-16.189537 -0.63379,0 -3.71788,3 -6.85353,6.666666 -6.404267,7.488803 -9.38191,8.202827 -14.183582,3.401155 -3.976344,-3.976344 -3.190887,-6.931705 3.896695,-14.661711 2.652849,-2.893306 4.823362,-5.970513 4.823362,-6.83824 C 97.333335,68.306057 88.816105,66 78.000002,66 69.021144,66 66.656637,66.482672 63.056719,69.050405 l -4.276615,3.050406 6.609948,6.371144 c 6.99049,6.737934 7.918579,9.362273 4.514711,12.76614 -3.011698,3.011698 -7.714478,2.58159 -11.38961,-1.041674 C 55.196332,86.924441 50.374614,84 48.298706,84 c -2.113688,0 -4.298705,9.983729 -4.298705,19.64155 0,7.42217 0.565587,10.05119 2.76344,12.8453 1.519892,1.93224 3.169892,3.5098 3.666667,3.5057 0.496774,-0.004 3.750978,-2.7041 7.231564,-6 7.039023,-6.66552 10.507765,-7.43836 13.596057,-3.02921 2.992141,4.27188 2.637555,5.90208 -2.700786,12.41683 -8.129075,9.92046 -4.815994,12.95431 13.054121,11.95391 5.652752,-0.31645 11.502753,-1.3404 13.000001,-2.27545 z M 39.18401,35.022004 C 3.9158865,34.537084 5.0647477,35.054356 4.9652561,19.615095 4.9303869,14.204051 5.3343498,9.0770447 5.8629516,8.2217492 7.3341939,5.8412292 12.595728,6.3693455 16.279922,9.2673324 33.338214,22.685388 52.52774,23.580205 66.146345,11.59263 73.919404,4.7505092 79.493346,4.3758695 88.000002,10.123786 c 11.889509,8.033698 15.454868,9.06899 25.924618,7.527874 13.91631,-2.048436 18.8772,-3.634036 23.47548,-7.50323 4.82346,-4.0586824 12.42485,-4.7490511 14.35305,-1.3035639 0.67044,1.1980099 0.75961,4.2149499 0.19817,6.7043109 -0.56144,2.48936 -0.73446,6.759171 -0.3845,9.488467 0.39096,3.048955 -0.0688,5.903351 -1.19236,7.4028 -1.67676,2.237732 -3.9833,2.415656 -27.76822,2.142016 -14.26677,-0.164136 -27.139571,-0.334768 -28.606238,-0.379183 -1.466667,-0.04441 -7.766667,0.212839 -14,0.571672 -6.233334,0.358835 -24.60053,0.47001 -40.815992,0.247055 z"
       id="path1407" />
  </g>
</svg>
