<?xml version="1.0" encoding="UTF-8" standalone="no"?>
<!-- Created with Inkscape (http://www.inkscape.org/) -->

<svg
   version="1.1"
   id="svg22"
   width="92"
   height="165.33333"
   viewBox="0 0 92 165.33333"
   xmlns="http://www.w3.org/2000/svg"
   xmlns:svg="http://www.w3.org/2000/svg">
  <defs
     id="defs26" />
  <g
     id="g28">
    <path
       style="fill:#000000;stroke-width:1.33333"
       d="m 37.196121,159.06392 c -5.056748,-0.78175 -14.020133,-9.93095 -15.036398,-15.34812 -1.236991,-6.59372 1.056768,-16.70035 4.683098,-20.6344 1.736448,-1.88379 5.133286,-4.26671 7.548527,-5.29537 C 43.617103,113.85674 40.420361,108 29.049909,108 c -5.555292,0 -6.646668,-0.45268 -7.94119,-3.29385 -1.147554,-2.51861 -1.102402,-3.77386 0.191845,-5.333333 1.403821,-1.691503 5.767048,-2.039486 25.572328,-2.039486 23.427171,0 23.900388,0.05591 24.971083,2.950269 1.349078,3.64691 0.389792,7.71039 -2.040384,8.64293 -1.004507,0.38547 -4.963255,1.08469 -8.797218,1.55382 -7.849542,0.9605 -10.393165,4.53703 -4.770057,6.70706 5.481432,2.11536 12.735179,10.63282 14.279976,16.76777 1.153861,4.58239 1.056824,6.74083 -0.467008,10.38787 -2.843764,6.80609 -10.048896,12.48328 -18.009796,14.19059 -6.856468,1.47045 -8.404208,1.52574 -14.843367,0.53028 z M 53.832764,73.683348 C 42.661517,73.319564 39.940131,72.810485 38.059825,70.732771 c -1.648548,-1.821626 -1.92588,-3.181947 -1.010225,-4.95519 0.694179,-1.344337 1.582604,-7.355438 1.974279,-13.358002 0.391676,-6.002565 1.106942,-11.552565 1.589485,-12.333333 0.482541,-0.780769 3.324697,-1.41958 6.315901,-1.41958 h 5.438552 l -0.893016,9.854772 -0.893016,9.85477 3.709108,1.198239 C 56.330901,60.233477 59.35,60.5571 61,60.293607 c 2.92948,-0.467816 2.99952,-0.876507 2.979583,-17.386343 -0.0112,-9.298995 -0.46123,-17.581861 -1,-18.406367 -1.109142,-1.697373 -33.663736,-3.471515 -36.097716,-1.967232 -1.014886,0.627233 -1.628204,8.809816 -1.863906,24.867255 l -0.351294,23.932412 -3.747296,0.429677 c -7.323275,0.83971 -7.587921,-0.218773 -7.56562,-30.259603 0.01123,-15.126873 0.465334,-28.202755 1.009124,-29.057515 1.490124,-2.342264 60.897362,-3.2802213 64.004377,-1.01054 1.950316,1.42471 2.289429,3.973606 2.233644,16.788854 -0.03617,8.310021 -0.26372,16.309127 -0.50566,17.775794 -0.24194,1.466667 -0.03067,7.166667 0.469504,12.666666 0.859751,9.454114 0.74076,10.117819 -2.179775,12.158303 -4.111412,2.872512 -8.484396,3.381617 -24.552201,2.85838 z"
       id="path1268" />
  </g>
</svg>
