<?xml version="1.0" encoding="UTF-8" standalone="no"?>
<!-- Created with Inkscape (http://www.inkscape.org/) -->

<svg
   version="1.1"
   id="svg32"
   width="164"
   height="153.33333"
   viewBox="0 0 164 153.33333"
   xmlns="http://www.w3.org/2000/svg"
   xmlns:svg="http://www.w3.org/2000/svg">
  <defs
     id="defs36" />
  <g
     id="g38">
    <path
       style="fill:#000000;stroke-width:1.33333"
       d="m 77,146.55986 c -3.129375,-1.82269 -2.949203,-3.26368 1.066335,-8.52832 l 3.399668,-4.4572 -3.733002,-0.78018 C 75.679851,132.36505 68.9,131.44083 62.666667,130.74033 L 51.333333,129.46669 48,133.41204 c -4.289033,5.0765 -8.83672,5.18176 -11.001445,0.25462 -2.233172,-5.08292 -3.601763,-5.81136 -9.23207,-4.91382 C 19.596307,130.05528 12.95277,124.36047 16,118.66666 17.219159,116.38865 18.791764,116 26.790243,116 h 9.363085 l -0.409997,-5.66667 -0.409998,-5.66667 -8.301716,-0.39613 c -6.747518,-0.32197 -8.682064,-0.93916 -10.333333,-3.29668 -2.555028,-3.647809 -2.568695,-6.280384 -0.05127,-9.874525 1.66451,-2.37642 2.717135,-2.661188 6.599915,-1.785479 5.997328,1.352617 6.570965,0.566921 3.056588,-4.186528 -2.238999,-3.028406 -2.565261,-4.415774 -1.453948,-6.182621 1.148449,-1.825888 3.8516,-2.354108 13.619269,-2.661324 17.430143,-0.54822 20.284748,1.563867 14.762827,10.922828 l -2.768327,4.691962 3.768327,1.041098 c 2.072579,0.572604 9.142179,1.045516 15.710223,1.050917 l 11.941897,0.0099 1.258093,-4.358126 c 0.823232,-2.851758 2.314966,-4.623428 4.315663,-5.12557 4.220276,-1.059223 5.875789,0.303118 5.875789,4.835254 0,3.381846 0.599438,3.973348 4.83117,4.767226 5.31185,0.996509 24.83159,-0.0077 27.07267,-1.392731 0.92682,-0.572805 0.47249,-2.708227 -1.32641,-6.234356 -1.50484,-2.949725 -2.55037,-6.667074 -2.32341,-8.260774 0.37745,-2.650458 1.29584,-2.930886 10.76617,-3.287419 12.25984,-0.461551 13.68235,0.974475 9.07889,9.165217 l -2.93637,5.224565 h 3.33185 c 1.83251,0 4.97482,-0.624657 6.9829,-1.388128 5.0782,-1.930728 8.2645,1.146303 6.45397,6.232636 -0.95485,2.68246 -2.77469,3.992096 -7.42689,5.344715 -8.01138,2.329293 -9.63824,4.338383 -8.12119,10.029203 1.09201,4.0964 1.54559,4.40769 5.73456,3.93565 10.83069,-1.22047 11.18668,-1.11682 11.62368,3.3845 0.49664,5.11558 -3.47273,8.46142 -10.03827,8.46142 -3.73301,0 -4.36998,0.46997 -4.36998,3.22428 0,5.25839 -1.421,7.44239 -4.84232,7.44239 -2.17411,0 -3.61899,-1.03975 -4.43786,-3.1935 -1.55039,-4.07786 -2.95723,-4.49092 -11.25742,-3.30526 -3.73766,0.53391 -9.66457,1.01455 -13.17092,1.06809 -7.59787,0.116 -9.150848,2.40336 -5.11511,7.53396 4.07564,5.18135 1.97602,7.97365 -6.787008,9.02609 C 86.991333,148.33816 79.697551,148.13105 77,146.55986 Z m 6.333333,-33.22653 v -6 l -8.666666,-0.95251 c -23.661107,-2.60049 -25.667536,-2.66334 -26.822976,-0.84023 -1.501874,2.36974 -1.447708,7.96686 0.1008,10.41524 1.487465,2.35188 11.717776,3.78162 25.388842,3.54822 l 10,-0.17072 z m 41.999997,4.11878 c 4.01445,-0.77807 4.69267,-1.45521 4.85268,-4.84496 0.35083,-7.43233 -0.56093,-8.61193 -6.60919,-8.55065 -6.91636,0.0701 -26.411593,2.96158 -28.318535,4.20018 -0.77461,0.50312 -1.162894,3.01755 -0.862853,5.58761 0.410097,3.51279 1.256248,4.79572 3.408381,5.1678 3.650797,0.63118 21.418997,-0.37567 27.529517,-1.55998 z M 62.666667,41.337462 C 45.726272,38.395979 41.195644,37.330611 37.50018,35.419613 32.067064,32.610039 26.889336,32.801073 21.63444,36.004983 13.30202,41.085262 5.3333333,38.476411 5.3333333,30.668202 c 0,-4.718517 5.4072337,-9.334869 10.9341337,-9.334869 4.719694,0 8.100877,-1.691307 14.830549,-7.418409 7.540664,-6.417277 18.599788,-9.0040378 34.993701,-8.1851277 7.282888,0.3637954 15.641616,1.2778955 18.57495,2.0313334 2.933333,0.7534378 9.233333,2.3273803 14,3.4976493 7.170123,1.760345 20.445363,6.500853 39.729403,14.187134 1.6845,0.671414 4.79545,1.220753 6.9132,1.220753 8.18749,0 14.44489,4.947941 12.53888,9.91492 -1.46046,3.805873 -6.42546,3.666306 -17.84594,-0.501651 -13.46151,-4.912845 -14.58317,-4.957868 -21.88974,-0.878652 -9.29122,5.187232 -40.817346,8.676224 -55.445803,6.136179 z M 107,29.569407 c 5.99817,-2.459366 4.59258,-4.942025 -4.33333,-7.653906 -4.384695,-1.332161 -5.02041,-1.110609 -10.521057,3.666666 -3.219912,2.796475 -6.819912,5.155488 -8,5.242252 C 82.965527,30.911179 83.8,31.371723 86,31.847841 c 4.7625,1.030685 15.86805,-0.174231 21,-2.278434 z M 49.333333,27.953089 C 49.333333,24.449673 44.86296,20 41.343247,20 c -4.438792,0 -7.73095,3.162869 -5.080828,4.881295 6.078102,3.941247 13.070914,5.584626 13.070914,3.071794 z"
       id="path1129" />
  </g>
</svg>
