<?xml version="1.0" encoding="UTF-8" standalone="no"?>
<!-- Created with Inkscape (http://www.inkscape.org/) -->

<svg
   version="1.1"
   id="svg42"
   width="154.66667"
   height="169.33333"
   viewBox="0 0 154.66667 169.33333"
   xmlns="http://www.w3.org/2000/svg"
   xmlns:svg="http://www.w3.org/2000/svg">
  <defs
     id="defs46" />
  <g
     id="g48">
    <path
       style="fill:#000000;stroke-width:1.33333"
       d="m 135.37254,158.13313 c -7.91321,-8.39044 -9.12717,-12.70517 -10.29951,-36.60697 -0.58828,-11.99395 -1.54686,-23.64899 -2.13018,-25.900101 -0.62775,-2.422541 -3.63611,-6.275891 -7.37135,-9.441821 -5.32769,-4.51566 -7.60325,-5.504352 -14.6078,-6.346846 -5.847894,-0.703375 -8.780431,-0.525996 -9.934665,0.600913 -1.208222,1.179619 -1.687074,11.383347 -1.826184,38.913615 -0.103706,20.5231 -0.755333,38.39736 -1.448066,39.72056 -0.969236,1.85134 -2.545758,2.31228 -6.840483,2 l -5.580967,-0.40582 -0.183569,-38 c -0.100963,-20.9 -0.250963,-39.349995 -0.333334,-40.999995 -0.144342,-2.891397 -0.611068,-3 -12.892671,-3 -23.322763,0 -30.238032,-3.587636 -33.237367,-17.24352 -0.872971,-3.974607 -1.111251,-4.090366 -8.459,-4.109469 -10.023299,-0.02606 -14.109542,-2.16222 -14.6435483,-7.6552 -0.3051624,-3.13901 0.464338,-5.161206 2.885171,-7.582038 4.4268333,-4.426835 9.0980463,-5.397539 16.2874643,-3.384625 6.933173,1.941168 11.8828,7.112379 13.869496,14.490405 2.360684,8.766909 5.10666,10.151114 20.137712,10.151114 10.750651,0 13.569026,-0.42568 15.480451,-2.338127 2.063686,-2.064789 2.129219,-2.844151 0.560572,-6.666666 -0.976968,-2.380697 -2.032289,-6.12854 -2.345161,-8.32854 C 71.037691,36.001975 65.384839,23.49429 60.407543,19.333333 59.530337,18.6 58.427112,16.399298 57.955931,14.442886 56.542148,8.572648 60.636577,7.3167479 80.000002,7.6812249 c 9.166667,0.1725439 19.666667,0.7692376 23.333338,1.3259861 5.93156,0.9006521 6.71223,1.405612 7.07991,4.579518 0.29061,2.508703 -0.40049,4.002741 -2.32898,5.03484 -3.60625,1.930003 -7.35153,9.501493 -9.514217,19.233977 -0.960082,4.320549 -3.131103,9.897194 -4.824494,12.392545 -1.693389,2.495349 -3.07889,5.425204 -3.07889,6.510788 0,2.502512 5.371976,4.574453 11.860301,4.574453 8.54461,0 19.62733,5.428848 25.43826,12.460879 8.31459,10.061797 10.01165,16.992118 9.57321,39.094219 -0.43032,21.69317 1.27562,29.89023 7.7569,37.27199 4.99412,5.68799 5.20226,9.46292 0.61786,11.20591 -5.10429,1.94065 -5.88774,1.70033 -10.54066,-3.2332 z"
       id="path990" />
  </g>
</svg>
