<?xml version="1.0" encoding="UTF-8" standalone="no"?>
<!-- Created with Inkscape (http://www.inkscape.org/) -->

<svg
   version="1.1"
   id="svg52"
   width="164"
   height="158.66667"
   viewBox="0 0 164 158.66667"
   xmlns="http://www.w3.org/2000/svg"
   xmlns:svg="http://www.w3.org/2000/svg">
  <defs
     id="defs56" />
  <g
     id="g58">
    <path
       style="fill:#000000;stroke-width:1.33333"
       d="m 58.333333,151.0491 c -2.004964,-2.22758 -2.319982,-5.2984 -2.238468,-21.82075 0.126947,-25.73156 1.463528,-39.711789 3.946788,-41.282307 1.077091,-0.681197 11.36549,-1.247728 22.863108,-1.258957 17.350729,-0.01695 21.265259,0.340077 23.025189,2.100008 1.8336,1.833603 2.07193,6.117036 1.7619,31.666666 L 107.33333,150 93.333333,150.83859 c -7.7,0.46123 -18.2,1.28056 -23.333333,1.82075 -8.285905,0.87194 -9.595191,0.69124 -11.666667,-1.61024 z M 8.190668,44.318054 C 7.5195949,43.043125 6.5417879,36.491953 6.0177636,29.759894 4.9596355,16.166286 6.6066239,8.0369819 10.436736,7.9484643 c 1.226462,-0.028345 34.307683,-0.06978 73.513823,-0.092078 66.547721,-0.037848 71.397961,0.115464 73.000811,2.3074877 1.25487,1.716132 1.5449,6.308634 1.07772,17.065012 -0.57961,13.344994 -0.92152,14.931175 -3.66748,17.014551 -2.77629,2.10638 -8.93318,2.301524 -73.989543,2.345119 -66.075494,0.04428 -71.0452738,-0.11205 -72.181399,-2.270502 z m 44.576233,-8.87138 C 57.270685,32.292101 64.056987,20.373815 62.218313,18.847851 61.347547,18.125179 50.95958,17.480667 38.988259,17.406563 L 17.333333,17.272516 v 8.671673 c 0,7.908462 0.264036,8.729742 3,9.331468 11.08894,2.438806 29.060555,2.533568 32.433568,0.171017 z m 93.639229,-6.656328 c 0.27836,-5.398611 -0.14106,-8.223383 -1.33333,-8.979583 -0.95671,-0.606795 -9.00816,-1.112449 -17.89212,-1.123679 -15.76724,-0.01993 -16.24891,0.06707 -20.18661,3.64625 -5.13335,4.665967 -8.806802,10.495196 -7.975766,12.656373 0.483729,1.257979 6.433366,1.67696 23.813266,1.67696 H 146 Z M 72,33.125855 c 0,-0.847446 1.392513,-3.397446 3.094473,-5.666666 C 79.911419,21.036767 80.348467,20 78.238883,20 c -1.055172,0 -4.410019,3.3 -7.455216,7.333334 -5.495363,7.278556 -5.511499,7.333333 -2.160194,7.333333 1.85709,0 3.376527,-0.693365 3.376527,-1.540812 z m 18.265479,-3.459188 c 2.053986,-2.75 4.459028,-5.767362 5.344534,-6.705252 2.041116,-2.161855 0.780311,-5.694169 -1.693597,-4.744843 -1.024592,0.393174 -4.279569,4.255288 -7.233281,8.582478 -4.688755,6.869025 -5.039228,7.867617 -2.761283,7.867617 1.462161,0 4.250773,-2.197962 6.343627,-5 z"
       id="path835" />
  </g>
</svg>
