<?xml version="1.0" encoding="UTF-8" standalone="no"?>
<!-- Created with Inkscape (http://www.inkscape.org/) -->

<svg
   version="1.1"
   id="svg62"
   width="161.33333"
   height="158.66667"
   viewBox="0 0 161.33333 158.66667"
   xmlns="http://www.w3.org/2000/svg"
   xmlns:svg="http://www.w3.org/2000/svg">
  <defs
     id="defs66" />
  <g
     id="g68">
    <path
       style="fill:#000000;stroke-width:1.33333"
       d="m 9.4326805,149.78619 c -3.2871029,-2.30239 -3.1206466,-4.74896 0.9821905,-14.43631 5.825427,-13.7546 8.972762,-18.70185 12.714798,-19.9862 3.941405,-1.35278 4.316248,-1.10547 8.367533,5.52083 1.427739,2.33521 1.618196,2.34057 4.104988,0.11549 3.470635,-3.10537 7.986696,-2.95545 10.040573,0.33333 2.141497,3.42909 3.151001,3.35774 7.796299,-0.55102 4.011858,-3.37576 7.873862,-3.35337 10.708434,0.0621 1.348235,1.62452 1.868648,1.62643 3.710345,0.0136 4.394147,-3.84804 7.741393,-3.8405 11.326173,0.0255 l 3.396135,3.66258 3.129193,-2.93972 c 3.943784,-3.70499 8.232424,-3.75878 10.770563,-0.13508 l 1.964452,2.80465 3.018263,-3.47132 c 3.77756,-4.34456 4.82521,-4.33317 9.45544,0.10287 l 3.73065,3.57419 3.09491,-2.90752 c 3.95005,-3.71088 6.72999,-3.68333 9.33121,0.0925 l 2.06676,3 5.28685,-5.67945 c 8.03053,-8.62685 10.58069,-6.4817 17.6543,14.85047 4.03427,12.16627 4.14783,13.0309 2.02015,15.38195 -1.36115,1.50405 -3.30488,2.21639 -4.9056,1.79779 -2.63789,-0.68982 -7.86396,-9.19686 -7.86396,-12.80104 0,-1.03942 -0.80245,-2.55583 -1.78323,-3.3698 -1.36326,-1.13142 -2.51701,-0.69886 -4.89908,1.83674 -3.50225,3.72798 -7.31377,4.32072 -8.46652,1.31668 -1.0956,-2.85506 -5.24893,-2.47094 -7.20841,0.66667 -2.31212,3.70229 -5.18012,3.33444 -9.76735,-1.2528 l -3.91947,-3.91947 -2.05796,3.14084 c -3.260161,4.97564 -5.752212,5.13615 -9.951349,0.64096 l -3.801894,-4.06994 -2.152357,3.28492 c -3.207844,4.89578 -5.730432,5.2622 -9.348794,1.35792 l -3.205274,-3.45855 -3.565633,2.80472 c -4.668918,3.67257 -7.765149,3.54291 -10.911452,-0.45697 l -2.565654,-3.2617 -2.904369,3.92836 c -3.362516,4.54806 -7.44216,5.09038 -9.491202,1.26171 C 44.548396,137.2 43.002198,136 41.897336,136 c -1.104862,0 -3.296887,1.2 -4.87117,2.66667 -3.916268,3.64856 -5.801993,3.35523 -8.571595,-1.33333 -3.831668,-6.4865 -4.562625,-5.91096 -9.801602,7.71762 -2.234948,5.81395 -5.376645,7.42742 -9.2202885,4.73523 z M 52.192332,68.054856 C 41.891479,65.111035 38.028467,63.221063 32.154138,58.251204 28.234151,54.934776 26.833511,54.519597 21.487472,55.08938 18.102696,55.45013 13.694281,56.170453 11.690994,56.690099 8.5239449,57.511617 7.8580957,57.136765 6.5883236,53.817453 3.4290923,45.558906 13.303395,29.333334 21.488482,29.333334 c 2.861343,0 3.844851,0.635232 3.844851,2.483327 0,1.36583 1.8,4.748333 4,7.516673 2.2,2.76834 4,5.45752 4,5.975954 0,1.785802 6.560665,8.574492 7.438314,7.696844 0.483529,-0.483531 -0.03384,-1.792128 -1.149702,-2.907995 C 38.506078,48.98227 37.163351,44.903698 36.638106,41.034645 35.401567,31.926059 31.499183,24.350598 26.604487,21.556987 19.721528,17.628591 20.133038,13.094404 27.657878,9.9503253 33.290919,7.5966902 46.841618,7.3749519 49.066666,9.6000002 50.892178,11.425512 51.233632,16 49.544383,16 c -1.808235,0 -4.211051,9.744942 -4.211051,17.078479 0,7.138102 3.666547,15.329946 7.523987,16.810185 2.286932,0.877577 2.15102,-2.383391 -0.905532,-21.72671 -1.809397,-11.450731 -1.354357,-12.134696 8.048212,-12.097178 6.857298,0.02736 12,3.408859 12,7.890398 0,1.573583 -1.8,6.488981 -4,10.923108 -6.154092,12.403648 -5.317434,17.016406 4.948439,27.282281 2.571954,2.571953 2.890335,3.649334 1.723002,5.830518 -1.846024,3.449327 -10.546212,3.47401 -22.479108,0.06377 z M 87.716145,46.333334 C 86.024368,45.007614 85.461916,41.071988 84.966685,27.094621 84.55843,15.572027 84.835688,9.0309777 85.772045,8.0946199 c 1.918647,-1.9186464 9.82752,-1.821224 11.037124,0.1359567 0.531602,0.8601503 1.166094,9.5395314 1.409984,19.2875134 0.410397,16.403111 0.251438,17.826356 -2.133538,19.102756 -3.40456,1.822066 -5.781602,1.740408 -8.36947,-0.287512 z m 25.333335,0 c -1.69178,-1.32572 -2.25423,-5.261346 -2.74946,-19.238713 -0.40826,-11.522594 -0.131,-18.0636433 0.80536,-19.0000011 1.91864,-1.9186464 9.82752,-1.821224 11.03712,0.1359567 0.5316,0.8601503 1.1661,9.5395314 1.40999,19.2875134 0.41039,16.403111 0.25143,17.826356 -2.13354,19.102756 -3.40456,1.822066 -5.7816,1.740408 -8.36947,-0.287512 z m 26.66666,0 c -1.69177,-1.32572 -2.25422,-5.261346 -2.74945,-19.238713 -0.40827,-11.522594 -0.13107,-18.0636433 0.80536,-19.0000011 1.91864,-1.9186464 9.82751,-1.821224 11.03712,0.1359567 0.5316,0.8601503 1.16609,9.5395314 1.40999,19.2875134 0.41038,16.403111 0.25142,17.826356 -2.13355,19.102756 -3.40456,1.822066 -5.7816,1.740408 -8.36947,-0.287512 z"
       id="path696" />
  </g>
</svg>
