<?xml version="1.0" encoding="UTF-8" standalone="no"?>
<!-- Created with Inkscape (http://www.inkscape.org/) -->

<svg
   version="1.1"
   id="svg72"
   width="144"
   height="153.33333"
   viewBox="0 0 144 153.33333"
   xmlns="http://www.w3.org/2000/svg"
   xmlns:svg="http://www.w3.org/2000/svg">
  <defs
     id="defs76" />
  <g
     id="g78">
    <path
       style="fill:#000000;stroke-width:1.33333"
       d="m 122.81262,143.96694 c -4.6864,-2.21702 -11.16648,-5.81654 -14.40018,-7.99894 -7.19681,-4.85707 -10.547521,-4.95635 -18.446237,-0.54655 -8.992327,5.02037 -9.363224,4.87792 -34.63287,-13.30151 -1.466666,-1.05515 -6.525293,-4.81379 -11.241392,-8.35253 -4.716098,-3.53874 -10.901661,-8.09384 -13.745694,-10.12243 -2.844034,-2.0286 -6.485407,-4.929382 -8.091942,-6.446194 -1.606534,-1.516813 -5.41638,-4.232075 -8.466322,-6.033915 C 7.5101365,87.456055 5.9763204,84.899454 8.6819376,82.653992 11.097069,80.64961 13.370564,81.412809 33.03426,90.828918 c 9.002177,4.310761 16.830755,7.837747 17.396839,7.837747 0.566084,0 6.793217,2.998165 13.838073,6.662595 7.044856,3.66443 17.551319,8.69246 23.347692,11.17341 14.767516,6.32076 24.880746,10.92752 35.716466,16.26947 5.13334,2.53071 10.04048,4.59227 10.90476,4.58124 1.81092,-0.0231 5.76191,3.62026 5.76191,5.31328 0,1.95148 -4.07721,5.33339 -6.42857,5.33228 -1.23095,-5.7e-4 -6.07242,-1.81497 -10.75881,-4.032 z m 0,-74.666662 C 118.12622,67.083257 111.64614,63.483731 108.41244,61.301331 101.21563,56.444263 97.864919,56.344985 89.966203,60.754792 80.973876,65.775153 80.602979,65.632703 55.333333,47.453271 53.866667,46.398124 48.80804,42.639487 44.091941,39.100744 39.375843,35.562002 33.19028,31.006907 30.346247,28.978314 27.502213,26.949719 23.86084,24.048933 22.254305,22.532121 20.647771,21.015308 16.837925,18.300046 13.787983,16.498206 7.5101365,12.789391 5.9763204,10.232789 8.6819376,7.9873261 11.097069,5.9829449 13.370564,6.7461433 33.03426,16.162253 c 9.002177,4.310761 16.830755,7.837746 17.396839,7.837746 0.566084,0 6.793217,2.998168 13.838073,6.662595 7.044856,3.664428 17.551319,8.692465 23.347692,11.173416 14.767516,6.32076 24.880746,10.927513 35.716466,16.269469 5.13334,2.530708 10.04048,4.592264 10.90476,4.581237 1.81092,-0.02311 5.76191,3.620257 5.76191,5.313283 0,1.951481 -4.07721,5.333386 -6.42857,5.332281 -1.23095,-5.79e-4 -6.07242,-1.814979 -10.75881,-4.032002 z"
       id="path557" />
  </g>
</svg>
