<?xml version="1.0" encoding="UTF-8" standalone="no"?>
<!-- Created with Inkscape (http://www.inkscape.org/) -->

<svg
   version="1.1"
   id="svg82"
   width="160"
   height="158.66667"
   viewBox="0 0 160 158.66667"
   xmlns="http://www.w3.org/2000/svg"
   xmlns:svg="http://www.w3.org/2000/svg">
  <defs
     id="defs86" />
  <g
     id="g88">
    <path
       style="fill:#000000;stroke-width:1.33333"
       d="M 40.517343,152.35534 C 5.2492197,151.87042 6.3980809,152.3877 6.2985893,136.94843 c -0.034869,-5.41104 0.3690938,-10.53805 0.8976955,-11.39334 1.4712423,-2.38052 6.7327762,-1.85241 10.4169702,1.04558 17.058292,13.41805 36.247817,14.31287 49.866422,2.3253 7.773059,-6.84212 13.347,-7.21676 21.853656,-1.46885 11.889507,8.0337 15.454867,9.06899 25.924617,7.52788 13.91631,-2.04844 18.8772,-3.63404 23.47548,-7.50323 4.82346,-4.05869 12.42485,-4.74906 14.35305,-1.30357 0.67044,1.19801 0.75961,4.21495 0.19817,6.70431 -0.56144,2.48936 -0.73446,6.75917 -0.3845,9.48847 0.39096,3.04896 -0.0688,5.90336 -1.19236,7.4028 -1.67676,2.23773 -3.9833,2.41565 -27.76822,2.14201 -14.26676,-0.16413 -27.13957,-0.33476 -28.606237,-0.37917 -1.466666,-0.0444 -7.766666,0.21284 -14,0.57166 -6.233333,0.35884 -24.600529,0.47002 -40.81599,0.24706 z M 12,45.378154 C 6.3124217,44.703714 5.977422,44.430004 5.5663949,40.121573 4.6007533,29.999614 13.98942,16.48089 26.0341,10.650159 38.928888,4.4078997 62.102915,8.7608807 69.655749,18.843996 77.046293,28.710454 79.812592,40.282546 75.613655,43.767354 73.752525,45.311956 22.406163,46.612128 12,45.378154 Z m 135.80437,0.648447 c -0.45844,-0.458447 -15.4241,-1.142047 -33.25701,-1.519111 -17.832916,-0.377065 -32.901355,-0.980914 -33.485421,-1.341886 -1.722375,-1.064487 -1.216258,-9.13727 0.8887,-14.175142 2.79166,-6.681382 8.075254,-12.502534 15.06708,-16.600016 4.909201,-2.8769815 8.213821,-3.6697757 17.280441,-4.1456514 10.89255,-0.5717131 11.49152,-0.443801 21.12281,4.5108514 5.4518,2.804588 9.91236,5.594762 9.91236,6.200389 0,0.605627 1.55463,3.450348 3.45474,6.321603 1.9001,2.871255 3.94406,7.390081 4.54214,10.041837 0.90115,3.995592 0.59243,5.396799 -1.80245,8.181019 -1.58941,1.847804 -3.26493,2.984552 -3.72339,2.526107 z"
       id="path418" />
  </g>
</svg>
