<?xml version="1.0" encoding="UTF-8" standalone="no"?>
<!-- Created with Inkscape (http://www.inkscape.org/) -->

<svg
   version="1.1"
   id="svg92"
   width="98.666664"
   height="153.33333"
   viewBox="0 0 98.666664 153.33333"
   xmlns="http://www.w3.org/2000/svg"
   xmlns:svg="http://www.w3.org/2000/svg">
  <defs
     id="defs96" />
  <g
     id="g98">
    <path
       style="fill:#000000;stroke-width:1.33333"
       d="m 6.4439554,144.92014 c -2.9422262,-2.94222 -1.8361595,-38.14516 1.2752264,-40.58681 3.1078092,-2.43884 8.8681402,-2.03431 11.4359752,0.80312 1.965526,2.17188 2.126509,4.74509 1.334644,21.33333 -0.643075,13.4713 -1.365854,18.86355 -2.528475,18.86355 -0.895396,0 -3.404778,0.35536 -5.576406,0.78968 -2.6087956,0.52176 -4.6244451,0.1136 -5.9409646,-1.20287 z m 75.4775486,-2.81056 c -2.265901,-1.65502 -2.693222,-4.18688 -3.431829,-20.33333 -0.932466,-20.38435 -0.473138,-21.776252 7.186151,-21.776252 8.679285,0 8.990838,0.765122 8.990838,22.079912 v 19.31942 l -3.420133,1.30033 c -4.597759,1.74807 -6.268619,1.64234 -9.325027,-0.59008 z m -38.882329,-0.51781 c -1.184123,-0.75236 -1.523817,-6.06016 -1.246933,-19.48358 0.33931,-16.44986 0.66022,-18.65423 2.960823,-20.33831 2.630444,-1.925525 8.074914,-1.39498 10.550587,1.02812 1.652186,1.6171 2.052709,34.40753 0.45848,37.53533 -1.250509,2.45344 -9.550125,3.27436 -12.722957,1.25844 z M 40.666666,79.368113 c -2.933334,-1.806689 -6.309867,-3.303615 -7.503407,-3.326501 -1.193541,-0.02289 -2.934356,-0.962516 -3.868477,-2.088064 -2.243697,-2.703491 0.858843,-16.541612 3.950818,-17.621659 2.578346,-0.90063 8.087732,-5.766063 8.087732,-7.142413 0,-0.556793 -1.65,-1.202204 -3.666666,-1.434248 -2.696712,-0.31029 -3.785704,-1.263784 -4.116656,-3.604442 -0.247495,-1.7504 0.261646,-3.622362 1.131424,-4.159914 2.954222,-1.82581 27.279254,-1.467744 29.888188,0.439956 3.55716,2.601059 1.659034,7.569171 -2.891893,7.569171 h -3.475901 l 3.064782,3.262312 c 1.685632,1.794272 4.34022,3.444272 5.899087,3.666666 2.295814,0.327532 2.834301,1.324567 2.834301,5.247856 0,2.870806 1.025284,5.983155 2.517349,7.641656 2.06417,2.294424 2.214802,3.162704 0.83674,4.823165 -0.924334,1.113756 -2.26452,2.025011 -2.978188,2.025011 -0.713669,0 -2.890202,1.108809 -4.836741,2.46402 -3.282274,2.285173 -13.774154,5.544913 -17.796253,5.529149 -0.958598,-0.0038 -4.142906,-1.485032 -7.076239,-3.291721 z M 27.021361,25.032118 C 24.374466,21.722138 30.186746,13.175047 38.329686,8.4029668 44.997159,4.4955671 52.622904,3.9712024 59.582617,6.9415638 65.388144,9.4193262 72.236721,18.245356 71.729862,22.596197 L 71.333331,25.999999 49.85658,26.365451 C 33.697335,26.640418 28.043482,26.310291 27.021361,25.032118 Z"
       id="path279" />
  </g>
</svg>
