<?xml version="1.0" encoding="UTF-8" standalone="no"?>
<!-- Created with Inkscape (http://www.inkscape.org/) -->

<svg
   version="1.1"
   id="svg102"
   width="106.66667"
   height="157.33333"
   viewBox="0 0 106.66667 157.33333"
   xmlns="http://www.w3.org/2000/svg"
   xmlns:svg="http://www.w3.org/2000/svg">
  <defs
     id="defs106" />
  <g
     id="g108">
    <path
       style="fill:#000000;stroke-width:1.33333"
       d="m 9.8866047,149.14985 c -0.5155925,-0.83424 -1.0985519,-9.08424 -1.2954652,-18.33333 -0.44002,-20.66789 0.7071872,-23.53001 8.9863035,-22.41955 2.920202,0.39168 5.664787,1.06748 6.099078,1.50177 0.434292,0.43429 0.933813,8.89281 1.110049,18.7967 0.257479,14.46958 -0.06895,18.39646 -1.661643,19.98916 -2.327568,2.32756 -11.879869,2.66328 -13.2383223,0.46525 z m 39.4467303,0.54496 c -1.1,-0.41873 -2.395279,-1.36824 -2.878398,-2.11 -1.64971,-2.53293 -0.352268,-35.29867 1.485423,-37.51295 2.428171,-2.92576 10.156822,-2.66792 12.31737,0.41094 2.355337,3.35643 1.137333,34.89634 -1.468895,38.03666 -1.775665,2.13955 -5.6556,2.62183 -9.4555,1.17535 z m 38.666668,0 c -1.1,-0.41873 -2.395279,-1.36824 -2.878398,-2.11 -1.64971,-2.53293 -0.352268,-35.29867 1.485423,-37.51295 2.428171,-2.92576 10.156822,-2.66792 12.31737,0.41094 2.355342,3.35643 1.137332,34.89634 -1.468895,38.03666 -1.775665,2.13955 -5.6556,2.62183 -9.4555,1.17535 z M 30.496594,53.79945 C 29.263952,52.317155 28.538821,46.985991 28.274977,37.466117 27.7953,20.15861 29.596733,15.548078 38.615855,11 45.799191,7.3776542 49.615111,7.2781793 56.767816,10.526808 c 8.067015,3.66389 9.898853,8.582566 9.898853,26.579459 0,15.912913 -1.146231,18.893732 -7.265312,18.893732 -5.011021,0 -5.852003,-2.512799 -5.620014,-16.79221 0.157813,-9.713738 -0.290547,-14.073228 -1.611268,-15.666667 -2.451833,-2.958114 -4.865518,-2.780981 -8.003607,0.587363 -2.32576,2.496409 -2.524364,4.13129 -1.858229,15.296642 0.832392,13.952083 -0.165816,16.574872 -6.308238,16.574872 -2.020415,0 -4.496948,-0.990247 -5.503407,-2.200549 z"
       id="path140" />
  </g>
</svg>
