<?xml version="1.0" encoding="UTF-8" standalone="no"?>
<!-- Created with Inkscape (http://www.inkscape.org/) -->

<svg
   version="1.1"
   id="svg2"
   width="118.66667"
   height="160"
   viewBox="0 0 118.66667 160"
   xmlns="http://www.w3.org/2000/svg"
   xmlns:svg="http://www.w3.org/2000/svg">
  <defs
     id="defs6" />
  <g
     id="g8">
    <path
       style="fill:#000000;stroke-width:1.33333"
       d="m 35.799673,155.35523 c -0.453452,-0.45346 -7.043882,-0.94388 -14.645399,-1.08984 L 7.3333335,154 7.7435073,132 C 7.9691028,119.9 8.5691028,101.91286 9.0768407,92.028568 L 10,74.057135 14,72.872696 c 7.660249,-2.268275 7.994495,-2.723847 8.092945,-11.03052 C 22.262061,47.573103 25.469258,24.815945 28.083774,19.333333 32.909457,9.2139327 43.306205,4.6828249 57.204595,6.6419067 c 9.48065,1.3363681 13.078579,4.1497953 16.209532,12.6751603 0.81124,2.208946 1.953351,4.943505 2.538024,6.076797 0.584675,1.133291 0.503774,5.626953 -0.179778,9.985917 -0.819279,5.22448 -0.776575,8.948691 0.125306,10.928111 l 1.368134,3.002724 7.303639,-4.988641 c 8.443837,-5.767435 10.097217,-8.651947 10.097217,-17.615746 0,-4.989797 -0.775104,-7.422786 -3.333333,-10.46307 -3.940662,-4.68321 -4.152308,-6.3854325 -1,-8.0427342 3.402792,-1.7889917 15.729484,-3.2384456 18.922474,-2.2250296 3.30221,1.0480789 3.54158,4.2668598 0.56215,7.5590888 -3.08063,3.40406 -3.77534,22.381887 -0.89638,24.487033 1.10869,0.810691 2.32365,4.205306 2.69992,7.543591 0.56268,4.992024 0.21984,6.397929 -1.93108,7.918916 -5.18655,3.667596 -5.83013,9.557753 -5.0789,46.482768 0.63342,31.134358 1.00347,35.618688 3.38318,40.998438 4.92976,11.14453 4.5026,11.584 -12.559185,12.92093 -13.213287,1.03537 -15.855202,-2.05308 -9.617701,-11.24332 1.73313,-2.55356 3.483718,-6.74284 3.890195,-9.30951 0.406479,-2.56666 1.68422,-10.36666 2.839427,-17.33333 2.124813,-12.81404 2.779901,-36.492081 1.263436,-45.666667 -0.677088,-4.096365 -1.383121,-5 -3.906636,-5 -3.675991,0 -5.301484,2.202394 -4.753606,6.440695 0.220927,1.709048 -0.630393,4.247793 -1.891821,5.641656 -1.838827,2.031881 -1.970524,2.923465 -0.664309,4.497357 0.896057,1.079684 2.393826,4.540939 3.328376,7.691676 1.951796,6.580288 0.654342,12.028373 -4.182899,17.564233 -6.02588,6.89617 -20.292639,5.6321 -26.370579,-2.33649 -4.441129,-5.822616 -4.741422,-16.667601 -0.607055,-21.923596 1.620279,-2.059852 2.171532,-3.708684 1.333333,-3.988084 -0.785954,-0.261984 -1.429008,-2.167071 -1.429008,-4.233523 0,-2.897698 1.093698,-4.402485 4.781004,-6.578049 l 4.781003,-2.820861 -0.447669,-21.872863 c -0.430095,-21.014141 -0.574575,-22.007837 -3.68009,-25.31084 -2.476484,-2.633971 -4.539177,-3.437977 -8.820188,-3.437977 -12.790779,0 -16.906783,9.451969 -16.320735,37.478838 L 35.333334,70 l 6.825674,0.396967 6.825672,0.396968 0.227539,40.395615 c 0.177886,31.58084 -0.147759,40.70578 -1.49234,41.81705 -2.131346,1.76151 -10.799455,3.46937 -11.920206,2.34863 z m -5.502121,-13.98552 c 5.355841,-3.26559 6.708097,-7.92872 3.651865,-12.59312 -3.491716,-5.32903 -8.400584,-5.96222 -12.17792,-1.5708 -3.888672,4.52085 -3.966482,9.70516 -0.205744,13.70828 3.501282,3.72694 3.377209,3.72046 8.731799,0.45564 z m 2.913197,-40.57256 c 4.059433,-4.321066 3.209625,-8.69569 -2.314156,-11.912763 -4.398099,-2.561472 -4.467779,-2.560911 -8,0.06435 -3.941418,2.929386 -5.177458,8.122763 -2.931882,12.318663 2.107544,3.93798 9.346142,3.681 13.246038,-0.47025 z"
       id="path1222" />
  </g>
</svg>
