<?xml version="1.0" encoding="UTF-8" standalone="no"?>
<!-- Created with Inkscape (http://www.inkscape.org/) -->

<svg
   version="1.1"
   id="svg12"
   width="161.33333"
   height="154.66667"
   viewBox="0 0 161.33333 154.66667"
   xmlns="http://www.w3.org/2000/svg"
   xmlns:svg="http://www.w3.org/2000/svg">
  <defs
     id="defs16" />
  <g
     id="g18">
    <path
       style="fill:#000000;stroke-width:1.33333"
       d="m 47.268106,146.7791 c -6.497311,-1.06768 -14.096241,-5.28974 -15.932155,-8.85208 -3.045876,-5.91013 -3.269808,-6.0297 -7.345406,-3.92212 -4.991641,2.58128 -11.944572,2.54561 -15.6938702,-0.0805 -4.1185338,-2.8847 -3.9396394,-9.09311 0.3699917,-12.84029 4.3299665,-3.76486 4.2029005,-5.32878 -0.6666667,-8.20531 -2.6591879,-1.57082 -3.9999999,-3.42481 -3.9999999,-5.53096 0,-4.54561 4.713787,-5.728 8.5327021,-2.14032 3.698519,3.47458 5.08401,3.49602 8.133964,0.12586 2.90227,-3.20698 10.672459,-3.64539 11.815501,-0.66667 1.20612,3.14309 -0.256358,5.41518 -4.796608,7.45193 -5.889959,2.64224 -5.908342,4.45639 -0.08097,7.99048 2.784141,1.68848 8.112747,6.20524 11.841344,10.03725 8.0501,8.27335 12.07901,9.25975 20.187891,4.94261 14.114795,-7.51469 33.24423,-7.20792 60.366176,0.96805 5.5,1.65799 14.95252,3.26759 21.0056,3.57689 8.91802,0.4557 11.25213,1.02303 12.30532,2.99091 2.68196,5.01128 -1.12402,5.79093 -23.65887,4.84651 -11.54196,-0.48372 -25.78539,-1.3415 -31.652049,-1.90616 -6.762291,-0.65087 -16.035184,-0.40975 -25.333333,0.65876 -15.988578,1.83732 -17.407521,1.86834 -25.398559,0.5552 z M 40.666666,96.656431 C 27.330075,94.196209 14.80353,90.933153 8.9158085,88.385607 4.4494223,86.453057 3.9343226,85.769406 4.6768255,82.759538 5.8893484,77.84436 6.2918404,77.607355 19.42877,74.072944 57.090743,63.94022 83.030834,63.718659 133.33333,73.100052 146.7467,75.601642 152,78.874276 152,84.728807 c 0,6.944442 -39.72248,13.88034 -78.666668,13.7359 C 60.385971,98.416681 45.845611,97.611799 40.666666,96.656431 Z M 102,87.282173 c 7.33333,-0.432456 16.02916,-1.455807 19.32405,-2.274113 l 5.99073,-1.487829 -3.99073,-1.130275 c -16.22907,-4.59649 -44.090753,-6.78122 -63.486543,-4.978196 -18.038367,1.676839 -26.596425,3.058027 -29.645452,4.784494 -2.058873,1.165806 -1.107106,1.670252 5.665246,3.002631 4.476921,0.88078 13.990495,1.924193 21.141276,2.318694 7.150782,0.394503 13.275524,0.988538 13.610538,1.320078 0.335014,0.33154 4.535014,0.2941 9.333333,-0.0832 C 84.740768,88.377157 94.666665,87.714629 102,87.282173 Z M 5.2678359,46.066668 c -2.2665709,-2.26448 -1.3439778,-5.813227 2.2453089,-8.636561 2.9500752,-2.320529 5.3950132,-2.76344 15.2546442,-2.76344 6.457824,0 12.112318,0.6 12.565544,1.333334 0.453225,0.733333 2.708634,1.333333 5.012022,1.333333 7.867836,0 1.579679,-3.06954 -7.968466,-3.889777 -8.986864,-0.772019 -9.043556,-0.801964 -9.043556,-4.77689 v -4 l 10,-0.231145 c 13.861982,-0.320413 17.963074,0.477939 22.630683,4.405472 3.951852,3.325265 4.363897,3.382148 18.372581,2.536327 7.881537,-0.475874 26.030063,-1.280447 40.330063,-1.787939 l 26,-0.922715 0.0261,-8.888837 c 0.0203,-6.882375 0.60644,-9.530118 2.5971,-11.7297781 3.37447,-3.7287539 8.78334,-3.1200683 10.94148,1.2312966 1.89847,3.8278095 1.24128,31.7813675 -0.79505,33.8177005 -1.14649,1.146448 -63.718917,1.351425 -84.769665,0.277692 -4.901502,-0.250011 -10.323873,0.411431 -13.999999,1.707771 -6.834907,2.410245 -47.1671571,3.21377 -49.3988301,0.984156 z"
       id="path1083" />
  </g>
</svg>
