<?xml version="1.0" encoding="UTF-8" standalone="no"?>
<!-- Created with Inkscape (http://www.inkscape.org/) -->

<svg
   version="1.1"
   id="svg22"
   width="162.66667"
   height="156"
   viewBox="0 0 162.66667 156"
   xmlns="http://www.w3.org/2000/svg"
   xmlns:svg="http://www.w3.org/2000/svg">
  <defs
     id="defs26" />
  <g
     id="g28">
    <path
       style="fill:#000000;stroke-width:1.33333"
       d="m 6.1441268,149.69968 c -2.4888554,-2.48885 -0.3391364,-7.09273 5.5225402,-11.82719 3.483333,-2.81346 6.633333,-5.44399 7,-5.84561 4.349061,-4.76358 16.25642,-12.86612 22.928639,-15.60214 l 8.404695,-3.44644 49.333334,-0.22503 c 27.133335,-0.12376 50.833335,0.14929 52.666665,0.60678 2.74555,0.68513 3.33334,1.6378 3.33334,5.40255 v 4.57073 L 138.84292,124 c -9.06972,0.36667 -24.36972,0.36667 -33.99999,0 -9.630279,-0.36667 -26.209595,-0.36667 -36.842929,0 -18.242049,0.62904 -19.834989,0.90434 -28.220731,4.87725 -4.888068,2.31583 -9.591243,5.52574 -10.451499,7.13314 l -1.564101,2.92256 63.658724,-0.43603 c 58.370886,-0.3998 63.775706,-0.25057 65.066966,1.79651 0.9518,1.50892 0.98215,3.44376 0.0936,5.96954 L 155.26836,150 81.11164,150.25524 C 40.325445,150.39561 6.5900631,150.14561 6.1441268,149.69968 Z M 147.70904,106.58358 c -1.26004,-0.73443 -3.23852,-3.33214 -4.39662,-5.77268 C 140.96748,95.869335 127.54678,82.144491 119.33334,76.288416 103.15702,64.75492 84.992834,58.562651 56.000001,54.697743 31.247837,51.39814 16.05633,45.821808 9.5952114,37.663981 5.7695764,32.833723 5.3333334,31.376527 5.3333334,23.427883 c 0,-10.50236 2.0458134,-14.3564266 9.1240256,-17.1885655 5.986267,-2.3952292 14.734898,-1.193348 20.020194,2.750361 4.583204,3.4198325 11.301276,14.6815445 14.137827,23.6996765 2.631129,8.365044 3.966554,8.933337 20.325343,8.6495 22.687912,-0.393652 47.536337,2.485326 62.027617,7.186617 3.13409,1.016765 7.35428,2.227405 9.37821,2.690313 5.3828,1.231139 15.42172,8.945074 16.47216,12.657251 0.96712,3.417773 -0.35757,6.458264 -3.7446,8.594748 -2.02812,1.279305 -4.56749,0.30944 -17.67408,-6.75026 -2.16332,-1.165245 -5.76332,-2.559228 -8,-3.09774 -2.23668,-0.538511 -5.26669,-1.376997 -6.73336,-1.8633 -2.57879,-0.855049 -2.58312,-0.827159 -0.13164,0.846331 7.01148,4.78633 30.95442,26.201625 32.29056,28.881658 0.84273,1.690343 2.20173,3.74284 3.01998,4.561106 2.55424,2.554236 1.72962,8.633811 -1.47558,10.878811 -3.44011,2.40955 -3.62632,2.42798 -6.66095,0.65919 z M 34.666667,34.191736 c 0,-4.103105 -8.753353,-15.525069 -11.897816,-15.525069 -1.343283,0 -3.219016,0.935848 -4.168297,2.079662 -3.027924,3.648424 0.01027,8.544334 7.91728,12.758183 3.951475,2.105852 7.401475,3.828821 7.666667,3.828821 0.265192,0 0.482166,-1.413718 0.482166,-3.141597 z"
       id="path944" />
  </g>
</svg>
