<?xml version="1.0" encoding="UTF-8" standalone="no"?>
<!-- Created with Inkscape (http://www.inkscape.org/) -->

<svg
   version="1.1"
   id="svg32"
   width="154.66667"
   height="158.66667"
   viewBox="0 0 154.66667 158.66667"
   xmlns="http://www.w3.org/2000/svg"
   xmlns:svg="http://www.w3.org/2000/svg">
  <defs
     id="defs36" />
  <g
     id="g38">
    <path
       style="fill:#000000;stroke-width:1.33333"
       d="m 73.072586,152.20415 c -3.231132,-0.94915 -5.072585,-4.68637 -5.072585,-10.2948 0,-5.41613 -0.194348,-5.66457 -6.580508,-8.41183 -3.61928,-1.55696 -7.11981,-2.83085 -7.778957,-2.83085 -2.648912,0 -17.386393,-11.46345 -23.790035,-18.50492 -5.352406,-5.88553 -8.215717,-7.87853 -13.333334,-9.28067 -3.584442,-0.98208 -7.2807755,-2.01847 -8.2140751,-2.30309 -2.5847914,-0.78828 -3.4665682,-4.3728 -1.622333,-6.594968 4.6577491,-5.612244 19.8246841,-0.201664 32.8716091,11.726458 4.279532,3.91256 9.580966,8.33869 11.780966,9.83584 5.106286,3.47497 16.881533,7.44672 18.170198,6.12876 0.991426,-1.01397 1.451495,-11.61997 1.264304,-29.146047 -0.08739,-8.182106 -0.555968,-9.962707 -3.440933,-13.075638 -2.681067,-2.892917 -3.066272,-4.114693 -1.953088,-6.194696 0.762672,-1.425067 2.265566,-2.591031 3.339765,-2.591031 4.220678,0 1.647158,-2.483959 -3.469067,-3.34834 -3.897146,-0.658419 -5.827313,-1.805295 -6.862696,-4.077712 -1.944318,-4.267315 0.28648,-6.781231 7.028275,-7.92025 7.050646,-1.191198 7.191944,-4.653698 0.189909,-4.653698 -6.01324,0 -8.266666,-1.877183 -8.266666,-6.886422 0,-4.251783 3.14809,-6.446912 9.245678,-6.446912 6.974566,0 4.485527,-2.504401 -2.912345,-2.93032 -6.046091,-0.348093 -7.056833,-0.802459 -7.417055,-3.334233 -0.804572,-5.654838 1.96293,-8.402114 8.463967,-8.402114 3.274199,0 5.953088,-0.6 5.953088,-1.333333 0,-0.733334 -2.88,-1.333334 -6.4,-1.333334 -3.52,0 -7.12,-0.72 -8,-1.6 C 53.87303,16.006363 54.337519,10.936646 57.085188,9.4661379 58.415373,8.7542442 67.699723,7.7466788 77.717076,7.2271038 97.726551,6.1892625 100,6.8017101 100,13.229927 c 0,4.785059 -2.244975,6.741264 -7.933331,6.912863 -4.685827,0.141357 -4.673114,0.155856 1.266666,1.444633 6.893005,1.495603 9.772925,3.715587 8.642305,6.661923 -0.98371,2.563531 -6.345974,5.083988 -10.816153,5.083988 -4.723286,0 -3.314358,3.236969 1.610007,3.698941 8.984046,0.842827 9.897176,1.422191 9.897176,6.27955 0,5.120936 -1.57101,6.387947 -10.000001,8.064933 -3.055836,0.607974 -4.336928,1.29404 -3,1.606599 1.283333,0.300029 2.333333,1.101513 2.333333,1.781076 0,0.679563 2.118831,1.235568 4.708513,1.235568 5.441495,0 7.069285,2.500783 4.828685,7.41836 -1.20146,2.636908 -2.462402,3.248307 -6.699294,3.248307 -5.418871,0 -8.74148,3.353223 -4.815425,4.859791 2.631893,1.009952 2.515186,5.034135 -0.21163,7.297191 -1.906481,1.582238 -2.077066,3.970584 -1.321102,18.496593 1.178374,22.642717 1.341529,23.130587 7.362145,22.014447 5.754666,-1.06684 9.422226,-3.7846 23.481446,-17.40037 5.86666,-5.681623 12.86407,-11.786074 15.5498,-13.565446 5.34925,-3.544046 12.16969,-3.731048 12.8091,-0.351199 0.57375,3.032748 -38.02546,41.789835 -43.69224,43.870955 -8.774421,3.2224 -10.854495,4.59564 -10.171898,6.71536 0.365327,1.13448 1.032187,3.26268 1.481913,4.72935 1.549123,5.05206 -2.258813,7.85122 -11.765995,8.64898 -4.802701,0.403 -9.514846,0.50283 -10.471434,0.22183 z"
       id="path805" />
  </g>
</svg>
