<?xml version="1.0" encoding="UTF-8" standalone="no"?>
<!-- Created with Inkscape (http://www.inkscape.org/) -->

<svg
   version="1.1"
   id="svg42"
   width="162.66667"
   height="154.66667"
   viewBox="0 0 162.66667 154.66667"
   xmlns="http://www.w3.org/2000/svg"
   xmlns:svg="http://www.w3.org/2000/svg">
  <defs
     id="defs46" />
  <g
     id="g48">
    <path
       style="fill:#000000;stroke-width:1.33333"
       d="m 41.203709,146.53704 c -4.067571,-4.06757 -2.6308,-10.47064 4.784787,-21.32373 5.138038,-7.51978 7.251616,-9.40567 13.870025,-12.37583 14.943637,-6.70631 36.507177,-3.31109 45.179309,7.11357 8.721,10.48339 12.52848,25.06995 7.27747,27.88021 -1.29325,0.69213 -17.184039,1.32245 -35.31286,1.40072 -31.940679,0.1379 -33.04936,0.0544 -35.798731,-2.69494 z M 40.509077,88.318602 c -2.340187,-2.340187 -2.321484,-3.64905 0.08655,-6.057083 1.537094,-1.537093 2.985389,-1.646983 7.129225,-0.540929 6.363678,1.698562 9.14562,0.754096 11.225665,-3.811106 1.305124,-2.864436 1.242606,-3.696033 -0.344869,-4.58728 -1.06644,-0.598724 -3.43898,-2.404082 -5.272314,-4.011908 C 51.500001,67.702471 46.400001,64.657957 42.000001,62.544712 26.748011,55.219437 19.393568,45.24349 21.8957,35.274199 22.491203,32.90153 21.89153,30.656409 19.9244,27.89383 17.528287,24.528798 16.454562,24.035243 12.881956,24.656653 6.9604185,25.68663 4.8441136,23.929385 5.9487964,18.899796 6.6947624,15.503435 8.2637788,14.123827 15.091319,10.860941 26.429419,5.4424548 28.71217,4.9215253 33.783721,6.5952881 c 4.573808,1.5094926 11.429435,7.8635469 14.1032,13.0713789 1.060192,2.064993 2.742609,3 5.398087,3 2.121817,0 4.661359,0.75 5.643424,1.666667 2.667481,2.489844 12.976007,7.239485 19.404903,8.940787 3.116667,0.824774 5.666667,2.019414 5.666667,2.654753 0,1.366237 19.728428,14.713191 21.864358,14.791982 0.80794,0.0298 3.54631,1.829802 6.08528,4 5.35397,4.576343 13.5007,5.332775 20.18826,1.874503 6.28445,-3.249817 16.24397,-4.015039 18.40269,-1.41394 2.62111,3.158236 -0.76163,7.573236 -7.30893,9.539325 L 138,66.291757 l 7.0896,1.037783 c 10.87614,1.592057 13.60419,8.168346 7.37904,17.787967 -2.4423,3.774062 -6.88225,3.121063 -12.83478,-1.887655 -2.13324,-1.795009 -7.27356,-4.854973 -11.42291,-6.799918 -6.65978,-3.12167 -9.34197,-3.562302 -22.87761,-3.758352 -8.433338,-0.122148 -16.983338,-0.68827 -19.000005,-1.258046 -3.134615,-0.885633 -3.666667,-0.643858 -3.666667,1.666206 0,1.486188 -0.349169,3.612082 -0.775933,4.724209 -0.593507,1.546655 0.393533,2.120871 4.198299,2.442383 5.959747,0.503613 8.939487,4.009781 5.888367,6.92866 -2.903919,2.778057 -48.813773,3.798159 -51.468324,1.143608 z M 71.667275,74.932424 c -1.378936,-1.661517 -1.742247,-1.478829 -2.434039,1.22394 -1.117049,4.364211 0.132787,6.092922 2.281029,3.155018 1.399059,-1.913328 1.431391,-2.838603 0.15301,-4.378958 z"
       id="path666" />
  </g>
</svg>
