<?xml version="1.0" encoding="UTF-8" standalone="no"?>
<!-- Created with Inkscape (http://www.inkscape.org/) -->

<svg
   version="1.1"
   id="svg52"
   width="182.66667"
   height="70.666664"
   viewBox="0 0 182.66667 70.666664"
   xmlns="http://www.w3.org/2000/svg"
   xmlns:svg="http://www.w3.org/2000/svg">
  <defs
     id="defs56" />
  <g
     id="g58">
    <path
       style="fill:#000000;stroke-width:1.33333"
       d="M 53.333334,64.50018 C 37.676631,61.985008 20.652139,54.201243 17.362122,48.053789 16.602832,46.635044 13.585736,42.706053 10.657464,39.322699 5.355985,33.197319 3.7877163,27.545078 7.04305,26.29589 c 0.9403441,-0.360844 4.990344,-0.109222 9,0.559162 4.009656,0.668384 13.290284,1.13891 20.623617,1.045612 7.333334,-0.09329 28.519905,0.177355 47.081268,0.601448 l 33.747935,0.771078 4.91873,-5.076535 c 6.6794,-6.893689 10.86704,-8.532069 15.57055,-6.09186 5.30675,2.753178 6.81579,2.393159 10.21952,-2.438129 6.29161,-8.9303579 8.61572,-10.6969693 14.07261,-10.6969693 6.17446,0 16.38939,5.8693003 16.38939,9.4170203 0,3.768265 -3.59908,7.866082 -7.61883,8.674617 -2.04298,0.410924 -6.5503,2.959425 -10.01626,5.663337 -4.90266,3.824708 -6.46624,5.992161 -7.04258,9.762432 -1.73922,11.377608 -1.6011,11.216639 -13.63356,15.8887 l -6.97788,2.709434 -3.47018,-2.729643 -3.47018,-2.729643 -10.88526,5.380654 C 109.56504,59.965963 103.46667,62.718804 102,63.124028 98.612466,64.059968 57.780408,65.21458 53.333334,64.50018 Z"
       id="path527" />
  </g>
</svg>
