<?xml version="1.0" encoding="UTF-8" standalone="no"?>
<!-- Created with Inkscape (http://www.inkscape.org/) -->

<svg
   version="1.1"
   id="svg62"
   width="86.666664"
   height="160"
   viewBox="0 0 86.666664 160"
   xmlns="http://www.w3.org/2000/svg"
   xmlns:svg="http://www.w3.org/2000/svg">
  <defs
     id="defs66" />
  <g
     id="g68">
    <path
       style="fill:#000000;stroke-width:1.33333"
       d="m 15.666666,149.73243 c -1.968493,-2.20112 -2.33175,-5.3029 -2.323214,-19.83742 0.01093,-18.7054 1.886577,-38.991706 3.780082,-40.885211 2.002239,-2.002239 49.272115,-2.276256 50.916283,-0.295154 0.833226,1.003976 1.627142,13.018495 1.967024,29.767455 0.677994,33.41079 1.178303,32.18158 -13.102081,32.19063 -5.264286,0.004 -16.171428,0.38018 -24.238094,0.83742 -13.466795,0.76333 -14.857556,0.6179 -17,-1.77772 z M 33.999999,78.243519 C 23.177833,74.098239 18.031594,69.880636 13.773945,61.667249 11.449615,57.183407 9.1404673,50.253904 8.6425056,46.268353 7.3598192,36.002079 12.934609,23.272197 21.415393,17.101813 27.526288,12.655695 37.490979,9.3333333 44.715235,9.3333333 c 12.879049,0 26.010997,8.2771197 32.055007,20.2044017 8.461979,16.698913 -1.62752,39.470289 -20.460198,46.177404 -10.050956,3.57957 -17.393296,4.411672 -22.310045,2.52838 z"
       id="path388" />
  </g>
</svg>
