<?xml version="1.0" encoding="UTF-8" standalone="no"?>
<!-- Created with Inkscape (http://www.inkscape.org/) -->

<svg
   version="1.1"
   id="svg2"
   width="86.666664"
   height="160"
   viewBox="0 0 86.666664 160"
   xmlns="http://www.w3.org/2000/svg"
   xmlns:svg="http://www.w3.org/2000/svg">
  <defs
     id="defs6" />
  <g
     id="g8">
    <path
       style="fill:#000000;stroke-width:1.33333"
       d="m 15.666666,149.73243 c -1.968493,-2.20112 -2.33175,-5.3029 -2.323214,-19.83742 0.01093,-18.7054 1.886577,-38.991706 3.780082,-40.885211 2.002239,-2.002239 49.272115,-2.276256 50.916283,-0.295154 0.833226,1.003976 1.627142,13.018495 1.967024,29.767455 0.677994,33.41079 1.178303,32.18158 -13.102081,32.19063 -5.264286,0.004 -16.171428,0.38018 -24.238094,0.83742 -13.466795,0.76333 -14.857556,0.6179 -17,-1.77772 z M 31.004004,78.01386 C 19.100573,72.839981 6.6666665,57.284989 6.6666665,47.567509 c 0,-2.850425 0.9419567,-8.869197 2.0932372,-13.375049 C 10.505897,27.359035 12.084007,24.746939 18.272986,18.446359 26.53497,10.035394 31.729738,8 44.934368,8 c 8.650716,0 17.933339,4.00087 25.153794,10.841445 5.16479,4.893062 9.303752,17.773282 8.94261,27.828908 C 78.733331,54.952271 73.410167,66.294621 67.072677,72.150108 59.938959,78.741263 40.0984,81.96678 31.004004,78.01386 Z m 4.976159,-7.680527 c -0.03528,-2.964068 -8.538932,-11.549496 -12.313497,-12.431904 -6.840964,-1.599262 -2.617679,7.135623 5.53289,11.443502 5.734788,3.031049 6.806778,3.187312 6.780607,0.988402 z m 15.758373,-5.30936 c 0.238222,-1.227778 -2.096964,-3.885305 -5.666667,-6.448872 -3.339529,-2.398268 -6.07187,-4.722333 -6.07187,-5.164589 0,-0.442256 -2.1,-1.935027 -4.666667,-3.317268 -2.566666,-1.382241 -4.666666,-2.997052 -4.666666,-3.588469 0,-1.177799 -9.326836,-7.838108 -10.97618,-7.838108 -0.563101,0 -0.991472,1.35 -0.951935,3 0.04921,2.054045 2.466656,4.785573 7.666667,8.662769 4.177129,3.114523 10.894781,8.338617 14.928114,11.609099 7.517378,6.095566 9.69582,6.741536 10.405204,3.085438 z m 13.574378,-7.357306 c -0.0112,-1.283334 -0.461229,-2.933334 -1,-3.666667 -1.204231,-1.639108 -7.723986,-6.063977 -12.61118,-8.559036 -1.997377,-1.019721 -5.795233,-3.835853 -8.439678,-6.258071 -2.644445,-2.422217 -5.963464,-4.770736 -7.375597,-5.218929 -1.412133,-0.448193 -4.376321,-2.336908 -6.587087,-4.197144 -3.274015,-2.754904 -4.385567,-3.078495 -5.992805,-1.744607 -1.085278,0.900702 -1.973234,2.091476 -1.973234,2.646164 0,2.089315 30.531805,24.149484 37.999999,27.456168 5.307061,2.349803 6.003683,2.29646 5.979582,-0.457878 z M 69.982967,46.694223 C 71.094832,44.895187 68.299074,40 66.159737,40 65.199195,40 63.293898,38.763077 61.925743,37.251283 60.557589,35.739489 58.40347,34.773151 57.138814,35.103867 55.715109,35.476173 53.060914,33.85716 50.169302,30.852583 44.097845,24.543936 36.693431,18.666667 34.817004,18.666667 c -3.4747,0 -0.964268,4.605337 6.182995,11.342581 5.28463,4.981465 8.78241,7.241956 11.257727,7.275468 2.106842,0.02852 4.409526,1.217139 5.571331,2.875848 1.868318,2.667399 8.41555,7.529329 10.425585,7.741971 0.506721,0.0536 1.284468,-0.490135 1.728325,-1.208312 z m -3.71666,-19.574087 c 0.919486,-2.396141 -5.391692,-8.434837 -8.827987,-8.446847 -1.042258,-0.0036 -2.842258,-0.835654 -4,-1.848914 -3.290094,-2.879502 -8.104988,-3.994899 -8.104988,-1.877567 0,3.353417 4.163096,7.751433 10.422933,11.011091 7.459281,3.884237 9.383845,4.097062 10.510042,1.162237 z"
       id="path179" />
  </g>
</svg>
