<?xml version="1.0" encoding="UTF-8" standalone="no"?>
<!-- Created with Inkscape (http://www.inkscape.org/) -->

<svg
   version="1.1"
   id="svg72"
   width="100"
   height="80"
   viewBox="0 0 100 80"
   xmlns="http://www.w3.org/2000/svg"
   xmlns:svg="http://www.w3.org/2000/svg">
  <defs
     id="defs76" />
  <g
     id="g78">
    <path
       style="fill:#000000;stroke-width:1.33333"
       d="M 48.847439,68.709693 C 41.996156,65.804008 38.984821,63.413728 33.206957,56.294889 32.117821,54.952977 31.321789,55.208797 29.469811,57.495895 26.320829,61.384721 21.682693,60.164677 14.854151,53.6513 8.456436,47.548867 6.9905147,42.433393 7.7353496,28.809563 8.3014548,18.454889 8.4040483,18.192443 14.120263,12.476229 l 5.809561,-5.8095623 h 12.501704 c 11.639275,0 12.860427,0.2621414 17.701755,3.7999893 4.562208,3.333879 11.011336,13.434211 12.897838,20.200011 0.717106,2.571844 -3.731354,18.29726 -5.923034,20.938072 -4.031718,4.857922 7.902028,7.253037 21.55858,4.32683 13.840948,-2.965717 14.233928,-2.982445 15.131241,-0.644084 2.558528,6.667418 -9.826493,12.795956 -32.464575,16.0646 -3.197073,0.461616 -7.129041,-0.370508 -12.485894,-2.642392 z"
       id="path249" />
  </g>
</svg>
