<?xml version="1.0" encoding="UTF-8" standalone="no"?>
<!-- Created with Inkscape (http://www.inkscape.org/) -->

<svg
   version="1.1"
   id="svg82"
   width="173.33333"
   height="162.66667"
   viewBox="0 0 173.33333 162.66667"
   xmlns="http://www.w3.org/2000/svg"
   xmlns:svg="http://www.w3.org/2000/svg">
  <defs
     id="defs86" />
  <g
     id="g88">
    <path
       style="fill:#000000;stroke-width:1.33333"
       d="m 137.02588,157.91478 c -0.45915,-0.45916 -6.96957,-0.95032 -14.46759,-1.09148 -12.4411,-0.2342 -13.80399,-0.51451 -15.59149,-3.20664 -2.29549,-3.45719 -6.10202,-3.73235 -12.81729,-0.92654 -3.966108,1.65715 -6.439861,1.76834 -13.664642,0.61418 -4.852004,-0.77512 -10.996009,-2.34564 -13.653347,-3.49007 -2.862625,-1.23284 -9.721653,-2.23467 -16.831522,-2.45841 -6.6,-0.2077 -15.482478,-0.82472 -19.738841,-1.37115 -6.306206,-0.8096 -8.587281,-0.5366 -12.321964,1.47465 -4.370345,2.35359 -4.69198,2.35952 -6.927826,0.1276 -1.7677358,-1.76464 -2.5087496,-5.3069 -3.0113682,-14.39523 -0.748857,-13.5408 0.6267499,-16.42745 7.4459292,-15.62496 3.011579,0.35441 4.027339,1.47455 5.580297,6.15376 3.130488,9.43245 4.533535,9.82886 31.82324,8.99119 26.768426,-0.82168 52.743834,-2.62239 57.950824,-4.01738 2.49855,-0.66938 5.40001,0.082 10.38749,2.68984 3.8063,1.99025 7.34117,3.19802 7.85527,2.68392 0.5141,-0.5141 -0.11946,-1.52469 -1.40794,-2.24575 -4.9638,-2.77789 -7.59321,-6.74258 -6.1992,-9.34731 1.58812,-2.96743 5.10154,-3.18718 8.64258,-0.54056 1.71393,1.28102 4.25569,1.67726 7.5248,1.17306 8.82209,-1.36065 13.58037,0.36915 17.50513,6.36372 7.18215,10.96982 3.14675,23.40832 -8.62249,26.57745 -2.92567,0.7878 -6.0632,1.71779 -6.97231,2.06664 -0.9091,0.34887 -2.02858,0.25861 -2.48774,-0.20053 z M 36.666666,78.24352 C 25.8445,74.09824 20.698261,69.880637 16.440612,61.667251 14.116282,57.183408 11.807134,50.253905 11.309172,46.268354 10.026486,36.002079 15.601276,23.272198 24.08206,17.101814 30.192955,12.655695 40.157646,9.3333335 47.381902,9.3333335 c 12.879049,0 26.010998,8.2771205 32.055007,20.2044015 8.46198,16.698914 -1.62752,39.47029 -20.460198,46.177405 -10.050956,3.579571 -17.393296,4.411672 -22.310045,2.52838 z m 70.999994,-5.844424 c -1.96849,-2.201116 -2.33175,-5.302892 -2.32321,-19.837416 0.011,-18.705402 1.88658,-38.991709 3.78008,-40.885214 2.00224,-2.0022391 49.27212,-2.2762559 50.91628,-0.295154 0.83323,1.003977 1.62715,13.018498 1.96703,29.767452 0.678,33.410803 1.1783,32.181588 -13.10208,32.190635 -5.26428,0.0033 -16.17143,0.380172 -24.2381,0.837415 -13.46679,0.76334 -14.85755,0.617905 -17,-1.777718 z"
       id="path110" />
  </g>
</svg>
