<?xml version="1.0" encoding="UTF-8" standalone="no"?>
<!-- Created with Inkscape (http://www.inkscape.org/) -->

<svg
   version="1.1"
   id="svg12"
   width="173.33333"
   height="162.66667"
   viewBox="0 0 173.33333 162.66667"
   xmlns="http://www.w3.org/2000/svg"
   xmlns:svg="http://www.w3.org/2000/svg">
  <defs
     id="defs16" />
  <g
     id="g18">
    <path
       style="fill:#000000;stroke-width:1.33333"
       d="m 137.02588,157.91478 c -0.45915,-0.45916 -6.96957,-0.95032 -14.46759,-1.09148 -12.4411,-0.2342 -13.80399,-0.51451 -15.59149,-3.20664 -2.29549,-3.45719 -6.10202,-3.73235 -12.81729,-0.92654 -3.966108,1.65715 -6.439861,1.76834 -13.664642,0.61418 -4.852004,-0.77512 -10.996009,-2.34564 -13.653347,-3.49007 -2.862625,-1.23284 -9.721653,-2.23467 -16.831522,-2.45841 -6.6,-0.2077 -15.482478,-0.82472 -19.738841,-1.37115 -6.306206,-0.8096 -8.587281,-0.5366 -12.321964,1.47465 -4.370345,2.35359 -4.69198,2.35952 -6.927826,0.1276 -1.7677358,-1.76464 -2.5087496,-5.3069 -3.0113682,-14.39523 -0.748857,-13.5408 0.6267499,-16.42745 7.4459292,-15.62496 3.011579,0.35441 4.027339,1.47455 5.580297,6.15376 3.130488,9.43245 4.533535,9.82886 31.82324,8.99119 26.768426,-0.82168 52.743834,-2.62239 57.950824,-4.01738 2.49855,-0.66938 5.40001,0.082 10.38749,2.68984 3.8063,1.99025 7.34117,3.19802 7.85527,2.68392 0.5141,-0.5141 -0.11946,-1.52469 -1.40794,-2.24575 -4.9638,-2.77789 -7.59321,-6.74258 -6.1992,-9.34731 1.58812,-2.96743 5.10154,-3.18718 8.64258,-0.54056 1.71393,1.28102 4.25569,1.67726 7.5248,1.17306 8.82209,-1.36065 13.58037,0.36915 17.50513,6.36372 7.18215,10.96982 3.14675,23.40832 -8.62249,26.57745 -2.92567,0.7878 -6.0632,1.71779 -6.97231,2.06664 -0.9091,0.34887 -2.02858,0.25861 -2.48774,-0.20053 z M 33.670671,78.013862 C 21.76724,72.839983 9.3333332,57.284991 9.3333332,47.56751 c 0,-2.850425 0.9419568,-8.869197 2.0932368,-13.375049 1.745994,-6.833426 3.324104,-9.445522 9.513083,-15.746102 8.261984,-8.410965 13.456752,-10.4463588 26.661382,-10.4463588 8.650716,0 17.93334,4.0008698 25.153794,10.8414458 5.164791,4.893061 9.303752,17.773281 8.942611,27.828908 -0.297442,8.281918 -5.620605,19.624269 -11.958096,25.479755 -7.133717,6.591155 -26.974277,9.816673 -36.068673,5.863753 z M 38.64683,70.333335 C 38.61155,67.369267 30.107898,58.783839 26.333333,57.901431 c -6.840964,-1.599263 -2.617679,7.135622 5.53289,11.443501 5.734788,3.031049 6.806778,3.187312 6.780607,0.988403 z m 15.758373,-5.30936 c 0.238223,-1.227779 -2.096964,-3.885306 -5.666667,-6.448872 -3.339529,-2.398269 -6.07187,-4.722334 -6.07187,-5.16459 0,-0.442256 -2.1,-1.935027 -4.666667,-3.317268 -2.566666,-1.382241 -4.666666,-2.997052 -4.666666,-3.588469 0,-1.177799 -9.326836,-7.838109 -10.97618,-7.838109 -0.563101,0 -0.991472,1.35 -0.951935,3.000001 0.04921,2.054045 2.466656,4.785573 7.666667,8.662769 4.177129,3.114523 10.894781,8.338618 14.928114,11.609099 7.517379,6.095567 9.69582,6.741536 10.405204,3.085439 z m 13.574378,-7.357307 c -0.0112,-1.283334 -0.461229,-2.933334 -1,-3.666667 C 65.775351,52.360893 59.255595,47.936024 54.368402,45.440965 52.371024,44.421244 48.573168,41.605112 45.928723,39.182894 43.284278,36.760677 39.965259,34.412158 38.553126,33.963965 37.140993,33.515771 34.176805,31.627057 31.966039,29.766821 28.692023,27.011917 27.580471,26.688326 25.973234,28.022214 24.887956,28.922915 24,30.11369 24,30.668378 c 0,2.089315 30.531806,24.149484 37.999999,27.456169 5.307061,2.349802 6.003684,2.29646 5.979582,-0.457879 z m 4.670054,-10.972444 c 1.111865,-1.799036 -1.683894,-6.694223 -3.823231,-6.694223 -0.960541,0 -2.865839,-1.236923 -4.233993,-2.748718 -1.368155,-1.511793 -3.522274,-2.478132 -4.786929,-2.147416 -1.423706,0.372307 -4.0779,-1.246706 -6.969512,-4.251284 -6.071458,-6.308646 -13.475872,-12.185916 -15.352299,-12.185916 -3.4747,0 -0.964268,4.605337 6.182995,11.342582 5.28463,4.981465 8.78241,7.241956 11.257728,7.275468 2.106841,0.02852 4.409525,1.217138 5.57133,2.875848 1.868319,2.667399 8.415551,7.529329 10.425585,7.741971 0.506722,0.0536 1.284468,-0.490135 1.728326,-1.208312 z m -3.71666,-19.574087 c 0.919485,-2.396142 -5.391692,-8.434838 -8.827988,-8.446847 -1.042257,-0.0036 -2.842257,-0.835655 -4,-1.848915 -3.290093,-2.879501 -8.104988,-3.994899 -8.104988,-1.877567 0,3.353418 4.163096,7.751434 10.422933,11.011091 7.459281,3.884238 9.383845,4.097063 10.510043,1.162238 z m 38.733685,45.278959 c -1.96849,-2.201116 -2.33175,-5.302892 -2.32321,-19.837416 0.011,-18.705402 1.88658,-38.991709 3.78008,-40.885214 2.00224,-2.0022391 49.27212,-2.2762559 50.91628,-0.295154 0.83323,1.003977 1.62715,13.018498 1.96703,29.767452 0.678,33.410803 1.1783,32.181588 -13.10208,32.190635 -5.26428,0.0033 -16.17143,0.380172 -24.2381,0.837415 -13.46679,0.76334 -14.85755,0.617905 -17,-1.777718 z"
       id="path40" />
  </g>
</svg>
