<?xml version="1.0" encoding="UTF-8" standalone="no"?>
<!-- Created with Inkscape (http://www.inkscape.org/) -->

<svg
   version="1.1"
   id="svg2"
   width="172"
   height="160"
   viewBox="0 0 172 160"
   xmlns="http://www.w3.org/2000/svg"
   xmlns:svg="http://www.w3.org/2000/svg">
  <defs
     id="defs6" />
  <g
     id="g8">
    <path
       style="fill:#000000;stroke-width:1.33333"
       d="M 68,153.3266 C 43.273521,151.43351 25.832331,148.33904 17.713396,144.40459 10.091275,140.71089 10,140.59875 10,134.92725 v -5.7394 l 9.333333,-3.20398 c 5.133334,-1.76219 11.207898,-3.22945 13.499031,-3.26059 2.291135,-0.0311 6.791135,-1.01223 10,-2.18022 8.198681,-2.9842 37.962053,-4.03271 54.990391,-1.9372 15.271455,1.87931 44.371045,7.44009 49.865325,9.52902 8.27599,3.14652 11.3712,10.75853 5.31192,13.06351 -7.43525,2.8284 -22.46791,6.70668 -31,7.99769 -5.13333,0.77673 -13.83333,2.09563 -19.33333,2.93087 -13.860862,2.10494 -20.046382,2.319 -34.66667,1.19965 z m 40.66667,-15.24133 c 7.33333,-0.3518 14.83333,-1.10088 16.66666,-1.6646 2.87766,-0.88484 2.42199,-1.15851 -3.33333,-2.00188 -24.222941,-3.54962 -52.831755,-3.61977 -79.333333,-0.19455 l -7.333334,0.94781 5.333334,1.20978 c 6.212808,1.40926 36.662645,3.12022 47.333333,2.65962 4.033333,-0.1741 13.33333,-0.60438 20.66667,-0.95618 z m 47.53494,-25.88279 c -1.94422,-2.08863 -5.71721,-7.9883 -8.38441,-13.110381 -2.66721,-5.122078 -5.49357,-10.463195 -6.2808,-11.869151 -0.78723,-1.405955 -2.9634,-7.770692 -4.83593,-14.14386 -6.29419,-21.422256 -13.83002,-27.266564 -33.36714,-25.877385 -5.866663,0.417146 -16.066663,0.142013 -22.666663,-0.611408 -6.6,-0.753422 -13.36759,-1.02861 -15.039087,-0.61153 -1.766056,0.440675 -4.989853,3.807864 -7.696117,8.038436 -6.304754,9.855916 -13.369603,11.601103 -16.768139,4.142131 -1.164268,-2.555292 -1.019488,-4.172503 0.678203,-7.575604 2.819873,-5.652572 2.816292,-5.659047 -1.808087,-3.267687 -2.181608,1.128154 -7.550885,2.425824 -11.931725,2.883712 -7.405228,0.774 -8.439415,0.5282 -14.71141,-3.496528 -9.4788571,-6.082565 -9.7402345,-8.706668 -1.69832,-17.05032 7.49933,-7.780709 13.302802,-9.720553 19.485251,-6.51306 5.363532,2.782634 6.973749,1.704455 6.402379,-4.286945 -0.372188,-3.902751 0.243224,-5.907321 2.634032,-8.579782 4.504181,-5.0348063 9.515282,-3.6814332 13.867638,3.745303 4.625674,7.893114 10.550418,9.143816 24.333912,5.136847 8.33685,-2.423588 29.708623,-1.972301 36.811573,0.777313 2.14139,0.828951 6.60136,1.561538 9.91104,1.627971 5.42012,0.1088 6.48979,-0.413189 10.77323,-5.25718 9.09607,-10.2864083 15.08263,-11.7803341 19.59709,-4.890385 1.97118,3.008388 1.88975,3.57592 -1.29201,9.005172 -1.86767,3.186937 -4.33033,6.570066 -5.4726,7.518064 -2.40343,1.994664 -2.74503,6.160112 -0.61323,7.477637 3.04232,1.880255 17.08527,22.347916 17.91032,26.104376 0.57124,2.600863 0.13746,5.028877 -1.28684,7.202617 -3.75314,5.72802 -8.22054,3.893426 -12.81128,-5.26111 -1.54272,-3.076396 -2.03816,-3.383334 -2.40734,-1.491418 -0.25567,1.310196 0.17752,3.653312 0.96262,5.206924 0.78511,1.553614 2.36846,7.016175 3.51855,12.139027 1.15009,5.122853 4.46691,13.718924 7.37071,19.10238 5.6298,10.437284 6.58025,15.465614 3.17058,16.774024 -3.54662,1.36097 -4.68724,0.95308 -8.356,-2.9882 z"
       id="path1073" />
  </g>
</svg>
