<?xml version="1.0" encoding="UTF-8" standalone="no"?>
<!-- Created with Inkscape (http://www.inkscape.org/) -->

<svg
   version="1.1"
   id="svg12"
   width="162.66667"
   height="153.33333"
   viewBox="0 0 162.66667 153.33333"
   xmlns="http://www.w3.org/2000/svg"
   xmlns:svg="http://www.w3.org/2000/svg">
  <defs
     id="defs16" />
  <g
     id="g18">
    <path
       style="fill:#000000;stroke-width:1.33333"
       d="M 8.1094994,145.53793 C 5.9184527,141.44392 6.1831468,140.79549 13,133.55757 c 14.092795,-14.96329 29.052593,-23.70255 43.783926,-25.57783 13.552242,-1.72517 95.290314,-1.42031 97.549414,0.36384 2.15712,1.70362 2.15712,8.51494 0,9.91106 -0.91667,0.59328 -24.16667,1.07869 -51.66667,1.07869 H 52.666668 l -8.368546,4.48678 c -4.6027,2.46773 -8.996093,5.65937 -9.763096,7.09253 -1.374833,2.5689 -0.540148,2.60302 59.035213,2.41412 33.236371,-0.10539 61.179761,-0.14703 62.096431,-0.0925 2.12548,0.12637 2.2538,10.24551 0.14644,11.54793 -0.83613,0.51676 -23.78613,1.11987 -51.00001,1.34026 -27.213869,0.22038 -59.780491,0.78561 -72.370267,1.25608 -22.060028,0.82434 -22.9428473,0.75757 -24.3333336,-1.84058 z M 130,99.971843 C 121.93334,99.494883 110.23334,98.41755 104,97.57777 95.829265,96.476974 89.690107,96.44079 82.000002,97.448099 63.214607,99.908755 47.657406,100.29287 44.060997,98.384833 42.26121,97.429977 38.721891,93.952765 36.195842,90.657697 31.30611,84.279358 30.675425,84.114281 20.073982,86.437915 13.023975,87.983142 8.9777954,86.731813 5.9163853,82.059512 c -2.0620812,-3.147135 -2.0649052,-3.63425 -0.038995,-6.72618 1.2012461,-1.833334 2.9967854,-3.333334 3.9900871,-3.333334 0.9933026,0 2.4945786,-0.829682 3.3361716,-1.843738 1.213877,-1.462633 0.512681,-2.659996 -3.3922868,-5.792669 -3.4497502,-2.767486 -4.6655658,-4.618368 -4.0638163,-6.186503 1.3456612,-3.506736 5.0095791,-4.173904 9.3239291,-1.697807 3.695903,2.121156 4.334617,2.12555 9.72517,0.06688 C 34.651617,52.782515 38.671053,57.373953 30,62.49 c -2.566667,1.514371 -4.666667,3.374633 -4.666667,4.133919 0,0.759284 2.85,3.462121 6.333333,6.006303 3.483334,2.544183 8.296455,7.018459 10.695822,9.942835 6.174649,7.52573 11.646456,8.364722 21.373106,3.277138 7.091562,-3.709285 7.999659,-3.843897 24.812683,-3.67813 14.981863,0.147713 19.244383,0.706927 30.118393,3.951328 8.58128,2.560336 16.96707,4.009981 26,4.494601 13.26431,0.711636 13.33148,0.732597 12.97459,4.048673 -0.46571,4.327058 -3.79387,6.728703 -8.8961,6.419523 C 146.50199,100.95026 138.06667,100.4488 130,99.971843 Z M 10.604079,48.591252 C 9.3880646,47.126044 8.8881815,41.412492 8.9038912,29.158483 8.9252351,12.509647 9.0600803,11.667192 12.207342,8.5199303 14.012002,6.7152711 17.217768,5.110017 19.331268,4.9526991 25.352805,4.5044874 26.624158,8.5676475 26.647011,28.333333 26.66463,43.570696 26.390175,45.609824 24,47.999999 20.781886,51.218114 13.066787,51.558634 10.604079,48.591252 Z m 62.666668,0 c -1.216015,-1.465208 -1.715898,-7.17876 -1.700188,-19.432769 0.02134,-16.648836 0.156189,-17.491291 3.303452,-20.6385527 1.804659,-1.8046592 5.010425,-3.4099133 7.123925,-3.5672312 6.021536,-0.4482117 7.29289,3.6149484 7.315743,23.3806339 0.01762,15.237363 -0.256836,17.276491 -2.647011,19.666666 -3.218114,3.218115 -10.933213,3.558635 -13.395921,0.591253 z m 64.248893,-1.591253 c -1.63114,-3.067263 -2.477,-36.468464 -0.98336,-38.8310361 1.39596,-2.2080565 13.27583,-1.2047076 16.39595,1.3847678 2.86997,2.3818623 2.04096,36.5974163 -0.93223,38.4754513 -3.55226,2.243817 -13.1007,1.565166 -14.48036,-1.029183 z"
       id="path934" />
  </g>
</svg>
