<?xml version="1.0" encoding="UTF-8" standalone="no"?>
<!-- Created with Inkscape (http://www.inkscape.org/) -->

<svg
   version="1.1"
   id="svg22"
   width="162.66667"
   height="158.66667"
   viewBox="0 0 162.66667 158.66667"
   xmlns="http://www.w3.org/2000/svg"
   xmlns:svg="http://www.w3.org/2000/svg">
  <defs
     id="defs26" />
  <g
     id="g28">
    <path
       style="fill:#000000;stroke-width:1.33333"
       d="m 8.3457339,150.82531 c -2.245651,-1.48707 -2.7546758,-6.59991 -0.9181203,-9.22196 3.2183754,-4.59488 8.7029404,-5.97529 16.7356294,-4.21221 8.44189,1.8529 24.879829,3.23581 23.650439,1.9897 -0.469142,-0.47552 -3.769142,-0.89061 -7.333333,-0.92241 -8.912284,-0.0795 -15.813682,-3.48547 -15.813682,-7.80429 0,-3.29771 0.07417,-3.31783 10.666667,-2.89365 12.832356,0.51388 19.24363,2.02586 23.222345,5.47659 2.7334,2.37066 4.56798,2.52739 22.543271,1.92583 10.762245,-0.36016 24.66772,-1.21747 30.90105,-1.90512 6.23334,-0.68765 15.38334,-1.25197 20.33334,-1.25403 4.95,-0.002 9.03732,-0.15376 9.08292,-0.33709 0.0456,-0.18333 0.3493,-3.03333 0.67488,-6.33333 1.25314,-12.70158 1.89384,-14.61209 5.17641,-15.43597 4.23117,-1.06195 8.69273,1.51796 8.90535,5.14954 1.8096,30.90791 0.76394,35.27629 -8.0716,33.72044 -2.62238,-0.46177 -23.87552,-1.19361 -47.22921,-1.62632 -41.694779,-0.77251 -42.529745,-0.73607 -46.256209,2.01903 -3.49804,2.58621 -5.407881,2.79341 -24.409402,2.64814 -11.33794,-0.0867 -21.1752752,-0.52898 -21.8607451,-0.98289 z M 26.333334,54.559869 C 24.771442,53.650152 24,51.557522 24,48.230422 24,41.692868 20.871194,37.333334 16.179235,37.333334 c -5.493122,0 -8.4871454,-2.773715 -7.9602851,-7.374544 0.3457519,-3.019293 1.358695,-4.17854 4.4477171,-5.09012 7.42002,-2.189671 7.982837,-2.85295 8.399287,-9.898552 0.357704,-6.0517338 0.789884,-6.8913968 4.149933,-8.062716 3.167156,-1.1040768 4.349603,-0.7916301 7.600714,2.0083946 3.562076,3.0678444 4.697988,3.2822784 15.185669,2.8667074 9.628027,-0.381508 11.787177,-0.901086 14.333334,-3.4491705 5.8368,-5.8412193 11.777176,-3.1589673 14.961968,6.7557625 2.154514,6.70732 6.24634,8.637512 13.787457,6.503807 3.069901,-0.868608 15.597931,-2.29402 27.840061,-3.167583 24.6187,-1.756718 28.09409,-1.178677 30.46897,5.067735 4.25792,11.199163 -9.3931,14.409496 -47.1775,11.09481 l -15.783434,-1.384624 -3.431903,3.431901 c -1.887545,1.887547 -3.794611,5.66334 -4.237923,8.390652 -1.15606,7.112231 -6.106907,9.37915 -12.730509,5.829111 -3.583003,-1.920375 -5.908658,-2.301356 -9.333358,-1.52896 -2.508693,0.565801 -7.266467,0.723815 -10.572831,0.35114 -5.1054,-0.575453 -6.638613,-0.149971 -10.171387,2.822663 -4.519745,3.803113 -6.0623,4.133388 -9.621881,2.060121 z"
       id="path795" />
  </g>
</svg>
