<?xml version="1.0" encoding="UTF-8" standalone="no"?>
<!-- Created with Inkscape (http://www.inkscape.org/) -->

<svg
   version="1.1"
   id="svg32"
   width="170.66667"
   height="160"
   viewBox="0 0 170.66667 160"
   xmlns="http://www.w3.org/2000/svg"
   xmlns:svg="http://www.w3.org/2000/svg">
  <defs
     id="defs36" />
  <g
     id="g38">
    <path
       style="fill:#000000;stroke-width:1.33333"
       d="m 12.123863,147.95939 c -5.2194414,-7.20523 -5.5503038,-14.15235 -0.929845,-19.52395 2.895908,-3.3667 4.02642,-3.71586 12.11252,-3.74102 8.134727,-0.0253 9.201551,0.30101 12.139315,3.71327 2.228821,2.5888 3.220814,5.36075 3.220814,8.99999 0,2.89244 -0.530021,5.25899 -1.177825,5.25899 -0.647803,0 -1.475652,1.13889 -1.839663,2.53086 -0.959433,3.66888 -6.809394,7.03538 -13.544553,7.79454 -5.641932,0.63592 -6.00826,0.4512 -9.980763,-5.03268 z m 65.140191,1.08324 c -3.872687,-4.24006 -5.949866,-10.4968 -5.044898,-15.19592 0.765667,-3.97579 8.830707,-8.51338 15.131546,-8.51338 7.108828,0 12.060808,3.72641 14.130068,10.63299 1.38531,4.62373 1.24073,5.54336 -1.39908,8.89933 -7.478122,9.5069 -16.449503,11.14919 -22.817636,4.17698 z m 61.333336,0 c -3.87269,-4.24006 -5.94987,-10.4968 -5.04489,-15.19592 0.76566,-3.97579 8.8307,-8.51338 15.13153,-8.51338 7.08291,0 12.05952,3.72209 14.10503,10.54936 1.81437,6.05587 -0.37162,10.40575 -7.41772,14.7605 -6.55915,4.05377 -12.0917,3.52585 -16.77395,-1.60056 z M 86.220242,60.442461 c -0.48998,-0.489978 -16.850614,-0.760701 -36.356964,-0.601604 -30.33415,0.24741 -35.928926,-0.014 -38.664684,-1.806533 -8.6820464,-5.688695 1.807115,-17.96088 12.029484,-14.074343 4.685359,1.781371 22.860448,1.776588 26.192911,-0.0069 3.823328,-2.046143 3.050119,-4.160408 -3.169127,-8.665632 C 39.277198,30.234968 38.824243,26.928237 43.792517,17.333333 48.028109,9.1534083 51.956873,6.5355967 61.352468,5.6327991 66.431059,5.1448108 68.775757,5.8203965 76.031569,9.8623368 81.024635,12.643786 86.072571,16.696433 88.000002,19.470981 94.464411,28.776539 95.367717,29.333333 104,29.333333 h 8 v -4.042825 c 0,-6.319407 3.39312,-12.908195 7.82875,-15.201951 5.07732,-2.6255819 18.70839,-2.7355702 24.77704,-0.1999246 6.16545,2.5760936 9.56663,7.8759126 7.69315,11.9877466 -1.34436,2.950545 -1.70788,3.025518 -7.51744,1.550413 -3.35762,-0.852533 -6.82703,-2.272325 -7.7098,-3.155093 -2.75858,-2.75858 -10.11447,-1.972646 -11.84766,1.265856 -1.4952,2.793809 -1.36222,2.851346 4.95309,2.143029 12.82637,-1.438592 25.05447,4.336743 28.90694,13.652749 3.63897,8.799724 4.0168,15.167984 1.11291,18.758039 -2.5651,3.171213 -3.11935,3.251148 -25.3983,3.662952 l -22.77597,0.420992 -1.55871,-3.420992 c -1.75843,-3.859339 -3.36261,-4.223089 -7.16732,-1.625205 -1.96701,1.343086 -14.486601,6.204214 -15.978641,6.204214 -0.113809,0 -0.607819,-0.400892 -1.097797,-0.890872 z"
       id="path656" />
  </g>
</svg>
