<?xml version="1.0" encoding="UTF-8" standalone="no"?>
<!-- Created with Inkscape (http://www.inkscape.org/) -->

<svg
   version="1.1"
   id="svg42"
   width="165.33333"
   height="157.33333"
   viewBox="0 0 165.33333 157.33333"
   xmlns="http://www.w3.org/2000/svg"
   xmlns:svg="http://www.w3.org/2000/svg">
  <defs
     id="defs46" />
  <g
     id="g48">
    <path
       style="fill:#000000;stroke-width:1.33333"
       d="m 70.666665,149.33301 c -1.833333,-0.58696 -5.390734,-1.12701 -7.905336,-1.20011 -5.157518,-0.14993 -11.422343,-1.92824 -19.796998,-5.6195 -7.2653,-3.20231 -11.887528,-3.17238 -19.152059,0.124 -7.470948,3.39002 -8.158426,3.35444 -12.940941,-0.66978 -3.5948014,-3.02482 -3.8751437,-3.80085 -2.7678448,-7.66178 1.5070157,-5.25466 5.5358428,-8.4674 11.8930228,-9.48395 2.788821,-0.44595 8.000737,-3.2524 12.435677,-6.6962 8.295125,-6.4413 10.346976,-7.13005 23.986494,-8.05154 16.222725,-1.09602 33.5995,1.23774 48.91465,6.5694 7.7,2.6806 17.79949,6.07561 22.44331,7.54446 4.64382,1.46885 11.18318,4.12744 14.53192,5.90798 3.34873,1.78054 8.02578,3.23734 10.39342,3.23734 5.201,0 7.6387,2.58345 7.06103,7.48321 -0.65331,5.5412 -6.26853,6.89367 -15.67476,3.77539 -4.08188,-1.35319 -8.72089,-3.27573 -10.30895,-4.27235 -2.53531,-1.59106 -3.67328,-1.42006 -9.33333,1.40255 -8.0903,4.03456 -15.70545,5.88017 -28.445972,6.89417 -5.5,0.43775 -12.7,1.0182 -16,1.2899 -3.3,0.2717 -7.499999,0.0137 -9.333333,-0.57319 z M 109.5904,134.10925 c 1.43057,-2.09562 -1.24541,-4.42262 -5.86572,-5.10074 -3.15367,-0.46286 -5.121082,0.21511 -7.957111,2.74203 -6.058511,5.39815 -4.986668,6.58364 4.565761,5.04988 4.58333,-0.7359 8.74901,-1.94693 9.25707,-2.69117 z M 49.924212,129 c -1.250613,-4.06856 -1.317662,-4.10799 -5.290172,-3.11096 -4.155699,1.04302 -3.730442,3.67577 0.798144,4.94127 5.175595,1.44632 5.463192,1.32913 4.492028,-1.83031 z M 132,53.24509 C 124.3,52.671994 113.68196,51.477992 108.40435,50.591752 103.12674,49.705512 95.626742,49.357386 91.737682,49.818136 51.155455,54.626067 42.890302,53.681855 35.896519,43.438832 31.827642,37.479597 31.023442,37.198063 22.180797,38.637241 14.790805,39.839992 9.9873387,39.314821 6.9999999,36.977497 4.666404,35.151667 4.9202456,28.669351 7.4061283,26.606251 12.264904,22.573826 12.371364,20.108333 7.9062968,15.022902 L 3.6496861,10.174891 6.6392216,7.7541122 C 10.071897,4.9745 11.752414,4.7982714 16.740698,6.6948132 c 2.525186,0.9600737 4.850078,0.9025628 7.885511,-0.1950643 10.203621,-3.6896774 15.39862,2.868553 6.723629,8.4879931 -6.023373,3.90179 -6.019484,7.031096 0.0112,9.021405 2.747984,0.906916 6.756009,4.036674 9.666667,7.548435 8.587739,10.361265 13.251525,11.312617 23.250936,4.742888 3.447374,-2.264963 7.985232,-3.590045 14.981257,-4.374619 13.068783,-1.465604 25.605582,0.532167 46.740082,7.448147 7.22649,2.364772 13.31027,3.4453 18.86347,3.3503 12.90493,-0.220766 17.19584,6.531025 6.68927,10.52562 -2.04948,0.77921 -4.13727,1.331341 -4.63954,1.226956 C 146.41094,54.372488 139.7,53.818186 132,53.24509 Z"
       id="path517" />
  </g>
</svg>
