<?xml version="1.0" encoding="UTF-8" standalone="no"?>
<!-- Created with Inkscape (http://www.inkscape.org/) -->

<svg
   version="1.1"
   id="svg52"
   width="54.666668"
   height="162.66667"
   viewBox="0 0 54.666668 162.66667"
   xmlns="http://www.w3.org/2000/svg"
   xmlns:svg="http://www.w3.org/2000/svg">
  <defs
     id="defs56" />
  <g
     id="g58">
    <path
       style="fill:#000000;stroke-width:1.33333"
       d="m 10.666667,154.69736 c -1.5541573,-0.98053 -2.0996871,-4.86128 -2.4471845,-17.40862 -0.4319879,-15.59809 -0.3270367,-16.32836 3.0883785,-21.4894 5.940241,-8.97631 17.218509,-11.6392 27.367343,-6.46165 2.8796,1.46906 5.777645,3.71906 6.440101,5 2.262188,4.37422 4.29316,28.74522 3.092996,37.11495 C 47.953084,153.2325 42.136436,156 38.650842,156 c -4.318186,0 -5.496139,-4.40977 -4.608421,-17.25206 0.75296,-10.8928 0.58828,-12.11724 -1.974362,-14.67988 -2.223082,-2.22308 -3.33265,-2.50855 -5.416206,-1.39346 -3.551368,1.90063 -4.493767,6.53905 -3.569196,17.56732 1.026101,12.23934 -0.328964,15.76442 -6.049655,15.73767 -2.401484,-0.0112 -5.266335,-0.58824 -6.366335,-1.28223 z M 9.2738672,103.88889 C 8.3350297,102.13465 7.9492674,95.044846 8.2269555,84.648014 8.7241315,66.033401 10.100344,62.69068 19.110923,58.211639 c 6.71667,-3.338769 16.93297,-2.002305 22.419301,2.932824 3.556766,3.199422 4.050444,4.71886 5.387001,16.580081 1.466823,13.017257 0.453199,20.936047 -3.320653,25.942126 -1.877366,2.49036 -6.870907,2.01182 -9.516943,-0.91201 -2.010039,-2.22107 -2.20369,-4.139101 -1.396387,-13.830662 1.043137,-12.522716 0.34244,-16.281246 -3.409649,-18.289303 -1.982366,-1.06093 -3.142767,-0.765519 -5.243035,1.334749 -2.359773,2.359774 -2.697224,4.422912 -2.697224,16.490574 0,11.669452 -0.375452,14.133132 -2.438322,16.000002 -3.351237,3.03283 -7.834805,2.76667 -9.6211448,-0.57113 z M 9.3333336,53.364022 C 7.7791763,52.383496 7.2336466,48.502742 6.8861491,35.955407 6.4541612,20.357314 6.5591124,19.627047 9.9745281,14.466006 15.914768,5.4896964 27.193037,2.8268063 37.34187,8.0043551 c 2.8796,1.469062 5.777646,3.7190619 6.440102,4.9999999 2.262188,4.374215 4.29316,28.745214 3.092996,37.114959 -0.255218,1.779846 -6.071866,4.547354 -9.557459,4.547354 -4.318187,0 -5.496139,-4.409776 -4.608422,-17.252065 0.75296,-10.892801 0.58828,-12.117236 -1.974361,-14.679877 -2.223083,-2.223083 -3.332651,-2.50855 -5.416207,-1.393464 -3.551368,1.900634 -4.493766,6.539056 -3.569196,17.567331 1.026102,12.239324 -0.328964,15.764408 -6.049655,15.737657 -2.401484,-0.01123 -5.266334,-0.588232 -6.3663344,-1.282228 z"
       id="path378" />
  </g>
</svg>
