<?xml version="1.0" encoding="UTF-8" standalone="no"?>
<!-- Created with Inkscape (http://www.inkscape.org/) -->

<svg
   version="1.1"
   id="svg62"
   width="161.33333"
   height="156"
   viewBox="0 0 161.33333 156"
   xmlns="http://www.w3.org/2000/svg"
   xmlns:svg="http://www.w3.org/2000/svg">
  <defs
     id="defs66" />
  <g
     id="g68">
    <path
       style="fill:#000000;stroke-width:1.33333"
       d="m 46.666666,148.50088 c -2.566667,-1.12388 -7.457033,-4.76507 -10.867481,-8.09151 -5.901138,-5.75578 -6.481083,-6.00864 -12,-5.23212 -12.216261,1.71886 -16.7177563,0.75392 -18.5132014,-3.96846 -1.6724927,-4.39898 0.1082979,-7.69156 5.3297274,-9.85435 4.620739,-1.91397 5.390271,-5.87717 1.541154,-7.93715 -3.2824093,-1.7567 -4.5770494,-5.30443 -2.7423945,-7.51505 1.2026005,-1.44905 2.2390705,-1.38849 5.8699975,0.34298 4.031673,1.92257 4.782936,1.91647 8.767376,-0.0712 C 26.448665,104.97829 29.517518,104 30.871517,104 c 3.839701,0 2.965092,4.54879 -1.538184,8 -5.129986,3.93151 -5.049334,6.06286 0.333333,8.80887 3.946447,2.01331 8.02076,5.81171 16.806613,15.66846 3.710287,4.16252 6.877957,4.36395 14.464565,0.91974 7.877172,-3.57612 20.892312,-6.7304 27.770882,-6.7304 8.346728,0 29.928414,4.20684 42.513054,8.2869 4.33864,1.40664 9.31112,2.20046 11.04995,1.76404 4.17372,-1.04754 13.25635,1.46274 14.20119,3.92495 0.4109,1.07081 -0.21218,2.90621 -1.38463,4.07868 -1.84296,1.84295 -4.86077,2.01951 -22.27668,1.30333 -24.55177,-1.00961 -54.888529,-1.07966 -70.144945,-0.16197 -8.470971,0.50955 -12.511951,0.16563 -15.999999,-1.36172 z m 28.55327,-62.017692 c -0.515592,-0.834245 -1.098552,-9.084245 -1.295466,-18.333333 -0.44002,-20.667891 0.707188,-23.53001 8.986304,-22.419547 2.920202,0.391681 5.664787,1.067476 6.099077,1.501768 0.434292,0.434291 0.933814,8.892808 1.11005,18.796703 0.257478,14.469577 -0.06895,18.396461 -1.661643,19.989152 -2.327568,2.327568 -11.879869,2.663281 -13.238322,0.465257 z M 10.852976,84.333333 C 9.2218313,81.266071 8.3759798,47.864868 9.8696195,45.502296 11.265573,43.29424 23.145436,44.297589 26.265562,46.887064 c 2.869969,2.381863 2.040953,36.597417 -0.932229,38.475452 -3.552264,2.243817 -13.100704,1.565167 -14.480357,-1.029183 z M 138.76344,83.153521 C 136.35286,80.088969 136,77.790555 136,65.153521 136,52.444444 136.32724,50.339423 138.66666,48 c 3.58438,-3.584376 8.80023,-3.428164 11.12988,0.333333 2.55654,4.127854 2.31503,32.985751 -0.30245,36.139623 -2.71633,3.272985 -7.5896,2.673772 -10.73065,-1.319435 z M 62.666665,37.431015 C 60.833332,36.790153 56.513791,36.206005 53.067684,36.132907 49.621579,36.059813 40.321579,34.755125 32.401018,33.233612 10.696063,29.064161 2.5959422,24.637736 6.2039503,18.917856 8.2270348,15.710601 23.146254,11.138368 46.559118,6.5503708 62.427107,3.4408712 110.68121,4.5868624 121.46807,8.3293905 c 3.22589,1.1192324 10.96526,3.3856535 17.19859,5.0364905 12.91458,3.420298 16.32135,5.808454 14.6044,10.237703 -0.87466,2.256411 -3.70261,3.678699 -12.20476,6.138281 -19.36373,5.601722 -24.24338,6.697808 -31.0663,6.978227 -3.66667,0.150699 -15.066669,0.634476 -25.333335,1.07506 -10.266667,0.440585 -20.166666,0.276723 -22,-0.364137 z M 118,24.264112 c 5.86666,-0.635683 10.2062,-1.25516 9.6434,-1.376616 -0.56279,-0.121453 -6.86279,-1.507999 -14,-3.081205 -10.31887,-2.274519 -17.755822,-2.888974 -36.310068,-3 -21.180108,-0.126734 -41.485906,1.060718 -46.666666,2.729009 -3.663477,1.1797 2.71242,3.583019 14,5.277132 C 56.27008,26.553948 99.876363,26.2279 118,24.264112 Z"
       id="path239" />
  </g>
</svg>
