<?xml version="1.0" encoding="UTF-8" standalone="no"?>
<!-- Created with Inkscape (http://www.inkscape.org/) -->

<svg
   version="1.1"
   id="svg72"
   width="164"
   height="177.33333"
   viewBox="0 0 164 177.33333"
   xmlns="http://www.w3.org/2000/svg"
   xmlns:svg="http://www.w3.org/2000/svg">
  <defs
     id="defs76" />
  <g
     id="g78">
    <path
       style="fill:#000000;stroke-width:1.33333"
       d="m 8.3457337,169.49197 c -2.2456509,-1.48707 -2.7546757,-6.59991 -0.9181202,-9.22196 3.5319115,-5.04251 9.0009545,-6.15481 18.5135815,-3.76532 4.733765,1.18908 11.733537,2.16197 15.555048,2.16197 8.345822,0 8.107393,-1.27698 -0.274947,-1.47257 -10.058841,-0.23469 -15.762721,-2.23085 -16.666743,-5.83276 -1.37317,-5.47115 0.152555,-6.18895 11.219171,-5.27828 13.105403,1.07845 19.071715,2.60281 22.781953,5.82068 2.7334,2.37067 4.56798,2.5274 22.543271,1.92584 10.762245,-0.36016 24.667722,-1.21747 30.901052,-1.90512 6.23333,-0.68765 15.38333,-1.25196 20.33333,-1.25403 4.95,-0.003 9.03732,-0.15376 9.08292,-0.33709 0.0456,-0.18333 0.34931,-3.03333 0.67488,-6.33333 1.25315,-12.70158 1.89384,-14.61209 5.17642,-15.43597 4.23117,-1.06195 8.69273,1.51796 8.90534,5.14954 1.8096,30.90791 0.76395,35.27629 -8.0716,33.72044 -2.62237,-0.46177 -23.87552,-1.19361 -47.2292,-1.62632 -41.694781,-0.77251 -42.529746,-0.73607 -46.25621,2.01903 -3.49804,2.58621 -5.407881,2.79341 -24.409401,2.64814 -11.33794,-0.0867 -21.1752754,-0.52898 -21.8607453,-0.98289 z M 59.334693,112.22435 c -0.242853,-0.24328 -11.369548,-0.54328 -24.725989,-0.66667 -22.919922,-0.21174 -24.387003,-0.37886 -26.1097903,-2.97422 -1.5457848,-2.32871 -1.5442224,-3.13435 0.010202,-5.26015 1.6043883,-2.19413 3.3850593,-2.46557 14.1392583,-2.15534 15.352138,0.44287 15.473163,-1.302085 0.451336,-6.507368 C 7.8543159,89.377852 6.6666667,88.599345 6.6666667,83.888721 c 0,-3.210464 0.8119098,-4.358836 4.0419473,-5.716964 l 4.041947,-1.699512 -4.090702,-5.14748 C 8.4099723,68.493651 6.8910959,65.338323 7.284578,64.312925 7.6780601,63.287528 8,62.197637 8,61.89095 c 0,-1.586584 6.282065,-0.202082 10.509288,2.316138 6.375508,3.797985 14.824045,11.867356 14.824045,14.158745 0,1.003554 -0.962869,2.787511 -2.139709,3.964351 -1.964057,1.964057 -1.608327,2.279776 4.333333,3.845918 10.51228,2.770898 12.706506,2.32972 20.192124,-4.059888 14.71758,-12.562698 37.133298,-14.503085 52.634169,-4.556205 3.60671,2.314423 7.26508,4.915467 8.12972,5.7801 3.5121,3.512101 6.82077,4.459673 9.87134,2.827057 l 2.97715,-1.593321 -3.99906,-2.362305 c -5.16803,-3.052828 -5.32372,-7.703567 -0.36663,-10.95158 1.99784,-1.309036 4.77892,-3.448176 6.18018,-4.753647 2.85638,-2.661122 9.4042,-4.481058 11.48818,-3.193086 1.93827,1.197913 1.69116,4.962325 -0.53429,8.139616 -2.34649,3.350082 -1.47763,4.711702 4.90016,7.679184 4.00367,1.862839 5,3.057882 5,5.997194 0,4.120864 -2.13763,6.870777 -5.34096,6.870777 -1.17753,0 -4.17409,1.5 -6.65904,3.333334 l -4.51808,3.333333 h 5.29569 c 6.53755,0 11.22239,3.078605 11.22239,7.374695 0,3.91216 -5.96289,7.46312 -10,5.9551 -1.46667,-0.54786 -3.01996,-0.79555 -3.45175,-0.55042 -0.4318,0.24513 -8.5318,0.42164 -18,0.39226 -9.4682,-0.0294 -21.414917,0.0613 -26.54825,0.20156 -19.477305,0.53211 -34.239855,0.61068 -34.665307,0.18449 z M 5,45.91115 C 2.0698044,42.915723 4.5277125,38.518819 14.354587,29.17691 20.049611,23.762942 26.499611,18.434289 28.68792,17.335458 c 2.188311,-1.09883 4.348025,-2.50363 4.799365,-3.121777 0.45134,-0.618147 4.95134,-2.2505 10,-3.627452 8.175476,-2.2297492 14.554598,-2.5123822 58.328605,-2.5843049 35.23639,-0.057895 49.67312,0.3540487 51,1.4552536 2.58699,2.1470113 2.30528,5.7182043 -0.66298,8.4044433 -2.26484,2.049653 -7.513,2.301167 -53.000002,2.539983 l -50.486241,0.265062 -8.843431,4.20732 c -9.559173,4.54784 -11.872633,6.759317 -8.994056,8.597573 1.805468,1.15297 28.784213,0.886522 90.17681,-0.890608 C 154.28179,31.617719 156,31.890301 156,38.132522 c 0,1.93456 -1.37312,4.03904 -3.578,5.483735 -3.2768,2.147041 -9.59048,2.385342 -75.000004,2.830777 C 38.139897,46.714542 5.55,46.473394 5,45.91115 Z"
       id="path100" />
  </g>
</svg>
