<?xml version="1.0" encoding="UTF-8" standalone="no"?>
<!-- Created with Inkscape (http://www.inkscape.org/) -->

<svg
   version="1.1"
   id="svg2"
   width="157.33333"
   height="150.66667"
   viewBox="0 0 157.33333 150.66667"
   xmlns="http://www.w3.org/2000/svg"
   xmlns:svg="http://www.w3.org/2000/svg">
  <defs
     id="defs6" />
  <g
     id="g8">
    <path
       style="fill:#000000;stroke-width:1.33333"
       d="m 70.666665,145.79724 c -5.813686,-1.9153 -8.447221,-4.25124 -10.978962,-9.73826 -3.173038,-6.87691 -3.895498,-21.26213 -1.229186,-24.47484 0.893851,-1.07703 4.896111,-3.37406 8.893911,-5.10452 5.645186,-2.44353 7.273809,-3.80541 7.291482,-6.09726 0.02129,-2.761849 -0.535361,-2.941458 -8.685893,-2.80257 -9.117572,0.155368 -12.480679,-1.761321 -12.582281,-7.170849 -0.09932,-5.288003 4.741137,-6.408939 27.67526,-6.408939 23.013244,0 26.962294,0.837891 26.928584,5.713579 -0.0365,5.27742 -2.17639,6.88004 -10.146406,7.598869 -8.449588,0.762082 -10.186901,2.674648 -5.713959,6.29036 14.564425,11.77318 17.087755,16.29654 14.484355,25.96485 -3.36297,12.4891 -10.184213,17.16228 -24.805077,16.99374 -5.022505,-0.0579 -10.031828,-0.40176 -11.131828,-0.76416 z M 55.291307,39.27135 C 50.134859,38.330945 42.355654,36.310179 38.004185,34.780761 28.614895,31.480691 25.92605,31.359615 20.84759,34.008215 15.887853,36.594897 8.7874391,36.555375 6.6077039,33.928955 4.1075284,30.916427 4.4716903,23.927607 7.2340878,21.907692 8.5239474,20.964524 11.948083,19.792635 14.843277,19.303495 17.738472,18.814355 23.209788,16.326307 27.001758,13.7745 30.793727,11.222693 37.477254,7.895569 41.854036,6.380892 48.911535,3.9384978 51.63239,3.7298225 65.904057,4.5363804 84.594414,5.5926589 96.775566,8.4237565 115.33333,16.024546 c 12.19847,4.996184 22.67952,8.437325 31.33333,10.287364 4.66764,0.997863 6.66667,2.872359 6.66667,6.251351 0,5.405249 -5.84951,7.876764 -11.68476,4.937004 -9.42268,-4.74708 -14.09681,-6.833598 -15.30834,-6.833598 -0.77428,0 -4.46758,1.488515 -8.20734,3.307811 -14.06455,6.842039 -41.629317,9.165454 -62.841583,5.296872 z m 44.764113,-9.374876 c 5.08667,-1.15694 9.56217,-2.61106 9.94555,-3.231377 1.14364,-1.850455 -6.78234,-6.669338 -10.873465,-6.610909 -2.215634,0.03164 -5.714754,1.695816 -8.410475,4.000001 -2.538965,2.170196 -5.324772,3.945812 -6.190681,3.945812 -0.865909,0 -1.919743,0.9 -2.341852,2 -1.036199,2.70029 5.715442,2.661177 17.870923,-0.103534 z M 47.614052,23.399107 c -3.154637,-6.351501 -6.348428,-7.593492 -10.923702,-4.247969 -2.385303,1.744176 -2.355121,1.900297 0.74516,3.854496 4.509064,2.842196 11.047114,6.210563 12.178542,6.274316 0.521064,0.02936 -0.378936,-2.617017 -2,-5.880843 z"
       id="path924" />
  </g>
</svg>
