<?xml version="1.0" encoding="UTF-8" standalone="no"?>
<!-- Created with Inkscape (http://www.inkscape.org/) -->

<svg
   version="1.1"
   id="svg12"
   width="168"
   height="157.33333"
   viewBox="0 0 168 157.33333"
   xmlns="http://www.w3.org/2000/svg"
   xmlns:svg="http://www.w3.org/2000/svg">
  <defs
     id="defs16" />
  <g
     id="g18">
    <path
       style="fill:#000000;stroke-width:1.33333"
       d="m 143.74107,150.13501 c -6.81167,-1.8338 -9.25784,-3.42956 -14.35031,-9.36143 -5.06744,-5.90273 -6.72409,-9.85389 -6.72409,-16.03718 0,-4.45352 0.92195,-6.69199 4.42556,-10.74507 4.06627,-4.70397 5.09028,-5.16771 12.61288,-5.71184 7.70548,-0.55737 8.42585,-0.35365 12.24109,3.46158 8.05336,8.05335 3.36167,20.25893 -7.78729,20.25893 -3.04202,0 -6.19482,-0.89305 -7.397,-2.09524 -1.15239,-1.15238 -2.09524,-1.48121 -2.09524,-0.73072 0,1.84054 11.26384,9.49262 13.97312,9.49262 3.2803,0 9.59962,3.6301 10.52718,6.04728 0.45291,1.18024 0.20451,3.30244 -0.552,4.71598 -1.5974,2.98476 -5.68612,3.17858 -14.8739,0.70509 z m -0.40774,-31.46835 c -0.45322,-0.73333 -1.38864,-1.33333 -2.07869,-1.33333 -0.69005,0 -1.25464,0.6 -1.25464,1.33333 0,0.73334 0.93541,1.33334 2.07869,1.33334 1.14328,0 1.70787,-0.6 1.25464,-1.33334 z M 18.831181,148.12989 c -1.949972,-1.23513 -2.37101,-7.34945 -1.816092,-26.37338 0.28035,-9.61103 0.637796,-11.01157 3.001887,-11.7619 4.526401,-1.43662 26.687212,-0.95666 28.585912,0.61912 1.220503,1.01293 1.78376,5.0921 1.809111,13.10179 0.02025,6.397 0.156882,12.22796 0.303634,12.95769 0.740556,3.68244 -0.277398,8.69808 -2.144205,10.56488 -1.619383,1.61939 -5.026071,2.0906 -15,2.07483 -7.097619,-0.0107 -13.730729,-0.5436 -14.740247,-1.18303 z M 50.043063,101.01085 C 48.931159,100.38859 45.848687,95.423699 43.193124,89.977746 36.706455,76.675066 35.235999,75.600706 33.309208,82.756258 29.924568,95.32585 21.157961,103.47403 14.723813,100.03058 10.539668,97.791295 9.2948209,93.283373 10.988741,86.50489 13.954511,74.636902 22.328583,65.515609 32.666667,62.892635 35.894239,62.073736 57.833948,61.63038 88.234116,61.769731 145.97301,62.0344 140.96481,60.927396 152.41849,75.956957 c 5.9636,7.82548 6.35491,8.810523 5.52151,13.899372 -1.2074,7.372461 -3.91593,10.143669 -9.91423,10.143669 -6.1011,0 -9.61985,-3.537297 -12.60022,-12.666667 -1.19703,-3.666666 -2.47959,-7.52339 -2.85014,-8.570497 -0.82321,-2.32621 -6.14195,5.116254 -9.86737,13.807316 -1.39308,3.249919 -3.62228,6.481232 -4.95379,7.180695 -3.08385,1.619995 -65.00881,2.772325 -67.711187,1.260005 z M 22.646249,83.587976 c 0.01123,-0.593279 -0.579582,-0.70787 -1.312916,-0.254644 -0.733333,0.453225 -1.324145,1.838634 -1.312916,3.078689 0.0176,1.943033 0.199051,1.978226 1.312916,0.254644 0.710875,-1.1 1.301687,-2.485411 1.312916,-3.078689 z M 146.13333,83.199998 c -0.47452,-1.236588 -1.16277,-1.948341 -1.52944,-1.581674 -0.36666,0.366666 -0.27841,1.67842 0.19611,2.915008 0.47452,1.236588 1.16277,1.948341 1.52944,1.581674 0.36667,-0.366666 0.27841,-1.67842 -0.19611,-2.915008 z m -12.8,-28.621575 c -7.7,-0.573096 -18.31804,-1.767097 -23.59565,-2.653337 C 104.46008,51.038846 96.960077,50.690719 93.071017,51.15147 52.488789,55.9594 44.223636,55.015188 37.229853,44.772166 33.160976,38.81293 32.356776,38.531397 23.514131,39.970574 16.124139,41.173326 11.320672,40.648154 8.3333333,38.31083 5.9997375,36.485001 6.2535791,30.002685 8.7394617,27.939585 13.598237,23.907159 13.704697,21.441666 9.2396303,16.356236 L 4.9830195,11.508224 7.9725551,9.0874455 C 11.405231,6.3078333 13.085748,6.1316047 18.074032,8.0281465 c 2.525185,0.9600737 4.850077,0.9025628 7.885511,-0.1950643 10.203621,-3.6896774 15.39862,2.8685528 6.723629,8.4879938 -6.023373,3.901789 -6.019484,7.031096 0.0112,9.021405 2.747984,0.906916 6.756009,4.036673 9.666667,7.548434 8.58774,10.361265 13.251525,11.312617 23.250937,4.742888 3.447373,-2.264962 7.985232,-3.590045 14.981257,-4.374618 13.068783,-1.465604 25.605587,0.532166 46.740087,7.448146 7.22649,2.364772 13.31027,3.4453 18.86347,3.3503 12.90493,-0.220765 17.19584,6.531025 6.68926,10.52562 -2.04948,0.77921 -4.13726,1.331341 -4.63953,1.226956 -0.50224,-0.104386 -7.21319,-0.658688 -14.91319,-1.231784 z"
       id="path785" />
  </g>
</svg>
