<?xml version="1.0" encoding="UTF-8" standalone="no"?>
<!-- Created with Inkscape (http://www.inkscape.org/) -->

<svg
   version="1.1"
   id="svg22"
   width="162.66667"
   height="154.66667"
   viewBox="0 0 162.66667 154.66667"
   xmlns="http://www.w3.org/2000/svg"
   xmlns:svg="http://www.w3.org/2000/svg">
  <defs
     id="defs26" />
  <g
     id="g28">
    <path
       style="fill:#000000;stroke-width:1.33333"
       d="m 62.666668,146.6708 c -16.940395,-2.94149 -21.471023,-4.00685 -25.166487,-5.91785 -5.433116,-2.80957 -10.610844,-2.61855 -15.865741,0.58537 -8.33242,5.08028 -16.3011066,2.47143 -16.3011066,-5.33678 0,-4.71852 5.4072336,-9.33487 10.9341336,-9.33487 4.719695,0 8.100877,-1.69131 14.83055,-7.41841 7.540664,-6.41728 18.599788,-9.00404 34.993702,-8.18513 7.282888,0.3638 15.641616,1.2779 18.574949,2.03134 2.933334,0.75343 9.233334,2.32738 14.000001,3.49765 7.170121,1.76034 20.445361,6.50085 39.729401,14.18713 1.68451,0.67141 4.79545,1.22075 6.9132,1.22075 8.18749,0 14.44489,4.94795 12.53888,9.91492 -1.46045,3.80587 -6.42545,3.66631 -17.84593,-0.50165 -13.46152,-4.91284 -14.58317,-4.95787 -21.88975,-0.87865 -9.29122,5.18724 -40.817344,8.67622 -55.445802,6.13618 z M 107,134.90275 c 5.99817,-2.45937 4.59259,-4.94203 -4.33333,-7.65391 -4.384693,-1.33216 -5.020408,-1.11061 -10.521055,3.66666 -3.219912,2.79648 -6.819912,5.15549 -8,5.24225 -1.180087,0.0868 -0.345613,0.54731 1.854387,1.02343 4.7625,1.03069 15.868048,-0.17423 20.999998,-2.27843 z m -57.666666,-1.61632 c 0,-3.50342 -4.470373,-7.95309 -7.990086,-7.95309 -4.438793,0 -7.73095,3.16287 -5.080829,4.88129 6.078103,3.94125 13.070915,5.58463 13.070915,3.0718 z M 44.666668,53.180786 c -8.800001,-0.450568 -18.642902,-0.900568 -21.873116,-1 -5.041961,-0.155201 -6.617868,-0.963682 -11.135695,-5.712905 L 6.3952771,40.93576 6.8794565,31.347613 c 0.382081,-7.566302 1.2129227,-10.687422 3.9400815,-14.801214 5.884357,-8.8762778 8.391368,-9.2055991 70.513797,-9.2627044 47.870155,-0.044004 54.625615,0.2079218 59.511205,2.2193068 6.07912,2.5027626 9.82213,6.8400706 9.82213,11.3816506 0,1.626883 0.58084,3.316951 1.29076,3.755705 2.06027,1.273316 1.21563,10.251301 -1.46912,15.615735 -1.35503,2.707516 -4.46175,6.446745 -6.9038,8.309396 -4.10331,3.129746 -5.34321,3.357441 -16.34564,3.001732 -6.54805,-0.211698 -15.76402,0.112 -20.47995,0.719322 -11.390674,1.466911 -42.232367,1.911089 -62.092252,0.894244 z M 118.24034,42.209593 c 8.632,-0.188976 9.38609,-0.416639 7.66666,-2.31458 -1.04885,-1.157743 -1.90727,-2.957743 -1.90759,-4 -5e-4,-1.58217 -4.23775,-1.84724 -25.666672,-1.605635 -14.116339,0.159156 -33.627342,0.299744 -43.357786,0.312417 l -17.691715,0.02304 -1.308286,3.44105 c -0.719556,1.892576 -1.308284,4.059024 -1.308284,4.814328 0,0.931193 11.911062,1.078029 37.000001,0.456125 20.350001,-0.504433 41.308152,-1.011469 46.573672,-1.126745 z M 25.917903,36.749378 C 26.608562,32.143731 26.192787,29.631551 24.042196,25.416045 22.522514,22.43722 20.960715,20 20.571532,20 19.304186,20 16,29.158093 16,32.670754 c 0,4.479909 3.679918,9.995914 6.668622,9.995914 1.772245,0 2.583467,-1.47732 3.249281,-5.91729 z M 141.3612,36.324903 c 1.91243,-3.449988 1.73732,-6.90613 -0.81018,-15.991569 -0.73819,-2.632683 -5.07082,-1.942199 -6.97827,1.112116 -1.81513,2.906483 -1.26448,8.259096 1.53159,14.887884 1.95353,4.631342 3.6862,4.629007 6.25686,-0.0084 z M 122.66667,21.025144 v -3.69181 L 94.333335,17.285142 C 78.750002,17.258636 60.000001,17.010003 52.666668,16.732622 45.333334,16.45524 37.388306,16.542768 35.01105,16.927128 c -4.303313,0.695768 -4.312917,0.714694 -2.188064,4.311783 l 2.13422,3.612947 43.854732,-0.06745 43.854732,-0.06745 z"
       id="path646" />
  </g>
</svg>
