<?xml version="1.0" encoding="UTF-8" standalone="no"?>
<!-- Created with Inkscape (http://www.inkscape.org/) -->

<svg
   version="1.1"
   id="svg32"
   width="164"
   height="162.66667"
   viewBox="0 0 164 162.66667"
   xmlns="http://www.w3.org/2000/svg"
   xmlns:svg="http://www.w3.org/2000/svg">
  <defs
     id="defs36" />
  <g
     id="g38">
    <path
       style="fill:#000000;stroke-width:1.33333"
       d="m 46.412757,155.36272 c -27.542473,-2.10748 -31.081077,-2.76041 -34.427614,-6.3525 -6.6325861,-7.11924 -5.595215,-16.44999 2.467132,-22.19089 3.699036,-2.63395 5.694725,-2.72932 60.210702,-2.8775 53.733503,-0.14604 56.504003,-0.0341 58.918653,2.38054 3.4275,3.4275 1.413,8.97158 -3.72885,10.26211 -2.02126,0.5073 -25.35512,0.79202 -51.853025,0.6327 -31.972203,-0.19224 -49.027056,0.18548 -50.70214,1.12289 -4.633556,2.59308 7.53559,3.15704 59.000064,2.73429 49.355511,-0.40542 49.647571,-0.42426 52.614041,-3.3921 2.80123,-2.80252 2.88007,-3.3694 1.29352,-9.30129 -0.92923,-3.47427 -2.38183,-6.74474 -3.228,-7.26771 -0.84617,-0.52296 -28.56221,-0.72792 -61.591199,-0.45547 -33.028989,0.27246 -61.346018,0.1851 -62.92673,-0.19413 -3.8872427,-0.93259 -4.7441806,-5.14926 -1.78877,-8.80186 2.418471,-2.989 2.528878,-2.9965 53.891503,-3.6618 63.926686,-0.82804 73.878836,-0.33217 82.694766,4.12034 11.65376,5.88575 14.47895,16.38469 7.84815,29.16525 -6.0294,11.62141 -12.77303,13.52652 -49.73877,14.05148 -15.051403,0.21375 -29.46619,0.69011 -32.032857,1.05856 -2.566666,0.36845 -14.680925,-0.0964 -26.920576,-1.03291 z M 8.3333333,44.450293 C 5.8753369,43.45847 6.3005435,38.069189 9.4539387,30.247175 10.986938,26.444563 13.339867,20.633334 14.682669,17.333334 c 1.342803,-3.3 2.784406,-7.088323 3.203562,-8.4184954 C 18.946401,5.5504401 26.764177,6.3395781 28.636632,10 c 3.122355,6.103826 3.409495,6.27647 6.773256,4.07245 4.31728,-2.828791 8.237332,-2.601156 10.232876,0.594217 2.105504,3.371448 3.972784,3.371448 7.023903,0 3.151956,-3.482873 8.003429,-3.397687 10.512552,0.184587 l 1.997094,2.851253 4.180811,-3.51792 C 74.5092,9.8494003 75.153281,9.8362943 78.428453,14 c 3.16715,4.026378 5.697728,4.239154 7.928783,0.666667 2.108391,-3.376069 4.378479,-3.376069 8.002264,0 3.577312,3.332772 4.624383,3.332772 7.6405,0 3.08028,-3.403674 4.43047,-3.353397 8.33018,0.310188 3.07795,2.891585 3.28402,2.910681 7.19399,0.666667 4.93675,-2.833304 6.99066,-2.90299 9.1425,-0.310188 C 129.17057,18.350355 130.32143,17.82724 134,12 c 5.37111,-8.5083909 8.80641,-6.7974255 14.94953,7.445683 1.8711,4.338208 4.2229,9.778328 5.22623,12.089156 2.34779,5.407299 2.31395,9.06555 -0.1024,11.070921 -3.86425,3.207052 -7.80685,1.056117 -11.35381,-6.194221 -3.70912,-7.581801 -5.22447,-8.445109 -7.74348,-4.411538 -1.97329,3.159742 -6.54478,3.470306 -9.65467,0.65589 -1.99167,-1.802437 -2.54174,-1.733362 -5.309,0.666667 -3.65516,3.170127 -8.36249,3.468743 -10.67907,0.677443 -2.11354,-2.54667 -4.55312,-2.54667 -6.66666,0 -2.49332,3.00426 -8.971979,2.572349 -10.000003,-0.666667 -1.002816,-3.159595 -3.683827,-3.457485 -6,-0.666667 -2.16038,2.603099 -9.185595,2.603099 -10.184499,0 -1.081627,-2.818676 -4.157372,-2.483897 -6.124932,0.666667 -2.157764,3.455131 -5.097509,3.374688 -9.726075,-0.266143 l -3.728462,-2.932808 -1.947312,2.932808 c -2.282267,3.437278 -9.273228,4.059935 -10.473219,0.93281 -0.949271,-2.47376 -5.306477,-2.624043 -6.749248,-0.232786 -2.074755,3.438711 -5.577047,3.525118 -9.488215,0.234087 l -3.827502,-3.220631 -2.875268,3.889008 c -1.581398,2.138955 -2.875268,4.420311 -2.875268,5.069682 0,1.831355 -4.657144,5.606165 -6.771655,5.488711 C 10.852756,45.170177 9.25,44.820177 8.3333333,44.450293 Z"
       id="path507" />
  </g>
</svg>
