<?xml version="1.0" encoding="UTF-8" standalone="no"?>
<!-- Created with Inkscape (http://www.inkscape.org/) -->

<svg
   version="1.1"
   id="svg42"
   width="166.66667"
   height="160"
   viewBox="0 0 166.66667 160"
   xmlns="http://www.w3.org/2000/svg"
   xmlns:svg="http://www.w3.org/2000/svg">
  <defs
     id="defs46" />
  <g
     id="g48">
    <path
       style="fill:#000000;stroke-width:1.33333"
       d="M 9.7599838,151.99297 C 5.8293109,150.40899 4.774623,142.62032 5.6732252,121.81302 6.4647313,103.48555 7.8074572,99.798989 16.145688,93.060073 c 3.622654,-2.92781 7.083707,-4.214472 14.000001,-5.204558 12.722417,-1.821251 19.849991,0.350682 24.705689,7.528382 3.494746,5.165943 3.588802,5.848203 4.253019,30.850513 l 0.67924,25.56775 -4.95164,0.83657 c -2.723403,0.46012 -6.57472,0.21948 -8.558485,-0.53474 -4.05863,-1.54308 -4.004075,-1.17087 -3.790862,-25.86485 0.110667,-12.81775 -0.197628,-14.86332 -2.763117,-18.33333 -3.531694,-4.77687 -8.534224,-5.11112 -12.579336,-0.84051 -2.712413,2.86362 -2.832502,4.02663 -2.330063,22.56574 0.514572,18.9868 0.444793,19.606 -2.436872,21.6244 -3.248647,2.27544 -8.093882,2.55875 -12.6132782,0.73753 z M 147,151.95845 c -1.65,-0.66322 -3.04404,-1.97518 -3.09788,-2.91549 -0.0539,-0.94029 -0.0141,-9.92497 0.0881,-19.96595 0.19924,-19.55541 -0.62174,-22.94379 -5.87868,-24.2632 -9.56171,-2.39983 -13.33891,5.62094 -13.43061,28.51952 -0.0338,8.43334 -0.53622,16.08334 -1.11655,17 -1.5539,2.45452 -9.77319,2.11644 -10.7551,-0.44238 -1.59506,-4.15666 -0.7857,-41.14762 1.07319,-49.04893 2.60661,-11.07956 5.28647,-13.29922 16.84504,-13.952337 15.14404,-0.855715 25.96971,3.756769 29.28536,12.477597 1.53215,4.02987 1.76987,47.195 0.27288,49.54931 -0.96067,1.51082 -7.44967,4.5102 -9.37259,4.33222 -0.50225,-0.0465 -2.2632,-0.62714 -3.9132,-1.29036 z m -84.333332,-3.64788 c 0,-2.02917 -0.628029,-13.1245 -1.395621,-24.65628 l -1.395622,-20.96686 3.406527,-5.812802 c 4.344717,-7.4137 11.552687,-10.901512 21.949382,-10.620927 10.005536,0.27003 16.683346,3.333812 20.789126,9.538056 3.34823,5.059523 3.37064,5.285283 3.00978,30.319533 l -0.36357,25.22204 h -7.33333 -7.333338 l -0.18188,-21.27189 c -0.179519,-20.99568 -0.225636,-21.30953 -3.551631,-24.17043 -3.507515,-3.01703 -9.089411,-3.05483 -11.32566,-0.0767 -2.69438,3.58826 -3.945102,13.16572 -3.498659,26.79116 C 75.989591,149.31271 74.837403,152 67.126684,152 c -3.983252,0 -4.460016,-0.39439 -4.460016,-3.68943 z M 34.874507,53.427984 C 17.486395,52.661123 17.009716,52.558864 13.884027,48.925033 12.12495,46.879985 10.30987,43.709319 9.8505167,41.879108 c -1.1591,-4.618223 2.0845073,-12.377859 6.5777653,-15.735895 3.564806,-2.664157 5.742916,-2.844453 41.99909,-3.476546 49.741378,-0.867195 73.237668,-0.03108 74.937948,2.666666 2.02038,3.205634 1.49648,7.801743 -1.04428,9.16152 -1.2901,0.690439 -11.3401,1.231579 -22.33334,1.202532 -44.074969,-0.116453 -82.527734,0.478996 -83.853717,1.298499 -0.771017,0.476515 2.783422,1.576335 7.898751,2.444045 14.02214,2.378568 97.123896,1.048867 102.846466,-1.645634 5.25254,-2.473179 6.66707,-7.227136 3.66342,-12.311923 -3.50702,-5.936899 -8.59318,-6.946137 -34.12782,-6.771923 -39.648395,0.27051 -74.994309,-0.07107 -77.156727,-0.745626 -1.141395,-0.356055 -4.855554,-0.12796 -8.253687,0.506882 C 14.136983,19.754675 12,18.648807 12,13.812023 12,8.5508239 16.416499,7.5640211 41.333334,7.2579139 138.7509,6.0611235 139.63263,6.0919655 147.73476,10.97974 c 5.67278,3.422219 7.76858,6.879947 8.85824,14.61464 1.7228,12.228911 -3.24336,21.015224 -14.49508,25.645256 -4.35824,1.793397 -12.28866,2.222928 -47.333326,2.563688 -23.153859,0.225137 -50.104398,0.05624 -59.890087,-0.37534 z"
       id="path368" />
  </g>
</svg>
