<?xml version="1.0" encoding="UTF-8" standalone="no"?>
<!-- Created with Inkscape (http://www.inkscape.org/) -->

<svg
   version="1.1"
   id="svg52"
   width="129.33333"
   height="162.66667"
   viewBox="0 0 129.33333 162.66667"
   xmlns="http://www.w3.org/2000/svg"
   xmlns:svg="http://www.w3.org/2000/svg">
  <defs
     id="defs56" />
  <g
     id="g58">
    <path
       style="fill:#000000;stroke-width:1.33333"
       d="m 26.904747,153.80612 c -1.403545,-2.508 0.749379,-12.03004 4.249654,-18.79553 1.230055,-2.37751 5.973519,-7.3072 10.541031,-10.95485 l 8.304567,-6.63211 14.666666,-0.0402 c 12.263409,-0.0336 15.368525,0.38778 18.949988,2.57151 10.842275,6.61086 21.034617,21.26507 20.143627,28.96181 -0.75445,6.51716 -3.827783,7.04203 -41.360695,7.06356 -30.432072,0.0175 -34.404483,-0.22588 -35.494838,-2.17422 z M 22.903575,114.8413 c -0.969698,-0.61482 -2.255333,-3.30041 -2.856964,-5.96796 -1.381781,-6.12664 -0.143744,-32.981824 1.623046,-35.206672 2.072441,-2.609743 11.363302,-2.119492 12.634167,0.666667 0.585375,1.283333 1.056484,9.733808 1.046912,18.778832 -0.01731,16.356313 -0.03769,16.462973 -3.758422,19.666663 -3.972644,3.42061 -5.845519,3.86518 -8.688739,2.06247 z m 54.615612,-0.29439 c -7.986502,-1.67027 -8.514959,-3.0631 -8.74845,-23.057861 L 68.55979,73.424982 72.074906,71.968973 c 4.368084,-1.80932 10.238969,-0.452856 11.960263,2.763411 1.928682,3.603778 1.58313,36.128486 -0.410908,38.676296 -1.199275,1.53232 -2.796667,1.83014 -6.105074,1.13823 z m -31.852522,-2.09662 c -2.705457,-1.09167 -2.319794,-35.606684 0.428572,-38.35505 2.53118,-2.531181 11.673634,-2.783584 13.670576,-0.377414 0.847651,1.021357 1.445884,8.876392 1.475533,19.374341 l 0.04987,17.656513 -3.399072,1.29233 c -3.565268,1.35551 -9.396662,1.55074 -12.225476,0.40928 z m 49.779939,-1.65845 c -2.02359,-2.23605 -2.20215,-4.59974 -1.485677,-19.666671 0.730401,-15.359793 1.111348,-17.375803 3.695418,-19.556478 2.171672,-1.832656 4.043545,-2.213231 7.602205,-1.545622 2.59663,0.487131 5.17304,1.164983 5.72537,1.50634 1.61447,0.9978 0.29586,35.500281 -1.48384,38.825681 -2.09648,3.91731 -10.662685,4.18353 -14.053476,0.43675 z M 8.5881726,50.109585 C 6.3222724,48.45456 5.89495,45.922706 5.1563432,29.776251 4.2238775,9.3919058 4.6832056,8.0000002 12.342494,8.0000002 c 8.679285,0 8.990839,0.7651197 8.990839,22.0799138 V 49.399337 L 17.9132,50.699669 c -4.59776,1.748065 -6.268619,1.642333 -9.3250274,-0.590084 z M 31.219937,50.483189 C 30.704345,49.648944 30.121385,41.398944 29.924471,32.149855 29.484451,11.481964 30.631659,8.6198454 38.910775,9.7303079 c 2.920201,0.3916811 5.664787,1.0674771 6.099077,1.5017681 0.434292,0.434291 0.933813,8.892808 1.110049,18.796703 0.257479,14.469578 -0.06895,18.396462 -1.661642,19.989153 -2.327568,2.327568 -11.879869,2.663281 -13.238322,0.465257 z m 25.780062,0.07668 c -2.033103,-1.184173 -2.333334,-3.592077 -2.333334,-18.713778 0,-9.545104 0.578691,-18.436028 1.285979,-19.757608 1.821888,-3.4042299 9.076512,-4.5944794 12.866752,-2.1110191 3.257102,2.1341351 3.174286,0.7263851 2.01743,34.2931981 -0.155765,4.519611 -0.593181,5.054807 -5.170161,6.325898 -5.989143,1.663268 -5.746249,1.664296 -8.666666,-0.03669 z m 50.666661,0 c -2.0331,-1.184173 -2.33333,-3.592077 -2.33333,-18.713778 0,-9.545104 0.57869,-18.436028 1.28598,-19.757608 1.82189,-3.4042299 9.07651,-4.5944794 12.86675,-2.1110191 3.2571,2.1341351 3.17429,0.7263851 2.01743,34.2931981 -0.15576,4.519611 -0.59318,5.054807 -5.17016,6.325898 -5.98914,1.663268 -5.74625,1.664296 -8.66667,-0.03669 z M 81.886602,49.149856 C 81.37101,48.31561 80.78805,40.06561 80.591137,30.816522 80.151117,10.148631 81.298325,7.286512 89.57744,8.3969746 c 2.920202,0.3916812 5.664787,1.0674769 6.099078,1.5017681 0.434292,0.4342913 0.933813,8.8928083 1.110049,18.7967033 0.257478,14.469578 -0.06895,18.396462 -1.661643,19.989152 -2.327568,2.327568 -11.879869,2.663282 -13.238322,0.465258 z"
       id="path229" />
  </g>
</svg>
