<?xml version="1.0" encoding="UTF-8" standalone="no"?>
<!-- Created with Inkscape (http://www.inkscape.org/) -->

<svg
   version="1.1"
   id="svg62"
   width="162.66667"
   height="166.66667"
   viewBox="0 0 162.66667 166.66667"
   xmlns="http://www.w3.org/2000/svg"
   xmlns:svg="http://www.w3.org/2000/svg">
  <defs
     id="defs66" />
  <g
     id="g68">
    <path
       style="fill:#000000;stroke-width:1.33333"
       d="m 50.666668,159.07054 c -6.333624,-1.22935 -8.334866,-4.34779 -7.70036,-11.99908 1.072548,-12.93352 10.046856,-22.02044 26.898416,-27.23592 8.5634,-2.65033 10.043758,-2.74669 18.064863,-1.17581 8.330062,1.63138 22.737083,9.28864 22.737083,12.08465 0,0.63346 1.1958,2.2658 2.65733,3.62742 2.52627,2.35359 6.63072,13.26335 6.66157,17.7067 0.008,1.14317 -0.73557,3.10198 -1.65223,4.35292 -1.46951,2.00537 -5.37324,2.33426 -33.000005,2.78026 -17.233334,0.27822 -32.833334,0.2147 -34.666667,-0.14114 z M 58.000001,73.142479 C 20.411059,69.518971 9.749663,67.093965 6.7477357,61.484813 4.5241137,57.329937 5.0619044,54.905989 8.7423902,52.494442 c 3.2252948,-2.113293 3.6744958,-2.08838 8.3333338,0.462182 2.708352,1.482734 10.448093,4.034744 17.199425,5.671132 9.960553,2.414239 14.485979,2.826059 24,2.184031 23.24695,-1.568755 34.439225,-2.880993 37.058186,-4.344885 C 96.800002,55.647097 100.7,54.556177 104,54.042638 c 9.39784,-1.462473 18.88352,-4.492254 21.51211,-6.87109 2.95517,-2.674395 1.29821,-6.676003 -3.52344,-8.509191 -4.29899,-1.634471 -7.41655,-6.679448 -6.43859,-10.419194 0.45078,-1.723793 2.99475,-4.153905 5.90023,-5.636171 2.80927,-1.433182 7.19486,-4.856057 9.74577,-7.606389 6.12406,-6.6028384 13.01668,-10.2376028 17.35083,-9.1498018 5.93341,1.4891932 10.76905,8.8679668 9.09764,13.8822208 -0.29927,0.897806 -3.73029,3.139677 -7.62452,4.981936 -9.52339,4.505284 -10.80143,6.179616 -8.66115,11.346716 0.92587,2.235245 3.39324,4.948273 5.48304,6.028951 4.92167,2.545097 8.27902,7.710964 7.20686,11.089033 -1.00536,3.167594 -16.80223,12.153677 -21.36527,12.153677 -1.77358,0 -4.60293,0.537516 -6.28744,1.194481 -3.41482,1.331795 -10.69051,3.290849 -19.7294,5.312347 -8.160872,1.825132 -35.620457,2.559948 -48.666669,1.302316 z"
       id="path90" />
  </g>
</svg>
