<?xml version="1.0" encoding="UTF-8" standalone="no"?>
<!-- Created with Inkscape (http://www.inkscape.org/) -->

<svg
   version="1.1"
   id="svg2"
   width="161.33333"
   height="156"
   viewBox="0 0 161.33333 156"
   xmlns="http://www.w3.org/2000/svg"
   xmlns:svg="http://www.w3.org/2000/svg">
  <defs
     id="defs6" />
  <g
     id="g8">
    <path
       style="fill:#000000;stroke-width:1.33333"
       d="m 54.333332,148.39909 c -1.968493,-2.20112 -2.33175,-5.30289 -2.323214,-19.83741 0.01093,-18.7054 1.886577,-38.991709 3.780082,-40.885215 2.002239,-2.002238 49.27212,-2.276256 50.91628,-0.295153 0.83323,1.003976 1.62715,13.018498 1.96703,29.767448 0.67799,33.4108 1.1783,32.18159 -13.102084,32.19064 -5.264285,0.004 -16.171428,0.38017 -24.238094,0.83741 -13.466795,0.76334 -14.857556,0.61791 -17,-1.77772 z M 6.6426259,59.033091 C 5.1891816,58.015059 3.9999999,55.755205 3.9999999,54.011195 3.9999999,49.759653 6.2756611,44 7.9554613,44 9.4572582,44 18.945918,36.98832 24.839525,31.523459 c 5.071006,-4.702103 11.80869,-7.773802 18.773581,-8.558847 6.482498,-0.730671 7.598044,-3.518577 3.05356,-7.631279 C 43.477327,12.447021 43.163408,7.273 46.109048,6.1426517 c 7.318082,-2.808211 12.688997,0.6644404 14.532237,9.3960493 1.351022,6.399919 1.417784,6.465194 7.028012,6.871296 4.841343,0.350446 5.664035,0.03765 5.664035,-2.153521 0,-1.409936 -1.2,-4.089072 -2.666667,-5.953637 -1.466666,-1.864564 -2.666666,-4.3340483 -2.666666,-5.4877421 0,-2.80633 5.910006,-4.1411681 11.831298,-2.6722249 C 83.9599,7.167088 84.737764,7.9850232 85.40148,12 c 1.377338,8.331843 3.415662,10.666667 9.312097,10.666667 2.907532,0 5.286421,-0.323903 5.286421,-0.719784 0,-0.395882 -1.253117,-3.176098 -2.784705,-6.178258 l -2.784706,-5.458474 2.755922,-2.7559205 c 4.228361,-4.2283661 9.693771,-1.8269458 11.085341,4.8707405 1.78464,8.589536 3.24129,10.241696 9.0297,10.241696 6.69762,0 7.57364,-1.629768 4.06888,-7.569892 -3.29035,-5.576719 -2.80384,-7.9511302 2.00367,-9.7789417 5.42524,-2.0626729 10.95059,1.4545964 12.07328,7.6854857 1.36694,7.58631 2.74142,8.645972 9.93198,7.657018 C 152.39654,19.695227 156,21.901128 156,27.161905 c 0,3.947952 -2.41792,6.171428 -6.71111,6.171428 -1.93112,0 -3.86005,0.348938 -4.28653,0.775415 -1.40308,1.403088 3.12625,10.483592 7.15349,14.341468 2.95944,2.834985 3.72424,4.506369 3.05052,6.666667 -1.01985,3.270241 -2.95469,4.855805 -5.87304,4.812834 -1.1,-0.0162 -33.06082,0.191904 -71.024038,0.462446 C 20.99313,60.800623 8.8370089,60.570096 6.6426259,59.033091 Z M 136.24029,49.333333 c 2.33731,0 2.16057,-0.765193 -1.92475,-8.333333 -4.45611,-8.255065 -4.5476,-8.329105 -9.74029,-7.883125 -6.78063,0.582361 -8.05566,1.93723 -5.39622,5.734106 1.18486,1.691636 2.1543,4.099342 2.1543,5.350456 0,3.955431 4.02015,6.794532 8.38492,5.921579 2.17163,-0.434325 5.10655,-0.789683 6.52204,-0.789683 z M 61.333332,46.613549 c 0,-1.495881 -1.245785,-5.161724 -2.768411,-8.146317 -2.532447,-4.964008 -3.114881,-5.35724 -6.833333,-4.613549 -2.235708,0.447141 -5.081558,0.812984 -6.324114,0.812984 -2.365143,0 -15.268287,9.026048 -16.201515,11.333333 -0.593772,1.468027 9.128808,2.777972 23.127373,3.116004 8.240729,0.198995 9,-0.01212 9,-2.502455 z m 24.370473,1.053118 c 0.674411,-1.89645 -3.963699,-11.829567 -6.216252,-13.312916 -0.818155,-0.538771 -3.437555,-0.988771 -5.820888,-1 -3.12704,-0.01473 -4.333333,0.585314 -4.333333,2.155537 0,2.384531 5.023994,11.241172 7.262952,12.803628 2.285244,1.594759 8.466558,1.156147 9.107521,-0.646249 z m 24.962855,0.917196 c 0,-0.412208 -0.97534,-3.731423 -2.16743,-7.376032 -2.38753,-7.299431 -4.79851,-9.238587 -9.832565,-7.908326 -2.741646,0.724487 -3.29785,1.639424 -3.13343,5.154399 0.335042,7.162549 3.693676,10.879429 9.830835,10.879429 2.91643,0 5.30259,-0.337261 5.30259,-0.74947 z"
       id="path893" />
  </g>
</svg>
