<?xml version="1.0" encoding="UTF-8" standalone="no"?>
<!-- Created with Inkscape (http://www.inkscape.org/) -->

<svg
   version="1.1"
   id="svg12"
   width="164"
   height="153.33333"
   viewBox="0 0 164 153.33333"
   xmlns="http://www.w3.org/2000/svg"
   xmlns:svg="http://www.w3.org/2000/svg">
  <defs
     id="defs16" />
  <g
     id="g18">
    <path
       style="fill:#000000;stroke-width:1.33333"
       d="m 130.81262,143.96694 c -4.6864,-2.21702 -11.16648,-5.81654 -14.40018,-7.99894 -7.19681,-4.85707 -10.54752,-4.95635 -18.446237,-0.54655 -8.992327,5.02037 -9.363224,4.87792 -34.63287,-13.30151 -1.466666,-1.05515 -6.525293,-4.81379 -11.241392,-8.35253 -4.716098,-3.53874 -10.901661,-8.09384 -13.745694,-10.12243 -2.844034,-2.0286 -6.485407,-4.929382 -8.091942,-6.446194 -1.606534,-1.516813 -5.41638,-4.232075 -8.466322,-6.033915 -6.277847,-3.708816 -7.811663,-6.265417 -5.106046,-8.510879 2.415132,-2.004382 4.688627,-1.241183 24.352323,8.174926 9.002177,4.310761 16.830755,7.837747 17.396839,7.837747 0.566084,0 6.793217,2.998165 13.838073,6.662595 7.044856,3.66443 17.551319,8.69246 23.347692,11.17341 14.767516,6.32076 24.880746,10.92752 35.716466,16.26947 5.13334,2.53071 10.04048,4.59227 10.90476,4.58124 1.81092,-0.0231 5.76191,3.62026 5.76191,5.31328 0,1.95148 -4.07721,5.33339 -6.42857,5.33228 -1.23095,-5.7e-4 -6.07242,-1.81497 -10.75881,-4.032 z M 7.3523561,76.845453 c -2.7918305,-2.041436 -2.544658,-3.018172 4.7690289,-18.845454 2.033211,-4.4 4.607052,-10.25 5.719646,-13 1.589078,-3.927725 2.746526,-5 5.397168,-5 2.594282,0 4.003218,1.23284 6.095134,5.333333 3.074506,6.026528 3.974711,6.377903 7.202439,2.811304 2.667013,-2.947017 6.919025,-2.314796 9.22086,1.371027 1.998536,3.200167 4.452621,3.163709 6.195041,-0.09203 2.167896,-4.05075 6.254347,-4.646192 10.260375,-1.495049 3.174917,2.497391 3.759024,2.574237 5.765383,0.758507 2.819342,-2.55147 9.206041,-2.629056 10.167508,-0.12352 1.257082,3.275905 4.784202,3.657522 7.441597,0.805144 3.173948,-3.406834 5.165452,-3.400859 9.525271,0.02857 l 3.47143,2.730628 2.338033,-2.730628 c 2.68708,-3.13828 8.14985,-3.632055 9.22367,-0.833719 1.30829,3.409356 4.8173,3.623583 8.14512,0.497263 3.13176,-2.94214 3.30678,-2.958336 7.28652,-0.674276 4.60068,2.640424 6.58569,1.753191 9.45051,-4.224059 0.95916,-2.00124 2.78522,-3.495836 4.2711,-3.495836 3.22296,0 8.2393,7.223486 10.09362,14.534719 0.76239,3.005904 1.8864,6.665281 2.49782,8.131948 3.63326,8.715427 4.11382,10.555309 3.3695,12.900466 -0.67324,2.121167 -1.59221,2.435095 -5.04122,1.722104 -5.03579,-1.041013 -7.22806,-3.543921 -8.3521,-9.535609 -1.02156,-5.445341 -2.6605,-6.629577 -5.61649,-4.058227 -3.52777,3.068732 -5.91953,3.425307 -10.50336,1.565898 -3.56963,-1.448003 -4.50757,-1.420138 -5.82992,0.173202 -2.12675,2.562571 -7.81838,2.400515 -10.81105,-0.307818 -2.17675,-1.969927 -2.68864,-1.991668 -4.77166,-0.202666 -4.10595,3.5264 -6.485811,3.602707 -10.294413,0.330074 -2.882432,-2.4768 -4.246106,-2.88024 -6.20035,-1.83436 -1.377879,0.737418 -2.505234,1.855457 -2.505234,2.48453 0,2.753313 -4.25047,2.402948 -7.511381,-0.619161 C 75.872379,64.14496 74.1525,62.666665 74,62.666665 c -0.1525,0 -1.898923,1.502895 -3.88094,3.339766 -3.954019,3.664461 -7.293615,3.013302 -10.447641,-2.037096 -1.539518,-2.46516 -1.793084,-2.395032 -5.966687,1.650182 l -4.358841,4.224755 -3.9973,-3.829656 -3.997302,-3.829657 -3.094913,2.90752 c -4.041149,3.796462 -6.794363,3.672584 -10.038504,-0.451674 -2.396852,-3.047104 -2.836091,-3.165445 -4.727763,-1.273772 -1.146982,1.146982 -2.778046,4.397198 -3.624588,7.222701 -0.964961,3.220755 -2.742634,5.685618 -4.765081,6.607106 -4.12218,1.87819 -4.737092,1.850304 -7.7480839,-0.351387 z M 13.296675,35.138261 C 7.9824572,31.599819 6.6666667,29.181114 6.6666667,22.950882 c 0,-11.919371 8.6125823,-18.5201633 19.7937733,-15.1701971 4.038317,1.2099089 5.628989,2.6490911 7.49046,6.7770971 2.060153,4.568603 2.154428,6.111872 0.734847,12.029351 -0.971934,4.051473 -2.767594,7.58622 -4.453802,8.767285 -3.757398,2.631785 -12.832033,2.515959 -16.93527,-0.216157 z m 123.114155,0.284532 c -7.24419,-3.226579 -9.12829,-16.951832 -3.3562,-24.44917 1.66906,-2.1679295 4.21373,-3.2380506 8.971,-3.7726112 6.03402,-0.6780247 7.03188,-0.3825979 10.91694,3.2320922 5.26454,4.898157 6.54883,9.556362 4.51048,16.359742 -2.51336,8.388864 -12.4416,12.460682 -21.04222,8.629947 z M 72.763165,32.884377 c -2.791449,-2.79145 -3.429832,-4.701046 -3.429832,-10.259669 0,-5.770988 0.60423,-7.434066 3.897436,-10.727272 9.414312,-9.4143121 25.730015,-0.142863 23.454144,13.327891 -1.197928,7.090476 -4.588992,9.770087 -13.275745,10.49046 -6.396176,0.53042 -7.605913,0.208679 -10.646003,-2.83141 z"
       id="path636" />
  </g>
</svg>
