<?xml version="1.0" encoding="UTF-8" standalone="no"?>
<!-- Created with Inkscape (http://www.inkscape.org/) -->

<svg
   version="1.1"
   id="svg22"
   width="158.66667"
   height="154.66667"
   viewBox="0 0 158.66667 154.66667"
   xmlns="http://www.w3.org/2000/svg"
   xmlns:svg="http://www.w3.org/2000/svg">
  <defs
     id="defs26" />
  <g
     id="g28">
    <path
       style="fill:#000000;stroke-width:1.33333"
       d="M 40.517344,148.35534 C 5.2492198,147.87042 6.3980811,148.3877 6.2985895,132.94843 c -0.034869,-5.41104 0.3690937,-10.53805 0.8976955,-11.39334 1.4712422,-2.38052 6.732777,-1.85241 10.41697,1.04558 17.058292,13.41805 36.247818,14.31287 49.866424,2.3253 7.773059,-6.84212 13.347,-7.21676 21.853656,-1.46885 11.889505,8.0337 15.454865,9.06899 25.924625,7.52788 13.9163,-2.04844 18.87719,-3.63404 23.47547,-7.50323 4.82347,-4.05869 12.42485,-4.74906 14.35305,-1.30357 0.67044,1.19801 0.75962,4.21495 0.19818,6.70431 -0.56144,2.48936 -0.73447,6.75917 -0.38451,9.48847 0.39096,3.04896 -0.0688,5.90336 -1.19236,7.4028 -1.67676,2.23773 -3.98329,2.41565 -27.76822,2.14201 -14.26676,-0.16413 -27.139568,-0.33476 -28.606235,-0.37917 -1.466666,-0.0444 -7.766666,0.21284 -14,0.57166 -6.233333,0.35884 -24.60053,0.47002 -40.815991,0.24706 z M 126.81262,67.966948 C 122.12623,65.749927 115.64615,62.1504 112.41244,59.968 105.21563,55.110932 101.86492,55.011655 93.966205,59.421461 84.973878,64.441823 84.60298,64.299372 59.333335,46.11994 57.866668,45.064793 52.808041,41.306156 48.091942,37.767413 43.375844,34.22867 37.190281,29.673575 34.346247,27.644982 31.502214,25.616387 27.860841,22.7156 26.254306,21.198788 24.647771,19.681975 20.837926,16.966714 17.787983,15.164874 11.510137,11.456058 9.9763206,8.8994559 12.681938,6.6539931 15.09707,4.6496118 17.370564,5.4128102 37.034261,14.82892 c 9.002177,4.310762 16.830755,7.837747 17.396839,7.837747 0.566084,0 6.793217,2.998168 13.838073,6.662595 7.044857,3.664428 17.551319,8.692465 23.347693,11.173416 14.767514,6.32076 24.880754,10.927514 35.716474,16.26947 5.13333,2.530708 10.04048,4.592264 10.90476,4.581237 1.81092,-0.02311 5.7619,3.620258 5.7619,5.313283 0,1.951481 -4.07721,5.333387 -6.42857,5.332282 -1.23095,-5.79e-4 -6.07242,-1.814979 -10.75881,-4.032002 z"
       id="path497" />
  </g>
</svg>
