<?xml version="1.0" encoding="UTF-8" standalone="no"?>
<!-- Created with Inkscape (http://www.inkscape.org/) -->

<svg
   version="1.1"
   id="svg32"
   width="164"
   height="154.66667"
   viewBox="0 0 164 154.66667"
   xmlns="http://www.w3.org/2000/svg"
   xmlns:svg="http://www.w3.org/2000/svg">
  <defs
     id="defs36" />
  <g
     id="g38">
    <path
       style="fill:#000000;stroke-width:1.33333"
       d="m 75.309593,145.40631 c -3.994106,-1.62015 -6.20814,-6.81583 -5.732026,-13.45135 0.380588,-5.3042 0.950738,-6.18573 5.755766,-8.89924 7.778715,-4.39281 13.367783,-4.01452 18.273252,1.2368 3.607486,3.86183 3.945963,4.95701 3.373452,10.91524 -0.817166,8.5044 -4.177878,11.49212 -12.794416,11.37439 -3.402092,-0.0465 -7.396304,-0.57561 -8.876028,-1.17584 z m 61.333327,0 c -3.9941,-1.62015 -6.20813,-6.81583 -5.73202,-13.45135 0.38059,-5.3042 0.95074,-6.18573 5.75577,-8.89924 7.77872,-4.39281 13.36778,-4.01452 18.27325,1.2368 3.60748,3.86183 3.94596,4.95701 3.37345,10.91524 -0.81717,8.5044 -4.17788,11.49212 -12.79441,11.37439 -3.40209,-0.0465 -7.39631,-0.57561 -8.87604,-1.17584 z M 11.309593,144.07298 c -3.9941063,-1.62015 -6.2081393,-6.81583 -5.7320259,-13.45135 0.3805878,-5.3042 0.9507381,-6.18574 5.7557659,-8.89924 7.778715,-4.39281 13.367783,-4.01453 18.273252,1.2368 3.607486,3.86182 3.945963,4.95701 3.373452,10.91524 -0.817166,8.5044 -4.177878,11.49212 -12.794416,11.37439 -3.402092,-0.0465 -7.396304,-0.57562 -8.876028,-1.17584 z M 52,92.045757 C 37.716607,90.826295 13.882303,84.910112 10.340736,81.705039 4.6738057,76.576538 9.3435345,70.392232 20.666667,68.030005 c 4.4,-0.917926 9.033872,-2.212672 10.297494,-2.877212 1.263622,-0.66454 8.463622,-2.165849 16,-3.336244 20.623506,-3.202816 58.507029,-2.224758 79.702509,2.057719 3.3,0.666755 9.40472,1.828981 13.56602,2.582727 12.74214,2.307998 17.49258,5.952371 16.10768,12.357231 -0.52329,2.420161 -5.76256,5.185776 -9.82409,5.185776 -1.48037,0 -3.74183,0.562072 -5.02545,1.249048 -1.28363,0.686977 -8.59419,2.536471 -16.24569,4.109985 C 109.49347,92.598335 73.805396,93.907418 52,92.045757 Z m 72,-13.822025 7.33333,-1.79139 -4.66666,-0.943602 C 111.97982,72.519056 97.894755,70.831991 87.141273,70.754512 71.690891,70.643192 49.691057,72.873616 43.083643,75.221236 L 38,77.027459 l 3.758353,0.98716 C 55.101581,81.519322 109.93822,81.658754 124,78.223732 Z M 52,35.936823 C 36.533145,34.346998 12.406459,28.437086 8.6475963,25.317507 3.8575664,21.342135 8.43663,15.508338 19.049485,12.06534 40.94414,4.9623282 94.551652,2.110907 118,6.8020928 c 16.65265,3.3316062 33.21757,8.2220352 36.18135,10.6817422 2.01958,1.676115 2.33608,4.970339 0.72177,7.512567 -1.06549,1.67794 -13.35765,5.377904 -29.87031,8.991021 C 114.62664,36.264385 67.440068,37.523894 52,35.936823 Z m 50.85873,-10.650394 c 7.59436,-0.759132 15.86776,-2.041908 18.38532,-2.850615 l 4.57739,-1.470376 -4.57739,-1.662152 c -12.21217,-4.434512 -56.575873,-4.71434 -80.127601,-0.505412 -11.955418,2.136553 -9.698497,3.552441 9.337895,5.858168 18.018477,2.182433 34.851915,2.384928 52.404386,0.630387 z"
       id="path358" />
  </g>
</svg>
