<?xml version="1.0" encoding="UTF-8" standalone="no"?>
<!-- Created with Inkscape (http://www.inkscape.org/) -->

<svg
   version="1.1"
   id="svg42"
   width="96"
   height="168"
   viewBox="0 0 96 168"
   xmlns="http://www.w3.org/2000/svg"
   xmlns:svg="http://www.w3.org/2000/svg">
  <defs
     id="defs46" />
  <g
     id="g48">
    <path
       style="fill:#000000;stroke-width:1.33333"
       d="m 73.886604,159.81652 c -0.515592,-0.83424 -1.098552,-9.08424 -1.295465,-18.33333 -0.44002,-20.66789 0.707188,-23.53001 8.986304,-22.41955 2.920201,0.39168 5.664786,1.06748 6.099077,1.50177 0.434292,0.43429 0.933813,8.89281 1.110049,18.7967 0.257479,14.46958 -0.06895,18.39646 -1.661642,19.98916 -2.327568,2.32756 -11.87987,2.66328 -13.238323,0.46525 z M 6.8578904,157.61929 c -2.7410715,-0.91369 -1.4953533,-7.52684 2.2393079,-11.88784 7.3004327,-8.52476 23.3012427,-12.35186 32.2641107,-7.71698 7.194056,3.72018 13.35827,16.14736 9.264516,18.67744 -1.488386,0.91988 -41.2622047,1.76264 -43.7679346,0.92738 z M 46.666667,81.843881 C 40.81644,79.634071 29.758691,73.701533 27.697199,71.666667 24.817661,68.824321 24.009416,68.792015 19.152409,71.325119 14.530443,73.735641 10.423003,73.889669 8.2666667,71.733333 5.645128,69.111795 6.4422607,62.036139 9.9397639,56.88228 L 13.212861,52.059101 9.6151755,44.362884 C 6.693064,38.111864 6.0158477,34.746443 6.0087449,26.440752 6.0012001,17.618209 6.4180609,15.769832 9.0462755,12.972226 10.721727,11.188789 14.351931,8.9839513 17.113396,8.0725857 23.230015,6.0539195 37.056759,6.8284884 45.405088,9.6574755 51.046844,11.56929 51.998805,11.534416 58.84718,9.1650369 c 6.844429,-2.3680138 7.7277,-2.40065 12.378601,-0.4573796 3.542026,1.4799527 4.778828,2.6904867 4.224575,4.1348477 -0.431029,1.123244 -0.783689,3.147154 -0.783689,4.497578 0,1.350424 -1.480443,4.214722 -3.289872,6.365108 l -3.289872,3.90979 4.100825,6.46633 C 76.083747,40.224664 80,51.869916 80,57.311587 c 0,6.026244 -6.118555,15.687552 -13.009221,20.541794 -5.390586,3.797486 -15.55281,5.792768 -20.324112,3.9905 z"
       id="path219" />
  </g>
</svg>
