<?xml version="1.0" encoding="UTF-8" standalone="no"?>
<!-- Created with Inkscape (http://www.inkscape.org/) -->

<svg
   version="1.1"
   id="svg52"
   width="154.66667"
   height="161.33333"
   viewBox="0 0 154.66667 161.33333"
   xmlns="http://www.w3.org/2000/svg"
   xmlns:svg="http://www.w3.org/2000/svg">
  <defs
     id="defs56" />
  <g
     id="g58">
    <path
       style="fill:#000000;stroke-width:1.33333"
       d="m 13.886604,154.48318 c -0.515592,-0.83424 -1.098551,-9.08424 -1.295465,-18.33333 -0.44002,-20.66789 0.707188,-23.53001 8.986304,-22.41954 2.920202,0.39168 5.664787,1.06747 6.099078,1.50176 0.434292,0.43429 0.933813,8.89281 1.110049,18.7967 0.257479,14.46959 -0.06895,18.39647 -1.661643,19.98916 -2.327568,2.32756 -11.879869,2.66328 -13.238323,0.46525 z m 38.70157,-1.70693 c -2.265901,-1.65503 -2.693222,-4.18688 -3.431829,-20.33334 -0.932467,-20.38434 -0.473139,-21.77625 7.186151,-21.77625 8.679285,0 8.990839,0.76512 8.990839,22.07992 V 152.066 l -3.420134,1.30033 c -4.597758,1.74807 -6.268618,1.64233 -9.325027,-0.59008 z m 36.411828,0.45028 c -2.033103,-1.18417 -2.333333,-3.59208 -2.333333,-18.71377 0,-9.54511 0.57869,-18.43603 1.285978,-19.75761 1.821888,-3.40423 9.076512,-4.59448 12.866753,-2.11102 3.2571,2.13413 3.17429,0.72638 2.01743,34.2932 -0.15577,4.5196 -0.59318,5.0548 -5.170161,6.32589 -5.989143,1.66327 -5.74625,1.6643 -8.666667,-0.0367 z m 38.219938,-0.0767 c -0.51559,-0.83424 -1.09855,-9.08424 -1.29547,-18.33333 -0.44002,-20.66789 0.70719,-23.53001 8.98631,-22.41954 2.9202,0.39168 5.66478,1.06747 6.09908,1.50176 0.43429,0.43429 0.93381,8.89281 1.11005,18.79671 0.25748,14.46958 -0.0689,18.39646 -1.66164,19.98915 -2.32757,2.32756 -11.87988,2.66328 -13.23833,0.46525 z M 109.73086,69.245444 c -6.15325,-2.410669 -7.33804,-3.539389 -10.500811,-10.003852 -2.917996,-5.96417 -3.444186,-8.543937 -2.899312,-14.21455 0.557804,-5.805168 1.395274,-7.552864 5.167473,-10.783875 2.47599,-2.120757 6.45179,-4.701105 8.83513,-5.734105 2.38333,-1.033001 4.32414,-2.620131 4.31291,-3.526956 -0.0444,-3.586913 -2.20562,-4.581714 -9.31291,-4.286724 -9.498622,0.394246 -12.000005,-0.958056 -12.000005,-6.487454 0,-7.2963144 2.213852,-8.9426213 10.000005,-7.4363899 C 107,7.4808554 113.9,7.9805302 118.66667,7.8819268 142.66711,7.3854521 148,8.4889506 148,13.951673 c 0,4.842301 -3.42378,7.38166 -9.95258,7.38166 -8.68217,0 -8.91154,2.99643 -0.80495,10.51546 7.46509,6.924025 9.4242,10.998721 9.4242,19.60113 0,5.080856 -0.77415,6.782845 -5.33649,11.732401 -4.19327,4.549156 -6.54978,5.959723 -11,6.584416 -3.11493,0.437253 -7.46351,1.11022 -9.66351,1.495481 -2.40508,0.421175 -6.76551,-0.382973 -10.93581,-2.016777 z M 33.345831,68.812496 C 31.90631,67.372975 31.456553,41.634302 32.809319,38.109049 c 0.970368,-2.528738 7.885394,-2.852611 9.445326,-0.442383 0.593279,0.916667 1.378689,5.866666 1.745356,11 0.611115,8.555603 0.927952,9.370317 3.802284,9.777173 1.724589,0.244112 4.573512,0.08295 6.33094,-0.358136 3.038188,-0.762536 3.181379,-1.276124 2.911782,-10.443839 -0.155947,-5.303026 0.197264,-12.341865 0.784913,-15.641865 0.651656,-3.659432 0.525864,-7.404422 -0.322464,-9.600209 L 56.116537,18.799581 37.724935,19.066457 19.333334,19.333333 18.666667,43.051508 C 18.129379,62.166765 17.611866,67.014481 16,68.031091 12.724525,70.096944 9.6126113,69.516173 7.4554839,66.436443 5.7378165,63.984129 5.5420517,59.431288 6.1798651,36.769777 6.6554575,19.871978 7.4910719,9.3190745 8.4457952,8.1535393 10.50196,5.6433535 65.4868,6.6942768 68.631155,9.3038599 c 1.699792,1.4107021 2.035513,6.0462691 2.035513,28.1059331 0,14.529134 -0.589505,27.967122 -1.310011,29.862196 L 68.046645,70.71758 51.369154,70.437953 C 42.196533,70.284159 34.086038,69.552703 33.345831,68.812496 Z"
       id="path80" />
  </g>
</svg>
