<?xml version="1.0" encoding="UTF-8" standalone="no"?>
<!-- Created with Inkscape (http://www.inkscape.org/) -->

<svg
   version="1.1"
   id="svg2"
   width="160"
   height="154.66667"
   viewBox="0 0 160 154.66667"
   xmlns="http://www.w3.org/2000/svg"
   xmlns:svg="http://www.w3.org/2000/svg">
  <defs
     id="defs6" />
  <g
     id="g8">
    <path
       style="fill:#000000;stroke-width:1.33333"
       d="m 6.6666667,148.0307 c -1.5541572,-0.98054 -2.099687,-4.86128 -2.4471844,-17.40862 -0.4319879,-15.5981 -0.3270367,-16.32836 3.0883789,-21.48941 5.9402398,-8.97631 17.2185078,-11.639195 27.3673418,-6.46165 2.8796,1.46907 5.777645,3.71907 6.440101,5 2.262188,4.37422 4.29316,28.74522 3.092996,37.11496 -0.255217,1.77985 -6.071865,4.54736 -9.557459,4.54736 -4.318186,0 -5.496138,-4.40978 -4.608421,-17.25207 0.75296,-10.8928 0.58828,-12.11723 -1.974361,-14.67988 -2.223083,-2.22308 -3.332651,-2.50854 -5.416207,-1.39346 -3.551368,1.90064 -4.493767,6.53906 -3.569196,17.56733 1.026101,12.23933 -0.328964,15.76441 -6.049655,15.73766 -2.401484,-0.0112 -5.2663343,-0.58824 -6.3663343,-1.28222 z M 140.29668,145.9244 c -3.23651,-2.26693 -3.99103,-8.29214 -1.53727,-12.27582 1.02895,-1.67051 0.93387,-4.72869 -0.34142,-10.98191 -0.97212,-4.76667 -1.46386,-10.76667 -1.09274,-13.33333 0.57168,-3.95388 1.2594,-4.73349 4.50252,-5.10411 2.10528,-0.2406 5.22899,-0.0858 6.9416,0.34407 3.65662,0.91776 4.09368,2.937 5.14859,23.78637 l 0.72655,14.35967 -4.32226,2.63534 c -5.21886,3.18203 -6.21514,3.23864 -10.02557,0.56972 z m -30.41008,-0.77454 c -0.51559,-0.83424 -1.09855,-9.08424 -1.29546,-18.33334 -0.44002,-20.66789 0.70719,-23.53001 8.9863,-22.41954 2.9202,0.39168 5.66479,1.06747 6.09908,1.50176 0.43429,0.4343 0.93381,8.89281 1.11005,18.79671 0.25748,14.46958 -0.069,18.39646 -1.66164,19.98915 -2.32757,2.32756 -11.87987,2.66328 -13.23833,0.46526 z M 58,97.196499 C 31.057131,96.055663 14.812107,93.873642 10.666667,90.838713 8.1056776,88.963781 7.2403437,86.990665 6.9320028,82.32301 6.5867281,77.096254 7.123346,75.572663 10.7739,71.414912 l 4.243227,-4.832769 49.491437,0.694585 c 27.220289,0.382023 52.692186,0.669689 56.604206,0.639261 C 129.02693,67.854431 132,69.515843 132,74.000002 c 0,6.217618 -0.51733,6.265766 -56.399387,5.249112 -40.451385,-0.735927 -52.774578,-0.585664 -53.540016,0.65284 -0.546861,0.884838 -0.643152,1.959937 -0.213981,2.389108 1.598452,1.598452 92.061484,3.306201 97.516004,1.840894 2.2161,-0.595337 5.34701,-0.594972 6.95756,8.11e-4 1.68655,0.623893 3.26235,0.542717 3.71608,-0.191428 0.43328,-0.701069 1.85938,-1.274671 3.16911,-1.274671 6.6687,0 8.49767,-9.426278 2.77902,-14.322736 -5.8134,-4.977593 -12.02465,-5.479635 -68.908205,-5.569709 C 36.66202,62.726063 11.227719,62.346751 10.555518,61.931308 8.3798467,60.586669 9.19328,53.497928 11.666667,52.248097 14.16212,50.987116 102.43396,51.44837 124.66667,52.838566 c 12.69718,0.793947 26,4.493351 26,7.230389 0,0.590648 1.05,2.123904 2.33333,3.407237 1.66381,1.663817 2.33333,4.464852 2.33333,9.761904 0,6.434183 -0.59874,8.173203 -4.47297,12.991321 -7.44832,9.262986 -15.02399,11.084714 -47.8152,11.498158 C 89.270324,97.901254 69,97.66227 58,97.196499 Z M 65.333333,43.858924 C 57.977028,42.987152 49.852011,40.775444 38.666667,36.599998 31.296759,33.848841 26.122676,33.842777 21.944535,36.580401 17.906619,39.226145 11.492184,39.267924 9.3299263,36.662562 5.2420308,31.73695 9.3967637,21.333334 15.451725,21.333334 c 4.263047,0 8.110112,-1.955872 13.214942,-6.718556 C 35.200172,8.5191714 46.027711,6.0809351 66,6.2077432 80.948929,6.3026568 84.708951,6.78897 93.333333,9.7429785 120.82817,19.160463 131.29631,22.918818 134.4942,24.520881 c 1.92819,0.965977 6.49783,2.488352 10.15473,3.383054 7.62619,1.865828 10.01774,3.469943 10.01774,6.719342 0,6.72566 -11.17223,8.794743 -20.03284,3.710057 l -5.22783,-3 -8.36967,3.087999 c -4.60331,1.698399 -11.06966,3.622469 -14.36966,4.275712 -7.945654,1.57286 -32.129006,2.252653 -41.333337,1.161879 z M 100.7767,33.115683 c 7.42779,-1.368624 8.26907,-1.828314 7.15514,-3.9097 -2.21443,-4.137712 -6.18821,-4.269517 -13.967844,-0.463298 -4.041933,1.977533 -7.672761,4.119421 -8.068505,4.759749 -0.994155,1.608576 4.880841,1.455889 14.881209,-0.386751 z M 49.333333,30.729405 c 0,-1.950912 -3.127948,-8.622309 -4.497874,-9.593226 -1.713502,-1.21442 -8.836215,1.469212 -8.831856,3.327588 0.0037,1.597124 8.74763,7.138684 11.663064,7.391631 0.916666,0.07953 1.666666,-0.427165 1.666666,-1.125993 z"
       id="path775" />
  </g>
</svg>
