<?xml version="1.0" encoding="UTF-8" standalone="no"?>
<!-- Created with Inkscape (http://www.inkscape.org/) -->

<svg
   version="1.1"
   id="svg12"
   width="154.66667"
   height="154.66667"
   viewBox="0 0 154.66667 154.66667"
   xmlns="http://www.w3.org/2000/svg"
   xmlns:svg="http://www.w3.org/2000/svg">
  <defs
     id="defs16" />
  <g
     id="g18">
    <path
       style="fill:#000000;stroke-width:1.33333"
       d="M 17.496574,144.65552 C 4.4352196,132.85538 3.4211359,111.94905 15.62776,106.12812 c 5.823312,-2.77694 15.123662,-1.71776 18.594693,2.11769 3.543838,3.9159 3.131988,12.14059 -0.818507,16.3457 C 31.642782,126.46618 29.170611,128 27.910234,128 c -4.153187,0 -4.1183,3.99706 0.07145,8.18682 5.533567,5.53357 6.701307,7.95798 5.191676,10.77876 -2.230081,4.16694 -9.73096,3.06165 -15.676792,-2.31006 z m 92.764646,-2.32218 c -4.25291,-3.96132 -16.357702,-24.702 -17.528915,-30.0345 -0.836924,-3.81049 -0.573436,-4.28936 2.839246,-5.16007 4.948579,-1.26258 8.218699,-0.9727 10.513699,0.93198 1.78807,1.48397 7.41506,10.98389 12.74148,21.51115 1.36781,2.70338 3.09136,5.28878 3.8301,5.74536 2.30802,1.42644 1.48519,7.16958 -1.23584,8.62584 -4.04164,2.16301 -7.66283,1.63742 -11.15977,-1.61976 z m 26.66666,0 c -4.2529,-3.96132 -16.35769,-24.702 -17.52891,-30.0345 -0.83692,-3.81049 -0.57343,-4.28936 2.83925,-5.16007 4.94858,-1.26258 8.2187,-0.9727 10.5137,0.93198 1.78807,1.48397 7.41506,10.98389 12.74147,21.51115 1.36781,2.70338 3.09136,5.28878 3.83011,5.74536 2.30802,1.42644 1.48518,7.16958 -1.23584,8.62584 -4.04164,2.16301 -7.66283,1.63742 -11.15978,-1.61976 z M 54.333335,71.049096 C 52.32837,68.821521 52.013352,65.750691 52.094866,49.228346 52.221816,23.496791 53.558394,9.5165591 56.041655,7.9460411 57.118745,7.264844 67.407144,6.6983132 78.904763,6.6870839 c 17.350734,-0.016947 21.265257,0.3400775 23.025187,2.1000083 1.8336,1.8336028 2.07193,6.1170358 1.76191,31.6666678 l -0.35852,29.546242 -14.000005,0.838589 c -7.7,0.461224 -18.2,1.280561 -23.333334,1.820749 -8.285905,0.871939 -9.59519,0.69123 -11.666666,-1.610244 z"
       id="path636" />
  </g>
</svg>
