<?xml version="1.0" encoding="UTF-8" standalone="no"?>
<!-- Created with Inkscape (http://www.inkscape.org/) -->

<svg
   version="1.1"
   id="svg22"
   width="164"
   height="162.66667"
   viewBox="0 0 164 162.66667"
   xmlns="http://www.w3.org/2000/svg"
   xmlns:svg="http://www.w3.org/2000/svg">
  <defs
     id="defs26" />
  <g
     id="g28">
    <path
       style="fill:#000000;stroke-width:1.33333"
       d="m 7.4285715,155.2381 c -2.3683838,-2.36839 -2.7373654,-7.46838 -0.790263,-10.92286 0.7177364,-1.27338 3.3778975,-6.92281 5.9114685,-12.55428 2.546182,-5.6595 5.861315,-10.9106 7.412055,-11.74053 3.336963,-1.78589 7.788749,-0.65037 11.110991,2.83409 2.150658,2.25567 2.620906,2.3089 4.428572,0.50123 2.889638,-2.88964 5.463922,-2.51164 9.348213,1.37265 3.541921,3.54192 4.090755,3.44284 9.573728,-1.7284 0.971928,-0.91666 2.296051,-1.66666 2.942499,-1.66666 2.288444,0 7.967498,3.11296 7.967498,4.36736 0,0.69997 1.478891,0.30366 3.286423,-0.88068 4.636784,-3.03814 8.106688,-2.67883 11.119576,1.15144 l 2.599545,3.30478 3.445758,-3.19342 c 3.624406,-3.35899 7.517152,-3.33397 10.33925,0.0665 1.303994,1.57121 2.261647,1.41792 6.148295,-0.98416 l 4.60371,-2.84525 3.74153,2.76623 c 3.29069,2.43291 4.04122,2.53924 6.22872,0.88247 3.22992,-2.44629 7.68327,-2.45277 12.39153,-0.018 3.45431,1.7863 3.97133,1.73016 6.14044,-0.66667 3.39616,-3.75272 6.75597,-3.24168 11.28262,1.71614 3.96896,4.34703 9.33927,16.33246 9.33927,20.84338 0,2.20565 -3.8202,6.82329 -5.64496,6.82329 -0.42257,0 -2.35063,-2.7 -4.28455,-6 -2.67378,-4.56247 -4.31142,-6 -6.83521,-6 -1.82544,0 -3.66433,0.9 -4.08644,2 -1.06723,2.78112 -8.03658,2.55945 -9.64052,-0.30663 -1.20292,-2.1495 -1.65013,-2.1047 -6.56479,0.65748 l -5.27393,2.96411 -3.37844,-2.65748 c -4.04536,-3.18208 -5.43015,-3.30149 -7.62449,-0.65748 -2.44319,2.94385 -7.383829,2.43381 -9.686577,-1 l -2.011832,-3 -4.096806,3 c -5.048335,3.69679 -6.580288,3.73837 -10.263004,0.27864 l -2.896754,-2.72136 -2.21992,3.38803 c -2.790408,4.2587 -4.91241,4.26433 -9.948904,0.0264 l -3.995061,-3.36162 -3.748424,3.22426 -3.748424,3.22425 -4.795084,-2.75969 -4.795085,-2.75971 -2.897064,2.89707 c -3.766923,3.76692 -6.105336,3.65753 -9.325518,-0.43627 -1.4421,-1.83333 -3.069502,-3.33333 -3.61645,-3.33333 -1.926482,0 -4.537444,4.70821 -4.579359,8.25773 -0.07425,6.28848 -8.292973,9.96789 -12.6138325,5.64703 z m 5.1246995,-54.08824 c -0.515592,-0.83425 -1.098552,-9.084249 -1.295465,-18.333337 -0.44002,-20.667891 0.707187,-23.53001 8.986303,-22.419547 2.920202,0.391681 5.664787,1.067476 6.099078,1.501768 0.434292,0.434291 0.933813,8.892808 1.110049,18.796703 0.257479,14.469578 -0.06895,18.396462 -1.661643,19.989153 -2.327568,2.32757 -11.879869,2.66328 -13.238322,0.46526 z m 63.716876,-0.15768 c -0.78567,-0.94668 -1.225348,-6.307358 -1.01157,-12.333337 0.207974,-5.862363 0.459875,-14.340741 0.559779,-18.840843 0.181225,-8.163115 0.191647,-8.183492 4.514977,-8.8285 2.383334,-0.355575 5.626874,-0.159991 7.207867,0.434631 2.746812,1.033093 2.877849,1.895958 2.949133,19.419841 0.04608,11.326521 -0.478204,19.004798 -1.371126,20.080708 -1.844771,2.22281 -11.020306,2.27101 -12.84906,0.0675 z M 141,101.22654 c -2.03311,-1.18418 -2.33333,-3.592081 -2.33333,-18.713781 0,-9.545104 0.57869,-18.436028 1.28597,-19.757608 1.82189,-3.40423 9.07652,-4.594479 12.86676,-2.111019 3.25709,2.134135 3.17428,0.726384 2.01743,34.293198 -0.15576,4.519611 -0.59319,5.054807 -5.17016,6.3259 -5.98915,1.66327 -5.74626,1.66429 -8.66667,-0.0367 z M 44.666667,37.989763 C 31.330076,35.529541 18.803531,32.266485 12.915809,29.718939 8.4494224,27.786389 7.9343227,27.102738 8.6768256,24.09287 9.8893485,19.177692 10.291841,18.940687 23.428771,15.406276 61.090744,5.2735526 87.030836,5.0519908 137.33333,14.433384 150.74671,16.934974 156,20.207608 156,26.062139 c 0,6.944442 -39.72248,13.88034 -78.666667,13.7359 C 64.385972,39.750013 49.845612,38.945131 44.666667,37.989763 Z M 106,28.615505 c 7.33333,-0.432456 16.02916,-1.455807 19.32406,-2.274112 l 5.99072,-1.48783 -3.99072,-1.130275 c -16.22907,-4.59649 -44.090761,-6.78122 -63.486552,-4.978196 -18.038367,1.676839 -26.596425,3.058027 -29.645452,4.784494 -2.058873,1.165807 -1.107107,1.670252 5.665245,3.002631 4.476922,0.88078 13.990496,1.924193 21.141278,2.318694 7.150781,0.394503 13.275524,0.988538 13.610537,1.320078 0.335015,0.33154 4.535015,0.2941 9.333333,-0.0832 4.79832,-0.3773 14.724218,-1.039828 22.057551,-1.472284 z"
       id="path497" />
  </g>
</svg>
