<?xml version="1.0" encoding="UTF-8" standalone="no"?>
<!-- Created with Inkscape (http://www.inkscape.org/) -->

<svg
   version="1.1"
   id="svg32"
   width="53.333332"
   height="146.66667"
   viewBox="0 0 53.333332 146.66667"
   xmlns="http://www.w3.org/2000/svg"
   xmlns:svg="http://www.w3.org/2000/svg">
  <defs
     id="defs36" />
  <g
     id="g38">
    <path
       style="fill:#000000;stroke-width:1.33333"
       d="m 37.32086,142.21578 c -3.157749,-1.60072 -3.29844,-2.16643 -2.864374,-11.51763 0.397345,-8.56012 0.111386,-10.10611 -2.207177,-11.93285 -1.465016,-1.15425 -5.707323,-6.10977 -9.427351,-11.01227 l -6.763685,-8.913642 0.564899,-11.613729 c 0.310694,-6.38755 1.222854,-12.271684 2.027024,-13.075853 1.060609,-1.06061 3.126067,0.274188 7.521423,4.860702 3.332615,3.477555 6.522658,6.322827 7.088984,6.322827 1.347028,0 0.919797,-46.884061 -0.447388,-49.096213 C 32.070723,35.035745 28.442227,34.632155 20.38111,34.854326 10.44592,35.128147 8.7572248,34.839439 7.1089138,32.585239 6.0701788,31.164685 5.395736,28.50187 5.6101523,26.667873 5.9943769,23.38143 6.1971208,23.327854 19.666666,22.953357 c 10.941305,-0.304204 13.666667,-0.76951 13.666667,-2.333334 0,-1.584903 -2.506166,-1.953356 -13.286422,-1.953356 C 8.2749926,18.666667 6.6031357,18.372648 5.3800547,16.0873 4.4312395,14.314423 4.4290603,12.378419 5.3730848,9.8954456 L 6.7465502,6.2829577 25.039941,7.2020756 c 14.673271,0.7372316 18.623211,1.3533417 19.960058,3.1133614 1.583904,2.085281 2.660109,30.050021 2.066016,53.684564 -0.119814,4.766667 -0.408688,23.893501 -0.641933,42.504079 -0.40309,32.16234 -0.55671,33.92547 -3.103222,35.61626 -2.178737,1.44658 -3.299397,1.46441 -6,0.0955 z"
       id="path358" />
  </g>
</svg>
