<?xml version="1.0" encoding="UTF-8" standalone="no"?>
<!-- Created with Inkscape (http://www.inkscape.org/) -->

<svg
   version="1.1"
   id="svg42"
   width="160"
   height="165.33333"
   viewBox="0 0 160 165.33333"
   xmlns="http://www.w3.org/2000/svg"
   xmlns:svg="http://www.w3.org/2000/svg">
  <defs
     id="defs46" />
  <g
     id="g48">
    <path
       style="fill:#000000;stroke-width:1.33333"
       d="m 15.631919,156.44149 -5.034748,-2.08776 0.368081,-19.46188 0.368081,-19.46189 4.361807,-1.24936 c 3.002067,-0.85989 5.447991,-0.75446 7.846092,0.33818 3.256671,1.48384 3.433019,2.0204 2.69952,8.21365 -0.431619,3.64435 -0.204815,11.73002 0.504011,17.96815 1.102166,9.6998 0.974554,11.82162 -0.881342,14.65407 -2.505829,3.82437 -3.40058,3.91943 -10.231502,1.08684 z m 35.622921,0.33476 c -2.265901,-1.65503 -2.693223,-4.18688 -3.431829,-20.33333 -0.932467,-20.38435 -0.473139,-21.77626 7.18615,-21.77626 8.679286,0 8.990839,0.76512 8.990839,22.07991 V 156.066 l -3.420133,1.30033 c -4.597759,1.74807 -6.268619,1.64233 -9.325027,-0.59008 z M 125,157.22653 c -2.0331,-1.18417 -2.33333,-3.59208 -2.33333,-18.71377 0,-9.54511 0.57869,-18.43603 1.28598,-19.75761 1.82188,-3.40423 9.07651,-4.59448 12.86675,-2.11102 3.25709,2.13413 3.17428,0.72638 2.01743,34.2932 -0.15576,4.5196 -0.59319,5.0548 -5.17016,6.32589 -5.98915,1.66327 -5.74625,1.6643 -8.66667,-0.0367 z m -38.886727,-2.43471 c -2.02359,-2.23604 -2.20215,-4.59973 -1.485677,-19.66666 0.730401,-15.35979 1.111348,-17.3758 3.695419,-19.55647 2.171672,-1.83266 4.043542,-2.21323 7.602206,-1.54562 2.596626,0.48713 5.173039,1.16498 5.725369,1.50634 1.61447,0.9978 0.29586,35.50028 -1.48384,38.82568 -2.096478,3.91731 -10.662686,4.18352 -14.053477,0.43673 z M 35.274613,57.333332 C 16.666163,56.620039 12.973351,55.426622 8.5673947,48.702283 4.4983771,42.492178 9.395774,32.34767 18.248499,28.648765 c 4.224372,-1.765055 41.343154,-2.674692 94.418171,-2.313822 7.8815,0.05359 15.32988,1.465311 17.69677,3.354146 1.8524,1.478262 0.90925,6.34156 -1.54315,7.95716 -0.81783,0.53877 -24.66349,0.98877 -52.990363,1 -42.203054,0.01673 -51.779804,0.353454 -53.034032,1.864706 -1.190792,1.434817 -1.005018,2.082031 0.836741,2.915091 1.302049,0.588941 25.325949,1.22463 53.386441,1.412642 58.001253,0.388623 59.725633,0.168272 62.846243,-8.030858 1.83823,-4.829784 1.78836,-5.017037 -2.52012,-9.462249 -3.5208,-3.632548 -5.75021,-4.685679 -11.20366,-5.292399 C 122.39703,21.63659 95.033333,21.801618 65.333333,22.419912 23.465537,23.291514 10.928094,23.17936 9.5296285,21.920717 7.0480503,19.687254 8.8103209,14.799513 12.619311,13.351338 c 1.681786,-0.639414 20.080445,-1.170219 40.885908,-1.179567 20.805462,-0.0093 44.050786,-0.383707 51.656271,-0.831907 23.14785,-1.3641317 42.8478,3.203441 46.96052,10.888122 2.56211,4.787333 2.2009,18.063141 -0.6081,22.350221 -3.26682,4.985783 -11.12363,9.605788 -19.51391,11.474661 -7.78245,1.733484 -65.108841,2.49238 -96.725387,1.280464 z"
       id="path219" />
  </g>
</svg>
