<?xml version="1.0" encoding="UTF-8" standalone="no"?>
<!-- Created with Inkscape (http://www.inkscape.org/) -->

<svg
   version="1.1"
   id="svg52"
   width="160"
   height="156"
   viewBox="0 0 160 156"
   xmlns="http://www.w3.org/2000/svg"
   xmlns:svg="http://www.w3.org/2000/svg">
  <defs
     id="defs56" />
  <g
     id="g58">
    <path
       style="fill:#000000;stroke-width:1.33333"
       d="m 30.874507,148.09465 c -17.388112,-0.76686 -17.864792,-0.86912 -20.9904809,-4.50294 -1.7590765,-2.04506 -3.5741558,-5.21572 -4.0335096,-7.04594 -1.1594002,-4.61941 2.0850507,-12.37857 6.5798845,-15.73589 3.663436,-2.73633 5.204244,-2.81971 58.86172,-3.18534 49.095929,-0.33455 55.332709,-0.14257 57.237179,1.7619 2.54425,2.54425 2.81484,8.02091 0.4707,9.52702 -1.99657,1.2828 -12.00415,1.94641 -23,1.52515 -4.4,-0.16857 -10.7,-0.28017 -14,-0.248 -3.3,0.0322 -20.054439,0.18158 -37.232085,0.33202 -17.177647,0.15044 -31.862916,0.66341 -32.633932,1.13992 -0.771018,0.47652 2.783421,1.57634 7.89875,2.44405 14.02214,2.37856 97.123897,1.04887 102.846467,-1.64564 5.25253,-2.47318 6.66707,-7.22713 3.66341,-12.31192 -3.51776,-5.95509 -8.57841,-6.9517 -34.12782,-6.72087 -67.655942,0.61125 -91.243283,0.46114 -92.7481233,-0.59024 -1.9744358,-1.37948 -2.2258576,-7.00162 -0.3645555,-8.15197 2.8518738,-1.76255 10.8482678,-2.55028 28.0312218,-2.76138 97.417557,-1.19679 98.299297,-1.16595 106.401427,3.72183 5.67277,3.42222 7.76857,6.87994 8.85824,14.61464 1.7228,12.22891 -3.24336,21.01522 -14.49508,25.64526 -4.35824,1.79338 -12.28866,2.22292 -47.333328,2.56368 -23.153859,0.22514 -50.104397,0.0563 -59.890085,-0.37534 z M 22.034063,46.721781 c -1.665551,-2.694917 4.548208,-7.768893 11.579826,-9.455752 7.245579,-1.738188 6.562886,-3.875205 -1.249818,-3.912278 -3.15731,-0.01499 -4.897363,0.887312 -6.537007,3.389724 C 22.96974,41.104301 14.176001,45.611733 9.5653499,45.078787 6.651272,44.741948 5.9256324,43.901292 5.5928789,40.476667 5.2581328,37.031535 5.9642396,35.73234 9.5648443,33.168483 16.995185,27.877613 33.469037,20.145023 35.794151,20.856821 c 1.213217,0.371408 6.581468,2.84134 11.929446,5.488739 9.349895,4.628456 10.246658,4.807775 23.333334,4.665785 7.485354,-0.08122 23.809736,-0.254114 36.276399,-0.384221 13.51068,-0.141001 23.0046,-0.779 23.50325,-1.579437 1.40713,-2.25874 -0.27949,-6.146122 -3.61477,-8.331484 -4.20839,-2.757446 -7.58085,-9.484484 -6.48531,-12.9362378 0.78603,-2.4765356 1.56391,-2.6641307 7.73537,-1.8654684 6.59548,0.8535353 11.41705,4.2787302 11.49848,8.1683982 0.0537,2.569405 5.1522,11.84637 8.74769,15.917105 5.35785,6.066063 7.12964,10.218699 5.83108,13.666667 -1.51379,4.019422 3.36507,3.883468 -58.129116,1.619829 -32.353072,-1.190936 -36.827852,-1.101716 -41.657129,0.830579 -3.590548,1.436652 -7.319772,1.900221 -11.086671,1.378153 -7.590653,-1.052015 -7.459399,-1.051497 -14.502449,-0.05719 -4.162794,0.587691 -6.477308,0.355495 -7.139692,-0.716265 z"
       id="path80" />
  </g>
</svg>
