<?xml version="1.0" encoding="UTF-8" standalone="no"?>
<!-- Created with Inkscape (http://www.inkscape.org/) -->

<svg
   version="1.1"
   id="svg2"
   width="160"
   height="184"
   viewBox="0 0 160 184"
   xmlns="http://www.w3.org/2000/svg"
   xmlns:svg="http://www.w3.org/2000/svg">
  <defs
     id="defs6" />
  <g
     id="g8">
    <path
       style="fill:#000000;stroke-width:1.33333"
       d="m 74.095239,173.90476 c -2.63669,-2.63669 -2.640811,-4.53249 -0.018,-8.27709 2.989981,-4.2688 1.377262,-5.63023 -6.484312,-5.47395 -3.809446,0.0757 -9.18333,-0.29599 -11.941964,-0.82601 -4.681772,-0.89955 -5.349479,-0.59856 -10.029178,4.52096 -6.261996,6.85052 -9.692588,7.04993 -13.078496,0.76018 -1.398806,-2.59846 -3.743289,-4.96081 -5.209956,-5.24966 -8.328037,-1.64019 -10.004328,-2.22066 -11.906764,-4.1231 -2.689996,-2.69 -2.69648,-9.07558 -0.01147,-11.30394 1.689969,-1.40255 3.31146,-1.41255 8.61574,-0.0531 7.833201,2.00756 9.30249,1.31928 9.30249,-4.35777 0,-5.65958 -2.067921,-7.52131 -8.354321,-7.52131 -7.156673,0 -10.052553,-1.92596 -11.072764,-7.36415 -0.89479,-4.76964 0.993412,-8.84278 3.938288,-8.49548 0.818839,0.0966 3.15676,0.1045 5.19538,0.0176 L 26.7465,116 23.774308,111.97989 c -2.818229,-3.81185 -2.852636,-4.13966 -0.664197,-6.3281 1.928257,-1.92825 4.330238,-2.23491 14.598942,-1.8638 6.76002,0.24431 13.040947,1.06542 13.957614,1.82469 2.325593,1.9263 2.077384,5.05684 -0.638915,8.05832 -2.192175,2.42232 -2.175779,2.62424 0.333333,4.10499 4.541646,2.68023 7.675315,3.28746 17.672248,3.42444 l 9.7,0.1329 0.809471,-4.04735 c 1.581701,-7.90851 8.545872,-8.17921 11.772169,-0.4576 l 1.88229,4.50495 h 12.671967 c 17.49496,0 23.14996,-2.9177 16.79744,-8.66666 -3.01415,-2.72777 -3.43384,-6.03283 -1.06667,-8.4 2.55545,-2.55546 13.63693,-1.97867 17.18512,0.89447 2.97104,2.4058 2.99999,2.61744 0.81439,5.95309 -3.54491,5.41021 -2.91842,6.25749 3.9326,5.31845 5.11196,-0.70067 6.51458,-0.41775 8,1.61368 0.99068,1.35483 1.80122,2.92527 1.80122,3.48987 0,2.0507 -5.90665,6.46377 -8.65141,6.46377 -4.01443,0 -6.01525,2.52795 -6.01525,7.6 v 4.4 h 7.25464 c 3.99005,0 7.5111,0.45 7.82456,1 0.31345,0.55 -0.11907,3.39523 -0.96106,6.32273 -1.03649,3.60359 -2.37941,5.45058 -4.15789,5.71858 -7.85801,1.18413 -8.62692,1.66401 -8.62692,5.38409 0,7.06939 -5.96193,9.25287 -10.27902,3.76457 -1.84355,-2.34369 -4.37956,-3.38162 -9.96868,-4.07993 -4.82973,-0.60344 -7.8068,-0.43388 -8.36956,0.47669 -0.4804,0.7773 -2.93804,1.41327 -5.46143,1.41327 -4.67582,0 -5.99375,2.06089 -3.14176,4.91288 2.89334,2.89335 0.78962,7.67336 -4.112883,9.3452 -7.07983,2.41433 -22.018582,2.19953 -24.571428,-0.35332 z M 77,145.82628 c 3.50854,-0.94025 4.102011,-5.91851 1.011344,-8.48353 -1.093761,-0.90774 -6.343761,-1.88947 -11.666667,-2.18162 -5.322905,-0.29213 -10.930998,-0.80998 -12.462428,-1.15077 -4.290508,-0.95477 -7.517441,2.14553 -6.996633,6.72205 0.445863,3.91796 0.4919,3.93739 11.114384,4.68975 5.866667,0.41552 11.866667,0.85733 13.333333,0.9818 C 72.8,146.52836 75.35,146.26847 77,145.82628 Z m 48,-2.14593 c 1.90723,-1.53364 2.16497,-6.16302 0.49023,-8.80547 -0.85797,-1.35375 -3.21618,-1.5772 -9.64624,-0.91407 -4.68086,0.48275 -11.22996,1.02287 -14.55355,1.20026 -7.4211,0.3961 -9.29044,1.46606 -9.29044,5.31762 0,5.7388 2.241436,6.44454 17.33333,5.45748 7.7,-0.5036 14.75,-1.51872 15.66667,-2.25582 z m 15.2098,-53.104381 c -2.45128,-0.526002 -5.08421,-1.58371 -5.85096,-2.350462 -1.86084,-1.860843 -1.65591,-27.222898 0.24872,-30.781742 1.15303,-2.15443 2.77471,-2.777098 7.23271,-2.777098 8.64822,0 9.85621,2.133222 10.193,18 0.15565,7.333333 0.21185,14.024638 0.1248,14.869566 -0.24511,2.381166 -7.00407,4.100691 -11.94834,3.039736 z M 9.6666667,81.783625 C 6.8173468,80.6339 7.9368617,74.200277 11.763865,69.731459 c 7.300432,-8.524767 23.301243,-12.351871 32.264111,-7.716992 4.676472,2.418298 10.638691,10.776968 10.638691,14.914801 0,1.6373 -1.160555,3.598019 -2.579012,4.357153 -2.567188,1.373918 -39.184638,1.8031 -42.4209883,0.497204 z M 74,45.761021 C 64.093612,45.215169 49.665565,42.609683 41.04206,39.809319 31.310901,36.649259 28.443511,36.697299 20.63538,40.151205 14.637093,42.804533 14.004335,42.844721 9.7992229,40.839444 5.9841021,39.02014 5.3333333,38.02664 5.3333333,34.021572 c 0,-6.071487 3.3718408,-9.367296 10.7971517,-10.553689 C 19.358719,22.952085 25,20.522525 28.666667,18.06886 32.333333,15.615196 38.033333,12.69827 41.333333,11.586803 50.854025,8.380156 65.514007,5.2876173 66.959445,6.1809473 67.686461,6.6302681 73.168003,7.77752 79.140647,8.7303957 94.296064,11.148291 107.08232,15.017595 120.66667,21.29676 c 6.95417,3.214464 12.07712,4.671396 30.31302,8.620813 4.24764,0.919927 6.04232,5.68141 3.75344,9.958239 -1.95316,3.649499 -8.38001,3.685763 -15.82385,0.08929 -8.10119,-3.914074 -13.03635,-4.61777 -16.56037,-2.36132 -1.65857,1.061988 -6.01558,2.67347 -9.68224,3.58107 C 109,42.092456 103.9,43.366431 101.33333,44.015911 95.65766,45.452107 83.027825,46.258465 74,45.761021 Z m 31.97482,-12.416894 c 3.40775,-1.46073 5.90717,-3.11073 5.55428,-3.666667 -0.3529,-0.555936 -2.74137,-2.128381 -5.30772,-3.494324 l -4.6661,-2.483529 -8.173116,5.044734 c -4.495215,2.774606 -8.480563,5.542194 -8.856331,6.150198 -1.421946,2.300758 15.281246,1.09339 21.448987,-1.550412 z M 50.666667,32.74288 c 0,-2.469729 -6.066687,-10.076213 -8.036463,-10.076213 -2.380439,0 -7.274655,3.799993 -6.234232,4.840416 2.538809,2.538809 14.270695,6.843138 14.270695,5.235797 z"
       id="path1222" />
  </g>
</svg>
