<?xml version="1.0" encoding="UTF-8" standalone="no"?>
<!-- Created with Inkscape (http://www.inkscape.org/) -->

<svg
   version="1.1"
   id="svg12"
   width="57.333332"
   height="153.33333"
   viewBox="0 0 57.333332 153.33333"
   xmlns="http://www.w3.org/2000/svg"
   xmlns:svg="http://www.w3.org/2000/svg">
  <defs
     id="defs16" />
  <g
     id="g18">
    <path
       style="fill:#000000;stroke-width:1.33333"
       d="M 23.232655,147.94844 C 17.926397,145.98552 16.307042,141.22418 14.941502,123.57022 13.649349,106.86502 14.53542,85.930841 17.365188,66.308587 19.498296,51.517131 19.053133,43.08141 15.915506,38.837543 14.402369,36.790915 12.711646,31.780427 12.158344,27.703125 11.368791,21.884881 10.321489,19.575181 7.2907658,16.968264 3.9073416,14.057964 3.6117392,13.246027 4.9034616,10.411005 6.9203728,5.9843673 14.367065,3.9951688 28.821359,4.0219338 c 9.812645,0.01817 12.760509,0.5391566 17.17864,3.0360419 6.747541,3.8133403 7.689128,8.0000613 2.412833,10.7285403 -5.598341,2.895014 -7.960677,6.237866 -8.932954,12.640683 -0.481111,3.168294 -1.790792,7.158599 -2.910406,8.867344 -1.737251,2.651381 -1.83823,5.380073 -0.688849,18.614448 0.740747,8.529201 1.668645,16.028375 2.061997,16.664833 0.393352,0.636457 0.740176,13.667715 0.770719,28.958356 0.04949,24.77842 -0.239961,28.59643 -2.662236,35.11566 -1.494774,4.02298 -2.71777,7.41429 -2.71777,7.53624 0,1.15772 -7.97487,2.55074 -10.100678,1.76436 z"
       id="path1083" />
  </g>
</svg>
