<?xml version="1.0" encoding="UTF-8" standalone="no"?>
<!-- Created with Inkscape (http://www.inkscape.org/) -->

<svg
   version="1.1"
   id="svg22"
   width="162.66667"
   height="166.66667"
   viewBox="0 0 162.66667 166.66667"
   xmlns="http://www.w3.org/2000/svg"
   xmlns:svg="http://www.w3.org/2000/svg">
  <defs
     id="defs26" />
  <g
     id="g28">
    <path
       style="fill:#000000;stroke-width:1.33333"
       d="m 144.87332,158.89502 c -1.21366,-1.34108 -2.20665,-2.9004 -2.20665,-3.46516 0,-2.09727 -4.34585,-10.09652 -5.48525,-10.09652 -0.64978,0 -2.38142,1.2 -3.84808,2.66666 -3.25475,3.25475 -4.48795,3.32159 -7.40805,0.40148 -2.13136,-2.13136 -2.56499,-2.09264 -7.33972,0.65535 l -5.07454,2.92053 -3.94799,-3.32201 c -4.50218,-3.78833 -6.89637,-4.23737 -6.89637,-1.29343 0,1.11572 -1.53717,2.72896 -3.415923,3.58499 -3.054441,1.39169 -3.727618,1.16549 -6.361388,-2.13757 l -2.945466,-3.69396 -2.51193,2.77564 c -3.021764,3.33901 -6.382305,3.52489 -10.846369,0.59992 -3.070834,-2.01208 -3.501414,-2.01208 -5.724745,0 -3.283033,2.9711 -6.765836,2.72982 -10.44158,-0.72335 l -3.085934,-2.89909 -3.000001,2.70073 c -1.65,1.4854 -3.7376,3.11773 -4.63911,3.62741 -2.187787,1.23688 -7.027556,-1.45602 -7.027556,-3.91021 0,-2.83245 -3.082827,-2.39459 -5.023903,0.71357 -2.31457,3.70622 -7.252532,3.32914 -10.868844,-0.83 l -3.040309,-3.49665 -3.403338,7.52225 c -2.484622,5.49166 -4.304014,7.74832 -6.739842,8.35967 -4.2717559,1.07215 -7.4862271,-0.953 -7.9730347,-5.02308 -0.4746105,-3.96811 11.9171447,-31.96419 14.9752287,-33.8328 2.256958,-1.37909 5.545108,1.39826 9.599973,8.10868 1.302571,2.15562 1.934223,2.2813 4.315242,0.8586 4.119629,-2.46156 8.195732,-2.03214 10.959569,1.15459 l 2.446866,2.82126 4.145162,-3.48793 c 4.734311,-3.98366 6.912574,-4.33314 9.273897,-1.48792 2.076288,2.50177 4.029392,2.51835 8.740528,0.0742 3.89758,-2.02209 6.683311,-1.31489 9.849833,2.50054 1.521396,1.83317 2.065724,1.76941 5.070152,-0.59387 4.239316,-3.33465 5.456599,-3.31549 9.138885,0.14384 l 2.971266,2.79136 4.114671,-3.04211 4.11467,-3.04211 3.92719,2.90351 c 4.05302,2.99653 7.32461,2.80425 8.59453,-0.50511 1.02759,-2.67784 4.47629,-2.35422 8.48092,0.79582 l 3.42325,2.69274 3.24179,-5.43625 c 2.64261,-4.43148 3.88028,-5.36043 6.69632,-5.02607 2.78316,0.33047 3.94529,1.7058 5.97977,7.07685 2.25001,5.94003 5.91629,14.31307 9.18729,20.98191 1.8803,3.83351 1.28895,7.50887 -1.44341,8.97119 -3.72804,1.99518 -6.04395,1.7085 -8.54767,-1.05808 z M 49.263693,123.08177 c -1.871637,-0.29774 -5.851376,-2.77939 -8.843864,-5.5148 -4.427712,-4.04733 -5.734955,-6.38997 -7.020063,-12.5803 C 32.531221,100.80291 31.110959,96.919371 30.24363,96.356585 29.376301,95.793798 24.766667,94.729734 20,93.991999 l -8.666666,-1.341336 -0.399785,-6.163641 c -0.557073,-8.588619 1.631533,-10.51125 10.878925,-9.556834 6.810401,0.702895 7.188017,0.577479 7.999808,-2.656951 1.587009,-6.323153 -0.03967,-7.762204 -8.431908,-7.459358 -4.190256,0.151212 -8.248568,-0.114383 -9.018471,-0.59021 -2.6532889,-1.639822 -3.2357259,-7.708913 -1.05867,-11.03152 1.843135,-2.81298 3.097973,-3.192148 10.564245,-3.192148 10.354711,0 10.894419,-0.545529 15.67264,-15.841679 C 43.379286,17.465844 46.940468,7.4456671 48.401082,5.5985796 50.188125,3.3386938 57.450092,4.0912601 58.7077,6.6666668 62.833119,15.11495 65.668687,22.545255 69.293535,34.405725 71.60298,41.962205 74.206708,48.361053 75.079598,48.625386 86.134984,51.973233 90.993237,49.5347 92.523783,39.869515 93.446223,34.044445 97.37281,21.67771 100.73767,14 c 2.36463,-5.3954681 6.84553,-9.9999999 9.73148,-9.9999999 3.83091,0 8.86064,6.7453539 11.43344,15.3333339 1.31816,4.4 2.85075,8.6 3.40575,9.333333 0.55501,0.733334 1.75289,4.505683 2.66195,8.382998 2.26988,9.681392 3.88778,10.950336 13.96169,10.950336 9.63774,0 11.66802,1.486379 11.66802,8.542192 0,6.437964 -0.96873,7.439051 -7.34536,7.590715 -7.95798,0.189276 -12.1714,1.624484 -12.69106,4.32294 -0.87286,4.532352 2.37708,6.469216 9.2653,5.521844 10.22658,-1.406513 11.83779,-0.33868 11.83779,7.845494 0,3.837248 -0.72,7.696816 -1.6,8.576816 -0.88,0.88 -4.6996,1.6 -8.48801,1.6 h -6.88802 l -2.93392,8.333338 c -4.59499,13.0513 -7.06735,17.06567 -12.09005,19.63063 -10.88076,5.55651 -22.30065,4.19642 -27.170536,-3.23596 -1.953283,-2.98109 -5.199773,-12.45515 -6.760224,-19.728008 -0.674015,-3.141408 -1.447182,-3.666667 -5.39724,-3.666667 -5.400102,0 -7.426578,2.559668 -10.028139,12.666665 -3.141271,12.20376 -12.576874,18.90638 -24.046838,17.08177 z M 85.913202,76.033003 c 2.63088,-1.000259 3.420133,-2.231015 3.420133,-5.333334 0,-3.701874 -0.3742,-4.033001 -4.557617,-4.033001 -6.793858,0 -8.775716,1.18648 -8.775716,5.253763 0,1.99932 0.4,4.035127 0.888889,4.524015 1.270285,1.270286 5.054867,1.097737 9.024311,-0.411443 z"
       id="path944" />
  </g>
</svg>
