<?xml version="1.0" encoding="UTF-8" standalone="no"?>
<!-- Created with Inkscape (http://www.inkscape.org/) -->

<svg
   version="1.1"
   id="svg32"
   width="162.66667"
   height="158.66667"
   viewBox="0 0 162.66667 158.66667"
   xmlns="http://www.w3.org/2000/svg"
   xmlns:svg="http://www.w3.org/2000/svg">
  <defs
     id="defs36" />
  <g
     id="g38">
    <path
       style="fill:#000000;stroke-width:1.33333"
       d="m 41.897918,150.80611 c -3.390305,-1.53981 -6.541581,-4.34347 -8.375339,-7.45145 -2.589222,-4.38842 -3.372301,-4.8705 -6.564584,-4.04138 -8.617143,2.23812 -16.354325,2.28547 -19.6587879,0.12027 -4.6018801,-3.01523 -4.5841201,-10.22929 0.034126,-13.862 4.0379949,-3.17629 4.0510729,-3.3754 0.5341632,-8.13227 -2.3183431,-3.13573 -2.5333235,-4.28282 -1.2515239,-6.67789 1.2831563,-2.3976 2.7299527,-2.89098 8.4658376,-2.88701 3.805005,0.003 9.245276,-0.11803 12.089491,-0.26813 7.865833,-0.41512 9.354274,3.01556 3.796272,8.74996 -2.365499,2.44058 -4.300906,4.84665 -4.300906,5.34684 0,0.50018 2.415404,2.14167 5.367566,3.64775 3.02982,1.5457 7.441898,5.62565 10.130323,9.36774 6.091838,8.4794 9.45091,9.37272 18.345717,4.87892 3.752684,-1.89592 9.523062,-4.14194 12.823062,-4.99114 14.293177,-3.67813 17.340114,-3.42811 45.333335,3.71991 9.33176,2.38284 17.59771,3.59136 24.78948,3.62432 11.37199,0.0521 15.21052,1.60812 15.21052,6.1658 0,4.77813 -4.65844,5.63516 -25.25024,4.64536 -10.67904,-0.51332 -23.8179,-1.48649 -29.19748,-2.16261 -7.207676,-0.90588 -13.495377,-0.70791 -23.898755,0.75246 -19.288564,2.70763 -31.645997,2.5322 -38.422277,-0.54545 z m 38.76875,-50.68733 c -2.2,-0.536663 -17.863328,-0.696261 -34.807396,-0.354661 -30.135032,0.607541 -30.869798,0.558691 -33.666667,-2.23818 -3.319727,-3.319726 -3.5647974,-5.384728 -1.047596,-8.827205 1.34923,-1.845183 3.617747,-2.505836 8.887134,-2.588174 3.891501,-0.06081 7.295119,-0.76717 7.563592,-1.569697 0.268475,-0.802525 -2.200485,-2.885448 -5.486577,-4.628715 -6.945,-3.684314 -10.046771,-8.25699 -7.913103,-11.665615 2.472736,-3.950298 7.6329,-3.193036 21.751152,3.192015 10.148107,4.589534 16.017282,6.413064 22.251616,6.913498 l 8.467845,0.679717 V 72.22946 c 0,-8.594379 1.603456,-9.562792 15.833656,-9.562792 11.975583,0 12.409391,0.300695 13.46509,9.333334 0.634993,5.433066 1.066175,6.041645 4.563296,6.440749 4.20599,0.480001 18.13786,-4.098169 23.47129,-7.712932 11.85716,-8.036258 21.65439,-10.406178 24.86539,-6.014868 3.94828,5.399601 1.28763,11.299767 -6.57752,14.586037 -5.44369,2.274516 -7.89407,5.056984 -4.10028,4.655976 8.61719,-0.910846 12.47908,1.800116 12.47908,8.760031 0,2.94606 -0.81403,4.9587 -2.33333,5.769067 -1.28334,0.684503 -13.19174,1.236712 -26.46311,1.227132 -13.27138,-0.0096 -27.071381,0.297746 -30.666671,0.682956 -3.595289,0.38521 -8.336891,0.26129 -10.536891,-0.27537 z M 142.76344,41.820189 C 141.24355,39.88796 140,37.530817 140,36.582094 c 0,-0.948723 -0.93425,-2.659199 -2.0761,-3.801059 -1.87926,-1.879254 -2.39563,-1.866748 -5.44595,0.131894 -2.89461,1.896621 -4.03074,1.969013 -8.05635,0.513333 -3.41007,-1.233095 -5.08623,-1.294957 -6.15406,-0.227131 -1.95083,1.950826 -8.33015,1.867371 -11.5625,-0.151262 -2.1778,-1.360062 -3.09437,-1.146951 -5.73451,1.333333 -4.047907,3.802813 -6.446043,3.725259 -10.257376,-0.33172 l -3.085019,-3.283852 -3.327212,2.617185 c -4.049105,3.185028 -6.064015,3.270704 -10.381996,0.441454 -3.070834,-2.012087 -3.501414,-2.012087 -5.724744,0 -3.095491,2.80138 -7.984527,2.778766 -11.111822,-0.0514 -2.310717,-2.091171 -2.625527,-2.050474 -5.156928,0.666666 -2.917555,3.131628 -6.640463,3.675314 -10.612087,1.549764 -1.842404,-0.986025 -3.818552,-0.720665 -7.418893,0.996218 -4.841528,2.308764 -4.934314,2.299938 -6.896964,-0.65597 -2.297932,-3.460866 -4.330822,-3.908849 -4.330822,-0.954366 0,1.123014 -0.9,2.387208 -2,2.809318 -1.1,0.42211 -2,1.536505 -2,2.476433 0,2.491668 -9.0561669,3.895616 -11.585899,1.796125 C 5.5275605,41.168009 5.2170158,39.179203 5.8001425,34.255611 6.5411107,27.999294 13.507439,10.500106 16.672262,6.9452057 c 2.097305,-2.3558079 8.15014,0.011173 9.300992,3.6371893 0.477457,1.504334 1.750227,3.617276 2.828377,4.695427 1.72481,1.724809 2.27758,1.642968 4.601891,-0.681343 2.436667,-2.436667 2.94086,-2.486873 6.498585,-0.647101 2.121334,1.096984 4.146451,2.75714 4.500262,3.689236 0.436461,1.149836 1.778616,0.515818 4.174421,-1.971947 4.177086,-4.337418 5.502024,-4.476143 10.607105,-1.110597 3.786684,2.496386 3.895918,2.496241 6.584749,-0.0088 3.630905,-3.382704 8.271396,-3.226037 10.78606,0.364148 1.843188,2.63152 2.363216,2.738048 5.408939,1.108026 1.853331,-0.991857 3.369692,-2.302002 3.369692,-2.911417 0,-1.847236 4.547514,-1.242838 7.80244,1.037001 2.868756,2.009355 3.228139,1.967188 5.681948,-0.666666 3.388667,-3.6373035 5.897337,-3.5511827 9.784407,0.33589 l 3.14759,3.147587 4.28483,-2.712961 c 3.56008,-2.254087 4.93327,-2.4682 8.11858,-1.265881 3.4895,1.317138 4.08667,1.091891 6.65031,-2.508413 2.22755,-3.1282982 3.65448,-3.8703533 6.82331,-3.5483716 3.51512,0.357168 4.70363,1.7182271 9.68636,11.0927396 6.28619,11.826841 8.37137,20.254555 6.07365,24.547897 -2.0811,3.888564 -7.26378,3.524299 -10.62332,-0.74666 z"
       id="path805" />
  </g>
</svg>
