<?xml version="1.0" encoding="UTF-8" standalone="no"?>
<!-- Created with Inkscape (http://www.inkscape.org/) -->

<svg
   version="1.1"
   id="svg42"
   width="161.33333"
   height="161.33333"
   viewBox="0 0 161.33333 161.33333"
   xmlns="http://www.w3.org/2000/svg"
   xmlns:svg="http://www.w3.org/2000/svg">
  <defs
     id="defs46" />
  <g
     id="g48">
    <path
       style="fill:#000000;stroke-width:1.33333"
       d="M 8.3333332,155.11696 C 5.8753368,154.12513 6.3005433,148.73585 9.4539385,140.91384 10.986938,137.11122 13.339866,131.3 14.682669,128 c 1.342803,-3.3 2.784405,-7.08833 3.203561,-8.4185 1.060171,-3.3644 8.877947,-2.57526 10.750401,1.08516 3.122355,6.10383 3.409495,6.27647 6.773256,4.07245 4.31728,-2.82879 8.237332,-2.60115 10.232876,0.59422 C 46.558711,126.8 47.970803,128 48.780744,128 c 0.809942,0 2.558607,-1.2 3.885922,-2.66667 3.151956,-3.48287 8.003429,-3.39769 10.512551,0.18459 l 1.997095,2.85125 4.180811,-3.51792 c 5.152075,-4.33519 5.796157,-4.34829 9.071329,-0.18459 3.167149,4.02638 5.697728,4.23916 7.928782,0.66667 2.108391,-3.37607 4.378479,-3.37607 8.002264,0 C 95.933781,126.8 97.753925,128 98.404263,128 c 0.650339,0 2.268417,-1.2 3.595737,-2.66667 3.08028,-3.40367 4.43047,-3.3534 8.33018,0.31019 3.07795,2.89158 3.28402,2.91068 7.19399,0.66667 4.93674,-2.83331 6.99066,-2.90299 9.14249,-0.31019 2.50391,3.01702 3.65476,2.4939 7.33334,-3.33334 5.3711,-8.50839 8.80641,-6.79742 14.94953,7.44569 1.87109,4.33821 4.22289,9.77833 5.22623,12.08915 2.34778,5.4073 2.31394,9.06555 -0.1024,11.07092 -3.86426,3.20706 -7.80686,1.05612 -11.35382,-6.19422 -3.70912,-7.5818 -5.22446,-8.44511 -7.74348,-4.41154 -1.97328,3.15975 -6.54477,3.47031 -9.65466,0.6559 -1.99167,-1.80244 -2.54175,-1.73336 -5.309,0.66666 -3.65517,3.17012 -8.3625,3.46875 -10.67907,0.67744 -0.91292,-1.1 -2.41292,-2 -3.33333,-2 -0.92042,0 -2.42042,0.9 -3.33334,2 -2.49331,3.00426 -8.971971,2.57235 -9.999995,-0.66666 -1.002816,-3.1596 -3.683827,-3.45748 -6,-0.66667 -0.912919,1.1 -3.405216,2 -5.53844,2 -2.217644,0 -4.207244,-0.85647 -4.646059,-2 -1.081626,-2.81868 -4.157371,-2.48389 -6.124931,0.66667 -2.157764,3.45513 -5.09751,3.37469 -9.726075,-0.26615 l -3.728463,-2.9328 -1.947311,2.9328 c -2.282267,3.43728 -9.273228,4.05993 -10.473219,0.93281 -0.949271,-2.47376 -5.306477,-2.62404 -6.749248,-0.23278 -2.074754,3.4387 -5.577046,3.52512 -9.488214,0.23409 l -3.827503,-3.22064 -2.875268,3.88901 c -1.581397,2.13895 -2.875268,4.42031 -2.875268,5.06968 0,1.83136 -4.657144,5.60616 -6.771654,5.48871 -1.042257,-0.0579 -2.6450122,-0.40789 -3.5616788,-0.77777 z M 56.62464,97.938014 C 51.468192,96.997609 43.688987,94.976843 39.337518,93.447425 29.948229,90.147355 27.259383,90.026279 22.180924,92.674879 17.221186,95.261561 10.120772,95.222039 7.9410372,92.595619 5.4408618,89.583091 5.8050236,82.594272 8.5674212,80.574357 9.8572807,79.631189 13.281416,78.4593 16.17661,77.97016 c 2.895195,-0.48914 8.366511,-2.977188 12.158481,-5.528995 3.79197,-2.551808 10.475496,-5.87893 14.852279,-7.393608 7.057498,-2.442394 9.778353,-2.651069 24.050021,-1.844512 18.690357,1.056279 30.871508,3.887376 49.429269,11.488165 12.19848,4.996184 22.67952,8.437326 31.33334,10.287364 4.66764,0.997863 6.66666,2.872359 6.66666,6.251351 0,5.405249 -5.8495,7.876764 -11.68476,4.937004 -9.42268,-4.74708 -14.0968,-6.833598 -15.30834,-6.833598 -0.77427,0 -4.46757,1.488515 -8.20733,3.307811 -14.06456,6.842039 -41.629324,9.165458 -62.84159,5.296872 z M 104.37262,87.93495 c 3.48666,-0.877949 6.63623,-2.076596 6.99905,-2.663657 1.11425,-1.802888 -6.88925,-6.607876 -10.91083,-6.55044 -2.215635,0.03164 -5.714755,1.695816 -8.410477,4 -2.538965,2.170196 -5.324771,3.945812 -6.190681,3.945812 -0.865909,0 -1.921796,0.905349 -2.346413,2.011887 -0.647723,1.687938 0.459105,1.918559 6.873973,1.432278 4.205304,-0.318784 10.498728,-1.297931 13.985378,-2.17588 z M 51.999999,87.210304 c 0,-0.434332 -1.2,-2.315247 -2.666667,-4.179811 -1.466666,-1.864565 -2.666666,-4.209203 -2.666666,-5.210307 0,-2.352592 -5.426834,-2.354089 -8.642983,-0.0024 -2.385302,1.744176 -2.355121,1.900298 0.74516,3.854496 7.951124,5.011843 13.231156,7.221843 13.231156,5.538022 z M 7.6666665,39.893201 C 4.632623,38.126033 4.69502,32.987214 7.8696796,23.173696 10.8674,13.907133 13.820068,8.0247397 16.245804,6.4865359 c 3.60161,-2.2838485 8.824138,-1.20945 11.415947,2.3485329 2.420151,3.3223322 2.793923,3.4138352 7.295547,1.7860262 4.309228,-1.5582371 5.084207,-1.4486609 8.443636,1.193867 l 3.698926,2.909576 2.869338,-2.695602 c 3.599669,-3.3817135 6.107914,-3.4008659 10.331127,-0.07889 2.937416,2.310572 3.62143,2.39353 5.846478,0.709071 3.269754,-2.475346 6.543537,-2.475233 10.321765,3.57e-4 2.672442,1.751052 3.354208,1.756196 5.619756,0.0424 3.186817,-2.410693 7.765197,-2.565629 11.263099,-0.381153 2.108096,1.316528 3.189054,1.316528 5.29715,0 3.489407,-2.179168 8.825077,-2.104974 10.933437,0.152034 1.38309,1.480609 2.41379,1.503293 5.71923,0.125868 3.21908,-1.341434 4.83864,-1.346742 8.03209,-0.02632 3.80055,1.571438 4.15198,1.432195 7.04807,-2.792534 5.11076,-7.4554452 14.2034,-4.8271427 16.90624,4.886893 C 147.79776,16.5 149.44629,20.7 150.95108,24 c 6.13641,13.457255 5.51453,17.333332 -2.78099,17.333332 -4.6768,0 -5.24925,-0.445586 -8.13651,-6.333333 -1.70817,-3.483333 -3.31689,-6.585698 -3.57493,-6.894146 -0.25804,-0.308447 -2.00559,0.88258 -3.88344,2.646725 l -3.41426,3.207539 -4.91381,-2.755576 C 119.4872,28.53525 119.26027,28.525437 117,30.891149 c -2.77264,2.901977 -7.3613,3.093284 -10.84964,0.452332 -2.18395,-1.65343 -2.88353,-1.647828 -5.29667,0.0424 -3.558911,2.492754 -6.820313,2.46761 -10.712413,-0.08259 -2.77436,-1.817831 -3.274349,-1.817831 -4.783015,0 -2.616149,3.152267 -9.979652,2.579804 -12.476444,-0.96996 l -2.110106,-3 -2.509553,3.156387 c -1.849211,2.325838 -3.266403,2.91617 -5.385858,2.243482 -1.581966,-0.502098 -2.876302,-1.408278 -2.876302,-2.013736 0,-2.885194 -4.54368,-2.522221 -7.431379,0.593658 -3.928038,4.238424 -7.657594,4.265669 -10.950048,0.07999 l -2.574974,-3.273549 -2.846315,3.273549 C 31.640241,36.634175 24,35.127623 24,28.987977 c 0,-3.505528 -2.194846,-1.723912 -3.284467,2.666092 -1.115961,4.496124 -5.761376,9.693782 -8.614619,9.638718 -1.155503,-0.0223 -3.1509142,-0.652113 -4.4342475,-1.399586 z"
       id="path666" />
  </g>
</svg>
