<?xml version="1.0" encoding="UTF-8" standalone="no"?>
<!-- Created with Inkscape (http://www.inkscape.org/) -->

<svg
   version="1.1"
   id="svg52"
   width="164"
   height="161.33333"
   viewBox="0 0 164 161.33333"
   xmlns="http://www.w3.org/2000/svg"
   xmlns:svg="http://www.w3.org/2000/svg">
  <defs
     id="defs56" />
  <g
     id="g58">
    <path
       style="fill:#000000;stroke-width:1.33333"
       d="m 6.3199343,152.54216 c -0.5426306,-0.54264 -0.986601,-2.80202 -0.986601,-5.02086 0,-3.15978 1.609259,-5.56821 7.4242077,-11.1111 4.083315,-3.89228 7.845119,-7.07687 8.359566,-7.07687 0.514446,0 4.449101,-2.62817 8.743677,-5.84038 10.692,-7.99728 20.001596,-9.87589 50.139216,-10.11775 12.833333,-0.10298 34.70911,-0.30454 48.61284,-0.44789 l 25.27951,-0.26065 1.9745,3.51303 c 1.77226,3.15315 1.74047,3.87022 -0.31024,7 l -2.28476,3.48697 H 102.15655 51.04124 L 42.52062,131 c -12.064136,6.13546 -12.955567,7.24616 -6.668213,8.3084 2.831493,0.47837 30.767089,0.49277 62.0791,0.032 42.947383,-0.632 57.398133,-0.45004 58.833043,0.74084 2.41106,2.001 2.46665,8.49708 0.0931,10.8707 -1.47017,1.47018 -15.64797,1.881 -75.680067,2.19295 -40.62904,0.21112 -74.3149515,-0.0601 -74.8575821,-0.60273 z M 50.577337,67.833087 c -1.044994,-1.952592 -1.337622,-10.968976 -0.9412,-29 0.571026,-25.972693 1.126242,-30.1550457 4.133622,-31.1379044 0.859965,-0.2810502 14.057853,-0.1117342 29.328638,0.3762578 33.617033,1.0742633 32.304293,0.403717 31.864823,16.2765296 -0.16728,6.041949 -0.47625,17.885362 -0.68661,26.318696 -0.21036,8.433333 -0.87934,16.400255 -1.48662,17.704273 -0.98962,2.125002 -2.92042,2.332461 -18.613739,2 L 76.666667,69.999999 V 54.145314 c 0,-13.650114 0.324446,-16.05934 2.333333,-17.326513 4.535907,-2.861176 6.925777,0.518098 7.750148,10.958699 0.412581,5.225315 1.035208,9.785632 1.383615,10.134039 1.101809,1.101809 9.897914,1.30495 11.576772,0.267358 0.885205,-0.547089 1.563495,-2.91115 1.507305,-5.253469 -0.0562,-2.34232 0.11687,-10.394432 0.38457,-17.893585 0.37957,-10.632653 0.0859,-13.788622 -1.33355,-14.333333 -2.916861,-1.119304 -34.712672,-0.804453 -35.42666,0.350804 -0.356683,0.577124 -1.079865,11.977124 -1.607073,25.333333 l -0.958562,24.284018 h -5.09137 c -3.826734,0 -5.46805,-0.703829 -6.607858,-2.833578 z"
       id="path527" />
  </g>
</svg>
