<?xml version="1.0" encoding="UTF-8" standalone="no"?>
<!-- Created with Inkscape (http://www.inkscape.org/) -->

<svg
   version="1.1"
   id="svg62"
   width="160"
   height="156"
   viewBox="0 0 160 156"
   xmlns="http://www.w3.org/2000/svg"
   xmlns:svg="http://www.w3.org/2000/svg">
  <defs
     id="defs66" />
  <g
     id="g68">
    <path
       style="fill:#000000;stroke-width:1.33333"
       d="m 68.666667,150.59097 c -2.2,-0.51817 -8.019368,-1.01312 -12.93193,-1.09989 C 43.655697,149.27775 15.797091,143.47263 9.2831659,139.8116 5.1234676,137.47372 4,136.06063 4,133.1665 c 0,-5.34844 0.6913764,-5.64088 30,-12.68952 13.244304,-3.18522 17.317433,-3.54102 42,-3.6688 29.67369,-0.15363 50.7763,2.17668 66.35352,7.32726 9.19823,3.04138 12.31315,5.39561 12.31315,9.30619 0,4.46008 -4.4634,6.7216 -22.16055,11.22828 -22.03155,5.61048 -52.973589,8.48033 -63.839453,5.92106 z M 106.2552,135.80468 c 19.4127,-1.96809 19.81516,-4.02821 1.24777,-6.38718 -13.371215,-1.69881 -39.629263,-1.3928 -62.561073,0.72908 -11.905657,1.10163 -11.12609,3.63765 1.389466,4.52009 5.200381,0.36666 9.903253,1.11666 10.450826,1.66666 1.516762,1.52348 32.496688,1.19244 49.473011,-0.52865 z M 11.254839,99.442917 C 8.9889392,97.787892 8.5616168,95.256039 7.82301,79.109584 6.8905443,58.725239 7.3498724,57.333333 15.009161,57.333333 23.688447,57.333333 24,58.098453 24,79.413247 V 98.732669 L 20.579867,100.033 c -4.597759,1.74807 -6.268619,1.64233 -9.325028,-0.590083 z m 63.078494,0.450284 C 72.300231,98.709028 72,96.301124 72,81.179424 c 0,-9.545104 0.578691,-18.436028 1.285979,-19.757608 1.821888,-3.404229 9.076512,-4.594479 12.866752,-2.111019 3.257102,2.134135 3.174286,0.726384 2.01743,34.293198 -0.155765,4.51961 -0.593181,5.054806 -5.170161,6.325897 -5.989143,1.663268 -5.746249,1.664298 -8.666667,-0.03669 z m 63.588177,-0.450284 c -2.26591,-1.655025 -2.69323,-4.186878 -3.43183,-20.333333 -0.93247,-20.384345 -0.47315,-21.776251 7.18615,-21.776251 8.67929,0 8.99084,0.76512 8.99084,22.079914 v 19.319422 l -3.42014,1.300331 c -4.59776,1.74807 -6.26861,1.64233 -9.32502,-0.590083 z M 48,37.379088 C 33.716607,36.159627 9.8823025,30.243444 6.340736,27.038371 0.67380568,21.909869 5.3435345,15.725564 16.666667,13.363337 c 4.4,-0.917926 9.033872,-2.212671 10.297494,-2.877211 1.263622,-0.6645407 8.463622,-2.1658507 16,-3.3362448 20.623506,-3.2028159 58.507029,-2.2247583 79.702509,2.0577187 3.3,0.6667544 9.40471,1.8289811 13.56602,2.5827271 12.74214,2.307998 17.49258,5.95237 16.10768,12.35723 -0.52329,2.420162 -5.76256,5.185776 -9.82409,5.185776 -1.48037,0 -3.74183,0.562072 -5.02545,1.249048 -1.28363,0.686978 -8.59419,2.536471 -16.24569,4.109986 C 105.49347,37.931667 69.805396,39.240749 48,37.379088 Z m 72,-13.822024 7.33333,-1.791391 -4.66666,-0.943601 C 107.97982,17.852388 93.894755,16.165323 83.141273,16.087844 67.690891,15.976524 45.691057,18.206948 39.083643,20.554568 L 34,22.360791 l 3.758353,0.98716 C 51.101581,26.852653 105.93822,26.992085 120,23.557064 Z"
       id="path388" />
  </g>
</svg>
