<?xml version="1.0" encoding="UTF-8" standalone="no"?>
<!-- Created with Inkscape (http://www.inkscape.org/) -->

<svg
   version="1.1"
   id="svg72"
   width="69.333336"
   height="152"
   viewBox="0 0 69.333336 152"
   xmlns="http://www.w3.org/2000/svg"
   xmlns:svg="http://www.w3.org/2000/svg">
  <defs
     id="defs76" />
  <g
     id="g78">
    <path
       style="fill:#000000;stroke-width:1.33333"
       d="m 32.666668,145.61077 c -4.448991,-2.53308 -13.071667,-9.91557 -17.266287,-14.7829 -1.503543,-1.74468 -4.210337,-4.74468 -6.0150993,-6.66667 -6.3510158,-6.76356 -3.5057379,-25.195381 5.4620403,-35.383315 4.350759,-4.942722 6.174523,-6.001524 11.629898,-6.751829 4.508392,-0.620063 7.934509,-0.277928 11.300516,1.12848 C 42.999002,85.33612 47.98699,92.12768 47.995018,97.066213 48.007877,104.9773 39.921115,112 30.798496,112 c -3.792651,0 -4.123828,0.35572 -4.034378,4.33333 0.133599,5.94066 3.66993,11.5013 10.671362,16.77999 6.862619,5.17403 9.207162,9.70249 6.630635,12.80701 -2.219216,2.674 -6.35661,2.56164 -11.399447,-0.30956 z M 7.666667,68.399095 C 5.6981733,66.197979 5.3349158,63.096203 5.3434526,48.561679 5.3544391,29.856277 7.2300292,9.5699711 9.1235344,7.676466 11.125774,5.6742267 58.395653,5.4002099 60.039821,7.3813115 c 0.833227,1.0039769 1.627143,13.0184975 1.967024,29.7674515 0.677995,33.410802 1.178304,32.181588 -13.102082,32.190634 -5.264285,0.0033 -16.171428,0.380172 -24.238095,0.837415 -13.466795,0.76334 -14.8575564,0.617905 -17.000001,-1.777717 z"
       id="path249" />
  </g>
</svg>
