<?xml version="1.0" encoding="UTF-8" standalone="no"?>
<!-- Created with Inkscape (http://www.inkscape.org/) -->

<svg
   version="1.1"
   id="svg82"
   width="162.66667"
   height="158.66667"
   viewBox="0 0 162.66667 158.66667"
   xmlns="http://www.w3.org/2000/svg"
   xmlns:svg="http://www.w3.org/2000/svg">
  <defs
     id="defs86" />
  <g
     id="g88">
    <path
       style="fill:#000000;stroke-width:1.33333"
       d="m 136.18631,148.33334 c -1.63115,-3.06727 -2.477,-36.46847 -0.98336,-38.83104 1.39596,-2.20806 13.27583,-1.20471 16.39595,1.38477 2.86997,2.38186 2.04096,36.59741 -0.93223,38.47545 -3.55227,2.24382 -13.10071,1.56516 -14.48036,-1.02918 z M 19.539984,146.89502 C 16.046218,143.03444 16.873959,140.61715 24,133.87022 c 3.666667,-3.4716 6.666667,-7.10591 6.666667,-8.07623 0,-0.97032 -4.8,-4.17762 -10.666667,-7.12732 -11.5049486,-5.78458 -13.2796209,-8.68527 -7.703325,-12.59106 4.045675,-2.8337 6.390753,-2.62483 14.120746,1.25773 10.275209,5.16094 10.943109,4.65842 9.896244,-7.445738 -0.883051,-10.210092 1.0042,-13.498203 7.440208,-12.962888 l 4.912795,0.408621 v 11.333334 c 0,6.233331 0.567446,11.741331 1.260993,12.239991 0.693547,0.49866 4.593547,-0.85005 8.666667,-2.99714 8.663857,-4.56703 10.716684,-4.76804 14.81364,-1.45053 4.159188,3.36791 2.671926,6.36333 -4.736121,9.53879 -3.328306,1.42668 -7.560503,4.103 -9.404883,5.94738 -3.193084,3.19308 -3.255794,3.5422 -1.311592,7.30187 1.123004,2.17165 4.142456,5.55069 6.709895,7.50897 5.202688,3.96828 5.870777,7.0756 2.229746,10.37068 -4.603268,4.16591 -8.412274,2.61251 -15.927155,-6.49544 -3.907572,-4.73593 -7.758406,-8.21213 -8.666666,-7.82353 -0.898988,0.38465 -4.574167,4.26027 -8.167063,8.61249 -6.992047,8.46975 -10.643957,9.83972 -14.594145,5.47482 z M 54.000001,39.70442 C 45.933334,39.028698 36.520595,37.618774 33.082805,36.571251 29.645013,35.52373 25.368287,34.666667 23.57897,34.666667 c -3.943018,0 -12.709039,-3.492366 -15.9123032,-6.33943 C 3.8994173,24.978901 4.7460373,20.318886 9.6666669,17.31872 12.05,15.865574 15.336303,14.674392 16.969562,14.671651 18.60282,14.66891 23.759227,13.228783 28.428245,11.47137 35.495807,8.811147 41.410841,7.9926378 63.751059,6.5834785 93.155911,4.7287014 99.428931,5.2020418 129.74286,11.562992 c 24.28728,5.09634 29.82249,8.165258 25.79998,14.304395 -1.9965,3.047047 -8.6913,5.780234 -24.2095,9.883647 -14.39535,3.806501 -54.569382,5.860254 -77.333339,3.953386 z M 109.33334,26.571294 c 5.37363,-0.119353 19.11228,-2.570116 18.40011,-3.282294 -0.26292,-0.262918 -12.10082,-1.501432 -26.30644,-2.75225 -24.652242,-2.170654 -26.654126,-2.16452 -43.961042,0.134672 -9.972948,1.324888 -19.632634,2.353482 -21.465967,2.285765 -3.045106,-0.11248 -3.102751,-0.01793 -0.666667,1.093416 4.2929,1.958427 33.223901,3.707906 52.000001,3.144478 9.533334,-0.286075 19.433335,-0.566779 22.000005,-0.623787 z"
       id="path110" />
  </g>
</svg>
