<?xml version="1.0" encoding="UTF-8" standalone="no"?>
<!-- Created with Inkscape (http://www.inkscape.org/) -->

<svg
   version="1.1"
   id="svg2"
   width="157.33333"
   height="153.33333"
   viewBox="0 0 157.33333 153.33333"
   xmlns="http://www.w3.org/2000/svg"
   xmlns:svg="http://www.w3.org/2000/svg">
  <defs
     id="defs6" />
  <g
     id="g8">
    <path
       style="fill:#000000;stroke-width:1.33333"
       d="m 123.33333,145.14376 c -6.6,-0.48507 -26.099999,-0.86471 -43.333332,-0.84364 C 19.335545,144.37428 7.5264426,144.05504 6.4186351,142.311 4.2407424,138.88229 5.3931108,134.80568 9.3333331,132 c 2.1999999,-1.56654 3.9999999,-3.48502 3.9999999,-4.26328 0,-0.77827 1.926147,-6.73741 4.280325,-13.24254 3.645091,-10.07221 4.722198,-11.82752 7.257728,-11.82752 3.526776,0 6.671503,4.06443 8.565332,11.07033 C 35.20939,120.29469 39.001729,124 43.940787,124 c 2.167433,0 6.217433,1.57274 9,3.49497 l 5.059212,3.49498 31.333332,-0.99824 c 17.233329,-0.54904 35.383329,-0.87954 40.333329,-0.73445 6.61372,0.19385 9.05523,-0.20299 9.2083,-1.49673 0.3195,-2.70036 1.02028,-7.84412 1.92416,-14.12341 0.96168,-6.68088 3.94084,-8.97032 9.11358,-7.00365 3.31935,1.26202 3.42931,1.68639 3.71367,14.33353 0.42016,18.68648 0.27023,22.91412 -0.85248,24.03728 -1.23853,1.23902 -13.67775,1.29796 -29.44056,0.13948 z M 24.521727,130.10309 c -0.40035,-1.0433 0.570475,-3.1953 2.157391,-4.78221 2.040592,-2.04059 2.648864,-3.82736 2.077689,-6.10309 -1.22035,-4.86227 -3.151125,-3.87409 -4.784776,2.44887 -0.805247,3.11667 -1.768806,6.71667 -2.141242,8 -0.436301,1.5034 0.05129,2.33334 1.370848,2.33334 1.223189,0 1.754844,-0.76397 1.32009,-1.89691 z M 54.974906,69.108238 C 53.816078,67.949411 53.36123,61.761613 53.428198,48.066666 53.554808,22.174702 54.886615,8.1864576 57.374985,6.6127075 58.452076,5.9315104 68.740475,5.3649796 80.238093,5.3537503 c 17.245593,-0.016843 21.271517,0.3463334 22.999997,2.074821 1.77702,1.7770202 2.09524,6.5238707 2.09524,31.2546437 0,16.037673 -0.45,29.435137 -1,29.772144 -0.55,0.337005 -11.511291,0.991123 -24.358425,1.453594 -17.659286,0.6357 -23.758949,0.440336 -24.999999,-0.800715 z"
       id="path1222" />
  </g>
</svg>
