<?xml version="1.0" encoding="UTF-8" standalone="no"?>
<!-- Created with Inkscape (http://www.inkscape.org/) -->

<svg
   version="1.1"
   id="svg12"
   width="166.66667"
   height="161.33333"
   viewBox="0 0 166.66667 161.33333"
   xmlns="http://www.w3.org/2000/svg"
   xmlns:svg="http://www.w3.org/2000/svg">
  <defs
     id="defs16" />
  <g
     id="g18">
    <path
       style="fill:#000000;stroke-width:1.33333"
       d="m 149.09372,152.90324 c -1.1052,-1.1052 -2.80397,-4.01056 -3.77505,-6.45635 -3.02831,-7.62721 -3.98568,-8.24473 -7.56668,-4.88056 -3.16019,2.96884 -3.21147,2.97215 -7.79759,0.50236 -4.30478,-2.31828 -4.78127,-2.33701 -7.05709,-0.27741 -3.31756,3.00234 -8.63402,2.77961 -11.58892,-0.48552 l -2.43825,-2.69423 -3.50803,3.36089 c -4.45152,4.26483 -5.822287,4.21954 -9.251944,-0.30576 L 93.331245,138 l -2.546013,3 c -3.141696,3.7019 -6.722384,3.81536 -11.124717,0.35248 -3.004428,-2.36328 -3.548756,-2.42704 -5.070152,-0.59387 -3.672842,4.42549 -6.259666,4.75387 -10.017135,1.27156 l -3.578047,-3.31601 -3.94382,3.31849 c -4.066225,3.42151 -5.095921,3.32491 -9.830133,-0.92227 -2.727882,-2.44724 -2.845707,-2.43086 -6.433399,0.8941 l -3.654627,3.387 -5.441596,-3.02908 c -3.026457,-1.68468 -5.655341,-2.4373 -5.923189,-1.69574 -4.09637,11.34118 -12.180043,16.27824 -15.330756,9.36319 -1.3367442,-2.93384 -1.1116708,-4.56537 1.437567,-10.42081 1.662347,-3.81831 4.204572,-10.33024 5.64939,-14.47097 4.520188,-12.95449 10.215475,-14.98515 15.744719,-5.61378 2.72197,4.6134 2.882798,4.68272 6.049908,2.60755 4.340411,-2.84395 6.978104,-2.68703 8.990187,0.53482 0.915948,1.46667 2.32804,2.66667 3.137981,2.66667 0.809941,0 2.558607,-1.2 3.885921,-2.66667 3.210843,-3.54794 9.294197,-3.45846 11.838565,0.17414 l 1.989776,2.8408 3.085829,-3.50657 c 3.687855,-4.19069 8.250027,-3.60768 10.867966,1.38884 l 1.691992,3.22928 3.664965,-3.39658 c 4.415568,-4.09221 6.806172,-4.26959 9.836946,-0.72991 1.2558,1.46667 2.979947,2.66667 3.831437,2.66667 0.8515,0 1.86198,-1.2 2.24552,-2.66667 0.47208,-1.80522 1.81869,-2.66666 4.16856,-2.66666 1.90917,0 4.49868,1.2 5.75448,2.66666 1.2558,1.46667 2.9056,2.66667 3.66622,2.66667 0.76063,0 2.13237,-1.2 3.04832,-2.66667 2.1452,-3.43501 5.3709,-3.3869 9.12089,0.13604 l 2.98334,2.80269 3.45266,-5.46936 c 2.52203,-3.99516 4.34022,-5.46937 6.74554,-5.46937 2.87393,0 4.15488,1.81402 10.06825,14.25826 9.61675,20.2377 9.84863,23.55977 1.75739,25.17801 -2.72292,0.54459 -4.70684,0.15172 -6.05826,-1.19969 z M 30.000001,52.81213 C 18.916722,50.106012 11.063155,44.067706 7.4884105,35.503834 5.0568402,29.678618 4.7502105,25.056103 6.5693363,21.648574 7.2491377,20.375192 8.1289891,18.286768 8.5245615,17.00763 9.8315065,12.781449 17.411238,9.3436961 25.434249,9.3383173 34.85569,9.3319973 38.09559,12.3268 39.407851,22.254804 c 0.899498,6.805217 0.83937,6.967495 -3.579826,9.661682 -5.361703,3.268791 -9.254136,3.460176 -14.560905,0.71594 -2.163582,-1.118832 -3.933786,-1.690053 -3.933786,-1.269379 0,2.138074 8.192129,7.38553 14.666667,9.394711 9.015217,2.797606 10.666667,4.040104 10.666667,8.025256 0,2.507 -3.655921,6.288244 -5.579013,5.770258 -0.231542,-0.06237 -3.420988,-0.845881 -7.087654,-1.741142 z m -2,-31.478797 c 0,-0.576416 -0.880786,-1.386019 -1.9573,-1.799116 -2.197525,-0.843269 -3.952166,1.121557 -2.745357,3.074217 0.874564,1.415074 4.702657,0.377106 4.702657,-1.275101 z m 37.333334,30.694369 c -1.569799,-0.992738 -2.012099,-4.35826 -2.056244,-15.646249 -0.03093,-7.909799 -0.543435,-16.268953 -1.13889,-18.575897 -1.408669,-5.457549 2.53755,-9.8149366 8.8618,-9.7851391 7.369751,0.034724 7.626426,0.6565867 7.724617,18.7149571 0.04964,9.128877 0.11956,17.960978 0.155397,19.62689 0.03583,1.665914 -0.67098,3.915914 -1.570692,5 -1.832368,2.20787 -8.914695,2.601394 -11.975988,0.665438 z M 103.25484,50.109583 C 100.98894,48.454558 100.56162,45.922704 99.823013,29.77625 98.890546,9.3919054 99.349874,7.9999998 107.00916,7.9999998 115.68845,7.9999998 116,8.7651196 116,30.079913 v 19.319422 l -3.42013,1.300332 c -4.59776,1.748065 -6.26862,1.642333 -9.32503,-0.590084 z m 38.41183,0.288664 -4.33333,-1.14116 V 31.207555 c 0,-9.927243 0.6211,-19.210088 1.38024,-20.628544 1.00316,-1.8744017 2.80389,-2.5790112 6.59106,-2.5790112 8.39498,0 9.35018,2.5304792 8.50278,22.5251422 -0.3918,9.244505 -1.2784,17.493352 -1.97024,18.33077 -1.8914,2.289438 -5.34486,2.813146 -10.17051,1.542335 z"
       id="path1083" />
  </g>
</svg>
