<?xml version="1.0" encoding="UTF-8" standalone="no"?>
<!-- Created with Inkscape (http://www.inkscape.org/) -->

<svg
   version="1.1"
   id="svg22"
   width="164"
   height="161.33333"
   viewBox="0 0 164 161.33333"
   xmlns="http://www.w3.org/2000/svg"
   xmlns:svg="http://www.w3.org/2000/svg">
  <defs
     id="defs26" />
  <g
     id="g28">
    <path
       style="fill:#000000;stroke-width:1.33333"
       d="m 21,154.57698 c -3.040856,-1.79344 -2.985532,-6.90678 0.104987,-9.70366 2.926785,-2.64871 7.708462,-2.76931 12.155238,-0.30656 4.856523,2.68966 8.390679,0.37166 12.638467,-8.28942 3.094021,-6.30858 3.864489,-10.14219 4.859139,-24.17754 C 51.65454,99.446493 51.544807,94.890327 50.303289,93.227117 49.403147,92.021231 44.823467,86.301813 40.126221,80.517298 25.044955,61.945173 21.766311,49.629163 28.682727,37.530567 32.843151,30.252915 32.832455,28.807331 28.603927,26.880686 24.218845,24.88271 18.385653,24.911033 13.906105,26.952046 10.749407,28.390341 10.073627,28.225257 7.84337,25.471006 4.7903689,21.70071 4.6393381,17.584166 7.4089387,13.630008 c 1.7200701,-2.455744 3.3406383,-2.963342 9.4608383,-2.963342 5.424132,0 8.456319,-0.762679 11.418788,-2.8721427 3.941895,-2.8068766 4.177379,-2.8204238 10.362839,-0.5961636 6.150124,2.2115533 6.482899,2.1959126 11.755915,-0.5525366 7.62804,-3.9759573 10.285008,-2.3092409 11.396653,7.1491229 0.467867,3.980812 0.247972,10.415837 -0.488656,14.300056 -0.736627,3.884219 -0.964959,8.301841 -0.507405,9.81694 1.288576,4.266862 5.93315,8.717165 12.685074,12.154488 3.387808,1.724692 7.747208,5.1153 9.687555,7.534686 1.940347,2.419385 5.963781,7.201205 8.940965,10.626265 2.977184,3.425062 7.749819,9.425061 10.605855,13.333333 6.57484,8.997185 5.96306,8.219537 14.51163,18.446056 11.19053,13.38707 28.24292,29.80663 33.57733,32.33125 6.11781,2.89539 8.16792,5.38567 7.61936,9.25526 -0.61133,4.31242 -6.76751,4.79397 -13.42835,1.05037 -6.9361,-3.89831 -7.6641,-2.59536 -1.42386,2.54839 4.12884,3.40333 4.79393,4.57825 3.63325,6.4183 -2.25077,3.56823 -8.39475,4.63072 -17.21672,2.97731 -4.4,-0.82464 -9.66215,-2.12204 -11.69366,-2.88311 -5.25495,-1.96866 -10.1672,-8.36484 -11.15148,-14.52017 -0.58352,-3.64913 -2.03734,-6.18685 -4.71495,-8.23015 -2.12921,-1.62482 -5.950843,-4.6678 -8.492522,-6.76216 -6.727897,-5.54386 -8.614055,-4.13532 -8.614055,6.43276 0,9.05167 -0.15809,9.26636 -6.44041,8.74664 -2.546344,-0.21065 -3.027598,0.30412 -2.666667,2.85242 0.386095,2.72596 1.070703,3.05952 5.550971,2.70461 5.660681,-0.44841 8.88944,1.44176 8.88944,5.20403 0,5.44092 -4.455482,6.29188 -32.86432,6.27686 -14.775376,-0.008 -28.575376,0.33634 -30.666667,0.76478 -2.091291,0.42844 -4.852347,0.1597 -6.13568,-0.59718 z m 45.666667,-13.3496 c 0,-3.9275 -0.188308,-4.06694 -4.333334,-3.20864 -2.383333,0.49351 -5.114276,1.89118 -6.068761,3.10594 -1.525584,1.94158 -1.203139,2.30834 2.666667,3.03313 7.584124,1.42044 7.735428,1.36313 7.735428,-2.93043 z M 77.203708,39.870374 c -4.067571,-4.067571 -2.6308,-10.470645 4.784787,-21.323732 5.138038,-7.519782 7.251616,-9.4056679 13.870025,-12.3758331 14.94364,-6.70630457 36.50718,-3.3110834 45.17931,7.1135701 8.721,10.483389 12.52848,25.069958 7.27746,27.880211 -1.29325,0.692128 -17.18403,1.322452 -35.31285,1.400718 -31.94068,0.137899 -33.049361,0.05444 -35.798732,-2.694934 z"
       id="path944" />
  </g>
</svg>
