<?xml version="1.0" encoding="UTF-8" standalone="no"?>
<!-- Created with Inkscape (http://www.inkscape.org/) -->

<svg
   version="1.1"
   id="svg32"
   width="92"
   height="162.66667"
   viewBox="0 0 92 162.66667"
   xmlns="http://www.w3.org/2000/svg"
   xmlns:svg="http://www.w3.org/2000/svg">
  <defs
     id="defs36" />
  <g
     id="g38">
    <path
       style="fill:#000000;stroke-width:1.33333"
       d="m 23.83334,153.0878 c -1.824953,-1.47777 -4.299827,-10.17641 -8.655192,-30.42113 -0.394415,-1.83333 -1.505357,-5.13333 -2.468761,-7.33333 -1.905917,-4.3523 -5.3886093,-17.429531 -7.456885,-28.000005 -1.5274604,-7.806493 -0.4567723,-18.338068 2.4399499,-24 1.1255502,-2.2 4.4479891,-6.197947 7.3831971,-8.884326 6.432824,-5.887488 6.641767,-8.797589 1.545655,-21.527448 C 13.628809,25.446442 12.539923,24 9.9051247,24 6.4905809,24 4.8142437,21.652734 3.5843561,15.149436 2.2418201,8.0504866 4.9310313,6.9222685 23.233955,6.9057439 c 8.745341,-0.0079 21.951477,-0.4267831 29.346969,-0.9308607 17.445987,-1.1891206 23.269389,0.2910837 27.655764,7.0295978 5.507145,8.460282 6.836423,12.932088 5.320391,17.89826 -0.743894,2.436826 -2.064851,7.730593 -2.935458,11.763927 -0.870608,4.033333 -2.56663,8.833333 -3.768938,10.666666 -4.020175,6.130141 -5.174268,10.97777 -3.732172,15.676546 1.212261,3.949911 0.949594,4.807818 -2.659551,8.686446 -4.416269,4.746018 -7.509776,14.116623 -10.369388,31.410124 -0.403783,2.44188 -1.556685,6.34188 -2.562005,8.66667 -2.336962,5.40419 -4.8629,18.81098 -4.8629,25.81055 0,6.62855 -1.456092,7.92595 -10,8.91013 C 41,152.91618 35.3,153.61736 32,154.05202 c -4.021111,0.52962 -6.714597,0.21161 -8.16666,-0.96422 z M 63.677783,53.000001 C 67.418464,49.005377 72,38.081203 72,33.156581 72,24.148575 63.589745,16.60303 56.931032,19.636942 c -4.201991,1.914556 -9.079277,12.542529 -9.897653,21.567728 -0.664682,7.330223 -0.510182,7.842774 3.133734,10.396067 7.321572,5.130228 9.778596,5.384695 13.51067,1.399264 z"
       id="path805" />
  </g>
</svg>
