<?xml version="1.0" encoding="UTF-8" standalone="no"?>
<!-- Created with Inkscape (http://www.inkscape.org/) -->

<svg
   version="1.1"
   id="svg42"
   width="174.66667"
   height="169.33333"
   viewBox="0 0 174.66667 169.33333"
   xmlns="http://www.w3.org/2000/svg"
   xmlns:svg="http://www.w3.org/2000/svg">
  <defs
     id="defs46" />
  <g
     id="g48">
    <path
       style="fill:#000000;stroke-width:1.33333"
       d="m 33.204781,161.50956 c -7.499929,-0.84719 -11.871447,-3.10554 -11.871447,-6.13284 0,-0.89655 -1.2,-2.71607 -2.666667,-4.04339 C 17.2,150.00601 16,147.52054 16,145.81008 c 0,-2.17827 -1.597781,-4.1186 -5.333333,-6.47675 -2.9333335,-1.85173 -5.3836725,-3.80925 -5.4451978,-4.35005 -1.0916774,-9.59572 -1.053861,-14.24534 0.1274373,-15.66871 1.1408472,-1.37464 8.8029015,-1.59207 37.0447195,-1.05123 19.583506,0.37503 53.663773,0.7692 75.733924,0.87593 30.50003,0.1475 40.62331,0.60533 42.19385,1.90823 3.04763,2.52825 3.88215,9.34696 2.24403,18.33542 -1.55283,8.52045 -6.35753,15.28374 -10.85771,15.28374 -1.35301,0 -4.52185,0.86148 -7.04186,1.91442 -4.16096,1.73856 -4.86004,1.68912 -7.61064,-0.53818 -2.43646,-1.97293 -3.03139,-3.79684 -3.04202,-9.32601 l -0.0133,-6.87344 -35.78304,0.27248 c -24.738814,0.18839 -35.918513,0.72695 -36.22197,1.74495 -0.241412,0.80985 -0.777979,3.03281 -1.192371,4.93993 -0.414392,1.90711 -3.014507,5.93736 -5.778031,8.95612 -5.624072,6.14348 -9.444073,7.1506 -21.819811,5.75263 z M 10.993112,68.999999 C 6.7834937,63.738271 7.5972457,61.678099 17.925107,51.450303 23.466298,45.962799 27.981039,40.691593 27.957866,39.736511 27.89717,37.235078 22.942052,31.980013 15.836144,26.881029 4.8817672,19.0205 4.2506622,12.195403 14.223564,9.4417525 20.160359,7.8025246 20.267691,7.8609709 31.724837,18.9718 l 9.251444,8.971801 4.722199,-3.638468 c 2.597209,-2.001156 6.601132,-6.488467 8.897606,-9.9718 3.623395,-5.4960316 4.775034,-6.3333332 8.710973,-6.3333332 4.913072,0 5.639153,0.6677882 7.399373,6.8053162 1.099267,3.832918 0.625399,4.567942 -8.772196,13.606705 -5.46383,5.255201 -9.934235,10.573606 -9.934235,11.818678 0,1.245071 3.919672,5.726437 8.710383,9.958592 9.6478,8.522948 11.552139,12.504 7.907663,16.531101 -4.626376,5.112087 -9.766819,3.481263 -19.085975,-6.055099 -4.657362,-4.765911 -9.353515,-8.665294 -10.435898,-8.665294 -1.90126,0 -3.335064,1.342613 -14.074664,13.179509 -5.182743,5.712279 -11.203136,7.351871 -14.028398,3.820491 z M 85.20371,43.870374 c -4.067571,-4.067571 -2.6308,-10.470645 4.784786,-21.323732 5.138039,-7.519782 7.251617,-9.405668 13.870024,-12.375833 14.94364,-6.7063048 36.50718,-3.3110835 45.17931,7.113571 8.721,10.483387 12.52848,25.069956 7.27747,27.88021 -1.29326,0.692128 -17.18404,1.322452 -35.31286,1.400718 -31.940678,0.137899 -33.04936,0.05444 -35.79873,-2.694934 z"
       id="path666" />
  </g>
</svg>
