<?xml version="1.0" encoding="UTF-8" standalone="no"?>
<!-- Created with Inkscape (http://www.inkscape.org/) -->

<svg
   version="1.1"
   id="svg52"
   width="160"
   height="161.33333"
   viewBox="0 0 160 161.33333"
   xmlns="http://www.w3.org/2000/svg"
   xmlns:svg="http://www.w3.org/2000/svg">
  <defs
     id="defs56" />
  <g
     id="g58">
    <path
       style="fill:#000000;stroke-width:1.33333"
       d="m 48.322708,153.8031 c -4.007541,-3.32541 -2.754177,-8.0167 2.447019,-9.15908 2.107532,-0.46289 4.384892,-0.49984 5.0608,-0.0821 0.675908,0.41775 2.940548,0.41207 5.032532,-0.012 3.095308,-0.62835 4.63652,-2.45697 8.276392,-9.81985 l 4.472782,-9.04773 -2.806116,-6.3437 c -1.92636,-4.35542 -2.847785,-9.32176 -2.939024,-15.84144 -0.0731,-5.223443 -0.552165,-10.997172 -1.064592,-12.830505 L 65.870817,87.333332 H 36.751875 c -25.765825,0 -29.2814218,-0.256766 -30.5299403,-2.229788 -1.0117139,-1.598802 -0.9461518,-3.250015 0.2316842,-5.835083 l 1.6426827,-3.605296 14.6185154,0.947464 c 12.849695,0.832824 14.618516,0.691871 14.618516,-1.164916 0,-1.437792 -1.224176,-2.112381 -3.833333,-2.112381 -10.742813,0 -16.014187,-3.390576 -11.809092,-7.595671 3.069543,-3.069541 18.417327,-0.131146 26.186624,5.013531 4.450192,2.946832 6.307751,3.534937 7.649104,2.421713 1.42194,-1.180105 0.722465,-2.662125 -3.544197,-7.50931 -2.923675,-3.321471 -5.399704,-7.304562 -5.502288,-8.851316 -0.102583,-1.546753 -0.330419,-4.91228 -0.506302,-7.478947 C 45.797967,46.766666 44.126705,41.666666 42.259935,37.999999 39.535487,32.648701 38.794824,29.054482 38.506045,19.783462 38.037707,4.7478183 40.153347,1.6611412 48.088868,5.8023133 c 6.187404,3.2289126 10.375119,3.6514916 15.396069,1.5536045 2.6624,-1.1124215 5.924595,-2.0225846 7.249323,-2.0225846 3.663151,0 6.599073,3.7141573 6.599073,8.3483108 0,2.286809 0.731075,7.697348 1.62461,12.023418 1.39666,6.761957 2.378836,8.441936 7,11.973275 9.340545,7.137727 18.114907,16.066222 23.492977,23.905663 4.72862,6.892748 5.75806,7.667261 11.29436,8.497483 7.61014,1.14121 16.63161,0.0055 18.03855,-2.271059 0.5864,-0.948811 1.4425,-5.644305 1.90245,-10.434435 0.45996,-4.790127 1.07488,-9.459323 1.36649,-10.37599 0.75971,-2.388111 10.58336,-2.113307 12.63048,0.35332 2.17923,2.625799 1.0357,37.105523 -1.32494,39.949921 -1.16624,1.405233 -4.33123,1.836126 -12.01403,1.63563 -5.73685,-0.149713 -10.84593,0.137501 -11.35348,0.638252 -0.50756,0.500752 1.91581,6.800752 5.38525,13.999998 7.5388,15.64336 10.43883,22.18212 12.60591,28.42288 0.89128,2.56666 2.20571,5.91273 2.92097,7.4357 0.71526,1.52299 1.10471,4.81608 0.86544,7.31802 -0.38849,4.06222 -0.93921,4.63013 -5.147,5.30757 -2.59157,0.41724 -5.49746,1.24409 -6.45754,1.83745 -2.03588,1.25824 -11.01381,1.31263 -14.8658,0.09 -4.53068,-1.43798 -7.1725,-9.05445 -8.75225,-25.23302 -0.52532,-5.37996 -2.91471,-8.25351 -5.07041,-6.09782 -0.66747,0.66748 -1.40084,4.98471 -1.62971,9.59387 -0.45741,9.2114 -2.74396,12.3584 -8.23485,11.3336 -2.283289,-0.42613 -3.525126,0.33716 -4.912079,3.01924 -3.338624,6.45619 -5.606807,7.39441 -17.90853,7.40783 -6.301277,0.007 -15.06457,0.51828 -19.473985,1.13645 -6.890352,0.96599 -8.435435,0.77683 -10.993508,-1.34584 z m 38.685375,-11.46977 c 0.779864,-2.30604 -5.8336,-5.02959 -8.024524,-3.30465 -1.265618,0.99644 -1.307804,1.77734 -0.170074,3.14822 1.893994,2.28212 7.439922,2.38799 8.194598,0.15643 z"
       id="path527" />
  </g>
</svg>
