<?xml version="1.0" encoding="UTF-8" standalone="no"?>
<!-- Created with Inkscape (http://www.inkscape.org/) -->

<svg
   version="1.1"
   id="svg62"
   width="158.66667"
   height="160"
   viewBox="0 0 158.66667 160"
   xmlns="http://www.w3.org/2000/svg"
   xmlns:svg="http://www.w3.org/2000/svg">
  <defs
     id="defs66" />
  <g
     id="g68">
    <path
       style="fill:#000000;stroke-width:1.33333"
       d="m 110.20665,152.22835 c -2.31958,-2.56311 -2.83693,-6.52251 -1.18623,-9.0785 0.53877,-0.83424 3.22958,-2.45362 5.97958,-3.59862 4.18774,-1.74363 5,-2.72498 5,-6.04082 0,-5.95551 -1.28606,-8.17708 -4.73371,-8.17708 -3.99444,0 -7.26629,-4.68466 -7.26629,-10.40393 0,-3.98541 0.58589,-4.7074 5.33334,-6.57225 5.08127,-1.99598 5.33333,-2.3685 5.33333,-7.88224 0,-5.353569 -0.36748,-5.962901 -4.9038,-8.131083 -6.31821,-3.019867 -8.49257,-8.59088 -4.90167,-12.558779 3.07022,-3.392557 10.75318,-2.882353 22.12799,1.469459 14.55088,5.56692 21.14896,16.034468 21.48112,34.078823 0.17964,9.75807 -0.18332,11.36663 -4.26093,18.88403 -5.19679,9.58069 -7.81163,12.20993 -16.86543,16.9584 -8.14539,4.27201 -17.78914,4.75225 -21.1373,1.05259 z M 29.887798,150.19153 C 22.60477,146.36889 12.628017,137.77224 10.788001,133.73384 5.6720825,122.50562 6.5835591,105.83365 12.902862,95.05058 19.510694,83.775169 34.113451,76 48.682278,76 c 8.727473,0 19.456115,5.212241 27.559166,13.388927 8.62496,8.703337 10.72456,14.189643 10.268363,26.831463 -0.475785,13.18463 -9.110633,27.23016 -19.843139,32.27705 -1.1,0.51727 -3.5,1.80811 -5.333333,2.86853 -5.380095,3.11192 -24.650226,2.39222 -31.445537,-1.17444 z m 27.081487,-7.08768 c 3.099772,-0.43517 5.314363,-1.31157 4.921311,-1.94754 -0.97636,-1.57978 -29.890595,-1.48444 -29.890595,0.0986 0,1.76773 10.539013,4.01094 15.333333,3.26368 2.2,-0.34291 6.536178,-0.97952 9.635951,-1.4147 z m 12.935478,-11.86576 c 4.786569,-4.78656 2.892589,-5.22822 -23.835163,-5.55817 -26.119124,-0.32243 -29.459769,0.23518 -26.046766,4.34759 1.238294,1.49206 6.595004,1.99787 24.44812,2.30856 12.57431,0.21882 22.969523,0.53272 23.100475,0.69756 0.13096,0.16484 1.180954,-0.64315 2.333334,-1.79554 z M 75.747046,115 c -0.40735,-2.11931 -2.999611,-2.36643 -28.261288,-2.69422 -27.033324,-0.35076 -32.867756,0.37941 -30.725722,3.8453 0.401872,0.65024 13.939261,1.18225 30.083086,1.18225 27.236641,0 29.320084,-0.16819 28.903924,-2.33333 z M 72.48217,100.66667 c -0.574815,-1.497947 -2.990915,-2.003497 -9.624821,-2.013919 -4.871541,-0.0077 -15.661416,-0.336248 -23.9775,-0.73021 -14.716963,-0.697192 -20.098286,0.360631 -18.119813,3.561869 0.401872,0.65024 12.376435,1.18226 26.610141,1.18226 22.456179,0 25.777946,-0.26456 25.111993,-2 z M 58.868156,87.847259 c 1.058369,-0.670714 -4.237274,-1.139758 -12.868155,-1.139758 -9.856384,0 -14.010719,0.41914 -12.666667,1.277968 2.440451,1.559408 23.031887,1.447955 25.534822,-0.13821 z M 49.333334,37.379088 C 35.049941,36.159627 11.215636,30.243444 7.6740695,27.038371 2.0071391,21.909869 6.676868,15.725564 18,13.363337 22.4,12.445411 27.033873,11.150666 28.297495,10.486126 29.561117,9.8215853 36.761117,8.3202753 44.297496,7.1498812 64.921001,3.9470653 102.80453,4.9251229 124,9.2075999 c 3.3,0.6667544 9.40472,1.8289811 13.56603,2.5827271 12.74213,2.307998 17.49257,5.95237 16.10768,12.35723 -0.52329,2.420162 -5.76256,5.185776 -9.82409,5.185776 -1.48038,0 -3.74183,0.562072 -5.02546,1.249048 -1.28362,0.686978 -8.59419,2.536471 -16.24568,4.109986 -15.75167,3.2393 -51.439749,4.548382 -73.245146,2.686721 z M 121.33334,23.557064 128.66667,21.765673 124,20.822072 C 109.31316,17.852388 95.22809,16.165323 84.474608,16.087844 69.024225,15.976524 47.024392,18.206948 40.416977,20.554568 l -5.083643,1.806223 3.758353,0.98716 c 13.343229,3.504702 68.179873,3.644134 82.241653,0.209113 z"
       id="path388" />
  </g>
</svg>
