<?xml version="1.0" encoding="UTF-8" standalone="no"?>
<!-- Created with Inkscape (http://www.inkscape.org/) -->

<svg
   version="1.1"
   id="svg72"
   width="161.33333"
   height="162.66667"
   viewBox="0 0 161.33333 162.66667"
   xmlns="http://www.w3.org/2000/svg"
   xmlns:svg="http://www.w3.org/2000/svg">
  <defs
     id="defs76" />
  <g
     id="g78">
    <path
       style="fill:#000000;stroke-width:1.33333"
       d="m 35.792767,156.25986 c -2.97403,-0.54815 -3.933101,-5.12472 -2.429476,-11.59319 1.906808,-8.20293 1.593184,-9.77825 -2.363292,-11.87071 -2.016666,-1.06655 -5.466666,-4.68775 -7.666666,-8.04711 -2.2,-3.35935 -5.370947,-6.47243 -7.046548,-6.91794 -3.067,-0.81547 -6.9534519,-6.62587 -6.9534519,-10.39569 0,-1.1168 -1.2596095,-4.6232 -2.7991324,-7.792006 C 3.917755,94.257781 3.8682739,93.56295 5.7760512,88.996996 c 1.4138284,-3.383768 3.4712026,-5.482344 6.6954238,-6.829509 2.559943,-1.069613 5.694502,-3.532084 6.965687,-5.472157 6.461908,-9.862118 28.225961,-13.632191 39.671157,-6.872029 3.05709,1.805687 7.626046,5.434134 10.153236,8.063217 2.527189,2.629082 5.334331,4.78015 6.238094,4.78015 2.97458,0 5.833347,4.116747 5.852999,8.428573 0.01067,2.330952 -1.33327,8.393229 -2.98643,13.471729 -2.395804,7.35989 -3.859053,9.73709 -7.210766,11.71465 -2.312761,1.36457 -4.938976,4.25295 -5.836035,6.41864 -0.897057,2.16569 -4.05079,6.12374 -7.008297,8.79567 l -5.377284,4.85805 2.206343,6.15634 c 2.678922,7.47499 2.78631,11.33755 0.370941,13.34214 -1.604718,1.3318 -13.382602,1.57513 -19.718353,0.4074 z m 100.760493,-4.44334 c -0.51558,-0.83424 -1.09854,-9.08424 -1.29546,-18.33333 -0.44002,-20.66789 0.70718,-23.53001 8.9863,-22.41955 2.9202,0.39168 5.66479,1.06748 6.09908,1.50177 0.4343,0.43429 0.93382,8.89281 1.11006,18.7967 0.25748,14.46959 -0.0689,18.39647 -1.66164,19.98916 -2.32758,2.32756 -11.87988,2.66328 -13.23834,0.46525 z M 59.333332,38.685745 C 51.999999,38.107622 42.999999,37.00771 39.333333,36.241495 27.731983,33.817186 10.05877,27.852561 8.4743644,25.826741 6.7743556,23.653111 7.4636172,19.438344 9.8418718,17.464568 11.519685,16.072107 28.528017,11.285309 39.333333,9.1645386 63.769681,4.3683913 98.472747,5.491089 127.33333,12.011474 154.46286,18.140767 156,18.736708 156,23.125406 c 0,6.312731 -2.18614,7.191405 -35.33334,14.201561 -8.05416,1.703339 -46.233551,2.549164 -61.333328,1.358778 z m 58.586548,-13.743986 6.58654,-1.741803 -3.91988,-1.494114 C 112.92175,18.784304 76.315456,16.769338 61.503312,18.45365 54.023922,19.304143 45.225926,20 41.95221,20 c -4.225427,0 -5.952211,0.543919 -5.952211,1.874883 0,5.113298 64.982041,7.546063 81.919881,3.066876 z"
       id="path249" />
  </g>
</svg>
