<?xml version="1.0" encoding="UTF-8" standalone="no"?>
<!-- Created with Inkscape (http://www.inkscape.org/) -->

<svg
   version="1.1"
   id="svg82"
   width="161.33333"
   height="164"
   viewBox="0 0 161.33333 164"
   xmlns="http://www.w3.org/2000/svg"
   xmlns:svg="http://www.w3.org/2000/svg">
  <defs
     id="defs86" />
  <g
     id="g88">
    <path
       style="fill:#000000;stroke-width:1.33333"
       d="m 33.339807,158.88889 c -0.736894,-0.24445 -1.339808,-2.19445 -1.339808,-4.33333 0,-4.07012 0.77924,-4.432 8.438157,-3.91869 7.044751,0.47214 11.94127,-9.563 11.608452,-23.79088 -0.271566,-11.60944 -1.559637,-15.53768 -6.765284,-20.63215 -6.064398,-5.93487 -11.086513,-17.280591 -10.063335,-22.734593 0.468917,-2.499544 1.7367,-5.278383 2.817293,-6.175196 2.568766,-2.131887 2.502382,-4.812426 -0.144332,-5.828066 -3.550579,-1.362485 -6.815713,-0.908184 -8.557617,1.190682 -2.105134,2.53653 -3.292139,2.517385 -5.904761,-0.09524 -2.593164,-2.593164 -2.719568,-7.726762 -0.240907,-9.783868 1.019882,-0.846427 4.062702,-1.8217 6.76182,-2.167272 2.699118,-0.345574 5.914669,-1.16724 7.145668,-1.825926 3.455371,-1.84891 22.492859,-1.56401 24.090072,0.360514 0.747748,0.900981 1.53697,6.373096 1.753824,12.160254 l 0.394283,10.52211 11.044885,9.414713 c 6.074688,5.178093 13.117825,12.530858 15.651417,16.339468 2.533592,3.80862 7.929728,10.32858 11.991406,14.48881 4.06169,4.16023 8.01807,8.74718 8.79197,10.19321 0.77389,1.44604 3.50284,4.94892 6.06434,7.78419 6.11362,6.76705 5.85313,11.43877 -0.60937,10.92854 -3.82325,-0.30185 -4.57966,0.17664 -5.79629,3.66667 -0.76957,2.2076 -2.16553,4.01383 -3.10213,4.01383 -0.93659,0 -3.48591,0.3566 -5.66514,0.79245 -5.194113,1.03881 -10.222393,-3.49783 -12.615969,-11.38245 -0.965315,-3.17983 -3.502494,-7.64792 -5.638174,-9.92908 L 79.567222,134 l -1.082248,3.96809 c -0.595236,2.18246 -2.391516,4.95568 -3.991733,6.16272 -3.687545,2.78152 -2.530202,6.19928 2.293528,6.77303 1.986012,0.23623 4.257963,1.46297 5.048779,2.72613 2.903028,4.63692 -0.588347,5.43315 -24.430543,5.5715 -12.498965,0.0725 -23.328304,-0.0681 -24.065198,-0.31258 z m 30.660192,-11.79094 c 0,-2.63852 -0.586559,-3.19974 -2.986379,-2.85735 -3.332917,0.47551 -4.869334,4.86715 -2.265724,6.47627 2.707411,1.67328 5.252103,-0.0801 5.252103,-3.61892 z M 100.41581,96.674511 C 98.851505,95.578825 95.268001,90.699687 92.452473,85.83198 89.636945,80.964273 85.946149,74.625373 84.250702,71.745536 c -3.864521,-6.564169 -3.367577,-9.51056 1.765578,-10.468155 6.599746,-1.23119 8.251938,-0.06969 13.066191,9.185535 2.537749,4.878729 6.175129,11.570417 8.083079,14.870417 4.38204,7.579214 4.40096,10.390548 0.081,12.033002 -4.19703,1.595706 -3.45794,1.670562 -6.83072,-0.691824 z m 25.56045,0.731798 c -1.47973,-0.600229 -3.57405,-2.812197 -4.65404,-4.915484 -1.08,-2.103288 -3.96847,-7.022178 -6.41883,-10.93087 -9.50203,-15.157182 -9.63372,-20.243759 -0.52315,-20.206204 2.7242,0.0112 5.62333,0.461229 6.44251,1 0.81917,0.53877 3.82712,5.479582 6.68432,10.979582 2.8572,5.5 6.23697,11.483504 7.51059,13.296675 3.36766,4.794316 3.03732,10.198913 -0.68433,11.196277 -3.75629,1.006647 -4.99333,0.944482 -8.35707,-0.419976 z M 8.3333332,43.116959 C 5.8753368,42.125136 6.3005433,36.735855 9.4539385,28.913841 10.986938,25.111229 13.339866,19.3 14.682669,16 c 1.342803,-3.3 2.784405,-7.0883228 3.203561,-8.4184949 1.060171,-3.3643984 8.877947,-2.5752604 10.750401,1.0851616 3.122355,6.1038253 3.409495,6.2764693 6.773256,4.0724493 4.31728,-2.8287908 8.237332,-2.601155 10.232876,0.594217 2.105504,3.371448 3.972784,3.371448 7.023903,0 3.151956,-3.4828725 8.003429,-3.397687 10.512551,0.184587 l 1.997095,2.851253 4.180811,-3.51792 c 5.152075,-4.3351862 5.796157,-4.3482922 9.071329,-0.184586 3.167149,4.026377 5.697728,4.239153 7.928782,0.666666 2.108391,-3.376069 4.378479,-3.376069 8.002264,0 3.577312,3.332772 4.624383,3.332772 7.640502,0 3.08028,-3.4036731 4.43047,-3.3533966 8.33018,0.310188 3.07795,2.891586 3.28402,2.910682 7.19399,0.666667 4.93674,-2.833304 6.99066,-2.902989 9.14249,-0.310188 2.50391,3.017021 3.65476,2.493907 7.33334,-3.333333 5.3711,-8.5083913 8.80641,-6.7974259 14.94953,7.445682 1.87109,4.338208 4.22289,9.778328 5.22623,12.089156 2.34778,5.407299 2.31394,9.06555 -0.1024,11.07092 -3.86426,3.207052 -7.80686,1.056118 -11.35382,-6.19422 -3.70912,-7.581801 -5.22446,-8.445109 -7.74348,-4.411538 -1.97328,3.159742 -6.54477,3.470306 -9.65466,0.65589 -1.99167,-1.802437 -2.54175,-1.733362 -5.309,0.666667 -3.65517,3.170127 -8.3625,3.468743 -10.67907,0.677443 -2.11355,-2.54667 -4.55312,-2.54667 -6.66667,0 -2.49331,3.00426 -8.971971,2.572349 -9.999995,-0.666667 -1.002816,-3.159595 -3.683827,-3.457485 -6,-0.666667 -2.16038,2.603099 -9.185595,2.603099 -10.184499,0 C 75.40054,28.514657 72.324795,28.849436 70.357235,32 c -2.157764,3.455131 -5.09751,3.374688 -9.726075,-0.266143 l -3.728463,-2.932808 -1.947311,2.932808 c -2.282267,3.437278 -9.273228,4.059935 -10.473219,0.93281 -0.949271,-2.47376 -5.306477,-2.624043 -6.749248,-0.232786 -2.074754,3.438711 -5.577046,3.525118 -9.488214,0.234087 l -3.827503,-3.220631 -2.875268,3.889008 c -1.581397,2.138955 -2.875268,4.420311 -2.875268,5.069682 0,1.831354 -4.657144,5.606165 -6.771654,5.48871 -1.042257,-0.05789 -2.6450122,-0.407894 -3.5616788,-0.777778 z"
       id="path110" />
  </g>
</svg>
