<?xml version="1.0" encoding="UTF-8" standalone="no"?>
<!-- Created with Inkscape (http://www.inkscape.org/) -->

<svg
   version="1.1"
   id="svg2"
   width="172"
   height="157.33333"
   viewBox="0 0 172 157.33333"
   xmlns="http://www.w3.org/2000/svg"
   xmlns:svg="http://www.w3.org/2000/svg">
  <defs
     id="defs6" />
  <g
     id="g8">
    <path
       style="fill:#000000;stroke-width:1.33333"
       d="M 59.727019,149.94924 C 59.351168,149.57338 54.008831,148.39881 47.85516,147.33906 24.020408,143.23438 8,137.10797 8,132.0979 c 0,-5.09746 6.501111,-8.52903 21.341627,-11.26504 6.228772,-1.14834 16.12504,-3.04437 21.991706,-4.2134 11.713367,-2.33409 50.936857,-2.9337 55.014617,-0.84102 1.27529,0.65447 6.51872,1.58751 11.65205,2.07342 5.13333,0.48591 16.83333,2.57696 26,4.64678 15.26273,3.44631 16.77139,4.05774 17.90985,7.25863 2.21643,6.23163 -3.29174,9.69369 -20.57652,12.93294 -3.3,0.61844 -10.8,2.42301 -16.66666,4.01016 -8.8207,2.38633 -15.30378,2.97629 -37.461478,3.40899 -14.737144,0.28778 -27.102321,0.21573 -27.478173,-0.16012 z M 128,133.55533 c 6.23333,-0.60728 9.71875,-1.20567 7.74536,-1.32974 -1.97339,-0.12408 -3.90198,-0.73365 -4.28575,-1.35461 -2.45187,-3.9672 -77.262194,-4.04568 -81.392943,-0.0854 -0.696667,0.66792 -3.096667,1.30265 -5.333334,1.41051 -2.236666,0.10786 2.833334,0.90048 11.266667,1.76137 16.206229,1.65436 53.00071,1.44886 72,-0.40214 z m 0,-21.09142 c -5.81369,-1.91532 -8.44722,-4.25125 -10.97896,-9.73827 -3.17304,-6.876905 -3.8955,-21.26213 -1.22919,-24.474838 0.89385,-1.077025 4.89611,-3.374057 8.89391,-5.104516 5.69696,-2.465943 7.27365,-3.794998 7.29149,-6.146287 0.0207,-2.73058 -0.6059,-3.001766 -6.97725,-3.019656 -8.32423,-0.02337 -13.51314,-2.315686 -14.07586,-6.218311 -0.85183,-5.907613 3.74497,-7.095366 27.46019,-7.095366 23.01324,0 26.9623,0.83789 26.92859,5.713578 -0.0365,5.27742 -2.17639,6.88004 -10.14641,7.598869 -8.44959,0.762082 -10.1869,2.674648 -5.71396,6.290359 14.56442,11.773177 17.08776,16.296535 14.48436,25.96485 C 160.57393,108.72343 153.75269,113.3966 139.13183,113.22807 134.10932,113.17017 129.1,112.8263 128,112.46391 Z M 34,107.3614 c -2.933333,-1.79377 -6.567155,-3.82487 -8.07516,-4.51357 C 21.664776,100.90228 14.567413,94.535057 13.221731,91.451554 12.553281,89.919865 11.47816,87.766665 10.832573,86.666665 8.2390788,82.247674 6.7499155,74.830765 6.5492767,65.333332 c -0.1730347,-8.19076 0.324766,-10.90462 2.7514349,-15 1.9075854,-3.219346 3.9841804,-5.031633 5.8309894,-5.088825 22.002498,-0.681377 24.66975,-0.379119 29.558362,3.349607 5.666102,4.321746 7.792116,9.084269 6.686388,14.978302 -0.926576,4.939076 -7.299112,10.878781 -12.866046,11.992168 -5.432582,1.086517 -6.905884,3.48196 -5.87918,9.558969 0.900298,5.32882 5.691808,11.13527 11.617075,14.077809 3.915229,1.944338 4.823436,7.384078 1.623487,9.723928 C 42.492524,111.39627 40.078068,111.07821 34,107.3614 Z M 80,35.058362 c -1.1,-0.402112 -3.404468,-2.004743 -5.121039,-3.561404 -2.986328,-2.708129 -4.108549,-2.804208 -26,-2.22598 -12.583429,0.332371 -25.877876,0.632371 -29.543216,0.666667 l -6.664255,0.06235 -2.002001,-5.784802 c -1.9553425,-5.649984 -1.9261074,-5.846259 1.254407,-8.421683 2.257647,-1.828132 4.097757,-2.322533 5.999589,-1.61197 1.50875,0.5637 14.903446,1.227138 29.76599,1.474308 l 27.022808,0.449398 0.816074,-4.080371 c 0.448842,-2.2442039 1.353216,-4.4123432 2.009724,-4.8180869 2.099239,-1.2974012 9.128586,0.9350495 9.128586,2.8991479 0,1.041733 0.6,1.89406 1.333333,1.89406 0.733333,0 1.333333,-0.541305 1.333333,-1.2029 0,-0.661595 1.695471,-1.7939439 3.767712,-2.5163311 4.152388,-1.4475306 8.232285,0.017979 8.232285,2.9570571 0,2.634076 7.21574,5.146307 11.85486,4.127387 3.25714,-0.715391 18.61508,-1.451983 43.45272,-2.084066 2.66873,-0.06792 6.02576,3.305741 6.02576,6.05561 0,0.82156 -1.24847,2.833816 -2.77438,4.471678 -2.46646,2.647451 -3.90917,2.94274 -13,2.66081 -5.62409,-0.174419 -17.98332,0.15048 -27.46494,0.721998 -16.73209,1.00855 -17.34609,1.153426 -20.868281,4.92394 -4.338444,4.644319 -7.238178,4.931935 -9.379761,0.93035 l -1.581183,-2.954466 -1.961692,2.954466 C 83.586364,36.133102 83.259415,36.249859 80,35.058362 Z"
       id="path1073" />
  </g>
</svg>
