<?xml version="1.0" encoding="UTF-8" standalone="no"?>
<!-- Created with Inkscape (http://www.inkscape.org/) -->

<svg
   version="1.1"
   id="svg12"
   width="166.66667"
   height="168"
   viewBox="0 0 166.66667 168"
   xmlns="http://www.w3.org/2000/svg"
   xmlns:svg="http://www.w3.org/2000/svg">
  <defs
     id="defs16" />
  <g
     id="g18">
    <path
       style="fill:#000000;stroke-width:1.33333"
       d="m 8.6248204,156.66667 c -0.3436512,-1.1 -0.8996886,-2.88359 -1.2356388,-3.96351 -1.2798873,-4.11428 4.6100314,-6.02747 19.2408274,-6.24988 7.720162,-0.11733 11.997366,-0.46203 9.504898,-0.76595 -9.666782,-1.17866 -14.291965,-8.15417 -7.46824,-11.26326 2.503356,-1.14061 4.178932,-1.1335 6.729404,0.0285 1.867839,0.85105 7.526983,1.54736 12.575875,1.54736 8.677948,0 9.335516,0.21868 12.028055,4 3.439779,4.83072 5.699922,4.94763 38.666668,2 12.100001,-1.08189 26.530001,-1.97448 32.066671,-1.98353 6.03061,-0.009 10.70816,-0.65796 11.66666,-1.61647 0.88,-0.88 1.6,-5.03715 1.6,-9.23809 0,-8.42832 2.08847,-11.82854 7.26531,-11.82854 5.02855,0 6.10855,2.93119 6.96444,18.90204 0.72413,13.51216 0.54875,15.46234 -1.58232,17.59339 -2.25091,2.25091 -5.20591,2.34091 -48.56767,1.4792 -40.722695,-0.80927 -46.774784,-0.66523 -51.288183,1.22059 -7.27166,3.03829 -47.2249208,3.15286 -48.1667566,0.13812 z M 10.021213,49.356773 C 8.0714599,47.20232 7.4359539,43.806401 6.9575959,32.985885 6.4158757,20.732112 6.6310995,18.991815 9.0582518,16 L 11.762466,12.666667 48.214568,11.951403 C 92.75463,11.077436 149.46038,11.437436 153.1793,12.617777 c 3.51665,1.11614 5.47029,8.085467 5.47993,19.54889 0.009,11.572792 -1.14561,16.939552 -3.818,17.7351 -1.19601,0.35604 -33.71627,0.990694 -72.267259,1.410344 -69.330639,0.754701 -70.119445,0.733442 -72.552758,-1.955338 z M 148.16006,38.509283 c 1.40841,-2.15978 0.16069,-11.739388 -1.85364,-14.231659 -1.03954,-1.286195 -5.71167,-1.618824 -18.44909,-1.313473 -16.69273,0.40017 -17.14181,0.490136 -21.02696,4.212349 -2.18347,2.091896 -4.68633,5.532959 -5.56192,7.646807 -0.87558,2.113848 -2.269177,3.956742 -3.096875,4.095321 -3.542858,0.593167 23.623115,1.852592 35.641005,1.652329 9.52502,-0.158721 13.47685,-0.726584 14.34748,-2.061674 z M 57.971742,33.369008 c 2.888865,-3.647045 6.065061,-6.942808 7.058213,-7.323916 0.993153,-0.381108 1.432293,-1.297163 0.975866,-2.035675 -1.247136,-2.017908 -45.036638,-1.7786 -47.072487,0.25725 -1.934343,1.934342 -2.073395,7.647944 -0.299668,12.3132 C 19.932168,39.995188 19.957059,40 36.32663,40 h 16.392632 z m 15.579951,1.063904 c 2.175206,-2.328564 4.831341,-5.928564 5.902521,-8 1.719889,-3.325899 1.713353,-3.766245 -0.0559,-3.766245 -1.101926,0 -3.025392,1.65 -4.274366,3.666666 -1.248977,2.016667 -4.080509,5.616667 -6.292294,8 -3.307115,3.563618 -3.596319,4.333334 -1.628153,4.333334 1.316302,0 4.172989,-1.90519 6.348194,-4.233755 z m 18.817314,-3.089315 c 3.963894,-4.027688 6.90246,-7.627688 6.530148,-8 -0.372312,-0.372312 -2.003864,-0.67693 -3.625672,-0.67693 -2.056738,0 -4.40954,2.121013 -7.777779,7.011545 -2.655969,3.856351 -4.829036,7.456351 -4.829036,8 0,2.427632 3.018302,0.456996 9.702339,-6.334615 z"
       id="path934" />
  </g>
</svg>
