<?xml version="1.0" encoding="UTF-8" standalone="no"?>
<!-- Created with Inkscape (http://www.inkscape.org/) -->

<svg
   version="1.1"
   id="svg22"
   width="73.333336"
   height="158.66667"
   viewBox="0 0 73.333336 158.66667"
   xmlns="http://www.w3.org/2000/svg"
   xmlns:svg="http://www.w3.org/2000/svg">
  <defs
     id="defs26" />
  <g
     id="g28">
    <path
       style="fill:#000000;stroke-width:1.33333"
       d="m 45.844739,145.81203 c -9.233408,-10.35825 -10.706498,-10.42261 -17.836253,-0.77917 -5.699695,7.70918 -6.419583,8.2544 -10.93288,8.28006 -4.086459,0.0232 -7.9543927,-4.41986 -6.7897,-7.79932 0.413271,-1.19914 4.000139,-5.53013 7.970816,-9.62441 8.22017,-8.47606 8.121706,-8.82702 -3.590055,-12.79606 -9.8783371,-3.3477 -10.6666669,-3.97282 -10.6666669,-8.45824 0,-6.86507 6.2175589,-8.38109 15.6486259,-3.81559 3.20314,1.55061 5.97963,2.60061 6.169978,2.33333 0.190346,-0.26728 1.220862,-4.9696 2.290034,-10.44959 1.634479,-8.37745 2.508983,-10.280779 5.493206,-11.955781 3.235204,-1.815873 3.793273,-1.77131 6.30704,0.503616 2.341712,2.11922 2.757784,4.073883 2.757784,12.955775 0,11.9446 0.23651,12.11988 9.616202,7.12669 9.851779,-5.24451 16.545435,-3.73491 15.486151,3.49255 -0.448567,3.06055 -6.684533,7.57072 -10.706282,7.74333 -3.351128,0.14382 -8.822488,2.88153 -9.55054,4.7788 -0.690197,1.79862 6.332139,9.84473 11.610667,13.30336 4.407416,2.88785 5.682014,8.24926 2.735242,11.50541 -4.064711,4.49147 -7.603909,3.08917 -16.013369,-6.34476 z M 39.007999,70.340337 C 29.712646,66.342749 18.329371,56.160888 14.828246,48.712562 9.371301,37.103413 11.706795,20.165112 19.769859,12.873226 23.571486,9.4351986 31.610549,6.7943371 38.485128,6.7251905 55.354249,6.555516 67.819185,26.754073 58.026999,38.391423 53.612257,43.638048 47.913391,45.863997 41.821604,44.72117 32.909187,43.049192 26.23577,32.964231 30.933334,28.266667 c 2.706114,-2.706113 5.037205,-1.802361 7.910002,3.066667 3.446856,5.841987 7.044316,6.012108 10.401371,0.491875 3.339424,-5.491244 1.765019,-8.940465 -5.948779,-13.032625 -5.527696,-2.932436 -6.165608,-2.998698 -10.916672,-1.133972 -3.409971,1.338366 -5.983711,3.660027 -7.938438,7.160922 -4.928524,8.82694 -3.661845,16.157492 4.459556,25.808448 2.915783,3.464931 14.85207,9.372019 18.937774,9.372019 5.221559,0 12.161854,3.672415 12.161854,6.435372 0,6.495103 -10.449452,8.438926 -20.992003,3.904964 z"
       id="path795" />
  </g>
</svg>
