<?xml version="1.0" encoding="UTF-8" standalone="no"?>
<!-- Created with Inkscape (http://www.inkscape.org/) -->

<svg
   version="1.1"
   id="svg32"
   width="60"
   height="88"
   viewBox="0 0 60 88"
   xmlns="http://www.w3.org/2000/svg"
   xmlns:svg="http://www.w3.org/2000/svg">
  <defs
     id="defs36" />
  <g
     id="g38">
    <path
       style="fill:#000000;stroke-width:1.33333"
       d="M 10.20665,80.228345 C 7.887066,77.665235 7.3697159,73.705844 9.0204171,71.149855 9.5591876,70.315607 12.25,68.696223 15,67.551223 19.187737,65.807601 20,64.826256 20,61.510419 20,55.554904 18.713933,53.333333 15.266287,53.333333 11.271852,53.333333 8,48.648665 8,42.929399 c 0,-3.985407 0.58589,-4.707398 5.333333,-6.572246 5.081275,-1.995981 5.333334,-2.368505 5.333334,-7.882246 0,-5.353566 -0.367484,-5.962898 -4.903795,-8.13108 C 7.4446563,17.32396 5.2702961,11.752947 8.8611953,7.7850481 11.931418,4.3924903 19.614375,4.902694 30.989191,9.2545065 45.540068,14.821427 52.138143,25.288975 52.470311,43.333333 c 0.17963,9.758071 -0.18332,11.36663 -4.260935,18.884034 -5.196785,9.580684 -7.811623,12.209933 -16.865433,16.958392 -8.145388,4.272017 -17.78914,4.752253 -21.137293,1.052586 z"
       id="path656" />
  </g>
</svg>
