<?xml version="1.0" encoding="UTF-8" standalone="no"?>
<!-- Created with Inkscape (http://www.inkscape.org/) -->

<svg
   version="1.1"
   id="svg42"
   width="161.33333"
   height="156"
   viewBox="0 0 161.33333 156"
   xmlns="http://www.w3.org/2000/svg"
   xmlns:svg="http://www.w3.org/2000/svg">
  <defs
     id="defs46" />
  <g
     id="g48">
    <path
       style="fill:#000000;stroke-width:1.33333"
       d="m 51.954712,149.33537 c -6.644898,-1.15913 -7.954713,-2.2772 -7.954713,-6.79022 0,-8.14383 5.907127,-17.71695 15.776892,-25.56811 l 4.889774,-3.88969 16.666667,0.51121 c 14.75783,0.45267 17.310931,0.8867 22.291958,3.78966 10.34805,6.03089 18.98416,25.6797 13.34414,30.3605 -2.17683,1.80661 -56.196283,3.12492 -65.014718,1.58665 z M 74.550094,96.823089 C 74.247541,96.54846 66.499999,95.943903 57.333332,95.479627 40.130487,94.608332 34.406945,93.648603 17.333333,88.772385 7.3723024,85.927519 7.3317322,85.897263 6.9225099,81.008465 6.5481033,76.535599 6.9129056,75.932901 11.037884,74.209376 16.617946,71.877876 37.017053,67.377431 51.408492,65.302821 62.918217,63.643628 100.5254,64.407873 116,66.615435 c 10.37986,1.480762 29.89046,5.872853 35,7.878957 4.79326,1.881931 5.17834,8.462441 0.66666,11.392347 C 147.08106,88.864652 128.85185,93.148145 114,94.73764 99.061146,96.336445 75.392397,97.587652 74.550094,96.823089 Z M 116,84.009119 c 2.56666,-0.62135 7.96666,-1.574282 12,-2.117624 L 135.33333,80.903597 126,79.12258 c -17.30906,-3.302971 -44.498954,-4.647364 -63.574344,-3.143407 -21.602569,1.703208 -36.543773,3.541628 -31.025657,3.817511 2.236667,0.111827 4.636667,0.76516 5.333334,1.451857 1.13204,1.11584 14.580343,3.207668 29.266666,4.552306 C 74.376444,86.567771 110.82622,85.261609 116,84.009119 Z M 87.333332,40 c -3.389202,-2.933333 -6.368926,-5.333333 -6.621608,-5.333333 -0.252683,0 -2.972959,2.1 -6.045059,4.666666 -6.291614,5.256495 -7.512105,5.526706 -11.703325,2.591062 -4.283397,-3.000208 -3.708209,-4.9928 3.036659,-10.519712 3.3,-2.704102 5.99953,-5.626379 5.998957,-6.49395 -5.73e-4,-0.867569 -2.127039,-3.96614 -4.725479,-6.88571 -6.033225,-6.778848 -5.985048,-11.8248369 0.1186,-12.4223551 3.366354,-0.3295498 4.798686,0.5234185 8.396164,5.0000001 C 78.173824,13.5712 80.969112,16 81.999998,16 c 1.030887,0 3.803031,-2.4 6.160322,-5.333333 3.158091,-3.9298227 5.267547,-5.3333337 8.015919,-5.3333337 7.473701,0 8.225401,9.6125497 1.081704,13.8324377 -2.14797,1.268837 -4.556866,3.524252 -5.353102,5.012033 -1.244302,2.324996 -0.683651,3.410424 3.990394,7.725479 5.914585,5.46032 6.957645,9.856325 2.859084,12.049805 C 94.836582,46.049797 93.981275,45.753755 87.333332,40 Z"
       id="path517" />
  </g>
</svg>
