<?xml version="1.0" encoding="UTF-8" standalone="no"?>
<!-- Created with Inkscape (http://www.inkscape.org/) -->

<svg
   version="1.1"
   id="svg52"
   width="172"
   height="68"
   viewBox="0 0 172 68"
   xmlns="http://www.w3.org/2000/svg"
   xmlns:svg="http://www.w3.org/2000/svg">
  <defs
     id="defs56" />
  <g
     id="g58">
    <path
       style="fill:#000000;stroke-width:1.33333"
       d="m 34.538113,57.509563 c -7.499928,-0.847194 -11.871446,-3.105539 -11.871446,-6.132839 0,-0.896549 -1.2,-2.716076 -2.666667,-4.043391 -1.466667,-1.327314 -2.666667,-3.812781 -2.666667,-5.523257 0,-2.178264 -1.597781,-4.118592 -5.333333,-6.476743 C 9.0666667,33.481601 6.6163277,31.524075 6.5548024,30.983273 5.4631251,21.387561 5.5009415,16.737947 6.6822396,15.314569 7.8230868,13.939932 15.485141,13.722505 43.726959,14.263345 c 19.583505,0.375032 53.663772,0.7692 75.733921,0.875932 30.50003,0.147498 40.62331,0.605326 42.19385,1.908228 3.04763,2.52825 3.88215,9.346956 2.24403,18.335412 -1.55283,8.520456 -6.35753,15.28375 -10.85771,15.28375 -1.35301,0 -4.52185,0.861484 -7.04186,1.91441 -4.16096,1.738562 -4.86004,1.689127 -7.61064,-0.538172 -2.43646,-1.972925 -3.03139,-3.796834 -3.04202,-9.326016 l -0.0133,-6.873433 -35.783039,0.272481 c -24.738813,0.188382 -35.918512,0.726947 -36.221969,1.744939 -0.241412,0.809852 -0.777979,3.032823 -1.192371,4.939936 -0.414392,1.907113 -3.014506,5.937365 -5.77803,8.956116 -5.624072,6.143485 -9.444074,7.150601 -21.819811,5.752635 z"
       id="path378" />
  </g>
</svg>
