<?xml version="1.0" encoding="UTF-8" standalone="no"?>
<!-- Created with Inkscape (http://www.inkscape.org/) -->

<svg
   version="1.1"
   id="svg62"
   width="161.33333"
   height="144"
   viewBox="0 0 161.33333 144"
   xmlns="http://www.w3.org/2000/svg"
   xmlns:svg="http://www.w3.org/2000/svg">
  <defs
     id="defs66" />
  <g
     id="g68">
    <path
       style="fill:#000000;stroke-width:1.33333"
       d="m 6.1577385,136.37996 c -0.4534229,-0.45343 -0.8244053,-2.83925 -0.8244053,-5.30185 0,-6.64683 3.8212557,-7.69613 21.8540898,-6.00101 7.986418,0.75073 15.786417,0.8756 17.333333,0.27748 3.968308,-1.53435 1.116771,-2.47653 -11.187423,-3.69645 -8.742167,-0.86675 -10.050021,-1.34156 -10.397676,-3.7748 -0.687721,-4.81338 3.029828,-6.62395 9.853372,-4.79893 3.253749,0.87025 7.979065,1.58227 10.500701,1.58227 5.365606,0 10.840344,2.11519 15.029093,5.80658 2.864486,2.52436 3.756158,2.56649 21.999999,1.03957 10.45798,-0.87528 27.742858,-1.76314 38.410838,-1.97302 10.66797,-0.20988 20.11798,-0.8276 20.99999,-1.37272 0.98077,-0.60615 1.60368,-4.32688 1.60368,-9.5791 0,-6.8102 0.55203,-9.14 2.66667,-11.254647 3.43694,-3.436942 5.90752,-3.370018 9.28138,0.251415 2.398,2.573952 2.71862,4.666652 2.71862,17.745162 0,10.12213 -0.55446,15.58535 -1.74732,17.21667 -1.58639,2.16953 -4.18714,2.37302 -28.23977,2.20959 -14.57085,-0.0991 -35.429329,-0.749 -46.35217,-1.44444 -18.229453,-1.16063 -20.261987,-1.06023 -24.760225,1.22307 -4.154091,2.1086 -8.176661,2.50135 -26.409444,2.57852 -11.82991,0.0501 -21.8799095,-0.27993 -22.3333325,-0.73336 z M 9.2192341,53.862519 C 7.9668712,52.353513 7.8747442,51.161944 8.8861882,49.554903 10.03001,47.737533 13.005201,47.264576 25.238458,46.955432 35.095787,46.706328 40.030785,46.092357 39.718002,45.154009 39.457023,44.371073 35.363709,42.399907 30.621747,40.773639 14.952261,35.399747 8.6666665,31.742739 8.6666665,28 c 0,-2.625184 0.978843,-3.649708 4.6075135,-4.82254 6.400402,-2.068691 6.433312,-3.820296 0.146342,-7.789087 C 7.6284816,11.732019 6.3547716,7.7198897 10.287373,5.5190952 13.3619,3.7985033 20.182665,7.3593073 29.003282,15.289801 c 7.684521,6.909046 7.878021,9.50723 0.806847,10.83379 -4.55134,0.853836 -4.566444,0.879716 -1.455427,2.49373 1.729003,0.897019 5.506515,1.993812 8.394469,2.43732 2.887956,0.443507 6.462092,1.171347 7.942527,1.61742 2.688985,0.810227 4.223813,-0.077 16.711002,-9.660046 6.118176,-4.695272 11.40649,-6.560642 22.330632,-7.876779 10.766502,-1.297145 26.747458,4.4231 32.949718,11.794068 3.21854,3.825015 4.75419,4.31732 12.31695,3.948621 5.82488,-0.283974 5.66024,-3.558836 -0.28705,-5.7094 -8.09986,-2.928948 -7.6323,-6.139033 1.95371,-13.413628 7.04966,-5.3498086 9.93494,-6.6186637 12.66667,-5.5703989 2.89145,1.1095552 2.45684,6.8409339 -0.66667,8.7915989 C 141.2,15.892045 140,17.092 140,17.642663 c 0,0.550664 3.3,2.86361 7.33333,5.139882 10.03255,5.66202 9.74348,7.961999 -1.66667,13.260714 -4.95,2.298712 -10.8,5.0157 -13,6.037749 -3.82418,1.776595 -3.55,1.859607 6.2381,1.888632 7.49845,0.02224 10.79877,0.591031 12.33333,2.125599 2.91684,2.916838 2.61523,5.508556 -0.90476,7.774477 -2.51531,1.619181 -14.01717,1.943117 -71.191416,2.005019 -60.297092,0.06528 -68.391839,-0.167666 -69.9226799,-2.012216 z"
       id="path239" />
  </g>
</svg>
