<?xml version="1.0" encoding="UTF-8" standalone="no"?>
<!-- Created with Inkscape (http://www.inkscape.org/) -->

<svg
   version="1.1"
   id="svg72"
   width="160"
   height="154.66667"
   viewBox="0 0 160 154.66667"
   xmlns="http://www.w3.org/2000/svg"
   xmlns:svg="http://www.w3.org/2000/svg">
  <defs
     id="defs76" />
  <g
     id="g78">
    <path
       style="fill:#000000;stroke-width:1.33333"
       d="m 50.417911,148.68824 c -0.503483,-0.52993 -5.544646,-1.48268 -11.202583,-2.11718 -10.435829,-1.17034 -28.884447,-6.5727 -33.1857375,-9.71787 -2.7885489,-2.03904 -1.8172672,-6.7679 1.6878322,-8.21752 9.2667663,-3.83249 34.2637173,-9.04752 50.9006623,-10.61923 10.606614,-1.00201 19.709784,-1.55916 20.22927,-1.2381 0.519484,0.32106 6.889453,0.83837 14.155486,1.14957 12.471159,0.53414 22.324789,2.03645 45.663829,6.96202 11.38366,2.40246 17.04764,6.6612 14.69802,11.05146 -1.33378,2.49223 -14.51913,7.0584 -24.69802,8.55309 -2.93334,0.43075 -8.03334,1.41204 -11.33334,2.18067 -7.09444,1.65243 -65.586267,3.41211 -66.915419,2.01309 z m 59.026199,-12.72001 c 2.49606,-0.71585 7.1351,-1.30156 10.30899,-1.30156 5.16633,0 5.55819,-0.21252 3.74159,-2.02912 -1.16587,-1.16587 -6.73701,-2.65869 -13.09524,-3.50896 -14.24241,-1.9046 -55.412535,-1.68586 -62.765101,0.33347 -3.098892,0.85109 -8.527514,1.45775 -12.063606,1.34814 -3.802798,-0.11788 -6.107,0.32212 -5.640412,1.07707 0.433864,0.70201 1.827029,1.31609 3.095922,1.36462 5.112012,0.19551 14.38764,1.7717 15.640414,2.65774 0.733333,0.51865 8.202778,1.07061 16.598768,1.22657 8.395989,0.15596 15.595989,0.63059 16,1.05475 1.019754,1.07059 22.642685,-0.63501 28.178675,-2.22272 z M 5.395638,114.07507 C 3.4571143,111.7393 3.8719521,109.20976 7.9809888,98.310473 15.623949,78.037404 21.377007,73.631411 26.666667,84.000002 c 3.103308,6.082987 3.854597,6.368216 7.023962,2.666667 3.101848,-3.622697 5.80213,-3.351382 9.822766,0.986957 l 3.386064,3.653623 2.661478,-3.653623 c 3.154562,-4.330516 7.17823,-4.676652 11.136531,-0.958021 l 2.869337,2.695602 3.426903,-2.695602 c 4.275808,-3.363351 5.138939,-3.357183 9.493147,0.06784 L 80,89.526882 83.418432,86.837943 c 3.589409,-2.823429 6.201124,-2.564591 10.406851,1.031392 2.310786,1.975768 2.63764,1.91257 4.495962,-0.869333 2.293695,-3.433647 7.235285,-3.944208 9.678755,-1 2.15453,2.596053 4.69642,2.526999 9.40691,-0.255555 3.5916,-2.121611 3.96846,-2.119703 6.34623,0.03215 3.04368,2.754496 5.93046,1.884967 8.27288,-2.491882 2.3397,-4.371772 6.21621,-5.415458 9.40286,-2.53157 1.41412,1.279751 2.57112,2.86675 2.57112,3.526659 0,0.65991 1.09385,3.716917 2.4308,6.79335 1.33693,3.076433 3.51131,8.10636 4.83193,11.177616 3.23719,7.52842 2.03431,12.4159 -3.05572,12.4159 -4.03466,0 -9.54034,-4.76449 -9.54034,-8.25601 0,-1.14628 -0.85816,-2.79635 -1.90702,-3.66682 -1.52525,-1.26585 -2.20193,-1.03162 -3.38024,1.17007 -1.89645,3.54354 -5.40574,3.50196 -9.28271,-0.11 -2.91277,-2.71365 -3.26374,-2.74996 -6.73897,-0.69709 -3.45509,2.04097 -3.80352,2.01388 -6.05193,-0.47058 -3.27684,-3.620866 -7.87366,-3.37683 -9.64556,0.51206 -2.13426,4.6842 -6.605195,5.31865 -9.9963,1.41854 -3.526681,-4.05603 -4.607696,-4.04326 -8.44738,0.0998 C 81.517484,106.5 79.267687,108 78.217012,108 c -1.050676,0 -2.893156,-1.5 -4.094403,-3.33333 -2.638204,-4.02641 -4.91564,-4.23886 -7.146512,-0.66667 -0.915948,1.46667 -2.839166,2.66667 -4.273817,2.66667 -1.434651,0 -3.250677,-1.2 -4.035613,-2.66667 -1.927734,-3.602 -5.073178,-3.36312 -6.842282,0.51964 -0.798477,1.75247 -2.913845,3.85247 -4.700818,4.66667 -3.955743,1.80235 -6.213055,1.90986 -5.185318,0.24694 0.846904,-1.37032 -1.855917,-8.09991 -3.253184,-8.09991 -0.487792,0 -2.233081,1.43295 -3.87842,3.18433 -3.54671,3.7753 -7.083682,3.28073 -9.554476,-1.33599 -1.560584,-2.91598 -1.9588,-3.04648 -3.769865,-1.23541 -1.113732,1.11373 -3.252867,4.58144 -4.753635,7.70602 -2.994492,6.23448 -8.1573015,8.2493 -11.333031,4.42278 z M 61.333333,71.474299 C 52.711156,66.834245 48.607627,61.851404 45.324279,52.034796 42.769608,44.3968 42.609971,42.524684 43.937819,35.775363 46.495767,22.773562 53.471968,12.696975 62,9.6859323 78.76462,3.7667483 80.605048,3.5834913 90.84132,6.8141116 c 11.32908,3.5755164 14.177,5.8644464 20.45587,16.4407854 5.32316,8.966494 6.01407,15.661641 2.73237,26.477489 -4.93713,16.271861 -15.375323,23.629624 -34.696227,24.456974 -10.717674,0.458947 -12.641162,0.168815 -18,-2.715061 z M 79.338113,65.3256 c 0.693408,-1.121959 -9.682678,-13.720882 -21.61084,-26.240464 -4.984296,-5.231426 -8.882057,-3.64657 -5.691869,2.314352 1.663963,3.109142 23.965243,25.26718 25.430521,25.26718 0.57385,0 1.416335,-0.60348 1.872188,-1.341068 z m 15.328554,-2.971028 c 0,-0.748069 -5.56344,-6.833877 -12.363202,-13.524016 -6.799761,-6.690139 -14.884182,-15.158038 -17.965381,-18.817555 -5.298897,-6.293459 -5.726373,-6.529472 -7.896265,-4.359582 -2.155479,2.155479 -2.158874,2.577628 -0.05619,6.987 1.230839,2.581103 3.083405,4.692915 4.116812,4.692915 1.033405,0 2.226273,0.905191 2.650817,2.011536 0.424544,1.106344 2.288738,2.702654 4.142652,3.547354 1.853915,0.844698 3.370754,2.098782 3.370754,2.78685 0,1.296087 4.559924,5.915275 14.356018,14.542601 5.274011,4.64477 9.643982,5.611248 9.643982,2.132897 z m 6.440023,-8.898855 c 0.59999,-4.093445 -30.763343,-36.122383 -35.371714,-36.122383 -4.420767,0 -3.857175,1.635394 3.304597,9.589079 3.505099,3.892673 8.455099,9.460065 11,12.371983 9.094456,10.406022 17.484446,18.197708 19.042795,17.684823 0.871364,-0.286784 1.782312,-1.87236 2.024322,-3.523502 z M 108,44.119732 C 108,42.050257 98.123773,30.398522 88.968365,21.666667 80.440004,13.53285 74.666667,11.013282 74.666667,15.425199 c 0,3.402433 26.850943,29.855377 30.333333,29.883719 1.65,0.01343 3,-0.521705 3,-1.189186 z m -4,-19.033797 c 0,-2.487379 -5.549401,-7.752601 -8.171032,-7.752601 -2.165844,0 -2.116485,0.402213 0.565752,4.610232 C 99.222669,26.380182 104,28.354093 104,25.085935 Z"
       id="path100" />
  </g>
</svg>
