<?xml version="1.0" encoding="UTF-8" standalone="no"?>
<!-- Created with Inkscape (http://www.inkscape.org/) -->

<svg
   version="1.1"
   id="svg2"
   width="150.66667"
   height="140"
   viewBox="0 0 150.66667 140"
   xmlns="http://www.w3.org/2000/svg"
   xmlns:svg="http://www.w3.org/2000/svg">
  <defs
     id="defs6" />
  <g
     id="g8">
    <path
       style="fill:#000000;stroke-width:1.33333"
       d="m 36.042854,134.05164 c -0.889351,-1.07161 -2.912817,-2.33835 -4.496593,-2.81498 -6.956216,-2.09347 -11.805985,-5.20467 -13.639235,-8.74979 -1.143963,-2.21218 -3.063819,-3.8202 -4.56102,-3.8202 -4.0954006,0 -5.9786918,-4.83581 -3.4100311,-8.75608 1.1690251,-1.78416 2.7116681,-3.24392 3.4280961,-3.24392 2.465419,0 1.289715,-2.34358 -4.0960579,-8.164829 C 4.1948278,93.018452 3.9179722,92.304945 4.6757174,86.666667 5.7941371,78.344659 9.3473861,75.533956 17.731135,76.339528 c 8.096396,0.777961 10.219448,2.625013 7.693975,6.693751 -1.012797,1.631697 -2.461931,3.96841 -3.220296,5.192697 -1.103136,1.780875 -0.10776,3.713799 4.977935,9.666667 3.496229,4.092377 6.959818,7.440687 7.696865,7.440687 0.737047,0 5.340652,1.74281 10.230236,3.87291 9.856933,4.29408 4.789443,4.27334 47.556819,0.19471 8.066671,-0.7693 18.067591,-1.39922 22.224281,-1.39984 10.71758,-0.002 11.7744,-0.64229 11.78316,-7.14376 0.009,-7.069153 2.14842,-14.773565 4.68616,-16.879699 2.93999,-2.439975 8.50791,-1.992288 10.6422,0.855682 3.27672,4.372423 5.5878,33.417877 2.942,36.974887 -1.72269,2.31599 -13.14537,2.98706 -69.611135,4.08959 -13.933334,0.27205 -26.233334,0.86573 -27.333334,1.31929 -1.1,0.45356 -3.022093,2.61525 -4.27132,4.80377 -2.481951,4.34813 -5.172569,5.05905 -7.685827,2.03077 z M 82.071991,40.666667 c -2.757881,-3.3 -5.755924,-6 -6.662316,-6 -0.906392,0 -3.868549,2.4 -6.582571,5.333333 -5.031511,5.438092 -9.521207,6.772563 -12.560436,3.733333 C 53.055801,40.522467 54.547284,36.276359 60.639524,31.284225 67.322415,25.8081 67.270865,24.882307 59.804468,16.286939 55.732468,11.599224 55.025937,8.1740639 57.600001,5.6 c 2.834607,-2.8346072 6.179255,-1.7224163 11.227103,3.7333333 2.714022,2.9333337 5.941826,5.3333337 7.172898,5.3333337 1.231072,0 4.458876,-2.4 7.172897,-5.3333337 6.938628,-7.4993172 12.827103,-6.7521994 12.827103,1.6274767 0,2.941821 -1.306616,4.681798 -6,7.990001 -3.3,2.326054 -6,4.795536 -6,5.487734 0,0.6922 2.7,3.684712 6,6.650028 6.379239,5.73226 7.564104,9.823514 3.904761,13.482855 -3.446858,3.44686 -6.542628,2.425269 -11.832772,-3.904761 z"
       id="path1222" />
  </g>
</svg>
