<?xml version="1.0" encoding="UTF-8" standalone="no"?>
<!-- Created with Inkscape (http://www.inkscape.org/) -->

<svg
   version="1.1"
   id="svg12"
   width="72"
   height="146.66667"
   viewBox="0 0 72 146.66667"
   xmlns="http://www.w3.org/2000/svg"
   xmlns:svg="http://www.w3.org/2000/svg">
  <defs
     id="defs16" />
  <g
     id="g18">
    <path
       style="fill:#000000;stroke-width:1.33333"
       d="m 7.4036408,141 c -1.2435631,-4.0428 -1.8133084,-26.20315 -0.8096316,-31.49078 0.7063876,-3.72144 2.5893957,-7.30801 5.2156478,-9.934259 3.552112,-3.552113 5.263928,-4.183604 12.60842,-4.651267 10.012907,-0.637573 15.801379,1.7214 18.892687,7.699326 2.889529,5.58774 2.850935,31.60098 -0.05304,35.74697 -2.313343,3.30276 -8.699309,4.04605 -10.99512,1.27977 -0.781177,-0.94126 -1.382821,-7.77827 -1.364533,-15.50636 0.03379,-14.27663 -0.619316,-16.07626 -5.851163,-16.12298 -3.857503,-0.0345 -5.269541,4.97092 -5.162635,18.30042 0.06087,7.58926 -0.501125,13.48252 -1.38758,14.55063 C 16.619583,143.13326 8.0902229,143.23208 7.4036368,141 Z M 6.7463721,66.09604 C 4.7132611,63.646292 4.0312212,9.800315 5.9992121,7.108927 7.0772256,5.6346557 13.14613,5.3502143 37.334745,5.6402721 L 67.333333,6.0000001 68,34.666667 c 0.543497,23.370373 0.320563,29.097761 -1.206651,31.000001 -2.632938,3.279491 -30.79303,3.476508 -34.031444,0.238095 -3.023934,-3.023934 -3.023934,-27.452257 0,-30.47619 2.744618,-2.744619 4.022971,-2.643696 7.238095,0.571428 2.124021,2.124021 2.666667,4.444444 2.666667,11.403013 v 8.736346 l 7,-0.403012 7,-0.403013 0.409916,-13.333334 c 0.225454,-7.333334 0.04558,-15.837402 -0.399724,-18.897928 L 55.867219,17.537479 37.600276,17.08059 c -13.548452,-0.338871 -18.649377,-0.02075 -19.747483,1.231557 -1.015625,1.158245 -1.273601,8.510775 -0.821537,23.41445 0.583869,19.249015 0.399776,21.985228 -1.614699,23.999704 -2.771871,2.771871 -6.5431201,2.932697 -8.6701849,0.369739 z"
       id="path1083" />
  </g>
</svg>
