<?xml version="1.0" encoding="UTF-8" standalone="no"?>
<!-- Created with Inkscape (http://www.inkscape.org/) -->

<svg
   version="1.1"
   id="svg22"
   width="60"
   height="140"
   viewBox="0 0 60 140"
   xmlns="http://www.w3.org/2000/svg"
   xmlns:svg="http://www.w3.org/2000/svg">
  <defs
     id="defs26" />
  <g
     id="g28">
    <path
       style="fill:#000000;stroke-width:1.33333"
       d="m 41.333333,136.30425 c -1.1,-0.3678 -3.947194,-2.75908 -6.327098,-5.31394 l -4.327098,-4.64521 -5.34341,4.82745 c -5.352084,4.83529 -7.289854,5.52884 -11.226678,4.01813 C 10.839316,133.93597 11.605973,130.20975 16,126 c 2.2,-2.10773 4,-4.31148 4,-4.8972 0,-0.58573 -2.4,-2.65321 -5.333333,-4.5944 -8.5313393,-5.64577 -6.3844646,-11.86343 2.970276,-8.60235 3.605381,1.25684 4.596534,1.15691 5.875653,-0.59239 0.846271,-1.15734 1.248201,-3.21504 0.893177,-4.57265 -1.111388,-4.249951 1.993668,-8.285755 6.017238,-7.820919 3.176886,0.36702 3.622849,1.047084 3.986986,6.079909 0.228039,3.15178 1.115647,5.73547 2,5.8217 0.874502,0.0853 4.290003,0.23527 7.590003,0.33333 5.098187,0.1515 6.062665,0.61873 6.416928,3.10856 0.322195,2.26444 -0.793351,3.54769 -4.909535,5.64761 -2.929554,1.49455 -5.654049,3.24741 -6.054433,3.89524 -0.400383,0.64783 1.358908,3.32667 3.909536,5.95297 C 45.913123,128.3857 48,131.44312 48,132.55367 c 0,2.45856 -3.925664,4.66709 -6.666667,3.75058 z M 15.895531,64.221541 C 6.4070177,58.202257 1.3646209,44.964315 5.4933253,36.912345 7.570168,32.862 14.870768,25.333333 16.721572,25.333333 c 2.510384,0 6.329699,-5.07456 5.481983,-7.283673 C 21.615821,16.518051 19.377228,16 13.346595,16 6.0006917,16 5.1378001,15.696325 3.7349537,12.617414 2.4608372,9.8210325 2.5894899,8.838994 4.4773191,6.9507469 6.4250443,5.0025907 9.9405221,4.6336912 28.380447,4.4424531 c 24.349684,-0.2525275 28.12351,0.7551926 27.366726,7.3077009 -0.37351,3.233993 -0.99855,3.617446 -6.41384,3.934803 -14.208742,0.832692 -15.582078,3.702019 -5.46476,11.417586 8.265904,6.303658 11.392287,12.540137 10.296007,20.538373 -1.624869,11.854713 -9.077003,18.238399 -22.831247,19.557821 -8.772742,0.841555 -9.699988,0.662735 -15.437802,-2.977196 z"
       id="path944" />
  </g>
</svg>
