<?xml version="1.0" encoding="UTF-8" standalone="no"?>
<!-- Created with Inkscape (http://www.inkscape.org/) -->

<svg
   version="1.1"
   id="svg32"
   width="157.33333"
   height="145.33333"
   viewBox="0 0 157.33333 145.33333"
   xmlns="http://www.w3.org/2000/svg"
   xmlns:svg="http://www.w3.org/2000/svg">
  <defs
     id="defs36" />
  <g
     id="g38">
    <path
       style="fill:#000000;stroke-width:1.33333"
       d="m 6.0763484,139.2192 c -1.7528185,-1.75282 -1.985094,-4.31635 -1.3591137,-15 1.1562842,-19.73438 1.45379,-20.79445 7.3243073,-26.098113 6.03284,-5.450309 12.098108,-6.264642 20.503155,-2.752789 8.272835,3.456612 10.111221,8.205692 10.116985,26.135102 0.0056,17.3281 -0.737723,18.97449 -8.241251,18.25424 l -4.420432,-0.42431 0.439387,-14.74872 c 0.476999,-16.01121 -0.488251,-18.57233 -6.665955,-17.68696 -4.952955,0.70984 -6.339363,5.50848 -5.555103,19.22733 0.651248,11.39208 0.501721,12.4193 -2.002948,13.75975 -3.829563,2.04952 -7.6764987,1.797 -10.1390316,-0.66553 z M 112.71176,135.18794 c -3.00241,-3.0024 -2.55787,-4.78622 2.15896,-8.66328 5.0663,-4.16432 4.547,-6.71811 -2.17227,-10.68258 C 109.37009,113.8783 108,112.12412 108,109.82645 c 0,-4.20382 3.16314,-5.34814 7.29671,-2.63972 1.80187,1.18063 4.49724,2.1466 5.98971,2.1466 2.31976,0 2.71358,-0.85494 2.71358,-5.89095 0,-7.51006 1.02308,-10.109049 3.97939,-10.109049 3.74977,0 5.79939,3.653857 5.56251,9.916299 -0.23241,6.14469 2.27303,8.85316 5.07096,5.48187 3.14323,-3.78737 12.0538,-2.96903 12.0538,1.10701 0,1.83868 -5.00377,6.61617 -9.98384,9.53236 -2.11286,1.23722 -1.8703,1.84165 2.48804,6.2 5.82227,5.82226 6.31454,10.00551 1.32476,11.25786 -2.88709,0.72461 -4.31104,0.0245 -8.08397,-3.97459 -5.39317,-5.71649 -7.25082,-5.9775 -11.35769,-1.59587 -4.50104,4.80215 -9.78678,6.4851 -12.3422,3.92967 z M 33.93967,52.069544 C 13.276015,51.257196 9.8357834,50.084254 5.9227012,42.517187 4.1046835,39.001528 4.0461896,37.773482 5.5263692,34.19641 8.8152375,26.248377 13.589437,22.994278 23.521966,21.930594 c 14.377791,-1.53973 101.633684,0.262088 103.903154,2.145581 2.32717,1.93138 2.50968,7.394716 0.2928,8.764822 -0.88847,0.549106 -24.86784,1.043886 -53.287483,1.099512 -38.33394,0.07503 -52.085641,0.514694 -53.274216,1.703269 -1.247291,1.24729 -1.035963,1.833297 0.954156,2.645844 3.406261,1.390746 99.693943,1.239833 106.748113,-0.167307 6.25103,-1.246933 8.94992,-4.800474 8.25096,-10.863782 -0.44961,-3.900271 -1.40948,-4.629879 -12.2142,-9.284132 -4.54304,-1.956965 -9.09122,-2.081123 -41.333334,-1.128335 -19.925721,0.588827 -45.228583,1.089346 -56.228583,1.112263 L 7.3333332,18 6.9368889,14.597098 C 6.0698073,7.1544545 6.8559355,7.0315132 60.666665,6.1943853 113.45113,5.3732229 135.15357,6.6771673 143.7717,11.187571 c 5.97424,3.126695 8.66828,9.827327 7.94903,19.77089 -0.69625,9.62563 -4.70697,14.316422 -15.53343,18.167358 -6.70132,2.38364 -11.66044,2.729804 -45.520635,3.177502 -20.9,0.276339 -46.427147,0.171139 -56.726995,-0.233777 z"
       id="path805" />
  </g>
</svg>
