<?xml version="1.0" encoding="UTF-8" standalone="no"?>
<!-- Created with Inkscape (http://www.inkscape.org/) -->

<svg
   version="1.1"
   id="svg42"
   width="84"
   height="85.333336"
   viewBox="0 0 84 85.333336"
   xmlns="http://www.w3.org/2000/svg"
   xmlns:svg="http://www.w3.org/2000/svg">
  <defs
     id="defs46" />
  <g
     id="g48">
    <path
       style="fill:#000000;stroke-width:1.33333"
       d="M 10.990635,73.12397 C 9.7710375,71.904373 9.3333333,63.781258 9.3333333,42.367 c 0,-29.003028 0.010024,-29.10348 3.0183567,-30.247246 4.325163,-1.644424 55.780638,-0.33645 57.961313,1.473349 1.37521,1.141324 1.691261,7.696943 1.447532,30.025176 -0.171496,15.710778 -0.811352,28.873786 -1.421906,29.251129 -0.610552,0.377341 -8.136514,0.964857 -16.724362,1.305589 C 32.761497,75.002354 33.324179,75.520932 34.28816,56.363714 34.951625,43.178667 35.344616,41.297863 37.584696,40.586888 42.116276,39.148621 44,42.320016 44,51.387544 c 0,12.08907 0.365567,12.612458 8.809319,12.612458 4.773654,0 7.247405,-0.560221 7.359434,-1.666667 0.620382,-6.127121 -0.671362,-35.416026 -1.642641,-37.245133 -1.023595,-1.927625 -3.737789,-2.257821 -19.192487,-2.33486 -9.90016,-0.04935 -18.103568,0.06096 -18.229794,0.245132 -0.126227,0.184173 -0.576226,11.73486 -1,25.668194 l -0.770498,25.333334 -3.342698,0.390635 c -1.838484,0.214849 -4.088484,-0.355151 -5,-1.266667 z"
       id="path666" />
  </g>
</svg>
