<?xml version="1.0" encoding="UTF-8" standalone="no"?>
<!-- Created with Inkscape (http://www.inkscape.org/) -->

<svg
   version="1.1"
   id="svg52"
   width="61.333332"
   height="76"
   viewBox="0 0 61.333332 76"
   xmlns="http://www.w3.org/2000/svg"
   xmlns:svg="http://www.w3.org/2000/svg">
  <defs
     id="defs56" />
  <g
     id="g58">
    <path
       style="fill:#000000;stroke-width:1.33333"
       d="M 36.442642,70.72094 C 25.163493,68.034424 13.427812,57.329239 8.0768245,44.845892 2.9748098,32.943373 4.6298163,23.589915 13.407413,14.719459 21.665069,6.3744451 26.82023,4.6258 36.983497,6.7223856 50.044631,9.416774 57.428324,19.599848 55.329332,32.02368 c -1.032649,6.112191 -5.11124,9.942932 -12.786774,12.009739 -9.735105,2.621392 -18.542559,-2.747415 -18.542559,-11.303087 0,-6.415716 3.814822,-10.063665 10.524015,-10.063665 6.28533,0 7.963337,2.845981 4.009318,6.8 C 35.655194,32.344805 35.963743,36 39.084836,36 41.935311,36 45.333332,31.487804 45.333332,27.702687 45.333332,22.585913 38.580039,16 33.333225,16 19.498856,16 12.306737,30.554072 19.496594,44 c 4.476692,8.371971 12.452284,13.492836 23.836738,15.304787 11.142427,1.773429 11.333333,1.870914 11.333333,5.787282 0,2.039362 -0.72,4.427931 -1.599999,5.307931 -1.749064,1.749064 -9.962422,1.907629 -16.624024,0.32094 z"
       id="path527" />
  </g>
</svg>
