<?xml version="1.0" encoding="UTF-8" standalone="no"?>
<!-- Created with Inkscape (http://www.inkscape.org/) -->

<svg
   version="1.1"
   id="svg62"
   width="156"
   height="160"
   viewBox="0 0 156 160"
   xmlns="http://www.w3.org/2000/svg"
   xmlns:svg="http://www.w3.org/2000/svg">
  <defs
     id="defs66" />
  <g
     id="g68">
    <path
       style="fill:#000000;stroke-width:1.33333"
       d="M 42,153.97195 C 20.550081,151.67864 6.6026577,147.26012 4.7568104,142.17337 3.1188257,137.65945 6.4222796,133.91047 13.087158,132.71955 15.789221,132.23672 21.3,130.76132 25.333333,129.44087 37.378353,125.49753 50.801519,124 74.102676,124 c 24.04986,0 34.089134,1.12046 54.929514,6.13056 17.58938,4.22855 19.80489,5.11749 21.73292,8.72004 2.54704,4.7592 -2.71871,8.18987 -16.87634,10.995 -6.53882,1.29557 -14.88877,2.95875 -18.55544,3.69592 C 104.2886,155.76204 61.113515,156.01547 42,153.97195 Z m 68.41123,-10.15694 c 7.10716,-0.83506 13.71053,-2.24492 14.67417,-3.13301 1.83136,-1.68779 -1.08818,-2.454 -22.57246,-5.92404 -17.923083,-2.89485 -54.33606,-1.38079 -68.233369,2.83716 l -5.053762,1.53385 4.206842,1.76886 c 2.313764,0.97286 6.687956,1.82865 9.720429,1.90174 3.032472,0.0731 7.013587,0.6133 8.84692,1.20043 5.122913,1.64064 43.919329,1.51779 58.41123,-0.18499 z M 48.354459,70.400744 C 46.567195,68.213991 46.264684,62.276916 46.487605,33.761905 46.6241,16.302135 47.102192,10.421618 48.498736,9.0250737 50.914201,6.6096088 106.04596,7.1583368 109.02106,9.6274543 c 1.5751,1.3072197 1.76204,6.3786177 1.10915,30.0902697 -0.43187,15.684939 -1.12326,29.065017 -1.53641,29.733507 -0.82837,1.340342 -32.449224,1.69887 -35.818084,0.406117 -2.541521,-0.975273 -2.638553,-7.116985 -0.355657,-22.511667 1.181044,-7.964362 2.128192,-10.75841 3.751437,-11.066598 4.266129,-0.809967 6.495171,3.424986 6.495171,12.34017 0,9.3844 0.613676,10.047414 9.299732,10.047414 3.403796,0 5.348849,-0.696359 5.890949,-2.10905 0.445125,-1.159978 0.809319,-9.538868 0.809319,-18.619756 0,-14.959041 -0.242374,-16.640418 -2.579012,-17.890949 -1.418456,-0.759135 -9.74499,-1.380245 -18.503407,-1.380245 -12.557784,0 -16.276771,0.424586 -17.591164,2.008333 -1.263604,1.522549 -1.453751,7.08588 -0.786109,23 0.674957,16.088479 0.473912,21.77026 -0.860719,24.325 -1.954247,3.740803 -7.757017,5.135043 -9.991797,2.400744 z"
       id="path388" />
  </g>
</svg>
