<?xml version="1.0" encoding="UTF-8" standalone="no"?>
<!-- Created with Inkscape (http://www.inkscape.org/) -->

<svg
   version="1.1"
   id="svg72"
   width="78.666664"
   height="153.33333"
   viewBox="0 0 78.666664 153.33333"
   xmlns="http://www.w3.org/2000/svg"
   xmlns:svg="http://www.w3.org/2000/svg">
  <defs
     id="defs76" />
  <g
     id="g78">
    <path
       style="fill:#000000;stroke-width:1.33333"
       d="m 32.024011,143.36226 c -0.899712,-1.08409 -1.631949,-3.33409 -1.627195,-5 0.05044,-17.66649 0.794451,-31.45416 1.800315,-33.36226 0.886675,-1.68201 2.866696,-2.33334 7.093262,-2.33334 4.417506,0 6.042945,0.57535 6.592048,2.33334 0.400847,1.28333 0.891279,10.3024 1.089851,20.04237 0.29695,14.56543 0.006,17.93457 -1.63896,18.97959 -3.083925,1.95912 -11.48133,1.54289 -13.309321,-0.6597 z M 20.114789,60.933749 C 12.566623,56.889263 11.259873,55.587499 8.9809508,49.842391 5.9300646,42.15118 6.3408199,29.742739 9.8723761,22.913464 19.839229,3.6396941 58.865954,3.7747259 68.908642,23.117727 c 2.895845,5.577624 2.954786,21.415131 0.100046,26.882272 -4.887294,9.359705 -13.831723,13.832176 -29.675356,14.838528 -10.21206,0.648646 -11.031141,0.482228 -19.218543,-3.904778 z M 47.80898,52.09745 c 5.746285,-2.931536 7.064121,-4.382519 9.453443,-10.408564 2.54046,-6.407221 0.734108,-13.415204 -4.804191,-18.638492 -4.183942,-3.945965 -5.44179,-4.383728 -12.595995,-4.383728 -14.412603,0 -20.611642,5.267776 -21.372442,18.161727 -0.390585,6.619599 4.011267,14.397993 9.227344,16.30539 5.932395,2.169336 14.694054,1.717412 20.091841,-1.036333 z M 35.779229,44.815079 C 31.667446,42.776652 30.593172,33.659587 34.15765,31.053178 c 3.706473,-2.71024 9.420385,-2.1064 11.766743,1.243496 5.422597,7.741841 -1.800886,16.655102 -10.145164,12.518405 z"
       id="path249" />
  </g>
</svg>
