<?xml version="1.0" encoding="UTF-8" standalone="no"?>
<!-- Created with Inkscape (http://www.inkscape.org/) -->

<svg
   version="1.1"
   id="svg82"
   width="164"
   height="154.66667"
   viewBox="0 0 164 154.66667"
   xmlns="http://www.w3.org/2000/svg"
   xmlns:svg="http://www.w3.org/2000/svg">
  <defs
     id="defs86" />
  <g
     id="g88">
    <path
       style="fill:#000000;stroke-width:1.33333"
       d="M 15.383473,148.07316 C 9.2233937,146.9056 4.8910613,139.57051 5.8901625,132 c 0.4355103,-3.3 1.9224019,-7.5 3.3042038,-9.33333 2.2084197,-2.93007 3.3769677,-3.29007 9.6590007,-2.97573 5.993224,0.29988 7.738404,1.00264 10.8133,4.35437 5.170278,5.63574 5.191548,14.43283 0.04643,19.20365 -4.534286,4.20443 -9.240428,5.78879 -14.329622,4.8242 z m 60.961588,-0.95506 c -4.598026,-0.97526 -7.011728,-5.57524 -7.011728,-13.36283 0,-8.22422 2.754434,-11.62472 11.274444,-13.91892 7.159379,-1.92782 11.218386,-0.3063 14.34542,5.73082 6.244723,12.05621 -4.531482,24.53662 -18.608136,21.55093 z m 58.219049,-3.01554 c -4.66758,-4.66757 -5.14049,-10.7143 -1.32707,-16.96825 5.40323,-8.86119 21.9766,-6.48742 24.49605,3.50853 1.62232,6.43656 -0.76926,13.82331 -5.11689,15.80422 -6.39177,2.91229 -13.75109,1.9565 -18.05209,-2.3445 z M 69.478359,77.818176 c -1.862879,-1.30481 -2.811692,-3.4076 -2.811692,-6.231356 0,-6.631657 -4.898298,-22.14906 -8.742922,-27.696854 -1.911384,-2.758129 -3.333698,-6.411697 -3.160697,-8.11904 0.173001,-1.707343 -0.15406,-4.798504 -0.726804,-6.869248 -2.091332,-7.561163 4.228107,-13.969444 11.188429,-11.345724 4.543282,1.712606 6.682375,5.026705 6.741136,10.444047 l 0.05061,4.666666 1.991786,-3.819076 c 1.095482,-2.100492 2.051594,-6.600492 2.124692,-10 0.220164,-10.2386339 1.419207,-12.8475909 5.904595,-12.8475909 3.483377,0 4.006031,0.5460784 4.718637,4.9301279 0.440754,2.71157 1.462358,5.726568 2.270231,6.699998 0.807875,0.973428 1.884735,4.90487 2.393023,8.736539 0.77737,5.860108 1.362798,6.966669 3.685721,6.966669 2.147879,0 2.406003,-0.355556 1.161559,-1.6 -2.659386,-2.659385 -2.000239,-11.42531 0.979012,-13.019755 7.057995,-3.777325 14.187125,0.669984 13.658425,8.520431 -0.16415,2.437525 0.28452,5.965221 0.99705,7.839324 1.0152,2.670187 0.76071,4.087348 -1.17618,6.549702 -5.89885,7.499181 -12.058307,23.987352 -12.058307,32.278759 0,1.707761 -0.799306,3.768385 -1.776235,4.579165 -2.711448,2.250302 -23.987504,1.735878 -27.412073,-0.662784 z"
       id="path110" />
  </g>
</svg>
