<?xml version="1.0" encoding="UTF-8" standalone="no"?>
<!-- Created with Inkscape (http://www.inkscape.org/) -->

<svg
   version="1.1"
   id="svg2"
   width="162.66667"
   height="149.33333"
   viewBox="0 0 162.66667 149.33333"
   xmlns="http://www.w3.org/2000/svg"
   xmlns:svg="http://www.w3.org/2000/svg">
  <defs
     id="defs6" />
  <g
     id="g8">
    <path
       style="fill:#000000;stroke-width:1.33333"
       d="m 8.1432703,140.17669 c -4.3312412,-3.59221 -4.4943022,-4.05437 -3.8385053,-10.87938 0.5032646,-5.23757 1.4768083,-7.76905 3.6711086,-9.54589 3.9110134,-3.16694 13.4293774,-3.21377 17.2281324,-0.0848 6.924017,5.70329 5.559144,17.55898 -2.516536,21.85936 -6.283926,3.34626 -9.209867,3.0748 -14.5441997,-1.34933 z m 64.0000017,0 c -4.331241,-3.59221 -4.494303,-4.05437 -3.838505,-10.87938 0.503264,-5.23757 1.476808,-7.76905 3.671108,-9.54589 3.911013,-3.16694 13.429377,-3.21377 17.228132,-0.0848 6.924018,5.70329 5.559144,17.55898 -2.516536,21.85936 -6.283925,3.34626 -9.209867,3.0748 -14.544199,-1.34933 z m 59.754168,-0.0741 c -4.66758,-4.66758 -5.14048,-10.71431 -1.32706,-16.96825 5.40322,-8.8612 21.9766,-6.48742 24.49605,3.50852 1.62232,6.43657 -0.76927,13.82331 -5.11689,15.80422 -6.39178,2.91229 -13.7511,1.95651 -18.0521,-2.34449 z M 67.895267,77.042964 c -1.409063,-0.526368 -2.60535,-1.726368 -2.658414,-2.666667 -1.068976,-18.941969 -2.899002,-25.361594 -9.311849,-32.665423 -3.897463,-4.438965 -3.980759,-4.772623 -1.794536,-7.188372 1.893501,-2.092296 2.023681,-3.123629 0.747752,-5.923989 -2.283904,-5.012623 -1.914374,-6.961608 1.778734,-9.381425 6.810502,-4.462412 14.201845,1.155286 11.545574,8.775071 -1.053555,3.022228 -0.911976,3.961943 0.6895,4.576487 2.571448,0.986759 4.441307,-0.164716 4.441307,-2.734991 0,-1.104932 0.728244,-3.319521 1.61832,-4.92131 C 75.841731,23.310554 76.403892,19 76.200904,15.333333 75.784686,7.8150172 78.236119,3.0378311 81.807191,4.4081803 c 1.206047,0.4628031 2.192811,2.1632146 2.192811,3.7786925 0,1.6154778 1.499725,6.6859532 3.332721,11.2677242 1.832997,4.58177 2.968804,9.278846 2.524015,10.437946 -0.614755,1.602026 0.05915,2.107456 2.809931,2.107456 2.92337,0 3.434074,-0.448314 2.658046,-2.333333 -0.528324,-1.283333 -1.241112,-3.30156 -1.583973,-4.484949 -0.851647,-2.939471 5.520401,-7.791948 9.027648,-6.874783 3.37636,0.882939 7.11713,6.330928 6.12402,8.918925 -0.40377,1.052214 -0.0495,3.726786 0.78717,5.943495 1.24778,3.305756 1.14162,4.4619 -0.59046,6.430512 -5.39473,6.131433 -11.705959,21.446662 -11.73571,28.478626 -0.03348,7.912749 -1.851271,9.056304 -15.12481,9.514852 -6.47427,0.22366 -12.924271,-0.02401 -14.333333,-0.55038 z"
       id="path30" />
  </g>
</svg>
