<?xml version="1.0" encoding="UTF-8" standalone="no"?>
<!-- Created with Inkscape (http://www.inkscape.org/) -->

<svg
   version="1.1"
   id="svg2"
   width="164"
   height="157.33333"
   viewBox="0 0 164 157.33333"
   xmlns="http://www.w3.org/2000/svg"
   xmlns:svg="http://www.w3.org/2000/svg">
  <defs
     id="defs6" />
  <g
     id="g8">
    <path
       style="fill:#000000;stroke-width:1.33333"
       d="m 91.780192,151.10276 c -1.220895,-0.32335 -2.507328,-1.33716 -2.858743,-2.25294 -1.214936,-3.16606 1.92416,-37.46896 3.521836,-38.48534 2.616352,-1.66441 8.470545,-1.14319 10.170855,0.90556 1.12783,1.35895 1.47485,7.15875 1.16326,19.44166 -0.39299,15.49138 -0.74178,17.72254 -3.03224,19.39662 -2.572929,1.88053 -4.719975,2.11869 -8.964968,0.99444 z m 25.333338,0 c -1.2209,-0.32335 -2.50733,-1.33716 -2.85875,-2.25294 -1.21493,-3.16606 1.92416,-37.46896 3.52184,-38.48534 2.61635,-1.66441 8.47054,-1.14319 10.17085,0.90556 1.12783,1.35895 1.47486,7.15875 1.16326,19.44166 -0.39298,15.49138 -0.74178,17.72254 -3.03224,19.39662 -2.57293,1.88053 -4.71997,2.11869 -8.96496,0.99444 z m 23.27104,-0.58486 c -1.83373,-1.83373 -0.68644,-37.02496 1.28836,-39.5179 1.8328,-2.31369 7.80503,-2.08367 11.40714,0.43934 2.94401,2.06207 2.98821,2.47235 2.11828,19.66666 -0.48866,9.65837 -1.48166,18.31066 -2.20667,19.22733 -1.6336,2.06544 -10.59503,2.19665 -12.60711,0.18457 z M 8.7619048,148.57142 c -1.6964617,-1.69645 -2.0890345,-5.43952 -2.0626435,-19.66666 0.039723,-21.41406 1.3405,-27.544 7.4189397,-34.961938 5.627058,-6.867081 10.042984,-8.60949 21.819723,-8.60949 7.577932,0 9.798439,0.586688 15.210239,4.018749 9.340322,5.923457 10.271192,9.145525 10.114772,35.010769 -0.151527,25.05595 -0.63396,26.30381 -10.169252,26.30381 -7.435783,0 -8.306448,-2.08781 -7.228414,-17.33333 1.204555,-17.03476 0.622298,-20.54023 -4.19384,-25.24889 -5.052057,-4.93932 -7.51465,-5.10455 -12.143398,-0.81477 C 24.040137,110.50213 24,110.74939 24,129.003 c 0,12.58285 -0.509612,18.97328 -1.6,20.06366 -2.296539,2.29654 -11.168484,1.97438 -13.6380952,-0.49524 z M 97.245841,54.162887 C 96.927296,53.859826 79.866667,53.356807 59.333333,53.045064 19.199604,52.435746 17.526045,52.151952 14.0138,45.36002 c -2.805691,-5.425609 -2.517516,-9.550717 1.035973,-14.82951 5.21311,-7.744198 8.285227,-8.526717 33.616894,-8.562774 35.621408,-0.05071 86.520843,2.213409 87.646253,3.898689 1.59663,2.390932 1.1614,5.802113 -1.01841,7.98193 -1.77384,1.773832 -8.22935,1.970023 -49.666675,1.509435 -50.678444,-0.563305 -60.506331,-0.127907 -59.446632,2.63362 0.630453,1.642936 17.052234,3.719794 27.15213,3.433924 2.566667,-0.07265 22.615094,-0.385131 44.55206,-0.694407 39.571977,-0.557901 39.909217,-0.586556 42.918277,-3.646624 4.91596,-4.999317 5.38445,-9.692042 1.32038,-13.2257 C 134.91447,17.58994 132.00545,17.315725 80,18.00255 53.233333,18.356053 28.178796,19.019794 24.323249,19.477532 14.252397,20.673161 10.439635,16.608472 15.433129,9.9999998 17.60174,7.1300254 12.479621,7.3729112 90.666667,6.4324996 99.1,6.3310663 115,6.7331663 126,7.3260561 c 28.15197,1.5173656 32.52809,4.2016499 32.61735,20.0072769 0.0809,14.322581 -6.1369,21.602562 -20.84387,24.404714 -7.99781,1.523841 -39.493916,3.408308 -40.527639,2.42484 z"
       id="path626" />
  </g>
</svg>
