<?xml version="1.0" encoding="UTF-8" standalone="no"?>
<!-- Created with Inkscape (http://www.inkscape.org/) -->

<svg
   version="1.1"
   id="svg2"
   width="114.66667"
   height="156"
   viewBox="0 0 114.66667 156"
   xmlns="http://www.w3.org/2000/svg"
   xmlns:svg="http://www.w3.org/2000/svg">
  <defs
     id="defs6" />
  <g
     id="g8">
    <path
       style="fill:#000000;stroke-width:1.33333"
       d="m 57.269676,150.80464 c -2.601678,-0.44255 -6.405963,-2.13369 -8.453964,-3.75809 -7.303753,-5.79306 -5.483839,-20.56409 3.079252,-24.99223 5.5261,-2.85766 5.406196,-6.04819 -0.228296,-6.07474 -5.804371,-0.0273 -7.991823,-1.63159 -7.449989,-5.4637 0.444968,-3.14703 0.64445,-3.18668 17.876496,-3.55291 15.969329,-0.33939 17.627349,-0.14843 19.828375,2.28368 3.628222,4.00913 1.778095,6.36104 -5.826682,7.40697 -7.333873,1.00866 -8.707494,2.56889 -3.428199,3.89391 1.833333,0.46013 3.333333,1.72518 3.333333,2.81121 0,1.08602 0.503691,1.97459 1.119314,1.97459 1.835529,0 4.21402,6.45729 4.21402,11.44052 0,5.70314 -7.376395,13.89282 -12.513173,13.89282 -1.7978,0 -4.0678,0.21209 -5.044445,0.4713 -0.976644,0.25923 -3.904363,0.1092 -6.506042,-0.33333 z M 22.666667,103.06067 c -5.018453,-0.6479 -9.333333,-3.699438 -9.333333,-6.600654 0,-0.986341 0.75,-1.818643 1.666666,-1.849559 19.08003,-0.643478 22.333334,-1.7271 22.333334,-7.438857 0,-3.558987 -9.172939,-13.838267 -12.348879,-13.838267 -1.096846,0 -2.716186,1.742868 -3.598533,3.873042 -2.986475,7.209986 -8.6391,5.771778 -11.9937395,-3.051591 -1.5901387,-4.182381 -0.829738,-8.248757 2.1858535,-11.689233 1.568208,-1.789162 1.653049,-3.286416 0.453313,-8 C 11.219564,51.276164 10.007466,47.466667 9.3377995,46 6.7436994,40.318547 4.0000001,28.592143 4.0000001,23.186569 c 0,-7.503629 2.673578,-10.11139 9.8305599,-9.588558 L 19.333334,14 l 0.79812,12 c 0.438965,6.6 1.705325,14.7 2.814133,18 1.424651,4.240007 1.650827,7.047831 0.771058,9.572163 -1.452296,4.167084 0.58085,9.094504 3.752564,9.094504 1.123128,0 4.125847,-1.58939 6.672709,-3.531976 l 4.630659,-3.531975 -0.801364,-19.845049 c -0.756521,-18.734555 -0.6409,-20.104688 2.066215,-24.484891 4.654047,-7.5304063 10.900607,-9.4628617 15.206904,-4.7044565 1.74907,1.9326997 2.324298,4.9025155 2.324298,12.0000005 0,7.007124 0.460546,9.43168 1.79156,9.43168 2.105404,0 6.097168,-5.471043 8.643088,-11.846065 2.346616,-5.875968 10.723259,-9.8018931 19.685458,-9.2260887 l 6.311267,0.405487 0.396342,5.3872107 c 0.353654,4.806977 -0.315698,6.200899 -6.214645,12.941956 -3.636043,4.155109 -6.993231,9.295095 -7.46042,11.422189 -0.467188,2.127095 -2.85152,6.053215 -5.298516,8.724711 -4.085489,4.460315 -5.048861,4.857267 -11.78821,4.857267 -5.34187,0 -8.195742,0.71363 -10.48684,2.622308 l -3.147713,2.622306 3.261666,0.04436 c 3.016871,0.04103 13.499836,6.09107 14.516112,8.377692 0.589163,1.325615 5.555556,1.292844 5.555556,-0.03666 0,-0.570162 -0.995706,-2.45823 -2.212681,-4.195704 -2.082075,-2.972578 -2.064657,-3.267284 0.295075,-4.992763 1.379265,-1.008544 3.424973,-1.436121 4.546015,-0.950172 1.121042,0.485949 4.819056,1.64732 8.217809,2.580824 9.043627,2.483928 22.149087,11.871109 24.530547,17.570743 2.32176,5.556741 2.56624,16.681949 0.45662,20.778052 -4.1299,8.018727 -10.867813,11.288927 -14.426008,7.001567 -1.260599,-1.51893 -1.020645,-2.475953 1.170075,-4.666673 5.876483,-5.876481 2.873519,-9.065737 -10.662674,-11.324144 -2.984129,-0.497878 -6.429539,-2.52371 -9.261556,-5.44561 -5.46128,-5.634611 -10.220087,-6.176119 -11.443375,-1.302147 -0.472684,1.88332 -0.146021,4.187997 0.745935,5.262739 0.872792,1.05165 1.393836,3.385333 1.157874,5.185964 -0.24141,1.842213 0.658128,4.475157 2.057038,6.020933 1.36733,1.510884 2.132118,3.669409 1.699528,4.796728 -0.651388,1.69749 -3.743268,2.04966 -17.995042,2.04966 -9.464683,0 -18.933514,0.22421 -21.041847,0.49824 -2.108334,0.27404 -5.933334,0.22713 -8.500001,-0.10424 z"
       id="path30" />
  </g>
</svg>
