<?xml version="1.0" encoding="UTF-8" standalone="no"?>
<!-- Created with Inkscape (http://www.inkscape.org/) -->

<svg
   version="1.1"
   id="svg22"
   width="66.666664"
   height="161.33333"
   viewBox="0 0 66.666664 161.33333"
   xmlns="http://www.w3.org/2000/svg"
   xmlns:svg="http://www.w3.org/2000/svg">
  <defs
     id="defs26" />
  <g
     id="g28">
    <path
       style="fill:#000000;stroke-width:1.33333"
       d="M 42.357572,152.5834 C 40.354237,151.49633 34.88174,144.77034 30.196465,137.63678 16.684481,117.06411 12,102.11669 12,79.574812 12,64.312076 13.948807,54.180218 20.077269,37.581059 l 2.616029,-7.085606 -5.013316,-4.464136 C 14.922658,23.576042 11.241666,20.428309 9.4999996,19.036353 6.5846375,16.706369 5.1312219,10.424333 7.0610351,8.4945201 10.37542,5.1801348 48.942018,4.1974446 57.333331,7.2135647 c 6.399497,2.3001946 6.811445,6.2339113 1.073937,10.2550993 -2.423998,1.698882 -5.194102,4.167441 -6.155785,5.485685 -0.961682,1.318245 -3.61469,4.140902 -5.895574,6.272573 -4.03914,3.774904 -4.089057,3.964292 -1.918153,7.277511 1.2259,1.87096 2.228909,4.496794 2.228909,5.83519 0,1.338395 0.813784,5.709505 1.808408,9.713577 6.335522,25.504994 5.960775,34.064553 -2.652924,60.59519 -4.755297,14.64656 -4.755588,14.64897 -2.333997,19.33333 1.332041,2.57672 4.392133,6.93668 6.800202,9.68878 4.600145,5.25738 5.446302,8.72818 2.778311,11.39616 -2.126007,2.12602 -6.24292,1.94023 -10.709093,-0.48326 z"
       id="path348" />
  </g>
</svg>
