<?xml version="1.0" encoding="UTF-8" standalone="no"?>
<!-- Created with Inkscape (http://www.inkscape.org/) -->

<svg
   version="1.1"
   id="svg32"
   width="69.333336"
   height="114.66667"
   viewBox="0 0 69.333336 114.66667"
   xmlns="http://www.w3.org/2000/svg"
   xmlns:svg="http://www.w3.org/2000/svg">
  <defs
     id="defs36" />
  <g
     id="g38">
    <path
       style="fill:#000000;stroke-width:1.33333"
       d="M 42.000002,101.84353 C 38.333335,97.753299 34.069391,93.115229 32.524571,91.536708 30.979749,89.958187 28.651396,86.566669 27.35045,84.000002 26.049505,81.433336 21.814186,74.533335 17.938631,68.666669 6.7007049,51.655127 4.30548,33.822064 11.193957,18.450841 15.636098,8.5384664 21.900897,5.3333335 36.833624,5.3333335 c 7.957592,0 10.186534,0.5552707 15.334747,3.820171 8.141726,5.1633295 10.894158,11.0618295 9.23767,19.7964555 -1.853368,9.772774 -3.786733,13.06494 -9.586974,16.324857 -4.085828,2.296364 -6.399359,2.748906 -10.506141,2.05507 -9.614949,-1.624435 -15.497582,-13.066181 -9.505749,-18.488717 3.089082,-2.79558 6.622863,-1.581545 7.682211,2.639232 0.603662,2.405178 1.709867,3.186266 4.512506,3.186266 5.768244,0 7.312788,-7.345229 2.783566,-13.237517 -2.018522,-2.625996 -3.982592,-3.345584 -10.398185,-3.809645 -7.521521,-0.544059 -8.080914,-0.368543 -11.401027,3.577188 -3.734673,4.438404 -5.821557,13.626759 -4.544825,20.010422 1.310371,6.551849 11.288597,25.737669 18.565535,35.697226 3.846174,5.264054 10.133152,12.020187 13.971061,15.013629 8.384599,6.539709 10.226302,11.342439 5.741943,14.973659 -5.362572,4.34234 -9.392728,3.12556 -16.71996,-5.0481 z"
       id="path209" />
  </g>
</svg>
