<?xml version="1.0" encoding="UTF-8" standalone="no"?>
<!-- Created with Inkscape (http://www.inkscape.org/) -->

<svg
   version="1.1"
   id="svg42"
   width="160"
   height="154.66667"
   viewBox="0 0 160 154.66667"
   xmlns="http://www.w3.org/2000/svg"
   xmlns:svg="http://www.w3.org/2000/svg">
  <defs
     id="defs46" />
  <g
     id="g48">
    <path
       style="fill:#000000;stroke-width:1.33333"
       d="M 18.562197,145.55488 C 9.0736844,139.53559 4.0312876,126.29765 8.159992,118.24568 c 2.076843,-4.05034 9.377443,-11.57901 11.228247,-11.57901 2.510384,0 6.329698,-5.07456 5.481982,-7.283675 -0.587733,-1.531609 -2.826326,-2.04966 -8.85696,-2.04966 -7.3459026,0 -8.2087942,-0.303674 -9.6116406,-3.382586 C 5.1275039,91.154367 5.2561565,90.17233 7.1439857,88.284082 9.0917109,86.335926 12.607189,85.967026 31.047113,85.775789 55.396797,85.523261 59.170624,86.530981 58.41384,93.08349 58.040329,96.317482 57.415289,96.700935 52,97.018293 c -14.208743,0.832692 -15.582079,3.702017 -5.46476,11.417587 8.265904,6.30366 11.392287,12.54014 10.296007,20.53837 -1.62487,11.85471 -9.077003,18.23841 -22.831247,19.55782 -8.772743,0.84156 -9.699988,0.66273 -15.437803,-2.97719 z m 71.778662,-1.88821 c -1.779218,-1.36727 -2.241343,-4.97049 -2.572539,-20.0583 -0.439301,-20.01249 -0.1435,-20.87967 7.136441,-20.92128 5.794329,-0.0331 7.730149,3.11852 8.030849,13.07482 0.73084,24.1978 -0.65062,29.57143 -7.602277,29.57143 -1.553009,0 -3.799622,-0.75 -4.992474,-1.66667 z m 24.754411,-0.47293 c -0.45158,-1.17678 -0.88275,-10.07966 -0.95816,-19.78417 -0.15085,-19.4133 0.71719,-22.07623 7.19622,-22.07623 6.24882,0 6.95273,2.29528 6.92479,22.58016 -0.0141,10.24742 -0.41337,19.25901 -0.88724,20.02576 -1.42907,2.31228 -11.33303,1.7108 -12.27561,-0.74552 z m 25.91225,0.47293 c -1.77921,-1.36727 -2.24133,-4.97049 -2.57253,-20.0583 -0.43931,-20.01249 -0.14351,-20.87967 7.13644,-20.92128 5.79433,-0.0331 7.73014,3.11852 8.03085,13.07482 0.73084,24.1978 -0.65063,29.57143 -7.60228,29.57143 -1.55301,0 -3.79963,-0.75 -4.99248,-1.66667 z M 65.333333,41.795389 C 57.625013,41.061152 46.374412,38.335009 40,35.65685 33.871407,33.081969 23.656457,33.319795 21.952388,36.077038 21.525349,36.768001 18.832475,37.333334 15.968223,37.333334 10.269232,37.333334 8,34.899909 8,28.788563 c 0,-3.93891 5.543857,-7.455229 11.753975,-7.455229 3.344829,0 10.029618,-3.750636 12.287812,-6.894326 0.389649,-0.54244 4.289649,-2.634777 8.666666,-4.6496367 C 47.848489,6.5026193 50.243073,6.1132801 64,6.0023627 c 9.794832,-0.078972 17.500573,0.5549868 21.333333,1.7551151 3.3,1.0333083 10.2,2.9399672 15.333337,4.2370202 5.13333,1.297052 12.85799,3.928902 17.1659,5.848557 4.30792,1.919653 8.80792,3.492521 10,3.495263 1.19209,0.0028 4.01742,1.133102 6.27852,2.511913 2.2611,1.378811 6.1611,2.948831 8.66667,3.488934 7.6202,1.642618 11.88891,4.429465 11.88891,7.761742 0,4.009293 -2.42947,6.334158 -5.17111,4.948459 -4.17636,-2.110844 -18.19465,-5.820857 -21.21156,-5.613744 -1.67713,0.115133 -5.62506,1.382721 -8.77317,2.816853 -9.4214,4.291946 -34.625083,6.405335 -54.177497,4.542914 z M 107.16302,32.28853 c 7.49206,-2.05268 8.4399,-3.626152 3.62983,-6.025733 C 103.10956,22.42987 98.709369,22.118 95.835551,25.202682 c -1.433354,1.538525 -3.032724,2.798052 -3.554158,2.798947 -0.521433,8.96e-4 -2.74806,1.553666 -4.94806,3.450602 l -4,3.448974 9.333334,-0.599055 C 97.8,33.97267 104.32336,33.066541 107.16302,32.28853 Z M 52,29.933787 c 0,-1.875697 -4.127348,-8.422847 -5.638613,-8.944447 -0.932096,-0.321705 -3.040031,0.01825 -4.684299,0.755476 -2.309477,1.035467 -2.651489,1.74777 -1.503408,3.131123 0.817395,0.9849 2.312705,1.790728 3.322913,1.790728 1.010207,0 1.83674,0.556006 1.83674,1.235568 0,0.679563 1.05,1.509962 2.333334,1.845331 C 51.284851,30.693097 52,30.72383 52,29.933787 Z"
       id="path70" />
  </g>
</svg>
