<?xml version="1.0" encoding="UTF-8" standalone="no"?>
<!-- Created with Inkscape (http://www.inkscape.org/) -->

<svg
   version="1.1"
   id="svg2"
   width="164"
   height="165.33333"
   viewBox="0 0 164 165.33333"
   xmlns="http://www.w3.org/2000/svg"
   xmlns:svg="http://www.w3.org/2000/svg">
  <defs
     id="defs6" />
  <g
     id="g8">
    <path
       style="fill:#000000;stroke-width:1.33333"
       d="M 66,155.29014 C 61.6,154.43569 52.9,152.99153 46.666667,152.0809 32.551067,150.01874 14.968851,145.61118 11,143.13988 c -5.4470085,-3.39171 -2.2844772,-12.47322 4.343657,-12.47322 1.356858,0 4.309614,-0.5751 6.561679,-1.27801 15.270133,-4.76607 42.563257,-8.35742 61.427997,-8.08296 9.132495,0.13287 35.646527,2.44029 40.654317,3.538 6.63835,1.45514 22.10478,6.17612 26.34568,8.04177 4.32491,1.9026 5.64258,5.65796 3.28579,9.36446 -1.26225,1.98512 -7.33463,4.46365 -14.28579,5.83096 -4.79744,0.94366 -14.14995,3.20521 -27.33333,6.60952 -7.44279,1.92194 -37.193925,2.30982 -46,0.59974 z m 45.33333,-14.66488 c 4.4,-0.37953 10.4,-1.20649 13.33334,-1.83766 L 130,137.64 l -4.73333,-0.15334 c -2.60334,-0.0843 -5.30334,-0.72218 -6,-1.41745 -0.69667,-0.69525 -10.56667,-1.39143 -21.933337,-1.54703 -11.366666,-0.1556 -21.929362,-0.7387 -23.472657,-1.29578 -2.817335,-1.01697 -15.806383,0.19714 -33.194009,3.10272 -9.069748,1.5156 -9.201542,1.59262 -4.666667,2.72741 10.688932,2.67473 52.43386,3.54403 75.33333,1.56873 z M 7.17181,101.648 C 4.3116825,98.787871 4.9956715,94.949383 8.8109035,92.449547 11.448423,90.721378 15.232903,90.169634 24.477571,90.165485 c 6.704002,-0.003 9.796704,-0.236183 6.872669,-0.518164 -6.678632,-0.644057 -8.927707,-2.478695 -8.417651,-6.866528 L 23.333333,79.333332 40,79.756588 c 15.416416,0.391505 16.885077,0.65504 19.578224,3.513093 2.894211,3.071428 3.068983,3.086279 29.333333,2.492435 28.069103,-0.63465 49.551083,-2.33488 51.210333,-4.053134 0.55359,-0.573274 1.76548,-4.942317 2.6931,-9.708983 2.03648,-10.464648 3.05802,-12 7.9842,-12 6.15926,0 7.62241,3.897281 7.70094,20.512493 0.0377,7.98187 -0.4753,15.528767 -1.14006,16.770883 -1.53256,2.863615 -14.93788,6.034055 -18.2959,4.327085 -3.128,-1.59005 -81.906398,-1.1615 -84.450014,0.4594 -1.071119,0.68256 -11.770175,1.28053 -23.77568,1.32882 C 13.97408,103.46651 8.5922117,103.0684 7.17181,101.648 Z M 54.666667,41.242943 C 34.973896,40.126373 29.06264,38.906019 16.914233,33.44911 8.1484317,29.511625 7.8432249,29.214689 8.2475663,25.017283 8.6099291,21.255652 9.6594504,20.143298 16,16.800737 25.471985,11.807368 36.812745,9.3749559 56.666667,8.0783829 82.063271,6.4198415 97.572091,7.56099 127.33333,13.27808 141.12644,15.927716 156,21.769272 156,24.536848 c 0,7.471713 -16.94796,12.742969 -54,16.795401 -11.98078,1.310353 -23.014935,1.289534 -47.333333,-0.08931 z M 116.70932,28.601582 c 10.00485,-0.93494 12.28904,-2.113217 9.14871,-4.719277 -1.59906,-1.327011 -6.0428,-1.891272 -15.06311,-1.912701 -7.03721,-0.01672 -13.479607,-0.461763 -14.316447,-0.988988 -2.062948,-1.299698 -42.045861,1.247844 -50.960949,3.247016 -6.478209,1.45271 -6.853601,1.72557 -4,2.907462 6.890405,2.853835 51.115641,3.716373 75.191796,1.466488 z"
       id="path1371" />
  </g>
</svg>
