<?xml version="1.0" encoding="UTF-8" standalone="no"?>
<!-- Created with Inkscape (http://www.inkscape.org/) -->

<svg
   version="1.1"
   id="svg12"
   width="161.33333"
   height="156"
   viewBox="0 0 161.33333 156"
   xmlns="http://www.w3.org/2000/svg"
   xmlns:svg="http://www.w3.org/2000/svg">
  <defs
     id="defs16" />
  <g
     id="g18">
    <path
       style="fill:#000000;stroke-width:1.33333"
       d="m 51.999999,149.79033 c -4.799921,-1.9561 -5.219371,-3.1114 -3.203771,-8.82422 2.194531,-6.21996 3.728426,-7.58299 8.566645,-7.61236 1.849582,-0.0107 5.465848,-1.75386 8.036147,-3.87252 4.164145,-3.43244 5.967611,-6.60084 12.606701,-22.1479 2.989061,-6.99962 9.736195,-15.089909 14.271302,-17.112301 11.391317,-5.07986 19.608627,-6.23861 22.189377,-3.128998 1.72321,2.076336 0.59167,58.175819 -1.21239,60.107819 -0.61621,0.65992 -9.40046,1.32919 -19.520535,1.48726 -10.120078,0.15806 -23.200143,0.65434 -29.06681,1.10284 -5.866666,0.44849 -11.566666,0.44865 -12.666666,3.8e-4 z M 69.703571,71.666667 C 68.994284,70.75 68.039648,68.95 67.582157,67.666667 66.628383,64.991173 62.253915,64.865315 28.666666,66.54702 c -11,0.550768 -21.0499995,0.481892 -22.3333328,-0.153057 -3.0301266,-1.499202 -2.9800501,-5.395392 0.1052319,-8.187534 2.0912731,-1.892576 6.4451799,-2.234741 30.5716409,-2.402565 15.473192,-0.107632 28.625838,-0.557533 29.228101,-0.99978 0.602264,-0.442245 1.759334,-2.004084 2.571269,-3.470751 2.066212,-3.732376 5.582257,-4.056361 9.015756,-0.830757 2.894981,2.719693 2.935237,2.720759 4.559017,0.12068 2.591825,-4.150172 8.141498,-3.425128 9.780964,1.277847 l 1.359929,3.901096 27.570708,-0.550135 c 15.16389,-0.302573 28.55593,-0.238195 29.76009,0.143064 2.4496,0.775589 4.01732,5.181476 2.88949,8.120553 -0.58496,1.524387 -3.27215,1.844562 -12.9088,1.538064 C 134.1432,64.840849 120.84603,64.816667 111.28748,65 l -17.379195,0.333333 -2.362859,4 c -2.761789,4.675339 -6.580748,5.161391 -9.361396,1.191459 l -1.967178,-2.80854 -2.404748,2.80854 c -2.700311,3.153733 -6.173379,3.642824 -8.108533,1.141875 z M 140.89253,35.967251 c -3.8872,-5.772151 -4.74516,-6.418064 -6.19869,-4.666667 -2.39739,2.888683 -7.66623,2.531864 -9.36051,-0.633917 -1.87926,-3.511428 -3.41156,-3.36372 -6.91593,0.666666 -3.66574,4.215968 -5.56402,4.199515 -8.67794,-0.07521 l -2.48296,-3.408549 -3.96158,3.40692 c -2.17888,1.873806 -4.451034,3.407654 -5.049243,3.40855 -2.421863,0.0036 -6.245679,-2.881192 -6.245679,-4.711953 0,-2.789021 -3.171543,-2.411831 -6,0.713579 -2.854338,3.154008 -7.669286,3.475005 -10,0.666666 -0.912918,-1.1 -2.412918,-2 -3.333333,-2 -0.920414,0 -2.420414,0.9 -3.333333,2 -2.338079,2.817212 -7.148615,2.484079 -10.024949,-0.694234 l -2.43825,-2.694236 -3.508025,3.360902 c -3.994096,3.826586 -6.958184,4.257454 -9.362109,1.360902 -1.82116,-2.194363 -6.088136,-2.681439 -7.23494,-0.82587 -0.399109,0.645772 -2.253557,1.466208 -4.120994,1.823191 -2.459075,0.470083 -4.064804,-0.202023 -5.823128,-2.437371 -1.826487,-2.322001 -2.806708,-2.707513 -3.957696,-1.556525 -0.841449,0.841449 -1.529908,2.216916 -1.529908,3.056591 0,2.687808 -5.010057,6.16891 -8.22338,5.713794 C 10.464067,38.065728 9.9369843,37.116851 9.5777005,32.081561 9.1185587,25.646784 11.759671,18.152952 17.03451,10.923776 21.16123,5.2680999 24.927094,5.6909231 29.188238,12.288371 l 3.200348,4.955037 3.954889,-3.327819 c 4.241888,-3.569313 6.737643,-2.911208 8.361407,2.204818 1.095101,3.450358 3.063378,3.20049 6.199997,-0.787074 3.422376,-4.350846 8.158625,-4.277838 11.665013,0.179812 1.519892,1.93223 2.76344,2.873086 2.76344,2.090792 0,-0.782294 1.757588,-2.673865 3.905752,-4.203493 l 3.90575,-2.78114 3.622279,3.357015 c 4.122825,3.820905 6.602221,4.25701 7.715053,1.357014 1.011554,-2.636064 7.35528,-2.560408 10.320505,0.12308 2.158331,1.953262 2.53705,1.899936 4.734643,-0.666666 2.871466,-3.353625 6.761656,-3.5656 10.996776,-0.59921 2.91222,2.039802 3.40047,2.029255 7.09518,-0.153265 3.84526,-2.271446 4.0863,-2.256167 7.80732,0.494908 l 3.83957,2.838716 3.37865,-5.352118 c 4.10181,-6.4976909 8.25103,-7.0710688 12.19664,-1.685445 2.81353,3.840374 7.42341,18.79566 7.42187,24.077844 -9.1e-4,3.035552 -3.65424,8.25549 -5.77788,8.25549 -0.6002,0 -3.12151,-3.014738 -5.60291,-6.699416 z"
       id="path1232" />
  </g>
</svg>
