<?xml version="1.0" encoding="UTF-8" standalone="no"?>
<!-- Created with Inkscape (http://www.inkscape.org/) -->

<svg
   version="1.1"
   id="svg22"
   width="152"
   height="158.66667"
   viewBox="0 0 152 158.66667"
   xmlns="http://www.w3.org/2000/svg"
   xmlns:svg="http://www.w3.org/2000/svg">
  <defs
     id="defs26" />
  <g
     id="g28">
    <path
       style="fill:#000000;stroke-width:1.33333"
       d="m 36.042853,151.38498 c -0.88935,-1.0716 -2.912817,-2.33835 -4.496593,-2.81499 -6.956216,-2.09347 -11.805984,-5.20467 -13.639235,-8.74977 C 16.763063,137.60803 14.843207,136 13.346005,136 9.2506052,136 7.367314,131.1642 9.9359747,127.24393 11.105,125.45977 12.647643,124 13.364071,124 c 2.465418,0 1.289714,-2.34357 -4.0960581,-8.16482 C 4.1948277,110.35179 3.9179721,109.63828 4.6757173,104 5.7941369,95.677994 9.3473859,92.867291 17.731135,93.672863 c 8.096396,0.777962 10.219448,2.625014 7.693974,6.693747 -1.012797,1.6317 -2.46193,3.96841 -3.220296,5.1927 -1.103136,1.78088 -0.10776,3.7138 4.977935,9.66667 3.496229,4.09238 6.959819,7.44069 7.696865,7.44069 0.737047,0 5.340652,1.74281 10.230236,3.87291 9.856932,4.29408 4.789443,4.27333 47.556818,0.19471 8.066663,-0.7693 18.067593,-1.39923 22.224283,-1.39984 10.71758,-0.002 11.7744,-0.6423 11.78315,-7.14377 0.009,-7.06915 2.14843,-14.77356 4.68616,-16.87969 2.93999,-2.439979 8.50791,-1.992292 10.64221,0.85568 3.27672,4.37242 5.5878,33.41787 2.942,36.97488 -1.7227,2.316 -13.14537,2.98707 -69.611137,4.08959 C 61.4,143.5032 49.1,144.09688 48,144.55043 c -1.1,0.45356 -3.022093,2.61527 -4.27132,4.80379 -2.481951,4.34812 -5.172569,5.05904 -7.685827,2.03076 z M 125.25904,71.207397 c -2.52581,-1.902597 -8.98412,-5.569249 -14.3518,-8.148113 -10.71533,-5.148095 -15.059125,-5.230957 -21.1952,-0.40432 -1.872748,1.473104 -4.374081,2.669337 -5.558519,2.658296 C 80.109651,65.275567 71.605028,61.677875 69.46732,59.100595 68.293627,57.685557 64.440485,54.459045 60.904783,51.930568 57.369081,49.402089 50.469081,43.978912 45.571449,39.879061 40.673819,35.77921 32.267672,29.542711 26.891123,26.020174 16.236973,19.039926 8,11.861221 8,9.5561425 8,8.751867 9.2489463,7.4254078 10.775436,6.6084552 13.524037,5.1374488 21.532796,8.2058139 38.930824,17.39552 41.642777,18.827984 44.550155,20 45.391663,20 c 0.841509,0 3.306112,1.264692 5.476896,2.810427 2.170784,1.545735 9.749462,5.180467 16.841506,8.077184 7.092046,2.896716 13.208571,5.746819 13.592282,6.333562 1.232521,1.884688 13.588781,6.778828 17.114542,6.778828 1.876181,0 4.649911,1.1524 6.163841,2.560889 3.17354,2.95251 25.82588,14.580734 31.1606,15.995807 2.68154,0.711299 3.70548,1.92769 4.03972,4.79897 0.874,7.508271 -6.9225,9.576169 -14.52201,3.85173 z"
       id="path1093" />
  </g>
</svg>
