<?xml version="1.0" encoding="UTF-8" standalone="no"?>
<!-- Created with Inkscape (http://www.inkscape.org/) -->

<svg
   version="1.1"
   id="svg32"
   width="162.66667"
   height="156"
   viewBox="0 0 162.66667 156"
   xmlns="http://www.w3.org/2000/svg"
   xmlns:svg="http://www.w3.org/2000/svg">
  <defs
     id="defs36" />
  <g
     id="g38">
    <path
       style="fill:#000000;stroke-width:1.33333"
       d="m 8.750953,147.74404 c -4.1381838,-3.55951 -3.945905,-7.98724 0.448996,-10.33932 1.293976,-0.69252 7.103341,-5.23691 12.909701,-10.09866 13.548596,-11.34443 20.745916,-15.00383 31.409612,-15.96989 4.664407,-0.42256 26.78074,-1.07999 49.147408,-1.46096 22.36667,-0.38097 42.64625,-0.76249 45.06573,-0.84783 5.89502,-0.20793 10.28418,4.06888 9.08386,8.85131 -0.7344,2.92611 -1.62814,3.46566 -5.84166,3.52663 -2.73602,0.0396 -23.2746,0.0685 -45.64126,0.0643 -47.379187,-0.009 -56.400171,0.90701 -65.780246,6.67863 -12.287036,7.56029 -12.161196,7.81552 4.018335,8.14993 7.935715,0.16403 17.428572,0.26693 21.095239,0.22868 61.871362,-0.64543 89.757362,-0.59563 91.666672,0.16373 1.28333,0.5104 2.33333,1.99734 2.33333,3.3043 0,1.30697 -1.05,3.64718 -2.33333,5.20048 -2.30522,2.79014 -3.10451,2.83096 -66.333338,3.38688 -35.200001,0.30948 -67.035191,0.97504 -70.744866,1.47904 -5.949416,0.80828 -7.188215,0.53498 -10.504183,-2.3173 z M 87.344162,83.436383 c -2.474132,-2.623344 -5.173895,-4.769716 -5.999475,-4.769716 -0.82558,0 -3.803081,1.849958 -6.616668,4.11102 -9.826048,7.896426 -16.01959,2.497612 -7.359884,-6.415498 l 4.885882,-5.028856 -5.446036,-2.377548 c -3.778932,-1.649748 -5.714676,-3.447894 -6.32362,-5.874121 -1.522996,-6.0681 6.056335,-8.719823 10.301888,-3.604244 2.721635,3.279369 5.061877,2.039916 5.936427,-3.144087 1.50332,-8.91111 2.0058,-9.845945 5.058512,-9.411061 2.350283,0.334817 2.96048,1.440708 3.289839,5.962331 0.432404,5.936301 3.010807,8.229932 5.661418,5.036142 2.436082,-2.9353 8.908294,-2.416722 10.658745,0.854019 1.29181,2.413773 0.78062,3.425048 -3.929293,7.773216 l -5.414299,4.998453 3.365307,4.560116 c 7.340595,9.946787 0.370778,16.278332 -8.068743,7.329834 z M 57.333335,38.630295 C 39.932907,37.285311 31.434917,35.815628 18.666667,31.9431 6.2118256,28.165627 3.2143831,25.690184 4.9155405,20.586712 6.04933,17.185344 7.3436214,16.599987 21.406282,13.128595 29.799494,11.056717 38.374323,9.3551964 40.461458,9.3474385 42.548593,9.3396807 47.535004,8.3801733 51.54237,7.2152001 57.329053,5.5329659 62.996317,5.2352461 79.080914,5.7685117 100.80491,6.4887449 120.4581,8.4129796 128,10.558156 c 2.56667,0.730049 8.56667,2.277146 13.33334,3.437993 13.11036,3.192826 17.68408,10.568772 9,14.514128 -17.09442,7.766348 -61.26572,12.572954 -93.000005,10.120018 z M 108.91931,26.819776 c 6.73896,-0.694995 13.24375,-1.818272 14.45509,-2.496175 1.87313,-1.048256 1.63599,-1.44728 -1.58598,-2.668666 -12.78067,-4.84491 -66.258086,-4.656131 -79.788419,0.28166 l -5.333334,1.946357 4.921311,0.05852 c 2.706722,0.03219 5.292131,0.658528 5.745356,1.391861 0.453226,0.733334 4.538635,1.393142 9.07869,1.46624 4.540055,0.07309 9.754644,0.623182 11.587977,1.222407 3.773959,1.233517 22.690444,0.677753 40.919309,-1.202204 z"
       id="path954" />
  </g>
</svg>
