<?xml version="1.0" encoding="UTF-8" standalone="no"?>
<!-- Created with Inkscape (http://www.inkscape.org/) -->

<svg
   version="1.1"
   id="svg42"
   width="82.666664"
   height="164"
   viewBox="0 0 82.666664 164"
   xmlns="http://www.w3.org/2000/svg"
   xmlns:svg="http://www.w3.org/2000/svg">
  <defs
     id="defs46" />
  <g
     id="g48">
    <path
       style="fill:#000000;stroke-width:1.33333"
       d="M 33.415119,155.43188 C 31.999446,153.72609 31.534555,145.11839 31.29523,116.181 31.126627,95.794729 30.575794,77.814168 30.071155,76.224195 29.234124,73.586941 28.249147,73.333333 18.843482,73.333333 c -10.5930415,0 -13.5101488,-1.19216 -13.5101488,-5.52131 0,-3.565899 2.4073799,-4.423158 14.4493568,-5.145356 L 30.898715,62 30.731719,36.340919 C 30.627256,20.290176 31.100659,9.6804331 31.995939,8.0075855 33.088638,5.96586 34.78633,5.3333333 39.173593,5.3333333 c 9.823549,0 10.159739,0.9983892 10.159739,30.1716547 0,17.89612 0.468006,25.763019 1.6,26.895012 0.963742,0.963743 5.629629,1.6 11.733333,1.6 10.482553,0 13.333333,1.204384 13.333333,5.633001 0,3.125296 -5.054948,5.033666 -13.333333,5.033666 -3.571187,0 -8.062576,0.596726 -9.980865,1.326058 l -3.487798,1.326059 0.218227,38.123376 c 0.140661,24.57293 -0.267991,38.6096 -1.149715,39.49132 -0.752369,0.75237 -3.993718,1.66391 -7.203001,2.02564 -4.366512,0.49217 -6.29143,0.10773 -7.648394,-1.52724 z"
       id="path815" />
  </g>
</svg>
