<?xml version="1.0" encoding="UTF-8" standalone="no"?>
<!-- Created with Inkscape (http://www.inkscape.org/) -->

<svg
   version="1.1"
   id="svg52"
   width="112"
   height="162.66667"
   viewBox="0 0 112 162.66667"
   xmlns="http://www.w3.org/2000/svg"
   xmlns:svg="http://www.w3.org/2000/svg">
  <defs
     id="defs56" />
  <g
     id="g58">
    <path
       style="fill:#000000;stroke-width:1.33333"
       d="m 13.852133,157.36154 c -6.0287954,-2.43846 -4.8056199,-10.0009 1.85302,-11.45654 6.496535,-1.42021 16.424642,-5.12149 17.62851,-6.57206 C 34.085616,138.4269 29.980135,133.12406 21.946468,124.6247 10.281403,112.28343 9.3815765,110.93923 9.3583491,105.82002 c -0.019983,-4.40411 0.636174,-5.946553 3.2614069,-7.666671 4.367873,-2.861942 11.600852,-2.7303 15.533765,0.282714 5.210034,3.991417 15.755006,8.551007 17.885335,7.733527 1.091319,-0.41878 2.691512,-2.31376 3.555987,-4.21108 C 51.09942,98.656323 49.477216,88.072182 44.440289,68.327393 L 43.333333,63.98812 32.338213,74.496946 C 21.236933,85.107238 15.057763,88.947031 11.364912,87.529951 7.5694627,86.0735 4.0101913,78.293612 4.0049841,71.442552 3.9910336,53.088176 9.8399932,36.503251 18.944996,29.079643 26.732785,22.73 29.677764,21.333334 35.278679,21.333334 c 3.730218,0 5.044824,-0.66244 5.953468,-3 1.273336,-3.275759 6.732233,-8.6981482 12.324238,-12.2418179 3.016124,-1.9113259 4.43398,-2.0223348 9.333334,-0.7307389 3.177321,0.8376239 7.074809,2.3537827 8.661084,3.3692418 6.088374,3.897492 5.542348,17.302375 -0.989472,24.29141 l -3.964531,4.242038 2.7016,2.7016 c 1.711436,1.711437 4.458715,2.701601 7.495773,2.701601 6.266127,0 11.632296,3.951404 15.103183,11.1213 1.536093,3.173144 4.325033,7.208721 6.197645,8.967949 1.872612,1.759228 4.690839,5.279526 6.262719,7.822886 4.86198,7.866844 3.4989,25.983886 -3.29518,43.797037 -2.698152,7.0742 -2.672963,8.92365 0.27636,20.29083 1.93747,7.46729 0.79475,18.78248 -2.111531,20.90843 -2.782634,2.03549 -5.477937,0.92989 -10.8643,-4.45647 C 84.582289,147.33784 84,145.85364 84,139.99754 c 0,-4.17316 0.886431,-8.11089 2.317532,-10.29503 1.502425,-2.29299 3.106672,-9.89695 4.561233,-21.61975 1.234036,-9.945518 2.653086,-19.690868 3.153443,-21.656334 0.897981,-3.527388 -1.498909,-7.631806 -10.568767,-18.097877 l -2.603936,-3.004784 -1.74301,5.004784 c -0.958656,2.752632 -1.755391,6.804786 -1.770523,9.004786 -0.01513,2.2 -0.600663,6.1 -1.301181,8.666667 -2.194136,8.0392 -2.439822,18.770688 -0.731471,31.950398 1.816937,14.01744 1.211588,21.1777 -2.341313,27.6937 -3.748324,6.87441 -7.395247,7.91233 -31.487514,8.96137 -12.016861,0.52325 -22.516861,1.16356 -23.333333,1.42291 -0.816471,0.25936 -2.751033,-0.0407 -4.299027,-0.66684 z M 25.468416,59.666668 c 2.287053,-2.383333 5.489485,-5.907214 7.116516,-7.830844 3.811672,-4.506523 7.619717,-6.50249 12.405907,-6.50249 2.108048,0 4.92961,-0.801996 6.270136,-1.782212 2.246505,-1.642685 2.021092,-1.948754 -2.879238,-3.909477 -5.168234,-2.067919 -7.522814,-5.407166 -8.678876,-12.308311 -0.325116,-1.940795 -1.525014,-0.532341 -4.40812,5.1743 -3.221522,6.376483 -4.983837,8.282214 -9.435576,10.203436 -3.010793,1.299358 -5.860793,3.369996 -6.333333,4.601416 -1.361703,3.54854 -0.997496,16.687515 0.462571,16.687515 0.726954,0 3.192961,-1.95 5.480013,-4.333333 z"
       id="path676" />
  </g>
</svg>
