<?xml version="1.0" encoding="UTF-8" standalone="no"?>
<!-- Created with Inkscape (http://www.inkscape.org/) -->

<svg
   version="1.1"
   id="svg62"
   width="160"
   height="160"
   viewBox="0 0 160 160"
   xmlns="http://www.w3.org/2000/svg"
   xmlns:svg="http://www.w3.org/2000/svg">
  <defs
     id="defs66" />
  <g
     id="g68">
    <path
       style="fill:#000000;stroke-width:1.33333"
       d="m 89.288047,153.33537 c -6.720838,-1.17237 -7.958486,-2.27812 -7.925431,-7.08073 0.04377,-6.36045 4.184752,-14.06027 11.937251,-22.19638 l 6.932063,-7.27506 14.88403,0.33116 c 16.62428,0.36989 17.91437,0.59322 25.78263,4.46326 3.76766,1.85315 6.91926,4.91546 9.75722,9.4808 4.94722,7.95839 6.73906,18.12409 3.64696,20.6903 -2.17682,1.80661 -56.196289,3.12492 -65.014723,1.58665 z M 30,148.16393 C 19.531873,143.3666 6.6666667,127.13375 6.6666667,118.72279 c 0,-1.70608 1.1954996,-7.06664 2.6566658,-11.91237 2.0961005,-6.951392 4.0852785,-10.279691 9.4272325,-15.773675 7.726391,-7.946281 12.315788,-9.685018 25.592538,-9.695976 7.260906,-0.006 10.302532,0.690766 15.669808,3.589551 9.396018,5.074649 12.587946,9.056867 15.841778,19.76404 2.1368,7.03143 2.618791,11.01321 1.936783,16 -1.106547,8.09098 -5.641049,17.45141 -10.697852,22.08325 C 59.113864,150.08675 40.191411,152.83447 30,148.16393 Z m 5.999884,-8.09209 C 32.957793,134.57869 26.971807,129.24599 23,128.4907 c -3.650428,-0.69417 -4.325776,-0.43005 -4.285383,1.67597 0.06855,3.57372 5.091674,9.09514 11.22136,12.33452 5.550704,2.93338 8.401327,1.79137 6.063907,-2.42935 z m 16.438953,-3.40581 C 52.313531,135.19971 50.541859,132.8 48.501789,131.33333 46.461719,129.86667 43.535717,127.46667 41.999567,126 40.463415,124.53333 37.585085,122.5962 35.603281,121.69525 33.621476,120.79431 32,119.47313 32,118.75931 c 0,-2.4108 -12.126877,-9.83243 -13.622408,-8.3369 -2.587816,2.58781 0.294031,7.56681 7.29904,12.61062 3.844519,2.76817 10.290035,7.70704 14.323368,10.97526 7.748951,6.27902 12.841281,7.36707 12.438837,2.65774 z m 13.976487,-7.02181 c 0.49848,-3.37691 -6.950957,-10.97755 -10.759176,-10.97755 -0.984355,0 -5.431881,-2.93488 -9.883393,-6.52195 -4.451512,-3.58707 -9.292324,-6.90239 -10.757362,-7.36737 -1.465036,-0.46499 -3.735826,-2.03011 -5.046198,-3.47806 -3.013899,-3.330317 -6.810688,-3.376323 -8.56212,-0.10374 -1.116235,2.0857 -0.598719,3.11068 2.953088,5.84883 2.368577,1.82597 5.748309,4.58797 7.510517,6.13778 1.762207,1.54981 4.012207,2.81784 5,2.81784 0.987792,0 1.795987,0.55392 1.795987,1.23094 0,1.39163 16.564453,12.69553 21.465129,14.64821 4.254815,1.69533 5.783632,1.15156 6.283528,-2.23493 z m 3.999216,-12.67081 c 0.322159,-2.71039 -0.442325,-3.93071 -3.430444,-5.47593 -2.11474,-1.09357 -4.624751,-2.92788 -5.577799,-4.07623 -0.953049,-1.14836 -2.986757,-2.08792 -4.51935,-2.08792 -1.532595,0 -4.309128,-1.50968 -6.170074,-3.35484 -8.044185,-7.975959 -14.80251,-12.897598 -16.707164,-12.166714 -2.261388,0.867776 -2.789124,7.521557 -0.596561,7.521557 0.777231,0 4.585204,2.999997 8.462164,6.666667 4.649989,4.39777 8.200877,6.66667 10.433505,6.66667 2.138811,0 4.188354,1.22685 5.568574,3.33333 1.201246,1.83333 2.996785,3.33333 3.990086,3.33333 0.993303,0 2.569522,0.91999 3.502711,2.04441 2.33892,2.81823 4.548792,1.76492 5.044352,-2.40433 z M 66.666667,98.012103 c 0,-3.1983 -5.948047,-8.6363 -9.53916,-8.721174 -0.986796,-0.02332 -2.958851,-0.923322 -4.382347,-2 C 49.718827,85.001925 44,84.677076 44,86.794173 c 0,3.110612 5.406336,8.817928 10.907739,11.514991 10.09827,4.950676 11.758928,4.908726 11.758928,-0.297061 z M 6.7460964,40.762373 C 3.2254629,36.520269 12.518632,11.921107 19.327217,7.45995 c 4.562922,-2.9897411 6.725487,-2.664122 9.733799,1.4656259 2.548512,3.4985451 2.706689,3.5333231 6.064297,1.3333331 4.530706,-2.9686322 7.1481,-2.8524247 9.184118,0.407758 2.128101,3.407632 5.253037,3.407632 7.381138,0 2.151346,-3.4448514 6.687963,-3.4021934 10.413663,0.09792 l 2.942768,2.764587 2.729136,-2.929385 c 3.018275,-3.2397363 7.730528,-2.9026495 11.452416,0.819238 1.886697,1.886698 2.360348,1.886511 5.056577,-0.002 3.758502,-2.6325569 7.539666,-2.6555503 10.404107,-0.06327 2.00528,1.814754 2.580285,1.74689 5.648624,-0.666666 4.32784,-3.4042774 7.18102,-3.4107557 8.99547,-0.02043 1.6866,3.151426 5.66284,3.48278 8,0.666666 2.10659,-2.5382779 6.49444,-2.5691629 9.2613,-0.06519 1.898,1.717665 2.43353,1.492331 4.77166,-2.0077561 1.44854,-2.1684125 3.71308,-4.2888348 5.03232,-4.7120493 2.84656,-0.9131819 8.79932,2.6673068 9.74704,5.8626834 0.36795,1.240604 2.4357,6.796754 4.595,12.347001 4.60835,11.845211 4.82406,14.682628 1.3549,17.822169 -3.20348,2.899114 -7.64923,1.726591 -8.77782,-2.315062 -1.01345,-3.629358 -3.4643,-9.03924 -5.11665,-11.294235 -0.96037,-1.310652 -1.67139,-1.083547 -3.13076,1 -2.29672,3.279024 -7.94564,3.523567 -11.29867,0.48912 -2.17674,-1.969927 -2.68863,-1.991668 -4.77165,-0.202665 -4.53217,3.89246 -7.25046,4.001602 -10.96759,0.440362 l -3.5334,-3.38521 -2.90736,3.343748 c -3.505847,4.032084 -5.548169,4.183976 -9.553133,0.710488 -3.023337,-2.622126 -3.050332,-2.622126 -6.383825,0 -4.331289,3.406993 -5.456057,3.322474 -9.683468,-0.72764 l -3.508025,-3.360903 -2.43825,2.694236 c -2.866504,3.167451 -8.994828,3.542023 -11.358282,0.694235 -2.266123,-2.730511 -4.37369,-2.509496 -6.357236,0.666666 -2.275954,3.644382 -6.247102,3.34738 -9.435222,-0.705658 l -2.652672,-3.372326 -3.638798,3.372326 c -4.520314,4.189285 -5.230302,4.186413 -10.254867,-0.04148 l -4.057077,-3.413806 -3.502714,8.413806 C 15.890771,40.497733 14.6559,42.071552 11.85189,42.400744 9.9744765,42.621153 7.6768695,41.883887 6.7460964,40.762373 Z"
       id="path537" />
  </g>
</svg>
