<?xml version="1.0" encoding="UTF-8" standalone="no"?>
<!-- Created with Inkscape (http://www.inkscape.org/) -->

<svg
   version="1.1"
   id="svg72"
   width="160"
   height="164"
   viewBox="0 0 160 164"
   xmlns="http://www.w3.org/2000/svg"
   xmlns:svg="http://www.w3.org/2000/svg">
  <defs
     id="defs76" />
  <g
     id="g78">
    <path
       style="fill:#000000;stroke-width:1.33333"
       d="m 101.04225,156.11172 c -22.707955,-0.96635 -23.727619,-1.58451 -21.046793,-12.75945 2.193476,-9.14343 11.282822,-20.50264 19.864836,-24.82563 7.174307,-3.61389 23.300357,-5.00328 29.777977,-2.5656 8.91558,3.35513 11.15422,4.74994 16.44613,10.2469 6.43619,6.68559 8.75715,13.10486 7.21324,19.95035 -1.6818,7.45683 -3.72224,8.71231 -14.80293,9.10818 -5.40543,0.19312 -11.92804,0.63744 -14.49471,0.98738 -2.56667,0.34994 -12.89765,0.28598 -22.95775,-0.14213 z m -74.381662,-4.57916 c -8.839564,-2.38544 -18.5940588,-9.53325 -19.5529775,-14.32784 -0.4319565,-2.15979 -1.3078784,-4.2498 -1.946493,-4.64449 -1.8085446,-1.11774 -1.366956,-9.07526 0.7901033,-14.23783 3.1195573,-7.46615 9.0999622,-11.65573 16.6379352,-11.65573 7.687021,0 12.527311,3.28282 14.744149,9.99991 2.523474,7.6462 -0.966508,14.45528 -8.226293,16.04979 -4.712501,1.03504 -11.395932,-1.43558 -12.213289,-4.51481 -0.516215,-1.94474 -0.602428,-1.93072 -0.739055,0.12017 -0.238701,3.58317 7.553751,10.19018 13.012723,11.03314 7.11597,1.09883 11.442258,3.67119 11.934961,7.0964 0.940607,6.53899 -3.391615,8.06327 -14.441764,5.08128 z M 28,121.47599 c 0,-0.65488 -0.9,-1.53605 -2,-1.95816 -2.032368,-0.77989 -2.730659,0.6404 -1.111111,2.25995 C 26.163152,123.05204 28,122.87386 28,121.47599 Z M 73.216763,39.489756 C 72.914209,39.215127 65.166667,38.610569 56,38.146293 38.797155,37.274999 33.073612,36.315269 16,31.439052 6.0389692,28.594185 5.9983991,28.563929 5.5891767,23.675132 5.2147701,19.202265 5.5795724,18.599568 9.7045505,16.876043 15.284613,14.544543 35.68372,10.044097 50.07516,7.9694883 c 11.509725,-1.6591932 49.116905,-0.894949 64.59151,1.3126134 10.37986,1.4807623 29.89046,5.8728533 35,7.8789573 4.79326,1.88193 5.17834,8.462441 0.66666,11.392346 -4.5856,2.977914 -22.81481,7.261407 -37.66666,8.850902 -14.938855,1.598805 -38.607605,2.850012 -39.449907,2.085449 z M 119.25971,25.718008 131.1861,23.508291 120.59305,21.257855 c -19.4275,-4.127268 -55.774027,-4.322864 -83.011521,-0.446723 -5.246961,0.746691 -5.529653,0.974135 -3.220784,2.591331 2.237787,1.567406 14.238072,3.576458 30.305922,5.073728 10.840802,1.010192 43.032273,-0.616206 54.593043,-2.758183 z"
       id="path398" />
  </g>
</svg>
