<?xml version="1.0" encoding="UTF-8" standalone="no"?>
<!-- Created with Inkscape (http://www.inkscape.org/) -->

<svg
   version="1.1"
   id="svg82"
   width="88"
   height="161.33333"
   viewBox="0 0 88 161.33333"
   xmlns="http://www.w3.org/2000/svg"
   xmlns:svg="http://www.w3.org/2000/svg">
  <defs
     id="defs86" />
  <g
     id="g88">
    <path
       style="fill:#000000;stroke-width:1.33333"
       d="m 36.807772,152.33333 c -1.323019,-4.37716 -1.213172,-19.78356 0.225464,-31.62232 0.916269,-7.54012 1.194581,-8.02069 5.328571,-9.20104 2.864549,-0.8179 5.426169,-0.76044 7.462504,0.16737 2.658093,1.21111 3.22365,2.71483 3.962048,10.53438 1.38596,14.67717 1.049889,29.08536 -0.719692,30.85494 -0.88,0.88 -4.739568,1.6 -8.576816,1.6 -5.487028,0 -7.127415,-0.49824 -7.682079,-2.33333 z M 49.496461,83.958564 C 45.552848,83.385416 40.752848,81.778356 38.829795,80.387318 36.90674,78.996281 32.933333,76.650325 30,75.174082 25.393225,72.855656 24.212567,72.72641 21.333333,74.225346 16.366936,76.810864 13.832295,76.38827 10.741894,72.459463 7.400192,68.211176 8.1158531,61.031572 12.343668,56.390262 14.916265,53.566055 14.933876,53.256131 12.779716,48.716575 6.5335439,35.553745 5.4596841,21.148613 10.167368,13.673621 12.953911,9.2490683 20.49042,6.6666665 30.616536,6.6666665 c 7.336569,0 10.444524,0.7430559 17.174688,4.1061585 l 8.217149,4.106157 4.486526,-2.772824 c 11.564428,-7.1472093 22.199789,2.051695 14.171768,12.257669 -3.431686,4.36268 -3.360098,5.57163 0.640509,10.816695 6.927029,9.081804 9.422961,24.106103 5.514669,33.195635 -2.651076,6.165621 -11.28465,13.81612 -17.488512,15.497152 -2.933333,0.794833 -5.633333,1.373644 -6,1.286245 -0.366666,-0.0874 -3.89326,-0.627844 -7.836872,-1.20099 z"
       id="path259" />
  </g>
</svg>
