<?xml version="1.0" encoding="UTF-8" standalone="no"?>
<!-- Created with Inkscape (http://www.inkscape.org/) -->

<svg
   version="1.1"
   id="svg92"
   width="162.66667"
   height="161.33333"
   viewBox="0 0 162.66667 161.33333"
   xmlns="http://www.w3.org/2000/svg"
   xmlns:svg="http://www.w3.org/2000/svg">
  <defs
     id="defs96" />
  <g
     id="g98">
    <path
       style="fill:#000000;stroke-width:1.33333"
       d="m 12.345061,153.78476 c -4.5980266,-0.97526 -7.0117276,-5.57524 -7.0117276,-13.36283 0,-8.22422 2.7544333,-11.62472 11.2744446,-13.91892 7.159378,-1.92782 11.218385,-0.3063 14.34542,5.73082 6.244725,12.05621 -4.531483,24.53662 -18.608137,21.55093 z m 62.666669,0 c -4.598027,-0.97526 -7.011729,-5.57524 -7.011729,-13.36283 0,-8.22422 2.754434,-11.62472 11.274445,-13.91892 7.159378,-1.92782 11.218385,-0.3063 14.34542,5.73082 6.244725,12.05621 -4.531483,24.53662 -18.608136,21.55093 z m 57.07506,-3.23794 c -5.44959,-5.96653 -5.77168,-14.44598 -0.72633,-19.12186 4.54316,-4.21045 13.2043,-6.35113 17.79909,-4.3992 7.07129,3.00397 8.17379,4.84388 8.17379,13.6409 0,10.4756 -2.07259,12.62387 -13.14804,13.62815 -7.77503,0.70503 -8.13244,0.59429 -12.09851,-3.74799 z M 57.504572,80.581518 c -3.49681,-4.445473 -2.024419,-8.760295 3.633929,-10.649178 5.740103,-1.916176 7.144842,-3.625004 6.632404,-8.068149 -0.364506,-3.160494 -1.439425,-4.139812 -6.43757,-5.865032 -5.881606,-2.030165 -6.008082,-2.196821 -6.409547,-8.445752 -0.407792,-6.347428 -0.386106,-6.383928 5.065524,-8.525389 5.287357,-2.076933 5.461395,-2.33702 5.076213,-7.586063 -0.354896,-4.836318 -0.986684,-5.738524 -5.73219,-8.185674 -4.55215,-2.34744 -5.393283,-3.459748 -5.742626,-7.593988 -0.618436,-7.3188022 3.025475,-10.38158 10.597582,-8.9074726 10.075352,1.961429 20.134985,6.3702146 24.838039,10.8856436 6.491559,6.232582 9.50472,12.913669 11.14316,24.707746 1.30774,9.413542 1.17696,10.997253 -1.491297,18.058575 -1.700496,4.500224 -5.020914,9.802296 -7.932487,12.666667 -9.719796,9.562213 -12.536888,10.926546 -22.561275,10.926546 -6.988595,0 -8.328158,-0.428776 -10.679859,-3.41848 z"
       id="path120" />
  </g>
</svg>
