<?xml version="1.0" encoding="UTF-8" standalone="no"?>
<!-- Created with Inkscape (http://www.inkscape.org/) -->

<svg
   version="1.1"
   id="svg2"
   width="164"
   height="52"
   viewBox="0 0 164 52"
   xmlns="http://www.w3.org/2000/svg"
   xmlns:svg="http://www.w3.org/2000/svg">
  <defs
     id="defs6" />
  <g
     id="g8">
    <path
       style="fill:#000000;stroke-width:1.33333"
       d="M 8.8488311,44.201289 C 7.6486407,42.875093 6.6666667,41.135269 6.6666667,40.335012 6.6666667,37.796951 22.378277,23.051989 33.050227,15.574689 47.312889,5.5815548 49.990004,5.2319763 108.23971,5.7564213 158.16193,6.2058908 160,6.4334049 160,12.16326 c 0,1.376873 -1.20656,3.709973 -2.68125,5.184665 -2.60086,2.600847 -4.15032,2.671768 -51.66668,2.364846 l -48.985403,-0.316412 -8,4.193988 c -17.154344,8.993137 -20.167104,8.474553 47.576029,8.189229 48.346554,-0.203628 61.340574,0.10132 62.999994,1.478535 2.95472,2.452196 2.67943,8.999626 -0.44878,10.673796 -1.59019,0.85104 -29.68198,1.606069 -75.151178,2.019854 -68.828811,0.626367 -72.725423,0.535171 -74.7939009,-1.750472 z"
       id="path1191" />
  </g>
</svg>
