<?xml version="1.0" encoding="UTF-8" standalone="no"?>
<!-- Created with Inkscape (http://www.inkscape.org/) -->

<svg
   version="1.1"
   id="svg12"
   width="158.66667"
   height="154.66667"
   viewBox="0 0 158.66667 154.66667"
   xmlns="http://www.w3.org/2000/svg"
   xmlns:svg="http://www.w3.org/2000/svg">
  <defs
     id="defs16" />
  <g
     id="g18">
    <path
       style="fill:#000000;stroke-width:1.33333"
       d="m 53.333334,148.457 c -4.799921,-1.9561 -5.21937,-3.1114 -3.20377,-8.82422 2.19453,-6.21996 3.728425,-7.58299 8.566645,-7.61236 1.849582,-0.0112 5.465848,-1.75387 8.036147,-3.87252 4.164145,-3.43244 5.967611,-6.60084 12.606702,-22.1479 2.989061,-6.999617 9.736195,-15.08991 14.271303,-17.112302 11.391319,-5.07986 19.608629,-6.238611 22.189379,-3.128999 1.72321,2.076336 0.59167,58.175821 -1.21239,60.107821 -0.61622,0.65992 -9.40046,1.32919 -19.520537,1.48726 -10.120079,0.15806 -23.200145,0.65434 -29.066812,1.10284 -5.866666,0.44849 -11.566667,0.44865 -12.666667,3.8e-4 z M 69.666668,33.783626 c -0.916667,-0.369883 -1.666667,-1.537365 -1.666667,-2.594404 0,-3.830404 -6.524228,-4.729068 -23.685501,-3.262503 -34.8170071,2.975387 -43.1135823,0.952794 -37.6866619,-9.1875 1.181641,-2.207916 3.7403879,-2.436907 29.3478849,-2.626441 15.429361,-0.1142 28.892685,-0.52971 29.9185,-0.923351 1.025816,-0.393643 2.220661,-2.132309 2.655213,-3.863703 1.169136,-4.658208 6.03283,-5.7209215 9.062008,-1.9800429 2.31893,2.8637569 2.572312,2.9013239 4.964854,0.7361029 3.548604,-3.2114416 9.964007,-2.302578 10.503749,1.488056 0.662327,4.651531 3.49338,6.203067 8.535023,4.677548 5.15515,-1.559868 47.71697,-2.063564 49.83523,-0.589772 2.81688,1.959876 3.01828,6.775023 0.3831,9.159821 -2.26436,2.049221 -5.61044,2.267586 -30.4417,1.986641 l -27.897718,-0.31564 -2.114564,4.089115 c -2.509189,4.852238 -6.224134,5.296006 -9.117367,1.089114 l -2.063208,-3 -2.175027,3 c -2.08503,2.875871 -4.78279,3.559244 -8.357148,2.116959 z"
       id="path934" />
  </g>
</svg>
