<?xml version="1.0" encoding="UTF-8" standalone="no"?>
<!-- Created with Inkscape (http://www.inkscape.org/) -->

<svg
   version="1.1"
   id="svg22"
   width="162.66667"
   height="160"
   viewBox="0 0 162.66667 160"
   xmlns="http://www.w3.org/2000/svg"
   xmlns:svg="http://www.w3.org/2000/svg">
  <defs
     id="defs26" />
  <g
     id="g28">
    <path
       style="fill:#000000;stroke-width:1.33333"
       d="m 121.33334,154.38235 c -12.90673,-1.90899 -19.37319,-9.54646 -19.19488,-22.67087 0.0937,-6.89652 0.60282,-8.19687 5.31592,-13.57744 2.86676,-3.27276 6.56229,-6.35682 8.21229,-6.85346 1.73555,-0.5224 3,-1.96603 3,-3.42512 0,-2.14203 -1.01792,-2.52213 -6.75432,-2.52213 -9.06536,0 -11.91235,-1.68718 -11.91235,-7.059513 0,-6.775729 2.26265,-7.370393 28.1275,-7.392422 19.30828,-0.01644 23.59773,0.334485 25.53917,2.089404 2.84535,2.571994 2.96795,5.529806 0.38223,9.221441 -1.45086,2.07138 -4.01478,3.01906 -10,3.69621 -4.4269,0.50085 -8.0489,1.1958 -8.0489,1.54433 0,0.34854 3.50691,4.06874 7.79314,8.26713 8.24362,8.07468 10.5692,13.73596 8.7007,21.18064 -3.35266,13.3581 -14.98874,19.8937 -31.1605,17.5018 z m -95.626783,-6.40914 c -3.991359,-1.60605 -5.238965,-7.12 -2.542238,-11.23572 1.168723,-1.78369 4.545722,-5.18847 7.504442,-7.56616 6.417537,-5.15727 5.997546,-5.85054 -6.399719,-10.56382 -8.901132,-3.3841 -8.935708,-3.41721 -8.935708,-8.55793 0,-4.46691 0.501856,-5.32798 3.733062,-6.40505 3.053527,-1.01784 4.653831,-0.63501 8.791353,2.10307 2.78206,1.84108 6.502181,3.55104 8.266937,3.79991 3.128493,0.44119 3.22604,0.16938 3.904873,-10.880843 0.382924,-6.233334 1.168334,-12.083334 1.745357,-13 1.426589,-2.266304 5.019704,-2.095351 8.595077,0.408938 2.612809,1.830083 2.963341,3.254507 2.963341,12.041847 0,11.642598 1.38599,13.021588 8.731635,8.687548 6.423612,-3.79002 11.979699,-3.66047 14.60121,0.34046 1.133541,1.73 1.727048,4.01568 1.318904,5.07929 -0.408144,1.06361 -4.921756,3.84683 -10.030248,6.18493 -5.108492,2.33811 -9.288167,5.03473 -9.288167,5.99249 0,2.07202 7.675949,9.53142 11.011536,10.70087 1.289677,0.45217 3.068109,2.40947 3.952071,4.34955 1.450396,3.18326 1.246888,3.83734 -2.085887,6.70408 -2.0312,1.74717 -4.538753,3.17666 -5.572343,3.17666 -2.630628,0 -10.652947,-7.29625 -14.029668,-12.7599 C 50.387784,134.05804 48.358506,132 47.432874,132 c -0.925633,0 -4.53772,3.55923 -8.02686,7.90939 -5.199729,6.48288 -9.041172,9.89482 -10.515063,9.33942 -0.12336,-0.0465 -1.556333,-0.6205 -3.184394,-1.2756 z M 58.666668,38.630295 C 41.266241,37.285311 32.76825,35.815628 20,31.9431 7.545159,28.165627 4.5477165,25.690184 6.2488739,20.586712 7.3826634,17.185344 8.6769547,16.599987 22.739615,13.128595 31.132827,11.056717 39.707657,9.3551964 41.794792,9.3474385 c 2.087134,-0.00776 7.073545,-0.9672652 11.080912,-2.1322384 5.786683,-1.6822342 11.453947,-1.979954 27.538543,-1.4466884 21.723993,0.7202332 41.377193,2.6444679 48.919093,4.7896443 2.56666,0.730049 8.56666,2.277146 13.33333,3.437993 13.11036,3.192826 17.68408,10.568772 9,14.514128 -17.09441,7.766348 -61.265716,12.572954 -93.000002,10.120018 z M 110.25265,26.819776 c 6.73895,-0.694995 13.24374,-1.818272 14.45509,-2.496175 1.87313,-1.048256 1.63599,-1.44728 -1.58598,-2.668666 -7.96922,-3.020979 -41.442573,-4.560795 -60.455092,-2.78101 -4.033333,0.377566 -12.733334,1.18668 -19.333334,1.798034 l -12,1.11155 8,1.806699 c 4.4,0.993685 13.292656,2.335051 19.761458,2.980813 6.468801,0.645764 12.139477,1.552135 12.601501,2.01416 0.973087,0.973086 20.809838,0.0648 38.556357,-1.765405 z"
       id="path795" />
  </g>
</svg>
