<?xml version="1.0" encoding="UTF-8" standalone="no"?>
<!-- Created with Inkscape (http://www.inkscape.org/) -->

<svg
   version="1.1"
   id="svg32"
   width="160"
   height="150.66667"
   viewBox="0 0 160 150.66667"
   xmlns="http://www.w3.org/2000/svg"
   xmlns:svg="http://www.w3.org/2000/svg">
  <defs
     id="defs36" />
  <g
     id="g38">
    <path
       style="fill:#000000;stroke-width:1.33333"
       d="m 140.97255,142.38992 c -6.23426,-1.65481 -7.3173,-3.63025 -8.33108,-15.1957 -1.29056,-14.723 -1.21435,-14.57586 -9.23584,-17.83154 l -7.29102,-2.95921 -3.9298,2.79827 c -4.27535,3.04432 -7.9252,3.45136 -14.371087,1.6027 -3.268474,-0.93738 -4.994124,-0.65135 -7.991198,1.32455 -5.296197,3.49167 -18.079388,3.48578 -22.989588,-0.0105 -5.323765,-3.79092 -35.869372,-4.50761 -43.216104,-1.01405 -7.032454,3.34409 -10.581183,2.5428 -12.086513,-2.72914 C 9.6207832,101.68777 13.093238,97.339258 20.364071,97.312918 23.463832,97.301689 26.9,96.690287 28,95.954247 29.731107,94.795918 29.652028,94.350506 27.411827,92.641331 24.726217,90.592329 22.616241,90.260706 14.567197,90.622553 9.2431719,90.861895 7.7845005,89.519406 5.7556304,82.512819 3.9568284,76.30076 5.5872273,73.333335 10.799133,73.333335 c 2.199978,0 5.850047,-0.956717 8.111264,-2.126039 3.107691,-1.607049 7.026262,-2.0139 16.052434,-1.666666 10.491493,0.403605 12.237689,0.825733 14.383985,3.47721 1.343569,1.659812 2.640179,3.60157 2.881352,4.315019 0.618983,1.831091 12.053568,3.041552 14.316071,1.515493 2.102177,-1.417918 2.659122,0.04636 -10.164223,-26.723095 -6.186635,-12.914945 -7.0704,-15.679315 -5.861148,-18.333334 1.003847,-2.203202 2.533852,-3.125256 5.18588,-3.125256 5.776068,0 6.961919,-2.194993 6.961919,-12.886421 0,-8.2120742 0.392545,-9.8965065 2.579012,-11.0666675 3.666952,-1.9624936 6.043952,-1.7192767 9.314694,0.9530883 2.779756,2.271204 2.857752,3.2406922 2.929251,36.4101052 l 0.07345,34.076771 8.061914,-0.583147 c 11.811705,-0.854381 35.380962,2.156702 41.708342,5.328437 2.93334,1.470396 7.03598,4.269684 9.11698,6.220641 4.73082,4.435185 14.6293,21.133686 13.5565,22.869506 -0.43824,0.70909 -0.11413,2.56484 0.72027,4.12391 0.83439,1.55907 1.73796,7.55438 2.00793,13.32292 0.44758,9.56355 0.23434,10.66793 -2.41876,12.52622 -1.60028,1.12089 -3.22609,1.97596 -3.61293,1.90017 -0.38683,-0.0757 -2.96567,-0.73832 -5.73077,-1.47228 z"
       id="path656" />
  </g>
</svg>
