<?xml version="1.0" encoding="UTF-8" standalone="no"?>
<!-- Created with Inkscape (http://www.inkscape.org/) -->

<svg
   version="1.1"
   id="svg42"
   width="77.333336"
   height="101.33333"
   viewBox="0 0 77.333336 101.33333"
   xmlns="http://www.w3.org/2000/svg"
   xmlns:svg="http://www.w3.org/2000/svg">
  <defs
     id="defs46" />
  <g
     id="g48">
    <path
       style="fill:#000000;stroke-width:1.33333"
       d="m 16.609131,91.818717 c -0.482305,-1.519608 -0.454792,-8.66069 0.06113,-15.869071 L 17.60833,62.843498 12.181643,61.382243 C 9.1969663,60.578553 6.2681802,59.051165 5.6732299,57.988047 5.0782796,56.924931 4.997875,50.828926 5.4945527,44.441371 6.1878481,35.525203 6.9525921,32.421816 8.7869747,31.080483 c 2.8969413,-2.118295 7.4913783,-2.268799 9.4505963,-0.30958 0.790663,0.790663 3.007783,1.240663 4.926932,1 3.39587,-0.425847 3.435947,-0.539897 1.495763,-4.256647 -2.389399,-4.577297 -2.536981,-12.691074 -0.284528,-15.642689 2.396492,-3.140363 9.622769,-6.5389492 13.891383,-6.5332497 5.668458,0.00757 11.50515,4.2606632 13.509693,9.8442757 1.531804,4.266806 1.491849,5.38418 -0.28975,8.103244 -2.814385,4.295294 -6.959498,3.029107 -9.055035,-2.765995 -1.620685,-4.481924 -4.064148,-5.556945 -7.57471,-3.332553 -2.840862,1.80005 -0.635664,5.709486 5.911108,10.479377 5.596336,4.077416 6.61268,4.333333 17.209336,4.333333 13.581522,0 13.367706,-0.277392 13.360649,17.333333 l -0.0051,12.666666 -4.661314,0.442273 c -2.563722,0.24325 -5.282284,0.957632 -6.041248,1.587516 -0.8206,0.681038 -1.239643,6.254964 -1.033821,13.751428 0.239988,8.740898 -0.15619,13.002161 -1.292086,13.897618 -0.901009,0.710289 -10.453837,1.653995 -21.228508,2.097123 -18.998965,0.781366 -19.61678,0.722286 -20.467228,-1.957239 z"
       id="path517" />
  </g>
</svg>
