<?xml version="1.0" encoding="UTF-8" standalone="no"?>
<!-- Created with Inkscape (http://www.inkscape.org/) -->

<svg
   version="1.1"
   id="svg52"
   width="162.66667"
   height="162.66667"
   viewBox="0 0 162.66667 162.66667"
   xmlns="http://www.w3.org/2000/svg"
   xmlns:svg="http://www.w3.org/2000/svg">
  <defs
     id="defs56" />
  <g
     id="g58">
    <path
       style="fill:#000000;stroke-width:1.33333"
       d="m 142,153.28794 c -7.34765,-1.43524 -18.65757,-1.50523 -78.987469,-0.48879 -56.7033758,0.95535 -56.3458642,0.9946 -56.3458642,-6.18669 0,-8.13188 -0.6122879,-7.94579 26.1426522,-7.94579 19.941422,0 24.524016,-0.34321 24.524016,-1.83675 0,-1.0102 -0.930335,-2.60884 -2.067411,-3.55253 -1.150472,-0.95481 -1.889672,-3.24482 -1.666667,-5.16326 0.325185,-2.79745 1.202959,-3.52513 4.655463,-3.85941 4.126867,-0.39957 5.455201,0.45724 10.755203,6.93739 2.139377,2.61576 4.884312,1.56375 6.780893,-2.59879 2.178084,-4.78037 8.546783,-4.4105 14.531251,0.84393 l 4.674106,4.10393 3.86641,-4.69063 c 4.510327,-5.47181 7.964737,-6.9053 11.753717,-4.8775 3.40175,1.82056 3.41915,5.05355 0.0504,9.36029 -1.43406,1.83333 -2.62071,3.79468 -2.63702,4.35853 -0.0163,0.56387 10.33316,0.74367 22.99882,0.39956 12.66567,-0.34409 23.8586,-0.11253 24.87319,0.51445 2.59509,1.60386 2.07142,9.36702 -0.81854,12.13463 -3.2551,3.11729 -6.7159,3.79115 -13.08312,2.54743 z M 86.360122,45.915676 C 85.947076,45.50263 71.533249,45.047614 54.329394,44.90453 21.531427,44.631749 18.666667,44.123625 18.666667,38.579013 c 0,-4.264727 5.192457,-6.689547 12.30456,-5.746094 7.425211,0.98499 8.270762,-0.625585 2.489614,-4.742126 -2.88712,-2.05581 -5.92134,-2.757459 -11.924397,-2.757459 -6.809114,0 -8.372263,-0.457383 -10.127505,-2.963342 C 8.5570712,18.29838 8.7036664,11.061165 11.666667,9.6462927 12.95,9.0334841 20,8.6186283 27.333334,8.7243911 c 23.69844,0.3417838 22.733162,0.1508019 27.77551,5.4954269 5.114488,5.42109 6.089687,5.561422 30.224491,4.349352 L 96.666669,18 l 10.604941,7.000001 10.60494,7 12.72839,0.0021 c 15.16222,0.0025 21.80452,2.438201 22.47497,8.241584 0.6444,5.57789 -2.80967,6.541738 -21.37285,5.964019 -15.32455,-0.476928 -19.95804,-1.343307 -27.34854,-5.113684 -2.57239,-1.312344 -3.35205,-1.038067 -5.763441,2.027515 -2.000354,2.542978 -4.017594,3.5451 -7.136294,3.5451 -2.391221,0 -4.685618,-0.337947 -5.098663,-0.750992 z"
       id="path378" />
  </g>
</svg>
