<?xml version="1.0" encoding="UTF-8" standalone="no"?>
<!-- Created with Inkscape (http://www.inkscape.org/) -->

<svg
   version="1.1"
   id="svg62"
   width="154.66667"
   height="156"
   viewBox="0 0 154.66667 156"
   xmlns="http://www.w3.org/2000/svg"
   xmlns:svg="http://www.w3.org/2000/svg">
  <defs
     id="defs66" />
  <g
     id="g68">
    <path
       style="fill:#000000;stroke-width:1.33333"
       d="m 82.360122,148.58235 c -0.413046,-0.41306 -14.826873,-0.86807 -32.030728,-1.01115 -32.797967,-0.27279 -35.662727,-0.78091 -35.662727,-6.32552 0,-4.26473 5.192457,-6.68955 12.30456,-5.74609 7.425211,0.98498 8.270762,-0.62559 2.489614,-4.74213 C 26.573721,128.70165 23.539501,128 17.536444,128 10.72733,128 9.164181,127.54262 7.4089388,125.03666 4.5570712,120.96505 4.7036664,113.72783 7.6666668,112.31296 8.9500002,111.70015 16,111.28529 23.333334,111.39106 c 23.69844,0.34178 22.733162,0.1508 27.77551,5.49542 5.114488,5.42109 6.089687,5.56143 30.224491,4.34936 l 11.333334,-0.56917 10.604941,7 10.60494,7 12.72839,0.003 c 15.16222,0.003 21.80452,2.43822 22.47497,8.24159 0.6444,5.57789 -2.80967,6.54173 -21.37285,5.96403 -15.32455,-0.47694 -19.95804,-1.34331 -27.34854,-5.1137 -2.572391,-1.31233 -3.352054,-1.03806 -5.763441,2.02752 -2.000354,2.54244 -4.017594,3.54456 -7.136294,3.54456 -2.39122,0 -4.685618,-0.33794 -5.098663,-0.75098 z M 49.333334,69.790327 c -4.799921,-1.956098 -5.21937,-3.111395 -3.20377,-8.824215 2.19453,-6.219963 3.728425,-7.582987 8.566645,-7.612361 1.849582,-0.0112 5.465848,-1.753866 8.036147,-3.872523 4.164145,-3.43244 5.967611,-6.600833 12.606702,-22.147895 2.989061,-6.999618 9.736195,-15.089911 14.271303,-17.112303 11.391319,-5.0798609 19.608629,-6.2386117 22.189379,-3.1289995 1.72321,2.0763359 0.59167,58.1758185 -1.21239,60.1078255 -0.61622,0.659921 -9.40046,1.329184 -19.520537,1.487252 -10.120079,0.158069 -23.200145,0.654344 -29.066812,1.102835 -5.866666,0.44849 -11.566667,0.448664 -12.666667,3.84e-4 z"
       id="path239" />
  </g>
</svg>
