<?xml version="1.0" encoding="UTF-8" standalone="no"?>
<!-- Created with Inkscape (http://www.inkscape.org/) -->

<svg
   version="1.1"
   id="svg72"
   width="160"
   height="160"
   viewBox="0 0 160 160"
   xmlns="http://www.w3.org/2000/svg"
   xmlns:svg="http://www.w3.org/2000/svg">
  <defs
     id="defs76" />
  <g
     id="g78">
    <path
       style="fill:#000000;stroke-width:1.33333"
       d="m 21.815844,152.04279 c -2.832048,-1.28156 -7.099177,-4.78028 -9.482511,-7.77494 C 8.6476465,139.6368 8,137.74339 8,131.59924 c 0,-6.50641 0.5198741,-7.81441 5.234921,-13.17099 8.293955,-9.42242 18.738452,-10.87534 29.148032,-4.05472 9.586392,6.28125 12.770223,21.9074 6.21479,30.50202 -6.285747,8.24104 -17.674076,11.28872 -26.781899,7.16724 z m 52,0 c -2.832048,-1.28156 -7.099177,-4.78028 -9.482511,-7.77494 C 60.647647,139.6368 60,137.74339 60,131.59924 c 0,-6.50641 0.519875,-7.81441 5.234921,-13.17099 8.293955,-9.42242 18.738452,-10.87534 29.148032,-4.05472 9.586397,6.28125 12.770227,21.9074 6.214787,30.50202 -6.285744,8.24104 -17.674073,11.28872 -26.781896,7.16724 z m 70.058516,0.35524 C 142.7802,151.07912 141.03248,148.2 139.99055,146 c -1.04195,-2.2 -2.83795,-5.5 -3.99111,-7.33333 -2.19999,-3.4976 -4.22548,-9.07674 -6.53486,-18 -0.75916,-2.93334 -1.71093,-14.63334 -2.11506,-26.000003 -0.8703,-24.478994 -1.88933,-29.63798 -6.90934,-34.979738 -7.19502,-7.65615 -9.76509,-8.121705 -49.346367,-8.93881 -34.104408,-0.704043 -36.461074,-0.913135 -40,-3.548951 -3.053461,-2.27424 -3.838017,-3.994055 -4.172885,-9.147335 -0.226823,-3.490577 0.187341,-8.06694 0.920367,-10.169696 0.733024,-2.102754 0.918606,-4.076469 0.412405,-4.386032 -0.506201,-0.309562 -5.012301,-0.137344 -10.013556,0.38271 C 7.2951057,25.016928 4.9344989,23.811807 5.5617172,17.406308 6.2013712,10.873811 11.469635,7.3922448 20.516988,7.5230225 33.638035,7.7126848 38.666667,13.256545 38.666667,27.532297 v 7.13437 l 5.666666,-0.0037 c 3.116667,-0.002 10.766667,-0.619862 17,-1.372882 7.289555,-0.880618 18.707283,-0.954018 32,-0.205718 17.851267,1.004919 21.665677,1.62592 27.999997,4.558511 9.49673,4.396685 12.36715,7.647381 17.28628,19.576415 3.62043,8.779606 4.04706,11.278929 4.04706,23.708744 0,7.642 -0.66132,18.156858 -1.4696,23.366343 -1.96851,12.68734 0.17102,22.79051 6.98825,32.99938 2.85968,4.2824 5.23977,9.59421 5.44687,12.15612 0.33886,4.19203 0.0476,4.58151 -3.70032,4.9482 -2.6617,0.26043 -4.75591,-0.43101 -6.05751,-2 z M 47.149177,104.04278 C 44.317129,102.76122 40.05,99.262501 37.666667,96.267852 33.98098,91.636801 33.333333,89.743389 33.333333,83.599237 c 0,-6.50641 0.519875,-7.814405 5.234922,-13.170982 8.293954,-9.42243 18.738452,-10.875344 29.148032,-4.054726 9.586392,6.281247 12.770222,21.907402 6.214789,30.502019 C 67.645329,105.11659 56.257,108.16427 47.149177,104.04278 Z"
       id="path100" />
  </g>
</svg>
