<?xml version="1.0" encoding="UTF-8" standalone="no"?>
<!-- Created with Inkscape (http://www.inkscape.org/) -->

<svg
   version="1.1"
   id="svg2"
   width="153.33333"
   height="156"
   viewBox="0 0 153.33333 156"
   xmlns="http://www.w3.org/2000/svg"
   xmlns:svg="http://www.w3.org/2000/svg">
  <defs
     id="defs6" />
  <g
     id="g8">
    <path
       style="fill:#000000;stroke-width:1.33333"
       d="m 10.177097,148.23557 c -4.4563897,-0.88244 -2.5879258,-7.91061 3.965739,-14.917 9.622397,-10.28712 14.665313,-11.62 47.278428,-12.496 41.078526,-1.10338 39.917296,-0.97134 42.411786,-4.82257 10.01255,-15.45833 26.66216,-25.200515 36.60661,-21.419641 2.81032,1.068486 3.63895,2.168885 3.31946,4.408169 -0.24782,1.736902 -1.54039,3.183872 -3.09246,3.461862 -1.46666,0.2627 -5.19828,2.06025 -8.29247,3.99456 -7.71322,4.82185 -12.70522,14.20802 -13.80997,25.96606 -0.4691,4.99272 -1.53888,9.76364 -2.37728,10.60204 -0.88735,0.88736 -9.46333,1.96775 -20.522318,2.58538 -25.179537,1.40622 -82.737045,3.18177 -85.487525,2.63714 z M 129.67051,79.491749 c -2.75212,-2.479537 -7.90943,-5.491289 -11.4607,-6.692782 -5.88132,-1.989815 -16.90977,-7.519939 -20.209812,-10.134044 -0.733333,-0.580904 -4.033333,-1.827031 -7.333333,-2.76917 -3.3,-0.942137 -7.592623,-2.804102 -9.53916,-4.137698 -1.946539,-1.333598 -3.907381,-2.424722 -4.357428,-2.424722 -0.450047,0 -4.849583,-2.449109 -9.776748,-5.442466 C 58.941185,42.99902 57.42606,42.531341 52.017424,43.268208 48.70784,43.719101 42.790927,44.427165 38.868727,44.841684 25.448358,46.260019 15.856228,39.921776 8.3926596,24.703852 2.3139181,12.309536 7.4374018,5.2526428 18.075168,11.367529 c 3.683557,2.117412 6.022393,2.720555 7.333333,1.891132 3.443301,-2.178551 14.443814,-1.3882 19.97851,1.435391 2.904427,1.481728 6.767129,5.048585 8.583782,7.926349 3.569251,5.65406 10.454362,10.238903 22.029205,14.669404 4.033334,1.543838 12.733333,5.4086 19.333333,8.588362 C 128.43118,61.824115 133.81442,64 140.16764,64 c 4.01638,0 9.16569,4.029559 9.16569,7.172557 C 149.33333,73.683683 139.1506,84 136.67198,84 c -1.09869,0 -4.24936,-2.028713 -7.00147,-4.508251 z"
       id="path1371" />
  </g>
</svg>
