<?xml version="1.0" encoding="UTF-8" standalone="no"?>
<!-- Created with Inkscape (http://www.inkscape.org/) -->

<svg
   version="1.1"
   id="svg12"
   width="161.33333"
   height="149.33333"
   viewBox="0 0 161.33333 149.33333"
   xmlns="http://www.w3.org/2000/svg"
   xmlns:svg="http://www.w3.org/2000/svg">
  <defs
     id="defs16" />
  <g
     id="g18">
    <path
       style="fill:#000000;stroke-width:1.33333"
       d="m 137.51005,141.21585 c -2.80697,-3.01293 -5.4879,-10.26384 -5.50262,-14.88252 -0.01,-3.02492 -2.05694,-2.95438 -6.52154,0.2247 C 109.92396,137.6391 93.004818,142.68685 71.651788,142.61917 49.809336,142.54994 41.006306,140.0944 22.988165,129.04484 7.0542793,119.27343 0.67048451,111.08977 5.7157457,106.90257 c 1.1990062,-0.99508 7.9252473,-1.04479 22.3333323,-0.16504 11.339673,0.69239 41.459849,1.14784 66.933721,1.0121 l 46.316131,-0.24678 3.47741,3.24857 c 5.94688,5.55553 9.97083,13.74401 10.10782,20.56873 0.15024,7.48483 -2.70948,11.05309 -9.77756,12.20007 -3.82386,0.62052 -5.28434,0.1775 -7.59655,-2.30437 z m 5.89508,-15.76634 c -1.53239,-2.47946 -3.19216,-1.58978 -2.43509,1.30527 0.46994,1.79704 1.1742,2.30098 2.02566,1.44951 0.71791,-0.7179 0.90215,-1.95755 0.40943,-2.75478 z M 42.805555,90.805554 C 36.343377,84.343375 41.149727,79.94514 54.452432,80.14763 c 8.525599,0.129774 10.108573,-0.259029 14.408923,-3.539065 2.657102,-2.026671 5.800294,-5.388899 6.98487,-7.471615 1.184575,-2.082717 2.591579,-3.790551 3.126675,-3.795187 0.535096,-0.0047 2.241722,-2.495524 3.792502,-5.535307 2.294972,-4.498515 2.544772,-6.130063 1.342539,-8.768676 -1.197948,-2.629208 -2.166561,-3.09842 -5.125836,-2.483037 -2.006825,0.41732 -9.44878,1.611351 -16.537676,2.653401 -7.088897,1.042051 -15.038897,2.846511 -17.666666,4.009913 -2.627771,1.163402 -6.947121,3.076338 -9.598557,4.25097 -8.898537,3.942205 -14.461022,11.692498 -17.52739,24.421172 -1.602606,6.652514 -5.089984,8.331976 -8.547163,4.116171 -4.735907,-5.775131 -1.3638614,-22.292618 6.068319,-29.724798 1.921532,-1.921532 3.493694,-4.621001 3.493694,-5.998821 0,-1.377819 1.957704,-4.769856 4.350455,-7.537859 3.656213,-4.229616 5.305197,-5.09497 10.333333,-5.422734 13.950725,-0.909394 18.615957,-3.284121 28.444545,-14.479033 9.87051,-11.242664 16.583867,-13.656111 42.901291,-15.4229771 10.28295,-0.6903646 20.27484,-1.8553738 22.20418,-2.5889094 1.92935,-0.7335354 8.35898,-1.3443612 14.28806,-1.3573905 9.20823,-0.020235 10.97617,0.3425521 12.12436,2.4879577 1.83612,3.4308163 -3.88167,10.1843793 -9.68227,11.4362193 -9.66512,2.085849 -31.58633,15.800126 -31.61349,19.777929 -0.009,1.380108 1.18705,4.457702 2.65884,6.839097 2.40012,3.883485 2.54664,5.342855 1.42132,14.157378 -2.64106,20.687287 -4.62998,25.638541 -11.08706,27.600349 -7.129041,2.165964 -25.164138,3.092675 -27.206154,1.397952 -1.337272,-1.109837 -2.836083,-1.066783 -5.814777,0.167033 -2.207211,0.914258 -7.157754,1.789738 -11.001206,1.945512 -3.843452,0.155776 -8.875594,0.743264 -11.182538,1.305531 -3.355116,0.817735 -4.755851,0.460897 -7,-1.783252 z m 57.907065,-12.67428 c 2.0402,-1.491834 2.6602,-3.939438 3.0741,-12.135865 0.33996,-6.732297 -0.0707,-11.367985 -1.19277,-13.464608 -2.39087,-4.467393 -4.930088,-4.092191 -4.237581,0.626158 0.578029,3.938365 -2.800171,12.176373 -4.993223,12.176373 -1.460975,0 -9.363148,11.174301 -9.363148,13.240233 0,2.123461 13.699565,1.760909 16.712622,-0.442291 z"
       id="path1232" />
  </g>
</svg>
