<?xml version="1.0" encoding="UTF-8" standalone="no"?>
<!-- Created with Inkscape (http://www.inkscape.org/) -->

<svg
   version="1.1"
   id="svg22"
   width="164"
   height="157.33333"
   viewBox="0 0 164 157.33333"
   xmlns="http://www.w3.org/2000/svg"
   xmlns:svg="http://www.w3.org/2000/svg">
  <defs
     id="defs26" />
  <g
     id="g28">
    <path
       style="fill:#000000;stroke-width:1.33333"
       d="m 10.746096,150.0957 c -3.5206331,-4.2421 5.772536,-28.84126 12.581121,-33.30242 4.562922,-2.98974 6.725487,-2.66412 9.733799,1.46563 2.548512,3.49854 2.706689,3.53332 6.064297,1.33333 4.530706,-2.96863 7.1481,-2.85243 9.184118,0.40776 0.915948,1.46666 2.576704,2.66666 3.690569,2.66666 1.113865,0 2.774621,-1.2 3.690569,-2.66666 2.151346,-3.44485 6.687963,-3.4022 10.413663,0.0979 l 2.942768,2.76459 2.729136,-2.92939 c 3.018275,-3.23974 7.730528,-2.90265 11.452416,0.81924 1.886697,1.8867 2.360348,1.88651 5.056577,-0.002 3.758502,-2.63256 7.539666,-2.65555 10.404107,-0.0633 2.005284,1.81476 2.580284,1.74689 5.648624,-0.66666 4.32784,-3.40428 7.18102,-3.41076 8.99547,-0.0204 1.6866,3.15142 5.66284,3.48278 8,0.66666 2.10659,-2.53827 6.49444,-2.56916 9.2613,-0.0652 1.898,1.71766 2.43353,1.49233 4.77166,-2.00776 1.44854,-2.16841 3.71308,-4.28883 5.03232,-4.71205 2.84656,-0.91318 8.79932,2.66731 9.74704,5.86268 0.36795,1.24061 2.4357,6.79676 4.595,12.34701 4.60835,11.84521 4.82406,14.68262 1.3549,17.82217 -3.20348,2.89911 -7.64923,1.72659 -8.77782,-2.31507 -1.01345,-3.62936 -3.4643,-9.03923 -5.11665,-11.29423 -0.96037,-1.31066 -1.67139,-1.08355 -3.13076,1 -2.29672,3.27902 -7.94564,3.52357 -11.29867,0.48912 -2.17674,-1.96992 -2.68863,-1.99167 -4.77165,-0.20267 -4.53217,3.89247 -7.25046,4.0016 -10.96759,0.44036 l -3.5334,-3.3852 -2.90736,3.34375 c -3.50585,4.03207 -5.54817,4.18397 -9.553133,0.71048 -3.023337,-2.62212 -3.050332,-2.62212 -6.383825,0 -4.331289,3.40699 -5.456057,3.32247 -9.683468,-0.72764 l -3.508025,-3.3609 -2.43825,2.69423 c -2.866504,3.16745 -8.994828,3.54202 -11.358282,0.69424 -2.266123,-2.73051 -4.37369,-2.5095 -6.357236,0.66666 -2.275954,3.64439 -6.247102,3.34738 -9.435222,-0.70565 l -2.652672,-3.37233 -3.638798,3.37233 c -4.520314,4.18928 -5.230302,4.18641 -10.254867,-0.0415 l -4.057077,-3.41381 -3.502714,8.41381 c -2.87731,6.91154 -4.112181,8.48535 -6.916192,8.81455 -1.877413,0.2204 -4.17502,-0.51687 -5.105793,-1.63837 z M 141.51005,91.882514 c -2.80697,-3.012927 -5.48789,-10.263832 -5.50261,-14.882516 -0.009,-3.024916 -2.05695,-2.954376 -6.52155,0.224703 C 113.92396,88.305774 97.00482,93.353514 75.651789,93.285835 53.809337,93.216606 45.006307,90.761071 26.988165,79.711504 11.054279,69.9401 4.6704845,61.756437 9.7157459,57.569243 c 1.1990061,-0.995088 7.9252471,-1.044796 22.3333331,-0.16505 11.339673,0.692392 41.459849,1.14784 66.933722,1.012108 l 46.316129,-0.246788 3.47742,3.248576 c 5.94688,5.555526 9.97082,13.744005 10.10781,20.568732 0.15024,7.484834 -2.70948,11.053077 -9.77756,12.20007 -3.82385,0.620527 -5.28433,0.177499 -7.59655,-2.304377 z M 148,76.587976 c 0,-1.056722 -0.84383,-1.921311 -1.87517,-1.921311 -1.2152,0 -1.63112,0.933265 -1.18175,2.651671 0.7588,2.901666 3.05692,2.3526 3.05692,-0.73036 z M 72.634853,27.471905 C 70.190821,23.741841 63.443804,22.491637 55.427148,24.283363 48.357057,25.863533 12.099241,26.638395 8.5405227,25.285373 4.1808832,23.627841 3.731416,20.460108 7.2728465,16.351106 l 3.1755135,-3.68444 h 29.724339 29.724338 l 1.597566,-3.1801197 c 2.992037,-5.9559585 5.93553,-6.7230802 10.041605,-2.6170046 2.497197,2.4971964 3.060145,2.6088774 4.338452,0.8606884 3.349847,-4.5811888 9.75016,-3.6195915 11.768184,1.7680781 0.446005,1.1907358 2.808826,2.4984468 5.250706,2.9060248 6.60691,1.102767 39.31272,-0.06846 42.0599,-1.506202 1.30894,-0.685034 4.34652,-0.9468124 6.7502,-0.58173 5.38656,0.818139 7.85162,4.672777 5.82822,9.113661 -1.86815,4.100134 -8.03687,5.16606 -23.25052,4.017582 -10.65163,-0.804091 -12.90779,-0.56586 -19.33118,2.041203 -5.82675,2.364906 -7.76656,2.642768 -9.75973,1.398014 -3.8649,-2.413672 -8.922588,-1.878703 -10.523773,1.113138 -1.753786,3.276979 -6.080862,3.476666 -7.824428,0.361086 -1.222911,-2.185222 -1.423267,-2.185222 -3.837908,0 -3.578031,3.238072 -7.908507,2.866736 -10.369478,-0.88918 z"
       id="path1093" />
  </g>
</svg>
