<?xml version="1.0" encoding="UTF-8" standalone="no"?>
<!-- Created with Inkscape (http://www.inkscape.org/) -->

<svg
   version="1.1"
   id="svg32"
   width="124"
   height="152"
   viewBox="0 0 124 152"
   xmlns="http://www.w3.org/2000/svg"
   xmlns:svg="http://www.w3.org/2000/svg">
  <defs
     id="defs36" />
  <g
     id="g38">
    <path
       style="fill:#000000;stroke-width:1.33333"
       d="m 23.555556,145.77777 c -1.924604,-1.9246 -0.844331,-11.15566 1.590433,-13.59043 2.26799,-2.26799 2.337502,-3.16751 0.8155,-10.55317 -0.915101,-4.44061 -2.066206,-8.72492 -2.55801,-9.52067 -1.502156,-2.43054 -4.193262,-1.62049 -6.032299,1.81578 -2.0059,3.74806 -4.735059,5.11898 -8.0782373,4.0579 -3.0783899,-0.97704 -5.8849736,-11.72294 -3.9876742,-15.26807 0.748769,-1.39909 1.3613982,-3.573442 1.3613982,-4.831893 0,-1.25845 1.4071073,-5.347896 3.1269052,-9.087654 1.7197981,-3.73976 4.7852131,-10.455611 6.8120361,-14.924114 2.921115,-6.440137 6.956121,-11.346802 19.462331,-23.666666 8.67746,-8.548164 16.730874,-15.542116 17.896476,-15.542116 2.917577,0 3.743513,-2.841143 2.090133,-7.189862 C 54.947095,24.563981 55.227071,22.524989 57.44122,17.37806 61.055539,8.9763517 65.145639,5.2835953 71.830108,4.3870197 78.012417,3.557798 85.809016,6.5727763 87.981995,10.633024 c 2.110845,3.944149 1.595796,9.302255 -1.240827,12.908435 -3.167035,4.026233 -2.238733,7.125208 2.134364,7.125208 8.557492,0 14.004478,5.759797 24.452418,25.856686 l 6.8572,13.190019 -0.6285,10.809981 c -0.56738,9.75876 -2.32947,21.994227 -3.66902,25.476647 -0.28209,0.73333 0.32199,4.77652 1.3424,8.98487 1.68954,6.968 1.63636,8.1591 -0.59541,13.33333 -1.34787,3.12499 -3.26995,6.36833 -4.27129,7.20744 -2.12581,1.78139 -7.00619,0.8526 -7.08219,-1.34781 -0.0287,-0.83114 -0.86574,0.358 -1.86009,2.64252 -3.19837,7.34826 -12.213069,6.81885 -17.829989,-1.04712 -2.419654,-3.38851 -7.148481,-3.04919 -15.302053,1.098 -7.004485,3.56273 -9.650381,4.4161 -24.289008,7.83392 -8.447803,1.9724 -20.947327,2.56974 -22.444444,1.07262 z m 78.925824,-25.50904 c 1.26898,-4.16982 1.95419,-13.18838 2.04651,-26.935397 0.14295,-21.288588 -0.60157,-25.240077 -5.60955,-29.772238 -2.287743,-2.070379 -2.604772,-1.973584 -5.248707,1.602529 -4.272206,5.778469 -6.034754,20.994344 -3.290486,28.406403 1.287076,3.476294 2.164322,10.158503 2.210674,16.839273 0.06655,9.59107 0.485922,11.53557 3.128175,14.50423 3.607852,4.05353 4.250599,3.61212 6.763384,-4.6448 z m -58.880075,-6.13148 c -1.15537,-3.46611 -3.598209,-2.03498 -3.558901,2.08497 0.04023,4.21539 0.144221,4.30979 2.017972,1.8317 1.086563,-1.43702 1.77998,-3.19952 1.540929,-3.91667 z M 64.712188,91.856573 C 65.961645,87.919881 62.902417,68.721201 59.683447,60.297892 l -2.688598,-7.03544 -5.015602,3.03544 C 42.202255,62.214924 32,73.185953 32,77.782644 c 0,1.120711 1.236011,2.429951 2.746691,2.909421 1.51068,0.479471 7.66068,3.799423 13.666666,7.37767 12.156662,7.242694 14.992842,7.901648 16.298831,3.786838 z"
       id="path954" />
  </g>
</svg>
