<?xml version="1.0" encoding="UTF-8" standalone="no"?>
<!-- Created with Inkscape (http://www.inkscape.org/) -->

<svg
   version="1.1"
   id="svg42"
   width="56"
   height="153.33333"
   viewBox="0 0 56 153.33333"
   xmlns="http://www.w3.org/2000/svg"
   xmlns:svg="http://www.w3.org/2000/svg">
  <defs
     id="defs46" />
  <g
     id="g48">
    <path
       style="fill:#000000;stroke-width:1.33333"
       d="M 26.083023,147.00214 C 17.220599,146.76582 9.3905676,145.93412 8.4163567,145.1256 5.61186,142.79806 6.3824656,137.493 10.333333,131.92859 18.922676,119.83134 38.005337,120.88349 47.901792,134 c 2.213212,2.93333 4.040713,6.66222 4.061115,8.28642 0.04028,3.20667 -3.680699,5.88414 -7.541919,5.42687 -1.331543,-0.15769 -9.583628,-0.47771 -18.337965,-0.71115 z M 31.109724,50.526562 C 24.44566,48.454203 21.727453,46.680514 16.776391,41.17374 9.2204575,32.769723 8.5551628,28.133125 13.534483,18.580092 c 3.223622,-6.184657 4.585664,-7.308353 10.132184,-8.359142 10.81916,-2.0496911 19,3.641846 19,13.218596 0,4.422724 -0.681083,6.219625 -2.963342,7.818181 -4.230304,2.96302 -11.924994,2.64282 -15.45191,-0.643001 -2.764375,-2.575407 -2.918082,-2.587649 -2.918082,-0.232419 0,5.284151 11.492327,12.215879 20.333334,12.264284 3.122204,0.01709 3.666666,0.574436 3.666666,3.753408 0,3.852549 -2.144924,7.027324 -4.6,6.808616 -0.77,-0.0686 -5.100624,-1.275519 -9.623609,-2.682053 z m 2.223609,-27.955134 c 0,-2.308466 -3.610621,-5.250763 -6.238094,-5.083427 -2.045843,0.130293 -2.082416,0.246612 -0.232072,0.738081 1.208074,0.320876 2.501902,1.751276 2.875173,3.178664 0.70908,2.711525 3.594993,3.648089 3.594993,1.166682 z"
       id="path815" />
  </g>
</svg>
