<?xml version="1.0" encoding="UTF-8" standalone="no"?>
<!-- Created with Inkscape (http://www.inkscape.org/) -->

<svg
   version="1.1"
   id="svg52"
   width="160"
   height="158.66667"
   viewBox="0 0 160 158.66667"
   xmlns="http://www.w3.org/2000/svg"
   xmlns:svg="http://www.w3.org/2000/svg">
  <defs
     id="defs56" />
  <g
     id="g58">
    <path
       style="fill:#000000;stroke-width:1.33333"
       d="m 86.36012,152.58235 c -0.413045,-0.41305 -14.826872,-0.86807 -32.030727,-1.01115 -32.797966,-0.27278 -35.662726,-0.7809 -35.662726,-6.32552 0,-4.26473 5.192457,-6.68954 12.30456,-5.74609 7.42521,0.98499 8.270761,-0.62559 2.489613,-4.74213 C 30.57372,132.70165 27.5395,132 21.536444,132 14.727329,132 13.164181,131.54262 11.408939,129.03666 8.5570711,124.96505 8.7036663,117.72783 11.666667,116.31296 12.95,115.70015 20,115.2853 27.333333,115.39106 c 23.69844,0.34178 22.733162,0.1508 27.77551,5.49543 5.114488,5.42109 6.089686,5.56142 30.22449,4.34935 l 11.333334,-0.56917 10.604933,7 10.60494,7 12.7284,0.003 c 15.16222,0.003 21.80451,2.43821 22.47497,8.24158 0.6444,5.5779 -2.80967,6.54174 -21.37285,5.96403 -15.32455,-0.47693 -19.95804,-1.34331 -27.34854,-5.11369 -2.57239,-1.31234 -3.35206,-1.03807 -5.763443,2.02752 -2.000354,2.54244 -4.017594,3.54456 -7.136294,3.54456 -2.39122,0 -4.685618,-0.33795 -5.098663,-0.75099 z M 52,110.3188 c -3.590193,-1.93881 -3.695037,-3.8966 -0.606141,-11.318798 1.522264,-3.657793 2.494156,-4.333333 6.234313,-4.333333 2.918165,0 6.0264,-1.315138 9.104183,-3.852106 4.164145,-3.43244 5.96761,-6.600833 12.606701,-22.147895 2.989061,-6.999619 9.736195,-15.089912 14.271303,-17.112304 11.391321,-5.07986 19.608631,-6.238611 22.189381,-3.128999 1.7232,2.076336 0.59166,58.175815 -1.21239,60.107825 -0.61622,0.65992 -9.40046,1.32919 -19.520539,1.48725 -10.120079,0.15807 -23.200144,0.69489 -29.066811,1.19293 -7.866412,0.6678 -11.541747,0.43296 -14,-0.89457 z M 69.666667,31.116959 C 68.75,30.747077 68,29.579594 68,28.522555 68,24.692151 61.475772,23.793487 44.314499,25.260053 9.4974927,28.235439 1.2009176,26.212846 6.627838,16.072552 c 1.1816409,-2.207916 3.740387,-2.436906 29.347885,-2.626441 15.42936,-0.114201 28.892684,-0.529709 29.918498,-0.923351 1.025816,-0.393643 2.220662,-2.132309 2.655214,-3.8637032 1.169136,-4.6582075 6.032829,-5.720921 9.062008,-1.9800424 2.318929,2.8637569 2.572312,2.9013239 4.964853,0.7361028 3.548604,-3.2114415 9.964007,-2.3025779 10.503749,1.4880557 0.662327,4.6515311 3.49338,6.2030671 8.535015,4.6775491 5.15516,-1.559868 47.71698,-2.063564 49.83523,-0.589773 2.81688,1.959877 3.01828,6.775023 0.38311,9.159821 -2.26436,2.049221 -5.61044,2.267587 -30.44171,1.986641 l -27.89771,-0.31564 -2.114564,4.089115 c -2.348941,4.542351 -5.982904,5.295151 -9.342663,1.935392 -1.98274,-1.982741 -2.342654,-1.982741 -4.533558,0 -2.381502,2.155229 -4.709066,2.53264 -7.836528,1.270681 z"
       id="path676" />
  </g>
</svg>
