<?xml version="1.0" encoding="UTF-8" standalone="no"?>
<!-- Created with Inkscape (http://www.inkscape.org/) -->

<svg
   version="1.1"
   id="svg62"
   width="164"
   height="152"
   viewBox="0 0 164 152"
   xmlns="http://www.w3.org/2000/svg"
   xmlns:svg="http://www.w3.org/2000/svg">
  <defs
     id="defs66" />
  <g
     id="g68">
    <path
       style="fill:#000000;stroke-width:1.33333"
       d="m 5.7619287,142.90476 c -1.8954596,-1.89543 -2.2635915,-5.37935 -0.9344182,-8.84312 0.4551308,-1.18605 4.5271578,-4.79647 9.0489485,-8.02315 4.521792,-3.22668 9.342404,-7.10535 10.712473,-8.61926 1.370069,-1.51391 3.010907,-2.75256 3.646305,-2.75256 0.635399,0 3.544146,-1.58089 6.46388,-3.51308 8.721236,-5.77144 14.033298,-6.38915 51.84994,-6.02936 23.192053,0.22066 35.506973,-0.1362 36.068753,-1.04518 1.11483,-1.80383 30.05558,-0.21559 32.66832,1.79281 3.51598,2.7027 3.88879,8.28655 0.76206,11.41329 -2.68171,2.6817 -3.69002,2.7967 -17.11555,1.95193 -7.84629,-0.49371 -31.36597,-0.97402 -52.265973,-1.06737 l -38,-0.16971 -7.621978,4.58862 c -14.075518,8.47381 -15.689457,8.23657 53.082306,7.8029 58.894675,-0.37138 62.179775,-0.26594 63.873355,2.05015 1.36848,1.8715 1.45284,3.42828 0.36125,6.66666 -0.78328,2.32375 -1.68508,4.525 -2.00399,4.89167 -0.3189,0.36667 -33.93697,0.66667 -74.706794,0.66667 -59.660771,0 -74.4708065,-0.34384 -75.8888873,-1.76191 z M 68.888889,80.444444 C 68.4,79.955556 68,78.219749 68,76.587096 68,71.598868 66.610913,71.531133 28.190677,74.645908 8.5928005,76.234732 6.6666667,75.763205 6.6666667,69.376724 c 0,-8.083193 3.1307657,-8.661127 40.3022333,-7.43972 15.18162,0.498848 18.648544,0.255076 20.333333,-1.429713 1.117106,-1.117106 2.0311,-2.547811 2.0311,-3.179346 0,-0.631534 1.304283,-1.562208 2.898406,-2.068162 2.0308,-0.644551 3.432705,-0.189222 4.683333,1.521114 1.656131,2.264895 2.048301,2.289439 5.434928,0.340142 4.42008,-2.544139 6.758079,-1.887104 8.369831,2.352128 1.170665,3.07908 5.593064,4.300012 11.946839,3.298269 2.83836,-0.4475 35.60885,-1.655917 42,-1.548759 7.40641,0.124187 10.79954,4.850464 7,9.750275 -1.38776,1.789627 -5.23667,2.207748 -23,2.498585 -11.73334,0.192108 -24.56437,0.18138 -28.51342,-0.02384 -6.440479,-0.334693 -7.478539,0.0012 -10.077534,3.260626 -2.213084,2.775472 -3.587729,3.414666 -5.819917,2.706197 -1.607356,-0.510155 -2.922466,-1.787121 -2.922466,-2.837704 0,-2.639356 -0.703034,-2.419236 -4.545454,1.423184 -3.289287,3.289287 -6.164406,4.179029 -7.89899,2.444444 z M 137.51005,42.549183 c -2.80697,-3.012927 -5.4879,-10.263832 -5.50261,-14.882516 -0.01,-3.024916 -2.05695,-2.954376 -6.52155,0.224702 C 109.92396,38.972443 93.00482,44.020183 71.651789,43.952504 49.809337,43.883275 41.006307,41.42774 22.988165,30.378172 7.0542795,20.606768 0.67048452,12.423105 5.7157459,8.23591 6.914752,7.2408233 13.640993,7.1911149 28.049079,8.0708617 c 11.339673,0.6923918 41.459849,1.14784 66.933722,1.0121071 l 46.316129,-0.2467872 3.47742,3.2485754 c 5.94688,5.555526 9.97082,13.744006 10.10781,20.568732 0.15024,7.484835 -2.70948,11.053078 -9.77756,12.200071 -3.82385,0.620527 -5.28433,0.177499 -7.59655,-2.304377 z M 144,27.254644 c 0,-1.056721 -0.84383,-1.921311 -1.87517,-1.921311 -1.2152,0 -1.63112,0.933266 -1.18175,2.651671 0.7588,2.901667 3.05692,2.3526 3.05692,-0.73036 z"
       id="path537" />
  </g>
</svg>
