<?xml version="1.0" encoding="UTF-8" standalone="no"?>
<!-- Created with Inkscape (http://www.inkscape.org/) -->

<svg
   version="1.1"
   id="svg72"
   width="162.66667"
   height="157.33333"
   viewBox="0 0 162.66667 157.33333"
   xmlns="http://www.w3.org/2000/svg"
   xmlns:svg="http://www.w3.org/2000/svg">
  <defs
     id="defs76" />
  <g
     id="g78">
    <path
       style="fill:#000000;stroke-width:1.33333"
       d="m 12.369117,148.09437 c -4.7635414,-2.96873 -6.4417722,-7.39776 -5.1847214,-13.68301 1.3706884,-6.85345 2.9085524,-7.7447 13.3636084,-7.7447 6.922426,0 10.995846,0.73468 14.78533,2.66667 4.963789,2.53068 7.816804,2.6645 55.948591,2.62426 52.910935,-0.0442 55.384745,-0.30048 55.384745,-5.73701 0,-5.32594 -5.06853,-5.8594 -57.677308,-6.07051 -48.002718,-0.19263 -50.603153,-0.0768 -55.917107,2.49062 -9.750881,4.71111 -21.996608,2.86786 -26.8344883,-4.03918 -2.2846666,-3.26182 -0.993325,-11.08795 2.3852621,-14.45579 3.0872422,-3.07743 16.1691362,-2.48955 23.0822852,1.03727 6.057744,3.09043 26.03563,5.39355 27.415686,3.16057 0.532056,-0.86088 3.04196,-0.92853 7.001973,-0.18872 3.394951,0.63425 6.791699,0.77057 7.548331,0.30295 0.756632,-0.46763 16.879191,-0.73588 35.827906,-0.59612 38.29826,0.28247 41.92659,0.94571 46.53667,8.50663 3.52052,5.77395 3.45399,14.73063 -0.14698,19.78774 -5.56955,7.82169 -7.12492,7.99852 -65.171954,7.40934 l -52.716945,-0.53508 -4.666667,3.05334 c -6.898625,4.51368 -15.607754,5.349 -20.964217,2.01073 z m 12.790537,-9.88511 c 1.151971,-1.38804 0.758768,-2.12214 -1.748552,-3.26456 -2.433195,-1.10864 -3.3731,-1.07789 -3.79317,0.124 -1.487042,4.25494 2.664346,6.60754 5.541722,3.14051 z M 24.482169,114 c 0.577376,-1.50462 -0.225954,-2 -3.24325,-2 -3.413805,0 -3.754848,0.29011 -2.291488,1.94928 2.238659,2.53821 4.571992,2.55959 5.534738,0.0507 z M 142.93334,99.733331 c -0.88,-0.88 -1.6,-2.388141 -1.6,-3.351425 0,-0.963284 -0.75,-3.093284 -1.66667,-4.733333 -0.91667,-1.64005 -1.78507,-3.200311 -1.92979,-3.467247 -0.1447,-0.266937 -1.86524,0.774888 -3.82337,2.315167 -3.6042,2.835058 -4.69009,2.722074 -8.94032,-0.930219 -2.13265,-1.832616 -2.73794,-1.748804 -6.27935,0.869472 -4.92795,3.643395 -6.41028,3.628813 -10.38168,-0.10212 l -3.19304,-2.999708 -2.67077,3.666375 c -3.357703,4.609388 -6.233653,4.64608 -9.838225,0.12552 l -2.823383,-3.54086 -4.269848,3.156836 c -4.024267,2.975269 -4.470012,3.035385 -7.749979,1.045218 -3.168747,-1.922682 -3.807484,-1.923742 -7.138754,-0.01187 -3.375449,1.937241 -4.08702,1.906581 -9.193521,-0.39613 -5.521264,-2.489742 -5.539888,-2.488768 -7.560374,0.39588 -2.669688,3.811512 -6.246008,3.655614 -10.693462,-0.466149 l -3.623257,-3.357917 -3.120833,2.931869 -3.120833,2.931871 -4.991274,-2.783388 c -4.190843,-2.337027 -5.258551,-2.49155 -6.65794,-0.963559 -0.916667,1.000907 -1.675855,2.595153 -1.687084,3.542772 -0.03765,3.177997 -1.953249,4.805432 -6.70572,5.697001 C 9.2052258,100.07067 8.3214902,99.75873 6.8702336,97.047033 5.4105772,94.319639 5.7284525,92.548057 9.2599822,83.728481 11.500325,78.133489 13.333334,72.62683 13.333334,71.491462 c 0,-2.425127 3.97268,-4.824797 7.987505,-4.824797 1.556216,0 4.498811,1.827679 6.539099,4.061508 l 3.709615,4.061508 4.146501,-2.379765 c 3.507704,-2.013145 4.799156,-2.133415 8.382967,-0.780678 3.348293,1.26384 4.970013,1.240158 7.735389,-0.11296 3.844728,-1.881255 7.471303,-1.481009 11.384917,1.256495 2.168825,1.517056 3.12526,1.447297 6.360697,-0.463921 3.112356,-1.838515 4.2869,-1.950409 6.429248,-0.61249 3.597271,2.246532 7.050723,2.052436 11.780542,-0.662108 3.809999,-2.186638 4.135819,-2.181522 6.661971,0.104614 2.537876,2.296748 2.814964,2.299572 6.227665,0.06348 3.40773,-2.232828 3.77311,-2.231704 7.96262,0.02449 4.2041,2.264056 4.54461,2.264056 8,0 3.46269,-2.268837 3.7934,-2.265402 8.15732,0.08472 l 4.54832,2.449432 4.40008,-5.090145 c 6.12152,-7.08154 9.69329,-6.016595 14.47117,4.314657 5.59127,12.090036 8.48503,23.893006 6.457,26.336622 -1.99389,2.402506 -9.48886,2.664966 -11.74262,0.411204 z M 7.5000002,49.000382 C 4.2917325,46.594164 4.2462865,40.092424 7.4215063,37.770647 9.8044411,36.028203 14.857342,35.601151 32.000001,35.693367 l 8.666667,0.04663 -8.337281,-1.320264 c -7.27313,-1.151748 -8.443931,-1.745199 -9.172867,-4.649508 -0.552092,-2.199711 -0.10084,-4.063992 1.330042,-5.494873 1.873508,-1.873508 2.984687,-1.946564 8.237689,-0.5416 4.191339,1.121012 6.850791,1.207265 8.586251,0.278476 4.518314,-2.418128 8.199846,-1.431459 15.070376,4.03894 3.719453,2.96147 7.583013,5.069685 8.585691,4.684921 1.002679,-0.384764 11.245389,-1.068471 22.761577,-1.519348 11.516187,-0.450877 21.480164,-1.151139 22.142164,-1.556136 0.662,-0.404997 7.562,-0.840243 15.33334,-0.967213 l 14.12969,-0.230859 1.57994,-10.564598 c 0.86896,-5.81053 1.61896,-10.7145988 1.66667,-10.8979321 0.26048,-1.0011888 12.05461,-0.1306454 12.7154,0.9385447 0.43235,0.699533 0.92493,8.5699254 1.09467,17.4897614 0.43724,22.979058 1.82108,21.835217 -24.92266,20.600286 C 119.66031,45.483386 98.305973,44.884452 84.01327,44.69763 61.945796,44.409183 57.528416,44.682868 54.723728,46.51231 52.198341,48.159568 47.958332,48.674892 36.710458,48.701618 28.619707,48.72084 19.3,49.217804 16,49.805982 c -4.435559,0.790573 -6.6518501,0.580521 -8.4999998,-0.8056 z"
       id="path398" />
  </g>
</svg>
