<?xml version="1.0" encoding="UTF-8" standalone="no"?>
<!-- Created with Inkscape (http://www.inkscape.org/) -->

<svg
   version="1.1"
   id="svg82"
   width="160"
   height="154.66667"
   viewBox="0 0 160 154.66667"
   xmlns="http://www.w3.org/2000/svg"
   xmlns:svg="http://www.w3.org/2000/svg">
  <defs
     id="defs86" />
  <g
     id="g88">
    <path
       style="fill:#000000;stroke-width:1.33333"
       d="M 59.497488,147.96271 C 49.321107,147.33539 40.021107,146.44783 38.830821,145.99034 37.640536,145.53286 31.566667,144.29652 25.333333,143.24292 8.5688595,140.40931 8.4783781,140.37386 6.6323147,135.91707 5.0726293,132.15166 5.2004976,131.54131 8.1301959,128.76733 14.578583,122.66169 38.624633,117.57491 68.666667,115.96125 101.43068,114.20138 129.5148,117.49073 147,125.13603 c 5.48119,2.39661 6.33333,3.29402 6.33333,6.66975 0,3.28992 -0.88713,4.30982 -5.66666,6.51484 -16.96555,7.82693 -53.248267,11.79478 -88.169182,9.64209 z m 49.169182,-12.40685 c 5.13333,-0.60242 11.43333,-1.74566 14,-2.54054 l 4.66666,-1.44523 -8.40896,-1.71673 c -4.62494,-0.9442 -15.53201,-2.45083 -24.237946,-3.34807 -16.57618,-1.70835 -27.877451,-0.87326 -48.210532,3.56244 -4.871593,1.06275 -10.571593,1.97444 -12.666667,2.02599 -6.257302,0.15394 0.206652,2.08627 8.140104,2.4334 3.694536,0.16166 8.740924,0.70919 11.214198,1.21674 6.211569,1.27469 44.1336,1.14624 55.503143,-0.188 z M 79.966999,95.246535 c -0.715183,-1.881072 -1.309178,-6.831072 -1.319988,-11 -0.02249,-8.671724 -2.20234,-14.00426 -6.013834,-14.711534 -5.35032,-0.992825 -5.971734,-2.653294 -5.246866,-14.020041 0.543652,-8.525075 1.404033,-29.898695 1.899265,-47.1816265 0.02851,-0.9950216 1.863021,-1.6666667 4.552277,-1.6666667 3.868906,0 5.255956,0.987743 9.829839,7.0000002 l 5.325319,7 0.858208,23.333334 c 0.472013,12.833334 1.228986,29.360077 1.682162,36.726094 0.710816,11.553776 0.51172,13.704996 -1.449952,15.666667 -3.493164,3.493164 -8.571292,2.917795 -10.11643,-1.146227 z"
       id="path259" />
  </g>
</svg>
