<?xml version="1.0" encoding="UTF-8" standalone="no"?>
<!-- Created with Inkscape (http://www.inkscape.org/) -->

<svg
   version="1.1"
   id="svg92"
   width="162.66667"
   height="156"
   viewBox="0 0 162.66667 156"
   xmlns="http://www.w3.org/2000/svg"
   xmlns:svg="http://www.w3.org/2000/svg">
  <defs
     id="defs96" />
  <g
     id="g98">
    <path
       style="fill:#000000;stroke-width:1.33333"
       d="m 48.666668,147.21811 c -1.466667,-0.33894 -9.266667,-1.88632 -17.333334,-3.43866 -17.020076,-3.2753 -19.016074,-4.10473 -20.730681,-8.61449 -2.846845,-7.48777 2.684622,-10.42263 30.730681,-16.30498 14.0055,-2.93749 48.697524,-5.91115 56.000001,-4.80009 2.566667,0.39051 9.166665,1.2349 14.666665,1.87642 25.79794,3.00905 41.92275,7.2403 43.52736,11.42185 2.27066,5.91722 -8.42137,13.94612 -18.6379,13.99564 -2.32254,0.0107 -8.8722,1.19213 -14.55482,2.62415 -8.21614,2.07048 -16.54424,2.73196 -40.666668,3.23004 -16.684051,0.3445 -31.534638,0.34905 -33.001304,0.0101 z M 101.339,135.28563 c 8.43645,-0.46259 16.74554,-1.59383 18.46464,-2.51387 l 3.12564,-1.67279 -3.79797,-1.56559 c -3.30515,-1.36243 -30.977734,-3.40501 -42.464642,-3.13442 -6.095416,0.14359 -28.665547,2.67762 -34.577402,3.88213 l -5.244068,1.06846 3.910735,1.86696 c 3.575133,1.70674 35.660755,4.1624 42.577402,3.25865 1.466667,-0.19165 9.569216,-0.72693 18.005665,-1.18953 z M 54.988861,104.26942 C 45.308974,103.8086 44.007804,102.51909 41.2631,90.666667 40.329087,86.633333 37.862794,76.873327 35.782447,68.977763 c -3.902888,-14.812684 -4.5887,-20.322092 -2.676785,-21.50372 1.723247,-1.065026 70.678918,-1.46724 71.727778,-0.418386 0.51283,0.512835 0.85672,2.946207 0.76419,5.407494 l -0.16824,4.475068 9.89281,-0.135776 c 8.42638,-0.11565 10.19176,0.259509 11.90957,2.53089 4.60749,6.092282 1.12472,15.333334 -5.77883,15.333334 h -3.00376 l 2.77541,4.490712 c 3.41054,5.518374 3.41376,5.740498 0.10875,7.509288 -2.77371,1.484444 -7.60519,-0.120387 -9.63263,-3.199606 -0.53127,-0.806884 -0.59196,1.731411 -0.13485,5.640655 l 0.8311,7.107715 -3.86515,-0.441048 c -2.85786,-0.32611 -3.97883,-1.24315 -4.30141,-3.518882 -0.35369,-2.495256 -0.79534,-2.779822 -2.33333,-1.503406 C 100.85368,91.618028 100,93.686583 100,95.348881 c 0,1.662299 -1.147027,4.438832 -2.548951,6.170069 -2.41902,2.98726 -3.353571,3.14772 -18.333334,3.14772 -8.68141,0 -19.539394,-0.17876 -24.128854,-0.39725 z M 115.33334,65.333333 C 115.78656,64.6 114.88656,64 113.33334,64 c -1.55323,0 -2.45323,0.6 -2,1.333333 0.45322,0.733334 1.35322,1.333334 2,1.333334 0.64677,0 1.54677,-0.6 2,-1.333334 z m -44.296433,-35 c -0.709287,-0.916666 -1.663923,-2.716666 -2.121414,-4 C 67.961719,23.65784 63.587251,23.531981 30.000001,25.213687 19,25.764455 8.9500002,25.695579 7.6666668,25.060629 4.6365401,23.561428 4.6866166,19.665237 7.7718987,16.873096 9.8631719,14.98052 14.217079,14.638355 38.343541,14.470531 53.816733,14.362899 66.96938,13.912997 67.571643,13.470751 68.173907,13.028505 69.330977,11.466667 70.142912,10 72.209124,6.2676243 75.72517,5.9436381 79.158668,9.1692429 c 2.894982,2.7196931 2.935238,2.7207581 4.559018,0.1206734 2.591825,-4.1501715 8.141499,-3.4251272 9.780964,1.2778467 l 1.359929,3.901096 27.570711,-0.550134 c 15.16389,-0.302574 28.55593,-0.238195 29.76009,0.143064 2.4496,0.775589 4.01732,5.181476 2.88949,8.120553 -0.58496,1.524387 -3.27215,1.844561 -12.9088,1.538064 -6.69353,-0.21289 -19.9907,-0.237073 -29.54926,-0.05374 L 95.241622,24 92.878763,28 c -2.761789,4.675339 -6.580748,5.161391 -9.361396,1.191459 l -1.967179,-2.80854 -2.404748,2.80854 c -2.70031,3.153733 -6.173379,3.642824 -8.108533,1.141874 z"
       id="path120" />
  </g>
</svg>
