<?xml version="1.0" encoding="UTF-8" standalone="no"?>
<!-- Created with Inkscape (http://www.inkscape.org/) -->

<svg
   version="1.1"
   id="svg2"
   width="154.66667"
   height="156"
   viewBox="0 0 154.66667 156"
   xmlns="http://www.w3.org/2000/svg"
   xmlns:svg="http://www.w3.org/2000/svg">
  <defs
     id="defs6" />
  <g
     id="g8">
    <path
       style="fill:#000000;stroke-width:1.33333"
       d="M 26.660589,150.19923 C 17.821024,147.81379 8.0665294,140.66597 7.1076107,135.87139 6.6756541,133.7116 5.7997323,131.62158 5.1611176,131.2269 3.352573,130.10916 3.7941615,122.15164 5.9512209,116.98907 c 3.1195574,-7.46615 9.0999621,-11.65574 16.6379351,-11.65574 7.687022,0 12.527311,3.28283 14.74415,9.99992 2.523474,7.6462 -0.966508,14.45528 -8.226293,16.04979 -4.712502,1.03504 -11.395933,-1.43559 -12.21329,-4.51482 -0.516215,-1.94473 -0.602428,-1.93071 -0.739055,0.12018 -0.238701,3.58316 7.553751,10.19018 13.012723,11.03314 7.115971,1.09883 11.442259,3.67119 11.934962,7.0964 0.940607,6.53899 -3.391615,8.06327 -14.441764,5.08128 z m 0.815397,-30.97495 c -0.445125,-1.15997 -0.809319,-2.39538 -0.809319,-2.74535 0,-0.34997 -0.573796,-0.28168 -1.275101,0.15175 -1.547949,0.95668 -0.304985,4.70265 1.560405,4.70265 0.733334,0 0.96914,-0.94907 0.524015,-2.10905 z m 77.902674,22.83033 c -3.86608,-4.65833 2.81248,-14.82539 13.17167,-20.05179 5.65267,-2.85188 12.71987,-2.0889 21.25625,2.29484 4.91544,2.52425 6.55114,4.26114 7.92701,8.41741 0.95347,2.88028 1.39203,6.59768 0.97459,8.2609 -0.74767,2.97894 -1.06431,3.02403 -21.23699,3.02403 -16.32057,0 -20.80578,-0.39495 -22.09253,-1.94539 z M 37.376187,63.384968 C 36.486837,62.313367 34.46337,61.046628 32.879594,60.569992 25.923378,58.476527 21.07361,55.365324 19.240359,51.820207 18.096396,49.608028 16.17654,48 14.679339,48 10.583939,48 8.7006475,43.164195 11.269308,39.243923 12.438333,37.459765 13.980976,36 14.697404,36 17.162823,36 15.987119,33.656425 10.601346,27.835175 5.5281612,22.351785 5.2513056,21.638279 6.0090508,16 7.1274704,7.6779917 10.680719,4.8672891 19.064468,5.6728612 c 8.096397,0.7779612 10.219449,2.6250141 7.693975,6.6937518 -1.012797,1.631696 -2.46193,3.96841 -3.220296,5.192696 -1.103136,1.780875 -0.10776,3.713799 4.977935,9.666667 3.496229,4.09238 6.959819,7.440691 7.696865,7.440691 0.737047,0 5.340653,1.742809 10.230237,3.87291 9.856932,4.29408 4.789442,4.273332 47.556818,0.19471 8.066668,-0.769299 18.067598,-1.399227 22.224288,-1.399839 10.71758,-0.0016 11.7744,-0.642297 11.78315,-7.143767 0.009,-7.06915 2.14842,-14.773562 4.68616,-16.879697 2.93999,-2.439975 8.50791,-1.992288 10.6422,0.855683 3.27672,4.372422 5.5878,33.417873 2.942,36.974882 -1.72269,2.315995 -13.14536,2.987066 -69.611132,4.08959 -13.933333,0.272054 -26.233334,0.865737 -27.333334,1.319294 -1.1,0.453556 -3.022093,2.615255 -4.27132,4.803775 -2.48195,4.348131 -5.172569,5.059051 -7.685827,2.03076 z"
       id="path893" />
  </g>
</svg>
