<?xml version="1.0" encoding="UTF-8" standalone="no"?>
<!-- Created with Inkscape (http://www.inkscape.org/) -->

<svg
   version="1.1"
   id="svg12"
   width="162.66667"
   height="152"
   viewBox="0 0 162.66667 152"
   xmlns="http://www.w3.org/2000/svg"
   xmlns:svg="http://www.w3.org/2000/svg">
  <defs
     id="defs16" />
  <g
     id="g18">
    <path
       style="fill:#000000;stroke-width:1.33333"
       d="M 30.000001,144.99416 C 19,144.31559 9.2500002,143.14084 8.3333335,142.3836 5.5583329,140.09125 6.2564224,128.94318 9.3852737,125.58475 c 1.4952343,-1.60495 2.8452343,-2.94504 3.0000003,-2.978 0.154766,-0.0329 10.181393,-0.40872 22.281393,-0.83503 22.646577,-0.79791 23.940329,-1.15445 23.979584,-6.60846 0.03809,-5.29214 3.311465,-6.46802 10.368509,-3.72463 7.294715,2.83577 24.710143,3.20612 29.527559,0.62792 4.338101,-2.32168 20.577361,0.74192 27.328421,5.15561 4.45237,2.91085 6.73329,3.40866 15.79094,3.44638 12.35716,0.0515 14.33832,1.56024 14.33832,10.91963 0,10.20956 -4.77338,12.42655 -17.86562,8.29762 -6.23305,-1.96574 -10.18851,-1.44512 -21.01382,2.76585 l -10.21278,3.97269 -28.453889,-0.1982 c -15.649639,-0.10901 -37.45389,-0.7534 -48.45389,-1.43197 z M 9.0085186,86.085091 C 3.8006938,82.277036 3.9076402,73.138693 9.2513773,65.333333 10.506521,63.5 12.835822,59.162085 14.427602,55.693524 c 2.091989,-4.558543 3.881984,-6.554409 6.458229,-7.201005 3.602166,-0.904086 5.179444,0.284634 9.309408,7.016061 1.229842,2.004517 1.868252,2.1657 3.266667,0.824753 2.430381,-2.330504 8.27564,-2.075881 12.869443,0.560599 3.722171,2.136233 3.999068,2.108985 6.77472,-0.666667 3.485031,-3.48503 4.681014,-3.564278 9.634171,-0.638377 3.586364,2.118517 3.969773,2.118517 6.310709,0 3.041982,-2.752955 7.40747,-2.916332 9.531757,-0.356723 1.360757,1.639612 2.242865,1.620152 6.46159,-0.142544 4.478775,-1.871352 5.249343,-1.845541 9.251743,0.309894 4.18445,2.253474 4.477279,2.250602 7.040481,-0.06907 2.36967,-2.144523 3.25964,-2.227196 7.80985,-0.725491 3.83775,1.266571 5.83574,1.320042 7.90687,0.211607 3.87343,-2.072993 6.99827,-1.849924 9.81677,0.70078 1.96742,1.780497 2.78745,1.873507 4.43832,0.503407 1.11375,-0.92433 2.02501,-2.521987 2.02501,-3.550346 0,-1.028357 1.58098,-2.47083 3.5133,-3.205497 4.97811,-1.892672 8.51859,0.843421 12.3757,9.56398 1.74449,3.944112 4.28312,9.714573 5.6414,12.823248 3.18905,7.298727 3.15221,11.888716 -0.10947,13.634285 -6.70177,3.586683 -12.55823,-0.23382 -14.06939,-9.17828 l -0.93044,-5.507236 -4.5851,2.833752 C 130.60301,76.256836 124,76.181919 124,73.307931 124,71.3588 121.41586,71.727003 119.14286,74 c -2.45133,2.451333 -6.74307,2.496317 -11.0402,0.11572 -2.83103,-1.568381 -3.56312,-1.480067 -5.91808,0.713915 -3.461953,3.225296 -6.498629,3.173301 -9.517911,-0.162968 C 89.788817,71.486676 87.585448,71.286371 85.333335,74 c -0.912919,1.1 -3.105216,2 -4.871773,2 -1.766556,0 -3.557282,-0.9 -3.979392,-2 -1.070994,-2.790967 -3.532901,-2.492883 -5.506071,0.666667 -2.138342,3.424029 -5.692818,3.393765 -9.4217,-0.08022 -2.853636,-2.658565 -8.221065,-2.606192 -8.221065,0.08022 0,2.778065 -5.423365,2.679936 -9.275164,-0.167822 l -4.036337,-2.984193 -3.096851,2.909341 c -1.703268,1.600138 -4.015188,2.90934 -5.1376,2.90934 -2.314532,0 -6.454048,-4.102589 -6.454048,-6.396474 0,-3.776438 -3.876991,0.49852 -5.193414,5.726509 -1.810765,7.191201 -7.544653,12.044417 -11.1314014,9.421723 z M 70.000001,26.666667 c -2.454013,-4.745539 -3.019438,-4.785244 -36.145199,-2.53817 -23.700999,1.60775 -27.1881352,0.992724 -27.1881352,-4.795164 0,-1.838201 1.1155986,-3.83656 2.5790114,-4.619754 1.4184558,-0.759135 10.5684568,-1.383842 20.3333348,-1.388237 9.764876,-0.0044 22.691808,-0.392361 28.726514,-0.862146 9.206084,-0.716667 11.102592,-1.265004 11.782313,-3.4066185 0.445567,-1.4038559 2.344425,-3.2515407 4.219686,-4.1059663 2.980818,-1.3581524 3.655672,-1.1828419 5.366728,1.3941472 L 81.63142,9.2924069 84.995522,6.6462035 C 89.604982,3.020402 91.578378,3.3170963 94.000002,8 c 1.137664,2.2 2.803072,4.029866 3.700907,4.066368 0.897834,0.0365 9.732431,-0.0582 19.632431,-0.210447 40.46568,-0.622305 37.46549,-0.802638 39.59065,2.379676 1.74815,2.61775 1.66732,3.173091 -0.82448,5.664892 -2.49364,2.493651 -4.02851,2.715868 -15.7644,2.282386 -7.15098,-0.264132 -20.17912,-0.03723 -28.95143,0.504224 -14.17943,0.8752 -16.158281,1.298661 -17.829299,3.815349 -2.266008,3.412791 -7.92921,3.739675 -10.231875,0.590591 -1.502584,-2.054904 -1.766887,-1.999736 -3.193903,0.666666 -2.344144,4.380074 -7.591158,3.813838 -10.128602,-1.093038 z"
       id="path754" />
  </g>
</svg>
