<?xml version="1.0" encoding="UTF-8" standalone="no"?>
<!-- Created with Inkscape (http://www.inkscape.org/) -->

<svg
   version="1.1"
   id="svg22"
   width="169.33333"
   height="153.33333"
   viewBox="0 0 169.33333 153.33333"
   xmlns="http://www.w3.org/2000/svg"
   xmlns:svg="http://www.w3.org/2000/svg">
  <defs
     id="defs26" />
  <g
     id="g28">
    <path
       style="fill:#000000;stroke-width:1.33333"
       d="m 75.428571,141.90476 c -1.152382,-1.15238 -2.095239,-2.73696 -2.095239,-3.52128 0,-0.9742 -3.696509,-1.13343 -11.666667,-0.50254 -18.106873,1.4333 -47.410797,1.71084 -49.999999,0.47358 -2.8199091,-1.34752 -3.0362582,-6.22052 -0.433602,-9.76635 1.74598,-2.3787 3.769317,-2.60001 24.999999,-2.73446 38.461862,-0.24356 36.109892,0.0316 38.704922,-4.52881 3.053996,-5.36703 8.497759,-5.53347 10.626781,-0.3249 l 1.498764,3.66666 1.40741,-3.70965 c 2.45282,-6.46516 11.6399,-6.40518 12.6091,0.0823 0.66857,4.4751 3.0036,5.5072 9.58662,4.23735 3.3,-0.63656 15.06068,-1.57355 26.13484,-2.0822 19.58122,-0.89938 20.21551,-0.84415 23.0682,2.00855 2.77647,2.77646 2.90947,6.89739 0.31378,9.7221 -0.46759,0.50884 -13.75015,1.25995 -29.51682,1.66914 -28.65001,0.74354 -28.66808,0.74592 -31.111205,4.07485 -2.967524,4.04347 -8.214505,4.37439 -10.531554,0.6642 -1.933127,-3.09543 -3.690569,-3.48083 -3.690569,-0.80932 0,3.66556 -6.687678,4.59784 -9.904761,1.38075 z M 142.84338,42.549182 c -2.80697,-3.012927 -5.48789,-10.263832 -5.50261,-14.882516 -0.009,-3.024916 -2.05695,-2.954376 -6.52155,0.224703 C 115.25729,38.972442 98.338151,44.020182 76.985121,43.952503 55.14267,43.883274 46.339639,41.427739 28.321498,30.378171 12.387613,20.606768 6.0038177,12.423105 11.049079,8.2359098 12.248085,7.2408232 18.974326,7.1911148 33.382411,8.0708616 44.722084,8.7632533 74.84226,9.2187015 100.31613,9.0829686 l 46.31613,-0.2467872 3.47742,3.2485756 c 5.94688,5.555525 9.97082,13.744005 10.10781,20.568732 0.15024,7.484834 -2.70948,11.053077 -9.77756,12.20007 -3.82385,0.620527 -5.28433,0.177499 -7.59655,-2.304377 z m 5.72728,-16.318568 c -1.18941,-3.099547 -3.14438,-1.49652 -2.26694,1.858829 0.42602,1.62911 1.20944,2.264063 1.91854,1.554962 0.65916,-0.659171 0.81595,-2.195376 0.3484,-3.413791 z"
       id="path615" />
  </g>
</svg>
