<?xml version="1.0" encoding="UTF-8" standalone="no"?>
<!-- Created with Inkscape (http://www.inkscape.org/) -->

<svg
   version="1.1"
   id="svg32"
   width="114.66667"
   height="152"
   viewBox="0 0 114.66667 152"
   xmlns="http://www.w3.org/2000/svg"
   xmlns:svg="http://www.w3.org/2000/svg">
  <defs
     id="defs36" />
  <g
     id="g38">
    <path
       style="fill:#000000;stroke-width:1.33333"
       d="m 9.5341052,143.67895 c -2.3104245,-0.5987 -4.2007717,-1.93094 -4.2007717,-2.96055 0,-1.98771 1.700425,-2.71773 9.5795085,-4.11268 6.931065,-1.22711 9.199515,-4.41914 10.569899,-14.87334 0.653606,-4.98614 1.812365,-12.36571 2.575021,-16.39905 0.762655,-4.03333 1.724843,-9.262306 2.138196,-11.619942 0.413352,-2.357637 1.48483,-4.89518 2.38106,-5.638987 0.896232,-0.743805 8.806639,-1.551297 17.578685,-1.794428 14.987831,-0.415409 19.177632,-1.151086 19.177632,-3.367357 0,-1.390129 -10.011187,-4.245949 -14.884337,-4.245949 -2.342818,0 -6.102267,0.664868 -8.354333,1.477485 -5.718252,2.063327 -15.427997,-0.529593 -15.427997,-4.119939 0,-1.396818 1.333504,-3.473692 2.963341,-4.615274 3.124461,-2.188458 14.279952,-2.849584 16.436659,-0.974112 4.50093,3.914006 20.464331,5.385282 21.578339,1.988778 0.947999,-2.890358 -4.72614,-4.445964 -19.252017,-5.278076 -13.327752,-0.763478 -14.668672,-1.09365 -18.117886,-4.461142 -3.359459,-3.279864 -3.565762,-3.985907 -2.102834,-7.196683 1.240763,-2.723177 1.254451,-3.927651 0.05823,-5.123872 -0.860108,-0.860108 -1.563832,-2.317187 -1.563832,-3.237953 0,-0.920767 -1.395164,-3.730011 -3.100366,-6.242766 l -3.100367,-4.568644 -1.333552,3.532982 c -0.81457,2.158045 -0.990421,10.269464 -0.451857,20.842766 0.53188,10.442094 0.374763,17.971036 -0.396009,18.97645 -1.466139,1.912468 -8.718278,2.195442 -11.478175,0.447873 C 9.4777497,79.273273 9.2155101,77.65942 9.8888675,74.468291 11.146258,68.509351 14.687846,40.24832 15.58177,29.040276 c 1.216473,-15.252177 5.044468,-15.246429 12.5822,0.01889 12.539034,25.393894 17.167415,29.916858 32.169365,31.436666 8.043114,0.814826 9.018092,0.659737 9.170164,-1.458699 0.360227,-5.018113 0.801642,-7.805323 1.667686,-10.530184 0.748985,-2.356557 0.24345,-2.957356 -3.041198,-3.614285 l -3.939509,-0.787903 v -12.29218 c 0,-14.872631 2.690887,-21.59082 9.845251,-24.5801045 C 81.062244,4.2966113 86.105595,4.8389113 90.473565,9 c 9.252043,8.813835 13.993565,38.739757 7.271675,45.894881 -1.9965,2.125178 -3.023684,5.085132 -3.244407,9.349158 -0.245428,4.74129 -0.904585,6.391533 -2.745237,6.872873 -2.075724,0.542815 -2.407748,2.034235 -2.320823,10.424928 0.09644,9.308923 0.181386,9.570577 1.723599,5.309048 3.085021,-8.524696 11.717748,-11.245653 14.332758,-4.517555 1.72261,4.432068 0.85359,23.855287 -1.15729,25.866167 -2.92171,2.92171 -4.334424,-0.5053 -4.374382,-10.611523 -0.03175,-8.028816 -0.354666,-9.713992 -1.487735,-7.763798 -0.890751,1.533124 -1.110899,5.463266 -0.57256,10.221541 0.549429,4.85632 0.358961,8.0494 -0.512266,8.58784 -0.832884,0.51475 -1.386894,7.11057 -1.386894,16.5118 0,10.39805 -0.537255,16.19189 -1.6,17.25464 -2.281308,2.28131 -41.058019,2.22271 -44.117952,-0.0667 -2.001826,-1.49772 -2.100004,-3.49124 -0.968562,-19.66666 0.692487,-9.9 1.280243,-18.98496 1.306123,-20.18879 0.05208,-2.42258 -5.198049,-4.273025 -8.51366,-3.000705 -1.502108,0.576415 -2.10406,2.583195 -2.099356,6.998815 0.0061,5.77249 -2.67246,16.29951 -5.59558,21.99081 -0.696838,1.35674 -0.889019,4.70392 -0.427068,7.43817 0.568206,3.36319 0.275333,5.42712 -0.905352,6.38022 -2.285172,1.84464 -18.174556,2.78525 -23.5444908,1.39376 z"
       id="path476" />
  </g>
</svg>
