<?xml version="1.0" encoding="UTF-8" standalone="no"?>
<!-- Created with Inkscape (http://www.inkscape.org/) -->

<svg
   version="1.1"
   id="svg42"
   width="162.66667"
   height="162.66667"
   viewBox="0 0 162.66667 162.66667"
   xmlns="http://www.w3.org/2000/svg"
   xmlns:svg="http://www.w3.org/2000/svg">
  <defs
     id="defs46" />
  <g
     id="g48">
    <path
       style="fill:#000000;stroke-width:1.33333"
       d="M 75.883431,154.15643 C 75.580878,153.8818 67.833335,153.27724 58.666668,152.81296 41.463822,151.94167 35.740279,150.98194 18.666667,146.10572 8.705636,143.26086 8.6650659,143.2306 8.2558435,138.3418 c -0.3744065,-4.47286 -0.0096,-5.07556 4.1153735,-6.79909 5.580063,-2.3315 25.97917,-6.83194 40.370611,-8.90655 11.509725,-1.6592 49.116902,-0.89495 64.591512,1.31261 10.37986,1.48076 29.89046,5.87285 35,7.87896 4.79326,1.88193 5.17834,8.46243 0.66666,11.39234 -4.5856,2.97792 -22.81481,7.26141 -37.66666,8.85091 -14.93886,1.5988 -38.607606,2.85001 -39.449909,2.08545 z m 45.060359,-13.56901 c 5.28575,-1.05642 10.98575,-1.97828 12.66667,-2.04859 6.84724,-0.28643 -16.84409,-3.95735 -33.851467,-5.24521 -21.631157,-1.63799 -65.21989,1.05617 -68.39087,4.22714 -0.814677,0.81468 16.845354,3.75634 30.986421,5.16144 14.156919,1.4067 46.933016,0.23482 58.589246,-2.09478 z M 51.954714,94.668705 c -6.644898,-1.159126 -7.954713,-2.277196 -7.954713,-6.790218 0,-8.143829 5.907127,-17.716948 15.776892,-25.56811 l 4.889775,-3.889697 16.666667,0.511215 c 14.757831,0.452665 17.310932,0.886696 22.291965,3.789661 10.34805,6.030889 18.98416,25.679704 13.34414,30.360503 -2.17683,1.806607 -56.196291,3.12492 -65.014726,1.586646 z M 145.0309,45.190581 c -1.10799,-0.620063 -2.75376,-3.091605 -3.65727,-5.492318 -3.65345,-9.707582 -4.30229,-10.540325 -6.59992,-8.470664 -3.473,3.128399 -8.74798,3.87992 -10.70257,1.524783 -2.36326,-2.847559 -5.02578,-2.617989 -6.7378,0.580952 -1.83063,3.420565 -6.36841,3.411705 -10.02083,-0.01956 l -2.85936,-2.686232 -3.09726,2.686232 c -4.087347,3.54494 -6.165608,3.388612 -10.003427,-0.752463 l -3.186875,-3.438696 -2.989908,3.438696 c -3.633042,4.178366 -4.236344,4.213008 -9.218752,0.529355 l -3.935095,-2.909341 -3.09685,2.909341 c -3.849239,3.616165 -6.814667,3.686316 -10.258315,0.242668 -3.3363,-3.3363 -4.273683,-3.3363 -6.357236,0 -0.915948,1.466667 -2.74714,2.666667 -4.069314,2.666667 -1.322174,0 -3.692002,-1.2 -5.266284,-2.666667 -3.577312,-3.332772 -4.624383,-3.332772 -7.6405,0 -3.128912,3.457409 -6.675737,3.389633 -9.1727,-0.17528 -1.230625,-1.756965 -2.798132,-2.532059 -4.105847,-2.030241 -2.185769,0.838758 -2.614328,1.686713 -3.959167,7.833701 -0.921844,4.21357 -5.054997,6.881802 -8.8126501,5.689168 C 5.3394796,43.399068 5.9660439,35.992719 11.179876,22.228174 16.605018,7.9057666 18.549359,5.5776701 23.28408,7.7349539 c 1.860423,0.8476652 3.40167,2.3040731 3.424991,3.2364611 0.02332,0.932389 0.912728,2.84544 1.976456,4.251225 1.906131,2.519076 2.003183,2.519076 6.722978,0 l 4.788925,-2.555973 3.090144,3.573056 3.090143,3.573055 3.04356,-3.239722 c 3.686743,-3.924357 7.756639,-4.127895 12.227036,-0.61148 3.324986,2.615434 3.35286,2.615434 5.719795,0 3.060921,-3.382279 5.719219,-3.324192 9.478118,0.20711 3.074532,2.888372 4.340001,2.7738 9.277489,-0.83996 2.553763,-1.869106 3.097479,-1.800723 6.41192,0.806417 l 3.62154,2.848704 3.265663,-3.067931 3.265662,-3.06793 3.9351,2.909341 c 4.62368,3.418439 7.09512,3.658123 9.3764,0.90934 2.1164,-2.550101 5.92075,-2.55022 9.81241,-3.05e-4 2.92145,1.914208 3.16409,1.785957 5.67582,-3 1.90299,-3.626015 3.62412,-5.1164033 6.26433,-5.42447 3.13324,-0.3655941 3.91915,0.284577 5.64098,4.666667 1.10029,2.800293 3.40432,8.091441 5.12005,11.758108 5.11361,10.928222 6.58775,16.536359 4.88572,18.587166 -2.00171,2.411917 -5.90508,3.315297 -8.36841,1.936748 z"
       id="path219" />
  </g>
</svg>
