<?xml version="1.0" encoding="UTF-8" standalone="no"?>
<!-- Created with Inkscape (http://www.inkscape.org/) -->

<svg
   version="1.1"
   id="svg52"
   width="106.66667"
   height="165.33333"
   viewBox="0 0 106.66667 165.33333"
   xmlns="http://www.w3.org/2000/svg"
   xmlns:svg="http://www.w3.org/2000/svg">
  <defs
     id="defs56" />
  <g
     id="g58">
    <path
       style="fill:#000000;stroke-width:1.33333"
       d="m 20.666667,156.83664 c -13.9015928,-3.96004 -16.6666669,-5.5248 -16.6666669,-9.4317 0,-3.3593 6.7448199,-10.07161 10.1203919,-10.07161 1.053686,0 2.957651,-0.53479 4.231034,-1.18841 2.932765,-1.50538 15.434795,-5.03845 21.981909,-6.21207 2.75,-0.49296 5.083013,-1.57952 5.184474,-2.41457 0.101467,-0.83506 0.03101,-9.8987 -0.156542,-20.14143 L 45.020251,88.753702 35.809554,78.710184 C 28.151794,70.360016 26.660777,67.99226 26.966097,64.666665 27.33046,60.69798 27.403792,60.663579 36.333334,60.272412 l 9.000001,-0.394253 V 39.985474 20.092789 L 49.53126,15.311617 C 57.390414,6.3605357 65.340025,4.3300478 70.600917,9.9300099 c 3.405569,3.6250631 4.059343,9.7439021 1.232419,11.5345441 -2.500005,1.583564 -6.500001,1.502812 -6.500001,-0.131221 0,-2.050404 -1.959922,-1.592409 -5.195962,1.214192 -2.855777,2.476801 -2.941018,3.374446 -3.070419,32.333333 -0.145932,32.658511 1.293068,65.404252 3.082861,70.153312 1.307004,3.46801 0.476547,3.12949 17.183521,7.00458 6.966667,1.61587 14.839595,4.04107 17.495395,5.38933 8.929609,4.53322 7.113119,11.21438 -4.162062,15.3083 -14.954005,5.42967 -19.730715,6.24159 -39.333334,6.68568 -17.65577,0.4 -21.250257,0.0969 -30.666668,-2.58542 z m 47.333335,-8.9012 c 4.766667,-0.58967 10.037466,-1.4918 11.712887,-2.00472 l 3.046222,-0.93258 -3.120971,-1.61918 c -8.66597,-4.49596 -37.266019,-4.90926 -46.971472,-0.67879 -1.466667,0.63931 -3.816947,1.34329 -5.222846,1.56443 -1.405897,0.22113 -2.805897,1.15206 -3.111111,2.06873 -0.402753,1.20961 1.760802,1.69477 7.889513,1.76913 4.644444,0.0564 10.844444,0.84848 13.777777,1.76028 3.64967,1.13446 6.596082,1.26115 9.333334,0.40132 2.2,-0.69106 7.9,-1.73894 12.666667,-2.32862 z M 44.000001,70.666665 c 0,-0.733333 -0.63541,-1.333333 -1.412022,-1.333333 -0.776612,0 -1.041203,0.6 -0.587978,1.333333 0.453226,0.733334 1.088635,1.333334 1.412023,1.333334 0.323388,0 0.587977,-0.6 0.587977,-1.333334 z"
       id="path80" />
  </g>
</svg>
