<?xml version="1.0" encoding="UTF-8" standalone="no"?>
<!-- Created with Inkscape (http://www.inkscape.org/) -->

<svg
   version="1.1"
   id="svg2"
   width="56"
   height="153.33333"
   viewBox="0 0 56 153.33333"
   xmlns="http://www.w3.org/2000/svg"
   xmlns:svg="http://www.w3.org/2000/svg">
  <defs
     id="defs6" />
  <g
     id="g8">
    <path
       style="fill:#000000;stroke-width:1.33333"
       d="m 17.727488,145.1416 c -0.838291,-1.01008 -1.943156,-9.66462 -2.469195,-19.34148 -1.140606,-20.98225 -1.861105,-20.11064 17.040518,-20.61456 16.757477,-0.44676 17.166102,-0.10698 16.836938,14.00041 -0.138776,5.94772 0.187831,13.28225 0.725792,16.29896 1.334268,7.48213 -1.131273,9.84461 -10.290113,9.85999 -3.797619,0.007 -9.924716,0.37454 -13.615772,0.81816 -4.858331,0.5839 -7.129847,0.3019 -8.228168,-1.02148 z M 26.549091,66.254743 C 22.161779,64.235743 16.163565,58.217385 11.484099,51.139164 8.9656945,47.329791 7.2599227,42.149244 5.9963523,34.472498 L 4.1628779,23.333333 7.7895949,17.358484 C 12.832781,9.050069 18.769464,5.3333332 26.997177,5.3333332 c 5.731315,0 7.201179,0.5983557 11.136156,4.5333333 3.657515,3.6575145 4.533334,5.5726975 4.533334,9.9131995 0,2.958928 -0.574224,6.890189 -1.276052,8.736139 -1.760487,4.630432 -8.318391,7.80598 -13.941734,6.751034 -2.506541,-0.47023 -4.839326,-0.25332 -5.300489,0.492858 -0.453016,0.732993 -0.119227,4.384529 0.741765,8.114523 1.23925,5.368723 2.921196,8.065448 8.072151,12.942372 3.681099,3.485264 6.327553,7.106383 6.09414,8.338552 -0.508713,2.685448 -5.847093,3.244009 -10.507357,1.099399 z"
       id="path626" />
  </g>
</svg>
