<?xml version="1.0" encoding="UTF-8" standalone="no"?>
<!-- Created with Inkscape (http://www.inkscape.org/) -->

<svg
   version="1.1"
   id="svg12"
   width="165.33333"
   height="152"
   viewBox="0 0 165.33333 152"
   xmlns="http://www.w3.org/2000/svg"
   xmlns:svg="http://www.w3.org/2000/svg">
  <defs
     id="defs16" />
  <g
     id="g18">
    <path
       style="fill:#000000;stroke-width:1.33333"
       d="m 93.444615,145.66667 c -6.536469,-8.7187 -7.040014,-8.7982 -14.77795,-2.33334 -6.4954,5.42675 -6.712726,5.46982 -10.81987,2.14406 l -3.115296,-2.52262 5.416954,-5.41696 c 2.979326,-2.97932 5.064739,-5.97634 4.634251,-6.66004 -0.430488,-0.68371 -2.882705,-2.40806 -5.449372,-3.8319 -3.224375,-1.7887 -4.797285,-3.69199 -5.089295,-6.15825 -0.569205,-4.80741 2.614008,-5.82479 8.099078,-2.58852 5.807843,3.42671 7.656883,2.54569 7.656883,-3.64831 0,-4.71384 2.601512,-9.31746 5.265312,-9.31746 2.151847,0 3.879015,3.48628 4.302004,8.68358 0.467928,5.74947 0.136131,5.62833 10.608536,3.87308 8.75163,-1.46683 8.52931,6.1158 -0.282697,9.64166 -2.874568,1.15018 -5.226488,2.50838 -5.226488,3.01823 0,0.50986 2.1,2.96241 4.666666,5.45012 4.783669,4.63651 5.898409,8.9016 3.066669,11.73333 -2.621061,2.62106 -6.030906,1.83416 -8.955385,-2.06666 z M 51.333332,83.973116 C 40.545413,83.053747 28.219534,80.98798 23.333333,79.280432 14.547634,76.210152 7.9302417,72.547359 7.2400041,70.372613 5.7973529,65.827221 8.731252,64.129037 24.999999,60.092865 c 2.75,-0.682257 8.6,-2.321772 13,-3.643365 6.900304,-2.072589 12.765351,-2.377964 42.666666,-2.221516 39.691975,0.207673 59.881715,1.225488 64.666665,3.260004 11.3072,4.807724 12.66603,5.8388 13.06469,9.913477 0.52264,5.34167 -2.22844,7.579542 -13.06469,10.627486 -21.94236,6.171794 -61.773689,8.690561 -93.999998,5.944165 z M 90.662308,72.665284 C 93.121703,73.445865 122.74937,71.349736 129,69.952929 c 5.23776,-1.170468 3.46473,-3.699714 -2.07287,-2.956966 -2.79007,0.374228 -11.33065,-0.349852 -18.97906,-1.609064 -11.504329,-1.894042 -17.329485,-2.092258 -33.726121,-1.147619 -10.900957,0.628023 -20.920933,1.731104 -22.266614,2.451291 -1.34568,0.720185 -5.636137,1.347461 -9.534348,1.393944 -13.316405,0.158789 -1.692137,2.684708 17.204096,3.7384 9.693797,0.540545 17.984259,1.341985 18.423251,1.780977 0.438992,0.438992 2.878311,0.223811 5.420708,-0.478179 2.542399,-0.70199 5.779368,-0.909184 7.193266,-0.460429 z M 72.738949,46.962693 C 72.327576,46.549627 38.548883,45.312909 22,45.105021 10.074808,44.955216 7.9999998,43.995629 7.9999998,38.630103 c 0,-2.95356 1.1554425,-4.38898 5.6666662,-7.039764 3.116667,-1.831347 6.956115,-5.082164 8.532108,-7.22404 2.864355,-3.892842 17.870903,-13.699632 20.963453,-13.699632 0.900775,0 2.285395,-0.647623 3.076933,-1.4391617 1.517907,-1.5179068 107.30893,-2.7428662 109.69188,-1.2701276 2.29796,1.4202222 3.75214,7.3127713 2.57973,10.4534373 l -1.14884,3.077481 -51.0143,-0.828733 c -40.728467,-0.661638 -51.820803,-0.474446 -55.014298,0.92841 -6.388022,2.80617 -16.666666,9.232559 -16.666666,10.420295 0,2.187485 15.508777,2.32014 95.333334,0.815437 11,-0.207352 21.29453,-0.832984 22.87673,-1.390293 4.26061,-1.500748 8.23333,2.941 7.44352,8.322329 -0.33568,2.287164 -1.31705,4.745011 -2.18083,5.46188 -1.3564,1.12571 -84.328791,2.821166 -85.400471,1.745072 z"
       id="path487" />
  </g>
</svg>
