<?xml version="1.0" encoding="UTF-8" standalone="no"?>
<!-- Created with Inkscape (http://www.inkscape.org/) -->

<svg
   version="1.1"
   id="svg22"
   width="160"
   height="157.33333"
   viewBox="0 0 160 157.33333"
   xmlns="http://www.w3.org/2000/svg"
   xmlns:svg="http://www.w3.org/2000/svg">
  <defs
     id="defs26" />
  <g
     id="g28">
    <path
       style="fill:#000000;stroke-width:1.33333"
       d="m 65.727488,150.47493 c -0.838291,-1.01008 -1.943156,-9.66461 -2.469195,-19.34148 -1.140606,-20.98225 -1.861105,-20.11064 17.040518,-20.61456 16.757477,-0.44676 17.166102,-0.10697 16.836938,14.00041 -0.138776,5.94772 0.187831,13.28226 0.725792,16.29896 1.334268,7.48214 -1.131273,9.84462 -10.290113,9.85999 -3.797619,0.007 -9.924716,0.37455 -13.615772,0.81816 -4.858331,0.58391 -7.129847,0.30191 -8.228168,-1.02148 z M 10.867601,99.190666 C 6.2892097,95.983837 5.5032225,92.318846 7.6394807,84.138221 10.156434,74.499753 16.404501,65.585352 22.398456,63.080917 c 3.859287,-1.612513 14.759503,-2.088328 57.920801,-2.528356 58.121913,-0.59255 57.434653,-0.669604 64.535213,7.235346 3.26729,3.637421 9.8122,16.415442 9.8122,19.15694 0,0.84287 -0.70262,3.475534 -1.56136,5.850364 -2.00116,5.534096 -6.26764,7.590479 -11.76926,5.67261 -4.2924,-1.49634 -7.3311,-6.286839 -10.62926,-16.756963 -0.97411,-3.092361 -2.24752,-5.328038 -2.82979,-4.968173 -0.58228,0.359864 -3.55637,5.178996 -6.6091,10.70918 -3.78674,6.85988 -6.67064,10.483556 -9.07582,11.40395 C 110.2531,99.597805 102.06667,100.03558 94,99.828654 85.933333,99.621726 72.272773,99.64033 63.643201,99.869994 45.914847,100.34181 45.048744,100.00103 41.208847,91.042915 38.284724,84.221214 33.363465,77.332638 31.415923,77.33518 c -0.778758,0.001 -2.500594,3.692677 -3.826302,8.203692 -1.577112,5.366467 -3.815289,9.514225 -6.47434,11.998151 -4.687122,4.378427 -6.044734,4.597497 -10.24768,1.653643 z M 19.365224,81.23285 c 0.483043,-1.52193 0.490852,-3.154554 0.01735,-3.628052 -0.999282,-0.999281 -3.332187,2.28171 -3.36216,4.728534 -0.03311,2.702254 2.391001,1.904696 3.344806,-1.100482 z M 142.40237,79.285717 c -0.8234,-1.807145 -2.05077,-3.285719 -2.7275,-3.285719 -0.67674,0 -0.88082,0.75 -0.45351,1.666667 0.42731,0.916667 1.14552,2.709919 1.59604,3.985004 0.45051,1.275085 1.32827,2.003659 1.95057,1.619052 0.62231,-0.384607 0.45779,-2.177859 -0.3656,-3.985004 z M 5.6,42.399999 C 3.1133076,39.913307 3.7017781,34.291382 7.1221064,27.858629 8.8392648,24.629098 11.006135,19.589734 11.937373,16.660044 14.316429,9.1754939 16.991701,5.3333332 19.824087,5.3333332 c 2.947609,0 6.84258,4.0443394 6.84258,7.1049878 0,2.392525 2.662006,2.980156 4.733333,1.044872 3.593145,-3.357153 7.279616,-2.966931 11.058653,1.170585 l 3.802692,4.163415 2.233398,-3.408597 C 50.187709,12.824803 51.860057,12 55.405917,12 c 2.928035,0 4.964852,0.748108 5.445248,2 0.982032,2.559134 4.338996,2.591198 5.313856,0.05076 1.465967,-3.820247 5.885964,-3.834152 9.855594,-0.03101 l 3.770342,3.612218 3.022603,-2.815983 c 3.760096,-3.503063 5.848341,-3.53768 10.132241,-0.167964 l 3.366412,2.648021 2.607334,-3.314688 C 102.07464,9.9703025 104.46629,9.7996239 108,13.333333 c 3.1776,3.177596 5.73897,3.391044 8,0.666667 2.13815,-2.576319 5.1891,-2.543831 8.09525,0.0862 2.51637,2.277282 1.91907,2.673274 8.66026,-5.7414783 2.91816,-3.6426229 3.87816,-4.0994193 6.10768,-2.9062146 1.45492,0.7786501 3.7851,4.0747524 5.17818,7.3246719 1.39308,3.249919 4.05367,8.146997 5.91242,10.882394 3.60653,5.307488 4.23046,9.606448 1.9993,13.775412 -2.07886,3.884393 -5.0594,3.116225 -8.13506,-2.096638 -3.28423,-5.566357 -7.64648,-7.038524 -12.13725,-4.096061 -2.63142,1.724168 -4.03834,1.841677 -7.51972,0.628063 -3.52742,-1.229666 -4.70193,-1.113508 -6.66018,0.658686 -3.30415,2.990219 -8.09409,2.68547 -11.74828,-0.747457 l -3.08593,-2.899083 -3.422794,3.215546 -3.422791,3.215544 -4.910542,-2.67402 c -4.695135,-2.556723 -5.012898,-2.570604 -7.243876,-0.31646 -3.09491,3.127045 -5.65539,2.973746 -8.923603,-0.53427 -2.802417,-3.008041 -4.710723,-2.691197 -10.998349,1.826102 -1.832754,1.316728 -2.751612,1.171125 -4.90445,-0.777166 -2.658013,-2.405469 -8.173598,-2.000984 -8.173598,0.599412 0,2.313654 -7.57021,1.261704 -9.965227,-1.38476 -2.366935,-2.615433 -2.394809,-2.615433 -5.719795,0 -4.01886,3.161238 -7.962561,3.360476 -11.058504,0.558687 -2.089925,-1.891357 -2.529493,-1.761067 -5.104988,1.513144 C 17.268169,36.080741 16,38.49093 16,39.466232 c 0,1.915863 -4.029845,4.533767 -6.9790113,4.533767 -1.0015438,0 -2.5409887,-0.72 -3.4209887,-1.6 z"
       id="path348" />
  </g>
</svg>
