<?xml version="1.0" encoding="UTF-8" standalone="no"?>
<!-- Created with Inkscape (http://www.inkscape.org/) -->

<svg
   version="1.1"
   id="svg32"
   width="164"
   height="156"
   viewBox="0 0 164 156"
   xmlns="http://www.w3.org/2000/svg"
   xmlns:svg="http://www.w3.org/2000/svg">
  <defs
     id="defs36" />
  <g
     id="g38">
    <path
       style="fill:#000000;stroke-width:1.33333"
       d="m 8.0452792,146.17861 c -3.4312701,-3.43126 -1.4200909,-8.35241 6.1099248,-14.95035 4.118696,-3.60888 8.468696,-7.11171 9.666667,-7.78407 1.19797,-0.67236 4.688484,-3.26215 7.756696,-5.75509 7.297478,-5.92924 25.000929,-9.76457 41.754766,-9.04587 6.233334,0.26739 26.740477,0.53205 45.571427,0.58813 37.49348,0.11167 39.03768,0.43276 38.16763,7.93627 l -0.40572,3.49904 -53.40012,0.16125 c -58.228123,0.17583 -56.043927,-0.0902 -67.068495,8.16719 -7.998208,5.99061 -10.481699,5.78973 76.315265,6.1727 43.5546,0.19219 43.85959,0.21295 45.78859,3.11819 1.77865,2.6788 1.65233,3.21431 -1.50235,6.36899 l -3.44428,3.44426 -71.965691,-0.27101 C 33.972003,147.64967 8.9536352,147.08697 8.0452792,146.17861 Z M 121.81584,52.042783 C 118.9838,50.76122 114.71667,47.262501 112.33333,44.267852 108.64765,39.636801 108,37.743389 108,31.599237 c 0,-6.50641 0.51987,-7.814405 5.23492,-13.170982 8.29396,-9.4224303 18.73845,-10.8753437 29.14803,-4.054726 9.5864,6.281247 12.77022,21.907402 6.2148,30.502019 -6.28575,8.241037 -17.67408,11.288724 -26.78191,7.167235 z M 21.815844,50.709449 C 18.983796,49.427887 14.716667,45.929168 12.333333,42.934519 8.6476465,38.303468 8,36.410056 8,30.265904 8,23.759493 8.5198741,22.451499 13.234921,17.094921 21.528876,7.6724913 31.973373,6.219578 42.382953,13.040197 c 9.586392,6.281246 12.770223,21.9074 6.21479,30.502018 -6.285747,8.241037 -17.674076,11.288724 -26.781899,7.167234 z M 72.666667,49.415868 C 69.733333,48.098197 66.359189,45.89058 65.168569,44.510052 59.427347,37.853081 58.613152,23.008015 63.614832,16.181019 67.167833,11.33138 74.248492,8.0045391 81.022433,8.002072 c 5.035454,-0.00184 6.37589,0.7147009 11.666667,6.236463 5.863167,6.119138 5.977567,6.409152 5.977567,15.153521 0,10.148661 -2.061444,13.842372 -10.806262,19.362733 -6.017592,3.798739 -8.015337,3.885662 -15.193738,0.661079 z"
       id="path209" />
  </g>
</svg>
