<?xml version="1.0" encoding="UTF-8" standalone="no"?>
<!-- Created with Inkscape (http://www.inkscape.org/) -->

<svg
   version="1.1"
   id="svg42"
   width="169.33333"
   height="152"
   viewBox="0 0 169.33333 152"
   xmlns="http://www.w3.org/2000/svg"
   xmlns:svg="http://www.w3.org/2000/svg">
  <defs
     id="defs46" />
  <g
     id="g48">
    <path
       style="fill:#000000;stroke-width:1.33333"
       d="m 80.666665,145.44252 -8,-0.77585 v -20.17699 c 0,-17.96472 -0.278492,-20.48651 -2.539984,-23 -3.433844,-3.816477 -9.040172,-3.565092 -14.024382,0.62885 l -4.1023,3.45185 v 18.28148 c 0,12.44114 -0.511147,18.79262 -1.6,19.88147 -2.33904,2.33904 -11.084705,1.98812 -13.173384,-0.52858 -1.205628,-1.4527 -1.849174,-7.06242 -2.02672,-17.66667 -0.554056,-33.092363 5.384622,-42.586349 27.048374,-43.241432 10.337098,-0.31258 14.446349,1.138905 21.418396,7.565487 l 4.333333,3.99431 4.419787,-4.283826 c 11.039865,-10.700255 35.492065,-9.013539 43.439395,2.996454 2.96756,4.484575 3.22766,6.32818 3.69115,26.163857 0.49595,21.22512 0.48097,21.35698 -2.79859,24.63654 -3.5486,3.5486 -9.7858,4.39648 -12.48508,1.6972 -1.09024,-1.09026 -1.6,-7.4771 -1.6,-20.04691 0,-20.16328 -1.12631,-24.00942 -7.49941,-25.608969 -4.48523,-1.125722 -11.94405,3.523609 -13.11082,8.172409 -0.48829,1.94549 -0.46845,10.34698 0.0441,18.66997 1.30747,21.23182 1.14316,21.37892 -21.433851,19.18935 z M 9.6666665,70.512583 C 7.2486736,68.027975 7.4558796,34.830031 9.9478199,25.466973 13.541201,11.965431 23.628329,5.7406056 39.995317,6.9244867 c 7.333351,0.5304468 8.587725,1.0925053 13.75411,6.1629293 6.373498,6.255116 8.728077,6.804896 12.28953,2.869536 C 70.518071,11.007586 76.575878,8.2124525 84.844709,7.2797868 95.146123,6.11786 101.2794,8.0409192 107.16347,14.277723 l 4.45736,4.724562 5.18958,-4.64662 c 2.85427,-2.555642 7.50683,-5.3998782 10.33901,-6.3205255 10.52111,-3.4200646 26.28684,0.5834872 31.7254,8.0563535 2.83362,3.893543 3.54627,9.751366 3.96307,32.575174 C 163.21581,69.361587 162.31536,72 154.8746,72 c -2.76738,0 -6.12127,-0.796792 -7.4531,-1.770648 -2.8593,-2.090772 -2.98309,-5.018788 -0.76752,-18.154203 2.01668,-11.95622 0.9841,-20.869256 -2.89624,-24.999686 -3.36578,-3.582719 -6.38108,-3.855843 -11.77494,-1.066568 -6.07772,3.142912 -7.99933,11.531216 -6.39195,27.902428 1.02817,10.471862 0.93044,13.462737 -0.48492,14.840813 -1.11523,1.085844 -6.33072,1.882551 -14.06355,2.148313 -15.365309,0.528079 -16.349703,-0.221434 -15.192017,-11.567116 0.448966,-4.4 0.516302,-13.069361 0.149635,-19.265246 C 95.346002,29.016951 95.250227,28.754431 90.960905,26.255852 87.149394,24.035607 86.059312,23.928053 82.463564,25.417461 75.753195,28.196987 74.347108,33.563329 75.298109,52.764491 76.274341,72.475065 76.68177,72 58.801232,72 48.650071,72 46.562428,71.62992 45.498411,69.641787 c -0.795565,-1.486528 -0.780271,-8.469292 0.04137,-18.890803 0.7169,-9.092925 0.955032,-17.920816 0.529183,-19.617536 -0.425849,-1.69672 -2.56558,-4.011267 -4.754956,-5.143437 -3.58936,-1.85613 -4.372672,-1.855787 -7.968126,0.0035 -7.569323,3.91425 -8.508945,6.96953 -7.520783,24.454606 0.6797,12.026989 0.474873,16.210348 -0.884738,18.069726 -2.238706,3.061614 -12.882613,4.451707 -15.2737029,1.994744 z"
       id="path70" />
  </g>
</svg>
