<?xml version="1.0" encoding="UTF-8" standalone="no"?>
<!-- Created with Inkscape (http://www.inkscape.org/) -->

<svg
   version="1.1"
   id="svg2"
   width="101.33333"
   height="158.66667"
   viewBox="0 0 101.33333 158.66667"
   xmlns="http://www.w3.org/2000/svg"
   xmlns:svg="http://www.w3.org/2000/svg">
  <defs
     id="defs6" />
  <g
     id="g8">
    <path
       style="fill:#000000;stroke-width:1.33333"
       d="m 37.042247,153.44506 c -22.707953,-0.96635 -23.727617,-1.58451 -21.04679,-12.75946 2.193476,-9.14343 11.282821,-20.50263 19.864835,-24.82563 7.174308,-3.61389 23.300354,-5.00327 29.777981,-2.56559 8.915573,3.35513 11.154218,4.74993 16.446122,10.24689 6.436191,6.68559 8.757142,13.10487 7.213235,19.95036 -1.681789,7.45683 -3.722226,8.71231 -14.802927,9.10817 -5.405421,0.19312 -11.928038,0.63744 -14.494705,0.98739 -2.566667,0.34993 -12.897654,0.28597 -22.957751,-0.14213 z M 82.340856,47.666668 C 80.561639,46.299397 80.099513,42.696169 79.768317,27.608373 79.329016,7.5958743 79.624817,6.7287016 86.904758,6.6870839 c 5.794334,-0.033125 7.730147,3.118521 8.030854,13.0748221 0.730838,24.197799 -0.650624,29.571428 -7.602282,29.571428 -1.553009,0 -3.799622,-0.75 -4.992474,-1.666666 z M 8.7117592,45.854617 C 5.7093514,42.85221 6.1538941,41.068388 10.870719,37.191331 15.937026,33.027014 15.417721,30.473219 8.6984544,26.508754 5.3700893,24.544971 3.9999999,22.790786 3.9999999,20.493119 c 0,-4.203815 3.1631453,-5.34814 7.2967161,-2.63972 C 13.098586,19.03403 15.793954,20 17.286422,20 c 2.319761,0 2.713577,-0.854942 2.713577,-5.89095 0,-7.51006 1.023083,-10.1090499 3.979392,-10.1090499 3.749773,0 5.799393,3.6538569 5.562519,9.9163019 -0.23242,6.144685 2.273026,8.853156 5.07095,5.481864 3.143231,-3.787362 12.053805,-2.969023 12.053805,1.10701 0,1.838687 -5.003769,6.616178 -9.983846,9.532359 -2.112855,1.237224 -1.870297,1.841655 2.488048,6.2 5.822266,5.822267 6.314528,10.005517 1.324762,11.257869 -2.887093,0.724613 -4.311042,0.02451 -8.083971,-3.974598 -5.393174,-5.716481 -7.250823,-5.9775 -11.3577,-1.595866 -4.501037,4.802161 -9.786771,6.485105 -12.3421988,3.929677 z"
       id="path1240" />
  </g>
</svg>
