<?xml version="1.0" encoding="UTF-8" standalone="no"?>
<!-- Created with Inkscape (http://www.inkscape.org/) -->

<svg
   version="1.1"
   id="svg12"
   width="160"
   height="157.33333"
   viewBox="0 0 160 157.33333"
   xmlns="http://www.w3.org/2000/svg"
   xmlns:svg="http://www.w3.org/2000/svg">
  <defs
     id="defs16" />
  <g
     id="g18">
    <path
       style="fill:#000000;stroke-width:1.33333"
       d="m 98.333333,147.8932 c -2.78347,-1.62123 -3.002709,-7.28371 -0.843973,-21.79802 1.801933,-12.11535 0.815237,-18.33604 -3.61034,-22.76162 -3.812215,-3.812211 -4.003119,-3.848786 -9.708201,-1.85998 C 77.662196,103.74249 76.732375,106.76115 76,128 l -0.666667,19.33333 -13.497753,0.34015 c -17.118847,0.4314 -17.668628,-0.0371 -15.421795,-13.13955 1.979846,-11.54557 2.013808,-17.57301 0.109747,-19.47707 -0.812056,-0.81205 -1.884275,-3.48205 -2.382705,-5.93333 -0.725796,-3.56945 -1.825595,-4.75966 -5.523534,-5.97759 -5.693978,-1.87533 -8.964392,-0.3907 -10.043261,4.55921 -0.434933,1.9955 -1.428073,5.3102 -2.206977,7.366 -0.865203,2.28358 -1.082054,8.0848 -0.557367,14.91078 0.488281,6.35237 0.297393,12.64963 -0.442432,14.59551 -1.119007,2.94321 -2.09952,3.4197 -7.000921,3.40214 -10.0387606,-0.036 -9.6033781,1.38702 -8.5980375,-28.10124 0.6162245,-18.07485 1.8650885,-22.393066 8.7258015,-30.171297 4.643217,-5.264178 9.053749,-7.040378 17.48216,-7.040378 8.238213,0 16.759046,3.712355 22.622652,9.856232 l 4.598909,4.818732 4.067757,-3.936574 c 8.655526,-8.376389 23.385159,-10.599835 34.769643,-5.248497 10.36718,4.873152 11.29811,7.299683 11.29811,29.449262 0,12.45814 0.52725,19.72143 1.50238,20.69655 2.37427,2.37427 0.16832,8.30203 -3.62642,9.74479 -4.33247,1.6472 -9.8978,1.58065 -12.875957,-0.15396 z M 21.023139,50.942172 C 17.552532,49.690644 12.782117,46.734712 10.422217,44.373436 6.6732868,40.62232 6.0679789,39.022877 5.6285264,31.70677 4.8067515,18.025666 9.6137716,11.152227 24,5.437855 25.1,5.0009226 52.217461,4.6494218 84.261024,4.6567422 l 58.261026,0.013307 4.40564,4.2750606 c 5.97464,5.7975592 9.95002,18.8643432 6.40564,21.0548892 C 152.6,30.453225 152,32.838217 152,35.299983 c 0,3.58579 -0.99437,5.256227 -5,8.399467 -2.75,2.157941 -7.1,4.591097 -9.66667,5.407012 -2.91597,0.926957 -23.17396,1.709874 -53.999997,2.086957 C 56.2,51.52533 32.5,52.11657 30.666667,52.507286 28.833333,52.898003 24.493745,52.193702 21.023139,50.942172 Z m 65.643528,-9.974308 c 18.700003,0.11952 35.050003,-0.08979 36.333333,-0.46513 2.78084,-0.813319 2.92117,-2.948755 0.41134,-6.259569 -1.68182,-2.218559 -5.08899,-2.473352 -40.290929,-3.013012 -21.149559,-0.324231 -40.011488,-0.256246 -41.915398,0.15108 -2.492145,0.533173 -3.852124,2.012864 -4.855845,5.283285 -1.729672,5.635786 -0.813172,6.142417 8.984165,4.96634 4.033334,-0.484163 22.633334,-0.78251 41.333334,-0.662994 z M 26.107544,35.281599 c 1.800528,-4.309268 1.749923,-5.219252 -0.583615,-10.4946 -3.266745,-7.385019 -4.89671,-8.317101 -7.526294,-4.303847 -3.36069,5.129058 -4.011462,12.27969 -1.470498,16.157691 3.21499,4.906693 7.198474,4.341527 9.580407,-1.359244 z m 114.285046,1.48568 c 3.46278,-2.626244 3.80238,-17.157449 0.47756,-20.43469 -2.25423,-2.221956 -2.45746,-2.209835 -4.28498,0.255584 -1.05517,1.423495 -1.9185,3.553495 -1.9185,4.733333 0,1.179838 -0.60788,2.753035 -1.35084,3.495993 -0.91222,0.912223 -0.87409,2.838756 0.11744,5.933334 0.80755,2.520374 1.69659,5.3325 1.97566,6.249166 0.64386,2.114986 1.96977,2.053071 4.98366,-0.23272 z M 125.00212,15.224346 c -0.78103,-0.781034 -94.336323,-1.538225 -94.335777,-0.763506 1.78e-4,0.253461 1.148724,2.073618 2.552325,4.044793 l 2.552001,3.583955 13.781332,-1.035938 C 57.131733,20.483885 66.333333,20.534109 70,21.165258 c 3.666667,0.631151 16.688353,0.93865 28.937083,0.68333 16.603347,-0.346088 22.528297,-0.04696 23.283837,1.175528 0.65727,1.06349 1.45232,0.109373 2.26233,-2.71499 0.68691,-2.395101 0.9204,-4.683253 0.51887,-5.08478 z"
       id="path1101" />
  </g>
</svg>
