<?xml version="1.0" encoding="UTF-8" standalone="no"?>
<!-- Created with Inkscape (http://www.inkscape.org/) -->

<svg
   version="1.1"
   id="svg22"
   width="168"
   height="152"
   viewBox="0 0 168 152"
   xmlns="http://www.w3.org/2000/svg"
   xmlns:svg="http://www.w3.org/2000/svg">
  <defs
     id="defs26" />
  <g
     id="g28">
    <path
       style="fill:#000000;stroke-width:1.33333"
       d="m 7,145.16668 c -1.1953795,-1.21929 -1.6666667,-7.83413 -1.6666667,-23.39279 0,-19.57449 0.2742735,-22.184987 2.8087522,-26.733335 1.5448137,-2.772306 3.4948135,-5.888064 4.3333335,-6.92391 2.922929,-3.610769 12.287936,-6.677528 21.134476,-6.920905 9.505253,-0.2615 15.219281,2.167719 21.804838,9.269947 l 3.195135,3.445809 4.361732,-4.047801 c 7.060893,-6.552695 14.268521,-9.009966 24.110592,-8.219938 9.46784,0.759987 13.903038,3.070663 18.349478,9.55983 l 3.00745,4.389076 3.97836,-4.53111 c 4.89254,-5.572285 10.13903,-8.394886 15.60396,-8.394886 2.28463,0 5.40103,-0.667456 6.92532,-1.483236 5.92116,-3.168908 19.68272,4.554512 24.50033,13.750356 1.40432,2.680564 1.88624,9.218893 1.88624,25.591063 0,21.21298 -0.1048,22.064 -2.96334,24.06622 -3.57227,2.5021 -9.04127,2.68705 -12.09282,0.40893 -1.87624,-1.40071 -2.28925,-4.74021 -2.58817,-20.92735 l -0.35567,-19.26068 -4.12736,-2.40843 c -4.9941,-2.914192 -11.36086,-1.34556 -13.50328,3.32692 -2.12919,4.64363 -4.48627,15.66835 -3.64196,17.03447 1.58528,2.56504 2.08465,17.13874 0.67737,19.76827 -1.34278,2.509 -2.48634,2.671 -15.75964,2.23267 -7.871484,-0.25996 -14.437956,-0.53862 -14.592153,-0.61926 -0.154199,-0.0807 0.02941,-8.99661 0.40803,-19.81328 0.761615,-21.75858 0.329374,-23.28894 -7.034662,-24.906357 -3.472342,-0.762653 -4.919858,-0.271974 -8.333904,2.825037 L 73.294093,106 73.013161,123.87198 c -0.202598,12.88861 -0.781357,18.37241 -2.075618,19.66667 -2.100314,2.10031 -7.74595,2.38939 -8.939771,0.45775 -0.512047,-0.82852 -1.682856,-0.88013 -3.078689,-0.13575 -2.356035,1.25647 -6.859103,1.87038 -11.884843,1.62027 -3.717292,-0.18499 -7.141593,-6.36332 -5.624237,-10.14759 1.783124,-4.44709 1.465498,-27.89288 -0.410003,-30.2647 -0.916667,-1.15925 -3.9624,-2.83555 -6.768296,-3.72512 -4.667407,-1.479733 -5.376692,-1.358987 -8.333333,1.41863 -3.10192,2.91411 -3.231704,3.73933 -3.231704,20.54877 0,11.94242 -0.53012,18.21581 -1.666667,19.72314 -2.213847,2.9361 -11.783182,4.39379 -14,2.13263 z M 7,70.500011 C 5.8046205,69.280716 5.3333333,62.665883 5.3333333,47.107221 c 0,-19.574488 0.2742735,-22.184985 2.8087522,-26.733333 C 9.6868992,17.601583 11.636899,14.485824 12.475419,13.449979 15.398348,9.8392097 24.763355,6.7724512 33.609895,6.5290729 43.115148,6.2675728 48.829176,8.6967924 55.414733,15.79902 l 3.195135,3.445809 4.361732,-4.047801 C 70.032493,8.6443339 77.240121,6.1870631 87.082192,6.97709 c 9.46784,0.7599872 13.903038,3.070663 18.349478,9.55983 l 3.00745,4.389076 3.97836,-4.531109 C 117.31002,10.822601 122.55651,8 128.02144,8 c 2.28463,0 5.40103,-0.6674559 6.92532,-1.4832353 5.92116,-3.168909 19.68272,4.5545113 24.50033,13.7503553 1.40432,2.680564 1.88624,9.218897 1.88624,25.591061 0,21.21298 -0.1048,22.064006 -2.96334,24.066214 -3.57227,2.502117 -9.04127,2.68706 -12.09282,0.408938 -1.87624,-1.400706 -2.28925,-4.740212 -2.58817,-20.927348 l -0.35567,-19.26068 -4.12736,-2.408428 c -4.9941,-2.914196 -11.36086,-1.345565 -13.50328,3.326916 -2.12919,4.643628 -4.48627,15.668348 -3.64196,17.034474 1.58528,2.565036 2.08465,17.138726 0.67737,19.768264 -1.34278,2.509 -2.48634,2.671009 -15.75964,2.232666 -7.871484,-0.25995 -14.437956,-0.538613 -14.592153,-0.61925 -0.154199,-0.08064 0.02942,-8.996614 0.40803,-19.81328 0.761615,-21.758588 0.329374,-23.288947 -7.034662,-24.90636 -3.472342,-0.762654 -4.919858,-0.271975 -8.333904,2.825032 l -4.131678,3.747994 -0.280932,17.871982 c -0.202598,12.888606 -0.781357,18.372405 -2.075618,19.666666 -2.100314,2.100314 -7.74595,2.38939 -8.939771,0.457747 C 61.485725,68.501219 60.314916,68.449599 58.919083,69.193989 56.563048,70.450451 52.05998,71.064355 47.03424,70.814255 43.316948,70.629268 39.892647,64.450936 41.410003,60.666667 43.193127,56.219572 42.875501,32.773779 41,30.401961 c -0.916667,-1.159245 -3.9624,-2.835546 -6.768296,-3.725116 -4.667407,-1.479734 -5.376692,-1.358989 -8.333333,1.418631 -3.10192,2.914103 -3.231704,3.739331 -3.231704,20.548769 0,11.942426 -0.53012,18.21581 -1.666667,19.723143 -2.213847,2.936092 -11.783182,4.393791 -14,2.132623 z"
       id="path962" />
  </g>
</svg>
