<?xml version="1.0" encoding="UTF-8" standalone="no"?>
<!-- Created with Inkscape (http://www.inkscape.org/) -->

<svg
   version="1.1"
   id="svg32"
   width="50.666668"
   height="158.66667"
   viewBox="0 0 50.666668 158.66667"
   xmlns="http://www.w3.org/2000/svg"
   xmlns:svg="http://www.w3.org/2000/svg">
  <defs
     id="defs36" />
  <g
     id="g38">
    <path
       style="fill:#000000;stroke-width:1.33333"
       d="m 21.732603,153.06876 c -4.799917,-2.3188 -7.065936,-11.57529 -7.065936,-28.86373 0,-8.42596 0.565047,-18.96907 1.25566,-23.42914 0.690613,-4.460073 1.968979,-17.409222 2.840813,-28.775888 0.871835,-11.366667 2.074603,-21.971074 2.672819,-23.56535 0.825887,-2.201034 0.142167,-4.203903 -2.840815,-8.321788 -2.160662,-2.982709 -3.928477,-6.385958 -3.928477,-7.562775 0,-5.72868 -4.332592,-16.461318 -7.4768305,-18.521502 C 4.9639265,12.570115 3.976142,10.851238 4.2516412,8.9157361 4.6564588,6.0717157 5.1658269,5.9957412 24.960989,5.826844 44.235238,5.6623915 45.298315,5.7891824 46.11088,8.3493484 c 0.620992,1.9565726 -0.255073,3.7336466 -3.195256,6.4814856 -3.255568,3.042593 -4.233964,5.295852 -4.98369,11.477496 -1.023588,8.439691 -2.239205,11.531721 -6.277981,15.9686 -2.166994,2.380596 -2.510718,3.998978 -1.797123,8.461551 1.861775,11.642902 4.792607,56.041139 4.801026,72.729229 0.0088,17.40541 -1.221866,24.43513 -5.053311,28.86563 -2.278476,2.63472 -3.671107,2.76482 -7.871942,0.73542 z"
       id="path805" />
  </g>
</svg>
