<?xml version="1.0" encoding="UTF-8" standalone="no"?>
<!-- Created with Inkscape (http://www.inkscape.org/) -->

<svg
   version="1.1"
   id="svg42"
   width="158.66667"
   height="152"
   viewBox="0 0 158.66667 152"
   xmlns="http://www.w3.org/2000/svg"
   xmlns:svg="http://www.w3.org/2000/svg">
  <defs
     id="defs46" />
  <g
     id="g48">
    <path
       style="fill:#000000;stroke-width:1.33333"
       d="m 58.333335,145.5854 c -4.115282,-0.48171 -4.004903,0.44473 -3.683777,-30.91873 0.166616,-16.272833 2.479207,-22.750546 9.919531,-27.785231 3.881791,-2.626714 6.460946,-3.152436 16.353115,-3.333334 9.667435,-0.176789 12.561429,0.265176 16.363951,2.499075 8.024955,4.714483 9.000955,8.004076 9.757815,32.88857 0.76269,25.07608 0.26464,26.93092 -7.231227,26.93092 -9.333612,0 -9.259649,0.1702 -8.286016,-19.06713 0.646067,-12.7652 0.426043,-18.36128 -0.842313,-21.42337 -3.326981,-8.032038 -10.134239,-8.859677 -16.934938,-2.05898 l -4.650525,4.65053 0.386898,17.0404 c 0.212794,9.37223 -0.0256,17.70784 -0.529772,18.5236 -1.097281,1.77544 -5.586049,2.64325 -10.622742,2.05368 z M 29.138069,49.356892 C 13.675211,48.605032 11.0855,47.449055 7.9600731,39.903608 5.6994681,34.446024 8.3070052,28.717028 15.096679,24.223835 l 5.339245,-3.533346 53.352852,0.355254 c 36.260124,0.24144 53.917514,0.82388 55.115374,1.818014 2.1966,1.823022 2.27427,5.424491 0.16252,7.536243 -1.18999,1.189992 -14.98594,1.6 -53.836742,1.6 -43.674042,0 -52.496177,0.3126 -53.819424,1.907015 -1.263869,1.522869 -1.045829,2.19433 1.082419,3.333333 3.617747,1.93616 104.903167,1.962929 110.450287,0.02919 7.37869,-2.572226 9.82854,-12.552834 4.26553,-17.377611 C 133.67831,16.830009 123.18398,14.66098 112,14.681639 107.23334,14.690444 82.933335,15.161703 58.000001,15.72888 31.161502,16.339395 11.98671,16.266469 11,15.550129 8.5146154,13.745767 8.9624614,8.2973416 11.666667,7.4395639 12.95,7.0324888 41.900001,6.5420561 76.000002,6.3497136 137.46058,6.0030427 138.04718,6.0252532 143.42254,8.9025493 c 7.08226,3.7909697 8.15069,5.2400987 9.23497,12.5255867 1.17019,7.862781 -1.21004,16.64224 -5.61999,20.729239 -7.21476,6.68641 -13.41198,7.475928 -60.370852,7.691142 -23.833333,0.109227 -49.721203,-0.112 -57.528599,-0.491625 z"
       id="path666" />
  </g>
</svg>
