<?xml version="1.0" encoding="UTF-8" standalone="no"?>
<!-- Created with Inkscape (http://www.inkscape.org/) -->

<svg
   version="1.1"
   id="svg52"
   width="161.33333"
   height="153.33333"
   viewBox="0 0 161.33333 153.33333"
   xmlns="http://www.w3.org/2000/svg"
   xmlns:svg="http://www.w3.org/2000/svg">
  <defs
     id="defs56" />
  <g
     id="g58">
    <path
       style="fill:#000000;stroke-width:1.33333"
       d="m 145.46593,145.16849 c -1.52936,-1.64156 -3.5414,-5.67821 -4.47123,-8.97033 -2.08569,-7.38457 -4.19462,-8.27959 -6.95073,-2.94987 -2.45669,4.75072 -4.67436,5.14176 -8.04397,1.41837 -2.83609,-3.13384 -5.41953,-3.43585 -6.4487,-0.75388 -0.4037,1.05203 -1.92442,2.54987 -3.37938,3.32854 -2.13744,1.14392 -3.40492,0.77665 -6.60112,-1.91278 -4.78423,-4.02566 -6.3731,-4.16991 -7.29047,-0.66188 -1.00896,3.8583 -6.271389,3.38834 -9.661108,-0.86277 l -2.814281,-3.52945 -3.404464,3.67156 c -4.016643,4.33177 -7.362047,3.84621 -10.632123,-1.54315 l -2.194894,-3.61738 -3.750311,4.27393 c -4.515916,5.14644 -5.349092,5.23622 -8.72803,0.9406 -1.4421,-1.83334 -3.2421,-3.33334 -4,-3.33334 -0.7579,0 -2.5579,1.5 -4,3.33334 -1.4421,1.83333 -3.791316,3.33333 -5.220479,3.33333 -1.477816,0 -3.253486,-1.43759 -4.117246,-3.33333 -2.004778,-4.40001 -3.732195,-4.20481 -8.23876,0.93096 l -3.741857,4.2643 -4.298652,-5.12018 -4.298653,-5.12019 -2.855848,6.87193 c -3.100604,7.4609 -5.830352,9.46236 -9.149013,6.70811 -3.1280002,-2.596 -1.7464703,-10.63784 3.924745,-22.84578 4.416824,-9.50772 5.027902,-10.2241 7.84528,-9.19709 1.68045,0.61257 4.317921,3.33729 5.861047,6.05494 l 2.805684,4.94118 4.206075,-3.53918 4.206075,-3.53917 4.134766,4.42628 c 4.131364,4.42264 4.136613,4.424 6.376781,1.65751 1.233107,-1.52282 3.524838,-3.45531 5.092735,-4.29443 2.434434,-1.30287 3.233216,-1.0394 5.470021,1.80424 3.161055,4.01863 3.512967,4.05245 6.902179,0.66323 3.429389,-3.42939 6.407346,-3.37512 10.197813,0.18584 2.872322,2.69841 3.216565,2.73442 6.372357,0.66667 4.324384,-2.83345 5.615961,-2.75738 9.859678,0.58073 l 3.517128,2.76658 2.512535,-3.09991 c 2.92947,-3.6143 7.01994,-3.43793 10.68365,0.46066 2.46549,2.62356 2.48959,2.62298 5.41927,-0.12932 3.43739,-3.22926 8.52126,-3.63323 9.62207,-0.76458 1.23431,3.21656 3.58856,2.31501 6.98737,-2.67578 1.74453,-2.56165 4.2605,-4.65755 5.59106,-4.65755 3.173,0 5.0738,2.88301 11.9824,18.17412 4.41988,9.78269 5.4328,13.24878 4.36824,14.94757 -2.11131,3.36921 -6.53236,3.39067 -9.64764,0.0468 z M 130.66666,93.231482 C 121.5,92.657165 110.44668,91.494614 106.10374,90.648035 98.172961,89.10207 88.972261,89.493438 68.999103,92.226346 c -5.683827,0.777713 -13.783827,0.994944 -18,0.482737 C 43.8803,91.844246 42.835226,91.246586 36.352358,84.332876 29.829175,77.37617 29.147431,76.989994 25.956287,78.443977 21.495714,80.47635 8.9807519,80.447417 6.9333332,78.399998 c -0.88,-0.88 -1.6,-2.956344 -1.6,-4.614097 0,-3.01442 0.4618145,-3.592908 6.6311968,-8.306512 l 3.297863,-2.519672 -4.297863,-4.014805 c -2.363825,-2.208144 -4.2978635,-4.97408 -4.2978635,-6.146526 0,-2.876931 6.3642235,-2.818727 9.5756505,0.08757 2.299831,2.08132 2.650545,2.033044 5.641168,-0.7765 3.59491,-3.377244 9.186998,-3.346645 9.834574,0.05381 0.251002,1.318016 -1.436844,3.2541 -4.319712,4.955033 -5.654683,3.336346 -6.32209,7.526772 -1.39571,8.763215 1.834784,0.460501 7.499209,4.764665 12.587613,9.564808 10.817074,10.204279 12.755868,10.602718 25.409749,5.221928 7.849932,-3.338015 10.182741,-3.686754 24.754283,-3.700595 12.507148,-0.01187 17.996978,0.588213 24.666668,2.696308 19.87243,6.281098 23.96474,7.165348 31.46487,6.798802 C 153.13348,86.059695 156,86.980197 156,90.031777 c 0,2.07007 -4.16571,4.745464 -6.91235,4.439405 -0.96488,-0.107519 -9.25432,-0.665383 -18.42099,-1.2397 z M 63.333332,41.259707 c -2.2,-0.638032 -8.8,-2.340503 -14.666666,-3.783269 C 42.799999,36.033673 35.449511,34.087166 32.332247,33.150869 27.41419,31.673686 25.729411,31.766354 19.595178,33.851443 10.874044,36.815849 6.5537824,36.313862 4.4570155,32.092486 3.1708505,29.503077 3.2174742,28.135762 4.6889642,25.290214 c 1.4714677,-2.845505 3.3548876,-3.86532 9.3692818,-5.073182 5.18031,-1.040355 8.315548,-2.513475 10.054502,-4.724196 1.458323,-1.853959 6.681557,-4.727724 12.351538,-6.7956818 9.237628,-3.3691508 10.85164,-3.5456843 27.013506,-2.9546183 19.458457,0.7116277 26.892622,1.9536806 40.008268,6.6843261 5.04933,1.821228 11.2806,4.048972 13.84727,4.95054 2.56667,0.90157 8.36533,3.360476 12.88591,5.46424 4.52058,2.103763 10.04236,3.825024 12.2706,3.825024 8.4248,0 13.47625,4.413979 10.7918,9.429923 -1.80575,3.374062 -7.86194,3.348553 -14.54574,-0.06127 -8.84038,-4.510027 -14.49176,-4.723119 -22.22126,-0.837879 -7.25487,3.646669 -19.782658,5.856907 -33.663496,5.939144 -4.665203,0.02764 -10.065203,0.327661 -12,0.666716 -1.934796,0.339055 -5.317812,0.09444 -7.517812,-0.543596 z M 102.59975,30.369465 C 105.56989,29.44249 108,28.049703 108,27.274382 c 0,-0.775321 -2.7393,-2.740527 -6.08732,-4.367122 l -6.087323,-2.95745 -4.883139,4.025095 c -2.685725,2.213802 -5.572964,4.025094 -6.416085,4.025094 -2.139877,0 -4.711869,3.363647 -3.514567,4.596344 1.280658,1.318516 14.645621,-0.06012 21.588184,-2.226878 z M 47.973506,27.666666 c -0.805731,-0.916667 -2.620568,-3.616667 -4.032971,-6 -2.989379,-5.044369 -6.198706,-5.487636 -10.528166,-1.45413 l -3.09046,2.879201 5.172378,1.900541 c 2.844808,1.045297 6.372379,2.409048 7.839045,3.030557 4.209258,1.7837 6.374956,1.617466 4.640174,-0.356169 z"
       id="path527" />
  </g>
</svg>
