<?xml version="1.0" encoding="UTF-8" standalone="no"?>
<!-- Created with Inkscape (http://www.inkscape.org/) -->

<svg
   version="1.1"
   id="svg62"
   width="161.33333"
   height="150.66667"
   viewBox="0 0 161.33333 150.66667"
   xmlns="http://www.w3.org/2000/svg"
   xmlns:svg="http://www.w3.org/2000/svg">
  <defs
     id="defs66" />
  <g
     id="g68">
    <path
       style="fill:#000000;stroke-width:1.33333"
       d="m 8.8946442,141.2542 c -1.7006331,-2.428 -1.6101985,-3.66257 0.781344,-10.66666 1.4875168,-4.35648 3.2189498,-7.92087 3.8476278,-7.92087 0.628677,0 1.14305,-0.9298 1.14305,-2.06621 0,-3.19098 3.657818,-9.51718 6.028942,-10.42707 1.364894,-0.52375 3.853263,0.85955 6.94159,3.8589 l 4.814023,4.67532 2.860324,-2.68714 c 3.689996,-3.46657 4.471558,-3.39384 8.87607,0.82595 l 3.666867,3.51308 4.169365,-3.50829 c 4.150531,-3.49244 7.625006,-3.32211 9.980582,0.4893 1.227247,1.98572 5.443376,1.59808 7.328903,-0.67384 2.641859,-3.18324 7.674753,-2.45821 9.69448,1.39658 l 1.779646,3.39657 3.664966,-3.39657 c 4.472341,-4.14483 5.819577,-4.2134 9.774973,-0.4975 l 3.085934,2.89909 3.085939,-2.89909 c 3.8363,-3.60402 6.47161,-3.66795 9.58073,-0.23241 3.04452,3.36415 4.95548,3.36415 8,0 3.025,-3.34259 4.95516,-3.36451 7.91862,-0.0899 2.92369,3.23063 5.37294,2.35252 7.45439,-2.67256 3.07725,-7.42912 10.42871,-3.88379 14.60045,7.04124 0.92155,2.41335 2.84799,7.02385 4.28098,10.24556 3.37661,7.59144 2.3939,12.15 -2.61318,12.12193 -5.01448,-0.0281 -6.31193,-1.15148 -8.44625,-7.31292 -1.01611,-2.93334 -2.34296,-5.69489 -2.94856,-6.13678 -0.6056,-0.4419 -2.88893,0.98439 -5.07406,3.16951 l -3.97297,3.97298 -3.01898,-2.83619 c -3.75063,-3.52354 -5.09005,-3.55505 -7.20435,-0.16952 -0.93899,1.50357 -3.10937,2.66667 -4.97609,2.66667 -1.86673,0 -4.0371,-1.1631 -4.9761,-2.66667 C 108.10795,133.2 106.4472,132 105.33333,132 c -1.11386,0 -2.77462,1.2 -3.69057,2.66667 -2.406899,3.85407 -6.358858,3.27848 -9.699222,-1.41263 l -2.904712,-4.07929 -3.37946,4.07929 c -4.143264,5.00127 -5.641708,5.08 -9.619276,0.50539 l -3.107469,-3.5739 -2.84973,3.5739 c -3.670024,4.60265 -6.387134,4.5152 -10.469983,-0.337 l -3.290806,-3.9109 -4.115232,4.9109 -4.115232,4.91091 -3.976736,-4.66667 L 40.138165,130 l -3.907123,4.64772 -3.907123,4.64772 -4.03024,-4.31438 c -2.216632,-2.37292 -4.666386,-4.31439 -5.443901,-4.31439 -0.777513,0 -2.057166,2.3898 -2.843673,5.31065 -2.063744,7.66418 -7.598337,10.29258 -11.1114608,5.27688 z M 13.113525,93.769431 c -1.220895,-0.323345 -2.507328,-1.337166 -2.858742,-2.252936 -1.2149361,-3.166073 1.924159,-37.468966 3.521835,-38.485342 2.616352,-1.664416 8.470544,-1.143191 10.170855,0.905558 1.12783,1.358952 1.474852,7.158754 1.163258,19.441657 -0.392985,15.491382 -0.741778,17.722546 -3.032238,19.396625 -2.572929,1.880534 -4.719975,2.118696 -8.964968,0.994438 z M 75.67419,93.000002 c -1.779217,-1.367271 -2.241342,-4.970499 -2.572538,-20.058295 -0.439302,-20.012498 -0.1435,-20.879671 7.136441,-20.921289 5.794333,-0.03312 7.730147,3.118521 8.030853,13.074822 0.730839,24.197799 -0.650624,29.571429 -7.602281,29.571429 -1.553009,0 -3.799623,-0.75 -4.992475,-1.666667 z m 61.74879,-0.225312 c -1.80942,-2.180228 -2.6712,-35.118651 -0.98829,-37.774689 0.60643,-0.95709 3.79461,-1.666666 7.48849,-1.666666 7.89879,0 8.0334,0.345826 8.05862,20.703325 0.0213,17.217578 -1.39474,20.630009 -8.56082,20.630009 -2.43529,0 -5.13438,-0.851391 -5.998,-1.891979 z M 58.666665,39.962156 C 54.633332,39.400313 46.233332,37.683188 39.999999,36.146321 26.510758,32.820465 24.148009,32.722946 19.203876,35.287993 15.42617,37.24789 10.190322,36.832401 6.9999999,34.319558 2.5577685,30.820653 7.3931116,22.708554 13.963341,22.637385 c 3.253072,-0.03524 11.731778,-4.117295 17.752505,-8.54691 6.415657,-4.7201773 20.409909,-8.8502628 29.329962,-8.6560725 10.217261,0.2224306 28.92497,3.2309354 36.121826,5.8089785 3.208866,1.149474 6.831996,2.089953 8.051406,2.089953 1.21941,0 4.4181,1.122128 7.1082,2.493616 9.38586,4.785186 25.72685,10.834076 32.87384,12.1688 8.43441,1.575155 11.0776,3.387727 10.52993,7.220911 -0.33407,2.338114 -1.2508,2.747131 -5.73101,2.556977 -7.57846,-0.321651 -14.24127,-1.845787 -17.29668,-3.956657 -3.73769,-2.582243 -8.65359,-2.243756 -13.90447,0.9574 -9.29256,5.665131 -38.571794,8.191135 -60.132185,5.187775 z m 39.097674,-7.252451 c 10.966911,-0.97657 17.376111,-5.2032 12.568991,-8.288794 -0.91667,-0.588389 -4.35352,-1.765796 -7.63745,-2.616456 -5.728873,-1.483991 -6.154197,-1.385624 -10.497454,2.427807 -2.489665,2.185955 -5.905325,4.602623 -7.590356,5.370375 -4.317937,1.967384 -2.739362,4.633288 2.43485,4.111988 2.359726,-0.237743 7.184365,-0.689956 10.721419,-1.00492 z m -45.76434,-3.26526 c 0,-0.672222 -0.536697,-1.422222 -1.19266,-1.666667 -0.655963,-0.244444 -2.371764,-2.544444 -3.812892,-5.111111 -2.858912,-5.091759 -5.407669,-5.441707 -10.493952,-1.440837 -3.796645,2.986443 -2.681502,4.425796 5.499504,7.098401 7.803671,2.549336 10,2.795372 10,1.120214 z"
       id="path388" />
  </g>
</svg>
