<?xml version="1.0" encoding="UTF-8" standalone="no"?>
<!-- Created with Inkscape (http://www.inkscape.org/) -->

<svg
   version="1.1"
   id="svg72"
   width="162.66667"
   height="166.66667"
   viewBox="0 0 162.66667 166.66667"
   xmlns="http://www.w3.org/2000/svg"
   xmlns:svg="http://www.w3.org/2000/svg">
  <defs
     id="defs76" />
  <g
     id="g78">
    <path
       style="fill:#000000;stroke-width:1.33333"
       d="m 22.121767,158.38823 c -4.003189,-2.24029 -5.174116,-6.26768 -2.852459,-9.81097 2.466807,-3.76483 5.538599,-4.05635 12.424698,-1.17915 6.799549,2.84103 9.977823,1.65563 15.356788,-5.72764 4.611388,-6.32968 4.617546,-6.35793 5.23243,-24.01729 C 52.950808,98.480338 52.920294,98.366566 44.86663,90.000002 32.090894,76.727903 28.049105,68.568605 28.024389,56.000001 c -0.0096,-4.898689 0.833193,-8.723395 2.538656,-11.520303 4.857422,-7.966032 4.283889,-9.944608 -3.833107,-13.223463 l -7.270062,-2.936737 -3.785238,2.798549 c -2.923603,2.161512 -4.30379,2.473536 -6.0632722,1.370747 -4.5544642,-2.854597 -3.5863251,-13.011799 1.3917332,-14.601322 4.839019,-1.545125 19.69229,-3.480761 28.330235,-3.691913 4.4,-0.107557 9.310555,-0.945559 10.912346,-1.862225 4.486894,-2.5677453 8.145928,-1.99264 10.536668,1.656092 1.825785,2.7865 2.037649,5.637713 1.312753,17.666667 -0.475421,7.889149 -0.344696,15.112035 0.290502,16.050857 0.635196,0.938823 5.608289,3.975918 11.051317,6.749102 5.443028,2.773184 10.503695,6.205056 11.245924,7.626384 3.464931,6.635136 6.886462,10.430783 10.92303,12.117368 C 98.022645,75.209595 100,76.906626 100,77.970983 c 0,1.064357 1.2,2.577416 2.66667,3.362352 1.46667,0.784936 2.66667,2.569119 2.66667,3.964851 0,6.271536 30.39034,41.330484 41.218,47.549964 8.44461,4.85064 12.11533,8.43924 12.11533,11.84429 0,3.48599 -3.89893,7.30756 -7.45548,7.30756 -1.41836,0 -3.17112,1.34154 -3.89501,2.98118 -2.03118,4.60069 -7.38478,5.81358 -16.94487,3.83898 -4.54396,-0.93854 -9.83069,-2.51777 -11.74828,-3.5094 C 114.53643,153.19751 108,143.86136 108,140.13764 c 0,-4.85661 -1.67758,-6.95353 -9.76945,-12.21153 -11.407239,-7.41227 -12.892219,-7.13554 -12.917632,2.40723 -0.02423,9.09858 -1.182292,11.38425 -5.46263,10.78158 -3.89149,-0.54792 -4.96496,3.5302 -1.990369,7.56143 1.571532,2.12976 2.295856,2.32628 3.650321,0.99032 2.147851,-2.11849 8.132242,-2.15752 10.223095,-0.0667 2.193504,2.19351 2.007575,5.73523 -0.406248,7.73852 -2.391985,1.98518 -65.814744,2.94718 -69.20532,1.04971 z m 44.278234,-9.32156 c 0.88,-0.88 1.6,-2.98 1.6,-4.66667 0,-2.60625 -0.689277,-3.06666 -4.591061,-3.06666 -3.249344,0 -5.205032,0.87656 -6.691932,2.99941 -1.926115,2.74992 -1.911206,3.13809 0.179234,4.66667 2.887459,2.11136 7.427523,2.14349 9.503759,0.0672 z m 77.429179,-3.84481 c -1.10347,-0.68555 -2.0259,-0.56319 -2.32502,0.30841 -0.27272,0.79464 0.32728,1.95619 1.33334,2.58121 1.10346,0.68555 2.02589,0.56319 2.32501,-0.30841 0.27272,-0.79464 -0.32728,-1.95619 -1.33333,-2.58121 z M 122,70.462484 c -8.45443,-4.731088 -17.25246,-12.996367 -21.64592,-20.335176 -4.60097,-7.68545 -4.85833,-8.727789 -4.733755,-19.172253 0.114245,-9.578488 0.569481,-11.618859 3.428708,-15.367497 1.813337,-2.377405 6.353287,-5.9860083 10.088787,-8.0191201 6.28628,-3.4214236 7.21621,-3.578628 12.49366,-2.1120491 3.13602,0.8714847 6.99326,2.9656514 8.57165,4.6537042 3.76693,4.028657 5.22165,12.783431 3.04072,18.299658 -2.90691,7.352482 -5.04765,8.923583 -12.15901,8.923583 -7.8215,0 -8.89354,1.709387 -6.60942,10.538938 1.5242,5.892032 3.23156,7.931393 13.14681,15.703273 3.06984,2.406235 3.45602,3.327814 2.23486,5.333334 -1.82528,2.997685 -4.37543,3.501934 -7.85709,1.553605 z"
       id="path249" />
  </g>
</svg>
