<?xml version="1.0" encoding="UTF-8" standalone="no"?>
<!-- Created with Inkscape (http://www.inkscape.org/) -->

<svg
   version="1.1"
   id="svg82"
   width="160"
   height="152"
   viewBox="0 0 160 152"
   xmlns="http://www.w3.org/2000/svg"
   xmlns:svg="http://www.w3.org/2000/svg">
  <defs
     id="defs86" />
  <g
     id="g88">
    <path
       style="fill:#000000;stroke-width:1.33333"
       d="m 49.333333,144.01688 c -13.663208,-1.72229 -24.634156,-3.98264 -34,-7.005 -8.4405001,-2.72376 -9.3751913,-3.37817 -9.7709033,-6.84098 -0.7084513,-6.19952 1.2547422,-6.86263 11.3623053,-3.83783 16.661122,4.98603 22.495933,5.79658 41.414862,5.75321 30.172136,-0.0692 65.292123,-7.43386 67.903673,-14.23945 0.94134,-2.45307 -2.55168,-6.23953 -8.96575,-9.71896 -6.68042,-3.62392 -4.72461,-9.61319 4.71933,-14.451967 4.04552,-2.072794 8.94704,-5.736792 15.69286,-11.730759 5.14293,-4.569721 9.23613,-4.187249 14.06664,1.314395 6.02457,6.861613 4.39233,10.857812 -5.75635,14.093188 -2.93333,0.935138 -6.99151,3.081473 -9.01816,4.769633 l -3.68483,3.06938 3.68483,3.46531 c 2.02665,1.90593 5.57275,4.64836 7.8802,6.09428 2.30745,1.44593 5.1194,4.03922 6.24877,5.76286 1.84476,2.81546 1.84592,3.43014 0.012,6.04932 -6.44184,9.1961 -47.09444,18.8956 -77.789477,18.56 -9.166666,-0.10023 -19.966666,-0.59822 -24,-1.10663 z M 74.550096,38.156423 C 74.247543,37.881793 66.5,37.277236 57.333333,36.81296 40.130488,35.941665 34.406945,34.981936 17.333333,30.105719 7.3723025,27.260852 7.3317324,27.230596 6.92251,22.341799 6.5481035,17.868932 6.9129057,17.266235 11.037884,15.542709 16.617947,13.21121 37.017053,8.7107639 51.408493,6.6361549 62.918219,4.9769617 100.5254,5.741206 116,7.9487684 c 10.37987,1.480762 29.89047,5.8728526 35,7.8789566 4.79327,1.881931 5.17835,8.462442 0.66667,11.392347 -4.5856,2.977913 -22.81482,7.261407 -37.66667,8.850901 -14.938852,1.598806 -38.607601,2.850012 -39.449904,2.08545 z M 118.92996,24.813361 c 9.3619,-1.909334 8.62777,-3.816245 -2.26329,-5.878972 -17.420455,-3.299365 -52.359443,-3.053821 -77.751807,0.546427 -5.246711,0.743903 -5.529544,0.971195 -3.220784,2.588313 C 37.935973,23.639413 50.17972,25.68572 66,27.13418 c 9.326032,0.853865 45.04251,-0.712195 52.92996,-2.320819 z"
       id="path110" />
  </g>
</svg>
