<?xml version="1.0" encoding="UTF-8" standalone="no"?>
<!-- Created with Inkscape (http://www.inkscape.org/) -->

<svg
   version="1.1"
   id="svg2"
   width="158.66667"
   height="156"
   viewBox="0 0 158.66667 156"
   xmlns="http://www.w3.org/2000/svg"
   xmlns:svg="http://www.w3.org/2000/svg">
  <defs
     id="defs6" />
  <g
     id="g8">
    <path
       style="fill:#000000;stroke-width:1.33333"
       d="m 135.2461,148.16427 c -5.78324,-3.52666 -12.55263,-12.54138 -14.64941,-19.50844 -3.89224,-12.93295 5.14524,-24.56374 17.63182,-22.69126 6.28775,0.94291 11.10483,5.58529 11.10483,10.7021 0,4.31815 -4.62668,9.52533 -9.2926,10.45852 -5.66015,1.13203 -5.10551,3.89944 2.18073,10.88089 5.70807,5.46928 6.09552,6.23764 4.69525,9.31091 -1.84984,4.05996 -5.91794,4.3553 -11.67062,0.84728 z M 27.060822,146.47493 c -0.838291,-1.01008 -1.943156,-9.66461 -2.469195,-19.34148 -1.140607,-20.98225 -1.861105,-20.11063 17.040518,-20.61456 16.757478,-0.44676 17.166103,-0.10697 16.836939,14.00042 -0.138776,5.94771 0.187831,13.28225 0.725792,16.29896 1.334268,7.48213 -1.131273,9.84461 -10.290114,9.85998 -3.797618,0.007 -9.924716,0.37455 -13.615772,0.81816 -4.858331,0.58391 -7.129847,0.30191 -8.228168,-1.02148 z M 53.082845,39.305067 C 52.700632,38.922853 48.550632,38.0643 43.860622,37.397172 39.170614,36.730044 31.133334,35.180787 26.000001,33.954377 20.866667,32.727968 15.414156,31.499557 13.88331,31.224575 9.4296167,30.424572 4.0000001,25.417208 4.0000001,22.109876 c 0,-4.339557 3.5258499,-6.761008 12.6666669,-8.699096 4.4,-0.932912 9.5,-2.193749 11.333334,-2.801861 30.275035,-10.04213428 103.387269,-5.6006175 123.666669,7.512664 4.528,2.927944 3.92305,8.021485 -1.33333,11.226364 -2.38334,1.453146 -5.53334,2.65306 -7,2.666473 -1.46667,0.01341 -5.36667,0.982096 -8.66667,2.152627 -9.02141,3.19995 -35.369187,5.772738 -59.444446,5.804585 -11.794445,0.0156 -21.757166,-0.284352 -22.139379,-0.666565 z M 114.34169,25.940255 c 3.12127,-0.488736 6.02292,-1.451514 6.44812,-2.139506 1.32768,-2.14823 -1.99326,-4.78912 -5.24151,-4.168176 -1.70579,0.326083 -11.45199,-0.01648 -21.658203,-0.76126 -17.575935,-1.282564 -27.315714,-0.881116 -53.116827,2.189336 -7.348572,0.874514 -7.67068,1.052934 -4.666667,2.584938 1.774702,0.905073 8.626731,2.197965 15.226731,2.873096 12.683162,1.29739 53.416756,0.923449 63.008356,-0.578428 z"
       id="path477" />
  </g>
</svg>
