<?xml version="1.0" encoding="UTF-8" standalone="no"?>
<!-- Created with Inkscape (http://www.inkscape.org/) -->

<svg
   version="1.1"
   id="svg2"
   width="157.33333"
   height="153.33333"
   viewBox="0 0 157.33333 153.33333"
   xmlns="http://www.w3.org/2000/svg"
   xmlns:svg="http://www.w3.org/2000/svg">
  <defs
     id="defs6" />
  <g
     id="g8">
    <path
       style="fill:#000000;stroke-width:1.33333"
       d="M 87.724841,145.09165 C 86.013278,141.76281 85.359298,136.53806 85.084805,124 c -0.200683,-9.16667 0.108548,-17.41667 0.68718,-18.33334 0.580553,-0.9197 3.670569,-1.66666 6.89468,-1.66666 3.213441,0 6.328032,0.75 6.92131,1.66666 1.743525,2.6939 1.685305,37.9122 -0.06656,40.25916 -0.836782,1.12104 -3.321422,2.38758 -5.521422,2.81454 -3.520703,0.68325 -4.272619,0.24605 -6.275158,-3.64871 z m 51.949339,2.57501 c -1.77921,-1.36726 -2.24133,-4.97049 -2.57253,-20.05829 -0.43931,-20.0125 -0.14351,-20.87967 7.13644,-20.92129 5.79433,-0.0331 7.73015,3.11852 8.03085,13.07482 0.73084,24.1978 -0.65062,29.57143 -7.60228,29.57143 -1.55301,0 -3.79962,-0.75 -4.99248,-1.66667 z m -26.56066,-0.5639 c -1.22089,-0.32335 -2.50733,-1.33716 -2.85874,-2.25294 -1.21494,-3.16606 1.92416,-37.46896 3.52184,-38.48534 2.61635,-1.66441 8.47054,-1.14319 10.17085,0.90556 1.12783,1.35895 1.47485,7.15875 1.16326,19.44166 -0.39299,15.49138 -0.74178,17.72254 -3.03224,19.39662 -2.57293,1.88053 -4.71997,2.11869 -8.96497,0.99444 z m -93.446854,-4.5429 c -4.30061,-2.50488 -2.702614,-7.22454 5.146456,-15.20003 4.113884,-4.18014 6.963884,-8.0526 6.333333,-8.60548 C 30.515905,118.20148 26.399999,116.36693 22,114.67757 11.140044,110.50794 8.9154387,108.33614 11.074934,104.01181 c 2.298016,-4.601717 5.207723,-4.773913 13.217973,-0.78224 10.935912,5.4496 11.707092,5.06691 11.707092,-5.809439 0,-5.085594 0.599614,-10.823637 1.332475,-12.751209 1.118224,-2.941152 2.029377,-3.437484 5.666666,-3.086798 l 4.334192,0.417874 0.381616,13 C 47.924838,102.15 48.642691,108 49.31018,108 c 0.667488,0 4.79672,-2.1 9.176069,-4.66667 9.186654,-5.384149 10.893342,-5.632176 14.131795,-2.05373 4.12716,4.56047 1.824848,8.72198 -6.270423,11.33402 -8.10972,2.6167 -13.014289,5.47929 -13.014289,7.5959 0,0.81476 3.3,4.47655 7.333333,8.13732 7.376438,6.69506 9.032414,10.75408 5.733334,14.05316 -3.296751,3.29674 -8.463403,1.78078 -13.976032,-4.10076 -2.938752,-3.13543 -6.057472,-7.03543 -6.930488,-8.66667 -2.474737,-4.62409 -5.071585,-3.5603 -10.213442,4.18389 -2.610962,3.93239 -6.245322,7.83239 -8.076358,8.66667 -3.993989,1.81979 -4.534921,1.82529 -7.537013,0.0767 z M 43.333332,34.058547 c -8.799999,-0.976906 -17.799999,-2.407644 -19.999999,-3.179416 -2.2,-0.771772 -7,-2.254122 -10.666667,-3.294113 C 7.5586726,26.136218 5.7093411,24.882051 4.7568103,22.220772 3.1224991,17.654661 6.4021159,13.914076 13.087158,12.719547 15.789221,12.236724 21.3,10.761321 25.333333,9.4408749 c 12.04502,-3.9433408 25.468185,-5.440875 48.769341,-5.440875 24.04986,0 34.089136,1.1204615 54.929516,6.1305621 17.58938,4.228548 19.80489,5.117491 21.73291,8.72004 2.54704,4.7592 -2.7187,8.189859 -16.87633,10.994997 -6.53883,1.295578 -14.88877,2.95874 -18.55544,3.695919 -10.83399,2.178156 -54.229446,2.489779 -71.999998,0.517029 z M 110.41123,23.815018 c 7.10715,-0.835072 13.71053,-2.24493 14.67417,-3.133018 1.83136,-1.687786 -1.08818,-2.454006 -22.57246,-5.92404 -17.923084,-2.894847 -54.336061,-1.380786 -68.23337,2.83716 l -5.053761,1.533858 4.206841,1.768844 c 2.313764,0.972864 6.687956,1.828652 9.720429,1.901751 3.032472,0.0731 7.013587,0.61329 8.84692,1.200426 5.122913,1.640644 43.919328,1.51778 58.411231,-0.184981 z"
       id="path30" />
  </g>
</svg>
