<?xml version="1.0" encoding="UTF-8" standalone="no"?>
<!-- Created with Inkscape (http://www.inkscape.org/) -->

<svg
   version="1.1"
   id="svg22"
   width="141.33333"
   height="81.333336"
   viewBox="0 0 141.33333 81.333336"
   xmlns="http://www.w3.org/2000/svg"
   xmlns:svg="http://www.w3.org/2000/svg">
  <defs
     id="defs26" />
  <g
     id="g28">
    <path
       style="fill:#000000;stroke-width:1.33333"
       d="M 121.25904,71.207398 C 118.73323,69.304801 112.27492,65.638149 106.90723,63.059285 96.191911,57.91119 91.848113,57.828327 85.712038,62.654965 83.83929,64.128069 81.337957,65.324302 80.153519,65.313261 76.109649,65.275567 67.605026,61.677875 65.467318,59.100595 64.293625,57.685558 60.440484,54.459046 56.904781,51.930568 53.36908,49.40209 46.46908,43.978912 41.571448,39.879061 36.673818,35.779211 28.267671,29.542712 22.891122,26.020174 12.236973,19.039926 3.9999999,11.861221 3.9999999,9.5561426 c 0,-0.8042755 1.2489462,-2.1307348 2.7754361,-2.9476873 2.7486006,-1.4710065 10.75736,1.5973587 28.155387,10.7870657 2.711953,1.432464 5.619331,2.60448 6.460839,2.60448 0.841509,0 3.306112,1.264692 5.476896,2.810426 2.170784,1.545735 9.749462,5.180467 16.841506,8.077185 7.092045,2.896716 13.20857,5.764589 13.592281,6.373052 0.763894,1.211337 8.214184,4.522352 16.944478,7.530369 3.069088,1.057453 9.209937,3.974311 13.646327,6.48191 7.47406,4.224587 20.28845,10.139194 25.77351,11.896018 3.31043,1.060305 3.13443,8.308487 -0.24568,10.117463 -4.07481,2.180774 -7.22076,1.642989 -12.16194,-2.079026 z"
       id="path199" />
  </g>
</svg>
