<?xml version="1.0" encoding="UTF-8" standalone="no"?>
<!-- Created with Inkscape (http://www.inkscape.org/) -->

<svg
   version="1.1"
   id="svg32"
   width="154.66667"
   height="152"
   viewBox="0 0 154.66667 152"
   xmlns="http://www.w3.org/2000/svg"
   xmlns:svg="http://www.w3.org/2000/svg">
  <defs
     id="defs36" />
  <g
     id="g38">
    <path
       style="fill:#000000;stroke-width:1.33333"
       d="m 97.058178,142.42499 c -1.711563,-3.32884 -2.365543,-8.55359 -2.640036,-21.09166 -0.200683,-9.16666 0.108548,-17.41666 0.68718,-18.33333 0.580553,-0.91971 3.670569,-1.66667 6.894678,-1.66667 3.21344,0 6.32803,0.75 6.92131,1.66667 1.74353,2.6939 1.68531,37.9122 -0.0666,40.25916 -0.83678,1.12104 -3.32142,2.38757 -5.52142,2.81453 -3.520703,0.68326 -4.272619,0.24606 -6.275157,-3.6487 z M 7.5119994,142.33329 C 4.8319621,138.06301 6.3715856,104.5064 9.3333335,102.6367 c 2.8178505,-1.77887 7.0818415,-1.60209 9.8301655,0.40753 1.968617,1.43949 2.446197,4.59072 3.010193,19.86227 0.656103,17.76554 0.60548,18.19678 -2.381678,20.28907 -4.451684,3.11808 -10.0276589,2.72655 -12.2800146,-0.86228 z m 32.2681936,2.10276 c -1.220895,-0.32334 -2.507328,-1.33716 -2.858743,-2.25293 -1.214936,-3.16607 1.92416,-37.46897 3.521836,-38.48534 2.616352,-1.66442 8.470544,-1.14319 10.170855,0.90556 1.127831,1.35895 1.474852,7.15875 1.163259,19.44165 -0.392986,15.49138 -0.741779,17.72254 -3.032239,19.39662 -2.572929,1.88054 -4.719975,2.1187 -8.964968,0.99444 z m 93.577157,-1.07382 c -0.89971,-1.0841 -1.63195,-3.3341 -1.6272,-5 0.0504,-17.66649 0.79445,-31.45417 1.80032,-33.36227 1.74753,-3.31505 12.64987,-3.31505 13.68531,0 0.40085,1.28333 0.89128,10.3024 1.08985,20.04237 0.29695,14.56543 0.007,17.93458 -1.63896,18.97959 -3.08392,1.95912 -11.48133,1.54289 -13.30932,-0.65969 z M 55.666668,66.559868 c -4.300611,-2.504876 -2.702615,-7.224553 5.146456,-15.200036 4.113884,-4.18014 6.963884,-8.052604 6.333333,-8.605477 -0.63055,-0.552874 -4.746456,-2.387426 -9.146456,-4.076783 C 47.140045,34.507945 44.91544,32.336141 47.074936,28.011811 c 2.298016,-4.601716 5.207722,-4.773912 13.217973,-0.782235 10.935913,5.449595 11.707093,5.066909 11.707093,-5.809443 0,-5.085594 0.599613,-10.823638 1.332474,-12.7512087 C 74.4507,5.727772 75.361854,5.2314403 78.999143,5.5821247 L 83.333335,6 83.714951,19 c 0.209889,7.15 0.927743,13 1.595232,13 0.667488,0 4.79672,-2.1 9.17607,-4.666667 9.186657,-5.38415 10.893337,-5.632177 14.131797,-2.053726 4.12716,4.560461 1.82485,8.721974 -6.27043,11.334014 -8.109715,2.616703 -13.014285,5.479296 -13.014285,7.5959 0,0.814759 3.3,4.476554 7.333334,8.13732 C 104.04311,59.041904 105.69908,63.10092 102.4,66.4 c -3.296749,3.296751 -8.463401,1.780783 -13.97603,-4.100764 -2.938752,-3.13542 -6.057472,-7.03542 -6.930488,-8.666667 -2.474738,-4.624088 -5.071586,-3.560298 -10.213443,4.183899 -2.610962,3.932392 -6.245322,7.832392 -8.076358,8.666667 -3.993989,1.819784 -4.534921,1.825292 -7.537013,0.07673 z"
       id="path60" />
  </g>
</svg>
