<?xml version="1.0" encoding="UTF-8" standalone="no"?>
<!-- Created with Inkscape (http://www.inkscape.org/) -->

<svg
   version="1.1"
   id="svg12"
   width="136"
   height="170.66667"
   viewBox="0 0 136 170.66667"
   xmlns="http://www.w3.org/2000/svg"
   xmlns:svg="http://www.w3.org/2000/svg">
  <defs
     id="defs16" />
  <g
     id="g18">
    <path
       style="fill:#000000;stroke-width:1.33333"
       d="m 20.284237,160.10382 c -7.570039,-0.69716 -10.8517561,-2.38066 -10.9304866,-5.60723 -0.060605,-2.48377 5.1123706,-4.28619 13.0379346,-4.5428 4.917907,-0.15924 11.39741,-0.36397 14.398895,-0.45499 5.266801,-0.15969 5.644181,-0.47954 10.813828,-9.16546 7.488913,-12.5827 7.587491,-13.24434 3.644815,-24.46375 C 49.341641,110.44132 46.895989,102.4 45.814441,98.000002 41.729032,81.379563 40.780276,79.398083 33.046131,71.333335 l -7.672051,-8 0.02687,-9.333334 c 0.01613,-5.599739 0.789137,-10.66676 1.932386,-12.666667 2.04994,-3.585996 2.572528,-10.41474 0.979583,-12.800395 C 26.25426,25.449815 21.494619,24.10559 15.167883,24.820498 10.605768,25.336008 7.9001633,24.978684 6.0968147,23.622503 3.6339155,21.770315 3.6210187,21.491674 5.7869331,16.927348 8.2633547,11.708677 7.9547736,11.853308 23.553344,8.6002771 38.540452,5.4747645 45.305797,6.5845604 50.628308,13.041688 c 2.216219,2.688658 4.423128,6.986748 4.904243,9.551312 1.47013,7.836471 6.647016,17.795491 12.167394,23.407001 C 75.810997,54.24495 92,73.362823 92,74.696353 c 0,0.656526 3.45,5.422293 7.666667,10.590594 13.754943,16.859213 13.992403,17.233713 13.123243,20.696723 -1.15551,4.6039 -11.39632,11.15911 -20.193155,12.92577 l -7.482866,1.50277 0.864247,4.60684 c 0.643623,3.4308 -0.05068,6.75957 -2.719776,13.03971 l -3.584023,8.43288 2.834684,4.58662 c 3.007414,4.8661 2.567956,5.99978 -3.175688,8.19248 -3.301304,1.2603 -47.620785,1.88557 -59.049096,0.83308 z m 49.351284,-19.4538 c 3.912023,-7.15579 4.655834,-12.492 2.097812,-15.05002 -2.735852,-2.73585 -4.467621,-1.78823 -6.213502,3.4 -0.925396,2.75 -2.622504,7.21774 -3.771351,9.9283 -4.550701,10.73682 2.157923,12.2013 7.887041,1.72172 z M 118,53.544429 c -2.2,-1.345081 -4.82347,-3.442839 -5.82993,-4.661683 -2.51076,-3.040585 -4.62159,-2.785912 -9.26024,1.117255 -5.081163,4.275513 -12.809325,4.591496 -14.939706,0.610843 -1.256853,-2.348451 -0.629304,-3.562079 4.5677,-8.833545 5.886215,-5.970553 5.979628,-6.198274 4.062987,-9.90465 -1.07896,-2.086479 -3.106766,-4.406394 -4.506235,-5.155367 -3.223519,-1.725175 -4.903865,-8.802246 -2.715919,-11.43856 3.016155,-3.634244 8.958652,-2.3039 15.133573,3.387945 C 107.69452,21.6 110.7584,24 111.32084,24 c 0.56244,0 3.34707,-2.1 6.18807,-4.666666 5.44396,-4.918292 7.69993,-5.540694 11.91208,-3.286422 4.58613,2.454424 3.33728,8.5514 -2.75432,13.446743 -2.93334,2.357292 -5.33334,4.973311 -5.33334,5.813376 0,0.840067 1.7458,3.199972 3.87955,5.244235 5.39563,5.169343 5.94889,8.408176 2.09467,12.262395 -3.82208,3.822081 -4.20257,3.851956 -9.30755,0.730768 z"
       id="path40" />
  </g>
</svg>
