<?xml version="1.0" encoding="UTF-8" standalone="no"?>
<!-- Created with Inkscape (http://www.inkscape.org/) -->

<svg
   version="1.1"
   id="svg2"
   width="112"
   height="157.33333"
   viewBox="0 0 112 157.33333"
   xmlns="http://www.w3.org/2000/svg"
   xmlns:svg="http://www.w3.org/2000/svg">
  <defs
     id="defs6" />
  <g
     id="g8">
    <path
       style="fill:#000000;stroke-width:1.33333"
       d="M 54.298585,148.44149 49.263837,146.35373 49.631919,126.89185 50,107.42996 54.361807,106.1806 c 3.002066,-0.85989 5.44799,-0.75446 7.846092,0.33818 3.25667,1.48384 3.433018,2.0204 2.69952,8.21365 -0.431619,3.64435 -0.204815,11.73002 0.50401,17.96815 1.102167,9.6998 0.974555,11.82162 -0.881341,14.65407 -2.505829,3.82437 -3.40058,3.91943 -10.231503,1.08684 z m 35.622922,0.33476 c -2.265902,-1.65503 -2.693223,-4.18688 -3.43183,-20.33334 -0.932466,-20.38434 -0.473138,-21.77625 7.186151,-21.77625 8.679282,0 8.990842,0.76512 8.990842,22.07992 V 148.066 l -3.420137,1.30033 c -4.597758,1.74807 -6.268618,1.64233 -9.325026,-0.59008 z m -77.368236,-0.95973 c -0.515592,-0.83424 -1.098552,-9.08424 -1.295465,-18.33333 -0.44002,-20.66789 0.707187,-23.53001 8.986303,-22.41955 2.920202,0.39168 5.664787,1.06748 6.099078,1.50177 0.434292,0.43429 0.933813,8.8928 1.110049,18.7967 0.257479,14.46958 -0.06895,18.39646 -1.661643,19.98915 -2.327568,2.32756 -11.879869,2.66328 -13.238322,0.46526 z M 67.514257,70.024635 c -2.100492,-1.11355 -4.685025,-2.024636 -5.743408,-2.024636 -1.058382,0 -4.739798,-1.596939 -8.180924,-3.548751 -3.441125,-1.951813 -7.761172,-4.323213 -9.600102,-5.269777 -1.838931,-0.946566 -5.329947,-3.770511 -7.757816,-6.275435 -3.498316,-3.609346 -4.629406,-6.13949 -5.45091,-12.193181 -1.168569,-8.611222 0.491995,-20.320521 3.330475,-23.48451 1.038636,-1.157743 1.903907,-2.657743 1.922825,-3.333333 0.03509,-1.252933 7.28745,-4.8602321 13.298936,-6.6148416 1.833334,-0.5351063 3.829012,-1.6420517 4.434842,-2.4598788 0.794154,-1.0720529 1.290206,-1.0219089 1.777777,0.1797083 0.371949,0.9166666 2.576271,1.6755117 4.898492,1.6863224 5.272873,0.024547 10.412288,2.5524055 12.212123,6.0066207 0.756682,1.452214 2.495213,4.302143 3.863402,6.333174 4.53267,6.728597 0.649199,20.95747 -5.72662,20.982097 -1.169674,0.0045 -3.845266,0.904517 -5.945758,2 -5.171998,2.697382 -6.115203,2.553661 -10.441299,-1.591003 -4.727627,-4.529353 -5.149559,-1.456605 -0.739625,5.386367 2.246497,3.485929 4.254082,4.87785 7.993013,5.541804 2.746157,0.487657 5.289529,1.366425 5.651939,1.952816 0.36241,0.586392 2.915554,1.487876 5.673654,2.003298 6.680732,1.248468 8.34806,2.852639 8.34806,8.031836 0,6.993315 -6.924665,10.34629 -13.819076,6.691303 z m -2.84759,-45.357969 c 0,-3.175264 -0.641223,-4.090818 -3.109954,-4.440477 -4.49745,-0.636993 -8.538338,3.360616 -6.758556,6.68617 1.008755,1.884874 2.51872,2.466308 5.623763,2.165511 3.736117,-0.361931 4.244747,-0.890507 4.244747,-4.411204 z"
       id="path30" />
  </g>
</svg>
