<?xml version="1.0" encoding="UTF-8" standalone="no"?>
<!-- Created with Inkscape (http://www.inkscape.org/) -->

<svg
   version="1.1"
   id="svg2"
   width="161.33333"
   height="152"
   viewBox="0 0 161.33333 152"
   xmlns="http://www.w3.org/2000/svg"
   xmlns:svg="http://www.w3.org/2000/svg">
  <defs
     id="defs6" />
  <g
     id="g8">
    <path
       style="fill:#000000;stroke-width:1.33333"
       d="m 112.38458,145.18457 c -1.83374,-1.83373 -0.68644,-37.02496 1.28835,-39.5179 1.83279,-2.31369 7.80503,-2.08368 11.40713,0.43934 2.94402,2.06207 2.98821,2.47235 2.11828,19.66666 -0.48865,9.65837 -1.48165,18.31066 -2.20666,19.22733 -1.6336,2.06544 -10.59504,2.19665 -12.6071,0.18457 z M 139.67418,145 c -1.77921,-1.36727 -2.24133,-4.97049 -2.57253,-20.05829 -0.43931,-20.0125 -0.14351,-20.87968 7.13644,-20.92129 5.79433,-0.0331 7.73015,3.11852 8.03085,13.07482 0.73084,24.1978 -0.65062,29.57143 -7.60228,29.57143 -1.55301,0 -3.79962,-0.75 -4.99248,-1.66667 z M 22.333242,143.16928 c -5.611816,-2.94033 -4.758864,-7.02665 3.000091,-14.37283 3.666666,-3.4716 6.666666,-7.04474 6.666666,-7.94031 0,-0.89557 -4.139477,-3.86414 -9.198837,-6.59681 C 12.850475,108.88473 11.76481,107.57535 13.465569,103 c 1.418729,-3.816641 6.139591,-3.935845 13.201097,-0.33333 10.137228,5.17162 11.948281,3.44851 11.981793,-11.400003 C 38.667193,82.963639 40.125151,80 44.19106,80 c 4.717159,0 6.420008,4.971861 5.553111,16.213575 -0.800051,10.374845 -0.782148,10.452775 2.391539,10.411475 1.758692,-0.0229 5.597622,-1.51981 8.530955,-3.3265 8.77588,-5.40521 16.132384,-3.637947 15.102352,3.62806 -0.297243,2.0968 -2.130389,3.83553 -5.769018,5.47188 -15.085697,6.78429 -15.459973,7.81698 -6.10204,16.83649 3.77861,3.64197 6.768706,7.72179 6.768706,9.23554 0,2.82944 -4.57672,6.86281 -7.787321,6.86281 -2.474749,0 -10.786494,-7.34656 -14.604637,-12.9087 -2.620707,-3.81776 -3.442688,-4.25016 -5.741097,-3.02009 -1.47536,0.78959 -4.298979,3.74031 -6.274708,6.55715 -1.975731,2.81686 -5.092277,6.02315 -6.92566,7.12512 -2.918355,1.7541 -3.789977,1.76438 -7,0.0824 z M 49.8337,34.574365 C 31.127161,32.671989 23.07487,31.019917 11.318195,26.672213 9.8432023,26.126751 7.782338,24.084651 6.7384964,22.134216 5.0946756,19.062708 5.0967022,18.350387 6.7536347,16.813259 9.7177915,14.063424 28.383473,8.7961239 40.666666,7.243282 52.181902,5.7875255 90.526157,4.719658 98.047766,5.6452484 102.42149,6.1834684 112.3,7.1949928 120,7.8930805 c 7.7,0.6980878 16.23073,2.2077265 18.95717,3.3547515 2.72645,1.147026 6.13291,2.085501 7.56989,2.085501 3.69735,0 8.42307,6.312314 6.88178,9.192236 -1.32498,2.475743 -14.03788,7.108476 -25.40884,9.25928 -26.82715,5.074327 -48.199307,5.837034 -78.1663,2.789516 z M 106,23.968363 c 9.53333,-0.801366 18.71082,-1.794024 20.39443,-2.205907 l 3.06109,-0.748879 -3.09008,-1.603156 C 123.50382,17.925799 103.65911,14.883608 95.999998,14.755407 68.450931,14.294279 55.39802,14.794033 46.685515,16.643516 41.195882,17.808848 36.213051,19.253615 35.612557,19.854109 33.703923,21.762743 45.45651,24.006537 62.666665,25.01926 80.830957,26.088127 80.762868,26.089779 106,23.968363 Z"
       id="path940" />
  </g>
</svg>
