<?xml version="1.0" encoding="UTF-8" standalone="no"?>
<!-- Created with Inkscape (http://www.inkscape.org/) -->

<svg
   version="1.1"
   id="svg12"
   width="158.66667"
   height="156"
   viewBox="0 0 158.66667 156"
   xmlns="http://www.w3.org/2000/svg"
   xmlns:svg="http://www.w3.org/2000/svg">
  <defs
     id="defs16" />
  <g
     id="g18">
    <path
       style="fill:#000000;stroke-width:1.33333"
       d="m 6.0763487,149.88587 c -1.7528186,-1.75282 -1.9850941,-4.31635 -1.3591138,-15 1.1562843,-19.73438 1.45379,-20.79445 7.3243071,-26.09811 6.032841,-5.45031 12.098109,-6.26465 20.503156,-2.75279 8.272836,3.45661 10.111222,8.20569 10.116986,26.1351 0.0056,17.3281 -0.737723,18.97449 -8.241251,18.25424 L 30.000001,150 30.439387,135.25128 c 0.476999,-16.01121 -0.48825,-18.57233 -6.665955,-17.68697 -4.952956,0.70985 -6.339364,5.50849 -5.555104,19.22734 0.651248,11.39208 0.501722,12.4193 -2.002948,13.75975 -3.829562,2.04952 -7.6764984,1.797 -10.1390313,-0.66553 z M 121.97653,146.33333 c -0.40752,-1.65 -0.65287,-7.2 -0.54523,-12.33333 0.10766,-5.13333 -0.18801,-11.43333 -0.65702,-14 -0.52011,-2.84635 -0.18072,-5.94932 0.87008,-7.95495 2.18619,-4.17273 9.16686,-6.34807 13.71746,-4.27468 3.27929,1.49415 3.30452,1.64266 3.26245,19.20104 -0.0502,20.93907 -0.67029,22.36192 -9.74586,22.36192 -5.28069,0 -6.2668,-0.42862 -6.90188,-3 z m -58.598102,-0.47872 c -3.002408,-3.0024 -2.557865,-4.78622 2.158959,-8.66328 5.066308,-4.16432 4.547002,-6.71811 -2.172264,-10.68258 -3.328366,-1.96378 -4.698455,-3.71796 -4.698455,-6.01563 0,-4.20382 3.163145,-5.34814 7.296716,-2.63972 1.801871,1.18063 4.497239,2.1466 5.989707,2.1466 2.319761,0 2.713577,-0.85494 2.713577,-5.89095 0,-7.51006 1.023083,-10.10905 3.979392,-10.10905 3.749774,0 5.799394,3.65386 5.562519,9.9163 -0.23242,6.14469 2.273027,8.85316 5.070951,5.48187 3.143231,-3.78737 12.05381,-2.96903 12.05381,1.10701 0,1.83868 -5.003774,6.61617 -9.983851,9.53235 -2.112855,1.23723 -1.870298,1.84166 2.488048,6.2 5.822266,5.82227 6.314523,10.00552 1.324762,11.25787 -2.887093,0.72461 -4.311042,0.0245 -8.083972,-3.9746 -5.393173,-5.71648 -7.250823,-5.97749 -11.3577,-1.59587 -4.501038,4.80216 -9.786772,6.48511 -12.342199,3.92968 z M 73.216764,38.156423 C 72.914211,37.881793 65.166668,37.277236 56.000001,36.81296 38.797155,35.941665 33.073613,34.981936 16,30.105719 6.0389693,27.260852 5.9983992,27.230596 5.5891768,22.341799 5.2147702,17.868932 5.5795725,17.266235 9.7045507,15.542709 15.284614,13.21121 35.683721,8.7107639 50.075161,6.6361549 61.584887,4.9769617 99.192067,5.741206 114.66667,7.9487684 c 10.37987,1.480762 29.89047,5.8728526 35,7.8789566 4.79327,1.881931 5.17835,8.462442 0.66667,11.392347 -4.5856,2.977913 -22.81482,7.261407 -37.66667,8.850901 -14.938853,1.598806 -38.607603,2.850012 -39.449906,2.08545 z M 117.59663,24.813361 c 9.3619,-1.909334 8.62777,-3.816245 -2.26329,-5.878972 -17.420457,-3.299365 -52.359445,-3.053821 -77.75181,0.546427 -5.246711,0.743903 -5.529544,0.971195 -3.220784,2.588313 2.241895,1.570284 14.485642,3.616591 30.305922,5.065051 9.326032,0.853865 45.042512,-0.712195 52.929962,-2.320819 z"
       id="path801" />
  </g>
</svg>
