<?xml version="1.0" encoding="UTF-8" standalone="no"?>
<!-- Created with Inkscape (http://www.inkscape.org/) -->

<svg
   version="1.1"
   id="svg22"
   width="164"
   height="162.66667"
   viewBox="0 0 164 162.66667"
   xmlns="http://www.w3.org/2000/svg"
   xmlns:svg="http://www.w3.org/2000/svg">
  <defs
     id="defs26" />
  <g
     id="g28">
    <path
       style="fill:#000000;stroke-width:1.33333"
       d="M 12.333333,153.98432 C 8.8089653,151.47552 8.5249304,148.99888 11.428571,146.09524 13.122866,144.40095 16.910507,144 31.221921,144 c 15.169066,0 18.000179,-0.33378 19.811958,-2.33577 2.914029,-3.21996 5.127465,-9.40713 3.684422,-10.29898 -0.648892,-0.40104 -1.543809,-2.38647 -1.988705,-4.41206 -0.444896,-2.0256 -2.891057,-5.3443 -5.435916,-7.37489 -2.544857,-2.03059 -4.627013,-4.80221 -4.627013,-6.15916 0,-1.35694 -0.831119,-2.7861 -1.846931,-3.1759 -2.515551,-0.96531 -7.486403,2.7103 -7.486403,5.53569 0,3.89156 -3.93373,8.22107 -7.469545,8.22107 -1.825083,0 -4.791061,-1.47272 -6.591061,-3.27272 -2.73943,-2.73943 -3.263898,-4.53191 -3.218539,-11 0.04552,-6.49175 0.651143,-8.42472 3.787672,-12.089246 l 3.733485,-4.361967 -2.868141,-9.638033 C 19.129725,78.337116 16.774975,71.600001 15.474425,68.666668 9.5463908,55.296248 5.288556,27.727691 8.4779405,23.365948 10.77484,20.224751 20.605813,18.507378 23.630351,20.718974 c 1.78509,1.305289 2.335792,3.774737 2.412814,10.819505 0.08951,8.186147 1.068019,13.463605 6.234968,33.627225 1.896886,7.402448 2.501619,12.17468 2.809068,22.167631 0.135372,4.4 0.731543,8.75 1.324822,9.666667 1.32734,2.050853 7.10151,2.199143 8.328465,0.213888 0.493827,-0.799029 3.379237,-2.506969 6.412023,-3.795423 L 56.666667,91.075825 56.189371,59.20458 C 55.66712,24.331574 56.428635,18.529212 62.398787,11.891937 66.319844,7.5327296 74.885505,3.9582054 78.896788,5.0071794 c 4.133708,1.0809891 5.135097,4.6090424 3.73494,13.1587846 -0.705623,4.30872 -1.286424,13.705147 -1.290672,20.880949 -0.0073,12.431423 0.112453,12.982593 2.539775,11.683532 1.401122,-0.749859 3.896864,-3.620968 5.54609,-6.380244 1.649227,-2.759277 5.154147,-8.016867 7.788712,-11.683534 2.634564,-3.666666 5.437167,-7.839645 6.228017,-9.273285 0.79084,-1.433642 3.48955,-4.254699 5.99712,-6.269018 3.72502,-2.99228 6.12917,-3.735157 13.13945,-4.060048 8.11982,-0.376312 8.69101,-0.203658 10.64473,3.217599 1.98162,3.470123 1.8996,3.791263 -2.04366,8 -3.61281,3.85605 -12.03252,17.668222 -24.88297,40.819424 -2.16795,3.905736 -4.92195,7.446936 -6.12002,7.869333 -1.198064,0.422398 -3.122151,1.573724 -4.275747,2.558504 -1.153594,0.98478 -5.053594,2.188344 -8.666666,2.674587 -7.810302,1.051103 -11.116407,2.976808 -14.266782,8.309967 -2.705538,4.580111 -2.638333,4.628264 8.691574,6.227485 4.908769,0.692875 7.216346,1.905623 10.292598,5.40928 4.295754,4.892595 6.115839,5.391045 9.713393,2.660115 3.13262,-2.378001 2.95585,-7.050288 -0.33334,-8.810608 -3.177551,-1.700576 -3.530657,-6.418814 -0.56552,-7.556643 3.13612,-1.203443 22.80453,4.581587 31.20875,9.179367 9.65157,5.280184 16.52303,11.940614 22.12829,21.448714 3.82374,6.48611 4.56182,9.0295 4.56182,15.71978 0,15.75534 -10.56802,27.58996 -20.08766,22.49521 -3.57609,-1.91387 -3.22301,-5.89109 0.75432,-8.49715 3.5866,-2.35002 4.3608,-6.29245 1.66667,-8.48709 -0.91667,-0.74672 -5.89871,-2.00733 -11.07119,-2.80135 -10.92512,-1.6771 -17.33391,-4.51451 -19.42944,-8.60214 -0.81731,-1.59428 -3.33172,-4.8487 -5.58758,-7.23203 -5.052021,-5.33749 -9.874846,-5.65195 -14.308155,-0.93291 l -3.194536,3.40043 2.949364,5.59957 c 2.184077,4.14663 2.739462,6.86589 2.140417,10.47988 -0.65292,3.93902 -0.264709,5.3463 2.012753,7.29632 3.88379,3.3254 3.782099,9.55727 -0.1783,10.92679 -1.65,0.57057 -20.1,1.18269 -41,1.36025 -33.056524,0.28084 -38.390274,0.0451 -41,-1.81268 z"
       id="path646" />
  </g>
</svg>
