<?xml version="1.0" encoding="UTF-8" standalone="no"?>
<!-- Created with Inkscape (http://www.inkscape.org/) -->

<svg
   version="1.1"
   id="svg32"
   width="165.33333"
   height="160"
   viewBox="0 0 165.33333 160"
   xmlns="http://www.w3.org/2000/svg"
   xmlns:svg="http://www.w3.org/2000/svg">
  <defs
     id="defs36" />
  <g
     id="g38">
    <path
       style="fill:#000000;stroke-width:1.33333"
       d="m 7.8725702,150.42856 c -2.0324237,-3.79761 -0.4672935,-6.61408 6.4936158,-11.68532 3.465264,-2.52456 7.881824,-6.02103 9.814579,-7.76996 4.589032,-4.15254 10.95056,-3.73161 11.588253,0.76678 0.239627,1.69037 -0.176052,3.81049 -0.923731,4.71138 -2.662969,3.20868 0.471382,5.05111 7.86884,4.62543 6.73694,-0.38768 7.187355,-0.63896 8.201812,-4.57586 1.891448,-7.3403 2.710813,-7.53313 34.938702,-8.2224 l 29.743719,-0.63615 2.15693,3.07945 c 1.91262,2.73065 2.55324,2.89889 5.6558,1.48527 3.59774,-1.63924 9.27322,-5.978 20.76439,-15.87385 3.6191,-3.11666 7.71732,-5.66666 9.10712,-5.66666 6.58233,0 9.30117,10.87292 2.94401,11.77338 -1.70869,0.24203 -4.15495,1.48828 -5.43612,2.76945 -1.28117,1.28117 -5.08459,3.66317 -8.45205,5.29333 -3.36746,1.63016 -6.84467,3.8339 -7.72714,4.89721 -0.88246,1.06331 -2.36683,1.93329 -3.29858,1.93329 -2.70904,0 -3.39283,3.66804 -0.80971,4.34354 1.27517,0.33346 6.96775,0.38973 12.65019,0.12506 12.70337,-0.59174 15.82541,0.76283 15.258,6.62003 L 158,152.66667 83.613101,152.81225 C 11.85768,152.95271 9.1783193,152.86837 7.8725702,150.42856 Z M 119.89553,69.554875 c -9.48851,-6.019284 -14.53091,-19.257227 -10.40221,-27.309196 2.07685,-4.050346 9.37745,-11.579012 11.22825,-11.579012 2.51038,0 6.3297,-5.07456 5.48198,-7.283674 -0.58773,-1.531609 -2.82632,-2.04966 -8.85696,-2.04966 -7.3459,0 -8.20879,-0.303674 -9.61164,-3.382586 -1.27411,-2.796382 -1.14546,-3.778419 0.74237,-5.666667 1.94772,-1.948156 5.4632,-2.3170555 23.90312,-2.5082936 24.34969,-0.2525275 28.12352,0.7551926 27.36673,7.3077016 -0.37351,3.233992 -0.99855,3.617445 -6.41384,3.934803 -14.20875,0.832692 -15.58208,3.702018 -5.46476,11.417585 8.26591,6.303659 11.39229,12.540137 10.29601,20.538373 -1.62488,11.854714 -9.07701,18.238399 -22.83125,19.557822 -8.77274,0.841554 -9.69999,0.662734 -15.4378,-2.977196 z M 8.3544588,70.400744 C 6.5671951,68.213991 6.2646841,62.276916 6.4876048,33.761905 6.6240995,16.302135 7.1021917,10.421618 8.4987356,9.0250737 10.914201,6.6096088 66.045955,7.1583368 69.02106,9.6274543 c 1.575103,1.3072197 1.762039,6.3786177 1.109151,30.0902697 -0.431876,15.684939 -1.123262,29.065017 -1.536411,29.733507 -0.828376,1.340342 -32.449225,1.69887 -35.818085,0.406117 -2.541521,-0.975273 -2.638553,-7.116985 -0.355657,-22.511667 1.181044,-7.964362 2.128192,-10.75841 3.751437,-11.066598 4.26613,-0.809967 6.495171,3.424986 6.495171,12.34017 0,9.3844 0.613676,10.047414 9.299732,10.047414 3.403796,0 5.348849,-0.696359 5.890949,-2.10905 0.445125,-1.159978 0.809318,-9.538868 0.809318,-18.619756 0,-14.959041 -0.242373,-16.640418 -2.579011,-17.890949 -1.418456,-0.759135 -9.74499,-1.380245 -18.503407,-1.380245 -12.557784,0 -16.27677,0.424586 -17.591163,2.008333 -1.263604,1.522549 -1.453751,7.08588 -0.78611,23 0.674958,16.088479 0.473912,21.77026 -0.860718,24.325 -1.954247,3.740803 -7.757017,5.135043 -9.9917972,2.400744 z"
       id="path507" />
  </g>
</svg>
