<?xml version="1.0" encoding="UTF-8" standalone="no"?>
<!-- Created with Inkscape (http://www.inkscape.org/) -->

<svg
   version="1.1"
   id="svg42"
   width="174.66667"
   height="165.33333"
   viewBox="0 0 174.66667 165.33333"
   xmlns="http://www.w3.org/2000/svg"
   xmlns:svg="http://www.w3.org/2000/svg">
  <defs
     id="defs46" />
  <g
     id="g48">
    <path
       style="fill:#000000;stroke-width:1.33333"
       d="m 6.2511693,154.62064 c -1.6706767,-2.38523 -1.5541521,-3.91118 0.9652822,-12.64088 1.5759279,-5.46051 3.5969245,-10.65981 4.4911025,-11.55398 0.894179,-0.89418 1.62578,-2.32487 1.62578,-3.1793 0,-0.85444 1.243548,-3.13444 2.76344,-5.06667 3.899281,-4.95713 9.333154,-4.69183 14.373932,0.70179 3.709899,3.96958 4.177775,4.11612 8.037649,2.51731 3.589128,-1.48667 4.662644,-1.36475 8.638507,0.98106 4.467544,2.63592 4.601127,2.63845 8.363267,0.15815 4.691164,-3.09278 8.277096,-3.20546 12.301639,-0.38656 2.844148,1.99212 3.402924,1.97323 7.5403,-0.2549 3.781431,-2.03643 5.027828,-2.15161 8.106048,-0.74908 2.345731,1.06879 6.109715,1.34849 10.598854,0.78761 5.385083,-0.67282 7.74286,-0.35767 10.41294,1.39183 3.29419,2.15843 3.61364,2.13414 7.004,-0.53272 4.43462,-3.48827 8.74674,-3.56711 11.78003,-0.21537 2.30628,2.54841 2.39511,2.54704 7.50375,-0.11573 4.78686,-2.49505 5.4739,-2.54298 9.27445,-0.64702 4.91948,2.45416 7.09628,1.82398 9.13186,-2.64367 1.18012,-2.59008 2.35227,-3.25225 5.1806,-2.92665 2.83266,0.32609 4.31443,1.77128 6.58338,6.42081 1.6104,3.3 4.4604,9.13896 6.33333,12.97545 4.40492,9.02295 4.486,14.58934 0.24068,16.52364 -4.60373,2.0976 -8.50268,-0.50202 -11.60389,-7.73684 -2.56951,-5.99443 -2.62356,-6.03041 -5.86551,-3.90621 -3.69448,2.42072 -8.13339,2.8049 -9.36592,0.81062 -1.23029,-1.99065 -5.91443,-1.60938 -8.19048,0.66667 -2.76316,2.76317 -8.01726,2.50113 -13.12317,-0.65451 -4.28851,-2.65044 -4.29874,-2.65044 -6.69736,0 -3.08601,3.41002 -8.16499,3.40402 -10.29842,-0.012 -1.97363,-3.16028 -5.376257,-3.45524 -7.690572,-0.66666 -2.146354,2.5862 -9.856409,2.58286 -12.004304,-0.005 -1.468374,-1.76928 -2.172758,-1.69085 -5.987305,0.66667 -5.128152,3.16936 -10.371634,3.44729 -12.675058,0.67184 -0.912918,-1.1 -2.412918,-2 -3.333333,-2 -0.920415,0 -2.420415,0.9 -3.333334,2 -2.177816,2.6241 -6.020128,2.53268 -10.740238,-0.25556 -3.586365,-2.11851 -3.969774,-2.11851 -6.31071,0 -3.068661,2.7771 -5.26188,2.82444 -11.431288,0.24669 l -4.8079,-2.00887 -1.880754,4.50128 c -3.4286,8.20579 -12.115462,11.55638 -15.9112747,6.1371 z M 148,110.50534 c -1.83333,-0.7291 -5.73333,-2.4652 -8.66666,-3.858 -9.39106,-4.45905 -22.78766,-9.314009 -25.70073,-9.314009 -1.55366,0 -5.70658,1.539287 -9.22872,3.420639 -4.16671,2.22565 -7.634309,3.17899 -9.925948,2.72892 C 92.540808,103.10245 84.740808,98.672726 77.144608,93.639069 65.271653,85.7714 55.959068,80.006529 45.228386,73.881624 c -1.398845,-0.798439 -3.644732,-2.448439 -4.990859,-3.666667 -1.346125,-1.218226 -3.057265,-2.214958 -3.80253,-2.214958 -0.745267,0 -2.49656,-1.261376 -3.891763,-2.803059 C 31.14803,63.655257 26.405038,60.756473 22.00325,58.755199 12.69429,54.522878 10.486935,52.308632 11.544643,48.263951 c 0.867988,-3.319189 4.74366,-3.836359 10.725953,-1.431269 2.051172,0.824641 4.929405,1.964846 6.396071,2.533786 1.466667,0.568942 5.366667,2.220828 8.666667,3.67086 3.3,1.450032 10.2,4.28757 15.333334,6.305637 11.89774,4.67736 19.320821,7.962519 29.333334,12.981759 4.4,2.205705 15.163604,6.340406 23.919118,9.188225 8.75552,2.847819 17.15552,5.959723 18.66667,6.915344 1.51115,0.95562 6.64755,3.101228 11.41421,4.768016 13.14148,4.595256 23.79054,9.667981 24.57226,11.705101 0.89189,2.32425 -3.8349,7.1253 -6.90559,7.01407 -1.28333,-0.0465 -3.83333,-0.68105 -5.66667,-1.41014 z M 5.9453561,42.57825 C 4.1985663,39.751885 5.1260444,32.199513 7.9206379,26.493706 16.553711,8.8672966 17.713404,7.3571204 22.94973,6.9225099 c 4.569435,-0.3792594 5.10386,-0.041937 6.955817,4.3904211 2.003519,4.795097 2.011171,4.798617 5.975335,2.748667 4.482245,-2.317859 9.68458,-1.125901 11.831756,2.710892 1.159008,2.07103 1.483698,2.031175 4.006696,-0.491824 5.47532,-5.47532 8.22261,-6.158412 12.386607,-3.079836 4.645692,3.434708 4.591968,3.434595 8.009604,0.01696 3.003683,-3.003682 8.214365,-2.675572 11.703863,0.736977 1.517478,1.484014 2.785552,1.450086 7.641331,-0.204443 5.50738,-1.876553 6.015086,-1.831787 9.397191,0.828577 l 3.57527,2.812305 2.86933,-2.695602 c 3.6567,-3.435288 8.72813,-3.437406 13.09113,-0.0055 2.24884,1.768932 3.72451,2.197352 4.30933,1.251089 1.89388,-3.064352 7.52506,-4.098492 10.76341,-1.976647 4.46059,2.922689 6.1873,2.483094 9.22783,-2.34927 3.53193,-5.6133617 10.46965,-6.1079456 13.30692,-0.948641 4.60293,8.369966 8.66552,19.384697 8.66552,23.494457 0,10.820603 -11.70245,12.326593 -13.81228,1.777504 -0.97447,-4.872377 -4.12472,-6.345597 -7.34237,-3.433669 -2.93707,2.658017 -7.99199,2.722649 -11.39739,0.145725 -2.26256,-1.712118 -3.03662,-1.631688 -6.82404,0.709071 -5.39138,3.332051 -9.24795,3.349553 -12.54059,0.05691 -1.42083,-1.420834 -2.78373,-1.982128 -3.02867,-1.247322 -0.24493,0.734806 -2.85733,1.659527 -5.80532,2.054936 -3.94691,0.529392 -5.82783,0.155207 -7.134588,-1.419345 -2.229425,-2.686288 -5.947503,-2.749641 -8.114754,-0.138264 -2.170385,2.615155 -6.016933,2.534569 -10.686624,-0.223884 -3.514879,-2.076289 -3.989992,-2.076289 -7.158811,0 -4.211025,2.759169 -7.981473,2.842299 -10.154565,0.223884 -0.912919,-1.1 -2.712919,-2 -4,-2 -1.287082,0 -3.087082,0.9 -4,2 -2.2153,2.669273 -7.273391,2.536133 -10.074711,-0.265187 -2.131362,-2.131361 -2.560591,-2.095176 -7.265263,0.61249 -4.373224,2.516908 -5.544116,2.675522 -9.339623,1.265188 -3.822953,-1.420535 -4.516972,-1.317528 -5.829976,0.865285 -4.249713,7.064976 -6.44192,8.855557 -10.841846,8.855557 -2.4701618,0 -4.8866138,-0.639787 -5.3698929,-1.421749 z"
       id="path368" />
  </g>
</svg>
