<?xml version="1.0" encoding="UTF-8" standalone="no"?>
<!-- Created with Inkscape (http://www.inkscape.org/) -->

<svg
   version="1.1"
   id="svg52"
   width="157.33333"
   height="158.66667"
   viewBox="0 0 157.33333 158.66667"
   xmlns="http://www.w3.org/2000/svg"
   xmlns:svg="http://www.w3.org/2000/svg">
  <defs
     id="defs56" />
  <g
     id="g58">
    <path
       style="fill:#000000;stroke-width:1.33333"
       d="m 138.34085,150.33334 c -1.77921,-1.36727 -2.24133,-4.9705 -2.57253,-20.0583 -0.43931,-20.0125 -0.14351,-20.87967 7.13644,-20.92129 5.79433,-0.0331 7.73014,3.11852 8.03085,13.07482 C 151.66645,146.62638 150.28498,152 143.33333,152 c -1.55301,0 -3.79963,-0.75 -4.99248,-1.66666 z M 20.999909,148.50262 c -5.611816,-2.94034 -4.758864,-7.02666 3.00009,-14.37283 3.666667,-3.4716 6.666667,-7.04474 6.666667,-7.94031 0,-0.89558 -4.139477,-3.86414 -9.198837,-6.59682 -9.950688,-5.37459 -11.036352,-6.68397 -9.335593,-11.25932 1.418729,-3.81665 6.13959,-3.93585 13.201097,-0.33334 10.137228,5.17163 11.948281,3.44852 11.981793,-11.399998 0.01873,-8.303028 1.476692,-11.266667 5.542601,-11.266667 4.717159,0 6.420008,4.971862 5.553111,16.213575 -0.800051,10.37484 -0.782148,10.45278 2.391538,10.41148 1.758692,-0.0229 5.597623,-1.51981 8.530956,-3.3265 8.77588,-5.40521 16.132384,-3.63795 15.102352,3.62806 -0.297243,2.0968 -2.13039,3.83552 -5.769019,5.47188 -15.085697,6.78429 -15.459973,7.81697 -6.10204,16.83649 3.778611,3.64196 6.768707,7.72179 6.768707,9.23554 0,2.82944 -4.57672,6.86281 -7.787321,6.86281 -2.47475,0 -10.786495,-7.34656 -14.604637,-12.90871 -2.620707,-3.81776 -3.442688,-4.25016 -5.741098,-3.02008 -1.47536,0.78959 -4.298978,3.74031 -6.274707,6.55715 -1.975731,2.81685 -5.092278,6.02315 -6.92566,7.12512 -2.918355,1.75409 -3.789978,1.76437 -7,0.0824 z M 27.053493,53.379312 C 11.997643,52.418009 8.8435647,50.865504 6.8643661,43.441781 4.8629499,35.934723 9.0652399,28.572295 17.275558,25.201335 20.817838,23.746959 124.8149,23.373103 128.53689,24.801366 c 2.43234,0.933377 2.77357,4.83766 0.75282,8.613481 -1.3304,2.485866 -3.12172,2.557467 -52.973474,2.117402 C 47.938154,35.281742 23.657785,35.354485 22.359861,35.693899 21.061937,36.033315 20,37.097865 20,38.059567 c 0,2.949987 11.592465,3.511803 62.904296,3.048585 47.241854,-0.426476 49.032194,-0.536682 52.666664,-3.241919 7.36728,-5.483663 4.73764,-13.421496 -5.99021,-18.08213 -6.04767,-2.627364 -7.41977,-2.67176 -42.914085,-1.388537 C 66.499999,19.12465 40.699999,19.63391 29.333333,19.527254 L 8.6666665,19.333334 v -3.960623 c 0,-6.9479275 1.258557,-7.0966936 61.1563535,-7.2289083 58.36242,-0.1288253 69.07679,0.6084599 75.52048,5.1967733 7.70775,5.488403 10.09167,18.549257 5.21639,28.57926 -2.17287,4.470266 -10.77065,9.280842 -20.29219,11.353738 -6.9189,1.506288 -80.104636,1.581263 -103.214207,0.105734 z"
       id="path229" />
  </g>
</svg>
