<?xml version="1.0" encoding="UTF-8" standalone="no"?>
<!-- Created with Inkscape (http://www.inkscape.org/) -->

<svg
   version="1.1"
   id="svg62"
   width="165.33333"
   height="154.66667"
   viewBox="0 0 165.33333 154.66667"
   xmlns="http://www.w3.org/2000/svg"
   xmlns:svg="http://www.w3.org/2000/svg">
  <defs
     id="defs66" />
  <g
     id="g68">
    <path
       style="fill:#000000;stroke-width:1.33333"
       d="m 74.178664,146.33334 c -2.680037,-4.27028 -1.140413,-37.8269 1.821334,-39.6966 2.817851,-1.77887 7.081842,-1.60209 9.830166,0.40753 1.968617,1.43949 2.446197,4.59073 3.010193,19.86228 0.656103,17.76553 0.60548,18.19677 -2.381679,20.28907 -4.451684,3.11808 -10.027658,2.72654 -12.280014,-0.86228 z M 14.666666,98.814585 C 7.2829141,97.727007 5.3333332,96.574923 5.3333332,93.299153 c 0,-6.427927 26.0368638,-28.766984 37.3333328,-32.031178 2.566666,-0.741658 28.066666,-1.702472 56.666665,-2.135144 50.040489,-0.757034 52.119429,-0.689594 55.169369,1.789678 3.54078,2.878256 3.10723,7.380799 -0.8868,9.209681 -1.25541,0.574861 -24.79415,1.08029 -52.30831,1.123174 l -50.025742,0.07797 -8.971274,4.415415 c -4.934201,2.428477 -9.623352,5.63383 -10.420335,7.123006 -1.444088,2.698303 -1.296558,2.706742 42.997017,2.45951 24.445341,-0.136447 52.097344,-0.864211 61.448904,-1.617255 19.21601,-1.547391 20.99717,-1.004289 20.99717,6.402339 0,3.082524 -0.817,4.893743 -2.64996,5.874712 -1.72833,0.924973 -24.56663,1.578569 -65.666668,1.879275 C 54.357516,98.123919 24.8,98.638959 23.333333,99.01487 21.866666,99.390781 17.966666,99.300653 14.666666,98.814585 Z M 62.446857,48.436097 c -1.220894,-0.323345 -2.507328,-1.337167 -2.858742,-2.252936 -1.214936,-3.166073 1.92416,-37.4689656 3.521836,-38.4853422 2.616352,-1.664416 8.470544,-1.1431911 10.170854,0.9055569 1.127831,1.358953 1.474852,7.1587553 1.163259,19.4416583 -0.392985,15.491382 -0.741779,17.722546 -3.032239,19.396624 -2.572929,1.880535 -4.719974,2.118696 -8.964968,0.994439 z m 24.879381,-1.300332 c -1.319936,-1.319936 -1.899154,-3.320515 -1.447976,-5.001199 0.413595,-1.540677 0.760183,-9.564095 0.770196,-17.829817 0.01792,-14.7924867 0.07141,-15.0528299 3.40526,-16.5718304 2.305177,-1.0503089 4.541084,-1.1357569 7,-0.2675139 l 3.612942,1.2757311 -0.46536,17.9627662 c -0.290025,11.19484 -1.043575,18.528355 -1.999998,19.463899 -2.870951,2.808271 -8.53097,3.312056 -10.875064,0.967964 z"
       id="path90" />
  </g>
</svg>
