<?xml version="1.0" encoding="UTF-8" standalone="no"?>
<!-- Created with Inkscape (http://www.inkscape.org/) -->

<svg
   version="1.1"
   id="svg2"
   width="162.66667"
   height="154.66667"
   viewBox="0 0 162.66667 154.66667"
   xmlns="http://www.w3.org/2000/svg"
   xmlns:svg="http://www.w3.org/2000/svg">
  <defs
     id="defs6" />
  <g
     id="g8">
    <path
       style="fill:#000000;stroke-width:1.33333"
       d="m 54.558469,145.37088 c -2.159096,-1.88025 -2.254772,-4.18444 -1.239343,-29.8473 0.697254,-17.621607 1.657235,-28.367914 2.620383,-29.33333 0.978092,-0.980393 9.257119,-1.67332 23.221727,-1.943583 18.666545,-0.361261 21.951034,-0.1196 23.484284,1.727855 1.25138,1.507812 2.17744,10.298545 3.10768,29.499898 1.11419,22.99854 1.02707,27.638 -0.54738,29.14862 -1.37927,1.32335 -7.988046,1.9268 -25.090058,2.29098 -19.416254,0.41346 -23.600646,0.16081 -25.557293,-1.54314 z M 16.722252,48.391685 C 6.4737436,47.810442 4.0000001,46.542542 4.0000001,41.870981 c 0,-2.193531 1.3021441,-3.803016 4.3333334,-5.356116 2.3833335,-1.221156 4.7705055,-2.886564 5.3048265,-3.700907 0.776435,-1.183339 4.366868,-12.155758 8.446936,-25.8139578 0.645907,-2.162201 7.848845,-2.162201 9.621281,0 0.751425,0.9166666 2.062848,4.2717388 2.914272,7.4557158 2.699966,10.096766 3.996844,11.907253 9.206113,12.852055 2.661948,0.482798 7.088102,2.416407 9.835898,4.296912 l 4.995992,3.419099 40.337342,-0.981384 c 22.185536,-0.53976 40.752366,-1.233908 41.259626,-1.542549 0.50726,-0.308642 1.34326,-4.83337 1.85778,-10.054953 0.62662,-6.359176 1.72019,-10.278483 3.3121,-11.870391 2.46908,-2.4690747 6.8063,-2.1964715 9.06229,0.569582 2.00284,2.455672 2.486,35.080591 0.54824,37.019186 -1.27991,1.280457 -6.87228,1.298588 -26,0.08429 C 88.049555,45.645602 56.69063,44.906569 51.80171,46.427389 46.305348,48.13717 29.161294,49.097161 16.722252,48.391682 Z M 28.776665,34.842247 c -5.044161,-1.09214 -5.665118,-3.270758 -1.813602,-6.362998 2.833232,-2.274699 2.954602,-2.864271 1.471062,-7.145915 -1.182342,-3.412356 -1.637172,-3.881475 -1.692202,-1.745356 -0.04139,1.606721 -0.607238,3.250093 -1.257438,3.65194 -1.541303,0.952577 -3.18435,9.754999 -2.137134,11.449429 0.445515,0.72086 2.724618,1.239664 5.064672,1.1529 l 4.254644,-0.157753 z"
       id="path477" />
  </g>
</svg>
