<?xml version="1.0" encoding="UTF-8" standalone="no"?>
<!-- Created with Inkscape (http://www.inkscape.org/) -->

<svg
   version="1.1"
   id="svg12"
   width="162.66667"
   height="156"
   viewBox="0 0 162.66667 156"
   xmlns="http://www.w3.org/2000/svg"
   xmlns:svg="http://www.w3.org/2000/svg">
  <defs
     id="defs16" />
  <g
     id="g18">
    <path
       style="fill:#000000;stroke-width:1.33333"
       d="m 117.22887,148.22155 c -9.48852,-6.0193 -14.53091,-19.25724 -10.40221,-27.3092 2.07684,-4.05035 9.37744,-11.57902 11.22825,-11.57902 2.51038,0 6.3297,-5.07456 5.48198,-7.28367 C 122.94916,100.51805 120.71056,100 114.67993,100 c -7.3459,0 -8.20879,-0.303675 -9.61164,-3.382587 -1.27412,-2.796381 -1.14547,-3.778418 0.74236,-5.666666 1.94773,-1.948156 5.46321,-2.317056 23.90313,-2.508294 24.34969,-0.252528 28.12352,0.755192 27.36673,7.307702 -0.37351,3.233992 -0.99855,3.617445 -6.41384,3.934802 -14.20875,0.832693 -15.58208,3.702023 -5.46476,11.417583 8.26591,6.30366 11.39229,12.54014 10.29601,20.53838 -1.62488,11.85471 -9.07701,18.2384 -22.83125,19.55781 -8.77274,0.84156 -9.69999,0.66274 -15.4378,-2.97718 z M 31.028443,143.99843 C 25.405854,141.68096 13.993292,131.68344 10,125.57729 6.3009576,119.92108 6.0000001,118.55321 6.0000001,107.39711 c 0,-10.792429 0.3908224,-12.728634 3.7085005,-18.372587 4.8016954,-8.168527 7.3999754,-9.434396 17.9817084,-8.760603 7.735146,0.492537 9.070449,1.009253 12.485629,4.831503 3.086739,3.45466 3.824163,5.51666 3.824163,10.693194 0,7.574953 -3.433063,11.716533 -10.730767,12.945373 -11.419908,1.92296 -10.961199,1.60295 -9.958559,6.94749 1.125768,6.00086 4.630802,11.26122 12.35868,18.54793 6.539759,6.16643 7.170053,10.25334 1.652578,10.71554 -1.827063,0.15305 -4.659134,-0.27288 -6.29349,-0.94652 z M 69.703573,30.333333 c -0.709286,-0.916666 -1.663922,-2.716666 -2.121413,-4 -0.953775,-2.675493 -5.328243,-2.801352 -38.915493,-1.119646 -11,0.550768 -21.0500002,0.481892 -22.3333335,-0.153058 C 3.3032067,23.561428 3.3532833,19.665237 6.4385653,16.873096 8.5298386,14.98052 12.883745,14.638355 37.010207,14.470531 52.4834,14.362899 65.636047,13.912997 66.238309,13.470751 66.840573,13.028505 67.997644,11.466667 68.809579,10 c 2.066212,-3.7323757 5.582257,-4.0563619 9.015756,-0.8307571 2.894981,2.7196931 2.935237,2.7207581 4.559017,0.1206734 2.591826,-4.1501715 8.141499,-3.4251272 9.780965,1.2778467 l 1.359929,3.901096 27.570714,-0.550134 c 15.16388,-0.302574 28.55592,-0.238195 29.76008,0.143064 2.4496,0.775589 4.01732,5.181476 2.8895,8.120553 -0.58496,1.524387 -3.27215,1.844561 -12.9088,1.538064 -6.69354,-0.21289 -19.99071,-0.237073 -29.54926,-0.05374 L 93.908289,24 91.54543,28 c -2.76179,4.675339 -6.580748,5.161391 -9.361396,1.191459 l -1.967179,-2.80854 -2.404748,2.80854 c -2.700311,3.153733 -6.173379,3.642824 -8.108534,1.141874 z"
       id="path338" />
  </g>
</svg>
