<?xml version="1.0" encoding="UTF-8" standalone="no"?>
<!-- Created with Inkscape (http://www.inkscape.org/) -->

<svg
   version="1.1"
   id="svg22"
   width="76"
   height="153.33333"
   viewBox="0 0 76 153.33333"
   xmlns="http://www.w3.org/2000/svg"
   xmlns:svg="http://www.w3.org/2000/svg">
  <defs
     id="defs26" />
  <g
     id="g28">
    <path
       style="fill:#000000;stroke-width:1.33333"
       d="m 26.269487,144.0771 c -1.880204,-2.23449 -3.83961,-5.38934 -4.354235,-7.01078 -0.514624,-1.62144 -3.297529,-6.40819 -6.184233,-10.63721 -3.666613,-5.37158 -5.120326,-8.80533 -4.82312,-11.39245 0.380174,-3.30935 1.015969,-3.74635 5.976296,-4.10767 6.337526,-0.46164 6.693581,-0.11091 15.29998,15.07101 2.910008,5.13333 6.309026,10.97816 7.553374,12.98849 3.010739,4.86408 0.963666,8.20393 -5.361898,8.74809 -3.849682,0.33116 -5.298691,-0.32298 -8.106164,-3.65948 z m 26.666666,0 c -1.880204,-2.23449 -3.839609,-5.38934 -4.354234,-7.01078 -0.514624,-1.62144 -3.29753,-6.40819 -6.184234,-10.63721 -3.666612,-5.37158 -5.120325,-8.80533 -4.823118,-11.39245 0.380173,-3.30935 1.015968,-3.74635 5.976294,-4.10767 6.337527,-0.46164 6.693582,-0.11092 15.29998,15.07101 2.910008,5.13333 6.309027,10.97816 7.553375,12.98849 3.010739,4.86408 0.963665,8.20393 -5.361899,8.74809 -3.849681,0.33116 -5.29869,-0.32298 -8.106164,-3.65948 z M 9.939394,64.727272 c -1.8,-1.8 -3.2727273,-4.228993 -3.2727273,-5.397761 0,-1.16877 4.5000003,-6.509729 10.0000003,-11.8688 5.5,-5.359071 10,-10.7639 10,-12.010733 0,-2.282027 -3.879515,-6.357113 -14.333334,-15.055892 C 9.2166667,17.800661 6.6666667,15.09177 6.6666667,14.37433 c 0,-2.444365 8.2718973,-9.0409968 11.3370283,-9.0409968 2.105449,0 5.626945,2.9010017 11.329638,9.3333328 4.551044,5.133334 8.978927,9.333333 9.839739,9.333333 0.860812,0 5.749021,-4.223295 10.862688,-9.385101 C 57.92598,6.6503989 59.934201,5.2880892 63.302928,5.6148987 68.818113,6.1499419 71.230356,11.04237 68.54212,16.240846 67.472956,18.308381 66.152561,20 65.607908,20 63.966715,20 50.666667,33.613446 50.666667,35.293313 c 0,2.254985 9.23237,12.706686 11.224282,12.706686 2.686752,0 8.560048,9.20338 7.779096,12.189745 -0.94185,3.601645 -6.27335,6.888324 -9.50837,5.861568 C 58.712117,65.59124 53.268079,60.891484 48.063811,55.607408 l -9.462306,-9.607409 -10.360482,11 c -5.698267,6.05 -11.410878,11 -12.694694,11 -1.283814,0 -3.806935,-1.472727 -5.606935,-3.272727 z"
       id="path199" />
  </g>
</svg>
