<?xml version="1.0" encoding="UTF-8" standalone="no"?>
<!-- Created with Inkscape (http://www.inkscape.org/) -->

<svg
   version="1.1"
   id="svg32"
   width="165.33333"
   height="156"
   viewBox="0 0 165.33333 156"
   xmlns="http://www.w3.org/2000/svg"
   xmlns:svg="http://www.w3.org/2000/svg">
  <defs
     id="defs36" />
  <g
     id="g38">
    <path
       style="fill:#000000;stroke-width:1.33333"
       d="m 8.5774764,148.93375 c -2.8137045,-1.57008 -2.3242049,-6.8146 0.9078835,-9.7271 2.5233491,-2.27384 4.7935931,-2.5132 21.6666661,-2.28433 11.616897,0.15757 17.56913,-0.17508 15.51464,-0.86709 -1.833334,-0.61751 -6.368656,-1.18256 -10.078493,-1.25566 -8.281472,-0.16317 -12.637928,-2.83798 -10.404399,-6.38814 1.203453,-1.91288 2.99524,-2.34657 8.666667,-2.09771 15.658965,0.68711 21.118313,1.83215 25.229731,5.29168 3.808489,3.20463 4.631025,3.35472 13.652903,2.49128 5.280141,-0.50535 21.000256,-1.18871 34.933585,-1.51859 13.93334,-0.32988 27.27604,-0.92072 29.65047,-1.31298 4.47157,-0.73871 7.17059,-3.98206 6.8048,-8.17719 -0.87452,-10.02964 2.22769,-14.98707 8.19356,-13.09358 3.30125,1.04778 3.63119,2.47386 4.68157,20.23553 0.8043,13.60029 0.66872,15.00494 -1.55805,16.1425 -1.49189,0.76215 -20.03175,0.8341 -47.74328,0.18531 -40.785759,-0.95489 -45.767971,-0.84065 -49.953517,1.14552 -3.722066,1.76624 -8.997203,2.21525 -26.451587,2.25151 -11.991286,0.0249 -22.6622042,-0.43452 -23.7131496,-1.02096 z M 20.666666,101.32809 C 10.88273,100.50635 9.6620399,99.77472 8.59626,94.093624 7.3776637,87.597947 9.6711585,84.243568 15.670629,83.746917 L 20.666666,83.333333 21.040337,65.43152 C 21.330662,51.522665 20.95891,46.570671 19.37367,43.230015 18.251485,40.865184 17.333333,38.271 17.333333,37.465161 17.333333,36.659323 15.94801,36 14.25484,36 12.561668,36 10.045,35.17274 8.6622454,34.161645 6.3074765,32.439796 6.2856033,32.113503 8.3171057,29.013039 9.5100338,27.1924 12.29407,25.341185 14.503853,24.899229 18.739762,24.052048 21.242714,20.690619 22.619525,14 c 0.633025,-3.076191 1.546784,-4 3.956486,-4 1.723347,0 3.551406,0.9 4.062354,2 5.315074,11.442624 6.205433,12.691169 9.361634,13.127757 7.576952,1.048099 9.455488,7.714479 2.562368,9.093103 -2.820049,0.564009 -4.491725,1.909495 -5.342466,4.3 -0.680994,1.913527 -2.095239,5.005999 -3.14277,6.87216 -1.7439,3.106735 -2.45752,13.984363 -2.165202,33.003936 l 0.08807,5.730291 8.333334,-0.396958 8.333333,-0.396956 0.377422,-15.044996 C 49.340579,56.469453 48.983195,52.617559 47.377422,50.324996 44.086955,45.627197 44.72215,38.040489 48.619755,35.48668 c 4.51704,-2.959679 10.947056,-2.787456 12.619753,0.338009 0.733333,1.370246 0.973169,2.851522 0.532968,3.291723 -0.440201,0.440201 0.180909,2.297981 1.380245,4.128399 2.734876,4.17395 2.73815,4.131882 -0.56061,7.205144 -2.366916,2.205118 -2.818411,4.567906 -3.306524,17.303932 -0.633496,16.529346 -1.017196,15.879549 9.720068,16.460976 3.119777,0.168937 6.266227,-0.286747 6.992113,-1.012632 0.742697,-0.742698 1.361757,-9.950834 1.415768,-21.058683 0.07992,-16.436011 -0.266303,-20.139209 -2.06911,-22.131288 -1.190797,-1.315817 -2.62333,-4.106864 -3.183406,-6.202327 -0.732819,-2.741765 -1.89606,-3.855388 -4.149036,-3.972061 -4.106287,-0.212648 -6.988301,-4.101264 -5.332555,-7.195056 0.683526,-1.277179 3.599151,-3.264977 6.479168,-4.417332 3.757218,-1.50334 6.127097,-3.714313 8.389545,-7.827004 2.350012,-4.2718624 4.082514,-5.8392587 6.801858,-6.1536473 2.906666,-0.3360456 3.919997,0.2917174 4.982685,3.0867994 0.733689,1.9297486 1.33398,4.8681859 1.33398,6.5298609 0,1.991684 1.249489,3.60502 3.666666,4.734387 2.016667,0.942237 4.566667,2.159017 5.666667,2.703955 3.497442,1.732626 2.339202,5.770053 -2,6.971657 -2.392863,0.662628 -5.185916,2.981333 -6.951624,5.77102 -2.633745,4.161121 -3.024954,6.952183 -3.63252,25.915995 -0.523709,16.346468 -0.282512,21.651498 1.044824,22.980402 1.13221,1.133547 4.330385,1.570678 9.299185,1.271024 l 7.573467,-0.456732 V 67.984653 c 0,-12.243012 -0.49398,-16.629254 -2.2094,-19.618201 -2.78438,-4.851508 -1.59995,-10.222925 2.90511,-13.174753 2.81008,-1.841236 3.94104,-1.918138 7.36312,-0.500667 6.86798,2.844812 8.74757,10.229115 4.10576,16.130217 -2.13062,2.708652 -2.47702,5.358079 -2.33333,17.846479 l 0.16874,14.665605 8,0.765994 c 4.4,0.421296 8.75,0.507102 9.66667,0.190681 1.22856,-0.424084 1.66666,-5.575272 1.66666,-19.596503 0,-16.249937 -0.39646,-19.91746 -2.72122,-25.172968 -1.49667,-3.383477 -3.89667,-6.780858 -5.33333,-7.549734 -3.99446,-2.137772 -3.19109,-5.90139 1.72122,-8.063514 3.02068,-1.329534 4.79023,-3.320913 5.84164,-6.573956 1.25475,-3.882138 2.14416,-4.666666 5.29061,-4.666666 3.24283,0 3.98556,0.724418 5.2073,5.078877 1.55134,5.529237 3.73553,7.535789 8.23726,7.567372 1.75048,0.01227 3.25552,1.108559 3.77683,2.751068 0.96216,3.031489 -1.32324,6.602683 -4.22541,6.602683 -1.03323,0 -2.26188,1.05 -2.73036,2.333333 -0.46848,1.283333 -1.94966,3.764248 -3.2915,5.513145 C 144.33934,45.25066 144,48.327763 144,64.635428 V 83.5779 l 5.39468,1.616285 c 5.67293,1.699651 8.97725,6.176079 7.46601,10.114326 -0.45276,1.179876 -3.0046,3.056676 -5.67076,4.170665 -4.05424,1.693974 -14.47631,2.065974 -63.685404,2.273134 -32.360823,0.13623 -62.43786,-0.0547 -66.83786,-0.42422 z"
       id="path60" />
  </g>
</svg>
