<?xml version="1.0" encoding="UTF-8" standalone="no"?>
<!-- Created with Inkscape (http://www.inkscape.org/) -->

<svg
   version="1.1"
   id="svg2"
   width="160"
   height="152"
   viewBox="0 0 160 152"
   xmlns="http://www.w3.org/2000/svg"
   xmlns:svg="http://www.w3.org/2000/svg">
  <defs
     id="defs6" />
  <g
     id="g8">
    <path
       style="fill:#000000;stroke-width:1.33333"
       d="m 58.333333,138.91873 c -4.115281,-0.4817 -4.004902,0.44474 -3.683776,-30.91873 0.166616,-16.272829 2.479207,-22.750543 9.919531,-27.785228 3.881791,-2.626713 6.460945,-3.152436 16.353115,-3.333333 9.667434,-0.17679 12.561428,0.265176 16.36395,2.499074 8.024957,4.714483 9.000957,8.004076 9.757817,32.888567 0.76269,25.07608 0.26464,26.93092 -7.231229,26.93092 -9.333612,0 -9.259649,0.1702 -8.286016,-19.06713 0.646067,-12.7652 0.426043,-18.36128 -0.842313,-21.423363 -3.326981,-8.032042 -10.134239,-8.85968 -16.934937,-2.058982 l -4.650526,4.650525 0.386899,17.0404 c 0.212793,9.37222 -0.0256,17.70784 -0.529772,18.5236 -1.097281,1.77544 -5.586049,2.64326 -10.622743,2.05368 z M 32.666667,34.370088 C 29.733333,33.606676 22.833333,31.692289 17.333333,30.115895 7.3744851,27.261517 7.3316427,27.229525 6.92251,22.341799 6.5481035,17.868932 6.9129057,17.266235 11.037884,15.542709 16.617947,13.21121 37.017053,8.7107639 51.408493,6.6361549 62.918219,4.9769617 100.5254,5.741206 116,7.9487684 c 10.37987,1.480762 29.89047,5.8728526 35,7.8789566 2.86592,1.125215 3.66667,2.313648 3.66667,5.44187 0,5.108418 -2.92754,7.021618 -16.66667,10.89201 -9.98042,2.81154 -13.54032,3.023891 -55.333333,3.300682 -27.648099,0.18311 -46.698735,-0.233031 -50,-1.092199 z m 86.263293,-9.556727 c 9.3619,-1.909334 8.62777,-3.816245 -2.26329,-5.878972 -17.420455,-3.299365 -52.359443,-3.053821 -77.751807,0.546427 -5.246711,0.743903 -5.529544,0.971195 -3.220784,2.588313 C 37.935973,23.639413 50.17972,25.68572 66,27.13418 c 9.326032,0.853865 45.04251,-0.712195 52.92996,-2.320819 z"
       id="path505" />
  </g>
</svg>
