<?xml version="1.0" encoding="UTF-8" standalone="no"?>
<!-- Created with Inkscape (http://www.inkscape.org/) -->

<svg
   version="1.1"
   id="svg12"
   width="173.33333"
   height="164"
   viewBox="0 0 173.33333 164"
   xmlns="http://www.w3.org/2000/svg"
   xmlns:svg="http://www.w3.org/2000/svg">
  <defs
     id="defs16" />
  <g
     id="g18">
    <path
       style="fill:#000000;stroke-width:1.33333"
       d="m 139.05512,152.19655 c -4.55302,-2.67476 -11.07858,-6.51322 -14.50127,-8.52988 C 121.13117,141.65 117.8272,140 117.2117,140 c -0.6155,0 -3.9574,1.8 -7.42644,4 -8.97074,5.68908 -13.092829,5.29616 -21.723319,-2.07069 -3.911603,-3.3389 -9.275741,-7.2539 -11.920308,-8.70001 -2.644565,-1.44611 -8.4947,-5.16429 -13.000298,-8.26263 C 50.956696,116.58774 36.918469,108.00371 25.49373,101.94609 18.249461,98.10504 15.333333,95.826219 15.333333,94.006205 c 0,-4.777176 10.665443,-4.803334 21.277264,-0.05219 2.230838,0.998798 6.456069,2.558717 9.389402,3.466488 2.933333,0.90777 6.533333,2.38454 8,3.281717 1.466667,0.89717 7.166666,3.2834 12.666666,5.30274 5.5,2.01934 13.9,5.47403 18.666667,7.67709 4.766666,2.20306 11.366666,5.20768 14.666666,6.67694 3.300002,1.46925 7.500002,3.67774 9.333332,4.90774 3.00254,2.01444 7.40218,3.58248 17.33333,6.17764 1.83334,0.47907 4.2847,1.7038 5.44747,2.72162 3.18693,2.78962 18.25404,9.83401 21.03379,9.83401 2.65861,0 6.85208,3.94025 6.85208,6.43832 0,2.91352 -5.30367,6.89612 -9,6.75823 -2.01667,-0.0752 -7.39187,-2.32523 -11.94488,-5 z M 9.6257729,44.588095 C 5.9805302,42.034868 5.7913696,36.986525 9.1618114,32.205827 c 1.3723296,-1.946538 4.1116176,-7.13916 6.0873086,-11.53916 1.975689,-4.4 4.567552,-8.75 5.759694,-9.666667 3.456211,-2.6575629 8.195356,-1.9434273 11.619115,1.750869 2.995821,3.232546 3.463569,3.328762 8.641208,1.777503 4.971069,-1.489368 5.832939,-1.374615 9.381746,1.249131 4.812681,3.558169 5.608835,3.581156 7.706352,0.222497 1.871909,-2.997402 9.291009,-3.662322 13.819829,-1.238571 2.032228,1.087616 3.43064,0.928672 5.865433,-0.666666 4.035048,-2.643865 7.232459,-2.653955 10.972077,-0.03463 2.471667,1.731223 3.799014,1.803148 8.313752,0.4505 4.256524,-1.275285 6.026724,-1.259504 8.522084,0.07597 2.351,1.258218 3.84576,1.313027 5.89527,0.216167 4.18338,-2.238882 8.00403,-1.761792 9.58765,1.197224 1.69468,3.166539 4.36993,3.434064 6.66667,0.666667 1.95424,-2.354723 8.151,-2.648996 10.31037,-0.489623 2.10811,2.108107 5.50004,0.495204 6.94365,-3.301788 1.53292,-4.0318888 7.23983,-5.3461815 9.99494,-2.301821 1.09046,1.204955 2.9677,4.568869 4.17164,7.475362 1.20393,2.906495 3.32681,7.801618 4.71752,10.878051 3.2307,7.146795 3.2156,12.704748 -0.0425,15.653345 -4.16934,3.773207 -7.48684,1.569072 -11.05264,-7.343348 l -3.19805,-7.993266 -3.12644,2.711544 c -3.64284,3.15942 -4.39484,3.242228 -10.24209,1.127832 -3.71357,-1.342842 -4.75788,-1.241447 -6.86632,0.666666 -3.14575,2.846864 -7.45585,2.880727 -10.256,0.08057 -2.00418,-2.004184 -2.51609,-1.983318 -6.7065,0.273369 -4.26782,2.298376 -4.81038,2.312661 -9.15462,0.241037 -4.013719,-1.913986 -4.827427,-1.949757 -6.218707,-0.273368 -2.247449,2.708011 -6.137841,2.398474 -9.274215,-0.7379 -3.331889,-3.331889 -4.318014,-3.331889 -7.333333,0 -2.91756,3.223867 -7.605246,3.423611 -12.04691,0.51332 -3.025282,-1.98224 -3.547564,-1.98224 -6.572846,0 -4.090511,2.680207 -10.937463,2.786604 -13.514066,0.21 -1.958255,-1.958254 -5.866177,-1.456845 -5.866177,0.752666 0,1.615454 -10.236888,1.514516 -13.312049,-0.131267 -2.424602,-1.297607 -5.329029,1.123091 -10.021284,8.352248 -2.049596,3.157725 -6.421666,3.85932 -9.7075601,1.557789 z"
       id="path348" />
  </g>
</svg>
