<?xml version="1.0" encoding="UTF-8" standalone="no"?>
<!-- Created with Inkscape (http://www.inkscape.org/) -->

<svg
   version="1.1"
   id="svg22"
   width="116"
   height="150.66667"
   viewBox="0 0 116 150.66667"
   xmlns="http://www.w3.org/2000/svg"
   xmlns:svg="http://www.w3.org/2000/svg">
  <defs
     id="defs26" />
  <g
     id="g28">
    <path
       style="fill:#000000;stroke-width:1.33333"
       d="m 37,144.25207 c -4.115281,-0.48171 -4.004903,0.44473 -3.683776,-30.91873 0.166616,-16.272834 2.479207,-22.750547 9.919531,-27.785233 3.88179,-2.626713 6.460945,-3.152436 16.353114,-3.333333 9.667435,-0.17679 12.561428,0.265176 16.363951,2.499075 8.024953,4.714482 9.000953,8.004076 9.757815,32.888561 0.762688,25.07609 0.264644,26.93093 -7.231227,26.93093 -9.333612,0 -9.259649,0.1702 -8.286016,-19.06713 0.646067,-12.7652 0.426043,-18.36128 -0.842313,-21.42337 -3.326982,-8.032039 -10.134239,-8.859678 -16.934938,-2.05898 l -4.650525,4.65053 0.386899,17.0404 c 0.212793,9.37222 -0.0256,17.70784 -0.529772,18.5236 -1.097282,1.77544 -5.58605,2.64325 -10.622743,2.05368 z m 14.333333,-74.809546 -8,-0.775856 V 48.48968 c 0,-17.964717 -0.278492,-20.486514 -2.539984,-23.000001 -3.433844,-3.816476 -9.040172,-3.565091 -14.024382,0.628847 l -4.1023,3.451857 V 47.85186 c 0,12.441147 -0.511147,18.792621 -1.6,19.881475 C 18.727627,70.072375 9.9819609,69.721452 7.8932829,67.204748 6.6876547,65.752055 6.0441076,60.142335 5.8665633,49.538081 5.3125064,16.445718 11.251183,6.9517315 32.914937,6.2966483 c 10.337098,-0.31258 14.44635,1.1389056 21.418396,7.5654867 l 4.333334,3.994311 4.419786,-4.283827 c 11.039862,-10.7002552 35.49207,-9.0135394 43.439397,2.996455 2.96756,4.484574 3.22765,6.32818 3.69114,26.163859 0.49596,21.225118 0.48098,21.356976 -2.79858,24.636532 -3.5486,3.548602 -9.785802,4.396478 -12.485077,1.697203 -1.090248,-1.090248 -1.6,-7.477092 -1.6,-20.046911 0,-20.163274 -1.126318,-24.00942 -7.499417,-25.608966 -4.485231,-1.125721 -11.944045,3.523607 -13.110821,8.172412 -0.488287,1.945488 -0.468447,10.346975 0.04409,18.669971 1.307464,21.23182 1.143161,21.378916 -21.433855,19.18935 z"
       id="path644" />
  </g>
</svg>
