<?xml version="1.0" encoding="UTF-8" standalone="no"?>
<!-- Created with Inkscape (http://www.inkscape.org/) -->

<svg
   version="1.1"
   id="svg32"
   width="162.66667"
   height="85.333336"
   viewBox="0 0 162.66667 85.333336"
   xmlns="http://www.w3.org/2000/svg"
   xmlns:svg="http://www.w3.org/2000/svg">
  <defs
     id="defs36" />
  <g
     id="g38">
    <path
       style="fill:#000000;stroke-width:1.33333"
       d="m 7.2727275,75.393942 c -1.8000001,-1.8 -3.2727274,-4.228993 -3.2727274,-5.397761 0,-1.16877 4.5000001,-6.50973 9.9999999,-11.868801 C 19.5,52.76831 24,47.36348 24,46.116647 24,43.83462 20.120486,39.759533 9.6666669,31.060754 6.5500001,28.467329 4.0000001,25.758438 4.0000001,25.040998 4.0000001,22.596633 12.271898,16 15.337028,16 c 2.10545,0 5.626946,2.901002 11.329639,9.333334 4.551044,5.133334 8.978927,9.333334 9.839739,9.333334 0.860812,0 5.749022,-4.223296 10.862688,-9.385102 7.89022,-7.9645 9.898442,-9.32681 13.267169,-9 5.515185,0.535043 7.927428,5.427472 5.239192,10.625948 -1.069164,2.067535 -2.389559,3.759154 -2.934212,3.759154 -1.641194,0 -14.941242,13.613447 -14.941242,15.293313 0,2.254986 9.232371,12.706687 11.224283,12.706687 2.686752,0 8.560048,9.203381 7.779096,12.189746 -0.941851,3.601646 -6.273351,6.888324 -9.508371,5.861568 C 56.045452,76.25791 50.601413,71.558154 45.397145,66.274078 l -9.462306,-9.60741 -10.360482,11.000001 c -5.698267,6.05 -11.410878,11 -12.694694,11 -1.283814,0 -3.8069355,-1.472727 -5.6069355,-3.272727 z M 138.29391,73.000002 c -1.92705,-1.449509 -2.27541,-5.631713 -2.67359,-32.098039 -0.44186,-29.36999 -0.36312,-30.49771 2.2576,-32.3333346 3.80063,-2.6620631 12.27026,-2.4204591 15.12208,0.4313719 2.0856,2.0856037 2.32442,5.4319917 2.24934,31.5191597 -0.0829,28.789974 -0.1256,29.219474 -3.14772,31.666668 -3.51374,2.845256 -10.55544,3.260472 -13.80771,0.814174 z m -23.96057,-1.106798 c -1.96726,-1.145819 -2.35206,-3.492845 -2.45269,-14.959456 -0.0656,-7.480228 -0.56266,-20.800414 -1.10449,-29.600414 -0.91378,-14.841016 -0.79786,-16.169019 1.60039,-18.3333337 3.01637,-2.7221328 11.46911,-3.1095048 14.54716,-0.6666667 1.70228,1.3509904 2.26425,6.0861334 2.96697,25.0000004 0.4768,12.833334 1.21412,26.356195 1.63849,30.050801 0.72487,6.310897 0.55692,6.815267 -2.77487,8.333334 -4.28249,1.951233 -11.22732,2.035864 -14.42096,0.175735 z"
       id="path209" />
  </g>
</svg>
