<?xml version="1.0" encoding="UTF-8" standalone="no"?>
<!-- Created with Inkscape (http://www.inkscape.org/) -->

<svg
   version="1.1"
   id="svg42"
   width="141.33333"
   height="138.66667"
   viewBox="0 0 141.33333 138.66667"
   xmlns="http://www.w3.org/2000/svg"
   xmlns:svg="http://www.w3.org/2000/svg">
  <defs
     id="defs46" />
  <g
     id="g48">
    <path
       style="fill:#000000;stroke-width:1.33333"
       d="M 4.7194498,130.75208 C 3.9611246,129.52508 4.9675503,124.53905 8.1008427,114 10.179855,107.0071 11.904884,66.143922 10.669169,53.160452 10.136651,47.565365 10.072834,40.699717 10.527353,37.903456 c 0.786244,-4.837071 1.193567,-5.19311 8.382697,-7.327277 5.389507,-1.599929 7.967356,-1.832105 8.989791,-0.80967 2.326516,2.326516 1.844113,52.423864 -0.636782,66.129587 -2.695452,14.891044 -4.854601,20.261174 -11.638949,28.947804 -5.236977,6.7054 -9.113791,8.80586 -10.9046602,5.90818 z M 60.761904,103.2381 c -3.087803,-3.0878 -2.670191,-3.981067 3.571428,-7.639203 3.116666,-1.826641 7.830456,-5.333653 10.475088,-7.793363 2.644632,-2.459709 7.594631,-7.055232 10.999999,-10.212273 3.405368,-3.157043 6.191579,-6.843493 6.191579,-8.192113 0,-1.481698 -3.957269,-5.483058 -10,-10.111417 -5.5,-4.21266 -10.058114,-8.02621 -10.129144,-8.474555 -0.07103,-0.448347 -0.221029,-4.049511 -0.333333,-8.002587 -0.300765,-10.586872 2.289781,-11.620067 10.654714,-4.249451 3.560936,3.137658 8.27443,6.613035 10.474429,7.723063 2.2,1.110027 5.614182,3.527672 7.587066,5.372546 4.15846,3.888626 6.6803,3.379504 9.38144,-1.893979 6.77323,-13.22349 12.12943,-22.540593 13.41475,-23.334967 2.36624,-1.462416 3.61674,0.07379 3.61674,4.443061 0,2.226849 1.11493,5.64144 2.47763,7.587979 6.00777,8.581809 6.04208,8.317899 -2.53564,19.505102 -4.36809,5.696932 -7.94199,11.104243 -7.94199,12.016247 0,0.912004 1.2,3.183741 2.66667,5.048306 C 122.8,76.895061 124,78.748549 124,79.149357 c 0,0.400809 3,4.742044 6.66666,9.647188 6.56115,8.777281 8.03546,12.866785 5.25755,14.583625 -2.7144,1.6776 -7.29665,-0.82499 -11.7392,-6.411325 -2.4649,-3.099531 -7.47095,-8.191534 -11.12455,-11.315564 l -6.64291,-5.680055 -4.87544,3.730928 c -5.338306,4.085131 -15.821768,10.962515 -16.710587,10.962515 -0.30744,0 -4.509461,2.4 -9.337826,5.333331 -9.697732,5.89158 -11.649341,6.32055 -14.731793,3.2381 z M 39.301646,95.000002 c 1.293232,-14.613673 1.353086,-33.571775 0.142269,-45.061439 -1.29494,-12.287925 -0.364523,-14.150118 8.267739,-16.547542 8.857031,-2.45985 9.170702,-2.239403 9.878106,6.942313 C 60.322832,75.807058 53.079076,104 41.231562,104 c -2.555659,0 -2.676499,-0.56352 -1.929916,-8.999998 z M 92.102298,29.881475 c -3.635904,-3.05941 -4.1023,-4.259756 -4.1023,-10.55792 0,-6.665336 0.285712,-7.282642 4.606678,-9.9531468 6.69384,-4.1370206 13.655624,-2.6638456 16.201084,3.4282918 2.78038,6.654391 2.28891,10.072039 -2.23817,15.564175 -4.91276,5.960027 -8.714678,6.359106 -14.467292,1.5186 z"
       id="path70" />
  </g>
</svg>
