<?xml version="1.0" encoding="UTF-8" standalone="no"?>
<!-- Created with Inkscape (http://www.inkscape.org/) -->

<svg
   version="1.1"
   id="svg2"
   width="164"
   height="161.33333"
   viewBox="0 0 164 161.33333"
   xmlns="http://www.w3.org/2000/svg"
   xmlns:svg="http://www.w3.org/2000/svg">
  <defs
     id="defs6" />
  <g
     id="g8">
    <path
       style="fill:#000000;stroke-width:1.33333"
       d="m 77.333333,152.92546 c -1.833333,-0.99557 -3.129434,-2.66109 -2.880225,-3.70113 0.953277,-3.9784 1.031475,-19.53992 0.133452,-26.55767 -0.516124,-4.03333 -0.388131,-8.38333 0.284428,-9.66666 1.610136,-3.07236 10.754215,-3.19479 13.258324,-0.17752 2.469891,2.97603 4.245928,36.50778 2.055839,38.81442 -2.466307,2.59755 -9.198391,3.27254 -12.851818,1.28856 z m 65.333337,0 c -1.83334,-0.99557 -3.12944,-2.66109 -2.88023,-3.70113 0.95328,-3.9784 1.03148,-19.53992 0.13345,-26.55767 -0.51612,-4.03333 -0.38813,-8.38333 0.28443,-9.66666 1.61013,-3.07236 10.75421,-3.19479 13.25832,-0.17752 2.46989,2.97603 4.24593,36.50778 2.05584,38.81442 -2.46631,2.59755 -9.19839,3.27254 -12.85181,1.28856 z M 13.422983,151.44136 C 11.613554,149.26112 10.751793,116.3227 12.434691,113.66666 13.041116,112.70957 16.229305,112 19.923181,112 c 7.898795,0 8.033406,0.34582 8.058612,20.70332 0.02132,17.21758 -1.394732,20.63001 -8.560805,20.63001 -2.435291,0 -5.134393,-0.85139 -5.998005,-1.89197 z M 147.17315,58.449936 c -1.55476,-0.753271 -3.49446,-3.562662 -4.31043,-6.243093 -0.81597,-2.680431 -4.15153,-7.801553 -7.41236,-11.380273 -6.54452,-7.182532 -6.86053,-7.223616 -18.78369,-2.441993 -12.1621,4.877443 -16.07555,5.615422 -29.778211,5.615422 -13.119654,0 -27.505272,-2.715305 -34.653428,-6.540881 -3.279828,-1.755312 -9.1279,-1.91716 -10.139343,-0.280611 -1.765153,2.856078 -13.125207,6.821492 -19.542101,6.821492 -11.532944,0 -17.2202537,-5.245632 -17.2202537,-15.882925 0,-13.063848 16.5296347,-18.4898439 32.2802157,-10.596261 5.437566,2.725099 9.174384,3.142339 11.119784,1.241599 2.191639,-2.141326 28.900451,-9.5242381 37.382106,-10.3332498 8.828021,-0.8420493 24.586651,2.7473268 34.228601,7.7963178 6.94315,3.635766 10.2391,2.763108 14.70033,-3.892147 4.06987,-6.0714202 6.62688,-6.8821831 11.32562,-3.5910612 3.82833,2.6814662 3.76,6.0444682 -0.19836,9.7631612 -1.73895,1.633649 -4.28895,5.076561 -5.66667,7.650914 -2.1908,4.093624 -2.25413,4.832418 -0.50496,5.890831 1.1,0.665603 2.6,1.67728 3.33333,2.248171 2.381,1.853584 11.40518,13.538293 13.34835,17.283762 1.66759,3.214296 1.63579,3.930112 -0.26813,6.033914 -2.39967,2.651598 -5.00736,2.887779 -9.2404,0.836911 z M 99.579499,32.753982 c 4.997941,-1.051975 10.166621,-2.327472 11.485961,-2.834436 4.14219,-1.591671 1.84895,-5.033828 -5.07199,-7.613038 -5.3489,-1.993366 -9.022666,-2.348348 -18.660137,-1.803062 -11.625796,0.657786 -26.118213,4.517859 -27.010338,7.194237 -0.231464,0.694391 2.451173,2.497918 5.961414,4.007838 7.789063,3.350442 20.462334,3.749522 33.29509,1.048461 z M 30.994616,30.491153 c 2.730189,-1.461154 2.740436,-1.566519 0.324172,-3.333334 -5.087077,-3.719762 -16.037729,-0.890493 -13.354885,3.45044 1.144613,1.852023 9.491526,1.77701 13.030713,-0.117106 z"
       id="path221" />
  </g>
</svg>
