<?xml version="1.0" encoding="UTF-8" standalone="no"?>
<!-- Created with Inkscape (http://www.inkscape.org/) -->

<svg
   version="1.1"
   id="svg12"
   width="160"
   height="160"
   viewBox="0 0 160 160"
   xmlns="http://www.w3.org/2000/svg"
   xmlns:svg="http://www.w3.org/2000/svg">
  <defs
     id="defs16" />
  <g
     id="g18">
    <path
       style="fill:#000000;stroke-width:1.33333"
       d="m 26.222223,152.44444 c -0.48889,-0.48888 -0.88889,-3.76777 -0.88889,-7.28641 C 25.333333,138.02632 23.308695,136 16.182893,136 11.99388,136 8,133.07154 8,130 c 0,-3.00506 3.959299,-6 7.931979,-6 5.031732,0 6.92148,-2.66507 6.534941,-9.21609 -0.177251,-3.00404 0.35018,-6.13434 1.172069,-6.95623 2.484562,-2.48456 8.374244,-1.73547 10.527678,1.33899 1.740216,2.4845 3.28838,2.83333 12.574909,2.83333 9.03426,0 11.578312,-0.53877 17.314019,-3.66667 l 6.723653,-3.66666 2.610376,3.14771 c 1.435707,1.73124 2.629459,4.13124 2.65278,5.33333 0.05881,3.03149 2.626204,5.92413 6.958996,7.8406 2.940979,1.30086 5.187481,1.24482 11.333333,-0.28272 9.832767,-2.4439 41.057747,-5.01322 47.060277,-3.8723 6.14298,1.16761 7.93832,2.77863 7.93832,7.12332 0,7.30682 -9.57674,11.0895 -23.66658,9.34797 -4.95004,-0.61183 -15.96972,-1.28254 -24.48816,-1.49047 l -15.488085,-0.37805 -3.469784,3.94863 c -1.908381,2.17176 -3.488745,5.55579 -3.51192,7.52007 -0.08281,7.01897 -7.031248,10.10612 -11.865574,5.2718 -2.191162,-2.19116 -4.027715,-2.40968 -15.29781,-1.82019 -11.619616,0.60779 -12.999374,0.96247 -14.873962,3.82344 -1.993112,3.04188 -8.304204,4.40966 -10.449232,2.26463 z M 48,38.712759 C 44.7,38.064136 38.4,36.868896 34,36.056668 15.615599,32.662957 13.377544,32.090443 10.099793,29.942777 7.5380299,28.264245 6.6666667,26.55558 6.6666667,23.210724 c 0,-5.434901 3.2630414,-7.947153 12.7447613,-9.812332 C 23.035143,12.68556 28.1,11.46569 30.666667,10.687571 c 4.732793,-1.4348099 31.379901,-4.1285951 46,-4.6501905 13.102102,-0.4674384 36.043303,2.987313 71.047163,10.6991035 3.32168,0.731807 6.11412,6.271333 4.97328,9.865788 -0.93883,2.957967 -8.99231,6.728404 -14.39902,6.741247 -2.35845,0.0056 -8.18809,1.20454 -12.95476,2.664304 -7.27282,2.22726 -13.70595,2.753037 -39.999997,3.269182 C 68.1,39.615292 51.3,39.361379 48,38.712759 Z M 92.666667,27.953791 C 102.2,27.184465 113.9,26.192948 118.66667,25.750417 L 127.33333,24.945816 118,22.396161 C 106.15664,19.160824 60.686932,18.461553 42.130059,21.229371 25.491863,23.711012 28.021996,24.569125 62,27.968412 c 5.133333,0.513557 10.233333,1.035083 11.333333,1.158945 1.1,0.123867 9.8,-0.404242 19.333334,-1.173566 z"
       id="path40" />
  </g>
</svg>
