<?xml version="1.0" encoding="UTF-8" standalone="no"?>
<!-- Created with Inkscape (http://www.inkscape.org/) -->

<svg
   version="1.1"
   id="svg22"
   width="169.33333"
   height="154.66667"
   viewBox="0 0 169.33333 154.66667"
   xmlns="http://www.w3.org/2000/svg"
   xmlns:svg="http://www.w3.org/2000/svg">
  <defs
     id="defs26" />
  <g
     id="g28">
    <path
       style="fill:#000000;stroke-width:1.33333"
       d="M 9.6666665,147.84592 C 7.2486736,145.36131 7.4558796,112.16337 9.9478199,102.80031 13.541201,89.298766 23.628329,83.07394 39.995317,84.257822 c 7.333351,0.530446 8.587725,1.092505 13.75411,6.162929 6.373498,6.255116 8.728077,6.804896 12.28953,2.869536 4.479114,-4.949365 10.536921,-7.7445 18.805752,-8.677165 10.301414,-1.161927 16.434691,0.761132 22.318761,6.997936 l 4.45736,4.724563 5.18958,-4.64662 c 2.85427,-2.555643 7.50683,-5.399879 10.33901,-6.320526 10.52111,-3.420065 26.28684,0.583487 31.7254,8.056354 2.83362,3.893542 3.54627,9.751361 3.96307,32.575171 0.37792,20.69492 -0.52253,23.33334 -7.96329,23.33334 -2.76738,0 -6.12127,-0.79679 -7.4531,-1.77066 -2.8593,-2.09077 -2.98309,-5.01878 -0.76752,-18.15419 2.01668,-11.95622 0.9841,-20.86926 -2.89624,-24.99969 -3.36578,-3.58272 -6.38108,-3.85584 -11.77494,-1.06657 -6.07772,3.14291 -7.99933,11.53122 -6.39195,27.90243 1.02817,10.47186 0.93044,13.46273 -0.48492,14.84081 -1.11523,1.08584 -6.33072,1.88255 -14.06355,2.14832 -15.365309,0.52808 -16.349703,-0.22144 -15.192017,-11.56712 0.448966,-4.4 0.516302,-13.06936 0.149635,-19.26525 -0.653996,-11.05113 -0.749771,-11.31365 -5.039093,-13.81223 -3.811511,-2.22025 -4.901593,-2.3278 -8.497341,-0.83839 -6.710369,2.77952 -8.116456,8.14587 -7.165455,27.34703 0.976232,19.71057 1.383661,19.23551 -16.496877,19.23551 -10.151161,0 -12.238804,-0.37008 -13.302821,-2.35822 -0.795565,-1.48653 -0.780271,-8.46929 0.04137,-18.8908 0.7169,-9.09293 0.955032,-17.92082 0.529183,-19.61754 -0.425849,-1.69672 -2.56558,-4.01126 -4.754956,-5.14343 -3.58936,-1.85613 -4.372672,-1.85579 -7.968126,0.003 -7.569323,3.91425 -8.508945,6.96953 -7.520783,24.45461 0.6797,12.02699 0.474873,16.21035 -0.884738,18.06973 -2.238706,3.06161 -12.882613,4.4517 -15.2737029,1.99474 z M 58.666666,39.827677 c -5.5,-0.608336 -13,-1.73642 -16.666667,-2.506854 -3.666666,-0.770433 -9.966666,-2.087428 -14,-2.926654 -4.033333,-0.839227 -10.483333,-2.888218 -14.333333,-4.553312 -5.6963527,-2.463628 -6.9999995,-3.63149 -6.9999995,-6.270891 0,-5.487922 4.5483435,-7.60812 27.9999995,-13.052124 24.947527,-5.7912527 65.352604,-5.7984094 92.041514,-0.0163 7.91002,1.71369 25.33694,6.342309 28.24106,7.500873 5.82656,2.324428 3.30408,9.955083 -4.28258,12.955045 -6.01765,2.379538 -24.59596,6.773208 -28,6.621849 -1.83333,-0.08152 -6.33333,0.424839 -10,1.125239 -9.28501,1.773608 -41.972388,2.453464 -53.999994,1.123132 z M 107.33333,27.235025 c 7.33333,-0.432216 15.13333,-1.474447 17.33333,-2.31607 l 4,-1.53022 -5.33333,-1.096913 C 111.06791,19.76918 75.482913,18.421096 62.666665,19.993558 c -28.194227,3.459229 -28.98656,3.587027 -23.579011,3.803127 2.798211,0.111826 6.205189,0.801401 7.571062,1.532394 1.365875,0.730995 11.055483,1.660048 21.532464,2.064564 10.476981,0.404516 19.354746,1.041174 19.728366,1.414794 0.37362,0.37362 1.894567,0.349262 3.37988,-0.05412 1.485315,-0.403398 8.700572,-1.087075 16.033904,-1.519292 z"
       id="path1211" />
  </g>
</svg>
