<?xml version="1.0" encoding="UTF-8" standalone="no"?>
<!-- Created with Inkscape (http://www.inkscape.org/) -->

<svg
   version="1.1"
   id="svg32"
   width="165.33333"
   height="153.33333"
   viewBox="0 0 165.33333 153.33333"
   xmlns="http://www.w3.org/2000/svg"
   xmlns:svg="http://www.w3.org/2000/svg">
  <defs
     id="defs36" />
  <g
     id="g38">
    <path
       style="fill:#000000;stroke-width:1.33333"
       d="m 13.678394,147.11809 c -4.5980266,-0.97525 -7.0117275,-5.57524 -7.0117275,-13.36283 0,-8.22422 2.7544332,-11.62472 11.2744435,-13.91892 7.159379,-1.92782 11.218385,-0.30629 14.34542,5.73083 6.244725,12.0562 -4.531483,24.53661 -18.608136,21.55092 z m 58.408395,-3.23793 c -5.449594,-5.96654 -5.77168,-14.44599 -0.72633,-19.12186 4.543151,-4.21045 13.204293,-6.35113 17.799082,-4.39921 7.071298,3.00398 8.17379,4.84388 8.17379,13.64091 0,10.4756 -2.072582,12.62386 -13.148038,13.62814 -7.775028,0.70503 -8.132445,0.5943 -12.098504,-3.74798 z m 70.080791,2.73594 c -4.15532,-0.49581 -7.16057,-1.6801 -8.33333,-3.28396 -2.99696,-4.09858 -2.26855,-12.74065 1.54715,-18.35596 2.93192,-4.31471 4.07133,-4.97618 8.57173,-4.97618 4.06169,0 6.22573,0.97651 9.95193,4.49077 4.06103,3.83004 4.7616,5.35577 4.7616,10.36999 0,10.42666 -3.96412,13.25104 -16.49908,11.75534 z M 75.883428,38.156422 C 75.580874,37.881793 67.833332,37.277235 58.666665,36.812959 41.46382,35.941665 35.740278,34.981935 18.666666,30.105718 8.7056357,27.260851 8.6650656,27.230595 8.2558432,22.341798 7.8814366,17.868932 8.2462389,17.266234 12.371217,15.542709 17.95128,13.21121 38.350386,8.7107637 52.741826,6.6361548 64.251551,4.9769616 101.85873,5.7412059 117.33333,7.9487682 c 10.37987,1.480762 29.89047,5.8728528 35,7.8789568 4.79327,1.881931 5.17835,8.462441 0.66667,11.392346 -4.5856,2.977914 -22.81482,7.261407 -37.66667,8.850902 -14.93885,1.598805 -38.6076,2.850011 -39.449902,2.085449 z M 120.26329,24.813361 c 9.3619,-1.909335 8.62778,-3.816245 -2.26329,-5.878972 -17.42045,-3.299365 -52.359441,-3.053821 -77.751805,0.546427 -5.24671,0.743902 -5.529544,0.971194 -3.220784,2.588313 2.241895,1.570284 14.485641,3.61659 30.305921,5.06505 9.326032,0.853866 45.042508,-0.712194 52.929958,-2.320818 z"
       id="path1072" />
  </g>
</svg>
