<?xml version="1.0" encoding="UTF-8" standalone="no"?>
<!-- Created with Inkscape (http://www.inkscape.org/) -->

<svg
   version="1.1"
   id="svg42"
   width="160"
   height="162.66667"
   viewBox="0 0 160 162.66667"
   xmlns="http://www.w3.org/2000/svg"
   xmlns:svg="http://www.w3.org/2000/svg">
  <defs
     id="defs46" />
  <g
     id="g48">
    <path
       style="fill:#000000;stroke-width:1.33333"
       d="m 6.7460964,152.76238 c -3.5206335,-4.24211 5.7725356,-28.84127 12.5811206,-33.30243 4.562922,-2.98974 6.725487,-2.66412 9.733799,1.46563 2.548512,3.49854 2.706689,3.53332 6.064297,1.33333 4.530706,-2.96863 7.1481,-2.85242 9.184118,0.40776 0.915948,1.46667 2.576704,2.66667 3.690569,2.66667 1.113865,0 2.774621,-1.2 3.690569,-2.66667 2.151346,-3.44485 6.687963,-3.40219 10.413663,0.0979 l 2.942768,2.76459 2.729136,-2.92939 c 3.018275,-3.23973 7.730528,-2.90265 11.452416,0.81924 1.886697,1.8867 2.360348,1.88651 5.056577,-0.002 3.758502,-2.63256 7.539666,-2.65555 10.404107,-0.0633 2.00528,1.81476 2.580285,1.74689 5.648624,-0.66666 4.32784,-3.40428 7.18102,-3.41076 8.99547,-0.0204 1.6866,3.15143 5.66284,3.48278 8,0.66667 2.10659,-2.53828 6.49444,-2.56917 9.2613,-0.0652 1.898,1.71766 2.43353,1.49233 4.77166,-2.00776 1.44854,-2.16841 3.71308,-4.28883 5.03232,-4.71205 2.84656,-0.91318 8.79932,2.66731 9.74704,5.86269 0.36795,1.2406 2.4357,6.79675 4.595,12.347 4.60835,11.84521 4.82406,14.68263 1.3549,17.82217 -3.20348,2.89911 -7.64923,1.72659 -8.77782,-2.31506 -1.01345,-3.62936 -3.4643,-9.03924 -5.11665,-11.29424 -0.96037,-1.31066 -1.67139,-1.08355 -3.13076,1 -2.29672,3.27902 -7.94564,3.52357 -11.29867,0.48912 -2.17674,-1.96992 -2.68863,-1.99167 -4.77165,-0.20267 -4.53217,3.89247 -7.25046,4.0016 -10.96759,0.44036 l -3.5334,-3.3852 -2.90736,3.34375 c -3.505847,4.03208 -5.548169,4.18397 -9.553133,0.71048 -3.023337,-2.62212 -3.050332,-2.62212 -6.383825,0 -4.331289,3.407 -5.456057,3.32248 -9.683468,-0.72764 l -3.508025,-3.3609 -2.43825,2.69423 c -2.866504,3.16745 -8.994828,3.54203 -11.358282,0.69424 -2.266123,-2.73051 -4.37369,-2.50949 -6.357236,0.66667 -2.275954,3.64438 -6.247102,3.34737 -9.435222,-0.70566 l -2.652672,-3.37233 -3.638798,3.37233 c -4.520314,4.18928 -5.230302,4.18642 -10.254867,-0.0415 l -4.057077,-3.41382 -3.502714,8.41382 c -2.87731,6.91153 -4.112181,8.48534 -6.916191,8.81454 -1.8774135,0.2204 -4.1750205,-0.51686 -5.1057936,-1.63837 z M 24.888889,101.77778 C 24.4,101.28889 24,98.010001 24,94.491358 c 0,-7.131706 -2.024639,-9.158023 -9.15044,-9.158023 -4.189013,0 -8.1828933,-2.92846 -8.1828933,-6 0,-3.00506 3.9592993,-6 7.9319783,-6 5.031732,0 6.92148,-2.665074 6.534942,-9.216092 -0.177251,-3.004038 0.35018,-6.134342 1.172069,-6.956231 2.484561,-2.484562 8.374244,-1.735467 10.527677,1.338989 1.740216,2.484507 3.28838,2.833334 12.57491,2.833334 9.03426,0 11.578312,-0.538766 17.314018,-3.666667 l 6.723654,-3.666667 2.610376,3.147712 c 1.435706,1.731242 2.629458,4.131242 2.65278,5.333334 0.05881,3.031484 2.626204,5.924124 6.958996,7.840602 2.940978,1.300854 5.187481,1.244811 11.333333,-0.282722 9.83276,-2.443906 41.05775,-5.013222 47.06028,-3.872306 6.14297,1.167611 7.93832,2.778635 7.93832,7.123323 0,7.306822 -9.57675,11.089503 -23.66658,9.347975 -4.95005,-0.611833 -15.96972,-1.282548 -24.488168,-1.490475 l -15.48808,-0.378049 -3.469784,3.948636 c -1.908381,2.171751 -3.488745,5.55578 -3.51192,7.520066 -0.08281,7.018978 -7.031248,10.106123 -11.865575,5.271798 -2.191161,-2.191161 -4.027714,-2.40968 -15.297809,-1.820181 -11.619616,0.607781 -12.999375,0.962456 -14.873963,3.82344 -1.993112,3.041876 -8.304204,4.409656 -10.449232,2.264626 z M 70.666667,38.585159 C 52.251925,37.669753 36.626595,35.829853 27.265703,33.474645 24.369567,32.745975 19.308864,31.481354 16.019697,30.664377 8.9696928,28.913265 5.3254675,25.996198 5.3537504,22.126683 5.3862412,17.681464 7.3044616,15.774263 12.837657,14.685771 15.676945,14.127226 23.7,12.421288 30.666667,10.894799 57.884187,4.931079 75.670915,4.2692961 109.33333,7.9678823 c 10.89615,1.1971903 25.9726,4.6088757 29.64858,6.7092437 1.27338,0.727581 3.7087,1.322874 5.41182,1.322874 8.13064,0 11.25712,10.335385 3.9396,13.023385 -10.09958,3.70996 -19.33762,5.928048 -29,6.963013 -5.86666,0.628396 -11.56666,1.437864 -12.66666,1.798817 -4.10336,1.346474 -18.548681,1.667458 -36.000003,0.799944 z M 96.143561,27.300282 c 8.512289,-0.441587 18.066619,-1.567539 21.231829,-2.502116 5.31175,-1.568372 5.50606,-1.777659 2.52311,-2.717648 -13.2063,-4.161579 -48.567524,-5.83882 -69.01046,-3.273282 -18.091853,2.270484 -21.023295,4.251607 -9.439055,6.379089 13.045279,2.395808 27.953696,3.879756 33.884348,3.372768 2.933334,-0.250759 12.297936,-0.817224 20.810228,-1.258811 z"
       id="path933" />
  </g>
</svg>
