<?xml version="1.0" encoding="UTF-8" standalone="no"?>
<!-- Created with Inkscape (http://www.inkscape.org/) -->

<svg
   version="1.1"
   id="svg52"
   width="160"
   height="164"
   viewBox="0 0 160 164"
   xmlns="http://www.w3.org/2000/svg"
   xmlns:svg="http://www.w3.org/2000/svg">
  <defs
     id="defs56" />
  <g
     id="g58">
    <path
       style="fill:#000000;stroke-width:1.33333"
       d="m 92.778581,158.49589 c -1.330325,-4.08424 -1.616761,-19.40545 -0.427588,-22.87126 2.091426,-6.09539 0.02188,-15.04662 -4.531573,-19.60008 C 85.605919,113.81105 82.561847,112 81.054815,112 c -3.748422,0 -11.409314,4.91597 -12.367992,7.93649 -0.431304,1.35892 -0.659448,9.62004 -0.506987,18.35804 0.152463,8.738 -0.161041,16.59636 -0.696672,17.46304 -0.535632,0.86667 -3.017356,1.57576 -5.514941,1.57576 -6.783584,0 -7.692083,-2.88952 -7.739783,-24.6167 -0.03693,-16.82143 0.261116,-19.30057 2.943456,-24.48351 3.979471,-7.68931 10.799527,-10.830791 23.599511,-10.870504 8.3483,-0.02591 10.158113,0.447651 15.674022,4.101234 3.715131,2.46081 6.637211,5.55997 7.228591,7.66667 1.5364,5.47318 1.2102,46.5186 -0.38235,48.11115 -2.41402,2.41401 -9.846501,3.30072 -10.513089,1.25422 z M 56.666667,86.674101 C 39.665864,85.572309 25.31518,83.0623 13.333333,79.094876 7.1834201,77.05852 5.9348877,76.105749 5.5965167,73.190817 5.1803561,69.60576 5.6961483,69.254469 17,65.424244 c 16.116547,-5.460971 22.005467,-6.091484 56.333333,-6.03148 29.747207,0.052 36.001317,0.441837 49.999997,3.116683 8.8,1.681488 17.91244,3.366004 20.24988,3.743368 5.47815,0.88441 8.96998,4.694932 7.9664,8.693458 -2.08257,8.297528 -52.209751,14.493403 -94.882943,11.727828 z M 116.36277,75.698773 c 6.16551,-0.905622 10.17155,-2.097954 9.89066,-2.943789 -1.2993,-3.912513 -54.008189,-8.222391 -71.586763,-5.853476 -27.491754,3.704831 -31.087728,5.848347 -13.669496,8.148216 25.764684,3.401919 54.914889,3.652961 75.365599,0.649049 z M 126,51.629973 C 106.30427,49.981021 79.771536,49.838291 61.793147,51.284579 49.296727,52.289864 47.903781,52.158025 43.723251,49.574316 41.231911,48.034583 37.286296,44.67888 34.955219,42.1172 l -4.238323,-4.657603 -11.165765,0.78798 C 13.40996,38.680965 8.0692164,38.502556 7.6828121,37.851112 7.2964079,37.199667 6.5593411,34.704436 6.0448859,32.306153 5.2372668,28.5412 5.6711201,27.42102 9.2214232,24.10454 c 2.2615508,-2.112605 4.1119098,-4.184965 4.1119098,-4.605247 0,-0.42028 -1.757478,-1.672973 -3.9055082,-2.783762 C 4.9137636,14.381219 3.0668391,10.064292 5.3864351,7.2693496 7.7148415,4.4637916 12.996702,4.8796425 14.666667,8 c 1.78146,3.32869 3.744513,3.32869 8,0 3.609992,-2.8237771 9.97733,-3.5273925 11.380168,-1.2575527 1.336654,2.1627532 -0.53602,7.9242197 -2.575644,7.9242197 -0.996236,0 -2.549851,0.889853 -3.452478,1.977452 -1.364985,1.644705 -0.270657,3.360746 6.503407,10.198146 4.479501,4.521382 8.144547,8.71612 8.144547,9.321642 0,2.137969 8.370452,5.428669 11.974988,4.707762 1.983113,-0.396622 6.550014,-2.500394 10.148669,-4.675048 l 6.543009,-3.953914 18,1.086052 C 104.65815,34.2534 109.47494,35.127093 121.74312,39.207405 130.95423,42.270956 138.67905,44 143.15495,44 c 3.85112,0 8.11421,0.813236 9.47352,1.807189 3.19193,2.334002 1.79418,6.186792 -2.2533,6.211018 -1.67301,0.01 -4.24184,0.228153 -5.7085,0.484757 C 143.2,52.759567 134.8,52.366721 126,51.629973 Z"
       id="path794" />
  </g>
</svg>
