<?xml version="1.0" encoding="UTF-8" standalone="no"?>
<!-- Created with Inkscape (http://www.inkscape.org/) -->

<svg
   version="1.1"
   id="svg62"
   width="156"
   height="148"
   viewBox="0 0 156 148"
   xmlns="http://www.w3.org/2000/svg"
   xmlns:svg="http://www.w3.org/2000/svg">
  <defs
     id="defs66" />
  <g
     id="g68">
    <path
       style="fill:#000000;stroke-width:1.33333"
       d="M 7.9625071,141.95483 C 6.5913464,140.30268 5.9299816,135.43901 5.6902169,125.24444 l -0.3381998,-14.37995 8.9906579,-8.94137 c 4.944862,-4.917748 8.3311,-9.182111 7.524972,-9.476359 -0.806127,-0.294248 -3.9875,1.986818 -7.069716,5.069034 L 9.1938997,103.11983 6.3662473,100.29217 C 3.8011563,97.727083 3.6868031,96.969847 5.1347216,92.137124 6.0125913,89.207057 8.2973227,85.57754 10.211902,84.071531 c 6.868995,-5.403152 17.865065,-2.104315 13.939311,4.181816 -0.928592,1.486912 -1.192493,2.468938 -0.586448,2.182281 0.606046,-0.286657 2.71364,-1.330817 4.683542,-2.320357 1.969902,-0.98954 4.519902,-1.439118 5.666666,-0.999063 3.931364,1.508605 2.108806,6.194168 -5.248306,13.492722 -7.550783,7.49068 -8.541215,8.99815 -5.666667,8.62488 6.863011,-0.8912 8.482779,3.27581 3.666667,9.43286 -3.844338,4.9147 -3.34236,6.66666 1.910149,6.66666 3.405805,0 4.793365,0.68229 5.423184,2.66667 0.465501,1.46667 1.665501,2.66667 2.666667,2.66667 2.510816,0 3.652782,-4.31952 2.171785,-8.21484 -2.060257,-5.41889 5.046823,-18.79368 11.237199,-21.14726 1.702549,-0.64731 3.753136,-2.405643 4.556858,-3.907413 3.244767,-6.062901 -6.501162,-1.969454 -17.745405,7.453353 -7.964636,6.67446 -6.460161,-1.77165 1.867855,-10.486121 2.15144,-2.251274 3.911708,-5.519089 3.911708,-7.261809 0,-2.174421 1.073086,-3.576569 3.420133,-4.468915 4.280395,-1.627402 11.299929,-1.647494 13.841357,-0.03961 1.186295,0.750531 2.887955,0.706215 4.422744,-0.115173 3.020639,-1.616598 8.9419,1.744798 9.964944,5.656924 1.043288,3.989538 5.002664,2.985822 7.110199,-1.802462 2.173645,-4.93849 6.036572,-6.098397 12.035088,-3.61373 2.969192,1.22988 4.315401,1.239093 5.760909,0.03943 1.111929,-0.922814 5.079849,-1.399952 9.665459,-1.162258 7.70586,0.399428 7.7831,0.444061 8.19698,4.736561 0.55187,5.723779 4.70037,5.906157 7.58219,0.333333 4.43034,-8.567341 8.2702,-3.22397 6.57121,9.144194 -0.56834,4.13736 -0.85702,8.122476 -0.64152,8.855806 0.21551,0.73334 0.32154,3.6413 0.23562,6.46215 -0.1004,3.29627 0.79497,6.33804 2.5059,8.51314 3.86736,4.91655 3.90057,21.11861 0.0459,22.34206 -1.43897,0.45671 -3.73309,0.23269 -5.09804,-0.4978 -1.39359,-0.74583 -11.79266,-1.25091 -23.71704,-1.15193 -12.911171,0.1072 -22.230189,-0.38148 -23.773345,-1.24659 -1.960641,-1.09913 -3.542676,-0.83011 -6.953877,1.18256 -5.307323,3.13139 -9.5046,2.20255 -10.648864,-2.35656 l -0.813667,-3.24191 -3.958398,3.33078 c -4.175036,3.51306 -5.446738,3.78656 -9.753799,2.09772 -1.659004,-0.65052 -3.728567,-0.35224 -5.476868,0.78936 -1.837604,1.19992 -5.990745,1.73105 -12,1.53465 -5.054389,-0.16519 -11.913064,0.18596 -15.2415,0.78032 -5.000926,0.89301 -6.3875235,0.676 -7.9857916,-1.24979 z m 9.3188859,-11.53958 c 3.130362,-3.36005 3.53874,-5.31294 0.899207,-4.30005 -1.686341,0.64711 -5.513409,7.21813 -4.203955,7.21813 0.322378,0 1.809515,-1.31313 3.304748,-2.91808 z m 63.245475,-10.01711 c 2.618843,-3.81436 4.20826,-7.27714 3.53204,-7.69507 -1.323924,-0.81823 -13.975748,9.46392 -15.278996,12.41725 -1.240331,2.81076 0.280312,4.05762 3.775793,3.096 1.784527,-0.49093 5.323796,-3.96228 7.971163,-7.81818 z m -18.282716,-3.31481 c -0.425635,-1.06364 -0.741577,-0.7477 -0.805556,0.80556 -0.05789,1.40555 0.257237,2.19305 0.700293,1.75 0.443055,-0.44306 0.490424,-1.59306 0.105267,-2.55556 z m -5.119237,-6.4817 c 0.43839,-2.95875 0.322834,-3.00328 -2.666667,-1.02774 -1.718703,1.13577 -3.331127,3.45679 -3.583163,5.15781 -0.43839,2.95875 -0.322834,3.00329 2.666667,1.02774 1.718703,-1.13577 3.331127,-3.45678 3.583163,-5.15781 z m 48.541755,-0.45769 c 2.63033,-1.99671 3.11176,-4.81061 0.82306,-4.81061 -1.31737,0 -6.48973,4.94465 -6.48973,6.20402 0,1.09894 3.52537,0.23207 5.66667,-1.39341 z M 74,106.30891 c 2.043917,-0.51065 1.810387,-0.70236 -1,-0.82091 -2.669055,-0.11259 -3.661112,0.48018 -3.646249,2.17867 0.01293,1.48081 0.378322,1.78074 1,0.82091 0.53877,-0.83184 2.179582,-1.81224 3.646249,-2.17867 z m -8.363163,-3.74994 c 2.159047,-2.25924 3.561868,-4.471375 3.117382,-4.915862 -0.444487,-0.444487 -2.89471,1.403979 -5.444938,4.107702 -2.550229,2.70372 -3.95305,4.91586 -3.117381,4.91586 0.835669,0 3.285891,-1.84847 5.444937,-4.1077 z M 63.333333,38.625751 c -20.060154,-1.573734 -33.130028,-3.5598 -38.676216,-5.877146 -2.740529,-1.145066 -6.276002,-2.081938 -7.856608,-2.081938 -1.580604,0 -4.24015,-0.957011 -5.910102,-2.126691 -2.3887662,-1.673157 -2.9496357,-3.165961 -2.6300078,-7 L 8.6666667,16.666667 23.333333,13.012534 C 43.781193,7.918044 82.220415,4.2741933 93.60498,6.3511245 98.222241,7.1934697 108.02075,8.5896133 115.37944,9.4536659 132.87794,11.508329 153.86977,18.270557 154.32675,22 c 0.19374,1.581275 -1.04027,3.651492 -3.03183,5.086253 -3.86304,2.783015 -23.55928,8.844231 -28.87479,8.885771 -1.96892,0.01539 -5.13063,0.617576 -7.02601,1.338199 -4.73623,1.800709 -35.853379,2.58701 -52.060787,1.315528 z M 105.33333,27.883876 c 5.5,-0.750813 13.5552,-2.078941 17.90045,-2.951395 l 7.90044,-1.586277 -5.23378,-1.032544 C 114.21292,20.007892 86.494891,17.390831 73.466376,17.362979 60.823084,17.335949 40.72122,20.182687 36.149045,22.647695 c -6.96809,3.756724 48.994951,7.992261 69.184285,5.236181 z"
       id="path655" />
  </g>
</svg>
