<?xml version="1.0" encoding="UTF-8" standalone="no"?>
<!-- Created with Inkscape (http://www.inkscape.org/) -->

<svg
   version="1.1"
   id="svg72"
   width="153.33333"
   height="156"
   viewBox="0 0 153.33333 156"
   xmlns="http://www.w3.org/2000/svg"
   xmlns:svg="http://www.w3.org/2000/svg">
  <defs
     id="defs76" />
  <g
     id="g78">
    <path
       style="fill:#000000;stroke-width:1.33333"
       d="m 7.8617976,151.16681 c -1.58378,-1.90834 -2.0552308,-5.03964 -2.6505229,-17.6043 -0.080888,-1.70729 1.2180726,-4.55729 2.8865798,-6.33334 C 10.584806,124.58193 10.737651,124 8.9459969,124 5.4614047,124 4.2450062,119.93638 5.154375,111.33333 5.8080996,105.1488 7.0416226,101.89609 10.59,97 c 2.524501,-3.483333 5.315236,-6.333333 6.201633,-6.333333 0.886397,0 2.882907,-2.154651 4.436687,-4.788114 2.782806,-4.716505 2.922714,-4.774681 9.355045,-3.89001 5.728749,0.787905 6.911589,0.516502 9.639978,-2.211887 l 3.109989,-3.109989 -3.569093,-0.412482 c -1.963002,-0.226864 -4.270412,-1.257517 -5.127578,-2.29034 -1.116542,-1.345349 -3.214063,-1.650936 -7.396782,-1.07763 -5.361382,0.73486 -5.943469,0.523604 -7.125798,-2.586159 C 19.316128,68.201283 17.401994,66.583741 15.079956,66.045965 12.777017,65.512612 9.6309023,62.874421 6.915216,59.19938 2.9949431,53.894216 2.6433759,52.738568 3.7952335,48.943584 4.5092074,46.59128 5.1241903,43.766667 5.161862,42.666667 5.7221653,26.306017 5.6234681,11.845691 4.9468791,11.169101 4.4776984,10.699921 4.6454498,9.285322 5.3196599,8.0255488 6.4068249,5.9941624 9.3050375,5.7243129 30.939414,5.6401205 c 22.888335,-0.089072 24.663465,0.083689 28.761201,2.7991407 6.568844,4.3529828 7.039525,8.4662188 1.495945,13.0728858 -2.491441,2.070366 -5.515367,4.097054 -6.719833,4.50375 -1.204465,0.406695 -2.927259,2.519494 -3.828427,4.695108 -0.901169,2.175614 -2.127829,3.955662 -2.72591,3.955662 -0.598083,0 -3.975291,2.952368 -7.504907,6.560816 -3.54094,3.620026 -7.911602,6.757674 -9.750817,7 -2.495713,0.328822 -3.217719,1.10928 -2.873241,3.10585 0.567089,3.286815 -0.09643,2.869319 6.206574,3.905274 5.140085,0.84482 5.337871,0.741565 5.458543,-2.849651 0.09339,-2.779287 2.815785,-6.456881 10.712624,-14.471333 5.823078,-5.909804 11.625738,-11.143542 12.894801,-11.630527 1.269062,-0.486985 2.87716,-2.384045 3.573549,-4.215689 1.797139,-4.726831 7.761497,-6.02377 10.746941,-2.336903 l 2.269877,2.80318 3.171832,-3.447249 C 93.477095,7.5168393 105.44167,1.9229459 107.58737,7.5145637 c 1.13212,2.9502533 -1.223,6.3907413 -4.73188,6.9125963 -2.42285,0.360337 -32.888684,29.613237 -48.031249,46.118992 -4.884201,5.323895 -8.580257,5.799477 -9.239566,1.188884 -0.437663,-3.060608 0.80546,-4.811523 10.277157,-14.475181 3.224008,-3.289348 5.497109,-6.345356 5.051339,-6.791128 -1.178594,-1.178592 -15.198341,13.55309 -16.321124,17.149925 -1.227435,3.932085 -2.959193,5.002493 -8.133888,5.027597 -3.4683,0.01683 -4.092417,0.464347 -3.548468,2.544414 0.524358,2.005146 2.381318,2.708328 9.033393,3.420705 l 8.373354,0.896709 19.001191,-18.420705 C 100.18024,21.167609 112,9.2335856 112,7.9923628 c 0,-0.6425747 0.7093,-1.6066913 1.57623,-2.1424816 1.89785,-1.1729376 26.55642,-1.848726 28.36269,-0.7773031 0.69974,0.4150631 3.09974,0.7935315 5.33333,0.841041 3.80852,0.081009 4.08657,0.4387977 4.47108,5.7530479 0.24257,3.352762 -0.16576,5.666666 -1,5.666666 -0.77551,0 -1.41,0.9 -1.41,2 0,1.1 0.6,2 1.33333,2 3.63004,0 -1.3743,13.965036 -5.49981,15.347695 -2.98175,0.999325 -18.50019,16.923147 -18.50019,18.983451 0,0.91787 -1.51485,1.668854 -3.36633,1.668854 -2.26064,0 -3.74488,0.985368 -4.51884,3 -1.24447,3.239378 -1.27499,3.272091 -21.301863,22.83198 C 85.091995,95.264092 81.703872,100 85.435895,100 c 1.60868,0 5.377403,-3.689441 15.447395,-15.122435 6.96822,-7.911388 11.24473,-9.484884 12.20642,-4.491224 0.4993,2.592643 -3.49927,7.654975 -16.855428,21.339579 -6.955464,7.12651 -9.559276,8.97549 -12.204718,8.66666 -2.437334,-0.28453 -3.489947,-1.31001 -3.824506,-3.72591 -0.253884,-1.83334 -1.303884,-3.81315 -2.333333,-4.39959 -2.971929,-1.693 -2.123688,-6.502739 2.140672,-12.138147 3.604881,-4.763897 3.748085,-5.343424 1.691919,-6.84693 -1.906479,-1.394051 -2.514912,-1.110999 -4.021944,1.871066 -0.976608,1.932479 -6.554663,8.106682 -12.395679,13.72045 -10.063237,9.671721 -12.704011,13.513991 -8.953361,13.026951 4.839651,-0.62845 6.250939,0.30444 7.070644,4.67384 0.47198,2.51587 1.699168,4.89704 2.727084,5.29148 1.054165,0.40453 1.868939,2.54307 1.868939,4.90542 0,3.1644 -1.62969,5.97137 -6.666667,11.48263 -3.666667,4.01192 -6.670767,7.69604 -6.675777,8.18695 -0.0051,0.49089 -2.015041,2.25824 -4.466736,3.92742 -6.193161,4.21647 -9.383895,2.85584 -8.192723,-3.49365 l 0.89168,-4.75307 -4.498094,5.05486 c -3.622325,4.07068 -5.266527,4.96744 -8.444888,4.60592 -7.347533,-0.83575 -4.971883,-5.86982 9.942548,-21.0685 11.859793,-12.08583 15.660929,-17.38044 12.477861,-17.38044 -0.531371,0 -2.964119,2.25 -5.406105,5 -5.996047,6.75234 -22.643593,25.01788 -27.827765,30.53239 -4.585453,4.87763 -8.47431,5.67155 -11.2715354,2.30109 z M 52.261739,135 c 1.193515,-2.01667 3.426685,-5.11286 4.962601,-6.88043 1.535916,-1.76757 2.500521,-3.50582 2.143568,-3.86277 -0.924588,-0.92459 -10.034576,9.26703 -10.034576,11.22597 0,0.89559 -0.75,1.93098 -1.666666,2.30086 -1.117331,0.45085 -0.99235,0.70721 0.379189,0.77777 1.125221,0.0579 3.022369,-1.54473 4.215884,-3.5614 z m -20.13825,-13.57631 c 4.487434,-4.3503 7.932366,-8.58946 7.655405,-9.42034 -0.555443,-1.66633 -6.445561,2.77368 -6.445561,4.8587 0,0.66876 -1.26944,2.09838 -2.820979,3.17694 -6.975988,4.84938 -9.151296,6.92718 -8.446369,8.06778 1.162956,1.8817 1.353024,1.7554 10.057504,-6.68308 z m 4.918685,-21.460138 c 7.49347,-7.35338 13.624492,-13.883787 13.624492,-14.512016 0,-0.628228 2.344288,-3.161827 5.20953,-5.630217 13.681174,-11.786266 63.260604,-61.62599 61.804844,-62.12933 -1.82808,-0.632074 -6.93775,3.943434 -33.47402,29.974678 -9.905178,9.716666 -18.414136,17.666666 -18.908796,17.666666 -0.494659,0 -2.327957,1.864064 -4.073996,4.142364 -5.880513,7.673126 -23.214707,25.19097 -24.926877,25.19097 -0.933544,0 -2.031809,1.672286 -2.44059,3.716193 -1.076714,5.38357 -7.897966,9.57696 -15.939268,9.79872 -3.621288,0.0999 -5.277732,0.43588 -3.680988,0.74671 1.596745,0.31082 3.620212,1.42911 4.496593,2.48509 0.876382,1.05597 2.288932,1.91995 3.139003,1.91995 0.850071,0 7.676604,-6.0164 15.170073,-13.369778 z m 18.957825,-4.806895 c 0,-0.880605 0.75,-1.903733 1.666666,-2.273616 1.259248,-0.508118 1.231095,-0.698246 -0.115173,-0.777778 -2.397872,-0.141656 -16.21816,14.368907 -16.21816,17.028207 0,1.30057 2.810562,-0.66688 7.333334,-5.13347 4.033333,-3.98323 7.333333,-7.962736 7.333333,-8.843343 z m -28,-3.921089 c 0,-1.241652 -0.90716,-1.921831 -2.222845,-1.666667 -3.345025,0.648735 -3.804325,3.764432 -0.554932,3.764432 1.637783,0 2.777777,-0.860918 2.777777,-2.097765 z M 98.75881,72.38718 c 2.61735,-2.779616 7.03962,-7.903847 9.82728,-11.38718 2.85216,-3.563932 6.17873,-6.333333 7.60752,-6.333333 1.39648,0 3.07131,-1.35 3.72185,-3 0.65053,-1.65 6.33568,-8.046004 12.63366,-14.213342 C 143.56458,26.666361 145.56576,24 142.6462,24 c -1.79822,0 -29.31241,26.944429 -29.31267,28.705655 -1.1e-4,0.754776 -1.30726,2.254776 -2.90477,3.333333 -6.04633,4.082164 -18.140951,15.416712 -19.588078,18.357083 -3.618256,7.351818 -0.04169,6.444416 7.918128,-2.008891 z m 5.34292,-22.936455 C 117.24578,36.390848 128,25.004788 128,24.148369 c 0,-0.856418 -2.1364,0.409846 -4.74755,2.81392 -10.86601,10.004296 -12.82379,11.704378 -13.47852,11.704378 -0.37818,0 -9.10563,8.55 -19.394343,19 -18.240702,18.526649 -18.611323,19.01732 -14.876501,19.695228 2.981543,0.541178 3.926648,0.156661 4.265315,-1.735355 0.239288,-1.33682 11.189288,-13.115937 24.333329,-26.175815 z M 26.301307,45.695597 c 0.486356,-1.267422 2.567526,-3.720758 4.624822,-5.451858 4.59549,-3.866851 5.252672,-7.813499 0.914468,-5.491763 -1.554339,0.831857 -3.119122,2.633096 -3.477295,4.002753 -0.358173,1.369658 -1.787079,2.850792 -3.175345,3.291411 -1.388267,0.440619 -3.144595,1.960491 -3.902951,3.377493 C 20.129038,47.58358 20.351538,48 22.661601,48 c 1.515484,0 3.153352,-1.036981 3.639706,-2.304403 z M 76.71216,25.601051 c -1.436975,-1.436976 -8.712161,2.862492 -8.712161,5.148686 0,1.33442 -0.6,2.797038 -1.333334,3.250263 -0.733333,0.453225 -1.333333,1.421669 -1.333333,2.152097 0,0.73043 2.701233,-1.203746 6.002741,-4.298169 3.301508,-3.094423 5.720748,-5.908217 5.376087,-6.252877 z M 30.15431,25 c 3.914797,-3.85 7.131585,-7.792857 7.148419,-8.761905 0.02341,-1.347568 -0.441579,-1.289722 -1.97729,0.245989 -1.104341,1.10434 -3.074521,2.346427 -4.378178,2.760192 -1.303656,0.413764 -3.42113,2.531237 -4.705496,4.705496 -1.284366,2.174259 -3.257043,4.875029 -4.383727,6.001712 C 20.4949,31.314624 20.34935,32 21.42301,32 c 0.887418,0 4.816503,-3.15 8.7313,-7 z m 12.2068,1.916667 c 0.799938,-2.399815 -1.956003,-1.895539 -2.886032,0.52808 -0.498302,1.298552 -0.200319,1.90811 0.774014,1.583333 0.871332,-0.290444 1.82174,-1.24058 2.112018,-2.111413 z M 50.347306,18.563984 50.694614,14 48.727887,17.333333 c -2.42926,4.117263 -2.612965,7.070014 -0.394555,6.341763 0.916667,-0.30092 1.822955,-2.60092 2.013974,-5.111112 z M 21.583333,18.416667 c 1.816993,-1.816994 2.333982,-3.110895 1.371212,-3.431819 -0.85,-0.283333 -3.089772,1.029167 -4.977272,2.916667 -2.503863,2.503862 -2.874636,3.431818 -1.371213,3.431818 1.133333,0 3.373106,-1.3125 4.977273,-2.916666 z m 112.607147,0.916666 c 1.22221,-1.222222 1.4074,-2 0.47618,-2 -0.83809,0 -2.42381,0.9 -3.52381,2 -1.22222,1.222223 -1.4074,2 -0.47619,2 0.8381,0 2.42381,-0.9 3.52382,-2 z M 132.7619,148.57143 c -2.90783,-2.90784 -2.64871,-4.29492 1.57143,-8.41188 2.01667,-1.96738 4.54912,-4.9081 5.62768,-6.53495 4.74112,-7.15137 10.18551,-0.30976 6.07657,7.63604 -4.51009,8.72157 -9.25301,11.33345 -13.27568,7.31079 z m -18.56497,-2.458 c -1.47059,-2.2444 -2.93301,-3.00462 -4.82712,-2.5093 -3.23749,0.84662 -6.70315,-1.68508 -6.70315,-4.89672 0,-1.26466 1.23258,-3.72056 2.73906,-5.45754 1.9795,-2.28238 2.48377,-4.09524 1.81844,-6.53735 -1.68959,-6.20175 -0.5702,-12.55335 2.83962,-16.11243 1.79825,-1.87697 3.26955,-4.12984 3.26955,-5.00638 0,-3.14681 -3.0897,-1.48855 -8.34002,4.47612 -5.500525,6.24893 -10.518036,7.61616 -11.378004,3.10041 -0.591563,-3.10633 11.240724,-14.603037 13.956664,-13.560833 2.60592,0.999983 5.76136,-2.891866 5.76136,-7.10593 0,-4.226638 24.85672,-28.764521 28.59375,-28.226968 6.18984,0.890378 3.75188,5.132291 -11.27932,19.625323 -9.66984,9.323632 -14.75229,15.175163 -14.44898,16.635428 0.35113,1.69053 2.69203,0.0794 9.38128,-6.456653 4.90237,-4.790103 9.99532,-10.540826 11.31767,-12.779383 2.9648,-5.019013 7.16689,-4.866992 8.98529,0.325067 0.98514,2.812842 0.76683,4.182312 -0.97317,6.104988 -2.88003,3.182389 -2.82329,3.806004 0.42348,4.655053 1.46667,0.383541 2.72307,1.803521 2.792,3.155508 0.0689,1.351988 0.21893,8.06464 0.33333,14.91701 l 0.208,12.45884 -7.33333,6.53879 c -4.03333,3.59634 -7.77113,6.53985 -8.30623,6.54116 -0.5351,0.001 -2.20963,2.42653 -3.72118,5.38941 -4.07656,7.99074 -11.4573,10.29956 -15.10899,4.72638 z m 20.53323,-24.7166 c 5.5805,-5.58051 8.43141,-10.73016 5.94034,-10.73016 -1.61716,0 -11.69667,10.16095 -13.45773,13.56646 -2.9827,5.76792 0.0619,4.6192 7.51739,-2.8363 z m 3.87489,-25.369031 c 0.0532,-2.854326 -1.5764,-1.675112 -11.93839,8.638871 -11.14922,11.09756 -13.48505,14.73716 -11.03224,17.18998 1.69574,1.69574 22.90206,-22.149258 22.97063,-25.828851 z M 83.125544,142.94408 c -0.486111,-1.85888 -1.646356,-2.26999 -5.226871,-1.85197 -5.303637,0.61917 -8.782059,-1.61048 -7.576128,-4.85626 1.456393,-3.9199 6.118757,-9.56918 7.897461,-9.56918 0.945184,0 2.676468,-1.46202 3.847296,-3.24893 2.587445,-3.94894 8.598272,-5.49228 12.82058,-3.29182 1.711664,0.89203 4.012116,2.0399 5.112116,2.55082 3.611992,1.67765 3.066082,6.72321 -1.422448,13.14689 -2.373647,3.39701 -5.239312,6.92637 -6.368143,7.84304 -3.072161,2.49474 -8.35235,2.07473 -9.083863,-0.72259 z m 6.291739,-11.10095 c 0.960966,-1.79558 0.897398,-2.5098 -0.223384,-2.5098 -1.569369,0 -5.071809,3.82425 -5.151497,5.62483 -0.07909,1.78712 4.023965,-0.59081 5.374881,-3.11503 z M 63.999999,109.24568 c 0,-3.06739 2.894104,-6.57901 5.422091,-6.57901 3.731255,0 4.928543,3.95857 1.873042,6.19281 -2.946676,2.15466 -7.295133,2.38487 -7.295133,0.3862 z M 116.64656,77.300801 c -2.35954,-3.817818 1.599,-9.723442 16.84902,-25.136518 8.817,-8.911259 16.58744,-15.858327 17.26766,-15.43793 3.5548,2.196986 -0.84475,13.155732 -6.18878,15.415492 -0.68262,0.288652 -2.93246,2.569971 -4.99964,5.069599 -2.06717,2.499627 -6.05765,6.210275 -8.86773,8.245885 -3.09377,2.241115 -5.72816,5.576487 -6.67823,8.455223 -1.55277,4.704925 -5.46018,6.498308 -7.3823,3.388249 z"
       id="path516" />
  </g>
</svg>
