<?xml version="1.0" encoding="UTF-8" standalone="no"?>
<!-- Created with Inkscape (http://www.inkscape.org/) -->

<svg
   version="1.1"
   id="svg82"
   width="86.666664"
   height="160"
   viewBox="0 0 86.666664 160"
   xmlns="http://www.w3.org/2000/svg"
   xmlns:svg="http://www.w3.org/2000/svg">
  <defs
     id="defs86" />
  <g
     id="g88">
    <path
       style="fill:#000000;stroke-width:1.33333"
       d="m 3.7573948,151.33333 c -1.1267603,-2.47297 -1.1323599,-4.18141 -0.021695,-6.61905 0.9388031,-2.06045 1.0186129,-3.58143 0.2140199,-4.07869 -0.7056794,-0.43614 -1.2830535,-2.61374 -1.2830535,-4.83911 0,-2.92479 0.7390348,-4.23939 2.6666666,-4.74348 3.3558684,-0.87758 3.342656,-1.834 -0.085543,-6.19224 -1.8132494,-2.30518 -2.6093033,-4.9784 -2.3333333,-7.83556 0.603906,-6.25234 4.0893614,-6.29379 7.8918625,-0.0939 3.858269,6.29086 14.393087,17.73532 16.325666,17.73532 0.788558,0 3.949466,2.469 7.024238,5.48665 6.759727,6.63417 10.146928,6.52035 5.305553,-0.17829 -1.845105,-2.55294 -4.539767,-6.7417 -5.988139,-9.30836 -1.448371,-2.56667 -9.012337,-9.76667 -16.808813,-16 L 2.4894127,103.33333 3.3361036,95.333333 c 0.4656801,-4.4 1.3747543,-8.539192 2.0201649,-9.198204 1.553001,-1.58573 8.1094075,2.749612 8.9354675,5.908467 0.350749,1.341272 2.923734,3.353353 5.717743,4.471295 3.16271,1.265465 12.007348,8.848689 23.434385,20.092199 10.094901,9.93277 18.870875,18.05958 19.502162,18.05958 2.058001,0 -1.615641,-5.27522 -5.326273,-7.64834 -5.401891,-3.45475 -6.975471,-5.91787 -6.613225,-10.35166 0.28177,-3.4488 0.850058,-3.99136 4.124009,-3.93731 3.582815,0.0592 3.755628,-0.19351 3.060803,-4.47521 -0.747432,-4.60588 -3.950215,-8.13472 -7.453007,-8.21175 -2.097192,-0.04612 -12.438649,-6.684335 -13.219393,-8.485575 -0.264581,-0.610413 -1.591644,0.716372 -2.949028,2.94841 -2.281557,3.751721 -2.773949,3.951585 -6.518941,2.646074 C 25.822937,96.374612 23.983765,95.047828 23.963922,94.2029 23.916938,92.202189 16.810727,84.663017 8.9215796,78.244067 3.7120519,74.005372 2.6666666,72.402931 2.6666666,68.656089 c 0,-2.47429 0.6016225,-4.870533 1.336939,-5.324984 0.8857876,-0.547446 0.8580489,-1.721089 -0.0822,-3.477961 -0.7805268,-1.458427 -1.2321493,-4.272015 -1.0036057,-6.252415 0.3529085,-3.058062 1.121521,-3.660261 5.099938,-3.995734 4.1494641,-0.349899 4.8594791,0.06881 6.2175141,3.666666 1.857641,4.921452 4.854839,5.54631 3.654001,0.761787 -0.672414,-2.679111 -0.165463,-3.601856 2.694837,-4.905096 2.912052,-1.32682 3.386371,-2.227529 2.734929,-5.19352 -0.648133,-2.950931 -0.247272,-3.729747 2.256766,-4.384567 1.674689,-0.437941 3.625238,-0.215908 4.334551,0.493406 2.294914,2.294913 7.06925,1.453062 7.809328,-1.377004 0.839863,-3.211639 3.897688,-3.415678 8.268611,-0.551739 3.516273,2.303949 6.011723,1.5977 6.011723,-1.701407 0,-3.002089 8.790745,-1.388093 12.762552,2.343226 1.675757,1.574292 3.801879,2.610665 4.724717,2.303052 1.040548,-0.34685 0.290791,-1.54066 -1.973846,-3.14288 C 65.504969,36.495947 59.923082,31.583333 55.109229,27 44.88754,17.267795 40.197496,15.534389 47.666753,24.249316 c 5.121784,5.975959 -4.37595,6.858441 -11.666754,1.084017 -5.676139,-4.495585 -8,-5.025553 -8,-1.824441 0,1.765987 -0.997177,2.041809 -5.296794,1.465109 -2.913239,-0.390746 -6.284667,-1.69832 -7.492064,-2.905717 C 14.003744,20.860887 12.764837,20.124052 12.458015,20.430873 11.606312,21.282577 14.939678,28 16.21402,28 c 1.639597,0 1.365102,3.642612 -0.499486,6.628292 -1.360061,2.177805 -1.14695,3.094369 1.333333,5.734511 3.487787,3.712578 3.735408,5.717989 0.843083,6.827878 -4.249234,1.630584 -7.400251,0.71386 -12.0312376,-3.500242 C 1.8048109,40.00056 1.247102,38.802288 1.9811517,35.357105 3.1145616,30.037568 3.2497272,16.138616 2.1784669,15.067356 0.71390388,13.602793 1.2598148,9.7208675 3.151069,8.1512659 c 0.9997547,-0.8297227 5.0497546,-1.8700652 9,-2.3118722 11.212462,-1.2540345 59.936778,-1.7786294 65.16027,-0.7015541 4.264974,0.8794305 4.726757,1.4257023 5.110276,6.0452694 0.271821,3.274134 -0.333798,5.9132 -1.704561,7.427879 -1.665267,1.840099 -1.830808,3.126289 -0.763636,5.933163 0.920048,2.419909 0.927493,5.525034 0.02293,9.561386 -0.736788,3.287695 -0.988244,7.377595 -0.558793,9.088664 0.539401,2.149144 0.114706,3.366648 -1.373563,3.937752 -1.908381,0.732314 -1.831331,1.263675 0.674761,4.653344 3.722908,5.035503 3.165889,11.375055 -1.052092,11.974104 -1.65,0.234338 -3,-0.151469 -3,-0.857348 0,-0.705878 -0.9,-1.628778 -2,-2.050888 -3.502397,-1.343996 -2.174482,1.156334 4.08196,7.685918 5.880657,6.137393 6.012431,6.453597 3.981304,9.553489 -1.489168,2.272757 -1.852577,4.757396 -1.248429,8.535532 0.671119,4.196947 0.396933,5.504237 -1.29022,6.151659 -1.619933,0.621626 -1.823219,1.418612 -0.833529,3.267864 1.913161,3.574776 1.59886,9.728023 -0.648682,12.699533 -2.82006,3.72845 -2.495421,5.84804 1.360202,8.88088 2.831014,2.22687 3.334974,3.603 3,8.19189 -0.312738,4.28428 -0.920238,5.4746 -2.72159,5.33261 -2.410553,-0.19001 -2.274794,0.28569 1.764463,6.18279 3.209361,4.6855 4.189481,12.7565 1.790856,14.74718 -1.101031,0.91377 -7.784744,1.7839 -15.865026,2.06544 -12.838736,0.44732 -14.076605,0.27322 -15.380472,-2.16307 -1.807381,-3.37712 -4.813421,-3.41332 -5.688114,-0.0685 -0.611326,2.33772 -1.908458,2.57434 -13.758043,2.50985 -7.195694,-0.0392 -14.146965,-0.73563 -15.447267,-1.54767 -1.760499,-1.09945 -2.781238,-1.05941 -3.997465,0.15682 -2.6608931,2.66089 -6.382129,1.87101 -8.0092172,-1.70006 z M 55.206649,139.70081 c -4.417079,-5.15768 -11.821881,-11.6418 -13.20665,-11.56461 -0.733334,0.0409 -0.583334,0.37696 0.333333,0.74684 0.916667,0.36988 1.685628,1.37252 1.708801,2.22807 0.05328,1.96693 5.345755,8.02389 8.724667,9.98492 4.129246,2.3965 5.174981,1.7985 2.439849,-1.39522 z M 21.333333,140 c 0,-0.73333 -1.05,-1.32415 -2.333334,-1.31292 -1.994062,0.0175 -2.042529,0.20835 -0.333333,1.31292 2.516284,1.62615 2.666667,1.62615 2.666667,0 z M 57.8155,95.333333 C 56.979301,93.154232 54.666665,92.583 54.666665,94.555556 c 0,1.012003 0.934449,1.700955 3.62482,2.672515 0.160319,0.05789 -0.05388,-0.794738 -0.475985,-1.894738 z M 57.279545,77.106479 c -5.378379,-4.97838 -10.042938,-8.787531 -10.365689,-8.464782 -0.322749,0.32275 2.639598,3.980766 6.582996,8.128924 3.943397,4.14816 8.332313,8.784244 9.753146,10.30241 1.975449,2.110776 2.727471,2.327889 3.195876,0.922674 0.352332,-1.056997 -3.541559,-5.682782 -9.166329,-10.889226 z M 33.290928,85.666667 C 33.204312,83.62408 29.639816,80 27.717427,80 c -1.093724,0 -3.877578,-1.805219 -6.186342,-4.011597 -2.766808,-2.64411 -4.197752,-3.342751 -4.197752,-2.049502 0,2.73273 10.68151,12.727766 13.601926,12.727766 1.31894,0 2.378991,-0.45 2.355669,-1 z M 68.571065,72.333333 c -0.663691,-0.55 -1.654503,-1.6 -2.201806,-2.333333 -0.567876,-0.760901 -1.00386,-0.331577 -1.01551,1 -0.01133,1.297056 0.966513,2.333333 2.201805,2.333333 1.222221,0 1.679201,-0.45 1.015511,-1 z M 44.070304,63.518251 c -1.175773,-3.092518 -5.403639,-5.099512 -5.403639,-2.565143 0,1.065889 5.789778,6.874771 6.370638,6.39166 0.20385,-0.169547 -0.231299,-1.891479 -0.966999,-3.826517 z M 26.666666,63.333333 c -0.912919,-1.1 -2.559852,-2 -3.659852,-2 -1.626601,0 -1.690107,0.373399 -0.340148,2 0.912919,1.1 2.559852,2 3.659852,2 1.626601,0 1.690106,-0.373398 0.340148,-2 z m 41.201125,-7.415041 c -2.537982,-1.56856 -3.136793,-0.455759 -1.0023,1.862631 1.04239,1.132196 2.01006,1.385033 2.29702,0.600176 0.272715,-0.745898 -0.309909,-1.85416 -1.29472,-2.462807 z M 52.359144,55.666667 c 0.853605,-2.447118 -0.383576,-5 -2.423108,-5 -2.393155,0 -3.456327,1.961365 -2.464379,4.546344 0.96839,2.52358 4.065188,2.811025 4.887487,0.453656 z m 8.932287,-5.333334 c -0.02304,-0.916666 -1.523045,-2.744677 -3.333333,-4.062246 -3.25724,-2.370694 -3.291433,-2.36146 -3.291433,0.888889 0,1.806457 0.75,3.5871 1.666667,3.956983 3.024288,1.220326 5.000626,0.907968 4.958099,-0.783626 z M 30.999999,48.450292 c -0.916667,-0.369883 -2.416667,-0.369883 -3.333333,0 -0.916667,0.369884 -0.166667,0.672515 1.666666,0.672515 1.833334,0 2.583334,-0.302631 1.666667,-0.672515 z M 72.61754,30.746151 C 73.524459,29.278725 68.247314,24 65.873409,24 c -3.930288,0 0.431722,6.037633 5.714566,7.90976 0.140055,0.04963 0.603359,-0.473992 1.029565,-1.163609 z"
       id="path377" />
  </g>
</svg>
