<?xml version="1.0" encoding="UTF-8" standalone="no"?>
<!-- Created with Inkscape (http://www.inkscape.org/) -->

<svg
   version="1.1"
   id="svg92"
   width="129.33333"
   height="158.66667"
   viewBox="0 0 129.33333 158.66667"
   xmlns="http://www.w3.org/2000/svg"
   xmlns:svg="http://www.w3.org/2000/svg">
  <defs
     id="defs96" />
  <g
     id="g98">
    <path
       style="fill:#000000;stroke-width:1.33333"
       d="m 60.335532,153.61654 c -1.84957,-0.2888 -3.309109,-1.70846 -3.810568,-3.70642 l -0.812768,-3.23833 -3.958399,3.33077 c -4.46336,3.75567 -8.005753,4.24032 -10.34973,1.416 -2.078561,-2.5045 -0.211453,-5.90629 5.169485,-9.41856 2.246996,-1.46666 4.087171,-3.38613 4.08928,-4.26548 0.0021,-0.87934 1.953833,-3.08696 4.337167,-4.9058 5.667682,-4.32529 17.519342,-18.08715 16.475523,-19.13097 -0.447081,-0.44708 -2.271494,-0.0323 -4.054252,0.92186 -7.537009,4.03368 -10.117565,-2.78044 -3.243476,-8.56461 5.436588,-4.57458 8.307691,-3.9606 9.155537,1.95791 0.507496,3.54265 1.303348,4.65376 3.333334,4.65376 1.859082,0 2.776226,1.00948 3.028438,3.33333 0.286022,2.63539 -2.0172,5.69561 -10.999999,14.61535 -10.794435,10.71865 -13.42804,14.71799 -9.691967,14.71799 0.918392,0 7.368392,-5.70443 14.333333,-12.67651 8.722311,-8.73125 13.493464,-12.5697 15.330194,-12.33333 4.332092,0.55749 3.74428,5.22321 -1.368632,10.86341 -8.303461,9.1598 -3.703643,6.83651 5.659136,-2.85833 12.050152,-12.47752 20.376162,-22.67322 20.376162,-24.95184 0,-1.02186 -1.35,-2.04967 -3,-2.284 -2.1285,-0.3023 -3.1203,-1.467778 -3.4141,-4.011969 -0.32004,-2.771316 -1.22869,-3.679966 -4,-4 -2.77132,-0.320034 -3.679967,-1.228684 -4.000002,-4 -0.320033,-2.771316 -1.228684,-3.679967 -4,-4 -6.914386,-0.79848 -5.106102,-4.94256 7.725302,-17.704227 6.61218,-6.576235 12.02213,-12.722267 12.02213,-13.657848 0,-2.049431 -4.53687,1.518698 -14.23363,11.19436 C 90.628011,74.69674 87.498814,76.609248 85.411363,74.094024 83.178803,71.403955 84.71182,67.380252 89.05199,64.538488 93.360458,61.717483 112,42.68188 112,41.10287 c 0,-3.153633 -4.53227,0.145186 -15.666669,11.403007 -6.783333,6.858527 -12.333333,12.851778 -12.333333,13.318336 0,1.405214 -9.777852,10.175789 -11.344451,10.175789 -2.235985,0 -4.655549,-2.925894 -4.655549,-5.629791 0,-1.336386 2.476416,-5.116386 5.503147,-8.4 4.710158,-5.10992 5.110132,-5.97021 2.775716,-5.97021 -7.91784,0 -9.562815,-5.954744 -2.946444,-10.666015 4.567865,-3.252608 9.334248,-2.566396 9.334248,1.343843 0,4.702999 2.415707,3.98254 10.098442,-3.011757 12.326643,-11.22207 21.133193,-20.878878 20.038683,-21.973388 -0.29499,-0.29499 -3.72016,2.548535 -7.61148,6.318947 -8.232152,7.976355 -10.880484,9.613494 -13.76239,8.507603 -2.580914,-0.990391 -2.767222,-6.662624 -0.266694,-8.119647 4.566816,-2.661018 18.508924,-16.086946 20.881824,-20.1087127 2.24679,-3.808029 3.26301,-4.3981773 6.95962,-4.0416705 4.16655,0.401829 4.36572,0.692097 5.31812,7.7507962 1.44637,10.719731 0.25284,15.793661 -4.33442,18.426387 -2.11758,1.215323 -4.41913,3.458467 -5.11456,4.984764 -1.07469,2.358703 -0.68495,2.99381 2.59755,4.232816 2.33957,0.883089 3.86197,2.428161 3.86197,3.919486 0,1.353967 1.2617,3.2497 2.80377,4.212743 2.28114,1.424593 2.63374,2.540672 1.8916,5.987396 -0.5017,2.330025 -0.84489,7.080419 -0.76265,10.556429 0.0822,3.476011 -0.74327,8.046495 -1.83446,10.156633 -1.64979,3.190349 -1.68954,4.23929 -0.23597,6.227162 1.44373,1.974423 1.43503,3.430502 -0.05,8.364775 -0.98889,3.285823 -2.48402,6.800844 -3.3225,7.81116 -1.17135,1.411382 -0.98187,2.436566 0.81788,4.425269 3.60808,3.98688 1.68817,10.9815 -4.67663,17.03793 -10.18076,9.68749 -21.12137,21.5028 -22.779063,24.60023 -0.945192,1.7661 -0.794404,2.39016 0.577532,2.39016 2.238755,0 15.306891,-14.05519 18.559851,-19.96171 1.87072,-3.39673 3.03835,-4.13516 6,-3.79455 3.19831,0.36784 3.73132,1.07667 4.09223,5.44217 0.28754,3.47791 -0.40468,6.06126 -2.25416,8.4125 -2.64191,3.35865 -2.64275,3.41964 -0.0816,5.98076 3.44011,3.44011 3.26203,6.03417 -0.68523,9.98143 -3.66006,3.66006 -8.90267,4.27453 -11.34651,1.32988 -1.40825,-1.69683 -2.29929,-1.66803 -7.03648,0.22741 -5.38753,2.15567 -5.444326,2.14669 -8.436336,-1.33172 -2.547102,-2.96119 -3.256564,-3.20765 -4.594093,-1.59603 -0.869993,1.04827 -3.68722,2.30094 -6.260502,2.78368 -6.535779,1.22612 -7.889492,-1.45921 -3.58233,-7.10618 2.937891,-3.85179 3.047754,-4.36278 0.930168,-4.32642 -1.320653,0.0227 -4.37165,2.65806 -6.779994,5.85639 -4.507337,5.98584 -6.77012,7.19475 -11.952327,6.38559 z M 119.12494,83.724895 c 0.42311,-1.617975 0.49309,-3.217975 0.15551,-3.555555 -0.33758,-0.337581 -0.61379,0.08622 -0.61379,0.941772 0,0.855556 -0.82653,1.555556 -1.83674,1.555556 -1.0102,0 -2.58367,0.9 -3.49659,2 -1.40032,1.687283 -1.13744,2 1.68123,2 2.3239,0 3.5753,-0.895618 4.11038,-2.941773 z m -6.21565,-10.39156 c 2.00167,-2.393534 2.21319,-4 0.52668,-4 -2.06863,0 -12.09091,10.940287 -11.25755,12.288697 0.71551,1.157711 6.69081,-3.457713 10.73087,-8.288697 z M 6.9999998,152.4503 c -3.0694503,-1.23855 -1.7936703,-6.71648 2.3212341,-9.96688 4.9365351,-3.89942 4.9900821,-4.60256 0.3454325,-4.53598 -2.9407907,0.0421 -3.7441604,-0.61085 -4.0581164,-3.29858 -0.2977989,-2.54941 1.210848,-4.88673 6.305962,-9.7697 4.04641,-3.87794 7.631837,-6.23283 9.058117,-5.94933 3.428648,0.68152 2.266709,5.93795 -2.417123,10.93469 -4.213832,4.49535 -4.808456,6.13659 -2.222173,6.13348 3.232778,-0.004 23.666666,-21.38523 23.666666,-24.76402 0,-0.4807 -1.478891,0.095 -3.286423,1.27934 -7.597925,4.97835 -9.851355,1.0807 -3.380244,-5.84665 2.2,-2.35511 4,-5.04737 4,-5.9828 0,-2.375493 7.982509,-10.056455 12,-11.546685 4.317884,-1.601659 8.610757,-10.622127 7.394933,-15.538726 -2.141309,-8.659112 -2.274961,-11.068138 -0.718132,-12.944003 4.570232,-5.506792 11.486065,1.479503 7.969351,8.050544 -1.376934,2.572824 -1.427732,3.713422 -0.219211,4.921943 0.865183,0.865183 1.573059,4.109511 1.573059,7.209619 0,4.4478 -0.7142,6.198349 -3.38641,8.300309 l -3.38641,2.663751 3.053077,0.433024 c 4.215847,0.59794 5.014189,6.979767 1.132985,9.056924 -2.917406,1.56135 -8.079909,-0.14512 -8.079909,-2.670813 0,-1.938778 -2.215888,-1.546724 -4.571428,0.808817 -2.864585,2.864586 -2.62938,5.454066 0.571428,6.291096 5.395632,1.41099 2.915476,6.13566 -10.500443,20.00326 -7.241912,7.48572 -16.024017,16.76041 -19.515789,20.61041 -6.037183,6.65654 -9.010827,7.98908 -13.6504332,6.11696 z M 57.333332,92.587979 c 0,-1.056721 -0.6,-1.92131 -1.333333,-1.92131 -0.733334,0 -1.333334,1.23541 -1.333334,2.745356 0,1.509945 0.6,2.374536 1.333334,1.92131 0.733333,-0.453225 1.333333,-1.688634 1.333333,-2.745356 z M 26.735314,151.53532 c -2.635331,-2.63533 -1.393736,-4.74148 9.118245,-15.46753 11.26139,-11.49071 16.14644,-13.68988 16.14644,-7.26887 0,2.39255 -2.03388,5.45711 -6.568864,9.89764 -3.612876,3.53764 -7.539369,7.91324 -8.725543,9.72358 -2.373966,3.62313 -7.774842,5.31061 -9.970278,3.11518 z M 6.2222221,121.77778 c -1.9165225,-1.91652 -0.6334177,-6.68403 3.1416705,-11.6732 3.9881894,-5.27081 4.3790894,-7.87764 0.7267354,-4.84646 -2.3017809,1.91031 -4.7572948,0.81039 -4.7572948,-2.13098 0,-2.0899 4.7410348,-9.603445 7.2690938,-11.519978 0.795129,-0.602792 -0.03931,-0.970236 -1.935761,-0.852413 C 8.8333331,90.868651 6.5833332,90.89543 5.6666665,90.814257 3.4090055,90.614334 3.565323,86.04148 5.9901065,81.352467 7.6474323,78.147552 7.6832646,77.207076 6.2043922,75.728203 3.1105954,72.634407 2.9284191,70.118595 5.4897393,65.859007 7.9384273,61.786731 7.9346418,61.666003 5.2616269,58.583989 2.4518697,55.344312 2.428315,54.201262 4.778072,35.118225 5.1702821,31.932975 4.8661309,29.201966 4.0639683,28.706202 2.1837733,27.544178 2.288797,22.244536 4.230499,20.302835 5.4154688,19.117864 5.4229772,17.923968 4.2614914,15.374784 1.3744858,9.0384977 6.7758156,1.7516782 12.666666,4.035541 c 1.466667,0.5686216 5.204826,0.7133116 8.307019,0.3215332 4.32666,-0.5464172 5.825146,-0.230755 6.433773,1.3552987 0.708639,1.8466826 1.297988,1.8568019 5.515292,0.0947 5.232705,-2.1863644 8.410582,-1.6254893 8.410582,1.4844142 0,1.1230155 0.9,2.0418464 2,2.0418464 1.1,0 2,-0.4986121 2,-1.1080271 0,-0.6094149 1.44548,-1.8816245 3.212177,-2.8271326 2.699991,-1.4449909 3.6884,-1.3855472 6.198794,0.372801 2.63694,1.8469847 3.42391,1.865772 6.721609,0.1604659 5.166452,-2.6716768 8.848296,-2.4147028 10.534086,0.7352261 1.877884,3.5088582 0.279605,6.3927632 -7.557925,13.6373872 -11.638492,10.758043 -12.442074,11.577501 -12.442074,12.687901 0,0.612243 1.65,1.089515 3.666666,1.060607 3.024651,-0.04336 3.740539,0.589455 4.088563,3.614105 0.299829,2.605787 1.176092,3.666667 3.028585,3.666667 1.517779,0 3.270955,1.457904 4.196841,3.490006 1.42927,3.136902 1.216504,3.811404 -2.102936,6.666666 -2.0312,1.747164 -4.2458,3.176662 -4.921334,3.176662 -1.863412,0 -5.348623,-5.917238 -7.243499,-12.298111 -1.616589,-5.443763 -1.927585,-5.70189 -6.869732,-5.70189 -4.621531,0 -5.220719,-0.382742 -5.589069,-3.570132 -0.32162,-2.783028 0.973576,-4.91735 5.874728,-9.680827 3.45802,-3.360882 5.866092,-6.531914 5.351269,-7.046736 -0.514821,-0.514821 -3.481493,1.87613 -6.592602,5.313226 -3.298579,3.644208 -7.024744,6.402504 -8.938688,6.616868 -2.784835,0.311904 -3.342711,-0.252495 -3.681985,-3.725044 -0.359268,-3.677175 -0.787133,-4.035806 -4.214745,-3.532739 -2.86342,0.42026 -4.188708,-0.138588 -5.313719,-2.240688 -1.741441,-3.253913 -4.40691,-3.609799 -6.664312,-0.889797 -1.278092,1.540008 -0.921672,2.345965 1.836742,4.153346 2.150793,1.409255 3.422561,3.470565 3.422561,5.547363 0,2.205099 0.905132,3.54151 2.720064,4.016126 4.882281,1.276745 8.905049,12.372368 4.485658,12.372368 -3.578597,0 -9.872389,-4.433368 -9.872389,-6.954144 0,-1.384784 -0.97524,-2.370656 -2.333333,-2.358772 -1.851553,0.0162 -1.952608,0.261544 -0.489427,1.188229 1.551519,0.982633 1.513648,1.639323 -0.238833,4.141339 -1.527404,2.180676 -1.751839,3.843859 -0.841727,6.237635 1.44236,3.793696 0.304467,9.685444 -1.90789,9.87862 -0.837168,0.07309 -0.04216,0.545421 1.766696,1.049605 2.303958,0.642187 3.545544,2.171947 4.146124,5.108455 0.471517,2.305467 1.841549,5.176001 3.044514,6.378967 3.918364,3.918364 2.249131,8.250048 -6.867834,17.822131 -0.956235,1.003968 -1.487571,2.076432 -1.18075,2.383253 1.365279,1.365279 7.218115,-2.865119 10.535775,-7.6152 4.17344,-5.975351 7.380398,-5.858215 8.614975,0.314667 0.472408,2.362044 1.435292,3.653625 2.437187,3.269162 2.065448,-0.792586 4.651479,1.674007 4.636879,4.422721 -0.006,1.136666 -2.856038,5.134006 -6.333334,8.882978 -3.477295,3.748973 -9.899475,10.798973 -14.27151,15.666663 -7.310152,8.13891 -10.8458333,10.27759 -13.1619559,7.96147 z M 27.785979,92.603931 c 1.908034,-4.187678 1.91657,-4.603929 0.09441,-4.603929 -1.880456,0 -6.491204,5.678349 -5.678499,6.993333 1.288538,2.084899 4.092035,0.885296 5.584088,-2.389404 z m 68.353063,20.842299 c -2.521042,-1.59461 -0.763416,-5.762 2.190257,-5.19318 1.28555,0.24758 2.337361,1.59192 2.337361,2.98744 0,2.95831 -1.885543,3.8769 -4.527618,2.20574 z M 72.640918,91.918882 c -0.486421,-1.532579 -0.569539,-3.101373 -0.184703,-3.486208 1.112416,-1.112416 3.543783,0.877709 3.543783,2.900661 0,3.114571 -2.422377,3.536834 -3.35908,0.585547 z m 10.685039,-66.59748 c -0.45728,-0.739895 -0.477055,-2.461768 -0.04395,-3.826384 0.615425,-1.93903 -0.05727,-2.65007 -3.078905,-3.254395 -2.126506,-0.425303 -4.244214,-1.757899 -4.706011,-2.961327 -1.261095,-3.286357 4.046676,-9.9459626 7.927029,-9.9459626 3.275121,0 3.735968,0.8858742 3.294708,6.3333336 -0.335869,4.1464 0.5916,3.811229 6.701061,-2.4216439 C 99.494744,3.0474602 104.35595,2.4689563 105.11715,7.8530008 105.46472,10.311384 103.69166,12.824449 97.356275,18.853 89.55047,26.280754 85.167671,28.301358 83.325957,25.321402 Z"
       id="path238" />
  </g>
</svg>
