<?xml version="1.0" encoding="UTF-8" standalone="no"?>
<!-- Created with Inkscape (http://www.inkscape.org/) -->

<svg
   version="1.1"
   id="svg2"
   width="93.333336"
   height="158.66667"
   viewBox="0 0 93.333336 158.66667"
   xmlns="http://www.w3.org/2000/svg"
   xmlns:svg="http://www.w3.org/2000/svg">
  <defs
     id="defs6" />
  <g
     id="g8">
    <path
       style="fill:#000000;stroke-width:1.33333"
       d="m 21.288047,152.00204 c -6.720837,-1.17237 -7.958485,-2.27812 -7.925431,-7.08073 0.04369,-6.34827 4.181043,-14.05648 11.88251,-22.13807 5.365362,-5.63018 7.816531,-7.25093 11.149431,-7.37219 2.349661,-0.0855 5.049763,-0.64045 6.000226,-1.23324 1.89915,-1.18448 12.943113,-0.0893 20.271885,2.01032 10.134837,2.90348 15.737729,6.69785 19.989152,13.53696 4.947212,7.95839 6.739056,18.12409 3.646952,20.6903 -2.17683,1.80661 -56.19629,3.12492 -65.014725,1.58665 z M 40.270453,79.65921 c -0.764171,-0.92077 -1.796505,-3.296159 -2.294077,-5.278643 -1.203052,-4.793339 -3.693856,-6.664888 -8.176351,-6.143576 -2.664062,0.309829 -3.911204,1.356089 -4.471252,3.751049 -0.946502,4.04757 -6.992335,6.64144 -10.399131,4.461584 -1.54158,-0.986388 -2.28472,-3.307797 -2.331186,-7.282132 C 12.4974,60.524079 10.72574,53.800094 7.8679634,51.213842 4.5338191,48.196484 4.6687444,46.280422 8.637697,40.28293 c 1.8174,-2.746277 3.675484,-7.083413 4.129076,-9.63808 C 15.6969,14.142131 25.139626,5.9919452 43.087108,4.4748274 55.376911,3.4359586 61.439279,5.3067505 68.22867,12.233287 c 9.309872,9.497932 13.104666,21.210066 13.104666,40.445841 0,11.262568 -2.277315,14.355344 -11.952025,16.231809 -5.210381,1.010583 -6.056093,1.663271 -6.787231,5.238134 -0.459364,2.246037 -1.266362,4.781331 -1.793332,5.633984 -1.333937,2.158356 -18.723295,2.053457 -20.530295,-0.12384 z"
       id="path875" />
  </g>
</svg>
