<?xml version="1.0" encoding="UTF-8" standalone="no"?>
<!-- Created with Inkscape (http://www.inkscape.org/) -->

<svg
   version="1.1"
   id="svg12"
   width="156"
   height="156"
   viewBox="0 0 156 156"
   xmlns="http://www.w3.org/2000/svg"
   xmlns:svg="http://www.w3.org/2000/svg">
  <defs
     id="defs16" />
  <g
     id="g18">
    <path
       style="fill:#000000;stroke-width:1.33333"
       d="m 98.375581,152.11172 c -22.707953,-0.96635 -23.727617,-1.58451 -21.04679,-12.75945 2.193476,-9.14343 11.282821,-20.50264 19.864836,-24.82563 7.174303,-3.61389 23.300353,-5.00328 29.777983,-2.5656 8.91558,3.35513 11.15422,4.74994 16.44612,10.2469 6.43619,6.68559 8.75715,13.10486 7.21324,19.95035 -1.6818,7.45683 -3.72224,8.71231 -14.80293,9.10818 -5.40542,0.19312 -11.92804,0.63744 -14.49471,0.98738 -2.56666,0.34994 -12.89765,0.28598 -22.957749,-0.14213 z M 27.333333,144.16393 C 16.865207,139.3666 4,123.13375 4,114.72279 c 0,-1.70608 1.1954996,-7.06664 2.6566659,-11.91237 2.0961004,-6.951392 4.0852781,-10.279691 9.4272331,-15.773675 7.72639,-7.946281 12.315788,-9.685018 25.592537,-9.695976 7.260907,-0.006 10.302532,0.690766 15.669808,3.589551 9.396019,5.074649 12.587947,9.056867 15.841779,19.76404 2.1368,7.03143 2.61879,11.01321 1.936782,16 -1.106546,8.09098 -5.641049,17.45141 -10.697852,22.08325 -7.979756,7.30914 -26.902209,10.05686 -37.09362,5.38632 z m 5.999884,-8.09209 c -3.04209,-5.49315 -9.028077,-10.82585 -12.999884,-11.58114 -3.650428,-0.69417 -4.325776,-0.43005 -4.285382,1.67597 0.06855,3.57372 5.091673,9.09514 11.22136,12.33452 5.550704,2.93338 8.401326,1.79137 6.063906,-2.42935 z m 16.438954,-3.40582 C 49.646864,131.19971 47.875192,128.8 45.835123,127.33333 43.795052,125.86667 40.869051,123.46667 39.3329,122 c -1.536152,-1.46667 -4.414481,-3.4038 -6.396285,-4.30475 -1.981806,-0.90094 -3.603282,-2.22212 -3.603282,-2.93594 0,-2.4108 -12.126877,-9.83243 -13.622408,-8.3369 -2.587815,2.58781 0.294031,7.56681 7.29904,12.61062 3.844519,2.76817 10.290035,7.70704 14.323368,10.97527 7.748951,6.27901 12.841282,7.36706 12.438838,2.65772 z m 13.976486,-7.0218 c 0.49848,-3.37691 -6.950957,-10.97755 -10.759176,-10.97755 -0.984354,0 -5.431881,-2.93488 -9.883393,-6.52195 -4.451512,-3.58707 -9.292324,-6.90239 -10.757361,-7.36737 -1.465036,-0.46499 -3.735827,-2.030111 -5.046199,-3.478055 -3.013899,-3.330322 -6.810688,-3.376328 -8.56212,-0.103747 -1.116235,2.085704 -0.598719,3.110682 2.953088,5.848832 2.368577,1.82597 5.748309,4.58797 7.510517,6.13778 1.762207,1.54981 4.012207,2.81784 5,2.81784 C 35.191805,112 36,112.55392 36,113.23094 c 0,1.39163 16.564453,12.69553 21.465129,14.64821 4.254815,1.69534 5.783632,1.15156 6.283528,-2.23493 z m 3.999216,-12.67081 c 0.322159,-2.71039 -0.442325,-3.93071 -3.430444,-5.47593 -2.11474,-1.09357 -4.62475,-2.92788 -5.577798,-4.07623 -0.95305,-1.14836 -2.986758,-2.08792 -4.519351,-2.08792 -1.532595,0 -4.309128,-1.509675 -6.170073,-3.354839 -8.044186,-7.97596 -14.802511,-12.897599 -16.707164,-12.166715 -2.261388,0.867776 -2.789124,7.521557 -0.596562,7.521557 0.777231,0 4.585204,3 8.462164,6.666667 4.64999,4.39777 8.200878,6.66667 10.433506,6.66667 2.13881,0 4.188353,1.22685 5.568573,3.33333 1.201247,1.83333 2.996785,3.33333 3.990087,3.33333 0.993302,0 2.569521,0.91999 3.50271,2.04441 2.33892,2.81823 4.548792,1.76492 5.044352,-2.40433 z M 64,94.012103 c 0,-3.1983 -5.948047,-8.6363 -9.53916,-8.721174 -0.986796,-0.02332 -2.958851,-0.923322 -4.382347,-2 -3.026333,-2.289004 -8.74516,-2.613853 -8.74516,-0.496756 0,3.110612 5.406336,8.817928 10.907739,11.514991 C 62.339343,99.259841 64,99.217888 64,94.012103 Z M 61.333333,43.128721 C 53.625013,42.394484 42.374412,39.668341 36,36.990183 29.871407,34.415301 19.656457,34.653128 17.952388,37.410371 17.525349,38.101333 14.832475,38.666667 11.968222,38.666667 6.2692321,38.666667 4,36.233241 4,30.121896 c 0,-3.938911 5.5438576,-7.455229 11.753975,-7.455229 3.344829,0 10.029618,-3.750636 12.287812,-6.894326 0.389649,-0.54244 4.289649,-2.634777 8.666666,-4.649637 C 43.848489,7.8359525 46.243073,7.4466133 60,7.3356959 c 9.794832,-0.078972 17.500573,0.5549868 21.333333,1.755115 3.3,1.0333081 10.2,2.9399671 15.333334,4.2370201 5.133333,1.297052 12.857993,3.928902 17.165903,5.848557 4.30792,1.919653 8.80792,3.492521 10,3.495263 1.19209,0.0028 4.01742,1.133102 6.27852,2.511913 2.2611,1.378811 6.1611,2.948831 8.66667,3.488933 7.6202,1.642619 11.88891,4.429466 11.88891,7.761743 0,4.009292 -2.42947,6.334157 -5.17111,4.948459 -4.17636,-2.110844 -18.19465,-5.820858 -21.21156,-5.613744 -1.67713,0.115133 -5.62506,1.382721 -8.77317,2.816853 -9.4214,4.291945 -34.625083,6.405335 -54.177497,4.542913 z m 38.572003,-8.632578 c 9.787124,-3.091246 11.232044,-3.892092 9.730834,-5.393308 -0.78989,-0.789892 -2.96995,-1.436168 -4.84456,-1.436168 -1.87462,0 -4.09309,-0.825 -4.929931,-1.833334 -1.910491,-2.302 -6.054716,-2.376785 -7.462092,-0.134657 -0.586439,0.934272 -2.866254,2.844315 -5.066254,4.24454 C 79.110916,35.176505 79.130417,36 87.476764,36 c 4.216983,0 9.80984,-0.676736 12.428572,-1.503857 z M 46.023164,26.711461 c -2.355663,-4.555349 -4.351616,-5.42425 -8.346076,-3.633312 -2.309477,1.035467 -2.651489,1.74777 -1.503408,3.131123 C 36.991075,27.194172 38.486385,28 39.496593,28 c 1.010207,0 1.83674,0.556005 1.83674,1.235568 0,1.337988 4.041867,2.614072 5.661778,1.787516 0.54731,-0.279264 0.109933,-2.219495 -0.971947,-4.311623 z"
       id="path736" />
  </g>
</svg>
