<?xml version="1.0" encoding="UTF-8" standalone="no"?>
<!-- Created with Inkscape (http://www.inkscape.org/) -->

<svg
   version="1.1"
   id="svg22"
   width="162.66667"
   height="61.333332"
   viewBox="0 0 162.66667 61.333332"
   xmlns="http://www.w3.org/2000/svg"
   xmlns:svg="http://www.w3.org/2000/svg">
  <defs
     id="defs26" />
  <g
     id="g28">
    <path
       style="fill:#000000;stroke-width:1.33333"
       d="m 44.666668,53.180784 c -8.800001,-0.450568 -18.642902,-0.900568 -21.873116,-1 -5.041961,-0.155201 -6.617868,-0.963682 -11.135695,-5.712905 L 6.3952771,40.935758 6.8794565,31.347611 C 7.2615375,23.78131 8.0923792,20.66019 10.819538,16.546398 16.703895,7.6701209 19.210906,7.3407996 81.333335,7.2836942 129.20349,7.2396901 135.95895,7.4916161 140.84454,9.503001 c 6.07912,2.502763 9.82213,6.840071 9.82213,11.381651 0,1.626882 0.58084,3.31695 1.29076,3.755703 2.06027,1.273316 1.21563,10.251302 -1.46912,15.615735 -1.35503,2.707516 -4.46175,6.446745 -6.9038,8.309396 -4.10331,3.129746 -5.34321,3.357441 -16.34564,3.001732 -6.54805,-0.211698 -15.76402,0.112 -20.47995,0.719322 -11.390674,1.466911 -42.232367,1.911088 -62.092252,0.894244 z M 118.24034,42.209591 c 8.632,-0.188976 9.38609,-0.416639 7.66666,-2.31458 -1.04885,-1.157743 -1.90727,-2.957742 -1.90759,-4 -5e-4,-1.582169 -4.23775,-1.84724 -25.666672,-1.605634 -14.116339,0.159156 -33.627342,0.299744 -43.357786,0.312417 l -17.691715,0.02304 -1.308286,3.441049 c -0.719556,1.892576 -1.308284,4.059024 -1.308284,4.814328 0,0.931193 11.911062,1.078029 37.000001,0.456125 20.350001,-0.504433 41.308152,-1.011469 46.573672,-1.126745 z M 25.917903,36.749377 C 26.608562,32.14373 26.192787,29.63155 24.042196,25.416043 22.522514,22.43722 20.960715,20 20.571532,20 19.304186,20 16,29.158091 16,32.670753 c 0,4.479909 3.679918,9.995913 6.668622,9.995913 1.772245,0 2.583467,-1.47732 3.249281,-5.917289 z M 141.3612,36.324902 c 1.91243,-3.449988 1.73732,-6.906131 -0.81018,-15.991569 -0.73819,-2.632683 -5.07082,-1.942199 -6.97827,1.112116 -1.81513,2.906482 -1.26448,8.259096 1.53159,14.887884 1.95353,4.631341 3.6862,4.629006 6.25686,-0.0084 z M 122.66667,21.025144 V 17.333333 L 94.333335,17.285141 C 78.750002,17.258636 60.000001,17.010002 52.666668,16.732621 45.333334,16.45524 37.388306,16.542768 35.01105,16.927128 c -4.303313,0.695768 -4.312917,0.714693 -2.188064,4.311782 l 2.13422,3.612947 43.854732,-0.06745 43.854732,-0.06745 z"
       id="path597" />
  </g>
</svg>
