<?xml version="1.0" encoding="UTF-8" standalone="no"?>
<!-- Created with Inkscape (http://www.inkscape.org/) -->

<svg
   version="1.1"
   id="svg32"
   width="62.666668"
   height="162.66667"
   viewBox="0 0 62.666668 162.66667"
   xmlns="http://www.w3.org/2000/svg"
   xmlns:svg="http://www.w3.org/2000/svg">
  <defs
     id="defs36" />
  <g
     id="g38">
    <path
       style="fill:#000000;stroke-width:1.33333"
       d="m 27.333334,155.56523 c -6.734964,-2.63544 -9.69139,-4.72017 -12.714388,-8.96557 -5.006101,-7.03043 -7.9522792,-17.17492 -7.9522792,-27.38187 0,-15.16673 3.4693322,-22.14522 13.5896922,-27.335375 L 25.179385,89.357678 24.542723,63.142187 C 24.192561,48.723666 23.573998,36.389403 23.16814,35.732713 22.762284,35.076022 19.77797,34.936459 16.536331,35.422574 9.3289185,36.503391 6.6666668,34.681047 6.6666668,28.666667 c 0,-5.675319 2.7283495,-7.743937 10.3995322,-7.884865 l 6.267135,-0.115135 0.413092,-5.729992 c 0.338884,-4.700677 1.014173,-5.9585225 3.759197,-7.0021788 7.03555,-2.6749116 10.782811,0.2203333 11.740123,9.0707668 0.37464,3.463581 0.77056,3.664676 7.327868,3.721956 7.29374,0.06372 9.368078,1.548524 9.40597,6.732798 0.03114,4.260764 -4.165599,7.20665 -10.26667,7.20665 h -5.410445 l -0.515363,23.631457 c -0.605302,27.755592 -0.237012,32.298453 2.704059,33.35459 5.207391,1.869971 10.033603,6.52796 12.469618,12.034976 4.888361,11.05095 0.73452,37.03945 -7.234265,45.26114 -2.337296,2.41148 -4.958461,4.38451 -5.824813,4.38451 -0.866352,0 -2.322119,0.9 -3.235038,2 -1.942764,2.34089 -5.744917,2.41868 -11.333333,0.23189 z"
       id="path340" />
  </g>
</svg>
