<?xml version="1.0" encoding="UTF-8" standalone="no"?>
<!-- Created with Inkscape (http://www.inkscape.org/) -->

<svg
   version="1.1"
   id="svg42"
   width="73.333336"
   height="156"
   viewBox="0 0 73.333336 156"
   xmlns="http://www.w3.org/2000/svg"
   xmlns:svg="http://www.w3.org/2000/svg">
  <defs
     id="defs46" />
  <g
     id="g48">
    <path
       style="fill:#000000;stroke-width:1.33333"
       d="m 51.602822,146.74377 c -1.880204,-2.23449 -3.83961,-5.38934 -4.354235,-7.01078 -0.514624,-1.62144 -3.297529,-6.40819 -6.184234,-10.63721 -3.666612,-5.37158 -5.120325,-8.80533 -4.823118,-11.39245 0.380173,-3.30935 1.015968,-3.74635 5.976295,-4.10767 6.337526,-0.46164 6.693581,-0.11092 15.29998,15.07101 2.910008,5.13333 6.309027,10.97816 7.553375,12.98849 3.010739,4.86408 0.963665,8.20393 -5.361899,8.74809 -3.849681,0.33116 -5.298691,-0.32298 -8.106164,-3.65948 z m -26.666668,-1.33333 c -1.880204,-2.23449 -3.839609,-5.38935 -4.354235,-7.01079 -0.514624,-1.62144 -3.297529,-6.40818 -6.184233,-10.6372 -3.666613,-5.37159 -5.1203257,-8.80533 -4.8231197,-11.39246 0.3801738,-3.30934 1.0159687,-3.74634 5.9762957,-4.10766 6.337527,-0.46164 6.693581,-0.11092 15.29998,15.071 2.910009,5.13334 6.309027,10.97816 7.553375,12.9885 3.010739,4.86408 0.963666,8.20393 -5.361898,8.74809 -3.849682,0.33116 -5.298691,-0.32299 -8.106165,-3.65948 z M 29.813061,70.347985 C 21.984791,68.459407 12.102157,60.526608 8.2516542,53.040625 -0.20060957,36.6081 5.1268581,19.860575 22.11091,9.4724124 26.26363,6.9324341 29.245072,6.2634041 36.666668,6.2061276 44.928451,6.1423676 46.784007,6.62494 52.828787,10.409398 63.463981,17.06778 69.350977,27.5445 69.304053,39.729404 69.267093,49.32728 66.042,56.534708 58.90477,62.969697 49.431199,71.511152 42.217768,73.340633 29.813061,70.347985 Z m 6.18694,-10.539504 c 0,-1.753582 -17.029614,-18.475148 -18.815502,-18.475148 -0.651474,0 -1.184498,0.929796 -1.184498,2.066214 0,4.21164 4.084552,9.738494 10.181845,13.777173 6.552359,4.340103 9.818155,5.215501 9.818155,2.631761 z M 54.333335,54.235893 C 57.862054,51.059187 58.250805,48 55.12577,48 52.566749,48 29.708492,25.949163 28.579224,22.391155 27.410632,18.709247 24.696774,19.522471 19.873091,25 l -4.403156,5 3.9317,0.41182 c 2.833448,0.296785 5.607694,2.379751 9.931699,7.456944 3.300001,3.874819 8.183399,8.704497 10.851997,10.732621 2.668599,2.028123 5.609027,5.102022 6.534285,6.830883 1.775395,3.317355 2.774148,3.160417 7.613719,-1.196375 z M 58.554801,32.252221 C 56.189579,25.467345 49.544074,18.666667 45.279228,18.666667 c -3.34481,0 -3.723546,0.368766 -2.837816,2.763125 C 43.967844,25.556128 54.747579,36 57.480182,36 c 2.031037,0 2.189026,-0.550989 1.074619,-3.747779 z"
       id="path219" />
  </g>
</svg>
