<?xml version="1.0" encoding="UTF-8" standalone="no"?>
<!-- Created with Inkscape (http://www.inkscape.org/) -->

<svg
   version="1.1"
   id="svg52"
   width="62.666668"
   height="161.33333"
   viewBox="0 0 62.666668 161.33333"
   xmlns="http://www.w3.org/2000/svg"
   xmlns:svg="http://www.w3.org/2000/svg">
  <defs
     id="defs56" />
  <g
     id="g58">
    <path
       style="fill:#000000;stroke-width:1.33333"
       d="M 34.344565,153.88268 C 23.522697,149.96396 14.441627,141.43609 8.7817222,129.87706 2.0589044,116.14727 5.5824013,102.23689 17.942282,93.712153 c 8.33304,-5.747383 14.264025,-6.73216 22.694258,-3.768143 8.294474,2.916287 9.579402,3.945395 12.794245,10.24701 4.905223,9.61503 1.870418,23.47618 -5.764731,26.32979 -5.336513,1.9945 -16.768343,-0.35038 -20.654608,-4.23664 -3.150236,-3.15024 -3.380949,-4.02308 -2.259925,-8.54979 1.50256,-6.06736 6.841152,-9.42645 11.239956,-7.07228 2.151937,1.15168 2.43139,1.96875 1.358808,3.97289 -1.883954,3.5202 -1.685647,8.03167 0.353041,8.03167 3.636331,0 7.630008,-4.16983 7.630008,-7.96655 0,-5.64331 -1.226593,-7.90977 -5.467608,-10.10288 -9.698905,-5.0155 -20.807272,2.35403 -22.202155,14.72939 -0.612136,5.43086 -0.167601,6.64647 4.870963,13.32 6.855567,9.08014 9.857253,11.09504 18.218748,12.22955 10.266315,1.39295 15.246719,3.91889 15.246719,7.73279 0,6.75897 -10.495357,9.31489 -21.655436,5.27372 z M 28.947701,72.074012 C 14.910684,71.50852 10.279897,70.875369 9.3690753,69.397097 7.7886087,66.831988 6.9669795,59.662789 5.262607,33.56575 4.1525245,16.568368 4.2008748,11.364529 5.4832409,9.8193725 6.8323617,8.1937812 11.019251,7.8937949 28.939967,8.1387222 42.382756,8.3224484 51.53322,9.006325 52.783744,9.9207301 c 1.666621,1.2186639 2.158788,6.6200189 2.753796,30.2219799 0.647228,25.673311 0.487071,28.975537 -1.501762,30.964369 -1.22444,1.224438 -3.233396,2.109559 -4.464349,1.966933 -1.230952,-0.142626 -10.51163,-0.592625 -20.623728,-1 z"
       id="path80" />
  </g>
</svg>
