<?xml version="1.0" encoding="UTF-8" standalone="no"?>
<!-- Created with Inkscape (http://www.inkscape.org/) -->

<svg
   version="1.1"
   id="svg2"
   width="168"
   height="160"
   viewBox="0 0 168 160"
   xmlns="http://www.w3.org/2000/svg"
   xmlns:svg="http://www.w3.org/2000/svg">
  <defs
     id="defs6" />
  <g
     id="g8">
    <path
       style="fill:#000000;stroke-width:1.33333"
       d="M 28,154.38235 C 15.093277,152.47336 8.6268148,144.83589 8.8051276,131.71148 c 0.093699,-6.89652 0.602816,-8.19687 5.3159134,-13.57744 2.866762,-3.27276 6.562292,-6.35682 8.212292,-6.85346 1.735551,-0.5224 3,-1.96603 3,-3.42512 0,-2.14203 -1.01792,-2.52213 -6.754321,-2.52213 -9.0653585,0 -11.9123453,-1.68718 -11.9123453,-7.059513 0,-6.775729 2.2626453,-7.370393 28.1275013,-7.392422 19.308268,-0.01644 23.597729,0.334485 25.539165,2.089404 2.84535,2.571994 2.967952,5.529806 0.382232,9.221441 -1.450853,2.07138 -4.014781,3.01906 -10,3.69621 -4.426894,0.50085 -8.048898,1.1958 -8.048898,1.54433 0,0.34854 3.506912,4.06874 7.793137,8.26713 8.243628,8.07468 10.569203,13.73596 8.700709,21.18064 C 55.80784,150.23865 44.171755,156.77425 28,154.38235 Z m 120.68872,-5.01334 c -0.44109,-0.7137 -2.84349,-2.2664 -5.33865,-3.45044 -5.31788,-2.52349 -18.01674,-14.81753 -18.01674,-17.44238 0,-0.99524 -0.50502,-1.80952 -1.12228,-1.80952 -2.04298,0 -4.21105,-10.16587 -4.21105,-19.74515 0,-10.937573 2.87514,-17.208107 9.7495,-21.263139 6.09631,-3.596085 10.01213,-4.365833 17.66341,-3.47217 5.6911,0.664718 7.21182,1.467449 9.72317,5.13251 3.8084,5.558006 4.99209,12.876759 2.89961,17.928429 -1.89517,4.57537 -10.16292,9.41952 -16.07674,9.41952 -3.52014,0 -3.95895,0.44856 -3.95895,4.04691 0,5.15948 2.88377,9.73639 10.96615,17.40459 6.49208,6.15942 7.00292,8.13539 3.33028,12.88183 -1.5377,1.98728 -4.48759,2.1814 -5.60771,0.36901 z M 11.03989,46.627447 c -3.1212035,-1.242815 -5.1936797,-6.566194 -3.88452,-9.97781 0.4269621,-1.112645 2.186812,-2.559269 3.910777,-3.21472 4.179184,-1.588922 6.517353,-5.533525 10.088949,-17.020541 2.764448,-8.8910517 3.331025,-9.7013383 7.819205,-11.1825715 4.423554,-1.459904 5.047056,-1.3397614 7.265583,1.4000026 1.334731,1.6483226 2.426783,3.8386209 2.426783,4.8673299 0,1.028709 0.693256,3.212239 1.540568,4.852288 0.847312,1.64005 1.958418,3.881908 2.469126,4.981908 0.551675,1.188242 3.16422,2.16596 6.436747,2.40889 3.406377,0.252864 6.152812,1.316861 7.197541,2.7884 3.832244,5.397854 5.810328,5.574141 45.971831,4.09701 21.1113,-0.776469 39.04608,-1.632692 39.85507,-1.902718 0.80897,-0.270027 1.80402,-4.165047 2.21121,-8.655602 0.97448,-10.7468023 3.74553,-15.0295558 9.36959,-14.4810027 2.92352,0.285152 4.73641,1.436229 5.89825,3.745023 2.18315,4.3382897 2.06185,27.1543867 -0.17719,33.3333337 l -1.69104,4.666666 -29.87418,-0.453441 C 111.44338,46.6305 89.722588,45.936433 79.605749,45.337523 68.0827,44.655364 59.430088,44.740464 56.442647,45.565336 c -5.150592,1.422148 -23.1407,2.110188 -31.77598,1.215288 -2.933334,-0.303989 -6.533334,-0.197613 -8,0.236392 C 15.2,47.451021 12.667951,47.275715 11.03989,46.627447 Z M 33.333333,33.844492 c 0,-0.281137 -1.53541,-0.511159 -3.412022,-0.511159 -1.876612,0 -3.076015,0.543672 -2.665339,1.20816 0.683113,1.105302 6.077361,0.486644 6.077361,-0.697001 z M 31.755229,19.563841 C 31.987273,17.603729 31.537273,16 30.755229,16 c -0.782042,0 -1.430089,0.45 -1.440102,1 -0.01,0.55 -0.400999,2.430328 -0.868856,4.178508 -0.634227,2.369829 -0.375175,3.022124 1.018206,2.563841 1.027871,-0.338066 2.05871,-2.218394 2.290752,-4.178508 z"
       id="path1469" />
  </g>
</svg>
