<?xml version="1.0" encoding="UTF-8" standalone="no"?>
<!-- Created with Inkscape (http://www.inkscape.org/) -->

<svg
   version="1.1"
   id="svg12"
   width="168"
   height="152"
   viewBox="0 0 168 152"
   xmlns="http://www.w3.org/2000/svg"
   xmlns:svg="http://www.w3.org/2000/svg">
  <defs
     id="defs16" />
  <g
     id="g18">
    <path
       style="fill:#000000;stroke-width:1.33333"
       d="m 127.33333,146.29664 c -19.69572,-1.64895 -46.228461,-1.79168 -64.20685,-0.3454 -12.49642,1.00529 -13.889365,0.87345 -18.069896,-1.71025 -2.49134,-1.53974 -6.436955,-4.89544 -8.768032,-7.45712 l -4.238323,-4.65761 -11.165765,0.78798 c -6.141171,0.43339 -11.4819143,0.25498 -11.8683185,-0.39646 -0.3864043,-0.65145 -1.1234711,-3.14668 -1.6379263,-5.54496 -0.8076191,-3.76495 -0.3737657,-4.88513 3.1765378,-8.20161 2.26155,-2.11261 4.11191,-4.18497 4.11191,-4.60525 0,-0.42028 -1.757479,-1.67297 -3.905509,-2.78376 C 6.2470969,109.04789 4.4001724,104.73096 6.7197684,101.93602 9.0481748,99.130459 14.330036,99.546309 16,102.66667 c 1.78146,3.32869 3.744513,3.32869 8,0 3.609992,-2.823781 9.977331,-3.527395 11.380168,-1.25756 1.336655,2.16276 -0.53602,7.92422 -2.575644,7.92422 -0.996236,0 -2.549851,0.88986 -3.452477,1.97746 -1.364986,1.6447 -0.270658,3.36074 6.503406,10.19814 C 40.334955,126.03031 44,130.22505 44,130.83057 c 0,2.13797 8.370452,5.42867 11.974988,4.70776 1.983113,-0.39662 6.550015,-2.50039 10.148669,-4.67504 l 6.54301,-3.95392 18,1.08606 c 15.324813,0.92464 20.141603,1.79833 32.409783,5.87864 9.21111,3.06356 16.93594,4.7926 21.41183,4.7926 3.85112,0 8.11421,0.81324 9.47352,1.80718 3.19193,2.334 1.79419,6.1868 -2.25329,6.21102 -1.67302,0.0107 -4.24184,0.22816 -5.70851,0.48476 -1.46667,0.2566 -9.86667,-0.13624 -18.66667,-0.87299 z M 21.723337,95.734077 C 20.96338,94.780335 19.915443,89.518449 19.394589,84.040997 18.261313,72.123127 17.06652,69.566405 11.767086,67.719013 L 7.7407812,66.315436 8.5168963,54.824384 C 8.9437596,48.504307 9.667202,35.833333 10.124546,26.666667 10.982686,9.4667401 12.365665,5.3333333 17.262373,5.3333333 c 2.72655,0 12.366032,10.0418267 14.52203,15.1281667 2.177669,5.137467 1.916508,68.616519 -0.300695,73.088193 -1.753625,3.536728 -7.634139,4.852795 -9.760371,2.184384 z m 129.270103,0.05936 c -1.02325,-1.023244 -1.66011,-5.417312 -1.66011,-11.454044 0,-8.620725 -0.39204,-10.185977 -3.27273,-13.066666 C 144.2606,69.472727 142.21931,68 141.52437,68 139.11823,68 137.69208,60.645549 138.67721,53.317591 139.21827,49.292916 140.09985,37.6 140.63629,27.333333 141.17272,17.066667 142.22248,7.9166667 142.96907,7 c 2.40932,-2.958146 7.31225,-1.8429155 10.96082,2.4931729 7.49966,8.9128281 7.47378,8.7322421 7.09092,49.4808541 l -0.35414,37.69264 -4.00656,0.39344 c -2.20362,0.216392 -4.75362,-0.353608 -5.66667,-1.266667 z"
       id="path1330" />
  </g>
</svg>
