<?xml version="1.0" encoding="UTF-8" standalone="no"?>
<!-- Created with Inkscape (http://www.inkscape.org/) -->

<svg
   version="1.1"
   id="svg2"
   width="158.66667"
   height="161.33333"
   viewBox="0 0 158.66667 161.33333"
   xmlns="http://www.w3.org/2000/svg"
   xmlns:svg="http://www.w3.org/2000/svg">
  <defs
     id="defs6" />
  <g
     id="g8">
    <path
       style="fill:#000000;stroke-width:1.33333"
       d="m 143.69756,154.52392 c -1.10798,-0.62007 -2.75376,-3.09162 -3.65726,-5.49232 -3.65346,-9.70759 -4.3023,-10.54034 -6.59992,-8.47067 -3.473,3.1284 -8.74798,3.87992 -10.70257,1.52479 -2.36327,-2.84756 -5.02579,-2.618 -6.73781,0.58094 -1.83063,3.42056 -6.3684,3.41171 -10.02082,-0.0196 l -2.85937,-2.68624 -3.09725,2.68624 c -4.08735,3.54494 -6.165611,3.38862 -10.00343,-0.75246 l -3.186875,-3.4387 -2.989908,3.4387 c -3.633043,4.17836 -4.236344,4.21301 -9.218752,0.52934 l -3.935095,-2.90933 -3.096851,2.90933 c -3.849238,3.61622 -6.814666,3.68638 -10.258314,0.24272 C 55.866668,141.2 54.210996,140 53.654064,140 c -0.556932,0 -1.762018,1.2 -2.677966,2.66666 -0.915948,1.46667 -2.74714,2.66667 -4.069313,2.66667 -1.322175,0 -3.692003,-1.2 -5.266284,-2.66667 C 40.066218,141.2 38.246074,140 37.595735,140 c -0.650338,0 -2.26842,1.2 -3.595734,2.66666 -3.128912,3.45742 -6.675738,3.38964 -9.1727,-0.17528 -1.230626,-1.75696 -2.798133,-2.53205 -4.105847,-2.03024 -2.18577,0.83876 -2.614328,1.68671 -3.959167,7.83371 -0.921844,4.21356 -5.054997,6.8818 -8.8126504,5.68916 -3.9434904,-1.25161 -3.3169261,-8.65796 1.8969056,-22.42251 5.4251418,-14.3224 7.3694838,-16.6505 12.1042048,-14.49322 1.860423,0.84767 3.40167,2.30408 3.424991,3.23647 0.02332,0.93238 0.912728,2.84544 1.976456,4.25122 1.906131,2.51908 2.003183,2.51908 6.722977,0 L 38.864097,122 l 3.090144,3.57305 3.090143,3.57306 3.04356,-3.23972 c 3.686742,-3.92436 7.756639,-4.1279 12.227036,-0.61148 3.324985,2.61543 3.35286,2.61543 5.719795,0 3.060921,-3.38228 5.719219,-3.3242 9.478117,0.20711 3.074532,2.88837 4.340002,2.7738 9.27749,-0.83996 2.553763,-1.86911 3.097479,-1.80073 6.41192,0.80641 l 3.62154,2.84871 3.265663,-3.06793 3.265665,-3.06793 3.93509,2.90934 c 4.62369,3.41844 7.09512,3.65812 9.37641,0.90934 2.1164,-2.5501 5.92075,-2.55022 9.81241,-3.1e-4 2.92145,1.91421 3.16409,1.78596 5.67582,-3 1.90298,-3.62601 3.62412,-5.1164 6.26433,-5.42447 3.13324,-0.36559 3.91915,0.28458 5.64097,4.66667 1.1003,2.80029 3.40432,8.09144 5.12006,11.75811 5.11361,10.92822 6.58774,16.53636 4.88572,18.58716 -2.00171,2.41192 -5.90508,3.3153 -8.36842,1.93676 z M 50.621381,42.668702 C 43.900544,41.49633 42.662896,40.390592 42.69595,35.587977 42.73911,29.316031 46.854172,21.554757 54.24573,13.804305 63.646023,3.9475853 72.60792,1.9240822 88.71987,6.0204032 c 12.79263,3.2524133 18.57887,6.8260558 23.26928,14.3713468 4.94722,7.958397 6.73906,18.124088 3.64696,20.690306 -2.17683,1.806607 -56.196294,3.12492 -65.014729,1.586646 z"
       id="path30" />
  </g>
</svg>
