<?xml version="1.0" encoding="UTF-8" standalone="no"?>
<!-- Created with Inkscape (http://www.inkscape.org/) -->

<svg
   version="1.1"
   id="svg32"
   width="57.333332"
   height="160"
   viewBox="0 0 57.333332 160"
   xmlns="http://www.w3.org/2000/svg"
   xmlns:svg="http://www.w3.org/2000/svg">
  <defs
     id="defs36" />
  <g
     id="g38">
    <path
       style="fill:#000000;stroke-width:1.33333"
       d="M 24.597325,156.09615 C 16.732248,154.8268 10.826347,150.00437 7.058938,141.77527 1.9092104,130.52678 4.9738775,123.61545 14.096229,125.90501 c 2.772407,0.69583 3.237104,1.60156 3.237104,6.30938 0,4.3656 0.820733,6.28125 3.987864,9.30793 7.482981,7.15113 14.769495,3.56312 19.504455,-9.60436 2.174019,-6.04574 2.720808,-6.58463 6.681223,-6.58463 5.391793,0 6.432508,2.67942 4.45978,11.48212 -3.080235,13.74463 -14.001351,21.43815 -27.36933,19.2807 z m -0.111254,-17.65532 c -5.674459,-2.74767 -6.07903,-5.58039 -5.412178,-37.89496 C 19.420586,83.74564 20.657449,62.2 21.822477,52.666667 24.452246,31.147467 24.504139,21.444632 22.007097,18.146192 20.263398,15.842872 19.570234,15.773764 13.961662,17.344067 8.6392686,18.834245 7.5474605,18.785556 5.7392936,16.977389 2.7487931,13.986888 4.5311052,8.4833287 9.2864358,6.0242515 14.209528,3.4784216 17.764225,3.4648492 22.615151,5.9733607 31.107163,10.364751 35.032622,20.060793 36.660792,40.666667 c 0.521499,6.6 1.474195,18 2.117103,25.333333 3.630169,41.40751 4.035963,55.80284 1.747735,62 -3.961112,10.7278 -8.860532,13.91703 -16.039563,10.44083 z"
       id="path1052" />
  </g>
</svg>
