<?xml version="1.0" encoding="UTF-8" standalone="no"?>
<!-- Created with Inkscape (http://www.inkscape.org/) -->

<svg
   version="1.1"
   id="svg42"
   width="164"
   height="156"
   viewBox="0 0 164 156"
   xmlns="http://www.w3.org/2000/svg"
   xmlns:svg="http://www.w3.org/2000/svg">
  <defs
     id="defs46" />
  <g
     id="g48">
    <path
       style="fill:#000000;stroke-width:1.33333"
       d="m 32.874187,148.68371 c -2.942802,-2.9428 -2.339155,-43.60852 0.732562,-49.350377 4.756228,-8.890645 13.158546,-13.319873 27.370579,-14.428225 7.527104,-0.587015 8.784216,-0.298437 13.333333,3.060744 2.76247,2.039877 6.421492,5.050912 8.131163,6.691188 l 3.108489,2.982321 3.558178,-4.164018 c 2.612796,-3.057671 6.122516,-4.923275 13.209719,-7.02167 9.43211,-2.792678 9.84608,-2.804989 18.20819,-0.541473 14.42328,3.9042 17.78893,10.089769 18.18488,33.42113 0.32953,19.41767 0.0683,28.73872 -0.84715,30.21984 -0.37849,0.61243 -4.4793,1.1135 -9.11289,1.1135 -11.81666,0 -12.24306,-0.73492 -10.45112,-18.01312 1.64425,-15.85413 0.25147,-22.68587 -5.2754,-25.87644 -7.60021,-4.38747 -12.27687,3.85599 -11.20413,19.74935 1.62426,24.06475 1.57218,24.14021 -16.66317,24.14021 -17.206927,0 -17.319749,-0.14931 -16.409475,-21.7167 0.820655,-19.44401 -0.756368,-23.54974 -9.063385,-23.59622 -2.952805,-0.0165 -4.059599,0.93328 -5.802616,4.97958 -2.245257,5.21221 -2.978468,22.97225 -1.269604,30.75266 1.340815,6.10469 -2.716796,9.58068 -11.183768,9.58068 -4.038388,0 -7.335784,-0.76436 -8.554385,-1.98296 z M 60,41.173659 C 45.012629,39.936947 38.889267,38.976023 25.333333,35.733501 11.191482,32.350832 6.9356401,30.202584 5.8562449,25.901931 4.8619033,21.940159 9.5394133,16 13.653407,16 15.040455,16 17.363055,15.364339 18.81474,14.58742 21.638741,13.07606 35.340977,10.279387 52.666667,7.6781245 65.885064,5.6935273 107.21029,5.7274769 118,7.7317979 c 4.4,0.8173538 11.3,2.035657 15.33333,2.7073411 6.64811,1.10713 17.53438,4.406564 22.66667,6.86987 2.87143,1.378176 3.28199,8.520465 0.61692,10.732276 -4.22345,3.505161 -21.2104,8.997652 -32.61692,10.546228 -4.03333,0.547574 -8.23333,1.362214 -9.33333,1.810313 C 111.55732,41.664453 72.640997,42.216757 60,41.173659 Z M 107.33333,27.230652 C 134.43552,23.817745 134.89705,23.291728 112,21.911997 85.715464,20.328145 60.611227,20.803473 48.666667,23.111163 l -9.333334,1.803201 7.333334,1.49958 c 15.153778,3.098769 39.899214,3.431899 60.666663,0.816708 z"
       id="path913" />
  </g>
</svg>
