<?xml version="1.0" encoding="UTF-8" standalone="no"?>
<!-- Created with Inkscape (http://www.inkscape.org/) -->

<svg
   version="1.1"
   id="svg52"
   width="165.33333"
   height="160"
   viewBox="0 0 165.33333 160"
   xmlns="http://www.w3.org/2000/svg"
   xmlns:svg="http://www.w3.org/2000/svg">
  <defs
     id="defs56" />
  <g
     id="g58">
    <path
       style="fill:#000000;stroke-width:1.33333"
       d="m 36.102466,152.31843 c -17.319864,-0.23859 -27.8747636,-0.9095 -28.9999995,-1.84336 -4.2177279,-3.5004 -1.3244138,-8.511 13.9330535,-24.12901 3.31449,-3.39281 10.114959,-7.90729 17.631146,-11.70439 l 8.666666,-4.37831 45.333333,-0.55884 c 69.271905,-0.85392 65.999995,-1.20303 65.999995,7.04206 0,3.74026 -0.65593,4.90214 -3.34456,5.92435 -2.86942,1.09096 -19.26485,1.64289 -35.3221,1.18908 -2.56667,-0.0726 -19.06667,0.30206 -36.666668,0.83245 -29.566376,0.891 -32.457272,1.1949 -38.012724,3.99594 -3.306997,1.66737 -7.506997,4.24407 -9.333333,5.72597 l -3.320609,2.69439 36.666666,-0.41311 c 20.166666,-0.2272 48.167728,-0.74712 62.224588,-1.15536 21.08165,-0.61225 25.83237,-0.41156 27.12498,1.14595 2.1293,2.56564 0.42071,12.19412 -2.35272,13.25839 -1.17556,0.4511 -19.58077,1.10958 -40.90045,1.4633 -21.319685,0.35371 -41.763065,0.78768 -45.429731,0.96436 -3.666667,0.1767 -18.920556,0.15246 -33.897533,-0.0539 z M 86.666665,48.666667 C 84.178954,46.1 81.743757,44 81.255116,44 c -0.488642,0 -3.153444,1.8 -5.921784,4 -7.804175,6.201979 -14,4.891155 -14,-2.961919 0,-2.718818 0.924261,-4.18304 3.333333,-5.280686 4.536406,-2.066924 4.191626,-4.119574 -1.409557,-8.391804 -5.099255,-3.889391 -5.747828,-7.950094 -1.677244,-10.501182 1.630801,-1.022044 3.171467,-0.912921 5.621215,0.398144 4.521654,2.419916 7.465586,0.0062 7.465586,-6.121065 0,-3.525743 0.73134,-4.865212 3.293848,-6.0327691 4.3746,-1.9932008 7.365827,0.4564044 7.393236,6.0545411 0.03261,6.660083 1.645133,8.241603 6.39651,6.273519 6.075818,-2.516687 10.170781,-1.452391 10.659461,2.770432 0.31729,2.741781 -0.66032,4.356714 -4.333329,7.158252 -2.608682,1.989738 -4.74306,4.119221 -4.74306,4.732182 0,0.612962 1.5,2.614476 3.333334,4.44781 3.999115,3.999114 4.361355,9.47721 0.754321,11.407633 -4.142328,2.216907 -5.9581,1.662024 -10.754321,-3.286421 z"
       id="path774" />
  </g>
</svg>
