<?xml version="1.0" encoding="UTF-8" standalone="no"?>
<!-- Created with Inkscape (http://www.inkscape.org/) -->

<svg
   version="1.1"
   id="svg62"
   width="161.33333"
   height="156"
   viewBox="0 0 161.33333 156"
   xmlns="http://www.w3.org/2000/svg"
   xmlns:svg="http://www.w3.org/2000/svg">
  <defs
     id="defs66" />
  <g
     id="g68">
    <path
       style="fill:#000000;stroke-width:1.33333"
       d="m 58.743671,148.33601 c -7.657648,-0.23922 -14.557648,-0.93325 -15.333333,-1.54228 -0.775687,-0.60901 -6.510339,-1.84142 -12.743672,-2.73866 -15.623097,-2.24886 -22.0929888,-4.78447 -24.0086267,-9.40923 -3.2942608,-7.95305 4.7894337,-12.52393 12.1621487,-6.87703 5.085146,3.89482 21.169069,6.04046 44.513144,5.93819 21.249988,-0.0931 27.063729,-0.95403 41.999998,-6.21963 3.3,-1.16338 7.0739,-2.12396 8.38645,-2.13463 1.31255,-0.0107 4.8301,-1.26606 7.81679,-2.78976 l 5.43033,-2.77035 -3.81678,-4.19031 c -2.09924,-2.30467 -4.86679,-4.99204 -6.15012,-5.97192 -1.28334,-0.97989 -2.33334,-3.52446 -2.33334,-5.65461 0,-3.43284 0.64402,-4.043085 5.66667,-5.369526 4.28257,-1.130989 7.62101,-3.586071 13.66799,-10.051392 C 140.67533,81.419148 142.72453,80 146.35425,80 c 3.47865,0 4.88163,0.869292 6.99369,4.333333 4.3817,7.186488 3.57987,10.075752 -3.68128,13.265098 -3.48333,1.53 -7.96997,4.146289 -9.97032,5.813969 -3.47704,2.89881 -3.53566,3.14541 -1.33333,5.60752 1.26701,1.41646 4.78203,4.46012 7.81115,6.76369 3.02912,2.30358 5.85065,5.50063 6.27009,7.10456 1.08707,4.15694 -6.11155,10.43747 -15.90479,13.87635 -17.51918,6.15181 -25.90332,8.56881 -29.72372,8.56881 -2.2098,0 -6.897351,0.55867 -10.416781,1.24147 -8.762053,1.69995 -21.117806,2.27785 -37.655288,1.76121 z M 31.798937,54.02116 C 31.443909,53.666131 27.320719,53.021312 22.636294,52.588229 12.445221,51.646048 9.9999525,50.490007 7.3471337,45.360021 4.6074111,40.061981 4.8256763,34.848984 8.0055969,29.633432 11.180303,24.426435 14.829928,22.842625 24.279183,22.571267 c 22.624504,-0.64972 103.428787,0.599429 105.387477,1.629178 3.04383,1.600242 2.98698,6.794716 -0.10498,9.592904 C 127.38363,35.764459 121.76192,36 76.89501,36 c -44.247896,0 -50.228344,0.243468 -50.228344,2.044825 0,1.809003 5.985921,2.001214 51.904008,1.666667 50.391276,-0.367137 52.013666,-0.459996 55.666666,-3.186131 4.44864,-3.319902 5.21958,-6.065238 3.12395,-11.124532 C 134.31404,18.044112 133.90458,18 68.666665,18 H 8.6666665 L 8.2659224,14.552539 C 7.5322,8.2405811 10.079605,7.5761469 39.779422,6.3329424 66.72388,5.2050743 116.09112,5.7893085 133.31621,7.4398989 c 14.3174,1.3719618 20.09469,7.6058241 19.91967,21.4938881 -0.12254,9.717634 -2.84302,14.534574 -11.09634,19.646834 -5.9654,3.695087 -7.41349,3.969543 -25.89581,4.907988 -22.197429,1.127083 -83.463884,1.513459 -84.444793,0.532551 z"
       id="path537" />
  </g>
</svg>
