<?xml version="1.0" encoding="UTF-8" standalone="no"?>
<!-- Created with Inkscape (http://www.inkscape.org/) -->

<svg
   version="1.1"
   id="svg72"
   width="157.33333"
   height="153.33333"
   viewBox="0 0 157.33333 153.33333"
   xmlns="http://www.w3.org/2000/svg"
   xmlns:svg="http://www.w3.org/2000/svg">
  <defs
     id="defs76" />
  <g
     id="g78">
    <path
       style="fill:#000000;stroke-width:1.33333"
       d="m 63.987451,145.98488 c -1.055123,-1.27135 -1.16501,-6.31824 -0.375964,-17.26731 0.834494,-11.57975 0.67806,-16.96911 -0.621968,-21.42758 -1.704528,-5.84571 -1.842362,-5.95666 -7.399859,-5.95666 -7.040505,0 -11.074826,2.71233 -12.397462,8.33499 C 42.631772,112.05074 42.134263,121.2 42.086622,130 l -0.08663,16 -6.917332,0.40014 c -9.77998,0.56575 -10.312628,-0.81702 -9.370793,-24.32689 0.852961,-21.29143 2.087121,-25.948445 8.05732,-30.403767 13.793025,-10.293182 28.604807,-10.395869 39.806327,-0.275968 l 5.374189,4.855256 4.329022,-4.195853 c 7.494643,-7.264095 20.690665,-9.827137 31.308395,-6.080984 15.33767,5.411444 18.27693,12.567344 16.87029,41.072246 -0.51448,10.4257 -1.41542,19.43836 -2.00208,20.02815 -0.58667,0.58979 -4.60413,0.88979 -8.92767,0.66667 l -7.861,-0.40567 0.43498,-20.18654 c 0.42628,-19.78329 0.37375,-20.22942 -2.63001,-22.33333 -4.10194,-2.87311 -9.48017,-2.71055 -13.323923,0.40271 -3.024136,2.44941 -3.154387,3.29298 -3.317737,21.48705 -0.129814,14.45888 -0.602807,19.21018 -2,20.09034 -3.06001,1.92768 -26.127594,1.25768 -27.842522,-0.80868 z M 32.666666,52.127802 C 17.684392,51.430222 14.655144,50.899944 10.333333,48.218298 5.6712011,45.325484 5.3333332,44.679611 5.3333332,38.66022 c 0,-7.277439 3.8311579,-13.165557 10.3063358,-15.839835 2.615071,-1.080036 19.450894,-1.422549 57.654611,-1.172943 L 127.25523,22 l 1.59057,3.191019 c 2.02238,4.057332 1.01,6.67634 -3.1994,8.276751 -1.86847,0.710392 -24.40625,1.267907 -51.48482,1.273573 -26.488869,0.0056 -48.961889,0.507512 -49.940042,1.115484 -4.359937,2.70992 5.854797,3.440589 52.653819,3.766376 41.813033,0.291077 50.296893,0.02948 54.380653,-1.676826 7.25561,-3.03159 8.61908,-9.168274 3.83927,-17.279711 C 133.17212,17.403032 131.58071,17.331449 59.715336,17.27601 26.096185,17.250076 7.8041386,16.761778 7.2564796,15.875648 5.8858173,13.65787 7.7934501,8.3662614 10.321824,7.3726473 13.668686,6.0573791 118.09879,4.8418754 130.21411,5.9771732 c 8.8755,0.8317027 10.63886,1.4589793 14.48183,5.1515868 2.40668,2.312516 5.31158,7.093737 6.45531,10.624937 1.94795,6.014109 1.91531,6.85779 -0.51587,13.333333 -2.76165,7.355762 -9.76393,14.246302 -14.47734,14.246302 -1.45811,0 -4.34017,0.654043 -6.40458,1.45343 -4.33377,1.67814 -70.282173,2.58907 -97.086794,1.34104 z"
       id="path398" />
  </g>
</svg>
