<?xml version="1.0" encoding="UTF-8" standalone="no"?>
<!-- Created with Inkscape (http://www.inkscape.org/) -->

<svg
   version="1.1"
   id="svg82"
   width="161.33333"
   height="154.66667"
   viewBox="0 0 161.33333 154.66667"
   xmlns="http://www.w3.org/2000/svg"
   xmlns:svg="http://www.w3.org/2000/svg">
  <defs
     id="defs86" />
  <g
     id="g88">
    <path
       style="fill:#000000;stroke-width:1.33333"
       d="m 67.06082,147.80827 c -0.838291,-1.01008 -1.943156,-9.66461 -2.469195,-19.34148 -1.140606,-20.98225 -1.861105,-20.11064 17.040517,-20.61456 16.757477,-0.44676 17.166103,-0.10698 16.836939,14.00041 -0.138776,5.94772 0.18783,13.28226 0.725792,16.29896 1.334267,7.48214 -1.131274,9.84462 -10.290114,9.85999 -3.797618,0.007 -9.924715,0.37455 -13.615771,0.81816 -4.858331,0.58391 -7.129847,0.30191 -8.228168,-1.02148 z M 12.200934,100.524 C 7.6225429,97.317174 6.8365557,93.652183 8.9728138,85.471558 11.489767,75.83309 17.737834,66.918688 23.731789,64.414253 27.591075,62.80174 38.491291,62.325925 81.652589,61.885897 139.7745,61.293347 139.08724,61.216293 146.1878,69.121243 149.45509,72.758664 156,85.536686 156,88.278185 c 0,0.842869 -0.70262,3.475533 -1.56136,5.850364 -2.00116,5.534096 -6.26764,7.590481 -11.76926,5.672609 -4.2924,-1.49634 -7.3311,-6.286839 -10.62926,-16.756963 -0.97411,-3.092361 -2.24752,-5.328039 -2.82979,-4.968173 -0.58228,0.359864 -3.55637,5.178996 -6.6091,10.70918 -3.78674,6.85988 -6.67064,10.483556 -9.07582,11.403948 -1.93898,0.74199 -10.12541,1.17977 -18.192079,0.97284 -8.066666,-0.20693 -21.727226,-0.18832 -30.356798,0.0413 -17.728354,0.47182 -18.594457,0.13104 -22.434354,-8.827077 -2.924122,-6.821702 -7.845381,-13.710278 -9.792924,-13.707737 -0.778757,0.001 -2.500593,3.692678 -3.826301,8.203693 -1.577112,5.366468 -3.815289,9.514225 -6.47434,11.998152 -4.687122,4.378429 -6.044734,4.597499 -10.24768,1.653639 z m 8.808408,-19.9591 c -1.312244,-1.312244 -3.676009,0.70225 -3.676009,3.132839 0,2.035298 0.17538,2.031646 2.253968,-0.04695 1.239683,-1.239682 1.879601,-2.628334 1.422041,-3.085894 z M 142.7917,79.591708 c -1.05561,-1.055609 -1.45837,-0.709636 -1.45837,1.252738 0,3.524992 1.8646,5.396047 2.45837,2.466878 0.25211,-1.243682 -0.19789,-2.91751 -1,-3.719616 z M 58.666665,39.963629 C 41.266239,38.618645 32.768249,37.148962 20,33.276434 7.5451586,29.498961 4.5477163,27.023518 6.2488736,21.920046 7.382663,18.518678 8.6769544,17.93332 22.739614,14.461928 31.132826,12.390051 39.707655,10.68853 41.79479,10.680772 43.881924,10.673014 48.868335,9.7135069 52.875702,8.5485337 58.662384,6.8662993 64.329648,6.5685796 80.414244,7.1018452 102.13824,7.8220784 121.79143,9.7463131 129.33333,11.89149 c 2.56667,0.730048 8.56667,2.277145 13.33333,3.437993 13.11036,3.192825 17.68408,10.568772 9,14.514128 -17.09441,7.766348 -61.26571,12.572954 -92.999995,10.120018 z m 51.524255,-11.80473 c 6.70501,-0.691809 13.89046,-2.148312 15.96767,-3.236673 3.73884,-1.958975 3.68339,-1.987442 -5.52425,-2.835856 -5.11556,-0.471362 -14.10101,-1.505922 -19.96768,-2.299023 C 94.799998,18.994244 85.199998,18.645798 79.333332,19.013019 62.874672,20.043244 49.5033,21.116188 39.999999,22.169198 l -8.666666,0.960306 6,1.788501 c 3.299999,0.983674 12.200755,2.330293 19.779458,2.992484 7.578701,0.662192 14.149377,1.573904 14.601501,2.026028 0.956406,0.956405 20.915649,0.03429 38.476628,-1.777618 z"
       id="path259" />
  </g>
</svg>
