<?xml version="1.0" encoding="UTF-8" standalone="no"?>
<!-- Created with Inkscape (http://www.inkscape.org/) -->

<svg
   version="1.1"
   id="svg92"
   width="157.33333"
   height="153.33333"
   viewBox="0 0 157.33333 153.33333"
   xmlns="http://www.w3.org/2000/svg"
   xmlns:svg="http://www.w3.org/2000/svg">
  <defs
     id="defs96" />
  <g
     id="g98">
    <path
       style="fill:#000000;stroke-width:1.33333"
       d="m 77.327253,143.53256 c -8.839564,-2.38544 -18.594058,-9.53326 -19.552977,-14.32784 -0.431957,-2.15979 -1.307879,-4.24981 -1.946493,-4.64449 -1.808544,-1.11774 -1.366956,-9.07526 0.790104,-14.23783 3.119557,-7.46615 9.099961,-11.655735 16.637934,-11.655735 7.687021,0 12.527311,3.282825 14.744149,9.999915 2.523473,7.6462 -0.966508,14.45528 -8.226293,16.04979 -4.712501,1.03504 -11.395932,-1.43558 -12.213289,-4.51482 -0.516215,-1.94473 -0.602428,-1.93071 -0.739055,0.12018 -0.238701,3.58316 7.553751,10.19018 13.012723,11.03314 7.11597,1.09883 11.442258,3.67119 11.934961,7.0964 0.940606,6.53899 -3.391615,8.06327 -14.441764,5.08128 z M 78.666665,113.6 c 0,-1.37997 -2.886697,-4.26667 -4.266667,-4.26667 -1.722581,0 -1.221685,3.71523 0.6,4.45029 2.570983,1.03742 3.666667,0.98255 3.666667,-0.18362 z M 32.666666,52.127802 C 17.684392,51.430222 14.655144,50.899944 10.333333,48.218298 5.6712011,45.325484 5.3333332,44.679611 5.3333332,38.66022 c 0,-7.277439 3.8311579,-13.165557 10.3063358,-15.839835 2.615071,-1.080036 19.450894,-1.422549 57.654611,-1.172943 L 127.25523,22 l 1.59057,3.191019 c 2.02238,4.057332 1.01,6.67634 -3.1994,8.276751 -1.86847,0.710392 -24.40625,1.267907 -51.48482,1.273573 -26.488869,0.0056 -48.961889,0.507512 -49.940042,1.115484 -4.359937,2.70992 5.854797,3.440589 52.653819,3.766376 41.813033,0.291077 50.296893,0.02948 54.380653,-1.676826 7.25561,-3.03159 8.61908,-9.168274 3.83927,-17.279711 C 133.17212,17.403032 131.58071,17.331449 59.715336,17.27601 26.096185,17.250076 7.8041386,16.761778 7.2564796,15.875648 5.8858173,13.65787 7.7934501,8.3662614 10.321824,7.3726473 13.668686,6.0573791 118.09879,4.8418754 130.21411,5.9771732 c 8.8755,0.8317027 10.63886,1.4589793 14.48183,5.1515868 2.40668,2.312516 5.31158,7.093737 6.45531,10.624937 1.94795,6.014109 1.91531,6.85779 -0.51587,13.333333 -2.76165,7.355762 -9.76393,14.246302 -14.47734,14.246302 -1.45811,0 -4.34017,0.654043 -6.40458,1.45343 -4.33377,1.67814 -70.282173,2.58907 -97.086794,1.34104 z"
       id="path120" />
  </g>
</svg>
