<?xml version="1.0" encoding="UTF-8" standalone="no"?>
<!-- Created with Inkscape (http://www.inkscape.org/) -->

<svg
   version="1.1"
   id="svg2"
   width="61.333332"
   height="161.33333"
   viewBox="0 0 61.333332 161.33333"
   xmlns="http://www.w3.org/2000/svg"
   xmlns:svg="http://www.w3.org/2000/svg">
  <defs
     id="defs6" />
  <g
     id="g8">
    <path
       style="fill:#000000;stroke-width:1.33333"
       d="m 26.122546,153.53161 c -0.385824,-0.62427 -0.79392,-6.47427 -0.90688,-13 -0.166761,-9.63384 -0.739133,-12.67808 -3.043857,-16.18917 -1.561161,-2.37832 -3.219427,-4.32832 -3.685032,-4.33333 -1.768513,-0.019 -11.8201105,-11.41023 -11.8201105,-13.3954 0,-4.99259 8.6227275,-7.349743 11.9999995,-3.28038 3.27979,3.95191 4,1.78528 4,-12.033309 0,-10.615372 -0.64949,-15.881225 -2.666666,-21.620454 -5.028878,-14.308056 -3.113352,-37.679568 3.088209,-37.679568 2.474128,0 5.034708,5.022671 4.256585,8.349443 -0.383859,1.64114 0.125681,5.68389 1.132311,8.98389 l 1.830233,6 0.90658,-5.333333 c 0.638453,-3.755965 0.09565,-7.958179 -1.835308,-14.208356 -2.686104,-8.694458 -3.677273,-9.977678 -14.471713,-18.735857 -2.42273,-1.965706 -2.613489,-2.832864 -1.393219,-6.333333 1.853963,-5.3182816 5.499732,-5.289612 13.647616,0.107321 15.296797,10.132179 20.922916,27.000104 15.73313,47.170225 -3.54986,13.796544 -4.39185,19.021934 -5.127561,31.82162 -0.873225,15.192111 0.269796,17.269921 6.224563,11.315161 4.801737,-4.801741 7.4205,-4.80823 9.894251,-0.0245 1.762526,3.40834 1.716007,4.16017 -0.474361,7.66666 -1.335686,2.13826 -5.19965,6.69661 -8.586585,10.12968 -6.6748,6.76571 -6.754197,7.11884 -4.877223,21.69198 1.547647,12.01619 0.491222,14.06608 -7.249065,14.06608 -3.230918,0 -6.190073,-0.51077 -6.575897,-1.13505 z"
       id="path328" />
  </g>
</svg>
