<?xml version="1.0" encoding="UTF-8" standalone="no"?>
<!-- Created with Inkscape (http://www.inkscape.org/) -->

<svg
   version="1.1"
   id="svg12"
   width="86.666664"
   height="109.33333"
   viewBox="0 0 86.666664 109.33333"
   xmlns="http://www.w3.org/2000/svg"
   xmlns:svg="http://www.w3.org/2000/svg">
  <defs
     id="defs16" />
  <g
     id="g18">
    <path
       style="fill:#000000;stroke-width:1.33333"
       d="M 7.4385231,102.24175 C 4.1292093,99.821862 3.8229444,81.239924 7.0336375,77.676227 9.1422387,75.335794 9.1786241,74.864787 7.3669708,73.361248 6.2098325,72.400908 5.3333332,69.531125 5.3333332,66.702827 c 0,-4.02222 0.8073111,-5.581121 4.2310502,-8.170073 4.3172496,-3.264604 7.5358636,-6.321249 12.6395076,-12.003451 1.578808,-1.757784 4.428808,-4.608947 6.333333,-6.335918 1.904527,-1.72697 3.462775,-3.765958 3.462775,-4.531085 0,-0.765126 -1.805219,0.49785 -4.011597,2.806613 -2.206379,2.308764 -4.536561,4.197752 -5.178184,4.197752 C 21.223221,42.666665 12,52.9874 12,54.763241 12,55.545465 10.65,55.993737 8.9999997,55.7594 6.2377273,55.367094 6.0102314,54.672765 6.1291169,46.997309 6.2667014,38.11462 8.827456,33.333332 13.447249,33.333332 c 1.439827,0 2.534207,-1.17534 2.793349,-3 0.342221,-2.409628 1.146549,-2.915766 4.087228,-2.571968 2.797247,0.327031 3.480821,-0.04192 2.896908,-1.563574 -0.420339,-1.095384 -1.61786,-2.319168 -2.66116,-2.719519 C 19.520275,23.077919 18.666666,21.231527 18.666666,19.375179 18.666666,16.420113 18.097653,16 14.095238,16 9.6990538,16 5.3333332,13.251476 5.3333332,10.483773 c 0,-4.4275796 2.9254328,-6.4837731 9.2247358,-6.4837731 5.55041,0 6.573334,0.4171526 7.235906,2.9508312 0.467003,1.7858222 -0.0796,3.8914599 -1.384474,5.3333329 -1.433962,1.584509 -1.611503,2.382502 -0.530071,2.382502 0.894335,0 3.140663,-1.8 4.991841,-4 2.53948,-3.0180006 4.492619,-3.9999995 7.955765,-3.9999995 2.76971,0 4.882824,0.7631162 5.328397,1.9242619 0.63488,1.6544706 1.367795,1.6241286 5.227444,-0.21641 3.684874,-1.757193 4.858788,-1.8338054 6.553079,-0.427669 3.001466,2.4909956 2.696437,3.2141536 -4.049152,9.5996356 -6.601791,6.249361 -11.022941,13.120181 -8.442412,13.120181 0.83208,0 6.533129,-5.1 12.668998,-11.333333 7.593895,-7.714519 12.124236,-11.3231764 14.188033,-11.3015244 5.224408,0.054811 13.377311,2.3696864 14.448121,4.1022934 0.564362,0.913156 1.430086,5.682889 1.923834,10.599407 0.983314,9.791431 -0.233688,13.505907 -6.64007,20.26649 -2.651056,2.79763 -4.725825,3.666666 -8.753935,3.666666 -6.6324,0 -6.762029,-1.84971 -0.613751,-8.757795 2.566093,-2.883212 4.618724,-6.142204 4.561404,-7.242204 -0.07125,-1.367255 -0.316987,-1.472714 -0.776736,-0.333334 -0.369883,0.916667 -1.453508,1.666667 -2.408056,1.666667 -0.954549,0 -2.644359,1.387029 -3.755135,3.082285 -1.110774,1.695258 -7.841939,8.933097 -14.958146,16.084089 -7.116205,7.150992 -12.590894,13.349464 -12.165975,13.774381 0.424918,0.424919 1.537078,0.145624 2.471466,-0.620656 0.934388,-0.766279 3.184097,-1.60178 4.999355,-1.856668 7.000183,-0.982925 4.600604,3.952389 -8.617304,17.723566 -12.87745,13.41647 -15.373844,17.514485 -7.093262,11.644119 9.052479,-6.417592 9.186987,-6.544874 20.604674,-19.497784 5.982559,-6.786974 11.086021,-8.988066 13.138758,-5.666666 0.453225,0.733333 3.115361,1.333333 5.915857,1.333333 2.800497,0 7.265086,0.908052 9.92131,2.017893 l 4.829499,2.017893 v 14.506121 c 0,11.997699 -0.3647,14.646075 -2.109049,15.315435 -3.903132,1.49778 -7.191055,0.82635 -8.833689,-1.80393 -1.47649,-2.364232 -1.847487,-2.418236 -3.893386,-0.566722 -2.759394,2.497212 -9.670885,1.939822 -10.167962,-0.820024 -0.198123,-1.1 2.321941,-4.947432 5.60014,-8.549849 5.983642,-6.575434 6.87983,-10.023965 1.91438,-7.366538 -1.463586,0.783288 -2.982602,2.26207 -3.375591,3.286183 -0.392989,1.024115 -1.709097,2.193723 -2.924684,2.599132 -1.215586,0.405408 -3.987858,3.390123 -6.160602,6.6327 -4.830527,7.209018 -9.060556,9.530228 -12.003767,6.587018 -1.125184,-1.12518 -2.045789,-2.956268 -2.045789,-4.069076 0,-1.499284 -1.06244,-1.129302 -4.1023,1.428571 -2.256265,1.898525 -4.841588,3.451855 -5.745161,3.451855 -2.220165,0 -5.711088,-2.882232 -6.43751,-5.31505 -0.460768,-1.543122 -1.306224,-1.226038 -3.820046,1.432684 -4.148033,4.387136 -7.095068,5.427936 -9.7897919,3.457456 z M 52.086625,83.022975 c 1.042341,-2.029304 3.045456,-4.743449 4.451367,-6.031435 1.405912,-1.287985 2.269836,-2.628157 1.919833,-2.978161 -1.037853,-1.037852 -18.484726,16.864404 -17.68946,18.151173 1.04962,1.69832 9.083263,-4.790327 11.31826,-9.141577 z m -29.868092,-2.80678 c 7.784502,-7.787324 9.781466,-10.294572 9.781466,-12.280924 0,-0.830834 -4.2,2.756582 -9.333333,7.972037 -5.133333,5.215456 -9.333333,9.769907 -9.333333,10.121001 0,1.974064 3.183569,-0.108413 8.8852,-5.812114 z M 21.019607,65.333331 c 2.933334,-2.933333 6.003922,-5.333333 6.823529,-5.333333 0.819608,0 1.490196,-0.693365 1.490196,-1.540812 0,-0.847446 1.530535,-3.547446 3.401188,-6 5.012614,-6.571874 1.887532,-5.428246 -6.94303,2.540812 -9.421837,8.502649 -12.355542,11.811216 -12.413798,14 -0.0771,2.896928 2.144053,1.831196 7.641915,-3.666667 z M 50.920125,34.596794 c 5.161515,-5.171764 9.00231,-9.785469 8.535101,-10.252679 -0.467209,-0.467208 -5.345018,3.764235 -10.839574,9.403207 -5.494557,5.638971 -9.335353,10.252677 -8.535101,10.252677 0.80025,0 5.67806,-4.231443 10.839574,-9.403205 z M 34.639714,18.717026 c 0.752122,-1.405355 0.875118,-2.859497 0.273321,-3.231428 -1.540435,-0.952041 -8.471713,5.737764 -7.527608,7.265359 1.04982,1.698644 5.515221,-0.784456 7.254287,-4.033931 z"
       id="path189" />
  </g>
</svg>
