<?xml version="1.0" encoding="UTF-8" standalone="no"?>
<!-- Created with Inkscape (http://www.inkscape.org/) -->

<svg
   version="1.1"
   id="svg22"
   width="158.66667"
   height="148"
   viewBox="0 0 158.66667 148"
   xmlns="http://www.w3.org/2000/svg"
   xmlns:svg="http://www.w3.org/2000/svg">
  <defs
     id="defs26" />
  <g
     id="g28">
    <path
       style="fill:#000000;stroke-width:1.33333"
       d="m 9.0000002,140.58147 c -0.55,-0.56426 -1,-7.86524 -1,-16.22442 v -15.19852 l 12.3333338,0.31936 c 6.783333,0.17564 24.633334,-0.0817 39.666667,-0.5719 75.220479,-2.45268 89.954479,-2.19096 91.843639,1.63142 0.57879,1.17109 0.45792,7.95069 -0.2686,15.06576 -0.9871,9.66702 -1.85853,13.17398 -3.448,13.87608 -2.94664,1.3016 -137.89061,2.37068 -139.1270398,1.10222 z M 133.74716,130.70444 c 5.0498,-0.0376 5.07799,-0.068 4.66667,-5.03777 -0.40883,-4.93959 -0.48229,-4.99927 -6.08049,-4.9394 -3.11667,0.0333 -13.72277,0.18334 -23.56911,0.33334 l -17.902441,0.27272 4.90244,5.48044 4.902441,5.48045 14,-0.77601 c 7.7,-0.4268 16.28622,-0.79299 19.08049,-0.81377 z m -75.078224,-4.03459 c -3.61839,-5.08156 -5.634471,-5.53176 -22.653299,-5.05863 -12.254069,0.34068 -14.041497,0.68712 -14.446099,2.8 -1.132484,5.91394 -0.01446,6.25545 20.479408,6.25545 h 19.465973 z m 23.055263,-0.33652 c -2.019327,-3.47063 -3.506427,-4.41588 -7.469711,-4.74796 l -4.94844,-0.41464 2.346978,4.71516 c 2.070698,4.16012 2.950004,4.71903 7.46971,4.74797 l 5.122736,0.0328 z M 52.666668,40.723497 c -4.4,-0.85822 -8.9,-1.919254 -10,-2.357853 -1.1,-0.438599 -3.807579,-1.369435 -6.016843,-2.068527 C 34.440562,35.598027 27.998441,32.000583 22.333999,28.302796 7.2733227,18.471081 1.9526643,11.183975 7.6666668,8.2146029 8.9604623,7.5422616 39.136518,6.9233081 75.399452,6.8253079 126.11594,6.6882472 141.27319,7.0247852 142.91146,8.3242833 c 1.16189,0.9216442 3.98214,4.3157397 6.26721,7.5424337 3.57223,5.044266 4.15467,7.02468 4.15467,14.126684 0,9.452096 -2.2505,12.673266 -8.85424,12.673266 -4.86314,0 -8.39152,-4.332684 -11.72979,-14.403583 l -2.34362,-7.070249 -4.20284,3.416681 c -6.77983,5.511628 -22.14253,12.939776 -32.202848,15.570671 -10.6277,2.779272 -28.654946,3.016233 -41.333334,0.54331 z M 145.33334,27.481045 c 0,-3.701862 -5.12007,-10.739694 -5.44252,-7.481045 -0.35951,3.633371 0.34942,7.308983 1.73588,9 2.13825,2.607964 3.70664,1.965252 3.70664,-1.518955 z"
       id="path50" />
  </g>
</svg>
