<?xml version="1.0" encoding="UTF-8" standalone="no"?>
<!-- Created with Inkscape (http://www.inkscape.org/) -->

<svg
   version="1.1"
   id="svg2"
   width="93.333336"
   height="161.33333"
   viewBox="0 0 93.333336 161.33333"
   xmlns="http://www.w3.org/2000/svg"
   xmlns:svg="http://www.w3.org/2000/svg">
  <defs
     id="defs6" />
  <g
     id="g8">
    <path
       style="fill:#000000;stroke-width:1.33333"
       d="m 36.208105,153.24954 c -1.409343,-1.51276 -3.603685,-6.16276 -4.876316,-10.33333 -1.272631,-4.17059 -3.084088,-8.822 -4.025462,-10.33649 -0.941372,-1.51449 -2.295945,-4.86998 -3.010162,-7.45666 -2.358691,-8.54248 3.630542,-16.87926 11.100387,-15.45131 6.087237,1.16365 6.458576,-0.15114 4.860221,-17.208509 C 39.442656,83.775124 38.720614,64.690525 38.652237,50.053023 38.568249,32.073771 38.028736,22.837908 36.989306,21.585472 35.805313,20.158848 32.210489,19.83881 21.392017,20.196889 13.65974,20.45282 6.5833335,20.177808 5.6666668,19.585752 2.9573676,17.835874 3.5678856,8.3250838 6.4898978,6.7612704 10.282751,4.7313968 81.612958,3.8976393 85.526233,5.8374383 89.02374,7.5711422 90.631309,15.23536 88.040804,17.825865 87.16162,18.705049 81.05096,19.362402 73.088062,19.434405 62.49614,19.530178 59.29571,20.002529 58.092851,21.647537 57.175447,22.902161 55.616978,39.128063 54.19759,62.202784 52.89628,83.357918 51.499524,102.31666 51.093684,104.33333 50.447967,107.54199 50.766729,108 53.645602,108 c 5.840414,0 11.099252,2.64376 13.566313,6.82017 2.9086,4.92386 2.219782,9.63153 -2.504212,17.11482 -1.855903,2.93994 -3.374368,6.22298 -3.374368,7.29563 0,2.13251 -4.625024,10.72651 -7.769024,14.43604 -2.944,3.47356 -13.978554,3.20836 -17.356206,-0.41712 z"
       id="path775" />
  </g>
</svg>
