<?xml version="1.0" encoding="UTF-8" standalone="no"?>
<!-- Created with Inkscape (http://www.inkscape.org/) -->

<svg
   version="1.1"
   id="svg12"
   width="76"
   height="165.33333"
   viewBox="0 0 76 165.33333"
   xmlns="http://www.w3.org/2000/svg"
   xmlns:svg="http://www.w3.org/2000/svg">
  <defs
     id="defs16" />
  <g
     id="g18">
    <path
       style="fill:#000000;stroke-width:1.33333"
       d="M 37.365596,157.52812 31.39786,156.66666 29.658676,146.2013 c -1.859549,-11.18964 -5.195736,-19.09061 -9.919132,-23.49112 -4.017329,-3.74271 -1.7716,-5.65561 7.546868,-6.42837 l 7.380255,-0.61203 0.04984,-18.834889 c 0.02741,-10.359191 0.845102,-29.637638 1.8171,-42.840992 1.899217,-25.798469 1.625701,-32.013703 -1.569331,-35.660566 -4.944591,-5.64384 -13.587719,-0.419409 -13.34642,8.067385 0.14436,5.077321 -3.49872,10.932615 -6.802115,10.932615 -3.884393,0 -9.4824077,-5.15542 -9.4824077,-8.732703 0,-1.952231 1.3095774,-4.06389 3.3489935,-5.400168 1.8419462,-1.206889 3.6904902,-3.554973 4.1078742,-5.217965 3.054783,-12.1712271 24.889744,-15.4075987 32.427586,-4.806407 1.36506,1.919816 4.00545,7.990576 5.867532,13.490576 3.168993,9.360203 3.391909,11.735669 3.48416,37.128429 0.0542,14.920635 0.43611,27.674603 0.848677,28.34215 0.412568,0.667548 0.764133,6.241364 0.781259,12.386255 l 0.03113,11.17254 4.919471,0.78666 c 2.705708,0.43266 6.092112,1.64411 7.525342,2.69211 2.518435,1.84153 2.52747,2.05512 0.269271,6.36533 -1.285132,2.45292 -3.548416,6.3581 -5.029519,8.67818 -1.481104,2.32008 -3.302708,8.02008 -4.048012,12.66666 -0.745302,4.64659 -1.770298,8.86135 -2.277768,9.36612 -1.458962,1.45123 -13.673782,2.22252 -20.223741,1.27702 z"
       id="path636" />
  </g>
</svg>
