<?xml version="1.0" encoding="UTF-8" standalone="no"?>
<!-- Created with Inkscape (http://www.inkscape.org/) -->

<svg
   version="1.1"
   id="svg22"
   width="162.66667"
   height="162.66667"
   viewBox="0 0 162.66667 162.66667"
   xmlns="http://www.w3.org/2000/svg"
   xmlns:svg="http://www.w3.org/2000/svg">
  <defs
     id="defs26" />
  <g
     id="g28">
    <path
       style="fill:#000000;stroke-width:1.33333"
       d="M 9.0000002,154.53491 C 3.6764557,151.49119 8.6283218,144 15.96384,144 c 3.432098,0 16.216642,-2.62989 26.264373,-5.40282 3.058849,-0.84416 6.958849,-3.0285 8.666667,-4.85408 3.088086,-3.30102 3.102994,-3.48497 2.717554,-33.53116 -0.213161,-16.616568 -1.019016,-33.426084 -1.790789,-37.354483 -1.010115,-5.141585 -0.99074,-7.555027 0.06916,-8.614925 1.97122,-1.97122 21.595471,-1.24294 23.768545,0.88208 1.27641,1.248185 1.354321,4.228799 0.337605,12.915688 -1.850288,15.808995 -4.454068,50.22106 -4.29105,56.71135 0.07485,2.98007 1.062912,8.08007 2.195691,11.33333 2.728022,7.83469 2.633758,13.6839 -0.26277,16.30522 -1.915378,1.7334 -5.754403,2.14383 -20.333334,2.17383 -9.884687,0.0204 -23.372157,0.32227 -29.972157,0.67096 -6.830579,0.36088 -13.005165,0.0593 -14.3333335,-0.70008 z M 145.66011,149.12678 C 144.63686,148.10352 144,143.70946 144,137.67274 c 0,-8.62074 -0.39204,-10.18599 -3.27273,-13.06668 -1.8,-1.8 -3.84129,-3.27272 -4.53623,-3.27272 -2.40614,0 -3.83229,-7.35445 -2.84716,-14.68241 0.54106,-4.02468 1.42264,-15.717595 1.95908,-25.984262 0.53643,-10.266667 1.58619,-19.416667 2.33278,-20.333333 2.40932,-2.958147 7.31225,-1.842916 10.96082,2.493173 7.49966,8.912828 7.47378,8.732241 7.09092,49.480852 L 155.33334,150 l -4.00656,0.39344 c -2.20362,0.21639 -4.75362,-0.35361 -5.66667,-1.26666 z M 6.7460965,42.095708 C 3.225463,37.853603 12.518632,13.25444 19.327218,8.7932835 c 4.562921,-2.9897411 6.725487,-2.664122 9.733799,1.4656255 2.548512,3.498546 2.706689,3.533323 6.064297,1.333334 4.530705,-2.9686327 7.1481,-2.8524252 9.184118,0.407757 2.128101,3.407632 5.253037,3.407632 7.381138,0 2.151346,-3.4448509 6.687963,-3.4021929 10.413663,0.09792 l 2.942768,2.764588 2.729136,-2.929385 c 3.018275,-3.2397368 7.730529,-2.90265 11.452417,0.819238 1.886697,1.886698 2.360348,1.886511 5.056577,-0.002 3.758501,-2.632557 7.539666,-2.655551 10.404107,-0.06327 2.00528,1.814754 2.580285,1.74689 5.648622,-0.666667 4.32784,-3.4042769 7.18103,-3.4107552 8.99548,-0.02043 1.68659,3.151427 5.66283,3.48278 8,0.666667 2.10658,-2.538278 6.49444,-2.569163 9.2613,-0.06519 1.898,1.717665 2.43353,1.492331 4.77165,-2.007757 1.44854,-2.1684121 3.71309,-4.2888344 5.03233,-4.7120489 2.84656,-0.9131819 8.79932,2.6673068 9.74704,5.8626839 0.36794,1.240604 2.43569,6.796754 4.595,12.347001 4.60834,11.845211 4.82405,14.682628 1.35489,17.82217 -3.20348,2.899113 -7.64923,1.72659 -8.77781,-2.315063 -1.01346,-3.629358 -3.46431,-9.03924 -5.11666,-11.294235 -0.96037,-1.310652 -1.67138,-1.083547 -3.13076,1 -2.29672,3.279024 -7.94564,3.523567 -11.29866,0.48912 -2.17675,-1.969927 -2.68864,-1.991668 -4.77166,-0.202665 -4.53217,3.89246 -7.25046,4.001602 -10.96759,0.440362 l -3.5334,-3.38521 -2.90735,3.343748 c -3.505855,4.032084 -5.548177,4.183976 -9.553141,0.710488 -3.023337,-2.622126 -3.050332,-2.622126 -6.383825,0 -4.33129,3.406993 -5.456058,3.322474 -9.683468,-0.72764 L 72.4632,26.61153 70.024951,29.305766 c -2.866504,3.167451 -8.994828,3.542023 -11.358283,0.694235 -2.266123,-2.730511 -4.37369,-2.509496 -6.357236,0.666666 -2.275954,3.644382 -6.247102,3.34738 -9.435222,-0.705658 l -2.652672,-3.372326 -3.638799,3.372326 c -4.520313,4.189285 -5.230301,4.186413 -10.254866,-0.04148 l -4.057078,-3.413806 -3.502713,8.413806 c -2.877311,6.911539 -4.112182,8.485357 -6.916192,8.814549 -1.8774133,0.22041 -4.1750204,-0.516857 -5.1057935,-1.63837 z"
       id="path497" />
  </g>
</svg>
