<?xml version="1.0" encoding="UTF-8" standalone="no"?>
<!-- Created with Inkscape (http://www.inkscape.org/) -->

<svg
   version="1.1"
   id="svg32"
   width="158.66667"
   height="149.33333"
   viewBox="0 0 158.66667 149.33333"
   xmlns="http://www.w3.org/2000/svg"
   xmlns:svg="http://www.w3.org/2000/svg">
  <defs
     id="defs36" />
  <g
     id="g38">
    <path
       style="fill:#000000;stroke-width:1.33333"
       d="m 52.666668,140.72349 c -4.4,-0.85821 -8.9,-1.91925 -10,-2.35785 -1.1,-0.4386 -3.807579,-1.36943 -6.016843,-2.06852 -2.209263,-0.6991 -8.651384,-4.29654 -14.315826,-7.99433 C 7.2733227,118.47108 1.9526643,111.18397 7.6666668,108.2146 c 1.2937955,-0.67234 31.4698512,-1.29129 67.7327852,-1.38929 50.716488,-0.13707 65.873738,0.19947 67.512008,1.49897 1.16189,0.92165 3.98214,4.31574 6.26721,7.54243 3.57223,5.04427 4.15467,7.02468 4.15467,14.12669 0,9.45209 -2.2505,12.67326 -8.85424,12.67326 -4.86314,0 -8.39152,-4.33268 -11.72979,-14.40358 l -2.34362,-7.07025 -4.20284,3.41668 c -6.77983,5.51163 -22.14253,12.93978 -32.202848,15.57067 -10.6277,2.77927 -28.654946,3.01623 -41.333334,0.54331 z m 92.666672,-13.24245 c 0,-3.70186 -5.12007,-10.73969 -5.44252,-7.48104 -0.35951,3.63337 0.34942,7.30898 1.73588,9 2.13825,2.60796 3.70664,1.96525 3.70664,-1.51896 z m -7.82328,-86.265192 c -2.80698,-3.012926 -5.4879,-10.263831 -5.50262,-14.882515 -0.01,-3.024916 -2.05694,-2.954376 -6.52155,0.224702 C 109.92396,37.639108 93.004822,42.686848 71.651791,42.61917 49.809338,42.54994 41.006308,40.094406 22.988166,29.044838 7.0542796,19.273434 0.67048453,11.089771 5.715746,6.9025765 6.9147521,5.9074899 13.640994,5.8577815 28.049079,6.7375282 39.388753,7.42992 69.508929,7.8853682 94.982803,7.7496353 l 46.316137,-0.2467872 3.47741,3.2485759 c 5.94688,5.555525 9.97083,13.744005 10.10781,20.568731 0.15024,7.484835 -2.70948,11.053077 -9.77756,12.200071 -3.82385,0.620526 -5.28433,0.177498 -7.59654,-2.304378 z m 8.53968,-11.962991 C 147.28116,27.260366 144.03831,20 141.91694,20 c -2.75152,0 -3.02698,1.645214 -1.06039,6.333333 1.85895,4.431512 3.63993,5.432749 5.19319,2.919524 z"
       id="path358" />
  </g>
</svg>
