<?xml version="1.0" encoding="UTF-8" standalone="no"?>
<!-- Created with Inkscape (http://www.inkscape.org/) -->

<svg
   version="1.1"
   id="svg42"
   width="160"
   height="50.666668"
   viewBox="0 0 160 50.666668"
   xmlns="http://www.w3.org/2000/svg"
   xmlns:svg="http://www.w3.org/2000/svg">
  <defs
     id="defs46" />
  <g
     id="g48">
    <path
       style="fill:#000000;stroke-width:1.33333"
       d="M 20.355412,45.620268 C 8.9054211,45.301611 6.5075059,44.860629 5.4467199,42.878533 4.7514624,41.579432 4.0192751,33.493993 3.8196369,24.910889 3.3534517,4.8680428 3.0091476,5.2513629 21.413121,5.3237409 35.224208,5.3780564 82.323633,5.3729215 90,5.3162633 c 2.2,-0.016237 9.12954,0.3375828 15.39898,0.7862683 9.48611,0.6788928 11.69504,0.4590544 13.16326,-1.3100367 2.23515,-2.6931979 4.67069,-2.6899052 8.79415,0.011893 2.5896,1.6967704 5.12832,1.9503475 12.30774,1.2293455 7.96443,-0.7998361 9.46776,-0.5759645 12.58195,1.8736547 3.53575,2.7812199 3.53665,2.7868809 3.12563,19.5126019 -0.22614,9.201815 -0.82908,17.146698 -1.33988,17.655295 -0.89608,0.892212 -105.828238,1.320011 -133.676418,0.544987 z M 52.950487,31.153087 c 4.613682,-4.978245 7.517968,-11.217965 5.950838,-12.785095 -1.563634,-1.563634 -41.58204,-1.553944 -43.146433,0.0104 -1.504599,1.504599 -1.75058,13.494344 -0.306245,14.927162 1.642168,1.629074 13.811012,2.470888 25.165602,1.740902 7.721371,-0.496407 9.794327,-1.15065 12.336238,-3.893418 z M 145.0712,29.045386 c 0.73113,-11.364564 0.13176,-11.712052 -20.20199,-11.712052 -17.59511,0 -17.7246,0.02248 -21.12351,3.666667 -3.963089,4.249088 -6.412367,8.639554 -6.412367,11.494533 0,2.613315 4.153047,3.048287 27.999997,2.932595 l 19.33334,-0.0938 z M 71.968995,27.88027 C 77.959551,20.301649 79.120783,16.282896 74.624827,18.689059 71.410513,20.409307 64,30.297821 64,32.866718 c 0,3.4179 2.623213,1.776475 7.968995,-4.986448 z m 17.32228,-0.490003 c 2.956465,-4.00202 5.375392,-7.90202 5.375392,-8.666667 0,-0.764646 -1.8,-1.390266 -4,-1.390266 -2.2,0 -4,0.579162 -4,1.287029 0,0.707866 -1.8,4.125334 -4,7.594374 -4.707744,7.423343 -4.875127,8.451931 -1.375392,8.451931 1.633304,0 4.654872,-2.748267 8,-7.276401 z"
       id="path219" />
  </g>
</svg>
