<?xml version="1.0" encoding="UTF-8" standalone="no"?>
<!-- Created with Inkscape (http://www.inkscape.org/) -->

<svg
   version="1.1"
   id="svg52"
   width="156"
   height="145.33333"
   viewBox="0 0 156 145.33333"
   xmlns="http://www.w3.org/2000/svg"
   xmlns:svg="http://www.w3.org/2000/svg">
  <defs
     id="defs56" />
  <g
     id="g58">
    <path
       style="fill:#000000;stroke-width:1.33333"
       d="m 111.72824,139.2838 c -0.46886,-0.46887 -24.293117,-0.88034 -52.942781,-0.91436 -40.268448,-0.0478 -52.4074643,-0.44404 -53.4878097,-1.74578 -0.8282726,-0.998 -1.2413973,-7.03469 -1.0142457,-14.82044 l 0.3832631,-13.13656 3.7419714,0.26133 c 2.0580849,0.14373 5.8247669,2.09005 8.3704049,4.32515 8.609664,7.55939 14.69914,9.80917 24.627605,9.09879 4.886119,-0.3496 10.618491,-1.54479 12.738603,-2.65598 16.670537,-8.73734 20.293473,-10.33086 23.521416,-10.34573 2.016666,-0.009 3.666666,0.43664 3.666666,0.99096 0,0.55432 1.95,1.79362 4.333334,2.754 2.383333,0.96037 5.533333,2.42052 7,3.24477 13.772603,7.74002 19.770573,8.13837 32.476043,2.15685 4.87151,-2.29342 10.81981,-5.63351 13.21846,-7.42242 2.39864,-1.7889 5.69864,-3.06247 7.33334,-2.83014 2.7406,0.38951 3.05825,1.40195 4.07717,12.995 0.75247,8.56138 0.63671,13.60041 -0.36284,15.79416 -1.37824,3.0249 -1.93411,3.16944 -9.10501,2.36746 -10.77109,-1.2046 -16.1649,-1.25 -22.3468,-0.1881 -2.95697,0.50793 -5.75992,0.5399 -6.22879,0.0711 z M 73.16326,105.79235 c -1.460143,-1.76154 -1.750399,-8.376279 -1.436369,-32.733928 l 0.393557,-30.526276 -8.5613,-8.93274 C 51.553483,21.072862 48.568328,14.412137 52.046912,7.9123445 c 0.949873,-1.774856 2.796304,-2.5790113 5.921697,-2.5790113 3.94938,0 5.290428,0.9794917 10.286422,7.5131318 3.159733,4.132223 7.510874,9.082222 9.669204,11 12.967462,11.522204 13.115622,12.00017 12.66425,40.855083 -0.160298,10.247481 -0.20719,22.639843 -0.1042,27.538585 0.102987,4.898739 -0.398994,10.448737 -1.115514,12.333337 C 88.214223,107.61015 87.322328,108 81.529595,108 c -4.457699,0 -7.118363,-0.70208 -8.366335,-2.20765 z"
       id="path80" />
  </g>
</svg>
