<?xml version="1.0" encoding="UTF-8" standalone="no"?>
<!-- Created with Inkscape (http://www.inkscape.org/) -->

<svg
   version="1.1"
   id="svg2"
   width="82.666664"
   height="154.66667"
   viewBox="0 0 82.666664 154.66667"
   xmlns="http://www.w3.org/2000/svg"
   xmlns:svg="http://www.w3.org/2000/svg">
  <defs
     id="defs6" />
  <g
     id="g8">
    <path
       style="fill:#000000;stroke-width:1.33333"
       d="M 26.37558,149.44506 C 3.6676281,148.47871 2.6479642,147.86055 5.328791,136.6856 c 2.1934753,-9.14343 11.28282,-20.50263 19.864835,-24.82563 7.174308,-3.61389 23.300354,-5.00327 29.77798,-2.56559 8.915573,3.35513 11.154219,4.74993 16.446122,10.24689 6.436192,6.68559 8.757143,13.10487 7.213236,19.95036 -1.681789,7.45683 -3.722226,8.71231 -14.802927,9.10817 -5.405422,0.19312 -11.928039,0.63744 -14.494705,0.98739 -2.566667,0.34993 -12.897655,0.28597 -22.957752,-0.14213 z M 12,67.652133 C 6.3517878,64.601937 9.8618969,54.851775 17.333333,52.837533 27.324546,50.14398 30.716772,46.054684 39.043059,26.666667 42.321263,19.033264 48.920482,10.979106 53.610357,8.8876969 65.001675,3.8078358 73.218986,2.649085 75.799734,5.7586973 77.52294,7.8350332 76.3914,63.934517 74.587344,65.866524 73.97113,66.526445 65.186887,67.195708 55.066809,67.353776 44.946731,67.511845 31.866666,68.048661 25.999999,68.546701 18.133587,69.214507 14.458253,68.979661 12,67.652133 Z"
       id="path775" />
  </g>
</svg>
