<?xml version="1.0" encoding="UTF-8" standalone="no"?>
<!-- Created with Inkscape (http://www.inkscape.org/) -->

<svg
   version="1.1"
   id="svg12"
   width="160"
   height="158.66667"
   viewBox="0 0 160 158.66667"
   xmlns="http://www.w3.org/2000/svg"
   xmlns:svg="http://www.w3.org/2000/svg">
  <defs
     id="defs16" />
  <g
     id="g18">
    <path
       style="fill:#000000;stroke-width:1.33333"
       d="m 142.53665,149.66667 c -0.76854,-2.01667 -1.73118,-5.32915 -2.13921,-7.36108 -0.9344,-4.65317 -3.03297,-6.02973 -4.68688,-3.07436 -2.08351,3.72301 -6.59602,4.7222 -10.65652,2.35964 -3.3156,-1.92915 -3.81755,-1.91652 -6.10499,0.15357 -3.39135,3.06914 -5.14728,2.8452 -9.16074,-1.16825 l -3.42382,-3.42381 -2.93484,2.75714 c -3.718505,3.49335 -8.255981,3.5328 -10.405747,0.0905 -0.915948,-1.46667 -2.32804,-2.66667 -3.137982,-2.66667 -0.809941,0 -2.558606,1.2 -3.885921,2.66667 -1.327315,1.46666 -3.127315,2.66666 -4,2.66666 -0.872685,0 -2.672685,-1.2 -4,-2.66666 -3.021181,-3.33838 -4.812228,-3.36174 -7.605689,-0.0992 -2.663136,3.11032 -7.375414,2.35188 -10.62559,-1.71018 -2.120682,-2.65042 -2.357192,-2.67469 -4.771653,-0.48964 -2.940417,2.66104 -7.300401,2.96486 -10.838539,0.75526 -2.590712,-1.61794 -4.289602,-1.19214 -9.016272,2.25976 -2.663285,1.945 -3.105657,1.85725 -6.501076,-1.28951 -4.251546,-3.9402 -5.527821,-3.52277 -7.03708,2.30165 -1.454982,5.61496 -6.713981,8.6647 -11.8466702,6.86996 -5.0925375,-1.78069 -5.6673509,-7.22756 -1.4473568,-13.71497 1.747032,-2.68573 4.503566,-7.75128 6.125631,-11.2568 3.778958,-8.16688 7.869055,-10.26197 14.16887,-7.2578 2.836446,1.35261 6.239916,1.88525 9.090508,1.42266 3.827989,-0.62119 5.007566,-0.16606 7.377214,2.84646 2.975055,3.78217 4.012292,3.65811 9.30893,-1.11342 3.010393,-2.71194 3.105176,-2.71488 7.703524,-0.2385 3.56006,1.91722 5.023472,2.13938 6.218773,0.94408 2.390955,-2.39096 6.948776,-1.86841 10.914952,1.25139 3.308107,2.60215 3.757517,2.65216 5.955829,0.66271 1.627699,-1.47304 4.446166,-2.06091 8.935046,-1.86363 3.606524,0.1585 8.181649,-0.19832 10.166959,-0.79295 2.99402,-0.89674 4.19104,-0.45378 7.01868,2.5973 l 3.40905,3.67842 3.06725,-2.88153 c 3.48827,-3.27705 6.39836,-3.6201 10.30585,-1.21486 2.34121,1.44112 3.02671,1.24672 5.06542,-1.43644 1.82344,-2.39984 3.39649,-3.0042 6.94095,-2.66667 3.9561,0.37673 5.08053,1.34856 8.21849,7.10311 4.74563,8.70276 8.05847,20.0841 6.91401,23.75318 -1.1562,3.70676 -2.95496,4.86753 -7.58234,4.89308 -2.81776,0.0156 -4.03276,-0.85363 -5.09702,-3.64626 z M 6.7460964,40.762374 C 3.2254629,36.52027 12.518632,11.921107 19.327217,7.4599502 c 4.562922,-2.9897412 6.725487,-2.6641221 9.733799,1.4656259 2.548512,3.4985449 2.706689,3.5333229 6.064297,1.3333329 4.530706,-2.968632 7.1481,-2.8524246 9.184118,0.407758 2.128101,3.407632 5.253037,3.407632 7.381138,0 2.151346,-3.4448512 6.687963,-3.4021932 10.413663,0.09792 l 2.942768,2.764588 2.729136,-2.929386 c 3.018275,-3.2397362 7.730528,-2.9026494 11.452416,0.819238 1.886697,1.886699 2.360348,1.886511 5.056577,-0.002 3.758502,-2.6325567 7.539666,-2.6555501 10.404107,-0.06327 2.00528,1.814754 2.580285,1.74689 5.648624,-0.666666 4.32784,-3.4042772 7.18102,-3.4107555 8.99547,-0.02043 1.6866,3.151427 5.66284,3.48278 8,0.666667 2.10659,-2.5382787 6.49444,-2.5691637 9.2613,-0.06519 1.898,1.717664 2.43353,1.492331 4.77166,-2.0077569 1.44854,-2.1684126 3.71308,-4.2888349 5.03232,-4.7120494 2.84656,-0.9131819 8.79932,2.6673069 9.74704,5.8626843 0.36795,1.240603 2.4357,6.796754 4.595,12.347 4.60835,11.845211 4.82406,14.682629 1.3549,17.82217 -3.20348,2.899114 -7.64923,1.726591 -8.77782,-2.315063 -1.01345,-3.629357 -3.4643,-9.03924 -5.11665,-11.294234 -0.96037,-1.310652 -1.67139,-1.083547 -3.13076,1 -2.29672,3.279024 -7.94564,3.523566 -11.29867,0.48912 -2.17674,-1.969927 -2.68863,-1.991668 -4.77165,-0.202666 -4.53217,3.89246 -7.25046,4.001603 -10.96759,0.440363 l -3.5334,-3.385211 -2.90736,3.343748 c -3.505847,4.032084 -5.548169,4.183976 -9.553133,0.710488 -3.023337,-2.622125 -3.050332,-2.622125 -6.383825,0 -4.331289,3.406994 -5.456057,3.322475 -9.683468,-0.72764 l -3.508025,-3.360902 -2.43825,2.694236 c -2.866504,3.16745 -8.994828,3.542022 -11.358282,0.694234 -2.266123,-2.73051 -4.37369,-2.509496 -6.357236,0.666667 -2.275954,3.644381 -6.247102,3.34738 -9.435222,-0.705659 l -2.652672,-3.372325 -3.638798,3.372325 c -4.520314,4.189286 -5.230302,4.186414 -10.254867,-0.04148 l -4.057077,-3.413805 -3.502714,8.413805 C 15.890771,40.497726 14.6559,42.071545 11.85189,42.400737 9.9744765,42.621146 7.6768695,41.88388 6.7460964,40.762366 Z"
       id="path636" />
  </g>
</svg>
