<?xml version="1.0" encoding="UTF-8" standalone="no"?>
<!-- Created with Inkscape (http://www.inkscape.org/) -->

<svg
   version="1.1"
   id="svg22"
   width="82.666664"
   height="156"
   viewBox="0 0 82.666664 156"
   xmlns="http://www.w3.org/2000/svg"
   xmlns:svg="http://www.w3.org/2000/svg">
  <defs
     id="defs26" />
  <g
     id="g28">
    <path
       style="fill:#000000;stroke-width:1.33333"
       d="m 34.448336,150.21344 c -7.256741,-2.70384 -12.11601,-7.31389 -16.369571,-15.53004 -5.739538,-11.08646 -7.404198,-19.9326 -5.793306,-30.7861 1.603366,-10.802788 3.606767,-13.04638 12.531679,-14.034121 5.688286,-0.629536 7.891052,-0.04848 17.33725,4.57333 11.496504,5.624971 20.512277,13.329611 20.512277,17.529241 0,1.39895 0.558008,2.88841 1.240017,3.30991 1.881456,1.1628 2.940832,13.88431 1.776527,21.33338 -0.889443,5.69055 -1.773079,7.12347 -6.35811,10.31047 -6.536339,4.54334 -17.59395,6.00748 -24.876763,3.29393 z M 11.954713,40.049199 C 5.2118838,38.8055 3.9963088,37.712249 4.0292825,32.921311 4.0730585,26.560852 8.2140339,18.861033 15.966533,10.724931 l 6.932061,-7.2750686 14.884035,0.3311655 c 16.624279,0.3698854 17.914368,0.5932144 25.78262,4.4632624 10.157574,4.9960657 19.144072,25.4074167 13.315737,30.2445047 -2.291783,1.902012 -56.067289,3.194424 -64.926273,1.560404 z"
       id="path497" />
  </g>
</svg>
