<?xml version="1.0" encoding="UTF-8" standalone="no"?>
<!-- Created with Inkscape (http://www.inkscape.org/) -->

<svg
   version="1.1"
   id="svg32"
   width="78.666664"
   height="152"
   viewBox="0 0 78.666664 152"
   xmlns="http://www.w3.org/2000/svg"
   xmlns:svg="http://www.w3.org/2000/svg">
  <defs
     id="defs36" />
  <g
     id="g38">
    <path
       style="fill:#000000;stroke-width:1.33333"
       d="M 11.666154,146.93884 C 5.7778509,146.21725 4.9031892,142.81679 5.969279,124.79087 6.493769,115.92256 7.538712,107.91667 8.2913747,107 c 1.8476223,-2.25022 11.0055553,-2.12038 12.9173023,0.18313 1.03701,1.24952 1.4145,7.81734 1.16326,20.23917 -0.371904,18.38771 -0.372238,18.38943 -3.705271,19.17765 -1.833333,0.43356 -4.983564,0.58606 -7.000512,0.33889 z m 25.333333,-1.33333 c -5.888304,-0.72159 -6.762965,-4.12206 -5.696876,-22.14798 0.524491,-8.86831 1.569433,-16.8742 2.322096,-17.79086 1.847622,-2.25022 11.005555,-2.12038 12.917302,0.18313 1.037011,1.24952 1.4145,7.81733 1.16326,20.23916 -0.371904,18.38772 -0.372237,18.38944 -3.70527,19.17765 -1.833334,0.43356 -4.983564,0.58607 -7.000512,0.3389 z m 21.69119,-0.90991 c -0.899712,-1.08409 -1.63195,-3.33409 -1.627195,-5 0.05044,-17.66649 0.794451,-31.45416 1.800315,-33.36227 0.886674,-1.682 2.866696,-2.33333 7.093262,-2.33333 4.417505,0 6.042945,0.57534 6.592048,2.33333 0.400847,1.28334 0.891279,10.3024 1.089851,20.04238 0.29695,14.56542 0.006,17.93457 -1.63896,18.97958 -3.083926,1.95912 -11.481331,1.5429 -13.309321,-0.65969 z M 34.960487,59.103788 C 34.02209,58.726661 30.968218,54.976325 28.174104,50.769707 25.379992,46.563088 21.172237,40.469016 18.823538,37.227321 4.2053077,17.051128 1.8909411,11.632868 6.0952379,7.4285715 10.046477,3.4773325 14.872578,5.3687485 30.195043,16.873619 c 5.240606,3.934909 12.950192,9.21489 17.13241,11.733292 8.935148,5.380465 11.239153,8.055038 11.296808,13.113746 0.10524,9.234255 -15.470377,20.675924 -23.663774,17.383131 z"
       id="path358" />
  </g>
</svg>
