<?xml version="1.0" encoding="UTF-8" standalone="no"?>
<!-- Created with Inkscape (http://www.inkscape.org/) -->

<svg
   version="1.1"
   id="svg42"
   width="170.66667"
   height="161.33333"
   viewBox="0 0 170.66667 161.33333"
   xmlns="http://www.w3.org/2000/svg"
   xmlns:svg="http://www.w3.org/2000/svg">
  <defs
     id="defs46" />
  <g
     id="g48">
    <path
       style="fill:#000000;stroke-width:1.33333"
       d="M 20.669036,154.67049 C 20.217114,153.93928 19.834222,128.35344 19.818163,97.813102 19.802106,67.27276 19.26621,40.91025 18.627283,39.229745 17.988356,37.549239 14.435839,32.828715 10.732799,28.739691 5.515933,22.979048 4.0000001,20.317592 4.0000001,16.919217 c 0,-8.9320964 7.3062179,-10.3837571 13.8532959,-2.752489 2.280687,2.658366 6.996704,8.064718 10.480038,12.014115 6.855057,7.772251 7.054624,8.566462 6.409001,25.5057 -0.237186,6.223058 0.218399,10.394549 1.274163,11.666666 2.639112,3.179936 8.522852,2.319703 14.021414,-2.050005 2.78919,-2.216569 6.471693,-4.381615 8.18334,-4.811211 3.438144,-0.862918 3.415651,-0.78643 3.273063,-11.13019 -0.137418,-9.968714 -2.767277,-11.958797 -15.856233,-11.998822 -9.106696,-0.02785 -9.790091,-0.237796 -11.257525,-3.458466 -1.746204,-3.832501 -0.496674,-5.314177 5.619444,-6.663454 1.833333,-0.404452 7.443961,-2.275956 12.468061,-4.158899 8.028006,-3.008752 9.755902,-3.237424 14.261803,-1.887422 6.301399,1.887944 10.60347,7.08245 10.60347,12.803085 0,6.628178 2.526851,18.425051 4.163207,19.436374 2.747658,1.698147 6.56076,-0.420925 10.201294,-5.669209 11.746444,-16.933961 13.193354,-18.061764 39.929214,-31.123053 21.04985,-10.2834965 27.31555,-9.5800345 21.80093,2.447628 -2.86812,6.255485 -9.73043,13.423637 -14.76131,15.419198 -2.72736,1.081838 -2.86225,1.337571 -0.74207,1.406722 1.42519,0.04648 7.07334,-2.100511 12.55142,-4.771098 7.39306,-3.604142 10.50534,-4.514081 12.07541,-3.530495 3.77603,2.365529 3.18057,6.819079 -1.82309,13.635439 -8.47714,11.548164 -15.07646,16.060295 -34.06105,23.288422 -8.48927,3.232178 -13.53734,6.859563 -16.03132,11.519615 -0.95419,1.782918 -0.39039,3.171128 2.39104,5.887256 2.00181,1.954813 8.43966,8.273052 14.30633,14.040529 8.6645,8.518017 11.66774,10.649277 16,11.354467 8.22388,1.33866 8.66666,1.63869 8.66666,5.8725 0,3.11399 1.42063,5.16037 6.63444,9.55671 3.64894,3.07683 6.96736,6.6432 7.37427,7.92526 0.40691,1.28206 -0.62859,4.47498 -2.30111,7.09536 -4.21169,6.5986 -8.31053,6.44724 -15.10366,-0.55775 -4.58175,-4.72463 -5.84639,-5.34398 -9.67606,-4.73879 -4.8704,0.76965 -7.27386,-1.01161 -11.21503,-8.31168 -1.49591,-2.77082 -4.41708,-5.1494 -8.44387,-6.87549 -8.97102,-3.84542 -10.40656,-3.5673 -9.39582,1.82039 0.61763,3.29227 0.17169,5.30476 -1.7038,7.68906 -3.16052,4.01794 -6.83602,12.66166 -6.83602,16.07631 0,1.43651 -1.714295,3.54972 -3.89485,4.80119 -2.142165,1.22944 -4.816056,4.16713 -5.94198,6.52823 -1.905882,3.99666 -2.339632,4.20898 -6.286236,3.07712 -2.331506,-0.66867 -4.455919,-1.43258 -4.720919,-1.69758 -0.948508,-0.9485 -0.915719,-7.01092 0.06093,-11.26582 0.833276,-3.63027 0.653252,-4.20115 -1.111298,-3.52402 -1.158111,0.4444 -2.105655,1.63239 -2.105655,2.63996 0,2.09379 -5.670111,3.8838 -8.663686,2.73506 -1.17357,-0.45034 -2.002981,-2.44602 -2.002981,-4.81944 0,-3.23743 1.908636,-5.97467 9.505205,-13.63176 l 9.505206,-9.58094 -0.755267,-9.00881 c -0.863903,-10.304669 -1.885423,-12.647435 -9.45014,-21.673048 -3.009417,-3.590596 -6.3736,-8.38275 -7.475961,-10.649233 -2.426512,-4.988969 -5.628208,-5.856576 -9.03614,-2.448644 -2.185692,2.185692 -2.667007,5.435715 -3.469699,23.428709 -0.512587,11.490046 -0.526197,25.368896 -0.03025,30.841896 l 0.901728,9.95091 -3.690118,1.40298 c -4.285418,1.62931 -8.096233,0.75667 -9.194538,-2.10546 C 43.053387,132.78966 42.6369,122.50246 42.55117,111.03234 42.46544,99.562225 42.092165,89.387626 41.721666,88.422124 c -0.370498,-0.965503 -1.80944,-1.755459 -3.197648,-1.755459 -2.358674,0 -2.540966,1.375647 -2.782789,20.999995 -0.142327,11.55 -0.06865,26.61907 0.163701,33.4868 0.32114,9.49167 -0.01656,12.76492 -1.407892,13.64626 -2.521522,1.59725 -12.820459,1.50101 -13.827999,-0.1292 z"
       id="path219" />
  </g>
</svg>
