<?xml version="1.0" encoding="UTF-8" standalone="no"?>
<!-- Created with Inkscape (http://www.inkscape.org/) -->

<svg
   version="1.1"
   id="svg52"
   width="141.33333"
   height="149.33333"
   viewBox="0 0 141.33333 149.33333"
   xmlns="http://www.w3.org/2000/svg"
   xmlns:svg="http://www.w3.org/2000/svg">
  <defs
     id="defs56" />
  <g
     id="g58">
    <path
       style="fill:#000000;stroke-width:1.33333"
       d="m 15.912886,141.17056 c -0.810133,-1.51375 -1.126445,-4.13294 -0.702914,-5.82042 0.608369,-2.42393 1.961968,-3.22955 6.446709,-3.83686 6.578749,-0.89087 13.214569,-1.55058 19.309078,-1.91962 3.276417,-0.1984 4.783001,-1.19611 6.333333,-4.19412 2.503828,-4.84187 2.612813,-10.61213 0.266366,-14.10287 -0.972331,-1.4465 -3.1149,-6.23001 -4.761266,-10.63001 C 36.86902,84.804597 30.666666,75.606104 30.666666,82.665929 c 0,3.798749 -6.237865,6.678165 -10.926494,5.0437 -5.171108,-1.802658 -5.040442,-7.803904 0.355161,-16.311887 3.937934,-6.209477 4.06078,-6.847265 3.196266,-16.594374 -0.960793,-10.832648 -3.262187,-16.136702 -7.001607,-16.136702 -1.27336,0 -3.064613,1.2 -3.980562,2.666666 -0.915948,1.466667 -2.796083,2.666667 -4.178077,2.666667 -4.4363284,0 -5.5043096,-7.466369 -2.1993886,-15.376158 1.5378737,-3.68065 2.6769554,-4.623842 5.5841606,-4.623842 4.704783,0 12.745818,-5.356293 12.009853,-7.999999 -0.306223,-1.1 -0.93808,-2.917217 -1.404128,-4.038259 -1.722676,-4.1437658 2.233205,-6.8344864 10.609629,-7.2164835 8.279507,-0.3775773 12.633483,0.882846 12.556612,3.6349874 -0.02488,0.8908652 -1.139887,3.9334171 -2.477784,6.7612271 l -2.432541,5.14147 3.964384,9.525196 c 2.18041,5.238857 4.72306,10.425194 5.65033,11.525194 0.927272,1.1 2.668457,3.939844 3.869303,6.310764 1.200845,2.37092 4.123198,5.311335 6.494118,6.534253 9.551369,4.92659 35.644097,26.047273 35.644097,28.852012 0,1.835808 7.332952,11.864997 12.407532,16.969637 2.55156,2.566662 9.80368,9.715112 16.11583,15.885442 10.1376,9.90982 14.06988,16.11456 10.21266,16.11456 -0.7605,0 -0.69452,1.63352 0.16566,4.10101 2.04722,5.87269 0.005,7.29333 -9.97338,6.93872 -9.02988,-0.32089 -8.5729,0.0107 -21.37701,-15.50697 -2.81346,-3.40969 -5.963455,-6.19943 -6.999999,-6.19943 -3.12408,0 -2.130535,5.59741 1.703965,9.59977 3.061034,3.19503 3.399194,4.28383 2.300234,7.40628 L 99.267134,142 l -37.13915,0.20112 c -20.426533,0.11066 -38.849821,0.54325 -40.940639,0.96141 -2.948751,0.58975 -4.131901,0.14292 -5.274459,-1.99197 z M 81.008283,129 c -0.832336,-2.53482 -7.190639,-2.85194 -8.129442,-0.40546 -0.627128,1.63427 0.205588,2.07212 3.940781,2.07212 3.191733,0 4.557489,-0.54343 4.188661,-1.66666 z"
       id="path80" />
  </g>
</svg>
