<?xml version="1.0" encoding="UTF-8" standalone="no"?>
<!-- Created with Inkscape (http://www.inkscape.org/) -->

<svg
   version="1.1"
   id="svg2"
   width="212"
   height="161.33333"
   viewBox="0 0 212 161.33333"
   xmlns="http://www.w3.org/2000/svg"
   xmlns:svg="http://www.w3.org/2000/svg">
  <defs
     id="defs6" />
  <g
     id="g8">
    <path
       style="fill:#000000;stroke-width:1.33333"
       d="m 192.36048,151.66666 c -4.29055,-4.64508 -11.11212,-16.89764 -13.90133,-24.96885 -1.93043,-5.58612 -2.69336,-12.63636 -3.24644,-30.000004 -0.39764,-12.483794 -1.32627,-25.477982 -2.0636,-28.875973 -1.55183,-7.15145 -7.22486,-13.693391 -13.56676,-15.644727 C 152.63064,50.038142 135.43353,48.954294 111.33333,49.13621 79.653543,49.375339 73.852239,47.246491 74.600047,35.656558 74.800781,32.545451 75.047891,27.899999 75.149176,25.333333 75.350279,20.237254 75.8909,20.390601 64,22.170886 57.221679,23.185724 52,20.837332 52,16.77402 52,11.220054 57.244472,6.4994025 64.297979,5.7043701 c 8.292568,-0.9346925 11.733142,0.095799 16.943,5.0746169 4.27763,4.087934 4.35277,4.356841 3.484064,12.468706 -1.283551,11.985613 -0.930754,12.155756 20.862367,10.06122 23.55727,-2.264087 53.98344,-0.928924 61.05608,2.679265 8.46328,4.317644 12.89951,8.978973 17.46127,18.347308 l 4.38136,8.997846 -0.27927,29.999999 -0.27926,29.999999 3.97958,8.33333 c 2.34023,4.90047 4.8268,8.33334 6.03622,8.33334 3.09108,0 7.38994,4.91705 7.38994,8.45264 0,2.04874 -1.16556,3.65038 -3.39606,4.66666 -4.81886,2.19563 -6.43316,1.95076 -9.57679,-1.45264 z M 46,150.66526 c -2.2,-0.58437 -10,-2.40361 -17.333333,-4.04276 -17.027576,-3.80598 -20.458741,-5.07597 -22.1248215,-8.18906 -3.9546332,-7.38931 1.7556922,-9.929 42.0957905,-18.72232 9.045116,-1.97165 53.007514,-2.08321 61.362364,-0.15571 3.66667,0.84591 10.26667,2.21562 14.66667,3.04378 4.4,0.82817 12.2,2.83215 17.33333,4.45329 8.26687,2.61072 9.38079,3.35866 9.74863,6.54572 0.33844,2.93236 -0.52514,4.18405 -4.66667,6.76408 -6.42744,4.00405 -9.11692,5.08524 -15.74863,6.33105 -2.93333,0.55105 -10.13333,1.97037 -16,3.15405 -11.47368,2.31499 -61.476551,2.90483 -69.33333,0.81788 z m 66.66667,-12.50749 c 16.3717,-0.8884 14.96545,-0.56381 11.86145,-2.73793 -4.01648,-2.81326 -32.873188,-5.11654 -53.861453,-4.29912 -22.083324,0.86008 -29.333334,1.91569 -29.333334,4.27096 0,1.08858 2.197748,2.0616 5.666667,2.50881 3.116667,0.4018 7.166667,0.93612 9,1.18737 3.458036,0.47394 42.646487,-0.16929 56.66667,-0.93009 z M 8.2966749,109.92439 C 1.4635793,105.13831 7.2707343,94.770965 18,92.601334 c 5.747916,-1.162321 16.560281,-1.200165 29.333333,-0.102667 18.246419,1.567782 44.54995,2.498092 46.750926,1.653499 5.386937,-2.067163 -1.278323,-3.474292 -22.776527,-4.808444 -12.452585,-0.772792 -24.925453,-2.02566 -27.717483,-2.784149 -6.828577,-1.855069 -10.124185,-5.319465 -9.276857,-9.751977 0.782425,-4.092992 4.901697,-5.590209 11.370341,-4.132738 2.373947,0.534883 7.766267,0.928522 11.982934,0.874754 22.753708,-0.290136 45.260323,0.844041 46.773333,2.357053 0.78467,0.784665 1.96404,1.426667 2.62084,1.426667 0.65679,0 2.98823,1.277482 5.18097,2.83885 3.38786,2.412366 5.02125,2.692959 10.87249,1.867738 3.78714,-0.534112 8.0857,-0.879519 9.55237,-0.767571 1.46666,0.111947 6.78248,0.345335 11.81293,0.518635 7.21325,0.248498 9.53804,0.85088 11,2.850226 2.31208,3.16197 2.42335,11.892867 0.17532,13.758557 -0.93691,0.777563 -10.21448,1.586006 -21,1.829923 -15.15057,0.34264 -20.30126,0.94068 -23.85977,2.77031 -2.496,1.28333 -5.6758,2.33333 -7.06621,2.33333 -1.39042,0 -4.354945,0.94473 -6.587837,2.09941 -3.498248,1.80901 -7.777044,1.96362 -30.933787,1.11772 -32.237776,-1.17763 -32.379415,-1.17294 -42.446769,1.4062 -9.96986,2.55416 -11.776612,2.55039 -15.4638721,-0.0323 z"
       id="path459" />
  </g>
</svg>
