<?xml version="1.0" encoding="UTF-8" standalone="no"?>
<!-- Created with Inkscape (http://www.inkscape.org/) -->

<svg
   version="1.1"
   id="svg12"
   width="165.33333"
   height="164"
   viewBox="0 0 165.33333 164"
   xmlns="http://www.w3.org/2000/svg"
   xmlns:svg="http://www.w3.org/2000/svg">
  <defs
     id="defs16" />
  <g
     id="g18">
    <path
       style="fill:#000000;stroke-width:1.33333"
       d="M 33.999999,154.32749 C 23,153.64892 13.25,152.47417 12.333333,151.71693 c -2.7750004,-2.29234 -2.076911,-13.44042 1.05194,-16.79885 1.495233,-1.60494 2.845233,-2.94504 3,-2.97799 0.154767,-0.033 10.181393,-0.40872 22.281393,-0.83504 22.646575,-0.79791 23.940327,-1.15445 23.979582,-6.60846 0.03809,-5.29213 3.311465,-6.46801 10.368509,-3.72463 7.294715,2.83577 24.710142,3.20613 29.527563,0.62792 4.33809,-2.32168 20.57735,0.74192 27.32841,5.15561 4.45237,2.91086 6.73329,3.40867 15.79095,3.44638 12.35716,0.0515 14.33832,1.56025 14.33832,10.91964 0,10.20956 -4.77339,12.42654 -17.86563,8.29761 -6.23305,-1.96573 -10.18851,-1.44512 -21.01382,2.76585 l -10.21277,3.9727 -28.453892,-0.1982 c -15.649639,-0.10902 -37.453889,-0.7534 -48.453889,-1.43198 z M 55.266666,54.880368 C 54.569999,54.264569 51.899999,52.95504 49.333332,51.970303 43.148467,49.597391 38.700687,46.094788 35.785862,41.301741 33.676969,37.833945 32.994142,37.528296 29.945418,38.687419 24.215533,40.865917 13.978833,40.283473 10.652135,37.589677 8.2097421,35.611948 7.8464474,34.4011 8.6279252,30.843055 9.2380505,28.065172 10.687367,26.085861 12.660649,25.335621 17.736,23.405976 17.91723,21.348329 13.347826,17.533621 7.8058112,12.906942 8.0254516,7.5593879 13.784578,6.9000589 c 2.097351,-0.2401134 4.796164,0.4821979 6.05364,1.620198 2.031032,1.8380581 2.676991,1.8418371 6.157707,0.03602 2.138754,-1.1095996 5.714616,-1.8386888 7.94636,-1.6201985 3.318092,0.3248451 4.057714,0.9971081 4.057714,3.6881676 0,2.425827 -1.338356,4.041643 -5.091297,6.146798 -4.64758,2.606989 -4.907061,3.040121 -2.977339,4.969844 1.162678,1.162677 4.384318,3.389972 7.159198,4.949541 2.774881,1.559571 6.629503,5.458443 8.565827,8.66416 4.920716,8.146583 10.127536,9.065866 20.658209,3.647284 10.245259,-5.27172 13.44328,-5.919782 28.486005,-5.772541 9.723558,0.09517 15.492748,0.953868 23.999998,3.572183 19.03429,5.858268 20.28601,6.159382 29.1994,7.024237 8.16329,0.792073 8.69066,1.048671 9.0799,4.417904 0.27632,2.391808 -0.38634,3.997851 -2,4.847195 -5.05552,2.660962 -18.47986,2.967577 -33.74657,0.770776 C 112.9,52.648113 101.8,51.371389 96.666665,51.024464 c -9.299303,-0.628475 -25.914062,1.42828 -30.315241,3.752748 -2.89742,1.530264 -9.401758,1.590793 -11.084758,0.103156 z"
       id="path320" />
  </g>
</svg>
