<?xml version="1.0" encoding="UTF-8" standalone="no"?>
<!-- Created with Inkscape (http://www.inkscape.org/) -->

<svg
   version="1.1"
   id="svg22"
   width="106.66667"
   height="158.66667"
   viewBox="0 0 106.66667 158.66667"
   xmlns="http://www.w3.org/2000/svg"
   xmlns:svg="http://www.w3.org/2000/svg">
  <defs
     id="defs26" />
  <g
     id="g28">
    <path
       style="fill:#000000;stroke-width:1.33333"
       d="m 84.666669,148.47006 c -13.158264,-1.52544 -26.501945,-6.55544 -29.269431,-11.03332 -1.534743,-2.48327 -9.635627,-3.83914 -15.921461,-2.66482 -7.700399,1.4386 -9.764419,0.6512 -10.813495,-4.12522 -0.591836,-2.69461 0.218872,-5.94745 2.791998,-11.20245 4.359138,-8.90252 6.978707,-11.47584 12.050508,-11.83773 3.394039,-0.24218 3.875075,0.20667 4.238513,3.95496 0.225482,2.32549 1.774843,5.62549 3.443027,7.33334 1.668183,1.70785 4.163063,5.05518 5.544176,7.43852 1.381115,2.38333 3.281754,4.33333 4.223642,4.33333 2.308464,0 2.154935,-1.96543 -0.551979,-7.06621 -1.245474,-2.34692 -2.099196,-5.36767 -1.897157,-6.71279 0.487803,-3.24766 -5.538734,-12.50518 -11.618834,-17.848012 -6.195769,-5.444472 -4.943148,-8.11706 5.256386,-11.214997 10.708335,-3.252479 21.190774,-1.086931 21.190774,4.377761 0,2.210545 0.602341,2.617748 2.960162,2.001164 1.62809,-0.425756 6.167402,0.158269 10.087361,1.297832 9.754891,2.835824 10.479421,5.321022 4.753763,16.305812 -2.457374,4.71451 -4.467953,10.44591 -4.467953,12.73644 0,5.4084 3.823239,12.45067 7.873501,14.50271 5.156969,2.61274 6.62166,6.07545 3.538326,8.36505 -2.499698,1.85621 -4.898674,2.04556 -13.411827,1.05863 z M 76.685405,123 c -0.525356,-4.21666 -1.494491,-8.67722 -2.153631,-9.91234 -0.659141,-1.23513 -1.198438,-3.52457 -1.198438,-5.08766 0,-1.56309 -0.675,-4.10322 -1.5,-5.64475 -1.497771,-2.798611 -1.502655,-2.797984 -3.286087,0.42099 -3.425836,6.1834 -1.659716,16.8358 4.003963,24.14999 4.207381,5.4335 5.184688,4.50536 4.134193,-3.92623 z M 37.720141,77.666668 c -2.1105,-2.75 -4.548055,-6.65 -5.416788,-8.666667 -1.898548,-4.407264 -3.232547,-4.495872 -12.765279,-0.847902 l -7.365885,2.818762 -4.0860943,-2.909556 c -2.247352,-1.600254 -4.0860946,-3.96411 -4.0860946,-5.25301 0,-2.743104 5.3150602,-8.122646 8.0859349,-8.184031 1.052736,-0.02332 3.064965,-0.913248 4.47162,-1.977612 2.808599,-2.125163 2.689539,-2.530126 -3.914177,-13.313318 -4.4611591,-7.284617 -4.2636399,-10.771729 0.757205,-13.368109 3.976634,-2.056398 4.152576,-2.011915 7.897059,1.996566 2.106395,2.254903 5.526132,6.784888 7.599418,10.066632 3.818169,6.043677 7.59566,7.612193 10.745873,4.461979 1.123908,-1.123908 0.904676,-2.401365 -0.858082,-5 C 28.559874,22.416886 28.660993,22.652119 30.781989,18.873299 c 2.716617,-4.839992 8.837411,-4.893435 11.776184,-0.102827 7.069662,11.524541 10.073847,14.553163 14.108495,14.223261 3.345859,-0.273582 3.943175,-0.845242 3.652519,-3.495638 -0.191114,-1.742709 -2.727476,-6.523469 -5.63636,-10.623908 -4.7294,-6.666688 -5.099704,-7.741956 -3.500571,-10.164765 1.116711,-1.6919029 3.562559,-2.8620636 6.512736,-3.1158721 4.034141,-0.3470638 5.229526,0.2557662 8.181386,4.1258544 1.901327,2.4927677 3.456958,5.4210827 3.456958,6.5073657 0,1.086282 1.514357,3.397724 3.365237,5.136536 l 3.365237,3.161476 7.346213,-3.719728 c 6.874368,-3.480811 7.55094,-3.585586 10.533639,-1.631246 4.432664,2.904392 5.507022,7.083225 2.636534,10.255078 -1.279754,1.414113 -3.08521,2.571115 -4.012124,2.571115 -2.222257,0 -9.882189,4.387588 -9.892972,5.666666 -0.0047,0.55 0.477541,1 1.071507,1 0.593965,0 3.660013,3.896005 6.81344,8.657786 6.482653,9.789032 6.638261,14.44569 0.559941,16.756663 -3.481189,1.323545 -8.453319,0.594675 -8.453319,-1.239184 0,-1.417172 -10.375245,-17.171111 -11.949212,-18.143876 -2.117784,-1.308862 -6.717455,1.821113 -6.717455,4.571078 0,1.379755 0.45,2.708644 1,2.95309 2.561951,1.138644 11.033027,15.473611 10.289282,17.411779 -0.998834,2.60292 -5.574567,3.88092 -9.996147,2.79192 -4.741687,-1.16784 -6.352022,-2.754254 -9.098669,-8.963502 -2.387849,-5.398132 -6.152852,-10.171209 -7.956372,-10.086683 -0.497619,0.02332 -1.997407,0.870652 -3.332863,1.882954 -2.226721,1.687899 -2.261658,2.162411 -0.421248,5.721372 1.103768,2.134453 2.981079,4.689361 4.171801,5.677573 1.723898,1.430708 6.010882,9.568334 6.010882,11.409958 0,1.917384 -5.04368,4.599073 -8.649865,4.599073 -3.582003,0 -5.214376,-0.983753 -8.296662,-5 z"
       id="path181" />
  </g>
</svg>
