<?xml version="1.0" encoding="UTF-8" standalone="no"?>
<!-- Created with Inkscape (http://www.inkscape.org/) -->

<svg
   version="1.1"
   id="svg32"
   width="161.33333"
   height="149.33333"
   viewBox="0 0 161.33333 149.33333"
   xmlns="http://www.w3.org/2000/svg"
   xmlns:svg="http://www.w3.org/2000/svg">
  <defs
     id="defs36" />
  <g
     id="g38">
    <path
       style="fill:#000000;stroke-width:1.33333"
       d="m 146.6542,143.61222 c -1.82648,-0.89114 -4.70576,-4.51848 -6.39842,-8.06072 -2.99194,-6.26131 -3.15884,-6.3812 -6,-4.31047 -4.92287,3.58794 -6.26407,3.83143 -8.74376,1.58734 -3.05381,-2.76365 -3.7137,-2.72101 -7.81486,0.50496 -4.29605,3.37928 -4.6769,3.353 -9.43518,-0.65083 l -3.94262,-3.3175 -3.36999,2.65083 C 96.621377,135.42024 96.222538,135.3767 91.640907,131 L 87.802568,127.33333 85.123408,131 c -3.338587,4.56914 -4.689566,4.58122 -9.383784,0.0839 l -3.739625,-3.58279 -4,3.83224 -4,3.83224 -3.739626,-3.58278 c -4.598638,-4.40578 -5.214994,-4.42387 -8.498587,-0.24946 -1.4421,1.83333 -3.434904,3.33333 -4.428454,3.33333 -0.993549,0 -2.986353,-1.5 -4.428453,-3.33333 -3.14805,-4.0021 -5.00981,-4.20764 -6.856553,-0.75697 -2.407728,4.49889 -6.47386,4.73989 -10.300816,0.61053 l -3.435656,-3.70713 -3.181482,6.26012 C 16.648138,138.6241 15.23219,140 12.688022,140 c -5.1544883,0 -7.95353,-8.36235 -4.803706,-14.35143 0.6697072,-1.27338 2.619707,-5.81993 4.333333,-10.10343 3.832675,-9.58044 7.730428,-12.73712 12.545445,-10.1602 1.819873,0.97396 3.654685,3.14872 4.077357,4.83278 0.624639,2.48876 1.225474,2.81736 3.2097,1.75544 4.003472,-2.1426 9.005985,-1.49253 11.828507,1.53709 l 2.649205,2.84359 4.171701,-3.51025 c 4.836255,-4.06944 6.287789,-4.2709 10.337093,-1.43465 2.682055,1.87858 3.244628,1.87858 5.926683,0 4.045477,-2.83357 5.638374,-2.62632 9.855856,1.28231 l 3.623256,3.35792 2.864708,-2.69125 c 3.39776,-3.19203 9.019245,-3.5111 11.396366,-0.64684 1.508287,1.81737 2.017196,1.74334 4.582528,-0.66667 3.629326,-3.40957 6.151416,-3.42328 10.035606,-0.0545 3.00359,2.605 3.14336,2.60842 7.20401,0.1762 3.15654,-1.89068 5.09193,-2.20449 8.14099,-1.31998 3.41685,0.99119 4.39607,0.67393 6.71676,-2.1762 4.80959,-5.90687 8.82608,-4.53168 14.59406,4.99677 8.14316,13.45218 9.22072,16.02063 9.29005,22.14363 0.0827,7.29634 -3.32443,10.38244 -8.61333,7.80193 z M 9.0085182,94.085089 C 3.8006937,90.277034 3.9076401,81.138692 9.2513769,73.333332 c 1.2551441,-1.833334 3.5844451,-6.171248 5.1762241,-9.639809 2.091989,-4.558543 3.881984,-6.55441 6.458229,-7.201006 3.602165,-0.904085 5.179444,0.284635 9.309408,7.016062 1.229841,2.004517 1.868252,2.1657 3.266667,0.824753 2.430381,-2.330504 8.275639,-2.075881 12.869442,0.560599 3.722171,2.136233 3.999068,2.108985 6.77472,-0.666667 3.48503,-3.485031 4.681013,-3.564279 9.63417,-0.638377 3.586364,2.118517 3.969774,2.118517 6.31071,0 3.041981,-2.752955 7.407469,-2.916332 9.531755,-0.356723 1.360758,1.639612 2.242866,1.620152 6.461591,-0.142544 4.478774,-1.871352 5.249342,-1.845541 9.251742,0.309893 4.18445,2.253475 4.477279,2.250603 7.040475,-0.06907 2.36967,-2.144523 3.25965,-2.227196 7.80986,-0.725491 3.83774,1.266571 5.83574,1.320041 7.90687,0.211607 3.87342,-2.072994 6.99826,-1.849924 9.81676,0.70078 1.96743,1.780497 2.78745,1.873506 4.43832,0.503406 1.11376,-0.924329 2.02501,-2.521986 2.02501,-3.550345 0,-1.028357 1.58099,-2.470831 3.51331,-3.205497 4.9781,-1.892672 8.51858,0.843421 12.37569,9.56398 1.74449,3.944111 4.28312,9.714573 5.6414,12.823247 3.18905,7.298727 3.15221,11.888716 -0.10947,13.634285 -6.62825,3.547332 -11.55977,0.532599 -13.85656,-8.47077 l -1.64953,-6.466176 -4.36353,3.671676 -4.36355,3.671677 -3.66686,-3.51308 c -4.52103,-4.331469 -5.14949,-4.344876 -8.42578,-0.179748 -1.4421,1.833333 -3.46462,3.333333 -4.49449,3.333333 -1.02987,0 -2.85532,-1.5 -4.05657,-3.333333 -2.74357,-4.187214 -4.15527,-4.187214 -7.44894,0 -3.383751,4.301744 -6.864487,4.228008 -10.362917,-0.219525 l -2.79468,-3.55286 -3.833121,3.672364 c -3.2398,3.103925 -4.266884,3.440218 -6.635427,2.172613 -1.541269,-0.824861 -2.802307,-2.078638 -2.802307,-2.78617 0,-2.277952 -3.306661,-1.369495 -5.023902,1.380245 -0.915948,1.466666 -2.767284,2.666666 -4.114079,2.666666 -1.346796,0 -3.534704,-1.2 -4.862018,-2.666666 -3.035336,-3.354009 -4.799462,-3.354009 -8.666667,0 -3.858432,3.3464 -4.545993,3.328605 -9.376406,-0.242674 l -3.935095,-2.909341 -3.09685,2.909341 c -1.703268,1.600138 -4.015188,2.90934 -5.1376,2.90934 -2.314532,0 -6.454048,-4.102589 -6.454048,-6.396474 0,-3.776437 -3.876991,0.49852 -5.193413,5.726509 -1.810766,7.191201 -7.544653,12.044417 -11.1314018,9.421723 z M 145.78542,42.333332 c -1.47368,-1.65 -3.72305,-5.285069 -4.99862,-8.077931 -1.27556,-2.792863 -2.72442,-4.873611 -3.21967,-4.623884 -8.41557,4.243461 -8.14551,4.195017 -10.6667,1.913368 -3.20676,-2.902078 -4.8916,-2.790803 -9.51648,0.628514 l -3.84139,2.840068 -4.57564,-2.827901 c -4.56511,-2.821395 -4.58117,-2.821793 -6.97793,-0.1734 -3.266981,3.609971 -6.25038,3.334268 -9.9489,-0.919404 l -3.107469,-3.573903 -2.849731,3.573903 c -3.53355,4.431496 -4.832989,4.453468 -9.926169,0.167839 l -4.047878,-3.406066 -2.961536,3.406066 c -3.591007,4.13002 -4.321248,4.175856 -9.36057,0.587542 l -3.958249,-2.818521 -3.00018,2.818521 c -3.718805,3.493636 -5.424461,3.525027 -10.113513,0.186127 -3.680816,-2.620972 -3.707197,-2.620972 -6.079144,0 -3.016805,3.333532 -4.74721,3.310564 -9.109632,-0.12092 -4.291169,-3.375433 -5.70867,-2.596931 -8.922315,4.9002 -2.008526,4.6857 -3.173872,5.853116 -5.842743,5.853116 -4.1540709,0 -6.6410077,-4.266434 -5.5798171,-9.572387 C 8.408877,26.955614 17.25092,7.5131488 19.649798,5.6773816 c 2.661763,-2.036941 5.920143,0.4559389 8.390128,6.4190104 1.782432,4.303169 4.086077,4.964918 6.62674,1.903608 2.364952,-2.849594 6.658057,-2.472925 10.247398,0.899085 l 3.085935,2.899085 3.085935,-2.899085 C 55.045136,11.179608 59.150977,11.215148 62.744328,15 l 2.848209,3 2.033027,-3 c 2.518003,-3.715647 7.177982,-3.865373 10.374434,-0.333334 2.561996,2.830974 6,3.578595 6,1.304748 0,-0.749054 1.505935,-2.048068 3.346522,-2.886695 2.88629,-1.315082 3.823091,-1.081942 6.811857,1.695251 L 97.623711,18 99.64115,15 c 2.50947,-3.73167 7.477,-3.881852 11.02551,-0.333334 3.12532,3.125315 4.77896,3.367856 5.74783,0.84304 0.99742,-2.599258 7.25702,-3.512083 9.07363,-1.323192 1.94566,2.344368 6.51188,2.350106 6.51188,0.0082 0,-3.325934 6.17702,-8.7397541 9.09977,-7.9754398 C 143.37068,6.8131137 148,13.738153 148,16.541376 c 0,0.442768 1.51625,3.948073 3.36945,7.789567 1.8532,3.841495 3.72936,9.235302 4.16925,11.986238 1.35378,8.466003 -4.39701,12.013283 -9.75328,6.016151 z"
       id="path42" />
  </g>
</svg>
