<?xml version="1.0" encoding="UTF-8" standalone="no"?>
<!-- Created with Inkscape (http://www.inkscape.org/) -->

<svg
   version="1.1"
   id="svg2"
   width="169.33333"
   height="153.33333"
   viewBox="0 0 169.33333 153.33333"
   xmlns="http://www.w3.org/2000/svg"
   xmlns:svg="http://www.w3.org/2000/svg">
  <defs
     id="defs6" />
  <g
     id="g8">
    <path
       style="fill:#000000;stroke-width:1.33333"
       d="m 8.6666665,146.90306 c -3.2929081,-0.75302 -4.0732517,-1.67158 -4.4143833,-5.19626 -0.3431158,-3.54519 0.5741339,-5.26584 5.3333333,-10.0047 4.7986965,-4.77818 7.1576175,-6.01224 14.2867495,-7.47405 8.408453,-1.72413 8.653125,-1.6915 16,2.13391 5.395361,2.80929 8.309356,5.40167 10.52535,9.3637 l 3.064383,5.4789 -2.731049,2.73105 c -2.341539,2.34155 -4.415992,2.73105 -14.544956,2.73105 -6.497648,0 -14.447648,0.259 -17.666666,0.57556 -3.219019,0.31658 -7.652762,0.16395 -9.8527615,-0.33916 z M 142.66666,145.67365 C 120.75127,145.24453 120,145.04181 120,139.55738 c 0,-3.09249 1.08478,-5.37993 3.66666,-7.73174 12.60383,-11.4807 23.4443,-11.83834 35.00448,-1.15484 5.06084,4.67705 6.76858,7.15885 6.44112,9.36069 -0.74833,5.03185 -4.56878,5.9922 -22.4456,5.64216 z M 53.700063,52.062394 C 47.664286,50.59516 43.130868,47.344359 39.652834,41.989471 c -3.79384,-5.84111 -5.521479,-6.470625 -10.57958,-3.85498 -2.973403,1.537607 -5.773522,1.86522 -10.248873,1.199116 -7.390111,-1.099933 -9.4910479,-2.614753 -9.4910479,-6.84325 0,-3.024407 1.2007769,-4.514554 7.3333329,-9.100562 2.599228,-1.943737 2.53635,-2.105722 -2.486333,-6.405173 C 10.719784,14.022368 9.190809,11.713059 9.5250674,9.9534758 10.203402,6.3826243 17.226032,5.5592768 19.57737,8.7749231 c 1.628307,2.2268419 1.914284,2.2264819 6.065752,-0.00764 5.882788,-3.1658448 12.219339,-2.4017412 12.779669,1.5410579 0.340115,2.393237 -0.637641,3.399304 -5,5.144773 -4.224888,1.690459 -5.422792,2.874123 -5.422792,5.358326 0,2.045356 0.77149,3.188559 2.151794,3.188559 3.980657,0 12.441633,5.75814 15.703385,10.68698 1.779434,2.688906 5.030074,5.632325 7.223646,6.540933 3.548716,1.469926 4.994976,1.213371 13.121411,-2.32763 C 84.143417,31.081742 87.104261,30.824797 110,35.099275 c 5.86666,1.095267 14.26666,3.306556 18.66666,4.913977 8.20086,2.995959 18.5239,3.839094 24.96115,2.038702 3.10589,-0.868666 3.85925,-0.506702 5.23647,2.515956 1.351,2.965138 1.24786,3.891376 -0.644,5.783233 -1.95156,1.951571 -4.86479,2.196323 -21.79723,1.831277 -10.74952,-0.231749 -20.9813,-0.9676 -22.73728,-1.635224 -4.03301,-1.533348 -24.629896,-1.524209 -31.685772,0.01406 -8.439402,1.839892 -23.598563,2.643995 -28.299935,1.501142 z"
       id="path1222" />
  </g>
</svg>
