<?xml version="1.0" encoding="UTF-8" standalone="no"?>
<!-- Created with Inkscape (http://www.inkscape.org/) -->

<svg
   version="1.1"
   id="svg12"
   width="102.66667"
   height="86.666664"
   viewBox="0 0 102.66667 86.666664"
   xmlns="http://www.w3.org/2000/svg"
   xmlns:svg="http://www.w3.org/2000/svg">
  <defs
     id="defs16" />
  <g
     id="g18">
    <path
       style="fill:#000000;stroke-width:1.33333"
       d="m 37.720141,76.333331 c -2.1105,-2.75 -4.548055,-6.65 -5.416788,-8.666666 -1.898548,-4.407264 -3.232547,-4.495872 -12.765279,-0.847903 l -7.365885,2.818763 -4.0860943,-2.909556 c -2.247352,-1.600255 -4.0860946,-3.964111 -4.0860946,-5.253011 0,-2.743104 5.3150602,-8.122645 8.0859349,-8.18403 1.052736,-0.02332 3.064965,-0.913248 4.47162,-1.977612 C 19.366154,49.188153 19.247094,48.78319 12.643378,37.999999 8.1822189,30.715382 8.3797381,27.22827 13.400583,24.63189 c 3.976634,-2.056397 4.152576,-2.011915 7.897059,1.996567 2.106395,2.254902 5.526132,6.784887 7.599418,10.066631 3.818169,6.043676 7.59566,7.612192 10.745873,4.461979 1.123908,-1.123908 0.904676,-2.401366 -0.858082,-5 C 28.559874,21.083551 28.660993,21.318785 30.781989,17.539965 33.498606,12.699973 39.6194,12.64653 42.558173,17.437142 c 7.069662,11.52454 10.073847,14.553162 14.108496,14.22326 3.345858,-0.273582 3.943174,-0.845242 3.652518,-3.495638 -0.191114,-1.742713 -2.727476,-6.523473 -5.63636,-10.623911 -4.7294,-6.666688 -5.099704,-7.7419561 -3.500571,-10.1647647 1.116711,-1.6919029 3.562559,-2.8620635 6.512737,-3.115872 4.03414,-0.3470638 5.229525,0.2557662 8.181385,4.1258542 1.901327,2.4927675 3.456958,5.4210825 3.456958,6.5073655 0,1.086282 1.514357,3.397723 3.365237,5.136535 l 3.365237,3.161476 7.346213,-3.719728 c 6.874368,-3.48081 7.55094,-3.585585 10.533639,-1.631245 4.432664,2.904392 5.507023,7.083224 2.636534,10.255077 -1.279754,1.414113 -3.08521,2.571115 -4.012124,2.571115 -2.222257,0 -9.882189,4.387588 -9.892972,5.666666 -0.0047,0.55 0.477541,1 1.071507,1 0.593965,0 3.660013,3.896004 6.81344,8.657785 6.482653,9.789032 6.638261,14.445689 0.559941,16.756662 -3.481189,1.323546 -8.453319,0.594675 -8.453319,-1.239184 0,-1.417172 -10.375245,-17.17111 -11.949212,-18.143875 -2.117784,-1.308861 -6.717455,1.821113 -6.717455,4.571079 0,1.379754 0.45,2.708643 1,2.953089 2.561951,1.138644 11.033027,15.47361 10.289282,17.411778 -0.998834,2.60292 -5.574567,3.88092 -9.996147,2.79192 -4.741687,-1.16784 -6.352022,-2.754253 -9.098669,-8.963501 -2.387849,-5.398132 -6.152852,-10.171209 -7.956372,-10.086683 -0.497618,0.02332 -1.997406,0.870652 -3.332863,1.882954 -2.226721,1.687898 -2.261658,2.16241 -0.421248,5.721371 1.103768,2.134454 2.981079,4.689362 4.171801,5.677574 1.723898,1.430708 6.010882,9.568333 6.010882,11.409957 0,1.917384 -5.04368,4.599073 -8.649865,4.599073 -3.582003,0 -5.214376,-0.983753 -8.296662,-5 z"
       id="path1083" />
  </g>
</svg>
