<?xml version="1.0" encoding="UTF-8" standalone="no"?>
<!-- Created with Inkscape (http://www.inkscape.org/) -->

<svg
   version="1.1"
   id="svg22"
   width="106.66667"
   height="160"
   viewBox="0 0 106.66667 160"
   xmlns="http://www.w3.org/2000/svg"
   xmlns:svg="http://www.w3.org/2000/svg">
  <defs
     id="defs26" />
  <g
     id="g28">
    <path
       style="fill:#000000;stroke-width:1.33333"
       d="m 46.391511,150.42499 c -1.711563,-3.32884 -2.365543,-8.55359 -2.640036,-21.09166 -0.200683,-9.16666 0.108548,-17.41666 0.68718,-18.33333 0.580553,-0.91971 3.670569,-1.66667 6.89468,-1.66667 3.213441,0 6.328032,0.75 6.921311,1.66667 1.743527,2.6939 1.685305,37.9122 -0.06656,40.25916 -0.836783,1.12104 -3.321423,2.38757 -5.521423,2.81453 -3.520703,0.68326 -4.272619,0.24606 -6.275158,-3.6487 z m 41.66039,1.20852 c -2.124393,-1.07502 -3.619553,-3.30123 -4.240358,-6.31368 -1.023908,-4.9685 -0.260042,-32.84878 0.953805,-34.81283 1.034155,-1.6733 7.834076,-1.45089 11.870554,0.38825 3.929388,1.79035 4.270328,2.99036 5.238448,18.43808 1.31743,21.02128 -2.9009,27.82684 -13.822449,22.30018 z M 7.6741928,150.33333 c -1.7792179,-1.36726 -2.2413434,-4.97049 -2.57254,-20.05829 -0.4393,-20.0125 -0.1434994,-20.87967 7.1364432,-20.92129 5.794333,-0.0331 7.730146,3.11852 8.030853,13.07482 C 20.999787,146.62637 19.618325,152 12.666667,152 c -1.55301,0 -3.7996233,-0.75 -4.9924742,-1.66667 z M 43.283608,82.625048 c -3.252739,-1.214329 -6.698682,-5.071205 -7.815483,-8.747492 -0.466009,-1.534011 -2.244944,-4.102137 -3.953188,-5.706949 l -3.105899,-2.91784 -6.31506,2.706949 C 13.861943,71.488379 10.463228,71.374587 6.7732327,67.446768 2.4723761,62.868716 4.0573555,59.790529 12.667426,55.999665 c 4.032916,-1.775622 7.332575,-3.696108 7.332575,-4.267746 0,-0.571639 -2.7,-4.983098 -6.000001,-9.803242 -3.3,-4.820145 -5.9999998,-9.805974 -5.9999998,-11.079621 0,-3.360425 2.6723238,-5.515723 6.8388708,-5.515723 2.829883,0 4.549146,1.348772 7.733334,6.066843 2.251954,3.336764 4.094463,6.3322 4.094463,6.656525 0,0.324326 1.286366,2.069135 2.858593,3.877354 2.399343,2.759486 3.309727,3.05036 5.666667,1.810536 C 40.130057,41.14698 39.958943,39.614436 33.760992,30.928785 28.423638,23.449157 27.863677,22.02642 29.147878,19.207905 30.283474,16.715543 31.642848,16 35.242193,16 c 3.972064,0 4.944335,0.656731 6.818072,4.605339 1.201956,2.532936 3.030107,5.306402 4.062556,6.16326 1.03245,0.856856 1.877181,2.12731 1.877181,2.823232 0,3.67202 5.385353,5.994477 9.89095,4.265517 C 61.170154,32.599 60.444047,29.840901 54.547723,21.158179 48.440043,12.16422 48.239363,7.3266869 53.914848,5.9022309 c 5.765407,-1.447025 7.855271,-0.020123 13.329598,9.1010901 6.04159,10.066375 7.342607,10.564015 16.291987,6.231695 6.91078,-3.345452 11.207778,-2.953528 13.275931,1.210881 2.228614,4.487508 0.877276,7.773639 -3.93932,9.579491 -7.411408,2.778707 -10.207025,4.389799 -10.179889,5.866585 0.01457,0.792748 3.014566,5.261982 6.666666,9.931631 7.202387,9.209116 7.945415,11.915209 4.201861,15.303079 -5.422919,4.907674 -9.824806,1.609642 -20.6345,-15.460016 -2.54161,-4.013475 -6.361272,-4.758396 -8.874079,-1.730651 -2.11945,2.553783 -0.737837,6.848832 4.240734,13.183249 3.483016,4.431568 3.862164,5.685366 2.822405,9.333334 -0.909157,3.189758 -2.064336,4.314909 -4.752469,4.628932 -2.877086,0.336097 -4.219139,-0.59422 -7.06852,-4.899926 -1.934441,-2.923134 -4.367233,-5.640993 -5.406207,-6.039685 -1.038975,-0.398692 -1.889044,-1.823725 -1.889044,-3.16674 0,-3.541259 -2.335934,-5.335279 -6.02793,-4.629509 -6.299675,1.20426 -6.288432,3.443086 0.0546,10.874146 3.288323,3.852371 6.344544,8.461672 6.791603,10.242894 1.345712,5.361745 -3.867667,9.277974 -9.534674,7.162337 z"
       id="path944" />
  </g>
</svg>
