<?xml version="1.0" encoding="UTF-8" standalone="no"?>
<!-- Created with Inkscape (http://www.inkscape.org/) -->

<svg
   version="1.1"
   id="svg32"
   width="160"
   height="161.33333"
   viewBox="0 0 160 161.33333"
   xmlns="http://www.w3.org/2000/svg"
   xmlns:svg="http://www.w3.org/2000/svg">
  <defs
     id="defs36" />
  <g
     id="g38">
    <path
       style="fill:#000000;stroke-width:1.33333"
       d="m 47.666667,155.86824 c -5.323544,-3.04372 -0.371679,-10.53491 6.96384,-10.53491 3.432097,0 16.216641,-2.62989 26.264372,-5.40283 3.058849,-0.84416 6.958849,-3.02849 8.666666,-4.85408 3.088087,-3.30101 3.102995,-3.48496 2.717555,-33.53115 -0.213161,-16.616568 -1.019016,-33.426083 -1.790789,-37.354482 -1.010115,-5.141585 -0.99074,-7.555027 0.06916,-8.614925 1.97122,-1.97122 21.595469,-1.24294 23.768539,0.88208 1.27642,1.248185 1.35433,4.228798 0.33761,12.915688 -1.85029,15.808994 -4.45407,50.221059 -4.29105,56.711349 0.0748,2.98007 1.06291,8.08007 2.19569,11.33332 2.72802,7.8347 2.63376,13.68391 -0.26277,16.30523 -1.91538,1.7334 -5.7544,2.14383 -20.333333,2.17383 -9.884686,0.0204 -23.372156,0.32226 -29.972156,0.67096 -6.830578,0.36088 -13.005165,0.0593 -14.333334,-0.70008 z m -19,-114.874074 C 17.666667,40.315591 7.9166667,39.140839 7,38.383605 4.2249995,36.091247 4.9230889,24.943175 8.0519401,21.584748 9.547174,19.979804 10.897174,18.639705 11.05194,18.606753 c 0.154766,-0.03295 10.181393,-0.408719 22.281393,-0.835037 22.646576,-0.797907 23.940328,-1.154447 23.979583,-6.608457 0.03809,-5.2921357 3.311465,-6.4680162 10.368509,-3.7246338 7.294715,2.8357758 24.710143,3.2061268 29.527559,0.6279244 4.338096,-2.3216795 20.577356,0.7419158 27.328416,5.1556054 4.45237,2.910857 6.73329,3.408669 15.79095,3.446383 12.35716,0.05145 14.33832,1.560244 14.33832,10.919635 0,10.209564 -4.77339,12.426542 -17.86563,8.297608 -6.23305,-1.965732 -10.18851,-1.445111 -21.01382,2.765856 L 105.57445,42.624332 77.120556,42.426134 C 61.470917,42.317124 39.666667,41.672739 28.666667,40.994166 Z"
       id="path805" />
  </g>
</svg>
