<?xml version="1.0" encoding="UTF-8" standalone="no"?>
<!-- Created with Inkscape (http://www.inkscape.org/) -->

<svg
   version="1.1"
   id="svg42"
   width="105.33333"
   height="158.66667"
   viewBox="0 0 105.33333 158.66667"
   xmlns="http://www.w3.org/2000/svg"
   xmlns:svg="http://www.w3.org/2000/svg">
  <defs
     id="defs46" />
  <g
     id="g48">
    <path
       style="fill:#000000;stroke-width:1.33333"
       d="m 38.778704,148.14147 c -2.261621,-2.85553 -4.112038,-5.72203 -4.112038,-6.37 0,-0.64796 -0.897292,-2.45919 -1.993983,-4.02492 l -1.993981,-2.84681 -8.552423,3.39322 -8.552421,3.39323 -4.1202623,-2.93388 c -2.2661443,-1.61364 -4.1202625,-3.98844 -4.1202625,-5.27735 0,-2.7431 5.3150598,-8.12264 8.0859348,-8.18403 1.052736,-0.0233 3.064965,-0.91325 4.471619,-1.97761 C 20.699486,121.18816 20.580426,120.78319 13.97671,110 9.6218016,102.88888 9.7325737,99.218187 14.374517,96.817745 19.350338,94.244647 21.081462,95.428473 28.745666,106.64542 32.2611,111.79044 35.734212,116 36.463694,116 c 0.729481,0 2.393145,-0.96545 3.697029,-2.14545 2.271749,-2.05591 2.270925,-2.29242 -0.01976,-5.66667 C 29.90331,93.107542 29.994268,93.318889 32.115322,89.539967 c 2.716617,-4.839992 8.83741,-4.893435 11.776183,-0.102826 4.211496,6.865329 10.148875,14.446309 11.871751,15.158129 0.96979,0.40067 2.948625,0.0941 4.39741,-0.68126 3.391063,-1.81484 2.471292,-4.925448 -4.298693,-14.537924 -4.585939,-6.511422 -4.943573,-7.580139 -3.346385,-10 1.11671,-1.691903 3.562558,-2.862063 6.512735,-3.115872 4.03414,-0.347064 5.229526,0.255766 8.181386,4.125854 1.901325,2.492772 3.456955,5.421087 3.456955,6.50737 0,1.086283 1.514358,3.397724 3.365238,5.136536 l 3.365237,3.161476 7.346212,-3.719728 c 6.874367,-3.480811 7.550939,-3.585585 10.533638,-1.631245 4.432664,2.904392 5.507021,7.083224 2.636535,10.255073 -1.279755,1.41412 -3.085211,2.57112 -4.012124,2.57112 -2.222258,0 -9.882189,4.38759 -9.892972,5.66667 -0.0047,0.55 0.477541,1 1.071507,1 0.593965,0 3.660013,3.896 6.813439,8.65778 6.482654,9.78903 6.638262,14.44569 0.559942,16.75667 -3.481189,1.32355 -8.453319,0.59467 -8.453319,-1.23919 0,-1.41717 -10.375245,-17.17111 -11.949211,-18.14388 -2.117784,-1.30886 -6.717455,1.82112 -6.717455,4.57108 0,1.37976 0.45,2.70865 1,2.95309 2.561951,1.13865 11.033027,15.47362 10.289281,17.41178 -0.998833,2.60292 -5.574566,3.88092 -9.996146,2.79192 -4.741687,-1.16784 -6.352021,-2.75425 -9.098668,-8.96351 -2.387849,-5.39812 -6.152852,-10.1712 -7.956372,-10.08667 -0.497618,0.0233 -1.997406,0.87065 -3.332862,1.88295 -2.226721,1.6879 -2.261659,2.16241 -0.421248,5.72137 1.103768,2.13446 2.981078,4.68937 4.1718,5.67758 1.723898,1.43071 6.010882,9.56833 6.010882,11.40996 0,1.91737 -5.04368,4.59907 -8.649865,4.59907 -3.589469,0 -5.26155,-1.01282 -8.571429,-5.19187 z M 18.333333,37.238734 C 14.652141,35.075391 15.569792,30.812125 21.370309,23.129394 27.320874,15.247926 33.26564,11.653584 45.559532,8.5040348 55.823618,5.8744976 61.532345,6.7237851 73.246744,12.623063 85.967159,19.02896 91.645748,26.373186 90.443837,34.864383 l -0.44384,3.135618 -34.666665,0.304986 C 33.42312,38.497746 19.808058,38.105391 18.333333,37.238734 Z"
       id="path666" />
  </g>
</svg>
