<?xml version="1.0" encoding="UTF-8" standalone="no"?>
<!-- Created with Inkscape (http://www.inkscape.org/) -->

<svg
   version="1.1"
   id="svg52"
   width="160"
   height="161.33333"
   viewBox="0 0 160 161.33333"
   xmlns="http://www.w3.org/2000/svg"
   xmlns:svg="http://www.w3.org/2000/svg">
  <defs
     id="defs56" />
  <g
     id="g58">
    <path
       style="fill:#000000;stroke-width:1.33333"
       d="m 7.2988735,151.93336 c -1.23053,-2.37959 -1.7361324,-5.28355 -1.2187519,-7 C 7.9087321,138.86681 15.055321,123.24412 17.028427,121 c 2.919224,-3.3202 7.919886,-2.88617 11.521466,1 3.078859,3.32214 6.116774,4.39268 6.116774,2.15551 0,-0.64781 1.281113,-1.51285 2.84692,-1.92232 1.987285,-0.51968 3.967022,0.37562 6.556458,2.96506 l 3.709539,3.70954 3.323235,-3.78723 c 3.922521,-4.47019 6.588844,-4.76223 10.230514,-1.12056 1.466667,1.46666 3.133323,2.66666 3.703679,2.66666 0.570357,0 2.064484,-1.2 3.320284,-2.66666 1.255799,-1.46667 3.195016,-2.66667 4.309371,-2.66667 1.114354,0 3.053572,1.2 4.30937,2.66667 2.723624,3.18096 4.775644,3.37572 7.023963,0.66666 0.912919,-1.1 3.405216,-2 5.53844,-2 2.217644,0 4.207244,0.85647 4.646059,2 1.060526,2.76369 3.615546,2.50092 6.482171,-0.66666 3.25697,-3.59892 6.25431,-3.35458 9.8707,0.80464 l 3.01827,3.47132 1.96445,-2.80465 c 2.19917,-3.13974 7.15555,-3.65432 11.15295,-1.1579 2.25882,1.41065 2.9361,1.2195 4.72418,-1.33334 1.44091,-2.05718 3.44511,-2.98007 6.47174,-2.98007 4.9992,0 7.35032,2.26129 10.39723,10 1.15492,2.93333 3.14186,7.84617 4.41544,10.91744 2.6254,6.33126 1.89012,11.78102 -1.71678,12.72425 -4.51668,1.18113 -7.95972,-1.33293 -10.3318,-7.54416 -2.42276,-6.34391 -4.47796,-7.49755 -7.29972,-4.09753 -2.10284,2.53376 -5.29216,2.54714 -8.87556,0.0372 -2.5206,-1.7655 -3.10698,-1.69848 -5.83403,0.66666 -3.81281,3.30684 -5.88706,3.30223 -11.27072,-0.0251 -4.28851,-2.65044 -4.29874,-2.65044 -6.69736,0 -3.118633,3.44605 -6.667553,3.37344 -9.161693,-0.18744 -2.000348,-2.8559 -2.41487,-2.81759 -8.742863,0.80794 -3.323065,1.90394 -8.084437,0.71842 -8.084437,-2.01288 0,-1.91641 -2.826756,-1.55432 -4.519676,0.57894 -2.807818,3.53816 -6.655268,3.59516 -10.655498,0.15785 l -3.822317,-3.28441 -3.708849,3.97033 c -4.170959,4.46503 -6.613954,4.21095 -10.058512,-1.04611 l -2.258164,-3.4464 -1.864408,3.55836 c -2.432643,4.64286 -7.311143,4.66576 -11.587052,0.0544 -3.209878,-3.4617 -3.266808,-3.47081 -4.720626,-0.75433 C 20.662204,142.58734 20,145.09141 20,146.63961 20,149.89424 14.408623,156 11.42818,156 10.313678,156 8.4554905,154.17001 7.2988735,151.93336 Z M 71.283607,82.625046 c -3.252739,-1.214329 -6.698682,-5.071205 -7.815483,-8.747492 -0.466009,-1.53401 -2.244944,-4.102137 -3.953188,-5.706949 l -3.105899,-2.91784 -6.31506,2.70695 C 41.861943,71.488377 38.463228,71.374585 34.773232,67.446767 30.472376,62.868715 32.057356,59.790528 40.667425,55.999664 44.700341,54.224042 48,52.303556 48,51.731918 48,51.160279 45.3,46.74882 42,41.928676 38.7,37.108531 36,32.122702 36,30.849055 c 0,-3.360425 2.672324,-5.515722 6.838871,-5.515722 2.829882,0 4.549145,1.348772 7.733333,6.066842 2.251955,3.336764 4.094463,6.3322 4.094463,6.656526 0,0.324325 1.286366,2.069134 2.858593,3.877353 2.399343,2.759486 3.309727,3.05036 5.666667,1.810536 4.938129,-2.597611 4.767014,-4.130155 -1.430936,-12.815805 C 56.423637,23.449157 55.863676,22.02642 57.147877,19.207905 58.283473,16.715542 59.642847,16 63.242192,16 c 3.972064,0 4.944335,0.65673 6.818072,4.605338 1.201956,2.532936 3.030107,5.306403 4.062556,6.16326 C 75.155269,27.625454 76,28.895909 76,29.59183 c 0,3.67202 5.385353,5.994477 9.890951,4.265517 3.279201,-1.258348 2.553094,-4.016446 -3.34323,-12.699169 -6.10768,-8.993958 -6.30836,-13.8314912 -0.632874,-15.2559472 5.765406,-1.447025 7.85527,-0.020123 13.329597,9.1010902 6.041586,10.066374 7.342606,10.564014 16.291986,6.231695 6.91078,-3.345452 11.20778,-2.953528 13.27593,1.210881 2.22861,4.487508 0.87728,7.773638 -3.93932,9.57949 -7.41141,2.778707 -10.20702,4.389799 -10.17989,5.866586 0.0146,0.792748 3.01457,5.261981 6.66667,9.93163 7.20239,9.209116 7.94541,11.915209 4.20186,15.303078 -5.42292,4.907675 -9.82481,1.609643 -20.6345,-15.460015 -2.541611,-4.013475 -6.361272,-4.758396 -8.874079,-1.730651 -2.11945,2.553783 -0.737837,6.848832 4.240734,13.183249 3.483016,4.431568 3.862165,5.685365 2.822405,9.333333 -0.909157,3.189759 -2.064336,4.314909 -4.752469,4.628932 -2.877086,0.336097 -4.219139,-0.59422 -7.06852,-4.899925 -1.93444,-2.923135 -4.367232,-5.640993 -5.406207,-6.039685 C 80.850069,61.743227 80,60.318193 80,58.975179 80,55.43392 77.664067,53.6399 73.972071,54.34567 c -6.299675,1.20426 -6.288432,3.443086 0.0546,10.874146 3.288322,3.852371 6.344544,8.461672 6.791602,10.242893 1.345712,5.361745 -3.867666,9.277975 -9.534673,7.162337 z"
       id="path527" />
  </g>
</svg>
