<?xml version="1.0" encoding="UTF-8" standalone="no"?>
<!-- Created with Inkscape (http://www.inkscape.org/) -->

<svg
   version="1.1"
   id="svg62"
   width="82.666664"
   height="160"
   viewBox="0 0 82.666664 160"
   xmlns="http://www.w3.org/2000/svg"
   xmlns:svg="http://www.w3.org/2000/svg">
  <defs
     id="defs66" />
  <g
     id="g68">
    <path
       style="fill:#000000;stroke-width:1.33333"
       d="m 15.674191,151.66667 c -1.779217,-1.36727 -2.241342,-4.9705 -2.572539,-20.0583 -0.4393,-20.0125 -0.143499,-20.87967 7.136442,-20.92129 5.794333,-0.0331 7.730146,3.11852 8.030853,13.07483 0.730839,24.1978 -0.650624,29.57142 -7.602281,29.57142 -1.553009,0 -3.799623,-0.75 -4.992475,-1.66666 z M 39.028699,149 c -0.726574,-0.93307 -1.196255,-9.83139 -1.067072,-20.21618 0.221017,-17.76734 0.353902,-18.59507 3.15146,-19.62995 4.050152,-1.49825 10.680958,0.0518 11.42849,2.67157 1.002156,3.51213 0.157179,35.35168 -0.986563,37.17456 -0.57515,0.91667 -3.33685,1.66667 -6.137111,1.66667 -2.800262,0 -5.675404,-0.75 -6.389204,-1.66667 z m 24.846527,-0.48368 c -1.263404,-1.52231 -1.839395,-7.18499 -1.972157,-19.38869 -0.166635,-15.31741 0.07856,-17.38077 2.200376,-18.51633 3.209894,-1.71788 10.192287,-1.6235 11.289982,0.1526 1.627461,2.63329 0.60838,37.74186 -1.127548,38.84535 -2.761068,1.75515 -8.530612,1.14828 -10.390653,-1.09293 z M 34.099412,69.716733 C 32.687424,69.348768 28.3239,67.311971 24.402694,65.190519 20.481487,63.069067 16.20637,61.333333 14.902433,61.333333 c -4.580268,0 -9.5479674,-3.241966 -9.5586972,-6.238094 C 5.3319193,51.795689 8.5870811,48 11.428571,48 c 1.047619,0 1.904762,-0.6 1.904762,-1.333333 0,-0.733334 -1.17889,-1.333334 -2.619755,-1.333334 -4.6101829,0 -6.1858455,-6.971105 -2.1803195,-9.646249 0.8067076,-0.538771 2.7516205,-0.988771 4.3220295,-1 4.36463,-0.03121 17.636508,-11.734447 16.825266,-14.836641 -0.527,-2.015254 -1.903252,-2.51711 -6.902729,-2.51711 -3.434471,0 -6.964492,-0.72 -7.844492,-1.6 C 12.844622,13.644623 12.882558,8.6819949 15,7.0122061 16.814467,5.5813383 53.044898,4.8281348 59.001254,6.0974531 c 2.427791,0.5173698 3.943239,1.878595 4.482223,4.0260779 1.248741,4.975378 -1.547286,7.209802 -9.021919,7.209802 -7.949768,0 -10.110381,2.972016 -5.017238,6.901424 1.77229,1.367339 4.601877,3.654788 6.287973,5.083222 1.686094,1.428434 5.537622,2.895114 8.55895,3.259289 8.445256,1.017947 10.394616,6.44982 4.093437,11.406327 -2.974399,2.339664 -3.269863,3.062313 -1.666666,4.076357 1.071758,0.677901 2.37754,1.241735 2.901738,1.252964 0.524199,0.0112 1.597458,1.224432 2.38502,2.696004 1.954228,3.651509 -3.590809,9.324413 -9.114242,9.324413 -2.14354,0 -4.677113,0.939562 -5.630163,2.087916 -3.777699,4.551851 -16.540155,8.020872 -23.160955,6.295484 z"
       id="path388" />
  </g>
</svg>
