<?xml version="1.0" encoding="UTF-8" standalone="no"?>
<!-- Created with Inkscape (http://www.inkscape.org/) -->

<svg
   version="1.1"
   id="svg72"
   width="173.33333"
   height="157.33333"
   viewBox="0 0 173.33333 157.33333"
   xmlns="http://www.w3.org/2000/svg"
   xmlns:svg="http://www.w3.org/2000/svg">
  <defs
     id="defs76" />
  <g
     id="g78">
    <path
       style="fill:#000000;stroke-width:1.33333"
       d="m 103.0464,151.73088 c -0.76268,-0.95199 -1.77968,-2.93088 -2.25999,-4.39755 -0.48031,-1.46667 -2.943695,-5.06667 -5.474196,-8 L 90.711305,134 l -5.286477,3 c -6.775244,3.84485 -15.433268,4.0546 -17.377917,0.42098 -2.893106,-5.40581 -1.68839,-7.62474 5.930333,-10.92289 4.020817,-1.74062 7.320817,-3.9891 7.333333,-4.99663 0.01252,-1.00753 -2.377245,-5.42591 -5.310578,-9.81861 -6.03008,-9.03011 -6.319452,-10.37713 -2.895012,-13.476201 3.585334,-3.244684 7.846413,-2.695046 11.237162,1.449486 1.645151,2.010875 5.503508,6.252145 8.574128,9.425055 4.734516,4.89222 5.982641,5.555 8.213073,4.36131 1.87409,-1.00299 2.41086,-2.27497 1.86734,-4.42505 -0.41953,-1.6596 -1.12507,-3.31745 -1.56786,-3.68412 -3.709733,-3.07196 -8.095498,-10.206289 -8.095498,-13.168965 0,-4.656492 2.226847,-6.831033 6.995348,-6.831033 2.89379,0 4.33488,1.002494 6.06666,4.220269 C 109.83972,95.953489 117.36186,104 119.90031,104 c 1.24117,0 3.31159,-0.77137 4.60093,-1.71416 2.17513,-1.59049 1.94612,-2.310373 -3.17411,-9.977987 -7.15843,-10.719836 -6.9013,-14.146624 1.10474,-14.722667 6.83688,-0.49192 8.72304,0.835767 12.90146,9.081479 4.87669,9.62369 6.47849,10.448914 13.27908,6.841209 3.82145,-2.027273 7.40491,-2.883531 10.87667,-2.598949 4.94338,0.405209 5.17758,0.634681 5.17758,5.073106 0,3.867511 -0.67217,4.957859 -4,6.488409 -2.2,1.01184 -5.35385,2.68628 -7.00856,3.72098 l -3.00856,1.88127 2.55312,4.96365 c 1.40422,2.73001 4.40807,6.72591 6.67523,8.87978 4.53737,4.31063 5.5922,10.56778 2.01305,11.94122 -1.15997,0.44514 -4.49058,0.80932 -7.40136,0.80932 -4.76926,0 -5.4815,-0.45277 -7.20646,-4.5812 -2.5089,-6.00461 -8.27926,-14.45251 -10.86032,-15.89969 -2.54972,-1.42959 -8.4228,1.4968 -8.4228,4.19685 0,1.0626 1.8,3.98209 4,6.48775 2.2,2.50566 4,5.43487 4,6.50936 0,1.07448 0.45566,1.9536 1.0126,1.9536 0.55693,0 1.79792,1.25748 2.75773,2.79439 2.72761,4.3676 -1.35269,8.12062 -8.26567,7.60269 -4.53749,-0.33995 -5.93739,-1.26029 -9.73039,-6.39708 -2.43671,-3.3 -4.99575,-7.29172 -5.68675,-8.87048 -1.73913,-3.97347 -3.57435,-4.83132 -6.72663,-3.14427 -3.71672,1.98913 -3.45901,2.96893 2.632,10.00654 5.83803,6.74532 7.79187,11.93005 5.73354,15.21458 -1.7134,2.73411 -12.72788,3.62786 -14.68003,1.19118 z m -92.571469,-9.61923 c -1.9445202,-4.26776 1.960079,-12.23363 7.48449,-15.26929 2.177683,-1.19663 4.77054,-2.9257 5.761905,-3.84236 1.611215,-1.48981 9.655171,-2.32938 16.94534,-1.76863 11.77719,0.90588 25.69191,14.53689 21.959221,21.51149 -1.296031,2.42166 -2.992656,2.59047 -26.034718,2.59047 H 11.94283 Z M 49.772543,46.00963 C 45.980776,44.183731 41.769377,41.279892 40.413879,39.556655 36.496427,34.576423 33.155739,33.349274 27.246247,34.719734 18.345948,36.783786 10.009646,36.290625 7.5325891,33.553507 4.4866959,30.187834 6.904832,22.992341 11.466568,21.847418 15.958514,20.720012 15.454572,18.176936 9.8186262,13.531313 3.6883286,8.4782032 4.3982744,5.2927259 11.62482,5.427047 c 2.773016,0.051543 6.241846,0.5748702 7.708513,1.1629506 1.665039,0.6676206 4.075795,0.3526616 6.418237,-0.8385259 5.372276,-2.7319308 12.248429,-1.8438887 12.248429,1.5818615 0,1.846549 -1.742749,3.4544658 -5.666666,5.2282488 -3.116667,1.408871 -5.65278,3.208871 -5.635807,4 0.01697,0.79113 4.296864,3.838418 9.510867,6.771751 5.214002,2.933333 11.050115,7.201154 12.969139,9.484046 5.133471,6.106838 8.603768,7.552425 14.332927,5.970528 2.642717,-0.729689 5.887117,-2.306064 7.209777,-3.503054 1.345235,-1.217422 7.812728,-3.08819 14.678408,-4.245832 13.892007,-2.342376 21.273156,-1.566336 43.934686,4.619202 7.08045,1.932634 18.24695,3.799424 25.31991,4.232925 10.18717,0.624374 12.73304,1.194859 13.06276,2.927142 0.26296,1.381524 -1.37287,2.997432 -4.57042,4.51477 -4.38466,2.08066 -7.06185,2.235043 -22.3961,1.291492 C 120.52836,47.380304 89.10156,47.327939 69.999999,48.506666 57.615612,49.270887 56.176004,49.09317 49.772543,46.00963 Z"
       id="path249" />
  </g>
</svg>
