<?xml version="1.0" encoding="UTF-8" standalone="no"?>
<!-- Created with Inkscape (http://www.inkscape.org/) -->

<svg
   version="1.1"
   id="svg82"
   width="144"
   height="96"
   viewBox="0 0 144 96"
   xmlns="http://www.w3.org/2000/svg"
   xmlns:svg="http://www.w3.org/2000/svg">
  <defs
     id="defs86" />
  <g
     id="g88">
    <path
       style="fill:#000000;stroke-width:1.33333"
       d="M 6.1622012,90.129357 C 3.3322608,87.816329 2.8151723,84.792883 4.6599859,81.345816 c 1.2991933,-2.427564 3.5812392,-3.569139 9.5815631,-4.793097 4.331912,-0.883631 10.24971,-2.720999 13.15066,-4.08304 4.385902,-2.059246 5.563031,-3.486651 6.987427,-8.473058 0.942132,-3.298141 2.63796,-8.806492 3.768505,-12.240777 1.932803,-5.871319 1.894708,-6.607741 -0.637994,-12.333333 -3.236564,-7.316791 -5.743224,-7.731751 -12.804974,-2.119779 -3.944048,3.134335 -5.518944,3.688908 -7.486116,2.636109 -4.841633,-2.591164 -5.431554,-5.924237 -1.909746,-10.790142 5.245324,-7.247202 7.594346,-11.942246 9.190045,-18.368343 L 26,4.7370597 33.792944,4.613864 c 6.976509,-0.1102893 7.915944,0.2003207 8.966999,2.9648035 1.37294,3.6111075 2.906493,3.8997725 5.313021,1.0000837 3.222507,-3.8828831 9.093208,-5.9120845 17.104305,-5.9120845 6.867652,0 8.096831,0.3795593 8.843039,2.7306504 1.070404,3.3725448 -1.039828,6.0387459 -7.249737,9.1597789 -5.184159,2.605503 -10.523018,5.534476 -13.013119,7.139181 -1.191181,0.767638 -1.111815,1.905134 0.32512,4.659636 1.045549,2.004248 1.904696,4.419831 1.909213,5.367963 0.01333,2.78694 10.384754,15.715893 13.887327,17.311772 6.098285,2.778565 12.054359,3.108467 18.787555,1.040625 8.49041,-2.607501 21.632443,-2.650881 27.757603,-0.09163 5.81643,2.430261 10.09848,7.876601 15.76339,20.04948 2.38017,5.114562 5.05107,9.899204 5.93533,10.632537 2.87141,2.381315 3.43702,6.91618 1.1481,9.205092 -2.28493,2.284932 -2.8876,2.105236 -9.44977,-2.817575 l -4.17867,-3.134764 -0.82443,3.284758 c -1.02807,4.096194 -4.63814,5.30817 -11.87445,3.986513 C 109.85803,90.6271 106.73333,90.331012 106,90.532713 c -0.73333,0.201702 -7.712852,0.610756 -15.510043,0.909011 -11.378164,0.435233 -14.500278,0.152403 -15.815833,-1.432743 -2.015027,-2.427958 -0.877756,-5.80999 2.295635,-6.826797 1.299965,-0.416531 3.683806,-1.388379 5.297424,-2.159661 1.809516,-0.86492 6.75045,-1.056482 12.892942,-0.499864 11.275405,1.02175 13.493115,-0.259846 7.649725,-4.420707 -5.203251,-3.705043 -6.564454,-3.553797 -18.349897,2.038879 -9.7111,4.608314 -10.537805,4.769365 -19.953168,3.887073 -5.402278,-0.506235 -10.161738,-1.469609 -10.576577,-2.140835 -1.129033,-1.826813 -7.204,-1.470424 -9.215027,0.540603 -1.459125,1.459124 -0.65454,1.744837 4.693438,1.666667 7.962028,-0.116374 10.346648,1.789218 8.18257,6.53885 l -1.536474,3.372196 -24.051472,-0.20667 C 16.830536,91.668341 7.2911395,91.052085 6.1622012,90.129357 Z"
       id="path110" />
  </g>
</svg>
