<?xml version="1.0" encoding="UTF-8" standalone="no"?>
<!-- Created with Inkscape (http://www.inkscape.org/) -->

<svg
   version="1.1"
   id="svg2"
   width="161.33333"
   height="154.66667"
   viewBox="0 0 161.33333 154.66667"
   xmlns="http://www.w3.org/2000/svg"
   xmlns:svg="http://www.w3.org/2000/svg">
  <defs
     id="defs6" />
  <g
     id="g8">
    <path
       style="fill:#000000;stroke-width:1.33333"
       d="m 71.754848,147.97619 c -1.234833,-0.73883 -4.132656,-4.64235 -6.439608,-8.67448 -2.306951,-4.03212 -6.546633,-10.30687 -9.421516,-13.94387 -8.108134,-10.25756 -6.842228,-18.69117 2.805592,-18.69117 1.581045,0 4.302931,1.65 6.048632,3.66667 3.586673,4.14339 16.585384,25.48548 16.585384,27.2309 0,0.62624 0.745622,2.33255 1.65694,3.79179 3.350945,5.36572 -5.05447,10.31837 -11.235424,6.62016 z m 27.323234,-0.56775 c -4.129768,-1.82525 -11.078084,-10.8876 -11.078084,-14.44861 0,-0.9679 -0.543457,-2.32983 -1.207684,-3.02649 -0.664226,-0.69667 -2.464226,-3.53492 -4,-6.30723 -4.712732,-8.50719 -3.16349,-14.31422 3.807684,-14.27236 4.667737,0.028 5.91684,1.07585 9.347424,7.84117 1.634773,3.22387 5.640478,9.52387 8.901568,14 4.77019,6.54751 5.85318,9.05066 5.54013,12.80508 -0.32385,3.88392 -0.94823,4.71887 -3.72246,4.97791 -1.83333,0.17119 -5.24819,-0.53508 -7.588578,-1.56947 z M 48.153967,49.998514 c -6.00512,-1.872709 -14.820634,-9.165165 -14.820634,-12.260069 0,-2.598836 -4.51723,-2.097512 -8.363828,0.928223 -3.958599,3.113834 -5.284473,3.256081 -9.320931,1 -9.7347057,-5.440983 -11.1963228,-9.964165 -4.981908,-15.417219 4.342671,-3.810629 5.213502,-6.916115 1.939394,-6.916115 -1.133333,0 -3.5565915,-1.495986 -5.3850185,-3.324414 C 4.4964663,11.284345 4.1549978,10.20174 5.3285592,8.0089206 7.2117945,4.4900629 13.49611,4.4965758 16.68539,8.0206904 c 2.377698,2.6273266 2.494006,2.6317646 5.206651,0.1986832 5.631778,-5.0513702 11.882022,-5.1100287 13.185964,-0.1237506 0.712237,2.723604 0.358413,3.190227 -6.078006,8.015661 -4.719774,3.538453 -4.617164,4.670579 0.666667,7.355531 2.383333,1.211078 8.031401,5.726486 12.551261,10.03424 4.572515,4.357936 9.435868,7.832279 10.963553,7.832279 1.510094,0 5.912025,-1.462586 9.782072,-3.250193 10.264209,-4.741124 16.424674,-6.067364 28.22199,-6.075704 10.011168,-0.0071 22.167338,2.782257 42.941018,9.853177 3.23812,1.102184 7.9989,1.572251 11.69933,1.155158 7.63711,-0.860812 12.36367,2.226322 10.04419,6.560321 -1.27128,2.375404 -2.62964,2.531784 -17.62376,2.028909 -8.93548,-0.299678 -22.9038,-1.342597 -31.04071,-2.317598 C 94.155383,47.72367 90.539981,47.779266 76.538942,49.758986 57.916913,52.392105 55.884367,52.409257 48.153967,49.998514 Z"
       id="path626" />
  </g>
</svg>
