<?xml version="1.0" encoding="UTF-8" standalone="no"?>
<!-- Created with Inkscape (http://www.inkscape.org/) -->

<svg
   version="1.1"
   id="svg12"
   width="146.66667"
   height="152"
   viewBox="0 0 146.66667 152"
   xmlns="http://www.w3.org/2000/svg"
   xmlns:svg="http://www.w3.org/2000/svg">
  <defs
     id="defs16" />
  <g
     id="g18">
    <path
       style="fill:#000000;stroke-width:1.33333"
       d="m 69.333335,144.91284 c -9.832144,-4.92224 -11.950732,-6.64087 -15.388716,-12.4836 -3.83669,-6.52032 -4.120037,-11.60403 -1.07143,-19.22325 2.496183,-6.23857 7.689219,-9.2093 16.083987,-9.20101 5.970892,0.006 13.102385,3.98171 14.383753,8.01894 1.543214,4.86224 -0.468967,11.53487 -4.219482,13.99231 -4.492776,2.94378 -11.687309,1.86227 -15.136643,-2.2754 l -2.562751,-3.07416 -0.04436,2.95555 c -0.0706,4.70434 7.930042,11.62537 15.949665,13.79739 7.417423,2.00892 10.327971,4.74747 8.926687,8.39916 -1.217848,3.17366 -9.676353,2.72079 -16.92071,-0.90593 z m 4,-28.91284 c 0,-3.31202 -6.157856,-3.70685 -10.078494,-0.64621 -2.465293,1.92452 -2.418674,1.98211 0.981911,1.21302 1.963547,-0.44408 4.663547,-0.17153 6,0.60568 3.195096,1.85807 3.096583,1.89537 3.096583,-1.17249 z M 7.4955347,92.796024 c -2.8299405,-2.313028 -3.347029,-5.336475 -1.5022154,-8.783541 1.2991934,-2.427564 3.5812393,-3.569139 9.5815637,-4.793098 4.331912,-0.88363 10.24971,-2.720998 13.15066,-4.08304 4.385902,-2.059245 5.563031,-3.48665 6.987427,-8.473057 0.942132,-3.298141 2.63796,-8.806492 3.768506,-12.240777 1.932802,-5.871319 1.894708,-6.607742 -0.637995,-12.333334 -3.236564,-7.31679 -5.743224,-7.73175 -12.804974,-2.119778 -3.944048,3.134334 -5.518944,3.688908 -7.486116,2.636109 -4.841633,-2.591164 -5.431554,-5.924237 -1.909747,-10.790143 5.245324,-7.247201 7.594347,-11.942245 9.190046,-18.368342 l 1.500644,-6.0432966 7.792944,-0.1231957 c 6.97651,-0.1102894 7.915944,0.2003206 8.966999,2.9648033 1.37294,3.611107 2.906493,3.899773 5.313021,1.000084 3.222507,-3.8828832 9.093209,-5.9120847 17.104306,-5.9120847 6.867652,0 8.096831,0.3795594 8.843039,2.7306504 1.070404,3.3725453 -1.039828,6.0387453 -7.249737,9.1597793 -5.184159,2.605502 -10.523018,5.534476 -13.013119,7.139181 -1.191182,0.767637 -1.111815,1.905133 0.32512,4.659636 1.045549,2.004248 1.904696,4.419831 1.909213,5.367963 0.01333,2.78694 10.384754,15.715893 13.887327,17.311772 6.098285,2.778565 12.054359,3.108466 18.787555,1.040625 8.490411,-2.607501 21.632438,-2.650881 27.757608,-0.09163 5.81643,2.430262 10.09848,7.876602 15.76339,20.04948 2.38016,5.114563 5.05107,9.899204 5.93532,10.632538 2.87142,2.381314 3.43703,6.91618 1.14811,9.205092 -2.28493,2.284932 -2.8876,2.105236 -9.44977,-2.817575 l -4.17868,-3.134764 -0.82442,3.284757 c -1.02808,4.096195 -4.63814,5.308171 -11.87445,3.986514 -3.08574,-0.563584 -6.21044,-0.859672 -6.94377,-0.657971 -0.73334,0.201701 -7.712856,0.610756 -15.510047,0.909011 -11.378165,0.435233 -14.500279,0.152402 -15.815834,-1.432743 -4.791548,-5.773463 5.558508,-10.602512 20.232707,-9.440021 11.519944,0.912609 13.715324,-0.32828 7.903024,-4.467008 -5.098193,-3.630231 -6.427568,-3.523862 -17.109799,1.369048 -11.351135,5.199296 -15.215432,5.818169 -24.368504,3.902653 -4.032354,-0.843873 -8.95954,-1.863036 -10.949304,-2.264805 -2.341934,-0.47288 -4.368809,0.02056 -5.747474,1.39923 -1.95074,1.95074 -1.646704,2.066138 3.617752,1.373122 7.858802,-1.034535 11.660887,1.655264 9.388735,6.642094 L 57.388049,94.672056 33.336577,94.465385 C 18.16387,94.335008 8.624473,93.718752 7.4955347,92.796024 Z"
       id="path487" />
  </g>
</svg>
