<?xml version="1.0" encoding="UTF-8" standalone="no"?>
<!-- Created with Inkscape (http://www.inkscape.org/) -->

<svg
   version="1.1"
   id="svg22"
   width="162.66667"
   height="176"
   viewBox="0 0 162.66667 176"
   xmlns="http://www.w3.org/2000/svg"
   xmlns:svg="http://www.w3.org/2000/svg">
  <defs
     id="defs26" />
  <g
     id="g28">
    <path
       style="fill:#000000;stroke-width:1.33333"
       d="m 60.163129,170.62523 c -3.943613,-0.57315 -8.743613,-2.1802 -10.666667,-3.57124 -1.923054,-1.39104 -5.896461,-3.737 -8.829794,-5.21324 -4.606775,-2.31843 -5.787434,-2.44767 -8.666667,-0.94874 -4.966398,2.58552 -7.501039,2.16292 -10.591439,-1.76588 -3.341703,-4.24829 -2.626042,-11.42789 1.601773,-16.0692 2.572598,-2.82421 2.590208,-3.13413 0.436048,-7.67369 -6.246172,-13.16283 -7.320032,-27.56796 -2.612348,-35.04295 2.786544,-4.424555 10.323052,-7.006957 20.449169,-7.006957 7.336569,0 10.444524,0.743056 17.174688,4.106159 l 8.217149,4.106158 4.486526,-2.772825 c 11.564428,-7.147209 22.19979,2.051695 14.171768,12.257665 -3.431685,4.36268 -3.360097,5.57163 0.640509,10.8167 6.92703,9.0818 9.422962,24.1061 5.51467,33.19564 -2.651076,6.16561 -11.284651,13.81612 -17.488512,15.49714 -2.933334,0.79484 -5.633334,1.37366 -6.000001,1.28626 -0.366666,-0.0875 -3.89326,-0.62786 -7.836872,-1.201 z m 84.197351,-18.95856 c -4.29054,-4.64508 -11.11211,-16.89764 -13.90133,-24.96886 -1.93042,-5.58612 -2.69336,-12.63636 -3.24644,-30.000002 C 126.81507,84.214013 125.88645,71.219825 125.1491,67.821835 123.59728,60.670384 117.92425,54.128443 111.58235,52.177107 104.63064,50.038143 87.43354,48.954295 63.333335,49.136211 31.653543,49.37534 25.852239,47.246492 26.600047,35.656559 26.800782,32.545452 27.047891,27.9 27.149177,25.333333 27.350279,20.237255 27.890901,20.390601 16,22.170887 9.2216786,23.185724 4.0000001,20.837332 4.0000001,16.77402 c 0,-5.553966 5.2444725,-10.2746173 12.2979789,-11.0696497 8.292568,-0.9346926 11.733143,0.095799 16.943,5.0746167 4.277631,4.087934 4.352771,4.356841 3.484064,12.468706 -1.28355,11.985614 -0.930753,12.155756 20.86237,10.06122 23.557267,-2.264086 53.983447,-0.928924 61.056087,2.679266 8.46328,4.317644 12.8995,8.978973 17.46126,18.347308 l 4.38136,8.997846 -0.27926,30 -0.27927,29.999997 3.97959,8.33334 c 2.34022,4.90046 4.8268,8.33333 6.03621,8.33333 3.09108,0 7.38995,4.91705 7.38995,8.45264 0,2.04875 -1.16556,3.65039 -3.39607,4.66667 -4.81885,2.19562 -6.43316,1.95076 -9.57679,-1.45264 z M 34.206651,85.561679 c -3.496317,-3.863387 -2.627394,-7.034483 3.518303,-12.839894 4.599256,-4.344594 7.392523,-5.752392 14.2057,-7.159632 8.346551,-1.723952 8.598803,-1.690198 15.941714,2.133144 5.395362,2.809284 8.309356,5.401674 10.525351,9.363708 l 3.064383,5.478895 -2.73105,2.731049 C 76.223835,87.776167 74.377764,88 56.206652,88 38.724498,88 36.155638,87.715287 34.206651,85.561679 Z"
       id="path348" />
  </g>
</svg>
