<?xml version="1.0" encoding="UTF-8" standalone="no"?>
<!-- Created with Inkscape (http://www.inkscape.org/) -->

<svg
   version="1.1"
   id="svg32"
   width="208"
   height="173.33333"
   viewBox="0 0 208 173.33333"
   xmlns="http://www.w3.org/2000/svg"
   xmlns:svg="http://www.w3.org/2000/svg">
  <defs
     id="defs36" />
  <g
     id="g38">
    <path
       style="fill:#000000;stroke-width:1.33333"
       d="m 78.219959,166.07112 c -4.279023,-1.75942 -10.191666,-4.87018 -13.139207,-6.91283 -5.174621,-3.58601 -5.490271,-3.63865 -9.166475,-1.52881 -4.632732,2.65882 -12.429186,1.05778 -14.59986,-2.99816 -1.393404,-2.6036 1.43802,-14.4945 4.345564,-18.24971 0.806278,-1.04135 0.50039,-3.8938 -0.857896,-8 -2.688604,-8.12787 -4.032118,-17.95546 -3.010906,-22.0243 0.436914,-1.74081 3.012637,-5.38335 5.723828,-8.094541 4.76623,-4.766229 5.245686,-4.929437 14.481245,-4.929437 7.543352,0 10.931028,0.699725 16.111111,3.327753 8.270085,4.195685 11.345685,4.187945 16.37176,-0.04121 C 101.27215,90.903912 108,94.509229 108,103.86543 c 0,2.67614 -0.90057,4.52271 -2.66667,5.4679 -3.64457,1.95052 -3.39774,3.20252 2.03385,10.31605 2.58528,3.38584 5.01256,7.69985 5.39395,9.58668 0.3814,1.88683 1.28975,5.67892 2.01856,8.42686 2.84748,10.73626 -3.80344,23.11894 -15.290317,28.46753 -8.50589,3.96056 -11.51309,3.95217 -21.269414,-0.0593 z M 190.60089,148.99529 C 178.0244,133.94857 176.08436,127.58007 174.64172,96.606417 174.05953,84.106614 172.87159,71.236804 172.00184,68.006837 170.12727,61.045189 163.35553,54.269332 155.42628,51.421182 149.77527,49.391367 113.68543,47.009402 99.523989,47.731576 89.24138,48.255946 78.243827,45.882724 75.158655,42.473647 73.122843,40.224102 72.753989,37.963814 73.071849,29.685987 l 0.386108,-10.055123 -5.062312,1.060808 c -16.56083,3.470325 -24.287521,-2.4683 -15.89941,-12.2200606 2.933838,-3.4107904 3.8546,-3.6664328 12.713892,-3.5299164 8.14091,0.1254466 10.23299,0.6673624 14.170432,3.670595 4.646016,3.543689 5.529064,6.845919 4.693698,17.552473 -0.282536,3.621154 3.614979,7.573124 6.410724,6.500296 4.32018,-1.657808 48.978509,-2.088661 60.848349,-0.587049 12.13087,1.534632 16.50432,3.334048 26.0545,10.719845 3.66412,2.833719 5.45526,5.839857 8,13.426671 3.45362,10.296586 3.53676,12.135951 2.37005,52.442134 -0.34565,11.94096 0.009,15.51007 1.90879,19.20485 1.28333,2.49601 2.33333,5.22424 2.33333,6.06274 0,0.83851 2.42697,3.89443 5.39327,6.79093 4.30033,4.19918 5.31357,6.07783 5,9.2706 -0.31122,3.16875 -1.08875,4.07279 -3.7266,4.33284 -2.50103,0.24659 -4.51499,-1.08512 -8.06578,-5.33333 z M 48.666667,90.666665 C 47.2,90.036417 38.010555,89.478588 28.245679,89.427045 18.480801,89.375502 9.3308009,88.712221 7.9123447,87.953086 5.8966737,86.874332 5.3333333,85.133585 5.3333333,79.983824 c 0,-9.833759 1.5660538,-10.466127 28.5553537,-11.530556 18.775406,-0.740483 22.461856,-1.221501 22.998256,-3.000885 1.623724,-5.386327 2.734816,-6.121313 8.606112,-5.692941 3.212153,0.234361 15.440278,0.55542 27.173612,0.713464 L 114,60.76026 l 8.33667,5.019033 c 7.8238,4.710255 8.80814,4.96758 16.00001,4.182684 5.41573,-0.591054 8.3546,-0.317072 10.02029,0.93417 3.0717,2.307409 4.72008,14.866174 2.32935,17.746833 -2.15432,2.595796 -9.26207,2.60567 -12.95649,0.018 -3.48247,-2.439223 -11.71376,-2.835424 -16.82803,-0.809996 -2.07068,0.82006 -7.36133,1.409718 -11.75701,1.310354 -4.41997,-0.09991 -8.66689,0.494095 -9.501795,1.328999 -1.803806,1.803805 -46.826572,1.95954 -50.976328,0.176328 z"
       id="path209" />
  </g>
</svg>
