<?xml version="1.0" encoding="UTF-8" standalone="no"?>
<!-- Created with Inkscape (http://www.inkscape.org/) -->

<svg
   version="1.1"
   id="svg42"
   width="161.33333"
   height="154.66667"
   viewBox="0 0 161.33333 154.66667"
   xmlns="http://www.w3.org/2000/svg"
   xmlns:svg="http://www.w3.org/2000/svg">
  <defs
     id="defs46" />
  <g
     id="g48">
    <path
       style="fill:#000000;stroke-width:1.33333"
       d="m 122.82979,147.95856 c -3.94361,-0.57314 -8.74361,-2.1802 -10.66666,-3.57124 -1.92306,-1.39104 -5.89647,-3.737 -8.8298,-5.21324 -4.606773,-2.31842 -5.787432,-2.44766 -8.666665,-0.94873 -4.966398,2.58552 -7.501039,2.16292 -10.591439,-1.76588 -3.341702,-4.24829 -2.626041,-11.42789 1.601774,-16.0692 2.572597,-2.82421 2.590208,-3.13414 0.436048,-7.67369 C 79.866876,99.553747 78.793016,85.148615 83.5007,77.673623 c 2.786544,-4.424553 10.323051,-7.006955 20.44917,-7.006955 7.33657,0 10.44452,0.743056 17.17468,4.106159 l 8.21715,4.106157 4.48652,-2.772824 c 11.56444,-7.147209 22.1998,2.051695 14.17178,12.25767 -3.43168,4.36268 -3.3601,5.571629 0.6405,10.816695 6.92703,9.081805 9.42296,24.106105 5.51467,33.195635 -2.65107,6.16562 -11.28464,13.81612 -17.48851,15.49715 -2.93333,0.79484 -5.63333,1.37365 -6,1.28625 -0.36666,-0.0875 -3.89326,-0.62785 -7.83687,-1.201 z M 13.288046,146.66871 C 6.5672089,145.49634 5.3295618,144.39059 5.3626159,139.58798 5.4063919,133.22752 9.5473673,125.5277 17.299866,117.3916 l 6.932061,-7.27507 14.884036,0.33117 c 16.624279,0.36988 17.914368,0.59321 25.78262,4.46326 3.767665,1.85315 6.919268,4.91546 9.757233,9.48079 4.947212,7.9584 6.739056,18.12409 3.646952,20.69031 -2.17683,1.80661 -56.196287,3.12492 -65.014722,1.58665 z M 20.856733,46.62906 C 10.548998,43.54011 8.5797661,33.193313 17.428694,28.617354 c 5.135307,-2.655571 9.698581,-2.450115 15.904871,0.716099 4.947417,2.523984 7.720019,2.660021 51.777991,2.540485 32.813254,-0.08903 47.485824,-0.58988 49.719544,-1.697191 4.20243,-2.083236 5.13759,-9.386099 1.45436,-11.357305 -3.75458,-2.00939 -20.68885,-2.27863 -60.952128,-0.969084 -33.960904,1.104561 -36.356218,1.349645 -42.289007,4.326929 -8.787084,4.40967 -16.011597,4.222894 -19.73465,-0.510203 C 10.106717,17.595183 10.3506,10.411305 13.809208,6.9526965 16.087828,4.6740772 28.381159,4.5282542 34.107117,6.7119239 c 5.50142,2.0980394 65.407486,1.9390099 76.180033,-0.2022312 13.6884,-2.7208202 32.48369,2.210885 36.41397,9.5546793 0.71438,1.334842 1.29888,4.87524 1.29888,7.867554 0,4.302996 -0.92576,6.450752 -4.42758,10.271885 -4.28022,4.670545 -4.84594,4.869239 -16.99999,5.970929 -6.91484,0.626786 -28.951039,1.446282 -48.969336,1.821102 -32.941627,0.616795 -36.892135,0.93414 -41.613547,3.342824 -5.551488,2.832159 -9.005234,3.126664 -15.132814,1.290394 z m 7.122849,-7.629059 c -0.0112,-0.55 -0.586244,-1.894984 -1.277812,-2.988855 -0.950449,-1.503349 -1.633169,-1.61308 -2.79674,-0.449509 -0.84664,0.84664 -1.136213,2.191624 -0.643498,2.988854 1.009417,1.633271 4.749494,1.989606 4.71805,0.44951 z M 25.511071,14.311072 c -1.58967,-1.58967 -6.009118,-0.195617 -4.927586,1.554338 0.413877,0.669668 1.991559,0.893557 3.505959,0.497533 1.833557,-0.479487 2.308506,-1.164992 1.421627,-2.051871 z"
       id="path70" />
  </g>
</svg>
