<?xml version="1.0" encoding="UTF-8" standalone="no"?>
<!-- Created with Inkscape (http://www.inkscape.org/) -->

<svg
   version="1.1"
   id="svg2"
   width="157.33333"
   height="153.33333"
   viewBox="0 0 157.33333 153.33333"
   xmlns="http://www.w3.org/2000/svg"
   xmlns:svg="http://www.w3.org/2000/svg">
  <defs
     id="defs6" />
  <g
     id="g8">
    <path
       style="fill:#000000;stroke-width:1.33333"
       d="M 58.666665,143.9681 C 57.485161,143.17814 46.66461,142.70366 32.226591,142.8087 16.458469,142.92337 7.2818554,142.48185 6.3642319,141.56422 4.2523067,139.4523 3.3720487,120.99802 5.2186536,117.54761 c 1.7660479,-3.29989 6.9792974,-3.85557 9.3518564,-0.99681 0.860034,1.03628 5.176503,4.03628 9.592155,6.66667 6.721878,4.0042 9.260604,4.77735 15.599562,4.75072 9.297931,-0.0391 16.675826,-1.66694 20.601201,-4.54549 1.633447,-1.19784 5.008633,-3.65797 7.500415,-5.46696 6.235634,-4.52697 12.816802,-4.3488 19.540151,0.52899 C 94.187967,123.4065 106.67614,128 113.27281,128 c 5.59703,0 13.25136,-3.11279 22.72719,-9.24247 6.33628,-4.09879 12.50604,-5.17482 14.17622,-2.47238 1.42227,2.30127 0.57438,24.11331 -0.99961,25.71485 -0.81375,0.828 -17.07658,1.37136 -42.91017,1.43365 -22.879874,0.0552 -42.499775,0.49887 -43.599775,0.986 -1.1,0.48712 -2.9,0.28392 -4,-0.45155 z M 68.809272,59.597151 c -4.978215,-4.978215 -5.616011,-9.280628 -2.083975,-14.057963 6.697461,-9.058801 19.941368,-5.67054 19.941368,5.10171 0,5.788033 -3.978624,10.221493 -10.309049,11.487577 -3.357263,0.671453 -4.844214,0.172806 -7.548344,-2.531324 z m -25.731544,0.390053 c -8.464043,-3.409341 -8.943075,-14.165488 -0.8029,-18.028254 4.400156,-2.088011 5.13166,-2.100054 9.217311,-0.151743 2.603785,1.241659 4.772673,3.450319 5.248021,5.344255 0.961259,3.829962 -2.322749,10.841198 -5.99964,12.809011 -2.993725,1.602192 -3.745034,1.604814 -7.662792,0.02673 z M 98.696967,58.73604 c -4.894732,-3.761036 -4.683682,-12.498141 0.407686,-16.877552 7.781557,-6.693414 18.228677,-1.813257 18.228677,8.515152 0,9.658815 -10.70043,14.460248 -18.636363,8.3624 z M 56.731981,30.980629 C 16.525001,30.636993 15.385152,30.553883 12.398648,27.74821 10.159042,25.644209 9.3333331,23.383518 9.3333331,19.355754 9.3333331,12.14761 11.478355,9.4666595 18.509573,7.8868497 21.68239,7.1739649 49.888079,6.5138796 81.188882,6.4199932 127.63761,6.2806709 138.80964,6.5940357 141.9628,8.1246453 c 8.87414,4.3076937 8.37389,17.4773567 -0.78336,20.6225077 -5.94068,2.040388 -30.63177,2.693421 -84.447459,2.233476 z"
       id="path30" />
  </g>
</svg>
