<?xml version="1.0" encoding="UTF-8" standalone="no"?>
<!-- Created with Inkscape (http://www.inkscape.org/) -->

<svg
   version="1.1"
   id="svg2"
   width="161.33333"
   height="160"
   viewBox="0 0 161.33333 160"
   xmlns="http://www.w3.org/2000/svg"
   xmlns:svg="http://www.w3.org/2000/svg">
  <defs
     id="defs6" />
  <g
     id="g8">
    <path
       style="fill:#000000;stroke-width:1.33333"
       d="m 51.333332,149.37547 c -9.745425,-1.55424 -31.72896,-13.60123 -40.999999,-22.46802 -5.0605588,-4.8399 -6.4639877,-9.81445 -3.3333331,-11.81523 0.9166666,-0.58583 31.0666661,-1.1542 66.9999981,-1.26305 74.052052,-0.2243 68.534042,-1.02224 76.542682,11.06859 7.30152,11.02329 5.14566,22.78976 -4.62484,25.242 -5.04444,1.26608 -10.0107,-2.98749 -13.53988,-11.59687 -1.62545,-3.96526 -3.49028,-7.08795 -4.14406,-6.93931 -0.65379,0.14863 -4.84471,2.69863 -9.31317,5.66666 -4.46846,2.96804 -8.46017,5.39643 -8.87047,5.39643 -0.41029,0 -3.28945,1.14892 -6.39813,2.55314 -3.10867,1.40424 -7.752132,2.95931 -10.318799,3.45571 -7.335911,1.4188 -34.639488,1.87383 -41.999999,0.69995 z M 144,133.47599 c 0,-1.38821 -0.9,-2.86938 -2,-3.29149 -2.04198,-0.78358 -2.92151,3.11622 -1.11111,4.92661 1.66024,1.66024 3.11111,0.8977 3.11111,-1.63512 z M 7.4285713,43.238095 C 4.6726171,40.482141 4.7612094,39.302137 8.4974316,29.001421 14.375774,12.794907 17.607286,7.3784989 21.677265,6.9104141 c 2.928658,-0.3368225 4.15012,0.40791 6,3.6582369 2.348769,4.1269 4.814496,5.205065 6.322734,2.764682 1.241808,-2.009288 5.79616,-1.604507 10.019957,0.890551 3.514879,2.076289 3.989992,2.076289 7.158811,0 4.000433,-2.621185 7.415818,-2.807063 12.127996,-0.660052 2.625418,1.196221 3.799849,1.196221 4.99607,0 2.163666,-2.163665 8.374128,-1.961279 10.279869,0.335 1.361851,1.640929 2.220024,1.629696 6.31838,-0.08271 4.154044,-1.73567 5.343637,-1.742474 9.587369,-0.05484 4.288456,1.705424 5.20285,1.687331 7.961779,-0.157542 2.84471,-1.90223 3.48925,-1.883723 7.38062,0.211914 3.78417,2.037912 4.7652,2.085298 8.72264,0.421322 3.42648,-1.440728 5.35401,-1.536983 8.32461,-0.415707 3.4886,1.3168 4.15794,1.092597 6.86187,-2.298448 2.29631,-2.8798476 3.9064,-3.652298 6.8928,-3.3068701 3.53195,0.4085272 4.32205,1.5113878 8.44229,11.7840421 3.76695,9.39182 4.34974,12.13278 3.40196,16 -0.9855,4.021221 -1.6881,4.666667 -5.07992,4.666667 -3.55129,0 -4.08474,-0.586764 -5.45485,-6 -1.52961,-6.04343 -4.03585,-7.318182 -6.34184,-3.225658 -1.30052,2.308087 -6.71741,2.466363 -10.18993,0.29774 -2.07535,-1.296073 -3.44851,-1.112501 -7.33518,0.980607 -3.92054,2.111352 -5.19852,2.276959 -7.09524,0.919431 -4.22656,-3.025063 -5.97721,-3.407187 -8.47192,-1.849215 -3.207619,2.003189 -7.209141,1.961257 -10.526234,-0.110307 -2.108096,-1.316528 -3.189053,-1.316528 -5.297149,0 -3.377948,2.109564 -9.673993,2.131495 -11.764508,0.04097 -1.261887,-1.261887 -2.468689,-1.107662 -5.542998,0.708377 -3.534387,2.087813 -4.394972,2.127147 -8.550623,0.390804 -3.944959,-1.648308 -4.976997,-1.660609 -7.057001,-0.08412 -3.317884,2.514723 -8.384383,2.391629 -11.331307,-0.275301 -2.268883,-2.053311 -2.607758,-2.053311 -4.876642,0 -3.039229,2.750486 -8.694805,2.857758 -10.895012,0.206672 -2.859566,-3.445567 -5.167708,-2.20677 -6.83177,3.666666 -2.432691,8.586371 -7.759867,11.55122 -12.4063247,6.904762 z"
       id="path179" />
  </g>
</svg>
