<?xml version="1.0" encoding="UTF-8" standalone="no"?>
<!-- Created with Inkscape (http://www.inkscape.org/) -->

<svg
   version="1.1"
   id="svg12"
   width="158.66667"
   height="162.66667"
   viewBox="0 0 158.66667 162.66667"
   xmlns="http://www.w3.org/2000/svg"
   xmlns:svg="http://www.w3.org/2000/svg">
  <defs
     id="defs16" />
  <g
     id="g18">
    <path
       style="fill:#000000;stroke-width:1.33333"
       d="m 70.657737,156.65591 c -2.612897,-3.14835 -0.898169,-12.17183 4.586917,-24.13788 4.67968,-10.20902 4.870481,-11.14333 3.4036,-16.66667 -1.115078,-4.19867 -3.583499,-7.82847 -8.739471,-12.85136 -3.952011,-3.849998 -8.020242,-6.999998 -9.040514,-6.999998 -1.08289,0 -2.570518,2.636209 -3.573937,6.333338 -4.115518,15.16373 -13.357814,27.88601 -28.447258,39.15844 -16.380787,12.23712 -16.703318,12.40956 -20.5895722,11.00784 -5.4660228,-1.97152 -4.6078387,-8.11858 2.2823462,-16.34815 6.328619,-7.55884 8.953859,-14.1618 10.889671,-27.38952 2.530804,-17.29338 6.249839,-23.31564 19.00709,-30.778319 l 8.53886,-4.995024 0.779073,-9.292775 c 0.559238,-6.670579 1.926548,-11.497575 4.845599,-17.106351 2.23659,-4.297468 4.066527,-9.276 4.066527,-11.063406 0,-3.632168 -5.309458,-8.827133 -16.859459,-16.495903 -6.059932,-4.023568 -7.206152,-5.401509 -6.87332,-8.262841 0.577533,-4.9650046 6.211528,-5.245568 13.974905,-0.695926 4.347486,2.547796 7.866083,3.557807 12.098459,3.472854 10.742417,-0.215624 17.659415,5.585109 17.659415,14.809538 0,4.179189 -1.052812,6.220677 -5.863594,11.369992 -7.653902,8.1925 -8.650105,14.567699 -2.868357,18.356046 6.101802,3.998054 9.967266,0.324204 12.008437,-11.413167 C 83.496732,37.733099 92.950767,30.646243 112,24.135699 c 6.96667,-2.381031 16.97663,-6.437325 22.24436,-9.013991 15.26411,-7.4663096 19.30603,-3.923495 9.77963,8.572007 -2.94652,3.864878 -5.35732,7.553591 -5.35732,8.197142 0,1.679706 -15.80592,17.820648 -21.33333,21.785521 -2.56667,1.841095 -6.16667,3.764794 -8,4.274886 -7.09888,1.975131 -12.207339,5.04498 -13.644651,8.199535 -1.37183,3.010838 -0.873928,3.935636 5.870001,10.902881 8.90421,9.199056 11.13013,12.410559 18.4457,26.61299 3.11632,6.05 6.12886,11 6.69454,11 0.56567,0 3.85392,2.55 7.30721,5.66667 3.45328,3.11666 9.36461,7.16666 13.13628,9 5.37936,2.61479 6.94585,4.09593 7.26704,6.87108 0.48929,4.2275 -3.785,7.79558 -9.33856,7.79558 -2.69388,0 -4.19666,1.0202 -5.654,3.83843 -2.04779,3.95996 -4.49592,5.49491 -8.76404,5.49491 -4.30688,0 -6.65286,-3.7441 -6.65286,-10.61771 0,-5.75911 -0.63654,-7.1352 -6.12356,-13.23809 -8.4997,-9.45371 -10.90808,-8.96232 -14.07312,2.87141 -1.56815,5.86316 -1.4833,6.44352 1.38911,9.50107 3.81011,4.05566 2.99281,7.20708 -3.30261,12.73453 -5.640955,4.95283 -8.020422,5.09461 -12.557066,0.74823 l -3.479831,-3.33388 -4.518833,3.33388 c -5.172123,3.81588 -8.287167,4.20192 -10.676353,1.32313 z M 91.952755,132.0785 c -0.03028,-1.33226 -0.731377,-0.88174 -1.952753,1.25484 -2.493955,4.36272 -2.464577,6.72636 0.0424,3.41182 1.076679,-1.42349 1.936335,-3.52349 1.910349,-4.66666 z"
       id="path40" />
  </g>
</svg>
