<?xml version="1.0" encoding="UTF-8" standalone="no"?>
<!-- Created with Inkscape (http://www.inkscape.org/) -->

<svg
   version="1.1"
   id="svg2"
   width="161.33333"
   height="157.33333"
   viewBox="0 0 161.33333 157.33333"
   xmlns="http://www.w3.org/2000/svg"
   xmlns:svg="http://www.w3.org/2000/svg">
  <defs
     id="defs6" />
  <g
     id="g8">
    <path
       style="fill:#000000;stroke-width:1.33333"
       d="m 62.524987,149.82929 c -2.317796,-2.79277 -3.163074,-34.78721 -0.988292,-37.40766 1.794549,-2.1623 27.969374,-2.46992 31.884291,-0.37472 2.353251,1.25942 2.579012,2.94772 2.579012,19.28642 0,21.47797 0.722948,20.66667 -18.415752,20.66667 -10.621441,0 -13.615961,-0.43164 -15.059259,-2.17071 z M 51.333332,101.37546 C 41.587907,99.821221 19.604372,87.774238 10.333333,78.907452 5.2727742,74.067553 3.8693453,69.093001 6.9999999,67.092223 7.9166665,66.506387 38.066666,65.938015 73.999998,65.829173 c 74.052052,-0.224301 68.534042,-1.022242 76.542682,11.068588 7.30152,11.023288 5.14566,22.789757 -4.62484,25.241999 -5.04444,1.26608 -10.0107,-2.987502 -13.53988,-11.596873 -1.62545,-3.965256 -3.49028,-7.087946 -4.14406,-6.939311 -0.65379,0.148633 -4.84471,2.698633 -9.31317,5.666666 -4.46846,2.968032 -8.46017,5.396423 -8.87047,5.396423 -0.41029,0 -3.28945,1.148917 -6.39813,2.553148 -3.10867,1.404232 -7.752132,2.959297 -10.318799,3.455707 -7.335911,1.4188 -34.639488,1.87382 -41.999999,0.69994 z M 143.97958,86.333332 c -0.0297,-2.430566 -2.35997,-5.730719 -3.34845,-4.742248 -0.46595,0.465954 -0.17747,2.098578 0.64108,3.628053 1.68256,3.143881 2.73755,3.578056 2.70737,1.114195 z m -138.3795801,-42.6 C 3.4371543,41.570487 3.5804934,35.197287 5.8892543,30.872389 6.9283441,28.925907 9.7171063,22.330441 12.086503,16.215794 14.455901,10.101149 17.207078,4.7864411 18.20023,4.4053327 c 3.49448,-1.3409578 8.410357,0.9069903 9.243615,4.2269493 1.303164,5.192222 3.763576,6.453482 6.560416,3.363009 3.055084,-3.37583 4.76456,-3.3475233 9.214214,0.152576 3.305509,2.600114 3.758911,2.650902 5.951467,0.666666 2.800181,-2.534129 8.495153,-2.795955 12.08269,-0.555501 1.976373,1.234266 3.335728,1.234266 6.044645,0 4.708912,-2.145523 7.370957,-2.004245 10.182773,0.540413 2.160048,1.954816 2.610772,1.954816 5.401663,0 3.841279,-2.690536 8.293909,-2.73266 10.479536,-0.09914 1.455092,1.753278 1.983089,1.77502 3.829925,0.157707 3.862196,-3.3822008 7.890056,-3.8243604 12.113146,-1.329722 3.13136,1.849741 4.35404,2.013347 5.61593,0.751459 1.95149,-1.951492 7.27058,-2.128361 8.41308,-0.279748 1.35445,2.191544 4.54038,1.518236 7.01305,-1.482122 6.89302,-8.3640626 8.41202,-8.4446939 12.95784,-0.6878291 3.36388,5.7400271 11.36244,27.6435761 11.36244,31.1153191 0,0.978158 -1.5,2.461914 -3.33333,3.297236 -5.11936,2.332534 -8.8768,-0.219289 -13.36452,-9.076355 -3.05072,-6.020959 -4.06396,-7.165016 -4.38011,-4.945651 -0.22621,1.587995 -1.28142,3.221164 -2.34491,3.629263 -2.6734,1.02588 -8.04468,-1.205808 -9.0201,-3.747723 -1.12198,-2.923841 -3.55703,-2.635037 -3.55703,0.421876 0,4.777539 -10.84797,5.951161 -13.64276,1.475985 -2.09608,-3.356357 -3.1949,-3.372786 -4.06102,-0.06072 -0.37653,1.439836 -2.338293,3.021784 -4.384015,3.535228 -2.944524,0.73903 -4.269946,0.271862 -6.474038,-2.281882 -2.64309,-3.062387 -2.879599,-3.102627 -5.104829,-0.868562 -3.15969,3.172239 -8.419901,2.954924 -10.80219,-0.44627 l -1.953401,-2.788871 -2.86964,2.86964 c -3.48892,3.48892 -9.149027,3.17408 -11.240286,-0.625232 -0.807298,-1.466667 -1.611858,-2.910709 -1.787909,-3.208983 -0.176052,-0.298273 -1.797402,1.051727 -3.603001,3 -3.937488,4.248619 -7.771484,4.514404 -11.489405,0.796483 l -2.745835,-2.745835 -2.741357,3.485074 c -3.359088,4.27039 -8.232337,4.090669 -8.859709,-0.326736 -0.234338,-1.65 -0.891346,-3 -1.460016,-3 -1.440439,0 -4.532417,3.918806 -6.838089,8.666666 -3.341923,6.881719 -9.2548562,9.487637 -13.0091601,5.733333 z"
       id="path754" />
  </g>
</svg>
