<?xml version="1.0" encoding="UTF-8" standalone="no"?>
<!-- Created with Inkscape (http://www.inkscape.org/) -->

<svg
   version="1.1"
   id="svg12"
   width="153.33333"
   height="152"
   viewBox="0 0 153.33333 152"
   xmlns="http://www.w3.org/2000/svg"
   xmlns:svg="http://www.w3.org/2000/svg">
  <defs
     id="defs16" />
  <g
     id="g18">
    <path
       style="fill:#000000;stroke-width:1.33333"
       d="m 81.944226,144.79076 c -2.348549,-1.71729 -2.530616,-3.38007 -2.15342,-19.66666 0.322139,-13.90933 0.871335,-18.29983 2.517263,-20.1241 2.7999,-3.10327 10.523305,-3.09594 12.186393,0.0116 0.690225,1.2897 1.223445,10.33473 1.184933,20.10007 -0.07651,19.40052 -0.828133,21.555 -7.519796,21.555 -2.007457,0 -4.804375,-0.84416 -6.215373,-1.87591 z m 53.333334,0 c -2.34855,-1.71729 -2.53062,-3.38007 -2.15342,-19.66666 0.32214,-13.90933 0.87134,-18.29983 2.51726,-20.1241 2.7999,-3.10327 10.5233,-3.09594 12.1864,0.0116 0.69022,1.2897 1.22344,10.33473 1.18493,20.10007 -0.0765,19.40052 -0.82813,21.555 -7.5198,21.555 -2.00745,0 -4.80437,-0.84416 -6.21537,-1.87591 z m -28.50468,-0.69689 c -1.44577,-0.91508 -1.97898,-5.318 -2.25394,-18.61193 -0.35806,-17.31122 -0.34004,-17.42912 3.07359,-20.11428 3.85307,-3.03082 10.04843,-3.56025 12.10381,-1.03433 1.91909,2.35843 2.39634,14.36568 1.10828,27.88319 -0.97162,10.19663 -1.43472,11.63952 -3.95259,12.31513 -4.11275,1.10355 -7.90409,0.93888 -10.07915,-0.43778 z M 48.572794,140.79813 C 44.808038,139.88388 38.360359,136.68453 34.022406,133.57819 26.56625,128.23895 25.811689,128 16.407765,128 4.4160824,128 3.9337312,127.25818 7.8522656,114.84224 c 2.0975695,-6.64619 3.9282304,-9.83091 6.9243904,-12.04606 4.964344,-3.670303 7.01851,-3.03574 9.912067,3.06198 1.222971,2.57722 3.068314,5.38691 4.100763,6.24377 1.032449,0.85686 1.87718,2.32026 1.87718,3.25201 0,0.93175 0.9,2.03945 2,2.46156 2.145816,0.82343 2.800103,-1.16363 0.79184,-2.40481 -0.664488,-0.41067 -0.897649,-1.93407 -0.518136,-3.38534 0.859528,-3.28684 -3.864872,-12.657142 -9.188953,-18.225229 -4.805892,-5.02615 -4.249967,-8.784337 1.75907,-11.891732 4.337444,-2.242978 16.704939,-2.892962 18.619348,-0.978553 1.734276,1.734276 1.67018,6.662953 -0.206572,15.884436 -1.601988,7.871408 -1.528729,8.421788 2.16108,16.235798 2.100603,4.4485 4.292587,7.79566 4.871073,7.43814 0.578487,-0.35753 0.450172,-1.77419 -0.285145,-3.14814 -0.735316,-1.37395 -1.345784,-5.68754 -1.356595,-9.58575 -0.01081,-3.89821 -0.804492,-8.587653 -1.763737,-10.420987 -3.650145,-6.976252 2.065409,-11.835296 12.021145,-10.219702 10.503313,1.704453 12.308754,8.46467 5.727013,21.443969 -5.096488,10.05035 -4.44505,14.99023 2.869256,21.75768 8.474488,7.84089 6.441247,12.41996 -5.434021,12.23799 -4.07,-0.0624 -10.442242,-0.85218 -14.160538,-1.75514 z M 10.871233,48.333333 C 6.2345552,44.409916 5.9745343,39.69382 10.123067,34.763568 c 3.344754,-3.975013 4.135071,-4.272828 9.758225,-3.677176 3.365289,0.35648 9.118707,1.342007 12.785374,2.190061 8.566754,1.981383 95.751464,1.973836 99.455704,-0.0087 3.01961,-1.616048 3.27643,-5.096152 0.64054,-8.679671 -1.82501,-2.481108 -3.68652,-2.5751 -45.000003,-2.272153 -35.365252,0.259386 -44.41176,0.707677 -50.429574,2.499049 -4.033334,1.200635 -11.250496,2.452453 -16.03814,2.78182 -7.567539,0.520609 -9.032844,0.236369 -11.215665,-2.17562 C 7.3751624,22.43292 6.9104769,14.252696 9.2827175,11.394321 10.026473,10.498151 13.064435,9.0370448 16.033745,8.1474179 c 5.297583,-1.5871943 12.283128,-0.4226867 16.76679,2.7950651 0.806962,0.579125 23.006961,0.970349 49.333333,0.869387 50.827662,-0.194925 53.951812,0.138281 59.419982,6.337442 5.67747,6.436439 3.45212,17.808751 -4.6486,23.755908 -3.59729,2.640963 -5.86608,2.790533 -51.999993,3.428113 -42.624814,0.589083 -48.735178,0.93821 -52.505711,3 -2.584368,1.413176 -7.126904,2.333334 -11.518954,2.333334 -4.967135,0 -8.120596,-0.73512 -10.009359,-2.333334 z m 13.128766,-7.666666 c 0,-1.111111 -1.185185,-2 -2.666666,-2 -1.481481,0 -2.666667,0.888889 -2.666667,2 0,1.11111 1.185186,2 2.666667,2 1.481481,0 2.666666,-0.88889 2.666666,-2 z m 0,-23.18879 c 0,-1.320724 -6.609353,-3.312969 -7.624178,-2.298142 -0.353568,0.353566 -0.247357,1.282768 0.23602,2.06489 1.060369,1.715714 7.388158,1.91549 7.388158,0.233252 z"
       id="path615" />
  </g>
</svg>
