<?xml version="1.0" encoding="UTF-8" standalone="no"?>
<!-- Created with Inkscape (http://www.inkscape.org/) -->

<svg
   version="1.1"
   id="svg22"
   width="161.33333"
   height="156"
   viewBox="0 0 161.33333 156"
   xmlns="http://www.w3.org/2000/svg"
   xmlns:svg="http://www.w3.org/2000/svg">
  <defs
     id="defs26" />
  <g
     id="g28">
    <path
       style="fill:#000000;stroke-width:1.33333"
       d="m 62.971155,148.16701 c -14.238371,-4.2101 -16.474439,-8.27426 -9.698713,-17.62788 4.521185,-6.24132 8.400043,-18.25657 7.802391,-24.16889 -0.333032,-3.29453 -1.267218,-4.31386 -5.074834,-5.53736 -4.040251,-1.29826 -4.713377,-2.125963 -5.014656,-6.166213 -0.191395,-2.566667 0.113252,-5.366888 0.676991,-6.222716 1.561968,-2.371264 56.767776,-2.85341 59.578956,-0.520338 4.14651,3.441296 0.81102,13.409717 -4.48697,13.409717 -1.33529,0 -3.05443,0.75505 -3.82032,1.67788 -2.00838,2.41995 1.67653,17.30451 6.49256,26.22557 5.68789,10.53607 5.2981,12.67373 -3.09323,16.9633 -6.02826,3.08159 -8.943484,3.63811 -20.999998,4.00893 -10.720046,0.32972 -15.959112,-0.14869 -22.362177,-2.042 z M 7.9898369,44.376144 C 2.134377,40.27482 6.1453291,35.337563 16.266602,34.187909 c 3.886702,-0.441482 10.966731,-0.2985 15.733397,0.317738 4.766667,0.616237 9.866667,0.642596 11.333333,0.05857 l 2.666667,-1.061857 -2.666667,-0.214676 c -1.466666,-0.118067 -5.484035,-0.400527 -8.927486,-0.627678 -3.443452,-0.22715 -6.893452,-0.803988 -7.666667,-1.281861 -1.704246,-1.053283 -1.872085,-6.93262 -0.226933,-7.94938 0.648403,-0.400735 7.362103,-0.139468 14.919332,0.580592 11.739265,1.118528 14.237633,1.783875 17.154419,4.568443 l 3.414002,3.259245 20.666666,-1.20816 c 11.366666,-0.664488 26.970625,-1.227824 34.675465,-1.251857 14.54209,-0.04536 22.36967,-1.452644 24.21037,-4.35267 0.59034,-0.930065 1.08252,-5.021028 1.09375,-9.091028 0.026,-9.4119491 3.48755,-13.0113075 9.09367,-9.4556206 5.24485,3.3265512 6.76854,34.8940116 1.78069,36.8918266 C 150.95944,44.395374 136.6236,44.31632 97.999998,43.063369 65.216804,41.999884 60.075903,42.143041 55.066432,44.258935 49.3772,46.661945 11.38831,46.756528 7.9898369,44.376144 Z"
       id="path476" />
  </g>
</svg>
