<?xml version="1.0" encoding="UTF-8" standalone="no"?>
<!-- Created with Inkscape (http://www.inkscape.org/) -->

<svg
   version="1.1"
   id="svg2"
   width="86.666664"
   height="157.33333"
   viewBox="0 0 86.666664 157.33333"
   xmlns="http://www.w3.org/2000/svg"
   xmlns:svg="http://www.w3.org/2000/svg">
  <defs
     id="defs6" />
  <g
     id="g8">
    <path
       style="fill:#000000;stroke-width:1.33333"
       d="m 61.999998,152.08265 c -8.60818,-1.47989 -15.477955,-4.32812 -23.857817,-9.89151 -7.783901,-5.16772 -7.948778,-5.2091 -17.527298,-4.39942 -7.648874,0.64657 -10.011914,0.40476 -11.3081858,-1.15715 -3.4552527,-4.16332 3.0504738,-20.60261 9.7706448,-24.68939 5.165864,-3.14155 7.771025,-1.83273 11.440664,5.74773 1.527772,3.15595 4.28622,7.78269 6.129881,10.28163 l 3.352112,4.54354 v -4.18035 c 0,-2.2992 -0.6,-4.55117 -1.333334,-5.0044 -0.733333,-0.45322 -1.333333,-2.61843 -1.333333,-4.81157 0,-5.09832 -3.260165,-11.53932 -8.155857,-16.11327 -4.612378,-4.309251 -4.732248,-5.477216 -0.926061,-9.023219 4.422278,-4.119978 14.317453,-3.750665 19.646285,0.733252 4.834103,4.06763 5.064678,6.286477 1.295726,12.468897 -2.489901,4.08432 -2.621312,5.18102 -1.198225,10 C 49.889677,123.00266 54.70593,132 56.24552,132 c 1.689933,0 1.287241,-6.67408 -0.912188,-15.11826 -2.5393,-9.74903 -2.544402,-16.10341 -0.01462,-18.202946 3.990417,-3.311751 18.014615,1.559476 18.014615,6.257276 0,2.56494 -2.175459,9.80499 -4.863893,16.18732 -2.490584,5.91262 -1.095841,12.96227 3.728809,18.84706 4.037351,4.92451 4.826121,9.13851 2.201751,11.76288 -1.719706,1.71971 -4.047447,1.78528 -12.4,0.34932 z M 6.6366071,44.76994 C 2.5335506,40.666883 7.7558007,24.435843 15.542337,17.090445 22.60357,10.429257 34.185419,5.3333332 42.263516,5.3333332 c 17.090873,0 29.413668,7.2304468 35.690927,20.9417838 4.207917,9.191302 4.454413,16.411747 0.641564,18.792911 C 75.245396,47.160519 8.7517396,46.885072 6.6366071,44.76994 Z"
       id="path477" />
  </g>
</svg>
