<?xml version="1.0" encoding="UTF-8" standalone="no"?>
<!-- Created with Inkscape (http://www.inkscape.org/) -->

<svg
   version="1.1"
   id="svg42"
   width="161.33333"
   height="156"
   viewBox="0 0 161.33333 156"
   xmlns="http://www.w3.org/2000/svg"
   xmlns:svg="http://www.w3.org/2000/svg">
  <defs
     id="defs46" />
  <g
     id="g48">
    <path
       style="fill:#000000;stroke-width:1.33333"
       d="m 6.9333332,149.06667 c -2.3100436,-2.31004 -1.9679268,-5.65374 0.8383209,-8.19335 1.9433546,-1.75872 5.6649239,-2.25783 18.3333329,-2.45876 8.742256,-0.13867 12.53176,-0.46603 8.42112,-0.72745 -6.335496,-0.40295 -7.742858,-0.97791 -9.239725,-3.77484 -2.84964,-5.3246 -0.458435,-6.31077 13.790884,-5.68755 10.898089,0.47664 13.346854,1.03492 17.975706,4.09815 5.244995,3.47097 5.623672,3.52101 17.819617,2.35493 6.853408,-0.65528 23.756144,-1.8621 37.561631,-2.68183 13.80549,-0.81974 25.83664,-1.77276 26.7359,-2.11784 0.89925,-0.34507 2.20385,-2.55882 2.8991,-4.91943 1.05156,-3.57039 2.00735,-4.36337 5.68454,-4.71634 7.0754,-0.67915 8.24624,1.28624 8.24624,13.84221 0,6.75246 -0.58456,11.45267 -1.49428,12.01491 -1.82644,1.12879 -58.784978,1.55536 -79.57751,0.59596 -12.581243,-0.58052 -15.77599,-0.31911 -19.333332,1.582 -3.495514,1.86807 -8.108291,2.28749 -25.661545,2.33333 -14.933233,0.039 -21.8834965,-0.4276 -22.9999998,-1.5441 z M 29.848197,35.666667 C 26.881703,29.876955 25.888778,29.377553 17.296674,29.353751 10.296884,29.334359 3.9999999,26.808289 3.9999999,24.019633 c 0,-3.181373 4.5634022,-5.352966 11.2487601,-5.352966 7.83016,0 14.084573,-3.574632 14.084573,-8.049862 0,-1.3876399 1.201228,-3.165859 2.669394,-3.9515981 2.283546,-1.2221162 3.500744,-0.5732201 8.420867,4.4892151 3.210757,3.303626 7.814006,6.487323 10.420474,7.207003 4.83952,1.336256 39.002971,-0.850993 60.618622,-3.880992 12.42832,-1.742154 29.46081,-0.96508 37.20397,1.697359 4.83307,1.661824 5.33334,2.264011 5.33334,6.419955 0,3.765424 -0.77494,5.038706 -4.33044,7.115228 -5.73594,3.349972 -29.98095,3.686813 -55.002895,0.764168 -23.205202,-2.710446 -47.65835,-1.751764 -51.83133,2.032036 -1.521992,1.380048 -3.123008,3.630048 -3.557813,5 -1.342181,4.228836 -6.872189,3.14826 -9.429325,-1.842512 z"
       id="path219" />
  </g>
</svg>
