<?xml version="1.0" encoding="UTF-8" standalone="no"?>
<!-- Created with Inkscape (http://www.inkscape.org/) -->

<svg
   version="1.1"
   id="svg52"
   width="86.666664"
   height="165.33333"
   viewBox="0 0 86.666664 165.33333"
   xmlns="http://www.w3.org/2000/svg"
   xmlns:svg="http://www.w3.org/2000/svg">
  <defs
     id="defs56" />
  <g
     id="g58">
    <path
       style="fill:#000000;stroke-width:1.33333"
       d="m 8.0364582,155.37726 c -2.7162786,-3.27292 -0.9110948,-13.51841 3.4833918,-19.77032 9.693231,-13.79027 24.486,-18.98649 42.586975,-14.9594 12.085497,2.68876 19.199211,8.20677 24.089374,18.68579 3.752902,8.04201 3.932954,11.87084 0.709797,15.094 -2.201261,2.20127 -5.534725,2.45472 -35.791349,2.72136 -28.741877,0.25329 -33.6014922,0.008 -35.0781888,-1.77143 z M 22.971155,68.167016 C 8.7327845,63.956907 6.4967167,59.892744 13.272442,50.539127 17.793627,44.297812 21.672486,32.282561 21.074834,26.370243 20.741802,23.07571 19.807615,22.056378 16,20.832876 11.959749,19.53462 11.286622,18.706917 10.985344,14.666666 10.79395,12.1 11.098595,9.2997778 11.662334,8.443951 13.224302,6.0726863 68.430111,5.5905411 71.24129,7.9236125 75.387799,11.36491 72.052306,21.333333 66.754319,21.333333 c -1.33529,0 -3.054433,0.755045 -3.820317,1.677877 -2.00838,2.419951 1.676532,17.304511 6.492559,26.225565 5.687894,10.536073 5.298095,12.673736 -3.09323,16.963301 -6.028257,3.081587 -8.943485,3.638109 -20.999999,4.008932 C 34.613287,70.538727 29.37422,70.060323 22.971155,68.167016 Z"
       id="path80" />
  </g>
</svg>
