<?xml version="1.0" encoding="UTF-8" standalone="no"?>
<!-- Created with Inkscape (http://www.inkscape.org/) -->

<svg
   version="1.1"
   id="svg12"
   width="81.333336"
   height="160"
   viewBox="0 0 81.333336 160"
   xmlns="http://www.w3.org/2000/svg"
   xmlns:svg="http://www.w3.org/2000/svg">
  <defs
     id="defs16" />
  <g
     id="g18">
    <path
       style="fill:#000000;stroke-width:1.33333"
       d="m 28.416749,153.61912 c -2.975836,-1.89221 -4.416752,-8.4564 -4.398846,-20.03925 C 24.050571,112.44852 19.457299,56.504273 16.889669,46.76078 15.722002,42.329788 14.224411,40.200009 10.892902,38.232556 2.6836005,33.384479 2.5134755,24 10.634889,24 16.019006,24 16.40665,22.539849 12.485581,17.028941 9.6801351,13.085998 9.3548354,11.784513 10.59539,9.4665153 12.797914,5.3510621 15.815209,6.0255848 21.204814,11.838276 l 4.795187,5.171608 4.645864,-2.504941 c 4.944831,-2.666138 15.313873,-3.394137 16.68747,-1.17161 1.682701,2.722668 6.431027,1.18056 12.316454,-3.9999997 6.490981,-5.7135901 9.676692,-6.55473 12.399528,-3.2739126 1.443095,1.7388233 0.949599,2.8372894 -3.170073,7.0562163 -2.683583,2.748239 -4.879242,5.421499 -4.879242,5.94058 0,0.51908 2.37889,0.943783 5.286422,0.943783 3.686097,0 5.667482,0.712019 6.545196,2.352041 1.728561,3.229846 -1.342095,10.162252 -5.793087,13.078655 -8.407239,5.508635 -10.221472,18.140909 -10.605192,73.842594 l -0.288918,41.93995 -3.905544,1.66657 c -4.25316,1.81491 -24.263141,2.36646 -26.82213,0.73931 z"
       id="path338" />
  </g>
</svg>
