<?xml version="1.0" encoding="UTF-8" standalone="no"?>
<!-- Created with Inkscape (http://www.inkscape.org/) -->

<svg
   version="1.1"
   id="svg22"
   width="165.33333"
   height="154.66667"
   viewBox="0 0 165.33333 154.66667"
   xmlns="http://www.w3.org/2000/svg"
   xmlns:svg="http://www.w3.org/2000/svg">
  <defs
     id="defs26" />
  <g
     id="g28">
    <path
       style="fill:#000000;stroke-width:1.33333"
       d="m 144.66666,147.3447 c -0.73333,-0.24463 -3.00194,-0.81336 -5.04136,-1.26386 -7.88182,-1.74104 -11.70759,-15.55982 -6.2342,-22.51811 2.91415,-3.70473 9.8231,-5.71702 15.09006,-4.3951 4.94994,1.24236 11.51884,8.74244 11.51884,13.1517 0,9.28563 -8.26394,17.38359 -15.33334,15.02537 z m -62.666662,-1.33334 c -0.733333,-0.24462 -3.001945,-0.81336 -5.041358,-1.26385 -7.881825,-1.74104 -11.707592,-15.55983 -6.2342,-22.51812 2.91414,-3.70473 9.823092,-5.71701 15.09005,-4.39509 4.949942,1.24236 11.518841,8.74243 11.518841,13.1517 0,9.28563 -8.263935,17.38359 -15.333333,15.02536 z m -70.333361,-2.11817 c -3.358065,-1.95589 -6.3333038,-8.36701 -6.3333038,-13.64716 0,-6.01617 4.2681159,-11.25869 10.0490108,-12.34319 6.135313,-1.15099 10.165397,0.009 14.259626,4.10277 6.38442,6.38442 5.515856,16.88977 -1.735777,20.99439 -4.538277,2.56879 -12.601321,3.01227 -16.239556,0.89319 z M 47.96994,96.769943 c -4.103057,-4.103057 1.119194,-20.334097 8.90573,-27.679496 7.061233,-6.661188 18.643082,-11.757112 26.721179,-11.757112 17.090871,0 29.413671,7.230446 35.690931,20.941784 4.20791,9.191303 4.45441,16.411748 0.64156,18.792912 -3.35061,2.092491 -69.844268,1.817044 -71.9594,-0.298088 z M 71.470636,31.103509 C 69.084703,28.530387 66.9395,27.579674 63.750011,27.681875 61.320837,27.759715 48.66698,27.923031 35.630329,28.044803 10.505398,28.279487 7.9999998,27.740747 7.9999998,22.103407 7.9999998,16.331511 9.7051523,16 39.393349,16 c 25.619936,0 28.394767,-0.222564 30.399999,-2.438321 1.213659,-1.341076 2.206651,-3.129645 2.206651,-3.9745969 0,-2.3154629 6.393782,-3.4734085 8.683981,-1.5727121 1.090477,0.9050155 1.985665,2.622016 1.989308,3.815557 0.0047,1.53182 0.900318,1.053268 3.045205,-1.627085 C 89.571286,5.3882053 94.546045,5.7378573 97.060263,11 c 1.6338,3.419468 2.308823,3.665778 10.012487,3.653482 4.54332,-0.0073 16.96058,-0.638744 27.59391,-1.403316 L 154,11.860035 l 3,3.477668 c 3.68058,4.266621 3.7183,5.277329 0.32357,8.67206 -2.50079,2.500788 -4.36416,2.671152 -28.39406,2.59602 -26.56762,-0.08306 -30.643772,0.538379 -34.583129,5.27249 -3.279279,3.940865 -5.754487,3.409728 -8.753123,-1.878272 -0.831693,-1.466667 -1.530416,-1.959524 -1.552714,-1.095239 -0.06291,2.438135 -3.955794,5.761905 -6.748492,5.761905 -1.384608,0 -4.004245,-1.603421 -5.821416,-3.563158 z"
       id="path199" />
  </g>
</svg>
