<?xml version="1.0" encoding="UTF-8" standalone="no"?>
<!-- Created with Inkscape (http://www.inkscape.org/) -->

<svg
   version="1.1"
   id="svg32"
   width="168"
   height="158.66667"
   viewBox="0 0 168 158.66667"
   xmlns="http://www.w3.org/2000/svg"
   xmlns:svg="http://www.w3.org/2000/svg">
  <defs
     id="defs36" />
  <g
     id="g38">
    <path
       style="fill:#000000;stroke-width:1.33333"
       d="m 20.304489,149.50035 c -14.2383709,-4.21011 -16.4744387,-8.27427 -9.698713,-17.62789 4.521185,-6.24131 8.400044,-18.25656 7.802392,-24.16888 -0.333032,-3.29453 -1.267219,-4.31387 -5.074835,-5.53737 -4.0402503,-1.29825 -4.7133777,-2.12596 -5.0146557,-6.166208 -0.1913941,-2.566667 0.1132516,-5.366888 0.6769904,-6.222716 1.5619683,-2.371264 56.7677793,-2.85341 59.5789573,-0.520337 4.14651,3.441296 0.811016,13.409721 -4.48697,13.409721 -1.335291,0 -3.054434,0.75504 -3.820318,1.67788 -2.00838,2.41995 1.676532,17.30451 6.492559,26.22556 5.687895,10.53608 5.298096,12.67373 -3.093229,16.96331 -6.028258,3.08158 -8.943486,3.6381 -21,4.00893 -10.720046,0.32972 -15.959112,-0.14869 -22.362178,-2.042 z m 93.329541,-6.98339 c -5.99156,-2.21641 -2.9667,-11.20275 5.98026,-17.76627 5.63594,-4.13454 7.34264,-4.68846 14.53571,-4.71763 7.09428,-0.0288 8.80912,0.49076 13.23851,4.01078 5.75198,4.57111 7.87037,7.31363 8.92985,11.56086 1.46159,5.85912 -1.03683,6.7382 -21.01765,7.39516 -10.28462,0.33814 -20.03462,0.1208 -21.66668,-0.4829 z M 10.540879,46.256388 c -2.4735307,-5.42881 1.00403,-9.685413 8.877385,-10.866095 3.92228,-0.588183 6.770841,-0.401187 7.675919,0.50389 0.791532,0.791532 5.66915,1.36901 10.83915,1.28328 l 9.4,-0.15587 L 40,35.855077 c -13.060119,-2.07748 -13.333333,-2.210026 -13.333333,-6.468456 0,-2.14275 0.552604,-4.237436 1.228008,-4.654859 0.675405,-0.417423 7.309178,-0.360428 14.74172,0.126653 12.214442,0.80046 13.980432,1.25651 18.368081,4.743375 4.312149,3.426865 5.606903,3.77842 11.591613,3.147388 21.461722,-2.262936 37.895381,-3.488811 51.927271,-3.873531 18.18875,-0.49869 18.58344,-0.732168 20.06048,-11.866656 1.13239,-8.536295 2.53627,-10.3423242 8.03944,-10.3423242 7.73607,0 8.75527,2.6648965 7.80448,20.4063742 -0.46372,8.652789 -1.48833,16.147307 -2.29964,16.820633 -1.92901,1.600942 -42.10493,2.013912 -71.485455,0.734806 -20.204854,-0.879638 -23.917573,-0.727172 -27.508249,1.129638 -3.029915,1.56683 -9.937895,2.39393 -25.579319,3.062638 l -21.428404,0.916116 z"
       id="path60" />
  </g>
</svg>
