<?xml version="1.0" encoding="UTF-8" standalone="no"?>
<!-- Created with Inkscape (http://www.inkscape.org/) -->

<svg
   version="1.1"
   id="svg2"
   width="50.666668"
   height="153.33333"
   viewBox="0 0 50.666668 153.33333"
   xmlns="http://www.w3.org/2000/svg"
   xmlns:svg="http://www.w3.org/2000/svg">
  <defs
     id="defs6" />
  <g
     id="g8">
    <path
       style="fill:#000000;stroke-width:1.33333"
       d="m 9.322911,145.3229 c -4.1808189,-4.18081 -2.3722723,-16.19135 3.528321,-23.43154 8.000255,-9.81652 24.552097,-15.9547 29.548769,-10.95803 4.29258,4.29258 -1.802528,21.79526 -9.816864,28.19005 C 28.996297,141.98538 15.359878,148 12.457933,148 12.20607,148 10.79531,146.7953 9.322911,145.3229 Z M 7.9895777,94.656242 C 3.8087588,90.475423 5.6173053,78.464885 11.517899,71.224698 19.518154,61.408173 36.069996,55.269993 41.066668,60.266665 c 4.29258,4.29258 -1.802528,21.795259 -9.816865,28.190048 -3.58684,2.862006 -17.223259,8.876618 -20.125203,8.876618 -0.251863,0 -1.6626232,-1.20469 -3.1350223,-2.677089 z M 9.322911,45.32291 C 5.1420921,41.142091 6.9506387,29.131553 12.851232,21.891366 20.851487,12.074841 37.403329,5.9366612 42.400001,10.933333 c 4.29258,4.29258 -1.802528,21.795258 -9.816864,28.190047 -3.58684,2.862007 -17.223259,8.876619 -20.125204,8.876619 -0.251863,0 -1.662623,-1.204691 -3.135022,-2.677089 z"
       id="path642" />
  </g>
</svg>
