<?xml version="1.0" encoding="UTF-8" standalone="no"?>
<!-- Created with Inkscape (http://www.inkscape.org/) -->

<svg
   version="1.1"
   id="svg12"
   width="164"
   height="156"
   viewBox="0 0 164 156"
   xmlns="http://www.w3.org/2000/svg"
   xmlns:svg="http://www.w3.org/2000/svg">
  <defs
     id="defs16" />
  <g
     id="g18">
    <path
       style="fill:#000000;stroke-width:1.33333"
       d="m 13.967681,147.47208 c -7.5723025,-3.29925 -9.8269637,-15.02381 -4.0813219,-21.22346 8.6230609,-9.30443 23.4469739,-3.96518 23.4469739,8.4451 0,6.86632 -1.680065,10.06095 -6.639978,12.62581 -4.704048,2.43256 -7.418008,2.4651 -12.725674,0.15255 z m 62.666667,0 C 69.062045,144.17283 66.807384,132.44827 72.553025,126.24862 81.176087,116.94419 96,122.28344 96,134.69372 c 0,6.86632 -1.680065,10.06095 -6.639979,12.62581 -4.704048,2.43256 -7.418008,2.4651 -12.725673,0.15255 z m 58.001612,-2.16743 c -3.89757,-3.64088 -4.23994,-4.5714 -3.55666,-9.66666 0.54951,-4.09782 1.92646,-6.68384 5.04047,-9.46644 3.8701,-3.45821 4.92959,-3.75204 10.95558,-3.03836 4.28626,0.50765 7.83464,1.87628 9.9258,3.82846 2.81994,2.63251 3.17141,3.91835 2.63133,9.62656 -0.83953,8.87308 -5.16345,12.74512 -14.23249,12.74512 -5.33788,0 -7.19564,-0.6953 -10.76403,-4.02868 z m 8.52369,-95.478362 c -6.07337,-9.149921 -13.43498,-16.492955 -16.53469,-16.492955 -1.26461,0 -4.49239,0.916334 -7.17284,2.036295 C 100.54537,43.269373 64.377669,42.790179 48.303159,34.426957 45.719651,33.082815 44.016732,33.47564 36.750583,37.091879 21.451219,44.706113 6.5763544,41.981767 4.5527084,31.194807 2.5889643,20.727151 8.4788741,14.5213 21.254417,13.5972 c 5.586355,-0.40408 9.991015,0.1559 14.784468,1.879601 l 6.827551,2.455154 12.900116,-4.33097 C 71.674451,8.2602085 78.677031,6.7412312 87.583929,6.6992613 95.813067,6.6604853 110.20643,9.8210851 118.97116,13.5915 c 7.86931,3.385223 11.93979,2.485375 15.60836,-3.450485 3.05077,-4.9362559 8.56187,-7.1801246 11.54801,-4.7018347 2.56967,2.1326328 2.34624,5.5932827 -0.60566,9.3810077 -1.36299,1.748897 -3.47071,5.114939 -4.68383,7.480093 l -2.20567,4.300282 6.82108,7.532073 c 7.78179,8.592928 10.96359,15.074812 9.75792,19.878592 -0.59122,2.355624 -1.74076,3.322105 -3.9513,3.322105 -2.30866,0 -4.41038,-1.947761 -8.10042,-7.507045 z M 27.167233,30.021655 C 30.670697,27.368681 28.983273,24 24.150896,24 18.192408,24 16,25.293599 16,28.809319 c 0,2.719552 0.639851,3.18442 4.333333,3.148277 2.383334,-0.02332 5.458588,-0.894496 6.8339,-1.935941 z M 101.50628,29.124153 C 107.35777,27.520529 112,25.523287 112,24.609408 c 0,-0.901393 -2.25,-2.754727 -5,-4.118517 -6.42604,-3.18683 -20.841471,-3.238855 -31.398387,-0.113319 -4.252446,1.259003 -8.82898,2.289095 -10.170073,2.289095 -1.341095,0 -3.140956,0.846584 -3.999692,1.881296 -2.045695,2.464913 -0.567665,3.354914 9.076819,5.465646 11.414482,2.498103 19.481318,2.26663 30.997613,-0.889456 z"
       id="path487" />
  </g>
</svg>
