<?xml version="1.0" encoding="UTF-8" standalone="no"?>
<!-- Created with Inkscape (http://www.inkscape.org/) -->

<svg
   version="1.1"
   id="svg22"
   width="160"
   height="161.33333"
   viewBox="0 0 160 161.33333"
   xmlns="http://www.w3.org/2000/svg"
   xmlns:svg="http://www.w3.org/2000/svg">
  <defs
     id="defs26" />
  <g
     id="g28">
    <path
       style="fill:#000000;stroke-width:1.33333"
       d="m 62.713579,153.42098 c -0.759135,-1.41845 -1.380246,-4.05444 -1.380246,-5.85776 0,-6.05278 -7.855828,-34.45892 -11.948366,-43.20448 -4.355718,-9.307951 -4.97556,-12.963678 -2.461492,-14.517458 1.809393,-1.118266 65.664945,-0.710109 68.659115,0.438861 4.39343,1.685919 4.49263,6.663851 0.33948,17.035847 -4.65886,11.63496 -10.58874,34.09917 -10.58874,40.11345 0,7.5768 -2.67358,8.57056 -23.058073,8.57056 -16.610842,0 -18.300665,-0.22279 -19.561678,-2.57902 z M 144.49299,48.492954 C 138.41961,39.343033 131.058,31.999999 127.9583,31.999999 c -1.26462,0 -4.4924,0.916334 -7.17284,2.036295 -18.90675,7.899745 -55.074457,7.42055 -71.148968,-0.942671 C 47.052984,31.749481 45.350065,32.142306 38.083916,35.758545 22.784552,43.372779 7.9096877,40.648432 5.8860417,29.861473 3.9222976,19.393817 9.8122075,13.187966 22.587751,12.263867 c 5.586354,-0.404081 9.991014,0.155899 14.784468,1.879601 l 6.82755,2.455153 12.900116,-4.33097 C 73.007784,6.9268751 80.010364,5.4078978 88.917263,5.3659279 97.1464,5.3271519 111.53976,8.4877516 120.30449,12.258166 c 7.86931,3.385223 11.93979,2.485375 15.60836,-3.4504844 3.05078,-4.9362559 8.56187,-7.1801246 11.54802,-4.7018348 2.56966,2.1326328 2.34624,5.5932825 -0.60567,9.3810072 -1.36299,1.748898 -3.47071,5.114939 -4.68383,7.480094 l -2.20566,4.300281 6.82108,7.532073 c 7.78178,8.592928 10.96358,15.074812 9.75792,19.878592 -0.59123,2.355624 -1.74076,3.322105 -3.95131,3.322105 -2.30865,0 -4.41037,-1.947761 -8.10041,-7.507045 z M 28.500567,28.688321 c 3.503464,-2.652974 1.81604,-6.021655 -3.016338,-6.021655 -5.958488,0 -8.150896,1.293599 -8.150896,4.809319 0,2.719552 0.639851,3.18442 4.333334,3.148277 2.383333,-0.02332 5.458588,-0.894496 6.8339,-1.935941 z m 74.339043,-0.897502 c 5.85149,-1.603624 10.49372,-3.600866 10.49372,-4.514745 0,-0.901393 -2.25,-2.754726 -5,-4.118517 -6.42604,-3.186829 -20.841467,-3.238855 -31.398383,-0.113319 -4.252447,1.259003 -8.82898,2.289095 -10.170074,2.289095 -1.341094,0 -3.140956,0.846584 -3.999692,1.881296 -2.045694,2.464913 -0.567665,3.354914 9.076819,5.465646 11.414483,2.498103 19.481319,2.26663 30.99761,-0.889456 z"
       id="path348" />
  </g>
</svg>
