<?xml version="1.0" encoding="UTF-8" standalone="no"?>
<!-- Created with Inkscape (http://www.inkscape.org/) -->

<svg
   version="1.1"
   id="svg32"
   width="166.66667"
   height="160"
   viewBox="0 0 166.66667 160"
   xmlns="http://www.w3.org/2000/svg"
   xmlns:svg="http://www.w3.org/2000/svg">
  <defs
     id="defs36" />
  <g
     id="g38">
    <path
       style="fill:#000000;stroke-width:1.33333"
       d="m 79.787426,152.87431 c -6.653527,-2.95678 -9.122153,-6.23367 -9.101102,-12.08096 0.02967,-8.24234 2.402904,-11.6743 9.936788,-14.36972 5.39228,-1.92922 7.506168,-2.09246 11.520638,-0.8897 11.17983,3.34956 10.10198,19.21763 -1.798228,26.47327 -4.918943,2.99912 -5.629242,3.05745 -10.558096,0.86711 z m -65.819744,-2.73556 c -7.5723033,-3.29926 -9.8269646,-15.02382 -4.0813227,-21.22346 8.6230607,-9.30444 23.4469747,-3.96518 23.4469747,8.4451 0,6.86632 -1.680065,10.06094 -6.639979,12.62581 -4.704048,2.43256 -7.418008,2.46509 -12.725673,0.15255 z M 135.9693,147.97132 c -3.89758,-3.64088 -4.23994,-4.5714 -3.55667,-9.66667 0.54952,-4.09781 1.92647,-6.68383 5.04048,-9.46644 3.87009,-3.45821 4.92959,-3.75204 10.95557,-3.03835 4.28627,0.50765 7.83464,1.87628 9.9258,3.82845 2.81995,2.63252 3.17142,3.91836 2.63134,9.62657 C 160.12628,148.12796 155.80236,152 146.73332,152 c -5.33788,0 -7.19564,-0.69531 -10.76402,-4.02868 z M 49.303276,46.103275 C 45.200218,42.000217 50.422469,25.769177 58.209005,18.423779 65.270239,11.76259 76.852088,6.6666667 84.930186,6.6666667 c 17.090874,0 29.413674,7.2304463 35.690924,20.9417843 4.20792,9.191302 4.45442,16.411748 0.64157,18.792912 -3.35061,2.09249 -69.844272,1.817044 -71.959404,-0.298088 z"
       id="path209" />
  </g>
</svg>
