<?xml version="1.0" encoding="UTF-8" standalone="no"?>
<!-- Created with Inkscape (http://www.inkscape.org/) -->

<svg
   version="1.1"
   id="svg42"
   width="162.66667"
   height="160"
   viewBox="0 0 162.66667 160"
   xmlns="http://www.w3.org/2000/svg"
   xmlns:svg="http://www.w3.org/2000/svg">
  <defs
     id="defs46" />
  <g
     id="g48">
    <path
       style="fill:#000000;stroke-width:1.33333"
       d="m 62.71358,150.75432 c -0.759135,-1.41845 -1.380245,-4.05444 -1.380245,-5.85776 0,-6.05279 -7.855829,-34.45893 -11.948367,-43.20448 -4.355718,-9.307956 -4.97556,-12.963683 -2.461492,-14.517463 1.809393,-1.118266 65.664944,-0.710109 68.659114,0.438862 4.39343,1.685918 4.49263,6.66385 0.33948,17.035851 -4.65886,11.63496 -10.58873,34.09916 -10.58873,40.11344 0,7.5768 -2.67358,8.57056 -23.058081,8.57056 -16.610843,0 -18.300666,-0.22278 -19.561679,-2.57901 z M 8.8497018,30.358488 C 6.1159424,26.774344 5.3333334,24.239908 5.3333334,18.970919 c 0,-9.1979155 3.7403884,-12.3042523 14.8157416,-12.3042523 6.853586,0 8.053915,0.4036221 9.990648,3.3594503 1.574692,2.403286 2.004347,5.105898 1.509572,9.495524 -0.897625,7.963704 -6.329832,13.709628 -13.9241,14.728234 -4.912384,0.658889 -5.652252,0.3345 -8.8754932,-3.891387 z m 66.4513142,2.446921 c -7.572303,-3.299246 -9.826964,-15.023804 -4.081323,-21.223454 8.623062,-9.3044365 23.446976,-3.9651827 23.446976,8.445094 0,6.866328 -1.680066,10.060946 -6.639979,12.625818 -4.704048,2.432557 -7.418008,2.465089 -12.725674,0.152542 z m 62.666664,0 c -7.5723,-3.299246 -9.82696,-15.023804 -4.08132,-21.223454 8.62306,-9.3044365 23.44698,-3.9651827 23.44698,8.445094 0,6.866328 -1.68007,10.060946 -6.63998,12.625818 -4.70405,2.432557 -7.41801,2.465089 -12.72568,0.152542 z"
       id="path70" />
  </g>
</svg>
