<?xml version="1.0" encoding="UTF-8" standalone="no"?>
<!-- Created with Inkscape (http://www.inkscape.org/) -->

<svg
   version="1.1"
   id="svg2"
   width="165.33333"
   height="156"
   viewBox="0 0 165.33333 156"
   xmlns="http://www.w3.org/2000/svg"
   xmlns:svg="http://www.w3.org/2000/svg">
  <defs
     id="defs6" />
  <g
     id="g8">
    <path
       style="fill:#000000;stroke-width:1.33333"
       d="m 72.790903,147.35364 c -1.09858,-4.37709 -4.092395,-4.92821 -20.124237,-3.70461 -7.333334,0.5597 -20.226747,0.71764 -28.652029,0.35097 -17.369591,-0.75592 -18.5250616,-1.62329 -13.339599,-10.01355 2.919387,-4.72366 7.133944,-6.14472 8.404464,-2.83379 0.95033,2.47651 20.082396,3.68918 38.907019,2.46607 14.277267,-0.92764 14.69816,-1.04613 16.406088,-4.61873 2.173116,-4.54567 5.923045,-4.72624 8.240099,-0.39678 l 1.749989,3.26988 2.572091,-3.26988 c 3.349946,-4.25877 5.813649,-4.13668 8.007089,0.39678 l 1.774054,3.66667 20.632029,-0.36468 c 11.34762,-0.20056 23.70556,-0.68418 27.46209,-1.0747 7.98619,-0.83023 11.57148,1.5603 10.909,7.27367 L 155.33333,142 l -16.66667,0.99503 c -9.16666,0.54726 -22.77153,0.64261 -30.23304,0.21186 l -13.566386,-0.78317 -0.433619,3.78815 c -0.50459,4.40817 -4.88745,5.81049 -8.104774,2.59317 -1.736557,-1.73656 -2.336152,-1.75167 -4.499527,-0.11333 -4.02531,3.04833 -8.088471,2.44682 -9.038411,-1.33803 z M 46.636607,95.436608 C 42.53355,91.333551 47.7558,75.102511 55.542336,67.757112 62.603569,61.095924 74.185419,56 82.263516,56 c 17.090873,0 29.413664,7.230447 35.690924,20.941784 4.20792,9.191303 4.45442,16.411748 0.64157,18.792912 -3.35061,2.092491 -69.844271,1.817044 -71.959403,-0.298088 z M 8.7422718,43.703325 C 6.076384,39.897237 6.0876729,39.769155 9.8106998,31.581231 11.539918,27.77822 13.774798,22.266667 14.777098,19.333333 17.526842,11.285939 19.751508,8.3583748 23.68898,7.6056792 26.515403,7.065374 28.167082,7.88456 31.608519,11.533547 c 4.329155,4.590241 4.360558,4.599142 7.128255,2.02064 3.197974,-2.979367 7.365125,-2.422338 9.686524,1.29481 2.032002,3.253755 3.079122,3.140071 7.81986,-0.848997 5.011197,-4.2166443 6.887319,-4.1923181 9.716783,0.125987 l 2.266635,3.459322 3.306237,-3.106048 3.306236,-3.106047 5.375471,3.093727 5.37547,3.09373 2.590278,-2.780338 c 3.185289,-3.419005 3.137863,-3.419244 8.741757,0.04415 l 4.570115,2.824488 3.00653,-2.824488 c 3.65267,-3.431491 5.26316,-3.507657 10.3853,-0.491147 3.7734,2.222223 4.02445,2.222223 5.27197,0 1.73305,-3.087108 5.38677,-2.954254 9.17783,0.333719 l 3.07514,2.667052 4.92406,-5.333718 c 5.58845,-6.0533864 7.08212,-6.4366316 10.32501,-2.6492073 2.47771,2.8937463 9.5497,22.0593383 10.5986,28.7229443 0.7926,5.035265 -2.13998,7.912206 -6.85816,6.728022 -2.4354,-0.611245 -3.67017,-2.193049 -4.70138,-6.022672 -0.76919,-2.856537 -2.54611,-6.600502 -3.94872,-8.319922 -2.37064,-2.90609 -2.61719,-2.954063 -3.5014,-0.68131 -1.48026,3.804799 -6.02599,4.903787 -10.21094,2.468624 -3.42362,-1.992153 -3.80874,-1.945373 -6.7526,0.820247 -3.96819,3.727919 -5.33679,3.682835 -9.65377,-0.318017 -3.23353,-2.996734 -7.29628,-3.360538 -7.29628,-0.653355 0,0.629073 -1.20607,1.78924 -2.68016,2.578149 -2.22322,1.18983 -3.249352,0.820214 -6.018689,-2.16795 l -3.338526,-3.60233 -3.067246,2.88153 c -3.820135,3.588828 -7.761145,3.678148 -10.866936,0.246289 -2.368007,-2.616617 -2.412587,-2.611907 -6.30895,0.666667 -4.851518,4.082282 -5.22683,4.082172 -8.778483,-0.0026 -2.949499,-3.392222 -6.941008,-3.341382 -6.941008,0.08841 0,3.325297 -6.507992,3.829988 -9.777702,0.758255 -2.944292,-2.766019 -2.988728,-2.767356 -6.891176,-0.207387 -3.894021,2.554443 -3.967464,2.553167 -8.546291,-0.148407 l -4.618516,-2.724992 -2.386842,3.102642 c -1.312764,1.706452 -2.400184,3.879913 -2.416491,4.829913 -0.04613,2.687284 -6.275704,8.272727 -9.226769,8.272727 -1.458418,0 -3.5856903,-1.333504 -4.7272732,-2.963342 z"
       id="path30" />
  </g>
</svg>
