<?xml version="1.0" encoding="UTF-8" standalone="no"?>
<!-- Created with Inkscape (http://www.inkscape.org/) -->

<svg
   version="1.1"
   id="svg2"
   width="141.33333"
   height="148"
   viewBox="0 0 141.33333 148"
   xmlns="http://www.w3.org/2000/svg"
   xmlns:svg="http://www.w3.org/2000/svg">
  <defs
     id="defs6" />
  <g
     id="g8">
    <path
       style="fill:#000000;stroke-width:1.33333"
       d="m 119.8486,140.73749 c -0.39359,-0.3936 -5.49277,-1.54961 -11.3315,-2.56892 -13.718894,-2.395 -26.365927,-8.67899 -51.590432,-25.634 -3.381099,-2.27265 -7.822776,-6.10287 -9.870394,-8.51158 -2.047618,-2.40872 -7.468259,-8.649273 -12.045869,-13.867903 -8.427778,-9.607952 -9.634274,-12.331219 -6.743739,-15.221754 3.014573,-3.014573 6.176648,-1.59487 10.95939,4.920528 5.30589,7.228067 21.941725,21.479469 25.073245,21.479469 2.832572,0 14.367364,-12.692685 14.367364,-15.809599 0,-2.26392 -8.653485,-14.001584 -21.904929,-29.712039 -2.252289,-2.670236 -5.529695,-6.566213 -7.283124,-8.657727 -1.75343,-2.091512 -4.575137,-6.00003 -6.27046,-8.685597 -3.773765,-5.978029 -16.162938,-18.896923 -20.068146,-20.926191 -3.052632,-1.586242 -4.5415,-0.594304 -6.236118,4.154731 -1.166799,3.269861 -4.466373,4.263811 -8.3222479,2.506956 C 4.0522779,22.140149 3.9574944,13.254627 8.4172693,8.7948517 12.551069,4.6610521 22.513303,3.1373059 27.595525,5.8614945 33.603651,9.0819907 59.102681,35.763375 62.630605,42.521103 64.97948,47.020367 79.005451,64 80.373179,64 c 2.990843,0 6.49296,-3.230556 8.36326,-7.714756 2.419851,-5.801793 9.283931,-13.364768 13.689421,-15.083265 6.80282,-2.653648 13.32793,2.28507 11.68223,8.842037 -0.61771,2.461157 -1.83037,3.217227 -5.68178,3.542479 -4.28615,0.361964 -5.28966,1.161368 -8.05106,6.413505 -1.735028,3.3 -4.929123,8.214665 -7.097987,10.921479 -3.745193,4.674122 -3.624617,7.239788 0.269079,5.72556 0.982844,-0.38222 4.154342,-4.434167 7.047768,-9.004326 7.25641,-11.461445 9.037,-12.976046 15.2549,-12.976046 5.95219,0 9.48432,2.66722 9.48432,7.161905 0,4.083728 -2.44565,6.167641 -7.26667,6.191845 -5.19507,0.02608 -6.05289,0.713482 -9.9579,7.979583 -1.77352,3.3 -4.32352,7.430915 -5.66667,9.179812 -1.34315,1.748896 -2.442092,3.766552 -2.442092,4.483681 0,0.717128 2.733432,4.986212 6.074302,9.486855 7.9765,10.745522 8.80812,11.753612 19.59091,23.748182 7.50075,8.34368 9.11851,10.92722 8.76648,13.99999 -0.40297,3.51747 -0.87861,3.79431 -7.14958,4.16137 -3.69483,0.21628 -7.03991,0.0712 -7.43351,-0.3224 z M 111.96766,125 c -0.0715,-3.68572 -21.235606,-29 -24.245567,-29 -2.708835,0 -7.910583,5.12587 -11.077401,10.91582 -1.858616,3.39814 -1.771242,3.71525 1.697929,6.16234 8.27099,5.83421 25.210329,13.11128 31.324039,13.45668 1.28334,0.0725 2.31879,-0.61817 2.301,-1.53484 z"
       id="path30" />
  </g>
</svg>
