<?xml version="1.0" encoding="UTF-8" standalone="no"?>
<!-- Created with Inkscape (http://www.inkscape.org/) -->

<svg
   version="1.1"
   id="svg2"
   width="90.666664"
   height="148"
   viewBox="0 0 90.666664 148"
   xmlns="http://www.w3.org/2000/svg"
   xmlns:svg="http://www.w3.org/2000/svg">
  <defs
     id="defs6" />
  <g
     id="g8">
    <path
       style="fill:#000000;stroke-width:1.33333"
       d="m 9.5354756,140.15315 c -3.1361698,-1.98748 -1.0174981,-6.06316 4.4823824,-8.62274 9.811507,-4.56617 12.216167,-8.07713 18.676637,-27.26912 4.968744,-14.760553 8.452893,-17.001195 21.012847,-13.513285 5.75798,1.598998 11.737624,8.840352 18.099621,21.918665 2.140397,4.4 5.759448,9.76225 8.042333,11.91612 3.009387,2.83931 4.150702,5.1213 4.150702,8.29909 0,5.81949 -4.338483,7.92472 -16.91754,8.20917 -10.830632,0.24491 -14.178396,-1.63942 -13.488181,-7.59201 0.333492,-2.87611 1.236521,-3.61773 5.072388,-4.16571 7.362922,-1.05184 6.908514,-5.02454 -1.585893,-13.86479 -4.420875,-4.60086 -7.686249,-6.99707 -8.689841,-6.37682 -2.38951,1.4768 -12.03106,19.55029 -13.102667,24.56149 -0.511238,2.39074 -1.533709,5.09679 -2.272154,6.01346 -1.545298,1.91824 -20.598457,2.313 -23.4806344,0.48648 z M 35.097323,46.689832 C 33.500851,46.030623 31.018887,42.833268 29.581846,39.584601 28.144806,36.335933 24.873921,30.402723 22.31321,26.399689 16.471306,17.267321 15.326464,13.751463 17.386434,11.26935 19.327927,8.9299937 26.534865,8.7939759 29.411176,11.042405 30.553991,11.935749 34.12337,17.316667 37.343128,23 c 3.219759,5.683333 6.288197,10.333333 6.818752,10.333333 0.530556,0 1.678067,2.161683 2.550024,4.80374 1.281973,3.884419 1.237971,5.143468 -0.229931,6.578927 -2.521765,2.466029 -7.924238,3.402692 -11.38465,1.973832 z m 25.333333,0 C 58.834184,46.030623 56.35222,42.833268 54.915178,39.584601 53.478138,36.335933 50.207253,30.402723 47.646543,26.399689 41.804639,17.267321 40.659796,13.751463 42.719767,11.26935 44.66126,8.9299937 51.868197,8.7939759 54.744509,11.042405 55.887324,11.935749 59.456702,17.316667 62.676461,23 c 3.219758,5.683333 6.288197,10.333333 6.818752,10.333333 0.530556,0 1.678066,2.161683 2.550024,4.80374 1.281973,3.884419 1.23797,5.143468 -0.229931,6.578927 -2.521765,2.466029 -7.924239,3.402692 -11.38465,1.973832 z"
       id="path924" />
  </g>
</svg>
