<?xml version="1.0" encoding="UTF-8" standalone="no"?>
<!-- Created with Inkscape (http://www.inkscape.org/) -->

<svg
   version="1.1"
   id="svg12"
   width="88"
   height="158.66667"
   viewBox="0 0 88 158.66667"
   xmlns="http://www.w3.org/2000/svg"
   xmlns:svg="http://www.w3.org/2000/svg">
  <defs
     id="defs16" />
  <g
     id="g18">
    <path
       style="fill:#000000;stroke-width:1.33333"
       d="M 34.624629,152.12703 C 28.644317,150.2243 25.1832,147.43358 23.305072,143 c -1.619653,-3.8234 -2.441292,-4.33333 -6.982197,-4.33333 -2.830591,0 -6.311207,-0.86613 -7.7347022,-1.92472 -2.4009585,-1.78551 -2.4404951,-2.1954 -0.5465776,-5.66667 1.4824397,-2.71709 3.2379618,-3.85794 6.4097848,-4.16546 8.258303,-0.80067 6.461759,-8.24315 -1.989819,-8.24315 -5.0143681,0 -6.5614747,-2.09752 -5.2884007,-7.16985 0.6869981,-2.73722 1.7665881,-3.24454 8.0055237,-3.76192 5.894756,-0.48884 7.837599,-1.31042 10.640908,-4.4998 4.988255,-5.675219 4.491875,-8.005857 -2.152925,-10.108574 -4.649812,-1.471412 -5.742363,-2.451039 -6.088502,-5.459211 -0.61223,-5.3207 3.400822,-6.33398 25.085451,-6.33398 17.319005,0 18.543619,0.168885 19.336384,2.666667 1.489616,4.693367 -0.530497,7.860549 -5.943315,9.318069 -6.423544,1.729682 -7.286542,3.911666 -3.617808,9.147189 3.044823,4.34516 8.246387,6.86808 14.160087,6.86808 3.807024,0 6.734369,2.14445 6.734369,4.93333 0,3.07789 -5.223782,7.06667 -9.254644,7.06667 -2.156721,0 -4.308374,0.62628 -4.781453,1.39174 -1.468408,2.37593 2.158463,5.27492 6.599357,5.27492 4.680222,0 7.43674,2.0152 7.43674,5.43675 0,3.55889 -3.830333,5.80305 -11.168077,6.54329 -5.799173,0.58503 -7.067365,1.23286 -8.57038,4.37798 -3.125875,6.54104 -11.740833,10.06918 -18.970247,7.76901 z M 10.703125,42.04393 C 7.9868464,38.771015 9.7920303,28.525527 14.186517,22.273618 23.879748,8.4833372 38.672517,3.2871213 56.773493,7.314206 c 12.085498,2.688768 19.199212,8.206778 24.089375,18.685795 3.752903,8.042012 3.932955,11.870844 0.709797,15.094001 -2.201261,2.201262 -5.534725,2.454719 -35.79135,2.721358 -28.741878,0.253289 -33.601493,0.0079 -35.07819,-1.77143 z"
       id="path785" />
  </g>
</svg>
