<?xml version="1.0" encoding="UTF-8" standalone="no"?>
<!-- Created with Inkscape (http://www.inkscape.org/) -->

<svg
   version="1.1"
   id="svg22"
   width="157.33333"
   height="157.33333"
   viewBox="0 0 157.33333 157.33333"
   xmlns="http://www.w3.org/2000/svg"
   xmlns:svg="http://www.w3.org/2000/svg">
  <defs
     id="defs26" />
  <g
     id="g28">
    <path
       style="fill:#000000;stroke-width:1.33333"
       d="m 38.868809,149.48648 c -3.136171,-1.98748 -1.017499,-6.06316 4.482382,-8.62275 9.811507,-4.56616 12.216166,-8.07712 18.676637,-27.26911 4.968744,-14.760551 8.452893,-17.001194 21.012848,-13.51328 5.757979,1.59899 11.737623,8.84035 18.099624,21.91866 2.14039,4.4 5.75944,9.76225 8.04233,11.91612 3.00939,2.8393 4.1507,5.1213 4.1507,8.29909 0,5.81949 -4.33848,7.92472 -16.917539,8.20917 -10.830631,0.24491 -14.178395,-1.63942 -13.488181,-7.59201 0.333492,-2.87611 1.236522,-3.61772 5.072388,-4.16571 7.362923,-1.05184 6.908515,-5.02454 -1.585893,-13.86479 -4.420875,-4.60086 -7.686249,-6.99707 -8.689841,-6.37682 -2.38951,1.4768 -12.03106,19.55028 -13.102667,24.56149 -0.511238,2.39074 -1.533709,5.09679 -2.272154,6.01346 -1.545298,1.91824 -20.598457,2.313 -23.480634,0.48648 z M 61.86234,85.918432 C 61.053295,85.546152 52.353295,84.10662 42.529007,82.719472 13.578713,78.631812 5.9999999,75.700756 5.9999999,68.591931 c 0,-3.501112 0.6483441,-4.116486 6.0000001,-5.694886 3.3,-0.973292 7.2,-2.257098 8.666666,-2.852906 5.716228,-2.322115 17.476875,-4.04748 38.102035,-5.589824 25.525203,-1.908767 48.319069,-0.258857 70.564629,5.107746 19.3,4.656006 22.66667,6.184552 22.66667,10.291212 0,1.827475 -0.57718,3.679395 -1.28262,4.115379 -1.67401,1.034597 -19.56847,5.978725 -24.71738,6.829258 -2.2,0.363412 -8.8,1.50294 -14.66667,2.532286 -10.95248,1.921682 -46.839263,3.799217 -49.47099,2.588236 z m 49.30521,-13.380027 c 5.04215,-0.47872 10.61194,-1.619761 12.37732,-2.535648 3.02243,-1.568056 2.79864,-1.711797 -3.83422,-2.462776 -3.87419,-0.43864 -10.64399,-1.405536 -15.04399,-2.148657 -14.180933,-2.395035 -46.630208,-1.877089 -58.622466,0.935716 -13.859727,3.250821 -11.745137,4.556025 10.622471,6.556589 16.963104,1.517185 36.166072,1.395548 54.500885,-0.345224 z M 89.064629,49.383862 c -2.573475,-2.083874 -2.817137,-2.991054 -1.677182,-6.244306 1.264354,-3.608258 1.794427,-3.826593 10.191595,-4.197858 5.507468,-0.243503 9.438488,-1.091231 10.392918,-2.241244 0.84427,-1.017285 1.86804,-5.076113 2.27505,-9.019619 0.90426,-8.761449 -1.58956,-12.329967 -7.68158,-10.991934 -2.07423,0.455577 -14.214745,0.998845 -26.978917,1.20726 -12.764172,0.208415 -23.892845,0.802449 -24.730383,1.320077 -0.86337,0.533592 -1.522798,4.351046 -1.522798,8.815539 0,9.184706 1.527074,10.634889 11.198767,10.634889 7.189342,0 9.632841,2.817098 7.012288,8.084437 -1.521832,3.058895 -2.362746,3.271072 -14.379059,3.628084 C 36.104959,50.88606 36.575453,51.570574 36.999079,26.859179 37.181907,16.194309 37.781907,7.0214612 38.332413,6.4750737 39.202467,5.6115284 81.965021,4.8615746 110.23809,5.2140186 c 13.62252,0.1698144 13.89384,0.5796722 13.62901,20.5886274 -0.23,17.378206 -1.04691,21.335644 -4.80328,23.269009 -1.31844,0.678587 -7.93016,1.575004 -14.69272,1.99204 -10.639393,0.656113 -12.70113,0.429844 -15.306471,-1.679833 z"
       id="path646" />
  </g>
</svg>
