<?xml version="1.0" encoding="UTF-8" standalone="no"?>
<!-- Created with Inkscape (http://www.inkscape.org/) -->

<svg
   version="1.1"
   id="svg32"
   width="161.33333"
   height="154.66667"
   viewBox="0 0 161.33333 154.66667"
   xmlns="http://www.w3.org/2000/svg"
   xmlns:svg="http://www.w3.org/2000/svg">
  <defs
     id="defs36" />
  <g
     id="g38">
    <path
       style="fill:#000000;stroke-width:1.33333"
       d="m 73.034964,149.76404 c -3.583819,-0.42406 -5.741857,-1.67845 -7.75746,-4.5091 -2.362983,-3.31851 -3.690999,-3.9216 -8.635377,-3.9216 -4.032027,0 -6.222697,-0.67856 -7.068192,-2.18938 -1.944519,-3.47466 -0.194676,-7.292 4.187161,-9.13442 l 4.040503,-1.69891 -4.072559,-2.106 c -2.239906,-1.1583 -4.431657,-3.0418 -4.870557,-4.18556 -1.062139,-2.76788 3.661655,-7.3524 7.575764,-7.3524 1.705502,0 4.555502,-1.55701 6.333333,-3.46002 1.777831,-1.90301 4.882419,-4.31842 6.899085,-5.36757 5.42946,-2.82464 4.808605,-6.752482 -1.333333,-8.435339 -2.75,-0.753486 -6.5,-1.527571 -8.333333,-1.72019 -4.304208,-0.452221 -5.327103,-5.546149 -1.522571,-7.582272 2.390317,-1.27926 20.358918,-2.024558 38.551155,-1.599018 6.101577,0.142724 7.226527,0.598837 8.529367,3.458256 2.21704,4.865884 -0.3858,7.160504 -8.666507,7.640237 -5.748237,0.333017 -6.955716,0.848008 -7.278881,3.104446 -0.538012,3.75656 10.675448,11.74747 17.720768,12.62814 5.07937,0.63492 5.33333,0.88889 5.33333,5.33333 0,3.56064 -0.71101,4.97861 -3,5.98284 -4.04097,1.77287 -3.7753,2.8621 0.92749,3.80266 2.16012,0.43202 4.58338,2.01103 5.38502,3.50892 1.20562,2.25273 0.88297,3.29798 -1.86688,6.04783 -1.93056,1.93056 -4.86056,3.32442 -6.98821,3.32442 -2.31651,0 -5.28412,1.57048 -8.070087,4.27074 -3.917855,3.79734 -5.328994,4.29718 -12.730144,4.50911 -4.578117,0.13107 -10.558116,-0.026 -13.288885,-0.34915 z M 131.33333,47.536065 C 109.36767,46.104468 74.624921,45.864572 58.802029,47.035242 45.5406,48.0164 42.719126,46.938373 35.042161,37.957093 l -5.224778,-6.112468 -8.628914,1.58994 C 13.690381,34.816141 11.998685,34.734467 8.2797769,32.811346 2.4253709,29.783914 2.3416208,24.157818 8.0840606,19.663683 11.436038,17.040367 12.00979,15.836583 11.284842,12.948159 10.799038,11.012563 9.2612107,9.0669597 7.8674478,8.6245965 6.4736848,8.1822332 5.3333332,6.6607323 5.3333332,5.2434832 c 0,-1.9333387 0.9322811,-2.5768165 3.7333333,-2.5768165 2.0533335,0 4.4370575,0.7037246 5.2971655,1.5638325 1.196221,1.1962211 2.370652,1.1962211 4.99607,0 10.333176,-4.70810977 18.494121,1.9403113 8.498695,6.9235718 -5.471647,2.727912 -4.497443,5.310429 3.478982,9.222435 4.080167,2.001101 7.786327,4.68502 8.23591,5.964264 0.449582,1.279244 2.341722,3.975897 4.204755,5.992564 4.105815,4.4444 11.897483,4.990755 17.349261,1.216537 10.499244,-7.268534 30.152494,-7.151978 59.504165,0.352898 10.74052,2.746222 21.87373,4.763899 26.28642,4.763899 6.10083,0 7.92445,0.503945 8.98333,2.48248 1.46258,2.73284 -0.37481,6.048756 -3.90142,7.040864 -1.1,0.309452 -10.4,0.01517 -20.66667,-0.653947 z"
       id="path507" />
  </g>
</svg>
