<?xml version="1.0" encoding="UTF-8" standalone="no"?>
<!-- Created with Inkscape (http://www.inkscape.org/) -->

<svg
   version="1.1"
   id="svg42"
   width="165.33333"
   height="165.33333"
   viewBox="0 0 165.33333 165.33333"
   xmlns="http://www.w3.org/2000/svg"
   xmlns:svg="http://www.w3.org/2000/svg">
  <defs
     id="defs46" />
  <g
     id="g48">
    <path
       style="fill:#000000;stroke-width:1.33333"
       d="m 9.7551698,157.84277 c -0.4912397,-1.28015 0.033919,-4.76847 1.1670182,-7.75183 1.1331,-2.98334 3.411794,-9.32428 5.063765,-14.09094 4.187348,-12.08235 4.52756,-12.61584 8.3379,-13.07467 2.521704,-0.30366 4.135878,0.64198 6.311685,3.69762 2.74888,3.86044 3.298396,4.05589 9.201807,3.27277 4.863723,-0.64519 6.677622,-0.35174 8.050423,1.30238 2.219291,2.67408 4.631895,2.72222 6.778898,0.13523 2.190525,-2.63942 7.851347,-2.54783 10.860847,0.17573 2.223331,2.01208 2.653911,2.01208 5.724744,0 4.401509,-2.88398 7.304343,-2.74397 10.778543,0.51987 l 2.869337,2.6956 3.426903,-2.6956 c 4.227283,-3.32518 4.377998,-3.32457 9.098745,0.0369 l 3.837445,2.7325 3.9032,-2.88577 c 3.8181,-2.82284 3.99212,-2.83324 7.98101,-0.47694 3.8339,2.26473 4.22689,2.27391 6.57017,0.15326 2.93966,-2.66035 5.55723,-2.83254 10.28854,-0.67681 3.08629,1.40621 3.82762,1.18763 6.78337,-2 3.51876,-3.79482 8.63244,-4.68509 10.94002,-1.90462 0.76418,0.92077 1.83255,3.47077 2.37418,5.66667 0.54162,2.1959 1.73872,5.19254 2.66021,6.65921 0.92149,1.46666 2.57936,5.76656 3.68415,9.55533 1.60269,5.4962 1.67794,7.34103 0.37228,9.12663 -2.9174,3.98978 -7.82928,1.96128 -11.1383,-4.5999 -4.16553,-8.25953 -4.71581,-8.55594 -9.01902,-4.85829 l -3.81551,3.27856 -3.62959,-2.58451 c -4.55642,-3.24445 -5.35843,-3.22734 -9.02927,0.19258 l -2.98083,2.77705 -4.57375,-3.48857 -4.57375,-3.48856 -2.93728,3.37817 c -1.61551,1.858 -3.27909,3.37744 -3.69684,3.37655 -0.41776,-9e-4 -2.525185,-1.52007 -4.683178,-3.37594 l -3.923621,-3.37429 -3.130337,3.37592 c -3.775928,4.07218 -4.578683,4.14623 -7.689086,0.70927 -3.067534,-3.38959 -7.57913,-3.41169 -10.619585,-0.052 -2.347369,2.59381 -2.406848,2.59127 -7.465946,-0.32039 l -5.099727,-2.93502 -3.828376,3.66781 -3.828376,3.66781 -3.144746,-3.34742 c -3.924618,-4.17756 -5.423399,-4.19012 -9.286692,-0.0779 l -3.07162,3.26959 -4.530423,-3.45552 c -5.083402,-3.8773 -5.38689,-3.74346 -9.118423,4.02137 -2.22323,4.62624 -3.403102,5.63203 -7.015251,5.98013 -3.158744,0.30442 -4.585975,-0.21598 -5.2356632,-1.90905 z M 123.8189,84.081304 c -2.66627,-0.519951 -7.99464,-3.450952 -11.84084,-6.513335 -7.70323,-6.133406 -8.92799,-6.480946 -12.723222,-3.610374 -1.423496,1.076677 -4.494228,1.976677 -6.823851,1.999999 -8.026078,0.08035 -9.747203,-10.526109 -2.927947,-18.04353 3.235947,-3.567249 3.148293,-5.99104 -0.436375,-12.066601 -2.382273,-4.037652 -2.933333,-7.034346 -2.933333,-15.951616 0,-12.355015 0.797718,-13.949431 9.097715,-18.183774 7.511423,-3.8320434 16.702133,-3.5747648 27.540233,0.770943 10.42682,4.180798 11.5601,4.241422 15.89538,0.850317 6.10458,-4.7750664 14.66667,-2.343969 14.66667,4.164415 0,1.452332 -1.27307,4.859474 -2.82903,7.571427 l -2.82904,4.930824 4.66916,8 c 6.47003,11.085563 8.16556,19.7987 5.56003,28.572457 -4.47587,15.071906 -16.06233,21.023564 -34.08555,17.508848 z M 37.333333,73.076881 C 26.321882,68.896279 19.862805,63.980479 13.143372,54.666666 5.8660644,44.57958 4.8902616,35.175167 10.044359,24.799562 14.673837,15.480054 15.844421,14.147116 22.284728,10.861517 29.50065,7.180228 38.718147,7.1415825 46.195422,10.761269 c 7.743664,3.748644 11.13791,9.563937 11.13791,19.082356 0,6.713396 -0.494362,8.068312 -4.564214,12.509287 -4.240535,4.627226 -5.099291,4.98042 -12.109372,4.98042 -6.836851,0 -7.910392,-0.408769 -11.435785,-4.354369 -5.868567,-6.568066 -4.925028,-13.550448 2.35505,-17.42784 4.000375,-2.130611 7.110587,-1.943671 9.916963,0.596064 2.179524,1.972443 2.202716,2.406491 0.284974,5.333334 -1.974225,3.013048 -1.934437,3.186145 0.732371,3.186145 2.442496,0 2.820013,-0.782887 2.820013,-5.848079 0,-5.37205 -0.379597,-6.028207 -4.663435,-8.061022 -6.300543,-2.989803 -13.028664,-1.634053 -17.344476,3.494996 -6.143219,7.300801 -6.026045,15.032045 0.367953,24.278066 4.191196,6.060668 17.28716,12.802705 24.86841,12.802705 7.472748,0 11.451581,7.827971 6.333227,12.460016 -3.213524,2.9082 -8.592541,2.68875 -17.561678,-0.716467 z"
       id="path368" />
  </g>
</svg>
