<?xml version="1.0" encoding="UTF-8" standalone="no"?>
<!-- Created with Inkscape (http://www.inkscape.org/) -->

<svg
   version="1.1"
   id="svg52"
   width="164"
   height="156"
   viewBox="0 0 164 156"
   xmlns="http://www.w3.org/2000/svg"
   xmlns:svg="http://www.w3.org/2000/svg">
  <defs
     id="defs56" />
  <g
     id="g58">
    <path
       style="fill:#000000;stroke-width:1.33333"
       d="m 6.162884,147.82793 c -1.7839295,-2.54692 -1.7240876,-3.50912 0.5821271,-9.36002 3.6880429,-9.35664 8.7597559,-19.0718 10.8176449,-20.72181 4.247851,-3.40593 7.664973,-3.30635 11.300633,0.32931 3.332156,3.33216 3.80798,3.44376 7.022199,1.64709 C 39.351089,117.7853 44,117.91857 44,119.95511 c 0,2.56912 4.441351,2.46508 8.029972,-0.1881 3.674237,-2.71648 4.163451,-2.7622 9.043488,-0.84527 4.367428,1.71557 5.538448,1.74919 7.631005,0.21908 3.408034,-2.49202 5.50083,-2.26886 8.697071,0.92738 2.691916,2.69192 7.931797,2.58751 7.931797,-0.15805 0,-1.64161 7.513176,-1.59785 10.614315,0.0618 1.771825,0.94825 2.886689,0.76588 4.075602,-0.66667 2.29526,-2.76562 7.01384,-2.45323 10.65584,0.70546 2.65322,2.30112 3.38465,2.41928 5.20402,0.84065 3.48166,-3.02098 5.91661,-3.27992 9.80287,-1.04247 3.54825,2.04285 3.81181,1.98643 7.05396,-1.51007 5.73919,-6.18947 10.29569,-4.19643 14.66958,6.41658 1.19785,2.90649 2.95649,7.08453 3.90811,9.28453 3.08078,7.12236 3.36336,8.81522 1.92125,11.50983 -2.23175,4.17007 -7.77609,2.75944 -10.70437,-2.72345 -3.68862,-6.90652 -4.63124,-7.48852 -8.83167,-5.45287 -4.27409,2.07135 -6.84022,1.86283 -9.81975,-0.79797 -1.8445,-1.64718 -2.42874,-1.5459 -4.53999,0.787 -3.09157,3.41616 -7.05875,3.40944 -10.70723,-0.0181 l -2.86934,-2.6956 -3.4269,2.6956 c -4.142143,3.2582 -6.12469,3.36446 -10.151397,0.54404 -2.845518,-1.99308 -3.404012,-1.97264 -7.582114,0.27742 -4.447915,2.39536 -4.553698,2.38822 -7.64416,-0.51511 -3.313675,-3.11303 -6.295292,-3.86029 -6.295292,-1.57774 0,0.75148 -1.614054,1.98 -3.586784,2.73003 -2.944244,1.1194 -4.278487,0.85229 -7.448002,-1.49103 l -3.861217,-2.85472 -3.304857,3.10475 -3.304858,3.10476 -5.087572,-2.92804 c -5.047173,-2.90479 -5.106361,-2.90727 -7.453792,-0.31339 -3.048182,3.3682 -7.522594,3.34407 -9.643488,-0.052 -2.548361,-4.08058 -4.158598,-3.24712 -7.083952,3.66667 -4.121529,9.74082 -9.733954,12.53202 -13.729261,6.82793 z M 7.8742127,43.58972 C 4.2726781,35.685213 15.914757,29.725311 27.991197,33.291279 c 2.561826,0.756462 7.361826,1.299305 10.666667,1.206314 5.543029,-0.155968 5.353972,-0.254028 -2.43898,-1.265058 -4.64628,-0.602791 -9.29628,-1.800175 -10.333333,-2.660852 -2.113472,-1.754027 -2.545251,-7.33992 -0.657543,-8.506588 0.675405,-0.417423 7.309179,-0.360428 14.74172,0.126653 12.214443,0.80046 13.980432,1.256509 18.368081,4.743375 4.31215,3.426865 5.606903,3.77842 11.591614,3.147388 C 91.391144,27.819575 107.82481,26.5937 121.85669,26.20898 140.04544,25.710289 140.44013,25.476812 141.91717,14.342324 143.04956,5.8060292 144.45344,4 149.95661,4 c 7.73607,0 8.75527,2.6648964 7.80448,20.406373 -0.46372,8.65279 -1.48833,16.147307 -2.29964,16.820634 -1.92901,1.600941 -42.10492,2.013912 -71.485451,0.734805 C 63.771144,41.082175 60.058425,41.23464 56.467749,43.091451 53.437835,44.65828 46.529855,45.48538 30.888431,46.154088 L 9.4600268,47.070204 Z"
       id="path229" />
  </g>
</svg>
