<?xml version="1.0" encoding="UTF-8" standalone="no"?>
<!-- Created with Inkscape (http://www.inkscape.org/) -->

<svg
   version="1.1"
   id="svg62"
   width="164"
   height="154.66667"
   viewBox="0 0 164 154.66667"
   xmlns="http://www.w3.org/2000/svg"
   xmlns:svg="http://www.w3.org/2000/svg">
  <defs
     id="defs66" />
  <g
     id="g68">
    <path
       style="fill:#000000;stroke-width:1.33333"
       d="M 48,146.06356 C 19.550877,140.90764 10.917036,138.12847 9.8244107,133.7751 c -1.6622151,-6.6228 2.1522123,-8.49697 29.5089223,-14.49884 15.731087,-3.4513 50.694203,-4.7087 66.493897,-2.39137 24.15063,3.54215 28.03168,4.20911 38.17277,6.55998 11.49213,2.66406 13.33333,3.74738 13.33333,7.84508 0,4.42305 -4.44076,7.61248 -11.61256,8.34033 -3.51309,0.35655 -9.08744,1.54139 -12.38744,2.633 -9.78877,3.23803 -20.49369,4.33606 -48.666663,4.99187 C 65.565856,147.69978 55.162804,147.36168 48,146.06356 Z m 62.66667,-10.25824 C 116.9,134.99778 124.7,133.59276 128,132.68307 l 6,-1.65398 -8.66667,-0.86476 c -4.76666,-0.47561 -15.18423,-1.57106 -23.15014,-2.43432 -15.408743,-1.66985 -47.833026,0.0514 -58.870306,3.12504 -5.22098,1.45396 -5.255223,1.50345 -1.979551,2.86101 4.925458,2.04128 35.054336,4.62017 47.333334,4.05152 5.866666,-0.2717 15.766663,-1.15471 22.000003,-1.96226 z M 7.8742127,46.256388 C 6.5774289,43.410258 6.6735931,42.188024 8.4018333,39.550396 11.037475,35.527898 15.418065,34.814506 32.666667,35.598802 42.295512,36.036626 45.444327,35.811806 44,34.789619 42.9,34.011121 37.95,33.364981 33,33.353751 l -9,-0.02042 V 29.41202 c 0,-2.156721 0.552604,-4.262838 1.228008,-4.680261 0.675405,-0.417423 7.309179,-0.360428 14.74172,0.126653 12.214443,0.80046 13.980432,1.25651 18.368081,4.743375 4.31215,3.426865 5.606903,3.77842 11.591614,3.147388 21.461721,-2.262936 37.895387,-3.488811 51.927267,-3.873531 18.18875,-0.49869 18.58344,-0.732168 20.06048,-11.866656 1.13239,-8.536295 2.53627,-10.3423242 8.03944,-10.3423242 7.73607,0 8.75527,2.6648965 7.80448,20.4063742 -0.46372,8.652789 -1.48833,16.147307 -2.29964,16.820633 -1.92901,1.600942 -42.10492,2.013912 -71.485451,0.734806 -20.204855,-0.879638 -23.917574,-0.727172 -27.50825,1.129638 -3.029914,1.56683 -9.937894,2.39393 -25.579318,3.062638 L 9.4600268,49.736872 Z"
       id="path90" />
  </g>
</svg>
