<?xml version="1.0" encoding="UTF-8" standalone="no"?>
<!-- Created with Inkscape (http://www.inkscape.org/) -->

<svg
   version="1.1"
   id="svg2"
   width="162.66667"
   height="169.33333"
   viewBox="0 0 162.66667 169.33333"
   xmlns="http://www.w3.org/2000/svg"
   xmlns:svg="http://www.w3.org/2000/svg">
  <defs
     id="defs6" />
  <g
     id="g8">
    <path
       style="fill:#000000;stroke-width:1.33333"
       d="m 77.15224,162.74797 c -2.666269,-0.51995 -7.994647,-3.45095 -11.840839,-6.51333 -7.703233,-6.13342 -8.927992,-6.48095 -12.723227,-3.61038 -1.423496,1.07667 -4.494228,1.97667 -6.82385,2 -8.026079,0.0804 -9.747205,-10.5261 -2.927948,-18.04353 3.235948,-3.56725 3.148293,-5.99104 -0.436375,-12.0666 -2.382274,-4.03765 -2.933334,-7.03435 -2.933334,-15.95162 0,-12.355013 0.797719,-13.949429 9.097717,-18.183772 7.511426,-3.832044 16.702129,-3.574765 27.540232,0.770943 10.426819,4.180798 11.560106,4.241422 15.895386,0.850317 6.104573,-4.775066 14.666668,-2.343969 14.666668,4.164415 0,1.452332 -1.27307,4.859477 -2.82903,7.571427 l -2.82904,4.93082 4.66916,8 c 6.47003,11.08557 8.16556,19.7987 5.56003,28.57246 -4.47587,15.0719 -16.062331,21.02357 -34.08555,17.50885 z M 45.333334,83.39689 C 16.884211,78.240968 8.2503698,75.461792 7.1577441,71.108425 5.495529,64.485633 9.3099561,62.611463 36.666667,56.609587 c 15.731087,-3.451293 50.694204,-4.708696 66.493903,-2.391368 24.15063,3.542155 28.03167,4.209111 38.17277,6.559978 11.49213,2.66406 13.33333,3.747387 13.33333,7.845078 0,4.423057 -4.44076,7.612489 -11.61256,8.340341 -3.51309,0.356537 -9.08744,1.541382 -12.38744,2.632989 -9.78878,3.238029 -20.49369,4.336061 -48.666668,4.991871 C 62.899191,85.033104 52.496138,84.695028 45.333334,83.39689 Z M 107.33334,73.324832 c 18.86449,-2.834229 18.31138,-2.676405 16.60128,-4.736947 -0.92104,-1.10979 -3.91884,-1.915788 -7.09788,-1.908357 -3.02687,0.0071 -11.35847,-0.711972 -18.514655,-1.59788 -10.180829,-1.260348 -17.29147,-1.258559 -32.687117,0.0083 -10.821726,0.89043 -22.066663,2.28476 -24.98875,3.09851 -5.22098,1.45391 -5.255223,1.5034 -1.979551,2.860955 9.160502,3.796437 49.619351,5.137148 68.666673,2.275452 z M 6.5408795,44.923052 C 2.5735779,36.215775 12.950804,31.886427 31.333334,34.579717 c 5.133333,0.752102 11.433334,1.319537 14,1.260964 4.273308,-0.09752 4.385696,-0.196478 1.333334,-1.174015 C 44.833334,34.07953 40.222394,33.539338 36.420134,33.466239 26.727718,33.279902 22.666667,31.50199 22.666667,27.445023 c 0,-1.808205 0.552604,-3.629173 1.228008,-4.046595 0.675406,-0.417423 7.309179,-0.360428 14.74172,0.126653 12.214443,0.80046 13.980433,1.256509 18.368082,4.743374 4.31215,3.426866 5.606903,3.77842 11.591614,3.147388 21.461722,-2.262936 37.895379,-3.48881 51.927269,-3.87353 18.18875,-0.498691 18.58344,-0.732168 20.06048,-11.866656 1.13239,-8.5362946 2.53627,-10.3423238 8.03944,-10.3423238 7.73607,0 8.75527,2.6648964 7.80448,20.4063728 -0.46372,8.652789 -1.48833,16.147307 -2.29964,16.820633 -1.92901,1.600941 -42.10492,2.013912 -71.485453,0.734805 -20.204855,-0.879637 -23.917574,-0.727172 -27.50825,1.129639 -3.029915,1.566829 -9.937895,2.393929 -25.579319,3.062637 L 8.1266936,48.403536 Z"
       id="path477" />
  </g>
</svg>
