<?xml version="1.0" encoding="UTF-8" standalone="no"?>
<!-- Created with Inkscape (http://www.inkscape.org/) -->

<svg
   version="1.1"
   id="svg12"
   width="161.33333"
   height="156"
   viewBox="0 0 161.33333 156"
   xmlns="http://www.w3.org/2000/svg"
   xmlns:svg="http://www.w3.org/2000/svg">
  <defs
     id="defs16" />
  <g
     id="g18">
    <path
       style="fill:#000000;stroke-width:1.33333"
       d="m 110.76284,149.38407 c -2.51378,-0.62936 -5.51378,-2.3571 -6.66667,-3.83943 -2.09571,-2.69456 -2.09838,-2.69441 -12.096172,0.64343 -7.865173,2.62585 -11.423217,3.15013 -16.666666,2.45581 -3.666667,-0.48553 -8.466667,-0.79556 -10.666667,-0.68896 -2.2,0.10653 -15.783001,0.48449 -30.184447,0.83976 -23.203897,0.57243 -26.4372919,0.39311 -28.4057203,-1.57532 -3.2967258,-3.29673 -2.1350251,-8.85367 2.2924888,-10.96601 3.1135575,-1.48547 4.7772555,-1.45126 10.4618505,0.21513 5.290344,1.55081 8.687752,1.69985 15.631013,0.68571 7.725473,-1.12839 9.431258,-1.91816 13.204816,-6.1138 6.010497,-6.68277 5.67036,-8.19686 -1.655906,-7.37108 -10.087766,1.13703 -12.393773,-3.23807 -7.277383,-13.80712 3.615817,-7.46928 4.907129,-8.37588 14.460741,-10.152559 7.470279,-1.389244 8.643125,-1.262778 14.730401,1.588349 6.032482,2.82546 14.232765,10.89759 16.199411,15.94624 0.95472,2.45089 13.534035,5.15276 19.2094,4.12591 3.62611,-0.65607 4.06648,-1.30062 4.71117,-6.89562 0.79067,-6.86191 2.64457,-9.72812 8.12551,-12.56243 7.67297,-3.967845 25.06179,-1.57943 27.36495,3.75868 2.2146,5.13281 0.79517,7.66257 -4.29939,7.66257 -2.51291,0 -4.56891,-0.45353 -4.56891,-1.00785 0,-1.64361 -7.6986,-4.55477 -10.81404,-4.08923 -1.5842,0.23673 -3.67207,1.63042 -4.63973,3.09708 -1.70312,2.58142 -1.43156,2.67546 8.49436,2.94147 5.69133,0.15252 10.46016,0.89411 10.71768,1.66666 0.25517,0.76553 1.46396,1.39419 2.68617,1.39701 3.57978,0.008 11.80071,11.34648 13.56779,18.71252 1.36815,5.70304 1.28925,7.13237 -0.54845,9.93706 -1.98167,3.02442 -2.94028,3.27072 -12.48648,3.20834 -5.68702,-0.0372 -13.93342,0.24732 -18.32533,0.63218 -4.39192,0.38488 -10.04202,0.18484 -12.55579,-0.4445 z m 8.38893,-12.70975 c -0.42049,-1.09579 -1.30166,-1.66037 -1.95815,-1.25464 -1.88257,1.16349 -1.39199,3.24699 0.76453,3.24699 1.18945,0 1.65802,-0.78214 1.19362,-1.99235 z M 63.195673,83.251767 C 62.386628,82.879487 53.686628,81.439955 43.86234,80.052807 14.912046,75.965147 7.3333332,73.034091 7.3333332,65.925265 c 0,-3.501112 0.6483441,-4.116485 5.9999998,-5.694885 3.3,-0.973292 7.2,-2.257099 8.666667,-2.852907 5.716227,-2.322114 17.476874,-4.04748 38.102035,-5.589824 25.525202,-1.908766 48.319065,-0.258857 70.564625,5.107747 19.3,4.656005 22.66667,6.184552 22.66667,10.291212 0,1.827475 -0.57717,3.679395 -1.28261,4.115379 -1.67402,1.034597 -19.56848,5.978725 -24.71739,6.829258 -2.2,0.363412 -8.8,1.50294 -14.66667,2.532286 -10.95248,1.921682 -46.83926,3.799217 -49.470987,2.588236 z M 112.50088,69.87174 c 5.04215,-0.47872 10.61195,-1.619761 12.37732,-2.535648 3.02243,-1.568056 2.79864,-1.711797 -3.83422,-2.462776 C 117.16979,64.434676 110.4,63.46778 106,62.724659 91.819061,60.329624 59.369785,60.847569 47.377527,63.660375 33.517801,66.911196 35.63239,68.2164 57.999999,70.216964 74.963102,71.734149 94.16607,71.612512 112.50088,69.87174 Z M 7.1178355,41.919216 C 6.760318,40.98754 6.6625477,38.524577 6.9005684,36.445964 L 7.3333332,32.666667 24.666666,31.938884 c 9.533333,-0.400281 14.158245,-0.850281 10.277583,-1 -8.360438,-0.322553 -13.863692,-4.126308 -11.467027,-7.925811 1.183391,-1.876064 3.411104,-2.173336 13.965383,-1.863572 11.749774,0.34485 12.889482,0.632363 17.720906,4.470426 l 5.163512,4.101872 20.836487,-1.429303 C 92.623578,27.50638 103.5,26.934219 105.33333,27.021025 c 1.83333,0.08681 10.35705,0.04259 18.94159,-0.09827 l 15.60825,-0.256092 0.39175,-9.653586 c 0.36369,-8.9621441 0.64556,-9.7748851 3.93537,-11.3471138 2.51323,-1.2010957 4.54864,-1.3114196 7,-0.3794156 3.44097,1.3082587 3.45637,1.3819085 3.45637,16.5327354 0,21.108465 -0.35504,21.507194 -17.31466,19.445104 -6.9559,-0.845755 -16.14346,-1.142167 -20.41681,-0.658694 -4.61778,0.522443 -9.59359,0.277112 -12.26567,-0.604754 -3.28058,-1.082691 -5.966674,-1.087774 -9.936522,-0.0188 -3.991321,1.07475 -9.106146,1.052524 -19.201378,-0.08344 C 63.273285,38.519335 60.909843,38.6119 53.885406,40.746477 43.909451,43.77796 8.1749578,44.674037 7.1178355,41.91922 Z"
       id="path338" />
  </g>
</svg>
