<?xml version="1.0" encoding="UTF-8" standalone="no"?>
<!-- Created with Inkscape (http://www.inkscape.org/) -->

<svg
   version="1.1"
   id="svg22"
   width="161.33333"
   height="157.33333"
   viewBox="0 0 161.33333 157.33333"
   xmlns="http://www.w3.org/2000/svg"
   xmlns:svg="http://www.w3.org/2000/svg">
  <defs
     id="defs26" />
  <g
     id="g28">
    <path
       style="fill:#000000;stroke-width:1.33333"
       d="m 6.6418071,148.77514 c -2.2857749,-2.28578 -0.7475547,-33.78051 1.7729622,-36.30102 0.747956,-0.74796 23.0935487,-0.89445 61.5852297,-0.40373 0.733333,0.009 19.297066,-0.2162 41.252741,-0.50123 l 39.9194,-0.51823 3.08059,3.0806 c 2.82641,2.82641 3.0806,4.23288 3.0806,17.04596 0,10.91801 -0.4572,14.42256 -2.09524,16.0606 -1.15237,1.15239 -2.80237,2.11691 -3.66667,2.1434 -27.777,0.85125 -143.9580768,0.36519 -144.9296129,-0.60635 z M 54.830867,134.33333 c 2.85421,-3.11667 5.525329,-6.71667 5.93582,-8 C 61.177177,125.05 62.0726,124 62.756516,124 c 0.683915,0 1.243483,-0.6 1.243483,-1.33334 0,-0.83799 -8.651029,-1.33333 -23.286421,-1.33333 -21.975826,0 -23.367308,0.15114 -24.723578,2.68535 -1.543491,2.88404 -0.528327,11.53157 1.680446,14.31465 C 18.591017,139.49326 23.652357,140 34.31729,140 h 15.324104 z m 37.075218,-4.34008 6.805566,-8.65992 h -3.919405 c -3.309939,0 -4.852948,1.33544 -9.922902,8.58808 -4.918191,7.03553 -5.599683,8.6804 -3.769755,9.09875 3.121339,0.7136 3.209807,0.63969 10.806496,-9.02691 z M 145.06666,138.4 c 0.88,-0.88 1.6,-4.49486 1.6,-8.033 0,-8.14583 -0.97128,-8.54697 -21.47444,-8.86877 l -15.47444,-0.24287 -5.75143,7.45492 c -3.16329,4.10021 -6.983293,8.31776 -8.4889,9.37232 -2.421924,1.69638 0.186133,1.9174 22.62587,1.9174 17.94926,0 25.83105,-0.46771 26.96334,-1.6 z m -73.059004,-4.06667 c 4.792273,-5.01265 8.562649,-11.5408 7.36004,-12.74341 -1.399652,-1.39966 -5.134347,1.73302 -7.776347,6.52283 -1.381534,2.50465 -3.759349,5.90391 -5.284034,7.55391 -2.327523,2.51883 -2.424932,3 -0.607316,3 1.190661,0 4.029106,-1.95 6.307657,-4.33333 z M 6.3333332,46.626828 C 3.1861059,44.703419 3.3608719,38.325035 6.6421644,35.355507 8.9591042,33.258705 10.887518,33.072313 22.30883,33.841237 c 7.163477,0.482272 16.324503,1.240405 20.357836,1.684741 4.033333,0.444337 6.936316,0.385748 6.451072,-0.1302 -1.072888,-1.140767 -6.043323,-2.0794 -15.784405,-2.980777 -8.030822,-0.743122 -10.019424,-1.795942 -11.084389,-5.868375 -1.290448,-4.93468 3.871526,-5.815361 19.31039,-3.294533 10.412765,1.700176 14.220397,2.879262 15.603294,4.831782 1.555571,2.196316 3.466168,2.582791 12.768429,2.582791 6.016524,0 17.19334,-0.608353 24.83737,-1.351897 7.644033,-0.743544 21.098233,-1.493544 29.898233,-1.666667 l 16,-0.314769 0.94762,-8.666667 c 1.49242,-13.6495736 1.92269,-14.6666661 6.20446,-14.6666661 6.92447,0 8.64775,3.7343487 8.46868,18.3516531 -0.0875,7.139924 -0.67589,14.762264 -1.30761,16.938534 l -1.1486,3.956855 -33.88615,-0.41863 C 101.30768,42.598167 80.08722,42.204836 72.788492,41.954344 62.518424,41.601876 58.442093,41.997415 54.759039,43.703798 51.2272,45.34012 45.87412,45.939626 33.999999,46.028655 25.199999,46.094636 15.9,46.577068 13.333333,47.100726 10.60389,47.657595 7.6980545,47.460871 6.3333332,46.626828 Z"
       id="path199" />
  </g>
</svg>
