<?xml version="1.0" encoding="UTF-8" standalone="no"?>
<!-- Created with Inkscape (http://www.inkscape.org/) -->

<svg
   version="1.1"
   id="svg32"
   width="160"
   height="164"
   viewBox="0 0 160 164"
   xmlns="http://www.w3.org/2000/svg"
   xmlns:svg="http://www.w3.org/2000/svg">
  <defs
     id="defs36" />
  <g
     id="g38">
    <path
       style="fill:#000000;stroke-width:1.33333"
       d="M 38.666667,155.40204 C 9.2954047,150.34156 2.7686336,147.42335 5.379314,140.5188 c 1.4339032,-3.79229 4.2470265,-4.71988 31.954019,-10.53643 5.5,-1.15462 12.558611,-2.673 15.685802,-3.37417 3.12719,-0.70118 9.72719,-1.2675 14.666666,-1.2585 12.279111,0.0224 51.762299,3.69273 58.314199,5.42087 10.99232,2.89936 16.12569,4.10942 20.43372,4.8167 5.15651,0.84658 8.34133,5.73566 5.76136,8.84434 -1.61956,1.95146 -17.71349,7.45752 -32.19508,11.0146 -6.06648,1.4901 -16.86726,2.26803 -36,2.59295 -23.928767,0.40635 -29.575365,0.0779 -45.333333,-2.63712 z m 76.365883,-10.29507 c 16.28996,-2.48033 12.28111,-5.09604 -11.69922,-7.63354 -22.459226,-2.37655 -75.388057,0.53529 -73.22905,4.02864 3.364136,5.44328 57.705547,7.74989 84.92827,3.6049 z m 11.81437,-80.492493 c -5.14213,-2.232494 -16.50513,-2.581344 -20.1713,-0.619268 -1.94607,1.041507 -3.4034,0.55358 -6.745191,-2.258354 C 96.756216,59.065931 93.477573,57.886299 87.091449,57.117481 79.259401,56.174592 55.095959,49.548712 48.666667,46.580987 44.062888,44.455908 33.173459,36.156375 30.455575,32.701147 c -2.403102,-3.05505 -3.206872,-3.248402 -10.384892,-2.49815 -7.413739,0.77489 -7.8932,0.64072 -10.1794546,-2.848545 -2.1584057,-3.294143 -2.2024031,-4.012464 -0.4382757,-7.155476 1.0785423,-1.921557 3.3560253,-4.189244 5.0610723,-5.039301 1.705048,-0.850059 3.786912,-2.911356 4.626364,-4.58066 3.134066,-6.2322871 15.526278,-6.3154481 15.526278,-0.104193 0,4.319367 2.956122,5.337283 15.674998,5.397557 l 12.292394,0.05825 2.050544,-3.965316 c 2.857809,-5.5263925 9.069916,-5.5967879 11.894426,-0.134787 1.089464,2.106791 3.354872,4.198598 5.03424,4.64846 4.291472,1.149584 34.790551,0.912923 53.053401,-0.411674 16.74129,-1.214239 20,-0.472716 20,4.551026 0,5.132178 -3.62436,7.775274 -9.21591,6.720776 -2.63125,-0.496224 -15.58409,-1.177861 -28.78409,-1.514752 -30.388343,-0.775572 -30.648926,-0.648413 -23.345554,11.392174 2.852319,4.702429 6.311088,9.674924 7.686154,11.049989 2.98332,2.983317 13.14564,4.689512 36.17714,6.073928 15.18659,0.912861 16.60228,1.222235 17.56674,3.838877 0.68225,1.851007 0.35826,3.832139 -0.92668,5.666667 -1.72692,2.465509 -3.26726,2.814096 -12.2334,2.768477 -5.94514,-0.03025 -12.14393,-0.871096 -14.74415,-2 z M 86.666667,45.467319 c 0,-1.35502 -8.42131,-14.188823 -11.742996,-17.895947 -1.918136,-2.140709 -3.5245,-2.319661 -13.549895,-1.509485 -16.106168,1.301577 -16.583397,1.897921 -6.823057,8.526041 C 64.198248,41.13944 70.603937,44.091276 78,45.393704 c 7.858645,1.383885 8.666667,1.390749 8.666667,0.07362 z"
       id="path60" />
  </g>
</svg>
