<?xml version="1.0" encoding="UTF-8" standalone="no"?>
<!-- Created with Inkscape (http://www.inkscape.org/) -->

<svg
   version="1.1"
   id="svg2"
   width="161.33333"
   height="150.66667"
   viewBox="0 0 161.33333 150.66667"
   xmlns="http://www.w3.org/2000/svg"
   xmlns:svg="http://www.w3.org/2000/svg">
  <defs
     id="defs6" />
  <g
     id="g8">
    <path
       style="fill:#000000;stroke-width:1.33333"
       d="m 137.96768,144.80542 c -7.5723,-3.29926 -9.82697,-15.02381 -4.08132,-21.22346 8.62305,-9.30444 23.44697,-3.96519 23.44697,8.44509 0,6.86633 -1.68007,10.06095 -6.63997,12.62582 -4.70406,2.43256 -7.41802,2.46509 -12.72568,0.15255 z M 12.634348,143.47208 c -7.5723029,-3.29925 -9.8269641,-15.02381 -4.0813224,-21.22346 8.6230604,-9.30443 23.4469734,-3.96518 23.4469734,8.4451 0,6.86632 -1.680065,10.06095 -6.639978,12.62582 -4.704048,2.43256 -7.418008,2.46509 -12.725673,0.15254 z m 63.999998,0 c -7.572302,-3.29925 -9.826963,-15.02381 -4.081322,-21.22346 8.623061,-9.30443 23.446974,-3.96518 23.446974,8.4451 0,6.86632 -1.680065,10.06095 -6.639979,12.62582 -4.704047,2.43256 -7.418007,2.46509 -12.725673,0.15254 z M 142.49916,71.994298 c -4.06598,-2.14858 -5.48554,-2.30865 -8.9332,-1.007303 -3.52889,1.332009 -4.50051,1.185515 -6.98551,-1.053224 -3.81827,-3.439878 -5.45869,-7.852351 -5.898,-15.864668 -0.28741,-5.241883 -1.09491,-7.228213 -3.92978,-9.666667 -3.62307,-3.116438 -9.27672,-3.963478 -12.56169,-1.882018 -1.26107,0.799056 -1.36204,1.422496 -0.33333,2.058272 0.81162,0.501612 1.47568,2.376612 1.47568,4.166667 0,2.842829 -0.60226,3.254644 -4.75977,3.254644 -3.16345,0 -6.817894,-1.416032 -10.896551,-4.222223 -3.375233,-2.322221 -7.083339,-4.128436 -8.240233,-4.013808 -1.156895,0.114627 -5.324384,0.197047 -9.261087,0.183155 -6.343165,-0.02239 -7.04663,0.2447 -6.182062,2.347143 2.033634,4.945353 2.080426,6.445505 0.277674,8.902345 -1.32754,1.80921 -2.792702,2.294947 -5.143052,1.705047 C 55.50659,55.490712 48.754575,50.15121 46.691611,45.485145 l -1.975056,-4.467228 -7.569297,0.791148 c -6.573835,0.687101 -8.465675,0.312193 -14.385166,-2.850731 -8.435958,-4.507531 -12.465285,-10.021104 -10.49064,-14.35498 0.755862,-1.658935 4.235198,-4.573346 7.731858,-6.476467 5.006632,-2.724949 8.212361,-3.46022 15.086335,-3.46022 8.186506,0 8.906603,-0.249744 11.591346,-4.020118 5.741913,-8.0637735 15.798822,-10.37010691 17.354521,-3.9798822 0.691349,2.8397981 1.489099,3.2860486 5.387993,3.0139719 2.517071,-0.1756486 8.567549,0.6747223 13.445508,1.8897143 l 8.869014,2.209075 6.581048,-4.2230473 C 105.63782,4.8599562 113.2016,3.961476 116.09275,7.4450968 c 1.37477,1.6564975 1.40814,2.5907022 0.15478,4.3333332 -3.42759,4.765592 -3.13657,5.740794 3.65702,12.254425 3.79046,3.634258 7.50439,8.365191 8.25319,10.513186 0.93486,2.68175 2.94099,4.537453 6.40259,5.922513 5.07373,2.030106 6.08685,3.584416 9.41745,14.448137 0.82906,2.70418 2.5836,6.30418 3.89902,8 3.30533,4.261217 3.96592,6.688487 2.56278,9.416644 -1.47453,2.86696 -1.90845,2.848433 -7.94042,-0.339037 z"
       id="path70" />
  </g>
</svg>
