<?xml version="1.0" encoding="UTF-8" standalone="no"?>
<!-- Created with Inkscape (http://www.inkscape.org/) -->

<svg
   version="1.1"
   id="svg12"
   width="162.66667"
   height="162.66667"
   viewBox="0 0 162.66667 162.66667"
   xmlns="http://www.w3.org/2000/svg"
   xmlns:svg="http://www.w3.org/2000/svg">
  <defs
     id="defs16" />
  <g
     id="g18">
    <path
       style="fill:#000000;stroke-width:1.33333"
       d="m 113.42951,154.7174 c -2.51377,-0.62936 -5.51377,-2.35709 -6.66667,-3.83942 -2.09571,-2.69456 -2.09838,-2.69442 -12.096171,0.64342 -7.865174,2.62586 -11.423218,3.15014 -16.666667,2.45582 -3.666667,-0.48554 -8.466667,-0.79556 -10.666667,-0.68896 -2.2,0.10653 -15.783002,0.48449 -30.184449,0.83976 -23.203898,0.57242 -26.437293,0.3931 -28.4057213,-1.57532 -3.2967259,-3.29674 -2.1350252,-8.85367 2.2924893,-10.96602 3.113557,-1.48546 4.777256,-1.45125 10.46185,0.21514 5.290345,1.55081 8.687753,1.69985 15.631014,0.6857 7.725474,-1.12838 9.431259,-1.91816 13.204816,-6.1138 6.010498,-6.68277 5.67036,-8.19685 -1.655905,-7.37108 -10.087767,1.13704 -12.393774,-3.23806 -7.277384,-13.80711 3.615817,-7.46928 4.907129,-8.37588 14.460741,-10.15256 7.470281,-1.38925 8.643126,-1.26278 14.730402,1.58835 6.032483,2.82546 14.232766,10.89758 16.199412,15.94623 0.95472,2.4509 13.53404,5.15276 19.2094,4.12592 3.62611,-0.65607 4.06648,-1.30062 4.71117,-6.89562 0.79067,-6.86191 2.64457,-9.72813 8.12551,-12.56243 7.67297,-3.96785 25.06179,-1.57943 27.36495,3.75868 2.2146,5.1328 0.79517,7.66257 -4.29939,7.66257 -2.5129,0 -4.5689,-0.45353 -4.5689,-1.00785 0,-1.64362 -7.69861,-4.55477 -10.81405,-4.08923 -1.5842,0.23673 -3.67207,1.63041 -4.63972,3.09708 -1.70313,2.58142 -1.43157,2.67545 8.49435,2.94146 5.69134,0.15253 10.46016,0.89411 10.71768,1.66667 0.25518,0.76553 1.46396,1.39418 2.68618,1.39701 3.57977,0.008 11.8007,11.34647 13.56778,18.71251 1.36815,5.70304 1.28926,7.13238 -0.54845,9.93707 -1.98167,3.02441 -2.94028,3.27072 -12.48648,3.20833 -5.68701,-0.0372 -13.93341,0.24732 -18.32533,0.63219 -4.39191,0.38488 -10.04202,0.18484 -12.55579,-0.44451 z m 8.38893,-12.70974 c -0.42049,-1.09579 -1.30166,-1.66038 -1.95815,-1.25464 -1.88256,1.16349 -1.39199,3.24698 0.76453,3.24698 1.18945,0 1.65803,-0.78213 1.19362,-1.99234 z M 70.758168,51.062044 C 60.121757,45.493241 58.897472,32.49649 68.206193,23.970823 c 2.819928,-2.582715 5.127142,-5.132715 5.127142,-5.666667 0,-0.533952 -2.659568,-0.970822 -5.91015,-0.970822 -4.7853,0 -6.0751,-0.519711 -6.776825,-2.730651 -1.747883,-5.5070925 1.227051,-6.6026828 17.928728,-6.6026828 16.597543,0 20.80409,1.2875013 19.891242,6.0881298 -0.388563,2.043434 -1.802131,2.662872 -6.811653,2.984925 -3.476739,0.223513 -6.321342,1.042013 -6.321342,1.818888 0,0.776875 2.383681,3.501939 5.29707,6.055698 8.857242,7.7639 9.005749,17.952657 0.344829,23.65812 -6.917462,4.556941 -14.455546,5.472785 -20.217066,2.456283 z M 19.57656,49.742621 C 14.981208,47.327373 10.678372,40.575329 10.671651,35.768967 10.666001,31.728405 15.386339,25.492613 20.537394,22.735852 22.466702,21.703318 24,19.719407 24,18.255639 24,15.892815 23.340807,15.70663 17.446726,16.404696 10.32209,17.248504 8.1179336,15.429019 10.614242,10.764623 11.640931,8.8462375 14.526602,8.1789846 25.609461,7.2972817 47.995236,5.5163694 48.916469,5.6978273 49.628349,12.028348 c 0.337887,3.00472 -0.143176,3.342235 -5.295015,3.714983 -7.145631,0.517004 -7.363503,2.835419 -0.844257,8.983859 4.600897,4.339205 4.781144,4.840365 3.924052,10.910464 -1.408863,9.977858 -1.926555,10.892739 -7.758026,13.710199 -6.346265,3.066181 -14.683902,3.230109 -20.078543,0.394768 z m 96.82439,-6.075953 c -1.67605,-1.841446 -3.08478,-5.832022 -3.64782,-10.333334 -0.56506,-4.517503 -2.67831,-10.48953 -5.5036,-15.553088 -6.93909,-12.4364215 -6.96038,-12.4228964 19.42662,-12.3396838 28.2332,0.089035 28.74656,0.396697 22.1574,13.2791318 -2.42315,4.737502 -5.14399,12.059035 -6.04631,16.270073 -2.07822,9.698939 -4.70686,11.676901 -15.51816,11.676901 -6.74102,0 -8.60618,-0.514852 -10.86813,-3 z"
       id="path366" />
  </g>
</svg>
