<?xml version="1.0" encoding="UTF-8" standalone="no"?>
<!-- Created with Inkscape (http://www.inkscape.org/) -->

<svg
   version="1.1"
   id="svg22"
   width="162.66667"
   height="157.33333"
   viewBox="0 0 162.66667 157.33333"
   xmlns="http://www.w3.org/2000/svg"
   xmlns:svg="http://www.w3.org/2000/svg">
  <defs
     id="defs26" />
  <g
     id="g28">
    <path
       style="fill:#000000;stroke-width:1.33333"
       d="m 14.380727,149.03842 c -1.864391,-1.42296 -2.28811,-4.69189 -2.560738,-19.75582 -0.179677,-9.9279 0.122732,-18.7779 0.672019,-19.66666 C 13.041295,108.72717 16.170152,108 19.445024,108 c 4.982887,0 6.121186,0.48944 6.977161,3 1.399458,4.10459 0.921529,35.54081 -0.561484,36.93216 -2.320435,2.17701 -9.207503,2.84068 -11.479974,1.10626 z m 61.952608,0.14083 c -1.174708,-1.20708 -1.666667,-7.30209 -1.666667,-20.64882 V 109.5942 l 4.198964,-1.46377 c 10.35986,-3.61147 13.265747,-0.14111 12.804458,15.29171 -0.173895,5.81782 0.141411,12.97786 0.70068,15.91119 0.744633,3.90556 0.493597,5.99964 -0.937728,7.82227 -2.443542,3.11157 -12.702867,4.48652 -15.099707,2.02365 z m 63.380725,-1.47416 c -1.86439,-1.42296 -2.28811,-4.69189 -2.56074,-19.75582 -0.17968,-9.9279 0.1228,-18.7779 0.67203,-19.66667 0.54928,-0.88876 3.67813,-1.61594 6.95301,-1.61594 4.98288,0 6.12119,0.48944 6.97716,3 1.39946,4.10459 0.92154,35.54082 -0.56149,36.93216 -2.32043,2.17702 -9.20749,2.84068 -11.47997,1.10627 z M 26.000001,36.133074 C 14.993758,34.482671 6.6857236,25.825666 6.2401892,15.543273 6.03294,10.760211 6.4018587,9.9428218 8.9302547,9.5830715 11.188942,9.2616966 12.474252,10.369178 14.538455,14.41535 c 4.185951,8.205143 9.423857,11.83036 18.638328,12.899813 8.565042,0.994079 14.060962,0.02088 12.662303,-2.242196 -0.52447,-0.84861 -3.420826,-1.099162 -7.340195,-0.634972 -5.409198,0.64064 -6.6904,0.362188 -7.790373,-1.693131 -0.993908,-1.857132 -0.646555,-3.311544 1.417607,-5.9357 2.444728,-3.107967 3.65036,-3.475831 11.391639,-3.475831 4.76165,0 9.85665,0.64174 11.322221,1.426089 1.631345,0.873071 14.652862,1.519383 33.579011,1.666667 l 30.914344,0.240577 0.46109,-3.333333 c 1.0243,-7.4049035 4.26401,-7.7061822 11.91863,-1.10838 3.76254,3.243069 5.5129,3.775047 12.421,3.775047 9.14074,0 13.19928,1.62504 13.19928,5.285006 0,5.759864 -3.12484,6.714993 -21.96908,6.714993 H 117.58564 L 112,32.666666 c -3.0721,2.566667 -6.31419,4.666667 -7.20464,4.666667 -2.57716,0 -5.863002,-3.097638 -6.36455,-6 -0.424505,-2.456526 -1.773016,-2.719202 -17.11248,-3.333334 -15.321351,-0.613406 -16.971225,-0.444506 -20.651662,2.114138 -9.244495,6.426781 -19.76525,8.253429 -34.666667,6.018937 z"
       id="path209" />
  </g>
</svg>
