<?xml version="1.0" encoding="UTF-8" standalone="no"?>
<!-- Created with Inkscape (http://www.inkscape.org/) -->

<svg
   version="1.1"
   id="svg32"
   width="160"
   height="154.66667"
   viewBox="0 0 160 154.66667"
   xmlns="http://www.w3.org/2000/svg"
   xmlns:svg="http://www.w3.org/2000/svg">
  <defs
     id="defs36" />
  <g
     id="g38">
    <path
       style="fill:#000000;stroke-width:1.33333"
       d="m 46.666667,149.19156 c -7.7,-0.60768 -17,-1.97656 -20.666667,-3.04196 -3.666667,-1.06541 -9.118985,-2.57973 -12.116264,-3.36517 -6.8708048,-1.80049 -11.0237787,-6.01235 -9.0358183,-9.16392 2.7529083,-4.36426 16.5746133,-8.83876 40.4854153,-13.10634 12.27838,-2.19143 52.41217,-1.84816 66.666667,0.57021 29.39292,4.98671 39.65788,7.73723 40.66012,10.895 1.86385,5.87248 -0.76187,7.43805 -23.46105,13.98858 -15.48563,4.46884 -49.780653,5.80836 -82.532403,3.2236 z m 67.900853,-10.96805 c 6.91214,-0.89576 12.77886,-2.26265 13.03716,-3.03755 1.27438,-3.82313 -45.732877,-8.48223 -60.186115,-5.96531 -4.92728,0.85805 -10.102153,1.19717 -11.49972,0.7536 -1.397568,-0.44358 -6.1995,0.13076 -10.670961,1.27629 -4.471461,1.14554 -10.031469,2.12508 -12.355573,2.17674 l -4.225644,0.094 5.183226,1.8997 c 11.38628,4.17314 57.726015,5.7821 80.717627,2.80258 z M 5,101.2935 C 1.8490473,99.367811 2.0289565,92.990422 5.3182089,90.01369 7.6141676,87.935875 9.4373432,87.736469 18.913401,88.526742 c 6.019007,0.501967 13.544526,1.495535 16.723374,2.207929 3.178848,0.712395 7.33639,0.904564 9.238985,0.427044 5.702777,-1.431306 0.405792,-3.326036 -11.598669,-4.14884 -10.106571,-0.69272 -10.527186,-0.855752 -11.82692,-4.584173 -1.195551,-3.42956 -0.989327,-4.029179 1.827084,-5.31242 4.845028,-2.207543 30.093133,2.16252 32.552041,5.634262 1.555571,2.196316 3.466168,2.582791 12.768429,2.582791 6.016524,0 17.19334,-0.608353 24.837371,-1.351897 7.644034,-0.743544 21.098234,-1.493544 29.898234,-1.666667 l 16,-0.314769 0.94762,-8.666667 c 1.49242,-13.649575 1.92269,-14.666667 6.20446,-14.666667 6.92447,0 8.64775,3.734349 8.46868,18.351654 -0.0875,7.139924 -0.67589,14.762264 -1.30761,16.938535 l -1.1486,3.956854 -33.88615,-0.418629 C 99.974344,97.264837 78.753888,96.871506 71.45516,96.621014 c -10.270068,-0.352468 -14.346399,0.04307 -18.029453,1.749453 -3.531839,1.636323 -8.884919,2.235833 -20.75904,2.324853 -8.8,0.066 -18.1,0.54842 -20.666667,1.07208 -2.7294427,0.55686 -5.6352787,0.36014 -7,-0.4739 z M 5.75517,39.176112 C 5.2639303,37.895962 5.7890887,34.407638 6.9221885,31.424283 8.0552885,28.440927 10.333983,22.1 11.985954,17.333334 16.173301,5.2509853 16.513513,4.7174977 20.323853,4.2586621 c 2.521704,-0.30366 4.135879,0.6419843 6.311686,3.6976223 2.74888,3.8604456 3.298396,4.0558906 9.201806,3.2727756 4.863724,-0.645196 6.677623,-0.351748 8.050424,1.302378 2.219291,2.674081 4.631895,2.722209 6.778898,0.135229 2.190525,-2.639422 7.851348,-2.547828 10.860848,0.175732 2.22333,2.012087 2.65391,2.012087 5.724744,0 4.401509,-2.8839801 7.304342,-2.743971 10.778542,0.519871 l 2.869338,2.695602 3.426902,-2.695602 c 4.227284,-3.325183 4.377999,-3.324572 9.098746,0.03689 l 3.837441,2.7325 3.903202,-2.885765 c 3.8181,-2.82284 3.99213,-2.83324 7.98102,-0.476944 3.83389,2.264738 4.22688,2.273905 6.57016,0.153265 2.93966,-2.66035 5.55723,-2.832542 10.28855,-0.676811 3.08629,1.406207 3.82762,1.187632 6.78336,-2 3.51876,-3.7948212 8.63244,-4.685094 10.94003,-1.904618 0.76417,0.9207693 1.83254,3.470769 2.37417,5.666666 0.54163,2.195898 1.73872,5.192542 2.66021,6.659208 0.9215,1.466667 2.57936,5.766565 3.68415,9.555329 1.60269,5.496208 1.67795,7.341038 0.37228,9.126627 -2.9174,3.989794 -7.82928,1.961289 -11.13829,-4.599885 -4.08388,-8.097633 -4.75183,-8.534981 -8.31519,-5.444504 -3.75065,3.252931 -5.18463,3.341726 -9.14696,0.566402 -2.72951,-1.911827 -3.46295,-1.924567 -7.17926,-0.124707 -4.35234,2.107897 -6.91084,1.769251 -10.61499,-1.405015 -1.97739,-1.694524 -2.52197,-1.592266 -4.62965,0.869332 -2.996355,3.499491 -5.861491,3.535491 -9.79602,0.123091 -3.691865,-3.201939 -3.159539,-3.169767 -8.31716,-0.502657 -3.225572,1.668009 -4.734283,1.820812 -6.582361,0.666666 -2.972738,-1.856504 -7.335359,-1.941342 -8.433812,-0.164009 -1.107986,1.792759 -6.432803,1.686472 -10.598514,-0.211552 -2.782908,-1.267977 -3.828672,-1.148484 -5.83439,0.666667 -3.041135,2.752189 -7.378948,2.848108 -9.567096,0.211552 -0.912919,-1.1 -2.412919,-2 -3.333334,-2 -0.920414,0 -2.420414,0.9 -3.333333,2 -2.160928,2.60376 -6.627605,2.545664 -10.456215,-0.135999 -3.541821,-2.480788 -3.969866,-2.183164 -7.537701,5.241025 -2.223229,4.626247 -3.403101,5.632026 -7.015251,5.980135 -3.1587438,0.304415 -4.5859743,-0.215988 -5.235663,-1.90905 z"
       id="path644" />
  </g>
</svg>
