<?xml version="1.0" encoding="UTF-8" standalone="no"?>
<!-- Created with Inkscape (http://www.inkscape.org/) -->

<svg
   version="1.1"
   id="svg42"
   width="161.33333"
   height="154.66667"
   viewBox="0 0 161.33333 154.66667"
   xmlns="http://www.w3.org/2000/svg"
   xmlns:svg="http://www.w3.org/2000/svg">
  <defs
     id="defs46" />
  <g
     id="g48">
    <path
       style="fill:#000000;stroke-width:1.33333"
       d="M 16.572145,146.40482 C 9.2866918,140.00811 2.9239306,129.92199 3.6797673,125.96808 c 0.4998583,-2.61484 1.4404873,-3.30141 4.5230519,-3.30141 3.3076688,0 4.2577328,0.85071 6.3284928,5.66667 C 18.044772,136.50458 24.830961,140 37.181539,140 c 7.542335,0 9.485127,-0.40965 9.485127,-2 0,-1.5567 -1.782428,-2 -8.041847,-2 -6.094001,0 -8.237348,-0.50946 -8.848992,-2.10338 -2.354893,-6.13676 11.09292,-8.90157 26.646525,-5.47842 6.218307,1.36858 19.051928,2.32255 36.589297,2.71982 l 27.011651,0.61189 -0.27277,-3.57978 c -0.30458,-3.99719 1.01063,-6.83679 3.16656,-6.83679 0.7845,0 3.76466,2.1125 6.62258,4.69446 5.01445,4.53025 5.54003,4.6878 15.02597,4.50415 5.40637,-0.10467 10.4908,0.21823 11.29873,0.71756 1.99101,1.23052 1.86483,7.01512 -0.1806,8.27927 -0.90727,0.56072 -9.15727,1.13758 -18.33333,1.28193 -16.77862,0.26393 -20.63518,1.12353 -28.28488,6.30447 -4.90807,3.3241 -8.22182,2.42337 -9.067795,-2.46479 l -0.689448,-3.98372 -17.595641,-0.387 c -16.585795,-0.36479 -17.88596,-0.20457 -22.65416,2.79168 -5.02529,3.1578 -7.552286,3.98705 -19.058517,6.25416 -12.387453,2.44073 -18.138043,1.72383 -23.427854,-2.92069 z M 134.66666,88.090986 c -10.10148,-2.025388 -14.11629,-5.161188 -21.86865,-17.080706 -4.10557,-6.31246 -7.46468,-12.472144 -7.46468,-13.688184 0,-1.216041 -0.39815,-2.609131 -0.88477,-3.095755 -0.48662,-0.486625 -1.97782,-3.988577 -3.31376,-7.782116 -2.642781,-7.504448 -6.453847,-12.316228 -12.068589,-15.237576 -5.773445,-3.003922 -7.187535,-2.40345 -7.363222,3.126685 -0.126133,3.970375 0.671715,5.765672 3.874468,8.718206 3.538206,3.261781 3.922781,4.307392 3.13288,8.517925 -0.797152,4.249186 -0.414508,5.243542 3.336006,8.669108 3.266516,2.983502 4.026791,4.543875 3.320736,6.81541 -2.452385,7.88986 -2.415289,8.946019 0.314223,8.946019 1.462364,0 3.405777,-0.9 4.318696,-2 1.993852,-2.402444 6.849982,-2.616686 9.066662,-0.4 2.51921,2.519204 1.88424,6.236973 -1.67272,9.79394 -4.94695,4.946945 -15.128469,4.663671 -21.001998,-0.584328 -3.58584,-3.203948 -4.32736,-4.840784 -4.379194,-9.666667 -0.03627,-3.376455 -1.11013,-7.370707 -2.564048,-9.537012 -1.375907,-2.05007 -2.564736,-5.95007 -2.641842,-8.666667 -0.119786,-4.220491 -0.762753,-5.213367 -4.418291,-6.822823 -4.069962,-1.791919 -4.240279,-2.159477 -3.500751,-7.554924 0.762168,-5.560618 0.670996,-5.725626 -4.668784,-8.449778 -5.466423,-2.788761 -10.85356,-3.983566 -7.021673,-1.557328 1.025214,0.649136 2.002334,3.458318 2.171378,6.242624 0.222395,3.663049 1.29218,5.847651 3.870188,7.903282 2.909036,2.319585 3.507476,3.800528 3.26116,8.070293 -0.165921,2.876163 0.471138,6.665985 1.415688,8.421826 1.398648,2.599975 1.40004,4.153937 0.0075,8.373373 -2.284988,6.923586 -0.609684,8.670478 6.017089,6.274206 4.167468,-1.506976 5.051275,-1.478181 6.112047,0.199131 3.496624,5.528876 -1.211792,10.627519 -9.814105,10.627519 -4.099671,0 -5.995971,-0.88594 -9.170694,-4.284493 -3.610325,-3.864865 -3.92258,-4.885569 -3.188193,-10.42164 0.712775,-5.37316 0.403915,-6.522517 -2.481077,-9.232828 -2.540313,-2.3865 -3.001561,-3.644347 -2.01342,-5.490704 2.012024,-3.7595 1.515293,-6.316522 -1.407248,-7.2441 -1.478965,-0.469406 -3.920821,-3.26798 -5.426348,-6.219058 -3.796199,-7.441163 -4.712561,-5.50614 -1.066137,2.251292 2.421628,5.151791 2.710758,7.004702 1.56619,10.037007 -0.993848,2.633006 -0.982165,4.14037 0.04001,5.162548 1.036064,1.036064 0.991689,2.693768 -0.157156,5.870842 -2.690832,7.441368 -2.180214,8.904467 3.107644,8.904467 6.303229,0 7.628121,3.367886 2.918522,7.418912 -2.964926,2.550323 -4.244324,2.828387 -8.556612,1.859693 -5.095166,-1.144557 -11.070423,-6.505795 -11.070423,-9.932824 0,-1.011367 0.592693,-3.397751 1.317096,-5.303073 0.931289,-2.449479 0.842528,-4.224129 -0.30302,-6.058445 -1.241338,-1.987696 -1.261091,-3.545386 -0.08449,-6.662562 1.365039,-3.616402 1.176526,-4.455825 -1.69698,-7.556387 C 28.998811,45.916325 28.620702,43.82291 30.767951,39.810738 32.009906,37.490122 31.24079,36.203671 25.041057,30.231726 21.102226,26.43761 15.615132,21.430243 12.847519,19.104242 8.598569,15.533274 7.8817236,14.184583 8.2410805,10.437575 8.5962121,6.7346265 9.2640715,5.9310829 12.275344,5.5836993 c 2.415554,-0.2786608 4.399312,0.5275191 6,2.4383433 4.69946,5.6099854 8.031101,6.2469814 37.579547,7.1850554 28.209273,0.895557 28.610218,0.94946 36.619066,4.923065 4.453629,2.209676 8.932023,4.710176 9.951983,5.556667 3.90076,3.237345 11.89247,16.675564 14.85551,24.979838 4.59941,12.890408 8.59128,19.155924 14.06167,22.070778 l 4.87177,2.595889 2.89256,-3.495525 c 2.9596,-3.576555 7.55188,-6.504475 10.20189,-6.504475 2.74263,0 8.02399,7.020761 8.02399,10.666667 0,4.807662 -5.13964,10.117831 -11.50305,11.884716 -2.83999,0.78856 -5.46362,1.368092 -5.83028,1.287849 -0.36667,-0.08024 -2.76667,-0.566954 -5.33334,-1.081581 z"
       id="path505" />
  </g>
</svg>
