<?xml version="1.0" encoding="UTF-8" standalone="no"?>
<!-- Created with Inkscape (http://www.inkscape.org/) -->

<svg
   version="1.1"
   id="svg2"
   width="161.33333"
   height="156"
   viewBox="0 0 161.33333 156"
   xmlns="http://www.w3.org/2000/svg"
   xmlns:svg="http://www.w3.org/2000/svg">
  <defs
     id="defs6" />
  <g
     id="g8">
    <path
       style="fill:#000000;stroke-width:1.33333"
       d="m 89.303997,150.19289 c -0.373516,-0.37352 -18.241418,-0.8344 -39.706449,-1.02416 -25.455967,-0.22505 -39.421789,-0.836 -40.161685,-1.75689 -1.9955809,-2.48373 -3.0354474,-12.42299 -1.5835504,-15.13588 1.7528433,-3.27522 5.9900034,-4.16126 27.4810204,-5.74659 9.533333,-0.70325 18.533333,-1.48347 19.999999,-1.73384 1.466667,-0.25036 3.116667,-0.53178 3.666667,-0.62537 0.55,-0.0936 1,-2.23475 1,-4.75814 0,-2.52339 0.596765,-4.9568 1.326144,-5.40758 0.72938,-0.45078 5.007549,0.52271 9.507041,2.16331 7.625976,2.78056 8.919953,2.87604 19.076387,1.40757 C 95.902091,116.7089 102.99465,116 105.67081,116 c 7.35757,0 19.11148,3.45707 23.98568,7.05469 3.87603,2.86087 5.3706,3.14058 13.88648,2.59881 8.70912,-0.55406 9.67625,-0.35808 11.06829,2.24298 0.83892,1.56755 1.34459,5.92032 1.1237,9.67281 -0.55722,9.46568 -2.38611,10.31519 -14.18832,6.59035 -8.34568,-2.63393 -9.76653,-2.75657 -12.48217,-1.07736 -4.17673,2.58268 -38.203236,8.66784 -39.760473,7.11061 z M 7.5555554,99.111111 C 5.3169922,96.872548 6.7805165,91.250173 14.37346,72.918985 c 3.393837,-8.193536 7.981908,-9.570124 14.167258,-4.25069 4.47532,3.848798 4.150751,3.769044 7.671124,1.884997 3.354603,-1.795328 9.12149,-0.492877 9.12149,2.060088 0,3.615899 2.462779,3.38538 6.452082,-0.603923 4.964383,-4.964384 7.235343,-5.037189 10.692306,-0.34279 2.325059,3.157325 3.035063,3.433804 5.111208,1.990322 6.411478,-4.457708 8.295714,-4.841352 11.139209,-2.268024 2.645735,2.394356 2.890441,2.397163 7.188616,0.08244 4.212245,-2.268444 4.635429,-2.274561 7.93185,-0.114666 3.229754,2.116214 3.811064,2.125576 8.018307,0.129106 5.62374,-2.668641 6.02198,-2.666374 9.02504,0.05136 2.26743,2.052003 2.80324,2.037952 7.77471,-0.203872 4.97148,-2.241824 5.50729,-2.255874 7.77472,-0.20388 3.39206,3.069771 4.55657,2.77641 7.16327,-1.80455 1.70903,-3.003414 3.23521,-3.99157 6.16491,-3.99157 3.48136,0 4.3349,0.923907 8.06201,8.726534 C 150.12421,78.85946 152,83.631228 152,84.663796 c 0,1.032568 0.6851,3.381049 1.52246,5.218848 1.23074,2.701168 1.0971,3.990647 -0.6974,6.729404 C 148.51136,103.19559 140,99.147711 140,90.512644 c 0,-1.958371 -0.9,-3.906036 -2,-4.328145 -1.1,-0.422111 -2,-0.300982 -2,0.269174 0,0.570156 -0.80594,2.138832 -1.79098,3.485946 -1.7203,2.352665 -1.95659,2.326842 -5.98908,-0.6545 l -4.19811,-3.1038 -3.09685,2.909341 c -3.81555,3.584524 -7.08332,3.66632 -12.18255,0.304941 -3.88493,-2.560916 -3.94244,-2.560828 -5.74227,0.0088 -2.16736,3.094342 -6.030581,3.370456 -8.333495,0.595613 -2.23544,-2.69354 -5.319147,-2.473276 -9.333333,0.666667 -4.576716,3.579958 -6.152088,3.324229 -8.213726,-1.333334 -0.973814,-2.2 -2.232562,-4 -2.797218,-4 -0.564655,0 -2.796984,1.95 -4.960729,4.333334 L 65.427575,94 61.143565,89.485508 c -4.076624,-4.295948 -4.333448,-4.380849 -5.305246,-1.753829 -2.325821,6.287293 -9.224784,6.45045 -13.518917,0.319716 -1.751255,-2.500267 -1.901974,-2.451395 -4.143761,1.343649 -2.867431,4.854173 -5.612966,4.976276 -10.32767,0.459304 -4.110441,-3.938053 -5.81259,-3.508855 -7.137481,1.799721 -0.505038,2.023595 -1.864498,4.729264 -3.021022,6.012598 -2.064892,2.291304 -8.3860606,3.192293 -10.1339126,1.444444 z m 59.9999996,-48 c -1.753451,-1.753451 -0.839054,-6.814844 1.84842,-10.231412 l 2.737308,-3.479924 -3.403975,-5.0094 c -4.737796,-6.972292 -4.763779,-16.485118 -0.05788,-21.191015 9.571062,-9.5710631 22.36417,-9.2872828 29.684796,0.658476 4.955516,6.732535 5.208756,11.357684 0.957726,17.491923 -2.026542,2.9243 -4.203019,5.316908 -4.836619,5.316908 -2.287393,0 -1.089359,5.273033 1.514668,6.666666 3.288624,1.760018 3.666929,8.664194 0.540483,9.863924 -1.169402,0.448742 -4.664288,-0.30683 -7.766414,-1.679048 -5.470165,-2.419714 -5.777929,-2.421597 -10.207149,-0.06247 -4.702838,2.504873 -9.448438,3.21829 -11.011363,1.655364 z M 87.186832,28.16188 c 1.246741,-1.377632 2.389733,-4.201471 2.539983,-6.275196 0.212587,-2.934068 -0.544906,-4.17142 -3.414942,-5.578253 -8.094363,-3.967691 -12.213279,3.219644 -6.215101,10.84509 3.288593,4.18077 4.112965,4.298012 7.09006,1.008359 z"
       id="path626" />
  </g>
</svg>
