<?xml version="1.0" encoding="UTF-8" standalone="no"?>
<!-- Created with Inkscape (http://www.inkscape.org/) -->

<svg
   version="1.1"
   id="svg12"
   width="168"
   height="154.66667"
   viewBox="0 0 168 154.66667"
   xmlns="http://www.w3.org/2000/svg"
   xmlns:svg="http://www.w3.org/2000/svg">
  <defs
     id="defs16" />
  <g
     id="g18">
    <path
       style="fill:#000000;stroke-width:1.33333"
       d="m 54.666667,146.70019 c -1.833334,-0.59911 -8.733334,-1.78557 -15.333334,-2.63659 -26.323776,-3.39422 -38.1126507,-9.3092 -32.0049017,-16.05818 1.3300112,-1.46965 3.6872697,-2.67208 5.2383517,-2.67208 1.551082,0 7.060889,-1.17517 12.244014,-2.61149 25.639339,-7.10502 58.91569,-10.09766 76.123573,-6.84602 3.51943,0.66504 12.39896,1.94498 19.7323,2.8443 7.33333,0.89932 14.38122,2.17518 15.66197,2.83523 1.28076,0.66006 5.78076,1.83269 10,2.60585 8.2274,1.50763 12.33803,4.15586 12.33803,7.94867 0,2.68947 -5.98834,7.89012 -9.08515,7.89012 -1.13237,0 -3.90145,0.5724 -6.15352,1.27199 -15.68627,4.87288 -32.0492,6.72599 -58.478745,6.62275 C 70.127165,147.83684 56.5,147.2993 54.666667,146.70019 Z m 65.694723,-12.27351 c 6.67662,-1.27518 7.38229,-1.68725 5.33334,-3.11436 -6.08632,-4.23917 -46.44461,-6.39046 -64.361397,-3.43078 -4.766666,0.78741 -11.516666,1.43618 -15,1.44172 C 41.904764,129.33031 40,129.87565 40,131.13654 c 0,1.31499 3.339203,2.06776 12.333333,2.78037 6.783334,0.53745 16.833334,1.40172 22.333334,1.92059 12.732422,1.2012 35.737723,0.49092 45.694723,-1.41082 z M 10.341544,69.608252 c -3.0874788,-3.720184 0.568713,-8.70694 10.03702,-13.689701 4.962339,-2.611466 9.969153,-5.694838 11.126255,-6.851941 1.157102,-1.157102 4.607992,-7.684301 7.668644,-14.504887 C 44.344316,23.038608 45.391775,21.662352 53.968852,15.12208 64.654673,6.9738302 72.37808,4.860434 78.002428,8.5456483 l 3.330905,2.1824937 v 29.344443 c 0,22.294259 -0.400426,29.476166 -1.666666,29.892705 C 78.75,70.266835 63.106912,70.707564 44.904251,70.94469 18.636673,71.286876 11.505844,71.011148 10.341544,69.608252 Z M 127.0263,71.003656 C 106.23792,70.51575 105.69474,70.14157 107.43097,57.505003 c 0.56714,-4.127751 0.85516,-8.105002 0.64005,-8.838335 -1.04828,-3.573631 -0.75257,-38.8807058 0.3378,-40.3333345 0.92123,-1.2272875 7.69844,-1.6666667 25.70753,-1.6666667 22.96493,0 24.5422,0.160142 25.86177,2.6257746 0.87341,1.6320076 1.34284,13.2552176 1.24033,30.7113426 -0.18892,32.166908 -0.19234,32.177467 -10.31369,31.705056 -3.43095,-0.160138 -14.17625,-0.477472 -23.87846,-0.705184 z"
       id="path487" />
  </g>
</svg>
