<?xml version="1.0" encoding="UTF-8" standalone="no"?>
<!-- Created with Inkscape (http://www.inkscape.org/) -->

<svg
   version="1.1"
   id="svg22"
   width="164"
   height="153.33333"
   viewBox="0 0 164 153.33333"
   xmlns="http://www.w3.org/2000/svg"
   xmlns:svg="http://www.w3.org/2000/svg">
  <defs
     id="defs26" />
  <g
     id="g28">
    <path
       style="fill:#000000;stroke-width:1.33333"
       d="M 10.347268,145.00625 C 7.0532481,142.47788 5.9622893,134.22818 8.5762717,131.6142 c 1.8013953,-1.80139 4.9820713,-2.04725 20.6483043,-1.59607 10.185391,0.29334 19.971133,0.89783 21.746095,1.34332 4.858272,1.21935 7.072528,-2.09643 4.629373,-6.93234 -4.173249,-8.26041 2.867049,-9.87313 10.365705,-2.37447 l 4.721306,4.7213 5.242212,-4.21276 5.242212,-4.21275 5.835226,2.82478 c 7.572398,3.66574 8.437147,3.58934 13.926515,-1.23039 3.3876,-2.97436 5.38907,-3.81864 7.50935,-3.1677 4.17041,1.28035 4.27531,1.55051 2.43595,6.27376 -0.91724,2.35535 -1.79014,4.88245 -1.93978,5.61578 -0.17216,0.8437 7.62766,1.34854 21.23955,1.37474 15.98102,0.0308 22.06568,0.50123 23.66667,1.82993 2.19896,1.82496 2.90396,8.99345 1.13463,11.53673 -0.66326,0.95336 -23.06217,1.4676 -69.362162,1.59244 -37.610415,0.10147 -69.441889,0.5206 -70.736609,0.93152 -1.29472,0.41094 -3.334818,-0.005 -4.533551,-0.92577 z M 45.008211,68.274916 c -3.087479,-3.720184 0.568712,-8.70694 10.03702,-13.689701 4.962338,-2.611465 9.969153,-5.694837 11.126254,-6.85194 1.157103,-1.157103 4.607992,-7.684301 7.668644,-14.504886 C 79.010983,21.705274 80.058441,20.329018 88.635519,13.788746 99.32134,5.6404965 107.04475,3.5271005 112.66909,7.2123146 L 116,9.3948078 V 38.73925 c 0,22.294258 -0.40043,29.476165 -1.66667,29.892703 -0.91666,0.301546 -16.559751,0.742275 -34.762413,0.9794 -26.267577,0.342187 -33.398406,0.06645 -34.562706,-1.336437 z"
       id="path348" />
  </g>
</svg>
