<?xml version="1.0" encoding="UTF-8" standalone="no"?>
<!-- Created with Inkscape (http://www.inkscape.org/) -->

<svg
   version="1.1"
   id="svg32"
   width="162.66667"
   height="154.66667"
   viewBox="0 0 162.66667 154.66667"
   xmlns="http://www.w3.org/2000/svg"
   xmlns:svg="http://www.w3.org/2000/svg">
  <defs
     id="defs36" />
  <g
     id="g38">
    <path
       style="fill:#000000;stroke-width:1.33333"
       d="m 50.933334,147.73334 c -3.520496,-3.5205 -1.817693,-7.7101 4.654218,-11.45131 9.701893,-5.60835 14.943047,-11.80633 21.050483,-24.89346 4.318221,-9.25317 7.358661,-13.682285 13.080775,-19.055235 6.99094,-6.564353 7.880221,-7 14.28903,-7 12.89964,0 12.42076,-1.345192 11.31726,31.790315 -0.52891,15.88199 -1.5669,29.62635 -2.30664,30.54302 -1.8828,2.33313 -59.756519,2.39527 -62.085126,0.0667 z M 50.634085,52.793749 C 43.567065,50.597488 37.966686,46.765529 35.350055,42.335928 33.083987,38.499779 32.776022,38.399885 26.169334,39.357981 13.017879,41.265196 7.3123589,39.703552 5.828272,33.790478 5.1139429,30.944365 5.8403299,29.492535 9.8903791,25.671546 L 14.822367,21.018496 10.07785,17.794514 C 5.2175153,14.491831 4.0985676,11.101433 6.9333335,8.2666668 9.1500186,6.0499817 14.006148,6.2642228 16,8.6666669 c 2.203706,2.6553021 3.39101,2.5300791 7.946751,-0.8381261 4.629043,-3.4223988 10.088468,-2.5852054 11.467094,1.758459 0.690322,2.1750132 0.121053,3.5268212 -2.244467,5.3297662 -8.115823,6.185704 -8.171424,6.501088 -1.836363,10.416372 2.566492,1.586179 6.785611,5.470241 9.375821,8.631249 7.852346,9.582755 13.694188,10.592718 26.782543,4.630283 3.386962,-1.54294 9.161111,-3.280055 12.831441,-3.860256 8.554128,-1.352225 27.399,0.58192 37.67718,3.867004 13.36258,4.270907 19.58583,5.667676 29.19307,6.552195 6.81864,0.62778 9.57367,1.46922 10.66667,3.257813 1.17517,1.923083 0.96129,2.791987 -1.05616,4.290623 -1.39138,1.033559 -2.99806,1.589776 -3.57042,1.236037 -3.78193,-2.337356 -85.468263,-3.097058 -93.578696,-0.870305 -2.757923,0.757199 -6.021124,0.658065 -9.020379,-0.274032 z"
       id="path209" />
  </g>
</svg>
