<?xml version="1.0" encoding="UTF-8" standalone="no"?>
<!-- Created with Inkscape (http://www.inkscape.org/) -->

<svg
   version="1.1"
   id="svg42"
   width="162.66667"
   height="154.66667"
   viewBox="0 0 162.66667 154.66667"
   xmlns="http://www.w3.org/2000/svg"
   xmlns:svg="http://www.w3.org/2000/svg">
  <defs
     id="defs46" />
  <g
     id="g48">
    <path
       style="fill:#000000;stroke-width:1.33333"
       d="m 128.66667,147.18087 c -18.79853,-2.0912 -50.490567,-2.70172 -64.666669,-1.24575 -13.774699,1.41476 -19.741636,-0.38432 -26.413398,-7.96384 -5.635158,-6.40188 -6.445673,-6.62193 -19.100805,-5.18577 -6.536021,0.74175 -7.881193,0.48576 -10.3333345,-1.96638 -3.9215854,-3.92158 -3.5493821,-6.19939 1.9359235,-11.84742 l 4.755053,-4.89613 -4.234064,-3.45567 c -5.15387,-4.20638 -4.997212,-8.41801 0.336087,-9.03544 1.974131,-0.22855 4.777648,0.22043 6.23004,0.99773 1.882884,1.00769 4.589053,0.96353 9.429875,-0.15386 5.06328,-1.16875 7.173759,-1.18254 8.302052,-0.0542 1.986569,1.98657 -0.65134,5.30685 -4.670924,5.87919 -2.027999,0.28876 -3.028137,1.49573 -3.317712,4.00381 -0.326221,2.82548 0.408983,4.01629 3.450772,5.58927 2.125921,1.09935 7.412465,5.62963 11.747874,10.06728 8.828996,9.03719 12.059309,9.91363 20.367688,5.52607 2.666513,-1.40816 6.88774,-3.20816 9.380504,-4 5.607918,-1.78139 26.338502,-1.88339 33.877278,-0.16668 17.95308,4.08823 24.54367,5.82536 26.92376,7.09651 1.46667,0.78331 7.46667,1.4706 13.33333,1.52732 l 10.66667,0.10307 0.41788,4.33418 c 0.35068,3.6373 -0.14565,4.54846 -3.0868,5.66667 -4.04867,1.53931 -4.15309,1.53592 -25.33108,-0.81999 z M 52.266668,67.733335 C 48.746172,64.212839 50.448974,60.023239 56.920885,56.282033 66.622779,50.673676 71.863932,44.475696 77.971368,31.388569 82.28959,22.135402 85.33003,17.706283 91.052143,12.333334 98.043083,5.76898 98.932365,5.3333334 105.34118,5.3333334 c 12.89963,0 12.42075,-1.3451918 11.31726,31.7903126 -0.52891,15.881995 -1.5669,29.626355 -2.30664,30.543022 -1.88281,2.333128 -59.756526,2.395274 -62.085132,0.06667 z"
       id="path70" />
  </g>
</svg>
