<?xml version="1.0" encoding="UTF-8" standalone="no"?>
<!-- Created with Inkscape (http://www.inkscape.org/) -->

<svg
   version="1.1"
   id="svg2"
   width="158.66667"
   height="157.33333"
   viewBox="0 0 158.66667 157.33333"
   xmlns="http://www.w3.org/2000/svg"
   xmlns:svg="http://www.w3.org/2000/svg">
  <defs
     id="defs6" />
  <g
     id="g8">
    <path
       style="fill:#000000;stroke-width:1.33333"
       d="m 6.6639213,149.99669 c -2.15927,-2.60176 -1.1261392,-7.46515 3.9317187,-18.50828 2.239065,-4.88869 4.071027,-9.38051 4.071027,-9.98182 0,-0.60131 1.157001,-2.14036 2.571115,-3.42012 3.0766,-2.78428 6.671908,-1.9452 11.72294,2.73594 3.033569,2.81142 3.706156,2.98779 4.689951,1.22985 1.531284,-2.73626 7.523371,-2.60972 10.655721,0.22502 2.037195,1.84363 2.945827,1.96874 4.771655,0.65699 6.629271,-4.76275 8.128592,-4.8879 12.170183,-1.01581 l 3.864768,3.70269 2.406488,-2.81058 c 3.098281,-3.61853 6.835346,-3.56836 10.787836,0.14481 2.602788,2.44519 3.538319,2.6739 5.419268,1.32485 4.458441,-3.19769 6.01321,-3.33441 10.491597,-0.92264 4.485528,2.41561 4.55959,2.41046 6.568191,-0.45722 2.72,-3.88335 5.84463,-3.65555 9.30009,0.67802 l 2.85331,3.57839 2.4931,-2.91172 c 2.86537,-3.34652 7.86993,-3.7994 10.70095,-0.96838 2.57237,2.57237 4.85705,1.53246 6.93203,-3.15525 3.20893,-7.24948 9.65084,-6.09134 12.36037,2.22219 0.89444,2.74434 3.13037,8.28971 4.96873,12.32304 1.83836,4.03334 3.40156,9.43334 3.47376,12 0.12827,4.55794 0.0107,4.66667 -5.06788,4.66667 -4.84568,0 -5.3214,-0.35308 -6.99709,-5.19321 -2.8618,-8.26611 -4.31728,-9.3611 -7.33819,-5.52063 -2.57347,3.27164 -3.93431,3.33043 -10.01107,0.43247 -2.186,-1.04248 -3.62118,-0.85294 -5.96334,0.78757 -4.12489,2.88919 -6.38683,2.72331 -10.07188,-0.73861 l -3.08593,-2.8991 -3,2.70074 c -5.107425,4.59792 -6.019458,4.622 -10.090115,0.2664 l -3.935684,-4.21118 -2.307117,3.52111 c -2.980358,4.5486 -7.874528,4.63688 -10.78526,0.19455 l -2.179646,-3.32656 -3.953393,3.32656 c -4.787884,4.02873 -6.593114,4.14688 -9.767514,0.6392 l -2.432026,-2.68736 -2.86056,2.68736 c -3.603717,3.38552 -6.101841,3.39049 -10.385852,0.0207 -3.648144,-2.86963 -6.302839,-3.45097 -6.302839,-1.38024 0,0.70753 -1.271968,1.96716 -2.826596,2.79916 -2.32266,1.24305 -3.527528,0.99453 -6.758144,-1.39396 -4.887595,-3.61356 -7.223978,-2.81527 -8.443496,2.88495 -0.520496,2.43288 -1.550542,5.17342 -2.288987,6.09009 -1.855437,2.30324 -8.3361891,2.09249 -10.3521897,-0.33664 z M 99.333335,70.506687 C 87.758727,67.847183 76.443124,63.52788 72.000002,60.073224 66.391585,55.712519 61.229483,54.534999 53.761077,55.912771 c -8.161303,1.505596 -8.930048,0.543469 -7.823292,-9.791272 1.247641,-11.650301 5.411951,-17.123512 12.572903,-16.524746 4.011384,0.335413 5.049961,1.076124 6.173943,4.403246 1.954445,5.785395 8.695633,15.333333 10.825885,15.333333 1.002551,0 1.822819,0.7 1.822819,1.555556 0,0.855555 0.341573,1.213983 0.759051,0.796504 0.417477,-0.417477 0.197904,-1.867477 -0.487942,-3.222221 C 76.231579,45.751363 73.813812,39.003955 71.846626,32.394474 71.14728,30.044767 68.222575,25.673786 65.347283,22.681182 59.46606,16.560009 59.513469,15.015729 65.787759,8.3333332 70.564773,3.2455999 71.136684,3.1675485 78.000002,6.6666665 c 2.876781,1.4666667 6.238601,2.6666666 7.470712,2.6666666 3.908957,0 4.146257,5.8828629 0.527893,13.0868649 -4.309819,8.580653 -4.200209,11.642356 0.790855,22.091069 4.717636,9.876296 8.725267,13.013232 7.472245,5.848831 -0.419409,-2.398055 -1.727102,-9.748658 -2.905986,-16.334672 -1.736114,-9.699069 -1.829276,-12.561564 -0.490259,-15.063542 1.522459,-2.844739 2.238832,-3.020336 9.06052,-2.220914 11.877508,1.391907 13.018828,4.599571 6.670798,18.74812 -5.38186,11.99517 -4.66087,17.018529 3.61345,25.175793 5.15058,5.077716 5.75679,6.238722 4.49172,8.602522 -1.61267,3.013307 -6.07997,3.373537 -15.368615,1.239282 z"
       id="path328" />
  </g>
</svg>
