<?xml version="1.0" encoding="UTF-8" standalone="no"?>
<!-- Created with Inkscape (http://www.inkscape.org/) -->

<svg
   version="1.1"
   id="svg12"
   width="134.66667"
   height="152"
   viewBox="0 0 134.66667 152"
   xmlns="http://www.w3.org/2000/svg"
   xmlns:svg="http://www.w3.org/2000/svg">
  <defs
     id="defs16" />
  <g
     id="g18">
    <path
       style="fill:#000000;stroke-width:1.33333"
       d="m 7.3812722,144.8666 c -1.9178554,-1.40237 -2.2879974,-2.87072 -1.6753418,-6.64608 0.4325194,-2.66531 0.2675081,-6.65527 -0.3666916,-8.8666 -1.454021,-5.06987 0.1898292,-10.95035 4.4895509,-16.06027 2.9118763,-3.46057 3.1507073,-4.48361 1.9347273,-8.28745 -3.573336,-11.178156 -3.0766577,-15.782065 2.405462,-22.297195 3.393971,-4.033504 3.453075,-4.40012 1.897395,-11.769429 -1.840988,-8.720824 -0.864896,-12.552953 4.458828,-17.505328 2.983119,-2.775035 3.474799,-4.340893 3.474799,-11.066213 0,-10.492484 2.290873,-14.400578 11.034711,-18.824555 3.986046,-2.016756 8.066413,-5.197248 9.067481,-7.067761 1.001068,-1.870512 3.615104,-4.911308 5.808968,-6.7573229 3.701871,-3.1149196 4.759842,-3.3139657 14.705509,-2.7666904 9.381285,0.5162194 12.039633,1.2828475 21.333728,6.1523313 5.839384,3.059446 11.252678,5.56263 12.029542,5.56263 0.776864,0 3.62315,1.822221 6.32508,4.049381 2.70193,2.227159 7.52594,5.205383 10.72002,6.618276 8.48128,3.751676 10.93078,7.056124 11.22256,15.139605 0.13618,3.772672 0.81664,10.986094 1.51214,16.029826 2.10651,15.276426 -2.4101,24.318542 -13.7305,27.488058 -5.43411,1.521458 -6.73025,1.405727 -12.88016,-1.15006 C 97.388172,85.278789 93.817718,84 93.214744,84 c -0.602975,0 -3.306691,-1.5 -6.008259,-3.333333 -2.701568,-1.833334 -6.23522,-3.333334 -7.852562,-3.333334 -4.887385,0 -7.353921,-4.066688 -7.353921,-12.124733 0,-4.666037 -0.936524,-8.995441 -2.62892,-12.153085 C 66.46192,47.627649 65.615046,40.237373 67.159879,33.759379 68.007358,30.20562 67.708,29.270883 65.311682,27.988412 c -2.509,-1.342776 -3.459162,-0.904731 -7.752245,3.573955 -2.691022,2.807365 -6.542769,6.168132 -8.559436,7.46837 -3.136077,2.021975 -3.666667,3.261975 -3.666667,8.569087 0,4.964235 -0.976374,7.622669 -4.882738,13.294537 -4.710872,6.839975 -4.822908,7.270814 -3.18291,12.240058 1.944179,5.89092 1.19,9.223369 -3.791112,16.751578 -2.868429,4.335206 -3.476573,6.80033 -3.476573,14.092373 0,7.73096 -0.467035,9.39348 -3.728431,13.2722 -2.309225,2.74633 -3.628385,5.76298 -3.4656,7.92513 0.732732,9.73229 -0.187889,13.74469 -4.036739,17.59353 -4.259636,4.25964 -7.591638,4.8733 -11.3879588,2.09737 z"
       id="path189" />
  </g>
</svg>
