<?xml version="1.0" encoding="UTF-8" standalone="no"?>
<!-- Created with Inkscape (http://www.inkscape.org/) -->

<svg
   version="1.1"
   id="svg22"
   width="157.33333"
   height="164"
   viewBox="0 0 157.33333 164"
   xmlns="http://www.w3.org/2000/svg"
   xmlns:svg="http://www.w3.org/2000/svg">
  <defs
     id="defs26" />
  <g
     id="g28">
    <path
       style="fill:#000000;stroke-width:1.33333"
       d="m 43.818904,156.08131 c -2.666269,-0.51995 -7.994646,-3.45095 -11.840838,-6.51334 -7.703233,-6.13341 -8.927992,-6.48094 -12.723226,-3.61037 -1.423496,1.07667 -4.494228,1.97667 -6.823851,2 -8.026079,0.0804 -9.7472036,-10.52611 -2.9279481,-18.04353 3.2359481,-3.56725 3.1482941,-5.99104 -0.4363744,-12.06661 -2.3822729,-4.03765 -2.9333333,-7.03434 -2.9333333,-15.95161 0,-12.355018 0.7977193,-13.949434 9.0977158,-18.183777 7.511427,-3.832044 16.702129,-3.574765 27.540231,0.770943 10.426819,4.180799 11.560106,4.241423 15.895385,0.850317 6.104574,-4.775066 14.666667,-2.343969 14.666667,4.164415 0,1.452332 -1.273064,4.859475 -2.829032,7.571428 L 67.675268,102 l 4.669158,8 c 6.470031,11.08556 8.165555,19.7987 5.560028,28.57245 -4.475874,15.07191 -16.062331,21.02358 -34.08555,17.50886 z m 45.228487,-3.04288 c -1.86439,-1.42296 -2.288109,-4.6919 -2.560738,-19.75583 -0.179676,-9.9279 0.122733,-18.7779 0.67202,-19.66666 C 87.707959,112.72717 90.836817,112 94.111689,112 c 4.982886,0 6.121181,0.48944 6.977161,3 1.39946,4.10459 0.92153,35.54081 -0.56149,36.93216 -2.32043,2.17701 -9.207498,2.84068 -11.479969,1.10627 z m 20.896839,-0.24767 c -2.34855,-1.71729 -2.53062,-3.38007 -2.15342,-19.66666 0.32213,-13.90933 0.87133,-18.29983 2.51726,-20.1241 2.7999,-3.10327 10.5233,-3.09594 12.18639,0.0116 0.69023,1.2897 1.22345,10.33473 1.18493,20.10007 -0.0765,19.40052 -0.82813,21.555 -7.51979,21.555 -2.00746,0 -4.80438,-0.84416 -6.21537,-1.87591 z m 29.16075,-0.0677 c -2.3256,-1.01162 -4.83985,-2.9819 -5.58724,-4.3784 -1.69541,-3.16791 -0.46844,-33.66104 1.449,-36.01126 0.74788,-0.91666 3.57163,-1.66666 6.27502,-1.66666 8.59041,0 9.2753,1.34117 10.25924,20.08997 0.7708,14.68763 0.59002,17.19827 -1.46415,20.33333 -2.6202,3.99892 -4.75857,4.31836 -10.93187,1.63302 z M 5.3305878,40.663359 c -2.15927,-2.601762 -1.1261392,-7.46515 3.9317187,-18.508282 2.2390645,-4.888688 4.0710265,-9.380505 4.0710265,-9.981817 0,-0.601311 1.157001,-2.140365 2.571115,-3.4201204 3.0766,-2.7842837 6.671908,-1.945198 11.722939,2.7359404 3.03357,2.811417 3.706156,2.987789 4.689951,1.229845 1.531284,-2.7362529 7.52337,-2.609714 10.655721,0.225024 2.037195,1.843635 2.945827,1.968742 4.771655,0.656988 6.62927,-4.7627502 8.128591,-4.8878934 12.170182,-1.015803 l 3.864768,3.702681 2.406488,-2.810574 c 3.098281,-3.6185289 6.835345,-3.5683657 10.787836,0.144807 2.602788,2.445192 3.538318,2.673901 5.419268,1.324847 4.458439,-3.197681 6.013209,-3.334409 10.491595,-0.922639 4.485528,2.415617 4.559591,2.410461 6.568187,-0.457212 2.720002,-3.8833516 5.844632,-3.6555539 9.300102,0.678015 l 2.85331,3.578392 2.49309,-2.911726 c 2.86538,-3.346512 7.86993,-3.799397 10.70095,-0.968378 2.57237,2.572376 4.85705,1.53246 6.93203,-3.155251 3.20893,-7.2494816 9.65084,-6.0913356 12.36037,2.22219 0.89444,2.744343 3.13037,8.289714 4.96873,12.323047 1.83836,4.033334 3.40156,9.433334 3.47376,12 C 152.66365,41.891261 152.54605,42 147.4675,42 c -4.84568,0 -5.3214,-0.353079 -6.99709,-5.193217 -2.8618,-8.266108 -4.31728,-9.361084 -7.33819,-5.52062 -2.57347,3.271637 -3.9343,3.330424 -10.01107,0.432468 -2.18599,-1.042483 -3.62118,-0.85294 -5.96334,0.78757 -4.12489,2.889184 -6.38683,2.723306 -10.07188,-0.73862 L 104,28.868496 l -3,2.700731 c -5.107422,4.597921 -6.019455,4.622001 -10.090113,0.266406 l -3.935684,-4.211174 -2.307115,3.521104 c -2.980359,4.548601 -7.874528,4.636882 -10.78526,0.194544 l -2.179647,-3.32656 -3.953392,3.32656 c -4.787884,4.028738 -6.593114,4.146876 -9.767514,0.639202 L 55.549249,29.291953 52.68869,31.979309 C 49.084972,35.364827 46.586848,35.369803 42.302838,32 c -3.648144,-2.869631 -6.302839,-3.450976 -6.302839,-1.380245 0,0.707532 -1.271968,1.967158 -2.826596,2.79917 -2.32266,1.24305 -3.527528,0.994527 -6.758144,-1.39397 C 21.527665,28.4114 19.191282,29.209689 17.971764,34.909907 17.451268,37.342792 16.421222,40.083333 15.682777,41 13.82734,43.303237 7.3465882,43.092491 5.3305878,40.663359 Z"
       id="path50" />
  </g>
</svg>
