<?xml version="1.0" encoding="UTF-8" standalone="no"?>
<!-- Created with Inkscape (http://www.inkscape.org/) -->

<svg
   version="1.1"
   id="svg2"
   width="168"
   height="162.66667"
   viewBox="0 0 168 162.66667"
   xmlns="http://www.w3.org/2000/svg"
   xmlns:svg="http://www.w3.org/2000/svg">
  <defs
     id="defs6" />
  <g
     id="g8">
    <path
       style="fill:#000000;stroke-width:1.33333"
       d="m 74,156.2111 c -6.076255,-3.71503 -7.555556,-6.20058 -7.555556,-12.69498 0,-6.99378 1.535964,-10.32295 6.160695,-13.35319 3.607584,-2.36378 16.457094,-4.03785 18.80548,-2.45003 3.962272,2.67903 5.922714,7.90842 5.922714,15.79858 0,7.57719 -0.335226,8.53355 -4.1023,11.70334 C 88.232668,159.42066 79.951235,159.84968 74,156.2111 Z M 12.620376,154.81136 C 7.671506,152.65935 6.1163937,149.42231 6.2983281,141.65174 6.5131648,132.47586 9.609692,127.81082 16.42554,126.3947 c 10.330084,-2.14628 19.084824,4.06294 20.488967,14.53161 0.613402,4.57325 0.157688,5.98845 -3.09765,9.61959 -3.21418,3.58524 -4.974781,4.35125 -11.15019,4.85134 -4.033334,0.32662 -8.554164,0.0629 -10.046291,-0.58588 z m 125.333334,0 c -4.94887,-2.15201 -6.50398,-5.38905 -6.32205,-13.15962 0.21484,-9.17588 3.31137,-13.84092 10.12722,-15.25704 10.33008,-2.14628 19.08481,4.06294 20.48896,14.53161 0.6134,4.57325 0.15769,5.98845 -3.09765,9.61959 -3.21418,3.58524 -4.97478,4.35125 -11.15019,4.85134 -4.03333,0.32662 -8.55416,0.0629 -10.04629,-0.58588 z M 65.6,105.06667 C 64.536347,104.00302 64,98.192594 64,87.733335 64,66.952079 64.250837,66.666668 82.514745,66.666668 h 13.181411 l 2.390967,5 c 2.892787,6.049406 3.297407,29.725182 0.564282,33.018392 -2.125516,2.56109 -30.543808,2.88921 -33.051405,0.38161 z M 118.22549,64.45366 C 118.10147,64.336505 94,63.953769 64.666667,63.603136 35.333333,63.252501 10.278154,62.532175 8.9884909,62.002408 7.6988276,61.472643 6.2556327,59.49322 5.7813912,57.603691 5.023722,54.584897 6.2626931,52.906792 15.995844,43.768892 27.443987,33.020883 37.885351,26.666667 44.098533,26.666667 c 5.830574,0 7.171059,-2.924403 4.09991,-8.944355 -3.359931,-6.586007 -1.913916,-9.7223118 4.482537,-9.7223118 5.214105,0 9.985687,4.1755128 9.985687,8.7382708 0,4.313313 4.979898,9.928396 8.805286,9.928396 4.309882,0 5.462951,-3.390652 2.727731,-8.021012 -4.518157,-7.648629 -1.250389,-12.7891293 7.071853,-11.1246806 4.626435,0.9252868 6.057167,2.8781466 7.416259,10.1227336 0.995393,5.305899 2.294664,6.846893 6.985439,8.285042 4.457305,1.366571 5.404235,-2.651378 2.013397,-8.543094 -3.692771,-6.416328 -2.121177,-9.3856558 4.967598,-9.3856558 5.76029,0 6.42522,0.6530872 9.45461,9.2862098 1.70792,4.867212 2.92288,6.24321 6.39067,7.237761 6.18138,1.772794 8.2478,-0.640099 5.15833,-6.023195 -3.2055,-5.585262 -2.91882,-8.9538253 0.9105,-10.6985822 6.20628,-2.8277685 9.89942,-0.4940843 14.12601,8.9261612 l 3.8763,8.639559 7.32908,-0.861391 c 6.94488,-0.816233 7.41059,-0.682504 8.8839,2.551055 2.53508,5.563899 0.65788,9.83362 -4.7712,10.852121 -2.57351,0.482792 -4.6791,1.411555 -4.6791,2.063919 0,2.875798 3.07359,8.804459 6.71395,12.950612 4.55519,5.188059 4.87199,7.164907 1.61939,10.104835 -1.9202,1.735608 -5.59851,2.067296 -20.77451,1.873318 C 126.74951,64.77274 118.34951,64.570815 118.22549,64.45366 Z M 62.666667,52.012072 c 1.727149,-1.105746 1.543384,-2.14889 -1.346998,-7.64625 -3.208689,-6.102765 -3.565953,-6.3522 -8.645584,-6.036185 -6.45678,0.401689 -18.843606,6.250084 -20.739132,9.791904 -1.695164,3.167443 -0.66276,3.635616 9.39838,4.261971 15.193738,0.945885 19.389819,0.872825 21.333334,-0.37144 z m 25.056005,-2.06512 C 88.344704,45.601761 82.508531,38.06873 78.127835,37.56243 c -2.082315,-0.240663 -4.291019,0.06743 -4.908232,0.684635 -1.586414,1.586413 1.97375,11.198877 4.955148,13.378928 3.583908,2.620617 9.070529,1.655772 9.547921,-1.679041 z m 23.317598,1.719716 c 2.05708,-1.546703 2.03364,-2.071159 -0.32557,-7.286283 -2.57288,-5.687458 -7.00416,-8.244575 -11.378385,-6.566027 -4.021136,1.543055 -1.304888,11.480046 3.815795,13.959523 3.85934,1.868725 5.28601,1.849333 7.88816,-0.107213 z m 27.4388,-0.107294 c 1.39004,-1.674897 -0.84142,-5.99693 -6.48439,-12.559379 -1.43435,-1.668062 -8.22886,-2.321378 -9.62478,-0.925456 -0.86809,0.868092 1.57296,9.868199 3.30342,12.179642 1.03213,1.378667 3.10431,1.985635 9.83009,2.879372 0.82687,0.10988 2.16592,-0.598503 2.97566,-1.574179 z"
       id="path626" />
  </g>
</svg>
