<?xml version="1.0" encoding="UTF-8" standalone="no"?>
<!-- Created with Inkscape (http://www.inkscape.org/) -->

<svg
   version="1.1"
   id="svg12"
   width="88"
   height="172"
   viewBox="0 0 88 172"
   xmlns="http://www.w3.org/2000/svg"
   xmlns:svg="http://www.w3.org/2000/svg">
  <defs
     id="defs16" />
  <g
     id="g18">
    <path
       style="fill:#000000;stroke-width:1.33333"
       d="m 38.666667,164.92467 c -3.29602,-1.68363 -3.333392,-1.8961 -3.338554,-18.98035 -0.0029,-9.50271 0.46824,-18.32765 1.046912,-19.61099 C 37.150207,124.6142 39.001699,124 43.408831,124 c 4.935442,0 6.20533,0.52472 7.260408,3 1.923608,4.51292 3.630706,20.28621 2.505641,23.15169 -0.543099,1.38323 -1.029624,4.73095 -1.081167,7.43938 -0.14613,7.67877 -6.237782,11.00592 -13.427046,7.3336 z M 6.6810365,115.35065 c -0.9050154,-1.09048 -1.2987842,-3.34048 -0.8750418,-5 1.1833456,-4.6344 8.5545263,-12.806937 14.1052453,-15.638701 5.566759,-2.839949 24.835167,-8.056238 29.644244,-8.025208 7.510973,0.04847 19.665093,6.71409 28.111183,15.416879 5.530314,5.69839 5.870521,6.86286 3.108568,10.64005 -2.296491,3.14064 -14.890894,4.27397 -49.611975,4.46441 -18.693753,0.10253 -23.1352604,-0.23444 -24.4822235,-1.85743 z M 47.818905,81.414639 C 45.152636,80.894688 39.824259,77.963687 35.978067,74.901304 28.274833,68.767897 27.050075,68.420357 23.25484,71.290929 c -1.423496,1.076678 -4.494228,1.976678 -6.823851,2 -8.0260789,0.08035 -9.7472035,-10.526109 -2.927948,-18.04353 3.235948,-3.56725 3.148294,-5.99104 -0.436374,-12.066602 -2.382273,-4.037652 -2.933334,-7.034346 -2.933334,-15.951616 0,-12.355016 0.79772,-13.949432 9.097716,-18.1837745 7.511427,-3.8320434 16.70213,-3.5747648 27.540232,0.7709434 10.426819,4.1807981 11.560106,4.2414221 15.895386,0.8503171 6.104573,-4.7750669 14.666666,-2.343969 14.666666,4.164414 0,1.452332 -1.273064,4.859475 -2.829032,7.571428 l -2.829032,4.930824 4.669159,8 c 6.470031,11.085563 8.165555,19.7987 5.560028,28.572458 -4.475875,15.071906 -16.062332,21.023564 -34.085551,17.508848 z"
       id="path487" />
  </g>
</svg>
