<?xml version="1.0" encoding="UTF-8" standalone="no"?>
<!-- Created with Inkscape (http://www.inkscape.org/) -->

<svg
   version="1.1"
   id="svg22"
   width="105.33333"
   height="158.66667"
   viewBox="0 0 105.33333 158.66667"
   xmlns="http://www.w3.org/2000/svg"
   xmlns:svg="http://www.w3.org/2000/svg">
  <defs
     id="defs26" />
  <g
     id="g28">
    <path
       style="fill:#000000;stroke-width:1.33333"
       d="m 5.5354757,152.15315 c -3.1115406,-1.97187 -1.096093,-6.06425 3.8140983,-7.74456 4.33893,-1.48481 4.410095,-1.59645 1.062448,-1.66667 -6.8671396,-0.14402 -6.2088841,-4.90065 1.422662,-10.28029 4.546731,-3.20509 4.615525,-3.35711 1.165316,-2.57516 -3.2070952,0.72685 -3.666667,0.43257 -3.666667,-2.34792 0,-1.74841 1.191384,-4.69352 2.64752,-6.5447 2.317763,-2.94656 2.400797,-3.57054 0.666666,-5.00974 -3.2745265,-2.71761 -2.263853,-6.5268 3.019147,-11.37905 3.662137,-3.36354 4.375664,-4.59402 2.666667,-4.59869 -3.925147,-0.01066 -3.021561,-7.242116 1.333333,-10.67068 2.016667,-1.587701 2.632535,-2.562666 1.368596,-2.166587 -1.355141,0.424659 -2.815605,-0.20464 -3.559385,-1.533701 -1.997767,-3.569811 2.118158,-9.262466 7.415514,-10.256255 2.443068,-0.458323 4.441941,-1.446559 4.441941,-2.19608 0,-1.23012 -2.242373,-0.895941 -7.666666,1.142556 -2.118673,0.796217 -2.092976,0.353679 0.313969,-5.406955 1.089351,-2.607183 3.21069,-5.601892 4.714085,-6.654912 2.442287,-1.710644 3.50953,-1.551429 10.019363,1.494729 4.007254,1.87512 7.285916,3.882055 7.285916,4.459854 0,1.705145 -5.219551,9.781663 -6.321522,9.781663 -0.556497,0 -0.839102,1.35 -0.628013,3 0.25292,1.976972 -0.315428,3 -1.666666,3 -2.628604,0 -2.663003,2.14631 -0.05047,3.148834 1.259928,0.483481 2,2.525278 2,5.517833 0,2.992554 -0.740072,5.034352 -2,5.517832 -2.384003,0.914826 -2.601785,4.888069 -0.456239,8.323639 3.069579,4.91518 -2.133792,10.09687 -7.053716,7.02433 -3.82897,-2.39124 -2.95395,0.46516 1.509956,4.92907 2.2,2.2 4,4.93472 4,6.07716 0,2.74 -6.131152,4.23226 -8.683981,2.1136 -1.616134,-1.34127 -1.982685,-1.24555 -1.982685,0.51778 0,1.18979 0.851064,2.16326 1.891255,2.16326 2.182591,0 7.442078,7.91474 7.442078,11.19922 0,1.21979 -0.9,2.56316 -2,2.98527 -1.1,0.42212 -2,2.17347 -2,3.89191 0,4.089 -3.447024,5.97765 -8.008037,4.38766 -2.268759,-0.79089 -4.854466,-0.73681 -7.187844,0.15035 -4.3665353,1.66015 -4.9472088,1.67656 -7.2686423,0.2054 z m 34.4645233,-1.48648 c 0,-1.46667 -0.05012,-3.11173 -0.111387,-3.65569 -0.06125,-0.54396 2.710665,-1.9641 6.159833,-3.15586 3.449168,-1.19176 5.706269,-2.516 5.015781,-2.94274 -0.690489,-0.42675 -2.930998,0.0933 -4.978909,1.15586 -4.869526,2.52634 -5.640478,2.44352 -6.460973,-0.69405 -0.853563,-3.26405 5.435503,-11.92409 8.708988,-11.99226 1.283333,-0.0267 2.333333,-0.68903 2.333333,-1.47178 0,-1.28258 -2.135273,-0.99308 -7.49461,1.01612 -2.603295,0.97596 -3.366819,-3.83441 -1.020187,-6.42741 1.570611,-1.73551 1.817659,-2.94161 0.848108,-4.14051 -0.752429,-0.93043 -1.797707,-4.88652 -2.322836,-8.79131 -0.844723,-6.28125 -0.606112,-7.47078 2.069999,-10.319365 2.837145,-3.020002 2.887112,-3.371854 0.805486,-5.672022 -2.781517,-3.073543 -2.796601,-4.807867 -0.06557,-7.538898 1.895228,-1.895227 1.920165,-2.426755 0.207775,-4.428571 -1.182346,-1.382185 -1.581914,-3.321264 -1.018254,-4.941516 0.510232,-1.466666 1.371026,-3.956682 1.912876,-5.533368 0.732815,-2.132353 2.495732,-3.093221 6.881977,-3.75098 8.634831,-1.294872 11.195239,-0.09839 11.195239,5.231547 0,2.711492 -0.777,4.732327 -2,5.201636 -2.88748,1.108031 -2.468912,3.127753 1.333333,6.433764 3.859783,3.356038 4.195239,5.921699 1.206108,9.22465 -1.950739,2.155544 -1.931173,2.682444 0.235827,6.350884 1.985166,3.360619 2.079981,4.341409 0.59291,6.133219 -1.45547,1.75373 -1.463092,2.70661 -0.04287,5.36032 1.46121,2.7303 1.391762,3.73948 -0.450866,6.55168 -1.332533,2.03371 -1.666257,3.64061 -0.859621,4.13914 0.725177,0.44819 1.318508,2.26805 1.318508,4.04413 0,2.34938 -0.92634,3.46174 -3.399819,4.08254 -3.353609,0.8417 -3.36281,0.87922 -0.676982,2.76045 4.81912,3.37544 5.814582,6.7308 3.910293,13.18023 -1.851943,6.27215 -3.794875,7.42339 -9.405654,5.57316 -2.264899,-0.74689 -4.550556,-0.65436 -6.245678,0.25284 -4.391203,2.35011 -8.182159,1.77752 -8.182158,-1.23584 z m 35.999999,-1.90476 c 0,-1.78096 0.861428,-4.09952 1.914285,-5.15239 1.452856,-1.45285 1.541252,-2.28732 0.366721,-3.46185 -1.17453,-1.17452 -1.15387,-2.17796 0.08572,-4.16285 2.163975,-3.46509 2.063612,-5.31815 -0.288037,-5.31815 -4.5859,0 -3.299699,-6.06017 2.334626,-11 3.022298,-2.64977 2.113791,-3.10145 -1.588119,-0.78957 -5.992567,3.74242 -8.98826,-2.43425 -4.15853,-8.57426 3.284499,-4.17556 3.39264,-6.06416 0.333334,-5.82136 -3.246159,0.25764 -3.893522,-6.445099 -0.910579,-9.428042 2.13474,-2.13474 2.068505,-2.334127 -1.1295,-3.400129 -4.766054,-1.588684 -5.576509,-4.830961 -2.311465,-9.247169 2.662812,-3.601646 2.67097,-3.739472 0.221386,-3.739472 -5.840969,0 -7.701655,-7.432681 -2.929242,-11.701127 4.949408,-4.426748 8.832632,-4.998378 14.475589,-2.13088 7.86767,3.998 9.142838,7.54175 3.619373,10.058409 l -3.297771,1.502565 3.978156,4.530871 c 3.998321,4.553834 3.944307,7.938656 -0.16723,10.479725 -0.846927,0.523431 0.250964,1.914558 2.673837,3.387995 4.459254,2.711835 5.447994,7.074004 1.911049,8.431254 -1.956106,0.75063 -1.882273,1.18203 0.666667,3.89525 4.066214,4.32829 3.732268,7.52108 -0.800271,7.6512 -2.081973,0.0598 -2.826232,0.43596 -1.722066,0.87042 1.069529,0.42084 3.399455,2.11418 5.177613,3.76298 2.419776,2.24375 3.023028,3.83447 2.39822,6.3239 -0.576776,2.29806 -0.219568,3.56217 1.15572,4.08992 2.256286,0.86581 2.708436,6.91311 0.613681,8.20773 -0.872185,0.53904 -0.383481,2.4582 1.333333,5.23607 3.357162,5.432 3.354262,5.63185 -0.10836,7.48499 -2.233921,1.19556 -3.716852,1.02465 -7.14963,-0.82403 -4.040763,-2.17609 -4.542081,-2.18469 -7.478155,-0.12813 -4.8449,3.39345 -9.220355,2.90286 -9.220355,-1.03387 z M 40.060939,63.438167 C 31.746322,59.832939 28.946144,56.88688 24.316962,46.873964 21.182038,40.093129 21.106127,39.350346 22.749923,31.54063 24.966382,21.010178 28.367091,13.321031 32.333122,9.8726111 35.647446,6.990844 47.731,4.0000001 56.059541,4.0000001 c 7.152845,0 13.234195,2.9790984 19.163799,9.3878559 4.201873,4.541414 5.321423,6.874432 5.827812,12.144522 0.34474,3.587777 1.14926,6.846129 1.787823,7.240783 0.638562,0.394653 1.161022,2.838869 1.161022,5.431592 0,3.392489 -1.772534,7.388684 -6.322729,14.254644 -3.477501,5.247332 -6.922333,9.965526 -7.655184,10.484875 -0.73285,0.519349 -4.637622,1.306735 -8.67727,1.749744 -4.039649,0.443011 -8.844816,1.051173 -10.678149,1.351472 -1.833333,0.300299 -6.60591,-0.872996 -10.605726,-2.607321 z M 63.333331,51.624641 C 73.654315,45.822649 76.206954,32.454526 69.047536,21.699444 61.200171,9.9109079 37.947391,10.725154 35.407239,22.877432 c -2.177717,10.418366 -2.256617,16.77093 -0.267428,21.531732 4.124214,9.870633 17.418146,13.272907 28.19352,7.215477 z M 48.048632,42.708578 c -5.198909,-1.27546 -6.905105,-9.865491 -2.933689,-14.769981 5.148621,-6.358278 16.218388,-2.221102 16.218388,6.061404 0,6.538975 -6.026161,10.489331 -13.284699,8.708577 z"
       id="path348" />
  </g>
</svg>
