<?xml version="1.0" encoding="UTF-8" standalone="no"?>
<!-- Created with Inkscape (http://www.inkscape.org/) -->

<svg
   version="1.1"
   id="svg32"
   width="164"
   height="154.66667"
   viewBox="0 0 164 154.66667"
   xmlns="http://www.w3.org/2000/svg"
   xmlns:svg="http://www.w3.org/2000/svg">
  <defs
     id="defs36" />
  <g
     id="g38">
    <path
       style="fill:#000000;stroke-width:1.33333"
       d="m 17.191655,147.16263 c -2.317796,-2.79277 -3.163074,-34.78721 -0.988292,-37.40766 1.794549,-2.16231 27.969374,-2.46992 31.884292,-0.37472 2.35325,1.25942 2.579012,2.94772 2.579012,19.28642 0,21.47797 0.722948,20.66667 -18.415752,20.66667 -10.621442,0 -13.615962,-0.43164 -15.05926,-2.17071 z m 96.442375,-0.64567 c -5.99156,-2.21641 -2.9667,-11.20276 5.98026,-17.76627 5.63594,-4.13454 7.34264,-4.68846 14.53571,-4.71763 7.09428,-0.0288 8.80912,0.49076 13.23851,4.01078 5.75198,4.57111 7.87037,7.31363 8.92985,11.56086 1.46159,5.85912 -1.03683,6.7382 -21.01765,7.39516 -10.28462,0.33814 -20.03462,0.1208 -21.66668,-0.4829 z M 14.403205,57.380509 C 2.1128016,55.042125 2.2804627,49.746744 15,38.531458 c 5.316667,-4.6879 10.866667,-9.649687 12.333333,-11.026191 3.636339,-3.412798 12.134107,-7.045907 19.128871,-8.178295 6.169697,-0.998817 6.17416,-1.011085 3.499809,-9.6225359 -0.730344,-2.3517175 -0.214188,-3.2837945 2.504403,-4.5224676 4.507907,-2.0539398 9.967924,1.3230623 11.073039,6.8486375 1.008689,5.043446 3.382813,6.934154 8.035182,6.399072 4.448198,-0.511602 5.768315,-4.48704 2.325878,-7.004212 -3.208179,-2.3458779 -1.602067,-5.6529529 3.264524,-6.7218355 5.403981,-1.1869135 9.301916,1.1557376 11.76436,7.0703585 2.303353,5.532497 3.821201,6.843014 7.95949,6.872261 3.584511,0.02533 4.397661,-2.156507 2.589276,-6.947474 -1.110485,-2.9420117 -0.955136,-4.1265676 0.767045,-5.8487445 3.40196,-3.4019638 9.13755,-0.7629563 12.85469,5.9145805 2.44402,4.390488 3.85456,5.564402 6.66667,5.548304 5.29537,-0.03031 6.72115,-1.499584 6.46459,-6.661792 -0.22128,-4.4522964 -0.0196,-4.6686859 4.71857,-5.0619472 4.54064,-0.3768692 5.10986,-0.027592 6.88712,4.2260115 2.46672,5.9037027 6.28104,7.9578867 12.7479,6.8653177 5.58045,-0.94281 9.41525,1.495338 9.41525,5.986161 0,3.187896 -3.4874,6.666667 -6.68321,6.666667 -1.37102,0 -2.79538,0.489675 -3.16527,1.088165 -1.29789,2.100047 2.92993,11.493814 5.73667,12.746211 3.90604,1.742927 4.90716,6.753182 2.18078,10.914142 -1.99124,3.039027 -3.02218,3.370692 -9.81364,3.157155 -4.17377,-0.131232 -13.58866,-0.248886 -20.922,-0.261451 -31.422907,-0.05385 -51.91855,-0.01445 -70.666663,0.135844 -11,0.08819 -21.5,0.04809 -23.333334,-0.08908 C 31.5,56.887144 27.6,57.122227 24.666667,57.546716 21.733333,57.971211 17.114776,57.89642 14.403205,57.380513 Z M 88,42.337152 c 0,-6.814167 -8.708507,-14.18319 -14.248825,-12.05717 -2.661866,1.021453 -2.146206,2.837507 2.455424,8.647538 C 82.366164,46.704605 88,48.333422 88,42.337152 Z M 62.666667,42.86191 c 0,-2.930796 -3.472682,-11.726495 -4.979799,-12.612965 -2.128551,-1.251994 -14.925657,3.110805 -20.847307,7.107278 -10.12572,6.833766 -8.990496,7.67885 10.589506,7.883033 14.143213,0.147486 15.2376,-0.02326 15.2376,-2.377346 z m 49.247063,1.219627 c 1.63773,-1.036324 1.65412,-1.997573 0.11362,-6.665335 -2.27433,-6.891296 -4.08665,-8.370387 -9.60691,-7.840509 -3.909433,0.375258 -4.391185,0.849878 -4.1674,4.105713 0.564305,8.210027 8.07972,13.931647 13.66069,10.400131 z m 27.77432,-1.751885 c -1.07092,-1.647975 -2.78884,-4.496318 -3.8176,-6.329651 -2.53782,-4.522644 -3.81751,-5.28911 -8.87045,-5.312916 -4.94076,-0.02328 -4.91115,-0.06988 -2.64359,4.160506 4.65528,8.684927 6.2196,10.045034 11.80492,10.263889 5.3781,0.210736 5.4398,0.162061 3.52672,-2.781828 z"
       id="path209" />
  </g>
</svg>
