<?xml version="1.0" encoding="UTF-8" standalone="no"?>
<!-- Created with Inkscape (http://www.inkscape.org/) -->

<svg
   version="1.1"
   id="svg42"
   width="157.33333"
   height="156"
   viewBox="0 0 157.33333 156"
   xmlns="http://www.w3.org/2000/svg"
   xmlns:svg="http://www.w3.org/2000/svg">
  <defs
     id="defs46" />
  <g
     id="g48">
    <path
       style="fill:#000000;stroke-width:1.33333"
       d="M 20.782053,146.17683 C 7.1088816,138.57088 7.0142912,117.48944 20.613354,108.57899 c 8.512572,-5.57765 22.628062,-2.46763 28.922764,6.37246 6.094466,8.55889 4.084248,22.19214 -4.406362,29.88382 -4.865786,4.40793 -17.576271,5.10828 -24.347703,1.34156 z M 89.551474,145 c -0.577053,-1.65 -0.983488,-10.68963 -0.903189,-20.08807 0.114226,-13.36999 0.567281,-17.35457 2.082189,-18.31292 2.836701,-1.79451 7.062871,-1.53118 10.014686,0.62402 2.29103,1.67273 2.63876,3.90011 3.0288,19.40076 C 104.27515,146.54121 103.73123,148 95.803737,148 c -4.196022,0 -5.406144,-0.58065 -6.252263,-3 z m 26.162586,1.37176 c -1.86439,-1.42296 -2.28811,-4.69189 -2.56074,-19.75582 -0.17968,-9.9279 0.12273,-18.7779 0.67202,-19.66667 0.54929,-0.88876 3.67814,-1.61594 6.95301,-1.61594 4.98289,0 6.12119,0.48944 6.97716,3 1.39946,4.10459 0.92153,35.54082 -0.56148,36.93216 -2.32043,2.17702 -9.2075,2.84068 -11.47997,1.10627 z M 140,144.94076 c -3.25796,-1.64847 -3.3377,-2.04748 -3.5264,-17.64702 -0.21848,-18.06165 1.06985,-21.97455 7.2238,-21.93999 5.95794,0.0335 6.63309,1.31355 7.02156,13.31292 0.58486,18.06614 0.12333,23.63393 -2.14754,25.90476 -2.52045,2.52045 -4.17878,2.59192 -8.57142,0.36933 z M 76.666665,87.003637 C 67.268641,86.422669 46.212072,84.007571 39.333332,82.721663 35.666666,82.036217 28.166666,80.746943 22.666666,79.856607 9.6683958,77.752456 5.3333332,75.596301 5.3333332,71.235428 c 0,-5.423285 5.7212298,-9.609787 14.4387148,-10.565507 4.158706,-0.455929 12.061285,-1.680605 17.561285,-2.721501 11.987671,-2.268713 48.947065,-5.011192 50.939446,-3.779832 0.775658,0.479383 6.581595,1.341837 12.902081,1.916565 31.22463,2.839287 46.6828,6.25697 50.81382,11.234547 3.41178,4.110948 -3.30095,11.346967 -10.5264,11.346967 -1.46858,0 -4.04838,0.542784 -5.73288,1.206185 -8.23905,3.244753 -46.737198,7.892725 -59.062735,7.130785 z M 106,74.450493 c 11.00506,-0.197962 28.67462,-4.708422 20,-5.105345 -2.2,-0.100667 -7.6,-0.985677 -12,-1.966695 -8.69184,-1.937917 -66.58088,-1.737054 -78.000001,0.270644 -7.908716,1.390503 -5.248306,3.062415 7.189224,4.51801 5.212593,0.610042 11.877442,1.607557 14.810776,2.216698 2.933333,0.609142 12.533333,0.916512 21.333333,0.683047 C 88.133331,74.833387 100.13333,74.556025 106,74.450493 Z M 47.333332,35.942948 C 36.337579,35.103536 8.620336,28.719579 5.6666665,26.346097 4.7499999,25.609492 3.9999999,23.295689 3.9999999,21.204313 c 0,-4.808168 3.1275199,-6.503764 20.7509781,-11.2502145 17.61072,-4.7430198 32.259527,-5.8063524 61.915687,-4.4943565 26.323265,1.1645477 61.859755,7.125027 64.165495,10.762374 1.72048,2.714099 1.38517,6.03674 -0.83304,8.254959 -2.04822,2.048204 -14.57108,6.189592 -18.71631,6.189592 -1.26872,0 -4.47637,0.54795 -7.12812,1.217669 -2.65175,0.669719 -7.96609,1.923813 -11.80964,2.786879 -7.76049,1.742608 -48.423819,2.538046 -65.011718,1.271733 z m 68.375178,-13.12028 c 1.53056,-0.819135 4.17229,-1.550752 5.8705,-1.625816 2.3424,-0.10354 1.96128,-0.452327 -1.57901,-1.445048 -6.00944,-1.685087 -40.570707,-4.830867 -46.666668,-4.247617 -2.566667,0.245573 -10.666667,1.047369 -18,1.781769 -7.333333,0.7344 -16.783333,1.448172 -20.999999,1.58616 -4.216667,0.137988 -7.666667,0.685191 -7.666667,1.216005 0,0.967422 3.852093,1.70432 20,3.825968 12.246682,1.609071 65.571004,0.766115 69.041844,-1.091421 z"
       id="path70" />
  </g>
</svg>
