<?xml version="1.0" encoding="UTF-8" standalone="no"?>
<!-- Created with Inkscape (http://www.inkscape.org/) -->

<svg
   version="1.1"
   id="svg2"
   width="128"
   height="153.33333"
   viewBox="0 0 128 153.33333"
   xmlns="http://www.w3.org/2000/svg"
   xmlns:svg="http://www.w3.org/2000/svg">
  <defs
     id="defs6" />
  <g
     id="g8">
    <path
       style="fill:#000000;stroke-width:1.33333"
       d="m 32.610895,147.45742 c -2.34855,-1.71729 -2.530616,-3.38006 -2.15342,-19.66666 0.322138,-13.90932 0.871334,-18.29983 2.517262,-20.1241 2.7999,-3.10327 10.523306,-3.09594 12.186394,0.0116 0.690225,1.2897 1.223445,10.33473 1.184933,20.10008 -0.07651,19.40051 -0.828133,21.55499 -7.519796,21.55499 -2.007457,0 -4.804376,-0.84416 -6.215373,-1.87591 z m 78.494085,-0.0677 c -2.32559,-1.01161 -4.83984,-2.98189 -5.58723,-4.3784 -1.69541,-3.16795 -0.46845,-33.66108 1.449,-36.01129 0.74787,-0.91667 3.57162,-1.66667 6.275,-1.66667 8.59042,0 9.27532,1.34118 10.25925,20.08997 0.77081,14.68763 0.59002,17.19827 -1.46415,20.33334 -2.6202,3.99892 -4.75857,4.31836 -10.93187,1.63301 z M 5.2286803,145.13778 C 4.2136219,143.24113 3.8785436,136.4447 4.2354056,124.99108 4.7019577,110.01692 5.1074717,107.46271 7.26922,105.882 c 2.4029935,-1.75711 8.129547,-1.34616 10.457789,0.75048 1.7434,1.56998 2.57985,35.63613 0.949784,38.68193 -2.094132,3.91292 -11.3243337,3.79169 -13.4481127,-0.17663 z m 53.1520467,1.23398 c -1.864391,-1.42296 -2.28811,-4.6919 -2.560739,-19.75583 -0.179676,-9.9279 0.122733,-18.7779 0.67202,-19.66666 0.549287,-0.88877 3.678144,-1.61594 6.953016,-1.61594 4.982887,0 6.121185,0.48944 6.97716,3 1.399459,4.10459 0.921529,35.54081 -0.561484,36.93216 -2.320435,2.17701 -9.207503,2.84068 -11.479973,1.10627 z m 23.28594,0.14082 C 80.491959,145.3055 80,139.21049 80,125.86376 v -18.93623 l 4.198964,-1.46377 c 10.35986,-3.61146 13.265747,-0.14111 12.804457,15.29172 -0.173894,5.81782 0.141411,12.97785 0.70068,15.91118 0.744634,3.90556 0.493598,5.99964 -0.937728,7.82227 -2.443541,3.11157 -12.702866,4.48652 -15.099706,2.02365 z M 53.333333,47.353836 C 48.33722,46.148023 46.608304,44.828751 43,39.468848 39.479584,34.239498 38.675531,31.747054 38.713913,26.182647 38.76942,18.135528 40.175445,15.33004 47.222332,9.2054783 51.821643,5.2081452 53.332771,4.6666666 59.888999,4.6666666 c 9.580421,0 15.360422,2.8355906 23.259565,11.4108274 6.072103,6.59182 6.236329,6.978555 4.250456,10.009381 -1.136128,1.73395 -2.065687,4.072018 -2.065687,5.195706 0,2.407922 -8.552174,12.19659 -12.551666,14.366415 -4.604114,2.497848 -13.083022,3.241108 -19.448334,1.70484 z"
       id="path924" />
  </g>
</svg>
