<?xml version="1.0" encoding="UTF-8" standalone="no"?>
<!-- Created with Inkscape (http://www.inkscape.org/) -->

<svg
   version="1.1"
   id="svg12"
   width="149.33333"
   height="152"
   viewBox="0 0 149.33333 152"
   xmlns="http://www.w3.org/2000/svg"
   xmlns:svg="http://www.w3.org/2000/svg">
  <defs
     id="defs16" />
  <g
     id="g18">
    <path
       style="fill:#000000;stroke-width:1.33333"
       d="m 64.666665,141.33961 c -2.933333,-1.56392 -6.983333,-4.61458 -9,-6.77925 -3.300741,-3.54298 -3.666169,-4.89838 -3.661682,-13.5814 0.0057,-11.00433 2.471718,-16.47408 9.226221,-20.46406 3.208504,-1.895311 4.102128,-3.344071 4.102128,-6.650455 0,-3.497062 -0.783335,-4.598985 -4.534839,-6.37919 -9.790991,-4.64613 -19.495174,-1.098778 -17.604262,6.435217 0.730044,2.908727 0.212793,3.624836 -3.841972,5.319024 -5.201409,2.173284 -5.55078,2.923374 -2.789474,5.988854 1.042865,1.15774 2.305646,3.74596 2.806179,5.75161 0.774095,3.1018 0.39129,3.84386 -2.562211,4.96678 -3.658315,1.39089 -11.029592,0.51674 -12.246522,-1.45229 -1.287898,-2.08386 -2.921789,-1.22495 -3.72005,1.95557 -1.377085,5.48675 -6.056233,10.21665 -10.107028,10.21665 -7.8088104,0 -7.9953661,-4.80072 -0.535062,-13.76897 3.565947,-4.28673 3.986221,-6.95251 1.26097,-7.99829 -2.5996864,-0.99759 -3.9448226,-8.167067 -2.1585279,-11.50479 1.0399939,-1.943245 2.6075879,-2.675716 5.2891329,-2.471389 2.256251,0.17192 5.905192,-1.097514 8.944036,-3.11155 16.194842,-10.733356 19.568833,-12.339525 26.991528,-12.849164 6.641113,-0.455976 8.187601,-0.03667 13.866195,3.759596 3.515285,2.350046 6.683416,3.980822 7.040292,3.623946 2.483764,-2.483764 4.501528,-40.160639 2.438673,-45.536352 -0.648389,-1.689674 -2.257988,-1.922282 -8.666666,-1.252442 -5.492324,0.574062 -7.870392,0.362355 -7.870392,-0.700657 0,-0.837801 -0.9,-1.523275 -2,-1.523275 -1.209195,0 -2,1.236299 -2,3.126683 0,3.952124 -3.888437,7.539984 -8.171654,7.539984 -4.651204,0 -6.495012,-2.390893 -6.495012,-8.422175 0,-4.779818 -0.254123,-5.149812 -3,-4.367902 -7.668241,2.18359 -10.321443,2.20136 -17.49089,0.117146 -11.9553199,-3.475505 -11.5962872,-7.642734 1.017352,-11.808212 4.115381,-1.359046 8.425413,-1.851617 11.666666,-1.33332 4.996333,0.798946 5.140205,0.711007 5.140205,-3.141809 0,-4.464959 3.532871,-8.3770613 7.565004,-8.3770613 2.823944,0 7.101663,3.8307533 7.101663,6.3596313 0,2.722895 2.825333,3.275841 8.549395,1.673202 5.610248,-1.570772 5.770647,-1.519163 14.718284,4.735681 12.440696,8.696667 13.25856,10.958627 11.455506,31.68238 -0.775962,8.918675 -1.788825,19.10725 -2.250805,22.641279 l -0.839967,6.425505 4.517127,-2.753854 c 6.176788,-3.765666 14.352854,-3.56764 22.467094,0.544154 3.59039,1.81939 6.89577,3.903084 7.3453,4.630434 0.44953,0.72735 3.19199,1.961886 6.09436,2.743413 2.90237,0.781528 5.29038,1.847832 5.30669,2.369567 0.0163,0.521734 1.12262,2.369853 2.45849,4.106932 2.0884,2.715633 2.83886,2.938889 5.35404,1.5928 3.85199,-2.061518 7.70888,-0.72133 8.64376,3.00352 1.19427,4.758329 -0.47572,8.683979 -4.44084,10.439109 l -3.66925,1.62417 2.56392,4.34554 c 1.64181,2.78264 2.41341,6.17215 2.14541,9.42437 -0.36396,4.41678 -0.8934,5.13353 -4.06146,5.49844 -3.16216,0.36423 -3.92913,-0.29566 -5.81144,-5 -2.31172,-5.77757 -3.8894,-6.50171 -7.85216,-3.60407 -3.07925,2.2516 -6.84498,1.37071 -9.33448,-2.18354 -1.63874,-2.33963 -1.62829,-3.3353 0.0778,-7.41862 1.84479,-4.4152 1.76581,-5.14714 -1.23716,-11.464838 -3.61905,-7.613828 -6.40868,-10.441943 -12.19965,-12.367945 -4.702586,-1.564023 -8.320522,-0.249559 -11.613783,4.219504 -2.231223,3.027844 -2.138935,3.270988 4.274964,11.262859 10.130389,12.6227 11.252429,21.03498 4.19229,31.43079 -4.721465,6.9522 -10.548754,10.15761 -19.860969,10.92492 -6.09534,0.50224 -8.748108,0.0505 -12.992497,-2.21239 z m 7.088563,-13.77577 c 0.445884,-3.76646 0.02857,-4.00547 -4.755229,-2.72346 -3.579678,0.95932 -3.914298,3.82887 -0.666667,5.71705 3.35426,1.95017 4.94031,1.07446 5.421896,-2.99359 z m 16.911437,-0.37517 c 0,-0.63401 -1.65,-1.94356 -3.666667,-2.91012 -2.772325,-1.32875 -3.666666,-2.71529 -3.666666,-5.68464 0,-3.4572 0.46933,-3.92724 3.92131,-3.92724 5.005583,0 6.314707,-2.12591 3.335988,-5.41735 -3.375667,-3.73007 -5.163792,-3.20342 -7.075752,2.08401 C 80.236014,114.86997 79.066165,116 76.683764,116 c -2.410467,0 -3.502819,-1.08836 -4.683766,-4.66667 -1.784596,-5.40738 -1.711233,-5.38182 -6.807047,-2.37164 -4.872222,2.87809 -4.337158,4.66767 1.83178,6.12659 3.43455,0.81225 4.937843,1.95352 5.230813,3.97112 0.252966,1.74211 1.690733,3.13126 3.737453,3.61107 1.870423,0.43848 3.538092,1.92138 3.810144,3.38799 0.899363,4.84841 2.917846,6.23073 6.0558,4.14721 1.544248,-1.02535 2.807724,-2.38299 2.807724,-3.017 z"
       id="path785" />
  </g>
</svg>
