<?xml version="1.0" encoding="UTF-8" standalone="no"?>
<!-- Created with Inkscape (http://www.inkscape.org/) -->

<svg
   version="1.1"
   id="svg22"
   width="77.333336"
   height="157.33333"
   viewBox="0 0 77.333336 157.33333"
   xmlns="http://www.w3.org/2000/svg"
   xmlns:svg="http://www.w3.org/2000/svg">
  <defs
     id="defs26" />
  <g
     id="g28">
    <path
       style="fill:#000000;stroke-width:1.33333"
       d="m 33.531556,150.23884 c -0.9031,-1.08818 -1.4546,-8.64394 -1.443232,-19.77285 0.01831,-17.92394 -0.957407,-23.52555 -4.760166,-27.32831 -1.770876,-1.77088 -1.997116,-1.49765 -2.015241,2.43375 -0.02385,5.17557 -0.919872,6.8049 -4.891928,8.89563 -9.246637,4.86705 -17.7543222,-0.57676 -17.7543222,-11.36045 0,-10.949729 7.4862842,-17.151089 18.3144592,-15.171017 3.100235,0.566917 6.521476,1.764984 7.602759,2.662369 1.081284,0.897385 2.512749,1.293681 3.181035,0.880657 0.69762,-0.431153 1.027744,-14.775615 0.775196,-33.68371 -0.366544,-27.442972 -0.781618,-33.274507 -2.489992,-34.982881 -1.844608,-1.84461 -2.050123,-1.710631 -2.050123,1.336505 0,3.523917 -4.533795,8.75322 -8,9.227242 C 14.775319,34.090279 11.478603,33.017063 7.8974361,29.435897 3.2139041,24.752365 2.758914,18.718464 6.6126876,12.398064 10.049457,6.7615747 15.711595,3.9999999 23.831487,3.9999999 c 7.801575,0 13.908968,4.2283753 17.242672,11.9377451 2.613128,6.043 3.869157,58.027412 1.651844,68.366387 -1.567914,7.310933 -1.146902,8.924986 1.709627,6.554277 2.379097,-1.974475 13.099453,-3.43151 17.367064,-2.360407 1.828814,0.459003 5.171359,2.388063 7.427879,4.286799 3.459215,2.910737 4.102763,4.390885 4.102763,9.436289 0,12.00721 -12.858998,18.21953 -21.666668,10.46739 -2.016666,-1.77498 -3.666666,-3.99713 -3.666666,-4.93812 0,-0.94098 -1.148354,0.43171 -2.551895,3.05041 -2.081442,3.88352 -2.476935,6.95246 -2.145284,16.64692 0.223636,6.53711 0.819952,13.46759 1.325147,15.40107 1.586513,6.07192 -7.286237,11.98106 -11.096414,7.39008 z M 18.417269,98.102833 c -1.583539,-1.9262 -7.750602,1.505622 -7.750602,4.313027 0,1.36016 0.383877,2.8569 0.85306,3.32609 1.286621,1.28662 8.06436,-6.219812 6.897542,-7.639117 z m 44.206996,4.230497 c -0.06913,-2.716925 -3.66489,-6.671613 -5.202216,-5.721493 -1.885012,1.165001 -1.803804,3.806403 0.177953,5.788163 2.092015,2.09201 5.078177,2.05239 5.024263,-0.0667 z M 18.666667,20.095238 c 0,-1.414286 0.942858,-3.514286 2.095239,-4.666666 1.904761,-1.904763 1.868397,-2.095239 -0.4,-2.095239 -1.372381,0 -3.215239,0.72 -4.095239,1.6 -2.30034,2.30034 -2.019324,7.733333 0.4,7.733333 1.1,0 2,-1.157142 2,-2.571428 z"
       id="path646" />
  </g>
</svg>
