<?xml version="1.0" encoding="UTF-8" standalone="no"?>
<!-- Created with Inkscape (http://www.inkscape.org/) -->

<svg
   version="1.1"
   id="svg32"
   width="109.33333"
   height="106.66667"
   viewBox="0 0 109.33333 106.66667"
   xmlns="http://www.w3.org/2000/svg"
   xmlns:svg="http://www.w3.org/2000/svg">
  <defs
     id="defs36" />
  <g
     id="g38">
    <path
       style="fill:#000000;stroke-width:1.33333"
       d="M 45.333332,102.4828 C 33.1742,101.20576 30.983463,100.08417 20.533225,89.785928 9.3369562,78.752512 5.4532269,71.280753 4.4029952,58.753597 2.6643106,38.014579 12.090408,19.694181 29.333332,10.29943 42.324643,3.2211576 62.394427,2.1391411 75.246304,7.8241376 81.992358,10.808238 94.65087,22.856838 98.150894,29.625138 c 3.363386,6.504063 5.748516,17.992558 5.801606,27.944646 0.0408,7.65587 -0.61602,10.177507 -4.688804,18.000001 C 93.068814,87.468127 88.325461,92.176519 77.5397,97.133668 66.827515,102.057 56.930373,103.70081 45.333332,102.4828 Z M 70.399545,86.104609 c 5.939726,-3.126861 16.138682,-14.462421 17.03228,-18.930412 0.709031,-3.545155 0.38332,-4.247602 -2.303001,-4.966791 -1.720855,-0.460712 -5.678826,-0.845851 -8.795493,-0.855864 -5.774048,-0.01855 -11,-3.391726 -11,-7.100126 0,-3.912944 5.337,-7.584423 11.05194,-7.602955 7.610282,-0.02468 11.614726,-1.244086 11.614726,-3.536848 0,-8.121317 -16.88827,-24.444946 -25.290507,-24.444946 -0.814493,0 -1.376159,3.796762 -1.376159,9.302597 0,8.444208 -0.306684,9.503543 -3.323619,11.480316 -7.476163,4.898569 -14.127049,-2.172466 -12.963953,-13.782913 0.526922,-5.259934 0.336406,-5.666666 -2.654298,-5.666666 -1.772081,0 -4.385102,1.066306 -5.806714,2.369572 -1.421611,1.303264 -4.532433,3.742472 -6.912937,5.420463 -5.013797,3.534168 -11.005144,13.061069 -11.005144,17.499389 0,2.96645 0.261261,3.030577 9,2.20905 9.605837,-0.903042 10.620298,-0.588316 13.989997,4.340247 2.039901,2.983582 1.996012,3.405706 -0.738659,7.104548 -2.769761,3.746303 -3.312738,3.911761 -11.468132,3.494612 -9.993558,-0.511169 -10.778051,0.398243 -6.900362,7.999143 1.830945,3.588948 5.407834,7.068705 11.066789,10.766268 10.805849,7.060544 13.381361,7.152498 12.978648,0.463376 C 45.91362,70.349753 46.446656,68.337565 50.5002,66.924491 c 6.901166,-2.40576 10.012889,0.432002 11.085203,10.109243 1.305928,11.785514 2.101735,12.604499 8.814142,9.070875 z"
       id="path507" />
  </g>
</svg>
