<?xml version="1.0" encoding="UTF-8" standalone="no"?>
<!-- Created with Inkscape (http://www.inkscape.org/) -->

<svg
   version="1.1"
   id="svg42"
   width="102.66667"
   height="150.66667"
   viewBox="0 0 102.66667 150.66667"
   xmlns="http://www.w3.org/2000/svg"
   xmlns:svg="http://www.w3.org/2000/svg">
  <defs
     id="defs46" />
  <g
     id="g48">
    <path
       style="fill:#000000;stroke-width:1.33333"
       d="m 42.454092,144.95746 c -9.066683,-4.24176 -13.123091,-11.0126 -13.11502,-21.89124 0.0052,-6.95474 0.541838,-8.44 5.333333,-14.75993 l 5.327596,-7.02705 -0.0074,-17.639619 C 39.983357,61.796164 38.654135,56.029895 33.603996,55.925504 31.621798,55.884531 27.310446,54.760787 24.023214,53.428296 18.492333,51.186333 17.716041,51.163133 13.618048,53.117329 7.4316973,56.067395 4.7815452,54.134588 4.26431,46.295469 3.5830165,35.969911 15.043691,16.991098 20.65903,19.145904 c 1.170424,0.449135 2.999964,2.903403 4.065641,5.45393 1.065679,2.550528 3.210925,5.318785 4.767211,6.151685 7.348165,3.932619 14.246942,12.968561 17.240809,22.581816 0.875455,2.811072 1.056059,2.45743 1.152707,-2.257121 0.06737,-3.286624 -0.942579,-7.40763 -2.450749,-10 -1.410944,-2.42525 -3.19699,-7.894265 -3.968994,-12.153367 C 39.731731,19.356878 39.555508,19.07377 34.666668,18 22.469603,15.321076 34.152772,5.2868424 49.785572,5.0149422 64.156578,4.7649884 76.535373,14.231334 67.325098,18.427815 c -3.905865,1.779632 -7.325096,8.76174 -7.325096,14.957932 0,2.275935 -0.9,5.038063 -2,6.138063 -2.157696,2.157696 -2.633151,8.080618 -0.871533,10.857031 1.104221,1.740317 4.204866,-6.274325 4.204866,-10.868867 0,-1.198252 0.45,-2.203248 1,-2.233324 0.55,-0.03008 3.659998,-2.459212 6.911106,-5.39808 5.850248,-5.288383 5.893601,-5.391803 4.210933,-10.045139 -1.991844,-5.508344 -1.508473,-6.279875 3.934399,-6.279875 7.46119,0 21.306518,16.599886 21.25648,25.485504 -0.03405,6.048072 -1.650595,7.36155 -7.784627,6.325212 -4.298773,-0.726272 -6.258989,-0.369046 -9.164986,1.670214 -2.033151,1.426747 -5.973759,3.009483 -8.756908,3.517191 -6.897665,1.258287 -7.606397,3.777594 -7.606397,27.03819 v 19.418266 l 4.594927,5.086037 c 5.442219,6.02388 7.917826,14.09846 7.059908,23.02697 -0.52954,5.51103 -1.521332,7.37494 -6.656828,12.51044 -5.823273,5.82326 -6.354923,6.05118 -15.182962,6.50869 -5.502725,0.28517 -10.561432,-0.18697 -12.694288,-1.18481 z m 5.295031,-14.63944 C 48.057255,128.71802 47.339232,128 45.4311,128 c -1.908132,0 -2.764432,0.8563 -2.764432,2.76443 0,3.41687 4.413106,3.02924 5.082455,-0.44641 z m 16.250879,-1.12734 c 0,-1.63512 -0.939127,-2.52401 -2.666667,-2.52401 -2.770408,0 -3.208392,1.03685 -1.889654,4.47343 1.044604,2.7222 4.556321,1.21971 4.556321,-1.94942 z m -8,-5.85734 c 0,-1.1 -0.9,-2 -2,-2 -1.1,0 -2,0.9 -2,2 0,1.1 0.9,2 2,2 1.1,0 2,-0.9 2,-2 z m 8,-5.98247 c 1.518083,-0.96774 1.655768,-1.82722 0.571409,-3.56689 -2.215217,-3.55393 -4.460408,-3.64335 -5.74985,-0.22897 -1.838948,4.86943 0.641821,6.68787 5.178441,3.79586 z m -18.10905,-0.82685 c 1.159978,-0.44513 2.10905,-1.93226 2.10905,-3.30475 0,-2.17791 -0.424139,-2.30218 -3.333334,-0.97666 -5.353581,2.43925 -4.228476,6.37383 1.224284,4.28141 z"
       id="path368" />
  </g>
</svg>
