<?xml version="1.0" encoding="UTF-8" standalone="no"?>
<!-- Created with Inkscape (http://www.inkscape.org/) -->

<svg
   version="1.1"
   id="svg52"
   width="162.66667"
   height="154.66667"
   viewBox="0 0 162.66667 154.66667"
   xmlns="http://www.w3.org/2000/svg"
   xmlns:svg="http://www.w3.org/2000/svg">
  <defs
     id="defs56" />
  <g
     id="g58">
    <path
       style="fill:#000000;stroke-width:1.33333"
       d="m 66.542668,148.29642 c -2.646667,-1.8538 -2.834945,-2.85444 -2.176135,-11.56544 0.396666,-5.24483 0.175578,-12.45668 -0.491306,-16.02634 -1.895259,-10.14483 -0.07038,-11.3713 16.919403,-11.3713 9.532785,0 14.02914,0.5082 14.746012,1.66666 1.877604,3.03422 1.9933,35.18007 0.131947,36.66163 -0.919924,0.73223 -7.198586,1.6312 -13.952583,1.99773 -9.64947,0.52367 -12.900642,0.23171 -15.177338,-1.36294 z m 7.457334,-44.31354 C 71.066668,103.34349 65.039517,102.78577 60.606335,102.74351 46.821668,102.6121 11.246518,94.208641 8.9428243,90.539705 7.3384064,87.984457 8.7564012,81.391959 11.039732,80.790824 11.934546,80.555244 16.866667,79.102672 22,77.562886 c 22.645577,-6.792732 56.070255,-9.411657 79.33334,-6.216006 23.12625,3.176856 32.62061,4.912114 37.16282,6.792148 2.4729,1.023535 5.78939,1.860974 7.37,1.860974 4.35144,0 8.80051,3.730028 8.80051,7.378201 0,3.745083 -3.88741,6.627396 -10.66667,7.908766 -2.56666,0.485133 -9.46666,2.291766 -15.33333,4.014737 -5.86667,1.722974 -15.76667,3.496334 -22,3.940814 -6.23333,0.44447 -14.933335,1.05445 -19.333335,1.35551 -4.4,0.30106 -10.4,0.0242 -13.333333,-0.61515 z M 121.08278,88.532027 c 2.8314,-1.211257 2.55959,-1.44939 -3.33333,-2.920348 -17.853356,-4.456449 -76.416116,-4.597876 -76.416116,-0.184541 0,0.579733 -1.35,1.314083 -3,1.631887 -2.424809,0.467038 -2.23308,0.630606 1,0.853114 2.2,0.15141 5.2,0.817359 6.666667,1.479887 3.545251,1.601473 71.138699,0.827257 75.082779,-0.859999 z M 18.666667,44.424445 C 11.342984,44.052104 8.220614,43.323806 7.0000001,41.70318 4.3728814,38.215115 4.7223798,10.134763 7.4265696,7.4305735 10.652233,4.2049104 15.703015,3.4666431 25.387693,4.805216 30.263741,5.4791615 36.773622,5.6003087 39.854095,5.0744321 42.934569,4.5485556 51.277592,4.320662 58.394145,4.568002 65.5107,4.8153418 89.740478,5.088726 112.2381,5.1755221 c 33.39826,0.1288507 41.25214,0.5051902 42.79772,2.0507642 2.82824,2.8282407 4.00984,26.6189917 1.60761,32.3683217 l -1.84069,4.405393 -35.7347,0.102885 c -19.654089,0.05659 -43.534705,-0.0557 -53.068039,-0.249522 -22.004141,-0.447372 -24.059776,-0.421051 -31.333334,0.401205 -3.3,0.373056 -10.5,0.449501 -16,0.169876 z M 57.321793,26.405733 c 2.56032,-3.772363 5.373734,-7.577449 6.252031,-8.455746 1.240317,-1.240316 -0.5435,-1.75492 -7.988459,-2.304547 -15.520395,-1.145797 -35.20267,-0.289568 -37.518183,1.632138 -2.976418,2.470206 -2.787638,12.836955 0.266152,14.615624 1.283333,0.747473 9.533333,1.361816 18.333333,1.365207 l 16.000001,0.0061 4.655125,-6.85884 z M 146,24.666667 v -8 l -18.21387,-0.370181 -18.21387,-0.370182 -4.78613,5.840838 C 102.15376,24.979602 100,28.296183 100,29.137323 c 0,0.841139 -0.599998,1.529344 -1.333331,1.529344 -0.733334,0 -1.333334,0.613535 -1.333334,1.363412 0,0.892463 8.405195,1.237882 24.333335,1 L 146,32.666667 Z m -74.386092,5 C 74.372615,27.272489 79.986103,18.788627 79.995018,17 c 0.01713,-3.437544 -5.256443,1.102062 -13.595106,11.702953 -2.547939,3.23918 -2.548536,3.297048 -0.03403,3.297048 1.407686,0 3.769298,-1.05 5.248027,-2.333334 z M 86.088,30.979583 c 1.66059,-1.14448 9.912002,-13.059203 9.912002,-14.312551 0,-0.468876 -1.257563,-0.66077 -2.794584,-0.426433 -1.766104,0.269264 -4.452056,3.247599 -7.298272,8.092735 -4.063912,6.918032 -3.993031,9.522895 0.180854,6.646249 z"
       id="path229" />
  </g>
</svg>
