<?xml version="1.0" encoding="UTF-8" standalone="no"?>
<!-- Created with Inkscape (http://www.inkscape.org/) -->

<svg
   version="1.1"
   id="svg62"
   width="74.666664"
   height="152"
   viewBox="0 0 74.666664 152"
   xmlns="http://www.w3.org/2000/svg"
   xmlns:svg="http://www.w3.org/2000/svg">
  <defs
     id="defs66" />
  <g
     id="g68">
    <path
       style="fill:#000000;stroke-width:1.33333"
       d="M 36.666665,146.16113 C 24.48176,144.79539 23.369491,144.43699 23.753131,142 c 0.230888,-1.46667 3.080888,-5.15161 6.333333,-8.18876 3.252444,-3.03716 5.913535,-5.79954 5.913535,-6.13864 0,-0.3391 -1.35,-2.15455 -3,-4.03434 -7.8083,-8.89575 -9,-10.78599 -9,-14.27554 0,-3.62839 1.975824,-5.36272 6.109439,-5.36272 1.040236,0 3.541163,2.98514 5.557615,6.63365 5.744679,10.39425 7.457813,9.9621 6.422821,-1.6202 C 41.614117,103.68939 40.786588,84.633333 40.250921,66.666667 39.514847,41.978179 38.791891,33.02308 37.290776,30 35.315227,26.021463 35.236681,25.998029 22.652285,25.632612 8.1084268,25.210299 6.6666664,24.258411 6.6666664,15.078493 c 0,-7.6115107 3.5163246,-11.4134558 9.0802006,-9.817757 2.14034,0.6138416 10.036243,1.1160756 17.54645,1.1160756 10.681391,0 14.114807,0.4598848 15.766784,2.1118629 2.049588,2.0495875 4.48213,19.1643135 4.289245,30.1779925 -0.877341,50.095841 -0.790077,72.931013 0.283885,74.287153 0.95422,1.20494 2.136447,0.60659 4.610227,-2.33333 3.515362,-4.17777 6.841041,-5.00266 9.489873,-2.35382 2.510076,2.51007 1.876448,8.40318 -1.203172,11.1902 -1.541745,1.39526 -3.679441,4.23135 -4.750436,6.30243 -2.137074,4.13265 -1.423758,5.80285 4.553608,10.66209 3.596279,2.92356 3.989626,8.4577 0.666667,9.37954 -5.732946,1.5904 -18.052649,1.7367 -30.333333,0.3602 z"
       id="path90" />
  </g>
</svg>
