<?xml version="1.0" encoding="UTF-8" standalone="no"?>
<!-- Created with Inkscape (http://www.inkscape.org/) -->

<svg
   version="1.1"
   id="svg2"
   width="97.333336"
   height="162.66667"
   viewBox="0 0 97.333336 162.66667"
   xmlns="http://www.w3.org/2000/svg"
   xmlns:svg="http://www.w3.org/2000/svg">
  <defs
     id="defs6" />
  <g
     id="g8">
    <path
       style="fill:#000000;stroke-width:1.33333"
       d="m 29.333334,153.98027 c -16.655375,-2.581 -23.746737,-6.82875 -22.1331469,-13.2578 1.2673165,-5.04939 5.7549719,-6.71863 25.7784699,-9.58864 3.104927,-0.44504 6.178028,-1.48221 6.829113,-2.30482 1.9171,-2.42218 -0.565582,-17.44193 -3.848593,-23.28326 -2.227813,-3.96386 -4.718804,-6.117732 -9.408456,-8.135165 C 23.042598,95.90143 19.053546,94.666669 17.686159,94.666669 13.981676,94.666669 12,92.003418 12,87.024822 c 0,-6.12736 3.032694,-6.906139 10.53909,-2.706378 8.863858,4.959251 13.460911,5.289666 13.460911,0.967508 0,-2.17792 -11.687332,-6.619284 -17.418471,-6.619284 -4.471332,0 -5.317686,-0.479293 -6.058506,-3.430954 -0.48301,-1.924468 -0.208754,-4.083317 0.624608,-4.916678 2.035395,-2.035395 12.966481,-1.344464 19.882094,1.256707 6.58055,2.475143 7.48341,1.991167 7.313964,-3.920634 -0.06813,-2.376976 -0.182329,-12.939455 -0.253776,-23.472173 l -0.129906,-19.150401 -4.121011,-3.8496 C 31.257353,16.903038 25.344738,16.106455 22.610722,19.400744 20.453706,21.999788 14.72977,21.402724 12.838276,18.38138 9.0295233,12.297534 22.558013,4.6984061 34.988754,5.9391704 43.51558,6.7902685 48.777961,11.005258 53.375923,20.666667 c 3.656597,7.68338 3.812031,8.817078 3.927315,28.644969 0.06601,11.354733 0.679897,21.204832 1.364174,21.889109 0.769964,0.769964 3.166631,0.400784 6.288364,-0.968653 7.330385,-3.215681 16.28732,-3.494175 18.185208,-0.565424 2.313788,3.570554 -0.496078,6.788879 -7.280567,8.338916 -7.360132,1.681552 -16.85657,7.227706 -17.664274,10.316371 -0.676977,2.588768 0.635643,2.957396 4.155284,1.166942 11.306079,-5.751442 15.699994,-6.837566 18.820153,-4.652122 1.555632,1.089607 2.828422,2.547081 2.828422,3.238832 0,2.469436 -5.390563,6.591062 -8.620272,6.591062 -4.397067,0 -11.435656,6.388691 -15.081672,13.689131 -2.934962,5.87669 -4.039692,17.43096 -1.944306,20.3353 0.538771,0.74677 4.279583,1.47648 8.312916,1.62158 8.95017,0.32198 19.625797,2.66827 23.666668,5.20146 5.484899,3.43844 2.29326,12.4382 -4.438322,12.51514 -1.408922,0.0161 -4.973665,1.12499 -7.921648,2.46418 -9.078176,4.12394 -33.316131,5.86148 -48.640032,3.48681 z m 36.594892,-11.37389 c 2.893856,-0.60892 5.743856,-0.80904 6.333333,-0.44472 0.589478,0.36432 1.071776,0.0408 1.071776,-0.71907 0,-0.75981 -2.25,-1.29813 -5,-1.19628 -2.75,0.10187 -9.2,0.0207 -14.333334,-0.18037 -5.133333,-0.20107 -12.933333,0.1276 -17.333333,0.73033 l -8.000001,1.09591 9.333334,1.56202 c 9.248243,1.54779 17.772911,1.289 27.928225,-0.84782 z"
       id="path328" />
  </g>
</svg>
