<?xml version="1.0" encoding="UTF-8" standalone="no"?>
<!-- Created with Inkscape (http://www.inkscape.org/) -->

<svg
   version="1.1"
   id="svg12"
   width="100"
   height="154.66667"
   viewBox="0 0 100 154.66667"
   xmlns="http://www.w3.org/2000/svg"
   xmlns:svg="http://www.w3.org/2000/svg">
  <defs
     id="defs16" />
  <g
     id="g18">
    <path
       style="fill:#000000;stroke-width:1.33333"
       d="m 19.082312,143.15998 c -0.436677,-1.13796 0.191161,-4.13484 1.395197,-6.65974 1.204036,-2.52489 2.189158,-5.73494 2.189158,-7.13345 0,-3.02889 -2.113611,-4.67367 -3.377639,-2.62843 -1.464428,2.36949 -6.468844,3.74491 -8.289028,2.27816 -1.9732949,-1.59013 -2.1972679,-10.114 -0.390615,-14.86586 1.459969,-3.84001 7.643444,-7.48399 12.699582,-7.48399 4.597245,0 5.925356,3.70364 2.332286,6.50394 -7.957424,6.20172 -0.73837,11.36712 7.942898,5.68333 l 4.969934,-3.25391 -0.54414,-16.133349 c -0.726174,-21.530559 -2.845394,-40.59353 -4.77065,-42.913322 -0.861198,-1.03768 -2.921152,-1.886691 -4.577678,-1.886691 -1.656525,0 -4.875025,-1.905687 -7.152224,-4.23486 -3.739421,-3.824771 -4.445606,-4.071496 -7.292554,-2.547856 -1.733707,0.927852 -4.5917401,1.48354 -6.3511838,1.23486 -2.8986907,-0.4097 -3.1661068,-1.01538 -2.8487083,-6.452144 0.208217,-3.566579 2.2656074,-9.920513 5.0728341,-15.666667 4.24194,-8.682891 5.114968,-9.666667 8.578447,-9.666667 3.1754,0 4.680509,1.242336 8.528427,7.039469 2.569893,3.871708 6.201965,8.476296 8.071272,10.232419 1.869306,1.756121 3.39874,4.496179 3.39874,6.089014 0,1.592834 0.996258,4.89311 2.213906,7.333945 1.21765,2.440835 2.996572,8.083018 3.953162,12.538184 1.867749,8.698748 2.501241,42.863225 0.814122,43.905915 -1.576181,0.97414 -0.245954,13.06042 1.377868,12.51915 1.35536,-0.45179 1.436046,-11.23869 0.456214,-60.991429 C 47.19716,41.539894 46.769073,38.715497 44.248503,34.666667 42.650643,32.100001 41.341059,28.764678 41.338317,27.254841 41.332312,23.947077 39.24408,21.250543 34.333333,18.209303 26.947309,13.635118 30.550441,9.2044163 43.669283,6.7290687 58.1843,3.9902816 70.703345,6.8783716 68.557388,12.470647 c -0.506595,1.320164 -2.297901,2.923764 -3.980683,3.563556 -2.413433,0.917587 -3.229005,2.515167 -3.86172,7.564528 -0.441165,3.520699 -2.010893,8.8476 -3.488285,11.83756 -2.566777,5.194666 -2.644107,7.002159 -1.739811,40.666668 0.520496,19.376707 0.998876,36.580381 1.063067,38.230381 0.06419,1.65 0.716711,2.78542 1.450044,2.52316 0.733333,-0.26226 1.200185,-1.61226 1.037451,-3 -0.162736,-1.38774 -0.402827,-16.056778 -0.533536,-32.597862 -0.202996,-25.688947 0.0758,-30.553084 1.911789,-33.35516 1.182192,-1.804254 3.097801,-5.968405 4.256911,-9.253669 1.159108,-3.285263 3.957826,-7.88229 6.219373,-10.215614 3.153501,-3.253589 3.92022,-5.00613 3.289512,-7.519071 -0.486043,-1.93655 -0.146016,-3.821574 0.831388,-4.609006 5.889628,-4.744897 21.795357,15.764571 20.735071,26.736607 -0.397651,4.114957 -0.660258,4.295289 -6.414626,4.404935 -3.3,0.06288 -8.230729,1.112878 -10.957174,2.333333 -2.726447,1.220455 -6.08168,2.219008 -7.456076,2.219008 -2.328474,0 -2.55982,1.795941 -3.392163,26.333334 -0.491296,14.483334 -1.264568,28.583335 -1.718383,31.333335 -0.803948,4.87172 -0.720034,5 3.270651,5 2.252672,0 4.466587,0.6 4.919812,1.33333 0.453225,0.73334 2.138635,1.28597 3.745356,1.22807 2.007749,-0.0723 2.295864,-0.34847 0.921311,-0.88297 -2.448286,-0.95203 -5.233531,-4.44063 -5.29093,-6.62704 -0.06368,-2.42576 10.024754,-4.7994 13.192636,-3.104 6.485211,3.47078 10.390534,14.56037 6.498294,18.45261 -2.467348,2.46735 -4.653044,1.92969 -8.346042,-2.05304 -1.86301,-2.00918 -3.387292,-2.94459 -3.387292,-2.07869 0,0.86589 0.533707,1.9042 1.186016,2.30735 0.65231,0.40315 1.523836,2.68856 1.936726,5.07869 0.41289,2.39013 1.130277,6.17982 1.594192,8.42153 0.554436,2.67913 0.233437,4.55913 -0.936726,5.48616 -1.069396,0.8472 -14.44897,1.72776 -33.508738,2.20533 -27.923443,0.69967 -31.823747,0.54688 -32.522491,-1.27402 z"
       id="path189" />
  </g>
</svg>
