<?xml version="1.0" encoding="UTF-8" standalone="no"?>
<!-- Created with Inkscape (http://www.inkscape.org/) -->

<svg
   version="1.1"
   id="svg22"
   width="78.666664"
   height="158.66667"
   viewBox="0 0 78.666664 158.66667"
   xmlns="http://www.w3.org/2000/svg"
   xmlns:svg="http://www.w3.org/2000/svg">
  <defs
     id="defs26" />
  <g
     id="g28">
    <path
       style="fill:#000000;stroke-width:1.33333"
       d="m 23.333333,152.12387 c -6.359566,-0.75412 -6.833582,-1.09764 -10.290122,-7.4572 C 4.3357579,128.64613 3.4065838,117.36063 9.6688127,103.68212 12.61404,97.248897 14.107118,95.652818 19.949421,92.692299 c 13.095295,-6.635889 35.045424,-4.118781 43.639201,5.004279 5.420894,5.754762 7.078042,11.325812 7.078042,23.795172 0,8.10704 -0.623454,11.54869 -2.801972,15.46769 -4.062395,7.30798 -6.104581,9.25603 -13.639626,13.0109 -7.017846,3.49714 -14.916946,4.04781 -30.891733,2.15353 z m 23.333332,-13.25055 c 0,-0.61968 -1.2284,-2.23837 -2.729777,-3.5971 -3.171379,-2.87006 -3.037431,-8.31849 0.255169,-10.37913 1.693504,-1.05987 3.186077,-0.53548 6.562585,2.30567 l 4.370527,3.67755 1.723501,-3.10682 c 2.149708,-3.87511 2.331612,-13.3932 0.294887,-15.42993 -1.14192,-1.14192 -2.627686,-0.6806 -5.936672,1.84329 -8.048616,6.13897 -14.24192,0.64306 -7.205088,-6.39377 4.88468,-4.88468 4.978369,-6.15309 0.578068,-7.826079 -4.540306,-1.726222 -9.037954,-1.641951 -13.183795,0.247019 -4.104408,1.8701 -4.302744,4.25762 -0.676988,8.14941 5.740499,6.1617 -0.019,11.67418 -7.248264,6.93738 -1.844452,-1.20853 -3.979935,-1.8102 -4.745517,-1.33705 -1.853736,1.14568 -1.773508,9.07338 0.134193,13.26033 1.50776,3.30917 1.568041,3.32058 5,0.94637 5.634826,-3.89815 7.96864,-4.31628 9.379314,-1.68041 0.885351,1.65429 0.686254,3.53421 -0.646326,6.10276 C 29.190107,139.1509 29.886411,140 38.666665,140 c 4.4,0 8,-0.50701 8,-1.12668 z M 28.091499,48.395377 C 17.781765,42.997608 16.239358,29.830731 24.977188,21.809807 c 4.875736,-4.4757 4.722335,-4.988892 -1.91675,-6.412343 C 18.30647,14.378191 16.158329,10.355695 18.719767,7.2693498 20.90757,4.6332097 50.325545,4.4816297 53.890146,7.0881297 c 3.569657,2.6101976 2.099393,6.4549893 -3.142989,8.2190263 -6.087169,2.048304 -6.461776,3.983211 -1.568345,8.100763 7.634534,6.424038 7.218213,17.202826 -0.870248,22.531175 -6.917461,4.556942 -14.455545,5.472786 -20.217065,2.456283 z"
       id="path50" />
  </g>
</svg>
