<?xml version="1.0" encoding="UTF-8" standalone="no"?>
<!-- Created with Inkscape (http://www.inkscape.org/) -->

<svg
   version="1.1"
   id="svg2"
   width="165.33333"
   height="154.66667"
   viewBox="0 0 165.33333 154.66667"
   xmlns="http://www.w3.org/2000/svg"
   xmlns:svg="http://www.w3.org/2000/svg">
  <defs
     id="defs6" />
  <g
     id="g8">
    <path
       style="fill:#000000;stroke-width:1.33333"
       d="m 150,146.84794 c -2.2,-1.3615 -5.72823,-4.44187 -7.84052,-6.84527 l -3.84052,-4.36981 -21.49281,0.94654 c -21.96808,0.9675 -46.067491,0.94284 -72.159484,-0.0738 l -14.666667,-0.57147 -6.417081,6.03295 c -7.252413,6.81828 -9.864402,7.36742 -14.0171662,2.94701 -2.4558383,-2.61412 -2.8990853,-4.64799 -2.8990853,-13.3026 0,-9.30416 0.284925,-10.40335 3.1901354,-12.30692 2.6854601,-1.75958 4.8527221,-1.88178 13.6996161,-0.77248 10.449376,1.31025 111.006622,0.84275 125.997222,-0.58576 6.76701,-0.64486 7.77369,-0.40565 9.66666,2.29695 2.90839,4.15229 2.93394,21.9914 0.0375,26.12673 -2.52381,3.60325 -4.07797,3.68348 -9.25773,0.47795 z M 46.636607,100.76994 C 42.53355,96.666886 47.7558,80.435846 55.542336,73.090447 c 7.061233,-6.661188 18.643083,-11.757112 26.72118,-11.757112 17.090873,0 29.413664,7.230446 35.690924,20.941784 4.20792,9.191303 4.45442,16.411748 0.64157,18.792911 -3.35061,2.09249 -69.844271,1.81705 -71.959403,-0.29809 z M 8.1336656,44.444584 C 6.415902,43.190761 5.9275125,39.681941 5.628125,26.443594 5.4235938,17.399618 5.7345116,9.2896297 6.3190535,8.421399 7.8492349,6.1485928 152.27442,4.931731 155.32984,7.1659011 c 1.62934,1.1914053 2.15149,4.0617599 2.21858,12.1961019 0.13924,16.879032 -0.1765,22.512754 -1.36697,24.390055 -1.53276,2.417076 -144.767186,3.087086 -148.0477844,0.692526 z M 134,36.199515 c 0.73333,-0.134441 -0.687,-1.537784 -3.1563,-3.11854 -4.39477,-2.813376 -5.42763,-2.867457 -48.884992,-2.55965 -44.063209,0.312097 -51.303266,0.84568 -52.306342,3.85491 -0.383801,1.151403 6.102647,1.660007 24.579786,1.927307 C 80.573933,36.684614 131.71775,36.617917 134,36.199515 Z M 21.333333,26.306742 c 0,-0.675631 -1.349969,-3.121043 -2.999933,-5.434248 l -2.999934,-4.205827 -0.796418,5.96808 c -0.438031,3.282444 -0.509927,7.06363 -0.15977,8.402634 0.593135,2.268152 0.852618,2.231664 3.796352,-0.533831 1.737836,-1.632613 3.159703,-3.521176 3.159703,-4.196808 z M 147.96092,25.666667 147.92185,18 l -3.9826,4.378636 -3.9826,4.378638 3.68836,3.245895 c 2.02859,1.785242 3.83835,3.264856 4.02168,3.28803 0.18333,0.02317 0.31575,-3.407865 0.29425,-7.624532 z m -15.41073,-4.627788 c 7.57947,-4.056408 6.70389,-5.028885 -4.78829,-5.318211 -6.10238,-0.153633 -13.19524,-0.192614 -15.7619,-0.08663 -16.885401,0.697272 -81.209453,0.5999 -82.381891,-0.124707 -1.778812,-1.099367 -3.09997,0.792385 -1.863466,2.668277 2.67551,4.058996 6.926387,4.401351 54.156397,4.361615 32.0883,-0.027 48.81201,-0.522491 50.63915,-1.500348 z"
       id="path1073" />
  </g>
</svg>
