<?xml version="1.0" encoding="UTF-8" standalone="no"?>
<!-- Created with Inkscape (http://www.inkscape.org/) -->

<svg
   version="1.1"
   id="svg12"
   width="162.66667"
   height="161.33333"
   viewBox="0 0 162.66667 161.33333"
   xmlns="http://www.w3.org/2000/svg"
   xmlns:svg="http://www.w3.org/2000/svg">
  <defs
     id="defs16" />
  <g
     id="g18">
    <path
       style="fill:#000000;stroke-width:1.33333"
       d="m 26.442053,152.70614 c -1.147554,-2.5186 -1.102402,-3.77385 0.191845,-5.33333 0.930941,-1.12171 1.169155,-2.04489 0.529363,-2.05149 -0.639794,-0.007 -2.709016,1.86838 -4.598273,4.16666 -5.379045,6.54359 -14.5649878,5.09379 -14.5649878,-2.29877 0,-1.73303 -0.7304055,-5.88185 -1.6231234,-9.21961 -1.1570552,-4.32611 -1.2179732,-6.72446 -0.2121524,-8.35248 0.7963136,-1.28891 1.2976192,-8.05088 1.1507673,-15.52238 L 7.0552879,100.85616 13.047065,95.032815 c 5.919453,-5.753049 9.894109,-6.879503 10.638343,-3.015006 0.210484,1.092953 -0.982626,2.586064 -2.651354,3.318022 -1.917523,0.841087 -3.192843,2.716762 -3.465546,5.096949 -0.383954,3.35118 -0.148681,3.61475 2.135484,2.3923 3.009707,-1.61074 24.61514,-23.937731 29.940742,-30.940669 3.224595,-4.240203 1.684464,-5.028542 -1.971209,-1.008991 -4.064316,4.468869 -13.709746,11.791245 -15.532063,11.791245 -4.470959,0 -0.135144,-6.547673 13.548512,-20.460112 4.937182,-5.019726 8.976694,-9.577921 8.976694,-10.129319 0,-1.242511 4.694168,-6.743902 5.754364,-6.743902 1.810947,0 7.597019,-6.498133 6.4289,-7.220069 -0.704989,-0.435708 -7.207664,5.060563 -14.450386,12.213936 -7.242722,7.153373 -15.545552,15.136638 -18.450732,17.740589 -5.860503,5.252845 -15.17262,15.62343 -17.371255,19.345769 -2.197909,3.721113 -5.574787,5.45588 -7.2871293,3.743537 C 7.85096,89.717625 6.1419607,63.243785 6.6003072,49.484834 6.7318923,45.534826 6.1276367,40.584283 5.2575169,38.483629 4.0300666,35.520302 4.0373147,34.228273 5.2898557,32.719054 6.4248765,31.351437 6.6354849,27.887629 5.9991456,21.053592 5.1283561,11.701651 5.2289168,11.207027 8.6530434,7.9999998 12.47058,4.4245055 15.080436,4.1673212 37.333334,5.1737447 c 5.5,0.2487465 11.973668,0.01484 14.38593,-0.5197911 3.319585,-0.7357229 5.024632,-0.3940384 7.012953,1.4053679 2.092042,1.8932709 3.235327,2.0860471 5.614072,0.9466218 6.028815,-2.8878193 7.721304,-2.9383514 10.350621,-0.3090352 3.319745,3.3197449 4.245108,3.3033889 6.378517,-0.1127426 2.909971,-4.6596021 8.80925,-2.7451413 11.774202,3.8210175 0.100626,0.22285 2.200628,-0.8249071 4.666666,-2.3283497 5.746355,-3.5033165 8.498565,-3.4582037 11.047625,0.1810868 l 2.04846,2.9245869 3.02714,-2.7713402 c 4.87181,-4.4601197 8.47951,-4.9588094 11.80633,-1.6319817 2.71303,2.71303 3.15778,2.7745776 6.40154,0.8858915 5.87512,-3.4208059 14.06365,-4.1487569 19.20807,-1.7075754 4.51618,2.1430704 4.56653,2.265017 5.41025,13.1028508 1.2536,16.102897 0.96113,25.105954 -0.96175,29.606314 -1.21214,2.83694 -1.33705,5.215693 -0.42956,8.18102 0.74784,2.443664 0.81471,6.321981 0.16091,9.333333 -0.61523,2.833772 -0.99293,6.052313 -0.83932,7.152313 0.87616,6.274264 0.43045,9.61347 -1.5796,11.834562 -2.13104,2.354776 -2.10568,2.532606 0.45692,3.202738 4.22993,1.106152 4.69041,4.625678 1.58539,12.117128 -3.36852,8.12716 -3.44986,8.84557 -1.00135,8.84557 1.02155,0 2.22564,0.95976 2.67577,2.13279 1.32406,3.45043 -2.1375,8.64694 -7.86645,11.80913 -4.23536,2.33779 -5.41935,3.81339 -5.75115,7.16763 -0.45224,4.5718 1.08047,5.44176 3.80455,2.15944 2.08029,-2.50661 6.51827,-2.05006 8.34011,0.85797 2.19277,3.50013 -0.0619,8.34585 -5.39987,11.60563 -2.76131,1.68624 -6.0366,4.83624 -7.27843,7 -3.00754,5.24034 -9.12738,5.42509 -13.76993,0.4157 -3.1055,-3.35089 -3.68903,-3.47449 -12.25838,-2.59654 -6.12572,0.6276 -9.87986,1.75062 -11.76155,3.51838 -2.88894,2.71402 -7.982633,3.3643 -11.063011,1.41235 -1.459534,-0.92487 -1.491287,-1.74903 -0.166164,-4.31292 1.558006,-3.01447 7.467505,-9.17513 10.995675,-11.463 1.61248,-1.04564 15.54507,-15.62569 33.30815,-34.85603 5.39825,-5.844163 8.99161,-10.898735 8.97904,-12.630307 -0.0167,-2.30068 -2.29875,-0.585558 -11.23836,8.446445 -6.16958,6.233332 -13.35255,13.035792 -15.96216,15.116572 -2.60962,2.08079 -5.50653,5.38079 -6.43758,7.33334 -1.21614,2.55041 -2.87878,3.66538 -5.90446,3.95951 -7.481652,0.72732 -5.99779,-3.25945 5.56563,-14.95348 5.86783,-5.9341 11.70287,-11.989275 12.96676,-13.455942 1.26388,-1.466667 5.24546,-5.066667 8.84794,-8 6.57096,-5.350408 10.82667,-11.333333 8.06151,-11.333333 -2.13495,0 -12.17759,7.232599 -17.67261,12.727625 -4.02079,4.020787 -5.25765,4.61248 -6.86071,3.282055 -1.33628,-1.10901 -1.574,-2.31766 -0.75063,-3.816354 1.39077,-2.531442 9.68977,-11.282706 15.45443,-16.296631 5.65016,-4.914343 15.37355,-16.252125 14.60073,-17.024933 -1.5759,-1.575913 -8.77972,3.910518 -18.86483,14.367481 -9.44534,9.7936 -11.16158,11.051132 -13,9.525384 -3.07876,-2.555144 -2.70911,-3.624191 3.28462,-9.499245 5.08829,-4.98754 5.87458,-7.932048 2.11815,-7.932048 -2.76496,0 -16.80204,13.328182 -17.66711,16.774881 -0.4452,1.773816 -1.3444,3.225118 -1.99824,3.225118 -0.65383,0 -1.18879,0.927274 -1.18879,2.060607 0,1.498751 0.944,1.116607 3.46212,-1.401516 4.09921,-4.099211 6.38255,-3.760159 6.95225,1.032337 0.33001,2.776234 -1.36187,5.270777 -8.31172,12.254927 -4.799351,4.823027 -9.629233,10.515637 -10.733079,12.650237 -1.103844,2.1346 -3.13444,4.23893 -4.512435,4.67629 -1.377994,0.43736 -3.577568,1.97988 -4.88794,3.42782 -2.651708,2.93011 -7.328613,3.55279 -7.255281,0.96596 0.08293,-2.92561 3.1118,-6.98268 9.672721,-12.95629 3.51265,-3.19821 8.14235,-8.416403 10.288222,-11.595984 3.303545,-4.894924 3.545225,-5.781055 1.576708,-5.781055 -3.20722,0 -8.251564,3.734312 -8.251564,6.108607 0,1.076568 -1.5,2.527695 -3.333334,3.224727 -1.833333,0.697032 -3.353294,2.032185 -3.377692,2.966995 -0.05611,2.14972 -4.625598,7.69967 -6.339438,7.69967 -0.709326,0 -2.003298,-0.85985 -2.875494,-1.91078 -1.260599,-1.51893 -1.020645,-2.47595 1.170075,-4.66667 1.515735,-1.51573 3.355883,-2.755882 4.089216,-2.755882 0.733333,0 1.333333,-1.123741 1.333333,-2.497204 0,-1.460471 8.658712,-11.009097 20.856442,-23 33.5471,-32.978267 36.43116,-35.925989 37.97801,-38.816311 1.37682,-2.572592 1.19551,-2.692476 -2.84869,-1.883636 -2.3755,0.4751 -4.84409,0.863819 -5.48576,0.863819 -0.64167,0 -1.16667,1.227273 -1.16667,2.727273 0,2.663214 -2.32578,5.423628 -9.85976,11.702332 -6.76045,5.634051 -10.25779,0.712011 -4.16522,-5.861985 3.11738,-3.363703 3.39274,-5.900953 0.64042,-5.900953 -0.67495,0 -3.74204,2.728298 -6.81576,6.062885 -6.51299,7.065764 -11.168406,7.739588 -11.08045,1.603781 0.08512,-5.938057 -3.106683,-4.432641 -13.428018,6.333333 -7.012437,7.314531 -10.498429,10 -12.980943,10 -2.841924,0 -3.278033,-0.487949 -2.681278,-3 0.391969,-1.65 3.035797,-5.248856 5.875175,-7.997457 4.861846,-4.706413 6.721334,-9.002543 3.896557,-9.002543 -2.222903,0 -26.133686,24.398569 -24.467094,24.966229 0.880163,0.299794 3.386851,-0.775778 5.570419,-2.390161 2.183568,-1.614381 4.891696,-2.581599 6.018063,-2.149371 4.626948,1.775526 -1.034675,9.332492 -24.504194,32.707472 -12.995222,12.942869 -24.072114,24.933539 -24.615315,26.645929 -0.721212,2.27355 -0.234323,3.9153 1.804878,6.08594 1.535887,1.63487 2.79252,4.31775 2.79252,5.96194 0,2.97185 0.02428,2.97526 4.123195,0.58074 2.267758,-1.3248 5.001522,-4.09422 6.075032,-6.15427 1.614187,-3.0976 2.688484,-3.67424 6.210139,-3.33333 3.476497,0.33653 4.332888,1.05564 4.664559,3.91681 0.351944,3.03606 -0.190805,3.61661 -4.059652,4.34241 -3.495952,0.65584 -4.95049,1.90691 -6.697023,5.76019 -1.227112,2.70731 -2.057047,5.09646 -1.8443,5.30919 0.855607,0.85561 12.861384,-7.63436 12.861384,-9.09501 0,-0.86388 2.506003,-4.02709 5.568895,-7.02937 4.711993,-4.61873 5.182164,-5.53324 3.055576,-5.94326 -3.765829,-0.72609 -8.624471,-4.25085 -8.624471,-6.25674 0,-3.75633 -2.47642,-2.92933 -8.364065,2.79317 C 27.096938,123.75946 20,126.20013 20,122.51204 20,120.94619 40.115313,99.747711 57.754821,82.724212 63.48664,77.192561 72.747597,68.016665 78.334727,62.333332 85.204359,55.345414 89.492483,51.999999 91.579906,51.999999 c 4.44764,0 3.981868,4.335716 -0.957839,8.916197 -11.162348,10.350599 -21.288732,20.742109 -21.288732,21.846108 0,2.534904 2.39113,1.046754 9.552391,-5.945047 4.046254,-3.950507 9.702253,-8.682494 12.568885,-10.515528 2.866631,-1.833033 6.974312,-5.2008 9.128179,-7.483926 3.95845,-4.196009 10.08388,-5.655435 10.08388,-2.402552 0,2.379468 -4.59549,7.134712 -9.19221,9.51177 -2.079847,1.07553 -4.790595,4.081939 -6.023887,6.680909 -1.233294,2.598971 -3.054071,4.725402 -4.046174,4.725402 -0.992102,0 -5.613952,3.99055 -10.270777,8.867889 -4.656824,4.87734 -10.179666,10.42734 -12.272981,12.333333 -2.093314,1.905996 -5.537853,5.115446 -7.65453,7.132106 -4.293298,4.09045 -5.581717,4.42989 -7.591306,2 -2.399839,-2.90176 -0.366673,-8.311317 3.820363,-10.164679 2.143992,-0.949023 3.898167,-2.547934 3.898167,-3.553134 0,-1.0052 1.563636,-3.391273 3.474748,-5.302385 1.91111,-1.91111 3.15111,-3.798382 2.755554,-4.193938 -1.11677,-1.116771 -10.230302,8.536662 -10.230302,10.836363 0,1.124444 -0.693366,2.044444 -1.540813,2.044444 -2.562601,0 -9.638565,6.091469 -12.191366,10.495149 -2.028536,3.4993 -2.078404,4.01514 -0.32304,3.34154 2.577257,-0.98898 8.721885,2.87561 8.721885,5.48553 0,2.27005 2.895981,1.47076 8.341042,-2.30213 4.51115,-3.12579 8.508762,-2.61706 7.863624,1.00069 -0.254102,1.42493 -3.902328,5.96763 -8.107171,10.09489 -4.204842,4.12726 -8.987798,9.38966 -10.62879,11.69422 -4.470102,6.27768 -0.573869,5.16272 6.531295,-1.86901 5.790644,-5.73079 10.1089,-8.27642 11.5667,-6.81862 1.214394,1.21439 -2.532201,10.78441 -5.102774,13.03414 -1.355159,1.18601 -2.463926,2.89965 -2.463926,3.80811 0,2.85736 -11.364476,10.70216 -15.503835,10.70216 -1.026125,0 -3.013084,-0.71656 -4.415465,-1.59236 -1.976374,-1.23427 -3.335728,-1.23427 -6.044646,0 -4.927869,2.24528 -5.894404,2.02872 -7.594002,-1.7015 z M 137.98986,141.09288 c 1.83892,-1.59891 3.34348,-3.43283 3.34348,-4.07538 0,-1.62909 -7.76635,3.1171 -8.58301,5.24527 -1.01339,2.64087 1.50298,2.07901 5.23953,-1.16989 z m -3.33428,-15.90215 c 1.1061,-1.17844 3.36109,-2.56887 5.01109,-3.08985 1.65,-0.52099 3,-1.56218 3,-2.31376 0,-0.75158 1.24305,-2.9468 2.76235,-4.87826 3.74732,-4.76394 0.70838,-5.67008 -3.92519,-1.17039 -1.92711,1.87142 -6.05383,5.87009 -9.17049,8.88592 -3.11667,3.01584 -5.66667,6.45209 -5.66667,7.63612 0,1.86634 0.3977,1.81482 2.98891,-0.3872 1.6439,-1.39699 3.8939,-3.50415 5,-4.68258 z M 21.333334,69.999999 c 3.0721,-2.566667 6.128868,-4.666667 6.792819,-4.666667 0.663949,0 1.207181,-0.830921 1.207181,-1.846491 0,-1.01557 4.95,-6.86557 11,-12.999999 l 11,-11.153509 -4.666666,-0.666667 c -4.525628,-0.646519 -4.698256,-0.888299 -5.7119,-8 -0.574879,-4.033333 -1.063773,-9.026856 -1.086429,-11.096717 -0.04569,-4.174653 1.028134,-4.455767 -9.868338,2.583397 -1.833334,1.18434 -3.333334,3.191348 -3.333334,4.460016 0,1.268669 -1.160892,3.357264 -2.57976,4.641321 -2.084244,1.886215 -2.312499,2.921228 -1.188343,5.388482 1.129667,2.479349 0.737083,4.17037 -2.086906,8.989142 -5.503808,9.391539 -4.389454,11.100849 2.80587,4.303931 5.966373,-5.636014 11.049139,-7.684259 11.049139,-4.452567 0,1.526927 -4.605174,7.693784 -10.924571,14.629253 -6.174984,6.776979 -9.075429,10.846535 -9.075429,12.733553 0,2.560461 0.398777,2.390193 6.666667,-2.846478 z M 136.66667,53.639482 c 4.75804,-4.62287 8.66667,-9.626243 8.66667,-11.094068 0,-1.794627 -0.67764,-1.487254 -7.61607,3.454585 -3.08884,2.2 -5.63883,4.657008 -5.66667,5.460016 -0.0278,0.803009 -1.2506,2.546003 -2.71726,3.873317 -1.46667,1.327315 -2.66667,3.261164 -2.66667,4.297443 0,2.01479 4.59061,-0.735578 10,-5.991293 z M 109.12492,32.087763 c 0.43798,-3.102014 0.32326,-3.155942 -2.5936,-1.219224 -4.35529,2.891808 -4.88482,5.458182 -1.01316,4.910323 2.15854,-0.305445 3.29259,-1.466011 3.60676,-3.691099 z m 16.55074,-0.256068 c -0.63993,-2.447064 -0.83069,-2.469702 -3.147,-0.373469 -2.91823,2.640967 -2.22228,4.560676 1.31777,3.634932 1.72135,-0.450144 2.29632,-1.475293 1.82923,-3.261463 z M 77.269127,27.535649 c -1.562581,-1.447676 -6.602459,1.968502 -6.602459,4.475344 0,2.653577 0.143408,2.630616 3.602459,-0.576798 1.981353,-1.837214 3.331353,-3.59156 3,-3.898546 z M 65.000001,26.936222 c 2.383334,-1.789 4.333334,-3.948168 4.333334,-4.798153 0,-0.849985 1.35,-2.713359 3,-4.140831 2.602927,-2.251881 2.700635,-2.655172 0.738208,-3.046976 -2.901951,-0.579381 -15.738208,11.440607 -15.738208,14.737401 0,2.714471 0.737493,2.449796 7.666666,-2.751441 z m 30.350202,1.497283 c 1.45739,-1.961571 3.249799,-4.052527 3.983132,-4.646567 0.733335,-0.59404 3.283335,-2.642453 5.666665,-4.55203 5.14962,-4.125986 6.13832,-8.294728 1.36085,-5.737906 -3.66667,1.962343 -5.2025,3.479598 -8.269655,8.169664 -1.318837,2.016667 -2.971737,3.666667 -3.673112,3.666667 -1.721221,0 -5.084748,3.464964 -5.084748,5.238094 0,2.645526 3.346315,1.456508 6.016868,-2.137922 z m 19.931847,-5.592236 c -0.7993,-0.805292 -4.61538,3.503426 -4.61538,5.211204 0,0.866956 1.14835,0.159813 2.55189,-1.571428 1.40355,-1.731242 2.33212,-3.36914 2.06349,-3.639776 z m 9.62877,-9.757936 c -0.42563,-1.063644 -0.74158,-0.747702 -0.80555,0.805556 -0.0579,1.405555 0.25723,2.193055 0.70029,1.75 0.44305,-0.443056 0.49042,-1.593056 0.10527,-2.555556 z M 80.950103,152.50565 c -0.522556,-0.52255 -0.950101,-2.09053 -0.950101,-3.48439 0,-2.01517 -0.614518,-2.34356 -3,-1.60312 -1.65,0.51215 -3.479815,1.75258 -4.066254,2.75651 -2.119569,3.62853 -11.600413,1.12341 -11.600413,-3.06517 0,-2.0954 4.767696,-7.10948 6.760137,-7.10948 1.000973,0 25.237715,-23.76544 32.048248,-31.42505 1.91128,-2.14955 4.53029,-5.55829 5.82002,-7.57495 1.28972,-2.016669 3.47595,-3.666669 4.85828,-3.666669 6.51829,0 -0.21073,12.454659 -13.294245,24.606149 -6.39733,5.94161 -14.201697,16.4957 -13.049772,17.64762 0.403175,0.40319 3.389036,-2.03898 6.635248,-5.42702 C 94.357463,130.77203 97.342571,128 97.744823,128 c 0.402254,0 1.674227,0.94285 2.826607,2.09524 2.61482,2.61482 2.73943,7.23809 0.19507,7.23809 -1.045086,0 -4.195086,3.45 -6.999995,7.66667 -3.665184,5.50993 -6.051585,7.77765 -8.483069,8.06121 -1.860777,0.217 -3.810777,-0.0331 -4.333333,-0.55556 z"
       id="path934" />
  </g>
</svg>
