<?xml version="1.0" encoding="UTF-8" standalone="no"?>
<!-- Created with Inkscape (http://www.inkscape.org/) -->

<svg
   version="1.1"
   id="svg22"
   width="169.33333"
   height="170.66667"
   viewBox="0 0 169.33333 170.66667"
   xmlns="http://www.w3.org/2000/svg"
   xmlns:svg="http://www.w3.org/2000/svg">
  <defs
     id="defs26" />
  <g
     id="g28">
    <path
       style="fill:#000000;stroke-width:1.33333"
       d="m 52.666666,163.13006 c -1.466667,-0.32398 -4.786007,-1.49299 -7.376312,-2.59779 -4.212856,-1.79684 -5.127044,-1.79108 -8.666667,0.0547 -4.541378,2.36806 -9.416072,2.70041 -10.636816,0.72521 -0.460444,-0.74501 -3.809765,-1.24936 -7.442935,-1.12077 -10.6669319,0.37751 -11.0218164,-0.78529 -10.7123468,-35.0994 0.1663614,-18.44622 3.9833358,-26.804856 10.3814328,-22.73387 0.850496,0.54115 1.750496,2.66713 2,4.7244 l 0.453644,3.74043 4.592898,-3.74482 c 5.529638,-4.50859 6.75681,-5.72976 15.740435,-15.663471 11.133521,-12.310976 7.958187,-11.753981 -5.237101,0.918656 -3.499588,3.360974 -6.429565,2.95273 -6.429565,-0.895852 0,-2.036643 2.457957,-5.85276 6.655689,-10.333333 6.271252,-6.693807 7.811789,-9.104149 5.818796,-9.104149 -0.472365,0 -7.168329,6.386399 -14.879917,14.191998 C 15.657128,97.600171 12.490966,100.12369 10.786748,99.056965 8.007644,97.317425 7.3001253,88.890352 9.7292383,86.461239 11.298214,84.892264 11.309593,84.31982 9.7998387,82.909499 8.5310125,81.724238 7.9205332,76.818206 7.730652,66.280765 7.4359433,49.925938 7.4428516,49.622956 8.5730873,29.333334 9.5358531,12.050077 10.840613,10.351376 22.485373,11.220561 c 8.913,0.665282 7.891109,0.312387 8.416861,2.906643 0.374328,1.847079 0.879764,1.773435 3.838153,-0.559229 2.99927,-2.364898 4.834498,-2.61247 15.333333,-2.068465 15.287667,0.792142 16.264076,0.780443 22.343723,-0.267711 4.442726,-0.765943 5.177581,-0.519094 5.825019,1.956719 l 0.74091,2.833238 4.332358,-2.677544 c 5.029102,-3.108156 10.75288,-3.4893747 12.284681,-0.818192 0.666382,1.162048 3.066387,1.78709 6.399589,1.666666 4.85995,-0.175583 5.37021,0.126906 5.74886,3.407948 0.37736,3.269918 0.70632,3.468133 3.58164,2.158053 3.69643,-1.684209 7.33616,-0.661625 7.33616,2.0611 0,1.046915 -5.4,7.298343 -12,13.892063 -7.664205,7.656916 -11.999995,13.02316 -11.999995,14.851944 0,2.414323 0.403046,2.647659 2.570077,1.4879 6.607358,-3.536153 9.397638,4.349219 3.250108,9.184867 -4.726856,3.718147 -5.738125,3.55137 -13.251337,-2.185395 C 83.191874,55.96362 78.731856,53.83235 75.377109,53.3845 66.153776,52.153206 67.277781,48.702997 81.404892,34.881823 88.13305,28.29937 93.39073,22.172198 93.088626,21.265883 c -0.334241,-1.002721 -2.981649,0.645393 -6.762312,4.209804 -3.417166,3.221706 -7.28852,6.788072 -8.603006,7.925258 -1.314487,1.137185 -4.199117,4.137185 -6.410289,6.666666 -4.876628,5.578641 -10.921067,9.665342 -12.684015,8.575781 -2.724736,-1.68398 -1.016748,-4.847763 7.037661,-13.036175 8.561138,-8.703571 12.794215,-14.924113 11.224231,-16.494097 -0.489994,-0.489993 -0.890897,0.06867 -0.890897,1.241475 0,1.172804 -1.089819,2.478267 -2.42182,2.901028 -1.332002,0.42276 -5.382002,3.422891 -9,6.666956 -6.948565,6.230404 -7.271449,6.548128 -14.644847,14.410755 -5.252522,5.601031 -7.848066,6.229691 -9.898941,2.397596 -1.066312,-1.992424 -0.896874,-3.008116 0.722888,-4.333333 2.209053,-1.807347 6.231245,-5.998512 13.615916,-14.187926 5.684669,-6.304153 3.068312,-7.162624 -3.391896,-1.112937 C 39.735479,37.627923 20,58.735549 20,60.232065 c 0,0.662832 1.281081,0.0116 2.846846,-1.447091 1.565766,-1.458732 4.640716,-3.046241 6.833225,-3.527797 5.413978,-1.189108 6.909668,1.502956 3.497444,6.294982 -3.343425,4.695409 -10.400053,11.781176 -11.732726,11.781176 -1.081431,0 -4.111456,5.935225 -4.111456,8.053537 0,0.693768 4.731843,-3.534464 10.515206,-9.396071 5.783364,-5.861606 11.070528,-10.657466 11.749255,-10.657466 0.678728,0 2.564847,-1.800001 4.191377,-4.000001 3.369633,-4.557673 4.505547,-4.848137 7.448923,-1.904761 2.766054,2.766055 2.677569,3.303992 -1.238095,7.52686 -3.595952,3.878074 -4.726076,7.96112 -1.238095,4.47314 1.15238,-1.152381 2.550992,-2.095238 3.108027,-2.095238 0.557033,0 1.750444,-1.378322 2.652023,-3.062936 3.615718,-6.756034 10.811378,-7.632271 10.811378,-1.316535 0,2.796596 0.48628,3.213177 3.011077,2.579493 1.656092,-0.415653 3.649856,-0.330697 4.430588,0.18879 2.365851,1.5742 3.235356,5.512333 1.512682,6.85118 -5.625303,4.371933 -14.28768,12.618329 -14.28768,13.601563 0,0.642726 1.865852,1.01631 4.146337,0.830186 6.069031,-0.49533 7.760872,2.841088 4.069449,8.025215 -3.580248,5.027995 -3.630372,7.194499 -0.215786,9.326949 3.746072,2.33946 3.31532,6.2452 -1,9.06729 -6.905198,4.51578 -9.272232,8.57547 -5,8.57547 1.1,0 2,-0.6 2,-1.33333 0,-2.51751 7.837928,-1.46086 9.290028,1.25242 0.937254,1.75127 0.945374,2.85674 0.02516,3.42546 -1.984123,1.22626 -0.240683,3.32212 2.763501,3.32212 1.904373,0 2.587977,0.92436 2.587977,3.49941 0,2.44915 -2.000857,5.43811 -6.666666,9.95894 -3.666667,3.55273 -6.666667,7.3991 -6.666667,8.54749 0,2.96713 3.490373,0.82727 9.625232,-5.90099 2.727212,-2.991 5.727212,-5.4191 6.666666,-5.39578 2.45413,0.0609 6.374768,3.29396 6.374768,5.25676 0,0.91952 2.534023,3.9206 5.631163,6.66908 5.213653,4.6267 5.514617,5.253 4.059272,8.44713 -1.858826,4.07968 -10.41898,6.91167 -17.102023,5.65792 -3.605533,-0.6764 -4.217016,-1.301 -3.695958,-3.77523 0.532468,-2.52841 0.413456,-2.63666 -0.808659,-0.7356 -0.788157,1.22603 -3.079438,2.53743 -5.091737,2.91423 -6.812912,1.27569 -15.645732,1.91193 -18.32539,1.32003 z m -8.504352,-21.63019 c 2.171692,-3.94173 3.685333,-7.43 3.363648,-7.75168 -1.315614,-1.31562 -11.435363,7.23117 -13.42434,11.33773 l -2.140429,4.41927 4.126296,-0.41927 c 3.444145,-0.34994 4.779058,-1.60405 8.074825,-7.58605 z m 7.837685,5.83347 c 1.351239,-1.62815 1.284164,-2 -0.360755,-2 -1.111334,0 -2.36597,0.9 -2.78808,2 -0.42211,1.1 -0.25977,2 0.360755,2 0.620525,0 1.875161,-0.9 2.78808,-2 z m -17.28786,-15.69761 c 5.342159,-4.87763 11.239336,-12.79536 10.259704,-13.77499 -0.799195,-0.7992 -11.604065,10.33912 -11.624138,11.98287 -0.0079,0.64732 -1.306178,2.29732 -2.885052,3.66666 -1.578874,1.36936 -2.328874,2.47581 -1.666667,2.4588 0.662208,-0.0171 3.324476,-1.96701 5.916153,-4.33334 z m 33.320253,-2.06937 c -1.933615,-0.64454 -5.365727,2.29016 -5.365727,4.58808 0,1.25187 1.074803,0.8934 3.410558,-1.13751 1.875805,-1.631 2.755632,-3.18375 1.955169,-3.45057 z M 36.335993,113.34466 C 43.357535,106.94627 47.789724,100 44.850794,100 c -1.081651,0 -3.269199,2.10759 -4.861219,4.68354 -1.59202,2.57594 -4.034745,5.29372 -5.428278,6.03952 -1.393534,0.7458 -3.489464,3.20425 -4.657626,5.46322 -2.45712,4.75155 -1.376433,4.27413 6.432322,-2.84162 z m 16.997339,-2.63614 c 0,-0.71032 -0.9,-0.94613 -2,-0.52402 -1.1,0.42211 -2,1.00328 -2,1.29149 0,0.28821 0.9,0.52401 2,0.52401 1.1,0 2,-0.58117 2,-1.29148 z M 92.419866,38.427438 c 5.892924,-5.951657 8.814494,-9.793761 7.723744,-10.157345 -2.005372,-0.668456 -18.810278,15.434644 -18.810278,18.024724 0,2.928629 1.335276,1.981073 11.086534,-7.867379 z M 33.570673,35.123763 c 4.568422,-4.849584 5.214581,-7.647386 1.784836,-7.728154 -1.529431,-0.03601 -3.385207,-1.604022 -4.401179,-3.718698 l -1.756688,-3.656424 -4.250277,2.989757 c -7.641325,5.375107 -9.994341,9.876265 -4.433261,8.480522 4.695698,-1.178545 6.655619,1.853153 3.835825,5.933435 -1.232439,1.783357 -3.020868,4.040838 -3.974285,5.016626 -0.953419,0.975789 -1.38328,2.340809 -0.955248,3.033378 0.829232,1.341725 8.247815,-4.084714 14.150277,-10.350442 z M 113.66666,161.78363 c -3.04031,-1.22679 -1.73278,-4.05044 3.98702,-8.61005 3.10952,-2.4788 7.41992,-6.45691 9.57866,-8.84024 4.17256,-4.60667 7.99874,-5.59362 9.23144,-2.38124 0.45832,1.19438 -0.78016,3.04101 -3.19068,4.75746 -2.6805,1.90868 -3.94268,3.94831 -3.94888,6.38123 -0.0149,5.84205 -9.57241,11.14825 -15.65756,8.69284 z m 18.66667,0.0425 c -3.52693,-1.51314 -1.55242,-6.50036 4.26793,-10.7799 4.57843,-3.36642 16.16175,-17.66614 14.98408,-18.49802 -0.1386,-0.0979 -5.47325,-0.56261 -11.85476,-1.03266 l -11.60275,-0.85464 -2.32092,5.00286 c -1.27651,2.75158 -4.60527,7.63735 -7.39725,10.85726 -2.79198,3.2199 -5.07633,6.6699 -5.07633,7.66666 0,2.80462 -6.37045,2.19046 -7.95309,-0.76673 -2.32212,-4.33892 -1.5706,-6.73184 2.95309,-9.40308 2.38333,-1.40736 5.53189,-4.83712 6.99679,-7.62171 1.46489,-2.78457 3.44346,-5.88429 4.39682,-6.88826 0.95336,-1.00397 1.39222,-2.16655 0.97526,-2.58351 -0.70268,-0.70268 -12.73431,9.83493 -13.78765,12.07557 -0.80704,1.71672 -5.17647,1.09427 -6.90046,-0.98302 -0.905168,-1.09066 -1.290095,-2.90987 -0.855393,-4.04268 0.528757,-1.37792 -0.304531,-2.47594 -2.517499,-3.31731 -5.352905,-2.03517 -4.185348,-6.44188 3.795052,-14.32365 7.72304,-7.6276 9.44222,-8.29744 11.48749,-4.47584 1.47242,2.75125 -0.27674,5.6237 -8.32609,13.67306 -2.3928,2.39279 -3.58535,4.47354 -2.72779,4.7594 0.83804,0.27934 5.22847,-3.27162 9.75653,-7.89103 7.94495,-8.10525 8.30146,-8.30569 10.196,-5.73226 1.15259,1.56561 1.63504,3.97645 1.16844,5.83885 l -0.79474,3.17219 4.8115,-2.83885 c 5.17989,-3.05621 9.33774,-3.64348 10.65907,-1.50552 1.45516,2.35449 8.54176,1.4243 11.98986,-1.57378 4.87517,-4.23891 4.40368,-6.74596 -1.07536,-5.71808 -6.2076,1.16455 -8.9081,-2.04788 -5.00371,-5.95226 2.60939,-2.60939 3.64777,-5.42255 2.00156,-5.42255 -1.31136,0 -6.45208,3.01592 -8.3134,4.87725 -2.25433,2.25432 -7.86006,2.33429 -8.60416,0.12274 -1.08642,-3.22895 0.65676,-5.70715 6.79957,-9.666663 7.18003,-4.628065 9.37175,-10.108007 3.60158,-9.00497 -3.86239,0.738348 -7.41354,-1.589639 -7.36007,-4.824952 0.0197,-1.19354 2.47549,-3.670073 5.45725,-5.503407 7.56986,-4.654308 8.4836,-6.892817 5.74296,-14.069095 -2.05873,-5.390708 -2.67256,-5.930905 -6.73925,-5.930905 -2.89615,0 -5.01316,-0.86297 -6.00223,-2.446718 -1.00264,-1.605484 -2.59767,-2.242238 -4.63911,-1.85199 -2.37586,0.454173 -3.49176,-0.240695 -4.72175,-2.940231 -1.69369,-3.717259 -1.96339,-3.332911 8.86626,-12.63549 C 129.4,38.162311 133.15,34.302366 137,30.214582 c 7.19048,-7.634575 9.11236,-11.438907 4.54348,-8.993715 C 137.8735,23.18498 120,40.663417 120,42.288162 c 0,1.396228 -7.85188,5.711839 -10.39219,5.711839 -3.7391,0 -2.49938,-4.597161 2.80609,-10.405562 3.14544,-3.443608 6.75291,-7.911105 8.01661,-9.927772 C 121.69421,25.650001 123.49921,24 124.44163,24 c 0.94242,0 3.47443,-2.341042 5.62669,-5.202317 l 3.9132,-5.202317 12.38828,0.04205 c 13.25972,0.045 15.73592,1.309928 13.67666,6.98646 -0.52352,1.443129 -0.33766,4.625099 0.41302,7.071042 1.07369,3.498414 0.91488,5.214254 -0.74444,8.042793 -1.80298,3.073436 -1.83863,3.845308 -0.24551,5.314861 2.81128,2.593231 2.24893,7.240669 -1.48924,12.307474 l -3.35304,4.544788 3.35304,1.756835 c 2.56361,1.343209 3.35304,2.80708 3.35304,6.217659 0,2.453452 -0.93791,5.239221 -2.08425,6.190597 -1.89011,1.568655 -1.89011,1.83842 0,2.89618 3.47061,1.94225 2.68829,9.909976 -1.22476,12.473904 l -3.30902,2.168148 3.55912,6.073179 3.55912,6.073184 -2.77344,5.06331 -2.77345,5.06331 2.97523,1.94944 c 2.36948,1.55254 2.84596,2.8541 2.34032,6.39277 -0.3492,2.44383 -1.4145,5.5725 -2.36734,6.95262 -1.43742,2.082 -1.39625,3.02236 0.24183,5.52237 1.5724,2.3998 1.78516,5.51781 1.04527,15.31899 l -0.92898,12.30592 -6.70154,-0.79371 c -3.68586,-0.43653 -7.34428,-0.26294 -8.12983,0.38574 -1.85895,1.53506 -10.28468,2.83054 -12.42828,1.91089 z M 146.6805,51.980565 c 1.57415,-2.210691 2.64224,-4.679009 2.37352,-5.485153 C 148.41233,44.570318 140,51.653149 140,54.118526 c 0,3.239155 3.69329,2.057191 6.6805,-2.137961 z m -5.6752,-9.751456 c 8.16086,-8.268182 11.31148,-14.586296 5.80383,-11.638686 -3.79115,2.028956 -17.4758,16.414125 -17.4758,18.370374 0,3.523851 3.59737,1.449107 11.67197,-6.731688 z M 86.222221,119.11111 c -2.249073,-2.24907 -0.343159,-6.13828 6.038376,-12.32191 3.809997,-3.69185 6.535873,-7.103837 6.057505,-7.582206 -1.567593,-1.567592 -5.038544,0.670175 -7.366833,4.749486 -2.175755,3.81207 -8.512655,7.37103 -10.171255,5.71243 -1.37979,-1.37979 -0.747384,-8.93489 0.929055,-11.099031 0.893345,-1.153234 2.622851,-2.653234 3.843347,-3.333333 1.220496,-0.680099 4.93525,-3.786544 8.255011,-6.903211 6.479753,-6.083343 10.645563,-7.136296 12.741233,-3.220489 0.96234,1.798145 2.38765,2.287886 5.38025,1.848666 4.23027,-0.620872 4.61801,-0.04948 4.1191,6.070168 -0.22903,2.809347 0.13899,2.969933 5.01829,2.189701 5.73769,-0.917494 7.63202,0.477913 6.30876,4.647157 -0.93065,2.932192 -7.74959,6.118032 -10.68445,4.991822 -1.11317,-0.42717 -2.02395,-2.31915 -2.02395,-4.20441 0,-2.956736 -0.28795,-3.191508 -2.09556,-1.708517 -2.40182,1.970487 -9.88844,9.494337 -16.275479,16.356427 -4.087096,4.39107 -8.007759,5.8729 -10.0734,3.80725 z M 103.95759,92.904763 C 103.98092,92.302383 103.1,92.709526 102,93.809526 c -1.1,1.1 -2.000002,2.757535 -2.000002,3.683411 0,1.791117 3.884992,-2.712882 3.957592,-4.588174 z M 84.472977,85.976055 c -1.070069,-2.788559 2.02654,-9.792776 5.043221,-11.407255 3.23125,-1.729312 7.817133,0.632672 7.817133,4.026255 0,2.791483 -7.133262,9.404947 -10.144146,9.404947 -1.066751,0 -2.289044,-0.910776 -2.716208,-2.023947 z m 36.559453,-5.926551 c -1.89917,-1.493893 -4.61541,-2.716169 -6.03609,-2.716169 -1.42067,0 -3.63869,-1.16648 -4.92893,-2.592179 -1.29024,-1.425697 -3.57196,-2.775697 -5.07048,-3 -1.49853,-0.224301 -3.38587,-1.489752 -4.19409,-2.812111 -1.226227,-2.006252 -0.64498,-3.165124 3.51091,-7 2.73923,-2.527641 5.90806,-4.595711 7.04185,-4.595711 3.18374,0 3.84536,3.652642 1.35113,7.459313 -2.9605,4.518289 -1.9702,5.251649 2.42407,1.795124 4.87943,-3.83817 8.10171,-2.94099 8.61859,2.399681 0.4023,4.156783 0.51734,4.232591 3.47848,2.292375 2.58857,-1.696099 3.29775,-1.723008 4.58338,-0.173912 1.64112,1.977425 -0.37496,10.22742 -2.4993,10.22742 -0.60162,0 -1.93369,0.322276 -2.96016,0.716169 -1.02647,0.393892 -3.42018,-0.506108 -5.31936,-2 z"
       id="path795" />
  </g>
</svg>
