<?xml version="1.0" encoding="UTF-8" standalone="no"?>
<!-- Created with Inkscape (http://www.inkscape.org/) -->

<svg
   version="1.1"
   id="svg32"
   width="164"
   height="165.33333"
   viewBox="0 0 164 165.33333"
   xmlns="http://www.w3.org/2000/svg"
   xmlns:svg="http://www.w3.org/2000/svg">
  <defs
     id="defs36" />
  <g
     id="g38">
    <path
       style="fill:#000000;stroke-width:1.33333"
       d="m 46.636608,156.76994 c -4.103057,-4.10306 1.119193,-20.3341 8.905729,-27.6795 7.061234,-6.66119 18.643083,-11.75711 26.72118,-11.75711 17.090874,0 29.413673,7.23045 35.690933,20.94179 4.20791,9.1913 4.45441,16.41174 0.64156,18.7929 -3.35061,2.0925 -69.84427,1.81704 -71.959402,-0.29808 z M 9.7839203,45.26746 C 5.9336187,43.805231 5.5020399,41.870982 5.1113091,24.32574 4.8424593,12.253401 5.1796635,8.9155745 6.8353919,7.2598461 8.6394409,5.455797 17.678352,5.2015032 80.010237,5.2012007 c 66.715053,-3.236e-4 71.262603,0.1481673 73.476493,2.399227 1.7027,1.731273 2.80678,6.4199223 3.96424,16.8349093 2.38086,21.422945 7.76876,19.508833 -56.85399,20.197959 C 71.301973,44.945694 39.533333,45.462504 30,45.781766 20.466667,46.101028 11.369431,45.86959 9.7839203,45.26746 Z M 52.293137,30.998502 c 1.994559,-2.015844 5.458362,-5.860099 7.697339,-8.54279 l 4.070869,-4.87762 -5.030673,-0.707167 C 56.263803,16.481982 45.3,16.276912 34.666667,16.415212 l -19.333334,0.251454 v 7.986906 c 0,7.795375 0.09592,8.007417 4,8.842247 2.2,0.470438 9.7,0.925656 16.666667,1.011596 12.14434,0.149812 12.816209,0.0051 16.293137,-3.508913 z m 92.844533,0.455759 c 2.12404,-1.31273 2.0033,-15.0335 -0.13767,-15.644943 -1.71153,-0.4888 -10.23399,-0.325564 -27.49195,0.526574 -9.32287,0.460329 -10.01988,0.719821 -13.6308,5.074622 -2.09303,2.524218 -3.82166,5.275292 -3.84138,6.1135 -0.0197,0.838208 -1.08587,1.982464 -2.369203,2.542792 -1.901866,0.830388 -1.593674,1.177593 1.666666,1.877643 5.283917,1.134546 43.843147,0.721893 45.804337,-0.490188 z M 74.435188,24.999999 c 3.004435,-3.849999 4.90582,-7.193261 4.225304,-7.429469 -1.600556,-0.555553 -7.897241,4.018476 -7.951925,5.776427 -0.02304,0.740827 -1.566182,2.990826 -3.429192,5 -3.056266,3.296045 -3.139044,3.653042 -0.847043,3.653042 1.481875,0 4.816201,-2.916494 8.002856,-7 z m 14.940227,2.265246 c 1.60943,-2.604116 4.358366,-5.673121 6.108745,-6.820013 C 99.694457,17.686538 99.510763,15.99999 95,16.000038 c -2.581481,2.8e-5 -4.751852,1.36009 -7.333333,4.59543 C 85.65,23.122932 84,25.625669 84,26.157107 c 0,0.531438 -0.992992,2.063495 -2.206651,3.404571 -2.083452,2.302189 -2.015084,2.438321 1.224588,2.438321 2.49256,0 4.231763,-1.295277 6.357478,-4.734754 z"
       id="path656" />
  </g>
</svg>
