<?xml version="1.0" encoding="UTF-8" standalone="no"?>
<!-- Created with Inkscape (http://www.inkscape.org/) -->

<svg
   version="1.1"
   id="svg42"
   width="164"
   height="152"
   viewBox="0 0 164 152"
   xmlns="http://www.w3.org/2000/svg"
   xmlns:svg="http://www.w3.org/2000/svg">
  <defs
     id="defs46" />
  <g
     id="g48">
    <path
       style="fill:#000000;stroke-width:1.33333"
       d="m 6.7718264,143.46004 c -2.0551691,-2.47632 -2.0980844,-23.05871 -0.053216,-25.52263 2.3115888,-2.78529 9.8273136,-3.791 13.4743266,-1.80304 4.832118,2.63394 116.750013,1.75254 124.807103,-0.98291 6.78225,-2.30264 10.26352,-1.51493 13.21544,2.99029 4.12948,6.30237 -0.19971,27.19158 -5.63532,27.19158 -1.91053,0 -13.34591,-7.33628 -14.60112,-9.36724 -0.44205,-0.71526 -23.90605,-1.19244 -56.368167,-1.14629 L 26,134.89883 l -6.789828,5.21725 c -7.271027,5.587 -9.9737564,6.31361 -12.4383456,3.34396 z M 81.303275,72.769941 c -4.103058,-4.103057 1.119193,-20.334097 8.905729,-27.679496 7.061233,-6.661188 18.643086,-11.757112 26.721176,-11.757112 17.09087,0 29.41367,7.230447 35.69093,20.941784 4.20792,9.191303 4.45441,16.411748 0.64157,18.792912 -3.35061,2.092491 -69.844273,1.817044 -71.959405,-0.298088 z M 6.9507524,63.635729 C 4.1708693,60.676679 4.1140871,59.890259 4.9045317,35.296111 5.3516847,21.383249 6.2024137,8.686368 6.7950405,7.0808177 7.8493356,4.224512 8.3629417,4.1651028 30.640348,4.3226096 44.977501,4.4239768 53.843669,5.0111981 54.584309,5.9084584 56.459869,8.1806367 57.259707,63.734585 55.43862,65.245953 54.603679,65.938893 43.995667,66.544857 31.865261,66.59254 10.568387,66.676255 9.7116592,66.57458 6.9507524,63.635729 Z"
       id="path517" />
  </g>
</svg>
