<?xml version="1.0" encoding="UTF-8" standalone="no"?>
<!-- Created with Inkscape (http://www.inkscape.org/) -->

<svg
   version="1.1"
   id="svg52"
   width="161.33333"
   height="157.33333"
   viewBox="0 0 161.33333 157.33333"
   xmlns="http://www.w3.org/2000/svg"
   xmlns:svg="http://www.w3.org/2000/svg">
  <defs
     id="defs56" />
  <g
     id="g58">
    <path
       style="fill:#000000;stroke-width:1.33333"
       d="m 28.266666,151.73333 c -0.88,-0.88 -1.6,-2.49879 -1.6,-3.59731 0,-2.27869 15.755869,-17.46936 18.119357,-17.46936 2.364672,0 4.940648,3.71847 4.097713,5.91512 -1.181752,3.0796 2.641668,1.0078 5.11976,-2.77425 3.209563,-4.89841 9.190767,-3.95803 9.704728,1.5258 0.299155,3.19189 -0.44084,4.53875 -3.662832,6.66667 -2.220749,1.46666 -4.03945,3.14393 -4.04156,3.72726 -0.0021,0.58334 -1.47656,2.53334 -3.27656,4.33334 -4.063024,4.06302 -10.017853,4.39089 -11.007608,0.60606 C 41.336123,149.2 40.492294,148 39.844491,148 c -0.647804,0 -2.377825,1.2 -3.844492,2.66666 -3.043732,3.04374 -5.427476,3.37252 -7.733333,1.06667 z m 31.843657,-0.86052 c -1.40348,-2.62243 0.47958,-6.30155 5.906173,-11.53948 3.783636,-3.65209 10.952276,-8.66667 12.389529,-8.66667 1.601039,0 5.337523,-4.25445 8.038132,-9.15241 1.22238,-2.21697 4.172508,-6.14863 6.555841,-8.73702 5.732776,-6.22601 5.483787,-8.06569 -0.646921,-4.77982 -5.967327,3.19829 -7.504491,3.28674 -11.509896,0.6623 -2.911824,-1.9079 -3.336016,-1.72693 -8.594784,3.66667 -3.042482,3.12049 -7.287921,7.02362 -9.434308,8.67362 -9.436463,7.25413 -11.216959,0.28523 -2.38493,-9.33467 5.401173,-5.88299 6.730256,-10.47881 2.202316,-7.61537 -3.802862,2.40491 -7.968751,1.4466 -9.335203,-2.14744 l -1.304392,-3.430807 -3.65416,4.430807 c -4.887224,5.92595 -5.769309,6.76895 -9.730705,9.29951 -1.866141,1.1921 -4.866141,4.33523 -6.666666,6.98472 -1.800526,2.64949 -4.368822,5.17112 -5.707326,5.60361 -1.338504,0.43249 -5.315698,3.82372 -8.83821,7.53606 -6.887231,7.25839 -10.7281465,7.87834 -10.7281465,1.73159 0,-2.24046 1.8372436,-5.0294 5.5172335,-8.37518 9.915572,-9.01505 21.149433,-20.60756 21.149433,-21.82464 0,-2.74688 -3.385616,-0.74299 -10.836769,6.41412 -7.994112,7.67863 -14.9121028,11.69852 -18.0561765,10.49202 -2.1579257,-0.82807 1.8180705,-8.42346 4.9377907,-9.43272 1.1246648,-0.36384 3.1085868,-2.46229 4.4087148,-4.66323 l 2.363869,-4.00172 h -3.408714 c -3.7799513,0 -4.7153378,-3.213294 -1.315199,-4.518049 2.969565,-1.13953 1.88553,-6.669284 -1.4268492,-7.27847 C 5.2187326,89.990809 4.219143,88.273506 5.4114486,82.986978 6.2772448,79.14815 6.0384171,77.515765 4.3357062,75.634292 2.4234825,73.521308 2.3641837,72.507716 3.8661362,67.607952 4.8116072,64.523577 5.5201768,60.649999 5.4407352,58.999999 5.1604046,53.17753 5.083736,48.629543 5.210347,45.333332 5.3388611,41.987574 5.3880508,24.784866 5.302642,13.055768 5.2334884,3.5589798 8.0727241,2.2064934 26.19749,3.1023858 c 11.347433,0.5608944 14.5056,1.1521216 15.482918,2.8984929 1.085912,1.9404171 1.483368,1.9668749 3.440339,0.229015 2.654876,-2.3576264 11.672768,-4.9860386 12.91489,-3.7642563 0.485178,0.4772327 4.275642,0.8676959 8.423251,0.8676959 6.742222,0 7.585109,0.309127 7.956434,2.9180096 C 74.858352,9.3640074 73.781516,10.625414 62.678385,20 c -3.908474,3.3 -8.060033,7.185199 -9.225685,8.633777 -5.659568,7.033246 -13.689935,14.032889 -16.09929,14.032889 -4.928613,0 -2.926047,-5.175971 5.646589,-14.594559 11.021984,-12.109641 12.028079,-13.405441 10.408337,-13.405441 -1.5615,0 -9.027072,6.565186 -20.109065,17.683808 -5.2512,5.268556 -8.335476,7.424028 -9.812217,6.857349 -3.736552,-1.43385 -2.380274,-4.603294 5.286301,-12.353404 8.790839,-8.886619 10.9415,-12.187753 7.940223,-12.187753 -1.125801,0 -2.046912,0.531635 -2.046912,1.181412 0,0.649776 -2.136231,2.195119 -4.747179,3.434095 -2.610949,1.238976 -5.110596,3.257341 -5.554772,4.485256 -0.444175,1.227913 -2.645119,4.831952 -4.890987,8.008974 -3.716711,5.257688 -3.876424,5.892231 -1.778562,7.066254 2.516968,1.408566 3.196663,8.448783 0.949751,9.83745 -0.745295,0.460619 -1.008404,1.398425 -0.584685,2.084015 0.423717,0.68559 2.740138,-0.255868 5.147602,-2.092131 5.541784,-4.226924 8.445224,-4.225588 10.372705,0.0048 1.428838,3.135956 1.713744,3.218696 4.591171,1.333333 3.921373,-2.569382 7.993277,-2.573964 8.977124,-0.01013 1.151902,3.001811 6.988309,2.406492 9.80385,-1 3.168664,-3.833731 7.594675,-6.339709 9.203511,-5.210968 0.688008,0.482707 1.943713,2.377643 2.790457,4.210976 0.881253,1.908055 1.578117,2.465284 1.629773,1.303205 0.109507,-2.463513 8.617828,-7.291896 10.643407,-6.040018 0.795758,0.491805 1.446833,2.701638 1.446833,4.910741 0,3.651408 0.190476,3.826072 2.095239,1.921311 1.15238,-1.152382 2.506636,-2.095239 3.009454,-2.095239 1.799931,0 14.766042,-11.434662 18.898842,-16.666666 2.31707,-2.933334 6.59719,-7.883333 9.5114,-11 10.34358,-11.0621981 2.12019,-5.464744 -10.28392,7 -7.215901,7.25118 -13.702802,12.666666 -15.172673,12.666666 -1.412196,0 -2.93845,0.6 -3.391675,1.333333 -0.453226,0.733334 -1.688635,1.333334 -2.745356,1.333334 -4.379203,0 -1.233182,-4.986513 10.412022,-16.503289 6.783332,-6.708523 14.010312,-14.435019 16.059962,-17.1699912 4.46475,-5.9576195 9.22803,-7.51917 14.12047,-4.6291328 3.04038,1.7959967 3.85073,1.8209217 6.08503,0.1871648 3.35944,-2.4564833 9.30468,-2.410903 11.37795,0.087231 1.18892,1.4325552 2.30377,1.6149189 4.0756,0.6666667 3.52739,-1.8877944 7.54828,-1.6025912 8.39165,0.5952221 0.40112,1.0452957 0.1016,4.1740444 -0.66568,6.9527754 -1.00306,3.63279 -0.98058,5.190376 0.08,5.543908 2.09284,0.697616 1.82911,7.275501 -0.41476,10.344159 -1.41585,1.936303 -1.51445,3.036599 -0.39317,4.387659 3.20936,3.867037 -0.84828,16.048372 -5.38373,16.162393 -0.91667,0.02304 -1.66667,0.613965 -1.66667,1.313155 0,2.266059 -12.53816,13.736914 -17.11702,15.659935 -2.87567,1.207719 -4.19639,2.530872 -3.73261,3.739475 1.05626,2.752543 -18.84139,21.996001 -22.74376,21.996001 -2.18437,0 -3.073262,-0.771288 -3.073262,-2.666667 0,-3.432294 -3.612063,-3.432294 -8,0 -4.098032,3.205528 -8.785321,3.409132 -10.439397,0.453463 -1.106993,-1.978085 -1.403024,-1.905924 -2.786576,0.679268 -1.355283,2.532367 -1.142459,3.04666 1.709465,4.13096 1.791608,0.681168 3.65514,1.881932 4.141183,2.668364 0.599159,0.96946 1.809717,0.781277 3.759527,-0.584423 1.581698,-1.107864 4.542311,-2.014298 6.579139,-2.014298 3.363762,0 3.703326,0.44056 3.703326,4.804789 v 4.804783 l 4.713065,-4.13812 c 5.46424,-4.797668 10.63306,-5.449216 11.67327,-1.471452 0.96258,3.680932 2.33799,3.370612 8.20832,-1.851948 3.22214,-2.866594 4.70564,-5.122814 4.05769,-6.171222 -0.76543,-1.238498 -1.3362,-1.090022 -2.27781,0.592532 -2.98244,5.32932 -11.70787,5.178196 -11.70787,-0.202778 0,-3.317479 18.66811,-20.522762 21.79188,-20.084276 2.10513,0.295497 2.93261,-0.550917 3.5792,-3.66109 0.46257,-2.224998 2.48516,-5.824998 4.49464,-8 2.00949,-2.175003 4.61675,-5.004551 5.79391,-6.287884 5.81402,-6.338439 10.4782,0.557551 5.77201,8.533941 -2.44519,4.144296 -2.53207,4.931863 -0.79705,7.225341 1.071,1.415728 1.96634,3.348347 1.98968,4.294708 0.0509,2.065311 -4.9116,9.27058 -8.62427,12.521953 -1.46667,1.284436 -1.95208,2.3553 -1.07869,2.379697 0.87338,0.0244 1.9588,-0.555641 2.41202,-1.288974 1.33,-2.151995 8.29183,-1.566672 9.1895,0.772617 1.09536,2.854471 -0.4117,8.688424 -3.01754,11.681141 -1.96528,2.257054 -1.95093,2.589494 0.17908,4.146984 2.95866,2.16343 2.8467,5.53391 -0.37864,11.39925 -1.41141,2.56667 -2.95257,5.71667 -3.4248,7 C 150.74202,122.95 149.52562,124 148.51116,124 c -1.01447,0 -1.8445,0.4558 -1.8445,1.01289 0,0.55708 1.87575,1.00708 4.16834,1 5.72069,-0.0177 7.4801,3.03956 5.66428,9.84257 -1.24827,4.67663 -1.09022,5.62768 1.33898,8.05688 l 2.75432,2.75432 -2.80625,2.80626 c -3.29456,3.29457 -7.4358,2.56012 -9.31533,-1.65207 -1.23452,-2.76665 -1.27414,-2.76149 -5.39119,0.70277 -5.95419,5.01012 -11.37833,5.80896 -14.76442,2.1744 -1.8311,-1.96545 -3.00227,-2.41068 -3.63752,-1.38281 -2.5498,4.12565 -14.01121,4.58361 -14.01121,0.55984 0,-1.39355 -1.04403,-1.19929 -4.33333,0.80623 -5.71697,3.4857 -10.988001,3.40509 -13.517813,-0.20672 -1.807775,-2.58095 -2.395859,-2.69578 -6.051657,-1.18148 -4.610558,1.90974 -8.097195,1.0839 -8.097195,-1.91791 0,-2.99045 -3.570631,-2.49443 -4.382133,0.60877 -1.298339,4.96486 -11.906115,7.12684 -14.174209,2.88887 z m 77.223007,-15.08504 c 0,-1.98072 -4.244,-0.74695 -5.31652,1.54556 -0.51462,1.1 -1.62893,3.34185 -2.47624,4.98191 -2.47309,4.78688 -1.83612,4.70426 3.12609,-0.40546 2.56667,-2.64296 4.66667,-5.39786 4.66667,-6.12201 z m -1.23116,-15.34242 c 3.61047,-3.78838 6.56449,-7.52342 6.56449,-8.30009 0,-1.47806 -14.06302,11.88833 -17.40406,16.54193 -1.0611,1.47796 -3.59294,3.42133 -5.62632,4.3186 -2.46554,1.08797 -3.96452,2.96873 -4.5,5.64613 -0.44162,2.20812 -1.32795,4.01474 -1.96962,4.01474 -0.64166,0 -1.16666,0.71988 -1.16666,1.59972 0,0.87986 3.94597,-2.57014 8.76883,-7.66666 4.82286,-5.09651 11.72286,-12.36598 15.33334,-16.15437 z m -30.04789,14.57713 c 1.49652,-1.2957 5.26544,-5.80582 8.37539,-10.02248 3.10994,-4.21667 6.38552,-7.67077 7.27905,-7.67578 0.89354,-0.005 3.10459,-2.25501 4.91345,-5 1.80886,-2.74499 5.04656,-7.06165 7.19489,-9.59259 2.80104,-3.299893 3.40036,-4.770265 2.11852,-5.197549 -0.98314,-0.327716 -2.72085,0.795473 -3.86156,2.495979 -1.92827,2.87453 -8.90337,10.51113 -20.04674,21.94788 -2.55166,2.61885 -6.88619,5.79515 -9.63227,7.05846 -3.865344,1.77822 -5.000651,3.07479 -5.027281,5.74137 -0.05915,5.92259 2.059713,5.98228 8.686551,0.24471 z m -10.969773,-3.57515 c 1.329814,-0.41901 2.044556,-1.36582 1.588316,-2.10403 -0.843177,-1.36429 8.672687,-14.58515 13.831387,-19.21662 1.55602,-1.39699 2.82912,-3.04699 2.82912,-3.66667 0,-2.49078 -2.71373,-0.81949 -8.21315,5.05822 -8.806949,9.41275 -12.486651,12.92138 -16.301903,15.54401 -2.19572,1.50936 -3.484945,3.63358 -3.484945,5.74205 0,3.23957 0.11712,3.28352 3.666666,1.37568 2.016667,-1.08394 4.754696,-2.31363 6.084509,-2.73264 z M 20.761905,99.42857 C 23.682506,96.507967 23.023642,94.387113 20,96.976035 c -2.55874,2.190863 -3.505782,4.357295 -1.904762,4.357295 0.419047,0 1.619047,-0.85714 2.666667,-1.90476 z m 19.904761,-3.725977 c 0.760901,-0.567876 0.331577,-1.00386 -1,-1.015511 -1.297056,-0.01133 -2.333333,0.966513 -2.333333,2.201805 0,1.222222 0.45,1.679202 1,1.015511 0.55,-0.663691 1.6,-1.654503 2.333333,-2.201805 z m 31.333333,2.376094 c 0,-0.323388 -0.6,-0.958797 -1.333334,-1.412022 -0.733333,-0.453226 -1.333333,-0.188635 -1.333333,0.587977 0,0.776612 0.6,1.412023 1.333333,1.412023 0.733334,0 1.333334,-0.26459 1.333334,-0.587978 z M 46.361412,89.582425 c 0.324778,-0.974334 -0.284781,-1.272316 -1.583333,-0.774015 -1.161277,0.445624 -2.111413,1.396032 -2.111413,2.112017 0,1.752523 3.030374,0.655114 3.694746,-1.338002 z M 132,86.666665 c 1.69108,-1.466667 2.53289,-2.647584 1.87068,-2.624263 -1.54802,0.05452 -5.87068,3.322224 -5.87068,4.43792 0,1.356739 0.72191,1.029415 4,-1.813657 z M 34.253967,85.936506 c 1.134922,-1.134921 1.788386,-2.338598 1.452143,-2.674841 -0.336241,-0.336241 -1.700663,0.592329 -3.032047,2.063492 -2.827266,3.124094 -1.461376,3.65263 1.579904,0.611349 z m 17.746032,0.566899 c 0,0.823126 0.6,1.496593 1.333333,1.496593 0.733334,0 1.333334,-1.2 1.333334,-2.666666 0,-1.466667 -0.339446,-2.666667 -0.754322,-2.666667 -1.84506,0 -5.912345,2.896307 -5.912345,4.21017 0,0.950611 0.688525,0.878256 2,-0.21017 1.381817,-1.146805 2,-1.197268 2,-0.16326 z M 25.333333,80.108762 c 0,-0.516597 1.223373,-2.252404 2.718606,-3.857349 1.495234,-1.604944 2.015044,-2.918081 1.155132,-2.918081 -1.613102,0 -7.869217,6.589401 -7.87211,8.291486 -8.95e-4,0.526986 0.898372,0.612792 1.998372,0.190682 1.1,-0.42211 2,-1.190142 2,-1.706738 z m 33.441243,-2.876234 c 3.54708,-3.313468 4.022141,-4.333524 2.474341,-5.312916 -3.534986,-2.236811 -5.248918,-1.339813 -5.248918,2.747053 0,2.2 -0.6,4 -1.333333,4 -0.733334,0 -1.333334,0.6 -1.333334,1.333333 0,2.026235 0.679571,1.680599 5.441244,-2.76747 z M 143.1397,72.642869 c -1.22778,-3.199564 -4.47304,-0.512412 -4.47304,3.703793 v 4.061362 l 2.58339,-2.978664 c 1.42085,-1.638267 2.2712,-3.792187 1.88965,-4.786491 z M 81.333332,71.375178 c 0,-1.189445 -0.78213,-1.658022 -1.992342,-1.193619 -1.095788,0.420493 -1.660378,1.301661 -1.254644,1.958153 1.163488,1.882564 3.246986,1.391985 3.246986,-0.764534 z m 16.666666,0.62482 c 0.453225,-0.733333 0.188635,-1.333333 -0.587977,-1.333333 -0.776612,0 -1.412023,0.6 -1.412023,1.333333 0,0.733334 0.264589,1.333334 0.587977,1.333334 0.323388,0 0.958798,-0.6 1.412023,-1.333334 z m 1.577485,-5.583333 c -0.425634,-1.063644 -0.741577,-0.747701 -0.805556,0.805556 -0.05789,1.405555 0.257238,2.193055 0.700294,1.75 0.443054,-0.443056 0.490424,-1.593056 0.105266,-2.555556 z M 23.373729,62.929283 c -0.895911,-0.895911 -4.707063,2.429626 -4.707063,4.107292 0,0.757198 1.203679,0.28741 2.674842,-1.043974 1.471162,-1.331384 2.385661,-2.709877 2.032221,-3.063318 z m 101.719001,-0.01904 c 0.54474,-3.720779 -1.57012,-3.71749 -5.04079,0.0079 -3.68308,3.953326 -3.41803,5.037175 0.94806,3.87685 2.35366,-0.625507 3.81923,-2.016579 4.09273,-3.88469 z m -57.092731,2.423089 c 0,-0.733333 -0.26459,-1.333333 -0.587978,-1.333333 -0.323388,0 -0.958797,0.6 -1.412022,1.333333 -0.453226,0.733333 -0.188635,1.333333 0.587977,1.333333 0.776612,0 1.412023,-0.6 1.412023,-1.333333 z m 61.875051,-9.666667 c 1.56614,-1.649999 4.93493,-4.836127 7.48623,-7.080285 4.59326,-4.040309 10.35557,-12.586381 8.48653,-12.586381 -1.34185,0 -20.51448,20.118697 -20.51448,21.526764 0,1.920628 1.55935,1.281982 4.54172,-1.860098 z m -16.96423,-1.249999 c -0.42564,-1.063644 -0.74158,-0.747702 -0.80556,0.805555 -0.0579,1.405555 0.25724,2.193055 0.70029,1.75 0.44306,-0.443056 0.49043,-1.593056 0.10527,-2.555555 z m -9.76462,-3.584818 2.62392,-4.492769 -3.19088,1.707708 c -4.096163,2.1922 -6.579242,4.691569 -6.579242,6.622407 0,3.01997 4.576582,0.56245 7.146202,-3.837346 z m 19.3082,-2.987434 c 0.9517,-1.523918 1.38879,-3.112331 0.97131,-3.529808 -0.41747,-0.417479 -0.75905,-0.05905 -0.75905,0.796504 0,0.855556 -0.82653,1.555556 -1.83674,1.555556 -2.17153,0 -5.15149,3.23399 -4.02133,4.364144 1.24606,1.246069 3.7658,-0.176026 5.64581,-3.186396 z m -5.25985,-10.897845 c 6.61388,-6.206979 8.27054,-8.94657 5.4101,-8.94657 -0.76744,0 -2.37163,1.701082 -3.56487,3.780182 -1.19324,2.0791 -4.30826,4.9291 -6.92225,6.333333 -2.614,1.404233 -4.96555,3.664161 -5.22567,5.022062 -0.63312,3.30506 1.64351,1.937448 10.30269,-6.189007 z m 12.13878,3.720097 c 1.38676,-1.670936 1.19424,-2 -1.17007,-2 -1.6266,0 -2.82993,0.850428 -2.82993,2 0,1.1 0.52653,2 1.17007,2 0.64355,0 1.91701,-0.9 2.82993,-2 z m 4.95355,-5.666667 c 0.47842,-1.283333 3.28334,-4.559582 6.23316,-7.280553 2.94981,-2.720972 4.98845,-5.32206 4.53032,-5.780196 -1.09732,-1.097316 -11.71703,9.87894 -11.71703,12.110415 0,0.950461 -0.75,2.030744 -1.66667,2.400626 -1.30541,0.526746 -1.29634,0.695331 0.0419,0.777779 0.93968,0.05789 2.09995,-0.944737 2.57836,-2.228071 z M 24.160242,17.605538 c 0.8096,-2.188556 0.587513,-2.938872 -0.869874,-2.938872 -2.152082,0 -7.290368,4.617428 -7.290368,6.551356 0,2.404707 7.096478,-0.736854 8.160242,-3.612484 z M 136.65334,17.347241 c 2.1004,-2.192351 3.488,-4.31701 3.08355,-4.721465 -0.91321,-0.913205 -9.07023,5.82516 -9.07023,7.492749 0,2.236839 2.13581,1.248153 5.98668,-2.771284 z M 10.222222,151.1111 c -2.3822306,-2.38222 1.714394,-12.44444 5.066502,-12.44444 0.473701,0 3.936814,-3.02741 7.695806,-6.72757 7.301071,-7.18682 12.0065,-8.33751 12.751385,-3.1183 0.368023,2.57862 -4.401438,8.84051 -15.341975,20.14266 -2.800552,2.89312 -8.271189,4.04819 -10.171718,2.14765 z m 58.477963,-28.3902 c -0.434789,-0.7035 -0.0202,-2.6535 0.921311,-4.33333 0.941509,-1.67983 1.713065,-3.15547 1.714569,-3.27919 0.0015,-0.12372 1.651503,-0.63877 3.666667,-1.14455 3.250636,-0.81586 3.663933,-0.55059 3.663933,2.35164 0,5.34549 -7.601982,10.23127 -9.96648,6.40543 z m -30.033519,-3.51508 c 0,-3.13559 4.883144,-9.44374 7.926474,-10.23959 6.821363,-1.78383 6.586963,8.56338 -0.247966,10.94605 -5.643518,1.96734 -7.678508,1.78011 -7.678508,-0.70646 z m 12,-77.922226 c 0,-1.494024 2.55,-5.257539 5.666666,-8.363368 9.678948,-9.64529 20.982901,-22.844561 20.991649,-24.5112875 0.0129,-2.4572762 5.520273,-5.7422719 9.62706,-5.7422719 2.197932,0 4.339612,1.0369492 5.292261,2.5623829 1.578527,2.5276218 1.644427,2.5276218 4.857777,0 4.268731,-3.3577809 9.087591,-3.2783531 10.938601,0.1802975 1.27428,2.3810188 0.6796,3.4979232 -4.50983,8.470105 C 96.332805,20.776176 88.281572,25.726686 85.807322,24.777227 83.708638,23.971887 83.375596,19.209948 85.333332,18 c 0.733333,-0.453226 1.333333,-1.431492 1.333333,-2.173928 0,-0.742435 -0.852828,-0.557024 -1.895172,0.412022 -1.042345,0.969048 -4.942345,4.42042 -8.666667,7.669716 -7.094393,6.189525 -9.890418,12.072416 -3.258349,6.855629 7.535709,-5.92759 11.675724,-2.006309 6.122289,5.798824 -2.694374,3.786837 -4.258665,4.808277 -6.893667,4.501381 -2.486928,-0.289652 -3.449883,-1.219469 -3.561743,-3.439177 -0.242785,-4.817701 -1.112257,-4.691821 -6.989591,1.011936 -6.086401,5.906652 -10.857099,7.069848 -10.857099,2.647191 z"
       id="path378" />
  </g>
</svg>
