<?xml version="1.0" encoding="UTF-8" standalone="no"?>
<!-- Created with Inkscape (http://www.inkscape.org/) -->

<svg
   version="1.1"
   id="svg62"
   width="65.333336"
   height="162.66667"
   viewBox="0 0 65.333336 162.66667"
   xmlns="http://www.w3.org/2000/svg"
   xmlns:svg="http://www.w3.org/2000/svg">
  <defs
     id="defs66" />
  <g
     id="g68">
    <path
       style="fill:#000000;stroke-width:1.33333"
       d="M 11.333334,156.35754 C 3.8612007,155.27288 2.5584926,152.8192 3.4206741,141.4538 4.3827015,128.77223 4.3678988,127.02393 3.2526935,121.61407 c -0.6743147,-3.27109 -0.295559,-5.05839 1.4900832,-7.0315 1.8354493,-2.02815 2.0281564,-3.01163 0.8257186,-4.21407 -1.9728142,-1.97282 -2.0407133,-8.02961 -0.1116408,-9.95869 1.0535835,-1.053579 1.0535835,-2.210368 0,-4.179007 C 3.5658183,92.69737 3.5839083,84.949427 5.4876398,83.045696 6.5822699,81.951066 6.4061479,80.745508 4.8209731,78.482354 2.0883706,74.581018 2.064125,69.542444 4.7636011,66.559557 c 1.9070225,-2.107236 1.9070225,-2.684332 0,-6.372106 -2.6685786,-5.160463 -2.6918122,-10.709533 -0.049087,-11.723642 1.841574,-0.706679 1.841574,-1.100645 0,-3.911243 -3.5129228,-5.361397 -2.3247096,-14.300847 1.7291642,-13.009265 1.3796544,0.439562 1.66643,0.281168 0.7559269,-0.417524 -2.5091389,-1.925434 -4.4706068,-6.66205 -4.4077983,-10.644093 0.033096,-2.09826 0.061016,-6.066672 0.062045,-8.818695 C 2.8552368,7.9608034 3.5771592,6.2732095 5.6293314,5.1749201 9.347438,3.1850499 29.979835,4.7010456 33.589469,7.2293324 36.021404,8.932726 36.627376,8.8491167 39.15915,6.4608517 41.527563,4.2266856 43.108679,3.918415 48.666669,4.6071686 57.595401,5.7136291 62.061199,9.1036129 61.797433,14.57472 61.224925,26.449887 57.823629,28.278487 49.846066,21 c -6.428224,-5.864916 -8.512731,-6.954405 -8.512731,-4.449268 0,1.109115 3.601472,4.462284 8.003271,7.45149 4.401799,2.989204 8.948075,6.876871 10.102836,8.63926 2.764163,4.218644 1.964271,9.03516 -1.772773,10.67469 -3.708807,1.627142 -3.819952,3.530302 -0.333333,5.707732 3.017796,1.884645 3.499252,7.012432 1.029693,10.966827 -1.333048,2.134548 -1.235309,3.307057 0.526432,6.315241 1.661045,2.836245 2.018331,6.016111 1.538647,13.69403 -0.343618,5.5 -1.253528,11.650543 -2.022024,13.667872 -0.964936,2.532988 -0.969612,4.183185 -0.01511,5.333333 1.816991,2.189423 1.787727,23.494683 -0.03748,27.286673 -1.046219,2.17359 -0.988315,3.47725 0.219061,4.93205 0.902648,1.08763 1.50669,4.25809 1.342312,7.04546 -0.164376,2.78737 0.155543,7.32452 0.710932,10.08256 1.697361,8.42903 0.771763,8.76784 -23.694195,8.67351 -11.879053,-0.0458 -23.398273,-0.34458 -25.598273,-0.66392 z m 23.333334,-17.0242 c 0,-1.1 -0.581169,-2 -1.291487,-2 -0.710318,0 -0.946125,0.9 -0.524014,2 0.422109,1.1 1.003278,2 1.291486,2 0.288208,0 0.524015,-0.9 0.524015,-2 z M 20.972224,124.52778 c -0.443056,-0.44305 -1.593057,-0.49042 -2.555557,-0.10527 -1.063644,0.42564 -0.747701,0.74158 0.805556,0.80556 1.405555,0.0579 2.193055,-0.25724 1.750001,-0.70029 z m 12.228904,-19.27615 c -2.537983,-1.56856 -3.136793,-0.45576 -1.0023,1.86263 1.042389,1.13219 2.01006,1.38503 2.29702,0.60017 0.272715,-0.74589 -0.309909,-1.85416 -1.29472,-2.4628 z M 47.11983,86.333335 c -0.570653,-0.916667 -0.863124,-3.016667 -0.649935,-4.666667 0.443275,-3.430786 -2.566635,-4.09657 -5.041061,-1.115069 -1.237506,1.491103 -0.940506,2.466135 1.421489,4.666667 3.283707,3.059238 5.906192,3.744153 4.269507,1.115069 z M 24.764025,80.57355 c -1.905789,-1.90579 -2.097357,-1.905983 -2.097357,-0.0021 0,1.152381 0.6,2.095238 1.333333,2.095238 0.733333,0 1.402935,1.05 1.488001,2.333334 0.14713,2.219592 0.184372,2.219696 0.764024,0.0021 0.335147,-1.282167 -0.334454,-3.275024 -1.488001,-4.428572 z m 9.40003,-6.530707 c -1.809771,-1.809771 -3.677476,-4.509771 -4.150456,-6 -0.47298,-1.49023 -1.740643,-2.709508 -2.817026,-2.709508 -2.618919,0 -0.244192,4.532006 4.620448,8.817815 4.69354,4.135066 6.506734,4.051393 2.347034,-0.108307 z m 14.888516,-1.241696 c -0.94558,-1.026036 -1.929317,-1.665955 -2.186084,-1.422042 -0.790864,0.751279 1.213519,3.287563 2.598107,3.287563 0.718967,0 0.533556,-0.839484 -0.412023,-1.865521 z M 21.258849,60.587381 c -1.811524,-1.928278 -3.423051,-2.761437 -3.705031,-1.915498 -0.274472,0.823416 0.613635,2.340012 1.973572,3.370214 4.087118,3.096144 5.15997,2.194767 1.731459,-1.454716 z m 10.674852,-5.560109 c -6.659897,-7.316818 -9.267033,-9.241354 -9.267033,-6.840738 0,1.864295 13.489028,14.768885 14.441816,13.816095 0.338114,-0.338113 -1.990539,-3.477024 -5.174783,-6.975357 z M 37.333335,44.17544 c 0,-0.636843 -2.7,-3.857895 -6,-7.157895 -3.300001,-3.3 -6.000001,-5.178948 -6.000001,-4.175439 0,1.003509 0.6,1.824561 1.333334,1.824561 0.733333,0 1.333333,0.878835 1.333333,1.952966 0,1.07413 1.35,3.410777 3,5.192547 3.026183,3.267854 6.333334,4.501905 6.333334,2.36326 z m 3.241459,-14.625666 c -1.156891,-2.319041 -2.546355,-4.21644 -3.087699,-4.21644 -0.541345,0 -2.381222,-1.301466 -4.088615,-2.892144 -1.707393,-1.590679 -2.851279,-2.340679 -2.541965,-1.666667 2.756149,6.005828 4.465282,8.558811 5.729828,8.558811 0.820399,0 2.342951,1.181139 3.383449,2.624753 2.729048,3.786352 3.052666,2.498144 0.605002,-2.408313 z M 24.000001,27.423185 c 0,-1.050583 -1.05,-2.243962 -2.333333,-2.651954 -1.283334,-0.407991 -3.983334,-2.272705 -6.000001,-4.143808 L 12,17.225416 v 3.40689 c 0,2.412816 1.264396,4.177807 4.333334,6.048975 5.126918,3.125942 7.666667,3.371714 7.666667,0.741904 z"
       id="path239" />
  </g>
</svg>
