<?xml version="1.0" encoding="UTF-8" standalone="no"?>
<!-- Created with Inkscape (http://www.inkscape.org/) -->

<svg
   version="1.1"
   id="svg2"
   width="40.959999"
   height="38.720001"
   viewBox="0 0 40.959999 38.720001"
   xmlns="http://www.w3.org/2000/svg"
   xmlns:svg="http://www.w3.org/2000/svg">
  <defs
     id="defs6" />
  <g
     id="g8">
    <path
       style="fill:#000000;stroke-width:0.32"
       d="m 4.6399999,36.160001 c -0.1087741,-0.176 -0.4605162,-0.32 -0.7816496,-0.32 -0.3211331,0 -1.0972531,-0.568243 -1.7247109,-1.262765 L 0.99280705,33.314471 1.5364035,32.019844 c 0.370188,-0.881638 0.891524,-1.46104 1.634271,-1.816295 1.0063769,-0.481349 1.1585888,-0.481551 1.9693734,-0.0026 0.4832844,0.285483 1.0919193,0.51906 1.3525222,0.51906 0.7062281,0 1.5074297,1.426617 1.5074297,2.684125 0,1.790653 -2.6255951,3.944166 -3.3599999,2.755875 z M 18.398468,35.707559 c -1.138676,-1.138675 -1.335316,-2.330749 -0.60842,-3.688361 0.525159,-0.98083 0.810135,-1.165399 2.049952,-1.327675 0.791999,-0.103663 1.583999,-0.234524 1.759999,-0.290803 0.421619,-0.134819 1.460732,0.29695 2.16,0.897517 0.848284,0.728548 0.753905,2.973591 -0.16,3.805994 -1.773468,1.615316 -3.93843,1.866432 -5.201531,0.603328 z m 15.681531,0.334263 c -1.664662,-0.627405 -1.795907,-0.800064 -1.571062,-2.066775 0.243334,-1.370861 1.466461,-2.808831 2.903385,-3.413363 0.854756,-0.359606 1.228311,-0.352873 2.4,0.04326 0.763223,0.258037 1.567677,0.705008 1.787677,0.993268 0.689168,0.902995 0.46177,2.311696 -0.58689,3.635738 -0.906809,1.144941 -1.108044,1.24295 -2.479999,1.207869 -0.82121,-0.02099 -1.925111,-0.200999 -2.453111,-0.4 z M 4.6968149,24.005276 C 3.6694873,22.91682 3.7974354,22.400001 5.0942303,22.400001 c 0.4930528,0 1.4335955,-0.364511 2.0900946,-0.810023 C 7.8408241,21.144466 9.1929188,20.343173 10.18898,19.809329 15.720102,16.844892 16.350262,16.19095 15.715943,14.07378 15.520174,13.420362 15.36,12.29534 15.36,11.573731 c 0,-0.72161 -0.24637,-1.8286607 -0.547489,-2.4601135 -0.828432,-1.7372407 -0.401453,-2.2265408 2.738203,-3.1378653 2.382293,-0.6914903 3.044683,-0.375033 3.688936,1.7623904 0.282132,0.9360218 0.550628,2.2632734 0.596658,2.9494494 0.10359,1.544219 0.887308,2.175786 1.74496,1.406193 0.318302,-0.285621 2.450731,-1.453479 4.738731,-2.5952404 2.288,-1.1417617 4.570151,-2.508666 5.071443,-3.0375659 0.868157,-0.9159677 0.891456,-1.0169078 0.490586,-2.1254941 -0.671523,-1.8570617 0.490282,-3.1559696 2.192275,-2.4509815 1.163603,0.4819811 1.776365,2.1235815 1.34895,3.6138814 -0.156592,0.5460035 -0.213689,1.107648 -0.126886,1.2480986 0.0868,0.1404505 -0.110314,0.5159488 -0.438038,0.8344409 -0.327725,0.3184919 -0.673479,0.7974106 -0.768346,1.0642634 -0.17815,0.5011325 -0.671309,0.7825056 -3.129984,1.7858166 -1.52755,0.623346 -2.79682,1.431446 -4.097915,2.608996 -0.437546,0.396 -0.986647,0.72 -1.220223,0.72 -0.233576,0 -1.040548,0.367124 -1.793273,0.81583 -0.752723,0.448706 -1.900318,1.043301 -2.550208,1.321321 -1.332858,0.57019 -1.68357,1.153636 -1.217233,2.024994 0.175369,0.327679 0.318852,0.971793 0.318852,1.431364 0,0.460495 0.352586,1.188168 0.785455,1.621037 0.7494,0.7494 0.966059,0.78523 4.72,0.780554 2.164,-0.0027 4.141515,-0.135862 4.394481,-0.295927 0.657997,-0.416352 2.900064,0.780536 2.900064,1.548149 0,0.326873 -0.187632,0.750035 -0.41696,0.940361 -0.281843,0.233907 -4.637284,0.360382 -13.440337,0.390285 -7.348619,0.02496 -13.1011771,0.170122 -13.2019252,0.333136 -0.098201,0.158893 -0.7105171,0.288897 -1.3607014,0.288897 -0.8973671,0 -1.3992352,-0.229998 -2.0832605,-0.954725 z M 19.552231,21.657051 c 0.267407,-0.586894 0.207734,-0.973383 -0.284092,-1.84 -0.761656,-1.34207 -1.821867,-1.383909 -3.457386,-0.136438 -0.600053,0.457682 -1.594948,1.04271 -2.210879,1.300063 C 12.983943,21.238028 12.48,21.662657 12.48,21.924295 c 0,0.390799 0.600937,0.475706 3.36686,0.475706 3.211839,0 3.382446,-0.03421 3.705371,-0.74295 z"
       id="path1073" />
  </g>
</svg>
