<?xml version="1.0" encoding="UTF-8" standalone="no"?>
<!-- Created with Inkscape (http://www.inkscape.org/) -->

<svg
   version="1.1"
   id="svg12"
   width="22.719999"
   height="43.84"
   viewBox="0 0 22.719999 43.84"
   xmlns="http://www.w3.org/2000/svg"
   xmlns:svg="http://www.w3.org/2000/svg">
  <defs
     id="defs16" />
  <g
     id="g18">
    <path
       style="fill:#000000;stroke-width:0.32"
       d="m 10.450001,38.64 c -0.08583,-0.924 -0.156848,-2.04 -0.157823,-2.48 -9.6e-4,-0.44 -0.103524,-1.481181 -0.227886,-2.313731 -0.1689971,-1.131367 -0.1000064,-1.706195 0.273125,-2.275666 0.631896,-0.964395 2.317438,-1.339311 3.256123,-0.724262 0.590491,0.386905 0.691344,0.763937 0.706843,2.642478 0.0099,1.205149 -0.102335,2.423923 -0.249509,2.708387 -0.155156,0.299895 -0.113671,0.924976 0.09873,1.487703 0.302758,0.802096 0.271694,1.114915 -0.17902,1.802793 C 13.519859,40.175603 13.18069,40.32 12.015648,40.32 H 10.606052 Z M 9.8412508,19.819176 c -0.5273677,-0.311067 -0.5228746,-0.399897 0.08,-1.581628 C 10.388891,17.320897 10.56,16.352452 10.56,14.622344 c 0,-1.965952 0.108842,-2.461653 0.647561,-2.949187 0.453867,-0.410744 0.748456,-0.485139 0.984875,-0.24872 0.493419,0.493419 0.914469,2.641036 0.714152,3.642623 -0.233618,1.168087 0.815468,2.214626 2.213411,2.20804 0.572,-0.0027 1.187052,-0.110695 1.366782,-0.24 0.190032,-0.136717 0.348081,-2.042906 0.37768,-4.5551 C 16.93483,6.5074736 17.13402,6.733968 11.837382,6.7638416 9.5487154,6.7767504 7.5935305,6.9210243 7.492527,7.0844515 7.3915235,7.247879 7.2484867,8.3220106 7.1746682,9.4714109 7.1008493,10.620811 6.8912839,11.839953 6.7089671,12.180615 c -0.2288323,0.427577 -0.2284464,0.811914 0.00125,1.241098 0.2352124,0.439499 0.2234579,0.861539 -0.040106,1.44 -0.2831667,0.621483 -0.2835206,1.014314 -0.00147,1.633344 0.5153517,1.131074 0.4637283,2.246865 -0.1314924,2.842086 -0.6783859,0.678386 -1.2873696,0.63263 -2.0759776,-0.155978 -0.6315001,-0.6315 -0.6525881,-0.920268 -0.5082723,-6.96 C 4.1407387,4.3597395 4.0848158,4.8627558 4.8143742,4.4723082 5.695105,4.0009552 18.410362,4.2011146 18.902619,4.6940806 c 0.205449,0.2057444 0.36517,0.980793 0.354936,1.7223303 -0.01105,0.8003542 0.178637,1.5454941 0.466766,1.8336237 0.316435,0.3164348 0.403381,0.7193728 0.2498,1.1576697 C 19.775407,9.9748067 19.708182,11.544076 19.811665,13.2 c 0.01375,0.22 -0.01123,1.665853 -0.0555,3.213008 -0.05716,1.997655 -0.210441,2.893321 -0.528823,3.090091 -0.246582,0.152396 -1.901609,0.26964 -3.677838,0.260542 -1.776231,-0.0091 -3.66151,0.07383 -4.189509,0.184284 -0.528,0.110455 -1.211438,0.05252 -1.5187492,-0.128749 z"
       id="path934" />
  </g>
</svg>
