<?xml version="1.0" encoding="UTF-8" standalone="no"?>
<!-- Created with Inkscape (http://www.inkscape.org/) -->

<svg
   version="1.1"
   id="svg22"
   width="162.66667"
   height="160"
   viewBox="0 0 162.66667 160"
   xmlns="http://www.w3.org/2000/svg"
   xmlns:svg="http://www.w3.org/2000/svg">
  <defs
     id="defs26" />
  <g
     id="g28">
    <path
       style="fill:#000000;stroke-width:1.33333"
       d="m 118.5622,150.88821 c -9.48851,-6.01929 -14.53091,-19.25723 -10.40221,-27.3092 C 110.23684,119.52867 117.53744,112 119.38824,112 c 2.51039,0 6.3297,-5.07456 5.48198,-7.28367 -0.58773,-1.53161 -2.82632,-2.04966 -8.85696,-2.04966 -7.3459,0 -8.20879,-0.30368 -9.61164,-3.38259 -1.27411,-2.796381 -1.14546,-3.778419 0.74237,-5.666667 1.94772,-1.948156 5.4632,-2.317056 23.90313,-2.508293 24.34968,-0.252528 28.12351,0.755192 27.36672,7.307701 -0.3735,3.233989 -0.99854,3.617449 -6.41384,3.934799 -14.20874,0.8327 -15.58208,3.70202 -5.46476,11.41759 8.26591,6.30366 11.3923,12.54014 10.29602,20.53838 -1.62488,11.8547 -9.07702,18.2384 -22.83126,19.55781 -8.77274,0.84156 -9.69999,0.66273 -15.4378,-2.97719 z M 7.0211257,151.73408 C 5.233862,149.54732 4.931351,143.61025 5.1542717,115.09524 5.2907664,97.635468 5.7688587,91.754951 7.1654025,90.358407 9.5808677,87.942943 64.712624,88.491671 67.687729,90.960788 c 1.575103,1.30722 1.762039,6.378617 1.109151,30.090272 -0.431876,15.68494 -1.123261,29.06502 -1.536411,29.7335 -0.828376,1.34035 -32.449226,1.69888 -35.818086,0.40612 -2.541521,-0.97527 -2.638553,-7.11699 -0.355657,-22.51167 1.181044,-7.96436 2.128192,-10.75841 3.751437,-11.06659 4.26613,-0.80997 6.495171,3.42498 6.495171,12.34017 0,9.3844 0.613676,10.04741 9.299732,10.04741 3.403796,0 5.34885,-0.69636 5.89095,-2.10905 0.445125,-1.15998 0.809319,-9.53887 0.809319,-18.61976 0,-14.95904 -0.242374,-16.64041 -2.579013,-17.89094 C 53.335866,100.62111 45.009333,100 36.250915,100 c -12.557784,0 -16.276771,0.42459 -17.591164,2.00833 -1.263604,1.52255 -1.453751,7.08588 -0.786109,23 0.674957,16.08848 0.473912,21.77026 -0.860719,24.325 -1.954247,3.7408 -7.7570169,5.13504 -9.9917973,2.40075 z M 58.666668,38.630295 C 41.266241,37.285311 32.76825,35.815628 20,31.9431 7.545159,28.165627 4.5477165,25.690184 6.2488739,20.586712 7.3826634,17.185344 8.6769547,16.599987 22.739615,13.128595 31.132827,11.056717 39.707657,9.3551964 41.794792,9.3474385 c 2.087134,-0.00776 7.073545,-0.9672652 11.080912,-2.1322384 5.786683,-1.6822342 11.453947,-1.979954 27.538543,-1.4466884 21.723993,0.7202332 41.377193,2.6444679 48.919093,4.7896443 2.56666,0.730049 8.56666,2.277146 13.33333,3.437993 13.11036,3.192826 17.68408,10.568772 9,14.514128 -17.09441,7.766348 -61.265716,12.572954 -93.000002,10.120018 z M 110.25265,26.819776 c 6.73895,-0.694995 13.24374,-1.818272 14.45509,-2.496175 1.87313,-1.048256 1.63599,-1.44728 -1.58598,-2.668666 -7.96922,-3.020979 -41.442573,-4.560795 -60.455092,-2.78101 -4.033333,0.377566 -12.733334,1.18668 -19.333334,1.798034 l -12,1.11155 8,1.806699 c 4.4,0.993685 13.292656,2.335051 19.761458,2.980813 6.468801,0.645764 12.139477,1.552135 12.601501,2.01416 0.973087,0.973086 20.809838,0.0648 38.556357,-1.765405 z"
       id="path795" />
  </g>
</svg>
