<?xml version="1.0" encoding="UTF-8" standalone="no"?>
<!-- Created with Inkscape (http://www.inkscape.org/) -->

<svg
   version="1.1"
   id="svg32"
   width="160"
   height="153.33333"
   viewBox="0 0 160 153.33333"
   xmlns="http://www.w3.org/2000/svg"
   xmlns:svg="http://www.w3.org/2000/svg">
  <defs
     id="defs36" />
  <g
     id="g38">
    <path
       style="fill:#000000;stroke-width:1.33333"
       d="M 60.666667,146.66445 C 57,146.11286 51.9,144.74538 49.333333,143.6256 c -2.566666,-1.11979 -7.366666,-2.82407 -10.666666,-3.78731 -5.303898,-1.54813 -20.832566,-10.08084 -28.9726683,-15.91991 -1.596061,-1.14489 -3.492791,-3.6357 -4.2149556,-5.53514 -2.0236124,-5.3225 2.0147261,-8.35889 9.4869259,-7.13312 3.135384,0.51434 34.939271,0.88205 70.675306,0.81713 63.482135,-0.11532 65.036445,-0.0562 67.666675,2.57402 1.48062,1.48063 2.69205,3.53692 2.69205,4.56953 0,2.13102 -19.58135,15.36222 -26.66667,18.0188 -2.56666,0.96234 -6.50186,2.55305 -8.74489,3.53489 -2.24302,0.98184 -7.34302,2.38052 -11.33333,3.10819 C 105.2648,144.60033 99.3,145.80053 96,146.53977 c -6.866153,1.53812 -25.500235,1.60387 -35.333333,0.12467 z m -32,-112.22272 C 13.937852,29.676943 10.132356,27.830969 9.6268055,25.205855 9.2226777,23.107389 10.620963,22.206109 22,17.230577 c 3.666667,-1.603265 8.400453,-4.367793 10.519527,-6.143394 2.654808,-2.2245009 5.140605,-3.1027646 7.994168,-2.824441 3.43421,0.3349574 4.259204,1.0868941 4.831806,4.403924 l 0.690499,4 H 75.556971 105.07794 L 108.47531,13 c 1.86855,-2.016667 4.36545,-3.6666669 5.54868,-3.6666669 3.21232,0 7.30934,2.5220849 7.30934,4.4995589 0,2.814301 5.40552,4.474993 14.45712,4.441545 5.85,-0.02161 8.8237,0.547812 9.64624,1.847155 1.92103,3.03453 1.41016,6.354814 -1.19202,7.747466 -1.36072,0.728235 -23.12385,1.605576 -49.666671,2.00222 -25.984566,0.388303 -47.59075,0.726116 -48.013742,0.750696 -0.422992,0.02458 -0.504892,1.844692 -0.182001,4.044692 0.515983,3.515617 0.205463,3.979237 -2.564257,3.828538 -1.733232,-0.0943 -8.551332,-1.918367 -15.151332,-4.053474 z"
       id="path656" />
  </g>
</svg>
