<?xml version="1.0" encoding="UTF-8" standalone="no"?>
<!-- Created with Inkscape (http://www.inkscape.org/) -->

<svg
   version="1.1"
   id="svg42"
   width="41.333332"
   height="149.33333"
   viewBox="0 0 41.333332 149.33333"
   xmlns="http://www.w3.org/2000/svg"
   xmlns:svg="http://www.w3.org/2000/svg">
  <defs
     id="defs46" />
  <g
     id="g48">
    <path
       style="fill:#000000;stroke-width:1.33333"
       d="M 16.130941,141.578 C 15.402706,140.21728 14.525365,118.45415 14.128721,91.91133 13.740418,65.926765 13.402605,44.320582 13.378025,43.89759 13.353444,43.474598 11.533333,43.392698 9.333333,43.715588 4.2190115,44.466211 4.2225328,43.543547 9.3971425,26.995659 14.283145,11.370708 16.109267,7.4771985 18.794143,6.9601386 20.89261,6.5560109 21.79389,7.9542965 26.769422,19.333333 c 1.603265,3.666666 4.367793,8.400453 6.143394,10.519526 2.2245,2.654808 3.102764,5.140606 2.82444,7.994168 -0.334957,3.434211 -1.086893,4.259204 -4.403924,4.831807 l -4,0.690498 v 29.52097 29.520968 l 3.666667,3.39737 c 2.016667,1.86855 3.666667,4.36545 3.666667,5.54868 0,3.21232 -2.522086,7.30934 -4.499559,7.30934 -2.814301,0 -4.474993,5.40552 -4.441545,14.45712 0.02161,5.85 -0.547812,8.8237 -1.847155,9.64624 -3.03453,1.92103 -6.354814,1.41016 -7.747466,-1.19202 z"
       id="path517" />
  </g>
</svg>
