<?xml version="1.0" encoding="UTF-8" standalone="no"?>
<!-- Created with Inkscape (http://www.inkscape.org/) -->

<svg
   version="1.1"
   id="svg52"
   width="39.360001"
   height="38.720001"
   viewBox="0 0 39.360001 38.720001"
   xmlns="http://www.w3.org/2000/svg"
   xmlns:svg="http://www.w3.org/2000/svg">
  <defs
     id="defs56" />
  <g
     id="g58">
    <path
       style="fill:#000000;stroke-width:0.32"
       d="M 32.126644,36.179854 C 31.925883,35.978955 25.529279,35.524491 22.560001,35.500161 21.504001,35.491521 19.2,35.637419 17.44,35.824404 12.597213,36.33891 9.9964799,35.780292 9.2112662,34.056935 8.786334,33.124311 8.3147116,32.988753 5.1200001,32.88097 2.7767716,32.801918 2.7176506,32.779658 2.6206784,31.940038 2.5481496,31.312057 2.7351271,30.940007 3.3138087,30.56084 4.516059,29.773095 4.5672974,29.205524 3.5337921,28.12406 2.0774853,26.600174 2.9246487,25.690858 4.9436433,26.610773 c 0.667898,0.304315 0.9188813,0.275636 1.4002538,-0.16 0.6560228,-0.593692 1.8309805,-0.704471 2.1415774,-0.201915 0.1117849,0.180872 -0.2509876,0.753174 -0.8061607,1.271784 -0.5781194,0.540044 -0.9628157,1.185707 -0.9003639,1.511142 0.059973,0.312519 0.8272436,0.95352 1.7050462,1.424447 1.0766377,0.577598 1.8624509,1.306531 2.4147909,2.24 1.089901,1.841962 2.31952,1.987965 5.066025,0.601533 1.861463,-0.939664 2.097728,-0.977763 6.06339,-0.977763 3.261192,0 4.454124,0.125526 5.689126,0.598633 2.301354,0.881613 4.396695,1.321367 6.296062,1.321367 1.582835,0 3.106611,0.617693 3.106611,1.259322 0,0.748521 -4.335015,1.339324 -4.993357,0.680531 z M 18.380034,25.932035 c -0.169381,-0.169382 -1.818181,-0.349382 -3.664,-0.4 C 11.98713,25.457199 11.36,25.350305 11.36,24.960001 c 0,-0.291929 0.313452,-0.4899 0.8,-0.505266 0.44,-0.01389 1.617185,-0.0499 2.615965,-0.08 l 1.815966,-0.05473 0.98491,-1.818444 c 0.977006,-1.803848 0.979939,-1.823753 0.365351,-2.48 C 17.110651,19.13365 16.64,17.811792 16.64,16.364254 16.64,15.20159 16.412677,14.772573 14.690623,12.685283 13.18355,10.85857 12.616223,7.8564626 13.620572,7.0229275 13.958997,6.7420597 14.054319,6.3412402 13.914846,5.7855352 13.614329,4.5881806 13.197314,4.2091399 12.05879,4.0984974 10.375774,3.9349409 10.581643,3.0512546 12.444727,2.4418706 c 1.994571,-0.652391 3.631622,-0.664303 4.848025,-0.035276 1.131162,0.5849467 2.347124,2.791597 2.051519,3.7229663 -0.160027,0.5041981 0.183034,1.0468288 1.504212,2.379264 0.941335,0.9493556 2.179585,2.2672421 2.751669,2.9286381 0.572083,0.661396 1.837879,2.055269 2.812879,3.097496 0.975001,1.042227 1.730383,2.122227 1.678626,2.4 -0.05176,0.277773 -0.974846,0.971156 -2.051311,1.540851 -1.772275,0.937938 -1.975796,1.15205 -2.153926,2.266014 -0.108194,0.676612 -0.4869,1.492816 -0.841568,1.813787 -0.824901,0.746524 -0.82724,1.64205 -0.0049,1.857109 0.352,0.09205 0.64,0.396845 0.64,0.677322 0,0.409386 -0.374931,0.509959 -1.901115,0.509959 -1.045613,0 -1.990111,0.144 -2.098886,0.32 -0.250864,0.405907 -0.900082,0.411917 -1.299966,0.01204 z m 2.325198,-2.492034 c 0.307992,-0.484 0.690802,-0.972544 0.850688,-1.085654 0.409808,-0.289912 -0.04274,-1.874346 -0.535354,-1.874346 -0.458125,0 -2.208142,3.345756 -1.90735,3.646549 0.423799,0.423799 1.06005,0.149418 1.592016,-0.686549 z"
       id="path378" />
  </g>
</svg>
