<?xml version="1.0" encoding="UTF-8" standalone="no"?>
<!-- Created with Inkscape (http://www.inkscape.org/) -->

<svg
   version="1.1"
   id="svg62"
   width="38.400002"
   height="38.080002"
   viewBox="0 0 38.400002 38.080002"
   xmlns="http://www.w3.org/2000/svg"
   xmlns:svg="http://www.w3.org/2000/svg">
  <defs
     id="defs66" />
  <g
     id="g68">
    <path
       style="fill:#000000;stroke-width:0.32"
       d="M 8.1600004,35.520002 C 8.0512263,35.344002 7.1427281,35.197797 6.1411149,35.195103 4.0724748,35.189535 3.820453,35.069119 3.2734869,33.824946 2.6322804,32.366405 2.7965801,31.439598 3.8660245,30.48247 c 1.3220462,-1.1832 2.7677621,-1.438856 9.5739765,-1.693032 0.264,-0.0099 2.136,0.06338 4.16,0.162744 2.024,0.09937 5.984,0.228379 8.8,0.286692 2.816001,0.05831 5.228001,0.127422 5.360001,0.153576 0.417542,0.08273 0.247136,0.81975 -0.377437,1.632439 -0.532173,0.692461 -0.699562,0.740985 -1.421457,0.412067 -0.510726,-0.232702 -0.889777,-0.257089 -1.008564,-0.06489 -0.25761,0.41682 -3.262029,0.393272 -3.522146,-0.02761 -0.141208,-0.228478 -0.354749,-0.213228 -0.669262,0.0478 -0.360096,0.298853 -0.747638,0.289027 -1.758494,-0.04459 -1.011678,-0.333883 -1.430362,-0.344386 -1.905282,-0.04779 -0.744435,0.464908 -2.744718,0.501266 -3.020585,0.0549 -0.110548,-0.178871 -0.362797,-0.225222 -0.560553,-0.103002 -0.633823,0.391724 -4.451152,0.460998 -4.899488,0.08891 -0.312441,-0.259302 -0.727845,-0.244081 -1.561024,0.0572 -0.883348,0.319422 -1.2205556,0.325263 -1.5195009,0.02632 -0.2113145,-0.211313 -0.708633,-0.384207 -1.1051517,-0.384207 -0.8260519,0 -2.3510571,0.630603 -2.3510571,0.972182 0,0.874723 1.2340634,0.952819 13.7712507,0.871485 l 12.896837,-0.08367 0.56257,-0.96 c 1.017702,-1.736669 0.568598,-2.877971 -1.565914,-3.979437 -0.752786,-0.388458 -10.62847,-0.561074 -21.9847435,-0.38427 -2.9920001,0.04658 -5.6200003,0.07547 -5.8400003,0.0642 -0.6615783,-0.0339 -0.4824592,-1.873846 0.2189629,-2.249236 0.7637383,-0.40874 2.4795284,-0.434389 2.7228401,-0.0407 0.1025888,0.165992 5.9068508,0.299978 13.5388858,0.312534 13.170177,0.02167 13.380138,0.03214 14.830263,0.739922 1.241216,0.605817 1.534292,0.932473 1.876525,2.091546 0.223066,0.75548 0.308413,1.767764 0.189658,2.249521 -0.118752,0.481756 -0.297552,1.307921 -0.397335,1.835921 -0.253209,1.339901 -1.915705,2.72 -3.276569,2.72 -0.344004,0 -0.714455,0.144 -0.823229,0.32 -0.270672,0.437955 -24.3693305,0.437955 -24.6400016,0 z M 16.960001,19.840001 c -0.264,-0.17061 -1.155502,-0.312405 -1.981115,-0.3151 -0.825613,-0.0027 -1.590111,-0.1489 -1.698885,-0.3249 -0.108774,-0.176 -0.623227,-0.32 -1.143228,-0.32 -0.984795,0 -1.925801,-0.418789 -3.0207588,-1.344369 C 8.7618219,17.236229 7.7538218,16.676213 6.8760141,16.291153 5.9982064,15.906093 4.7322377,15.16081 4.06275,14.63497 3.0496135,13.839215 2.861807,13.511305 2.9427499,12.679449 l 0.09725,-0.999448 3.6800001,0.0853 c 2.0240002,0.04691 5.888394,0.162259 8.587542,0.256325 3.042675,0.106038 5.053154,0.05018 5.290733,-0.146991 0.239322,-0.19862 0.559377,-0.206589 0.852458,-0.02123 0.258098,0.163237 3.812202,0.299 7.89801,0.301695 7.20891,0.0048 7.439349,0.02472 7.787211,0.674705 0.575014,1.074424 0.13313,1.997408 -1.240477,2.591046 -0.688304,0.297467 -1.450365,0.729467 -1.693469,0.96 -0.692009,0.656224 -3.159368,1.85915 -3.813361,1.85915 -0.324981,0 -0.664662,0.119391 -0.754847,0.265314 -0.09019,0.145922 -0.998684,0.444064 -2.018886,0.662536 -1.020202,0.218472 -2.37562,0.531081 -3.012039,0.694686 -1.519335,0.390578 -7.028764,0.374332 -7.642874,-0.02254 z M 6.8852928,8.6485637 C 6.7007162,8.3499124 5.282078,7.641034 4.0585695,7.2360797 3.0854346,6.9139936 3.4753931,5.3765852 4.6063609,5.0764163 5.1158595,4.941191 6.5049171,4.319678 7.6931556,3.695276 10.090929,2.4352819 11.596033,2.2080313 11.503266,3.1200002 c -0.03133,0.308 -0.04038,0.7195997 -0.02012,0.9146656 0.04283,0.4122452 13.727589,0.6125815 14.308944,0.2094743 0.193653,-0.1342768 0.522719,-0.5681399 0.731259,-0.9641399 0.508001,-0.9646507 2.142769,-1.0059264 2.442465,-0.061669 0.268496,0.8459582 1.132196,1.1482065 3.514182,1.2297748 2.363392,0.080932 3.138029,0.6395821 2.249015,1.6219336 -0.56935,0.6291248 -0.938745,0.649961 -11.52283,0.649961 H 12.271562 l -0.734439,0.7817741 c -0.433147,0.461064 -1.381416,0.9205261 -2.3115315,1.12 -1.936387,0.4152807 -2.0990471,0.4171428 -2.3402987,0.026789 z"
       id="path239" />
  </g>
</svg>
