<?xml version="1.0" encoding="UTF-8" standalone="no"?>
<!-- Created with Inkscape (http://www.inkscape.org/) -->

<svg
   version="1.1"
   id="svg72"
   width="39.360001"
   height="38.720001"
   viewBox="0 0 39.360001 38.720001"
   xmlns="http://www.w3.org/2000/svg"
   xmlns:svg="http://www.w3.org/2000/svg">
  <defs
     id="defs76" />
  <g
     id="g78">
    <path
       style="fill:#000000;stroke-width:0.32"
       d="m 35.15305,36.412078 c -0.287267,-0.226643 -0.78272,-0.988077 -1.101004,-1.692077 -0.770464,-1.704154 -1.009239,-1.813715 -1.935056,-0.887898 -0.532227,0.532227 -0.961402,0.71 -1.33122,0.551415 -1.178807,-0.505485 -2.189105,-0.509664 -2.603154,-0.01078 -0.537311,0.647421 -1.425988,0.64975 -1.960969,0.0052 -0.325158,-0.391792 -0.760168,-0.454877 -1.979868,-0.287127 -1.289725,0.177383 -1.635985,0.115376 -1.979554,-0.35448 -0.365365,-0.499667 -0.537272,-0.519405 -1.402466,-0.16103 -0.835904,0.346243 -1.145809,0.328745 -2.035125,-0.114906 -0.978042,-0.48791 -1.119224,-0.485558 -2.085355,0.03474 -1.010004,0.543923 -1.055367,0.540157 -1.788409,-0.148499 -1.025423,-0.963334 -1.721113,-0.887043 -2.31087,0.253421 -0.273039,0.528 -0.559127,0.96 -0.635752,0.96 -0.07662,0 -0.435632,-0.318058 -0.797796,-0.706794 C 10.564134,33.163814 10.513274,33.159327 9.1342265,33.670438 7.8893516,34.13182 7.6735551,34.137868 7.3276309,33.721058 7.1115637,33.460654 6.5707774,33.290926 6.1258834,33.343822 5.52326,33.415476 5.2513941,33.694945 5.0597713,34.439758 4.73994,35.6829 4.0961972,36.240455 3.1376136,36.104564 2.123062,35.960743 1.9952737,34.374209 2.8614818,32.676298 c 0.3621852,-0.70994 0.6585183,-1.453825 0.6585183,-1.653076 0,-0.199251 0.288,-0.728407 0.64,-1.175903 0.352,-0.447495 0.64,-1.064576 0.64,-1.371291 0,-0.75463 0.7578986,-1.333494 1.415522,-1.081141 0.2951526,0.113261 0.6187584,0.616516 0.7191242,1.118345 0.2824483,1.41224 0.8146128,1.675984 2.1228823,1.052114 1.0839544,-0.516902 1.1572824,-0.51161 1.9902854,0.14363 0.864515,0.680028 0.865197,0.680046 1.671682,0.04566 0.962446,-0.75706 2.08848,-0.819789 2.646488,-0.147431 0.362079,0.43628 0.482077,0.43628 1.147923,0 0.966491,-0.633269 1.693117,-0.616245 2.437154,0.0571 0.381262,0.345037 1.027429,0.515621 1.764999,0.465948 0.63995,-0.0431 1.572309,0.09095 2.07191,0.297896 0.753965,0.312303 1.006445,0.287495 1.485394,-0.145948 0.734947,-0.665118 1.598326,-0.665118 2.333273,0 0.493732,0.446821 0.718874,0.463452 1.559616,0.115205 0.750941,-0.31105 1.171336,-0.321 1.783224,-0.04221 1.183191,0.539098 1.368778,0.472131 2.092924,-0.755205 0.432384,-0.732836 0.898781,-1.118307 1.349209,-1.1151 1.276951,0.0091 1.344288,0.117458 3.829732,6.163241 0.630896,1.53464 -0.80584,2.759955 -2.068292,1.763936 z M 32.806074,8.8679618 C 30.938097,7.8100012 30.580788,6.8948357 31.439308,5.3673045 c 0.776862,-1.382241 2.151298,-1.9653969 4.225045,-1.7926356 1.020102,0.084983 1.37528,0.2960278 1.838586,1.0924749 0.531004,0.912825 0.537315,1.0954967 0.08385,2.426361 -0.376016,1.1035441 -0.751392,1.5636797 -1.609443,1.9728564 -1.431968,0.6828579 -1.638048,0.6699655 -3.171268,-0.1983994 z M 20.320001,9.1119743 c -0.176,-0.064625 -0.92552,-0.2730614 -1.6656,-0.463193 C 16.886604,8.194622 16.32,7.5760562 16.32,6.1002978 c 0,-2.5153959 2.437761,-4.0230634 4.667142,-2.88646 1.914566,0.9761012 2.372859,1.5513182 2.372859,2.9782484 0,1.9180036 -1.595367,3.4503371 -3.04,2.9198881 z M 3.2696772,8.4187497 C 1.8689303,7.7403477 1.3963895,6.4221531 2.0031482,4.8856542 2.5699935,3.4502286 3.5120586,2.8911094 5.3745457,2.8847175 6.4112859,2.8811594 6.9421227,3.0730316 7.5345458,3.6654545 8.4252796,4.5561886 8.5210325,5.4030289 7.8727615,6.6566466 6.8281042,8.6767916 5.1382001,9.3237023 3.2696772,8.4187497 Z"
       id="path100" />
  </g>
</svg>
