<?xml version="1.0" encoding="UTF-8" standalone="no"?>
<!-- Created with Inkscape (http://www.inkscape.org/) -->

<svg
   version="1.1"
   id="svg2"
   width="20.48"
   height="42.240002"
   viewBox="0 0 20.48 42.240002"
   xmlns="http://www.w3.org/2000/svg"
   xmlns:svg="http://www.w3.org/2000/svg">
  <defs
     id="defs6" />
  <g
     id="g8">
    <path
       style="fill:#000000;stroke-width:0.32"
       d="m 5.6383997,36.720002 c -1.8744851,-3.149024 -3.1678748,-5.94527 -2.978375,-6.439098 0.1290886,-0.3364 0.5718127,-0.519167 1.2499321,-0.516002 1.3600739,0.0063 1.6268496,0.20441 2.4424835,1.813388 0.3731277,0.736057 0.813393,1.421708 0.9783671,1.52367 0.1649744,0.101958 0.3922883,0.605779 0.505142,1.1196 0.1128541,0.513821 0.4119328,1.105802 0.6646199,1.315514 C 8.753256,35.746786 8.96,36.404735 8.96,36.999183 c 0,1.044182 -0.042574,1.080819 -1.2560243,1.080819 -1.1373536,0 -1.3325114,-0.128493 -2.065576,-1.36 z M 12.59424,37.442696 C 11.797286,37.121087 10.88,35.919957 10.88,35.198008 10.88,34.923234 10.371609,33.911275 9.7502432,32.949211 8.4785933,30.980308 8.4151792,29.974472 9.5525482,29.81348 10.994206,29.609416 11.719459,30.028107 12.348298,31.427477 12.684734,32.176155 13.572,33.70252 14.32,34.8194 c 0.748,1.116877 1.36,2.148013 1.36,2.291408 0,0.627136 -1.858742,0.82705 -3.08576,0.331888 z M 4.6628573,19.977144 C 4.2405014,19.554788 4.16,18.486934 4.16,13.30674 4.16,7.7381175 4.2168278,7.0877639 4.7451971,6.6095965 5.2383104,6.163335 6.1346048,6.0800003 10.441197,6.0800003 c 3.548402,0 5.228194,0.117391 5.494803,0.384 0.542755,0.5427546 0.542755,13.0892457 0,13.6320007 -0.267117,0.267117 -1.964699,0.384 -5.577143,0.384 -4.2943722,0 -5.2801716,-0.08703 -5.6959997,-0.502857 z"
       id="path477" />
  </g>
</svg>
