<?xml version="1.0" encoding="UTF-8" standalone="no"?>
<!-- Created with Inkscape (http://www.inkscape.org/) -->

<svg
   version="1.1"
   id="svg12"
   width="41.599998"
   height="39.360001"
   viewBox="0 0 41.599998 39.360001"
   xmlns="http://www.w3.org/2000/svg"
   xmlns:svg="http://www.w3.org/2000/svg">
  <defs
     id="defs16" />
  <g
     id="g18">
    <path
       style="fill:#000000;stroke-width:0.32"
       d="M 19.087156,36.579156 C 18.945354,36.436622 17.364734,36.229908 15.574667,36.119796 7.3718812,35.615214 2.3654785,34.252974 2.7871948,32.640327 c 0.1532846,-0.58616 1.372805,-1.581394 1.372805,-1.120326 0,0.100384 0.292343,0.02606 0.6496515,-0.165166 0.3573081,-0.191225 1.0413081,-0.411028 1.5199999,-0.488452 0.8383709,-0.135597 2.1254233,-0.42613 5.1903478,-1.171644 2.431649,-0.591475 14.306574,-0.136456 18.24,0.698914 0.968,0.205581 1.975999,0.375854 2.239999,0.378384 0.755914,0.0072 4.56328,1.252882 5.365411,1.755378 1.024631,0.641875 0.445517,1.616691 -1.129299,1.900935 -0.657862,0.118739 -1.484112,0.36615 -1.836112,0.549798 -0.352,0.183648 -1.216,0.467226 -1.92,0.63017 -3.098997,0.71728 -12.935709,1.430339 -13.392842,0.970838 z m 7.632843,-1.993958 c 6.499049,-0.812762 6.46775,-0.805197 5.943782,-1.436541 -0.483955,-0.58313 -2.068112,-0.802797 -7.863782,-1.090432 -3.717446,-0.184496 -4.986187,-0.362519 -5.625544,-0.789346 -0.45405,-0.303118 -0.933515,-0.442618 -1.065479,-0.310001 -0.131964,0.132618 -1.560469,0.341756 -3.174456,0.464752 -4.868078,0.370978 -6.4358359,0.673315 -6.548185,1.262796 -0.077922,0.408848 0.2429628,0.57129 1.4366664,0.727287 0.8453496,0.11047 2.5449976,0.332707 3.7769976,0.493853 3.633456,0.475267 5.574724,0.840492 5.831328,1.097097 0.260225,0.260224 3.212136,0.09034 7.288672,-0.419465 z M 3.0024879,13.192885 C 2.0803549,12.440377 1.8591764,11.285838 2.4268487,10.18808 2.7722935,9.5200639 2.8107261,9.1084863 2.569712,8.6581474 2.1341501,7.8442927 2.1513683,6.2105451 2.6088408,4.9454273 2.8850695,4.1815303 3.4091163,3.7138206 4.69593,3.082708 6.6515856,2.1235646 7.4674169,2.0501298 9.009462,2.6944375 c 1.683523,0.7034211 2.190537,2.1138151 2.190537,6.0935621 0,3.6890744 -0.334496,4.4486044 -1.8802298,4.2693734 L 8.4799996,12.96 8.4286498,9.5073097 C 8.3672006,5.375571 8.1368188,4.9125128 6.5250336,5.6811195 5.1661406,6.3291304 4.9855969,6.9716853 5.1994183,10.398981 5.3598295,12.970175 5.3410679,13.062347 4.587394,13.405744 3.6464357,13.834473 3.8167243,13.857344 3.0024879,13.192885 Z M 33.462683,12.737667 C 33.390754,12.50795 33.243259,10.643246 33.134926,8.5938805 32.970405,5.4816808 33.019166,4.7865473 33.430869,4.3748433 34.238859,3.5668529 35.112466,3.4478916 35.994401,4.0257598 l 0.823578,0.5396285 -0.08899,4.197306 -0.08899,4.1973057 -1.523264,0.09767 c -1.042569,0.06685 -1.564534,-0.03414 -1.654051,-0.32 z"
       id="path338" />
  </g>
</svg>
