<?xml version="1.0" encoding="UTF-8" standalone="no"?>
<!-- Created with Inkscape (http://www.inkscape.org/) -->

<svg
   version="1.1"
   id="svg22"
   width="26.24"
   height="45.119999"
   viewBox="0 0 26.24 45.119999"
   xmlns="http://www.w3.org/2000/svg"
   xmlns:svg="http://www.w3.org/2000/svg">
  <defs
     id="defs26" />
  <g
     id="g28">
    <path
       style="fill:#000000;stroke-width:0.32"
       d="M 10.602237,37.933465 C 9.5355466,37.547298 9.2226918,37.097682 6.5080941,32.049631 5.9494461,31.010774 5.9506035,30.96603 6.5474128,30.529633 c 1.4930448,-1.091741 2.7399834,-0.387908 4.1860832,2.36283 0.620944,1.181146 1.422884,2.611597 1.782089,3.178781 0.728784,1.150749 0.572915,2.352269 -0.297149,2.290576 -0.29614,-0.02099 -1.02343,-0.21376 -1.616199,-0.428355 z m 6.39204,0.06182 c -0.731935,-0.377843 -1.489013,-1.537904 -3.45982,-5.301449 -0.874621,-1.670215 -0.880368,-1.715727 -0.27279,-2.159999 0.798427,-0.583824 1.577552,-0.574098 2.754224,0.03438 0.717937,0.371259 0.944109,0.711704 0.944109,1.421114 0,0.513094 0.134661,1.016121 0.299247,1.117843 0.361536,0.22344 2.260753,3.679852 2.260753,4.114374 0,0.363334 -0.980645,1.155718 -1.44,1.163555 -0.176,0.0029 -0.664575,-0.172416 -1.085723,-0.389821 z M 7.802551,13.698479 C 7.3453258,13.576642 6.734705,13.27453 6.445616,13.027118 6.1565274,12.779707 5.668,12.487911 5.36,12.378683 4.9312598,12.226636 4.8,11.817417 4.8,10.632816 4.8,9.2992299 4.9436278,8.9517585 5.84,8.116796 6.412,7.5839835 7.588688,6.6917355 8.4548624,6.1340229 9.9455178,5.1742188 10.193615,5.1202575 13.094862,5.1248178 c 3.585134,0.00564 5.05592,0.4367347 6.622004,1.9409616 1.736807,1.6682076 2.395412,3.1693986 2.15619,4.9147136 -0.187295,1.366472 -0.263569,1.461877 -1.196552,1.496689 -0.548077,0.02045 -1.788504,0.09238 -2.756504,0.159841 -3.487632,0.243064 -9.3033434,0.27839 -10.117449,0.06146 z"
       id="path199" />
  </g>
</svg>
