<?xml version="1.0" encoding="UTF-8" standalone="no"?>
<!-- Created with Inkscape (http://www.inkscape.org/) -->

<svg
   version="1.1"
   id="svg32"
   width="19.200001"
   height="37.759998"
   viewBox="0 0 19.200001 37.759998"
   xmlns="http://www.w3.org/2000/svg"
   xmlns:svg="http://www.w3.org/2000/svg">
  <defs
     id="defs36" />
  <g
     id="g38">
    <path
       style="fill:#000000;stroke-width:0.32"
       d="M 2.1028573,35.337141 C 1.6976776,34.931963 1.6000001,34.032261 1.6000001,30.705359 v -4.128925 l 0.9950137,-0.514542 c 0.9684017,-0.500779 1.0197531,-0.49084 1.9200002,0.371652 0.9050759,0.867118 0.9249863,0.958574 0.9249863,4.248813 0,3.213225 -0.038203,3.402496 -0.8598692,4.260131 -0.9688765,1.011289 -1.7380942,1.133833 -2.4772738,0.394653 z M 7.9083911,35.001723 C 7.7827764,34.876107 7.6800004,33.029371 7.6800004,30.897867 c 0,-2.989689 0.113856,-4.038017 0.4981453,-4.586666 0.607658,-0.867554 1.4604657,-0.912528 2.1821473,-0.115079 0.458172,0.506275 0.525936,1.217681 0.449596,4.72 l -0.08989,4.123876 -1.2916098,0.09506 c -0.710385,0.05228 -1.394385,-0.0077 -1.5200001,-0.133331 z m 5.7550519,-0.371622 c -0.438825,-0.484896 -0.542534,-1.242477 -0.538725,-3.9353 0.0055,-3.905363 0.353673,-4.889831 1.778932,-5.03033 1.810276,-0.178454 2.088561,0.557337 1.986239,5.251651 l -0.08989,4.123876 -1.296558,0.0953 c -0.94755,0.06965 -1.442843,-0.06634 -1.84,-0.505196 z m 0.736558,-22.785832 c -0.264,-0.152951 -0.696,-0.341877 -0.96,-0.419835 -0.399971,-0.11811 -0.453324,-0.686119 -0.32,-3.4068005 0.088,-1.7957823 0.04977,-3.5609505 -0.08495,-3.9225963 -0.143504,-0.3852217 -0.09414,-0.8392438 0.119182,-1.0962875 0.444507,-0.5355976 3.03613,-0.5873899 3.357686,-0.067102 0.12633,0.2044065 0.287272,1.8771896 0.357649,3.7172961 0.174929,4.5738162 -0.627735,6.2624122 -2.469569,5.1953252 z M 2.3380996,10.99408 C 2.2022794,10.640138 2.4681099,10.195413 3.1510275,9.6340801 3.7091359,9.1753358 4.1644716,8.6887823 4.162885,8.5528498 4.1612985,8.4169173 3.5931023,7.6906882 2.900227,6.9390076 1.3540512,5.2616052 1.5151816,4.4964762 3.2801976,5.134714 4.9470031,5.7374387 5.4400003,5.4076778 5.4400003,3.690043 c 0,-1.9541285 0.7183184,-1.9169075 1.3500775,0.069957 0.5093859,1.602005 1.407874,2.1252322 2.33218,1.3581263 0.5382966,-0.4467462 1.7577432,-0.1238323 1.7577432,0.4654573 0,0.2312505 -0.504,0.8048748 -1.1200005,1.2747209 -1.3340794,1.0175519 -1.3628689,1.2406742 -0.32,2.4800533 0.44,0.5229104 0.8000005,1.2276972 0.8000005,1.5661932 0,0.890612 -1.3978169,0.799599 -2.3070505,-0.150213 C 6.7265476,9.4940942 5.9590822,9.4447563 4.703973,10.546757 3.4701711,11.630049 2.6422155,11.786593 2.3380996,10.99408 Z"
       id="path60" />
  </g>
</svg>
